<?xml version="1.0" encoding="UTF-8" standalone="no"?>
<!DOCTYPE svg PUBLIC "-//W3C//DTD SVG 1.1//EN"
 "http://www.w3.org/Graphics/SVG/1.1/DTD/svg11.dtd">
<!-- Generated by graphviz version 2.38.0 (20140413.2041)
 -->
<!-- Title: C:/dev/Igor/src/Igor/src/Intersection3D.h Pages: 1 -->
<svg width="125pt" height="106pt"
 viewBox="0.00 0.00 125.00 106.00" xmlns="http://www.w3.org/2000/svg" xmlns:xlink="http://www.w3.org/1999/xlink">
<g id="graph0" class="graph" transform="scale(1 1) rotate(0) translate(4 102)">
<title>C:/dev/Igor/src/Igor/src/Intersection3D.h</title>
<polygon fill="white" stroke="none" points="-4,4 -4,-102 121,-102 121,4 -4,4"/>
<!-- Node1 -->
<g id="node1" class="node"><title>Node1</title>
<polygon fill="#bfbfbf" stroke="black" points="5,-67.5 5,-97.5 112,-97.5 112,-67.5 5,-67.5"/>
<text text-anchor="start" x="13" y="-85.5" font-family="Helvetica,sans-Serif" font-size="10.00">C:/dev/Igor/src/Igor</text>
<text text-anchor="middle" x="58.5" y="-74.5" font-family="Helvetica,sans-Serif" font-size="10.00">/src/Intersection3D.h</text>
</g>
<!-- Node2 -->
<g id="node2" class="node"><title>Node2</title>
<g id="a_node2"><a xlink:href="_intersection3_d_8cpp.html" target="_top" xlink:title="C:/dev/Igor/src/Igor\l/src/Intersection3D.cpp">
<polygon fill="white" stroke="black" points="0,-0.5 0,-30.5 117,-30.5 117,-0.5 0,-0.5"/>
<text text-anchor="start" x="8" y="-18.5" font-family="Helvetica,sans-Serif" font-size="10.00">C:/dev/Igor/src/Igor</text>
<text text-anchor="middle" x="58.5" y="-7.5" font-family="Helvetica,sans-Serif" font-size="10.00">/src/Intersection3D.cpp</text>
</a>
</g>
</g>
<!-- Node1&#45;&gt;Node2 -->
<g id="edge1" class="edge"><title>Node1&#45;&gt;Node2</title>
<path fill="none" stroke="midnightblue" d="M58.5,-57.1081C58.5,-48.1539 58.5,-38.3227 58.5,-30.5765"/>
<polygon fill="midnightblue" stroke="midnightblue" points="55.0001,-57.3959 58.5,-67.396 62.0001,-57.396 55.0001,-57.3959"/>
</g>
</g>
</svg>
