<?xml version="1.0" encoding="UTF-8" standalone="no"?>
<!DOCTYPE svg PUBLIC "-//W3C//DTD SVG 1.1//EN"
 "http://www.w3.org/Graphics/SVG/1.1/DTD/svg11.dtd">
<!-- Generated by graphviz version 2.38.0 (20140413.2041)
 -->
<!-- Title: C:/dev/Igor/src/Tools/ModelViewer/src/Manipulator.h Pages: 1 -->
<svg width="421pt" height="173pt"
 viewBox="0.00 0.00 421.00 173.00" xmlns="http://www.w3.org/2000/svg" xmlns:xlink="http://www.w3.org/1999/xlink">
<g id="graph0" class="graph" transform="scale(1 1) rotate(0) translate(4 169)">
<title>C:/dev/Igor/src/Tools/ModelViewer/src/Manipulator.h</title>
<polygon fill="white" stroke="none" points="-4,4 -4,-169 417,-169 417,4 -4,4"/>
<!-- Node1 -->
<g id="node1" class="node"><title>Node1</title>
<polygon fill="#bfbfbf" stroke="black" points="164.5,-134.5 164.5,-164.5 317.5,-164.5 317.5,-134.5 164.5,-134.5"/>
<text text-anchor="start" x="172.5" y="-152.5" font-family="Helvetica,sans-Serif" font-size="10.00">C:/dev/Igor/src/Tools</text>
<text text-anchor="middle" x="241" y="-141.5" font-family="Helvetica,sans-Serif" font-size="10.00">/ModelViewer/src/Manipulator.h</text>
</g>
<!-- Node2 -->
<g id="node2" class="node"><title>Node2</title>
<g id="a_node2"><a xlink:href="_model_viewer_8h.html" target="_top" xlink:title="C:/dev/Igor/src/Tools\l/ModelViewer/src/ModelViewer.h">
<polygon fill="white" stroke="black" points="73,-67.5 73,-97.5 231,-97.5 231,-67.5 73,-67.5"/>
<text text-anchor="start" x="81" y="-85.5" font-family="Helvetica,sans-Serif" font-size="10.00">C:/dev/Igor/src/Tools</text>
<text text-anchor="middle" x="152" y="-74.5" font-family="Helvetica,sans-Serif" font-size="10.00">/ModelViewer/src/ModelViewer.h</text>
</a>
</g>
</g>
<!-- Node1&#45;&gt;Node2 -->
<g id="edge1" class="edge"><title>Node1&#45;&gt;Node2</title>
<path fill="none" stroke="midnightblue" d="M213.548,-128.451C199.857,-118.452 183.629,-106.6 171.274,-97.5765"/>
<polygon fill="midnightblue" stroke="midnightblue" points="211.548,-131.324 221.688,-134.396 215.677,-125.672 211.548,-131.324"/>
</g>
<!-- Node5 -->
<g id="node5" class="node"><title>Node5</title>
<g id="a_node5"><a xlink:href="_manipulator_8cpp.html" target="_top" xlink:title="C:/dev/Igor/src/Tools\l/ModelViewer/src/Manipulator.cpp">
<polygon fill="white" stroke="black" points="249,-67.5 249,-97.5 413,-97.5 413,-67.5 249,-67.5"/>
<text text-anchor="start" x="257" y="-85.5" font-family="Helvetica,sans-Serif" font-size="10.00">C:/dev/Igor/src/Tools</text>
<text text-anchor="middle" x="331" y="-74.5" font-family="Helvetica,sans-Serif" font-size="10.00">/ModelViewer/src/Manipulator.cpp</text>
</a>
</g>
</g>
<!-- Node1&#45;&gt;Node5 -->
<g id="edge4" class="edge"><title>Node1&#45;&gt;Node5</title>
<path fill="none" stroke="midnightblue" d="M268.76,-128.451C282.605,-118.452 299.016,-106.6 311.509,-97.5765"/>
<polygon fill="midnightblue" stroke="midnightblue" points="266.586,-125.704 260.529,-134.396 270.685,-131.378 266.586,-125.704"/>
</g>
<!-- Node3 -->
<g id="node3" class="node"><title>Node3</title>
<g id="a_node3"><a xlink:href="_model_viewer_2src_2main_8cpp.html" target="_top" xlink:title="C:/dev/Igor/src/Tools\l/ModelViewer/src/main.cpp">
<polygon fill="white" stroke="black" points="0,-0.5 0,-30.5 134,-30.5 134,-0.5 0,-0.5"/>
<text text-anchor="start" x="8" y="-18.5" font-family="Helvetica,sans-Serif" font-size="10.00">C:/dev/Igor/src/Tools</text>
<text text-anchor="middle" x="67" y="-7.5" font-family="Helvetica,sans-Serif" font-size="10.00">/ModelViewer/src/main.cpp</text>
</a>
</g>
</g>
<!-- Node2&#45;&gt;Node3 -->
<g id="edge2" class="edge"><title>Node2&#45;&gt;Node3</title>
<path fill="none" stroke="midnightblue" d="M125.412,-61.1677C112.414,-51.2283 97.0958,-39.5144 85.4077,-30.5765"/>
<polygon fill="midnightblue" stroke="midnightblue" points="123.487,-64.1017 133.556,-67.396 127.739,-58.5412 123.487,-64.1017"/>
</g>
<!-- Node4 -->
<g id="node4" class="node"><title>Node4</title>
<g id="a_node4"><a xlink:href="_model_viewer_8cpp.html" target="_top" xlink:title="C:/dev/Igor/src/Tools\l/ModelViewer/src/ModelViewer.cpp">
<polygon fill="white" stroke="black" points="152.5,-0.5 152.5,-30.5 321.5,-30.5 321.5,-0.5 152.5,-0.5"/>
<text text-anchor="start" x="160.5" y="-18.5" font-family="Helvetica,sans-Serif" font-size="10.00">C:/dev/Igor/src/Tools</text>
<text text-anchor="middle" x="237" y="-7.5" font-family="Helvetica,sans-Serif" font-size="10.00">/ModelViewer/src/ModelViewer.cpp</text>
</a>
</g>
</g>
<!-- Node2&#45;&gt;Node4 -->
<g id="edge3" class="edge"><title>Node2&#45;&gt;Node4</title>
<path fill="none" stroke="midnightblue" d="M178.588,-61.1677C191.586,-51.2283 206.904,-39.5144 218.592,-30.5765"/>
<polygon fill="midnightblue" stroke="midnightblue" points="176.261,-58.5412 170.444,-67.396 180.513,-64.1017 176.261,-58.5412"/>
</g>
</g>
</svg>
