<?xml version="1.0" encoding="UTF-8" standalone="no"?>
<!DOCTYPE svg PUBLIC "-//W3C//DTD SVG 1.1//EN"
 "http://www.w3.org/Graphics/SVG/1.1/DTD/svg11.dtd">
<!-- Generated by graphviz version 2.38.0 (20140413.2041)
 -->
<!-- Title: C:/dev/Igor/src/Tools/OBJ2OMPF/src/OBJ2OMPF.h Pages: 1 -->
<svg width="320pt" height="106pt"
 viewBox="0.00 0.00 320.00 106.00" xmlns="http://www.w3.org/2000/svg" xmlns:xlink="http://www.w3.org/1999/xlink">
<g id="graph0" class="graph" transform="scale(1 1) rotate(0) translate(4 102)">
<title>C:/dev/Igor/src/Tools/OBJ2OMPF/src/OBJ2OMPF.h</title>
<polygon fill="white" stroke="none" points="-4,4 -4,-102 316,-102 316,4 -4,4"/>
<!-- Node1 -->
<g id="node1" class="node"><title>Node1</title>
<polygon fill="#bfbfbf" stroke="black" points="71.5,-67.5 71.5,-97.5 223.5,-97.5 223.5,-67.5 71.5,-67.5"/>
<text text-anchor="start" x="79.5" y="-85.5" font-family="Helvetica,sans-Serif" font-size="10.00">C:/dev/Igor/src/Tools</text>
<text text-anchor="middle" x="147.5" y="-74.5" font-family="Helvetica,sans-Serif" font-size="10.00">/OBJ2OMPF/src/OBJ2OMPF.h</text>
</g>
<!-- Node2 -->
<g id="node2" class="node"><title>Node2</title>
<g id="a_node2"><a xlink:href="_o_b_j2_o_m_p_f_2src_2main_8cpp.html" target="_top" xlink:title="C:/dev/Igor/src/Tools\l/OBJ2OMPF/src/main.cpp">
<polygon fill="white" stroke="black" points="0,-0.5 0,-30.5 131,-30.5 131,-0.5 0,-0.5"/>
<text text-anchor="start" x="8" y="-18.5" font-family="Helvetica,sans-Serif" font-size="10.00">C:/dev/Igor/src/Tools</text>
<text text-anchor="middle" x="65.5" y="-7.5" font-family="Helvetica,sans-Serif" font-size="10.00">/OBJ2OMPF/src/main.cpp</text>
</a>
</g>
</g>
<!-- Node1&#45;&gt;Node2 -->
<g id="edge1" class="edge"><title>Node1&#45;&gt;Node2</title>
<path fill="none" stroke="midnightblue" d="M121.85,-61.1677C109.311,-51.2283 94.5336,-39.5144 83.2581,-30.5765"/>
<polygon fill="midnightblue" stroke="midnightblue" points="119.696,-63.9268 129.707,-67.396 124.045,-58.4412 119.696,-63.9268"/>
</g>
<!-- Node3 -->
<g id="node3" class="node"><title>Node3</title>
<g id="a_node3"><a xlink:href="_o_b_j2_o_m_p_f_8cpp.html" target="_top" xlink:title="C:/dev/Igor/src/Tools\l/OBJ2OMPF/src/OBJ2OMPF.cpp">
<polygon fill="white" stroke="black" points="149,-0.5 149,-30.5 312,-30.5 312,-0.5 149,-0.5"/>
<text text-anchor="start" x="157" y="-18.5" font-family="Helvetica,sans-Serif" font-size="10.00">C:/dev/Igor/src/Tools</text>
<text text-anchor="middle" x="230.5" y="-7.5" font-family="Helvetica,sans-Serif" font-size="10.00">/OBJ2OMPF/src/OBJ2OMPF.cpp</text>
</a>
</g>
</g>
<!-- Node1&#45;&gt;Node3 -->
<g id="edge2" class="edge"><title>Node1&#45;&gt;Node3</title>
<path fill="none" stroke="midnightblue" d="M173.463,-61.1677C186.155,-51.2283 201.112,-39.5144 212.525,-30.5765"/>
<polygon fill="midnightblue" stroke="midnightblue" points="171.225,-58.4747 165.51,-67.396 175.541,-63.9859 171.225,-58.4747"/>
</g>
</g>
</svg>
