<?xml version="1.0" encoding="UTF-8" standalone="no"?>
<!DOCTYPE svg PUBLIC "-//W3C//DTD SVG 1.1//EN"
 "http://www.w3.org/Graphics/SVG/1.1/DTD/svg11.dtd">
<!-- Generated by graphviz version 2.38.0 (20140413.2041)
 -->
<!-- Title: C:/dev/Igor/Igor/src/Tools/OBJ2OMPF/src/OBJ2OMPF.h Pages: 1 -->
<svg width="1110pt" height="375pt"
 viewBox="0.00 0.00 1109.83 375.00" xmlns="http://www.w3.org/2000/svg" xmlns:xlink="http://www.w3.org/1999/xlink">
<g id="graph0" class="graph" transform="scale(1 1) rotate(0) translate(4 371)">
<title>C:/dev/Igor/Igor/src/Tools/OBJ2OMPF/src/OBJ2OMPF.h</title>
<polygon fill="white" stroke="none" points="-4,4 -4,-371 1105.83,-371 1105.83,4 -4,4"/>
<!-- Node0 -->
<g id="node1" class="node"><title>Node0</title>
<g id="a_node1"><a xlink:title=" ">
<polygon fill="#bfbfbf" stroke="black" points="205.424,-336.5 205.424,-366.5 384.424,-366.5 384.424,-336.5 205.424,-336.5"/>
<text text-anchor="start" x="213.424" y="-354.5" font-family="Helvetica,sans-Serif" font-size="10.00">C:/dev/Igor/Igor/src</text>
<text text-anchor="middle" x="294.924" y="-343.5" font-family="Helvetica,sans-Serif" font-size="10.00">/Tools/OBJ2OMPF/src/OBJ2OMPF.h</text>
</a>
</g>
</g>
<!-- Node1 -->
<g id="node2" class="node"><title>Node1</title>
<g id="a_node2"><a xlink:href="i_node_8h.html" target="_top" xlink:title=" ">
<polygon fill="white" stroke="black" points="314.924,-280.5 314.924,-299.5 364.924,-299.5 364.924,-280.5 314.924,-280.5"/>
<text text-anchor="middle" x="339.924" y="-287.5" font-family="Helvetica,sans-Serif" font-size="10.00">iNode.h</text>
</a>
</g>
</g>
<!-- Node0&#45;&gt;Node1 -->
<g id="edge1" class="edge"><title>Node0&#45;&gt;Node1</title>
<path fill="none" stroke="midnightblue" d="M305.588,-336.399C312.06,-327.842 320.358,-316.871 327.175,-307.857"/>
<polygon fill="midnightblue" stroke="midnightblue" points="330.135,-309.745 333.376,-299.658 324.552,-305.522 330.135,-309.745"/>
</g>
<!-- Node15 -->
<g id="node16" class="node"><title>Node15</title>
<g id="a_node16"><a xlink:href="ia_string_8h.html" target="_top" xlink:title=" ">
<polygon fill="white" stroke="black" points="139.924,-224.5 139.924,-243.5 197.924,-243.5 197.924,-224.5 139.924,-224.5"/>
<text text-anchor="middle" x="168.924" y="-231.5" font-family="Helvetica,sans-Serif" font-size="10.00">iaString.h</text>
</a>
</g>
</g>
<!-- Node0&#45;&gt;Node15 -->
<g id="edge49" class="edge"><title>Node0&#45;&gt;Node15</title>
<path fill="none" stroke="midnightblue" d="M279.474,-336.337C255.74,-314.581 210.48,-273.093 185.873,-250.537"/>
<polygon fill="midnightblue" stroke="midnightblue" points="188.118,-247.847 178.381,-243.669 183.388,-253.007 188.118,-247.847"/>
</g>
<!-- Node2 -->
<g id="node3" class="node"><title>Node2</title>
<g id="a_node3"><a xlink:href="i_data_update_queue_8h.html" target="_top" xlink:title=" ">
<polygon fill="white" stroke="black" points="14.4239,-224.5 14.4239,-243.5 121.424,-243.5 121.424,-224.5 14.4239,-224.5"/>
<text text-anchor="middle" x="67.9239" y="-231.5" font-family="Helvetica,sans-Serif" font-size="10.00">iDataUpdateQueue.h</text>
</a>
</g>
</g>
<!-- Node1&#45;&gt;Node2 -->
<g id="edge2" class="edge"><title>Node1&#45;&gt;Node2</title>
<path fill="none" stroke="midnightblue" d="M314.822,-284.017C271.027,-275.322 179.757,-257.202 121.294,-245.596"/>
<polygon fill="midnightblue" stroke="midnightblue" points="121.626,-242.093 111.136,-243.579 120.263,-248.959 121.626,-242.093"/>
</g>
<!-- Node3 -->
<g id="node4" class="node"><title>Node3</title>
<g id="a_node4"><a xlink:href="i_defines_8h.html" target="_top" xlink:title=" ">
<polygon fill="white" stroke="black" points="13.4239,-168.5 13.4239,-187.5 72.4239,-187.5 72.4239,-168.5 13.4239,-168.5"/>
<text text-anchor="middle" x="42.9239" y="-175.5" font-family="Helvetica,sans-Serif" font-size="10.00">iDefines.h</text>
</a>
</g>
</g>
<!-- Node1&#45;&gt;Node3 -->
<g id="edge8" class="edge"><title>Node1&#45;&gt;Node3</title>
<path fill="none" stroke="midnightblue" d="M314.786,-289.665C243.979,-290.946 45.3927,-290.268 4.92385,-244 -8.41382,-228.751 8.32567,-208.142 23.6129,-194.252"/>
<polygon fill="midnightblue" stroke="midnightblue" points="25.9872,-196.827 31.3078,-187.665 21.435,-191.509 25.9872,-196.827"/>
</g>
<!-- Node5 -->
<g id="node6" class="node"><title>Node5</title>
<g id="a_node6"><a xlink:href="ia_mutex_8h.html" target="_top" xlink:title=" ">
<polygon fill="white" stroke="black" points="283.424,-56.5 283.424,-75.5 342.424,-75.5 342.424,-56.5 283.424,-56.5"/>
<text text-anchor="middle" x="312.924" y="-63.5" font-family="Helvetica,sans-Serif" font-size="10.00">iaMutex.h</text>
</a>
</g>
</g>
<!-- Node1&#45;&gt;Node5 -->
<g id="edge41" class="edge"><title>Node1&#45;&gt;Node5</title>
<path fill="none" stroke="midnightblue" d="M364.95,-282.558C384.004,-276.194 408.931,-264.381 420.924,-244 438.053,-214.888 434.371,-198.986 420.924,-168 403.92,-128.817 363.398,-97.9032 337.111,-81.0609"/>
<polygon fill="midnightblue" stroke="midnightblue" points="338.812,-77.997 328.469,-75.6999 335.122,-83.9455 338.812,-77.997"/>
</g>
<!-- Node6 -->
<g id="node7" class="node"><title>Node6</title>
<g id="a_node7"><a xlink:title=" ">
<polygon fill="white" stroke="#bfbfbf" points="204.924,-168.5 204.924,-187.5 246.924,-187.5 246.924,-168.5 204.924,-168.5"/>
<text text-anchor="middle" x="225.924" y="-175.5" font-family="Helvetica,sans-Serif" font-size="10.00">vector</text>
</a>
</g>
</g>
<!-- Node1&#45;&gt;Node6 -->
<g id="edge46" class="edge"><title>Node1&#45;&gt;Node6</title>
<path fill="none" stroke="midnightblue" d="M314.542,-283.202C293.045,-277.009 262.93,-265.102 244.924,-244 233.844,-231.015 229.22,-211.852 227.294,-197.694"/>
<polygon fill="midnightblue" stroke="midnightblue" points="230.763,-197.215 226.255,-187.628 223.8,-197.934 230.763,-197.215"/>
</g>
<!-- Node7 -->
<g id="node8" class="node"><title>Node7</title>
<g id="a_node8"><a xlink:href="ia_event_8h.html" target="_top" xlink:title=" ">
<polygon fill="white" stroke="black" points="355.924,-224.5 355.924,-243.5 411.924,-243.5 411.924,-224.5 355.924,-224.5"/>
<text text-anchor="middle" x="383.924" y="-231.5" font-family="Helvetica,sans-Serif" font-size="10.00">iaEvent.h</text>
</a>
</g>
</g>
<!-- Node1&#45;&gt;Node7 -->
<g id="edge9" class="edge"><title>Node1&#45;&gt;Node7</title>
<path fill="none" stroke="midnightblue" d="M347.19,-280.083C353.469,-272.377 362.712,-261.033 370.355,-251.653"/>
<polygon fill="midnightblue" stroke="midnightblue" points="373.19,-253.714 376.793,-243.751 367.763,-249.293 373.19,-253.714"/>
</g>
<!-- Node1&#45;&gt;Node15 -->
<g id="edge21" class="edge"><title>Node1&#45;&gt;Node15</title>
<path fill="none" stroke="midnightblue" d="M314.692,-281.032C285.898,-271.939 238.549,-256.987 205.66,-246.601"/>
<polygon fill="midnightblue" stroke="midnightblue" points="206.544,-243.21 195.954,-243.536 204.436,-249.885 206.544,-243.21"/>
</g>
<!-- Node16 -->
<g id="node17" class="node"><title>Node16</title>
<g id="a_node17"><a xlink:title=" ">
<polygon fill="white" stroke="#bfbfbf" points="659.924,-56.5 659.924,-75.5 711.924,-75.5 711.924,-56.5 659.924,-56.5"/>
<text text-anchor="middle" x="685.924" y="-63.5" font-family="Helvetica,sans-Serif" font-size="10.00">ostream</text>
</a>
</g>
</g>
<!-- Node1&#45;&gt;Node16 -->
<g id="edge45" class="edge"><title>Node1&#45;&gt;Node16</title>
<path fill="none" stroke="midnightblue" d="M365.253,-288.217C421.606,-285.888 554.539,-276.946 581.924,-244 635.767,-179.222 392.129,-176.819 445.924,-112 471.336,-81.38 588.538,-71.4694 649.243,-68.3611"/>
<polygon fill="midnightblue" stroke="midnightblue" points="649.712,-71.8429 659.534,-67.8718 649.379,-64.8508 649.712,-71.8429"/>
</g>
<!-- Node17 -->
<g id="node18" class="node"><title>Node17</title>
<g id="a_node18"><a xlink:href="ia_matrix_8h.html" target="_top" xlink:title=" ">
<polygon fill="white" stroke="black" points="760.424,-224.5 760.424,-243.5 819.424,-243.5 819.424,-224.5 760.424,-224.5"/>
<text text-anchor="middle" x="789.924" y="-231.5" font-family="Helvetica,sans-Serif" font-size="10.00">iaMatrix.h</text>
</a>
</g>
</g>
<!-- Node1&#45;&gt;Node17 -->
<g id="edge25" class="edge"><title>Node1&#45;&gt;Node17</title>
<path fill="none" stroke="midnightblue" d="M365.082,-285.981C439.593,-277.04 659.569,-250.643 750.204,-239.766"/>
<polygon fill="midnightblue" stroke="midnightblue" points="750.832,-243.216 760.344,-238.55 749.998,-236.266 750.832,-243.216"/>
</g>
<!-- Node26 -->
<g id="node27" class="node"><title>Node26</title>
<g id="a_node27"><a xlink:href="ia_i_d_generator_8h.html" target="_top" xlink:title=" ">
<polygon fill="white" stroke="black" points="253.924,-224.5 253.924,-243.5 337.924,-243.5 337.924,-224.5 253.924,-224.5"/>
<text text-anchor="middle" x="295.924" y="-231.5" font-family="Helvetica,sans-Serif" font-size="10.00">iaIDGenerator.h</text>
</a>
</g>
</g>
<!-- Node1&#45;&gt;Node26 -->
<g id="edge42" class="edge"><title>Node1&#45;&gt;Node26</title>
<path fill="none" stroke="midnightblue" d="M332.658,-280.083C326.379,-272.377 317.136,-261.033 309.493,-251.653"/>
<polygon fill="midnightblue" stroke="midnightblue" points="312.084,-249.293 303.054,-243.751 306.658,-253.714 312.084,-249.293"/>
</g>
<!-- Node27 -->
<g id="node28" class="node"><title>Node27</title>
<g id="a_node28"><a xlink:title=" ">
<polygon fill="white" stroke="#bfbfbf" points="467.924,-224.5 467.924,-243.5 519.924,-243.5 519.924,-224.5 467.924,-224.5"/>
<text text-anchor="middle" x="493.924" y="-231.5" font-family="Helvetica,sans-Serif" font-size="10.00">memory</text>
</a>
</g>
</g>
<!-- Node1&#45;&gt;Node27 -->
<g id="edge47" class="edge"><title>Node1&#45;&gt;Node27</title>
<path fill="none" stroke="midnightblue" d="M364.326,-280.444C390.12,-271.399 431,-257.064 459.942,-246.916"/>
<polygon fill="midnightblue" stroke="midnightblue" points="461.358,-250.128 469.636,-243.516 459.041,-243.523 461.358,-250.128"/>
</g>
<!-- Node28 -->
<g id="node29" class="node"><title>Node28</title>
<g id="a_node29"><a xlink:title=" ">
<polygon fill="white" stroke="#bfbfbf" points="538.424,-224.5 538.424,-243.5 573.424,-243.5 573.424,-224.5 538.424,-224.5"/>
<text text-anchor="middle" x="555.924" y="-231.5" font-family="Helvetica,sans-Serif" font-size="10.00">map</text>
</a>
</g>
</g>
<!-- Node1&#45;&gt;Node28 -->
<g id="edge48" class="edge"><title>Node1&#45;&gt;Node28</title>
<path fill="none" stroke="midnightblue" d="M365.175,-283.729C399.814,-276.339 464.175,-262.041 528.39,-243.947"/>
<polygon fill="midnightblue" stroke="midnightblue" points="529.616,-247.237 538.274,-241.131 527.698,-240.505 529.616,-247.237"/>
</g>
<!-- Node2&#45;&gt;Node3 -->
<g id="edge3" class="edge"><title>Node2&#45;&gt;Node3</title>
<path fill="none" stroke="midnightblue" d="M63.7956,-224.083C60.4099,-216.77 55.5078,-206.181 51.3051,-197.103"/>
<polygon fill="midnightblue" stroke="midnightblue" points="54.3527,-195.355 46.9753,-187.751 48.0004,-198.296 54.3527,-195.355"/>
</g>
<!-- Node2&#45;&gt;Node5 -->
<g id="edge5" class="edge"><title>Node2&#45;&gt;Node5</title>
<path fill="none" stroke="midnightblue" d="M80.5044,-224.348C98.6729,-211.864 133.326,-188.09 162.924,-168 208.631,-136.976 262.37,-100.885 291.506,-81.3483"/>
<polygon fill="midnightblue" stroke="midnightblue" points="293.703,-84.0897 300.061,-75.6145 289.805,-78.2751 293.703,-84.0897"/>
</g>
<!-- Node2&#45;&gt;Node6 -->
<g id="edge7" class="edge"><title>Node2&#45;&gt;Node6</title>
<path fill="none" stroke="midnightblue" d="M92.9594,-224.444C120.634,-214.985 165.234,-199.742 195.052,-189.551"/>
<polygon fill="midnightblue" stroke="midnightblue" points="196.222,-192.85 204.552,-186.304 193.958,-186.226 196.222,-192.85"/>
</g>
<!-- Node4 -->
<g id="node5" class="node"><title>Node4</title>
<g id="a_node5"><a xlink:href="ia_defines_8h.html" target="_top" xlink:title=" ">
<polygon fill="white" stroke="black" points="280.424,-0.5 280.424,-19.5 345.424,-19.5 345.424,-0.5 280.424,-0.5"/>
<text text-anchor="middle" x="312.924" y="-7.5" font-family="Helvetica,sans-Serif" font-size="10.00">iaDefines.h</text>
</a>
</g>
</g>
<!-- Node3&#45;&gt;Node4 -->
<g id="edge4" class="edge"><title>Node3&#45;&gt;Node4</title>
<path fill="none" stroke="midnightblue" d="M43.3049,-168.388C44.7839,-146.065 51.9824,-85.9898 86.9239,-56 113.86,-32.8813 212.046,-20.191 269.761,-14.5801"/>
<polygon fill="midnightblue" stroke="midnightblue" points="270.412,-18.0344 280.041,-13.6138 269.757,-11.0651 270.412,-18.0344"/>
</g>
<!-- Node5&#45;&gt;Node4 -->
<g id="edge6" class="edge"><title>Node5&#45;&gt;Node4</title>
<path fill="none" stroke="midnightblue" d="M312.924,-56.083C312.924,-49.0059 312.924,-38.8611 312.924,-29.9865"/>
<polygon fill="midnightblue" stroke="midnightblue" points="316.424,-29.751 312.924,-19.7511 309.424,-29.7511 316.424,-29.751"/>
</g>
<!-- Node7&#45;&gt;Node5 -->
<g id="edge10" class="edge"><title>Node7&#45;&gt;Node5</title>
<path fill="none" stroke="midnightblue" d="M369.03,-224.298C356.972,-216.417 340.613,-203.659 331.924,-188 313.843,-155.415 311.613,-110.74 312.005,-85.7975"/>
<polygon fill="midnightblue" stroke="midnightblue" points="315.511,-85.6659 312.337,-75.558 308.515,-85.4396 315.511,-85.6659"/>
</g>
<!-- Node7&#45;&gt;Node6 -->
<g id="edge20" class="edge"><title>Node7&#45;&gt;Node6</title>
<path fill="none" stroke="midnightblue" d="M358.888,-224.444C331.213,-214.985 286.614,-199.742 256.795,-189.551"/>
<polygon fill="midnightblue" stroke="midnightblue" points="257.89,-186.226 247.295,-186.304 255.626,-192.85 257.89,-186.226"/>
</g>
<!-- Node8 -->
<g id="node9" class="node"><title>Node8</title>
<g id="a_node9"><a xlink:href="ia_delegate_8h.html" target="_top" xlink:title=" ">
<polygon fill="white" stroke="black" points="341.424,-168.5 341.424,-187.5 412.424,-187.5 412.424,-168.5 341.424,-168.5"/>
<text text-anchor="middle" x="376.924" y="-175.5" font-family="Helvetica,sans-Serif" font-size="10.00">iaDelegate.h</text>
</a>
</g>
</g>
<!-- Node7&#45;&gt;Node8 -->
<g id="edge11" class="edge"><title>Node7&#45;&gt;Node8</title>
<path fill="none" stroke="midnightblue" d="M382.768,-224.083C381.84,-216.927 380.506,-206.635 379.347,-197.691"/>
<polygon fill="midnightblue" stroke="midnightblue" points="382.815,-197.218 378.058,-187.751 375.873,-198.118 382.815,-197.218"/>
</g>
<!-- Node9 -->
<g id="node10" class="node"><title>Node9</title>
<g id="a_node10"><a xlink:href="ia_console_8h.html" target="_top" xlink:title=" ">
<polygon fill="white" stroke="black" points="553.924,-168.5 553.924,-187.5 621.924,-187.5 621.924,-168.5 553.924,-168.5"/>
<text text-anchor="middle" x="587.924" y="-175.5" font-family="Helvetica,sans-Serif" font-size="10.00">iaConsole.h</text>
</a>
</g>
</g>
<!-- Node7&#45;&gt;Node9 -->
<g id="edge12" class="edge"><title>Node7&#45;&gt;Node9</title>
<path fill="none" stroke="midnightblue" d="M412.289,-225.492C447.008,-216.301 506.098,-200.66 546.05,-190.084"/>
<polygon fill="midnightblue" stroke="midnightblue" points="546.997,-193.454 555.768,-187.512 545.206,-186.687 546.997,-193.454"/>
</g>
<!-- Node10 -->
<g id="node11" class="node"><title>Node10</title>
<g id="a_node11"><a xlink:href="ia_singleton_8h.html" target="_top" xlink:title=" ">
<polygon fill="white" stroke="black" points="455.424,-112.5 455.424,-131.5 528.424,-131.5 528.424,-112.5 455.424,-112.5"/>
<text text-anchor="middle" x="491.924" y="-119.5" font-family="Helvetica,sans-Serif" font-size="10.00">iaSingleton.h</text>
</a>
</g>
</g>
<!-- Node9&#45;&gt;Node10 -->
<g id="edge13" class="edge"><title>Node9&#45;&gt;Node10</title>
<path fill="none" stroke="midnightblue" d="M572.5,-168.324C557.384,-159.822 534.108,-146.729 516.453,-136.797"/>
<polygon fill="midnightblue" stroke="midnightblue" points="517.741,-133.507 507.31,-131.655 514.309,-139.608 517.741,-133.507"/>
</g>
<!-- Node11 -->
<g id="node12" class="node"><title>Node11</title>
<g id="a_node12"><a xlink:href="ia_clock_8h.html" target="_top" xlink:title=" ">
<polygon fill="white" stroke="black" points="414.424,-56.5 414.424,-75.5 471.424,-75.5 471.424,-56.5 414.424,-56.5"/>
<text text-anchor="middle" x="442.924" y="-63.5" font-family="Helvetica,sans-Serif" font-size="10.00">iaClock.h</text>
</a>
</g>
</g>
<!-- Node9&#45;&gt;Node11 -->
<g id="edge15" class="edge"><title>Node9&#45;&gt;Node11</title>
<path fill="none" stroke="midnightblue" d="M595.682,-168.161C606.428,-154.803 623.111,-129.211 609.924,-112 594.412,-91.7544 525.947,-78.5624 481.639,-71.9779"/>
<polygon fill="midnightblue" stroke="midnightblue" points="481.884,-68.4772 471.488,-70.5214 480.889,-75.4063 481.884,-68.4772"/>
</g>
<!-- Node12 -->
<g id="node13" class="node"><title>Node12</title>
<g id="a_node13"><a xlink:title=" ">
<polygon fill="white" stroke="#bfbfbf" points="657.424,-112.5 657.424,-131.5 706.424,-131.5 706.424,-112.5 657.424,-112.5"/>
<text text-anchor="middle" x="681.924" y="-119.5" font-family="Helvetica,sans-Serif" font-size="10.00">fstream</text>
</a>
</g>
</g>
<!-- Node9&#45;&gt;Node12 -->
<g id="edge17" class="edge"><title>Node9&#45;&gt;Node12</title>
<path fill="none" stroke="midnightblue" d="M603.027,-168.324C617.827,-159.822 640.618,-146.729 657.906,-136.797"/>
<polygon fill="midnightblue" stroke="midnightblue" points="659.931,-139.671 666.859,-131.655 656.444,-133.601 659.931,-139.671"/>
</g>
<!-- Node13 -->
<g id="node14" class="node"><title>Node13</title>
<g id="a_node14"><a xlink:title=" ">
<polygon fill="white" stroke="#bfbfbf" points="546.924,-112.5 546.924,-131.5 600.924,-131.5 600.924,-112.5 546.924,-112.5"/>
<text text-anchor="middle" x="573.924" y="-119.5" font-family="Helvetica,sans-Serif" font-size="10.00">iostream</text>
</a>
</g>
</g>
<!-- Node9&#45;&gt;Node13 -->
<g id="edge18" class="edge"><title>Node9&#45;&gt;Node13</title>
<path fill="none" stroke="midnightblue" d="M585.612,-168.083C583.757,-160.927 581.089,-150.635 578.77,-141.691"/>
<polygon fill="midnightblue" stroke="midnightblue" points="582.09,-140.553 576.193,-131.751 575.314,-142.309 582.09,-140.553"/>
</g>
<!-- Node14 -->
<g id="node15" class="node"><title>Node14</title>
<g id="a_node15"><a xlink:title=" ">
<polygon fill="white" stroke="#bfbfbf" points="724.924,-112.5 724.924,-131.5 774.924,-131.5 774.924,-112.5 724.924,-112.5"/>
<text text-anchor="middle" x="749.924" y="-119.5" font-family="Helvetica,sans-Serif" font-size="10.00">iomanip</text>
</a>
</g>
</g>
<!-- Node9&#45;&gt;Node14 -->
<g id="edge19" class="edge"><title>Node9&#45;&gt;Node14</title>
<path fill="none" stroke="midnightblue" d="M613.593,-168.444C641.007,-159.306 684.617,-144.769 715.111,-134.604"/>
<polygon fill="midnightblue" stroke="midnightblue" points="716.527,-137.822 724.907,-131.339 714.313,-131.181 716.527,-137.822"/>
</g>
<!-- Node10&#45;&gt;Node5 -->
<g id="edge14" class="edge"><title>Node10&#45;&gt;Node5</title>
<path fill="none" stroke="midnightblue" d="M463.561,-112.444C433.186,-103.28 384.814,-88.6876 351.108,-78.5192"/>
<polygon fill="midnightblue" stroke="midnightblue" points="351.739,-75.0538 341.154,-75.5164 349.717,-81.7555 351.739,-75.0538"/>
</g>
<!-- Node11&#45;&gt;Node4 -->
<g id="edge16" class="edge"><title>Node11&#45;&gt;Node4</title>
<path fill="none" stroke="midnightblue" d="M422.325,-56.4435C400.93,-47.5566 367.243,-33.5632 342.899,-23.4514"/>
<polygon fill="midnightblue" stroke="midnightblue" points="344.004,-20.1203 333.426,-19.5164 341.319,-26.5848 344.004,-20.1203"/>
</g>
<!-- Node15&#45;&gt;Node4 -->
<g id="edge22" class="edge"><title>Node15&#45;&gt;Node4</title>
<path fill="none" stroke="midnightblue" d="M168.606,-224.159C168.475,-211.237 169.504,-186.698 177.924,-168 205.329,-107.14 263.996,-51.9744 294.161,-26.2571"/>
<polygon fill="midnightblue" stroke="midnightblue" points="296.782,-28.6276 302.204,-19.525 292.289,-23.2599 296.782,-28.6276"/>
</g>
<!-- Node15&#45;&gt;Node6 -->
<g id="edge24" class="edge"><title>Node15&#45;&gt;Node6</title>
<path fill="none" stroke="midnightblue" d="M178.082,-224.324C186.425,-216.42 198.956,-204.548 209.101,-194.938"/>
<polygon fill="midnightblue" stroke="midnightblue" points="211.747,-197.252 216.599,-187.834 206.933,-192.171 211.747,-197.252"/>
</g>
<!-- Node15&#45;&gt;Node16 -->
<g id="edge23" class="edge"><title>Node15&#45;&gt;Node16</title>
<path fill="none" stroke="midnightblue" d="M170.026,-224.42C172.284,-210.46 178.759,-182.898 195.924,-168 264.583,-108.407 548.614,-78.7384 649.868,-69.9034"/>
<polygon fill="midnightblue" stroke="midnightblue" points="650.249,-73.3837 659.914,-69.0433 649.652,-66.4092 650.249,-73.3837"/>
</g>
<!-- Node17&#45;&gt;Node12 -->
<g id="edge37" class="edge"><title>Node17&#45;&gt;Node12</title>
<path fill="none" stroke="midnightblue" d="M782.879,-224.274C772.429,-211.495 751.998,-187.133 732.924,-168 722.503,-157.547 710.099,-146.573 700.134,-138.079"/>
<polygon fill="midnightblue" stroke="midnightblue" points="702.337,-135.359 692.433,-131.594 697.827,-140.713 702.337,-135.359"/>
</g>
<!-- Node17&#45;&gt;Node14 -->
<g id="edge39" class="edge"><title>Node17&#45;&gt;Node14</title>
<path fill="none" stroke="midnightblue" d="M786.785,-224.368C780.301,-206.537 765.304,-165.295 756.568,-141.272"/>
<polygon fill="midnightblue" stroke="midnightblue" points="759.755,-139.793 753.048,-131.591 753.176,-142.185 759.755,-139.793"/>
</g>
<!-- Node18 -->
<g id="node19" class="node"><title>Node18</title>
<g id="a_node19"><a xlink:href="ia_vector4_8h.html" target="_top" xlink:title=" ">
<polygon fill="white" stroke="black" points="932.924,-168.5 932.924,-187.5 998.924,-187.5 998.924,-168.5 932.924,-168.5"/>
<text text-anchor="middle" x="965.924" y="-175.5" font-family="Helvetica,sans-Serif" font-size="10.00">iaVector4.h</text>
</a>
</g>
</g>
<!-- Node17&#45;&gt;Node18 -->
<g id="edge26" class="edge"><title>Node17&#45;&gt;Node18</title>
<path fill="none" stroke="midnightblue" d="M817.812,-224.444C847.678,-215.28 895.238,-200.688 928.38,-190.519"/>
<polygon fill="midnightblue" stroke="midnightblue" points="929.633,-193.796 938.167,-187.516 927.58,-187.104 929.633,-193.796"/>
</g>
<!-- Node20 -->
<g id="node21" class="node"><title>Node20</title>
<g id="a_node21"><a xlink:title=" ">
<polygon fill="white" stroke="#bfbfbf" points="1056.92,-56.5 1056.92,-75.5 1100.92,-75.5 1100.92,-56.5 1056.92,-56.5"/>
<text text-anchor="middle" x="1078.92" y="-63.5" font-family="Helvetica,sans-Serif" font-size="10.00">cmath</text>
</a>
</g>
</g>
<!-- Node17&#45;&gt;Node20 -->
<g id="edge38" class="edge"><title>Node17&#45;&gt;Node20</title>
<path fill="none" stroke="midnightblue" d="M819.433,-230.241C862.246,-225.505 943.506,-213.735 1007.92,-188 1051.67,-170.522 1075.04,-173.183 1097.92,-132 1106.19,-117.114 1099.02,-98.2646 1091.24,-84.7023"/>
<polygon fill="midnightblue" stroke="midnightblue" points="1093.97,-82.4774 1085.67,-75.8935 1088.05,-86.2168 1093.97,-82.4774"/>
</g>
<!-- Node23 -->
<g id="node24" class="node"><title>Node23</title>
<g id="a_node24"><a xlink:href="ia_quaternion_8h.html" target="_top" xlink:title=" ">
<polygon fill="white" stroke="black" points="827.924,-168.5 827.924,-187.5 907.924,-187.5 907.924,-168.5 827.924,-168.5"/>
<text text-anchor="middle" x="867.924" y="-175.5" font-family="Helvetica,sans-Serif" font-size="10.00">iaQuaternion.h</text>
</a>
</g>
</g>
<!-- Node17&#45;&gt;Node23 -->
<g id="edge33" class="edge"><title>Node17&#45;&gt;Node23</title>
<path fill="none" stroke="midnightblue" d="M802.456,-224.324C814.51,-215.979 832.951,-203.212 847.193,-193.352"/>
<polygon fill="midnightblue" stroke="midnightblue" points="849.193,-196.224 855.423,-187.655 845.209,-190.469 849.193,-196.224"/>
</g>
<!-- Node25 -->
<g id="node26" class="node"><title>Node25</title>
<g id="a_node26"><a xlink:href="ia_matrix_8inl.html" target="_top" xlink:title=" ">
<polygon fill="white" stroke="black" points="659.924,-168.5 659.924,-187.5 723.924,-187.5 723.924,-168.5 659.924,-168.5"/>
<text text-anchor="middle" x="691.924" y="-175.5" font-family="Helvetica,sans-Serif" font-size="10.00">iaMatrix.inl</text>
</a>
</g>
</g>
<!-- Node17&#45;&gt;Node25 -->
<g id="edge40" class="edge"><title>Node17&#45;&gt;Node25</title>
<path fill="none" stroke="midnightblue" d="M774.178,-224.324C758.605,-215.743 734.547,-202.486 716.465,-192.522"/>
<polygon fill="midnightblue" stroke="midnightblue" points="718.078,-189.415 707.63,-187.655 714.699,-195.546 718.078,-189.415"/>
</g>
<!-- Node19 -->
<g id="node20" class="node"><title>Node19</title>
<g id="a_node20"><a xlink:href="ia_vector3_8h.html" target="_top" xlink:title=" ">
<polygon fill="white" stroke="black" points="932.924,-112.5 932.924,-131.5 998.924,-131.5 998.924,-112.5 932.924,-112.5"/>
<text text-anchor="middle" x="965.924" y="-119.5" font-family="Helvetica,sans-Serif" font-size="10.00">iaVector3.h</text>
</a>
</g>
</g>
<!-- Node18&#45;&gt;Node19 -->
<g id="edge27" class="edge"><title>Node18&#45;&gt;Node19</title>
<path fill="none" stroke="midnightblue" d="M965.924,-168.083C965.924,-161.006 965.924,-150.861 965.924,-141.986"/>
<polygon fill="midnightblue" stroke="midnightblue" points="969.424,-141.751 965.924,-131.751 962.424,-141.751 969.424,-141.751"/>
</g>
<!-- Node22 -->
<g id="node23" class="node"><title>Node22</title>
<g id="a_node23"><a xlink:href="ia_vector4_8inl.html" target="_top" xlink:title=" ">
<polygon fill="white" stroke="black" points="1017.42,-112.5 1017.42,-131.5 1088.42,-131.5 1088.42,-112.5 1017.42,-112.5"/>
<text text-anchor="middle" x="1052.92" y="-119.5" font-family="Helvetica,sans-Serif" font-size="10.00">iaVector4.inl</text>
</a>
</g>
</g>
<!-- Node18&#45;&gt;Node22 -->
<g id="edge32" class="edge"><title>Node18&#45;&gt;Node22</title>
<path fill="none" stroke="midnightblue" d="M979.902,-168.324C993.473,-159.9 1014.3,-146.971 1030.25,-137.074"/>
<polygon fill="midnightblue" stroke="midnightblue" points="1032.33,-139.902 1038.98,-131.655 1028.64,-133.954 1032.33,-139.902"/>
</g>
<!-- Node19&#45;&gt;Node4 -->
<g id="edge28" class="edge"><title>Node19&#45;&gt;Node4</title>
<path fill="none" stroke="midnightblue" d="M939.035,-112.448C894.26,-98.529 801.385,-71.0234 720.924,-56 589.056,-31.3781 430.514,-18.6348 355.827,-13.614"/>
<polygon fill="midnightblue" stroke="midnightblue" points="355.638,-10.094 345.429,-12.9287 355.177,-17.0788 355.638,-10.094"/>
</g>
<!-- Node19&#45;&gt;Node16 -->
<g id="edge30" class="edge"><title>Node19&#45;&gt;Node16</title>
<path fill="none" stroke="midnightblue" d="M932.468,-113.755C929.58,-113.152 926.702,-112.56 923.924,-112 852.451,-97.5875 768.618,-82.0553 721.954,-73.5316"/>
<polygon fill="midnightblue" stroke="midnightblue" points="722.491,-70.0719 712.025,-71.7214 721.235,-76.9584 722.491,-70.0719"/>
</g>
<!-- Node19&#45;&gt;Node20 -->
<g id="edge29" class="edge"><title>Node19&#45;&gt;Node20</title>
<path fill="none" stroke="midnightblue" d="M983.829,-112.444C1002.18,-103.675 1030.93,-89.9355 1052.02,-79.8579"/>
<polygon fill="midnightblue" stroke="midnightblue" points="1053.59,-82.9862 1061.1,-75.5164 1050.57,-76.6703 1053.59,-82.9862"/>
</g>
<!-- Node21 -->
<g id="node22" class="node"><title>Node21</title>
<g id="a_node22"><a xlink:href="ia_vector3_8inl.html" target="_top" xlink:title=" ">
<polygon fill="white" stroke="black" points="930.424,-56.5 930.424,-75.5 1001.42,-75.5 1001.42,-56.5 930.424,-56.5"/>
<text text-anchor="middle" x="965.924" y="-63.5" font-family="Helvetica,sans-Serif" font-size="10.00">iaVector3.inl</text>
</a>
</g>
</g>
<!-- Node19&#45;&gt;Node21 -->
<g id="edge31" class="edge"><title>Node19&#45;&gt;Node21</title>
<path fill="none" stroke="midnightblue" d="M965.924,-112.083C965.924,-105.006 965.924,-94.8611 965.924,-85.9865"/>
<polygon fill="midnightblue" stroke="midnightblue" points="969.424,-85.751 965.924,-75.7511 962.424,-85.7511 969.424,-85.751"/>
</g>
<!-- Node23&#45;&gt;Node16 -->
<g id="edge35" class="edge"><title>Node23&#45;&gt;Node16</title>
<path fill="none" stroke="midnightblue" d="M858.369,-168.422C843.31,-155.184 812.788,-129.48 783.924,-112 762.826,-99.2237 737.49,-87.6798 717.864,-79.4834"/>
<polygon fill="midnightblue" stroke="midnightblue" points="719.034,-76.1805 708.454,-75.626 716.379,-82.6574 719.034,-76.1805"/>
</g>
<!-- Node23&#45;&gt;Node19 -->
<g id="edge34" class="edge"><title>Node23&#45;&gt;Node19</title>
<path fill="none" stroke="midnightblue" d="M883.669,-168.324C899.243,-159.743 923.301,-146.486 941.383,-136.522"/>
<polygon fill="midnightblue" stroke="midnightblue" points="943.148,-139.546 950.218,-131.655 939.77,-133.415 943.148,-139.546"/>
</g>
<!-- Node24 -->
<g id="node25" class="node"><title>Node24</title>
<g id="a_node25"><a xlink:href="ia_quaternion_8inl.html" target="_top" xlink:title=" ">
<polygon fill="white" stroke="black" points="830.924,-112.5 830.924,-131.5 914.924,-131.5 914.924,-112.5 830.924,-112.5"/>
<text text-anchor="middle" x="872.924" y="-119.5" font-family="Helvetica,sans-Serif" font-size="10.00">iaQuaternion.inl</text>
</a>
</g>
</g>
<!-- Node23&#45;&gt;Node24 -->
<g id="edge36" class="edge"><title>Node23&#45;&gt;Node24</title>
<path fill="none" stroke="midnightblue" d="M868.749,-168.083C869.405,-161.006 870.344,-150.861 871.166,-141.986"/>
<polygon fill="midnightblue" stroke="midnightblue" points="874.677,-142.031 872.114,-131.751 867.706,-141.386 874.677,-142.031"/>
</g>
<!-- Node26&#45;&gt;Node5 -->
<g id="edge43" class="edge"><title>Node26&#45;&gt;Node5</title>
<path fill="none" stroke="midnightblue" d="M295.329,-224.416C294.126,-204.5 292.061,-153.676 298.924,-112 300.403,-103.019 303.24,-93.345 305.976,-85.277"/>
<polygon fill="midnightblue" stroke="midnightblue" points="309.298,-86.3833 309.392,-75.7889 302.711,-84.0125 309.298,-86.3833"/>
</g>
<!-- Node26&#45;&gt;Node6 -->
<g id="edge44" class="edge"><title>Node26&#45;&gt;Node6</title>
<path fill="none" stroke="midnightblue" d="M284.677,-224.324C274.126,-216.185 258.123,-203.839 245.482,-194.087"/>
<polygon fill="midnightblue" stroke="midnightblue" points="247.431,-191.171 237.375,-187.834 243.155,-196.713 247.431,-191.171"/>
</g>
</g>
</svg>
