<?xml version="1.0" encoding="UTF-8" standalone="no"?>
<!DOCTYPE svg PUBLIC "-//W3C//DTD SVG 1.1//EN"
 "http://www.w3.org/Graphics/SVG/1.1/DTD/svg11.dtd">
<!-- Generated by graphviz version 2.38.0 (20140413.2041)
 -->
<!-- Title: C:/dev/Igor/Igor/src/Tools/ModelViewer/src/UserControlLight.h Pages: 1 -->
<svg width="1370pt" height="554pt"
 viewBox="0.00 0.00 1370.02 554.00" xmlns="http://www.w3.org/2000/svg" xmlns:xlink="http://www.w3.org/1999/xlink">
<g id="graph0" class="graph" transform="scale(1 1) rotate(0) translate(4 550)">
<title>C:/dev/Igor/Igor/src/Tools/ModelViewer/src/UserControlLight.h</title>
<polygon fill="white" stroke="none" points="-4,4 -4,-550 1366.02,-550 1366.02,4 -4,4"/>
<!-- Node0 -->
<g id="node1" class="node"><title>Node0</title>
<g id="a_node1"><a xlink:title=" ">
<polygon fill="#bfbfbf" stroke="black" points="712.022,-504.5 712.022,-545.5 830.022,-545.5 830.022,-504.5 712.022,-504.5"/>
<text text-anchor="start" x="720.022" y="-533.5" font-family="Helvetica,sans-Serif" font-size="10.00">C:/dev/Igor/Igor/src</text>
<text text-anchor="start" x="720.022" y="-522.5" font-family="Helvetica,sans-Serif" font-size="10.00">/Tools/ModelViewer/src</text>
<text text-anchor="middle" x="771.022" y="-511.5" font-family="Helvetica,sans-Serif" font-size="10.00">/UserControlLight.h</text>
</a>
</g>
</g>
<!-- Node1 -->
<g id="node2" class="node"><title>Node1</title>
<g id="a_node2"><a xlink:href="i_node_light_8h.html" target="_top" xlink:title=" ">
<polygon fill="white" stroke="black" points="807.522,-336.5 807.522,-355.5 878.522,-355.5 878.522,-336.5 807.522,-336.5"/>
<text text-anchor="middle" x="843.022" y="-343.5" font-family="Helvetica,sans-Serif" font-size="10.00">iNodeLight.h</text>
</a>
</g>
</g>
<!-- Node0&#45;&gt;Node1 -->
<g id="edge1" class="edge"><title>Node0&#45;&gt;Node1</title>
<path fill="none" stroke="midnightblue" d="M779.002,-504.382C793.076,-469.783 822.103,-398.425 835.697,-365.006"/>
<polygon fill="midnightblue" stroke="midnightblue" points="839.004,-366.166 839.53,-355.584 832.52,-363.528 839.004,-366.166"/>
</g>
<!-- Node30 -->
<g id="node31" class="node"><title>Node30</title>
<g id="a_node31"><a xlink:href="ia_color4_8h.html" target="_top" xlink:title=" ">
<polygon fill="white" stroke="black" points="1090.02,-280.5 1090.02,-299.5 1150.02,-299.5 1150.02,-280.5 1090.02,-280.5"/>
<text text-anchor="middle" x="1120.02" y="-287.5" font-family="Helvetica,sans-Serif" font-size="10.00">iaColor4.h</text>
</a>
</g>
</g>
<!-- Node0&#45;&gt;Node30 -->
<g id="edge54" class="edge"><title>Node0&#45;&gt;Node30</title>
<path fill="none" stroke="midnightblue" d="M800.476,-504.335C869.112,-458.513 1038.4,-345.49 1098.46,-305.394"/>
<polygon fill="midnightblue" stroke="midnightblue" points="1100.76,-308.069 1107.13,-299.606 1096.87,-302.248 1100.76,-308.069"/>
</g>
<!-- Node31 -->
<g id="node32" class="node"><title>Node31</title>
<g id="a_node32"><a xlink:href="i_user_control_8h.html" target="_top" xlink:title=" ">
<polygon fill="white" stroke="black" points="554.022,-392.5 554.022,-411.5 632.022,-411.5 632.022,-392.5 554.022,-392.5"/>
<text text-anchor="middle" x="593.022" y="-399.5" font-family="Helvetica,sans-Serif" font-size="10.00">iUserControl.h</text>
</a>
</g>
</g>
<!-- Node0&#45;&gt;Node31 -->
<g id="edge55" class="edge"><title>Node0&#45;&gt;Node31</title>
<path fill="none" stroke="midnightblue" d="M711.74,-507.944C686.524,-499.064 657.943,-486.085 636.022,-468 620.568,-455.251 608.606,-435.506 601.266,-421.122"/>
<polygon fill="midnightblue" stroke="midnightblue" points="604.253,-419.258 596.755,-411.773 597.949,-422.3 604.253,-419.258"/>
</g>
<!-- Node42 -->
<g id="node43" class="node"><title>Node42</title>
<g id="a_node43"><a xlink:href="i_user_control_color_chooser_8h.html" target="_top" xlink:title=" ">
<polygon fill="white" stroke="black" points="645.522,-448.5 645.522,-467.5 782.522,-467.5 782.522,-448.5 645.522,-448.5"/>
<text text-anchor="middle" x="714.022" y="-455.5" font-family="Helvetica,sans-Serif" font-size="10.00">iUserControlColorChooser.h</text>
</a>
</g>
</g>
<!-- Node0&#45;&gt;Node42 -->
<g id="edge79" class="edge"><title>Node0&#45;&gt;Node42</title>
<path fill="none" stroke="midnightblue" d="M753.92,-504.498C745.769,-495.203 736.129,-484.21 728.366,-475.358"/>
<polygon fill="midnightblue" stroke="midnightblue" points="730.834,-472.863 721.609,-467.652 725.571,-477.479 730.834,-472.863"/>
</g>
<!-- Node2 -->
<g id="node3" class="node"><title>Node2</title>
<g id="a_node3"><a xlink:href="i_node_8h.html" target="_top" xlink:title=" ">
<polygon fill="white" stroke="black" points="820.022,-280.5 820.022,-299.5 870.022,-299.5 870.022,-280.5 820.022,-280.5"/>
<text text-anchor="middle" x="845.022" y="-287.5" font-family="Helvetica,sans-Serif" font-size="10.00">iNode.h</text>
</a>
</g>
</g>
<!-- Node1&#45;&gt;Node2 -->
<g id="edge2" class="edge"><title>Node1&#45;&gt;Node2</title>
<path fill="none" stroke="midnightblue" d="M843.352,-336.083C843.614,-329.006 843.99,-318.861 844.318,-309.986"/>
<polygon fill="midnightblue" stroke="midnightblue" points="847.825,-309.874 844.697,-299.751 840.83,-309.615 847.825,-309.874"/>
</g>
<!-- Node18 -->
<g id="node19" class="node"><title>Node18</title>
<g id="a_node19"><a xlink:href="ia_matrix_8h.html" target="_top" xlink:title=" ">
<polygon fill="white" stroke="black" points="386.522,-224.5 386.522,-243.5 445.522,-243.5 445.522,-224.5 386.522,-224.5"/>
<text text-anchor="middle" x="416.022" y="-231.5" font-family="Helvetica,sans-Serif" font-size="10.00">iaMatrix.h</text>
</a>
</g>
</g>
<!-- Node1&#45;&gt;Node18 -->
<g id="edge50" class="edge"><title>Node1&#45;&gt;Node18</title>
<path fill="none" stroke="midnightblue" d="M821.75,-336.435C787.384,-322.866 717.305,-296.299 656.022,-280 618.823,-270.107 513.632,-251.606 455.63,-241.687"/>
<polygon fill="midnightblue" stroke="midnightblue" points="456.163,-238.227 445.717,-239.997 454.987,-245.128 456.163,-238.227"/>
</g>
<!-- Node1&#45;&gt;Node30 -->
<g id="edge51" class="edge"><title>Node1&#45;&gt;Node30</title>
<path fill="none" stroke="midnightblue" d="M878.572,-338.26C924.286,-329.564 1006.12,-313.9 1076.02,-300 1077.27,-299.752 1078.54,-299.499 1079.82,-299.243"/>
<polygon fill="midnightblue" stroke="midnightblue" points="1080.62,-302.65 1089.73,-297.241 1079.24,-295.789 1080.62,-302.65"/>
</g>
<!-- Node3 -->
<g id="node4" class="node"><title>Node3</title>
<g id="a_node4"><a xlink:href="i_data_update_queue_8h.html" target="_top" xlink:title=" ">
<polygon fill="white" stroke="black" points="984.522,-224.5 984.522,-243.5 1091.52,-243.5 1091.52,-224.5 984.522,-224.5"/>
<text text-anchor="middle" x="1038.02" y="-231.5" font-family="Helvetica,sans-Serif" font-size="10.00">iDataUpdateQueue.h</text>
</a>
</g>
</g>
<!-- Node2&#45;&gt;Node3 -->
<g id="edge3" class="edge"><title>Node2&#45;&gt;Node3</title>
<path fill="none" stroke="midnightblue" d="M870.253,-281.94C902.613,-272.886 959.13,-257.073 997.538,-246.327"/>
<polygon fill="midnightblue" stroke="midnightblue" points="998.683,-249.641 1007.37,-243.576 996.797,-242.9 998.683,-249.641"/>
</g>
<!-- Node4 -->
<g id="node5" class="node"><title>Node4</title>
<g id="a_node5"><a xlink:href="i_defines_8h.html" target="_top" xlink:title=" ">
<polygon fill="white" stroke="black" points="192.522,-168.5 192.522,-187.5 251.522,-187.5 251.522,-168.5 192.522,-168.5"/>
<text text-anchor="middle" x="222.022" y="-175.5" font-family="Helvetica,sans-Serif" font-size="10.00">iDefines.h</text>
</a>
</g>
</g>
<!-- Node2&#45;&gt;Node4 -->
<g id="edge9" class="edge"><title>Node2&#45;&gt;Node4</title>
<path fill="none" stroke="midnightblue" d="M819.96,-287.711C735.509,-283.193 461.888,-267.087 377.022,-244 356.684,-238.467 353.363,-232.376 334.022,-224 307.221,-212.393 276.405,-200.086 253.89,-191.282"/>
<polygon fill="midnightblue" stroke="midnightblue" points="255.068,-187.985 244.479,-187.617 252.527,-194.507 255.068,-187.985"/>
</g>
<!-- Node6 -->
<g id="node7" class="node"><title>Node6</title>
<g id="a_node7"><a xlink:href="ia_mutex_8h.html" target="_top" xlink:title=" ">
<polygon fill="white" stroke="black" points="1052.52,-56.5 1052.52,-75.5 1111.52,-75.5 1111.52,-56.5 1052.52,-56.5"/>
<text text-anchor="middle" x="1082.02" y="-63.5" font-family="Helvetica,sans-Serif" font-size="10.00">iaMutex.h</text>
</a>
</g>
</g>
<!-- Node2&#45;&gt;Node6 -->
<g id="edge42" class="edge"><title>Node2&#45;&gt;Node6</title>
<path fill="none" stroke="midnightblue" d="M870.135,-288.838C924.256,-287.752 1055.23,-281.148 1157.02,-244 1201.28,-227.849 1224.14,-229.183 1247.02,-188 1261.85,-161.308 1224.13,-116.415 1219.02,-112 1191.65,-88.3632 1151.54,-77.0732 1121.79,-71.7223"/>
<polygon fill="midnightblue" stroke="midnightblue" points="1122.17,-68.2382 1111.73,-70.0668 1121.03,-75.1452 1122.17,-68.2382"/>
</g>
<!-- Node7 -->
<g id="node8" class="node"><title>Node7</title>
<g id="a_node8"><a xlink:title=" ">
<polygon fill="white" stroke="#bfbfbf" points="1064.02,-112.5 1064.02,-131.5 1106.02,-131.5 1106.02,-112.5 1064.02,-112.5"/>
<text text-anchor="middle" x="1085.02" y="-119.5" font-family="Helvetica,sans-Serif" font-size="10.00">vector</text>
</a>
</g>
</g>
<!-- Node2&#45;&gt;Node7 -->
<g id="edge47" class="edge"><title>Node2&#45;&gt;Node7</title>
<path fill="none" stroke="midnightblue" d="M870.378,-288.481C928.942,-286.692 1070.84,-278.784 1100.02,-244 1124.64,-214.652 1106.96,-166.327 1094.48,-140.523"/>
<polygon fill="midnightblue" stroke="midnightblue" points="1097.55,-138.853 1089.89,-131.535 1091.32,-142.034 1097.55,-138.853"/>
</g>
<!-- Node8 -->
<g id="node9" class="node"><title>Node8</title>
<g id="a_node9"><a xlink:href="ia_event_8h.html" target="_top" xlink:title=" ">
<polygon fill="white" stroke="black" points="726.022,-224.5 726.022,-243.5 782.022,-243.5 782.022,-224.5 726.022,-224.5"/>
<text text-anchor="middle" x="754.022" y="-231.5" font-family="Helvetica,sans-Serif" font-size="10.00">iaEvent.h</text>
</a>
</g>
</g>
<!-- Node2&#45;&gt;Node8 -->
<g id="edge10" class="edge"><title>Node2&#45;&gt;Node8</title>
<path fill="none" stroke="midnightblue" d="M830.401,-280.324C816.073,-271.822 794.009,-258.729 777.273,-248.797"/>
<polygon fill="midnightblue" stroke="midnightblue" points="778.992,-245.748 768.606,-243.655 775.42,-251.768 778.992,-245.748"/>
</g>
<!-- Node16 -->
<g id="node17" class="node"><title>Node16</title>
<g id="a_node17"><a xlink:href="ia_string_8h.html" target="_top" xlink:title=" ">
<polygon fill="white" stroke="black" points="742.022,-168.5 742.022,-187.5 800.022,-187.5 800.022,-168.5 742.022,-168.5"/>
<text text-anchor="middle" x="771.022" y="-175.5" font-family="Helvetica,sans-Serif" font-size="10.00">iaString.h</text>
</a>
</g>
</g>
<!-- Node2&#45;&gt;Node16 -->
<g id="edge22" class="edge"><title>Node2&#45;&gt;Node16</title>
<path fill="none" stroke="midnightblue" d="M839.215,-280.368C827.003,-262.215 798.47,-219.802 782.451,-195.99"/>
<polygon fill="midnightblue" stroke="midnightblue" points="785.287,-193.935 776.801,-187.591 779.479,-197.842 785.287,-193.935"/>
</g>
<!-- Node17 -->
<g id="node18" class="node"><title>Node17</title>
<g id="a_node18"><a xlink:title=" ">
<polygon fill="white" stroke="#bfbfbf" points="431.022,-56.5 431.022,-75.5 483.022,-75.5 483.022,-56.5 431.022,-56.5"/>
<text text-anchor="middle" x="457.022" y="-63.5" font-family="Helvetica,sans-Serif" font-size="10.00">ostream</text>
</a>
</g>
</g>
<!-- Node2&#45;&gt;Node17 -->
<g id="edge46" class="edge"><title>Node2&#45;&gt;Node17</title>
<path fill="none" stroke="midnightblue" d="M846.877,-280.14C849.834,-267.193 856.392,-242.624 867.022,-224 877.488,-205.662 890.673,-207.795 898.022,-188 912.178,-149.865 883.225,-130.549 847.022,-112 839.165,-107.975 588.466,-80.9784 493.234,-70.8388"/>
<polygon fill="midnightblue" stroke="midnightblue" points="493.515,-67.349 483.201,-69.7717 492.774,-74.3097 493.515,-67.349"/>
</g>
<!-- Node2&#45;&gt;Node18 -->
<g id="edge26" class="edge"><title>Node2&#45;&gt;Node18</title>
<path fill="none" stroke="midnightblue" d="M820.014,-286.36C746.211,-278.523 530.122,-255.245 460.022,-244 458.578,-243.768 457.11,-243.523 455.629,-243.266"/>
<polygon fill="midnightblue" stroke="midnightblue" points="456.25,-239.821 445.781,-241.446 454.978,-246.705 456.25,-239.821"/>
</g>
<!-- Node27 -->
<g id="node28" class="node"><title>Node27</title>
<g id="a_node28"><a xlink:href="ia_i_d_generator_8h.html" target="_top" xlink:title=" ">
<polygon fill="white" stroke="black" points="1136.02,-168.5 1136.02,-187.5 1220.02,-187.5 1220.02,-168.5 1136.02,-168.5"/>
<text text-anchor="middle" x="1178.02" y="-175.5" font-family="Helvetica,sans-Serif" font-size="10.00">iaIDGenerator.h</text>
</a>
</g>
</g>
<!-- Node2&#45;&gt;Node27 -->
<g id="edge43" class="edge"><title>Node2&#45;&gt;Node27</title>
<path fill="none" stroke="midnightblue" d="M870.08,-287.645C931.961,-283.902 1090.17,-271.803 1134.02,-244 1151.41,-232.972 1163.61,-212.312 1170.68,-197.236"/>
<polygon fill="midnightblue" stroke="midnightblue" points="1173.97,-198.443 1174.75,-187.878 1167.55,-195.647 1173.97,-198.443"/>
</g>
<!-- Node28 -->
<g id="node29" class="node"><title>Node28</title>
<g id="a_node29"><a xlink:title=" ">
<polygon fill="white" stroke="#bfbfbf" points="876.022,-224.5 876.022,-243.5 928.022,-243.5 928.022,-224.5 876.022,-224.5"/>
<text text-anchor="middle" x="902.022" y="-231.5" font-family="Helvetica,sans-Serif" font-size="10.00">memory</text>
</a>
</g>
</g>
<!-- Node2&#45;&gt;Node28 -->
<g id="edge48" class="edge"><title>Node2&#45;&gt;Node28</title>
<path fill="none" stroke="midnightblue" d="M854.18,-280.324C862.523,-272.42 875.054,-260.548 885.198,-250.938"/>
<polygon fill="midnightblue" stroke="midnightblue" points="887.844,-253.252 892.697,-243.834 883.03,-248.171 887.844,-253.252"/>
</g>
<!-- Node29 -->
<g id="node30" class="node"><title>Node29</title>
<g id="a_node30"><a xlink:title=" ">
<polygon fill="white" stroke="#bfbfbf" points="444.522,-168.5 444.522,-187.5 479.522,-187.5 479.522,-168.5 444.522,-168.5"/>
<text text-anchor="middle" x="462.022" y="-175.5" font-family="Helvetica,sans-Serif" font-size="10.00">map</text>
</a>
</g>
</g>
<!-- Node2&#45;&gt;Node29 -->
<g id="edge49" class="edge"><title>Node2&#45;&gt;Node29</title>
<path fill="none" stroke="midnightblue" d="M819.965,-286.46C741.718,-278.441 506.326,-253.628 493.022,-244 477.862,-233.029 469.833,-212.668 465.777,-197.647"/>
<polygon fill="midnightblue" stroke="midnightblue" points="469.174,-196.8 463.482,-187.864 462.359,-198.399 469.174,-196.8"/>
</g>
<!-- Node3&#45;&gt;Node4 -->
<g id="edge4" class="edge"><title>Node3&#45;&gt;Node4</title>
<path fill="none" stroke="midnightblue" d="M984.321,-227.888C969.045,-226.523 952.385,-225.118 937.022,-224 653.764,-203.393 581.97,-212.497 299.022,-188 286.888,-186.949 273.711,-185.517 261.744,-184.104"/>
<polygon fill="midnightblue" stroke="midnightblue" points="261.945,-180.603 251.597,-182.877 261.104,-187.552 261.945,-180.603"/>
</g>
<!-- Node3&#45;&gt;Node6 -->
<g id="edge6" class="edge"><title>Node3&#45;&gt;Node6</title>
<path fill="none" stroke="midnightblue" d="M1091.79,-227.718C1142.16,-221.527 1212.16,-209.301 1229.02,-188 1266.86,-140.206 1173.89,-98.4761 1118.94,-78.8781"/>
<polygon fill="midnightblue" stroke="midnightblue" points="1120.09,-75.5709 1109.49,-75.5909 1117.79,-82.1823 1120.09,-75.5709"/>
</g>
<!-- Node3&#45;&gt;Node7 -->
<g id="edge8" class="edge"><title>Node3&#45;&gt;Node7</title>
<path fill="none" stroke="midnightblue" d="M1041.71,-224.368C1049.36,-206.456 1067.11,-164.923 1077.35,-140.948"/>
<polygon fill="midnightblue" stroke="midnightblue" points="1080.64,-142.162 1081.35,-131.591 1074.2,-139.412 1080.64,-142.162"/>
</g>
<!-- Node5 -->
<g id="node6" class="node"><title>Node5</title>
<g id="a_node6"><a xlink:href="ia_defines_8h.html" target="_top" xlink:title=" ">
<polygon fill="white" stroke="black" points="548.522,-0.5 548.522,-19.5 613.522,-19.5 613.522,-0.5 548.522,-0.5"/>
<text text-anchor="middle" x="581.022" y="-7.5" font-family="Helvetica,sans-Serif" font-size="10.00">iaDefines.h</text>
</a>
</g>
</g>
<!-- Node4&#45;&gt;Node5 -->
<g id="edge5" class="edge"><title>Node4&#45;&gt;Node5</title>
<path fill="none" stroke="midnightblue" d="M219.5,-168.227C213.717,-146.041 202.174,-87.2461 232.022,-56 273.198,-12.8947 454.409,-9.35851 538.224,-10.1127"/>
<polygon fill="midnightblue" stroke="midnightblue" points="538.386,-13.6147 548.426,-10.2302 538.467,-6.61512 538.386,-13.6147"/>
</g>
<!-- Node6&#45;&gt;Node5 -->
<g id="edge7" class="edge"><title>Node6&#45;&gt;Node5</title>
<path fill="none" stroke="midnightblue" d="M1052.18,-61.7838C967.036,-52.6063 722.688,-26.2694 623.565,-15.5856"/>
<polygon fill="midnightblue" stroke="midnightblue" points="623.918,-12.1034 613.601,-14.5115 623.168,-19.0631 623.918,-12.1034"/>
</g>
<!-- Node8&#45;&gt;Node6 -->
<g id="edge11" class="edge"><title>Node8&#45;&gt;Node6</title>
<path fill="none" stroke="midnightblue" d="M782.223,-226.667C811.901,-219.439 859.555,-206.217 898.022,-188 962.453,-157.486 1030.64,-107.227 1062.93,-82.1766"/>
<polygon fill="midnightblue" stroke="midnightblue" points="1065.34,-84.7378 1071.06,-75.817 1061.02,-79.2263 1065.34,-84.7378"/>
</g>
<!-- Node8&#45;&gt;Node7 -->
<g id="edge21" class="edge"><title>Node8&#45;&gt;Node7</title>
<path fill="none" stroke="midnightblue" d="M782.35,-229.863C839.85,-223.192 968.179,-206.67 1008.02,-188 1032.88,-176.35 1056.2,-154.556 1070.52,-139.433"/>
<polygon fill="midnightblue" stroke="midnightblue" points="1073.32,-141.558 1077.51,-131.825 1068.17,-136.825 1073.32,-141.558"/>
</g>
<!-- Node9 -->
<g id="node10" class="node"><title>Node9</title>
<g id="a_node10"><a xlink:href="ia_delegate_8h.html" target="_top" xlink:title=" ">
<polygon fill="white" stroke="black" points="818.522,-168.5 818.522,-187.5 889.522,-187.5 889.522,-168.5 818.522,-168.5"/>
<text text-anchor="middle" x="854.022" y="-175.5" font-family="Helvetica,sans-Serif" font-size="10.00">iaDelegate.h</text>
</a>
</g>
</g>
<!-- Node8&#45;&gt;Node9 -->
<g id="edge12" class="edge"><title>Node8&#45;&gt;Node9</title>
<path fill="none" stroke="midnightblue" d="M770.088,-224.324C785.979,-215.743 810.529,-202.486 828.98,-192.522"/>
<polygon fill="midnightblue" stroke="midnightblue" points="830.859,-195.486 837.995,-187.655 827.533,-189.326 830.859,-195.486"/>
</g>
<!-- Node10 -->
<g id="node11" class="node"><title>Node10</title>
<g id="a_node11"><a xlink:href="ia_console_8h.html" target="_top" xlink:title=" ">
<polygon fill="white" stroke="black" points="498.022,-168.5 498.022,-187.5 566.022,-187.5 566.022,-168.5 498.022,-168.5"/>
<text text-anchor="middle" x="532.022" y="-175.5" font-family="Helvetica,sans-Serif" font-size="10.00">iaConsole.h</text>
</a>
</g>
</g>
<!-- Node8&#45;&gt;Node10 -->
<g id="edge13" class="edge"><title>Node8&#45;&gt;Node10</title>
<path fill="none" stroke="midnightblue" d="M725.905,-226.161C688.129,-216.972 620.595,-200.545 576.047,-189.709"/>
<polygon fill="midnightblue" stroke="midnightblue" points="576.624,-186.247 566.081,-187.285 574.97,-193.049 576.624,-186.247"/>
</g>
<!-- Node11 -->
<g id="node12" class="node"><title>Node11</title>
<g id="a_node12"><a xlink:href="ia_singleton_8h.html" target="_top" xlink:title=" ">
<polygon fill="white" stroke="black" points="681.522,-112.5 681.522,-131.5 754.522,-131.5 754.522,-112.5 681.522,-112.5"/>
<text text-anchor="middle" x="718.022" y="-119.5" font-family="Helvetica,sans-Serif" font-size="10.00">iaSingleton.h</text>
</a>
</g>
</g>
<!-- Node10&#45;&gt;Node11 -->
<g id="edge14" class="edge"><title>Node10&#45;&gt;Node11</title>
<path fill="none" stroke="midnightblue" d="M561.494,-168.444C593.193,-159.241 643.754,-144.562 678.796,-134.388"/>
<polygon fill="midnightblue" stroke="midnightblue" points="680.06,-137.666 688.687,-131.516 678.108,-130.943 680.06,-137.666"/>
</g>
<!-- Node12 -->
<g id="node13" class="node"><title>Node12</title>
<g id="a_node13"><a xlink:href="ia_clock_8h.html" target="_top" xlink:title=" ">
<polygon fill="white" stroke="black" points="552.522,-56.5 552.522,-75.5 609.522,-75.5 609.522,-56.5 552.522,-56.5"/>
<text text-anchor="middle" x="581.022" y="-63.5" font-family="Helvetica,sans-Serif" font-size="10.00">iaClock.h</text>
</a>
</g>
</g>
<!-- Node10&#45;&gt;Node12 -->
<g id="edge16" class="edge"><title>Node10&#45;&gt;Node12</title>
<path fill="none" stroke="midnightblue" d="M539.089,-168.177C545.795,-159.436 555.754,-145.446 562.022,-132 569.007,-117.015 574.051,-98.8792 577.179,-85.5761"/>
<polygon fill="midnightblue" stroke="midnightblue" points="580.618,-86.2327 579.356,-75.7133 573.783,-84.7237 580.618,-86.2327"/>
</g>
<!-- Node13 -->
<g id="node14" class="node"><title>Node13</title>
<g id="a_node14"><a xlink:title=" ">
<polygon fill="white" stroke="#bfbfbf" points="772.522,-112.5 772.522,-131.5 821.522,-131.5 821.522,-112.5 772.522,-112.5"/>
<text text-anchor="middle" x="797.022" y="-119.5" font-family="Helvetica,sans-Serif" font-size="10.00">fstream</text>
</a>
</g>
</g>
<!-- Node10&#45;&gt;Node13 -->
<g id="edge18" class="edge"><title>Node10&#45;&gt;Node13</title>
<path fill="none" stroke="midnightblue" d="M566.395,-170.435C620.55,-160.073 722.919,-140.411 762.293,-131.971"/>
<polygon fill="midnightblue" stroke="midnightblue" points="763.181,-135.36 772.186,-129.778 761.666,-128.526 763.181,-135.36"/>
</g>
<!-- Node14 -->
<g id="node15" class="node"><title>Node14</title>
<g id="a_node15"><a xlink:title=" ">
<polygon fill="white" stroke="#bfbfbf" points="609.022,-112.5 609.022,-131.5 663.022,-131.5 663.022,-112.5 609.022,-112.5"/>
<text text-anchor="middle" x="636.022" y="-119.5" font-family="Helvetica,sans-Serif" font-size="10.00">iostream</text>
</a>
</g>
</g>
<!-- Node10&#45;&gt;Node14 -->
<g id="edge19" class="edge"><title>Node10&#45;&gt;Node14</title>
<path fill="none" stroke="midnightblue" d="M548.731,-168.324C565.334,-159.703 591.024,-146.364 610.242,-136.386"/>
<polygon fill="midnightblue" stroke="midnightblue" points="612.092,-139.369 619.354,-131.655 608.866,-133.156 612.092,-139.369"/>
</g>
<!-- Node15 -->
<g id="node16" class="node"><title>Node15</title>
<g id="a_node16"><a xlink:title=" ">
<polygon fill="white" stroke="#bfbfbf" points="503.022,-112.5 503.022,-131.5 553.022,-131.5 553.022,-112.5 503.022,-112.5"/>
<text text-anchor="middle" x="528.022" y="-119.5" font-family="Helvetica,sans-Serif" font-size="10.00">iomanip</text>
</a>
</g>
</g>
<!-- Node10&#45;&gt;Node15 -->
<g id="edge20" class="edge"><title>Node10&#45;&gt;Node15</title>
<path fill="none" stroke="midnightblue" d="M531.361,-168.083C530.837,-161.006 530.085,-150.861 529.428,-141.986"/>
<polygon fill="midnightblue" stroke="midnightblue" points="532.899,-141.465 528.67,-131.751 525.918,-141.982 532.899,-141.465"/>
</g>
<!-- Node11&#45;&gt;Node6 -->
<g id="edge15" class="edge"><title>Node11&#45;&gt;Node6</title>
<path fill="none" stroke="midnightblue" d="M754.827,-113.461C757.596,-112.948 760.351,-112.455 763.022,-112 863.146,-94.9399 981.741,-79.4396 1042.22,-71.8708"/>
<polygon fill="midnightblue" stroke="midnightblue" points="1042.98,-75.3035 1052.47,-70.5946 1042.11,-68.3572 1042.98,-75.3035"/>
</g>
<!-- Node12&#45;&gt;Node5 -->
<g id="edge17" class="edge"><title>Node12&#45;&gt;Node5</title>
<path fill="none" stroke="midnightblue" d="M581.022,-56.083C581.022,-49.0059 581.022,-38.8611 581.022,-29.9865"/>
<polygon fill="midnightblue" stroke="midnightblue" points="584.522,-29.751 581.022,-19.7511 577.522,-29.7511 584.522,-29.751"/>
</g>
<!-- Node16&#45;&gt;Node5 -->
<g id="edge23" class="edge"><title>Node16&#45;&gt;Node5</title>
<path fill="none" stroke="midnightblue" d="M796.17,-168.343C824.308,-157.229 863.882,-136.437 847.022,-112 796.503,-38.7808 685.432,-18.5946 623.998,-13.0613"/>
<polygon fill="midnightblue" stroke="midnightblue" points="624.105,-9.5586 613.856,-12.2406 623.541,-16.5358 624.105,-9.5586"/>
</g>
<!-- Node16&#45;&gt;Node7 -->
<g id="edge25" class="edge"><title>Node16&#45;&gt;Node7</title>
<path fill="none" stroke="midnightblue" d="M800.435,-169.816C803.33,-169.174 806.229,-168.558 809.022,-168 897.251,-150.382 1002.37,-134.69 1053.7,-127.368"/>
<polygon fill="midnightblue" stroke="midnightblue" points="1054.4,-130.804 1063.81,-125.935 1053.42,-123.873 1054.4,-130.804"/>
</g>
<!-- Node16&#45;&gt;Node17 -->
<g id="edge24" class="edge"><title>Node16&#45;&gt;Node17</title>
<path fill="none" stroke="midnightblue" d="M788.736,-168.436C812.063,-156.058 848.119,-132.412 830.022,-112 827.232,-108.854 586.71,-81.555 493.424,-71.074"/>
<polygon fill="midnightblue" stroke="midnightblue" points="493.645,-67.5769 483.317,-69.9395 492.864,-74.5332 493.645,-67.5769"/>
</g>
<!-- Node18&#45;&gt;Node13 -->
<g id="edge38" class="edge"><title>Node18&#45;&gt;Node13</title>
<path fill="none" stroke="midnightblue" d="M445.643,-226.574C478.043,-219.098 531.198,-205.511 575.022,-188 592.744,-180.918 595.16,-174.723 613.022,-168 674.304,-144.932 694.716,-148.389 762.298,-132.089"/>
<polygon fill="midnightblue" stroke="midnightblue" points="763.288,-135.45 772.156,-129.653 761.609,-128.654 763.288,-135.45"/>
</g>
<!-- Node18&#45;&gt;Node15 -->
<g id="edge40" class="edge"><title>Node18&#45;&gt;Node15</title>
<path fill="none" stroke="midnightblue" d="M416.369,-224.386C417.346,-210.868 421.048,-184.514 435.022,-168 443.436,-158.056 472.241,-144.909 495.589,-135.396"/>
<polygon fill="midnightblue" stroke="midnightblue" points="497.199,-138.522 505.186,-131.561 494.601,-132.022 497.199,-138.522"/>
</g>
<!-- Node19 -->
<g id="node20" class="node"><title>Node19</title>
<g id="a_node20"><a xlink:href="ia_vector4_8h.html" target="_top" xlink:title=" ">
<polygon fill="white" stroke="black" points="108.022,-168.5 108.022,-187.5 174.022,-187.5 174.022,-168.5 108.022,-168.5"/>
<text text-anchor="middle" x="141.022" y="-175.5" font-family="Helvetica,sans-Serif" font-size="10.00">iaVector4.h</text>
</a>
</g>
</g>
<!-- Node18&#45;&gt;Node19 -->
<g id="edge27" class="edge"><title>Node18&#45;&gt;Node19</title>
<path fill="none" stroke="midnightblue" d="M386.191,-227.439C343.654,-219.467 262.87,-204.165 184.114,-188.191"/>
<polygon fill="midnightblue" stroke="midnightblue" points="184.52,-184.702 174.023,-186.138 183.125,-191.561 184.52,-184.702"/>
</g>
<!-- Node21 -->
<g id="node22" class="node"><title>Node21</title>
<g id="a_node22"><a xlink:title=" ">
<polygon fill="white" stroke="#bfbfbf" points="241.022,-56.5 241.022,-75.5 285.022,-75.5 285.022,-56.5 241.022,-56.5"/>
<text text-anchor="middle" x="263.022" y="-63.5" font-family="Helvetica,sans-Serif" font-size="10.00">cmath</text>
</a>
</g>
</g>
<!-- Node18&#45;&gt;Node21 -->
<g id="edge39" class="edge"><title>Node18&#45;&gt;Node21</title>
<path fill="none" stroke="midnightblue" d="M386.492,-227.793C360.778,-221.943 323.833,-210.207 299.022,-188 269.716,-161.771 263.806,-112.86 262.892,-85.9533"/>
<polygon fill="midnightblue" stroke="midnightblue" points="266.387,-85.5511 262.755,-75.5984 259.388,-85.6439 266.387,-85.5511"/>
</g>
<!-- Node24 -->
<g id="node25" class="node"><title>Node24</title>
<g id="a_node25"><a xlink:href="ia_quaternion_8h.html" target="_top" xlink:title=" ">
<polygon fill="white" stroke="black" points="308.022,-168.5 308.022,-187.5 388.022,-187.5 388.022,-168.5 308.022,-168.5"/>
<text text-anchor="middle" x="348.022" y="-175.5" font-family="Helvetica,sans-Serif" font-size="10.00">iaQuaternion.h</text>
</a>
</g>
</g>
<!-- Node18&#45;&gt;Node24 -->
<g id="edge34" class="edge"><title>Node18&#45;&gt;Node24</title>
<path fill="none" stroke="midnightblue" d="M405.096,-224.324C394.847,-216.185 379.301,-203.839 367.021,-194.087"/>
<polygon fill="midnightblue" stroke="midnightblue" points="369.153,-191.312 359.146,-187.834 364.8,-196.794 369.153,-191.312"/>
</g>
<!-- Node26 -->
<g id="node27" class="node"><title>Node26</title>
<g id="a_node27"><a xlink:href="ia_matrix_8inl.html" target="_top" xlink:title=" ">
<polygon fill="white" stroke="black" points="622.022,-168.5 622.022,-187.5 686.022,-187.5 686.022,-168.5 622.022,-168.5"/>
<text text-anchor="middle" x="654.022" y="-175.5" font-family="Helvetica,sans-Serif" font-size="10.00">iaMatrix.inl</text>
</a>
</g>
</g>
<!-- Node18&#45;&gt;Node26 -->
<g id="edge41" class="edge"><title>Node18&#45;&gt;Node26</title>
<path fill="none" stroke="midnightblue" d="M445.683,-226.27C487.476,-216.788 563.914,-199.445 611.674,-188.608"/>
<polygon fill="midnightblue" stroke="midnightblue" points="612.722,-191.96 621.699,-186.334 611.173,-185.133 612.722,-191.96"/>
</g>
<!-- Node20 -->
<g id="node21" class="node"><title>Node20</title>
<g id="a_node21"><a xlink:href="ia_vector3_8h.html" target="_top" xlink:title=" ">
<polygon fill="white" stroke="black" points="279.022,-112.5 279.022,-131.5 345.022,-131.5 345.022,-112.5 279.022,-112.5"/>
<text text-anchor="middle" x="312.022" y="-119.5" font-family="Helvetica,sans-Serif" font-size="10.00">iaVector3.h</text>
</a>
</g>
</g>
<!-- Node19&#45;&gt;Node20 -->
<g id="edge28" class="edge"><title>Node19&#45;&gt;Node20</title>
<path fill="none" stroke="midnightblue" d="M168.117,-168.444C197.01,-159.32 242.946,-144.813 275.127,-134.651"/>
<polygon fill="midnightblue" stroke="midnightblue" points="276.571,-137.865 285.053,-131.516 274.463,-131.19 276.571,-137.865"/>
</g>
<!-- Node23 -->
<g id="node24" class="node"><title>Node23</title>
<g id="a_node24"><a xlink:href="ia_vector4_8inl.html" target="_top" xlink:title=" ">
<polygon fill="white" stroke="black" points="113.522,-112.5 113.522,-131.5 184.522,-131.5 184.522,-112.5 113.522,-112.5"/>
<text text-anchor="middle" x="149.022" y="-119.5" font-family="Helvetica,sans-Serif" font-size="10.00">iaVector4.inl</text>
</a>
</g>
</g>
<!-- Node19&#45;&gt;Node23 -->
<g id="edge33" class="edge"><title>Node19&#45;&gt;Node23</title>
<path fill="none" stroke="midnightblue" d="M142.343,-168.083C143.403,-160.927 144.927,-150.635 146.253,-141.691"/>
<polygon fill="midnightblue" stroke="midnightblue" points="149.722,-142.156 147.725,-131.751 142.797,-141.13 149.722,-142.156"/>
</g>
<!-- Node20&#45;&gt;Node5 -->
<g id="edge29" class="edge"><title>Node20&#45;&gt;Node5</title>
<path fill="none" stroke="midnightblue" d="M312.005,-112.347C312.479,-98.282 315.592,-70.5719 332.022,-56 361.986,-29.4235 475.599,-17.8762 538.491,-13.4316"/>
<polygon fill="midnightblue" stroke="midnightblue" points="538.759,-16.9216 548.5,-12.754 538.286,-9.93756 538.759,-16.9216"/>
</g>
<!-- Node20&#45;&gt;Node17 -->
<g id="edge31" class="edge"><title>Node20&#45;&gt;Node17</title>
<path fill="none" stroke="midnightblue" d="M334.997,-112.444C359.179,-103.438 397.44,-89.1891 424.668,-79.049"/>
<polygon fill="midnightblue" stroke="midnightblue" points="426.004,-82.2864 434.153,-75.5164 423.561,-75.7265 426.004,-82.2864"/>
</g>
<!-- Node20&#45;&gt;Node21 -->
<g id="edge30" class="edge"><title>Node20&#45;&gt;Node21</title>
<path fill="none" stroke="midnightblue" d="M303.93,-112.083C296.866,-104.298 286.434,-92.8015 277.873,-83.3665"/>
<polygon fill="midnightblue" stroke="midnightblue" points="280.274,-80.8047 270.962,-75.7511 275.09,-85.5087 280.274,-80.8047"/>
</g>
<!-- Node22 -->
<g id="node23" class="node"><title>Node22</title>
<g id="a_node23"><a xlink:href="ia_vector3_8inl.html" target="_top" xlink:title=" ">
<polygon fill="white" stroke="black" points="341.522,-56.5 341.522,-75.5 412.522,-75.5 412.522,-56.5 341.522,-56.5"/>
<text text-anchor="middle" x="377.022" y="-63.5" font-family="Helvetica,sans-Serif" font-size="10.00">iaVector3.inl</text>
</a>
</g>
</g>
<!-- Node20&#45;&gt;Node22 -->
<g id="edge32" class="edge"><title>Node20&#45;&gt;Node22</title>
<path fill="none" stroke="midnightblue" d="M322.465,-112.324C332.168,-104.263 346.837,-92.0765 358.521,-82.3695"/>
<polygon fill="midnightblue" stroke="midnightblue" points="360.933,-84.9163 366.388,-75.8339 356.46,-79.532 360.933,-84.9163"/>
</g>
<!-- Node24&#45;&gt;Node17 -->
<g id="edge36" class="edge"><title>Node24&#45;&gt;Node17</title>
<path fill="none" stroke="midnightblue" d="M352.553,-168.265C359.697,-155.045 374.577,-129.629 392.022,-112 403.985,-99.9104 419.597,-88.9806 432.523,-80.9207"/>
<polygon fill="midnightblue" stroke="midnightblue" points="434.614,-83.7464 441.368,-75.5835 430.998,-77.7528 434.614,-83.7464"/>
</g>
<!-- Node24&#45;&gt;Node20 -->
<g id="edge35" class="edge"><title>Node24&#45;&gt;Node20</title>
<path fill="none" stroke="midnightblue" d="M342.077,-168.083C337.044,-160.534 329.685,-149.495 323.508,-140.23"/>
<polygon fill="midnightblue" stroke="midnightblue" points="326.315,-138.13 317.856,-131.751 320.491,-142.013 326.315,-138.13"/>
</g>
<!-- Node25 -->
<g id="node26" class="node"><title>Node25</title>
<g id="a_node26"><a xlink:href="ia_quaternion_8inl.html" target="_top" xlink:title=" ">
<polygon fill="white" stroke="black" points="401.022,-112.5 401.022,-131.5 485.022,-131.5 485.022,-112.5 401.022,-112.5"/>
<text text-anchor="middle" x="443.022" y="-119.5" font-family="Helvetica,sans-Serif" font-size="10.00">iaQuaternion.inl</text>
</a>
</g>
</g>
<!-- Node24&#45;&gt;Node25 -->
<g id="edge37" class="edge"><title>Node24&#45;&gt;Node25</title>
<path fill="none" stroke="midnightblue" d="M363.285,-168.324C378.243,-159.822 401.276,-146.729 418.748,-136.797"/>
<polygon fill="midnightblue" stroke="midnightblue" points="420.832,-139.639 427.796,-131.655 417.373,-133.553 420.832,-139.639"/>
</g>
<!-- Node27&#45;&gt;Node6 -->
<g id="edge44" class="edge"><title>Node27&#45;&gt;Node6</title>
<path fill="none" stroke="midnightblue" d="M1170.49,-168.368C1154.51,-150.055 1116.97,-107.049 1096.3,-83.3624"/>
<polygon fill="midnightblue" stroke="midnightblue" points="1098.73,-80.8243 1089.52,-75.5914 1093.46,-85.4271 1098.73,-80.8243"/>
</g>
<!-- Node27&#45;&gt;Node7 -->
<g id="edge45" class="edge"><title>Node27&#45;&gt;Node7</title>
<path fill="none" stroke="midnightblue" d="M1163.08,-168.324C1148.44,-159.822 1125.89,-146.729 1108.78,-136.797"/>
<polygon fill="midnightblue" stroke="midnightblue" points="1110.33,-133.649 1099.93,-131.655 1106.82,-139.703 1110.33,-133.649"/>
</g>
<!-- Node30&#45;&gt;Node5 -->
<g id="edge52" class="edge"><title>Node30&#45;&gt;Node5</title>
<path fill="none" stroke="midnightblue" d="M1150.18,-288.745C1215.05,-286.444 1362.02,-271.07 1362.02,-179 1362.02,-179 1362.02,-179 1362.02,-121 1362.02,-45.8 786.927,-18.6608 623.729,-12.4734"/>
<polygon fill="midnightblue" stroke="midnightblue" points="623.709,-8.97028 613.586,-12.0958 623.449,-15.9654 623.709,-8.97028"/>
</g>
<!-- Node30&#45;&gt;Node13 -->
<g id="edge53" class="edge"><title>Node30&#45;&gt;Node13</title>
<path fill="none" stroke="midnightblue" d="M1089.98,-284.021C1059.39,-277.989 1011.42,-265.814 975.022,-244 933.777,-219.283 937.734,-195.111 898.022,-168 877.312,-153.862 851.44,-142.436 831.067,-134.635"/>
<polygon fill="midnightblue" stroke="midnightblue" points="832.146,-131.302 821.553,-131.101 829.708,-137.864 832.146,-131.302"/>
</g>
<!-- Node32 -->
<g id="node33" class="node"><title>Node32</title>
<g id="a_node33"><a xlink:href="i_widget_8h.html" target="_top" xlink:title=" ">
<polygon fill="white" stroke="black" points="564.022,-336.5 564.022,-355.5 622.022,-355.5 622.022,-336.5 564.022,-336.5"/>
<text text-anchor="middle" x="593.022" y="-343.5" font-family="Helvetica,sans-Serif" font-size="10.00">iWidget.h</text>
</a>
</g>
</g>
<!-- Node31&#45;&gt;Node32 -->
<g id="edge56" class="edge"><title>Node31&#45;&gt;Node32</title>
<path fill="none" stroke="midnightblue" d="M593.022,-392.083C593.022,-385.006 593.022,-374.861 593.022,-365.986"/>
<polygon fill="midnightblue" stroke="midnightblue" points="596.522,-365.751 593.022,-355.751 589.522,-365.751 596.522,-365.751"/>
</g>
<!-- Node32&#45;&gt;Node7 -->
<g id="edge77" class="edge"><title>Node32&#45;&gt;Node7</title>
<path fill="none" stroke="midnightblue" d="M622.339,-343.329C739.942,-335.874 1173.81,-300.894 1229.02,-188 1251.48,-142.089 1164.96,-128.576 1116.2,-124.621"/>
<polygon fill="midnightblue" stroke="midnightblue" points="1116.36,-121.124 1106.14,-123.896 1115.86,-128.106 1116.36,-121.124"/>
</g>
<!-- Node32&#45;&gt;Node19 -->
<g id="edge76" class="edge"><title>Node32&#45;&gt;Node19</title>
<path fill="none" stroke="midnightblue" d="M563.95,-344.22C462.465,-340.817 126.705,-323.615 64.0216,-244 47.2739,-222.729 78.9125,-203.422 106.558,-191.478"/>
<polygon fill="midnightblue" stroke="midnightblue" points="108.161,-194.603 116.084,-187.569 105.504,-188.127 108.161,-194.603"/>
</g>
<!-- Node33 -->
<g id="node34" class="node"><title>Node33</title>
<g id="a_node34"><a xlink:href="i_mouse_8h.html" target="_top" xlink:title=" ">
<polygon fill="white" stroke="black" points="305.022,-280.5 305.022,-299.5 361.022,-299.5 361.022,-280.5 305.022,-280.5"/>
<text text-anchor="middle" x="333.022" y="-287.5" font-family="Helvetica,sans-Serif" font-size="10.00">iMouse.h</text>
</a>
</g>
</g>
<!-- Node32&#45;&gt;Node33 -->
<g id="edge57" class="edge"><title>Node32&#45;&gt;Node33</title>
<path fill="none" stroke="midnightblue" d="M563.953,-338.963C516.746,-329.158 423.429,-309.777 371.024,-298.893"/>
<polygon fill="midnightblue" stroke="midnightblue" points="371.617,-295.441 361.114,-296.835 370.194,-302.295 371.617,-295.441"/>
</g>
<!-- Node40 -->
<g id="node41" class="node"><title>Node40</title>
<g id="a_node41"><a xlink:href="i_timer_handle_8h.html" target="_top" xlink:title=" ">
<polygon fill="white" stroke="black" points="485.522,-280.5 485.522,-299.5 566.522,-299.5 566.522,-280.5 485.522,-280.5"/>
<text text-anchor="middle" x="526.022" y="-287.5" font-family="Helvetica,sans-Serif" font-size="10.00">iTimerHandle.h</text>
</a>
</g>
</g>
<!-- Node32&#45;&gt;Node40 -->
<g id="edge73" class="edge"><title>Node32&#45;&gt;Node40</title>
<path fill="none" stroke="midnightblue" d="M582.257,-336.324C572.255,-328.263 557.135,-316.077 545.091,-306.369"/>
<polygon fill="midnightblue" stroke="midnightblue" points="546.965,-303.384 536.982,-299.834 542.572,-308.834 546.965,-303.384"/>
</g>
<!-- Node41 -->
<g id="node42" class="node"><title>Node41</title>
<g id="a_node42"><a xlink:href="i_widget_8inl.html" target="_top" xlink:title=" ">
<polygon fill="white" stroke="black" points="585.022,-280.5 585.022,-299.5 647.022,-299.5 647.022,-280.5 585.022,-280.5"/>
<text text-anchor="middle" x="616.022" y="-287.5" font-family="Helvetica,sans-Serif" font-size="10.00">iWidget.inl</text>
</a>
</g>
</g>
<!-- Node32&#45;&gt;Node41 -->
<g id="edge78" class="edge"><title>Node32&#45;&gt;Node41</title>
<path fill="none" stroke="midnightblue" d="M596.82,-336.083C599.934,-328.77 604.444,-318.181 608.311,-309.103"/>
<polygon fill="midnightblue" stroke="midnightblue" points="611.596,-310.323 612.294,-299.751 605.156,-307.58 611.596,-310.323"/>
</g>
<!-- Node33&#45;&gt;Node8 -->
<g id="edge58" class="edge"><title>Node33&#45;&gt;Node8</title>
<path fill="none" stroke="midnightblue" d="M361.298,-285.373C434.847,-275.939 632.209,-250.624 715.787,-239.904"/>
<polygon fill="midnightblue" stroke="midnightblue" points="716.395,-243.355 725.868,-238.611 715.504,-236.412 716.395,-243.355"/>
</g>
<!-- Node34 -->
<g id="node35" class="node"><title>Node34</title>
<g id="a_node35"><a xlink:href="i_key_code_map_8h.html" target="_top" xlink:title=" ">
<polygon fill="white" stroke="black" points="502.022,-224.5 502.022,-243.5 588.022,-243.5 588.022,-224.5 502.022,-224.5"/>
<text text-anchor="middle" x="545.022" y="-231.5" font-family="Helvetica,sans-Serif" font-size="10.00">iKeyCodeMap.h</text>
</a>
</g>
</g>
<!-- Node33&#45;&gt;Node34 -->
<g id="edge59" class="edge"><title>Node33&#45;&gt;Node34</title>
<path fill="none" stroke="midnightblue" d="M361.174,-281.829C397.072,-272.685 459.519,-256.779 501.551,-246.073"/>
<polygon fill="midnightblue" stroke="midnightblue" points="502.679,-249.397 511.505,-243.537 500.951,-242.614 502.679,-249.397"/>
</g>
<!-- Node35 -->
<g id="node36" class="node"><title>Node35</title>
<g id="a_node36"><a xlink:href="i_rectangle_8h.html" target="_top" xlink:title=" ">
<polygon fill="white" stroke="black" points="191.522,-224.5 191.522,-243.5 262.522,-243.5 262.522,-224.5 191.522,-224.5"/>
<text text-anchor="middle" x="227.022" y="-231.5" font-family="Helvetica,sans-Serif" font-size="10.00">iRectangle.h</text>
</a>
</g>
</g>
<!-- Node33&#45;&gt;Node35 -->
<g id="edge64" class="edge"><title>Node33&#45;&gt;Node35</title>
<path fill="none" stroke="midnightblue" d="M315.991,-280.324C298.992,-271.664 272.645,-258.242 253.029,-248.249"/>
<polygon fill="midnightblue" stroke="midnightblue" points="254.509,-245.075 244.01,-243.655 251.332,-251.312 254.509,-245.075"/>
</g>
<!-- Node37 -->
<g id="node38" class="node"><title>Node37</title>
<g id="a_node38"><a xlink:href="ia_vector2_8h.html" target="_top" xlink:title=" ">
<polygon fill="white" stroke="black" points="29.0216,-112.5 29.0216,-131.5 95.0216,-131.5 95.0216,-112.5 29.0216,-112.5"/>
<text text-anchor="middle" x="62.0216" y="-119.5" font-family="Helvetica,sans-Serif" font-size="10.00">iaVector2.h</text>
</a>
</g>
</g>
<!-- Node33&#45;&gt;Node37 -->
<g id="edge67" class="edge"><title>Node33&#45;&gt;Node37</title>
<path fill="none" stroke="midnightblue" d="M304.656,-289.574C253.712,-289.487 144.534,-284.144 64.0216,-244 25.7533,-224.919 -13.6264,-206.481 5.0216,-168 11.4185,-154.8 23.7739,-144.303 35.3506,-136.779"/>
<polygon fill="midnightblue" stroke="midnightblue" points="37.177,-139.765 43.9401,-131.61 33.5673,-133.768 37.177,-139.765"/>
</g>
<!-- Node39 -->
<g id="node40" class="node"><title>Node39</title>
<g id="a_node40"><a xlink:href="i_o_s_event_listener_8h.html" target="_top" xlink:title=" ">
<polygon fill="white" stroke="black" points="73.0216,-224.5 73.0216,-243.5 173.022,-243.5 173.022,-224.5 73.0216,-224.5"/>
<text text-anchor="middle" x="123.022" y="-231.5" font-family="Helvetica,sans-Serif" font-size="10.00">iOSEventListener.h</text>
</a>
</g>
</g>
<!-- Node33&#45;&gt;Node39 -->
<g id="edge72" class="edge"><title>Node33&#45;&gt;Node39</title>
<path fill="none" stroke="midnightblue" d="M304.7,-281.717C269.121,-272.568 207.715,-256.778 166.251,-246.116"/>
<polygon fill="midnightblue" stroke="midnightblue" points="166.984,-242.691 156.427,-243.59 165.241,-249.47 166.984,-242.691"/>
</g>
<!-- Node34&#45;&gt;Node4 -->
<g id="edge62" class="edge"><title>Node34&#45;&gt;Node4</title>
<path fill="none" stroke="midnightblue" d="M501.796,-225.773C438.745,-215.232 322.453,-195.79 261.558,-185.61"/>
<polygon fill="midnightblue" stroke="midnightblue" points="262.007,-182.136 251.567,-183.939 260.853,-189.041 262.007,-182.136"/>
</g>
<!-- Node34&#45;&gt;Node11 -->
<g id="edge60" class="edge"><title>Node34&#45;&gt;Node11</title>
<path fill="none" stroke="midnightblue" d="M588.045,-230.422C621.226,-226.238 666.18,-215.471 695.022,-188 707.606,-176.013 713.314,-156.716 715.898,-142.256"/>
<polygon fill="midnightblue" stroke="midnightblue" points="719.424,-142.322 717.372,-131.928 712.494,-141.333 719.424,-142.322"/>
</g>
<!-- Node34&#45;&gt;Node16 -->
<g id="edge61" class="edge"><title>Node34&#45;&gt;Node16</title>
<path fill="none" stroke="midnightblue" d="M580.832,-224.444C621.996,-214.608 689.339,-198.517 731.863,-188.357"/>
<polygon fill="midnightblue" stroke="midnightblue" points="732.934,-191.699 741.847,-185.971 731.307,-184.891 732.934,-191.699"/>
</g>
<!-- Node34&#45;&gt;Node29 -->
<g id="edge63" class="edge"><title>Node34&#45;&gt;Node29</title>
<path fill="none" stroke="midnightblue" d="M531.686,-224.324C518.86,-215.979 499.237,-203.212 484.082,-193.352"/>
<polygon fill="midnightblue" stroke="midnightblue" points="485.615,-190.174 475.324,-187.655 481.797,-196.042 485.615,-190.174"/>
</g>
<!-- Node35&#45;&gt;Node4 -->
<g id="edge65" class="edge"><title>Node35&#45;&gt;Node4</title>
<path fill="none" stroke="midnightblue" d="M226.196,-224.083C225.541,-217.006 224.601,-206.861 223.78,-197.986"/>
<polygon fill="midnightblue" stroke="midnightblue" points="227.239,-197.386 222.832,-187.751 220.269,-198.031 227.239,-197.386"/>
</g>
<!-- Node36 -->
<g id="node37" class="node"><title>Node36</title>
<g id="a_node37"><a xlink:href="i_rectangle_8inl.html" target="_top" xlink:title=" ">
<polygon fill="white" stroke="black" points="14.5216,-168.5 14.5216,-187.5 89.5216,-187.5 89.5216,-168.5 14.5216,-168.5"/>
<text text-anchor="middle" x="52.0216" y="-175.5" font-family="Helvetica,sans-Serif" font-size="10.00">iRectangle.inl</text>
</a>
</g>
</g>
<!-- Node35&#45;&gt;Node36 -->
<g id="edge66" class="edge"><title>Node35&#45;&gt;Node36</title>
<path fill="none" stroke="midnightblue" d="M199.292,-224.444C169.596,-215.28 122.305,-200.688 89.3523,-190.519"/>
<polygon fill="midnightblue" stroke="midnightblue" points="90.2086,-187.121 79.6211,-187.516 88.1446,-193.809 90.2086,-187.121"/>
</g>
<!-- Node37&#45;&gt;Node5 -->
<g id="edge68" class="edge"><title>Node37&#45;&gt;Node5</title>
<path fill="none" stroke="midnightblue" d="M76.2035,-112.346C100.417,-98.0202 151.711,-69.6111 199.022,-56 318.51,-21.6236 466.259,-13.4477 537.953,-11.545"/>
<polygon fill="midnightblue" stroke="midnightblue" points="538.464,-15.034 548.379,-11.2988 538.299,-8.03591 538.464,-15.034"/>
</g>
<!-- Node37&#45;&gt;Node17 -->
<g id="edge70" class="edge"><title>Node37&#45;&gt;Node17</title>
<path fill="none" stroke="midnightblue" d="M95.4362,-113.531C98.3332,-112.977 101.225,-112.457 104.022,-112 240.814,-89.6315 279.756,-100.723 420.871,-75.768"/>
<polygon fill="midnightblue" stroke="midnightblue" points="421.539,-79.204 430.762,-73.9899 420.301,-72.3144 421.539,-79.204"/>
</g>
<!-- Node37&#45;&gt;Node21 -->
<g id="edge69" class="edge"><title>Node37&#45;&gt;Node21</title>
<path fill="none" stroke="midnightblue" d="M93.8706,-112.444C131.41,-102.358 193.427,-85.6971 231.028,-75.5952"/>
<polygon fill="midnightblue" stroke="midnightblue" points="232.196,-78.9056 240.946,-72.9308 230.38,-72.1453 232.196,-78.9056"/>
</g>
<!-- Node38 -->
<g id="node39" class="node"><title>Node38</title>
<g id="a_node39"><a xlink:href="ia_vector2_8inl.html" target="_top" xlink:title=" ">
<polygon fill="white" stroke="black" points="26.5216,-56.5 26.5216,-75.5 97.5216,-75.5 97.5216,-56.5 26.5216,-56.5"/>
<text text-anchor="middle" x="62.0216" y="-63.5" font-family="Helvetica,sans-Serif" font-size="10.00">iaVector2.inl</text>
</a>
</g>
</g>
<!-- Node37&#45;&gt;Node38 -->
<g id="edge71" class="edge"><title>Node37&#45;&gt;Node38</title>
<path fill="none" stroke="midnightblue" d="M62.0216,-112.083C62.0216,-105.006 62.0216,-94.8611 62.0216,-85.9865"/>
<polygon fill="midnightblue" stroke="midnightblue" points="65.5217,-85.751 62.0216,-75.7511 58.5217,-85.7511 65.5217,-85.751"/>
</g>
<!-- Node40&#45;&gt;Node4 -->
<g id="edge75" class="edge"><title>Node40&#45;&gt;Node4</title>
<path fill="none" stroke="midnightblue" d="M485.166,-282.354C446.835,-275.369 388.334,-262.763 340.022,-244 304.572,-230.233 266.551,-207.732 243.526,-193.146"/>
<polygon fill="midnightblue" stroke="midnightblue" points="245.215,-190.071 234.909,-187.611 241.432,-195.96 245.215,-190.071"/>
</g>
<!-- Node40&#45;&gt;Node8 -->
<g id="edge74" class="edge"><title>Node40&#45;&gt;Node8</title>
<path fill="none" stroke="midnightblue" d="M562.149,-280.444C604.23,-270.477 673.429,-254.088 716.216,-243.954"/>
<polygon fill="midnightblue" stroke="midnightblue" points="717.046,-247.354 725.97,-241.644 715.432,-240.543 717.046,-247.354"/>
</g>
<!-- Node42&#45;&gt;Node8 -->
<g id="edge82" class="edge"><title>Node42&#45;&gt;Node8</title>
<path fill="none" stroke="midnightblue" d="M715.59,-448.297C721.475,-415.633 742.334,-299.866 750.606,-253.957"/>
<polygon fill="midnightblue" stroke="midnightblue" points="754.092,-254.346 752.421,-243.884 747.203,-253.105 754.092,-254.346"/>
</g>
<!-- Node42&#45;&gt;Node16 -->
<g id="edge84" class="edge"><title>Node42&#45;&gt;Node16</title>
<path fill="none" stroke="midnightblue" d="M711.864,-448.223C707.496,-429.663 698.022,-385.017 698.022,-347 698.022,-347 698.022,-347 698.022,-289 698.022,-258.902 700.522,-249.172 717.022,-224 725.046,-211.759 737.404,-201.11 748.274,-193.249"/>
<polygon fill="midnightblue" stroke="midnightblue" points="750.294,-196.108 756.561,-187.565 746.335,-190.335 750.294,-196.108"/>
</g>
<!-- Node42&#45;&gt;Node30 -->
<g id="edge83" class="edge"><title>Node42&#45;&gt;Node30</title>
<path fill="none" stroke="midnightblue" d="M734.995,-448.425C801.954,-421.047 1010.81,-335.654 1089.56,-303.454"/>
<polygon fill="midnightblue" stroke="midnightblue" points="1091,-306.648 1098.93,-299.624 1088.35,-300.169 1091,-306.648"/>
</g>
<!-- Node42&#45;&gt;Node31 -->
<g id="edge80" class="edge"><title>Node42&#45;&gt;Node31</title>
<path fill="none" stroke="midnightblue" d="M694.849,-448.444C675.112,-439.636 644.136,-425.812 621.528,-415.722"/>
<polygon fill="midnightblue" stroke="midnightblue" points="622.663,-412.396 612.105,-411.516 619.81,-418.788 622.663,-412.396"/>
</g>
<!-- Node42&#45;&gt;Node32 -->
<g id="edge81" class="edge"><title>Node42&#45;&gt;Node32</title>
<path fill="none" stroke="midnightblue" d="M704.527,-448.368C684.117,-429.814 635.826,-385.913 610.003,-362.438"/>
<polygon fill="midnightblue" stroke="midnightblue" points="612.226,-359.728 602.472,-355.591 607.517,-364.908 612.226,-359.728"/>
</g>
</g>
</svg>
