<?xml version="1.0" encoding="UTF-8" standalone="no"?>
<!DOCTYPE svg PUBLIC "-//W3C//DTD SVG 1.1//EN"
 "http://www.w3.org/Graphics/SVG/1.1/DTD/svg11.dtd">
<!-- Generated by graphviz version 2.38.0 (20140413.2041)
 -->
<!-- Title: C:/dev/Igor/Igor/src/Tools/ModelViewer/src/UserControlNode.h Pages: 1 -->
<svg width="1283pt" height="498pt"
 viewBox="0.00 0.00 1283.37 498.00" xmlns="http://www.w3.org/2000/svg" xmlns:xlink="http://www.w3.org/1999/xlink">
<g id="graph0" class="graph" transform="scale(1 1) rotate(0) translate(4 494)">
<title>C:/dev/Igor/Igor/src/Tools/ModelViewer/src/UserControlNode.h</title>
<polygon fill="white" stroke="none" points="-4,4 -4,-494 1279.37,-494 1279.37,4 -4,4"/>
<!-- Node0 -->
<g id="node1" class="node"><title>Node0</title>
<g id="a_node1"><a xlink:title=" ">
<polygon fill="#bfbfbf" stroke="black" points="718.068,-448.5 718.068,-489.5 836.068,-489.5 836.068,-448.5 718.068,-448.5"/>
<text text-anchor="start" x="726.068" y="-477.5" font-family="Helvetica,sans-Serif" font-size="10.00">C:/dev/Igor/Igor/src</text>
<text text-anchor="start" x="726.068" y="-466.5" font-family="Helvetica,sans-Serif" font-size="10.00">/Tools/ModelViewer/src</text>
<text text-anchor="middle" x="777.068" y="-455.5" font-family="Helvetica,sans-Serif" font-size="10.00">/UserControlNode.h</text>
</a>
</g>
</g>
<!-- Node1 -->
<g id="node2" class="node"><title>Node1</title>
<g id="a_node2"><a xlink:href="ia_event_8h.html" target="_top" xlink:title=" ">
<polygon fill="white" stroke="black" points="749.068,-224.5 749.068,-243.5 805.068,-243.5 805.068,-224.5 749.068,-224.5"/>
<text text-anchor="middle" x="777.068" y="-231.5" font-family="Helvetica,sans-Serif" font-size="10.00">iaEvent.h</text>
</a>
</g>
</g>
<!-- Node0&#45;&gt;Node1 -->
<g id="edge1" class="edge"><title>Node0&#45;&gt;Node1</title>
<path fill="none" stroke="midnightblue" d="M777.068,-448.135C777.068,-403.779 777.068,-297.181 777.068,-253.821"/>
<polygon fill="midnightblue" stroke="midnightblue" points="780.569,-253.586 777.068,-243.586 773.569,-253.586 780.569,-253.586"/>
</g>
<!-- Node12 -->
<g id="node13" class="node"><title>Node12</title>
<g id="a_node13"><a xlink:href="i_node_8h.html" target="_top" xlink:title=" ">
<polygon fill="white" stroke="black" points="829.068,-280.5 829.068,-299.5 879.068,-299.5 879.068,-280.5 829.068,-280.5"/>
<text text-anchor="middle" x="854.068" y="-287.5" font-family="Helvetica,sans-Serif" font-size="10.00">iNode.h</text>
</a>
</g>
</g>
<!-- Node0&#45;&gt;Node12 -->
<g id="edge14" class="edge"><title>Node0&#45;&gt;Node12</title>
<path fill="none" stroke="midnightblue" d="M785.603,-448.382C800.655,-413.783 831.697,-342.425 846.235,-309.006"/>
<polygon fill="midnightblue" stroke="midnightblue" points="849.555,-310.15 850.334,-299.584 843.136,-307.357 849.555,-310.15"/>
</g>
<!-- Node29 -->
<g id="node30" class="node"><title>Node29</title>
<g id="a_node30"><a xlink:href="i_user_control_8h.html" target="_top" xlink:title=" ">
<polygon fill="white" stroke="black" points="555.068,-392.5 555.068,-411.5 633.068,-411.5 633.068,-392.5 555.068,-392.5"/>
<text text-anchor="middle" x="594.068" y="-399.5" font-family="Helvetica,sans-Serif" font-size="10.00">iUserControl.h</text>
</a>
</g>
</g>
<!-- Node0&#45;&gt;Node29 -->
<g id="edge50" class="edge"><title>Node0&#45;&gt;Node29</title>
<path fill="none" stroke="midnightblue" d="M722.162,-448.498C691.542,-437.622 654.376,-424.421 627.981,-415.045"/>
<polygon fill="midnightblue" stroke="midnightblue" points="629.023,-411.701 618.429,-411.652 626.68,-418.298 629.023,-411.701"/>
</g>
<!-- Node2 -->
<g id="node3" class="node"><title>Node2</title>
<g id="a_node3"><a xlink:href="ia_mutex_8h.html" target="_top" xlink:title=" ">
<polygon fill="white" stroke="black" points="973.568,-56.5 973.568,-75.5 1032.57,-75.5 1032.57,-56.5 973.568,-56.5"/>
<text text-anchor="middle" x="1003.07" y="-63.5" font-family="Helvetica,sans-Serif" font-size="10.00">iaMutex.h</text>
</a>
</g>
</g>
<!-- Node1&#45;&gt;Node2 -->
<g id="edge2" class="edge"><title>Node1&#45;&gt;Node2</title>
<path fill="none" stroke="midnightblue" d="M805.302,-231.493C839.6,-228.32 897.63,-218.481 936.068,-188 969.982,-161.107 989.354,-112.098 997.849,-85.4492"/>
<polygon fill="midnightblue" stroke="midnightblue" points="1001.31,-86.1114 1000.83,-75.527 994.602,-84.0944 1001.31,-86.1114"/>
</g>
<!-- Node4 -->
<g id="node5" class="node"><title>Node4</title>
<g id="a_node5"><a xlink:href="ia_delegate_8h.html" target="_top" xlink:title=" ">
<polygon fill="white" stroke="black" points="741.568,-168.5 741.568,-187.5 812.568,-187.5 812.568,-168.5 741.568,-168.5"/>
<text text-anchor="middle" x="777.068" y="-175.5" font-family="Helvetica,sans-Serif" font-size="10.00">iaDelegate.h</text>
</a>
</g>
</g>
<!-- Node1&#45;&gt;Node4 -->
<g id="edge4" class="edge"><title>Node1&#45;&gt;Node4</title>
<path fill="none" stroke="midnightblue" d="M777.068,-224.083C777.068,-217.006 777.068,-206.861 777.068,-197.986"/>
<polygon fill="midnightblue" stroke="midnightblue" points="780.569,-197.751 777.068,-187.751 773.569,-197.751 780.569,-197.751"/>
</g>
<!-- Node5 -->
<g id="node6" class="node"><title>Node5</title>
<g id="a_node6"><a xlink:href="ia_console_8h.html" target="_top" xlink:title=" ">
<polygon fill="white" stroke="black" points="399.068,-168.5 399.068,-187.5 467.068,-187.5 467.068,-168.5 399.068,-168.5"/>
<text text-anchor="middle" x="433.068" y="-175.5" font-family="Helvetica,sans-Serif" font-size="10.00">iaConsole.h</text>
</a>
</g>
</g>
<!-- Node1&#45;&gt;Node5 -->
<g id="edge5" class="edge"><title>Node1&#45;&gt;Node5</title>
<path fill="none" stroke="midnightblue" d="M748.918,-228.581C689.117,-219.194 549.034,-197.204 477.222,-185.931"/>
<polygon fill="midnightblue" stroke="midnightblue" points="477.561,-182.442 467.14,-184.348 476.476,-189.357 477.561,-182.442"/>
</g>
<!-- Node11 -->
<g id="node12" class="node"><title>Node11</title>
<g id="a_node12"><a xlink:title=" ">
<polygon fill="white" stroke="#bfbfbf" points="1073.07,-112.5 1073.07,-131.5 1115.07,-131.5 1115.07,-112.5 1073.07,-112.5"/>
<text text-anchor="middle" x="1094.07" y="-119.5" font-family="Helvetica,sans-Serif" font-size="10.00">vector</text>
</a>
</g>
</g>
<!-- Node1&#45;&gt;Node11 -->
<g id="edge13" class="edge"><title>Node1&#45;&gt;Node11</title>
<path fill="none" stroke="midnightblue" d="M805.371,-228.643C843.4,-222.279 912.727,-208.878 969.068,-188 1006.53,-174.119 1047.07,-151.494 1071.51,-136.931"/>
<polygon fill="midnightblue" stroke="midnightblue" points="1073.6,-139.761 1080.35,-131.598 1069.98,-133.768 1073.6,-139.761"/>
</g>
<!-- Node3 -->
<g id="node4" class="node"><title>Node3</title>
<g id="a_node4"><a xlink:href="ia_defines_8h.html" target="_top" xlink:title=" ">
<polygon fill="white" stroke="black" points="387.568,-0.5 387.568,-19.5 452.568,-19.5 452.568,-0.5 387.568,-0.5"/>
<text text-anchor="middle" x="420.068" y="-7.5" font-family="Helvetica,sans-Serif" font-size="10.00">iaDefines.h</text>
</a>
</g>
</g>
<!-- Node2&#45;&gt;Node3 -->
<g id="edge3" class="edge"><title>Node2&#45;&gt;Node3</title>
<path fill="none" stroke="midnightblue" d="M973.321,-61.0339C960.356,-59.3694 944.973,-57.4807 931.068,-56 757.68,-37.5349 550.609,-20.9924 462.798,-14.2325"/>
<polygon fill="midnightblue" stroke="midnightblue" points="462.929,-10.7323 452.69,-13.4571 462.393,-17.7118 462.929,-10.7323"/>
</g>
<!-- Node6 -->
<g id="node7" class="node"><title>Node6</title>
<g id="a_node7"><a xlink:href="ia_singleton_8h.html" target="_top" xlink:title=" ">
<polygon fill="white" stroke="black" points="531.568,-112.5 531.568,-131.5 604.568,-131.5 604.568,-112.5 531.568,-112.5"/>
<text text-anchor="middle" x="568.068" y="-119.5" font-family="Helvetica,sans-Serif" font-size="10.00">iaSingleton.h</text>
</a>
</g>
</g>
<!-- Node5&#45;&gt;Node6 -->
<g id="edge6" class="edge"><title>Node5&#45;&gt;Node6</title>
<path fill="none" stroke="midnightblue" d="M454.46,-168.444C476.776,-159.517 511.972,-145.439 537.276,-135.317"/>
<polygon fill="midnightblue" stroke="midnightblue" points="538.793,-138.48 546.777,-131.516 536.193,-131.981 538.793,-138.48"/>
</g>
<!-- Node7 -->
<g id="node8" class="node"><title>Node7</title>
<g id="a_node8"><a xlink:href="ia_clock_8h.html" target="_top" xlink:title=" ">
<polygon fill="white" stroke="black" points="318.568,-56.5 318.568,-75.5 375.568,-75.5 375.568,-56.5 318.568,-56.5"/>
<text text-anchor="middle" x="347.068" y="-63.5" font-family="Helvetica,sans-Serif" font-size="10.00">iaClock.h</text>
</a>
</g>
</g>
<!-- Node5&#45;&gt;Node7 -->
<g id="edge8" class="edge"><title>Node5&#45;&gt;Node7</title>
<path fill="none" stroke="midnightblue" d="M413.281,-168.358C398.245,-160.823 378.152,-148.508 366.068,-132 356.195,-118.511 351.428,-99.9539 349.141,-86.1202"/>
<polygon fill="midnightblue" stroke="midnightblue" points="352.557,-85.2648 347.745,-75.8256 345.62,-86.2051 352.557,-85.2648"/>
</g>
<!-- Node8 -->
<g id="node9" class="node"><title>Node8</title>
<g id="a_node9"><a xlink:title=" ">
<polygon fill="white" stroke="#bfbfbf" points="269.568,-112.5 269.568,-131.5 318.568,-131.5 318.568,-112.5 269.568,-112.5"/>
<text text-anchor="middle" x="294.068" y="-119.5" font-family="Helvetica,sans-Serif" font-size="10.00">fstream</text>
</a>
</g>
</g>
<!-- Node5&#45;&gt;Node8 -->
<g id="edge10" class="edge"><title>Node5&#45;&gt;Node8</title>
<path fill="none" stroke="midnightblue" d="M411.044,-168.444C387.965,-159.478 351.506,-145.314 325.428,-135.183"/>
<polygon fill="midnightblue" stroke="midnightblue" points="326.579,-131.875 315.99,-131.516 324.044,-138.4 326.579,-131.875"/>
</g>
<!-- Node9 -->
<g id="node10" class="node"><title>Node9</title>
<g id="a_node10"><a xlink:title=" ">
<polygon fill="white" stroke="#bfbfbf" points="375.068,-112.5 375.068,-131.5 429.068,-131.5 429.068,-112.5 375.068,-112.5"/>
<text text-anchor="middle" x="402.068" y="-119.5" font-family="Helvetica,sans-Serif" font-size="10.00">iostream</text>
</a>
</g>
</g>
<!-- Node5&#45;&gt;Node9 -->
<g id="edge11" class="edge"><title>Node5&#45;&gt;Node9</title>
<path fill="none" stroke="midnightblue" d="M427.949,-168.083C423.661,-160.613 417.41,-149.724 412.126,-140.52"/>
<polygon fill="midnightblue" stroke="midnightblue" points="415.106,-138.681 407.092,-131.751 409.036,-142.166 415.106,-138.681"/>
</g>
<!-- Node10 -->
<g id="node11" class="node"><title>Node10</title>
<g id="a_node11"><a xlink:title=" ">
<polygon fill="white" stroke="#bfbfbf" points="623.068,-112.5 623.068,-131.5 673.068,-131.5 673.068,-112.5 623.068,-112.5"/>
<text text-anchor="middle" x="648.068" y="-119.5" font-family="Helvetica,sans-Serif" font-size="10.00">iomanip</text>
</a>
</g>
</g>
<!-- Node5&#45;&gt;Node10 -->
<g id="edge12" class="edge"><title>Node5&#45;&gt;Node10</title>
<path fill="none" stroke="midnightblue" d="M467.258,-168.525C503.479,-159.53 562.33,-144.866 613.068,-132 613.167,-131.975 613.266,-131.95 613.365,-131.925"/>
<polygon fill="midnightblue" stroke="midnightblue" points="614.013,-135.372 622.839,-129.509 612.284,-128.589 614.013,-135.372"/>
</g>
<!-- Node6&#45;&gt;Node2 -->
<g id="edge7" class="edge"><title>Node6&#45;&gt;Node2</title>
<path fill="none" stroke="midnightblue" d="M604.681,-113.569C607.851,-113.007 611.013,-112.475 614.068,-112 740.907,-92.2863 892.248,-77.1737 962.955,-70.5986"/>
<polygon fill="midnightblue" stroke="midnightblue" points="963.556,-74.0581 973.192,-69.654 962.913,-67.0877 963.556,-74.0581"/>
</g>
<!-- Node7&#45;&gt;Node3 -->
<g id="edge9" class="edge"><title>Node7&#45;&gt;Node3</title>
<path fill="none" stroke="midnightblue" d="M358.797,-56.324C369.906,-48.1066 386.811,-35.6017 400.052,-25.8069"/>
<polygon fill="midnightblue" stroke="midnightblue" points="402.168,-28.5948 408.126,-19.8339 398.005,-22.9671 402.168,-28.5948"/>
</g>
<!-- Node12&#45;&gt;Node1 -->
<g id="edge21" class="edge"><title>Node12&#45;&gt;Node1</title>
<path fill="none" stroke="midnightblue" d="M841.697,-280.324C829.91,-272.058 811.936,-259.453 797.933,-249.632"/>
<polygon fill="midnightblue" stroke="midnightblue" points="799.606,-246.531 789.409,-243.655 795.587,-252.262 799.606,-246.531"/>
</g>
<!-- Node12&#45;&gt;Node2 -->
<g id="edge42" class="edge"><title>Node12&#45;&gt;Node2</title>
<path fill="none" stroke="midnightblue" d="M879.175,-287.234C962.099,-280.787 1224.33,-255.271 1266.07,-188 1319.11,-102.521 1128.44,-76.7396 1042.73,-69.559"/>
<polygon fill="midnightblue" stroke="midnightblue" points="1042.82,-66.0555 1032.58,-68.7546 1042.27,-73.0336 1042.82,-66.0555"/>
</g>
<!-- Node12&#45;&gt;Node11 -->
<g id="edge47" class="edge"><title>Node12&#45;&gt;Node11</title>
<path fill="none" stroke="midnightblue" d="M879.152,-287.911C933.621,-284.98 1060,-274.926 1087.07,-244 1111.93,-215.596 1105.39,-167.591 1099.24,-141.398"/>
<polygon fill="midnightblue" stroke="midnightblue" points="1102.61,-140.44 1096.73,-131.628 1095.83,-142.185 1102.61,-140.44"/>
</g>
<!-- Node13 -->
<g id="node14" class="node"><title>Node13</title>
<g id="a_node14"><a xlink:href="i_data_update_queue_8h.html" target="_top" xlink:title=" ">
<polygon fill="white" stroke="black" points="971.568,-224.5 971.568,-243.5 1078.57,-243.5 1078.57,-224.5 971.568,-224.5"/>
<text text-anchor="middle" x="1025.07" y="-231.5" font-family="Helvetica,sans-Serif" font-size="10.00">iDataUpdateQueue.h</text>
</a>
</g>
</g>
<!-- Node12&#45;&gt;Node13 -->
<g id="edge15" class="edge"><title>Node12&#45;&gt;Node13</title>
<path fill="none" stroke="midnightblue" d="M879.3,-281.032C908.094,-271.939 955.444,-256.987 988.332,-246.601"/>
<polygon fill="midnightblue" stroke="midnightblue" points="989.556,-249.885 998.038,-243.536 987.448,-243.21 989.556,-249.885"/>
</g>
<!-- Node14 -->
<g id="node15" class="node"><title>Node14</title>
<g id="a_node15"><a xlink:href="i_defines_8h.html" target="_top" xlink:title=" ">
<polygon fill="white" stroke="black" points="108.568,-168.5 108.568,-187.5 167.568,-187.5 167.568,-168.5 108.568,-168.5"/>
<text text-anchor="middle" x="138.068" y="-175.5" font-family="Helvetica,sans-Serif" font-size="10.00">iDefines.h</text>
</a>
</g>
</g>
<!-- Node12&#45;&gt;Node14 -->
<g id="edge20" class="edge"><title>Node12&#45;&gt;Node14</title>
<path fill="none" stroke="midnightblue" d="M828.797,-288.004C738.849,-284.269 434.648,-269.966 341.068,-244 321.532,-238.579 319.026,-231.188 300.068,-224 277.737,-215.533 217.767,-199.505 177.397,-189.041"/>
<polygon fill="midnightblue" stroke="midnightblue" points="178.149,-185.62 167.591,-186.508 176.398,-192.398 178.149,-185.62"/>
</g>
<!-- Node15 -->
<g id="node16" class="node"><title>Node15</title>
<g id="a_node16"><a xlink:href="ia_string_8h.html" target="_top" xlink:title=" ">
<polygon fill="white" stroke="black" points="869.068,-168.5 869.068,-187.5 927.068,-187.5 927.068,-168.5 869.068,-168.5"/>
<text text-anchor="middle" x="898.068" y="-175.5" font-family="Helvetica,sans-Serif" font-size="10.00">iaString.h</text>
</a>
</g>
</g>
<!-- Node12&#45;&gt;Node15 -->
<g id="edge22" class="edge"><title>Node12&#45;&gt;Node15</title>
<path fill="none" stroke="midnightblue" d="M857.521,-280.368C864.686,-262.456 881.299,-220.923 890.889,-196.948"/>
<polygon fill="midnightblue" stroke="midnightblue" points="894.168,-198.176 894.632,-187.591 887.668,-195.576 894.168,-198.176"/>
</g>
<!-- Node16 -->
<g id="node17" class="node"><title>Node16</title>
<g id="a_node17"><a xlink:title=" ">
<polygon fill="white" stroke="#bfbfbf" points="675.068,-56.5 675.068,-75.5 727.068,-75.5 727.068,-56.5 675.068,-56.5"/>
<text text-anchor="middle" x="701.068" y="-63.5" font-family="Helvetica,sans-Serif" font-size="10.00">ostream</text>
</a>
</g>
</g>
<!-- Node12&#45;&gt;Node16 -->
<g id="edge46" class="edge"><title>Node12&#45;&gt;Node16</title>
<path fill="none" stroke="midnightblue" d="M855.23,-280.409C858.502,-252.502 864.956,-163.249 822.068,-112 816.308,-105.117 770.38,-89.2282 736.808,-78.2994"/>
<polygon fill="midnightblue" stroke="midnightblue" points="737.87,-74.9643 727.278,-75.2213 735.719,-81.6255 737.87,-74.9643"/>
</g>
<!-- Node17 -->
<g id="node18" class="node"><title>Node17</title>
<g id="a_node18"><a xlink:href="ia_matrix_8h.html" target="_top" xlink:title=" ">
<polygon fill="white" stroke="black" points="535.568,-224.5 535.568,-243.5 594.568,-243.5 594.568,-224.5 535.568,-224.5"/>
<text text-anchor="middle" x="565.068" y="-231.5" font-family="Helvetica,sans-Serif" font-size="10.00">iaMatrix.h</text>
</a>
</g>
</g>
<!-- Node12&#45;&gt;Node17 -->
<g id="edge26" class="edge"><title>Node12&#45;&gt;Node17</title>
<path fill="none" stroke="midnightblue" d="M828.927,-284.302C778.558,-274.891 664.946,-253.662 604.551,-242.377"/>
<polygon fill="midnightblue" stroke="midnightblue" points="605.099,-238.919 594.626,-240.523 603.813,-245.8 605.099,-238.919"/>
</g>
<!-- Node26 -->
<g id="node27" class="node"><title>Node26</title>
<g id="a_node27"><a xlink:href="ia_i_d_generator_8h.html" target="_top" xlink:title=" ">
<polygon fill="white" stroke="black" points="1173.07,-168.5 1173.07,-187.5 1257.07,-187.5 1257.07,-168.5 1173.07,-168.5"/>
<text text-anchor="middle" x="1215.07" y="-175.5" font-family="Helvetica,sans-Serif" font-size="10.00">iaIDGenerator.h</text>
</a>
</g>
</g>
<!-- Node12&#45;&gt;Node26 -->
<g id="edge43" class="edge"><title>Node12&#45;&gt;Node26</title>
<path fill="none" stroke="midnightblue" d="M879.349,-288.371C927.944,-286.388 1037.02,-278.155 1121.07,-244 1150.61,-231.996 1180.1,-209.449 1197.97,-194.326"/>
<polygon fill="midnightblue" stroke="midnightblue" points="1200.49,-196.771 1205.75,-187.576 1195.91,-191.482 1200.49,-196.771"/>
</g>
<!-- Node27 -->
<g id="node28" class="node"><title>Node27</title>
<g id="a_node28"><a xlink:title=" ">
<polygon fill="white" stroke="#bfbfbf" points="901.068,-224.5 901.068,-243.5 953.068,-243.5 953.068,-224.5 901.068,-224.5"/>
<text text-anchor="middle" x="927.068" y="-231.5" font-family="Helvetica,sans-Serif" font-size="10.00">memory</text>
</a>
</g>
</g>
<!-- Node12&#45;&gt;Node27 -->
<g id="edge48" class="edge"><title>Node12&#45;&gt;Node27</title>
<path fill="none" stroke="midnightblue" d="M865.797,-280.324C876.906,-272.107 893.811,-259.602 907.052,-249.807"/>
<polygon fill="midnightblue" stroke="midnightblue" points="909.168,-252.595 915.126,-243.834 905.005,-246.967 909.168,-252.595"/>
</g>
<!-- Node28 -->
<g id="node29" class="node"><title>Node28</title>
<g id="a_node29"><a xlink:title=" ">
<polygon fill="white" stroke="#bfbfbf" points="185.568,-168.5 185.568,-187.5 220.568,-187.5 220.568,-168.5 185.568,-168.5"/>
<text text-anchor="middle" x="203.068" y="-175.5" font-family="Helvetica,sans-Serif" font-size="10.00">map</text>
</a>
</g>
</g>
<!-- Node12&#45;&gt;Node28 -->
<g id="edge49" class="edge"><title>Node12&#45;&gt;Node28</title>
<path fill="none" stroke="midnightblue" d="M828.821,-289.554C757.537,-290.49 549.19,-288.883 384.068,-244 363.729,-238.471 360.679,-231.726 341.068,-224 303.438,-209.175 258.751,-195.252 230.645,-186.926"/>
<polygon fill="midnightblue" stroke="midnightblue" points="231.316,-183.475 220.735,-184.019 229.345,-190.192 231.316,-183.475"/>
</g>
<!-- Node13&#45;&gt;Node2 -->
<g id="edge18" class="edge"><title>Node13&#45;&gt;Node2</title>
<path fill="none" stroke="midnightblue" d="M1023.89,-224.075C1020.42,-197.945 1010.25,-121.211 1005.53,-85.577"/>
<polygon fill="midnightblue" stroke="midnightblue" points="1008.99,-85.0216 1004.2,-75.5681 1002.05,-85.9413 1008.99,-85.0216"/>
</g>
<!-- Node13&#45;&gt;Node11 -->
<g id="edge19" class="edge"><title>Node13&#45;&gt;Node11</title>
<path fill="none" stroke="midnightblue" d="M1030.48,-224.368C1041.82,-206.296 1068.24,-164.176 1083.21,-140.307"/>
<polygon fill="midnightblue" stroke="midnightblue" points="1086.33,-141.923 1088.68,-131.591 1080.4,-138.203 1086.33,-141.923"/>
</g>
<!-- Node13&#45;&gt;Node14 -->
<g id="edge16" class="edge"><title>Node13&#45;&gt;Node14</title>
<path fill="none" stroke="midnightblue" d="M971.494,-224.989C968.308,-224.624 965.148,-224.29 962.068,-224 617.222,-191.547 524.153,-235.653 177.896,-188.006"/>
<polygon fill="midnightblue" stroke="midnightblue" points="178.226,-184.518 167.839,-186.606 177.261,-191.451 178.226,-184.518"/>
</g>
<!-- Node14&#45;&gt;Node3 -->
<g id="edge17" class="edge"><title>Node14&#45;&gt;Node3</title>
<path fill="none" stroke="midnightblue" d="M134.216,-168.406C125.112,-146.641 105.051,-88.7525 133.068,-56 164.004,-19.836 305.296,-12.5362 377.427,-11.1972"/>
<polygon fill="midnightblue" stroke="midnightblue" points="377.602,-14.695 387.546,-11.0401 377.493,-7.69583 377.602,-14.695"/>
</g>
<!-- Node15&#45;&gt;Node3 -->
<g id="edge23" class="edge"><title>Node15&#45;&gt;Node3</title>
<path fill="none" stroke="midnightblue" d="M897.87,-168.255C897.098,-154.557 893.671,-127.961 879.068,-112 832.996,-61.6401 802.076,-73.3724 736.068,-56 640.323,-30.8009 524.305,-18.8567 462.946,-13.9399"/>
<polygon fill="midnightblue" stroke="midnightblue" points="463.102,-10.4415 452.861,-13.1559 462.559,-17.4204 463.102,-10.4415"/>
</g>
<!-- Node15&#45;&gt;Node11 -->
<g id="edge25" class="edge"><title>Node15&#45;&gt;Node11</title>
<path fill="none" stroke="midnightblue" d="M927.412,-168.916C963.919,-158.857 1025.97,-141.761 1063.18,-131.509"/>
<polygon fill="midnightblue" stroke="midnightblue" points="1064.27,-134.841 1072.98,-128.811 1062.41,-128.093 1064.27,-134.841"/>
</g>
<!-- Node15&#45;&gt;Node16 -->
<g id="edge24" class="edge"><title>Node15&#45;&gt;Node16</title>
<path fill="none" stroke="midnightblue" d="M894.725,-168.428C888.846,-154.481 875.325,-126.935 855.068,-112 820.172,-86.2708 770.778,-75.1934 737.418,-70.4623"/>
<polygon fill="midnightblue" stroke="midnightblue" points="737.555,-66.951 727.189,-69.1388 736.657,-73.8931 737.555,-66.951"/>
</g>
<!-- Node17&#45;&gt;Node8 -->
<g id="edge38" class="edge"><title>Node17&#45;&gt;Node8</title>
<path fill="none" stroke="midnightblue" d="M535.473,-226.68C492.715,-217.33 415.951,-199.665 390.068,-188 360.762,-174.792 330.659,-152.766 312.159,-138.065"/>
<polygon fill="midnightblue" stroke="midnightblue" points="314.266,-135.268 304.292,-131.695 309.861,-140.708 314.266,-135.268"/>
</g>
<!-- Node17&#45;&gt;Node10 -->
<g id="edge40" class="edge"><title>Node17&#45;&gt;Node10</title>
<path fill="none" stroke="midnightblue" d="M559.621,-224.277C552.143,-211.072 540.832,-185.676 552.068,-168 559.217,-156.755 588.985,-143.836 613.501,-134.733"/>
<polygon fill="midnightblue" stroke="midnightblue" points="614.71,-138.018 622.922,-131.323 612.328,-131.436 614.71,-138.018"/>
</g>
<!-- Node18 -->
<g id="node19" class="node"><title>Node18</title>
<g id="a_node19"><a xlink:href="ia_vector4_8h.html" target="_top" xlink:title=" ">
<polygon fill="white" stroke="black" points="277.068,-168.5 277.068,-187.5 343.068,-187.5 343.068,-168.5 277.068,-168.5"/>
<text text-anchor="middle" x="310.068" y="-175.5" font-family="Helvetica,sans-Serif" font-size="10.00">iaVector4.h</text>
</a>
</g>
</g>
<!-- Node17&#45;&gt;Node18 -->
<g id="edge27" class="edge"><title>Node17&#45;&gt;Node18</title>
<path fill="none" stroke="midnightblue" d="M535.568,-226.753C490.706,-217.253 405.086,-199.121 353.226,-188.139"/>
<polygon fill="midnightblue" stroke="midnightblue" points="353.834,-184.69 343.326,-186.043 352.384,-191.539 353.834,-184.69"/>
</g>
<!-- Node20 -->
<g id="node21" class="node"><title>Node20</title>
<g id="a_node21"><a xlink:title=" ">
<polygon fill="white" stroke="#bfbfbf" points="142.068,-56.5 142.068,-75.5 186.068,-75.5 186.068,-56.5 142.068,-56.5"/>
<text text-anchor="middle" x="164.068" y="-63.5" font-family="Helvetica,sans-Serif" font-size="10.00">cmath</text>
</a>
</g>
</g>
<!-- Node17&#45;&gt;Node20 -->
<g id="edge39" class="edge"><title>Node17&#45;&gt;Node20</title>
<path fill="none" stroke="midnightblue" d="M535.361,-229.137C465.164,-219.919 293.047,-196.751 268.068,-188 262.196,-185.943 174.464,-137.214 171.068,-132 162.261,-118.477 161.078,-99.9237 161.767,-86.1"/>
<polygon fill="midnightblue" stroke="midnightblue" points="165.282,-86.0798 162.659,-75.8146 158.308,-85.4746 165.282,-86.0798"/>
</g>
<!-- Node23 -->
<g id="node24" class="node"><title>Node23</title>
<g id="a_node24"><a xlink:href="ia_quaternion_8h.html" target="_top" xlink:title=" ">
<polygon fill="white" stroke="black" points="561.068,-168.5 561.068,-187.5 641.068,-187.5 641.068,-168.5 561.068,-168.5"/>
<text text-anchor="middle" x="601.068" y="-175.5" font-family="Helvetica,sans-Serif" font-size="10.00">iaQuaternion.h</text>
</a>
</g>
</g>
<!-- Node17&#45;&gt;Node23 -->
<g id="edge34" class="edge"><title>Node17&#45;&gt;Node23</title>
<path fill="none" stroke="midnightblue" d="M571.013,-224.083C576.046,-216.534 583.405,-205.495 589.582,-196.23"/>
<polygon fill="midnightblue" stroke="midnightblue" points="592.6,-198.013 595.234,-187.751 586.775,-194.13 592.6,-198.013"/>
</g>
<!-- Node25 -->
<g id="node26" class="node"><title>Node25</title>
<g id="a_node26"><a xlink:href="ia_matrix_8inl.html" target="_top" xlink:title=" ">
<polygon fill="white" stroke="black" points="659.068,-168.5 659.068,-187.5 723.068,-187.5 723.068,-168.5 659.068,-168.5"/>
<text text-anchor="middle" x="691.068" y="-175.5" font-family="Helvetica,sans-Serif" font-size="10.00">iaMatrix.inl</text>
</a>
</g>
</g>
<!-- Node17&#45;&gt;Node25 -->
<g id="edge41" class="edge"><title>Node17&#45;&gt;Node25</title>
<path fill="none" stroke="midnightblue" d="M585.034,-224.444C605.678,-215.596 638.131,-201.687 661.7,-191.586"/>
<polygon fill="midnightblue" stroke="midnightblue" points="663.384,-194.673 671.197,-187.516 660.627,-188.239 663.384,-194.673"/>
</g>
<!-- Node19 -->
<g id="node20" class="node"><title>Node19</title>
<g id="a_node20"><a xlink:href="ia_vector3_8h.html" target="_top" xlink:title=" ">
<polygon fill="white" stroke="black" points="447.068,-112.5 447.068,-131.5 513.068,-131.5 513.068,-112.5 447.068,-112.5"/>
<text text-anchor="middle" x="480.068" y="-119.5" font-family="Helvetica,sans-Serif" font-size="10.00">iaVector3.h</text>
</a>
</g>
</g>
<!-- Node18&#45;&gt;Node19 -->
<g id="edge28" class="edge"><title>Node18&#45;&gt;Node19</title>
<path fill="none" stroke="midnightblue" d="M337.005,-168.444C365.729,-159.32 411.397,-144.813 443.39,-134.651"/>
<polygon fill="midnightblue" stroke="midnightblue" points="444.786,-137.88 453.257,-131.516 442.667,-131.208 444.786,-137.88"/>
</g>
<!-- Node22 -->
<g id="node23" class="node"><title>Node22</title>
<g id="a_node23"><a xlink:href="ia_vector4_8inl.html" target="_top" xlink:title=" ">
<polygon fill="white" stroke="black" points="180.568,-112.5 180.568,-131.5 251.568,-131.5 251.568,-112.5 180.568,-112.5"/>
<text text-anchor="middle" x="216.068" y="-119.5" font-family="Helvetica,sans-Serif" font-size="10.00">iaVector4.inl</text>
</a>
</g>
</g>
<!-- Node18&#45;&gt;Node22 -->
<g id="edge33" class="edge"><title>Node18&#45;&gt;Node22</title>
<path fill="none" stroke="midnightblue" d="M294.966,-168.324C280.165,-159.822 257.374,-146.729 240.086,-136.797"/>
<polygon fill="midnightblue" stroke="midnightblue" points="241.548,-133.601 231.134,-131.655 238.061,-139.671 241.548,-133.601"/>
</g>
<!-- Node19&#45;&gt;Node3 -->
<g id="edge29" class="edge"><title>Node19&#45;&gt;Node3</title>
<path fill="none" stroke="midnightblue" d="M481.075,-112.422C482.196,-99.4066 482.737,-74.2548 473.068,-56 466.382,-43.3746 454.549,-32.8046 443.758,-25.0881"/>
<polygon fill="midnightblue" stroke="midnightblue" points="445.703,-22.1782 435.445,-19.5266 441.81,-27.9963 445.703,-22.1782"/>
</g>
<!-- Node19&#45;&gt;Node16 -->
<g id="edge31" class="edge"><title>Node19&#45;&gt;Node16</title>
<path fill="none" stroke="midnightblue" d="M513.154,-112.916C553.98,-102.94 623.138,-86.0419 665.202,-75.7637"/>
<polygon fill="midnightblue" stroke="midnightblue" points="666.14,-79.1375 675.024,-73.3639 664.479,-72.3376 666.14,-79.1375"/>
</g>
<!-- Node19&#45;&gt;Node20 -->
<g id="edge30" class="edge"><title>Node19&#45;&gt;Node20</title>
<path fill="none" stroke="midnightblue" d="M446.627,-113.682C443.736,-113.095 440.853,-112.527 438.068,-112 350.952,-95.5224 247.587,-79.4944 196.285,-71.7748"/>
<polygon fill="midnightblue" stroke="midnightblue" points="196.56,-68.2771 186.152,-70.2565 195.523,-75.1998 196.56,-68.2771"/>
</g>
<!-- Node21 -->
<g id="node22" class="node"><title>Node21</title>
<g id="a_node22"><a xlink:href="ia_vector3_8inl.html" target="_top" xlink:title=" ">
<polygon fill="white" stroke="black" points="393.568,-56.5 393.568,-75.5 464.568,-75.5 464.568,-56.5 393.568,-56.5"/>
<text text-anchor="middle" x="429.068" y="-63.5" font-family="Helvetica,sans-Serif" font-size="10.00">iaVector3.inl</text>
</a>
</g>
</g>
<!-- Node19&#45;&gt;Node21 -->
<g id="edge32" class="edge"><title>Node19&#45;&gt;Node21</title>
<path fill="none" stroke="midnightblue" d="M471.647,-112.083C464.22,-104.22 453.217,-92.5688 444.256,-83.0813"/>
<polygon fill="midnightblue" stroke="midnightblue" points="446.744,-80.618 437.333,-75.7511 441.655,-85.4244 446.744,-80.618"/>
</g>
<!-- Node23&#45;&gt;Node16 -->
<g id="edge36" class="edge"><title>Node23&#45;&gt;Node16</title>
<path fill="none" stroke="midnightblue" d="M627.231,-168.494C645.105,-161.405 668.012,-149.596 682.068,-132 692.722,-118.663 697.403,-99.5472 699.459,-85.4967"/>
<polygon fill="midnightblue" stroke="midnightblue" points="702.941,-85.8569 700.609,-75.5218 695.987,-85.055 702.941,-85.8569"/>
</g>
<!-- Node23&#45;&gt;Node19 -->
<g id="edge35" class="edge"><title>Node23&#45;&gt;Node19</title>
<path fill="none" stroke="midnightblue" d="M581.896,-168.444C562.159,-159.636 531.183,-145.812 508.575,-135.722"/>
<polygon fill="midnightblue" stroke="midnightblue" points="509.71,-132.396 499.152,-131.516 506.857,-138.788 509.71,-132.396"/>
</g>
<!-- Node24 -->
<g id="node25" class="node"><title>Node24</title>
<g id="a_node25"><a xlink:href="ia_quaternion_8inl.html" target="_top" xlink:title=" ">
<polygon fill="white" stroke="black" points="729.068,-112.5 729.068,-131.5 813.068,-131.5 813.068,-112.5 729.068,-112.5"/>
<text text-anchor="middle" x="771.068" y="-119.5" font-family="Helvetica,sans-Serif" font-size="10.00">iaQuaternion.inl</text>
</a>
</g>
</g>
<!-- Node23&#45;&gt;Node24 -->
<g id="edge37" class="edge"><title>Node23&#45;&gt;Node24</title>
<path fill="none" stroke="midnightblue" d="M628.005,-168.444C656.729,-159.32 702.397,-144.813 734.39,-134.651"/>
<polygon fill="midnightblue" stroke="midnightblue" points="735.786,-137.88 744.257,-131.516 733.667,-131.208 735.786,-137.88"/>
</g>
<!-- Node26&#45;&gt;Node2 -->
<g id="edge44" class="edge"><title>Node26&#45;&gt;Node2</title>
<path fill="none" stroke="midnightblue" d="M1205.01,-168.443C1188.83,-155.003 1155.62,-128.754 1124.07,-112 1097.88,-98.096 1066.45,-86.5464 1042.19,-78.6301"/>
<polygon fill="midnightblue" stroke="midnightblue" points="1043.19,-75.2761 1032.6,-75.5684 1041.06,-81.9444 1043.19,-75.2761"/>
</g>
<!-- Node26&#45;&gt;Node11 -->
<g id="edge45" class="edge"><title>Node26&#45;&gt;Node11</title>
<path fill="none" stroke="midnightblue" d="M1195.9,-168.444C1176.16,-159.636 1145.18,-145.812 1122.58,-135.722"/>
<polygon fill="midnightblue" stroke="midnightblue" points="1123.71,-132.396 1113.15,-131.516 1120.86,-138.788 1123.71,-132.396"/>
</g>
<!-- Node30 -->
<g id="node31" class="node"><title>Node30</title>
<g id="a_node31"><a xlink:href="i_widget_8h.html" target="_top" xlink:title=" ">
<polygon fill="white" stroke="black" points="449.068,-336.5 449.068,-355.5 507.068,-355.5 507.068,-336.5 449.068,-336.5"/>
<text text-anchor="middle" x="478.068" y="-343.5" font-family="Helvetica,sans-Serif" font-size="10.00">iWidget.h</text>
</a>
</g>
</g>
<!-- Node29&#45;&gt;Node30 -->
<g id="edge51" class="edge"><title>Node29&#45;&gt;Node30</title>
<path fill="none" stroke="midnightblue" d="M575.688,-392.444C556.852,-383.675 527.337,-369.935 505.689,-359.858"/>
<polygon fill="midnightblue" stroke="midnightblue" points="506.906,-356.564 496.363,-355.516 503.952,-362.91 506.906,-356.564"/>
</g>
<!-- Node30&#45;&gt;Node11 -->
<g id="edge72" class="edge"><title>Node30&#45;&gt;Node11</title>
<path fill="none" stroke="midnightblue" d="M507.266,-344.767C619.738,-343.23 1022.84,-331.599 1107.07,-244 1130.77,-219.35 1127.65,-201.103 1119.07,-168 1116.52,-158.175 1111.32,-148.212 1106.31,-140.166"/>
<polygon fill="midnightblue" stroke="midnightblue" points="1109.15,-138.114 1100.7,-131.725 1103.32,-141.99 1109.15,-138.114"/>
</g>
<!-- Node30&#45;&gt;Node18 -->
<g id="edge71" class="edge"><title>Node30&#45;&gt;Node18</title>
<path fill="none" stroke="midnightblue" d="M482.409,-336.25C492.451,-314.619 514.487,-257.928 488.068,-224 485.951,-221.281 405.435,-201.693 353.429,-189.273"/>
<polygon fill="midnightblue" stroke="midnightblue" points="353.978,-185.806 343.439,-186.891 352.355,-192.615 353.978,-185.806"/>
</g>
<!-- Node31 -->
<g id="node32" class="node"><title>Node31</title>
<g id="a_node32"><a xlink:href="i_mouse_8h.html" target="_top" xlink:title=" ">
<polygon fill="white" stroke="black" points="213.068,-280.5 213.068,-299.5 269.068,-299.5 269.068,-280.5 213.068,-280.5"/>
<text text-anchor="middle" x="241.068" y="-287.5" font-family="Helvetica,sans-Serif" font-size="10.00">iMouse.h</text>
</a>
</g>
</g>
<!-- Node30&#45;&gt;Node31 -->
<g id="edge52" class="edge"><title>Node30&#45;&gt;Node31</title>
<path fill="none" stroke="midnightblue" d="M449.008,-338.379C406.285,-328.644 326.481,-310.461 279.131,-299.672"/>
<polygon fill="midnightblue" stroke="midnightblue" points="279.787,-296.232 269.259,-297.423 278.232,-303.057 279.787,-296.232"/>
</g>
<!-- Node38 -->
<g id="node39" class="node"><title>Node38</title>
<g id="a_node39"><a xlink:href="i_timer_handle_8h.html" target="_top" xlink:title=" ">
<polygon fill="white" stroke="black" points="317.568,-280.5 317.568,-299.5 398.568,-299.5 398.568,-280.5 317.568,-280.5"/>
<text text-anchor="middle" x="358.068" y="-287.5" font-family="Helvetica,sans-Serif" font-size="10.00">iTimerHandle.h</text>
</a>
</g>
</g>
<!-- Node30&#45;&gt;Node38 -->
<g id="edge68" class="edge"><title>Node30&#45;&gt;Node38</title>
<path fill="none" stroke="midnightblue" d="M459.054,-336.444C439.481,-327.636 408.761,-313.812 386.34,-303.722"/>
<polygon fill="midnightblue" stroke="midnightblue" points="387.549,-300.428 376.994,-299.516 384.677,-306.812 387.549,-300.428"/>
</g>
<!-- Node39 -->
<g id="node40" class="node"><title>Node39</title>
<g id="a_node40"><a xlink:href="i_widget_8inl.html" target="_top" xlink:title=" ">
<polygon fill="white" stroke="black" points="417.068,-280.5 417.068,-299.5 479.068,-299.5 479.068,-280.5 417.068,-280.5"/>
<text text-anchor="middle" x="448.068" y="-287.5" font-family="Helvetica,sans-Serif" font-size="10.00">iWidget.inl</text>
</a>
</g>
</g>
<!-- Node30&#45;&gt;Node39 -->
<g id="edge73" class="edge"><title>Node30&#45;&gt;Node39</title>
<path fill="none" stroke="midnightblue" d="M473.115,-336.083C468.964,-328.613 462.915,-317.724 457.802,-308.52"/>
<polygon fill="midnightblue" stroke="midnightblue" points="460.846,-306.793 452.93,-299.751 454.727,-310.192 460.846,-306.793"/>
</g>
<!-- Node31&#45;&gt;Node1 -->
<g id="edge53" class="edge"><title>Node31&#45;&gt;Node1</title>
<path fill="none" stroke="midnightblue" d="M269.074,-284.997C281.069,-283.345 295.243,-281.476 308.068,-280 467.885,-261.606 658.948,-244.915 738.924,-238.167"/>
<polygon fill="midnightblue" stroke="midnightblue" points="739.34,-241.644 749.012,-237.319 738.754,-234.669 739.34,-241.644"/>
</g>
<!-- Node32 -->
<g id="node33" class="node"><title>Node32</title>
<g id="a_node33"><a xlink:href="i_key_code_map_8h.html" target="_top" xlink:title=" ">
<polygon fill="white" stroke="black" points="393.068,-224.5 393.068,-243.5 479.068,-243.5 479.068,-224.5 393.068,-224.5"/>
<text text-anchor="middle" x="436.068" y="-231.5" font-family="Helvetica,sans-Serif" font-size="10.00">iKeyCodeMap.h</text>
</a>
</g>
</g>
<!-- Node31&#45;&gt;Node32 -->
<g id="edge54" class="edge"><title>Node31&#45;&gt;Node32</title>
<path fill="none" stroke="midnightblue" d="M269.423,-281.148C302.585,-271.965 357.735,-256.692 395.439,-246.251"/>
<polygon fill="midnightblue" stroke="midnightblue" points="396.398,-249.617 405.101,-243.576 394.53,-242.871 396.398,-249.617"/>
</g>
<!-- Node33 -->
<g id="node34" class="node"><title>Node33</title>
<g id="a_node34"><a xlink:href="i_rectangle_8h.html" target="_top" xlink:title=" ">
<polygon fill="white" stroke="black" points="71.5685,-224.5 71.5685,-243.5 142.568,-243.5 142.568,-224.5 71.5685,-224.5"/>
<text text-anchor="middle" x="107.068" y="-231.5" font-family="Helvetica,sans-Serif" font-size="10.00">iRectangle.h</text>
</a>
</g>
</g>
<!-- Node31&#45;&gt;Node33 -->
<g id="edge59" class="edge"><title>Node31&#45;&gt;Node33</title>
<path fill="none" stroke="midnightblue" d="M219.836,-280.444C197.685,-271.517 162.75,-257.439 137.632,-247.317"/>
<polygon fill="midnightblue" stroke="midnightblue" points="138.785,-244.008 128.202,-243.516 136.169,-250.501 138.785,-244.008"/>
</g>
<!-- Node35 -->
<g id="node36" class="node"><title>Node35</title>
<g id="a_node36"><a xlink:href="ia_vector2_8h.html" target="_top" xlink:title=" ">
<polygon fill="white" stroke="black" points="17.0685,-112.5 17.0685,-131.5 83.0685,-131.5 83.0685,-112.5 17.0685,-112.5"/>
<text text-anchor="middle" x="50.0685" y="-119.5" font-family="Helvetica,sans-Serif" font-size="10.00">iaVector2.h</text>
</a>
</g>
</g>
<!-- Node31&#45;&gt;Node35 -->
<g id="edge62" class="edge"><title>Node31&#45;&gt;Node35</title>
<path fill="none" stroke="midnightblue" d="M212.983,-286.608C176.208,-282.47 110.708,-271.582 62.0685,-244 31.4504,-226.638 19.5382,-220.519 6.06847,-188 -1.6756,-169.304 14.3703,-150.427 29.2118,-137.869"/>
<polygon fill="midnightblue" stroke="midnightblue" points="31.4934,-140.527 37.1745,-131.584 27.1565,-135.032 31.4934,-140.527"/>
</g>
<!-- Node37 -->
<g id="node38" class="node"><title>Node37</title>
<g id="a_node38"><a xlink:href="i_o_s_event_listener_8h.html" target="_top" xlink:title=" ">
<polygon fill="white" stroke="black" points="161.068,-224.5 161.068,-243.5 261.068,-243.5 261.068,-224.5 161.068,-224.5"/>
<text text-anchor="middle" x="211.068" y="-231.5" font-family="Helvetica,sans-Serif" font-size="10.00">iOSEventListener.h</text>
</a>
</g>
</g>
<!-- Node31&#45;&gt;Node37 -->
<g id="edge67" class="edge"><title>Node31&#45;&gt;Node37</title>
<path fill="none" stroke="midnightblue" d="M236.115,-280.083C231.964,-272.613 225.915,-261.724 220.802,-252.52"/>
<polygon fill="midnightblue" stroke="midnightblue" points="223.846,-250.793 215.93,-243.751 217.727,-254.192 223.846,-250.793"/>
</g>
<!-- Node32&#45;&gt;Node6 -->
<g id="edge55" class="edge"><title>Node32&#45;&gt;Node6</title>
<path fill="none" stroke="midnightblue" d="M446.426,-224.368C468.788,-205.733 521.83,-161.532 549.908,-138.134"/>
<polygon fill="midnightblue" stroke="midnightblue" points="552.317,-140.682 557.759,-131.591 547.836,-135.305 552.317,-140.682"/>
</g>
<!-- Node32&#45;&gt;Node14 -->
<g id="edge57" class="edge"><title>Node32&#45;&gt;Node14</title>
<path fill="none" stroke="midnightblue" d="M392.672,-226.322C342.95,-218.485 258.811,-204.664 177.767,-188.261"/>
<polygon fill="midnightblue" stroke="midnightblue" points="178.399,-184.818 167.901,-186.248 176.999,-191.676 178.399,-184.818"/>
</g>
<!-- Node32&#45;&gt;Node15 -->
<g id="edge56" class="edge"><title>Node32&#45;&gt;Node15</title>
<path fill="none" stroke="midnightblue" d="M479.117,-227.968C568.466,-217.525 772.861,-193.635 858.828,-183.587"/>
<polygon fill="midnightblue" stroke="midnightblue" points="859.424,-187.041 868.95,-182.403 858.611,-180.088 859.424,-187.041"/>
</g>
<!-- Node32&#45;&gt;Node28 -->
<g id="edge58" class="edge"><title>Node32&#45;&gt;Node28</title>
<path fill="none" stroke="midnightblue" d="M394.724,-224.425C353.98,-215.815 290.024,-201.869 235.068,-188 233.6,-187.629 232.096,-187.24 230.579,-186.84"/>
<polygon fill="midnightblue" stroke="midnightblue" points="231.197,-183.38 220.628,-184.122 229.353,-190.133 231.197,-183.38"/>
</g>
<!-- Node33&#45;&gt;Node14 -->
<g id="edge60" class="edge"><title>Node33&#45;&gt;Node14</title>
<path fill="none" stroke="midnightblue" d="M112.187,-224.083C116.476,-216.613 122.727,-205.724 128.011,-196.52"/>
<polygon fill="midnightblue" stroke="midnightblue" points="131.101,-198.166 133.045,-187.751 125.031,-194.681 131.101,-198.166"/>
</g>
<!-- Node34 -->
<g id="node35" class="node"><title>Node34</title>
<g id="a_node35"><a xlink:href="i_rectangle_8inl.html" target="_top" xlink:title=" ">
<polygon fill="white" stroke="black" points="15.5685,-168.5 15.5685,-187.5 90.5685,-187.5 90.5685,-168.5 15.5685,-168.5"/>
<text text-anchor="middle" x="53.0685" y="-175.5" font-family="Helvetica,sans-Serif" font-size="10.00">iRectangle.inl</text>
</a>
</g>
</g>
<!-- Node33&#45;&gt;Node34 -->
<g id="edge61" class="edge"><title>Node33&#45;&gt;Node34</title>
<path fill="none" stroke="midnightblue" d="M98.1515,-224.083C90.288,-216.22 78.6373,-204.569 69.1497,-195.081"/>
<polygon fill="midnightblue" stroke="midnightblue" points="71.3655,-192.347 61.8195,-187.751 66.4158,-197.297 71.3655,-192.347"/>
</g>
<!-- Node35&#45;&gt;Node3 -->
<g id="edge63" class="edge"><title>Node35&#45;&gt;Node3</title>
<path fill="none" stroke="midnightblue" d="M36.472,-112.293C17.8415,-99.3264 -11.524,-74.4889 5.06847,-56 29.6411,-28.6188 276.346,-16.3624 377.324,-12.4643"/>
<polygon fill="midnightblue" stroke="midnightblue" points="377.62,-15.9558 387.481,-12.0816 377.356,-8.96073 377.62,-15.9558"/>
</g>
<!-- Node35&#45;&gt;Node16 -->
<g id="edge65" class="edge"><title>Node35&#45;&gt;Node16</title>
<path fill="none" stroke="midnightblue" d="M83.2467,-118.248C193.927,-109.067 549.97,-79.5336 664.919,-69.9985"/>
<polygon fill="midnightblue" stroke="midnightblue" points="665.289,-73.48 674.965,-69.1652 664.71,-66.504 665.289,-73.48"/>
</g>
<!-- Node35&#45;&gt;Node20 -->
<g id="edge64" class="edge"><title>Node35&#45;&gt;Node20</title>
<path fill="none" stroke="midnightblue" d="M68.1321,-112.444C86.6433,-103.675 115.649,-89.9355 136.924,-79.8579"/>
<polygon fill="midnightblue" stroke="midnightblue" points="138.55,-82.9604 146.089,-75.5164 135.554,-76.6343 138.55,-82.9604"/>
</g>
<!-- Node36 -->
<g id="node37" class="node"><title>Node36</title>
<g id="a_node37"><a xlink:href="ia_vector2_8inl.html" target="_top" xlink:title=" ">
<polygon fill="white" stroke="black" points="14.5685,-56.5 14.5685,-75.5 85.5685,-75.5 85.5685,-56.5 14.5685,-56.5"/>
<text text-anchor="middle" x="50.0685" y="-63.5" font-family="Helvetica,sans-Serif" font-size="10.00">iaVector2.inl</text>
</a>
</g>
</g>
<!-- Node35&#45;&gt;Node36 -->
<g id="edge66" class="edge"><title>Node35&#45;&gt;Node36</title>
<path fill="none" stroke="midnightblue" d="M50.0685,-112.083C50.0685,-105.006 50.0685,-94.8611 50.0685,-85.9865"/>
<polygon fill="midnightblue" stroke="midnightblue" points="53.5686,-85.751 50.0685,-75.7511 46.5686,-85.7511 53.5686,-85.751"/>
</g>
<!-- Node38&#45;&gt;Node1 -->
<g id="edge69" class="edge"><title>Node38&#45;&gt;Node1</title>
<path fill="none" stroke="midnightblue" d="M398.696,-281.488C401.864,-280.963 405.016,-280.46 408.068,-280 528.309,-261.862 671.446,-246.046 738.639,-238.96"/>
<polygon fill="midnightblue" stroke="midnightblue" points="739.175,-242.423 748.755,-237.899 738.445,-235.461 739.175,-242.423"/>
</g>
<!-- Node38&#45;&gt;Node14 -->
<g id="edge70" class="edge"><title>Node38&#45;&gt;Node14</title>
<path fill="none" stroke="midnightblue" d="M348.448,-280.314C332.945,-266.698 301.029,-240.212 270.068,-224 240.493,-208.514 204.484,-196.655 177.551,-189.009"/>
<polygon fill="midnightblue" stroke="midnightblue" points="178.276,-185.578 167.705,-186.286 176.41,-192.325 178.276,-185.578"/>
</g>
</g>
</svg>
