<?xml version="1.0" encoding="UTF-8" standalone="no"?>
<!DOCTYPE svg PUBLIC "-//W3C//DTD SVG 1.1//EN"
 "http://www.w3.org/Graphics/SVG/1.1/DTD/svg11.dtd">
<!-- Generated by graphviz version 2.38.0 (20140413.2041)
 -->
<!-- Title: Igor::iMaterialResourceFactory Pages: 1 -->
<svg width="391pt" height="184pt"
 viewBox="0.00 0.00 390.50 184.00" xmlns="http://www.w3.org/2000/svg" xmlns:xlink="http://www.w3.org/1999/xlink">
<g id="graph0" class="graph" transform="scale(1 1) rotate(0) translate(4 180)">
<title>Igor::iMaterialResourceFactory</title>
<polygon fill="white" stroke="none" points="-4,4 -4,-180 386.5,-180 386.5,4 -4,4"/>
<!-- Node1 -->
<g id="node1" class="node"><title>Node1</title>
<polygon fill="#bfbfbf" stroke="black" points="0,-78.5 0,-97.5 149,-97.5 149,-78.5 0,-78.5"/>
<text text-anchor="middle" x="74.5" y="-85.5" font-family="Helvetica,sans-Serif" font-size="10.00">Igor::iMaterialResourceFactory</text>
</g>
<!-- Node2 -->
<g id="node2" class="node"><title>Node2</title>
<g id="a_node2"><a xlink:href="class_igor_aux_1_1ia_singleton.html" target="_top" xlink:title="IgorAux::iaSingleton\l\&lt; iMaterialResourceFactory \&gt;">
<polygon fill="white" stroke="black" points="96.5,-0.5 96.5,-30.5 242.5,-30.5 242.5,-0.5 96.5,-0.5"/>
<text text-anchor="start" x="104.5" y="-18.5" font-family="Helvetica,sans-Serif" font-size="10.00">IgorAux::iaSingleton</text>
<text text-anchor="middle" x="169.5" y="-7.5" font-family="Helvetica,sans-Serif" font-size="10.00">&lt; iMaterialResourceFactory &gt;</text>
</a>
</g>
</g>
<!-- Node1&#45;&gt;Node2 -->
<g id="edge3" class="edge"><title>Node1&#45;&gt;Node2</title>
<path fill="none" stroke="#9a32cd" stroke-dasharray="5,2" d="M74.2566,-68.0717C75.0683,-61.4007 77.0726,-54.2608 81.5,-49 88.1068,-41.1497 96.7912,-35.1949 106.131,-30.6782"/>
<polygon fill="#9a32cd" stroke="#9a32cd" points="70.7434,-68.2964 73.7992,-78.441 77.7366,-68.605 70.7434,-68.2964"/>
<text text-anchor="middle" x="104.5" y="-52" font-family="Helvetica,sans-Serif" font-size="10.00"> _instance</text>
</g>
<!-- Node2&#45;&gt;Node1 -->
<g id="edge1" class="edge"><title>Node2&#45;&gt;Node1</title>
<path fill="none" stroke="midnightblue" d="M152.852,-39.0378C146.706,-46.3471 139.318,-54.0868 131.5,-60 121.37,-67.6625 108.717,-73.9245 97.9069,-78.482"/>
<polygon fill="midnightblue" stroke="midnightblue" points="155.936,-40.7859 159.449,-30.7904 150.469,-36.4136 155.936,-40.7859"/>
</g>
<!-- Node3 -->
<g id="node3" class="node"><title>Node3</title>
<g id="a_node3"><a xlink:href="class_igor_aux_1_1ia_mutex.html" target="_top" xlink:title="IgorAux::iaMutex">
<polygon fill="white" stroke="black" points="140.5,-156.5 140.5,-175.5 230.5,-175.5 230.5,-156.5 140.5,-156.5"/>
<text text-anchor="middle" x="185.5" y="-163.5" font-family="Helvetica,sans-Serif" font-size="10.00">IgorAux::iaMutex</text>
</a>
</g>
</g>
<!-- Node3&#45;&gt;Node1 -->
<g id="edge7" class="edge"><title>Node3&#45;&gt;Node1</title>
<path fill="none" stroke="#9a32cd" stroke-dasharray="5,2" d="M130.384,-156.865C108.375,-152.453 86.5706,-146.201 79.5,-138 69.8958,-126.861 70.9401,-108.571 72.6596,-97.7668"/>
<polygon fill="#9a32cd" stroke="#9a32cd" points="129.983,-160.351 140.459,-158.763 131.28,-153.472 129.983,-160.351"/>
<text text-anchor="middle" x="125.5" y="-130" font-family="Helvetica,sans-Serif" font-size="10.00"> _mutexMaterial</text>
<text text-anchor="middle" x="125.5" y="-119" font-family="Helvetica,sans-Serif" font-size="10.00">_targetMaterialMutex</text>
</g>
<!-- Node3&#45;&gt;Node2 -->
<g id="edge2" class="edge"><title>Node3&#45;&gt;Node2</title>
<path fill="none" stroke="#9a32cd" stroke-dasharray="5,2" d="M183.467,-146.132C180.228,-116.073 173.967,-57.9583 171.057,-30.9499"/>
<polygon fill="#9a32cd" stroke="#9a32cd" points="179.996,-146.588 184.547,-156.155 186.956,-145.838 179.996,-146.588"/>
<text text-anchor="middle" x="196.5" y="-85.5" font-family="Helvetica,sans-Serif" font-size="10.00"> _mutex</text>
</g>
<!-- Node4 -->
<g id="node4" class="node"><title>Node4</title>
<g id="a_node4"><a xlink:href="class_igor_aux_1_1ia_singleton.html" target="_top" xlink:title="IgorAux::iaSingleton\&lt; T \&gt;">
<polygon fill="white" stroke="black" points="240,-78.5 240,-97.5 367,-97.5 367,-78.5 240,-78.5"/>
<text text-anchor="middle" x="303.5" y="-85.5" font-family="Helvetica,sans-Serif" font-size="10.00">IgorAux::iaSingleton&lt; T &gt;</text>
</a>
</g>
</g>
<!-- Node3&#45;&gt;Node4 -->
<g id="edge5" class="edge"><title>Node3&#45;&gt;Node4</title>
<path fill="none" stroke="#9a32cd" stroke-dasharray="5,2" d="M207.587,-150.775C231.849,-135.148 270.033,-110.555 290.122,-97.6165"/>
<polygon fill="#9a32cd" stroke="#9a32cd" points="205.548,-147.925 199.036,-156.282 209.338,-153.81 205.548,-147.925"/>
<text text-anchor="middle" x="277.5" y="-124.5" font-family="Helvetica,sans-Serif" font-size="10.00"> _mutex</text>
</g>
<!-- Node4&#45;&gt;Node2 -->
<g id="edge4" class="edge"><title>Node4&#45;&gt;Node2</title>
<path fill="none" stroke="orange" stroke-dasharray="5,2" d="M278.351,-73.7687C254.899,-61.4301 220.037,-43.0882 196.121,-30.5059"/>
<polygon fill="orange" stroke="orange" points="276.857,-76.9374 287.336,-78.4961 280.116,-70.7424 276.857,-76.9374"/>
<text text-anchor="middle" x="316" y="-52" font-family="Helvetica,sans-Serif" font-size="10.00"> &lt; iMaterialResourceFactory &gt;</text>
</g>
<!-- Node5 -->
<g id="node5" class="node"><title>Node5</title>
<polygon fill="white" stroke="#bfbfbf" points="289,-156.5 289,-175.5 318,-175.5 318,-156.5 289,-156.5"/>
<text text-anchor="middle" x="303.5" y="-163.5" font-family="Helvetica,sans-Serif" font-size="10.00">T</text>
</g>
<!-- Node5&#45;&gt;Node4 -->
<g id="edge6" class="edge"><title>Node5&#45;&gt;Node4</title>
<path fill="none" stroke="#9a32cd" stroke-dasharray="5,2" d="M303.5,-146.224C303.5,-130.697 303.5,-109.358 303.5,-97.6165"/>
<polygon fill="#9a32cd" stroke="#9a32cd" points="300,-146.282 303.5,-156.282 307,-146.282 300,-146.282"/>
<text text-anchor="middle" x="326.5" y="-124.5" font-family="Helvetica,sans-Serif" font-size="10.00"> _instance</text>
</g>
</g>
</svg>
