<?xml version="1.0" encoding="UTF-8" standalone="no"?>
<!DOCTYPE svg PUBLIC "-//W3C//DTD SVG 1.1//EN"
 "http://www.w3.org/Graphics/SVG/1.1/DTD/svg11.dtd">
<!-- Generated by graphviz version 2.38.0 (20140413.2041)
 -->
<!-- Title: Igor::iPhysicsCollisionConfig::getID Pages: 1 -->
<svg width="335pt" height="88pt"
 viewBox="0.00 0.00 335.00 88.00" xmlns="http://www.w3.org/2000/svg" xmlns:xlink="http://www.w3.org/1999/xlink">
<g id="graph0" class="graph" transform="scale(1 1) rotate(0) translate(4 84)">
<title>Igor::iPhysicsCollisionConfig::getID</title>
<polygon fill="white" stroke="none" points="-4,4 -4,-84 331,-84 331,4 -4,4"/>
<!-- Node25 -->
<g id="node1" class="node"><title>Node25</title>
<g id="a_node1"><a xlink:title=" ">
<polygon fill="#bfbfbf" stroke="black" points="187,-24.5 187,-54.5 327,-54.5 327,-24.5 187,-24.5"/>
<text text-anchor="start" x="195" y="-42.5" font-family="Helvetica,sans-Serif" font-size="10.00">Igor::iPhysicsCollisionConfig</text>
<text text-anchor="middle" x="257" y="-31.5" font-family="Helvetica,sans-Serif" font-size="10.00">::getID</text>
</a>
</g>
</g>
<!-- Node26 -->
<g id="node2" class="node"><title>Node26</title>
<g id="a_node2"><a xlink:href="class_igor_1_1i_physics.html#a90dcd82ece96f39ec61120a36e15ff18" target="_top" xlink:title=" ">
<polygon fill="white" stroke="black" points="2.5,-49.5 2.5,-79.5 148.5,-79.5 148.5,-49.5 2.5,-49.5"/>
<text text-anchor="start" x="10.5" y="-67.5" font-family="Helvetica,sans-Serif" font-size="10.00">Igor::iPhysics::createCollision</text>
<text text-anchor="middle" x="75.5" y="-56.5" font-family="Helvetica,sans-Serif" font-size="10.00">Config</text>
</a>
</g>
</g>
<!-- Node25&#45;&gt;Node26 -->
<g id="edge1" class="edge"><title>Node25&#45;&gt;Node26</title>
<path fill="none" stroke="midnightblue" d="M176.762,-50.5359C167.384,-51.8421 157.851,-53.1698 148.58,-54.461"/>
<polygon fill="midnightblue" stroke="midnightblue" points="177.436,-53.976 186.857,-49.1299 176.47,-47.0429 177.436,-53.976"/>
</g>
<!-- Node27 -->
<g id="node3" class="node"><title>Node27</title>
<g id="a_node3"><a xlink:href="class_igor_1_1i_physics.html#a37a6c2accde583957a3188c9674bd448" target="_top" xlink:title=" ">
<polygon fill="white" stroke="black" points="0,-0.5 0,-30.5 151,-30.5 151,-0.5 0,-0.5"/>
<text text-anchor="start" x="8" y="-18.5" font-family="Helvetica,sans-Serif" font-size="10.00">Igor::iPhysics::destroyCollision</text>
<text text-anchor="middle" x="75.5" y="-7.5" font-family="Helvetica,sans-Serif" font-size="10.00">Config</text>
</a>
</g>
</g>
<!-- Node25&#45;&gt;Node27 -->
<g id="edge2" class="edge"><title>Node25&#45;&gt;Node27</title>
<path fill="none" stroke="midnightblue" d="M176.927,-28.9276C168.401,-27.7876 159.744,-26.6301 151.271,-25.4972"/>
<polygon fill="midnightblue" stroke="midnightblue" points="176.482,-32.3991 186.857,-30.2553 177.409,-25.4608 176.482,-32.3991"/>
</g>
</g>
</svg>
