<?xml version="1.0" encoding="UTF-8" standalone="no"?>
<!DOCTYPE svg PUBLIC "-//W3C//DTD SVG 1.1//EN"
 "http://www.w3.org/Graphics/SVG/1.1/DTD/svg11.dtd">
<!-- Generated by graphviz version 2.38.0 (20140413.2041)
 -->
<!-- Title: Igor::iNodeVisitorBoundings::preOrderVisit Pages: 1 -->
<svg width="507pt" height="283pt"
 viewBox="0.00 0.00 507.00 283.00" xmlns="http://www.w3.org/2000/svg" xmlns:xlink="http://www.w3.org/1999/xlink">
<g id="graph0" class="graph" transform="scale(1 1) rotate(0) translate(4 279)">
<title>Igor::iNodeVisitorBoundings::preOrderVisit</title>
<polygon fill="white" stroke="none" points="-4,4 -4,-279 503,-279 503,4 -4,4"/>
<!-- Node1 -->
<g id="node1" class="node"><title>Node1</title>
<polygon fill="#bfbfbf" stroke="black" points="0,-113 0,-143 137,-143 137,-113 0,-113"/>
<text text-anchor="start" x="8" y="-131" font-family="Helvetica,sans-Serif" font-size="10.00">Igor::iNodeVisitorBoundings</text>
<text text-anchor="middle" x="68.5" y="-120" font-family="Helvetica,sans-Serif" font-size="10.00">::preOrderVisit</text>
</g>
<!-- Node2 -->
<g id="node2" class="node"><title>Node2</title>
<g id="a_node2"><a xlink:href="class_igor_1_1i_node.html#a6e7d77b301e705906af5cfb942164a83" target="_top" xlink:title="Igor::iNode::getKind">
<polygon fill="white" stroke="black" points="210,-255.5 210,-274.5 312,-274.5 312,-255.5 210,-255.5"/>
<text text-anchor="middle" x="261" y="-262.5" font-family="Helvetica,sans-Serif" font-size="10.00">Igor::iNode::getKind</text>
</a>
</g>
</g>
<!-- Node1&#45;&gt;Node2 -->
<g id="edge1" class="edge"><title>Node1&#45;&gt;Node2</title>
<path fill="none" stroke="midnightblue" d="M78.1881,-143.045C93.7396,-168.535 128.874,-219.974 173,-246 181.203,-250.838 190.496,-254.448 199.879,-257.141"/>
<polygon fill="midnightblue" stroke="midnightblue" points="199.094,-260.553 209.648,-259.628 200.821,-253.769 199.094,-260.553"/>
</g>
<!-- Node3 -->
<g id="node3" class="node"><title>Node3</title>
<g id="a_node3"><a xlink:href="class_igor_1_1i_node_render.html#ad63121d64309698004ff654ca42cfb43" target="_top" xlink:title="Igor::iNodeRender::\lgetWorldMatrix">
<polygon fill="white" stroke="black" points="211,-206 211,-236 311,-236 311,-206 211,-206"/>
<text text-anchor="start" x="219" y="-224" font-family="Helvetica,sans-Serif" font-size="10.00">Igor::iNodeRender::</text>
<text text-anchor="middle" x="261" y="-213" font-family="Helvetica,sans-Serif" font-size="10.00">getWorldMatrix</text>
</a>
</g>
</g>
<!-- Node1&#45;&gt;Node3 -->
<g id="edge2" class="edge"><title>Node1&#45;&gt;Node3</title>
<path fill="none" stroke="midnightblue" d="M88.2449,-143.196C108.185,-158.692 141.179,-182.461 173,-197 181.779,-201.011 191.371,-204.482 200.875,-207.439"/>
<polygon fill="midnightblue" stroke="midnightblue" points="200.13,-210.868 210.711,-210.337 202.108,-204.154 200.13,-210.868"/>
</g>
<!-- Node4 -->
<g id="node4" class="node"><title>Node4</title>
<g id="a_node4"><a xlink:href="class_igor_1_1i_node_volume.html#a0b9dce0f82b812f8b6302ce87f2641d3" target="_top" xlink:title="Igor::iNodeVolume::\lgetBoundingSphere">
<polygon fill="white" stroke="black" points="210,-157 210,-187 312,-187 312,-157 210,-157"/>
<text text-anchor="start" x="218" y="-175" font-family="Helvetica,sans-Serif" font-size="10.00">Igor::iNodeVolume::</text>
<text text-anchor="middle" x="261" y="-164" font-family="Helvetica,sans-Serif" font-size="10.00">getBoundingSphere</text>
</a>
</g>
</g>
<!-- Node1&#45;&gt;Node4 -->
<g id="edge3" class="edge"><title>Node1&#45;&gt;Node4</title>
<path fill="none" stroke="midnightblue" d="M134.526,-143.019C155.738,-147.919 179.181,-153.333 200.006,-158.143"/>
<polygon fill="midnightblue" stroke="midnightblue" points="199.467,-161.611 209.998,-160.451 201.042,-154.79 199.467,-161.611"/>
</g>
<!-- Node5 -->
<g id="node5" class="node"><title>Node5</title>
<g id="a_node5"><a xlink:href="class_igor_aux_1_1ia_vector3.html#a9318308d20ed3bd29e16fd1b41b02eef" target="_top" xlink:title="IgorAux::iaVector3::set">
<polygon fill="white" stroke="black" points="203,-118.5 203,-137.5 319,-137.5 319,-118.5 203,-118.5"/>
<text text-anchor="middle" x="261" y="-125.5" font-family="Helvetica,sans-Serif" font-size="10.00">IgorAux::iaVector3::set</text>
</a>
</g>
</g>
<!-- Node1&#45;&gt;Node5 -->
<g id="edge4" class="edge"><title>Node1&#45;&gt;Node5</title>
<path fill="none" stroke="midnightblue" d="M137.2,-128C155.253,-128 174.75,-128 192.778,-128"/>
<polygon fill="midnightblue" stroke="midnightblue" points="192.91,-131.5 202.91,-128 192.91,-124.5 192.91,-131.5"/>
</g>
<!-- Node6 -->
<g id="node6" class="node"><title>Node6</title>
<g id="a_node6"><a xlink:href="class_igor_1_1i_node.html#a43329dc1b2a6ad4056c38290c5df777d" target="_top" xlink:title="Igor::iNode::getType">
<polygon fill="white" stroke="black" points="209,-80.5 209,-99.5 313,-99.5 313,-80.5 209,-80.5"/>
<text text-anchor="middle" x="261" y="-87.5" font-family="Helvetica,sans-Serif" font-size="10.00">Igor::iNode::getType</text>
</a>
</g>
</g>
<!-- Node1&#45;&gt;Node6 -->
<g id="edge5" class="edge"><title>Node1&#45;&gt;Node6</title>
<path fill="none" stroke="midnightblue" d="M137.2,-114.496C158.521,-110.242 181.859,-105.587 202.408,-101.488"/>
<polygon fill="midnightblue" stroke="midnightblue" points="203.129,-104.913 212.251,-99.5246 201.76,-98.0486 203.129,-104.913"/>
</g>
<!-- Node7 -->
<g id="node7" class="node"><title>Node7</title>
<g id="a_node7"><a xlink:href="class_igor_1_1i_node.html#afcf9574e0c451509015b42b36be8a6eb" target="_top" xlink:title="Igor::iNode::calcWorldTransformation">
<polygon fill="white" stroke="black" points="173,-42.5 173,-61.5 349,-61.5 349,-42.5 173,-42.5"/>
<text text-anchor="middle" x="261" y="-49.5" font-family="Helvetica,sans-Serif" font-size="10.00">Igor::iNode::calcWorldTransformation</text>
</a>
</g>
</g>
<!-- Node1&#45;&gt;Node7 -->
<g id="edge6" class="edge"><title>Node1&#45;&gt;Node7</title>
<path fill="none" stroke="midnightblue" d="M92.4132,-112.849C112.795,-100 143.81,-81.961 173,-71 179.944,-68.3926 187.341,-66.0952 194.777,-64.0831"/>
<polygon fill="midnightblue" stroke="midnightblue" points="195.711,-67.457 204.54,-61.6004 193.986,-60.6729 195.711,-67.457"/>
</g>
<!-- Node9 -->
<g id="node9" class="node"><title>Node9</title>
<g id="a_node9"><a xlink:href="class_igor_1_1i_sphere.html#ab7d2f247a9c5cd86208a8d7b5d6e6b2d" target="_top" xlink:title="Igor::iSphere::merge">
<polygon fill="white" stroke="black" points="209,-3.5 209,-22.5 313,-22.5 313,-3.5 209,-3.5"/>
<text text-anchor="middle" x="261" y="-10.5" font-family="Helvetica,sans-Serif" font-size="10.00">Igor::iSphere::merge</text>
</a>
</g>
</g>
<!-- Node1&#45;&gt;Node9 -->
<g id="edge8" class="edge"><title>Node1&#45;&gt;Node9</title>
<path fill="none" stroke="midnightblue" d="M81.4711,-112.903C99.1546,-91.6738 134.361,-53.3264 173,-33 181.058,-28.7609 190,-25.4141 198.995,-22.7734"/>
<polygon fill="midnightblue" stroke="midnightblue" points="199.976,-26.1341 208.737,-20.1762 198.173,-19.3703 199.976,-26.1341"/>
</g>
<!-- Node8 -->
<g id="node8" class="node"><title>Node8</title>
<g id="a_node8"><a xlink:href="class_igor_aux_1_1ia_matrix.html#ad4c84d3532d5b7555a04018ffcba6122" target="_top" xlink:title="IgorAux::iaMatrix::\lidentity">
<polygon fill="white" stroke="black" points="394,-39 394,-69 490,-69 490,-39 394,-39"/>
<text text-anchor="start" x="402" y="-57" font-family="Helvetica,sans-Serif" font-size="10.00">IgorAux::iaMatrix::</text>
<text text-anchor="middle" x="442" y="-46" font-family="Helvetica,sans-Serif" font-size="10.00">identity</text>
</a>
</g>
</g>
<!-- Node7&#45;&gt;Node8 -->
<g id="edge7" class="edge"><title>Node7&#45;&gt;Node8</title>
<path fill="none" stroke="midnightblue" d="M349.14,-52.9736C360.864,-53.1046 372.642,-53.2362 383.668,-53.3594"/>
<polygon fill="midnightblue" stroke="midnightblue" points="383.945,-56.8626 393.984,-53.4747 384.023,-49.8631 383.945,-56.8626"/>
</g>
<!-- Node10 -->
<g id="node10" class="node"><title>Node10</title>
<g id="a_node10"><a xlink:href="class_igor_1_1i_sphere.html#ab09d55baf863d87f45f3cac81ffa7cf9" target="_top" xlink:title="Igor::iSphere::contains">
<polygon fill="white" stroke="black" points="385,-0.5 385,-19.5 499,-19.5 499,-0.5 385,-0.5"/>
<text text-anchor="middle" x="442" y="-7.5" font-family="Helvetica,sans-Serif" font-size="10.00">Igor::iSphere::contains</text>
</a>
</g>
</g>
<!-- Node9&#45;&gt;Node10 -->
<g id="edge9" class="edge"><title>Node9&#45;&gt;Node10</title>
<path fill="none" stroke="midnightblue" d="M313.294,-12.1403C332.472,-11.8189 354.531,-11.4492 374.861,-11.1085"/>
<polygon fill="midnightblue" stroke="midnightblue" points="375.055,-14.6058 384.995,-10.9386 374.938,-7.60679 375.055,-14.6058"/>
</g>
</g>
</svg>
