<?xml version="1.0" encoding="UTF-8" standalone="no"?>
<!DOCTYPE svg PUBLIC "-//W3C//DTD SVG 1.1//EN"
 "http://www.w3.org/Graphics/SVG/1.1/DTD/svg11.dtd">
<!-- Generated by graphviz version 2.38.0 (20140413.2041)
 -->
<!-- Title: Igor::iPixmap::getPixelBiLinear Pages: 1 -->
<svg width="263pt" height="39pt"
 viewBox="0.00 0.00 263.00 39.00" xmlns="http://www.w3.org/2000/svg" xmlns:xlink="http://www.w3.org/1999/xlink">
<g id="graph0" class="graph" transform="scale(1 1) rotate(0) translate(4 35)">
<title>Igor::iPixmap::getPixelBiLinear</title>
<polygon fill="white" stroke="none" points="-4,4 -4,-35 259,-35 259,4 -4,4"/>
<!-- Node1 -->
<g id="node1" class="node"><title>Node1</title>
<polygon fill="#bfbfbf" stroke="black" points="0,-0.5 0,-30.5 124,-30.5 124,-0.5 0,-0.5"/>
<text text-anchor="start" x="8" y="-18.5" font-family="Helvetica,sans-Serif" font-size="10.00">Igor::iPixmap::getPixelBi</text>
<text text-anchor="middle" x="62" y="-7.5" font-family="Helvetica,sans-Serif" font-size="10.00">Linear</text>
</g>
<!-- Node2 -->
<g id="node2" class="node"><title>Node2</title>
<g id="a_node2"><a xlink:href="class_igor_aux_1_1ia_convert.html#a948fbe7c40e2260c868c6e540d192d8e" target="_top" xlink:title="IgorAux::iaConvert\l::convert">
<polygon fill="white" stroke="black" points="160,-0.5 160,-30.5 255,-30.5 255,-0.5 160,-0.5"/>
<text text-anchor="start" x="168" y="-18.5" font-family="Helvetica,sans-Serif" font-size="10.00">IgorAux::iaConvert</text>
<text text-anchor="middle" x="207.5" y="-7.5" font-family="Helvetica,sans-Serif" font-size="10.00">::convert</text>
</a>
</g>
</g>
<!-- Node1&#45;&gt;Node2 -->
<g id="edge1" class="edge"><title>Node1&#45;&gt;Node2</title>
<path fill="none" stroke="midnightblue" d="M124.273,-15.5C132.722,-15.5 141.368,-15.5 149.731,-15.5"/>
<polygon fill="midnightblue" stroke="midnightblue" points="149.758,-19.0001 159.758,-15.5 149.758,-12.0001 149.758,-19.0001"/>
</g>
</g>
</svg>
