<?xml version="1.0" encoding="UTF-8" standalone="no"?>
<!DOCTYPE svg PUBLIC "-//W3C//DTD SVG 1.1//EN"
 "http://www.w3.org/Graphics/SVG/1.1/DTD/svg11.dtd">
<!-- Generated by graphviz version 2.38.0 (20140413.2041)
 -->
<!-- Title: UserControlParticleSystem::updateNode Pages: 1 -->
<svg width="339pt" height="1362pt"
 viewBox="0.00 0.00 339.00 1362.00" xmlns="http://www.w3.org/2000/svg" xmlns:xlink="http://www.w3.org/1999/xlink">
<g id="graph0" class="graph" transform="scale(1 1) rotate(0) translate(4 1358)">
<title>UserControlParticleSystem::updateNode</title>
<polygon fill="white" stroke="none" points="-4,4 -4,-1358 335,-1358 335,4 -4,4"/>
<!-- Node1 -->
<g id="node1" class="node"><title>Node1</title>
<polygon fill="#bfbfbf" stroke="black" points="0,-661.5 0,-691.5 134,-691.5 134,-661.5 0,-661.5"/>
<text text-anchor="start" x="8" y="-679.5" font-family="Helvetica,sans-Serif" font-size="10.00">UserControlParticleSystem</text>
<text text-anchor="middle" x="67" y="-668.5" font-family="Helvetica,sans-Serif" font-size="10.00">::updateNode</text>
</g>
<!-- Node2 -->
<g id="node2" class="node"><title>Node2</title>
<g id="a_node2"><a xlink:href="class_igor_aux_1_1ia_singleton.html#a821f1d891129e6d09b992be81094540e" target="_top" xlink:title="IgorAux::iaSingleton\l\&lt; iNodeFactory \&gt;::getInstance">
<polygon fill="white" stroke="black" points="176,-1323.5 176,-1353.5 325,-1353.5 325,-1323.5 176,-1323.5"/>
<text text-anchor="start" x="184" y="-1341.5" font-family="Helvetica,sans-Serif" font-size="10.00">IgorAux::iaSingleton</text>
<text text-anchor="middle" x="250.5" y="-1330.5" font-family="Helvetica,sans-Serif" font-size="10.00">&lt; iNodeFactory &gt;::getInstance</text>
</a>
</g>
</g>
<!-- Node1&#45;&gt;Node2 -->
<g id="edge1" class="edge"><title>Node1&#45;&gt;Node2</title>
<path fill="none" stroke="midnightblue" d="M68.3095,-691.615C70.3954,-778.829 85.0369,-1217.25 170,-1314.5 170.735,-1315.34 171.499,-1316.15 172.288,-1316.94"/>
<polygon fill="midnightblue" stroke="midnightblue" points="170.073,-1319.65 180.029,-1323.27 174.505,-1314.23 170.073,-1319.65"/>
</g>
<!-- Node3 -->
<g id="node3" class="node"><title>Node3</title>
<g id="a_node3"><a xlink:href="class_igor_1_1i_node_factory.html#ab8074664cc7a6692dda729d1e3e4cfa3" target="_top" xlink:title="Igor::iNodeFactory\l::getNode">
<polygon fill="white" stroke="black" points="202.5,-1274.5 202.5,-1304.5 298.5,-1304.5 298.5,-1274.5 202.5,-1274.5"/>
<text text-anchor="start" x="210.5" y="-1292.5" font-family="Helvetica,sans-Serif" font-size="10.00">Igor::iNodeFactory</text>
<text text-anchor="middle" x="250.5" y="-1281.5" font-family="Helvetica,sans-Serif" font-size="10.00">::getNode</text>
</a>
</g>
</g>
<!-- Node1&#45;&gt;Node3 -->
<g id="edge2" class="edge"><title>Node1&#45;&gt;Node3</title>
<path fill="none" stroke="midnightblue" d="M68.5258,-691.531C71.7256,-774.545 91.1565,-1176.42 170,-1265.5 176.105,-1272.4 184.115,-1277.35 192.698,-1280.89"/>
<polygon fill="midnightblue" stroke="midnightblue" points="191.579,-1284.21 202.174,-1284.21 193.894,-1277.6 191.579,-1284.21"/>
</g>
<!-- Node4 -->
<g id="node4" class="node"><title>Node4</title>
<g id="a_node4"><a xlink:href="class_igor_1_1i_node_particle_system.html#a10db6023c47ac515953c5184d9f4aa43" target="_top" xlink:title="Igor::iNodeParticleSystem\l::setEmitter">
<polygon fill="white" stroke="black" points="185.5,-1225.5 185.5,-1255.5 315.5,-1255.5 315.5,-1225.5 185.5,-1225.5"/>
<text text-anchor="start" x="193.5" y="-1243.5" font-family="Helvetica,sans-Serif" font-size="10.00">Igor::iNodeParticleSystem</text>
<text text-anchor="middle" x="250.5" y="-1232.5" font-family="Helvetica,sans-Serif" font-size="10.00">::setEmitter</text>
</a>
</g>
</g>
<!-- Node1&#45;&gt;Node4 -->
<g id="edge3" class="edge"><title>Node1&#45;&gt;Node4</title>
<path fill="none" stroke="midnightblue" d="M68.7844,-691.564C73.1878,-770.47 97.294,-1135.61 170,-1216.5 172.033,-1218.76 174.271,-1220.81 176.665,-1222.68"/>
<polygon fill="midnightblue" stroke="midnightblue" points="175.049,-1225.8 185.344,-1228.3 178.855,-1219.92 175.049,-1225.8"/>
</g>
<!-- Node5 -->
<g id="node5" class="node"><title>Node5</title>
<g id="a_node5"><a xlink:href="class_igor_1_1i_node_render.html#a96696863a607f3af8dbe4ceecd922538" target="_top" xlink:title="Igor::iNodeRender::\lsetMaterial">
<polygon fill="white" stroke="black" points="200.5,-1176.5 200.5,-1206.5 300.5,-1206.5 300.5,-1176.5 200.5,-1176.5"/>
<text text-anchor="start" x="208.5" y="-1194.5" font-family="Helvetica,sans-Serif" font-size="10.00">Igor::iNodeRender::</text>
<text text-anchor="middle" x="250.5" y="-1183.5" font-family="Helvetica,sans-Serif" font-size="10.00">setMaterial</text>
</a>
</g>
</g>
<!-- Node1&#45;&gt;Node5 -->
<g id="edge4" class="edge"><title>Node1&#45;&gt;Node5</title>
<path fill="none" stroke="midnightblue" d="M69.0992,-691.66C74.8105,-766.378 103.427,-1094.77 170,-1167.5 175.737,-1173.77 183.046,-1178.42 190.9,-1181.87"/>
<polygon fill="midnightblue" stroke="midnightblue" points="189.715,-1185.17 200.307,-1185.4 192.17,-1178.61 189.715,-1185.17"/>
</g>
<!-- Node6 -->
<g id="node6" class="node"><title>Node6</title>
<g id="a_node6"><a xlink:href="class_igor_1_1i_node_particle_system.html#a6bb3786dc7c811048b1844cdce88153a" target="_top" xlink:title="Igor::iNodeParticleSystem\l::setTextureA">
<polygon fill="white" stroke="black" points="185.5,-1127.5 185.5,-1157.5 315.5,-1157.5 315.5,-1127.5 185.5,-1127.5"/>
<text text-anchor="start" x="193.5" y="-1145.5" font-family="Helvetica,sans-Serif" font-size="10.00">Igor::iNodeParticleSystem</text>
<text text-anchor="middle" x="250.5" y="-1134.5" font-family="Helvetica,sans-Serif" font-size="10.00">::setTextureA</text>
</a>
</g>
</g>
<!-- Node1&#45;&gt;Node6 -->
<g id="edge5" class="edge"><title>Node1&#45;&gt;Node6</title>
<path fill="none" stroke="midnightblue" d="M69.4619,-691.528C76.5469,-761.398 109.466,-1053.81 170,-1118.5 172.032,-1120.67 174.252,-1122.65 176.617,-1124.45"/>
<polygon fill="midnightblue" stroke="midnightblue" points="174.846,-1127.47 185.155,-1129.91 178.619,-1121.57 174.846,-1127.47"/>
</g>
<!-- Node7 -->
<g id="node7" class="node"><title>Node7</title>
<g id="a_node7"><a xlink:href="class_igor_1_1i_node_particle_system.html#a1a30816fd734028e22398f09edeb2d0c" target="_top" xlink:title="Igor::iNodeParticleSystem\l::setTextureB">
<polygon fill="white" stroke="black" points="185.5,-1078.5 185.5,-1108.5 315.5,-1108.5 315.5,-1078.5 185.5,-1078.5"/>
<text text-anchor="start" x="193.5" y="-1096.5" font-family="Helvetica,sans-Serif" font-size="10.00">Igor::iNodeParticleSystem</text>
<text text-anchor="middle" x="250.5" y="-1085.5" font-family="Helvetica,sans-Serif" font-size="10.00">::setTextureB</text>
</a>
</g>
</g>
<!-- Node1&#45;&gt;Node7 -->
<g id="edge6" class="edge"><title>Node1&#45;&gt;Node7</title>
<path fill="none" stroke="midnightblue" d="M69.9322,-691.583C78.5577,-756.683 115.525,-1012.84 170,-1069.5 172.061,-1071.64 174.306,-1073.6 176.692,-1075.38"/>
<polygon fill="midnightblue" stroke="midnightblue" points="174.957,-1078.42 185.284,-1080.79 178.688,-1072.5 174.957,-1078.42"/>
</g>
<!-- Node8 -->
<g id="node8" class="node"><title>Node8</title>
<g id="a_node8"><a xlink:href="class_igor_1_1i_node_particle_system.html#af791bc832260bf9345b62203facb590f" target="_top" xlink:title="Igor::iNodeParticleSystem\l::setTextureC">
<polygon fill="white" stroke="black" points="185.5,-1029.5 185.5,-1059.5 315.5,-1059.5 315.5,-1029.5 185.5,-1029.5"/>
<text text-anchor="start" x="193.5" y="-1047.5" font-family="Helvetica,sans-Serif" font-size="10.00">Igor::iNodeParticleSystem</text>
<text text-anchor="middle" x="250.5" y="-1036.5" font-family="Helvetica,sans-Serif" font-size="10.00">::setTextureC</text>
</a>
</g>
</g>
<!-- Node1&#45;&gt;Node8 -->
<g id="edge7" class="edge"><title>Node1&#45;&gt;Node8</title>
<path fill="none" stroke="midnightblue" d="M67.7415,-691.714C67.6926,-744.966 74.8731,-924.903 170,-1020.5 172.097,-1022.61 174.373,-1024.53 176.784,-1026.29"/>
<polygon fill="midnightblue" stroke="midnightblue" points="175.096,-1029.36 185.444,-1031.63 178.774,-1023.4 175.096,-1029.36"/>
</g>
<!-- Node9 -->
<g id="node9" class="node"><title>Node9</title>
<g id="a_node9"><a xlink:href="class_igor_1_1i_node_particle_system.html#a5a340d5028874ae34f356a7bd0f37709" target="_top" xlink:title="Igor::iNodeParticleSystem\l::setLoop">
<polygon fill="white" stroke="black" points="185.5,-980.5 185.5,-1010.5 315.5,-1010.5 315.5,-980.5 185.5,-980.5"/>
<text text-anchor="start" x="193.5" y="-998.5" font-family="Helvetica,sans-Serif" font-size="10.00">Igor::iNodeParticleSystem</text>
<text text-anchor="middle" x="250.5" y="-987.5" font-family="Helvetica,sans-Serif" font-size="10.00">::setLoop</text>
</a>
</g>
</g>
<!-- Node1&#45;&gt;Node9 -->
<g id="edge8" class="edge"><title>Node1&#45;&gt;Node9</title>
<path fill="none" stroke="midnightblue" d="M68.603,-691.563C71.3587,-739.7 86.5823,-891.331 170,-971.5 171.956,-973.379 174.053,-975.112 176.261,-976.71"/>
<polygon fill="midnightblue" stroke="midnightblue" points="174.904,-979.983 185.258,-982.225 178.562,-974.015 174.904,-979.983"/>
</g>
<!-- Node10 -->
<g id="node10" class="node"><title>Node10</title>
<g id="a_node10"><a xlink:href="class_igor_1_1i_node_particle_system.html#abcc1686e2673aa332781ce657ede99a6" target="_top" xlink:title="Igor::iNodeParticleSystem\l::setPeriodTime">
<polygon fill="white" stroke="black" points="185.5,-931.5 185.5,-961.5 315.5,-961.5 315.5,-931.5 185.5,-931.5"/>
<text text-anchor="start" x="193.5" y="-949.5" font-family="Helvetica,sans-Serif" font-size="10.00">Igor::iNodeParticleSystem</text>
<text text-anchor="middle" x="250.5" y="-938.5" font-family="Helvetica,sans-Serif" font-size="10.00">::setPeriodTime</text>
</a>
</g>
</g>
<!-- Node1&#45;&gt;Node10 -->
<g id="edge9" class="edge"><title>Node1&#45;&gt;Node10</title>
<path fill="none" stroke="midnightblue" d="M69.8063,-691.775C75.7051,-734.731 98.3475,-857.669 170,-922.5 171.964,-924.277 174.056,-925.923 176.248,-927.447"/>
<polygon fill="midnightblue" stroke="midnightblue" points="174.749,-930.629 185.13,-932.743 178.333,-924.616 174.749,-930.629"/>
</g>
<!-- Node11 -->
<g id="node11" class="node"><title>Node11</title>
<g id="a_node11"><a xlink:href="class_igor_1_1i_node_particle_system.html#af69462ebfe75daf73e4ff6410a1dad87" target="_top" xlink:title="Igor::iNodeParticleSystem\l::setMaxParticleCount">
<polygon fill="white" stroke="black" points="185.5,-882.5 185.5,-912.5 315.5,-912.5 315.5,-882.5 185.5,-882.5"/>
<text text-anchor="start" x="193.5" y="-900.5" font-family="Helvetica,sans-Serif" font-size="10.00">Igor::iNodeParticleSystem</text>
<text text-anchor="middle" x="250.5" y="-889.5" font-family="Helvetica,sans-Serif" font-size="10.00">::setMaxParticleCount</text>
</a>
</g>
</g>
<!-- Node1&#45;&gt;Node11 -->
<g id="edge10" class="edge"><title>Node1&#45;&gt;Node11</title>
<path fill="none" stroke="midnightblue" d="M71.5029,-691.639C80.8172,-728.476 109.709,-823.423 170,-873.5 172.038,-875.193 174.193,-876.766 176.438,-878.228"/>
<polygon fill="midnightblue" stroke="midnightblue" points="175.054,-881.467 185.483,-883.337 178.496,-875.371 175.054,-881.467"/>
</g>
<!-- Node12 -->
<g id="node12" class="node"><title>Node12</title>
<g id="a_node12"><a xlink:href="class_igor_1_1i_node_particle_system.html#a121e431760a4b62abd6339e92d82477c" target="_top" xlink:title="Igor::iNodeParticleSystem\l::setAirDrag">
<polygon fill="white" stroke="black" points="185.5,-833.5 185.5,-863.5 315.5,-863.5 315.5,-833.5 185.5,-833.5"/>
<text text-anchor="start" x="193.5" y="-851.5" font-family="Helvetica,sans-Serif" font-size="10.00">Igor::iNodeParticleSystem</text>
<text text-anchor="middle" x="250.5" y="-840.5" font-family="Helvetica,sans-Serif" font-size="10.00">::setAirDrag</text>
</a>
</g>
</g>
<!-- Node1&#45;&gt;Node12 -->
<g id="edge11" class="edge"><title>Node1&#45;&gt;Node12</title>
<path fill="none" stroke="midnightblue" d="M74.2406,-691.596C87.3905,-721.537 120.841,-788.636 170,-824.5 171.893,-825.881 173.865,-827.183 175.9,-828.411"/>
<polygon fill="midnightblue" stroke="midnightblue" points="174.693,-831.733 185.166,-833.334 177.977,-825.551 174.693,-831.733"/>
</g>
<!-- Node13 -->
<g id="node13" class="node"><title>Node13</title>
<g id="a_node13"><a xlink:href="class_igor_1_1i_node_particle_system.html#a6d32b3abff282deedef58ef332bdf7d6" target="_top" xlink:title="Igor::iNodeParticleSystem\l::setVelocityOriented">
<polygon fill="white" stroke="black" points="185.5,-784.5 185.5,-814.5 315.5,-814.5 315.5,-784.5 185.5,-784.5"/>
<text text-anchor="start" x="193.5" y="-802.5" font-family="Helvetica,sans-Serif" font-size="10.00">Igor::iNodeParticleSystem</text>
<text text-anchor="middle" x="250.5" y="-791.5" font-family="Helvetica,sans-Serif" font-size="10.00">::setVelocityOriented</text>
</a>
</g>
</g>
<!-- Node1&#45;&gt;Node13 -->
<g id="edge12" class="edge"><title>Node1&#45;&gt;Node13</title>
<path fill="none" stroke="midnightblue" d="M79.5089,-691.539C96.8412,-713.181 131.715,-752.974 170,-775.5 172.858,-777.182 175.844,-778.755 178.912,-780.225"/>
<polygon fill="midnightblue" stroke="midnightblue" points="177.752,-783.538 188.317,-784.336 180.556,-777.124 177.752,-783.538"/>
</g>
<!-- Node14 -->
<g id="node14" class="node"><title>Node14</title>
<g id="a_node14"><a xlink:href="class_igor_1_1i_node_particle_system.html#a8eb511f084648343b2463ea60c72fef8" target="_top" xlink:title="Igor::iNodeParticleSystem\l::setVorticityConfinement">
<polygon fill="white" stroke="black" points="185.5,-735.5 185.5,-765.5 315.5,-765.5 315.5,-735.5 185.5,-735.5"/>
<text text-anchor="start" x="193.5" y="-753.5" font-family="Helvetica,sans-Serif" font-size="10.00">Igor::iNodeParticleSystem</text>
<text text-anchor="middle" x="250.5" y="-742.5" font-family="Helvetica,sans-Serif" font-size="10.00">::setVorticityConfinement</text>
</a>
</g>
</g>
<!-- Node1&#45;&gt;Node14 -->
<g id="edge13" class="edge"><title>Node1&#45;&gt;Node14</title>
<path fill="none" stroke="midnightblue" d="M95.5895,-691.547C115.806,-702.193 144.12,-716.328 170,-726.5 175.032,-728.478 180.295,-730.391 185.615,-732.216"/>
<polygon fill="midnightblue" stroke="midnightblue" points="184.619,-735.573 195.212,-735.402 186.824,-728.93 184.619,-735.573"/>
</g>
<!-- Node15 -->
<g id="node15" class="node"><title>Node15</title>
<g id="a_node15"><a xlink:href="class_igor_1_1i_node_particle_system.html#aa823400dd1a5683fa3cba0087ecbac55" target="_top" xlink:title="Igor::iNodeParticleSystem\l::setVortexCheckRange">
<polygon fill="white" stroke="black" points="185.5,-686.5 185.5,-716.5 315.5,-716.5 315.5,-686.5 185.5,-686.5"/>
<text text-anchor="start" x="193.5" y="-704.5" font-family="Helvetica,sans-Serif" font-size="10.00">Igor::iNodeParticleSystem</text>
<text text-anchor="middle" x="250.5" y="-693.5" font-family="Helvetica,sans-Serif" font-size="10.00">::setVortexCheckRange</text>
</a>
</g>
</g>
<!-- Node1&#45;&gt;Node15 -->
<g id="edge14" class="edge"><title>Node1&#45;&gt;Node15</title>
<path fill="none" stroke="midnightblue" d="M134.039,-685.596C147.366,-687.432 161.463,-689.374 175.055,-691.246"/>
<polygon fill="midnightblue" stroke="midnightblue" points="174.945,-694.764 185.329,-692.661 175.9,-687.829 174.945,-694.764"/>
</g>
<!-- Node16 -->
<g id="node16" class="node"><title>Node16</title>
<g id="a_node16"><a xlink:href="class_igor_1_1i_node_particle_system.html#a4993f2015efa373ac1f091c3c869208c" target="_top" xlink:title="Igor::iNodeParticleSystem\l::setVortexToParticleRate">
<polygon fill="white" stroke="black" points="185.5,-637.5 185.5,-667.5 315.5,-667.5 315.5,-637.5 185.5,-637.5"/>
<text text-anchor="start" x="193.5" y="-655.5" font-family="Helvetica,sans-Serif" font-size="10.00">Igor::iNodeParticleSystem</text>
<text text-anchor="middle" x="250.5" y="-644.5" font-family="Helvetica,sans-Serif" font-size="10.00">::setVortexToParticleRate</text>
</a>
</g>
</g>
<!-- Node1&#45;&gt;Node16 -->
<g id="edge15" class="edge"><title>Node1&#45;&gt;Node16</title>
<path fill="none" stroke="midnightblue" d="M134.039,-667.768C147.366,-666.005 161.463,-664.141 175.055,-662.344"/>
<polygon fill="midnightblue" stroke="midnightblue" points="175.874,-665.766 185.329,-660.985 174.957,-658.827 175.874,-665.766"/>
</g>
<!-- Node17 -->
<g id="node17" class="node"><title>Node17</title>
<g id="a_node17"><a xlink:href="class_igor_1_1i_node_particle_system.html#a22ec15b52c1262dc883a21f77bfb5bc2" target="_top" xlink:title="Igor::iNodeParticleSystem\l::setVortexTorque">
<polygon fill="white" stroke="black" points="185.5,-588.5 185.5,-618.5 315.5,-618.5 315.5,-588.5 185.5,-588.5"/>
<text text-anchor="start" x="193.5" y="-606.5" font-family="Helvetica,sans-Serif" font-size="10.00">Igor::iNodeParticleSystem</text>
<text text-anchor="middle" x="250.5" y="-595.5" font-family="Helvetica,sans-Serif" font-size="10.00">::setVortexTorque</text>
</a>
</g>
</g>
<!-- Node1&#45;&gt;Node17 -->
<g id="edge16" class="edge"><title>Node1&#45;&gt;Node17</title>
<path fill="none" stroke="midnightblue" d="M97.4395,-661.349C117.568,-651.313 145.024,-638.252 170,-628.5 175.837,-626.221 181.975,-623.997 188.145,-621.875"/>
<polygon fill="midnightblue" stroke="midnightblue" points="189.457,-625.127 197.827,-618.632 187.233,-618.49 189.457,-625.127"/>
</g>
<!-- Node18 -->
<g id="node18" class="node"><title>Node18</title>
<g id="a_node18"><a xlink:href="class_igor_1_1i_node_particle_system.html#adbf6e7b2fdb59b6422b789371339b4b0" target="_top" xlink:title="Igor::iNodeParticleSystem\l::setVortexRange">
<polygon fill="white" stroke="black" points="185.5,-539.5 185.5,-569.5 315.5,-569.5 315.5,-539.5 185.5,-539.5"/>
<text text-anchor="start" x="193.5" y="-557.5" font-family="Helvetica,sans-Serif" font-size="10.00">Igor::iNodeParticleSystem</text>
<text text-anchor="middle" x="250.5" y="-546.5" font-family="Helvetica,sans-Serif" font-size="10.00">::setVortexRange</text>
</a>
</g>
</g>
<!-- Node1&#45;&gt;Node18 -->
<g id="edge17" class="edge"><title>Node1&#45;&gt;Node18</title>
<path fill="none" stroke="midnightblue" d="M79.904,-661.48C97.4606,-640.283 132.313,-601.707 170,-579.5 173.646,-577.352 177.497,-575.368 181.458,-573.539"/>
<polygon fill="midnightblue" stroke="midnightblue" points="183.019,-576.678 190.856,-569.548 180.284,-570.235 183.019,-576.678"/>
</g>
<!-- Node19 -->
<g id="node19" class="node"><title>Node19</title>
<g id="a_node19"><a xlink:href="class_igor_1_1i_node_particle_system.html#afa6f3b7fc54f47690188c470d82e2c71" target="_top" xlink:title="Igor::iNodeParticleSystem\l::setFirstTextureTiling">
<polygon fill="white" stroke="black" points="185.5,-490.5 185.5,-520.5 315.5,-520.5 315.5,-490.5 185.5,-490.5"/>
<text text-anchor="start" x="193.5" y="-508.5" font-family="Helvetica,sans-Serif" font-size="10.00">Igor::iNodeParticleSystem</text>
<text text-anchor="middle" x="250.5" y="-497.5" font-family="Helvetica,sans-Serif" font-size="10.00">::setFirstTextureTiling</text>
</a>
</g>
</g>
<!-- Node1&#45;&gt;Node19 -->
<g id="edge18" class="edge"><title>Node1&#45;&gt;Node19</title>
<path fill="none" stroke="midnightblue" d="M74.5391,-661.2C87.9944,-631.529 121.63,-565.977 170,-530.5 172.625,-528.575 175.403,-526.795 178.286,-525.149"/>
<polygon fill="midnightblue" stroke="midnightblue" points="179.883,-528.264 187.205,-520.606 176.706,-522.026 179.883,-528.264"/>
</g>
<!-- Node20 -->
<g id="node20" class="node"><title>Node20</title>
<g id="a_node20"><a xlink:href="class_igor_1_1i_node_particle_system.html#af6c2d081a3c1f1b592fb4fc5b4c6beb8" target="_top" xlink:title="Igor::iNodeParticleSystem\l::setColorGradient">
<polygon fill="white" stroke="black" points="185.5,-441.5 185.5,-471.5 315.5,-471.5 315.5,-441.5 185.5,-441.5"/>
<text text-anchor="start" x="193.5" y="-459.5" font-family="Helvetica,sans-Serif" font-size="10.00">Igor::iNodeParticleSystem</text>
<text text-anchor="middle" x="250.5" y="-448.5" font-family="Helvetica,sans-Serif" font-size="10.00">::setColorGradient</text>
</a>
</g>
</g>
<!-- Node1&#45;&gt;Node20 -->
<g id="edge19" class="edge"><title>Node1&#45;&gt;Node20</title>
<path fill="none" stroke="midnightblue" d="M71.6571,-661.287C81.2337,-624.725 110.519,-531.272 170,-481.5 172.039,-479.794 174.195,-478.204 176.44,-476.722"/>
<polygon fill="midnightblue" stroke="midnightblue" points="178.558,-479.542 185.487,-471.527 175.073,-473.471 178.558,-479.542"/>
</g>
<!-- Node21 -->
<g id="node21" class="node"><title>Node21</title>
<g id="a_node21"><a xlink:href="class_igor_aux_1_1ia_gradient.html#a3ce9a96516704eb9b7e8e88cadb77043" target="_top" xlink:title="IgorAux::iaGradient\l::setValue">
<polygon fill="white" stroke="black" points="200.5,-392.5 200.5,-422.5 300.5,-422.5 300.5,-392.5 200.5,-392.5"/>
<text text-anchor="start" x="208.5" y="-410.5" font-family="Helvetica,sans-Serif" font-size="10.00">IgorAux::iaGradient</text>
<text text-anchor="middle" x="250.5" y="-399.5" font-family="Helvetica,sans-Serif" font-size="10.00">::setValue</text>
</a>
</g>
</g>
<!-- Node1&#45;&gt;Node21 -->
<g id="edge20" class="edge"><title>Node1&#45;&gt;Node21</title>
<path fill="none" stroke="midnightblue" d="M69.8846,-661.388C75.9893,-618.883 99.1215,-497.187 170,-432.5 175.936,-427.082 183.039,-422.839 190.523,-419.515"/>
<polygon fill="midnightblue" stroke="midnightblue" points="192.093,-422.66 200.148,-415.777 189.559,-416.135 192.093,-422.66"/>
</g>
<!-- Node22 -->
<g id="node22" class="node"><title>Node22</title>
<g id="a_node22"><a xlink:href="class_igor_1_1i_node_particle_system.html#ade34c647b3c773bcf6b81173f4884deb" target="_top" xlink:title="Igor::iNodeParticleSystem\l::setStartSizeGradient">
<polygon fill="white" stroke="black" points="185.5,-343.5 185.5,-373.5 315.5,-373.5 315.5,-343.5 185.5,-343.5"/>
<text text-anchor="start" x="193.5" y="-361.5" font-family="Helvetica,sans-Serif" font-size="10.00">Igor::iNodeParticleSystem</text>
<text text-anchor="middle" x="250.5" y="-350.5" font-family="Helvetica,sans-Serif" font-size="10.00">::setStartSizeGradient</text>
</a>
</g>
</g>
<!-- Node1&#45;&gt;Node22 -->
<g id="edge21" class="edge"><title>Node1&#45;&gt;Node22</title>
<path fill="none" stroke="midnightblue" d="M68.6969,-661.239C71.7252,-613.173 87.6553,-463.385 170,-383.5 172.093,-381.469 174.35,-379.604 176.73,-377.889"/>
<polygon fill="midnightblue" stroke="midnightblue" points="178.583,-380.859 185.249,-372.624 174.903,-374.904 178.583,-380.859"/>
</g>
<!-- Node23 -->
<g id="node23" class="node"><title>Node23</title>
<g id="a_node23"><a xlink:href="class_igor_1_1i_node_particle_system.html#af11e7ed047b876f5b196f13c589b1bc3" target="_top" xlink:title="Igor::iNodeParticleSystem\l::setSizeScaleGradient">
<polygon fill="white" stroke="black" points="185.5,-294.5 185.5,-324.5 315.5,-324.5 315.5,-294.5 185.5,-294.5"/>
<text text-anchor="start" x="193.5" y="-312.5" font-family="Helvetica,sans-Serif" font-size="10.00">Igor::iNodeParticleSystem</text>
<text text-anchor="middle" x="250.5" y="-301.5" font-family="Helvetica,sans-Serif" font-size="10.00">::setSizeScaleGradient</text>
</a>
</g>
</g>
<!-- Node1&#45;&gt;Node23 -->
<g id="edge22" class="edge"><title>Node1&#45;&gt;Node23</title>
<path fill="none" stroke="midnightblue" d="M67.8115,-661.411C67.995,-608.59 75.8529,-430.054 170,-334.5 172.094,-332.374 174.367,-330.429 176.776,-328.648"/>
<polygon fill="midnightblue" stroke="midnightblue" points="178.827,-331.494 185.431,-323.209 175.102,-325.567 178.827,-331.494"/>
</g>
<!-- Node24 -->
<g id="node24" class="node"><title>Node24</title>
<g id="a_node24"><a xlink:href="class_igor_1_1i_node_particle_system.html#afe6512f73b93f2ab7b481b105c49bc7d" target="_top" xlink:title="Igor::iNodeParticleSystem\l::setStartVisibleTimeGradient">
<polygon fill="white" stroke="black" points="178.5,-245.5 178.5,-275.5 322.5,-275.5 322.5,-245.5 178.5,-245.5"/>
<text text-anchor="start" x="186.5" y="-263.5" font-family="Helvetica,sans-Serif" font-size="10.00">Igor::iNodeParticleSystem</text>
<text text-anchor="middle" x="250.5" y="-252.5" font-family="Helvetica,sans-Serif" font-size="10.00">::setStartVisibleTimeGradient</text>
</a>
</g>
</g>
<!-- Node1&#45;&gt;Node24 -->
<g id="edge23" class="edge"><title>Node1&#45;&gt;Node24</title>
<path fill="none" stroke="midnightblue" d="M70.0188,-661.07C78.867,-595.66 116.196,-342.035 170,-285.5 171.384,-284.046 172.851,-282.676 174.389,-281.385"/>
<polygon fill="midnightblue" stroke="midnightblue" points="176.464,-284.205 182.605,-275.57 172.42,-278.491 176.464,-284.205"/>
</g>
<!-- Node25 -->
<g id="node25" class="node"><title>Node25</title>
<g id="a_node25"><a xlink:href="class_igor_1_1i_node_particle_system.html#a6c2b9ba90e0d7df7a88e7c259d8c76e9" target="_top" xlink:title="Igor::iNodeParticleSystem\l::setStartOrientationGradient">
<polygon fill="white" stroke="black" points="180,-196.5 180,-226.5 321,-226.5 321,-196.5 180,-196.5"/>
<text text-anchor="start" x="188" y="-214.5" font-family="Helvetica,sans-Serif" font-size="10.00">Igor::iNodeParticleSystem</text>
<text text-anchor="middle" x="250.5" y="-203.5" font-family="Helvetica,sans-Serif" font-size="10.00">::setStartOrientationGradient</text>
</a>
</g>
</g>
<!-- Node1&#45;&gt;Node25 -->
<g id="edge24" class="edge"><title>Node1&#45;&gt;Node25</title>
<path fill="none" stroke="midnightblue" d="M69.5367,-661.088C76.8403,-590.775 110.198,-301.086 170,-236.5 171.216,-235.186 172.501,-233.941 173.844,-232.761"/>
<polygon fill="midnightblue" stroke="midnightblue" points="176.126,-235.428 182.115,-226.688 171.983,-229.786 176.126,-235.428"/>
</g>
<!-- Node26 -->
<g id="node26" class="node"><title>Node26</title>
<g id="a_node26"><a xlink:href="class_igor_1_1i_node_particle_system.html#abc31abd5767a5d2c4b3e8aaf68895cf4" target="_top" xlink:title="Igor::iNodeParticleSystem\l::setStartOrientationRateGradient">
<polygon fill="white" stroke="black" points="170,-147.5 170,-177.5 331,-177.5 331,-147.5 170,-147.5"/>
<text text-anchor="start" x="178" y="-165.5" font-family="Helvetica,sans-Serif" font-size="10.00">Igor::iNodeParticleSystem</text>
<text text-anchor="middle" x="250.5" y="-154.5" font-family="Helvetica,sans-Serif" font-size="10.00">::setStartOrientationRateGradient</text>
</a>
</g>
</g>
<!-- Node1&#45;&gt;Node26 -->
<g id="edge25" class="edge"><title>Node1&#45;&gt;Node26</title>
<path fill="none" stroke="midnightblue" d="M69.125,-661.416C74.9597,-587.072 104.075,-260.3 170,-187.5 171.202,-186.173 172.473,-184.916 173.805,-183.725"/>
<polygon fill="midnightblue" stroke="midnightblue" points="176.094,-186.384 182.02,-177.602 171.911,-180.771 176.094,-186.384"/>
</g>
<!-- Node27 -->
<g id="node27" class="node"><title>Node27</title>
<g id="a_node27"><a xlink:href="class_igor_1_1i_node_particle_system.html#ad80b6a2223eb7656e08810f01185cfdd" target="_top" xlink:title="Igor::iNodeParticleSystem\l::setStartVelocityGradient">
<polygon fill="white" stroke="black" points="185.5,-98.5 185.5,-128.5 315.5,-128.5 315.5,-98.5 185.5,-98.5"/>
<text text-anchor="start" x="193.5" y="-116.5" font-family="Helvetica,sans-Serif" font-size="10.00">Igor::iNodeParticleSystem</text>
<text text-anchor="middle" x="250.5" y="-105.5" font-family="Helvetica,sans-Serif" font-size="10.00">::setStartVelocityGradient</text>
</a>
</g>
</g>
<!-- Node1&#45;&gt;Node27 -->
<g id="edge26" class="edge"><title>Node1&#45;&gt;Node27</title>
<path fill="none" stroke="midnightblue" d="M68.8244,-661.247C73.3944,-582.169 98.0696,-219.405 170,-138.5 172.028,-136.219 174.261,-134.144 176.653,-132.257"/>
<polygon fill="midnightblue" stroke="midnightblue" points="178.903,-134.966 185.322,-126.538 175.048,-129.123 178.903,-134.966"/>
</g>
<!-- Node28 -->
<g id="node28" class="node"><title>Node28</title>
<g id="a_node28"><a xlink:href="class_igor_1_1i_node_particle_system.html#af89f442b2065379ceaf6ddb0971c92fd" target="_top" xlink:title="Igor::iNodeParticleSystem\l::setStartLiftGradient">
<polygon fill="white" stroke="black" points="185.5,-49.5 185.5,-79.5 315.5,-79.5 315.5,-49.5 185.5,-49.5"/>
<text text-anchor="start" x="193.5" y="-67.5" font-family="Helvetica,sans-Serif" font-size="10.00">Igor::iNodeParticleSystem</text>
<text text-anchor="middle" x="250.5" y="-56.5" font-family="Helvetica,sans-Serif" font-size="10.00">::setStartLiftGradient</text>
</a>
</g>
</g>
<!-- Node1&#45;&gt;Node28 -->
<g id="edge27" class="edge"><title>Node1&#45;&gt;Node28</title>
<path fill="none" stroke="midnightblue" d="M68.5611,-661.262C71.9252,-578.006 91.9872,-178.612 170,-89.5 172.01,-87.2037 174.229,-85.1161 176.608,-83.2183"/>
<polygon fill="midnightblue" stroke="midnightblue" points="178.86,-85.9242 185.246,-77.4704 174.982,-80.0965 178.86,-85.9242"/>
</g>
<!-- Node29 -->
<g id="node29" class="node"><title>Node29</title>
<g id="a_node29"><a xlink:href="class_igor_1_1i_node_particle_system.html#a480c78d9739a5296cade8b0bb841eedc" target="_top" xlink:title="Igor::iNodeParticleSystem\l::setEmissionGradient">
<polygon fill="white" stroke="black" points="185.5,-0.5 185.5,-30.5 315.5,-30.5 315.5,-0.5 185.5,-0.5"/>
<text text-anchor="start" x="193.5" y="-18.5" font-family="Helvetica,sans-Serif" font-size="10.00">Igor::iNodeParticleSystem</text>
<text text-anchor="middle" x="250.5" y="-7.5" font-family="Helvetica,sans-Serif" font-size="10.00">::setEmissionGradient</text>
</a>
</g>
</g>
<!-- Node1&#45;&gt;Node29 -->
<g id="edge28" class="edge"><title>Node1&#45;&gt;Node29</title>
<path fill="none" stroke="midnightblue" d="M68.3336,-661.447C70.5551,-574.587 85.831,-137.917 170,-40.5 171.995,-38.1907 174.202,-36.0921 176.57,-34.1854"/>
<polygon fill="midnightblue" stroke="midnightblue" points="178.823,-36.889 185.181,-28.4137 174.926,-31.0744 178.823,-36.889"/>
</g>
</g>
</svg>
