<?xml version="1.0" encoding="UTF-8" standalone="no"?>
<!DOCTYPE svg PUBLIC "-//W3C//DTD SVG 1.1//EN"
 "http://www.w3.org/Graphics/SVG/1.1/DTD/svg11.dtd">
<!-- Generated by graphviz version 2.38.0 (20140413.2041)
 -->
<!-- Title: Widget3DLocator::createLocator Pages: 1 -->
<svg width="893pt" height="706pt"
 viewBox="0.00 0.00 893.00 705.50" xmlns="http://www.w3.org/2000/svg" xmlns:xlink="http://www.w3.org/1999/xlink">
<g id="graph0" class="graph" transform="scale(1 1) rotate(0) translate(4 701.5)">
<title>Widget3DLocator::createLocator</title>
<polygon fill="white" stroke="none" points="-4,4 -4,-701.5 889,-701.5 889,4 -4,4"/>
<!-- Node68 -->
<g id="node1" class="node"><title>Node68</title>
<g id="a_node1"><a xlink:title=" ">
<polygon fill="#bfbfbf" stroke="black" points="0,-389 0,-408 157,-408 157,-389 0,-389"/>
<text text-anchor="middle" x="78.5" y="-396" font-family="Helvetica,sans-Serif" font-size="10.00">Widget3DLocator::createLocator</text>
</a>
</g>
</g>
<!-- Node69 -->
<g id="node2" class="node"><title>Node69</title>
<g id="a_node2"><a xlink:href="class_igor_1_1i_scene.html#ab45a6b64fa3cd065f8434c96432b6f9b" target="_top" xlink:title=" ">
<polygon fill="white" stroke="black" points="229.5,-468 229.5,-487 337.5,-487 337.5,-468 229.5,-468"/>
<text text-anchor="middle" x="283.5" y="-475" font-family="Helvetica,sans-Serif" font-size="10.00">Igor::iScene::getRoot</text>
</a>
</g>
</g>
<!-- Node68&#45;&gt;Node69 -->
<g id="edge1" class="edge"><title>Node68&#45;&gt;Node69</title>
<path fill="none" stroke="midnightblue" d="M94.3013,-408.051C115.398,-421.254 155.701,-444.98 193,-458.5 201.445,-461.561 210.525,-464.197 219.549,-466.446"/>
<polygon fill="midnightblue" stroke="midnightblue" points="218.75,-469.853 229.286,-468.736 220.353,-463.039 218.75,-469.853"/>
</g>
<!-- Node70 -->
<g id="node3" class="node"><title>Node70</title>
<g id="a_node3"><a xlink:href="class_igor_1_1i_node.html#a4ce1269afdfb50f10f7b2c10e5aa69e0" target="_top" xlink:title=" ">
<polygon fill="white" stroke="black" points="225.5,-430 225.5,-449 341.5,-449 341.5,-430 225.5,-430"/>
<text text-anchor="middle" x="283.5" y="-437" font-family="Helvetica,sans-Serif" font-size="10.00">Igor::iNode::insertNode</text>
</a>
</g>
</g>
<!-- Node68&#45;&gt;Node70 -->
<g id="edge2" class="edge"><title>Node68&#45;&gt;Node70</title>
<path fill="none" stroke="midnightblue" d="M126.583,-408.009C156.069,-413.965 194.255,-421.677 225.457,-427.979"/>
<polygon fill="midnightblue" stroke="midnightblue" points="224.827,-431.422 235.322,-429.971 226.212,-424.561 224.827,-431.422"/>
</g>
<!-- Node84 -->
<g id="node17" class="node"><title>Node84</title>
<g id="a_node17"><a xlink:href="class_igor_1_1i_node.html#a828e8024ed2a02707f5a482579937556" target="_top" xlink:title=" ">
<polygon fill="white" stroke="black" points="229,-389 229,-408 338,-408 338,-389 229,-389"/>
<text text-anchor="middle" x="283.5" y="-396" font-family="Helvetica,sans-Serif" font-size="10.00">Igor::iNode::setActive</text>
</a>
</g>
</g>
<!-- Node68&#45;&gt;Node84 -->
<g id="edge19" class="edge"><title>Node68&#45;&gt;Node84</title>
<path fill="none" stroke="midnightblue" d="M157.115,-398.5C177.512,-398.5 199.274,-398.5 218.844,-398.5"/>
<polygon fill="midnightblue" stroke="midnightblue" points="218.86,-402 228.86,-398.5 218.86,-395 218.86,-402"/>
</g>
<!-- Node86 -->
<g id="node19" class="node"><title>Node86</title>
<g id="a_node19"><a xlink:href="class_widget3_d_locator.html#af2885d73c346254977b1fa8e1142581e" target="_top" xlink:title=" ">
<polygon fill="white" stroke="black" points="193,-153 193,-172 374,-172 374,-153 193,-153"/>
<text text-anchor="middle" x="283.5" y="-160" font-family="Helvetica,sans-Serif" font-size="10.00">Widget3DLocator::createLocatorMesh</text>
</a>
</g>
</g>
<!-- Node68&#45;&gt;Node86 -->
<g id="edge23" class="edge"><title>Node68&#45;&gt;Node86</title>
<path fill="none" stroke="midnightblue" d="M87.7093,-388.956C118.504,-353.155 227.432,-226.52 267.536,-179.897"/>
<polygon fill="midnightblue" stroke="midnightblue" points="270.321,-182.026 274.189,-172.163 265.014,-177.461 270.321,-182.026"/>
</g>
<!-- Node97 -->
<g id="node30" class="node"><title>Node97</title>
<g id="a_node30"><a xlink:href="class_igor_1_1i_node_transform.html#a36db58a9939509fcb25f957d652b964f" target="_top" xlink:title=" ">
<polygon fill="white" stroke="black" points="230.5,-339.5 230.5,-369.5 336.5,-369.5 336.5,-339.5 230.5,-339.5"/>
<text text-anchor="start" x="238.5" y="-357.5" font-family="Helvetica,sans-Serif" font-size="10.00">Igor::iNodeTransform</text>
<text text-anchor="middle" x="283.5" y="-346.5" font-family="Helvetica,sans-Serif" font-size="10.00">::rotate</text>
</a>
</g>
</g>
<!-- Node68&#45;&gt;Node97 -->
<g id="edge34" class="edge"><title>Node68&#45;&gt;Node97</title>
<path fill="none" stroke="midnightblue" d="M123.548,-388.953C151.853,-382.818 189.045,-374.756 220.336,-367.974"/>
<polygon fill="midnightblue" stroke="midnightblue" points="221.238,-371.36 230.27,-365.821 219.755,-364.519 221.238,-371.36"/>
</g>
<!-- Node71 -->
<g id="node4" class="node"><title>Node71</title>
<g id="a_node4"><a xlink:href="class_igor_1_1i_node.html#afcf6efd30c85e8c37a4261a6f27613b8" target="_top" xlink:title=" ">
<polygon fill="white" stroke="black" points="616,-388 616,-407 714,-407 714,-388 616,-388"/>
<text text-anchor="middle" x="665" y="-395" font-family="Helvetica,sans-Serif" font-size="10.00">Igor::iNode::isChild</text>
</a>
</g>
</g>
<!-- Node70&#45;&gt;Node71 -->
<g id="edge3" class="edge"><title>Node70&#45;&gt;Node71</title>
<path fill="none" stroke="midnightblue" d="M341.705,-438.238C396.832,-436.427 482.469,-432.045 556,-421.5 576.468,-418.565 598.82,-413.854 617.852,-409.38"/>
<polygon fill="midnightblue" stroke="midnightblue" points="618.854,-412.739 627.761,-407.003 617.22,-405.933 618.854,-412.739"/>
</g>
<!-- Node72 -->
<g id="node5" class="node"><title>Node72</title>
<g id="a_node5"><a xlink:href="class_igor_1_1i_node.html#adbeb716577ae857dc4274e8285dd94fe" target="_top" xlink:title=" ">
<polygon fill="white" stroke="black" points="427.5,-530 427.5,-549 538.5,-549 538.5,-530 427.5,-530"/>
<text text-anchor="middle" x="483" y="-537" font-family="Helvetica,sans-Serif" font-size="10.00">Igor::iNode::setParent</text>
</a>
</g>
</g>
<!-- Node70&#45;&gt;Node72 -->
<g id="edge4" class="edge"><title>Node70&#45;&gt;Node72</title>
<path fill="none" stroke="midnightblue" d="M341.922,-444.317C353.297,-447.229 364.61,-451.697 374,-458.5 399.804,-477.194 384.66,-501.182 410,-520.5 412.49,-522.398 415.153,-524.107 417.935,-525.646"/>
<polygon fill="midnightblue" stroke="midnightblue" points="416.616,-528.894 427.153,-530.004 419.608,-522.566 416.616,-528.894"/>
</g>
<!-- Node73 -->
<g id="node6" class="node"><title>Node73</title>
<g id="a_node6"><a xlink:href="class_igor_1_1i_node.html#a0392b6251631e79675f7416827335b70" target="_top" xlink:title=" ">
<polygon fill="white" stroke="black" points="428,-492 428,-511 538,-511 538,-492 428,-492"/>
<text text-anchor="middle" x="483" y="-499" font-family="Helvetica,sans-Serif" font-size="10.00">Igor::iNode::setScene</text>
</a>
</g>
</g>
<!-- Node70&#45;&gt;Node73 -->
<g id="edge5" class="edge"><title>Node70&#45;&gt;Node73</title>
<path fill="none" stroke="midnightblue" d="M336.938,-449.075C349.201,-451.743 362.142,-454.909 374,-458.5 400.8,-466.616 430.275,-478.566 451.652,-487.809"/>
<polygon fill="midnightblue" stroke="midnightblue" points="450.302,-491.039 460.866,-491.843 453.109,-484.626 450.302,-491.039"/>
</g>
<!-- Node81 -->
<g id="node14" class="node"><title>Node81</title>
<g id="a_node14"><a xlink:href="class_igor_1_1i_node.html#a3be538d0d60b148b1eae5cd5892d279d" target="_top" xlink:title=" ">
<polygon fill="white" stroke="black" points="410,-382.5 410,-412.5 556,-412.5 556,-382.5 410,-382.5"/>
<text text-anchor="start" x="418" y="-400.5" font-family="Helvetica,sans-Serif" font-size="10.00">Igor::iNode::setTransformation</text>
<text text-anchor="middle" x="483" y="-389.5" font-family="Helvetica,sans-Serif" font-size="10.00">Dirty</text>
</a>
</g>
</g>
<!-- Node70&#45;&gt;Node81 -->
<g id="edge13" class="edge"><title>Node70&#45;&gt;Node81</title>
<path fill="none" stroke="midnightblue" d="M329.316,-429.97C350.622,-425.439 376.76,-419.88 401.348,-414.651"/>
<polygon fill="midnightblue" stroke="midnightblue" points="402.353,-418.016 411.406,-412.512 400.897,-411.169 402.353,-418.016"/>
</g>
<!-- Node74 -->
<g id="node7" class="node"><title>Node74</title>
<g id="a_node7"><a xlink:href="class_igor_1_1i_node.html#aa8934442e897cfdf775264f161c69143" target="_top" xlink:title=" ">
<polygon fill="white" stroke="black" points="596.5,-514 596.5,-533 733.5,-533 733.5,-514 596.5,-514"/>
<text text-anchor="middle" x="665" y="-521" font-family="Helvetica,sans-Serif" font-size="10.00">Igor::iNode::onPreSetScene</text>
</a>
</g>
</g>
<!-- Node73&#45;&gt;Node74 -->
<g id="edge6" class="edge"><title>Node73&#45;&gt;Node74</title>
<path fill="none" stroke="midnightblue" d="M538.006,-508.101C553.185,-509.956 569.999,-512.011 586.268,-513.999"/>
<polygon fill="midnightblue" stroke="midnightblue" points="585.958,-517.487 596.308,-515.227 586.807,-510.539 585.958,-517.487"/>
</g>
<!-- Node75 -->
<g id="node8" class="node"><title>Node75</title>
<g id="a_node8"><a xlink:href="class_igor_1_1i_scene.html#aadee04cec2c19e6de83645d9de7e614f" target="_top" xlink:title=" ">
<polygon fill="white" stroke="black" points="604,-464.5 604,-494.5 726,-494.5 726,-464.5 604,-464.5"/>
<text text-anchor="start" x="612" y="-482.5" font-family="Helvetica,sans-Serif" font-size="10.00">Igor::iScene::signalNode</text>
<text text-anchor="middle" x="665" y="-471.5" font-family="Helvetica,sans-Serif" font-size="10.00">Removed</text>
</a>
</g>
</g>
<!-- Node73&#45;&gt;Node75 -->
<g id="edge7" class="edge"><title>Node73&#45;&gt;Node75</title>
<path fill="none" stroke="midnightblue" d="M538.006,-494.899C555.481,-492.763 575.123,-490.363 593.606,-488.104"/>
<polygon fill="midnightblue" stroke="midnightblue" points="594.233,-491.553 603.734,-486.866 593.383,-484.605 594.233,-491.553"/>
</g>
<!-- Node76 -->
<g id="node9" class="node"><title>Node76</title>
<g id="a_node9"><a xlink:href="class_igor_1_1i_node.html#aece61f1af4143a3a1765b19594d72b6e" target="_top" xlink:title=" ">
<polygon fill="white" stroke="black" points="619,-426 619,-445 711,-445 711,-426 619,-426"/>
<text text-anchor="middle" x="665" y="-433" font-family="Helvetica,sans-Serif" font-size="10.00">Igor::iNode::getID</text>
</a>
</g>
</g>
<!-- Node73&#45;&gt;Node76 -->
<g id="edge8" class="edge"><title>Node73&#45;&gt;Node76</title>
<path fill="none" stroke="midnightblue" d="M503.545,-491.915C524.907,-481.696 560.32,-465.501 592,-454.5 598.885,-452.109 606.229,-449.85 613.496,-447.78"/>
<polygon fill="midnightblue" stroke="midnightblue" points="614.595,-451.108 623.308,-445.081 612.738,-444.359 614.595,-451.108"/>
</g>
<!-- Node77 -->
<g id="node10" class="node"><title>Node77</title>
<g id="a_node10"><a xlink:href="class_igor_1_1i_scene.html#ab362507531b6b5207a3045283e9820c0" target="_top" xlink:title=" ">
<polygon fill="white" stroke="black" points="608.5,-678 608.5,-697 721.5,-697 721.5,-678 608.5,-678"/>
<text text-anchor="middle" x="665" y="-685" font-family="Helvetica,sans-Serif" font-size="10.00">Igor::iScene::getName</text>
</a>
</g>
</g>
<!-- Node73&#45;&gt;Node77 -->
<g id="edge9" class="edge"><title>Node73&#45;&gt;Node77</title>
<path fill="none" stroke="midnightblue" d="M538.25,-508.858C544.858,-511.652 551.021,-515.424 556,-520.5 603.402,-568.83 544.598,-620.17 592,-668.5 594.236,-670.78 596.711,-672.797 599.358,-674.58"/>
<polygon fill="midnightblue" stroke="midnightblue" points="597.868,-677.755 608.315,-679.517 601.247,-671.625 597.868,-677.755"/>
</g>
<!-- Node78 -->
<g id="node11" class="node"><title>Node78</title>
<g id="a_node11"><a xlink:href="class_igor_1_1i_node.html#aa13a0c809d3f0bb17baf52917d04aff0" target="_top" xlink:title=" ">
<polygon fill="white" stroke="black" points="605,-640 605,-659 725,-659 725,-640 605,-640"/>
<text text-anchor="middle" x="665" y="-647" font-family="Helvetica,sans-Serif" font-size="10.00">Igor::iNode::hasChildren</text>
</a>
</g>
</g>
<!-- Node73&#45;&gt;Node78 -->
<g id="edge10" class="edge"><title>Node73&#45;&gt;Node78</title>
<path fill="none" stroke="midnightblue" d="M538.256,-509.373C544.783,-512.095 550.922,-515.71 556,-520.5 593.418,-555.799 554.582,-595.201 592,-630.5 593.516,-631.93 595.127,-633.256 596.815,-634.484"/>
<polygon fill="midnightblue" stroke="midnightblue" points="595.429,-637.733 605.81,-639.85 599.015,-631.721 595.429,-637.733"/>
</g>
<!-- Node79 -->
<g id="node12" class="node"><title>Node79</title>
<g id="a_node12"><a xlink:href="class_igor_1_1i_node.html#af5a14599bd4dc62d1534865c8a306e8e" target="_top" xlink:title=" ">
<polygon fill="white" stroke="black" points="593.5,-602 593.5,-621 736.5,-621 736.5,-602 593.5,-602"/>
<text text-anchor="middle" x="665" y="-609" font-family="Helvetica,sans-Serif" font-size="10.00">Igor::iNode::onPostSetScene</text>
</a>
</g>
</g>
<!-- Node73&#45;&gt;Node79 -->
<g id="edge11" class="edge"><title>Node73&#45;&gt;Node79</title>
<path fill="none" stroke="midnightblue" d="M538.357,-510.388C544.716,-512.958 550.784,-516.259 556,-520.5 583.761,-543.068 564.239,-569.932 592,-592.5 594.063,-594.177 596.259,-595.707 598.553,-597.103"/>
<polygon fill="midnightblue" stroke="midnightblue" points="597.321,-600.404 607.817,-601.85 600.513,-594.175 597.321,-600.404"/>
</g>
<!-- Node80 -->
<g id="node13" class="node"><title>Node80</title>
<g id="a_node13"><a xlink:href="class_igor_1_1i_scene.html#a61c6f27b83ccdfbfdc1b7ee02d2fcc21" target="_top" xlink:title=" ">
<polygon fill="white" stroke="black" points="604,-552.5 604,-582.5 726,-582.5 726,-552.5 604,-552.5"/>
<text text-anchor="start" x="612" y="-570.5" font-family="Helvetica,sans-Serif" font-size="10.00">Igor::iScene::signalNode</text>
<text text-anchor="middle" x="665" y="-559.5" font-family="Helvetica,sans-Serif" font-size="10.00">Added</text>
</a>
</g>
</g>
<!-- Node73&#45;&gt;Node80 -->
<g id="edge12" class="edge"><title>Node73&#45;&gt;Node80</title>
<path fill="none" stroke="midnightblue" d="M528.468,-511.069C537.735,-513.66 547.32,-516.796 556,-520.5 573.247,-527.859 575.046,-534.49 592,-542.5 596.593,-544.67 601.428,-546.751 606.328,-548.722"/>
<polygon fill="midnightblue" stroke="midnightblue" points="605.198,-552.037 615.787,-552.369 607.716,-545.506 605.198,-552.037"/>
</g>
<!-- Node81&#45;&gt;Node71 -->
<g id="edge14" class="edge"><title>Node81&#45;&gt;Node71</title>
<path fill="none" stroke="midnightblue" d="M556.176,-397.5C572.623,-397.5 589.898,-397.5 605.683,-397.5"/>
<polygon fill="midnightblue" stroke="midnightblue" points="605.817,-401 615.817,-397.5 605.817,-394 605.817,-401"/>
</g>
<!-- Node82 -->
<g id="node15" class="node"><title>Node82</title>
<g id="a_node15"><a xlink:href="class_igor_1_1i_node.html#a1b3d40431eb4c1c79e5d93ef7fe68129" target="_top" xlink:title=" ">
<polygon fill="white" stroke="black" points="774,-304 774,-323 885,-323 885,-304 774,-304"/>
<text text-anchor="middle" x="829.5" y="-311" font-family="Helvetica,sans-Serif" font-size="10.00">Igor::iNode::getParent</text>
</a>
</g>
</g>
<!-- Node81&#45;&gt;Node82 -->
<g id="edge15" class="edge"><title>Node81&#45;&gt;Node82</title>
<path fill="none" stroke="midnightblue" d="M540.38,-382.448C545.97,-379.66 551.304,-376.372 556,-372.5 580.586,-352.231 564.385,-326.398 592,-310.5 653.259,-275.233 739.068,-288.751 788.713,-301.392"/>
<polygon fill="midnightblue" stroke="midnightblue" points="787.875,-304.791 798.439,-303.976 789.673,-298.026 787.875,-304.791"/>
</g>
<!-- Node83 -->
<g id="node16" class="node"><title>Node83</title>
<g id="a_node16"><a xlink:href="class_igor_1_1i_node.html#a66b6ecf7babaffce68852de186068e01" target="_top" xlink:title=" ">
<polygon fill="white" stroke="black" points="592,-320.5 592,-350.5 738,-350.5 738,-320.5 592,-320.5"/>
<text text-anchor="start" x="600" y="-338.5" font-family="Helvetica,sans-Serif" font-size="10.00">Igor::iNode::setTransformation</text>
<text text-anchor="middle" x="665" y="-327.5" font-family="Helvetica,sans-Serif" font-size="10.00">DirtyUp</text>
</a>
</g>
</g>
<!-- Node81&#45;&gt;Node83 -->
<g id="edge16" class="edge"><title>Node81&#45;&gt;Node83</title>
<path fill="none" stroke="midnightblue" d="M527.573,-382.492C552.593,-373.874 584.205,-362.985 610.697,-353.86"/>
<polygon fill="midnightblue" stroke="midnightblue" points="611.889,-357.151 620.204,-350.585 609.61,-350.533 611.889,-357.151"/>
</g>
<!-- Node83&#45;&gt;Node82 -->
<g id="edge17" class="edge"><title>Node83&#45;&gt;Node82</title>
<path fill="none" stroke="midnightblue" d="M738.221,-325.722C746.658,-324.58 755.226,-323.42 763.556,-322.292"/>
<polygon fill="midnightblue" stroke="midnightblue" points="764.133,-325.746 773.573,-320.936 763.194,-318.81 764.133,-325.746"/>
</g>
<!-- Node83&#45;&gt;Node83 -->
<g id="edge18" class="edge"><title>Node83&#45;&gt;Node83</title>
<path fill="none" stroke="midnightblue" d="M636.42,-350.659C629.528,-360.057 639.055,-369 665,-369 680.81,-369 690.524,-365.679 694.141,-360.958"/>
<polygon fill="midnightblue" stroke="midnightblue" points="697.619,-360.454 693.58,-350.659 690.629,-360.834 697.619,-360.454"/>
</g>
<!-- Node84&#45;&gt;Node73 -->
<g id="edge21" class="edge"><title>Node84&#45;&gt;Node73</title>
<path fill="none" stroke="midnightblue" d="M338.248,-407.992C350.331,-411.136 362.865,-415.227 374,-420.5 409.373,-437.251 444.553,-466.615 464.74,-485.008"/>
<polygon fill="midnightblue" stroke="midnightblue" points="462.481,-487.687 472.191,-491.925 467.243,-482.557 462.481,-487.687"/>
</g>
<!-- Node84&#45;&gt;Node81 -->
<g id="edge20" class="edge"><title>Node84&#45;&gt;Node81</title>
<path fill="none" stroke="midnightblue" d="M338.207,-398.228C357.152,-398.132 378.913,-398.022 399.676,-397.917"/>
<polygon fill="midnightblue" stroke="midnightblue" points="399.791,-401.416 409.773,-397.866 399.755,-394.416 399.791,-401.416"/>
</g>
<!-- Node85 -->
<g id="node18" class="node"><title>Node85</title>
<g id="a_node18"><a xlink:href="class_igor_1_1i_node.html#acd9afcdfae20de27c0ca44bb5cb89e79" target="_top" xlink:title=" ">
<polygon fill="white" stroke="black" points="428,-344 428,-363 538,-363 538,-344 428,-344"/>
<text text-anchor="middle" x="483" y="-351" font-family="Helvetica,sans-Serif" font-size="10.00">Igor::iNode::getScene</text>
</a>
</g>
</g>
<!-- Node84&#45;&gt;Node85 -->
<g id="edge22" class="edge"><title>Node84&#45;&gt;Node85</title>
<path fill="none" stroke="midnightblue" d="M327.762,-388.902C342.444,-385.626 358.941,-381.925 374,-378.5 392.763,-374.232 413.345,-369.484 431.461,-365.283"/>
<polygon fill="midnightblue" stroke="midnightblue" points="432.296,-368.682 441.246,-363.011 430.713,-361.863 432.296,-368.682"/>
</g>
<!-- Node87 -->
<g id="node20" class="node"><title>Node87</title>
<g id="a_node20"><a xlink:href="class_igor_aux_1_1ia_matrix.html#ac3391a41520f494b8aa83d41ae89719b" target="_top" xlink:title=" ">
<polygon fill="white" stroke="black" points="435,-245.5 435,-275.5 531,-275.5 531,-245.5 435,-245.5"/>
<text text-anchor="start" x="443" y="-263.5" font-family="Helvetica,sans-Serif" font-size="10.00">IgorAux::iaMatrix::</text>
<text text-anchor="middle" x="483" y="-252.5" font-family="Helvetica,sans-Serif" font-size="10.00">translate</text>
</a>
</g>
</g>
<!-- Node86&#45;&gt;Node87 -->
<g id="edge24" class="edge"><title>Node86&#45;&gt;Node87</title>
<path fill="none" stroke="midnightblue" d="M299.069,-172.226C321.963,-187.218 368.082,-216.249 410,-235.5 414.885,-237.743 420.033,-239.904 425.237,-241.953"/>
<polygon fill="midnightblue" stroke="midnightblue" points="424.029,-245.238 434.621,-245.511 426.511,-238.693 424.029,-245.238"/>
</g>
<!-- Node88 -->
<g id="node21" class="node"><title>Node88</title>
<g id="a_node21"><a xlink:href="class_igor_aux_1_1ia_matrix.html#a0d1f814a5844dbda77ed03f55768b8ba" target="_top" xlink:title=" ">
<polygon fill="white" stroke="black" points="435,-196.5 435,-226.5 531,-226.5 531,-196.5 435,-196.5"/>
<text text-anchor="start" x="443" y="-214.5" font-family="Helvetica,sans-Serif" font-size="10.00">IgorAux::iaMatrix::</text>
<text text-anchor="middle" x="483" y="-203.5" font-family="Helvetica,sans-Serif" font-size="10.00">scale</text>
</a>
</g>
</g>
<!-- Node86&#45;&gt;Node88 -->
<g id="edge25" class="edge"><title>Node86&#45;&gt;Node88</title>
<path fill="none" stroke="midnightblue" d="M323.049,-172.064C352.043,-179.257 392.234,-189.229 424.946,-197.345"/>
<polygon fill="midnightblue" stroke="midnightblue" points="424.289,-200.788 434.838,-199.799 425.975,-193.994 424.289,-200.788"/>
</g>
<!-- Node89 -->
<g id="node22" class="node"><title>Node89</title>
<g id="a_node22"><a xlink:href="class_igor_1_1i_mesh_builder.html#a458f799e29103966a2c180b0192bb789" target="_top" xlink:title=" ">
<polygon fill="white" stroke="black" points="435.5,-147.5 435.5,-177.5 530.5,-177.5 530.5,-147.5 435.5,-147.5"/>
<text text-anchor="start" x="443.5" y="-165.5" font-family="Helvetica,sans-Serif" font-size="10.00">Igor::iMeshBuilder</text>
<text text-anchor="middle" x="483" y="-154.5" font-family="Helvetica,sans-Serif" font-size="10.00">::setMatrix</text>
</a>
</g>
</g>
<!-- Node86&#45;&gt;Node89 -->
<g id="edge26" class="edge"><title>Node86&#45;&gt;Node89</title>
<path fill="none" stroke="midnightblue" d="M374.004,-162.5C391.419,-162.5 409.22,-162.5 425.216,-162.5"/>
<polygon fill="midnightblue" stroke="midnightblue" points="425.445,-166 435.445,-162.5 425.445,-159 425.445,-166"/>
</g>
<!-- Node90 -->
<g id="node23" class="node"><title>Node90</title>
<g id="a_node23"><a xlink:href="namespace_igor_1_1i_mesh_builder_utils.html#a47f09e94d76a32f05fcc8747d341665b" target="_top" xlink:title=" ">
<polygon fill="white" stroke="black" points="426,-98.5 426,-128.5 540,-128.5 540,-98.5 426,-98.5"/>
<text text-anchor="start" x="434" y="-116.5" font-family="Helvetica,sans-Serif" font-size="10.00">Igor::iMeshBuilderUtils</text>
<text text-anchor="middle" x="483" y="-105.5" font-family="Helvetica,sans-Serif" font-size="10.00">::addCylinder</text>
</a>
</g>
</g>
<!-- Node86&#45;&gt;Node90 -->
<g id="edge27" class="edge"><title>Node86&#45;&gt;Node90</title>
<path fill="none" stroke="midnightblue" d="M323.049,-152.936C349.487,-146.377 385.235,-137.508 416.133,-129.842"/>
<polygon fill="midnightblue" stroke="midnightblue" points="417.114,-133.204 425.977,-127.399 415.428,-126.41 417.114,-133.204"/>
</g>
<!-- Node94 -->
<g id="node27" class="node"><title>Node94</title>
<g id="a_node27"><a xlink:href="class_igor_1_1i_mesh_builder.html#a46e0762ee333059fd53821e286fc3f08" target="_top" xlink:title=" ">
<polygon fill="white" stroke="black" points="435.5,-49.5 435.5,-79.5 530.5,-79.5 530.5,-49.5 435.5,-49.5"/>
<text text-anchor="start" x="443.5" y="-67.5" font-family="Helvetica,sans-Serif" font-size="10.00">Igor::iMeshBuilder</text>
<text text-anchor="middle" x="483" y="-56.5" font-family="Helvetica,sans-Serif" font-size="10.00">::calcNormals</text>
</a>
</g>
</g>
<!-- Node86&#45;&gt;Node94 -->
<g id="edge31" class="edge"><title>Node86&#45;&gt;Node94</title>
<path fill="none" stroke="midnightblue" d="M298.646,-152.809C321.341,-137.577 367.643,-107.785 410,-88.5 415.022,-86.2137 420.327,-84.0331 425.688,-81.985"/>
<polygon fill="midnightblue" stroke="midnightblue" points="427.165,-85.1718 435.352,-78.447 424.758,-78.5986 427.165,-85.1718"/>
</g>
<!-- Node95 -->
<g id="node28" class="node"><title>Node95</title>
<g id="a_node28"><a xlink:href="class_igor_1_1i_mesh_builder.html#acc4acc76e9103871efa519e29c2e66bf" target="_top" xlink:title=" ">
<polygon fill="white" stroke="black" points="435.5,-0.5 435.5,-30.5 530.5,-30.5 530.5,-0.5 435.5,-0.5"/>
<text text-anchor="start" x="443.5" y="-18.5" font-family="Helvetica,sans-Serif" font-size="10.00">Igor::iMeshBuilder</text>
<text text-anchor="middle" x="483" y="-7.5" font-family="Helvetica,sans-Serif" font-size="10.00">::createMesh</text>
</a>
</g>
</g>
<!-- Node86&#45;&gt;Node95 -->
<g id="edge32" class="edge"><title>Node86&#45;&gt;Node95</title>
<path fill="none" stroke="midnightblue" d="M291.877,-152.68C309.677,-129.639 357.416,-71.6345 410,-39.5 414.97,-36.463 420.37,-33.7592 425.904,-31.3641"/>
<polygon fill="midnightblue" stroke="midnightblue" points="427.298,-34.576 435.29,-27.6205 424.705,-28.0741 427.298,-34.576"/>
</g>
<!-- Node91 -->
<g id="node24" class="node"><title>Node91</title>
<g id="a_node24"><a xlink:href="class_igor_1_1i_mesh_builder.html#abe2dfa2aa215a55508cfaba1d8f83029" target="_top" xlink:title=" ">
<polygon fill="white" stroke="black" points="617.5,-147.5 617.5,-177.5 712.5,-177.5 712.5,-147.5 617.5,-147.5"/>
<text text-anchor="start" x="625.5" y="-165.5" font-family="Helvetica,sans-Serif" font-size="10.00">Igor::iMeshBuilder</text>
<text text-anchor="middle" x="665" y="-154.5" font-family="Helvetica,sans-Serif" font-size="10.00">::getVertexCount</text>
</a>
</g>
</g>
<!-- Node90&#45;&gt;Node91 -->
<g id="edge28" class="edge"><title>Node90&#45;&gt;Node91</title>
<path fill="none" stroke="midnightblue" d="M539.475,-128.601C561.153,-134.503 585.98,-141.261 607.734,-147.183"/>
<polygon fill="midnightblue" stroke="midnightblue" points="606.922,-150.589 617.49,-149.839 608.761,-143.835 606.922,-150.589"/>
</g>
<!-- Node92 -->
<g id="node25" class="node"><title>Node92</title>
<g id="a_node25"><a xlink:href="class_igor_1_1i_mesh_builder.html#ae132784ebd5a29f57ff13f2e242ca50b" target="_top" xlink:title=" ">
<polygon fill="white" stroke="black" points="617.5,-98.5 617.5,-128.5 712.5,-128.5 712.5,-98.5 617.5,-98.5"/>
<text text-anchor="start" x="625.5" y="-116.5" font-family="Helvetica,sans-Serif" font-size="10.00">Igor::iMeshBuilder</text>
<text text-anchor="middle" x="665" y="-105.5" font-family="Helvetica,sans-Serif" font-size="10.00">::addVertex</text>
</a>
</g>
</g>
<!-- Node90&#45;&gt;Node92 -->
<g id="edge29" class="edge"><title>Node90&#45;&gt;Node92</title>
<path fill="none" stroke="midnightblue" d="M540.459,-113.5C561.724,-113.5 585.904,-113.5 607.2,-113.5"/>
<polygon fill="midnightblue" stroke="midnightblue" points="607.397,-117 617.397,-113.5 607.397,-110 607.397,-117"/>
</g>
<!-- Node93 -->
<g id="node26" class="node"><title>Node93</title>
<g id="a_node26"><a xlink:href="class_igor_1_1i_mesh_builder.html#ac3ae47c63dd2b5b18840482d485de85d" target="_top" xlink:title=" ">
<polygon fill="white" stroke="black" points="617.5,-49.5 617.5,-79.5 712.5,-79.5 712.5,-49.5 617.5,-49.5"/>
<text text-anchor="start" x="625.5" y="-67.5" font-family="Helvetica,sans-Serif" font-size="10.00">Igor::iMeshBuilder</text>
<text text-anchor="middle" x="665" y="-56.5" font-family="Helvetica,sans-Serif" font-size="10.00">::addTriangle</text>
</a>
</g>
</g>
<!-- Node90&#45;&gt;Node93 -->
<g id="edge30" class="edge"><title>Node90&#45;&gt;Node93</title>
<path fill="none" stroke="midnightblue" d="M539.475,-98.3986C561.153,-92.4973 585.98,-85.7387 607.734,-79.8169"/>
<polygon fill="midnightblue" stroke="midnightblue" points="608.761,-83.1648 617.49,-77.161 606.922,-76.4106 608.761,-83.1648"/>
</g>
<!-- Node96 -->
<g id="node29" class="node"><title>Node96</title>
<g id="a_node29"><a xlink:href="class_igor_1_1i_mesh.html#a727bba08a76e6fbf2bc4fba1abe8703d" target="_top" xlink:title=" ">
<polygon fill="white" stroke="black" points="602.5,-0.5 602.5,-30.5 727.5,-30.5 727.5,-0.5 602.5,-0.5"/>
<text text-anchor="start" x="610.5" y="-18.5" font-family="Helvetica,sans-Serif" font-size="10.00">Igor::iMesh::setBounding</text>
<text text-anchor="middle" x="665" y="-7.5" font-family="Helvetica,sans-Serif" font-size="10.00">Sphere</text>
</a>
</g>
</g>
<!-- Node95&#45;&gt;Node96 -->
<g id="edge33" class="edge"><title>Node95&#45;&gt;Node96</title>
<path fill="none" stroke="midnightblue" d="M530.823,-15.5C549.622,-15.5 571.714,-15.5 592.443,-15.5"/>
<polygon fill="midnightblue" stroke="midnightblue" points="592.489,-19.0001 602.489,-15.5 592.489,-12.0001 592.489,-19.0001"/>
</g>
<!-- Node97&#45;&gt;Node81 -->
<g id="edge36" class="edge"><title>Node97&#45;&gt;Node81</title>
<path fill="none" stroke="midnightblue" d="M336.649,-365.854C356.958,-370.276 380.678,-375.44 402.996,-380.299"/>
<polygon fill="midnightblue" stroke="midnightblue" points="402.281,-383.725 412.796,-382.433 403.77,-376.886 402.281,-383.725"/>
</g>
<!-- Node98 -->
<g id="node31" class="node"><title>Node98</title>
<g id="a_node31"><a xlink:href="class_igor_aux_1_1ia_matrix.html#ae9eba9dbfae8fc7cc139579370386efb" target="_top" xlink:title=" ">
<polygon fill="white" stroke="black" points="435,-294.5 435,-324.5 531,-324.5 531,-294.5 435,-294.5"/>
<text text-anchor="start" x="443" y="-312.5" font-family="Helvetica,sans-Serif" font-size="10.00">IgorAux::iaMatrix::</text>
<text text-anchor="middle" x="483" y="-301.5" font-family="Helvetica,sans-Serif" font-size="10.00">rotate</text>
</a>
</g>
</g>
<!-- Node97&#45;&gt;Node98 -->
<g id="edge35" class="edge"><title>Node97&#45;&gt;Node98</title>
<path fill="none" stroke="midnightblue" d="M336.649,-342.618C363.826,-336.426 397.112,-328.842 424.97,-322.494"/>
<polygon fill="midnightblue" stroke="midnightblue" points="425.994,-325.851 434.967,-320.216 424.439,-319.026 425.994,-325.851"/>
</g>
</g>
</svg>
