<?xml version="1.0" encoding="UTF-8" standalone="no"?>
<!DOCTYPE svg PUBLIC "-//W3C//DTD SVG 1.1//EN"
 "http://www.w3.org/Graphics/SVG/1.1/DTD/svg11.dtd">
<!-- Generated by graphviz version 2.38.0 (20140413.2041)
 -->
<!-- Title: UserControlTransformation::setNode Pages: 1 -->
<svg width="452pt" height="225pt"
 viewBox="0.00 0.00 452.00 224.50" xmlns="http://www.w3.org/2000/svg" xmlns:xlink="http://www.w3.org/1999/xlink">
<g id="graph0" class="graph" transform="scale(1 1) rotate(0) translate(4 220.5)">
<title>UserControlTransformation::setNode</title>
<polygon fill="white" stroke="none" points="-4,4 -4,-220.5 448,-220.5 448,4 -4,4"/>
<!-- Node1 -->
<g id="node1" class="node"><title>Node1</title>
<polygon fill="#bfbfbf" stroke="black" points="0,-88 0,-118 131,-118 131,-88 0,-88"/>
<text text-anchor="start" x="8" y="-106" font-family="Helvetica,sans-Serif" font-size="10.00">UserControlTransformation</text>
<text text-anchor="middle" x="65.5" y="-95" font-family="Helvetica,sans-Serif" font-size="10.00">::setNode</text>
</g>
<!-- Node2 -->
<g id="node2" class="node"><title>Node2</title>
<g id="a_node2"><a xlink:href="class_igor_aux_1_1ia_singleton.html#a821f1d891129e6d09b992be81094540e" target="_top" xlink:title="IgorAux::iaSingleton\l\&lt; iNodeFactory \&gt;::getInstance">
<polygon fill="white" stroke="black" points="167,-186 167,-216 316,-216 316,-186 167,-186"/>
<text text-anchor="start" x="175" y="-204" font-family="Helvetica,sans-Serif" font-size="10.00">IgorAux::iaSingleton</text>
<text text-anchor="middle" x="241.5" y="-193" font-family="Helvetica,sans-Serif" font-size="10.00">&lt; iNodeFactory &gt;::getInstance</text>
</a>
</g>
</g>
<!-- Node1&#45;&gt;Node2 -->
<g id="edge1" class="edge"><title>Node1&#45;&gt;Node2</title>
<path fill="none" stroke="midnightblue" d="M83.5176,-118.204C102.649,-134.631 135.209,-160.645 167,-177 170.525,-178.813 174.215,-180.528 177.984,-182.142"/>
<polygon fill="midnightblue" stroke="midnightblue" points="176.887,-185.473 187.471,-185.947 179.493,-178.976 176.887,-185.473"/>
</g>
<!-- Node3 -->
<g id="node3" class="node"><title>Node3</title>
<g id="a_node3"><a xlink:href="class_igor_1_1i_node_factory.html#ab8074664cc7a6692dda729d1e3e4cfa3" target="_top" xlink:title="Igor::iNodeFactory\l::getNode">
<polygon fill="white" stroke="black" points="193.5,-137 193.5,-167 289.5,-167 289.5,-137 193.5,-137"/>
<text text-anchor="start" x="201.5" y="-155" font-family="Helvetica,sans-Serif" font-size="10.00">Igor::iNodeFactory</text>
<text text-anchor="middle" x="241.5" y="-144" font-family="Helvetica,sans-Serif" font-size="10.00">::getNode</text>
</a>
</g>
</g>
<!-- Node1&#45;&gt;Node3 -->
<g id="edge2" class="edge"><title>Node1&#45;&gt;Node3</title>
<path fill="none" stroke="midnightblue" d="M120.126,-118.101C140.206,-123.756 163.081,-130.198 183.459,-135.937"/>
<polygon fill="midnightblue" stroke="midnightblue" points="182.665,-139.349 193.239,-138.691 184.562,-132.611 182.665,-139.349"/>
</g>
<!-- Node4 -->
<g id="node4" class="node"><title>Node4</title>
<g id="a_node4"><a xlink:href="class_igor_1_1i_node.html#a92a082c4e595b2f485e959b54e67c443" target="_top" xlink:title="Igor::iNode::getTransformation\lChangeEvent">
<polygon fill="white" stroke="black" points="168.5,-88 168.5,-118 314.5,-118 314.5,-88 168.5,-88"/>
<text text-anchor="start" x="176.5" y="-106" font-family="Helvetica,sans-Serif" font-size="10.00">Igor::iNode::getTransformation</text>
<text text-anchor="middle" x="241.5" y="-95" font-family="Helvetica,sans-Serif" font-size="10.00">ChangeEvent</text>
</a>
</g>
</g>
<!-- Node1&#45;&gt;Node4 -->
<g id="edge3" class="edge"><title>Node1&#45;&gt;Node4</title>
<path fill="none" stroke="midnightblue" d="M131.291,-103C140.066,-103 149.165,-103 158.195,-103"/>
<polygon fill="midnightblue" stroke="midnightblue" points="158.342,-106.5 168.342,-103 158.342,-99.5001 158.342,-106.5"/>
</g>
<!-- Node5 -->
<g id="node5" class="node"><title>Node5</title>
<g id="a_node5"><a xlink:href="class_user_control_transformation.html#a9127fa4b983b9f2d543bff42c64e8a5d" target="_top" xlink:title="UserControlTransformation\l::onTransformationChanged">
<polygon fill="white" stroke="black" points="174,-39 174,-69 309,-69 309,-39 174,-39"/>
<text text-anchor="start" x="182" y="-57" font-family="Helvetica,sans-Serif" font-size="10.00">UserControlTransformation</text>
<text text-anchor="middle" x="241.5" y="-46" font-family="Helvetica,sans-Serif" font-size="10.00">::onTransformationChanged</text>
</a>
</g>
</g>
<!-- Node1&#45;&gt;Node5 -->
<g id="edge4" class="edge"><title>Node1&#45;&gt;Node5</title>
<path fill="none" stroke="midnightblue" d="M120.126,-87.8986C138.237,-82.7981 158.624,-77.0571 177.4,-71.7695"/>
<polygon fill="midnightblue" stroke="midnightblue" points="178.375,-75.1313 187.052,-69.0516 176.477,-68.3933 178.375,-75.1313"/>
</g>
<!-- Node7 -->
<g id="node7" class="node"><title>Node7</title>
<g id="a_node7"><a xlink:href="class_igor_1_1i_node.html#a43329dc1b2a6ad4056c38290c5df777d" target="_top" xlink:title="Igor::iNode::getType">
<polygon fill="white" stroke="black" points="189.5,-0.5 189.5,-19.5 293.5,-19.5 293.5,-0.5 189.5,-0.5"/>
<text text-anchor="middle" x="241.5" y="-7.5" font-family="Helvetica,sans-Serif" font-size="10.00">Igor::iNode::getType</text>
</a>
</g>
</g>
<!-- Node1&#45;&gt;Node7 -->
<g id="edge6" class="edge"><title>Node1&#45;&gt;Node7</title>
<path fill="none" stroke="midnightblue" d="M83.4053,-87.7151C102.438,-71.2592 134.913,-45.379 167,-30 172.791,-27.2243 179.03,-24.782 185.339,-22.6465"/>
<polygon fill="midnightblue" stroke="midnightblue" points="186.759,-25.8694 195.255,-19.5394 184.666,-19.1896 186.759,-25.8694"/>
</g>
<!-- Node6 -->
<g id="node6" class="node"><title>Node6</title>
<g id="a_node6"><a xlink:href="class_igor_1_1i_node.html#a865efb791b77d29bb489514326037380" target="_top" xlink:title="Igor::iNode::getID">
<polygon fill="white" stroke="black" points="352,-44.5 352,-63.5 444,-63.5 444,-44.5 352,-44.5"/>
<text text-anchor="middle" x="398" y="-51.5" font-family="Helvetica,sans-Serif" font-size="10.00">Igor::iNode::getID</text>
</a>
</g>
</g>
<!-- Node5&#45;&gt;Node6 -->
<g id="edge5" class="edge"><title>Node5&#45;&gt;Node6</title>
<path fill="none" stroke="midnightblue" d="M309.367,-54C320.132,-54 331.171,-54 341.628,-54"/>
<polygon fill="midnightblue" stroke="midnightblue" points="341.858,-57.5001 351.858,-54 341.858,-50.5001 341.858,-57.5001"/>
</g>
</g>
</svg>
