<?xml version="1.0" encoding="UTF-8" standalone="no"?>
<!DOCTYPE svg PUBLIC "-//W3C//DTD SVG 1.1//EN"
 "http://www.w3.org/Graphics/SVG/1.1/DTD/svg11.dtd">
<!-- Generated by graphviz version 2.38.0 (20140413.2041)
 -->
<!-- Title: Igor::iLoader3DS::findChunk Pages: 1 -->
<svg width="665pt" height="47pt"
 viewBox="0.00 0.00 665.00 47.00" xmlns="http://www.w3.org/2000/svg" xmlns:xlink="http://www.w3.org/1999/xlink">
<g id="graph0" class="graph" transform="scale(1 1) rotate(0) translate(4 43)">
<title>Igor::iLoader3DS::findChunk</title>
<polygon fill="white" stroke="none" points="-4,4 -4,-43 661,-43 661,4 -4,4"/>
<!-- Node25 -->
<g id="node1" class="node"><title>Node25</title>
<g id="a_node1"><a xlink:title=" ">
<polygon fill="#bfbfbf" stroke="black" points="520,-19.5 520,-38.5 657,-38.5 657,-19.5 520,-19.5"/>
<text text-anchor="middle" x="588.5" y="-26.5" font-family="Helvetica,sans-Serif" font-size="10.00">Igor::iLoader3DS::findChunk</text>
</a>
</g>
</g>
<!-- Node26 -->
<g id="node2" class="node"><title>Node26</title>
<g id="a_node2"><a xlink:href="class_igor_1_1i_loader3_d_s.html#aca0e79310e5d9cf03bef571eab095799" target="_top" xlink:title=" ">
<polygon fill="white" stroke="black" points="164,-19.5 164,-38.5 311,-38.5 311,-19.5 164,-19.5"/>
<text text-anchor="middle" x="237.5" y="-26.5" font-family="Helvetica,sans-Serif" font-size="10.00">Igor::iLoader3DS::analyze3DS</text>
</a>
</g>
</g>
<!-- Node25&#45;&gt;Node26 -->
<g id="edge1" class="edge"><title>Node25&#45;&gt;Node26</title>
<path fill="none" stroke="midnightblue" d="M509.721,-29C450.362,-29 369.175,-29 311.13,-29"/>
<polygon fill="midnightblue" stroke="midnightblue" points="509.796,-32.5001 519.795,-29 509.795,-25.5001 509.796,-32.5001"/>
</g>
<!-- Node28 -->
<g id="node4" class="node"><title>Node28</title>
<g id="a_node4"><a xlink:href="class_igor_1_1i_loader3_d_s.html#adc6bfd41b7e33b44ac4689aba4ecc57c" target="_top" xlink:title=" ">
<polygon fill="white" stroke="black" points="347,-0.5 347,-19.5 484,-19.5 484,-0.5 347,-0.5"/>
<text text-anchor="middle" x="415.5" y="-7.5" font-family="Helvetica,sans-Serif" font-size="10.00">Igor::iLoader3DS::readMesh</text>
</a>
</g>
</g>
<!-- Node25&#45;&gt;Node28 -->
<g id="edge3" class="edge"><title>Node25&#45;&gt;Node28</title>
<path fill="none" stroke="midnightblue" d="M509.9,-20.3778C501.308,-19.4231 492.609,-18.4565 484.153,-17.517"/>
<polygon fill="midnightblue" stroke="midnightblue" points="509.591,-23.8649 519.916,-21.4907 510.364,-16.9077 509.591,-23.8649"/>
</g>
<!-- Node27 -->
<g id="node3" class="node"><title>Node27</title>
<g id="a_node3"><a xlink:href="class_igor_1_1i_loader3_d_s.html#a4c261f6da8b9cf51264bb49f0df62718" target="_top" xlink:title=" ">
<polygon fill="white" stroke="black" points="0,-19.5 0,-38.5 128,-38.5 128,-19.5 0,-19.5"/>
<text text-anchor="middle" x="64" y="-26.5" font-family="Helvetica,sans-Serif" font-size="10.00">Igor::iLoader3DS::loadFile</text>
</a>
</g>
</g>
<!-- Node26&#45;&gt;Node27 -->
<g id="edge2" class="edge"><title>Node26&#45;&gt;Node27</title>
<path fill="none" stroke="midnightblue" d="M153.695,-29C145.08,-29 136.426,-29 128.08,-29"/>
<polygon fill="midnightblue" stroke="midnightblue" points="153.769,-32.5001 163.769,-29 153.769,-25.5001 153.769,-32.5001"/>
</g>
<!-- Node28&#45;&gt;Node26 -->
<g id="edge4" class="edge"><title>Node28&#45;&gt;Node26</title>
<path fill="none" stroke="midnightblue" d="M336.958,-18.371C328.371,-19.298 319.649,-20.2396 311.126,-21.1597"/>
<polygon fill="midnightblue" stroke="midnightblue" points="337.391,-21.8447 346.957,-17.2916 336.639,-14.8852 337.391,-21.8447"/>
</g>
</g>
</svg>
