<?xml version="1.0" encoding="UTF-8" standalone="no"?>
<!DOCTYPE svg PUBLIC "-//W3C//DTD SVG 1.1//EN"
 "http://www.w3.org/Graphics/SVG/1.1/DTD/svg11.dtd">
<!-- Generated by graphviz version 2.38.0 (20140413.2041)
 -->
<!-- Title: Igor::iNodeCamera::getViewMatrix Pages: 1 -->
<svg width="376pt" height="39pt"
 viewBox="0.00 0.00 376.00 39.00" xmlns="http://www.w3.org/2000/svg" xmlns:xlink="http://www.w3.org/1999/xlink">
<g id="graph0" class="graph" transform="scale(1 1) rotate(0) translate(4 35)">
<title>Igor::iNodeCamera::getViewMatrix</title>
<polygon fill="white" stroke="none" points="-4,4 -4,-35 372,-35 372,4 -4,4"/>
<!-- Node1 -->
<g id="node1" class="node"><title>Node1</title>
<polygon fill="#bfbfbf" stroke="black" points="0,-0.5 0,-30.5 103,-30.5 103,-0.5 0,-0.5"/>
<text text-anchor="start" x="8" y="-18.5" font-family="Helvetica,sans-Serif" font-size="10.00">Igor::iNodeCamera::</text>
<text text-anchor="middle" x="51.5" y="-7.5" font-family="Helvetica,sans-Serif" font-size="10.00">getViewMatrix</text>
</g>
<!-- Node2 -->
<g id="node2" class="node"><title>Node2</title>
<g id="a_node2"><a xlink:href="class_igor_aux_1_1ia_matrix.html#ae57766fa4a45a1d7ac35d642442a6c79" target="_top" xlink:title="IgorAux::iaMatrix::\llookAt">
<polygon fill="white" stroke="black" points="139,-0.5 139,-30.5 235,-30.5 235,-0.5 139,-0.5"/>
<text text-anchor="start" x="147" y="-18.5" font-family="Helvetica,sans-Serif" font-size="10.00">IgorAux::iaMatrix::</text>
<text text-anchor="middle" x="187" y="-7.5" font-family="Helvetica,sans-Serif" font-size="10.00">lookAt</text>
</a>
</g>
</g>
<!-- Node1&#45;&gt;Node2 -->
<g id="edge1" class="edge"><title>Node1&#45;&gt;Node2</title>
<path fill="none" stroke="midnightblue" d="M103.351,-15.5C111.628,-15.5 120.252,-15.5 128.671,-15.5"/>
<polygon fill="midnightblue" stroke="midnightblue" points="128.802,-19.0001 138.802,-15.5 128.802,-12.0001 128.802,-19.0001"/>
</g>
<!-- Node3 -->
<g id="node3" class="node"><title>Node3</title>
<g id="a_node3"><a xlink:href="class_igor_aux_1_1ia_vector3.html#a19d7f1f4d0fba7b22f60fff7d38ea74b" target="_top" xlink:title="IgorAux::iaVector3\l::normalize">
<polygon fill="white" stroke="black" points="271,-0.5 271,-30.5 368,-30.5 368,-0.5 271,-0.5"/>
<text text-anchor="start" x="279" y="-18.5" font-family="Helvetica,sans-Serif" font-size="10.00">IgorAux::iaVector3</text>
<text text-anchor="middle" x="319.5" y="-7.5" font-family="Helvetica,sans-Serif" font-size="10.00">::normalize</text>
</a>
</g>
</g>
<!-- Node2&#45;&gt;Node3 -->
<g id="edge2" class="edge"><title>Node2&#45;&gt;Node3</title>
<path fill="none" stroke="midnightblue" d="M235.113,-15.5C243.314,-15.5 251.93,-15.5 260.385,-15.5"/>
<polygon fill="midnightblue" stroke="midnightblue" points="260.578,-19.0001 270.578,-15.5 260.578,-12.0001 260.578,-19.0001"/>
</g>
</g>
</svg>
