<?xml version="1.0" encoding="UTF-8" standalone="no"?>
<!DOCTYPE svg PUBLIC "-//W3C//DTD SVG 1.1//EN"
 "http://www.w3.org/Graphics/SVG/1.1/DTD/svg11.dtd">
<!-- Generated by graphviz version 2.38.0 (20140413.2041)
 -->
<!-- Title: Igor::iPhysics::queueTransformation Pages: 1 -->
<svg width="341pt" height="66pt"
 viewBox="0.00 0.00 341.00 66.00" xmlns="http://www.w3.org/2000/svg" xmlns:xlink="http://www.w3.org/1999/xlink">
<g id="graph0" class="graph" transform="scale(1 1) rotate(0) translate(4 62)">
<title>Igor::iPhysics::queueTransformation</title>
<polygon fill="white" stroke="none" points="-4,4 -4,-62 337,-62 337,4 -4,4"/>
<!-- Node1 -->
<g id="node1" class="node"><title>Node1</title>
<polygon fill="#bfbfbf" stroke="black" points="0,-19.5 0,-38.5 172,-38.5 172,-19.5 0,-19.5"/>
<text text-anchor="middle" x="86" y="-26.5" font-family="Helvetica,sans-Serif" font-size="10.00">Igor::iPhysics::queueTransformation</text>
</g>
<!-- Node2 -->
<g id="node2" class="node"><title>Node2</title>
<g id="a_node2"><a xlink:href="class_igor_aux_1_1ia_mutex.html#ab0873c1f25730bd85d6b71d167520921" target="_top" xlink:title="IgorAux::iaMutex::lock">
<polygon fill="white" stroke="black" points="213.5,-38.5 213.5,-57.5 327.5,-57.5 327.5,-38.5 213.5,-38.5"/>
<text text-anchor="middle" x="270.5" y="-45.5" font-family="Helvetica,sans-Serif" font-size="10.00">IgorAux::iaMutex::lock</text>
</a>
</g>
</g>
<!-- Node1&#45;&gt;Node2 -->
<g id="edge1" class="edge"><title>Node1&#45;&gt;Node2</title>
<path fill="none" stroke="midnightblue" d="M172.105,-37.8603C182.629,-38.9559 193.263,-40.063 203.442,-41.1228"/>
<polygon fill="midnightblue" stroke="midnightblue" points="203.141,-44.6102 213.45,-42.1646 203.866,-37.6479 203.141,-44.6102"/>
</g>
<!-- Node3 -->
<g id="node3" class="node"><title>Node3</title>
<g id="a_node3"><a xlink:href="class_igor_aux_1_1ia_mutex.html#a3beb078a1f64de265044ece54657c279" target="_top" xlink:title="IgorAux::iaMutex::unlock">
<polygon fill="white" stroke="black" points="208,-0.5 208,-19.5 333,-19.5 333,-0.5 208,-0.5"/>
<text text-anchor="middle" x="270.5" y="-7.5" font-family="Helvetica,sans-Serif" font-size="10.00">IgorAux::iaMutex::unlock</text>
</a>
</g>
</g>
<!-- Node1&#45;&gt;Node3 -->
<g id="edge2" class="edge"><title>Node1&#45;&gt;Node3</title>
<path fill="none" stroke="midnightblue" d="M172.105,-20.1397C180.694,-19.2456 189.355,-18.3438 197.783,-17.4664"/>
<polygon fill="midnightblue" stroke="midnightblue" points="198.344,-20.9271 207.928,-16.4103 197.619,-13.9647 198.344,-20.9271"/>
</g>
</g>
</svg>
