<?xml version="1.0" encoding="UTF-8" standalone="no"?>
<!DOCTYPE svg PUBLIC "-//W3C//DTD SVG 1.1//EN"
 "http://www.w3.org/Graphics/SVG/1.1/DTD/svg11.dtd">
<!-- Generated by graphviz version 2.38.0 (20140413.2041)
 -->
<!-- Title: Igor::iPhysicsMaterial::getID Pages: 1 -->
<svg width="452pt" height="127pt"
 viewBox="0.00 0.00 452.00 126.50" xmlns="http://www.w3.org/2000/svg" xmlns:xlink="http://www.w3.org/1999/xlink">
<g id="graph0" class="graph" transform="scale(1 1) rotate(0) translate(4 122.5)">
<title>Igor::iPhysicsMaterial::getID</title>
<polygon fill="white" stroke="none" points="-4,4 -4,-122.5 448,-122.5 448,4 -4,4"/>
<!-- Node5 -->
<g id="node1" class="node"><title>Node5</title>
<g id="a_node1"><a xlink:title=" ">
<polygon fill="#bfbfbf" stroke="black" points="334,-49.5 334,-79.5 444,-79.5 444,-49.5 334,-49.5"/>
<text text-anchor="start" x="342" y="-67.5" font-family="Helvetica,sans-Serif" font-size="10.00">Igor::iPhysicsMaterial</text>
<text text-anchor="middle" x="389" y="-56.5" font-family="Helvetica,sans-Serif" font-size="10.00">::getID</text>
</a>
</g>
</g>
<!-- Node6 -->
<g id="node2" class="node"><title>Node6</title>
<g id="a_node2"><a xlink:href="class_igor_1_1i_physics.html#a414350b4c4093ccff47562802a745cff" target="_top" xlink:title=" ">
<polygon fill="white" stroke="black" points="155,-99 155,-118 298,-118 298,-99 155,-99"/>
<text text-anchor="middle" x="226.5" y="-106" font-family="Helvetica,sans-Serif" font-size="10.00">Igor::iPhysics::createMaterial</text>
</a>
</g>
</g>
<!-- Node5&#45;&gt;Node6 -->
<g id="edge1" class="edge"><title>Node5&#45;&gt;Node6</title>
<path fill="none" stroke="midnightblue" d="M324.341,-82.2488C315.496,-84.6955 306.523,-87.1677 298,-89.5 286.629,-92.6115 274.216,-95.9698 263.018,-98.9849"/>
<polygon fill="midnightblue" stroke="midnightblue" points="325.539,-85.5488 334.241,-79.5059 323.67,-78.8029 325.539,-85.5488"/>
</g>
<!-- Node7 -->
<g id="node3" class="node"><title>Node7</title>
<g id="a_node3"><a xlink:href="class_igor_1_1i_physics.html#a61101b519bf9db7b07bfd3c5b4f8e2f7" target="_top" xlink:title=" ">
<polygon fill="white" stroke="black" points="157,-49.5 157,-79.5 296,-79.5 296,-49.5 157,-49.5"/>
<text text-anchor="start" x="165" y="-67.5" font-family="Helvetica,sans-Serif" font-size="10.00">Igor::iPhysics::createDefault</text>
<text text-anchor="middle" x="226.5" y="-56.5" font-family="Helvetica,sans-Serif" font-size="10.00">Material</text>
</a>
</g>
</g>
<!-- Node5&#45;&gt;Node7 -->
<g id="edge2" class="edge"><title>Node5&#45;&gt;Node7</title>
<path fill="none" stroke="midnightblue" d="M323.569,-64.5C314.5,-64.5 305.151,-64.5 296.01,-64.5"/>
<polygon fill="midnightblue" stroke="midnightblue" points="323.662,-68.0001 333.662,-64.5 323.662,-61.0001 323.662,-68.0001"/>
</g>
<!-- Node9 -->
<g id="node5" class="node"><title>Node9</title>
<g id="a_node5"><a xlink:href="class_igor_1_1i_physics_material_combo.html#aec7214c1d258f2972f407a3aae352130" target="_top" xlink:title=" ">
<polygon fill="white" stroke="black" points="156,-0.5 156,-30.5 297,-30.5 297,-0.5 156,-0.5"/>
<text text-anchor="start" x="164" y="-18.5" font-family="Helvetica,sans-Serif" font-size="10.00">Igor::iPhysicsMaterialCombo</text>
<text text-anchor="middle" x="226.5" y="-7.5" font-family="Helvetica,sans-Serif" font-size="10.00">::iPhysicsMaterialCombo</text>
</a>
</g>
</g>
<!-- Node5&#45;&gt;Node9 -->
<g id="edge4" class="edge"><title>Node5&#45;&gt;Node9</title>
<path fill="none" stroke="midnightblue" d="M328.671,-46.3871C311.608,-41.1778 293.188,-35.5543 276.802,-30.5516"/>
<polygon fill="midnightblue" stroke="midnightblue" points="327.949,-49.8261 338.535,-49.3986 329.993,-43.1311 327.949,-49.8261"/>
</g>
<!-- Node8 -->
<g id="node4" class="node"><title>Node8</title>
<g id="a_node4"><a xlink:href="class_igor_1_1i_physics.html#ae2f10e679711705bf248d26f05eb848e" target="_top" xlink:title=" ">
<polygon fill="white" stroke="black" points="0,-55 0,-74 119,-74 119,-55 0,-55"/>
<text text-anchor="middle" x="59.5" y="-62" font-family="Helvetica,sans-Serif" font-size="10.00">Igor::iPhysics::iPhysics</text>
</a>
</g>
</g>
<!-- Node7&#45;&gt;Node8 -->
<g id="edge3" class="edge"><title>Node7&#45;&gt;Node8</title>
<path fill="none" stroke="midnightblue" d="M146.868,-64.5C137.524,-64.5 128.113,-64.5 119.117,-64.5"/>
<polygon fill="midnightblue" stroke="midnightblue" points="146.959,-68.0001 156.959,-64.5 146.959,-61.0001 146.959,-68.0001"/>
</g>
</g>
</svg>
