<?xml version="1.0" encoding="UTF-8" standalone="no"?>
<!DOCTYPE svg PUBLIC "-//W3C//DTD SVG 1.1//EN"
 "http://www.w3.org/Graphics/SVG/1.1/DTD/svg11.dtd">
<!-- Generated by graphviz version 2.38.0 (20140413.2041)
 -->
<!-- Title: Igor::iWidgetTextEdit::setMaxTextLength Pages: 1 -->
<svg width="652pt" height="176pt"
 viewBox="0.00 0.00 652.00 176.00" xmlns="http://www.w3.org/2000/svg" xmlns:xlink="http://www.w3.org/1999/xlink">
<g id="graph0" class="graph" transform="scale(1 1) rotate(0) translate(4 172)">
<title>Igor::iWidgetTextEdit::setMaxTextLength</title>
<polygon fill="white" stroke="none" points="-4,4 -4,-172 648,-172 648,4 -4,4"/>
<!-- Node1 -->
<g id="node1" class="node"><title>Node1</title>
<polygon fill="#bfbfbf" stroke="black" points="0,-66.5 0,-96.5 107,-96.5 107,-66.5 0,-66.5"/>
<text text-anchor="start" x="8" y="-84.5" font-family="Helvetica,sans-Serif" font-size="10.00">Igor::iWidgetTextEdit</text>
<text text-anchor="middle" x="53.5" y="-73.5" font-family="Helvetica,sans-Serif" font-size="10.00">::setMaxTextLength</text>
</g>
<!-- Node2 -->
<g id="node2" class="node"><title>Node2</title>
<g id="a_node2"><a xlink:href="class_igor_1_1i_user_control_file_chooser.html#acbdcb369d7f6dabea5fe1a039319b271" target="_top" xlink:title="Igor::iUserControlFileChooser\l::initGUI">
<polygon fill="white" stroke="black" points="143,-137.5 143,-167.5 286,-167.5 286,-137.5 143,-137.5"/>
<text text-anchor="start" x="151" y="-155.5" font-family="Helvetica,sans-Serif" font-size="10.00">Igor::iUserControlFileChooser</text>
<text text-anchor="middle" x="214.5" y="-144.5" font-family="Helvetica,sans-Serif" font-size="10.00">::initGUI</text>
</a>
</g>
</g>
<!-- Node1&#45;&gt;Node2 -->
<g id="edge1" class="edge"><title>Node1&#45;&gt;Node2</title>
<path fill="none" stroke="midnightblue" d="M89.3109,-101.647C105.363,-110.503 124.847,-120.65 143,-128.5 150.239,-131.63 158.031,-134.632 165.702,-137.388"/>
<polygon fill="midnightblue" stroke="midnightblue" points="90.7293,-98.4304 80.2921,-96.6094 87.3156,-104.542 90.7293,-98.4304"/>
</g>
<!-- Node5 -->
<g id="node5" class="node"><title>Node5</title>
<g id="a_node5"><a xlink:href="class_user_control_material.html#a45610f92ae0ae41d9da8fce2aa7bec4b" target="_top" xlink:title="UserControlMaterial\l::initGUI">
<polygon fill="white" stroke="black" points="163.5,-88.5 163.5,-118.5 265.5,-118.5 265.5,-88.5 163.5,-88.5"/>
<text text-anchor="start" x="171.5" y="-106.5" font-family="Helvetica,sans-Serif" font-size="10.00">UserControlMaterial</text>
<text text-anchor="middle" x="214.5" y="-95.5" font-family="Helvetica,sans-Serif" font-size="10.00">::initGUI</text>
</a>
</g>
</g>
<!-- Node1&#45;&gt;Node5 -->
<g id="edge4" class="edge"><title>Node1&#45;&gt;Node5</title>
<path fill="none" stroke="midnightblue" d="M116.985,-90.1458C132.411,-92.2802 148.734,-94.5387 163.48,-96.579"/>
<polygon fill="midnightblue" stroke="midnightblue" points="117.389,-86.6683 107.003,-88.7646 116.429,-93.6022 117.389,-86.6683"/>
</g>
<!-- Node6 -->
<g id="node6" class="node"><title>Node6</title>
<g id="a_node6"><a xlink:href="class_user_control_node.html#a0e88553b48518b283b7ba29851af8334" target="_top" xlink:title="UserControlNode::initGUI">
<polygon fill="white" stroke="black" points="152,-50 152,-69 277,-69 277,-50 152,-50"/>
<text text-anchor="middle" x="214.5" y="-57" font-family="Helvetica,sans-Serif" font-size="10.00">UserControlNode::initGUI</text>
</a>
</g>
</g>
<!-- Node1&#45;&gt;Node6 -->
<g id="edge5" class="edge"><title>Node1&#45;&gt;Node6</title>
<path fill="none" stroke="midnightblue" d="M116.959,-72.8579C128.464,-71.266 140.468,-69.6051 151.946,-68.017"/>
<polygon fill="midnightblue" stroke="midnightblue" points="116.429,-69.3978 107.003,-74.2354 117.389,-76.3317 116.429,-69.3978"/>
</g>
<!-- Node7 -->
<g id="node7" class="node"><title>Node7</title>
<g id="a_node7"><a xlink:href="class_user_control_transformation.html#a78f585dbaf9da6958bacb936feefcb48" target="_top" xlink:title="UserControlTransformation\l::createTextEdit">
<polygon fill="white" stroke="black" points="149,-0.5 149,-30.5 280,-30.5 280,-0.5 149,-0.5"/>
<text text-anchor="start" x="157" y="-18.5" font-family="Helvetica,sans-Serif" font-size="10.00">UserControlTransformation</text>
<text text-anchor="middle" x="214.5" y="-7.5" font-family="Helvetica,sans-Serif" font-size="10.00">::createTextEdit</text>
</a>
</g>
</g>
<!-- Node1&#45;&gt;Node7 -->
<g id="edge6" class="edge"><title>Node1&#45;&gt;Node7</title>
<path fill="none" stroke="midnightblue" d="M94.3814,-62.0648C109.476,-54.9632 126.9,-47.0675 143,-40.5 151.297,-37.1156 160.243,-33.7394 168.885,-30.6129"/>
<polygon fill="midnightblue" stroke="midnightblue" points="92.8513,-58.9167 85.3164,-66.3649 95.8515,-65.2412 92.8513,-58.9167"/>
</g>
<!-- Node3 -->
<g id="node3" class="node"><title>Node3</title>
<g id="a_node3"><a xlink:href="class_igor_1_1i_user_control_file_chooser.html#a5d8f62c79b5df55c4f6c9ad6b1ed52c7" target="_top" xlink:title="Igor::iUserControlFileChooser\l::iUserControlFileChooser">
<polygon fill="white" stroke="black" points="322,-137.5 322,-167.5 465,-167.5 465,-137.5 322,-137.5"/>
<text text-anchor="start" x="330" y="-155.5" font-family="Helvetica,sans-Serif" font-size="10.00">Igor::iUserControlFileChooser</text>
<text text-anchor="middle" x="393.5" y="-144.5" font-family="Helvetica,sans-Serif" font-size="10.00">::iUserControlFileChooser</text>
</a>
</g>
</g>
<!-- Node2&#45;&gt;Node3 -->
<g id="edge2" class="edge"><title>Node2&#45;&gt;Node3</title>
<path fill="none" stroke="midnightblue" d="M296.494,-152.5C304.973,-152.5 313.544,-152.5 321.894,-152.5"/>
<polygon fill="midnightblue" stroke="midnightblue" points="296.218,-149 286.218,-152.5 296.218,-156 296.218,-149"/>
</g>
<!-- Node4 -->
<g id="node4" class="node"><title>Node4</title>
<g id="a_node4"><a xlink:href="class_igor_1_1i_user_control_file_chooser.html#a6e0a7af39998d6e3dfb1f24ae499fa03" target="_top" xlink:title="Igor::iUserControlFileChooser\l::createInstance">
<polygon fill="white" stroke="black" points="501,-137.5 501,-167.5 644,-167.5 644,-137.5 501,-137.5"/>
<text text-anchor="start" x="509" y="-155.5" font-family="Helvetica,sans-Serif" font-size="10.00">Igor::iUserControlFileChooser</text>
<text text-anchor="middle" x="572.5" y="-144.5" font-family="Helvetica,sans-Serif" font-size="10.00">::createInstance</text>
</a>
</g>
</g>
<!-- Node3&#45;&gt;Node4 -->
<g id="edge3" class="edge"><title>Node3&#45;&gt;Node4</title>
<path fill="none" stroke="midnightblue" d="M475.494,-152.5C483.973,-152.5 492.544,-152.5 500.894,-152.5"/>
<polygon fill="midnightblue" stroke="midnightblue" points="475.218,-149 465.218,-152.5 475.218,-156 475.218,-149"/>
</g>
</g>
</svg>
