<?xml version="1.0" encoding="UTF-8" standalone="no"?>
<!DOCTYPE svg PUBLIC "-//W3C//DTD SVG 1.1//EN"
 "http://www.w3.org/Graphics/SVG/1.1/DTD/svg11.dtd">
<!-- Generated by graphviz version 2.38.0 (20140413.2041)
 -->
<!-- Title: IgorAux::iaGradient::getValue Pages: 1 -->
<svg width="288pt" height="176pt"
 viewBox="0.00 0.00 288.00 176.00" xmlns="http://www.w3.org/2000/svg" xmlns:xlink="http://www.w3.org/1999/xlink">
<g id="graph0" class="graph" transform="scale(1 1) rotate(0) translate(4 172)">
<title>IgorAux::iaGradient::getValue</title>
<polygon fill="white" stroke="none" points="-4,4 -4,-172 284,-172 284,4 -4,4"/>
<!-- Node1 -->
<g id="node1" class="node"><title>Node1</title>
<polygon fill="#bfbfbf" stroke="black" points="0,-71.5 0,-101.5 100,-101.5 100,-71.5 0,-71.5"/>
<text text-anchor="start" x="8" y="-89.5" font-family="Helvetica,sans-Serif" font-size="10.00">IgorAux::iaGradient</text>
<text text-anchor="middle" x="50" y="-78.5" font-family="Helvetica,sans-Serif" font-size="10.00">::getValue</text>
</g>
<!-- Node2 -->
<g id="node2" class="node"><title>Node2</title>
<g id="a_node2"><a xlink:href="class_igor_1_1i_dialog_color_gradient.html#aa98de9785ec066517c1f9260b79f6bce" target="_top" xlink:title="Igor::iDialogColorGradient\l::onPositionChanged">
<polygon fill="white" stroke="black" points="144.5,-137.5 144.5,-167.5 271.5,-167.5 271.5,-137.5 144.5,-137.5"/>
<text text-anchor="start" x="152.5" y="-155.5" font-family="Helvetica,sans-Serif" font-size="10.00">Igor::iDialogColorGradient</text>
<text text-anchor="middle" x="208" y="-144.5" font-family="Helvetica,sans-Serif" font-size="10.00">::onPositionChanged</text>
</a>
</g>
</g>
<!-- Node1&#45;&gt;Node2 -->
<g id="edge1" class="edge"><title>Node1&#45;&gt;Node2</title>
<path fill="none" stroke="midnightblue" d="M89.29,-106.083C103.765,-113.19 120.487,-121.051 136,-127.5 144.206,-130.911 153.061,-134.274 161.643,-137.374"/>
<polygon fill="midnightblue" stroke="midnightblue" points="90.652,-102.852 80.1381,-101.545 87.5418,-109.123 90.652,-102.852"/>
</g>
<!-- Node3 -->
<g id="node3" class="node"><title>Node3</title>
<g id="a_node3"><a xlink:href="class_igor_1_1i_renderer.html#afc75af5b67dede4802299530506ed5c2" target="_top" xlink:title="Igor::iRenderer::drawParticles">
<polygon fill="white" stroke="black" points="136,-99 136,-118 280,-118 280,-99 136,-99"/>
<text text-anchor="middle" x="208" y="-106" font-family="Helvetica,sans-Serif" font-size="10.00">Igor::iRenderer::drawParticles</text>
</a>
</g>
</g>
<!-- Node1&#45;&gt;Node3 -->
<g id="edge2" class="edge"><title>Node1&#45;&gt;Node3</title>
<path fill="none" stroke="midnightblue" d="M110.456,-94.8848C119.927,-96.2205 129.785,-97.6107 139.427,-98.9704"/>
<polygon fill="midnightblue" stroke="midnightblue" points="110.75,-91.3918 100.359,-93.4609 109.773,-98.3232 110.75,-91.3918"/>
</g>
<!-- Node4 -->
<g id="node4" class="node"><title>Node4</title>
<g id="a_node4"><a xlink:href="class_igor_1_1i_renderer.html#a7d1dbb68fd7efb2c3f5605ba49060d5f" target="_top" xlink:title="Igor::iRenderer::drawVelocity\lOrientedParticles">
<polygon fill="white" stroke="black" points="137.5,-49.5 137.5,-79.5 278.5,-79.5 278.5,-49.5 137.5,-49.5"/>
<text text-anchor="start" x="145.5" y="-67.5" font-family="Helvetica,sans-Serif" font-size="10.00">Igor::iRenderer::drawVelocity</text>
<text text-anchor="middle" x="208" y="-56.5" font-family="Helvetica,sans-Serif" font-size="10.00">OrientedParticles</text>
</a>
</g>
</g>
<!-- Node1&#45;&gt;Node4 -->
<g id="edge3" class="edge"><title>Node1&#45;&gt;Node4</title>
<path fill="none" stroke="midnightblue" d="M110.512,-78.1072C119.316,-76.8656 128.454,-75.577 137.44,-74.3097"/>
<polygon fill="midnightblue" stroke="midnightblue" points="109.773,-74.6768 100.359,-79.5391 110.75,-81.6082 109.773,-74.6768"/>
</g>
<!-- Node5 -->
<g id="node5" class="node"><title>Node5</title>
<g id="a_node5"><a xlink:href="class_igor_1_1i_widget_default_theme.html#a0390cd346e1ba6d34475f287df8ad01c" target="_top" xlink:title="Igor::iWidgetDefaultTheme\l::drawGradient">
<polygon fill="white" stroke="black" points="142.5,-0.5 142.5,-30.5 273.5,-30.5 273.5,-0.5 142.5,-0.5"/>
<text text-anchor="start" x="150.5" y="-18.5" font-family="Helvetica,sans-Serif" font-size="10.00">Igor::iWidgetDefaultTheme</text>
<text text-anchor="middle" x="208" y="-7.5" font-family="Helvetica,sans-Serif" font-size="10.00">::drawGradient</text>
</a>
</g>
</g>
<!-- Node1&#45;&gt;Node5 -->
<g id="edge4" class="edge"><title>Node1&#45;&gt;Node5</title>
<path fill="none" stroke="midnightblue" d="M85.5425,-66.2029C100.742,-57.6939 118.978,-48.0465 136,-40.5 143.885,-37.0043 152.423,-33.6494 160.754,-30.5951"/>
<polygon fill="midnightblue" stroke="midnightblue" points="83.4818,-63.3478 76.5092,-71.3248 86.9345,-69.437 83.4818,-63.3478"/>
</g>
</g>
</svg>
