<?xml version="1.0" encoding="UTF-8" standalone="no"?>
<!DOCTYPE svg PUBLIC "-//W3C//DTD SVG 1.1//EN"
 "http://www.w3.org/Graphics/SVG/1.1/DTD/svg11.dtd">
<!-- Generated by graphviz version 2.38.0 (20140413.2041)
 -->
<!-- Title: IgorAux::iaState::getID Pages: 1 -->
<svg width="282pt" height="137pt"
 viewBox="0.00 0.00 282.00 137.00" xmlns="http://www.w3.org/2000/svg" xmlns:xlink="http://www.w3.org/1999/xlink">
<g id="graph0" class="graph" transform="scale(1 1) rotate(0) translate(4 133)">
<title>IgorAux::iaState::getID</title>
<polygon fill="white" stroke="none" points="-4,4 -4,-133 278,-133 278,4 -4,4"/>
<!-- Node1 -->
<g id="node1" class="node"><title>Node1</title>
<polygon fill="#bfbfbf" stroke="black" points="0,-55 0,-74 115,-74 115,-55 0,-55"/>
<text text-anchor="middle" x="57.5" y="-62" font-family="Helvetica,sans-Serif" font-size="10.00">IgorAux::iaState::getID</text>
</g>
<!-- Node2 -->
<g id="node2" class="node"><title>Node2</title>
<g id="a_node2"><a xlink:href="class_igor_aux_1_1ia_state_machine.html#abd96422aa345dea5863a8e02e9533a41" target="_top" xlink:title="IgorAux::iaStateMachine\l::getCurrentState">
<polygon fill="white" stroke="black" points="151,-98.5 151,-128.5 274,-128.5 274,-98.5 151,-98.5"/>
<text text-anchor="start" x="159" y="-116.5" font-family="Helvetica,sans-Serif" font-size="10.00">IgorAux::iaStateMachine</text>
<text text-anchor="middle" x="212.5" y="-105.5" font-family="Helvetica,sans-Serif" font-size="10.00">::getCurrentState</text>
</a>
</g>
</g>
<!-- Node1&#45;&gt;Node2 -->
<g id="edge1" class="edge"><title>Node1&#45;&gt;Node2</title>
<path fill="none" stroke="midnightblue" d="M97.9407,-77.1313C118.278,-83.6446 143.223,-91.6334 164.548,-98.463"/>
<polygon fill="midnightblue" stroke="midnightblue" points="98.9542,-73.7809 88.3631,-74.064 96.8191,-80.4473 98.9542,-73.7809"/>
</g>
<!-- Node3 -->
<g id="node3" class="node"><title>Node3</title>
<g id="a_node3"><a xlink:href="class_igor_aux_1_1ia_state_machine.html#a81a2f35a58ce356965154324d4459857" target="_top" xlink:title="IgorAux::iaStateMachine\l::createState">
<polygon fill="white" stroke="black" points="151,-49.5 151,-79.5 274,-79.5 274,-49.5 151,-49.5"/>
<text text-anchor="start" x="159" y="-67.5" font-family="Helvetica,sans-Serif" font-size="10.00">IgorAux::iaStateMachine</text>
<text text-anchor="middle" x="212.5" y="-56.5" font-family="Helvetica,sans-Serif" font-size="10.00">::createState</text>
</a>
</g>
</g>
<!-- Node1&#45;&gt;Node3 -->
<g id="edge2" class="edge"><title>Node1&#45;&gt;Node3</title>
<path fill="none" stroke="midnightblue" d="M125.288,-64.5C133.782,-64.5 142.438,-64.5 150.829,-64.5"/>
<polygon fill="midnightblue" stroke="midnightblue" points="125.037,-61.0001 115.037,-64.5 125.037,-68.0001 125.037,-61.0001"/>
</g>
<!-- Node4 -->
<g id="node4" class="node"><title>Node4</title>
<g id="a_node4"><a xlink:href="class_igor_aux_1_1ia_state_machine.html#ad884bcc26a5262c7c82ca505065be81b" target="_top" xlink:title="IgorAux::iaStateMachine\l::doTransition">
<polygon fill="white" stroke="black" points="151,-0.5 151,-30.5 274,-30.5 274,-0.5 151,-0.5"/>
<text text-anchor="start" x="159" y="-18.5" font-family="Helvetica,sans-Serif" font-size="10.00">IgorAux::iaStateMachine</text>
<text text-anchor="middle" x="212.5" y="-7.5" font-family="Helvetica,sans-Serif" font-size="10.00">::doTransition</text>
</a>
</g>
</g>
<!-- Node1&#45;&gt;Node4 -->
<g id="edge3" class="edge"><title>Node1&#45;&gt;Node4</title>
<path fill="none" stroke="midnightblue" d="M97.9407,-51.8687C118.278,-45.3554 143.223,-37.3666 164.548,-30.537"/>
<polygon fill="midnightblue" stroke="midnightblue" points="96.8191,-48.5527 88.3631,-54.936 98.9542,-55.2191 96.8191,-48.5527"/>
</g>
</g>
</svg>
