<?xml version="1.0" encoding="UTF-8" standalone="no"?>
<!DOCTYPE svg PUBLIC "-//W3C//DTD SVG 1.1//EN"
 "http://www.w3.org/Graphics/SVG/1.1/DTD/svg11.dtd">
<!-- Generated by graphviz version 2.38.0 (20140413.2041)
 -->
<!-- Title: IgorAux::iaRLE::setSize Pages: 1 -->
<svg width="421pt" height="39pt"
 viewBox="0.00 0.00 421.00 39.00" xmlns="http://www.w3.org/2000/svg" xmlns:xlink="http://www.w3.org/1999/xlink">
<g id="graph0" class="graph" transform="scale(1 1) rotate(0) translate(4 35)">
<title>IgorAux::iaRLE::setSize</title>
<polygon fill="white" stroke="none" points="-4,4 -4,-35 417,-35 417,4 -4,4"/>
<!-- Node9 -->
<g id="node1" class="node"><title>Node9</title>
<g id="a_node1"><a xlink:title=" ">
<polygon fill="#bfbfbf" stroke="black" points="292,-6 292,-25 413,-25 413,-6 292,-6"/>
<text text-anchor="middle" x="352.5" y="-13" font-family="Helvetica,sans-Serif" font-size="10.00">IgorAux::iaRLE::setSize</text>
</a>
</g>
</g>
<!-- Node10 -->
<g id="node2" class="node"><title>Node10</title>
<g id="a_node2"><a xlink:href="class_igor_1_1i_voxel_data.html#a54303a2852361b51900a0c2cb582a5ed" target="_top" xlink:title=" ">
<polygon fill="white" stroke="black" points="131,-6 131,-25 256,-25 256,-6 131,-6"/>
<text text-anchor="middle" x="193.5" y="-13" font-family="Helvetica,sans-Serif" font-size="10.00">Igor::iVoxelData::initData</text>
</a>
</g>
</g>
<!-- Node9&#45;&gt;Node10 -->
<g id="edge1" class="edge"><title>Node9&#45;&gt;Node10</title>
<path fill="none" stroke="midnightblue" d="M281.509,-15.5C273.08,-15.5 264.52,-15.5 256.221,-15.5"/>
<polygon fill="midnightblue" stroke="midnightblue" points="281.697,-19.0001 291.697,-15.5 281.697,-12.0001 281.697,-19.0001"/>
</g>
<!-- Node11 -->
<g id="node3" class="node"><title>Node11</title>
<g id="a_node3"><a xlink:href="class_igor_1_1i_voxel_terrain.html#a7fbb3ca437a4ea2aacf6a157d09f5753" target="_top" xlink:title=" ">
<polygon fill="white" stroke="black" points="0,-0.5 0,-30.5 95,-30.5 95,-0.5 0,-0.5"/>
<text text-anchor="start" x="8" y="-18.5" font-family="Helvetica,sans-Serif" font-size="10.00">Igor::iVoxelTerrain</text>
<text text-anchor="middle" x="47.5" y="-7.5" font-family="Helvetica,sans-Serif" font-size="10.00">::update</text>
</a>
</g>
</g>
<!-- Node10&#45;&gt;Node11 -->
<g id="edge2" class="edge"><title>Node10&#45;&gt;Node11</title>
<path fill="none" stroke="midnightblue" d="M120.502,-15.5C111.88,-15.5 103.257,-15.5 95.1284,-15.5"/>
<polygon fill="midnightblue" stroke="midnightblue" points="120.595,-19.0001 130.595,-15.5 120.595,-12.0001 120.595,-19.0001"/>
</g>
</g>
</svg>
