<?xml version="1.0" encoding="UTF-8" standalone="no"?>
<!DOCTYPE svg PUBLIC "-//W3C//DTD SVG 1.1//EN"
 "http://www.w3.org/Graphics/SVG/1.1/DTD/svg11.dtd">
<!-- Generated by graphviz version 2.38.0 (20140413.2041)
 -->
<!-- Title: Igor::iWidget::setHorizontalAlignment Pages: 1 -->
<svg width="886pt" height="901pt"
 viewBox="0.00 0.00 886.00 901.00" xmlns="http://www.w3.org/2000/svg" xmlns:xlink="http://www.w3.org/1999/xlink">
<g id="graph0" class="graph" transform="scale(1 1) rotate(0) translate(4 897)">
<title>Igor::iWidget::setHorizontalAlignment</title>
<polygon fill="white" stroke="none" points="-4,4 -4,-897 882,-897 882,4 -4,4"/>
<!-- Node258 -->
<g id="node1" class="node"><title>Node258</title>
<g id="a_node1"><a xlink:title=" ">
<polygon fill="#bfbfbf" stroke="black" points="744,-431.5 744,-461.5 878,-461.5 878,-431.5 744,-431.5"/>
<text text-anchor="start" x="752" y="-449.5" font-family="Helvetica,sans-Serif" font-size="10.00">Igor::iWidget::setHorizontal</text>
<text text-anchor="middle" x="811" y="-438.5" font-family="Helvetica,sans-Serif" font-size="10.00">Alignment</text>
</a>
</g>
</g>
<!-- Node259 -->
<g id="node2" class="node"><title>Node259</title>
<g id="a_node2"><a xlink:href="class_igor_1_1i_dialog_color_chooser.html#a478dcc24d00c3433a4139cd42faca383" target="_top" xlink:title=" ">
<polygon fill="white" stroke="black" points="570,-862.5 570,-892.5 696,-892.5 696,-862.5 570,-862.5"/>
<text text-anchor="start" x="578" y="-880.5" font-family="Helvetica,sans-Serif" font-size="10.00">Igor::iDialogColorChooser</text>
<text text-anchor="middle" x="633" y="-869.5" font-family="Helvetica,sans-Serif" font-size="10.00">::initGUI</text>
</a>
</g>
</g>
<!-- Node258&#45;&gt;Node259 -->
<g id="edge1" class="edge"><title>Node258&#45;&gt;Node259</title>
<path fill="none" stroke="midnightblue" d="M806.883,-471.774C796.556,-551.644 761.073,-796.686 708,-853.5 704.589,-857.152 700.618,-860.249 696.32,-862.876"/>
<polygon fill="midnightblue" stroke="midnightblue" points="810.383,-471.999 808.172,-461.637 803.438,-471.116 810.383,-471.999"/>
</g>
<!-- Node260 -->
<g id="node3" class="node"><title>Node260</title>
<g id="a_node3"><a xlink:href="class_igor_1_1i_dialog_color_gradient.html#a1c09eeb174db894a5e755b8ef13e914f" target="_top" xlink:title=" ">
<polygon fill="white" stroke="black" points="569.5,-813.5 569.5,-843.5 696.5,-843.5 696.5,-813.5 569.5,-813.5"/>
<text text-anchor="start" x="577.5" y="-831.5" font-family="Helvetica,sans-Serif" font-size="10.00">Igor::iDialogColorGradient</text>
<text text-anchor="middle" x="633" y="-820.5" font-family="Helvetica,sans-Serif" font-size="10.00">::initGUI</text>
</a>
</g>
</g>
<!-- Node258&#45;&gt;Node260 -->
<g id="edge2" class="edge"><title>Node258&#45;&gt;Node260</title>
<path fill="none" stroke="midnightblue" d="M810.42,-471.985C810.067,-536.717 800.036,-709.084 708,-804.5 704.624,-807.999 700.735,-810.989 696.543,-813.544"/>
<polygon fill="midnightblue" stroke="midnightblue" points="813.92,-471.859 810.398,-461.867 806.92,-471.874 813.92,-471.859"/>
</g>
<!-- Node261 -->
<g id="node4" class="node"><title>Node261</title>
<g id="a_node4"><a xlink:href="class_igor_1_1i_dialog_decision_box.html#a86e1dc62325ecff2153ea397aef7ca26" target="_top" xlink:title=" ">
<polygon fill="white" stroke="black" points="572,-764.5 572,-794.5 694,-794.5 694,-764.5 572,-764.5"/>
<text text-anchor="start" x="580" y="-782.5" font-family="Helvetica,sans-Serif" font-size="10.00">Igor::iDialogDecisionBox</text>
<text text-anchor="middle" x="633" y="-771.5" font-family="Helvetica,sans-Serif" font-size="10.00">::show</text>
</a>
</g>
</g>
<!-- Node258&#45;&gt;Node261 -->
<g id="edge3" class="edge"><title>Node258&#45;&gt;Node261</title>
<path fill="none" stroke="midnightblue" d="M809.048,-472.033C805.478,-530.538 788.519,-675.4 708,-755.5 703.978,-759.501 699.285,-762.835 694.247,-765.613"/>
<polygon fill="midnightblue" stroke="midnightblue" points="812.554,-472.008 809.585,-461.838 805.564,-471.64 812.554,-472.008"/>
</g>
<!-- Node262 -->
<g id="node5" class="node"><title>Node262</title>
<g id="a_node5"><a xlink:href="class_igor_1_1i_dialog_file_select.html#a50fab6774dd28ac7611b0aef4383c7a4" target="_top" xlink:title=" ">
<polygon fill="white" stroke="black" points="577.5,-715.5 577.5,-745.5 688.5,-745.5 688.5,-715.5 577.5,-715.5"/>
<text text-anchor="start" x="585.5" y="-733.5" font-family="Helvetica,sans-Serif" font-size="10.00">Igor::iDialogFileSelect</text>
<text text-anchor="middle" x="633" y="-722.5" font-family="Helvetica,sans-Serif" font-size="10.00">::addToFileGrid</text>
</a>
</g>
</g>
<!-- Node258&#45;&gt;Node262 -->
<g id="edge4" class="edge"><title>Node258&#45;&gt;Node262</title>
<path fill="none" stroke="midnightblue" d="M807.232,-471.829C800.251,-523.422 777.233,-641.316 708,-706.5 702.493,-711.685 695.855,-715.749 688.843,-718.936"/>
<polygon fill="midnightblue" stroke="midnightblue" points="810.745,-471.949 808.522,-461.59 803.799,-471.074 810.745,-471.949"/>
</g>
<!-- Node263 -->
<g id="node6" class="node"><title>Node263</title>
<g id="a_node6"><a xlink:href="class_igor_1_1i_dialog_graph.html#a5bab24dca6ef57e9aee12a304b0b5c69" target="_top" xlink:title=" ">
<polygon fill="white" stroke="black" points="586,-666.5 586,-696.5 680,-696.5 680,-666.5 586,-666.5"/>
<text text-anchor="start" x="594" y="-684.5" font-family="Helvetica,sans-Serif" font-size="10.00">Igor::iDialogGraph</text>
<text text-anchor="middle" x="633" y="-673.5" font-family="Helvetica,sans-Serif" font-size="10.00">::initGUI</text>
</a>
</g>
</g>
<!-- Node258&#45;&gt;Node263 -->
<g id="edge5" class="edge"><title>Node258&#45;&gt;Node263</title>
<path fill="none" stroke="midnightblue" d="M804.673,-471.64C794.049,-515.669 766.08,-606.861 708,-657.5 700.06,-664.423 690.088,-669.355 680.06,-672.868"/>
<polygon fill="midnightblue" stroke="midnightblue" points="808.114,-472.291 806.954,-461.76 801.294,-470.716 808.114,-472.291"/>
</g>
<!-- Node264 -->
<g id="node7" class="node"><title>Node264</title>
<g id="a_node7"><a xlink:href="class_igor_1_1i_dialog_menu.html#aa5946ba67b4f8233644e48873e5c53b3" target="_top" xlink:title=" ">
<polygon fill="white" stroke="black" points="584,-617.5 584,-647.5 682,-647.5 682,-617.5 584,-617.5"/>
<text text-anchor="start" x="592" y="-635.5" font-family="Helvetica,sans-Serif" font-size="10.00">Igor::iDialogMenu::</text>
<text text-anchor="middle" x="633" y="-624.5" font-family="Helvetica,sans-Serif" font-size="10.00">initGUI</text>
</a>
</g>
</g>
<!-- Node258&#45;&gt;Node264 -->
<g id="edge6" class="edge"><title>Node258&#45;&gt;Node264</title>
<path fill="none" stroke="midnightblue" d="M799.851,-470.707C784.558,-504.512 752.578,-565.825 708,-602.5 700.399,-608.753 691.322,-613.846 682.173,-617.94"/>
<polygon fill="midnightblue" stroke="midnightblue" points="803.057,-472.113 803.889,-461.551 796.652,-469.289 803.057,-472.113"/>
</g>
<!-- Node265 -->
<g id="node8" class="node"><title>Node265</title>
<g id="a_node8"><a xlink:href="class_igor_1_1i_user_control_color_chooser.html#a350674922c28c48ed8d4f3bf45a39fdc" target="_top" xlink:title=" ">
<polygon fill="white" stroke="black" points="372,-529.5 372,-559.5 522,-559.5 522,-529.5 372,-529.5"/>
<text text-anchor="start" x="380" y="-547.5" font-family="Helvetica,sans-Serif" font-size="10.00">Igor::iUserControlColorChooser</text>
<text text-anchor="middle" x="447" y="-536.5" font-family="Helvetica,sans-Serif" font-size="10.00">::initGUI</text>
</a>
</g>
</g>
<!-- Node258&#45;&gt;Node265 -->
<g id="edge7" class="edge"><title>Node258&#45;&gt;Node265</title>
<path fill="none" stroke="midnightblue" d="M798.306,-470.805C782.511,-500.464 751.273,-549.168 708,-569.5 634.944,-603.825 537.782,-578.33 485.356,-559.608"/>
<polygon fill="midnightblue" stroke="midnightblue" points="801.422,-472.397 802.887,-461.904 795.198,-469.194 801.422,-472.397"/>
</g>
<!-- Node268 -->
<g id="node11" class="node"><title>Node268</title>
<g id="a_node11"><a xlink:href="class_igor_1_1i_user_control_color_chooser.html#a32f721a060e9d1e08479db2f679a3a67" target="_top" xlink:title=" ">
<polygon fill="white" stroke="black" points="558,-529.5 558,-559.5 708,-559.5 708,-529.5 558,-529.5"/>
<text text-anchor="start" x="566" y="-547.5" font-family="Helvetica,sans-Serif" font-size="10.00">Igor::iUserControlColorChooser</text>
<text text-anchor="middle" x="633" y="-536.5" font-family="Helvetica,sans-Serif" font-size="10.00">::initExpanded</text>
</a>
</g>
</g>
<!-- Node258&#45;&gt;Node268 -->
<g id="edge10" class="edge"><title>Node258&#45;&gt;Node268</title>
<path fill="none" stroke="midnightblue" d="M784.791,-468.269C764.992,-484.474 736.152,-506.178 708,-520.5 701.5,-523.807 694.449,-526.787 687.37,-529.43"/>
<polygon fill="midnightblue" stroke="midnightblue" points="787.242,-470.783 792.694,-461.699 782.766,-465.401 787.242,-470.783"/>
</g>
<!-- Node269 -->
<g id="node12" class="node"><title>Node269</title>
<g id="a_node12"><a xlink:href="class_igor_1_1i_user_control_color_chooser.html#a1e744b2e83061214456c18529e2a7d1f" target="_top" xlink:title=" ">
<polygon fill="white" stroke="black" points="558,-480.5 558,-510.5 708,-510.5 708,-480.5 558,-480.5"/>
<text text-anchor="start" x="566" y="-498.5" font-family="Helvetica,sans-Serif" font-size="10.00">Igor::iUserControlColorChooser</text>
<text text-anchor="middle" x="633" y="-487.5" font-family="Helvetica,sans-Serif" font-size="10.00">::initCollapsed</text>
</a>
</g>
</g>
<!-- Node258&#45;&gt;Node269 -->
<g id="edge12" class="edge"><title>Node258&#45;&gt;Node269</title>
<path fill="none" stroke="midnightblue" d="M745.989,-464.321C726.986,-469.612 706.368,-475.352 688.063,-480.448"/>
<polygon fill="midnightblue" stroke="midnightblue" points="747.063,-467.655 755.758,-461.601 745.186,-460.912 747.063,-467.655"/>
</g>
<!-- Node270 -->
<g id="node13" class="node"><title>Node270</title>
<g id="a_node13"><a xlink:href="class_user_control_emitter.html#abf148c688ae8b1068607f516cdadc289" target="_top" xlink:title=" ">
<polygon fill="white" stroke="black" points="583.5,-431.5 583.5,-461.5 682.5,-461.5 682.5,-431.5 583.5,-431.5"/>
<text text-anchor="start" x="591.5" y="-449.5" font-family="Helvetica,sans-Serif" font-size="10.00">UserControlEmitter</text>
<text text-anchor="middle" x="633" y="-438.5" font-family="Helvetica,sans-Serif" font-size="10.00">::initGUI</text>
</a>
</g>
</g>
<!-- Node258&#45;&gt;Node270 -->
<g id="edge14" class="edge"><title>Node258&#45;&gt;Node270</title>
<path fill="none" stroke="midnightblue" d="M733.815,-446.5C716.42,-446.5 698.398,-446.5 682.534,-446.5"/>
<polygon fill="midnightblue" stroke="midnightblue" points="733.963,-450 743.963,-446.5 733.963,-443 733.963,-450"/>
</g>
<!-- Node271 -->
<g id="node14" class="node"><title>Node271</title>
<g id="a_node14"><a xlink:href="class_user_control_graph_view.html#afb737ca9c452b2284871b693addd2e33" target="_top" xlink:title=" ">
<polygon fill="white" stroke="black" points="575.5,-382.5 575.5,-412.5 690.5,-412.5 690.5,-382.5 575.5,-382.5"/>
<text text-anchor="start" x="583.5" y="-400.5" font-family="Helvetica,sans-Serif" font-size="10.00">UserControlGraphView</text>
<text text-anchor="middle" x="633" y="-389.5" font-family="Helvetica,sans-Serif" font-size="10.00">::initGUI</text>
</a>
</g>
</g>
<!-- Node258&#45;&gt;Node271 -->
<g id="edge15" class="edge"><title>Node258&#45;&gt;Node271</title>
<path fill="none" stroke="midnightblue" d="M745.989,-428.679C726.986,-423.388 706.368,-417.648 688.063,-412.552"/>
<polygon fill="midnightblue" stroke="midnightblue" points="745.186,-432.088 755.758,-431.399 747.063,-425.345 745.186,-432.088"/>
</g>
<!-- Node272 -->
<g id="node15" class="node"><title>Node272</title>
<g id="a_node15"><a xlink:href="class_user_control_graph_view.html#ab922991d073ecac1a92ea3e040b8f74d" target="_top" xlink:title=" ">
<polygon fill="white" stroke="black" points="575.5,-333.5 575.5,-363.5 690.5,-363.5 690.5,-333.5 575.5,-333.5"/>
<text text-anchor="start" x="583.5" y="-351.5" font-family="Helvetica,sans-Serif" font-size="10.00">UserControlGraphView</text>
<text text-anchor="middle" x="633" y="-340.5" font-family="Helvetica,sans-Serif" font-size="10.00">::preOrderVisit</text>
</a>
</g>
</g>
<!-- Node258&#45;&gt;Node272 -->
<g id="edge16" class="edge"><title>Node258&#45;&gt;Node272</title>
<path fill="none" stroke="midnightblue" d="M784.331,-424.853C764.493,-408.961 735.811,-387.749 708,-373.5 700.879,-369.852 693.11,-366.557 685.37,-363.647"/>
<polygon fill="midnightblue" stroke="midnightblue" points="782.296,-427.709 792.263,-431.302 786.712,-422.278 782.296,-427.709"/>
</g>
<!-- Node273 -->
<g id="node16" class="node"><title>Node273</title>
<g id="a_node16"><a xlink:href="class_user_control_material.html#a45610f92ae0ae41d9da8fce2aa7bec4b" target="_top" xlink:title=" ">
<polygon fill="white" stroke="black" points="582,-284.5 582,-314.5 684,-314.5 684,-284.5 582,-284.5"/>
<text text-anchor="start" x="590" y="-302.5" font-family="Helvetica,sans-Serif" font-size="10.00">UserControlMaterial</text>
<text text-anchor="middle" x="633" y="-291.5" font-family="Helvetica,sans-Serif" font-size="10.00">::initGUI</text>
</a>
</g>
</g>
<!-- Node258&#45;&gt;Node273 -->
<g id="edge17" class="edge"><title>Node258&#45;&gt;Node273</title>
<path fill="none" stroke="midnightblue" d="M795.978,-422.89C778.588,-395.528 746.483,-350.835 708,-324.5 700.838,-319.599 692.632,-315.586 684.351,-312.323"/>
<polygon fill="midnightblue" stroke="midnightblue" points="793.049,-424.807 801.3,-431.454 798.994,-421.113 793.049,-424.807"/>
</g>
<!-- Node274 -->
<g id="node17" class="node"><title>Node274</title>
<g id="a_node17"><a xlink:href="class_user_control_material_view.html#af00d3b18c83b4335ffa14bd0b1324dbc" target="_top" xlink:title=" ">
<polygon fill="white" stroke="black" points="571.5,-235.5 571.5,-265.5 694.5,-265.5 694.5,-235.5 571.5,-235.5"/>
<text text-anchor="start" x="579.5" y="-253.5" font-family="Helvetica,sans-Serif" font-size="10.00">UserControlMaterialView</text>
<text text-anchor="middle" x="633" y="-242.5" font-family="Helvetica,sans-Serif" font-size="10.00">::initGUI</text>
</a>
</g>
</g>
<!-- Node258&#45;&gt;Node274 -->
<g id="edge18" class="edge"><title>Node258&#45;&gt;Node274</title>
<path fill="none" stroke="midnightblue" d="M801.605,-421.742C787.815,-384.704 756.917,-315.007 708,-275.5 703.253,-271.666 697.888,-268.407 692.269,-265.64"/>
<polygon fill="midnightblue" stroke="midnightblue" points="798.356,-423.051 805.041,-431.271 804.941,-420.677 798.356,-423.051"/>
</g>
<!-- Node275 -->
<g id="node18" class="node"><title>Node275</title>
<g id="a_node18"><a xlink:href="class_user_control_material_view.html#af2ea093914c42bcd7bb48c11288089c1" target="_top" xlink:title=" ">
<polygon fill="white" stroke="black" points="571.5,-186.5 571.5,-216.5 694.5,-216.5 694.5,-186.5 571.5,-186.5"/>
<text text-anchor="start" x="579.5" y="-204.5" font-family="Helvetica,sans-Serif" font-size="10.00">UserControlMaterialView</text>
<text text-anchor="middle" x="633" y="-193.5" font-family="Helvetica,sans-Serif" font-size="10.00">::refresh</text>
</a>
</g>
</g>
<!-- Node258&#45;&gt;Node275 -->
<g id="edge19" class="edge"><title>Node258&#45;&gt;Node275</title>
<path fill="none" stroke="midnightblue" d="M805.142,-421.332C795.091,-375.942 767.763,-280.116 708,-226.5 703.66,-222.606 698.69,-219.315 693.424,-216.534"/>
<polygon fill="midnightblue" stroke="midnightblue" points="801.742,-422.169 807.235,-431.229 808.591,-420.721 801.742,-422.169"/>
</g>
<!-- Node276 -->
<g id="node19" class="node"><title>Node276</title>
<g id="a_node19"><a xlink:href="class_user_control_mesh.html#a792507fb628b4b4ead5787f60ec6e2e2" target="_top" xlink:title=" ">
<polygon fill="white" stroke="black" points="569.5,-148 569.5,-167 696.5,-167 696.5,-148 569.5,-148"/>
<text text-anchor="middle" x="633" y="-155" font-family="Helvetica,sans-Serif" font-size="10.00">UserControlMesh::initGUI</text>
</a>
</g>
</g>
<!-- Node258&#45;&gt;Node276 -->
<g id="edge20" class="edge"><title>Node258&#45;&gt;Node276</title>
<path fill="none" stroke="midnightblue" d="M807.903,-421.119C802.108,-367.82 781.083,-243.719 708,-177.5 703.266,-173.211 697.706,-169.827 691.796,-167.16"/>
<polygon fill="midnightblue" stroke="midnightblue" points="804.45,-421.766 808.921,-431.371 811.416,-421.074 804.45,-421.766"/>
</g>
<!-- Node277 -->
<g id="node20" class="node"><title>Node277</title>
<g id="a_node20"><a xlink:href="class_user_control_particle_system.html#a40bcd13d702c6d38e59a6509f0c690ff" target="_top" xlink:title=" ">
<polygon fill="white" stroke="black" points="566,-98.5 566,-128.5 700,-128.5 700,-98.5 566,-98.5"/>
<text text-anchor="start" x="574" y="-116.5" font-family="Helvetica,sans-Serif" font-size="10.00">UserControlParticleSystem</text>
<text text-anchor="middle" x="633" y="-105.5" font-family="Helvetica,sans-Serif" font-size="10.00">::initGUI</text>
</a>
</g>
</g>
<!-- Node258&#45;&gt;Node277 -->
<g id="edge21" class="edge"><title>Node258&#45;&gt;Node277</title>
<path fill="none" stroke="midnightblue" d="M808.954,-421.115C805.184,-362.938 787.835,-218.815 708,-138.5 704.176,-134.653 699.74,-131.398 694.978,-128.643"/>
<polygon fill="midnightblue" stroke="midnightblue" points="805.468,-421.466 809.527,-431.253 812.457,-421.071 805.468,-421.466"/>
</g>
<!-- Node278 -->
<g id="node21" class="node"><title>Node278</title>
<g id="a_node21"><a xlink:href="class_user_control_transformation.html#a78f585dbaf9da6958bacb936feefcb48" target="_top" xlink:title=" ">
<polygon fill="white" stroke="black" points="567.5,-49.5 567.5,-79.5 698.5,-79.5 698.5,-49.5 567.5,-49.5"/>
<text text-anchor="start" x="575.5" y="-67.5" font-family="Helvetica,sans-Serif" font-size="10.00">UserControlTransformation</text>
<text text-anchor="middle" x="633" y="-56.5" font-family="Helvetica,sans-Serif" font-size="10.00">::createTextEdit</text>
</a>
</g>
</g>
<!-- Node258&#45;&gt;Node278 -->
<g id="edge22" class="edge"><title>Node258&#45;&gt;Node278</title>
<path fill="none" stroke="midnightblue" d="M810.327,-421.151C809.756,-356.751 799.252,-185.193 708,-89.5 704.35,-85.6726 700.095,-82.4312 695.504,-79.686"/>
<polygon fill="midnightblue" stroke="midnightblue" points="806.827,-421.221 810.341,-431.216 813.827,-421.212 806.827,-421.221"/>
</g>
<!-- Node279 -->
<g id="node22" class="node"><title>Node279</title>
<g id="a_node22"><a xlink:href="class_user_control_transformation.html#a5f920b175524b5e23698ebe1da531d48" target="_top" xlink:title=" ">
<polygon fill="white" stroke="black" points="567.5,-0.5 567.5,-30.5 698.5,-30.5 698.5,-0.5 567.5,-0.5"/>
<text text-anchor="start" x="575.5" y="-18.5" font-family="Helvetica,sans-Serif" font-size="10.00">UserControlTransformation</text>
<text text-anchor="middle" x="633" y="-7.5" font-family="Helvetica,sans-Serif" font-size="10.00">::initGUI</text>
</a>
</g>
</g>
<!-- Node258&#45;&gt;Node279 -->
<g id="edge23" class="edge"><title>Node258&#45;&gt;Node279</title>
<path fill="none" stroke="midnightblue" d="M806.846,-421.314C796.406,-341.719 760.621,-97.4892 708,-40.5 704.412,-36.6144 700.2,-33.3325 695.637,-30.5605"/>
<polygon fill="midnightblue" stroke="midnightblue" points="803.398,-421.946 808.15,-431.416 810.34,-421.05 803.398,-421.946"/>
</g>
<!-- Node266 -->
<g id="node9" class="node"><title>Node266</title>
<g id="a_node9"><a xlink:href="class_igor_1_1i_user_control_color_chooser.html#a3e12c44e1c409cc8f785c67eda400a85" target="_top" xlink:title=" ">
<polygon fill="white" stroke="black" points="186,-529.5 186,-559.5 336,-559.5 336,-529.5 186,-529.5"/>
<text text-anchor="start" x="194" y="-547.5" font-family="Helvetica,sans-Serif" font-size="10.00">Igor::iUserControlColorChooser</text>
<text text-anchor="middle" x="261" y="-536.5" font-family="Helvetica,sans-Serif" font-size="10.00">::iUserControlColorChooser</text>
</a>
</g>
</g>
<!-- Node265&#45;&gt;Node266 -->
<g id="edge8" class="edge"><title>Node265&#45;&gt;Node266</title>
<path fill="none" stroke="midnightblue" d="M361.934,-544.5C353.346,-544.5 344.664,-544.5 336.192,-544.5"/>
<polygon fill="midnightblue" stroke="midnightblue" points="361.956,-548 371.956,-544.5 361.955,-541 361.956,-548"/>
</g>
<!-- Node267 -->
<g id="node10" class="node"><title>Node267</title>
<g id="a_node10"><a xlink:href="class_igor_1_1i_user_control_color_chooser.html#af82f3e4ae1b705adacffcdd546439e88" target="_top" xlink:title=" ">
<polygon fill="white" stroke="black" points="0,-529.5 0,-559.5 150,-559.5 150,-529.5 0,-529.5"/>
<text text-anchor="start" x="8" y="-547.5" font-family="Helvetica,sans-Serif" font-size="10.00">Igor::iUserControlColorChooser</text>
<text text-anchor="middle" x="75" y="-536.5" font-family="Helvetica,sans-Serif" font-size="10.00">::createInstance</text>
</a>
</g>
</g>
<!-- Node266&#45;&gt;Node267 -->
<g id="edge9" class="edge"><title>Node266&#45;&gt;Node267</title>
<path fill="none" stroke="midnightblue" d="M175.934,-544.5C167.346,-544.5 158.664,-544.5 150.192,-544.5"/>
<polygon fill="midnightblue" stroke="midnightblue" points="175.956,-548 185.956,-544.5 175.955,-541 175.956,-548"/>
</g>
<!-- Node268&#45;&gt;Node265 -->
<g id="edge11" class="edge"><title>Node268&#45;&gt;Node265</title>
<path fill="none" stroke="midnightblue" d="M547.934,-544.5C539.346,-544.5 530.664,-544.5 522.192,-544.5"/>
<polygon fill="midnightblue" stroke="midnightblue" points="547.956,-548 557.956,-544.5 547.955,-541 547.956,-548"/>
</g>
<!-- Node269&#45;&gt;Node265 -->
<g id="edge13" class="edge"><title>Node269&#45;&gt;Node265</title>
<path fill="none" stroke="midnightblue" d="M565.824,-513.123C545.694,-518.484 523.768,-524.323 504.35,-529.494"/>
<polygon fill="midnightblue" stroke="midnightblue" points="566.781,-516.49 575.543,-510.535 564.98,-509.726 566.781,-516.49"/>
</g>
</g>
</svg>
