<?xml version="1.0" encoding="UTF-8" standalone="no"?>
<!DOCTYPE svg PUBLIC "-//W3C//DTD SVG 1.1//EN"
 "http://www.w3.org/Graphics/SVG/1.1/DTD/svg11.dtd">
<!-- Generated by graphviz version 2.38.0 (20140413.2041)
 -->
<!-- Title: UserControlProperties::setProperty Pages: 1 -->
<svg width="305pt" height="176pt"
 viewBox="0.00 0.00 305.00 175.50" xmlns="http://www.w3.org/2000/svg" xmlns:xlink="http://www.w3.org/1999/xlink">
<g id="graph0" class="graph" transform="scale(1 1) rotate(0) translate(4 171.5)">
<title>UserControlProperties::setProperty</title>
<polygon fill="white" stroke="none" points="-4,4 -4,-171.5 301,-171.5 301,4 -4,4"/>
<!-- Node1 -->
<g id="node1" class="node"><title>Node1</title>
<polygon fill="#bfbfbf" stroke="black" points="0,-63 0,-93 112,-93 112,-63 0,-63"/>
<text text-anchor="start" x="8" y="-81" font-family="Helvetica,sans-Serif" font-size="10.00">UserControlProperties</text>
<text text-anchor="middle" x="56" y="-70" font-family="Helvetica,sans-Serif" font-size="10.00">::setProperty</text>
</g>
<!-- Node2 -->
<g id="node2" class="node"><title>Node2</title>
<g id="a_node2"><a xlink:href="class_igor_aux_1_1ia_singleton.html#a821f1d891129e6d09b992be81094540e" target="_top" xlink:title="IgorAux::iaSingleton\l\&lt; iNodeFactory \&gt;::getInstance">
<polygon fill="white" stroke="black" points="148,-137 148,-167 297,-167 297,-137 148,-137"/>
<text text-anchor="start" x="156" y="-155" font-family="Helvetica,sans-Serif" font-size="10.00">IgorAux::iaSingleton</text>
<text text-anchor="middle" x="222.5" y="-144" font-family="Helvetica,sans-Serif" font-size="10.00">&lt; iNodeFactory &gt;::getInstance</text>
</a>
</g>
</g>
<!-- Node1&#45;&gt;Node2 -->
<g id="edge1" class="edge"><title>Node1&#45;&gt;Node2</title>
<path fill="none" stroke="midnightblue" d="M81.4741,-93.0848C99.4422,-103.75 124.68,-117.891 148,-128 152.388,-129.902 156.977,-131.739 161.628,-133.493"/>
<polygon fill="midnightblue" stroke="midnightblue" points="160.621,-136.851 171.215,-136.97 163.008,-130.27 160.621,-136.851"/>
</g>
<!-- Node3 -->
<g id="node3" class="node"><title>Node3</title>
<g id="a_node3"><a xlink:href="class_igor_1_1i_node_factory.html#ab8074664cc7a6692dda729d1e3e4cfa3" target="_top" xlink:title="Igor::iNodeFactory\l::getNode">
<polygon fill="white" stroke="black" points="174.5,-88 174.5,-118 270.5,-118 270.5,-88 174.5,-88"/>
<text text-anchor="start" x="182.5" y="-106" font-family="Helvetica,sans-Serif" font-size="10.00">Igor::iNodeFactory</text>
<text text-anchor="middle" x="222.5" y="-95" font-family="Helvetica,sans-Serif" font-size="10.00">::getNode</text>
</a>
</g>
</g>
<!-- Node1&#45;&gt;Node3 -->
<g id="edge2" class="edge"><title>Node1&#45;&gt;Node3</title>
<path fill="none" stroke="midnightblue" d="M112.234,-86.3942C128.93,-88.9315 147.296,-91.7228 164.128,-94.2809"/>
<polygon fill="midnightblue" stroke="midnightblue" points="163.969,-97.7968 174.382,-95.8391 165.021,-90.8763 163.969,-97.7968"/>
</g>
<!-- Node4 -->
<g id="node4" class="node"><title>Node4</title>
<g id="a_node4"><a xlink:href="class_user_control_properties.html#a9a0fe4e5b536f6560c3c3a4ce4e2ac1e" target="_top" xlink:title="UserControlProperties\l::onNameChanged">
<polygon fill="white" stroke="black" points="166.5,-39 166.5,-69 278.5,-69 278.5,-39 166.5,-39"/>
<text text-anchor="start" x="174.5" y="-57" font-family="Helvetica,sans-Serif" font-size="10.00">UserControlProperties</text>
<text text-anchor="middle" x="222.5" y="-46" font-family="Helvetica,sans-Serif" font-size="10.00">::onNameChanged</text>
</a>
</g>
</g>
<!-- Node1&#45;&gt;Node4 -->
<g id="edge3" class="edge"><title>Node1&#45;&gt;Node4</title>
<path fill="none" stroke="midnightblue" d="M112.234,-69.9416C126.415,-67.8725 141.802,-65.6276 156.43,-63.4935"/>
<polygon fill="midnightblue" stroke="midnightblue" points="157.022,-66.9443 166.412,-62.0371 156.011,-60.0176 157.022,-66.9443"/>
</g>
<!-- Node5 -->
<g id="node5" class="node"><title>Node5</title>
<g id="a_node5"><a xlink:href="class_igor_1_1i_node.html#a43329dc1b2a6ad4056c38290c5df777d" target="_top" xlink:title="Igor::iNode::getType">
<polygon fill="white" stroke="black" points="170.5,-0.5 170.5,-19.5 274.5,-19.5 274.5,-0.5 170.5,-0.5"/>
<text text-anchor="middle" x="222.5" y="-7.5" font-family="Helvetica,sans-Serif" font-size="10.00">Igor::iNode::getType</text>
</a>
</g>
</g>
<!-- Node1&#45;&gt;Node5 -->
<g id="edge4" class="edge"><title>Node1&#45;&gt;Node5</title>
<path fill="none" stroke="midnightblue" d="M82.1755,-62.7922C100.059,-52.4745 124.902,-39.106 148,-30 155.1,-27.2009 162.734,-24.6474 170.301,-22.371"/>
<polygon fill="midnightblue" stroke="midnightblue" points="171.513,-25.6646 180.159,-19.5408 169.581,-18.9364 171.513,-25.6646"/>
</g>
</g>
</svg>
