<?xml version="1.0" encoding="UTF-8" standalone="no"?>
<!DOCTYPE svg PUBLIC "-//W3C//DTD SVG 1.1//EN"
 "http://www.w3.org/Graphics/SVG/1.1/DTD/svg11.dtd">
<!-- Generated by graphviz version 2.38.0 (20140413.2041)
 -->
<!-- Title: IgorAux::iaConsole::lock Pages: 1 -->
<svg width="754pt" height="203pt"
 viewBox="0.00 0.00 754.00 203.00" xmlns="http://www.w3.org/2000/svg" xmlns:xlink="http://www.w3.org/1999/xlink">
<g id="graph0" class="graph" transform="scale(1 1) rotate(0) translate(4 199)">
<title>IgorAux::iaConsole::lock</title>
<polygon fill="white" stroke="none" points="-4,4 -4,-199 750,-199 750,4 -4,4"/>
<!-- Node1 -->
<g id="node1" class="node"><title>Node1</title>
<polygon fill="#bfbfbf" stroke="black" points="0,-90.5 0,-120.5 98,-120.5 98,-90.5 0,-90.5"/>
<text text-anchor="start" x="8" y="-108.5" font-family="Helvetica,sans-Serif" font-size="10.00">IgorAux::iaConsole</text>
<text text-anchor="middle" x="49" y="-97.5" font-family="Helvetica,sans-Serif" font-size="10.00">::lock</text>
</g>
<!-- Node1&#45;&gt;Node1 -->
<g id="edge6" class="edge"><title>Node1&#45;&gt;Node1</title>
<path fill="none" stroke="midnightblue" d="M20.9253,-130.958C24.4098,-135.679 33.768,-139 49,-139 73.9961,-139 83.1743,-130.057 76.5348,-120.659"/>
<polygon fill="midnightblue" stroke="midnightblue" points="24.4368,-130.829 21.4652,-120.659 17.4464,-130.462 24.4368,-130.829"/>
</g>
<!-- Node2 -->
<g id="node2" class="node"><title>Node2</title>
<g id="a_node2"><a xlink:href="class_igor_1_1i_model_resource_factory.html#a43d07adb8bc7e0c540b43ccb435c8d96" target="_top" xlink:title="Igor::iModelResourceFactory\l::flush">
<polygon fill="white" stroke="black" points="137,-164.5 137,-194.5 278,-194.5 278,-164.5 137,-164.5"/>
<text text-anchor="start" x="145" y="-182.5" font-family="Helvetica,sans-Serif" font-size="10.00">Igor::iModelResourceFactory</text>
<text text-anchor="middle" x="207.5" y="-171.5" font-family="Helvetica,sans-Serif" font-size="10.00">::flush</text>
</a>
</g>
</g>
<!-- Node1&#45;&gt;Node2 -->
<g id="edge1" class="edge"><title>Node1&#45;&gt;Node2</title>
<path fill="none" stroke="midnightblue" d="M81.083,-126.206C96.5559,-135.935 115.803,-147.192 134,-155.5 140.995,-158.694 148.542,-161.672 156.032,-164.369"/>
<polygon fill="midnightblue" stroke="midnightblue" points="82.7568,-123.122 72.4453,-120.688 78.9882,-129.021 82.7568,-123.122"/>
</g>
<!-- Node5 -->
<g id="node5" class="node"><title>Node5</title>
<g id="a_node5"><a xlink:href="class_igor_1_1i_node_factory.html#a9dbf1c77d2d6cce346f022395714b4c9" target="_top" xlink:title="Igor::iNodeFactory\l::flush">
<polygon fill="white" stroke="black" points="159.5,-115.5 159.5,-145.5 255.5,-145.5 255.5,-115.5 159.5,-115.5"/>
<text text-anchor="start" x="167.5" y="-133.5" font-family="Helvetica,sans-Serif" font-size="10.00">Igor::iNodeFactory</text>
<text text-anchor="middle" x="207.5" y="-122.5" font-family="Helvetica,sans-Serif" font-size="10.00">::flush</text>
</a>
</g>
</g>
<!-- Node1&#45;&gt;Node5 -->
<g id="edge4" class="edge"><title>Node1&#45;&gt;Node5</title>
<path fill="none" stroke="midnightblue" d="M108.462,-114.839C125.209,-117.514 143.249,-120.396 159.233,-122.949"/>
<polygon fill="midnightblue" stroke="midnightblue" points="108.659,-111.326 98.2322,-113.205 107.555,-118.239 108.659,-111.326"/>
</g>
<!-- Node6 -->
<g id="node6" class="node"><title>Node6</title>
<g id="a_node6"><a xlink:href="class_igor_1_1i_texture_resource_factory.html#a605e2d6b73db31856dfa8332771b2f37" target="_top" xlink:title="Igor::iTextureResourceFactory\l::flush">
<polygon fill="white" stroke="black" points="134,-66.5 134,-96.5 281,-96.5 281,-66.5 134,-66.5"/>
<text text-anchor="start" x="142" y="-84.5" font-family="Helvetica,sans-Serif" font-size="10.00">Igor::iTextureResourceFactory</text>
<text text-anchor="middle" x="207.5" y="-73.5" font-family="Helvetica,sans-Serif" font-size="10.00">::flush</text>
</a>
</g>
</g>
<!-- Node1&#45;&gt;Node6 -->
<g id="edge5" class="edge"><title>Node1&#45;&gt;Node6</title>
<path fill="none" stroke="midnightblue" d="M108.265,-96.5648C116.646,-95.2795 125.355,-93.9439 133.971,-92.6226"/>
<polygon fill="midnightblue" stroke="midnightblue" points="107.586,-93.1279 98.2322,-98.1034 108.647,-100.047 107.586,-93.1279"/>
</g>
<!-- Node7 -->
<g id="node7" class="node"><title>Node7</title>
<g id="a_node7"><a xlink:href="namespace_igor_aux.html#a7dce861889a3c2884129ceb9d03ddb24" target="_top" xlink:title="IgorAux::LOCK">
<polygon fill="white" stroke="black" points="166.5,-28 166.5,-47 248.5,-47 248.5,-28 166.5,-28"/>
<text text-anchor="middle" x="207.5" y="-35" font-family="Helvetica,sans-Serif" font-size="10.00">IgorAux::LOCK</text>
</a>
</g>
</g>
<!-- Node1&#45;&gt;Node7 -->
<g id="edge7" class="edge"><title>Node1&#45;&gt;Node7</title>
<path fill="none" stroke="midnightblue" d="M80.5874,-84.9452C96.0754,-75.2514 115.481,-64.1599 134,-56.5 144.22,-52.2727 155.646,-48.7579 166.351,-45.9486"/>
<polygon fill="midnightblue" stroke="midnightblue" points="78.5027,-82.1236 71.9573,-90.4548 82.2695,-88.0238 78.5027,-82.1236"/>
</g>
<!-- Node3 -->
<g id="node3" class="node"><title>Node3</title>
<g id="a_node3"><a xlink:href="class_o_b_j2_o_m_p_f.html#ad02e6ef54cf7a8530e5c54f4c9d2f61d" target="_top" xlink:title="OBJ2OMPF::convert">
<polygon fill="white" stroke="black" points="317,-170 317,-189 423,-189 423,-170 317,-170"/>
<text text-anchor="middle" x="370" y="-177" font-family="Helvetica,sans-Serif" font-size="10.00">OBJ2OMPF::convert</text>
</a>
</g>
</g>
<!-- Node2&#45;&gt;Node3 -->
<g id="edge2" class="edge"><title>Node2&#45;&gt;Node3</title>
<path fill="none" stroke="midnightblue" d="M288.713,-179.5C298.213,-179.5 307.714,-179.5 316.682,-179.5"/>
<polygon fill="midnightblue" stroke="midnightblue" points="288.431,-176 278.431,-179.5 288.431,-183 288.431,-176"/>
</g>
<!-- Node4 -->
<g id="node4" class="node"><title>Node4</title>
<g id="a_node4"><a xlink:href="_o_b_j2_o_m_p_f_2src_2main_8cpp.html#a0ddf1224851353fc92bfbff6f499fa97" target="_top" xlink:title="main">
<polygon fill="white" stroke="black" points="488.5,-170 488.5,-189 526.5,-189 526.5,-170 488.5,-170"/>
<text text-anchor="middle" x="507.5" y="-177" font-family="Helvetica,sans-Serif" font-size="10.00">main</text>
</a>
</g>
</g>
<!-- Node3&#45;&gt;Node4 -->
<g id="edge3" class="edge"><title>Node3&#45;&gt;Node4</title>
<path fill="none" stroke="midnightblue" d="M433.093,-179.5C453.187,-179.5 473.949,-179.5 488.243,-179.5"/>
<polygon fill="midnightblue" stroke="midnightblue" points="433,-176 423,-179.5 433,-183 433,-176"/>
</g>
<!-- Node8 -->
<g id="node8" class="node"><title>Node8</title>
<g id="a_node8"><a xlink:href="namespace_igor.html#a1fbeba8576121a573f03c2e05d84477f" target="_top" xlink:title="Igor::printInfo">
<polygon fill="white" stroke="black" points="334,-50 334,-69 406,-69 406,-50 334,-50"/>
<text text-anchor="middle" x="370" y="-57" font-family="Helvetica,sans-Serif" font-size="10.00">Igor::printInfo</text>
</a>
</g>
</g>
<!-- Node7&#45;&gt;Node8 -->
<g id="edge8" class="edge"><title>Node7&#45;&gt;Node8</title>
<path fill="none" stroke="midnightblue" d="M258.734,-44.3857C283.101,-47.7257 311.783,-51.6572 333.785,-54.6731"/>
<polygon fill="midnightblue" stroke="midnightblue" points="258.97,-40.8853 248.587,-42.9948 258.019,-47.8205 258.97,-40.8853"/>
</g>
<!-- Node10 -->
<g id="node10" class="node"><title>Node10</title>
<g id="a_node10"><a xlink:href="class_igor_aux_1_1ia_console.html#a44b38227043e0c22160634ef50a89996" target="_top" xlink:title="IgorAux::iaConsole\l::printStats">
<polygon fill="white" stroke="black" points="321,-0.5 321,-30.5 419,-30.5 419,-0.5 321,-0.5"/>
<text text-anchor="start" x="329" y="-18.5" font-family="Helvetica,sans-Serif" font-size="10.00">IgorAux::iaConsole</text>
<text text-anchor="middle" x="370" y="-7.5" font-family="Helvetica,sans-Serif" font-size="10.00">::printStats</text>
</a>
</g>
</g>
<!-- Node7&#45;&gt;Node10 -->
<g id="edge10" class="edge"><title>Node7&#45;&gt;Node10</title>
<path fill="none" stroke="midnightblue" d="M258.669,-30.6232C278.509,-27.9037 301.218,-24.791 320.855,-22.0993"/>
<polygon fill="midnightblue" stroke="midnightblue" points="258.019,-27.1795 248.587,-32.0052 258.97,-34.1147 258.019,-27.1795"/>
</g>
<!-- Node9 -->
<g id="node9" class="node"><title>Node9</title>
<g id="a_node9"><a xlink:href="namespace_igor.html#ab4553401ec6fe3c6bf480432cfa232cb" target="_top" xlink:title="Igor::startup">
<polygon fill="white" stroke="black" points="473.5,-50 473.5,-69 541.5,-69 541.5,-50 473.5,-50"/>
<text text-anchor="middle" x="507.5" y="-57" font-family="Helvetica,sans-Serif" font-size="10.00">Igor::startup</text>
</a>
</g>
</g>
<!-- Node8&#45;&gt;Node9 -->
<g id="edge9" class="edge"><title>Node8&#45;&gt;Node9</title>
<path fill="none" stroke="midnightblue" d="M416.298,-59.5C434.937,-59.5 456.134,-59.5 473.293,-59.5"/>
<polygon fill="midnightblue" stroke="midnightblue" points="416.247,-56.0001 406.247,-59.5 416.247,-63.0001 416.247,-56.0001"/>
</g>
<!-- Node11 -->
<g id="node11" class="node"><title>Node11</title>
<g id="a_node11"><a xlink:href="namespace_igor_aux.html#a4f7c01bbc0e0a4c4c8a07156c0c1e8f0" target="_top" xlink:title="IgorAux::shutdown">
<polygon fill="white" stroke="black" points="459,-6 459,-25 556,-25 556,-6 459,-6"/>
<text text-anchor="middle" x="507.5" y="-13" font-family="Helvetica,sans-Serif" font-size="10.00">IgorAux::shutdown</text>
</a>
</g>
</g>
<!-- Node10&#45;&gt;Node11 -->
<g id="edge11" class="edge"><title>Node10&#45;&gt;Node11</title>
<path fill="none" stroke="midnightblue" d="M429.327,-15.5C439.219,-15.5 449.384,-15.5 458.957,-15.5"/>
<polygon fill="midnightblue" stroke="midnightblue" points="429.154,-12.0001 419.154,-15.5 429.154,-19.0001 429.154,-12.0001"/>
</g>
<!-- Node12 -->
<g id="node12" class="node"><title>Node12</title>
<g id="a_node12"><a xlink:href="namespace_igor.html#a39537901e9950d2231244072573697bb" target="_top" xlink:title="Igor::shutdown">
<polygon fill="white" stroke="black" points="592,-6 592,-25 672,-25 672,-6 592,-6"/>
<text text-anchor="middle" x="632" y="-13" font-family="Helvetica,sans-Serif" font-size="10.00">Igor::shutdown</text>
</a>
</g>
</g>
<!-- Node11&#45;&gt;Node12 -->
<g id="edge12" class="edge"><title>Node11&#45;&gt;Node12</title>
<path fill="none" stroke="midnightblue" d="M566.315,-15.5C574.992,-15.5 583.762,-15.5 591.925,-15.5"/>
<polygon fill="midnightblue" stroke="midnightblue" points="566.213,-12.0001 556.212,-15.5 566.212,-19.0001 566.213,-12.0001"/>
</g>
<!-- Node13 -->
<g id="node13" class="node"><title>Node13</title>
<g id="a_node13"><a xlink:href="_model_viewer_2src_2main_8cpp.html#a0ddf1224851353fc92bfbff6f499fa97" target="_top" xlink:title="main">
<polygon fill="white" stroke="black" points="708,-6 708,-25 746,-25 746,-6 708,-6"/>
<text text-anchor="middle" x="727" y="-13" font-family="Helvetica,sans-Serif" font-size="10.00">main</text>
</a>
</g>
</g>
<!-- Node12&#45;&gt;Node13 -->
<g id="edge13" class="edge"><title>Node12&#45;&gt;Node13</title>
<path fill="none" stroke="midnightblue" d="M682.354,-15.5C691.385,-15.5 700.271,-15.5 707.644,-15.5"/>
<polygon fill="midnightblue" stroke="midnightblue" points="682.171,-12.0001 672.171,-15.5 682.171,-19.0001 682.171,-12.0001"/>
</g>
</g>
</svg>
