<?xml version="1.0" encoding="UTF-8" standalone="no"?>
<!DOCTYPE svg PUBLIC "-//W3C//DTD SVG 1.1//EN"
 "http://www.w3.org/Graphics/SVG/1.1/DTD/svg11.dtd">
<!-- Generated by graphviz version 2.38.0 (20140413.2041)
 -->
<!-- Title: IgorAux::iaString::findFirstOf Pages: 1 -->
<svg width="1445pt" height="393pt"
 viewBox="0.00 0.00 1445.00 392.50" xmlns="http://www.w3.org/2000/svg" xmlns:xlink="http://www.w3.org/1999/xlink">
<g id="graph0" class="graph" transform="scale(1 1) rotate(0) translate(4 388.5)">
<title>IgorAux::iaString::findFirstOf</title>
<polygon fill="white" stroke="none" points="-4,4 -4,-388.5 1441,-388.5 1441,4 -4,4"/>
<!-- Node132 -->
<g id="node1" class="node"><title>Node132</title>
<g id="a_node1"><a xlink:title=" ">
<polygon fill="#bfbfbf" stroke="black" points="1342,-220 1342,-250 1437,-250 1437,-220 1342,-220"/>
<text text-anchor="start" x="1350" y="-238" font-family="Helvetica,sans-Serif" font-size="10.00">IgorAux::iaString::</text>
<text text-anchor="middle" x="1389.5" y="-227" font-family="Helvetica,sans-Serif" font-size="10.00">findFirstOf</text>
</a>
</g>
</g>
<!-- Node133 -->
<g id="node2" class="node"><title>Node133</title>
<g id="a_node2"><a xlink:href="class_igor_1_1i_resource_manager.html#acdda5772fd5dd2fee97a3c45aa8eb179" target="_top" xlink:title=" ">
<polygon fill="white" stroke="black" points="898,-159 898,-189 1017,-189 1017,-159 898,-159"/>
<text text-anchor="start" x="906" y="-177" font-family="Helvetica,sans-Serif" font-size="10.00">Igor::iResourceManager</text>
<text text-anchor="middle" x="957.5" y="-166" font-family="Helvetica,sans-Serif" font-size="10.00">::getRelativePath</text>
</a>
</g>
</g>
<!-- Node132&#45;&gt;Node133 -->
<g id="edge1" class="edge"><title>Node132&#45;&gt;Node133</title>
<path fill="none" stroke="midnightblue" d="M1344.76,-253.795C1279.25,-279.021 1152.97,-316.173 1056,-275 1014.72,-257.474 982.413,-212.965 967.504,-189.315"/>
<polygon fill="midnightblue" stroke="midnightblue" points="1346.34,-256.937 1354.36,-250.017 1343.77,-250.424 1346.34,-256.937"/>
</g>
<!-- Node140 -->
<g id="node9" class="node"><title>Node140</title>
<g id="a_node9"><a xlink:href="class_igor_aux_1_1ia_directory.html#a9934e835bf1a0f24673e13513b697fab" target="_top" xlink:title=" ">
<polygon fill="white" stroke="black" points="1064.5,-323 1064.5,-353 1166.5,-353 1166.5,-323 1064.5,-323"/>
<text text-anchor="start" x="1072.5" y="-341" font-family="Helvetica,sans-Serif" font-size="10.00">IgorAux::iaDirectory</text>
<text text-anchor="middle" x="1115.5" y="-330" font-family="Helvetica,sans-Serif" font-size="10.00">::fixPath</text>
</a>
</g>
</g>
<!-- Node132&#45;&gt;Node140 -->
<g id="edge10" class="edge"><title>Node132&#45;&gt;Node140</title>
<path fill="none" stroke="midnightblue" d="M1369.37,-257.816C1354.02,-274.51 1330.97,-296.222 1306,-308 1261.86,-328.816 1206.18,-335.632 1166.63,-337.654"/>
<polygon fill="midnightblue" stroke="midnightblue" points="1372.21,-259.882 1376.26,-250.089 1366.99,-255.223 1372.21,-259.882"/>
</g>
<!-- Node148 -->
<g id="node17" class="node"><title>Node148</title>
<g id="a_node17"><a xlink:href="class_igor_aux_1_1ia_string.html#a7d68b1fee6a735fd99728850ea55e2d1" target="_top" xlink:title=" ">
<polygon fill="white" stroke="black" points="1211,-161 1211,-191 1306,-191 1306,-161 1211,-161"/>
<text text-anchor="start" x="1219" y="-179" font-family="Helvetica,sans-Serif" font-size="10.00">IgorAux::iaString::</text>
<text text-anchor="middle" x="1258.5" y="-168" font-family="Helvetica,sans-Serif" font-size="10.00">split</text>
</a>
</g>
</g>
<!-- Node132&#45;&gt;Node148 -->
<g id="edge18" class="edge"><title>Node132&#45;&gt;Node148</title>
<path fill="none" stroke="midnightblue" d="M1346.18,-215.646C1328.68,-207.64 1308.69,-198.499 1292.33,-191.013"/>
<polygon fill="midnightblue" stroke="midnightblue" points="1345.06,-218.983 1355.61,-219.959 1347.98,-212.617 1345.06,-218.983"/>
</g>
<!-- Node155 -->
<g id="node24" class="node"><title>Node155</title>
<g id="a_node24"><a xlink:href="namespace_testigor.html#afff8930d0cf962f5dc34405e911a82a8" target="_top" xlink:title=" ">
<polygon fill="white" stroke="black" points="1056,-0.5 1056,-19.5 1175,-19.5 1175,-0.5 1056,-0.5"/>
<text text-anchor="middle" x="1115.5" y="-7.5" font-family="Helvetica,sans-Serif" font-size="10.00">Testigor::TEST_CLASS</text>
</a>
</g>
</g>
<!-- Node132&#45;&gt;Node155 -->
<g id="edge28" class="edge"><title>Node132&#45;&gt;Node155</title>
<path fill="none" stroke="midnightblue" d="M1370.76,-211.766C1337.16,-169.311 1259.93,-78.9812 1175,-29 1168.56,-25.2087 1161.26,-22.0701 1154.07,-19.5108"/>
<polygon fill="midnightblue" stroke="midnightblue" points="1368.16,-214.113 1377.08,-219.83 1373.67,-209.798 1368.16,-214.113"/>
</g>
<!-- Node134 -->
<g id="node3" class="node"><title>Node134</title>
<g id="a_node3"><a xlink:href="class_user_control_material.html#a59253e905123cec760aceffaaae4d7df" target="_top" xlink:title=" ">
<polygon fill="white" stroke="black" points="724,-190 724,-220 851,-220 851,-190 724,-190"/>
<text text-anchor="start" x="732" y="-208" font-family="Helvetica,sans-Serif" font-size="10.00">UserControlMaterial</text>
<text text-anchor="middle" x="787.5" y="-197" font-family="Helvetica,sans-Serif" font-size="10.00">::onFileLoadDialogClosed</text>
</a>
</g>
</g>
<!-- Node133&#45;&gt;Node134 -->
<g id="edge2" class="edge"><title>Node133&#45;&gt;Node134</title>
<path fill="none" stroke="midnightblue" d="M887.721,-186.691C875.642,-188.92 863.128,-191.229 851.225,-193.426"/>
<polygon fill="midnightblue" stroke="midnightblue" points="888.543,-190.099 897.742,-184.842 887.273,-183.215 888.543,-190.099"/>
</g>
<!-- Node139 -->
<g id="node8" class="node"><title>Node139</title>
<g id="a_node8"><a xlink:href="class_user_control_mesh.html#af55d4328c9fab97659a68bb6eec291aa" target="_top" xlink:title=" ">
<polygon fill="white" stroke="black" points="716,-151.5 716,-170.5 859,-170.5 859,-151.5 716,-151.5"/>
<text text-anchor="middle" x="787.5" y="-158.5" font-family="Helvetica,sans-Serif" font-size="10.00">UserControlMesh::updateGUI</text>
</a>
</g>
</g>
<!-- Node133&#45;&gt;Node139 -->
<g id="edge9" class="edge"><title>Node133&#45;&gt;Node139</title>
<path fill="none" stroke="midnightblue" d="M887.638,-168.671C878.211,-167.942 868.52,-167.192 859.063,-166.46"/>
<polygon fill="midnightblue" stroke="midnightblue" points="887.501,-172.171 897.742,-169.453 888.042,-165.192 887.501,-172.171"/>
</g>
<!-- Node135 -->
<g id="node4" class="node"><title>Node135</title>
<g id="a_node4"><a xlink:href="class_user_control_material.html#a9e9958a948fde0b23e7bbf9a8d6688b1" target="_top" xlink:title=" ">
<polygon fill="white" stroke="black" points="557.5,-141 557.5,-171 659.5,-171 659.5,-141 557.5,-141"/>
<text text-anchor="start" x="565.5" y="-159" font-family="Helvetica,sans-Serif" font-size="10.00">UserControlMaterial</text>
<text text-anchor="middle" x="608.5" y="-148" font-family="Helvetica,sans-Serif" font-size="10.00">::onShader0Button</text>
</a>
</g>
</g>
<!-- Node134&#45;&gt;Node135 -->
<g id="edge3" class="edge"><title>Node134&#45;&gt;Node135</title>
<path fill="none" stroke="midnightblue" d="M722.309,-187.23C701.673,-181.517 679.126,-175.275 659.651,-169.884"/>
<polygon fill="midnightblue" stroke="midnightblue" points="721.379,-190.604 731.95,-189.899 723.246,-183.857 721.379,-190.604"/>
</g>
<!-- Node137 -->
<g id="node6" class="node"><title>Node137</title>
<g id="a_node6"><a xlink:href="class_user_control_material.html#a55e322c6c2f8c139a9c66c104dfad463" target="_top" xlink:title=" ">
<polygon fill="white" stroke="black" points="557.5,-239 557.5,-269 659.5,-269 659.5,-239 557.5,-239"/>
<text text-anchor="start" x="565.5" y="-257" font-family="Helvetica,sans-Serif" font-size="10.00">UserControlMaterial</text>
<text text-anchor="middle" x="608.5" y="-246" font-family="Helvetica,sans-Serif" font-size="10.00">::onShader1Button</text>
</a>
</g>
</g>
<!-- Node134&#45;&gt;Node137 -->
<g id="edge5" class="edge"><title>Node134&#45;&gt;Node137</title>
<path fill="none" stroke="midnightblue" d="M722.309,-222.77C701.673,-228.483 679.126,-234.725 659.651,-240.116"/>
<polygon fill="midnightblue" stroke="midnightblue" points="723.246,-226.143 731.95,-220.101 721.379,-219.396 723.246,-226.143"/>
</g>
<!-- Node138 -->
<g id="node7" class="node"><title>Node138</title>
<g id="a_node7"><a xlink:href="class_user_control_material.html#a60ba10a9a3120b3a89b3dd0456d50769" target="_top" xlink:title=" ">
<polygon fill="white" stroke="black" points="557.5,-190 557.5,-220 659.5,-220 659.5,-190 557.5,-190"/>
<text text-anchor="start" x="565.5" y="-208" font-family="Helvetica,sans-Serif" font-size="10.00">UserControlMaterial</text>
<text text-anchor="middle" x="608.5" y="-197" font-family="Helvetica,sans-Serif" font-size="10.00">::onShader2Button</text>
</a>
</g>
</g>
<!-- Node134&#45;&gt;Node138 -->
<g id="edge7" class="edge"><title>Node134&#45;&gt;Node138</title>
<path fill="none" stroke="midnightblue" d="M713.385,-205C695.326,-205 676.386,-205 659.698,-205"/>
<polygon fill="midnightblue" stroke="midnightblue" points="713.598,-208.5 723.598,-205 713.598,-201.5 713.598,-208.5"/>
</g>
<!-- Node136 -->
<g id="node5" class="node"><title>Node136</title>
<g id="a_node5"><a xlink:href="class_user_control_material.html#a45610f92ae0ae41d9da8fce2aa7bec4b" target="_top" xlink:title=" ">
<polygon fill="white" stroke="black" points="378.5,-190 378.5,-220 480.5,-220 480.5,-190 378.5,-190"/>
<text text-anchor="start" x="386.5" y="-208" font-family="Helvetica,sans-Serif" font-size="10.00">UserControlMaterial</text>
<text text-anchor="middle" x="429.5" y="-197" font-family="Helvetica,sans-Serif" font-size="10.00">::initGUI</text>
</a>
</g>
</g>
<!-- Node135&#45;&gt;Node136 -->
<g id="edge4" class="edge"><title>Node135&#45;&gt;Node136</title>
<path fill="none" stroke="midnightblue" d="M547.458,-172.622C525.701,-178.645 501.375,-185.379 480.567,-191.14"/>
<polygon fill="midnightblue" stroke="midnightblue" points="548.549,-175.952 557.252,-169.91 546.681,-169.205 548.549,-175.952"/>
</g>
<!-- Node137&#45;&gt;Node136 -->
<g id="edge6" class="edge"><title>Node137&#45;&gt;Node136</title>
<path fill="none" stroke="midnightblue" d="M547.458,-237.378C525.701,-231.355 501.375,-224.621 480.567,-218.86"/>
<polygon fill="midnightblue" stroke="midnightblue" points="546.681,-240.795 557.252,-240.09 548.549,-234.048 546.681,-240.795"/>
</g>
<!-- Node138&#45;&gt;Node136 -->
<g id="edge8" class="edge"><title>Node138&#45;&gt;Node136</title>
<path fill="none" stroke="midnightblue" d="M547.164,-205C525.481,-205 501.281,-205 480.567,-205"/>
<polygon fill="midnightblue" stroke="midnightblue" points="547.252,-208.5 557.252,-205 547.252,-201.5 547.252,-208.5"/>
</g>
<!-- Node141 -->
<g id="node10" class="node"><title>Node141</title>
<g id="a_node10"><a xlink:href="class_igor_1_1i_dialog_file_select.html#aa6db9a2fa32a6cf4d7e588b3570d16df" target="_top" xlink:title=" ">
<polygon fill="white" stroke="black" points="902,-354 902,-384 1013,-384 1013,-354 902,-354"/>
<text text-anchor="start" x="910" y="-372" font-family="Helvetica,sans-Serif" font-size="10.00">Igor::iDialogFileSelect</text>
<text text-anchor="middle" x="957.5" y="-361" font-family="Helvetica,sans-Serif" font-size="10.00">::initDialog</text>
</a>
</g>
</g>
<!-- Node140&#45;&gt;Node141 -->
<g id="edge11" class="edge"><title>Node140&#45;&gt;Node141</title>
<path fill="none" stroke="midnightblue" d="M1054.15,-349.993C1040.67,-352.672 1026.45,-355.498 1013.21,-358.128"/>
<polygon fill="midnightblue" stroke="midnightblue" points="1055.16,-353.361 1064.28,-347.979 1053.79,-346.496 1055.16,-353.361"/>
</g>
<!-- Node142 -->
<g id="node11" class="node"><title>Node142</title>
<g id="a_node11"><a xlink:href="class_igor_1_1i_dialog_file_select.html#a622e7780aa38ad6e55dff5a05ad41070" target="_top" xlink:title=" ">
<polygon fill="white" stroke="black" points="902,-305 902,-335 1013,-335 1013,-305 902,-305"/>
<text text-anchor="start" x="910" y="-323" font-family="Helvetica,sans-Serif" font-size="10.00">Igor::iDialogFileSelect</text>
<text text-anchor="middle" x="957.5" y="-312" font-family="Helvetica,sans-Serif" font-size="10.00">::getFullPath</text>
</a>
</g>
</g>
<!-- Node140&#45;&gt;Node142 -->
<g id="edge12" class="edge"><title>Node140&#45;&gt;Node142</title>
<path fill="none" stroke="midnightblue" d="M1054.15,-331.036C1040.67,-329.481 1026.45,-327.84 1013.21,-326.313"/>
<polygon fill="midnightblue" stroke="midnightblue" points="1053.95,-334.536 1064.28,-332.206 1054.75,-327.582 1053.95,-334.536"/>
</g>
<!-- Node143 -->
<g id="node12" class="node"><title>Node143</title>
<g id="a_node12"><a xlink:href="class_igor_1_1i_user_control_file_chooser.html#a385c31c1ecad69cf5bd75e9f8ffe6b96" target="_top" xlink:title=" ">
<polygon fill="white" stroke="black" points="716,-305 716,-335 859,-335 859,-305 716,-305"/>
<text text-anchor="start" x="724" y="-323" font-family="Helvetica,sans-Serif" font-size="10.00">Igor::iUserControlFileChooser</text>
<text text-anchor="middle" x="787.5" y="-312" font-family="Helvetica,sans-Serif" font-size="10.00">::onFileLoadDialogClosed</text>
</a>
</g>
</g>
<!-- Node142&#45;&gt;Node143 -->
<g id="edge13" class="edge"><title>Node142&#45;&gt;Node143</title>
<path fill="none" stroke="midnightblue" d="M891.887,-320C881.219,-320 870.11,-320 859.3,-320"/>
<polygon fill="midnightblue" stroke="midnightblue" points="891.955,-323.5 901.955,-320 891.955,-316.5 891.955,-323.5"/>
</g>
<!-- Node144 -->
<g id="node13" class="node"><title>Node144</title>
<g id="a_node13"><a xlink:href="class_igor_1_1i_user_control_file_chooser.html#abf208141bc278147ca8d87af84f4315d" target="_top" xlink:title=" ">
<polygon fill="white" stroke="black" points="537,-305 537,-335 680,-335 680,-305 537,-305"/>
<text text-anchor="start" x="545" y="-323" font-family="Helvetica,sans-Serif" font-size="10.00">Igor::iUserControlFileChooser</text>
<text text-anchor="middle" x="608.5" y="-312" font-family="Helvetica,sans-Serif" font-size="10.00">::onFileSelectButtonPressed</text>
</a>
</g>
</g>
<!-- Node143&#45;&gt;Node144 -->
<g id="edge14" class="edge"><title>Node143&#45;&gt;Node144</title>
<path fill="none" stroke="midnightblue" d="M705.506,-320C697.027,-320 688.456,-320 680.106,-320"/>
<polygon fill="midnightblue" stroke="midnightblue" points="705.782,-323.5 715.782,-320 705.782,-316.5 705.782,-323.5"/>
</g>
<!-- Node145 -->
<g id="node14" class="node"><title>Node145</title>
<g id="a_node14"><a xlink:href="class_igor_1_1i_user_control_file_chooser.html#acbdcb369d7f6dabea5fe1a039319b271" target="_top" xlink:title=" ">
<polygon fill="white" stroke="black" points="358,-305 358,-335 501,-335 501,-305 358,-305"/>
<text text-anchor="start" x="366" y="-323" font-family="Helvetica,sans-Serif" font-size="10.00">Igor::iUserControlFileChooser</text>
<text text-anchor="middle" x="429.5" y="-312" font-family="Helvetica,sans-Serif" font-size="10.00">::initGUI</text>
</a>
</g>
</g>
<!-- Node144&#45;&gt;Node145 -->
<g id="edge15" class="edge"><title>Node144&#45;&gt;Node145</title>
<path fill="none" stroke="midnightblue" d="M526.506,-320C518.027,-320 509.456,-320 501.106,-320"/>
<polygon fill="midnightblue" stroke="midnightblue" points="526.782,-323.5 536.782,-320 526.782,-316.5 526.782,-323.5"/>
</g>
<!-- Node146 -->
<g id="node15" class="node"><title>Node146</title>
<g id="a_node15"><a xlink:href="class_igor_1_1i_user_control_file_chooser.html#a5d8f62c79b5df55c4f6c9ad6b1ed52c7" target="_top" xlink:title=" ">
<polygon fill="white" stroke="black" points="179,-305 179,-335 322,-335 322,-305 179,-305"/>
<text text-anchor="start" x="187" y="-323" font-family="Helvetica,sans-Serif" font-size="10.00">Igor::iUserControlFileChooser</text>
<text text-anchor="middle" x="250.5" y="-312" font-family="Helvetica,sans-Serif" font-size="10.00">::iUserControlFileChooser</text>
</a>
</g>
</g>
<!-- Node145&#45;&gt;Node146 -->
<g id="edge16" class="edge"><title>Node145&#45;&gt;Node146</title>
<path fill="none" stroke="midnightblue" d="M347.506,-320C339.027,-320 330.456,-320 322.106,-320"/>
<polygon fill="midnightblue" stroke="midnightblue" points="347.782,-323.5 357.782,-320 347.782,-316.5 347.782,-323.5"/>
</g>
<!-- Node147 -->
<g id="node16" class="node"><title>Node147</title>
<g id="a_node16"><a xlink:href="class_igor_1_1i_user_control_file_chooser.html#a6e0a7af39998d6e3dfb1f24ae499fa03" target="_top" xlink:title=" ">
<polygon fill="white" stroke="black" points="0,-305 0,-335 143,-335 143,-305 0,-305"/>
<text text-anchor="start" x="8" y="-323" font-family="Helvetica,sans-Serif" font-size="10.00">Igor::iUserControlFileChooser</text>
<text text-anchor="middle" x="71.5" y="-312" font-family="Helvetica,sans-Serif" font-size="10.00">::createInstance</text>
</a>
</g>
</g>
<!-- Node146&#45;&gt;Node147 -->
<g id="edge17" class="edge"><title>Node146&#45;&gt;Node147</title>
<path fill="none" stroke="midnightblue" d="M168.506,-320C160.027,-320 151.456,-320 143.106,-320"/>
<polygon fill="midnightblue" stroke="midnightblue" points="168.782,-323.5 178.782,-320 168.782,-316.5 168.782,-323.5"/>
</g>
<!-- Node148&#45;&gt;Node140 -->
<g id="edge22" class="edge"><title>Node148&#45;&gt;Node140</title>
<path fill="none" stroke="midnightblue" d="M1238.85,-199.08C1222.35,-219.334 1197.47,-249.46 1175,-275 1160.31,-291.697 1142.9,-310.299 1130.92,-322.933"/>
<polygon fill="midnightblue" stroke="midnightblue" points="1241.58,-201.276 1245.17,-191.308 1236.15,-196.862 1241.58,-201.276"/>
</g>
<!-- Node149 -->
<g id="node18" class="node"><title>Node149</title>
<g id="a_node18"><a xlink:href="class_igor_1_1i_model_data_i_o_o_b_j.html#a66f4b6cc84059bfe871bc0da5c42b559" target="_top" xlink:title=" ">
<polygon fill="white" stroke="black" points="1057.5,-235 1057.5,-265 1173.5,-265 1173.5,-235 1057.5,-235"/>
<text text-anchor="start" x="1065.5" y="-253" font-family="Helvetica,sans-Serif" font-size="10.00">Igor::iModelDataIOOBJ</text>
<text text-anchor="middle" x="1115.5" y="-242" font-family="Helvetica,sans-Serif" font-size="10.00">::readMaterialFile</text>
</a>
</g>
</g>
<!-- Node148&#45;&gt;Node149 -->
<g id="edge19" class="edge"><title>Node148&#45;&gt;Node149</title>
<path fill="none" stroke="midnightblue" d="M1224.92,-196.698C1209.97,-205.846 1191.85,-216.442 1175,-225 1168.21,-228.451 1160.82,-231.858 1153.66,-234.993"/>
<polygon fill="midnightblue" stroke="midnightblue" points="1227.12,-199.456 1233.78,-191.221 1223.44,-193.502 1227.12,-199.456"/>
</g>
<!-- Node150 -->
<g id="node19" class="node"><title>Node150</title>
<g id="a_node19"><a xlink:href="class_igor_1_1i_model_data_i_o_o_b_j.html#a68b9738d5ece0fa83687d8417b026e57" target="_top" xlink:title=" ">
<polygon fill="white" stroke="black" points="1057.5,-186 1057.5,-216 1173.5,-216 1173.5,-186 1057.5,-186"/>
<text text-anchor="start" x="1065.5" y="-204" font-family="Helvetica,sans-Serif" font-size="10.00">Igor::iModelDataIOOBJ</text>
<text text-anchor="middle" x="1115.5" y="-193" font-family="Helvetica,sans-Serif" font-size="10.00">::readVertex</text>
</a>
</g>
</g>
<!-- Node148&#45;&gt;Node150 -->
<g id="edge20" class="edge"><title>Node148&#45;&gt;Node150</title>
<path fill="none" stroke="midnightblue" d="M1200.94,-186.029C1191.93,-187.627 1182.6,-189.28 1173.58,-190.88"/>
<polygon fill="midnightblue" stroke="midnightblue" points="1201.71,-189.447 1210.94,-184.255 1200.48,-182.555 1201.71,-189.447"/>
</g>
<!-- Node151 -->
<g id="node20" class="node"><title>Node151</title>
<g id="a_node20"><a xlink:href="class_igor_1_1i_model_data_i_o_o_b_j.html#a4a081dbc2ab84591c59386853c935bf1" target="_top" xlink:title=" ">
<polygon fill="white" stroke="black" points="1057.5,-137 1057.5,-167 1173.5,-167 1173.5,-137 1057.5,-137"/>
<text text-anchor="start" x="1065.5" y="-155" font-family="Helvetica,sans-Serif" font-size="10.00">Igor::iModelDataIOOBJ</text>
<text text-anchor="middle" x="1115.5" y="-144" font-family="Helvetica,sans-Serif" font-size="10.00">::readFile</text>
</a>
</g>
</g>
<!-- Node148&#45;&gt;Node151 -->
<g id="edge21" class="edge"><title>Node148&#45;&gt;Node151</title>
<path fill="none" stroke="midnightblue" d="M1200.94,-166.372C1191.93,-164.838 1182.6,-163.251 1173.58,-161.715"/>
<polygon fill="midnightblue" stroke="midnightblue" points="1200.5,-169.847 1210.94,-168.075 1201.67,-162.947 1200.5,-169.847"/>
</g>
<!-- Node152 -->
<g id="node21" class="node"><title>Node152</title>
<g id="a_node21"><a xlink:href="class_igor_aux_1_1ia_directory.html#a207e86502241f4440826013b8fc23682" target="_top" xlink:title=" ">
<polygon fill="white" stroke="black" points="1064.5,-88 1064.5,-118 1166.5,-118 1166.5,-88 1064.5,-88"/>
<text text-anchor="start" x="1072.5" y="-106" font-family="Helvetica,sans-Serif" font-size="10.00">IgorAux::iaDirectory</text>
<text text-anchor="middle" x="1115.5" y="-95" font-family="Helvetica,sans-Serif" font-size="10.00">::getRelativePath</text>
</a>
</g>
</g>
<!-- Node148&#45;&gt;Node152 -->
<g id="edge23" class="edge"><title>Node148&#45;&gt;Node152</title>
<path fill="none" stroke="midnightblue" d="M1225.31,-155.388C1210.3,-146.172 1192.04,-135.497 1175,-127 1168.81,-123.913 1162.13,-120.892 1155.56,-118.092"/>
<polygon fill="midnightblue" stroke="midnightblue" points="1223.85,-158.601 1234.19,-160.905 1227.54,-152.655 1223.85,-158.601"/>
</g>
<!-- Node154 -->
<g id="node23" class="node"><title>Node154</title>
<g id="a_node23"><a xlink:href="class_igor_aux_1_1ia_string.html#a9819b007db2c04bb5f08aca92251f2c7" target="_top" xlink:title=" ">
<polygon fill="white" stroke="black" points="1068,-39 1068,-69 1163,-69 1163,-39 1068,-39"/>
<text text-anchor="start" x="1076" y="-57" font-family="Helvetica,sans-Serif" font-size="10.00">IgorAux::iaString::</text>
<text text-anchor="middle" x="1115.5" y="-46" font-family="Helvetica,sans-Serif" font-size="10.00">split</text>
</a>
</g>
</g>
<!-- Node148&#45;&gt;Node154 -->
<g id="edge26" class="edge"><title>Node148&#45;&gt;Node154</title>
<path fill="none" stroke="midnightblue" d="M1242.53,-152.367C1227.67,-130.546 1203.11,-98.5037 1175,-78 1170.39,-74.636 1165.24,-71.6485 1159.95,-69.0231"/>
<polygon fill="midnightblue" stroke="midnightblue" points="1239.65,-154.357 1248.1,-160.748 1245.48,-150.482 1239.65,-154.357"/>
</g>
<!-- Node148&#45;&gt;Node155 -->
<g id="edge27" class="edge"><title>Node148&#45;&gt;Node155</title>
<path fill="none" stroke="midnightblue" d="M1243,-152.015C1233.68,-136.438 1221.41,-115.639 1211,-97 1194.32,-67.1462 1201.18,-51.0028 1175,-29 1170.42,-25.1523 1165.05,-22.0788 1159.44,-19.6249"/>
<polygon fill="midnightblue" stroke="midnightblue" points="1240.23,-154.201 1248.38,-160.972 1246.23,-150.597 1240.23,-154.201"/>
</g>
<!-- Node152&#45;&gt;Node133 -->
<g id="edge25" class="edge"><title>Node152&#45;&gt;Node133</title>
<path fill="none" stroke="midnightblue" d="M1067.67,-121.918C1063.71,-123.607 1059.78,-125.316 1056,-127 1033.17,-137.174 1007.75,-149.462 988.586,-158.922"/>
<polygon fill="midnightblue" stroke="midnightblue" points="1069.05,-125.137 1076.91,-118.033 1066.33,-118.685 1069.05,-125.137"/>
</g>
<!-- Node153 -->
<g id="node22" class="node"><title>Node153</title>
<g id="a_node22"><a xlink:href="class_igor_1_1i_model_data_i_o_o_m_p_f.html#ac728c96722f5c083775e09c3ce541727" target="_top" xlink:title=" ">
<polygon fill="white" stroke="black" points="895,-88 895,-118 1020,-118 1020,-88 895,-88"/>
<text text-anchor="start" x="903" y="-106" font-family="Helvetica,sans-Serif" font-size="10.00">Igor::iModelDataIOOMPF</text>
<text text-anchor="middle" x="957.5" y="-95" font-family="Helvetica,sans-Serif" font-size="10.00">::createMeshChunk</text>
</a>
</g>
</g>
<!-- Node152&#45;&gt;Node153 -->
<g id="edge24" class="edge"><title>Node152&#45;&gt;Node153</title>
<path fill="none" stroke="midnightblue" d="M1054.19,-103C1043.01,-103 1031.31,-103 1020.1,-103"/>
<polygon fill="midnightblue" stroke="midnightblue" points="1054.28,-106.5 1064.28,-103 1054.28,-99.5001 1054.28,-106.5"/>
</g>
</g>
</svg>
