<?xml version="1.0" encoding="UTF-8" standalone="no"?>
<!DOCTYPE svg PUBLIC "-//W3C//DTD SVG 1.1//EN"
 "http://www.w3.org/Graphics/SVG/1.1/DTD/svg11.dtd">
<!-- Generated by graphviz version 2.38.0 (20140413.2041)
 -->
<!-- Title: Igor::iNodeVolume::getBoundingBox Pages: 1 -->
<svg width="312pt" height="78pt"
 viewBox="0.00 0.00 312.00 77.50" xmlns="http://www.w3.org/2000/svg" xmlns:xlink="http://www.w3.org/1999/xlink">
<g id="graph0" class="graph" transform="scale(1 1) rotate(0) translate(4 73.5)">
<title>Igor::iNodeVolume::getBoundingBox</title>
<polygon fill="white" stroke="none" points="-4,4 -4,-73.5 308,-73.5 308,4 -4,4"/>
<!-- Node1 -->
<g id="node1" class="node"><title>Node1</title>
<polygon fill="#bfbfbf" stroke="black" points="0,-17 0,-47 102,-47 102,-17 0,-17"/>
<text text-anchor="start" x="8" y="-35" font-family="Helvetica,sans-Serif" font-size="10.00">Igor::iNodeVolume::</text>
<text text-anchor="middle" x="51" y="-24" font-family="Helvetica,sans-Serif" font-size="10.00">getBoundingBox</text>
</g>
<!-- Node2 -->
<g id="node2" class="node"><title>Node2</title>
<g id="a_node2"><a xlink:href="class_igor_1_1i_node_visitor_render_boundings.html#ab261bb0c51926523986831a16bf1e8d6" target="_top" xlink:title="Igor::iNodeVisitorRender\lBoundings::preOrderVisit">
<polygon fill="white" stroke="black" points="158.5,-39 158.5,-69 283.5,-69 283.5,-39 158.5,-39"/>
<text text-anchor="start" x="166.5" y="-57" font-family="Helvetica,sans-Serif" font-size="10.00">Igor::iNodeVisitorRender</text>
<text text-anchor="middle" x="221" y="-46" font-family="Helvetica,sans-Serif" font-size="10.00">Boundings::preOrderVisit</text>
</a>
</g>
</g>
<!-- Node1&#45;&gt;Node2 -->
<g id="edge1" class="edge"><title>Node1&#45;&gt;Node2</title>
<path fill="none" stroke="midnightblue" d="M112.523,-39.9256C127.421,-41.8765 143.39,-43.9677 158.341,-45.9256"/>
<polygon fill="midnightblue" stroke="midnightblue" points="112.775,-36.4289 102.406,-38.6007 111.866,-43.3696 112.775,-36.4289"/>
</g>
<!-- Node3 -->
<g id="node3" class="node"><title>Node3</title>
<g id="a_node3"><a xlink:href="class_model_viewer.html#a4f285cd99256bc37dd4b1e60919de91b" target="_top" xlink:title="ModelViewer::renderNodeSelected">
<polygon fill="white" stroke="black" points="138,-0.5 138,-19.5 304,-19.5 304,-0.5 138,-0.5"/>
<text text-anchor="middle" x="221" y="-7.5" font-family="Helvetica,sans-Serif" font-size="10.00">ModelViewer::renderNodeSelected</text>
</a>
</g>
</g>
<!-- Node1&#45;&gt;Node3 -->
<g id="edge2" class="edge"><title>Node1&#45;&gt;Node3</title>
<path fill="none" stroke="midnightblue" d="M112.551,-24.0707C123.814,-22.5958 135.688,-21.0409 147.271,-19.5241"/>
<polygon fill="midnightblue" stroke="midnightblue" points="111.866,-20.6304 102.406,-25.3993 112.775,-27.5711 111.866,-20.6304"/>
</g>
</g>
</svg>
