<?xml version="1.0" encoding="UTF-8" standalone="no"?>
<!DOCTYPE svg PUBLIC "-//W3C//DTD SVG 1.1//EN"
 "http://www.w3.org/Graphics/SVG/1.1/DTD/svg11.dtd">
<!-- Generated by graphviz version 2.38.0 (20140413.2041)
 -->
<!-- Title: UserControlNode Pages: 1 -->
<svg width="731pt" height="233pt"
 viewBox="0.00 0.00 731.00 233.00" xmlns="http://www.w3.org/2000/svg" xmlns:xlink="http://www.w3.org/1999/xlink">
<g id="graph0" class="graph" transform="scale(1 1) rotate(0) translate(4 229)">
<title>UserControlNode</title>
<polygon fill="white" stroke="none" points="-4,4 -4,-229 727,-229 727,4 -4,4"/>
<!-- Node3 -->
<g id="node1" class="node"><title>Node3</title>
<g id="a_node1"><a xlink:title=" ">
<polygon fill="#bfbfbf" stroke="black" points="633,-74.5 633,-93.5 723,-93.5 723,-74.5 633,-74.5"/>
<text text-anchor="middle" x="678" y="-81.5" font-family="Helvetica,sans-Serif" font-size="10.00">UserControlNode</text>
</a>
</g>
</g>
<!-- Node4 -->
<g id="node2" class="node"><title>Node4</title>
<g id="a_node2"><a xlink:href="class_igor_1_1i_user_control.html" target="_top" xlink:title=" ">
<polygon fill="white" stroke="black" points="414,-0.5 414,-19.5 506,-19.5 506,-0.5 414,-0.5"/>
<text text-anchor="middle" x="460" y="-7.5" font-family="Helvetica,sans-Serif" font-size="10.00">Igor::iUserControl</text>
</a>
</g>
</g>
<!-- Node4&#45;&gt;Node3 -->
<g id="edge1" class="edge"><title>Node4&#45;&gt;Node3</title>
<path fill="none" stroke="midnightblue" d="M513.434,-21.9889C543.601,-29.5396 581.956,-40.2609 615,-53 630.72,-59.0606 647.789,-67.7637 660.03,-74.4064"/>
<polygon fill="midnightblue" stroke="midnightblue" points="514.084,-18.5444 503.537,-19.5514 512.41,-25.3413 514.084,-18.5444"/>
</g>
<!-- Node5 -->
<g id="node3" class="node"><title>Node5</title>
<g id="a_node3"><a xlink:href="class_igor_1_1i_widget.html" target="_top" xlink:title=" ">
<polygon fill="white" stroke="black" points="294,-32.5 294,-51.5 365,-51.5 365,-32.5 294,-32.5"/>
<text text-anchor="middle" x="329.5" y="-39.5" font-family="Helvetica,sans-Serif" font-size="10.00">Igor::iWidget</text>
</a>
</g>
</g>
<!-- Node5&#45;&gt;Node4 -->
<g id="edge2" class="edge"><title>Node5&#45;&gt;Node4</title>
<path fill="none" stroke="midnightblue" d="M375.221,-30.8632C390.004,-27.1818 406.312,-23.1208 420.58,-19.5675"/>
<polygon fill="midnightblue" stroke="midnightblue" points="374.132,-27.5275 365.274,-33.3403 375.823,-34.3201 374.132,-27.5275"/>
</g>
<!-- Node5&#45;&gt;Node5 -->
<g id="edge4" class="edge"><title>Node5&#45;&gt;Node5</title>
<path fill="none" stroke="#9a32cd" stroke-dasharray="5,2" d="M319.556,-61.7663C320.337,-66.4965 323.651,-70 329.5,-70 339.098,-70 341.872,-60.5653 337.823,-51.7571"/>
<polygon fill="#9a32cd" stroke="#9a32cd" points="323.033,-62.1881 321.177,-51.7571 316.123,-61.0687 323.033,-62.1881"/>
<text text-anchor="middle" x="329.5" y="-84" font-family="Helvetica,sans-Serif" font-size="10.00"> _keyboardFocus</text>
<text text-anchor="middle" x="329.5" y="-73" font-family="Helvetica,sans-Serif" font-size="10.00">_parent</text>
</g>
<!-- Node10 -->
<g id="node8" class="node"><title>Node10</title>
<g id="a_node8"><a xlink:href="class_igor_1_1i_widget_check_box.html" target="_top" xlink:title=" ">
<polygon fill="white" stroke="black" points="402,-153.5 402,-172.5 518,-172.5 518,-153.5 402,-153.5"/>
<text text-anchor="middle" x="460" y="-160.5" font-family="Helvetica,sans-Serif" font-size="10.00">Igor::iWidgetCheckBox</text>
</a>
</g>
</g>
<!-- Node5&#45;&gt;Node10 -->
<g id="edge9" class="edge"><title>Node5&#45;&gt;Node10</title>
<path fill="none" stroke="midnightblue" d="M339.245,-60.7594C350.662,-83.3193 372.696,-120.902 402,-143 407.694,-147.294 414.385,-150.718 421.141,-153.431"/>
<polygon fill="midnightblue" stroke="midnightblue" points="342.288,-59.0143 334.758,-51.5608 335.996,-62.083 342.288,-59.0143"/>
</g>
<!-- Node11 -->
<g id="node9" class="node"><title>Node11</title>
<g id="a_node9"><a xlink:href="class_igor_1_1i_widget_text_edit.html" target="_top" xlink:title=" ">
<polygon fill="white" stroke="black" points="406.5,-76.5 406.5,-95.5 513.5,-95.5 513.5,-76.5 406.5,-76.5"/>
<text text-anchor="middle" x="460" y="-83.5" font-family="Helvetica,sans-Serif" font-size="10.00">Igor::iWidgetTextEdit</text>
</a>
</g>
</g>
<!-- Node5&#45;&gt;Node11 -->
<g id="edge12" class="edge"><title>Node5&#45;&gt;Node11</title>
<path fill="none" stroke="midnightblue" d="M367.108,-54.9155C378.295,-58.8313 390.642,-63.1217 402,-67 411.082,-70.1012 420.998,-73.4272 429.975,-76.416"/>
<polygon fill="midnightblue" stroke="midnightblue" points="368.224,-51.5979 357.629,-51.5905 365.907,-58.2033 368.224,-51.5979"/>
</g>
<!-- Node12 -->
<g id="node10" class="node"><title>Node12</title>
<g id="a_node10"><a xlink:href="class_igor_1_1i_widget_label.html" target="_top" xlink:title=" ">
<polygon fill="white" stroke="black" points="412.5,-114.5 412.5,-133.5 507.5,-133.5 507.5,-114.5 412.5,-114.5"/>
<text text-anchor="middle" x="460" y="-121.5" font-family="Helvetica,sans-Serif" font-size="10.00">Igor::iWidgetLabel</text>
</a>
</g>
</g>
<!-- Node5&#45;&gt;Node12 -->
<g id="edge15" class="edge"><title>Node5&#45;&gt;Node12</title>
<path fill="none" stroke="midnightblue" d="M346.388,-59.4329C359.973,-73.4356 380.661,-92.725 402,-105 408.51,-108.745 415.867,-111.886 423.08,-114.467"/>
<polygon fill="midnightblue" stroke="midnightblue" points="348.672,-56.7544 339.259,-51.8922 343.585,-61.5633 348.672,-56.7544"/>
</g>
<!-- Node13 -->
<g id="node11" class="node"><title>Node13</title>
<g id="a_node11"><a xlink:href="class_igor_1_1i_widget_grid.html" target="_top" xlink:title=" ">
<polygon fill="white" stroke="black" points="415.5,-38.5 415.5,-57.5 504.5,-57.5 504.5,-38.5 415.5,-38.5"/>
<text text-anchor="middle" x="460" y="-45.5" font-family="Helvetica,sans-Serif" font-size="10.00">Igor::iWidgetGrid</text>
</a>
</g>
</g>
<!-- Node5&#45;&gt;Node13 -->
<g id="edge18" class="edge"><title>Node5&#45;&gt;Node13</title>
<path fill="none" stroke="midnightblue" d="M375.399,-44.0965C388.394,-44.7032 402.552,-45.3643 415.462,-45.9671"/>
<polygon fill="midnightblue" stroke="midnightblue" points="375.426,-40.594 365.274,-43.6237 375.1,-47.5864 375.426,-40.594"/>
</g>
<!-- Node6 -->
<g id="node4" class="node"><title>Node6</title>
<g id="a_node4"><a xlink:href="class_igor_aux_1_1ia_string.html" target="_top" xlink:title=" ">
<polygon fill="white" stroke="black" points="94.5,-147.5 94.5,-166.5 183.5,-166.5 183.5,-147.5 94.5,-147.5"/>
<text text-anchor="middle" x="139" y="-154.5" font-family="Helvetica,sans-Serif" font-size="10.00">IgorAux::iaString</text>
</a>
</g>
</g>
<!-- Node6&#45;&gt;Node5 -->
<g id="edge3" class="edge"><title>Node6&#45;&gt;Node5</title>
<path fill="none" stroke="#9a32cd" stroke-dasharray="5,2" d="M160.987,-141.301C176.225,-130.147 197.503,-115.069 217,-103 242.364,-87.299 249.833,-85.3231 276,-71 287.691,-64.6005 300.816,-57.3505 311.019,-51.7004"/>
<polygon fill="#9a32cd" stroke="#9a32cd" points="158.741,-138.609 152.773,-147.362 162.897,-144.241 158.741,-138.609"/>
<text text-anchor="middle" x="246.5" y="-106" font-family="Helvetica,sans-Serif" font-size="10.00"> _tooltip</text>
</g>
<!-- Node6&#45;&gt;Node10 -->
<g id="edge10" class="edge"><title>Node6&#45;&gt;Node10</title>
<path fill="none" stroke="#9a32cd" stroke-dasharray="5,2" d="M160.891,-172.444C175.717,-182.424 196.543,-194.533 217,-200 288.706,-219.163 312.186,-218.754 384,-200 406.196,-194.204 429.563,-181.468 444.2,-172.567"/>
<polygon fill="#9a32cd" stroke="#9a32cd" points="162.696,-169.436 152.492,-166.584 158.69,-175.177 162.696,-169.436"/>
<text text-anchor="middle" x="329.5" y="-217" font-family="Helvetica,sans-Serif" font-size="10.00"> _text</text>
</g>
<!-- Node6&#45;&gt;Node11 -->
<g id="edge13" class="edge"><title>Node6&#45;&gt;Node11</title>
<path fill="none" stroke="#9a32cd" stroke-dasharray="5,2" d="M192.753,-145.259C255.349,-131.327 358.491,-108.37 416.308,-95.5021"/>
<polygon fill="#9a32cd" stroke="#9a32cd" points="191.691,-141.909 182.691,-147.498 193.212,-148.742 191.691,-141.909"/>
<text text-anchor="middle" x="329.5" y="-136" font-family="Helvetica,sans-Serif" font-size="10.00"> _textBackup</text>
<text text-anchor="middle" x="329.5" y="-125" font-family="Helvetica,sans-Serif" font-size="10.00">_text</text>
</g>
<!-- Node6&#45;&gt;Node12 -->
<g id="edge16" class="edge"><title>Node6&#45;&gt;Node12</title>
<path fill="none" stroke="#9a32cd" stroke-dasharray="5,2" d="M193.9,-160.712C239.724,-162.814 307.104,-163.41 365,-154 377.935,-151.898 408.985,-141.592 431.876,-133.64"/>
<polygon fill="#9a32cd" stroke="#9a32cd" points="194.048,-157.215 183.886,-160.213 193.699,-164.207 194.048,-157.215"/>
<text text-anchor="middle" x="329.5" y="-163" font-family="Helvetica,sans-Serif" font-size="10.00"> _text</text>
</g>
<!-- Node7 -->
<g id="node5" class="node"><title>Node7</title>
<g id="a_node5"><a xlink:href="class_igor_1_1i_timer_handle.html" target="_top" xlink:title=" ">
<polygon fill="white" stroke="black" points="91.5,-0.5 91.5,-19.5 186.5,-19.5 186.5,-0.5 91.5,-0.5"/>
<text text-anchor="middle" x="139" y="-7.5" font-family="Helvetica,sans-Serif" font-size="10.00">Igor::iTimerHandle</text>
</a>
</g>
</g>
<!-- Node7&#45;&gt;Node5 -->
<g id="edge5" class="edge"><title>Node7&#45;&gt;Node5</title>
<path fill="none" stroke="#9a32cd" stroke-dasharray="5,2" d="M196.718,-15.8499C221.221,-18.8037 250.143,-22.8635 276,-28 282.292,-29.2498 288.945,-30.8234 295.324,-32.4607"/>
<polygon fill="#9a32cd" stroke="#9a32cd" points="196.849,-12.3413 186.509,-14.6517 196.033,-19.2936 196.849,-12.3413"/>
<text text-anchor="middle" x="246.5" y="-31" font-family="Helvetica,sans-Serif" font-size="10.00"> _timerTooltip</text>
</g>
<!-- Node8 -->
<g id="node6" class="node"><title>Node8</title>
<g id="a_node6"><a xlink:href="class_igor_aux_1_1ia_vector2.html" target="_top" xlink:title=" ">
<polygon fill="white" stroke="black" points="79,-38.5 79,-57.5 199,-57.5 199,-38.5 79,-38.5"/>
<text text-anchor="middle" x="139" y="-45.5" font-family="Helvetica,sans-Serif" font-size="10.00">IgorAux::iaVector2&lt; T &gt;</text>
</a>
</g>
</g>
<!-- Node8&#45;&gt;Node5 -->
<g id="edge6" class="edge"><title>Node8&#45;&gt;Node5</title>
<path fill="none" stroke="#9a32cd" stroke-dasharray="5,2" d="M209.143,-45.7991C237.918,-44.8832 270.06,-43.8602 293.734,-43.1066"/>
<polygon fill="#9a32cd" stroke="#9a32cd" points="209.009,-42.3016 199.125,-46.118 209.232,-49.298 209.009,-42.3016"/>
<text text-anchor="middle" x="246.5" y="-59" font-family="Helvetica,sans-Serif" font-size="10.00"> _tooltipPos</text>
<text text-anchor="middle" x="246.5" y="-48" font-family="Helvetica,sans-Serif" font-size="10.00">_posLast</text>
</g>
<!-- Node9 -->
<g id="node7" class="node"><title>Node9</title>
<g id="a_node7"><a xlink:title=" ">
<polygon fill="white" stroke="#bfbfbf" points="0,-38.5 0,-57.5 29,-57.5 29,-38.5 0,-38.5"/>
<text text-anchor="middle" x="14.5" y="-45.5" font-family="Helvetica,sans-Serif" font-size="10.00">T</text>
</a>
</g>
</g>
<!-- Node9&#45;&gt;Node8 -->
<g id="edge7" class="edge"><title>Node9&#45;&gt;Node8</title>
<path fill="none" stroke="#9a32cd" stroke-dasharray="5,2" d="M39.4257,-48C50.8091,-48 64.9724,-48 78.98,-48"/>
<polygon fill="#9a32cd" stroke="#9a32cd" points="39.0777,-44.5001 29.0777,-48 39.0777,-51.5001 39.0777,-44.5001"/>
<text text-anchor="middle" x="54" y="-62" font-family="Helvetica,sans-Serif" font-size="10.00"> _x</text>
<text text-anchor="middle" x="54" y="-51" font-family="Helvetica,sans-Serif" font-size="10.00">_y</text>
</g>
<!-- Node10&#45;&gt;Node3 -->
<g id="edge8" class="edge"><title>Node10&#45;&gt;Node3</title>
<path fill="none" stroke="#9a32cd" stroke-dasharray="5,2" d="M528.359,-158.24C556.16,-154.396 588.102,-147.47 615,-135 636.749,-124.917 657.261,-105.361 668.38,-93.6127"/>
<polygon fill="#9a32cd" stroke="#9a32cd" points="527.797,-154.783 518.321,-159.521 528.683,-161.727 527.797,-154.783"/>
<text text-anchor="middle" x="575.5" y="-159" font-family="Helvetica,sans-Serif" font-size="10.00"> _checkBoxActive</text>
</g>
<!-- Node11&#45;&gt;Node3 -->
<g id="edge11" class="edge"><title>Node11&#45;&gt;Node3</title>
<path fill="none" stroke="#9a32cd" stroke-dasharray="5,2" d="M523.986,-85.1316C528.052,-85.0844 532.083,-85.04 536,-85 568.434,-84.6688 605.066,-84.4125 632.861,-84.2424"/>
<polygon fill="#9a32cd" stroke="#9a32cd" points="523.814,-81.6334 513.857,-85.2539 523.899,-88.6328 523.814,-81.6334"/>
<text text-anchor="middle" x="575.5" y="-88" font-family="Helvetica,sans-Serif" font-size="10.00"> _textName</text>
</g>
<!-- Node12&#45;&gt;Node3 -->
<g id="edge14" class="edge"><title>Node12&#45;&gt;Node3</title>
<path fill="none" stroke="#9a32cd" stroke-dasharray="5,2" d="M517.521,-113.882C546.654,-108.626 582.747,-102.053 615,-96 620.819,-94.9079 626.941,-93.7427 632.981,-92.5836"/>
<polygon fill="#9a32cd" stroke="#9a32cd" points="516.746,-110.465 507.525,-115.683 517.987,-117.354 516.746,-110.465"/>
<text text-anchor="middle" x="575.5" y="-123" font-family="Helvetica,sans-Serif" font-size="10.00"> _labelName</text>
<text text-anchor="middle" x="575.5" y="-112" font-family="Helvetica,sans-Serif" font-size="10.00">_labelActive</text>
</g>
<!-- Node13&#45;&gt;Node3 -->
<g id="edge17" class="edge"><title>Node13&#45;&gt;Node3</title>
<path fill="none" stroke="#9a32cd" stroke-dasharray="5,2" d="M514.821,-53.9759C544.49,-57.6117 581.912,-62.7581 615,-69 623.271,-70.5602 632.095,-72.5161 640.415,-74.4951"/>
<polygon fill="#9a32cd" stroke="#9a32cd" points="515.016,-50.4743 504.67,-52.7535 514.18,-57.4241 515.016,-50.4743"/>
<text text-anchor="middle" x="575.5" y="-72" font-family="Helvetica,sans-Serif" font-size="10.00"> _grid</text>
</g>
</g>
</svg>
