<?xml version="1.0" encoding="UTF-8" standalone="no"?>
<!DOCTYPE svg PUBLIC "-//W3C//DTD SVG 1.1//EN"
 "http://www.w3.org/Graphics/SVG/1.1/DTD/svg11.dtd">
<!-- Generated by graphviz version 2.38.0 (20140413.2041)
 -->
<!-- Title: Widget3DLocator::createLocatorMesh Pages: 1 -->
<svg width="500pt" height="284pt"
 viewBox="0.00 0.00 500.00 284.00" xmlns="http://www.w3.org/2000/svg" xmlns:xlink="http://www.w3.org/1999/xlink">
<g id="graph0" class="graph" transform="scale(1 1) rotate(0) translate(4 280)">
<title>Widget3DLocator::createLocatorMesh</title>
<polygon fill="white" stroke="none" points="-4,4 -4,-280 496,-280 496,4 -4,4"/>
<!-- Node1 -->
<g id="node1" class="node"><title>Node1</title>
<polygon fill="#bfbfbf" stroke="black" points="0,-128 0,-147 181,-147 181,-128 0,-128"/>
<text text-anchor="middle" x="90.5" y="-135" font-family="Helvetica,sans-Serif" font-size="10.00">Widget3DLocator::createLocatorMesh</text>
</g>
<!-- Node2 -->
<g id="node2" class="node"><title>Node2</title>
<g id="a_node2"><a xlink:href="class_igor_aux_1_1ia_matrix.html#ac3391a41520f494b8aa83d41ae89719b" target="_top" xlink:title="IgorAux::iaMatrix::\ltranslate">
<polygon fill="white" stroke="black" points="226,-245.5 226,-275.5 322,-275.5 322,-245.5 226,-245.5"/>
<text text-anchor="start" x="234" y="-263.5" font-family="Helvetica,sans-Serif" font-size="10.00">IgorAux::iaMatrix::</text>
<text text-anchor="middle" x="274" y="-252.5" font-family="Helvetica,sans-Serif" font-size="10.00">translate</text>
</a>
</g>
</g>
<!-- Node1&#45;&gt;Node2 -->
<g id="edge1" class="edge"><title>Node1&#45;&gt;Node2</title>
<path fill="none" stroke="midnightblue" d="M101.875,-147.266C122.513,-166.32 170.724,-208.987 217,-236.5 219.598,-238.045 222.314,-239.544 225.09,-240.988"/>
<polygon fill="midnightblue" stroke="midnightblue" points="223.563,-244.138 234.082,-245.403 226.648,-237.854 223.563,-244.138"/>
</g>
<!-- Node3 -->
<g id="node3" class="node"><title>Node3</title>
<g id="a_node3"><a xlink:href="class_igor_aux_1_1ia_matrix.html#a0d1f814a5844dbda77ed03f55768b8ba" target="_top" xlink:title="IgorAux::iaMatrix::\lscale">
<polygon fill="white" stroke="black" points="226,-196.5 226,-226.5 322,-226.5 322,-196.5 226,-196.5"/>
<text text-anchor="start" x="234" y="-214.5" font-family="Helvetica,sans-Serif" font-size="10.00">IgorAux::iaMatrix::</text>
<text text-anchor="middle" x="274" y="-203.5" font-family="Helvetica,sans-Serif" font-size="10.00">scale</text>
</a>
</g>
</g>
<!-- Node1&#45;&gt;Node3 -->
<g id="edge2" class="edge"><title>Node1&#45;&gt;Node3</title>
<path fill="none" stroke="midnightblue" d="M114.856,-147.023C142.981,-158.489 190.889,-178.022 226.623,-192.591"/>
<polygon fill="midnightblue" stroke="midnightblue" points="225.306,-195.834 235.888,-196.369 227.949,-189.352 225.306,-195.834"/>
</g>
<!-- Node4 -->
<g id="node4" class="node"><title>Node4</title>
<g id="a_node4"><a xlink:href="class_igor_1_1i_mesh_builder.html#a458f799e29103966a2c180b0192bb789" target="_top" xlink:title="Igor::iMeshBuilder\l::setMatrix">
<polygon fill="white" stroke="black" points="226.5,-147.5 226.5,-177.5 321.5,-177.5 321.5,-147.5 226.5,-147.5"/>
<text text-anchor="start" x="234.5" y="-165.5" font-family="Helvetica,sans-Serif" font-size="10.00">Igor::iMeshBuilder</text>
<text text-anchor="middle" x="274" y="-154.5" font-family="Helvetica,sans-Serif" font-size="10.00">::setMatrix</text>
</a>
</g>
</g>
<!-- Node1&#45;&gt;Node4 -->
<g id="edge3" class="edge"><title>Node1&#45;&gt;Node4</title>
<path fill="none" stroke="midnightblue" d="M160.635,-147.023C178.975,-149.549 198.565,-152.247 216.167,-154.672"/>
<polygon fill="midnightblue" stroke="midnightblue" points="215.893,-158.167 226.277,-156.064 216.848,-151.232 215.893,-158.167"/>
</g>
<!-- Node5 -->
<g id="node5" class="node"><title>Node5</title>
<g id="a_node5"><a xlink:href="namespace_igor_1_1i_mesh_builder_utils.html#a47f09e94d76a32f05fcc8747d341665b" target="_top" xlink:title="Igor::iMeshBuilderUtils\l::addCylinder">
<polygon fill="white" stroke="black" points="217,-98.5 217,-128.5 331,-128.5 331,-98.5 217,-98.5"/>
<text text-anchor="start" x="225" y="-116.5" font-family="Helvetica,sans-Serif" font-size="10.00">Igor::iMeshBuilderUtils</text>
<text text-anchor="middle" x="274" y="-105.5" font-family="Helvetica,sans-Serif" font-size="10.00">::addCylinder</text>
</a>
</g>
</g>
<!-- Node1&#45;&gt;Node5 -->
<g id="edge4" class="edge"><title>Node1&#45;&gt;Node5</title>
<path fill="none" stroke="midnightblue" d="M163.494,-127.98C177.75,-126.095 192.652,-124.125 206.707,-122.266"/>
<polygon fill="midnightblue" stroke="midnightblue" points="207.316,-125.716 216.771,-120.935 206.399,-118.776 207.316,-125.716"/>
</g>
<!-- Node9 -->
<g id="node9" class="node"><title>Node9</title>
<g id="a_node9"><a xlink:href="class_igor_1_1i_mesh_builder.html#a46e0762ee333059fd53821e286fc3f08" target="_top" xlink:title="Igor::iMeshBuilder\l::calcNormals">
<polygon fill="white" stroke="black" points="226.5,-49.5 226.5,-79.5 321.5,-79.5 321.5,-49.5 226.5,-49.5"/>
<text text-anchor="start" x="234.5" y="-67.5" font-family="Helvetica,sans-Serif" font-size="10.00">Igor::iMeshBuilder</text>
<text text-anchor="middle" x="274" y="-56.5" font-family="Helvetica,sans-Serif" font-size="10.00">::calcNormals</text>
</a>
</g>
</g>
<!-- Node1&#45;&gt;Node9 -->
<g id="edge8" class="edge"><title>Node1&#45;&gt;Node9</title>
<path fill="none" stroke="midnightblue" d="M115.228,-127.957C143.158,-116.723 190.226,-97.7919 225.7,-83.5242"/>
<polygon fill="midnightblue" stroke="midnightblue" points="227.401,-86.6127 235.372,-79.634 224.789,-80.1183 227.401,-86.6127"/>
</g>
<!-- Node10 -->
<g id="node10" class="node"><title>Node10</title>
<g id="a_node10"><a xlink:href="class_igor_1_1i_mesh_builder.html#acc4acc76e9103871efa519e29c2e66bf" target="_top" xlink:title="Igor::iMeshBuilder\l::createMesh">
<polygon fill="white" stroke="black" points="226.5,-0.5 226.5,-30.5 321.5,-30.5 321.5,-0.5 226.5,-0.5"/>
<text text-anchor="start" x="234.5" y="-18.5" font-family="Helvetica,sans-Serif" font-size="10.00">Igor::iMeshBuilder</text>
<text text-anchor="middle" x="274" y="-7.5" font-family="Helvetica,sans-Serif" font-size="10.00">::createMesh</text>
</a>
</g>
</g>
<!-- Node1&#45;&gt;Node10 -->
<g id="edge9" class="edge"><title>Node1&#45;&gt;Node10</title>
<path fill="none" stroke="midnightblue" d="M102.273,-127.724C123.218,-109.058 171.386,-67.7768 217,-40.5 220.155,-38.6131 223.478,-36.7804 226.867,-35.0215"/>
<polygon fill="midnightblue" stroke="midnightblue" points="228.5,-38.1183 235.916,-30.5519 225.4,-31.8421 228.5,-38.1183"/>
</g>
<!-- Node6 -->
<g id="node6" class="node"><title>Node6</title>
<g id="a_node6"><a xlink:href="class_igor_1_1i_mesh_builder.html#a7bc707a833d24cff2eebc2a0432af35c" target="_top" xlink:title="Igor::iMeshBuilder\l::getVertexCount">
<polygon fill="white" stroke="black" points="382,-147.5 382,-177.5 477,-177.5 477,-147.5 382,-147.5"/>
<text text-anchor="start" x="390" y="-165.5" font-family="Helvetica,sans-Serif" font-size="10.00">Igor::iMeshBuilder</text>
<text text-anchor="middle" x="429.5" y="-154.5" font-family="Helvetica,sans-Serif" font-size="10.00">::getVertexCount</text>
</a>
</g>
</g>
<!-- Node5&#45;&gt;Node6 -->
<g id="edge5" class="edge"><title>Node5&#45;&gt;Node6</title>
<path fill="none" stroke="midnightblue" d="M322.308,-128.601C337.992,-133.608 355.609,-139.232 371.919,-144.438"/>
<polygon fill="midnightblue" stroke="midnightblue" points="371.285,-147.91 381.876,-147.617 373.414,-141.241 371.285,-147.91"/>
</g>
<!-- Node7 -->
<g id="node7" class="node"><title>Node7</title>
<g id="a_node7"><a xlink:href="class_igor_1_1i_mesh_builder.html#ae132784ebd5a29f57ff13f2e242ca50b" target="_top" xlink:title="Igor::iMeshBuilder\l::addVertex">
<polygon fill="white" stroke="black" points="382,-98.5 382,-128.5 477,-128.5 477,-98.5 382,-98.5"/>
<text text-anchor="start" x="390" y="-116.5" font-family="Helvetica,sans-Serif" font-size="10.00">Igor::iMeshBuilder</text>
<text text-anchor="middle" x="429.5" y="-105.5" font-family="Helvetica,sans-Serif" font-size="10.00">::addVertex</text>
</a>
</g>
</g>
<!-- Node5&#45;&gt;Node7 -->
<g id="edge6" class="edge"><title>Node5&#45;&gt;Node7</title>
<path fill="none" stroke="midnightblue" d="M331.286,-113.5C344.384,-113.5 358.34,-113.5 371.47,-113.5"/>
<polygon fill="midnightblue" stroke="midnightblue" points="371.79,-117 381.79,-113.5 371.79,-110 371.79,-117"/>
</g>
<!-- Node8 -->
<g id="node8" class="node"><title>Node8</title>
<g id="a_node8"><a xlink:href="class_igor_1_1i_mesh_builder.html#ac3ae47c63dd2b5b18840482d485de85d" target="_top" xlink:title="Igor::iMeshBuilder\l::addTriangle">
<polygon fill="white" stroke="black" points="382,-49.5 382,-79.5 477,-79.5 477,-49.5 382,-49.5"/>
<text text-anchor="start" x="390" y="-67.5" font-family="Helvetica,sans-Serif" font-size="10.00">Igor::iMeshBuilder</text>
<text text-anchor="middle" x="429.5" y="-56.5" font-family="Helvetica,sans-Serif" font-size="10.00">::addTriangle</text>
</a>
</g>
</g>
<!-- Node5&#45;&gt;Node8 -->
<g id="edge7" class="edge"><title>Node5&#45;&gt;Node8</title>
<path fill="none" stroke="midnightblue" d="M322.308,-98.3986C337.992,-93.3919 355.609,-87.7681 371.919,-82.5617"/>
<polygon fill="midnightblue" stroke="midnightblue" points="373.414,-85.7585 381.876,-79.3832 371.285,-79.0901 373.414,-85.7585"/>
</g>
<!-- Node11 -->
<g id="node11" class="node"><title>Node11</title>
<g id="a_node11"><a xlink:href="class_igor_1_1i_mesh.html#a727bba08a76e6fbf2bc4fba1abe8703d" target="_top" xlink:title="Igor::iMesh::setBounding\lSphere">
<polygon fill="white" stroke="black" points="367,-0.5 367,-30.5 492,-30.5 492,-0.5 367,-0.5"/>
<text text-anchor="start" x="375" y="-18.5" font-family="Helvetica,sans-Serif" font-size="10.00">Igor::iMesh::setBounding</text>
<text text-anchor="middle" x="429.5" y="-7.5" font-family="Helvetica,sans-Serif" font-size="10.00">Sphere</text>
</a>
</g>
</g>
<!-- Node10&#45;&gt;Node11 -->
<g id="edge10" class="edge"><title>Node10&#45;&gt;Node11</title>
<path fill="none" stroke="midnightblue" d="M321.889,-15.5C332.868,-15.5 344.813,-15.5 356.604,-15.5"/>
<polygon fill="midnightblue" stroke="midnightblue" points="356.898,-19.0001 366.898,-15.5 356.898,-12.0001 356.898,-19.0001"/>
</g>
</g>
</svg>
