<?xml version="1.0" encoding="UTF-8" standalone="no"?>
<!DOCTYPE svg PUBLIC "-//W3C//DTD SVG 1.1//EN"
 "http://www.w3.org/Graphics/SVG/1.1/DTD/svg11.dtd">
<!-- Generated by graphviz version 2.38.0 (20140413.2041)
 -->
<!-- Title: Igor::iPhysicsUserMeshCollisionHandler::getCollisionInfo Pages: 1 -->
<svg width="472pt" height="39pt"
 viewBox="0.00 0.00 472.00 39.00" xmlns="http://www.w3.org/2000/svg" xmlns:xlink="http://www.w3.org/1999/xlink">
<g id="graph0" class="graph" transform="scale(1 1) rotate(0) translate(4 35)">
<title>Igor::iPhysicsUserMeshCollisionHandler::getCollisionInfo</title>
<polygon fill="white" stroke="none" points="-4,4 -4,-35 468,-35 468,4 -4,4"/>
<!-- Node1 -->
<g id="node1" class="node"><title>Node1</title>
<polygon fill="#bfbfbf" stroke="black" points="0,-0.5 0,-30.5 157,-30.5 157,-0.5 0,-0.5"/>
<text text-anchor="start" x="8" y="-18.5" font-family="Helvetica,sans-Serif" font-size="10.00">Igor::iPhysicsUserMeshCollision</text>
<text text-anchor="middle" x="78.5" y="-7.5" font-family="Helvetica,sans-Serif" font-size="10.00">Handler::getCollisionInfo</text>
</g>
<!-- Node2 -->
<g id="node2" class="node"><title>Node2</title>
<g id="a_node2"><a xlink:href="namespace_igor.html#ab357f23003426abe61f2832458ec13f9" target="_top" xlink:title="Igor::GetCollisionInfo">
<polygon fill="white" stroke="black" points="193,-6 193,-25 299,-25 299,-6 193,-6"/>
<text text-anchor="middle" x="246" y="-13" font-family="Helvetica,sans-Serif" font-size="10.00">Igor::GetCollisionInfo</text>
</a>
</g>
</g>
<!-- Node1&#45;&gt;Node2 -->
<g id="edge1" class="edge"><title>Node1&#45;&gt;Node2</title>
<path fill="none" stroke="midnightblue" d="M167.459,-15.5C176.013,-15.5 184.494,-15.5 192.532,-15.5"/>
<polygon fill="midnightblue" stroke="midnightblue" points="167.404,-12.0001 157.404,-15.5 167.404,-19.0001 167.404,-12.0001"/>
</g>
<!-- Node3 -->
<g id="node3" class="node"><title>Node3</title>
<g id="a_node3"><a xlink:href="class_igor_1_1i_physics.html#ab0cd7a1d22282b70337e1c55aa15c55f" target="_top" xlink:title="Igor::iPhysics::createUser\lMeshCollision">
<polygon fill="white" stroke="black" points="335,-0.5 335,-30.5 464,-30.5 464,-0.5 335,-0.5"/>
<text text-anchor="start" x="343" y="-18.5" font-family="Helvetica,sans-Serif" font-size="10.00">Igor::iPhysics::createUser</text>
<text text-anchor="middle" x="399.5" y="-7.5" font-family="Helvetica,sans-Serif" font-size="10.00">MeshCollision</text>
</a>
</g>
</g>
<!-- Node2&#45;&gt;Node3 -->
<g id="edge2" class="edge"><title>Node2&#45;&gt;Node3</title>
<path fill="none" stroke="midnightblue" d="M309.256,-15.5C317.668,-15.5 326.31,-15.5 334.748,-15.5"/>
<polygon fill="midnightblue" stroke="midnightblue" points="309.138,-12.0001 299.138,-15.5 309.138,-19.0001 309.138,-12.0001"/>
</g>
</g>
</svg>
