<?xml version="1.0" encoding="UTF-8" standalone="no"?>
<!DOCTYPE svg PUBLIC "-//W3C//DTD SVG 1.1//EN"
 "http://www.w3.org/Graphics/SVG/1.1/DTD/svg11.dtd">
<!-- Generated by graphviz version 2.38.0 (20140413.2041)
 -->
<!-- Title: Igor::iNode::removeNode Pages: 1 -->
<svg width="639pt" height="291pt"
 viewBox="0.00 0.00 639.00 290.50" xmlns="http://www.w3.org/2000/svg" xmlns:xlink="http://www.w3.org/1999/xlink">
<g id="graph0" class="graph" transform="scale(1 1) rotate(0) translate(4 286.5)">
<title>Igor::iNode::removeNode</title>
<polygon fill="white" stroke="none" points="-4,4 -4,-286.5 635,-286.5 635,4 -4,4"/>
<!-- Node648 -->
<g id="node1" class="node"><title>Node648</title>
<g id="a_node1"><a xlink:title=" ">
<polygon fill="#bfbfbf" stroke="black" points="509,-137 509,-156 631,-156 631,-137 509,-137"/>
<text text-anchor="middle" x="570" y="-144" font-family="Helvetica,sans-Serif" font-size="10.00">Igor::iNode::removeNode</text>
</a>
</g>
</g>
<!-- Node649 -->
<g id="node2" class="node"><title>Node649</title>
<g id="a_node2"><a xlink:href="class_igor_1_1i_node.html#aa75518fac280a5b7ede42baab0629efc" target="_top" xlink:title=" ">
<polygon fill="white" stroke="black" points="347,-263 347,-282 447,-282 447,-263 347,-263"/>
<text text-anchor="middle" x="397" y="-270" font-family="Helvetica,sans-Serif" font-size="10.00">Igor::iNode::~iNode</text>
</a>
</g>
</g>
<!-- Node648&#45;&gt;Node649 -->
<g id="edge1" class="edge"><title>Node648&#45;&gt;Node649</title>
<path fill="none" stroke="midnightblue" d="M557.66,-164.79C541.754,-188.874 510.519,-230.814 473,-253.5 465.184,-258.226 456.228,-261.782 447.29,-264.456"/>
<polygon fill="midnightblue" stroke="midnightblue" points="560.699,-166.534 563.162,-156.23 554.811,-162.749 560.699,-166.534"/>
</g>
<!-- Node650 -->
<g id="node3" class="node"><title>Node650</title>
<g id="a_node3"><a xlink:href="class_igor_1_1i_node_factory.html#a9dbf1c77d2d6cce346f022395714b4c9" target="_top" xlink:title=" ">
<polygon fill="white" stroke="black" points="349,-213.5 349,-243.5 445,-243.5 445,-213.5 349,-213.5"/>
<text text-anchor="start" x="357" y="-231.5" font-family="Helvetica,sans-Serif" font-size="10.00">Igor::iNodeFactory</text>
<text text-anchor="middle" x="397" y="-220.5" font-family="Helvetica,sans-Serif" font-size="10.00">::flush</text>
</a>
</g>
</g>
<!-- Node648&#45;&gt;Node650 -->
<g id="edge2" class="edge"><title>Node648&#45;&gt;Node650</title>
<path fill="none" stroke="midnightblue" d="M546.347,-161.838C527.354,-174.229 499.209,-191.519 473,-203.5 464.137,-207.552 454.422,-211.279 445.008,-214.55"/>
<polygon fill="midnightblue" stroke="midnightblue" points="548.475,-164.627 554.887,-156.193 544.615,-158.788 548.475,-164.627"/>
</g>
<!-- Node651 -->
<g id="node4" class="node"><title>Node651</title>
<g id="a_node4"><a xlink:href="class_menu_dialog.html#a6cf0a510f7241c7aa56753c4586d2ab4" target="_top" xlink:title=" ">
<polygon fill="white" stroke="black" points="341,-137 341,-156 453,-156 453,-137 341,-137"/>
<text text-anchor="middle" x="397" y="-144" font-family="Helvetica,sans-Serif" font-size="10.00">MenuDialog::onDelete</text>
</a>
</g>
</g>
<!-- Node648&#45;&gt;Node651 -->
<g id="edge3" class="edge"><title>Node648&#45;&gt;Node651</title>
<path fill="none" stroke="midnightblue" d="M498.393,-146.5C483.306,-146.5 467.581,-146.5 453.176,-146.5"/>
<polygon fill="midnightblue" stroke="midnightblue" points="498.712,-150 508.712,-146.5 498.712,-143 498.712,-150"/>
</g>
<!-- Node654 -->
<g id="node7" class="node"><title>Node654</title>
<g id="a_node7"><a xlink:href="class_menu_dialog.html#a4756d14d3797d94d9e53d2aa2d689364" target="_top" xlink:title=" ">
<polygon fill="white" stroke="black" points="342,-175 342,-194 452,-194 452,-175 342,-175"/>
<text text-anchor="middle" x="397" y="-182" font-family="Helvetica,sans-Serif" font-size="10.00">MenuDialog::onPaste</text>
</a>
</g>
</g>
<!-- Node648&#45;&gt;Node654 -->
<g id="edge6" class="edge"><title>Node648&#45;&gt;Node654</title>
<path fill="none" stroke="midnightblue" d="M515.791,-158.324C491.683,-163.682 463.56,-169.931 440.84,-174.98"/>
<polygon fill="midnightblue" stroke="midnightblue" points="516.847,-161.675 525.849,-156.089 515.328,-154.842 516.847,-161.675"/>
</g>
<!-- Node655 -->
<g id="node8" class="node"><title>Node655</title>
<g id="a_node8"><a xlink:href="class_model_viewer.html#a2f15a5df98da1d448de6dca2dff01ca4" target="_top" xlink:title=" ">
<polygon fill="white" stroke="black" points="321,-99 321,-118 473,-118 473,-99 321,-99"/>
<text text-anchor="middle" x="397" y="-106" font-family="Helvetica,sans-Serif" font-size="10.00">ModelViewer::forceLoadingNow</text>
</a>
</g>
</g>
<!-- Node648&#45;&gt;Node655 -->
<g id="edge9" class="edge"><title>Node648&#45;&gt;Node655</title>
<path fill="none" stroke="midnightblue" d="M515.791,-134.676C491.683,-129.318 463.56,-123.069 440.84,-118.02"/>
<polygon fill="midnightblue" stroke="midnightblue" points="515.328,-138.158 525.849,-136.911 516.847,-131.325 515.328,-138.158"/>
</g>
<!-- Node656 -->
<g id="node9" class="node"><title>Node656</title>
<g id="a_node9"><a xlink:href="class_model_viewer.html#a13014378c1aca9d191468a5b17e947f6" target="_top" xlink:title=" ">
<polygon fill="white" stroke="black" points="331.5,-0.5 331.5,-30.5 462.5,-30.5 462.5,-0.5 331.5,-0.5"/>
<text text-anchor="start" x="339.5" y="-18.5" font-family="Helvetica,sans-Serif" font-size="10.00">ModelViewer::onImportFile</text>
<text text-anchor="middle" x="397" y="-7.5" font-family="Helvetica,sans-Serif" font-size="10.00">DialogClosed</text>
</a>
</g>
</g>
<!-- Node648&#45;&gt;Node656 -->
<g id="edge10" class="edge"><title>Node648&#45;&gt;Node656</title>
<path fill="none" stroke="midnightblue" d="M557.448,-128.548C541.304,-104.844 509.803,-63.3302 473,-39.5 467.721,-36.082 461.918,-33.1174 455.949,-30.5537"/>
<polygon fill="midnightblue" stroke="midnightblue" points="554.591,-130.573 563.042,-136.963 560.421,-126.698 554.591,-130.573"/>
</g>
<!-- Node660 -->
<g id="node13" class="node"><title>Node660</title>
<g id="a_node13"><a xlink:href="class_model_viewer.html#a9f2e19c85aa4ffb6970717d68c171e75" target="_top" xlink:title=" ">
<polygon fill="white" stroke="black" points="321,-49.5 321,-79.5 473,-79.5 473,-49.5 321,-49.5"/>
<text text-anchor="start" x="329" y="-67.5" font-family="Helvetica,sans-Serif" font-size="10.00">ModelViewer::onFileLoadDialog</text>
<text text-anchor="middle" x="397" y="-56.5" font-family="Helvetica,sans-Serif" font-size="10.00">Closed</text>
</a>
</g>
</g>
<!-- Node648&#45;&gt;Node660 -->
<g id="edge14" class="edge"><title>Node648&#45;&gt;Node660</title>
<path fill="none" stroke="midnightblue" d="M546.347,-131.162C527.354,-118.771 499.209,-101.481 473,-89.5 465.136,-85.905 456.6,-82.5653 448.2,-79.5731"/>
<polygon fill="midnightblue" stroke="midnightblue" points="544.615,-134.212 554.887,-136.807 548.475,-128.373 544.615,-134.212"/>
</g>
<!-- Node652 -->
<g id="node5" class="node"><title>Node652</title>
<g id="a_node5"><a xlink:href="class_menu_dialog.html#aa11150c7006b0d974a9252f03f8068a3" target="_top" xlink:title=" ">
<polygon fill="white" stroke="black" points="168,-137 168,-156 271,-156 271,-137 168,-137"/>
<text text-anchor="middle" x="219.5" y="-144" font-family="Helvetica,sans-Serif" font-size="10.00">MenuDialog::initGUI</text>
</a>
</g>
</g>
<!-- Node651&#45;&gt;Node652 -->
<g id="edge4" class="edge"><title>Node651&#45;&gt;Node652</title>
<path fill="none" stroke="midnightblue" d="M330.82,-146.5C311.116,-146.5 289.783,-146.5 271.175,-146.5"/>
<polygon fill="midnightblue" stroke="midnightblue" points="330.952,-150 340.952,-146.5 330.952,-143 330.952,-150"/>
</g>
<!-- Node653 -->
<g id="node6" class="node"><title>Node653</title>
<g id="a_node6"><a xlink:href="class_menu_dialog.html#ad45c34150be9cf8c048ee636272137ac" target="_top" xlink:title=" ">
<polygon fill="white" stroke="black" points="163,-175 163,-194 276,-194 276,-175 163,-175"/>
<text text-anchor="middle" x="219.5" y="-182" font-family="Helvetica,sans-Serif" font-size="10.00">MenuDialog::deinitGUI</text>
</a>
</g>
</g>
<!-- Node651&#45;&gt;Node653 -->
<g id="edge5" class="edge"><title>Node651&#45;&gt;Node653</title>
<path fill="none" stroke="midnightblue" d="M341.722,-158.253C316.906,-163.626 287.889,-169.909 264.468,-174.98"/>
<polygon fill="midnightblue" stroke="midnightblue" points="342.681,-161.626 351.714,-156.089 341.2,-154.785 342.681,-161.626"/>
</g>
<!-- Node654&#45;&gt;Node652 -->
<g id="edge7" class="edge"><title>Node654&#45;&gt;Node652</title>
<path fill="none" stroke="midnightblue" d="M341.722,-172.747C316.906,-167.374 287.889,-161.091 264.468,-156.02"/>
<polygon fill="midnightblue" stroke="midnightblue" points="341.2,-176.215 351.714,-174.911 342.681,-169.374 341.2,-176.215"/>
</g>
<!-- Node654&#45;&gt;Node653 -->
<g id="edge8" class="edge"><title>Node654&#45;&gt;Node653</title>
<path fill="none" stroke="midnightblue" d="M331.689,-184.5C313.502,-184.5 293.865,-184.5 276.228,-184.5"/>
<polygon fill="midnightblue" stroke="midnightblue" points="331.912,-188 341.912,-184.5 331.912,-181 331.912,-188"/>
</g>
<!-- Node657 -->
<g id="node10" class="node"><title>Node657</title>
<g id="a_node10"><a xlink:href="class_model_viewer.html#a07958faefef0e0a8054fdefa67359f12" target="_top" xlink:title=" ">
<polygon fill="white" stroke="black" points="154,-6 154,-25 285,-25 285,-6 154,-6"/>
<text text-anchor="middle" x="219.5" y="-13" font-family="Helvetica,sans-Serif" font-size="10.00">ModelViewer::onImportFile</text>
</a>
</g>
</g>
<!-- Node656&#45;&gt;Node657 -->
<g id="edge11" class="edge"><title>Node656&#45;&gt;Node657</title>
<path fill="none" stroke="midnightblue" d="M320.802,-15.5C308.911,-15.5 296.706,-15.5 285.085,-15.5"/>
<polygon fill="midnightblue" stroke="midnightblue" points="321.149,-19.0001 331.149,-15.5 321.149,-12.0001 321.149,-19.0001"/>
</g>
<!-- Node658 -->
<g id="node11" class="node"><title>Node658</title>
<g id="a_node11"><a xlink:href="class_model_viewer.html#a6583fbced0dd9654fed6adbad4650911" target="_top" xlink:title=" ">
<polygon fill="white" stroke="black" points="5.5,-72 5.5,-91 112.5,-91 112.5,-72 5.5,-72"/>
<text text-anchor="middle" x="59" y="-79" font-family="Helvetica,sans-Serif" font-size="10.00">ModelViewer::initGUI</text>
</a>
</g>
</g>
<!-- Node657&#45;&gt;Node658 -->
<g id="edge12" class="edge"><title>Node657&#45;&gt;Node658</title>
<path fill="none" stroke="midnightblue" d="M172.015,-27.9819C165.891,-29.9782 159.749,-32.1635 154,-34.5 137.24,-41.312 134.149,-45.3438 118,-53.5 105.524,-59.8011 91.4035,-66.6245 80.2187,-71.9578"/>
<polygon fill="midnightblue" stroke="midnightblue" points="173.06,-31.3225 181.566,-25.006 170.977,-24.6394 173.06,-31.3225"/>
</g>
<!-- Node659 -->
<g id="node12" class="node"><title>Node659</title>
<g id="a_node12"><a xlink:href="class_model_viewer.html#a247bac03643084abda6e880573312206" target="_top" xlink:title=" ">
<polygon fill="white" stroke="black" points="0,-25 0,-44 118,-44 118,-25 0,-25"/>
<text text-anchor="middle" x="59" y="-32" font-family="Helvetica,sans-Serif" font-size="10.00">ModelViewer::deinitGUI</text>
</a>
</g>
</g>
<!-- Node657&#45;&gt;Node659 -->
<g id="edge13" class="edge"><title>Node657&#45;&gt;Node659</title>
<path fill="none" stroke="midnightblue" d="M143.614,-24.4769C135.082,-25.4997 126.482,-26.5306 118.212,-27.5219"/>
<polygon fill="midnightblue" stroke="midnightblue" points="144.062,-27.9483 153.575,-23.2828 143.229,-20.998 144.062,-27.9483"/>
</g>
<!-- Node661 -->
<g id="node14" class="node"><title>Node661</title>
<g id="a_node14"><a xlink:href="class_model_viewer.html#a0a80ce07e2d2b7f390678ad21805f3b2" target="_top" xlink:title=" ">
<polygon fill="white" stroke="black" points="174,-44 174,-63 265,-63 265,-44 174,-44"/>
<text text-anchor="middle" x="219.5" y="-51" font-family="Helvetica,sans-Serif" font-size="10.00">ModelViewer::init</text>
</a>
</g>
</g>
<!-- Node660&#45;&gt;Node661 -->
<g id="edge15" class="edge"><title>Node660&#45;&gt;Node661</title>
<path fill="none" stroke="midnightblue" d="M310.521,-59.1424C294.813,-58.1578 279.008,-57.1672 265.121,-56.2968"/>
<polygon fill="midnightblue" stroke="midnightblue" points="310.609,-62.6546 320.808,-59.7871 311.047,-55.6684 310.609,-62.6546"/>
</g>
<!-- Node662 -->
<g id="node15" class="node"><title>Node662</title>
<g id="a_node15"><a xlink:href="class_model_viewer.html#ab188aff8f81707ba02bd93ef2b201fa7" target="_top" xlink:title=" ">
<polygon fill="white" stroke="black" points="157,-82 157,-101 282,-101 282,-82 157,-82"/>
<text text-anchor="middle" x="219.5" y="-89" font-family="Helvetica,sans-Serif" font-size="10.00">ModelViewer::onLoadFile</text>
</a>
</g>
</g>
<!-- Node660&#45;&gt;Node662 -->
<g id="edge16" class="edge"><title>Node660&#45;&gt;Node662</title>
<path fill="none" stroke="midnightblue" d="M310.752,-77.615C301.069,-79.1047 291.346,-80.6007 282.053,-82.0303"/>
<polygon fill="midnightblue" stroke="midnightblue" points="311.457,-81.0479 320.808,-76.0679 310.393,-74.1293 311.457,-81.0479"/>
</g>
<!-- Node662&#45;&gt;Node658 -->
<g id="edge17" class="edge"><title>Node662&#45;&gt;Node658</title>
<path fill="none" stroke="midnightblue" d="M146.737,-86.9723C135.234,-86.2466 123.518,-85.5075 112.572,-84.8168"/>
<polygon fill="midnightblue" stroke="midnightblue" points="146.565,-90.4684 156.766,-87.6051 147.006,-83.4823 146.565,-90.4684"/>
</g>
<!-- Node662&#45;&gt;Node659 -->
<g id="edge18" class="edge"><title>Node662&#45;&gt;Node659</title>
<path fill="none" stroke="midnightblue" d="M174.063,-79.0307C167.307,-76.9561 160.444,-74.7455 154,-72.5 128.901,-63.7534 100.707,-52.1042 81.8011,-44.0197"/>
<polygon fill="midnightblue" stroke="midnightblue" points="173.239,-82.4376 183.824,-81.9611 175.252,-75.7332 173.239,-82.4376"/>
</g>
</g>
</svg>
