<?xml version="1.0" encoding="UTF-8" standalone="no"?>
<!DOCTYPE svg PUBLIC "-//W3C//DTD SVG 1.1//EN"
 "http://www.w3.org/Graphics/SVG/1.1/DTD/svg11.dtd">
<!-- Generated by graphviz version 2.38.0 (20140413.2041)
 -->
<!-- Title: Igor::iTaskManager::flushIncommingTasks Pages: 1 -->
<svg width="678pt" height="137pt"
 viewBox="0.00 0.00 678.00 137.00" xmlns="http://www.w3.org/2000/svg" xmlns:xlink="http://www.w3.org/1999/xlink">
<g id="graph0" class="graph" transform="scale(1 1) rotate(0) translate(4 133)">
<title>Igor::iTaskManager::flushIncommingTasks</title>
<polygon fill="white" stroke="none" points="-4,4 -4,-133 674,-133 674,4 -4,4"/>
<!-- Node1 -->
<g id="node1" class="node"><title>Node1</title>
<polygon fill="#bfbfbf" stroke="black" points="0,-49.5 0,-79.5 116,-79.5 116,-49.5 0,-49.5"/>
<text text-anchor="start" x="8" y="-67.5" font-family="Helvetica,sans-Serif" font-size="10.00">Igor::iTaskManager</text>
<text text-anchor="middle" x="58" y="-56.5" font-family="Helvetica,sans-Serif" font-size="10.00">::flushIncommingTasks</text>
</g>
<!-- Node2 -->
<g id="node2" class="node"><title>Node2</title>
<g id="a_node2"><a xlink:href="class_igor_1_1i_task_manager.html#aa9792db3fd44be814048eb1bc9c1838d" target="_top" xlink:title="Igor::iTaskManager\l::~iTaskManager">
<polygon fill="white" stroke="black" points="179.5,-98.5 179.5,-128.5 278.5,-128.5 278.5,-98.5 179.5,-98.5"/>
<text text-anchor="start" x="187.5" y="-116.5" font-family="Helvetica,sans-Serif" font-size="10.00">Igor::iTaskManager</text>
<text text-anchor="middle" x="229" y="-105.5" font-family="Helvetica,sans-Serif" font-size="10.00">::~iTaskManager</text>
</a>
</g>
</g>
<!-- Node1&#45;&gt;Node2 -->
<g id="edge1" class="edge"><title>Node1&#45;&gt;Node2</title>
<path fill="none" stroke="midnightblue" d="M120.694,-82.3876C139.985,-87.9808 160.99,-94.071 179.26,-99.3683"/>
<polygon fill="midnightblue" stroke="midnightblue" points="121.664,-79.0247 111.085,-79.6014 119.714,-85.7478 121.664,-79.0247"/>
</g>
<!-- Node3 -->
<g id="node3" class="node"><title>Node3</title>
<g id="a_node3"><a xlink:href="class_igor_1_1i_task_manager.html#a4aed6fc8a88ff9ef945de21743f35208" target="_top" xlink:title="Igor::iTaskManager\l::workWithRenderContextTasks">
<polygon fill="white" stroke="black" points="152,-49.5 152,-79.5 306,-79.5 306,-49.5 152,-49.5"/>
<text text-anchor="start" x="160" y="-67.5" font-family="Helvetica,sans-Serif" font-size="10.00">Igor::iTaskManager</text>
<text text-anchor="middle" x="229" y="-56.5" font-family="Helvetica,sans-Serif" font-size="10.00">::workWithRenderContextTasks</text>
</a>
</g>
</g>
<!-- Node1&#45;&gt;Node3 -->
<g id="edge2" class="edge"><title>Node1&#45;&gt;Node3</title>
<path fill="none" stroke="midnightblue" d="M126.346,-64.5C134.767,-64.5 143.425,-64.5 151.966,-64.5"/>
<polygon fill="midnightblue" stroke="midnightblue" points="126.216,-61.0001 116.216,-64.5 126.216,-68.0001 126.216,-61.0001"/>
</g>
<!-- Node6 -->
<g id="node6" class="node"><title>Node6</title>
<g id="a_node6"><a xlink:href="class_igor_1_1i_task_manager.html#a8f02fd3959c51b04be63e493900f7ffd" target="_top" xlink:title="Igor::iTaskManager\l::workWithRegularTasks">
<polygon fill="white" stroke="black" points="168,-0.5 168,-30.5 290,-30.5 290,-0.5 168,-0.5"/>
<text text-anchor="start" x="176" y="-18.5" font-family="Helvetica,sans-Serif" font-size="10.00">Igor::iTaskManager</text>
<text text-anchor="middle" x="229" y="-7.5" font-family="Helvetica,sans-Serif" font-size="10.00">::workWithRegularTasks</text>
</a>
</g>
</g>
<!-- Node1&#45;&gt;Node6 -->
<g id="edge5" class="edge"><title>Node1&#45;&gt;Node6</title>
<path fill="none" stroke="midnightblue" d="M120.716,-46.6059C138.894,-41.3356 158.591,-35.6245 176.087,-30.5516"/>
<polygon fill="midnightblue" stroke="midnightblue" points="119.714,-43.2522 111.085,-49.3986 121.664,-49.9753 119.714,-43.2522"/>
</g>
<!-- Node4 -->
<g id="node4" class="node"><title>Node4</title>
<g id="a_node4"><a xlink:href="class_igor_1_1i_task_manager.html#a0371f43d29ddf818acc2f161d6a060f3" target="_top" xlink:title="Igor::iTaskManager\l::createRenderContextThread">
<polygon fill="white" stroke="black" points="342,-49.5 342,-79.5 485,-79.5 485,-49.5 342,-49.5"/>
<text text-anchor="start" x="350" y="-67.5" font-family="Helvetica,sans-Serif" font-size="10.00">Igor::iTaskManager</text>
<text text-anchor="middle" x="413.5" y="-56.5" font-family="Helvetica,sans-Serif" font-size="10.00">::createRenderContextThread</text>
</a>
</g>
</g>
<!-- Node3&#45;&gt;Node4 -->
<g id="edge3" class="edge"><title>Node3&#45;&gt;Node4</title>
<path fill="none" stroke="midnightblue" d="M316.125,-64.5C324.725,-64.5 333.387,-64.5 341.802,-64.5"/>
<polygon fill="midnightblue" stroke="midnightblue" points="316.075,-61.0001 306.075,-64.5 316.075,-68.0001 316.075,-61.0001"/>
</g>
<!-- Node5 -->
<g id="node5" class="node"><title>Node5</title>
<g id="a_node5"><a xlink:href="class_igor_1_1i_task_manager.html#afd56371d55dce22e809d0a2f5ea9fead" target="_top" xlink:title="Igor::iTaskManager\l::createRenderContextThreads">
<polygon fill="white" stroke="black" points="521,-49.5 521,-79.5 670,-79.5 670,-49.5 521,-49.5"/>
<text text-anchor="start" x="529" y="-67.5" font-family="Helvetica,sans-Serif" font-size="10.00">Igor::iTaskManager</text>
<text text-anchor="middle" x="595.5" y="-56.5" font-family="Helvetica,sans-Serif" font-size="10.00">::createRenderContextThreads</text>
</a>
</g>
</g>
<!-- Node4&#45;&gt;Node5 -->
<g id="edge4" class="edge"><title>Node4&#45;&gt;Node5</title>
<path fill="none" stroke="midnightblue" d="M495.383,-64.5C503.854,-64.5 512.435,-64.5 520.82,-64.5"/>
<polygon fill="midnightblue" stroke="midnightblue" points="495.124,-61.0001 485.124,-64.5 495.124,-68.0001 495.124,-61.0001"/>
</g>
<!-- Node7 -->
<g id="node7" class="node"><title>Node7</title>
<g id="a_node7"><a xlink:href="class_igor_1_1i_task_manager.html#a8af31ae39ff0bef36e31483276e5d206" target="_top" xlink:title="Igor::iTaskManager\l::createRegularThread">
<polygon fill="white" stroke="black" points="357.5,-0.5 357.5,-30.5 469.5,-30.5 469.5,-0.5 357.5,-0.5"/>
<text text-anchor="start" x="365.5" y="-18.5" font-family="Helvetica,sans-Serif" font-size="10.00">Igor::iTaskManager</text>
<text text-anchor="middle" x="413.5" y="-7.5" font-family="Helvetica,sans-Serif" font-size="10.00">::createRegularThread</text>
</a>
</g>
</g>
<!-- Node6&#45;&gt;Node7 -->
<g id="edge6" class="edge"><title>Node6&#45;&gt;Node7</title>
<path fill="none" stroke="midnightblue" d="M300.1,-15.5C319.084,-15.5 339.361,-15.5 357.392,-15.5"/>
<polygon fill="midnightblue" stroke="midnightblue" points="300.01,-12.0001 290.01,-15.5 300.01,-19.0001 300.01,-12.0001"/>
</g>
<!-- Node8 -->
<g id="node8" class="node"><title>Node8</title>
<g id="a_node8"><a xlink:href="class_igor_1_1i_task_manager.html#ad9fbf069776eea9885e9cee3c5178f99" target="_top" xlink:title="Igor::iTaskManager\l::iTaskManager">
<polygon fill="white" stroke="black" points="546,-0.5 546,-30.5 645,-30.5 645,-0.5 546,-0.5"/>
<text text-anchor="start" x="554" y="-18.5" font-family="Helvetica,sans-Serif" font-size="10.00">Igor::iTaskManager</text>
<text text-anchor="middle" x="595.5" y="-7.5" font-family="Helvetica,sans-Serif" font-size="10.00">::iTaskManager</text>
</a>
</g>
</g>
<!-- Node7&#45;&gt;Node8 -->
<g id="edge7" class="edge"><title>Node7&#45;&gt;Node8</title>
<path fill="none" stroke="midnightblue" d="M480.13,-15.5C501.878,-15.5 525.678,-15.5 545.909,-15.5"/>
<polygon fill="midnightblue" stroke="midnightblue" points="479.975,-12.0001 469.975,-15.5 479.975,-19.0001 479.975,-12.0001"/>
</g>
</g>
</svg>
