<?xml version="1.0" encoding="UTF-8" standalone="no"?>
<!DOCTYPE svg PUBLIC "-//W3C//DTD SVG 1.1//EN"
 "http://www.w3.org/Graphics/SVG/1.1/DTD/svg11.dtd">
<!-- Generated by graphviz version 2.38.0 (20140413.2041)
 -->
<!-- Title: ModelViewer::renderOrtho Pages: 1 -->
<svg width="274pt" height="66pt"
 viewBox="0.00 0.00 274.00 66.00" xmlns="http://www.w3.org/2000/svg" xmlns:xlink="http://www.w3.org/1999/xlink">
<g id="graph0" class="graph" transform="scale(1 1) rotate(0) translate(4 62)">
<title>ModelViewer::renderOrtho</title>
<polygon fill="white" stroke="none" points="-4,4 -4,-62 270,-62 270,4 -4,4"/>
<!-- Node1 -->
<g id="node1" class="node"><title>Node1</title>
<polygon fill="#bfbfbf" stroke="black" points="0,-19.5 0,-38.5 129,-38.5 129,-19.5 0,-19.5"/>
<text text-anchor="middle" x="64.5" y="-26.5" font-family="Helvetica,sans-Serif" font-size="10.00">ModelViewer::renderOrtho</text>
</g>
<!-- Node2 -->
<g id="node2" class="node"><title>Node2</title>
<g id="a_node2"><a xlink:href="class_model_viewer.html#a0a80ce07e2d2b7f390678ad21805f3b2" target="_top" xlink:title="ModelViewer::init">
<polygon fill="white" stroke="black" points="170,-38.5 170,-57.5 261,-57.5 261,-38.5 170,-38.5"/>
<text text-anchor="middle" x="215.5" y="-45.5" font-family="Helvetica,sans-Serif" font-size="10.00">ModelViewer::init</text>
</a>
</g>
</g>
<!-- Node1&#45;&gt;Node2 -->
<g id="edge1" class="edge"><title>Node1&#45;&gt;Node2</title>
<path fill="none" stroke="midnightblue" d="M139.183,-38.3958C149.712,-39.7385 160.264,-41.084 169.995,-42.3249"/>
<polygon fill="midnightblue" stroke="midnightblue" points="139.484,-34.9059 129.122,-37.1128 138.599,-41.8497 139.484,-34.9059"/>
</g>
<!-- Node3 -->
<g id="node3" class="node"><title>Node3</title>
<g id="a_node3"><a xlink:href="class_model_viewer.html#a466edf6efbf8258d211cc05cd323ccbc" target="_top" xlink:title="ModelViewer::deinit">
<polygon fill="white" stroke="black" points="165,-0.5 165,-19.5 266,-19.5 266,-0.5 165,-0.5"/>
<text text-anchor="middle" x="215.5" y="-7.5" font-family="Helvetica,sans-Serif" font-size="10.00">ModelViewer::deinit</text>
</a>
</g>
</g>
<!-- Node1&#45;&gt;Node3 -->
<g id="edge2" class="edge"><title>Node1&#45;&gt;Node3</title>
<path fill="none" stroke="midnightblue" d="M139.194,-19.6028C147.803,-18.5049 156.427,-17.4053 164.605,-16.3624"/>
<polygon fill="midnightblue" stroke="midnightblue" points="138.599,-16.1503 129.122,-20.8872 139.484,-23.0941 138.599,-16.1503"/>
</g>
</g>
</svg>
