<?xml version="1.0" encoding="UTF-8" standalone="no"?>
<!DOCTYPE svg PUBLIC "-//W3C//DTD SVG 1.1//EN"
 "http://www.w3.org/Graphics/SVG/1.1/DTD/svg11.dtd">
<!-- Generated by graphviz version 2.38.0 (20140413.2041)
 -->
<!-- Title: Igor::iNode::setActive Pages: 1 -->
<svg width="628pt" height="424pt"
 viewBox="0.00 0.00 628.00 423.50" xmlns="http://www.w3.org/2000/svg" xmlns:xlink="http://www.w3.org/1999/xlink">
<g id="graph0" class="graph" transform="scale(1 1) rotate(0) translate(4 419.5)">
<title>Igor::iNode::setActive</title>
<polygon fill="white" stroke="none" points="-4,4 -4,-419.5 624,-419.5 624,4 -4,4"/>
<!-- Node668 -->
<g id="node1" class="node"><title>Node668</title>
<g id="a_node1"><a xlink:title=" ">
<polygon fill="#bfbfbf" stroke="black" points="0,-145 0,-164 109,-164 109,-145 0,-145"/>
<text text-anchor="middle" x="54.5" y="-152" font-family="Helvetica,sans-Serif" font-size="10.00">Igor::iNode::setActive</text>
</a>
</g>
</g>
<!-- Node669 -->
<g id="node2" class="node"><title>Node669</title>
<g id="a_node2"><a xlink:href="class_igor_1_1i_node.html#a3be538d0d60b148b1eae5cd5892d279d" target="_top" xlink:title=" ">
<polygon fill="white" stroke="black" points="145,-321.5 145,-351.5 291,-351.5 291,-321.5 145,-321.5"/>
<text text-anchor="start" x="153" y="-339.5" font-family="Helvetica,sans-Serif" font-size="10.00">Igor::iNode::setTransformation</text>
<text text-anchor="middle" x="218" y="-328.5" font-family="Helvetica,sans-Serif" font-size="10.00">Dirty</text>
</a>
</g>
</g>
<!-- Node668&#45;&gt;Node669 -->
<g id="edge1" class="edge"><title>Node668&#45;&gt;Node669</title>
<path fill="none" stroke="midnightblue" d="M64.1829,-164.285C89.0688,-192.33 161.135,-273.543 196.683,-313.604"/>
<polygon fill="midnightblue" stroke="midnightblue" points="194.227,-316.11 203.482,-321.267 199.463,-311.464 194.227,-316.11"/>
</g>
<!-- Node673 -->
<g id="node6" class="node"><title>Node673</title>
<g id="a_node6"><a xlink:href="class_igor_1_1i_node.html#a0392b6251631e79675f7416827335b70" target="_top" xlink:title=" ">
<polygon fill="white" stroke="black" points="163,-145 163,-164 273,-164 273,-145 163,-145"/>
<text text-anchor="middle" x="218" y="-152" font-family="Helvetica,sans-Serif" font-size="10.00">Igor::iNode::setScene</text>
</a>
</g>
</g>
<!-- Node668&#45;&gt;Node673 -->
<g id="edge7" class="edge"><title>Node668&#45;&gt;Node673</title>
<path fill="none" stroke="midnightblue" d="M109.277,-154.5C123.159,-154.5 138.241,-154.5 152.604,-154.5"/>
<polygon fill="midnightblue" stroke="midnightblue" points="152.907,-158 162.907,-154.5 152.907,-151 152.907,-158"/>
</g>
<!-- Node681 -->
<g id="node14" class="node"><title>Node681</title>
<g id="a_node14"><a xlink:href="class_igor_1_1i_node.html#acd9afcdfae20de27c0ca44bb5cb89e79" target="_top" xlink:title=" ">
<polygon fill="white" stroke="black" points="163,-107 163,-126 273,-126 273,-107 163,-107"/>
<text text-anchor="middle" x="218" y="-114" font-family="Helvetica,sans-Serif" font-size="10.00">Igor::iNode::getScene</text>
</a>
</g>
</g>
<!-- Node668&#45;&gt;Node681 -->
<g id="edge15" class="edge"><title>Node668&#45;&gt;Node681</title>
<path fill="none" stroke="midnightblue" d="M96.2533,-144.911C117.661,-139.874 144.086,-133.656 166.753,-128.323"/>
<polygon fill="midnightblue" stroke="midnightblue" points="167.607,-131.717 176.54,-126.02 166.004,-124.904 167.607,-131.717"/>
</g>
<!-- Node670 -->
<g id="node3" class="node"><title>Node670</title>
<g id="a_node3"><a xlink:href="class_igor_1_1i_node.html#afcf6efd30c85e8c37a4261a6f27613b8" target="_top" xlink:title=" ">
<polygon fill="white" stroke="black" points="351,-396 351,-415 449,-415 449,-396 351,-396"/>
<text text-anchor="middle" x="400" y="-403" font-family="Helvetica,sans-Serif" font-size="10.00">Igor::iNode::isChild</text>
</a>
</g>
</g>
<!-- Node669&#45;&gt;Node670 -->
<g id="edge2" class="edge"><title>Node669&#45;&gt;Node670</title>
<path fill="none" stroke="midnightblue" d="M253.278,-351.535C274.384,-360.604 302.08,-372.169 327,-381.5 337.286,-385.351 348.508,-389.239 358.965,-392.732"/>
<polygon fill="midnightblue" stroke="midnightblue" points="358.108,-396.134 368.701,-395.945 360.301,-389.487 358.108,-396.134"/>
</g>
<!-- Node671 -->
<g id="node4" class="node"><title>Node671</title>
<g id="a_node4"><a xlink:href="class_igor_1_1i_node.html#a1b3d40431eb4c1c79e5d93ef7fe68129" target="_top" xlink:title=" ">
<polygon fill="white" stroke="black" points="509,-327 509,-346 620,-346 620,-327 509,-327"/>
<text text-anchor="middle" x="564.5" y="-334" font-family="Helvetica,sans-Serif" font-size="10.00">Igor::iNode::getParent</text>
</a>
</g>
</g>
<!-- Node669&#45;&gt;Node671 -->
<g id="edge3" class="edge"><title>Node669&#45;&gt;Node671</title>
<path fill="none" stroke="midnightblue" d="M291.235,-345.644C303.164,-346.833 315.416,-347.858 327,-348.5 391.79,-352.088 408.252,-352.774 473,-348.5 481.298,-347.952 489.996,-347.125 498.582,-346.156"/>
<polygon fill="midnightblue" stroke="midnightblue" points="499.064,-349.623 508.578,-344.961 498.234,-342.672 499.064,-349.623"/>
</g>
<!-- Node672 -->
<g id="node5" class="node"><title>Node672</title>
<g id="a_node5"><a xlink:href="class_igor_1_1i_node.html#a66b6ecf7babaffce68852de186068e01" target="_top" xlink:title=" ">
<polygon fill="white" stroke="black" points="327,-290.5 327,-320.5 473,-320.5 473,-290.5 327,-290.5"/>
<text text-anchor="start" x="335" y="-308.5" font-family="Helvetica,sans-Serif" font-size="10.00">Igor::iNode::setTransformation</text>
<text text-anchor="middle" x="400" y="-297.5" font-family="Helvetica,sans-Serif" font-size="10.00">DirtyUp</text>
</a>
</g>
</g>
<!-- Node669&#45;&gt;Node672 -->
<g id="edge4" class="edge"><title>Node669&#45;&gt;Node672</title>
<path fill="none" stroke="midnightblue" d="M291.176,-324.07C299.612,-322.617 308.265,-321.127 316.824,-319.653"/>
<polygon fill="midnightblue" stroke="midnightblue" points="317.547,-323.08 326.808,-317.933 316.359,-316.181 317.547,-323.08"/>
</g>
<!-- Node672&#45;&gt;Node671 -->
<g id="edge5" class="edge"><title>Node672&#45;&gt;Node671</title>
<path fill="none" stroke="midnightblue" d="M473.221,-319.278C483.287,-321.198 493.54,-323.154 503.352,-325.026"/>
<polygon fill="midnightblue" stroke="midnightblue" points="502.912,-328.505 513.391,-326.941 504.224,-321.629 502.912,-328.505"/>
</g>
<!-- Node672&#45;&gt;Node672 -->
<g id="edge6" class="edge"><title>Node672&#45;&gt;Node672</title>
<path fill="none" stroke="midnightblue" d="M371.42,-320.659C364.528,-330.057 374.055,-339 400,-339 415.81,-339 425.524,-335.679 429.141,-330.958"/>
<polygon fill="midnightblue" stroke="midnightblue" points="432.619,-330.454 428.58,-320.659 425.629,-330.834 432.619,-330.454"/>
</g>
<!-- Node674 -->
<g id="node7" class="node"><title>Node674</title>
<g id="a_node7"><a xlink:href="class_igor_1_1i_node.html#aa8934442e897cfdf775264f161c69143" target="_top" xlink:title=" ">
<polygon fill="white" stroke="black" points="331.5,-252 331.5,-271 468.5,-271 468.5,-252 331.5,-252"/>
<text text-anchor="middle" x="400" y="-259" font-family="Helvetica,sans-Serif" font-size="10.00">Igor::iNode::onPreSetScene</text>
</a>
</g>
</g>
<!-- Node673&#45;&gt;Node674 -->
<g id="edge8" class="edge"><title>Node673&#45;&gt;Node674</title>
<path fill="none" stroke="midnightblue" d="M228.165,-164.133C245.69,-182.001 285.88,-220.377 327,-241.5 332.323,-244.234 338.065,-246.632 343.902,-248.727"/>
<polygon fill="midnightblue" stroke="midnightblue" points="343.166,-252.169 353.759,-251.971 345.354,-245.52 343.166,-252.169"/>
</g>
<!-- Node675 -->
<g id="node8" class="node"><title>Node675</title>
<g id="a_node8"><a xlink:href="class_igor_1_1i_scene.html#aadee04cec2c19e6de83645d9de7e614f" target="_top" xlink:title=" ">
<polygon fill="white" stroke="black" points="339,-202.5 339,-232.5 461,-232.5 461,-202.5 339,-202.5"/>
<text text-anchor="start" x="347" y="-220.5" font-family="Helvetica,sans-Serif" font-size="10.00">Igor::iScene::signalNode</text>
<text text-anchor="middle" x="400" y="-209.5" font-family="Helvetica,sans-Serif" font-size="10.00">Removed</text>
</a>
</g>
</g>
<!-- Node673&#45;&gt;Node675 -->
<g id="edge9" class="edge"><title>Node673&#45;&gt;Node675</title>
<path fill="none" stroke="midnightblue" d="M246.064,-164.057C267.901,-171.76 299.418,-182.859 327,-192.5 333.066,-194.62 339.421,-196.836 345.738,-199.034"/>
<polygon fill="midnightblue" stroke="midnightblue" points="344.991,-202.48 355.586,-202.458 347.29,-195.868 344.991,-202.48"/>
</g>
<!-- Node676 -->
<g id="node9" class="node"><title>Node676</title>
<g id="a_node9"><a xlink:href="class_igor_1_1i_node.html#aece61f1af4143a3a1765b19594d72b6e" target="_top" xlink:title=" ">
<polygon fill="white" stroke="black" points="354,-164 354,-183 446,-183 446,-164 354,-164"/>
<text text-anchor="middle" x="400" y="-171" font-family="Helvetica,sans-Serif" font-size="10.00">Igor::iNode::getID</text>
</a>
</g>
</g>
<!-- Node673&#45;&gt;Node676 -->
<g id="edge10" class="edge"><title>Node673&#45;&gt;Node676</title>
<path fill="none" stroke="midnightblue" d="M273.006,-160.201C295.367,-162.561 321.276,-165.296 343.764,-167.67"/>
<polygon fill="midnightblue" stroke="midnightblue" points="343.519,-171.163 353.831,-168.732 344.253,-164.202 343.519,-171.163"/>
</g>
<!-- Node677 -->
<g id="node10" class="node"><title>Node677</title>
<g id="a_node10"><a xlink:href="class_igor_1_1i_scene.html#ab362507531b6b5207a3045283e9820c0" target="_top" xlink:title=" ">
<polygon fill="white" stroke="black" points="343.5,-126 343.5,-145 456.5,-145 456.5,-126 343.5,-126"/>
<text text-anchor="middle" x="400" y="-133" font-family="Helvetica,sans-Serif" font-size="10.00">Igor::iScene::getName</text>
</a>
</g>
</g>
<!-- Node673&#45;&gt;Node677 -->
<g id="edge11" class="edge"><title>Node673&#45;&gt;Node677</title>
<path fill="none" stroke="midnightblue" d="M273.006,-148.799C291.965,-146.798 313.476,-144.527 333.29,-142.436"/>
<polygon fill="midnightblue" stroke="midnightblue" points="333.896,-145.892 343.474,-141.361 333.161,-138.93 333.896,-145.892"/>
</g>
<!-- Node678 -->
<g id="node11" class="node"><title>Node678</title>
<g id="a_node11"><a xlink:href="class_igor_1_1i_node.html#aa13a0c809d3f0bb17baf52917d04aff0" target="_top" xlink:title=" ">
<polygon fill="white" stroke="black" points="340,-88 340,-107 460,-107 460,-88 340,-88"/>
<text text-anchor="middle" x="400" y="-95" font-family="Helvetica,sans-Serif" font-size="10.00">Igor::iNode::hasChildren</text>
</a>
</g>
</g>
<!-- Node673&#45;&gt;Node678 -->
<g id="edge12" class="edge"><title>Node673&#45;&gt;Node678</title>
<path fill="none" stroke="midnightblue" d="M261.774,-144.927C271.517,-142.276 281.726,-139.117 291,-135.5 307.855,-128.927 310.145,-123.073 327,-116.5 333.231,-114.07 339.884,-111.846 346.534,-109.845"/>
<polygon fill="midnightblue" stroke="midnightblue" points="347.574,-113.188 356.226,-107.073 345.649,-106.458 347.574,-113.188"/>
</g>
<!-- Node679 -->
<g id="node12" class="node"><title>Node679</title>
<g id="a_node12"><a xlink:href="class_igor_1_1i_node.html#af5a14599bd4dc62d1534865c8a306e8e" target="_top" xlink:title=" ">
<polygon fill="white" stroke="black" points="328.5,-50 328.5,-69 471.5,-69 471.5,-50 328.5,-50"/>
<text text-anchor="middle" x="400" y="-57" font-family="Helvetica,sans-Serif" font-size="10.00">Igor::iNode::onPostSetScene</text>
</a>
</g>
</g>
<!-- Node673&#45;&gt;Node679 -->
<g id="edge13" class="edge"><title>Node673&#45;&gt;Node679</title>
<path fill="none" stroke="midnightblue" d="M273.338,-144.962C279.627,-142.499 285.683,-139.399 291,-135.5 315.162,-117.781 302.838,-96.2189 327,-78.5 329.658,-76.5505 332.502,-74.8009 335.466,-73.2306"/>
<polygon fill="midnightblue" stroke="midnightblue" points="337.016,-76.371 344.662,-69.0376 334.111,-70.0018 337.016,-76.371"/>
</g>
<!-- Node680 -->
<g id="node13" class="node"><title>Node680</title>
<g id="a_node13"><a xlink:href="class_igor_1_1i_scene.html#a61c6f27b83ccdfbfdc1b7ee02d2fcc21" target="_top" xlink:title=" ">
<polygon fill="white" stroke="black" points="339,-0.5 339,-30.5 461,-30.5 461,-0.5 339,-0.5"/>
<text text-anchor="start" x="347" y="-18.5" font-family="Helvetica,sans-Serif" font-size="10.00">Igor::iScene::signalNode</text>
<text text-anchor="middle" x="400" y="-7.5" font-family="Helvetica,sans-Serif" font-size="10.00">Added</text>
</a>
</g>
</g>
<!-- Node673&#45;&gt;Node680 -->
<g id="edge14" class="edge"><title>Node673&#45;&gt;Node680</title>
<path fill="none" stroke="midnightblue" d="M273.053,-146.407C279.611,-143.719 285.813,-140.173 291,-135.5 324.547,-105.279 294.628,-71.9768 327,-40.5 328.619,-38.9261 330.341,-37.4509 332.147,-36.0683"/>
<polygon fill="midnightblue" stroke="midnightblue" points="334.081,-38.9856 340.531,-30.5801 330.247,-33.1289 334.081,-38.9856"/>
</g>
</g>
</svg>
