<?xml version="1.0" encoding="UTF-8" standalone="no"?>
<!DOCTYPE svg PUBLIC "-//W3C//DTD SVG 1.1//EN"
 "http://www.w3.org/Graphics/SVG/1.1/DTD/svg11.dtd">
<!-- Generated by graphviz version 2.38.0 (20140413.2041)
 -->
<!-- Title: testing::internal::UniversalPrinter&lt; T[N]&gt;::Print Pages: 1 -->
<svg width="887pt" height="67pt"
 viewBox="0.00 0.00 887.00 66.50" xmlns="http://www.w3.org/2000/svg" xmlns:xlink="http://www.w3.org/1999/xlink">
<g id="graph0" class="graph" transform="scale(1 1) rotate(0) translate(4 62.5)">
<title>testing::internal::UniversalPrinter&lt; T[N]&gt;::Print</title>
<polygon fill="white" stroke="none" points="-4,4 -4,-62.5 883,-62.5 883,4 -4,4"/>
<!-- Node0 -->
<g id="node1" class="node"><title>Node0</title>
<g id="a_node1"><a xlink:title=" ">
<polygon fill="#bfbfbf" stroke="black" points="0,-0.5 0,-41.5 98,-41.5 98,-0.5 0,-0.5"/>
<text text-anchor="start" x="8" y="-29.5" font-family="Helvetica,sans-Serif" font-size="10.00">testing::internal::</text>
<text text-anchor="start" x="8" y="-18.5" font-family="Helvetica,sans-Serif" font-size="10.00">UniversalPrinter&lt; T</text>
<text text-anchor="middle" x="49" y="-7.5" font-family="Helvetica,sans-Serif" font-size="10.00">[N]&gt;::Print</text>
</a>
</g>
</g>
<!-- Node1 -->
<g id="node2" class="node"><title>Node1</title>
<g id="a_node2"><a xlink:href="namespacetesting_1_1internal.html#ad79d71c3110f8eb24ab352d68f29436a" target="_top" xlink:title=" ">
<polygon fill="white" stroke="black" points="134,-6 134,-36 233,-36 233,-6 134,-6"/>
<text text-anchor="start" x="142" y="-24" font-family="Helvetica,sans-Serif" font-size="10.00">testing::internal::</text>
<text text-anchor="middle" x="183.5" y="-13" font-family="Helvetica,sans-Serif" font-size="10.00">UniversalPrintArray</text>
</a>
</g>
</g>
<!-- Node0&#45;&gt;Node1 -->
<g id="edge1" class="edge"><title>Node0&#45;&gt;Node1</title>
<path fill="none" stroke="midnightblue" d="M98.2104,-21C106.417,-21 115.023,-21 123.471,-21"/>
<polygon fill="midnightblue" stroke="midnightblue" points="123.659,-24.5001 133.659,-21 123.659,-17.5001 123.659,-24.5001"/>
</g>
<!-- Node2 -->
<g id="node3" class="node"><title>Node2</title>
<g id="a_node3"><a xlink:href="namespacetesting_1_1internal.html#ad3013b6b4c825edee9fe18ff1d982faa" target="_top" xlink:title=" ">
<polygon fill="white" stroke="black" points="269,-6 269,-36 358,-36 358,-6 269,-6"/>
<text text-anchor="start" x="277" y="-24" font-family="Helvetica,sans-Serif" font-size="10.00">testing::internal::</text>
<text text-anchor="middle" x="313.5" y="-13" font-family="Helvetica,sans-Serif" font-size="10.00">PrintRawArrayTo</text>
</a>
</g>
</g>
<!-- Node1&#45;&gt;Node2 -->
<g id="edge2" class="edge"><title>Node1&#45;&gt;Node2</title>
<path fill="none" stroke="midnightblue" d="M233.256,-21C241.594,-21 250.299,-21 258.757,-21"/>
<polygon fill="midnightblue" stroke="midnightblue" points="258.912,-24.5001 268.912,-21 258.912,-17.5001 258.912,-24.5001"/>
</g>
<!-- Node3 -->
<g id="node4" class="node"><title>Node3</title>
<g id="a_node4"><a xlink:href="namespacetesting_1_1internal.html#a30708fa2bacf11895b03bdb21eb72309" target="_top" xlink:title=" ">
<polygon fill="white" stroke="black" points="394,-6 394,-36 483,-36 483,-6 394,-6"/>
<text text-anchor="start" x="402" y="-24" font-family="Helvetica,sans-Serif" font-size="10.00">testing::internal::</text>
<text text-anchor="middle" x="438.5" y="-13" font-family="Helvetica,sans-Serif" font-size="10.00">UniversalPrint</text>
</a>
</g>
</g>
<!-- Node2&#45;&gt;Node3 -->
<g id="edge3" class="edge"><title>Node2&#45;&gt;Node3</title>
<path fill="none" stroke="midnightblue" d="M358.212,-21C366.459,-21 375.173,-21 383.687,-21"/>
<polygon fill="midnightblue" stroke="midnightblue" points="383.929,-24.5001 393.929,-21 383.929,-17.5001 383.929,-24.5001"/>
</g>
<!-- Node4 -->
<g id="node5" class="node"><title>Node4</title>
<g id="a_node5"><a xlink:href="classtesting_1_1internal_1_1_universal_printer.html#aecec021e1abbaa260b701e24e3fe33eb" target="_top" xlink:title=" ">
<polygon fill="white" stroke="black" points="519,-28 519,-58 629,-58 629,-28 519,-28"/>
<text text-anchor="start" x="527" y="-46" font-family="Helvetica,sans-Serif" font-size="10.00">testing::internal::</text>
<text text-anchor="middle" x="574" y="-35" font-family="Helvetica,sans-Serif" font-size="10.00">UniversalPrinter::Print</text>
</a>
</g>
</g>
<!-- Node3&#45;&gt;Node4 -->
<g id="edge4" class="edge"><title>Node3&#45;&gt;Node4</title>
<path fill="none" stroke="midnightblue" d="M483.213,-28.2036C491.411,-29.5547 500.138,-30.9928 508.808,-32.4215"/>
<polygon fill="midnightblue" stroke="midnightblue" points="508.487,-35.9158 518.923,-34.0884 509.625,-29.0089 508.487,-35.9158"/>
</g>
<!-- Node5 -->
<g id="node6" class="node"><title>Node5</title>
<g id="a_node6"><a xlink:href="namespacetesting_1_1internal.html#adb3c27150dbe661db0e0c4be27533460" target="_top" xlink:title=" ">
<polygon fill="white" stroke="black" points="665,-28 665,-58 754,-58 754,-28 665,-28"/>
<text text-anchor="start" x="673" y="-46" font-family="Helvetica,sans-Serif" font-size="10.00">testing::internal::</text>
<text text-anchor="middle" x="709.5" y="-35" font-family="Helvetica,sans-Serif" font-size="10.00">PrintTo</text>
</a>
</g>
</g>
<!-- Node4&#45;&gt;Node5 -->
<g id="edge5" class="edge"><title>Node4&#45;&gt;Node5</title>
<path fill="none" stroke="midnightblue" d="M629.3,-43C637.716,-43 646.407,-43 654.81,-43"/>
<polygon fill="midnightblue" stroke="midnightblue" points="654.88,-46.5001 664.879,-43 654.879,-39.5001 654.88,-46.5001"/>
</g>
<!-- Node6 -->
<g id="node7" class="node"><title>Node6</title>
<g id="a_node7"><a xlink:href="namespacetesting_1_1internal.html#a2e96c98d5bd8ee4a1b92f8e3cde7dd40" target="_top" xlink:title=" ">
<polygon fill="white" stroke="black" points="790,-6 790,-36 879,-36 879,-6 790,-6"/>
<text text-anchor="start" x="798" y="-24" font-family="Helvetica,sans-Serif" font-size="10.00">testing::internal::</text>
<text text-anchor="middle" x="834.5" y="-13" font-family="Helvetica,sans-Serif" font-size="10.00">DefaultPrintTo</text>
</a>
</g>
</g>
<!-- Node5&#45;&gt;Node6 -->
<g id="edge6" class="edge"><title>Node5&#45;&gt;Node6</title>
<path fill="none" stroke="midnightblue" d="M754.212,-35.1817C762.549,-33.6904 771.364,-32.1137 779.968,-30.5748"/>
<polygon fill="midnightblue" stroke="midnightblue" points="780.702,-33.9992 789.929,-28.7931 779.469,-27.1086 780.702,-33.9992"/>
</g>
<!-- Node6&#45;&gt;Node3 -->
<g id="edge7" class="edge"><title>Node6&#45;&gt;Node3</title>
<path fill="none" stroke="midnightblue" d="M789.77,-19.0533C778.147,-18.617 765.6,-18.2188 754,-18 649.574,-16.0304 623.426,-16.0304 519,-18 510.753,-18.1555 502.028,-18.4018 493.496,-18.6879"/>
<polygon fill="midnightblue" stroke="midnightblue" points="493.099,-15.1997 483.23,-19.0533 493.348,-22.1953 493.099,-15.1997"/>
</g>
</g>
</svg>
