<?xml version="1.0" encoding="UTF-8" standalone="no"?>
<!DOCTYPE svg PUBLIC "-//W3C//DTD SVG 1.1//EN"
 "http://www.w3.org/Graphics/SVG/1.1/DTD/svg11.dtd">
<!-- Generated by graphviz version 2.38.0 (20140413.2041)
 -->
<!-- Title: Igor::iWidgetTextEdit::isWriteProtected Pages: 1 -->
<svg width="258pt" height="186pt"
 viewBox="0.00 0.00 258.00 186.00" xmlns="http://www.w3.org/2000/svg" xmlns:xlink="http://www.w3.org/1999/xlink">
<g id="graph0" class="graph" transform="scale(1 1) rotate(0) translate(4 182)">
<title>Igor::iWidgetTextEdit::isWriteProtected</title>
<polygon fill="white" stroke="none" points="-4,4 -4,-182 254,-182 254,4 -4,4"/>
<!-- Node121 -->
<g id="node1" class="node"><title>Node121</title>
<g id="a_node1"><a xlink:title=" ">
<polygon fill="#bfbfbf" stroke="black" points="143,-73.5 143,-103.5 250,-103.5 250,-73.5 143,-73.5"/>
<text text-anchor="start" x="151" y="-91.5" font-family="Helvetica,sans-Serif" font-size="10.00">Igor::iWidgetTextEdit</text>
<text text-anchor="middle" x="196.5" y="-80.5" font-family="Helvetica,sans-Serif" font-size="10.00">::isWriteProtected</text>
</a>
</g>
</g>
<!-- Node122 -->
<g id="node2" class="node"><title>Node122</title>
<g id="a_node2"><a xlink:href="class_igor_1_1i_widget_text_edit.html#ae33a89c07b2be35b46652624a3a76348" target="_top" xlink:title=" ">
<polygon fill="white" stroke="black" points="0,-147.5 0,-177.5 107,-177.5 107,-147.5 0,-147.5"/>
<text text-anchor="start" x="8" y="-165.5" font-family="Helvetica,sans-Serif" font-size="10.00">Igor::iWidgetTextEdit</text>
<text text-anchor="middle" x="53.5" y="-154.5" font-family="Helvetica,sans-Serif" font-size="10.00">::handleASCII</text>
</a>
</g>
</g>
<!-- Node121&#45;&gt;Node122 -->
<g id="edge1" class="edge"><title>Node121&#45;&gt;Node122</title>
<path fill="none" stroke="midnightblue" d="M161.592,-108.556C145.268,-117.979 125.306,-129.166 107,-138.5 101.107,-141.505 94.7636,-144.555 88.593,-147.428"/>
<polygon fill="midnightblue" stroke="midnightblue" points="163.364,-111.574 170.254,-103.525 159.848,-105.521 163.364,-111.574"/>
</g>
<!-- Node123 -->
<g id="node3" class="node"><title>Node123</title>
<g id="a_node3"><a xlink:href="class_igor_1_1i_widget_text_edit.html#aab49c9b17ab47ae6f7f40a5f81f84686" target="_top" xlink:title=" ">
<polygon fill="white" stroke="black" points="0,-98.5 0,-128.5 107,-128.5 107,-98.5 0,-98.5"/>
<text text-anchor="start" x="8" y="-116.5" font-family="Helvetica,sans-Serif" font-size="10.00">Igor::iWidgetTextEdit</text>
<text text-anchor="middle" x="53.5" y="-105.5" font-family="Helvetica,sans-Serif" font-size="10.00">::handleKeyUp</text>
</a>
</g>
</g>
<!-- Node121&#45;&gt;Node123 -->
<g id="edge2" class="edge"><title>Node121&#45;&gt;Node123</title>
<path fill="none" stroke="midnightblue" d="M132.95,-99.5905C124.3,-101.124 115.49,-102.686 107.047,-104.183"/>
<polygon fill="midnightblue" stroke="midnightblue" points="133.761,-103.001 142.997,-97.8091 132.539,-96.1087 133.761,-103.001"/>
</g>
<!-- Node124 -->
<g id="node4" class="node"><title>Node124</title>
<g id="a_node4"><a xlink:href="class_igor_1_1i_widget_text_edit.html#a8dc55fe820b437af2e7fd8bf625379d7" target="_top" xlink:title=" ">
<polygon fill="white" stroke="black" points="0,-49.5 0,-79.5 107,-79.5 107,-49.5 0,-49.5"/>
<text text-anchor="start" x="8" y="-67.5" font-family="Helvetica,sans-Serif" font-size="10.00">Igor::iWidgetTextEdit</text>
<text text-anchor="middle" x="53.5" y="-56.5" font-family="Helvetica,sans-Serif" font-size="10.00">::handleKeyDown</text>
</a>
</g>
</g>
<!-- Node121&#45;&gt;Node124 -->
<g id="edge3" class="edge"><title>Node121&#45;&gt;Node124</title>
<path fill="none" stroke="midnightblue" d="M132.95,-77.8531C124.3,-76.3809 115.49,-74.8812 107.047,-73.4442"/>
<polygon fill="midnightblue" stroke="midnightblue" points="132.551,-81.3356 142.997,-79.5633 133.726,-74.4348 132.551,-81.3356"/>
</g>
<!-- Node125 -->
<g id="node5" class="node"><title>Node125</title>
<g id="a_node5"><a xlink:href="class_igor_1_1i_widget_text_edit.html#aa4bcfd88e7154fc128fa0f0126971387" target="_top" xlink:title=" ">
<polygon fill="white" stroke="black" points="0,-0.5 0,-30.5 107,-30.5 107,-0.5 0,-0.5"/>
<text text-anchor="start" x="8" y="-18.5" font-family="Helvetica,sans-Serif" font-size="10.00">Igor::iWidgetTextEdit</text>
<text text-anchor="middle" x="53.5" y="-7.5" font-family="Helvetica,sans-Serif" font-size="10.00">::draw</text>
</a>
</g>
</g>
<!-- Node121&#45;&gt;Node125 -->
<g id="edge4" class="edge"><title>Node121&#45;&gt;Node125</title>
<path fill="none" stroke="midnightblue" d="M159.565,-68.4543C143.573,-59.6781 124.45,-49.3793 107,-40.5 100.522,-37.2037 93.5348,-33.784 86.8376,-30.5711"/>
<polygon fill="midnightblue" stroke="midnightblue" points="158.134,-71.6623 168.582,-73.4234 161.513,-65.5316 158.134,-71.6623"/>
</g>
</g>
</svg>
