<?xml version="1.0" encoding="UTF-8" standalone="no"?>
<!DOCTYPE svg PUBLIC "-//W3C//DTD SVG 1.1//EN"
 "http://www.w3.org/Graphics/SVG/1.1/DTD/svg11.dtd">
<!-- Generated by graphviz version 2.38.0 (20140413.2041)
 -->
<!-- Title: OMPF::ompfBaseChunk::getSize Pages: 1 -->
<svg width="506pt" height="557pt"
 viewBox="0.00 0.00 506.00 556.50" xmlns="http://www.w3.org/2000/svg" xmlns:xlink="http://www.w3.org/1999/xlink">
<g id="graph0" class="graph" transform="scale(1 1) rotate(0) translate(4 552.5)">
<title>OMPF::ompfBaseChunk::getSize</title>
<polygon fill="white" stroke="none" points="-4,4 -4,-552.5 502,-552.5 502,4 -4,4"/>
<!-- Node50 -->
<g id="node1" class="node"><title>Node50</title>
<g id="a_node1"><a xlink:title=" ">
<polygon fill="#bfbfbf" stroke="black" points="376,-147.5 376,-177.5 498,-177.5 498,-147.5 376,-147.5"/>
<text text-anchor="start" x="384" y="-165.5" font-family="Helvetica,sans-Serif" font-size="10.00">OMPF::ompfBaseChunk</text>
<text text-anchor="middle" x="437" y="-154.5" font-family="Helvetica,sans-Serif" font-size="10.00">::getSize</text>
</a>
</g>
</g>
<!-- Node51 -->
<g id="node2" class="node"><title>Node51</title>
<g id="a_node2"><a xlink:href="class_o_m_p_f_1_1ompf_base_chunk.html#a6f186b41de009cec29ae83a8929f8cea" target="_top" xlink:title=" ">
<polygon fill="white" stroke="black" points="203,-294.5 203,-324.5 325,-324.5 325,-294.5 203,-294.5"/>
<text text-anchor="start" x="211" y="-312.5" font-family="Helvetica,sans-Serif" font-size="10.00">OMPF::ompfBaseChunk</text>
<text text-anchor="middle" x="264" y="-301.5" font-family="Helvetica,sans-Serif" font-size="10.00">::write</text>
</a>
</g>
</g>
<!-- Node50&#45;&gt;Node51 -->
<g id="edge1" class="edge"><title>Node50&#45;&gt;Node51</title>
<path fill="none" stroke="midnightblue" d="M423.05,-186.798C407.069,-214.542 377.368,-259.445 340,-285.5 335.066,-288.94 329.612,-291.907 323.963,-294.462"/>
<polygon fill="midnightblue" stroke="midnightblue" points="426.28,-188.193 428.12,-177.76 420.175,-184.769 426.28,-188.193"/>
</g>
<!-- Node63 -->
<g id="node14" class="node"><title>Node63</title>
<g id="a_node14"><a xlink:href="class_o_m_p_f_1_1ompf_external_reference_chunk.html#a2c053e2524ee60e83375476e794f9841" target="_top" xlink:title=" ">
<polygon fill="white" stroke="black" points="188,-245.5 188,-275.5 340,-275.5 340,-245.5 188,-245.5"/>
<text text-anchor="start" x="196" y="-263.5" font-family="Helvetica,sans-Serif" font-size="10.00">OMPF::ompfExternalReference</text>
<text text-anchor="middle" x="264" y="-252.5" font-family="Helvetica,sans-Serif" font-size="10.00">Chunk::getSize</text>
</a>
</g>
</g>
<!-- Node50&#45;&gt;Node63 -->
<g id="edge13" class="edge"><title>Node50&#45;&gt;Node63</title>
<path fill="none" stroke="midnightblue" d="M411.819,-184.487C393.274,-200.418 366.449,-221.53 340,-235.5 332.961,-239.218 325.262,-242.534 317.563,-245.441"/>
<polygon fill="midnightblue" stroke="midnightblue" points="414.252,-187.009 419.48,-177.794 409.647,-181.737 414.252,-187.009"/>
</g>
<!-- Node64 -->
<g id="node15" class="node"><title>Node64</title>
<g id="a_node15"><a xlink:href="class_o_m_p_f_1_1ompf_group_chunk.html#a96c2548c838c158106ad603a7df214e0" target="_top" xlink:title=" ">
<polygon fill="white" stroke="black" points="201,-196.5 201,-226.5 327,-226.5 327,-196.5 201,-196.5"/>
<text text-anchor="start" x="209" y="-214.5" font-family="Helvetica,sans-Serif" font-size="10.00">OMPF::ompfGroupChunk</text>
<text text-anchor="middle" x="264" y="-203.5" font-family="Helvetica,sans-Serif" font-size="10.00">::getSize</text>
</a>
</g>
</g>
<!-- Node50&#45;&gt;Node64 -->
<g id="edge14" class="edge"><title>Node50&#45;&gt;Node64</title>
<path fill="none" stroke="midnightblue" d="M373.553,-180.394C355.161,-185.664 335.23,-191.376 317.527,-196.448"/>
<polygon fill="midnightblue" stroke="midnightblue" points="374.65,-183.721 383.299,-177.601 372.722,-176.992 374.65,-183.721"/>
</g>
<!-- Node65 -->
<g id="node16" class="node"><title>Node65</title>
<g id="a_node16"><a xlink:href="class_o_m_p_f_1_1ompf_header_chunk.html#a53154e081557780d08d9b3a303ada97a" target="_top" xlink:title=" ">
<polygon fill="white" stroke="black" points="198.5,-147.5 198.5,-177.5 329.5,-177.5 329.5,-147.5 198.5,-147.5"/>
<text text-anchor="start" x="206.5" y="-165.5" font-family="Helvetica,sans-Serif" font-size="10.00">OMPF::ompfHeaderChunk</text>
<text text-anchor="middle" x="264" y="-154.5" font-family="Helvetica,sans-Serif" font-size="10.00">::getSize</text>
</a>
</g>
</g>
<!-- Node50&#45;&gt;Node65 -->
<g id="edge15" class="edge"><title>Node50&#45;&gt;Node65</title>
<path fill="none" stroke="midnightblue" d="M365.433,-162.5C353.593,-162.5 341.359,-162.5 329.677,-162.5"/>
<polygon fill="midnightblue" stroke="midnightblue" points="365.712,-166 375.712,-162.5 365.712,-159 365.712,-166"/>
</g>
<!-- Node66 -->
<g id="node17" class="node"><title>Node66</title>
<g id="a_node17"><a xlink:href="class_o_m_p_f_1_1ompf_material_chunk.html#abe443abefded7498cf398e8e7a9ebce5" target="_top" xlink:title=" ">
<polygon fill="white" stroke="black" points="197,-98.5 197,-128.5 331,-128.5 331,-98.5 197,-98.5"/>
<text text-anchor="start" x="205" y="-116.5" font-family="Helvetica,sans-Serif" font-size="10.00">OMPF::ompfMaterialChunk</text>
<text text-anchor="middle" x="264" y="-105.5" font-family="Helvetica,sans-Serif" font-size="10.00">::getSize</text>
</a>
</g>
</g>
<!-- Node50&#45;&gt;Node66 -->
<g id="edge16" class="edge"><title>Node50&#45;&gt;Node66</title>
<path fill="none" stroke="midnightblue" d="M373.553,-144.606C355.161,-139.336 335.23,-133.624 317.527,-128.552"/>
<polygon fill="midnightblue" stroke="midnightblue" points="372.722,-148.008 383.299,-147.399 374.65,-141.279 372.722,-148.008"/>
</g>
<!-- Node67 -->
<g id="node18" class="node"><title>Node67</title>
<g id="a_node18"><a xlink:href="class_o_m_p_f_1_1ompf_resource_search_path_chunk.html#ae01bb05c6d15ee703d033d7569fbedc9" target="_top" xlink:title=" ">
<polygon fill="white" stroke="black" points="192,-49.5 192,-79.5 336,-79.5 336,-49.5 192,-49.5"/>
<text text-anchor="start" x="200" y="-67.5" font-family="Helvetica,sans-Serif" font-size="10.00">OMPF::ompfResourceSearch</text>
<text text-anchor="middle" x="264" y="-56.5" font-family="Helvetica,sans-Serif" font-size="10.00">PathChunk::getSize</text>
</a>
</g>
</g>
<!-- Node50&#45;&gt;Node67 -->
<g id="edge17" class="edge"><title>Node50&#45;&gt;Node67</title>
<path fill="none" stroke="midnightblue" d="M412.257,-140.395C393.753,-124.152 366.783,-102.553 340,-88.5 333.705,-85.197 326.873,-82.2456 319.981,-79.6393"/>
<polygon fill="midnightblue" stroke="midnightblue" points="410.099,-143.159 419.888,-147.211 414.762,-137.939 410.099,-143.159"/>
</g>
<!-- Node68 -->
<g id="node19" class="node"><title>Node68</title>
<g id="a_node19"><a xlink:href="class_o_m_p_f_1_1ompf_transform_chunk.html#abcbe11533efd73c6a1fe1e456bf6bdc7" target="_top" xlink:title=" ">
<polygon fill="white" stroke="black" points="192.5,-0.5 192.5,-30.5 335.5,-30.5 335.5,-0.5 192.5,-0.5"/>
<text text-anchor="start" x="200.5" y="-18.5" font-family="Helvetica,sans-Serif" font-size="10.00">OMPF::ompfTransformChunk</text>
<text text-anchor="middle" x="264" y="-7.5" font-family="Helvetica,sans-Serif" font-size="10.00">::getSize</text>
</a>
</g>
</g>
<!-- Node50&#45;&gt;Node68 -->
<g id="edge18" class="edge"><title>Node50&#45;&gt;Node68</title>
<path fill="none" stroke="midnightblue" d="M423.05,-138.202C407.069,-110.458 377.368,-65.5553 340,-39.5 335.066,-36.0595 329.612,-33.0927 323.963,-30.5384"/>
<polygon fill="midnightblue" stroke="midnightblue" points="420.175,-140.231 428.12,-147.24 426.28,-136.807 420.175,-140.231"/>
</g>
<!-- Node52 -->
<g id="node3" class="node"><title>Node52</title>
<g id="a_node3"><a xlink:href="class_o_m_p_f_1_1_o_m_p_f.html#a5b2b8784a1caf169716bfc39e722ca7d" target="_top" xlink:title=" ">
<polygon fill="white" stroke="black" points="6,-529 6,-548 146,-548 146,-529 6,-529"/>
<text text-anchor="middle" x="76" y="-536" font-family="Helvetica,sans-Serif" font-size="10.00">OMPF::OMPF::writeMaterial</text>
</a>
</g>
</g>
<!-- Node51&#45;&gt;Node52 -->
<g id="edge2" class="edge"><title>Node51&#45;&gt;Node52</title>
<path fill="none" stroke="midnightblue" d="M256.923,-334.628C244.851,-379 213.542,-471.109 152,-519.5 147.037,-523.402 141.369,-526.512 135.421,-528.989"/>
<polygon fill="midnightblue" stroke="midnightblue" points="260.381,-335.237 259.523,-324.677 253.609,-333.467 260.381,-335.237"/>
</g>
<!-- Node53 -->
<g id="node4" class="node"><title>Node53</title>
<g id="a_node4"><a xlink:href="class_o_m_p_f_1_1_o_m_p_f.html#a8fd77db730303b8429524f552de91146" target="_top" xlink:title=" ">
<polygon fill="white" stroke="black" points="23,-491 23,-510 129,-510 129,-491 23,-491"/>
<text text-anchor="middle" x="76" y="-498" font-family="Helvetica,sans-Serif" font-size="10.00">OMPF::OMPF::write</text>
</a>
</g>
</g>
<!-- Node51&#45;&gt;Node53 -->
<g id="edge3" class="edge"><title>Node51&#45;&gt;Node53</title>
<path fill="none" stroke="midnightblue" d="M253.909,-334.342C238.777,-372.115 204.768,-443.596 152,-481.5 145.236,-486.358 137.349,-489.978 129.28,-492.674"/>
<polygon fill="midnightblue" stroke="midnightblue" points="257.32,-335.227 257.677,-324.638 250.795,-332.693 257.32,-335.227"/>
</g>
<!-- Node54 -->
<g id="node5" class="node"><title>Node54</title>
<g id="a_node5"><a xlink:href="class_o_m_p_f_1_1ompf_emitter_chunk.html#acfbbcf5bc5c99d404f9cd80bcf57a8ff" target="_top" xlink:title=" ">
<polygon fill="white" stroke="black" points="10.5,-441.5 10.5,-471.5 141.5,-471.5 141.5,-441.5 10.5,-441.5"/>
<text text-anchor="start" x="18.5" y="-459.5" font-family="Helvetica,sans-Serif" font-size="10.00">OMPF::ompfEmitterChunk</text>
<text text-anchor="middle" x="76" y="-448.5" font-family="Helvetica,sans-Serif" font-size="10.00">::write</text>
</a>
</g>
</g>
<!-- Node51&#45;&gt;Node54 -->
<g id="edge4" class="edge"><title>Node51&#45;&gt;Node54</title>
<path fill="none" stroke="midnightblue" d="M247.624,-333.014C228.402,-360.635 192.997,-406.038 152,-432.5 146.716,-435.91 140.91,-438.87 134.939,-441.431"/>
<polygon fill="midnightblue" stroke="midnightblue" points="250.539,-334.951 253.282,-324.718 244.756,-331.007 250.539,-334.951"/>
</g>
<!-- Node55 -->
<g id="node6" class="node"><title>Node55</title>
<g id="a_node6"><a xlink:href="class_o_m_p_f_1_1ompf_external_reference_chunk.html#a465f026905147cc0af22e7e43e8dcbc2" target="_top" xlink:title=" ">
<polygon fill="white" stroke="black" points="0,-392.5 0,-422.5 152,-422.5 152,-392.5 0,-392.5"/>
<text text-anchor="start" x="8" y="-410.5" font-family="Helvetica,sans-Serif" font-size="10.00">OMPF::ompfExternalReference</text>
<text text-anchor="middle" x="76" y="-399.5" font-family="Helvetica,sans-Serif" font-size="10.00">Chunk::write</text>
</a>
</g>
</g>
<!-- Node51&#45;&gt;Node55 -->
<g id="edge5" class="edge"><title>Node51&#45;&gt;Node55</title>
<path fill="none" stroke="midnightblue" d="M235.854,-330.731C214.138,-346.922 182.395,-368.861 152,-383.5 145.226,-386.763 137.9,-389.731 130.573,-392.382"/>
<polygon fill="midnightblue" stroke="midnightblue" points="238.077,-333.439 243.946,-324.618 233.857,-327.854 238.077,-333.439"/>
</g>
<!-- Node56 -->
<g id="node7" class="node"><title>Node56</title>
<g id="a_node7"><a xlink:href="class_o_m_p_f_1_1ompf_group_chunk.html#a250bff7aa0160678bd47562c19e07865" target="_top" xlink:title=" ">
<polygon fill="white" stroke="black" points="13,-343.5 13,-373.5 139,-373.5 139,-343.5 13,-343.5"/>
<text text-anchor="start" x="21" y="-361.5" font-family="Helvetica,sans-Serif" font-size="10.00">OMPF::ompfGroupChunk</text>
<text text-anchor="middle" x="76" y="-350.5" font-family="Helvetica,sans-Serif" font-size="10.00">::write</text>
</a>
</g>
</g>
<!-- Node51&#45;&gt;Node56 -->
<g id="edge6" class="edge"><title>Node51&#45;&gt;Node56</title>
<path fill="none" stroke="midnightblue" d="M196.105,-327.123C175.756,-332.484 153.592,-338.323 133.962,-343.494"/>
<polygon fill="midnightblue" stroke="midnightblue" points="197.151,-330.467 205.93,-324.535 195.368,-323.698 197.151,-330.467"/>
</g>
<!-- Node57 -->
<g id="node8" class="node"><title>Node57</title>
<g id="a_node8"><a xlink:href="class_o_m_p_f_1_1ompf_header_chunk.html#a54b14e4116050ddae69c7a75542bd3e1" target="_top" xlink:title=" ">
<polygon fill="white" stroke="black" points="10.5,-294.5 10.5,-324.5 141.5,-324.5 141.5,-294.5 10.5,-294.5"/>
<text text-anchor="start" x="18.5" y="-312.5" font-family="Helvetica,sans-Serif" font-size="10.00">OMPF::ompfHeaderChunk</text>
<text text-anchor="middle" x="76" y="-301.5" font-family="Helvetica,sans-Serif" font-size="10.00">::write</text>
</a>
</g>
</g>
<!-- Node51&#45;&gt;Node57 -->
<g id="edge7" class="edge"><title>Node51&#45;&gt;Node57</title>
<path fill="none" stroke="midnightblue" d="M192.622,-309.5C175.919,-309.5 158.178,-309.5 141.74,-309.5"/>
<polygon fill="midnightblue" stroke="midnightblue" points="192.868,-313 202.868,-309.5 192.868,-306 192.868,-313"/>
</g>
<!-- Node58 -->
<g id="node9" class="node"><title>Node58</title>
<g id="a_node9"><a xlink:href="class_o_m_p_f_1_1ompf_material_chunk.html#a16218c145b688f2db2fcfb61c1feec39" target="_top" xlink:title=" ">
<polygon fill="white" stroke="black" points="9,-245.5 9,-275.5 143,-275.5 143,-245.5 9,-245.5"/>
<text text-anchor="start" x="17" y="-263.5" font-family="Helvetica,sans-Serif" font-size="10.00">OMPF::ompfMaterialChunk</text>
<text text-anchor="middle" x="76" y="-252.5" font-family="Helvetica,sans-Serif" font-size="10.00">::write</text>
</a>
</g>
</g>
<!-- Node51&#45;&gt;Node58 -->
<g id="edge8" class="edge"><title>Node51&#45;&gt;Node58</title>
<path fill="none" stroke="midnightblue" d="M196.105,-291.877C175.756,-286.516 153.592,-280.677 133.962,-275.506"/>
<polygon fill="midnightblue" stroke="midnightblue" points="195.368,-295.302 205.93,-294.465 197.151,-288.533 195.368,-295.302"/>
</g>
<!-- Node59 -->
<g id="node10" class="node"><title>Node59</title>
<g id="a_node10"><a xlink:href="class_o_m_p_f_1_1ompf_mesh_chunk.html#a83a3fb04f638373d6aa6e736cb42c35b" target="_top" xlink:title=" ">
<polygon fill="white" stroke="black" points="14,-196.5 14,-226.5 138,-226.5 138,-196.5 14,-196.5"/>
<text text-anchor="start" x="22" y="-214.5" font-family="Helvetica,sans-Serif" font-size="10.00">OMPF::ompfMeshChunk</text>
<text text-anchor="middle" x="76" y="-203.5" font-family="Helvetica,sans-Serif" font-size="10.00">::write</text>
</a>
</g>
</g>
<!-- Node51&#45;&gt;Node59 -->
<g id="edge9" class="edge"><title>Node51&#45;&gt;Node59</title>
<path fill="none" stroke="midnightblue" d="M194.514,-289.762C192.261,-288.431 190.081,-287.012 188,-285.5 165.845,-269.406 174.155,-251.594 152,-235.5 147.244,-232.045 141.969,-229.074 136.485,-226.521"/>
<polygon fill="midnightblue" stroke="midnightblue" points="193.033,-292.938 203.515,-294.479 196.282,-286.737 193.033,-292.938"/>
</g>
<!-- Node60 -->
<g id="node11" class="node"><title>Node60</title>
<g id="a_node11"><a xlink:href="class_o_m_p_f_1_1ompf_particle_system_chunk.html#a784b64dcf17282520dd77f074364ca75" target="_top" xlink:title=" ">
<polygon fill="white" stroke="black" points="6.5,-147.5 6.5,-177.5 145.5,-177.5 145.5,-147.5 6.5,-147.5"/>
<text text-anchor="start" x="14.5" y="-165.5" font-family="Helvetica,sans-Serif" font-size="10.00">OMPF::ompfParticleSystem</text>
<text text-anchor="middle" x="76" y="-154.5" font-family="Helvetica,sans-Serif" font-size="10.00">Chunk::write</text>
</a>
</g>
</g>
<!-- Node51&#45;&gt;Node60 -->
<g id="edge10" class="edge"><title>Node51&#45;&gt;Node60</title>
<path fill="none" stroke="midnightblue" d="M194.075,-290.567C191.933,-289.01 189.897,-287.324 188,-285.5 154.254,-253.047 185.746,-218.953 152,-186.5 148.453,-183.089 144.42,-180.162 140.108,-177.651"/>
<polygon fill="midnightblue" stroke="midnightblue" points="192.459,-293.682 202.805,-295.962 196.138,-287.728 192.459,-293.682"/>
</g>
<!-- Node61 -->
<g id="node12" class="node"><title>Node61</title>
<g id="a_node12"><a xlink:href="class_o_m_p_f_1_1ompf_resource_search_path_chunk.html#a1b17d55f869cf4c6ce4a375efa17886b" target="_top" xlink:title=" ">
<polygon fill="white" stroke="black" points="4,-98.5 4,-128.5 148,-128.5 148,-98.5 4,-98.5"/>
<text text-anchor="start" x="12" y="-116.5" font-family="Helvetica,sans-Serif" font-size="10.00">OMPF::ompfResourceSearch</text>
<text text-anchor="middle" x="76" y="-105.5" font-family="Helvetica,sans-Serif" font-size="10.00">PathChunk::write</text>
</a>
</g>
</g>
<!-- Node51&#45;&gt;Node61 -->
<g id="edge11" class="edge"><title>Node51&#45;&gt;Node61</title>
<path fill="none" stroke="midnightblue" d="M193.952,-290.939C191.83,-289.278 189.834,-287.47 188,-285.5 141.863,-235.961 198.137,-187.039 152,-137.5 148.832,-134.098 145.183,-131.177 141.236,-128.668"/>
<polygon fill="midnightblue" stroke="midnightblue" points="192.396,-294.103 202.683,-296.639 196.223,-288.242 192.396,-294.103"/>
</g>
<!-- Node62 -->
<g id="node13" class="node"><title>Node62</title>
<g id="a_node13"><a xlink:href="class_o_m_p_f_1_1ompf_transform_chunk.html#ade0febaec0aec168ab684c426cf7cdff" target="_top" xlink:title=" ">
<polygon fill="white" stroke="black" points="4.5,-49.5 4.5,-79.5 147.5,-79.5 147.5,-49.5 4.5,-49.5"/>
<text text-anchor="start" x="12.5" y="-67.5" font-family="Helvetica,sans-Serif" font-size="10.00">OMPF::ompfTransformChunk</text>
<text text-anchor="middle" x="76" y="-56.5" font-family="Helvetica,sans-Serif" font-size="10.00">::write</text>
</a>
</g>
</g>
<!-- Node51&#45;&gt;Node62 -->
<g id="edge12" class="edge"><title>Node51&#45;&gt;Node62</title>
<path fill="none" stroke="midnightblue" d="M194.402,-291.553C192.096,-289.726 189.946,-287.714 188,-285.5 129.25,-218.639 210.75,-155.361 152,-88.5 149.022,-85.111 145.566,-82.1968 141.803,-79.6915"/>
<polygon fill="midnightblue" stroke="midnightblue" points="192.501,-294.492 202.774,-297.083 196.359,-288.651 192.501,-294.492"/>
</g>
</g>
</svg>
