<?xml version="1.0" encoding="UTF-8" standalone="no"?>
<!DOCTYPE svg PUBLIC "-//W3C//DTD SVG 1.1//EN"
 "http://www.w3.org/Graphics/SVG/1.1/DTD/svg11.dtd">
<!-- Generated by graphviz version 2.38.0 (20140413.2041)
 -->
<!-- Title: IgorAux::iaString::setData Pages: 1 -->
<svg width="737pt" height="186pt"
 viewBox="0.00 0.00 737.00 186.00" xmlns="http://www.w3.org/2000/svg" xmlns:xlink="http://www.w3.org/1999/xlink">
<g id="graph0" class="graph" transform="scale(1 1) rotate(0) translate(4 182)">
<title>IgorAux::iaString::setData</title>
<polygon fill="white" stroke="none" points="-4,4 -4,-182 733,-182 733,4 -4,4"/>
<!-- Node627 -->
<g id="node1" class="node"><title>Node627</title>
<g id="a_node1"><a xlink:title=" ">
<polygon fill="#bfbfbf" stroke="black" points="634,-73.5 634,-103.5 729,-103.5 729,-73.5 634,-73.5"/>
<text text-anchor="start" x="642" y="-91.5" font-family="Helvetica,sans-Serif" font-size="10.00">IgorAux::iaString::</text>
<text text-anchor="middle" x="681.5" y="-80.5" font-family="Helvetica,sans-Serif" font-size="10.00">setData</text>
</a>
</g>
</g>
<!-- Node628 -->
<g id="node2" class="node"><title>Node628</title>
<g id="a_node2"><a xlink:href="class_igor_aux_1_1ia_string.html#af84854619716d34c54a838abcb5fdb2f" target="_top" xlink:title=" ">
<polygon fill="white" stroke="black" points="503,-147.5 503,-177.5 598,-177.5 598,-147.5 503,-147.5"/>
<text text-anchor="start" x="511" y="-165.5" font-family="Helvetica,sans-Serif" font-size="10.00">IgorAux::iaString::</text>
<text text-anchor="middle" x="550.5" y="-154.5" font-family="Helvetica,sans-Serif" font-size="10.00">iaString</text>
</a>
</g>
</g>
<!-- Node627&#45;&gt;Node628 -->
<g id="edge1" class="edge"><title>Node627&#45;&gt;Node628</title>
<path fill="none" stroke="midnightblue" d="M647.668,-109.105C632.664,-118.337 614.577,-129.213 598,-138.5 592.769,-141.431 587.145,-144.445 581.677,-147.306"/>
<polygon fill="midnightblue" stroke="midnightblue" points="649.907,-111.836 656.57,-103.598 646.224,-105.883 649.907,-111.836"/>
</g>
<!-- Node629 -->
<g id="node3" class="node"><title>Node629</title>
<g id="a_node3"><a xlink:href="class_igor_aux_1_1ia_string.html#aec71a5ec2cac3f03b409515c281039ba" target="_top" xlink:title=" ">
<polygon fill="white" stroke="black" points="503,-98.5 503,-128.5 598,-128.5 598,-98.5 503,-98.5"/>
<text text-anchor="start" x="511" y="-116.5" font-family="Helvetica,sans-Serif" font-size="10.00">IgorAux::iaString::</text>
<text text-anchor="middle" x="550.5" y="-105.5" font-family="Helvetica,sans-Serif" font-size="10.00">operator=</text>
</a>
</g>
</g>
<!-- Node627&#45;&gt;Node629 -->
<g id="edge2" class="edge"><title>Node627&#45;&gt;Node629</title>
<path fill="none" stroke="midnightblue" d="M623.899,-99.4692C615.248,-101.146 606.404,-102.86 598.004,-104.488"/>
<polygon fill="midnightblue" stroke="midnightblue" points="624.777,-102.864 633.928,-97.5256 623.445,-95.9922 624.777,-102.864"/>
</g>
<!-- Node630 -->
<g id="node4" class="node"><title>Node630</title>
<g id="a_node4"><a xlink:href="class_igor_aux_1_1ia_string.html#ad6fd716e71a9a0f07fd65935bee2e5a0" target="_top" xlink:title=" ">
<polygon fill="white" stroke="black" points="503,-49.5 503,-79.5 598,-79.5 598,-49.5 503,-49.5"/>
<text text-anchor="start" x="511" y="-67.5" font-family="Helvetica,sans-Serif" font-size="10.00">IgorAux::iaString::</text>
<text text-anchor="middle" x="550.5" y="-56.5" font-family="Helvetica,sans-Serif" font-size="10.00">insert</text>
</a>
</g>
</g>
<!-- Node627&#45;&gt;Node630 -->
<g id="edge3" class="edge"><title>Node627&#45;&gt;Node630</title>
<path fill="none" stroke="midnightblue" d="M623.899,-77.9696C615.248,-76.3601 606.404,-74.7148 598.004,-73.1518"/>
<polygon fill="midnightblue" stroke="midnightblue" points="623.457,-81.4472 633.928,-79.8354 624.737,-74.5653 623.457,-81.4472"/>
</g>
<!-- Node636 -->
<g id="node10" class="node"><title>Node636</title>
<g id="a_node10"><a xlink:href="class_igor_aux_1_1ia_string.html#a08bdf620d1655bfc09020ba135b5c617" target="_top" xlink:title=" ">
<polygon fill="white" stroke="black" points="503,-0.5 503,-30.5 598,-30.5 598,-0.5 503,-0.5"/>
<text text-anchor="start" x="511" y="-18.5" font-family="Helvetica,sans-Serif" font-size="10.00">IgorAux::iaString::</text>
<text text-anchor="middle" x="550.5" y="-7.5" font-family="Helvetica,sans-Serif" font-size="10.00">remove</text>
</a>
</g>
</g>
<!-- Node627&#45;&gt;Node636 -->
<g id="edge9" class="edge"><title>Node627&#45;&gt;Node636</title>
<path fill="none" stroke="midnightblue" d="M646.964,-67.9685C632.084,-59.0181 614.288,-48.5301 598,-39.5 592.756,-36.5928 587.125,-33.5894 581.656,-30.7326"/>
<polygon fill="midnightblue" stroke="midnightblue" points="645.444,-71.1393 655.813,-73.3159 649.064,-65.1483 645.444,-71.1393"/>
</g>
<!-- Node631 -->
<g id="node5" class="node"><title>Node631</title>
<g id="a_node5"><a xlink:href="class_igor_1_1i_widget_text_edit.html#ae33a89c07b2be35b46652624a3a76348" target="_top" xlink:title=" ">
<polygon fill="white" stroke="black" points="337.5,-98.5 337.5,-128.5 444.5,-128.5 444.5,-98.5 337.5,-98.5"/>
<text text-anchor="start" x="345.5" y="-116.5" font-family="Helvetica,sans-Serif" font-size="10.00">Igor::iWidgetTextEdit</text>
<text text-anchor="middle" x="391" y="-105.5" font-family="Helvetica,sans-Serif" font-size="10.00">::handleASCII</text>
</a>
</g>
</g>
<!-- Node630&#45;&gt;Node631 -->
<g id="edge4" class="edge"><title>Node630&#45;&gt;Node631</title>
<path fill="none" stroke="midnightblue" d="M492.756,-82.1538C475.57,-87.5006 456.863,-93.3203 440.286,-98.4776"/>
<polygon fill="midnightblue" stroke="midnightblue" points="494.162,-85.3817 502.671,-79.0689 492.083,-78.6977 494.162,-85.3817"/>
</g>
<!-- Node632 -->
<g id="node6" class="node"><title>Node632</title>
<g id="a_node6"><a xlink:href="class_model_viewer.html#af14b78d49ac5d577299bb6bd2f7e0a4e" target="_top" xlink:title=" ">
<polygon fill="white" stroke="black" points="315,-49.5 315,-79.5 467,-79.5 467,-49.5 315,-49.5"/>
<text text-anchor="start" x="323" y="-67.5" font-family="Helvetica,sans-Serif" font-size="10.00">ModelViewer::onFileSaveDialog</text>
<text text-anchor="middle" x="391" y="-56.5" font-family="Helvetica,sans-Serif" font-size="10.00">Closed</text>
</a>
</g>
</g>
<!-- Node630&#45;&gt;Node632 -->
<g id="edge5" class="edge"><title>Node630&#45;&gt;Node632</title>
<path fill="none" stroke="midnightblue" d="M492.496,-64.5C484.295,-64.5 475.752,-64.5 467.264,-64.5"/>
<polygon fill="midnightblue" stroke="midnightblue" points="492.671,-68.0001 502.671,-64.5 492.671,-61.0001 492.671,-68.0001"/>
</g>
<!-- Node633 -->
<g id="node7" class="node"><title>Node633</title>
<g id="a_node7"><a xlink:href="class_model_viewer.html#a86025a02eb0543dafd85da29a585741b" target="_top" xlink:title=" ">
<polygon fill="white" stroke="black" points="154,-55 154,-74 279,-74 279,-55 154,-55"/>
<text text-anchor="middle" x="216.5" y="-62" font-family="Helvetica,sans-Serif" font-size="10.00">ModelViewer::onSaveFile</text>
</a>
</g>
</g>
<!-- Node632&#45;&gt;Node633 -->
<g id="edge6" class="edge"><title>Node632&#45;&gt;Node633</title>
<path fill="none" stroke="midnightblue" d="M304.758,-64.5C296.147,-64.5 287.521,-64.5 279.226,-64.5"/>
<polygon fill="midnightblue" stroke="midnightblue" points="304.841,-68.0001 314.841,-64.5 304.841,-61.0001 304.841,-68.0001"/>
</g>
<!-- Node634 -->
<g id="node8" class="node"><title>Node634</title>
<g id="a_node8"><a xlink:href="class_model_viewer.html#a6583fbced0dd9654fed6adbad4650911" target="_top" xlink:title=" ">
<polygon fill="white" stroke="black" points="5.5,-74 5.5,-93 112.5,-93 112.5,-74 5.5,-74"/>
<text text-anchor="middle" x="59" y="-81" font-family="Helvetica,sans-Serif" font-size="10.00">ModelViewer::initGUI</text>
</a>
</g>
</g>
<!-- Node633&#45;&gt;Node634 -->
<g id="edge7" class="edge"><title>Node633&#45;&gt;Node634</title>
<path fill="none" stroke="midnightblue" d="M143.656,-73.2783C133.218,-74.5537 122.638,-75.8465 112.672,-77.0642"/>
<polygon fill="midnightblue" stroke="midnightblue" points="144.094,-76.751 153.595,-72.0639 143.245,-69.8027 144.094,-76.751"/>
</g>
<!-- Node635 -->
<g id="node9" class="node"><title>Node635</title>
<g id="a_node9"><a xlink:href="class_model_viewer.html#a247bac03643084abda6e880573312206" target="_top" xlink:title=" ">
<polygon fill="white" stroke="black" points="0,-36 0,-55 118,-55 118,-36 0,-36"/>
<text text-anchor="middle" x="59" y="-43" font-family="Helvetica,sans-Serif" font-size="10.00">ModelViewer::deinitGUI</text>
</a>
</g>
</g>
<!-- Node633&#45;&gt;Node635 -->
<g id="edge8" class="edge"><title>Node633&#45;&gt;Node635</title>
<path fill="none" stroke="midnightblue" d="M143.64,-55.7197C135.101,-54.6764 126.467,-53.6214 118.153,-52.6055"/>
<polygon fill="midnightblue" stroke="midnightblue" points="143.245,-59.1973 153.595,-56.9361 144.094,-52.249 143.245,-59.1973"/>
</g>
<!-- Node637 -->
<g id="node11" class="node"><title>Node637</title>
<g id="a_node11"><a xlink:href="class_igor_1_1i_widget_text_edit.html#a8dc55fe820b437af2e7fd8bf625379d7" target="_top" xlink:title=" ">
<polygon fill="white" stroke="black" points="337.5,-0.5 337.5,-30.5 444.5,-30.5 444.5,-0.5 337.5,-0.5"/>
<text text-anchor="start" x="345.5" y="-18.5" font-family="Helvetica,sans-Serif" font-size="10.00">Igor::iWidgetTextEdit</text>
<text text-anchor="middle" x="391" y="-7.5" font-family="Helvetica,sans-Serif" font-size="10.00">::handleKeyDown</text>
</a>
</g>
</g>
<!-- Node636&#45;&gt;Node637 -->
<g id="edge10" class="edge"><title>Node636&#45;&gt;Node637</title>
<path fill="none" stroke="midnightblue" d="M492.609,-15.5C476.98,-15.5 460.103,-15.5 444.72,-15.5"/>
<polygon fill="midnightblue" stroke="midnightblue" points="492.671,-19.0001 502.671,-15.5 492.671,-12.0001 492.671,-19.0001"/>
</g>
</g>
</svg>
