<?xml version="1.0" encoding="UTF-8" standalone="no"?>
<!DOCTYPE svg PUBLIC "-//W3C//DTD SVG 1.1//EN"
 "http://www.w3.org/Graphics/SVG/1.1/DTD/svg11.dtd">
<!-- Generated by graphviz version 2.38.0 (20140413.2041)
 -->
<!-- Title: Igor::iWindow::isFullscreen Pages: 1 -->
<svg width="457pt" height="28pt"
 viewBox="0.00 0.00 457.00 28.00" xmlns="http://www.w3.org/2000/svg" xmlns:xlink="http://www.w3.org/1999/xlink">
<g id="graph0" class="graph" transform="scale(1 1) rotate(0) translate(4 24)">
<title>Igor::iWindow::isFullscreen</title>
<polygon fill="white" stroke="none" points="-4,4 -4,-24 453,-24 453,4 -4,4"/>
<!-- Node1 -->
<g id="node1" class="node"><title>Node1</title>
<polygon fill="#bfbfbf" stroke="black" points="0,-0.5 0,-19.5 134,-19.5 134,-0.5 0,-0.5"/>
<text text-anchor="middle" x="67" y="-7.5" font-family="Helvetica,sans-Serif" font-size="10.00">Igor::iWindow::isFullscreen</text>
</g>
<!-- Node2 -->
<g id="node2" class="node"><title>Node2</title>
<g id="a_node2"><a xlink:href="class_igor_1_1i_mouse.html#ad79e27f894736fd41076e19efc588e78" target="_top" xlink:title="Igor::iMouse::setPosition">
<polygon fill="white" stroke="black" points="170,-0.5 170,-19.5 295,-19.5 295,-0.5 170,-0.5"/>
<text text-anchor="middle" x="232.5" y="-7.5" font-family="Helvetica,sans-Serif" font-size="10.00">Igor::iMouse::setPosition</text>
</a>
</g>
</g>
<!-- Node1&#45;&gt;Node2 -->
<g id="edge1" class="edge"><title>Node1&#45;&gt;Node2</title>
<path fill="none" stroke="midnightblue" d="M144.137,-10C152.799,-10 161.545,-10 169.984,-10"/>
<polygon fill="midnightblue" stroke="midnightblue" points="144.03,-6.5001 134.03,-10 144.03,-13.5001 144.03,-6.5001"/>
</g>
<!-- Node3 -->
<g id="node3" class="node"><title>Node3</title>
<g id="a_node3"><a xlink:href="class_igor_1_1i_mouse.html#a2e47006caf6781de70e88d72b3985ae3" target="_top" xlink:title="Igor::iMouse::setCenter">
<polygon fill="white" stroke="black" points="331,-0.5 331,-19.5 449,-19.5 449,-0.5 331,-0.5"/>
<text text-anchor="middle" x="390" y="-7.5" font-family="Helvetica,sans-Serif" font-size="10.00">Igor::iMouse::setCenter</text>
</a>
</g>
</g>
<!-- Node2&#45;&gt;Node3 -->
<g id="edge2" class="edge"><title>Node2&#45;&gt;Node3</title>
<path fill="none" stroke="midnightblue" d="M305.638,-10C314.086,-10 322.623,-10 330.847,-10"/>
<polygon fill="midnightblue" stroke="midnightblue" points="305.405,-6.5001 295.405,-10 305.404,-13.5001 305.405,-6.5001"/>
</g>
</g>
</svg>
