<?xml version="1.0" encoding="UTF-8" standalone="no"?>
<!DOCTYPE svg PUBLIC "-//W3C//DTD SVG 1.1//EN"
 "http://www.w3.org/Graphics/SVG/1.1/DTD/svg11.dtd">
<!-- Generated by graphviz version 2.38.0 (20140413.2041)
 -->
<!-- Title: UserControlParticleSystem::onCloseStartLiftGradientEditor Pages: 1 -->
<svg width="520pt" height="39pt"
 viewBox="0.00 0.00 520.00 39.00" xmlns="http://www.w3.org/2000/svg" xmlns:xlink="http://www.w3.org/1999/xlink">
<g id="graph0" class="graph" transform="scale(1 1) rotate(0) translate(4 35)">
<title>UserControlParticleSystem::onCloseStartLiftGradientEditor</title>
<polygon fill="white" stroke="none" points="-4,4 -4,-35 516,-35 516,4 -4,4"/>
<!-- Node1 -->
<g id="node1" class="node"><title>Node1</title>
<polygon fill="#bfbfbf" stroke="black" points="0,-0.5 0,-30.5 154,-30.5 154,-0.5 0,-0.5"/>
<text text-anchor="start" x="8" y="-18.5" font-family="Helvetica,sans-Serif" font-size="10.00">UserControlParticleSystem</text>
<text text-anchor="middle" x="77" y="-7.5" font-family="Helvetica,sans-Serif" font-size="10.00">::onCloseStartLiftGradientEditor</text>
</g>
<!-- Node2 -->
<g id="node2" class="node"><title>Node2</title>
<g id="a_node2"><a xlink:href="class_user_control_particle_system.html#aac299f643a939d18c49da71ad4a0d7cf" target="_top" xlink:title="UserControlParticleSystem\l::onOpenStartLiftGradientEditor">
<polygon fill="white" stroke="black" points="190,-0.5 190,-30.5 342,-30.5 342,-0.5 190,-0.5"/>
<text text-anchor="start" x="198" y="-18.5" font-family="Helvetica,sans-Serif" font-size="10.00">UserControlParticleSystem</text>
<text text-anchor="middle" x="266" y="-7.5" font-family="Helvetica,sans-Serif" font-size="10.00">::onOpenStartLiftGradientEditor</text>
</a>
</g>
</g>
<!-- Node1&#45;&gt;Node2 -->
<g id="edge1" class="edge"><title>Node1&#45;&gt;Node2</title>
<path fill="none" stroke="midnightblue" d="M164.116,-15.5C172.73,-15.5 181.429,-15.5 189.917,-15.5"/>
<polygon fill="midnightblue" stroke="midnightblue" points="164.06,-12.0001 154.06,-15.5 164.06,-19.0001 164.06,-12.0001"/>
</g>
<!-- Node3 -->
<g id="node3" class="node"><title>Node3</title>
<g id="a_node3"><a xlink:href="class_user_control_particle_system.html#a40bcd13d702c6d38e59a6509f0c690ff" target="_top" xlink:title="UserControlParticleSystem\l::initGUI">
<polygon fill="white" stroke="black" points="378,-0.5 378,-30.5 512,-30.5 512,-0.5 378,-0.5"/>
<text text-anchor="start" x="386" y="-18.5" font-family="Helvetica,sans-Serif" font-size="10.00">UserControlParticleSystem</text>
<text text-anchor="middle" x="445" y="-7.5" font-family="Helvetica,sans-Serif" font-size="10.00">::initGUI</text>
</a>
</g>
</g>
<!-- Node2&#45;&gt;Node3 -->
<g id="edge2" class="edge"><title>Node2&#45;&gt;Node3</title>
<path fill="none" stroke="midnightblue" d="M352.14,-15.5C360.756,-15.5 369.415,-15.5 377.789,-15.5"/>
<polygon fill="midnightblue" stroke="midnightblue" points="352.064,-12.0001 342.064,-15.5 352.064,-19.0001 352.064,-12.0001"/>
</g>
</g>
</svg>
