<?xml version="1.0" encoding="UTF-8" standalone="no"?>
<!DOCTYPE svg PUBLIC "-//W3C//DTD SVG 1.1//EN"
 "http://www.w3.org/Graphics/SVG/1.1/DTD/svg11.dtd">
<!-- Generated by graphviz version 2.38.0 (20140413.2041)
 -->
<!-- Title: Igor::iLoader3DS::readChar Pages: 1 -->
<svg width="862pt" height="47pt"
 viewBox="0.00 0.00 862.00 47.00" xmlns="http://www.w3.org/2000/svg" xmlns:xlink="http://www.w3.org/1999/xlink">
<g id="graph0" class="graph" transform="scale(1 1) rotate(0) translate(4 43)">
<title>Igor::iLoader3DS::readChar</title>
<polygon fill="white" stroke="none" points="-4,4 -4,-43 858,-43 858,4 -4,4"/>
<!-- Node1 -->
<g id="node1" class="node"><title>Node1</title>
<polygon fill="#bfbfbf" stroke="black" points="0,-19.5 0,-38.5 134,-38.5 134,-19.5 0,-19.5"/>
<text text-anchor="middle" x="67" y="-26.5" font-family="Helvetica,sans-Serif" font-size="10.00">Igor::iLoader3DS::readChar</text>
</g>
<!-- Node2 -->
<g id="node2" class="node"><title>Node2</title>
<g id="a_node2"><a xlink:href="class_igor_1_1i_loader3_d_s.html#aa1e4e6a39e37d9a6bb46c10f3814a34f" target="_top" xlink:title="Igor::iLoader3DS::readASCIIString">
<polygon fill="white" stroke="black" points="170,-19.5 170,-38.5 334,-38.5 334,-19.5 170,-19.5"/>
<text text-anchor="middle" x="252" y="-26.5" font-family="Helvetica,sans-Serif" font-size="10.00">Igor::iLoader3DS::readASCIIString</text>
</a>
</g>
</g>
<!-- Node1&#45;&gt;Node2 -->
<g id="edge1" class="edge"><title>Node1&#45;&gt;Node2</title>
<path fill="none" stroke="midnightblue" d="M144.227,-29C152.645,-29 161.241,-29 169.718,-29"/>
<polygon fill="midnightblue" stroke="midnightblue" points="144.067,-25.5001 134.067,-29 144.067,-32.5001 144.067,-25.5001"/>
</g>
<!-- Node3 -->
<g id="node3" class="node"><title>Node3</title>
<g id="a_node3"><a xlink:href="class_igor_1_1i_loader3_d_s.html#aca0e79310e5d9cf03bef571eab095799" target="_top" xlink:title="Igor::iLoader3DS::analyze3DS">
<polygon fill="white" stroke="black" points="543,-19.5 543,-38.5 690,-38.5 690,-19.5 543,-19.5"/>
<text text-anchor="middle" x="616.5" y="-26.5" font-family="Helvetica,sans-Serif" font-size="10.00">Igor::iLoader3DS::analyze3DS</text>
</a>
</g>
</g>
<!-- Node2&#45;&gt;Node3 -->
<g id="edge2" class="edge"><title>Node2&#45;&gt;Node3</title>
<path fill="none" stroke="midnightblue" d="M344.428,-29C405.827,-29 485.629,-29 542.719,-29"/>
<polygon fill="midnightblue" stroke="midnightblue" points="344.352,-25.5001 334.352,-29 344.352,-32.5001 344.352,-25.5001"/>
</g>
<!-- Node5 -->
<g id="node5" class="node"><title>Node5</title>
<g id="a_node5"><a xlink:href="class_igor_1_1i_loader3_d_s.html#adc6bfd41b7e33b44ac4689aba4ecc57c" target="_top" xlink:title="Igor::iLoader3DS::readMesh">
<polygon fill="white" stroke="black" points="370,-0.5 370,-19.5 507,-19.5 507,-0.5 370,-0.5"/>
<text text-anchor="middle" x="438.5" y="-7.5" font-family="Helvetica,sans-Serif" font-size="10.00">Igor::iLoader3DS::readMesh</text>
</a>
</g>
</g>
<!-- Node2&#45;&gt;Node5 -->
<g id="edge4" class="edge"><title>Node2&#45;&gt;Node5</title>
<path fill="none" stroke="midnightblue" d="M344.267,-19.6012C352.869,-18.7154 361.482,-17.8284 369.807,-16.9711"/>
<polygon fill="midnightblue" stroke="midnightblue" points="343.782,-16.1326 334.193,-20.6387 344.499,-23.0958 343.782,-16.1326"/>
</g>
<!-- Node4 -->
<g id="node4" class="node"><title>Node4</title>
<g id="a_node4"><a xlink:href="class_igor_1_1i_loader3_d_s.html#a4c261f6da8b9cf51264bb49f0df62718" target="_top" xlink:title="Igor::iLoader3DS::loadFile">
<polygon fill="white" stroke="black" points="726,-19.5 726,-38.5 854,-38.5 854,-19.5 726,-19.5"/>
<text text-anchor="middle" x="790" y="-26.5" font-family="Helvetica,sans-Serif" font-size="10.00">Igor::iLoader3DS::loadFile</text>
</a>
</g>
</g>
<!-- Node3&#45;&gt;Node4 -->
<g id="edge3" class="edge"><title>Node3&#45;&gt;Node4</title>
<path fill="none" stroke="midnightblue" d="M700.305,-29C708.92,-29 717.574,-29 725.92,-29"/>
<polygon fill="midnightblue" stroke="midnightblue" points="700.231,-25.5001 690.231,-29 700.231,-32.5001 700.231,-25.5001"/>
</g>
<!-- Node5&#45;&gt;Node3 -->
<g id="edge5" class="edge"><title>Node5&#45;&gt;Node3</title>
<path fill="none" stroke="midnightblue" d="M517.042,-18.371C525.629,-19.298 534.351,-20.2396 542.874,-21.1597"/>
<polygon fill="midnightblue" stroke="midnightblue" points="517.361,-14.8852 507.043,-17.2916 516.609,-21.8447 517.361,-14.8852"/>
</g>
</g>
</svg>
