<?xml version="1.0" encoding="UTF-8" standalone="no"?>
<!DOCTYPE svg PUBLIC "-//W3C//DTD SVG 1.1//EN"
 "http://www.w3.org/Graphics/SVG/1.1/DTD/svg11.dtd">
<!-- Generated by graphviz version 2.38.0 (20140413.2041)
 -->
<!-- Title: Igor::iMeshBuilder::calcNormals Pages: 1 -->
<svg width="688pt" height="425pt"
 viewBox="0.00 0.00 688.00 425.00" xmlns="http://www.w3.org/2000/svg" xmlns:xlink="http://www.w3.org/1999/xlink">
<g id="graph0" class="graph" transform="scale(1 1) rotate(0) translate(4 421)">
<title>Igor::iMeshBuilder::calcNormals</title>
<polygon fill="white" stroke="none" points="-4,4 -4,-421 684,-421 684,4 -4,4"/>
<!-- Node79 -->
<g id="node1" class="node"><title>Node79</title>
<g id="a_node1"><a xlink:title=" ">
<polygon fill="#bfbfbf" stroke="black" points="585,-190.5 585,-220.5 680,-220.5 680,-190.5 585,-190.5"/>
<text text-anchor="start" x="593" y="-208.5" font-family="Helvetica,sans-Serif" font-size="10.00">Igor::iMeshBuilder</text>
<text text-anchor="middle" x="632.5" y="-197.5" font-family="Helvetica,sans-Serif" font-size="10.00">::calcNormals</text>
</a>
</g>
</g>
<!-- Node80 -->
<g id="node2" class="node"><title>Node80</title>
<g id="a_node2"><a xlink:href="class_igor_1_1i_simple_cubes.html#a60cc60922f4cdeff66992c2bba82a080" target="_top" xlink:title=" ">
<polygon fill="white" stroke="black" points="409.5,-386.5 409.5,-416.5 507.5,-416.5 507.5,-386.5 409.5,-386.5"/>
<text text-anchor="start" x="417.5" y="-404.5" font-family="Helvetica,sans-Serif" font-size="10.00">Igor::iSimpleCubes</text>
<text text-anchor="middle" x="458.5" y="-393.5" font-family="Helvetica,sans-Serif" font-size="10.00">::compile</text>
</a>
</g>
</g>
<!-- Node79&#45;&gt;Node80 -->
<g id="edge1" class="edge"><title>Node79&#45;&gt;Node80</title>
<path fill="none" stroke="midnightblue" d="M626.274,-230.715C617.191,-268.139 594.899,-338.088 549,-376.5 537.37,-386.233 522.214,-392.189 507.689,-395.829"/>
<polygon fill="midnightblue" stroke="midnightblue" points="629.759,-231.174 628.587,-220.644 622.937,-229.607 629.759,-231.174"/>
</g>
<!-- Node81 -->
<g id="node3" class="node"><title>Node81</title>
<g id="a_node3"><a xlink:href="class_manipulator.html#a22aeed70187ef8467c3d29785d01b3bf" target="_top" xlink:title=" ">
<polygon fill="white" stroke="black" points="387,-348 387,-367 530,-367 530,-348 387,-348"/>
<text text-anchor="middle" x="458.5" y="-355" font-family="Helvetica,sans-Serif" font-size="10.00">Manipulator::createRingMesh</text>
</a>
</g>
</g>
<!-- Node79&#45;&gt;Node81 -->
<g id="edge2" class="edge"><title>Node79&#45;&gt;Node81</title>
<path fill="none" stroke="midnightblue" d="M623.136,-230.119C611.479,-260.536 587.354,-311.557 549,-338.5 543.281,-342.518 536.884,-345.715 530.211,-348.256"/>
<polygon fill="midnightblue" stroke="midnightblue" points="626.448,-231.252 626.614,-220.658 619.878,-228.837 626.448,-231.252"/>
</g>
<!-- Node82 -->
<g id="node4" class="node"><title>Node82</title>
<g id="a_node4"><a xlink:href="class_manipulator.html#a66cdbd94e7e01bc86e6e648d6fd6e5e5" target="_top" xlink:title=" ">
<polygon fill="white" stroke="black" points="381,-310 381,-329 536,-329 536,-310 381,-310"/>
<text text-anchor="middle" x="458.5" y="-317" font-family="Helvetica,sans-Serif" font-size="10.00">Manipulator::create2DRingMesh</text>
</a>
</g>
</g>
<!-- Node79&#45;&gt;Node82 -->
<g id="edge3" class="edge"><title>Node79&#45;&gt;Node82</title>
<path fill="none" stroke="midnightblue" d="M617.375,-229.187C602.983,-251.173 578.609,-283.054 549,-300.5 542.431,-304.371 535.179,-307.458 527.731,-309.919"/>
<polygon fill="midnightblue" stroke="midnightblue" points="620.34,-231.045 622.742,-220.726 614.429,-227.295 620.34,-231.045"/>
</g>
<!-- Node83 -->
<g id="node5" class="node"><title>Node83</title>
<g id="a_node5"><a xlink:href="class_manipulator.html#a6d4ac04bee1d79981d08328704544cd7" target="_top" xlink:title=" ">
<polygon fill="white" stroke="black" points="384,-272 384,-291 533,-291 533,-272 384,-272"/>
<text text-anchor="middle" x="458.5" y="-279" font-family="Helvetica,sans-Serif" font-size="10.00">Manipulator::createScaleMesh</text>
</a>
</g>
</g>
<!-- Node79&#45;&gt;Node83 -->
<g id="edge4" class="edge"><title>Node79&#45;&gt;Node83</title>
<path fill="none" stroke="midnightblue" d="M605.995,-227.078C590.442,-239.187 569.639,-253.606 549,-262.5 540.102,-266.335 530.362,-269.421 520.688,-271.897"/>
<polygon fill="midnightblue" stroke="midnightblue" points="608.43,-229.612 614.061,-220.637 604.062,-224.142 608.43,-229.612"/>
</g>
<!-- Node84 -->
<g id="node6" class="node"><title>Node84</title>
<g id="a_node6"><a xlink:href="class_manipulator.html#af6638ebbe40c4bf04d29030660227e2d" target="_top" xlink:title=" ">
<polygon fill="white" stroke="black" points="376.5,-234 376.5,-253 540.5,-253 540.5,-234 376.5,-234"/>
<text text-anchor="middle" x="458.5" y="-241" font-family="Helvetica,sans-Serif" font-size="10.00">Manipulator::createTranslateMesh</text>
</a>
</g>
</g>
<!-- Node79&#45;&gt;Node84 -->
<g id="edge5" class="edge"><title>Node79&#45;&gt;Node84</title>
<path fill="none" stroke="midnightblue" d="M574.82,-218.689C566.176,-220.661 557.355,-222.651 549,-224.5 534.731,-227.657 519.159,-230.999 505.064,-233.985"/>
<polygon fill="midnightblue" stroke="midnightblue" points="575.881,-222.036 584.847,-216.391 574.318,-215.213 575.881,-222.036"/>
</g>
<!-- Node85 -->
<g id="node7" class="node"><title>Node85</title>
<g id="a_node7"><a xlink:href="class_widget3_d_emitter.html#ad40f79fa12b87993a47aa5de9d8d29f5" target="_top" xlink:title=" ">
<polygon fill="white" stroke="black" points="387,-196 387,-215 530,-215 530,-196 387,-196"/>
<text text-anchor="middle" x="458.5" y="-203" font-family="Helvetica,sans-Serif" font-size="10.00">Widget3DEmitter::createDisc</text>
</a>
</g>
</g>
<!-- Node79&#45;&gt;Node85 -->
<g id="edge6" class="edge"><title>Node79&#45;&gt;Node85</title>
<path fill="none" stroke="midnightblue" d="M574.774,-205.5C560.457,-205.5 544.911,-205.5 530.008,-205.5"/>
<polygon fill="midnightblue" stroke="midnightblue" points="574.954,-209 584.954,-205.5 574.954,-202 574.954,-209"/>
</g>
<!-- Node89 -->
<g id="node11" class="node"><title>Node89</title>
<g id="a_node11"><a xlink:href="class_widget3_d_emitter.html#a5fcef2ab9a90c3a1ff1f3ce361b37d44" target="_top" xlink:title=" ">
<polygon fill="white" stroke="black" points="384,-158 384,-177 533,-177 533,-158 384,-158"/>
<text text-anchor="middle" x="458.5" y="-165" font-family="Helvetica,sans-Serif" font-size="10.00">Widget3DEmitter::createCircle</text>
</a>
</g>
</g>
<!-- Node79&#45;&gt;Node89 -->
<g id="edge10" class="edge"><title>Node79&#45;&gt;Node89</title>
<path fill="none" stroke="midnightblue" d="M574.82,-192.311C566.176,-190.339 557.355,-188.349 549,-186.5 534.731,-183.343 519.159,-180.001 505.064,-177.015"/>
<polygon fill="midnightblue" stroke="midnightblue" points="574.318,-195.787 584.847,-194.609 575.881,-188.964 574.318,-195.787"/>
</g>
<!-- Node90 -->
<g id="node12" class="node"><title>Node90</title>
<g id="a_node12"><a xlink:href="class_widget3_d_emitter.html#a0a9f47c5ae6ee03ece815f3a19d3d12c" target="_top" xlink:title=" ">
<polygon fill="white" stroke="black" points="385.5,-120 385.5,-139 531.5,-139 531.5,-120 385.5,-120"/>
<text text-anchor="middle" x="458.5" y="-127" font-family="Helvetica,sans-Serif" font-size="10.00">Widget3DEmitter::createCube</text>
</a>
</g>
</g>
<!-- Node79&#45;&gt;Node90 -->
<g id="edge12" class="edge"><title>Node79&#45;&gt;Node90</title>
<path fill="none" stroke="midnightblue" d="M605.995,-183.922C590.442,-171.813 569.639,-157.394 549,-148.5 540.102,-144.665 530.362,-141.579 520.688,-139.103"/>
<polygon fill="midnightblue" stroke="midnightblue" points="604.062,-186.858 614.061,-190.363 608.43,-181.388 604.062,-186.858"/>
</g>
<!-- Node91 -->
<g id="node13" class="node"><title>Node91</title>
<g id="a_node13"><a xlink:href="class_widget3_d_emitter.html#af8b8367827875877fe19b75e0edffe23" target="_top" xlink:title=" ">
<polygon fill="white" stroke="black" points="381,-82 381,-101 536,-101 536,-82 381,-82"/>
<text text-anchor="middle" x="458.5" y="-89" font-family="Helvetica,sans-Serif" font-size="10.00">Widget3DEmitter::createSphere</text>
</a>
</g>
</g>
<!-- Node79&#45;&gt;Node91 -->
<g id="edge14" class="edge"><title>Node79&#45;&gt;Node91</title>
<path fill="none" stroke="midnightblue" d="M617.375,-181.813C602.983,-159.827 578.609,-127.946 549,-110.5 542.431,-106.629 535.179,-103.542 527.731,-101.081"/>
<polygon fill="midnightblue" stroke="midnightblue" points="614.429,-183.705 622.742,-190.274 620.34,-179.955 614.429,-183.705"/>
</g>
<!-- Node92 -->
<g id="node14" class="node"><title>Node92</title>
<g id="a_node14"><a xlink:href="class_widget3_d_emitter.html#a24c32b3f57fe1033199c31c194ef00ec" target="_top" xlink:title=" ">
<polygon fill="white" stroke="black" points="381,-44 381,-63 536,-63 536,-44 381,-44"/>
<text text-anchor="middle" x="458.5" y="-51" font-family="Helvetica,sans-Serif" font-size="10.00">Widget3DEmitter::createSquare</text>
</a>
</g>
</g>
<!-- Node79&#45;&gt;Node92 -->
<g id="edge16" class="edge"><title>Node79&#45;&gt;Node92</title>
<path fill="none" stroke="midnightblue" d="M623.136,-180.881C611.479,-150.464 587.354,-99.4426 549,-72.5 543.541,-68.6651 537.464,-65.5771 531.119,-63.0942"/>
<polygon fill="midnightblue" stroke="midnightblue" points="619.878,-182.163 626.614,-190.342 626.448,-179.748 619.878,-182.163"/>
</g>
<!-- Node93 -->
<g id="node15" class="node"><title>Node93</title>
<g id="a_node15"><a xlink:href="class_widget3_d_locator.html#af2885d73c346254977b1fa8e1142581e" target="_top" xlink:title=" ">
<polygon fill="white" stroke="black" points="368,-6 368,-25 549,-25 549,-6 368,-6"/>
<text text-anchor="middle" x="458.5" y="-13" font-family="Helvetica,sans-Serif" font-size="10.00">Widget3DLocator::createLocatorMesh</text>
</a>
</g>
</g>
<!-- Node79&#45;&gt;Node93 -->
<g id="edge18" class="edge"><title>Node79&#45;&gt;Node93</title>
<path fill="none" stroke="midnightblue" d="M626.641,-180.197C617.993,-142.361 596.207,-71.5353 549,-34.5 544.126,-30.6762 538.66,-27.5765 532.895,-25.0691"/>
<polygon fill="midnightblue" stroke="midnightblue" points="623.305,-181.333 628.83,-190.373 630.149,-179.861 623.305,-181.333"/>
</g>
<!-- Node86 -->
<g id="node8" class="node"><title>Node86</title>
<g id="a_node8"><a xlink:href="class_widget3_d_emitter.html#ada67ed081bc12f2a99fb26918efe24e8" target="_top" xlink:title=" ">
<polygon fill="white" stroke="black" points="190.5,-120 190.5,-139 316.5,-139 316.5,-120 190.5,-120"/>
<text text-anchor="middle" x="253.5" y="-127" font-family="Helvetica,sans-Serif" font-size="10.00">Widget3DEmitter::update</text>
</a>
</g>
</g>
<!-- Node85&#45;&gt;Node86 -->
<g id="edge7" class="edge"><title>Node85&#45;&gt;Node86</title>
<path fill="none" stroke="midnightblue" d="M391.696,-193.555C383.628,-191.499 375.566,-189.153 368,-186.5 331.587,-173.73 291.919,-151.783 270.462,-139.173"/>
<polygon fill="midnightblue" stroke="midnightblue" points="390.966,-196.98 401.508,-195.921 392.607,-190.175 390.966,-196.98"/>
</g>
<!-- Node87 -->
<g id="node9" class="node"><title>Node87</title>
<g id="a_node9"><a xlink:href="class_widget3_d_emitter.html#a363f3a0acfbb9f55c5bfd54c326f2935" target="_top" xlink:title=" ">
<polygon fill="white" stroke="black" points="3,-138.5 3,-168.5 136,-168.5 136,-138.5 3,-138.5"/>
<text text-anchor="start" x="11" y="-156.5" font-family="Helvetica,sans-Serif" font-size="10.00">Widget3DEmitter::Widget3</text>
<text text-anchor="middle" x="69.5" y="-145.5" font-family="Helvetica,sans-Serif" font-size="10.00">DEmitter</text>
</a>
</g>
</g>
<!-- Node86&#45;&gt;Node87 -->
<g id="edge8" class="edge"><title>Node86&#45;&gt;Node87</title>
<path fill="none" stroke="midnightblue" d="M180.38,-139.01C165.757,-140.939 150.454,-142.957 136.072,-144.853"/>
<polygon fill="midnightblue" stroke="midnightblue" points="180.918,-142.47 190.375,-137.692 180.003,-135.53 180.918,-142.47"/>
</g>
<!-- Node88 -->
<g id="node10" class="node"><title>Node88</title>
<g id="a_node10"><a xlink:href="class_widget3_d_emitter.html#a87ddec2cb5f9e7c5c7f40a84deb63e26" target="_top" xlink:title=" ">
<polygon fill="white" stroke="black" points="0,-89.5 0,-119.5 139,-119.5 139,-89.5 0,-89.5"/>
<text text-anchor="start" x="8" y="-107.5" font-family="Helvetica,sans-Serif" font-size="10.00">Widget3DEmitter::~Widget3</text>
<text text-anchor="middle" x="69.5" y="-96.5" font-family="Helvetica,sans-Serif" font-size="10.00">DEmitter</text>
</a>
</g>
</g>
<!-- Node86&#45;&gt;Node88 -->
<g id="edge9" class="edge"><title>Node86&#45;&gt;Node88</title>
<path fill="none" stroke="midnightblue" d="M180.181,-119.566C166.677,-117.711 152.6,-115.777 139.209,-113.938"/>
<polygon fill="midnightblue" stroke="midnightblue" points="179.992,-123.073 190.375,-120.966 180.944,-116.138 179.992,-123.073"/>
</g>
<!-- Node89&#45;&gt;Node86 -->
<g id="edge11" class="edge"><title>Node89&#45;&gt;Node86</title>
<path fill="none" stroke="midnightblue" d="M396.503,-156.082C367.458,-150.645 333.118,-144.217 305.484,-139.044"/>
<polygon fill="midnightblue" stroke="midnightblue" points="396.063,-159.56 406.537,-157.96 397.351,-152.68 396.063,-159.56"/>
</g>
<!-- Node90&#45;&gt;Node86 -->
<g id="edge13" class="edge"><title>Node90&#45;&gt;Node86</title>
<path fill="none" stroke="midnightblue" d="M375.238,-129.5C355.683,-129.5 335.139,-129.5 316.654,-129.5"/>
<polygon fill="midnightblue" stroke="midnightblue" points="375.358,-133 385.358,-129.5 375.358,-126 375.358,-133"/>
</g>
<!-- Node91&#45;&gt;Node86 -->
<g id="edge15" class="edge"><title>Node91&#45;&gt;Node86</title>
<path fill="none" stroke="midnightblue" d="M396.503,-102.918C367.458,-108.355 333.118,-114.783 305.484,-119.956"/>
<polygon fill="midnightblue" stroke="midnightblue" points="397.351,-106.32 406.537,-101.04 396.063,-99.4398 397.351,-106.32"/>
</g>
<!-- Node92&#45;&gt;Node86 -->
<g id="edge17" class="edge"><title>Node92&#45;&gt;Node86</title>
<path fill="none" stroke="midnightblue" d="M391.696,-65.4446C383.628,-67.5008 375.566,-69.8466 368,-72.5 331.587,-85.2701 291.919,-107.217 270.462,-119.827"/>
<polygon fill="midnightblue" stroke="midnightblue" points="392.607,-68.8255 401.508,-63.0789 390.966,-62.0205 392.607,-68.8255"/>
</g>
<!-- Node94 -->
<g id="node16" class="node"><title>Node94</title>
<g id="a_node16"><a xlink:href="class_widget3_d_locator.html#a37756bea74f096cf155c5fdbd904751b" target="_top" xlink:title=" ">
<polygon fill="white" stroke="black" points="175,-6 175,-25 332,-25 332,-6 175,-6"/>
<text text-anchor="middle" x="253.5" y="-13" font-family="Helvetica,sans-Serif" font-size="10.00">Widget3DLocator::createLocator</text>
</a>
</g>
</g>
<!-- Node93&#45;&gt;Node94 -->
<g id="edge19" class="edge"><title>Node93&#45;&gt;Node94</title>
<path fill="none" stroke="midnightblue" d="M357.796,-15.5C349.194,-15.5 340.576,-15.5 332.187,-15.5"/>
<polygon fill="midnightblue" stroke="midnightblue" points="357.87,-19.0001 367.87,-15.5 357.87,-12.0001 357.87,-19.0001"/>
</g>
<!-- Node95 -->
<g id="node17" class="node"><title>Node95</title>
<g id="a_node17"><a xlink:href="class_widget3_d_locator.html#ae3089c10bd105e2327b5e5342c53b0de" target="_top" xlink:title=" ">
<polygon fill="white" stroke="black" points="2.5,-0.5 2.5,-30.5 136.5,-30.5 136.5,-0.5 2.5,-0.5"/>
<text text-anchor="start" x="10.5" y="-18.5" font-family="Helvetica,sans-Serif" font-size="10.00">Widget3DLocator::Widget3</text>
<text text-anchor="middle" x="69.5" y="-7.5" font-family="Helvetica,sans-Serif" font-size="10.00">DLocator</text>
</a>
</g>
</g>
<!-- Node94&#45;&gt;Node95 -->
<g id="edge20" class="edge"><title>Node94&#45;&gt;Node95</title>
<path fill="none" stroke="midnightblue" d="M164.647,-15.5C155.267,-15.5 145.844,-15.5 136.774,-15.5"/>
<polygon fill="midnightblue" stroke="midnightblue" points="164.788,-19.0001 174.788,-15.5 164.788,-12.0001 164.788,-19.0001"/>
</g>
</g>
</svg>
