<?xml version="1.0" encoding="UTF-8" standalone="no"?>
<!DOCTYPE svg PUBLIC "-//W3C//DTD SVG 1.1//EN"
 "http://www.w3.org/Graphics/SVG/1.1/DTD/svg11.dtd">
<!-- Generated by graphviz version 2.38.0 (20140413.2041)
 -->
<!-- Title: Igor::iPerlinNoise::getValue Pages: 1 -->
<svg width="243pt" height="176pt"
 viewBox="0.00 0.00 243.00 176.00" xmlns="http://www.w3.org/2000/svg" xmlns:xlink="http://www.w3.org/1999/xlink">
<g id="graph0" class="graph" transform="scale(1 1) rotate(0) translate(4 172)">
<title>Igor::iPerlinNoise::getValue</title>
<polygon fill="white" stroke="none" points="-4,4 -4,-172 239,-172 239,4 -4,4"/>
<!-- Node15 -->
<g id="node1" class="node"><title>Node15</title>
<g id="a_node1"><a xlink:title=" ">
<polygon fill="#bfbfbf" stroke="black" points="0,-71.5 0,-101.5 90,-101.5 90,-71.5 0,-71.5"/>
<text text-anchor="start" x="8" y="-89.5" font-family="Helvetica,sans-Serif" font-size="10.00">Igor::iPerlinNoise</text>
<text text-anchor="middle" x="45" y="-78.5" font-family="Helvetica,sans-Serif" font-size="10.00">::getValue</text>
</a>
</g>
</g>
<!-- Node16 -->
<g id="node2" class="node"><title>Node16</title>
<g id="a_node2"><a xlink:href="class_igor_1_1i_perlin_noise.html#a283827ef80ab08d723007b20a0b4fc3f" target="_top" xlink:title=" ">
<polygon fill="white" stroke="black" points="135.5,-137.5 135.5,-167.5 225.5,-167.5 225.5,-137.5 135.5,-137.5"/>
<text text-anchor="start" x="143.5" y="-155.5" font-family="Helvetica,sans-Serif" font-size="10.00">Igor::iPerlinNoise</text>
<text text-anchor="middle" x="180.5" y="-144.5" font-family="Helvetica,sans-Serif" font-size="10.00">::fade</text>
</a>
</g>
</g>
<!-- Node15&#45;&gt;Node16 -->
<g id="edge1" class="edge"><title>Node15&#45;&gt;Node16</title>
<path fill="none" stroke="midnightblue" d="M74.755,-101.557C89.9296,-109.422 108.9,-119.126 126,-127.5 129.781,-129.351 133.725,-131.252 137.683,-133.139"/>
<polygon fill="midnightblue" stroke="midnightblue" points="136.338,-136.374 146.874,-137.485 139.33,-130.046 136.338,-136.374"/>
</g>
<!-- Node17 -->
<g id="node3" class="node"><title>Node17</title>
<g id="a_node3"><a xlink:href="class_igor_1_1i_perlin_noise.html#a47023a32a668daaa63ef420d8419555c" target="_top" xlink:title=" ">
<polygon fill="white" stroke="black" points="126,-99 126,-118 235,-118 235,-99 126,-99"/>
<text text-anchor="middle" x="180.5" y="-106" font-family="Helvetica,sans-Serif" font-size="10.00">Igor::iPerlinNoise::inc</text>
</a>
</g>
</g>
<!-- Node15&#45;&gt;Node17 -->
<g id="edge2" class="edge"><title>Node15&#45;&gt;Node17</title>
<path fill="none" stroke="midnightblue" d="M90.0829,-93.7646C98.2711,-95.114 106.976,-96.5484 115.616,-97.9723"/>
<polygon fill="midnightblue" stroke="midnightblue" points="115.259,-101.461 125.695,-99.6332 116.397,-94.5537 115.259,-101.461"/>
</g>
<!-- Node18 -->
<g id="node4" class="node"><title>Node18</title>
<g id="a_node4"><a xlink:href="class_igor_1_1i_perlin_noise.html#aedb0187ad344bc00f3d031c1b17c3496" target="_top" xlink:title=" ">
<polygon fill="white" stroke="black" points="135.5,-49.5 135.5,-79.5 225.5,-79.5 225.5,-49.5 135.5,-49.5"/>
<text text-anchor="start" x="143.5" y="-67.5" font-family="Helvetica,sans-Serif" font-size="10.00">Igor::iPerlinNoise</text>
<text text-anchor="middle" x="180.5" y="-56.5" font-family="Helvetica,sans-Serif" font-size="10.00">::lerp</text>
</a>
</g>
</g>
<!-- Node15&#45;&gt;Node18 -->
<g id="edge3" class="edge"><title>Node15&#45;&gt;Node18</title>
<path fill="none" stroke="midnightblue" d="M90.0829,-79.2354C101.361,-77.3768 113.619,-75.3568 125.34,-73.4253"/>
<polygon fill="midnightblue" stroke="midnightblue" points="126.166,-76.8365 135.463,-71.757 125.027,-69.9296 126.166,-76.8365"/>
</g>
<!-- Node19 -->
<g id="node5" class="node"><title>Node19</title>
<g id="a_node5"><a xlink:href="class_igor_1_1i_perlin_noise.html#a7d289388b6f86ff2e9fc70554cb0ca9d" target="_top" xlink:title=" ">
<polygon fill="white" stroke="black" points="135.5,-0.5 135.5,-30.5 225.5,-30.5 225.5,-0.5 135.5,-0.5"/>
<text text-anchor="start" x="143.5" y="-18.5" font-family="Helvetica,sans-Serif" font-size="10.00">Igor::iPerlinNoise</text>
<text text-anchor="middle" x="180.5" y="-7.5" font-family="Helvetica,sans-Serif" font-size="10.00">::grad</text>
</a>
</g>
</g>
<!-- Node15&#45;&gt;Node19 -->
<g id="edge4" class="edge"><title>Node15&#45;&gt;Node19</title>
<path fill="none" stroke="midnightblue" d="M70.919,-71.4447C86.5536,-62.1812 107.237,-50.2561 126,-40.5 129.532,-38.6636 133.223,-36.8091 136.944,-34.9843"/>
<polygon fill="midnightblue" stroke="midnightblue" points="138.69,-38.0286 146.181,-30.5367 135.653,-31.7216 138.69,-38.0286"/>
</g>
</g>
</svg>
