<?xml version="1.0" encoding="UTF-8" standalone="no"?>
<!DOCTYPE svg PUBLIC "-//W3C//DTD SVG 1.1//EN"
 "http://www.w3.org/Graphics/SVG/1.1/DTD/svg11.dtd">
<!-- Generated by graphviz version 2.38.0 (20140413.2041)
 -->
<!-- Title: Igor::iWidget::draw Pages: 1 -->
<svg width="258pt" height="127pt"
 viewBox="0.00 0.00 258.00 126.50" xmlns="http://www.w3.org/2000/svg" xmlns:xlink="http://www.w3.org/1999/xlink">
<g id="graph0" class="graph" transform="scale(1 1) rotate(0) translate(4 122.5)">
<title>Igor::iWidget::draw</title>
<polygon fill="white" stroke="none" points="-4,4 -4,-122.5 254,-122.5 254,4 -4,4"/>
<!-- Node1 -->
<g id="node1" class="node"><title>Node1</title>
<polygon fill="#bfbfbf" stroke="black" points="0,-55 0,-74 98,-74 98,-55 0,-55"/>
<text text-anchor="middle" x="49" y="-62" font-family="Helvetica,sans-Serif" font-size="10.00">Igor::iWidget::draw</text>
</g>
<!-- Node2 -->
<g id="node2" class="node"><title>Node2</title>
<g id="a_node2"><a xlink:href="class_igor_1_1i_widget_grid.html#af5da08cf04d409cc0a37cf364d1b596f" target="_top" xlink:title="Igor::iWidgetGrid::draw">
<polygon fill="white" stroke="black" points="134,-99 134,-118 250,-118 250,-99 134,-99"/>
<text text-anchor="middle" x="192" y="-106" font-family="Helvetica,sans-Serif" font-size="10.00">Igor::iWidgetGrid::draw</text>
</a>
</g>
</g>
<!-- Node1&#45;&gt;Node2 -->
<g id="edge1" class="edge"><title>Node1&#45;&gt;Node2</title>
<path fill="none" stroke="midnightblue" d="M90.148,-77.0285C112.497,-84.0027 139.876,-92.5465 160.465,-98.9713"/>
<polygon fill="midnightblue" stroke="midnightblue" points="91.1835,-73.6852 80.5949,-74.0473 89.0983,-80.3674 91.1835,-73.6852"/>
</g>
<!-- Node3 -->
<g id="node3" class="node"><title>Node3</title>
<g id="a_node3"><a xlink:href="class_igor_1_1i_widget_group_box.html#ad283af143639bd11232d8914f395d527" target="_top" xlink:title="Igor::iWidgetGroupBox\l::draw">
<polygon fill="white" stroke="black" points="134.5,-49.5 134.5,-79.5 249.5,-79.5 249.5,-49.5 134.5,-49.5"/>
<text text-anchor="start" x="142.5" y="-67.5" font-family="Helvetica,sans-Serif" font-size="10.00">Igor::iWidgetGroupBox</text>
<text text-anchor="middle" x="192" y="-56.5" font-family="Helvetica,sans-Serif" font-size="10.00">::draw</text>
</a>
</g>
</g>
<!-- Node1&#45;&gt;Node3 -->
<g id="edge2" class="edge"><title>Node1&#45;&gt;Node3</title>
<path fill="none" stroke="midnightblue" d="M108.141,-64.5C116.797,-64.5 125.709,-64.5 134.334,-64.5"/>
<polygon fill="midnightblue" stroke="midnightblue" points="108.13,-61.0001 98.1298,-64.5 108.13,-68.0001 108.13,-61.0001"/>
</g>
<!-- Node4 -->
<g id="node4" class="node"><title>Node4</title>
<g id="a_node4"><a xlink:href="class_igor_1_1i_widget_scroll.html#a1ee966ffe24e24a937f37167983d912b" target="_top" xlink:title="Igor::iWidgetScroll\l::draw">
<polygon fill="white" stroke="black" points="144,-0.5 144,-30.5 240,-30.5 240,-0.5 144,-0.5"/>
<text text-anchor="start" x="152" y="-18.5" font-family="Helvetica,sans-Serif" font-size="10.00">Igor::iWidgetScroll</text>
<text text-anchor="middle" x="192" y="-7.5" font-family="Helvetica,sans-Serif" font-size="10.00">::draw</text>
</a>
</g>
</g>
<!-- Node1&#45;&gt;Node4 -->
<g id="edge3" class="edge"><title>Node1&#45;&gt;Node4</title>
<path fill="none" stroke="midnightblue" d="M87.1164,-51.6014C105.716,-45.1378 128.346,-37.2735 147.73,-30.537"/>
<polygon fill="midnightblue" stroke="midnightblue" points="85.8179,-48.3473 77.5209,-54.936 88.1158,-54.9594 85.8179,-48.3473"/>
</g>
</g>
</svg>
