<?xml version="1.0" encoding="UTF-8" standalone="no"?>
<!DOCTYPE svg PUBLIC "-//W3C//DTD SVG 1.1//EN"
 "http://www.w3.org/Graphics/SVG/1.1/DTD/svg11.dtd">
<!-- Generated by graphviz version 2.38.0 (20140413.2041)
 -->
<!-- Title: UserControlGraphView::initGUI Pages: 1 -->
<svg width="490pt" height="1210pt"
 viewBox="0.00 0.00 490.00 1210.33" xmlns="http://www.w3.org/2000/svg" xmlns:xlink="http://www.w3.org/1999/xlink">
<g id="graph0" class="graph" transform="scale(1 1) rotate(0) translate(4 1206.33)">
<title>UserControlGraphView::initGUI</title>
<polygon fill="white" stroke="none" points="-4,4 -4,-1206.33 486,-1206.33 486,4 -4,4"/>
<!-- Node25 -->
<g id="node1" class="node"><title>Node25</title>
<g id="a_node1"><a xlink:title=" ">
<polygon fill="#bfbfbf" stroke="black" points="0,-600 0,-630 115,-630 115,-600 0,-600"/>
<text text-anchor="start" x="8" y="-618" font-family="Helvetica,sans-Serif" font-size="10.00">UserControlGraphView</text>
<text text-anchor="middle" x="57.5" y="-607" font-family="Helvetica,sans-Serif" font-size="10.00">::initGUI</text>
</a>
</g>
</g>
<!-- Node26 -->
<g id="node2" class="node"><title>Node26</title>
<g id="a_node2"><a xlink:href="class_igor_aux_1_1ia_singleton.html#a821f1d891129e6d09b992be81094540e" target="_top" xlink:title=" ">
<polygon fill="white" stroke="black" points="321,-677 321,-707 482,-707 482,-677 321,-677"/>
<text text-anchor="start" x="329" y="-695" font-family="Helvetica,sans-Serif" font-size="10.00">IgorAux::iaSingleton</text>
<text text-anchor="middle" x="401.5" y="-684" font-family="Helvetica,sans-Serif" font-size="10.00">&lt; iWidgetManager &gt;::getInstance</text>
</a>
</g>
</g>
<!-- Node25&#45;&gt;Node26 -->
<g id="edge1" class="edge"><title>Node25&#45;&gt;Node26</title>
<path fill="none" stroke="midnightblue" d="M58.5045,-630.179C58.8774,-712.179 65.1958,-1101.23 151,-1174 196.42,-1212.52 238.238,-1210.88 285,-1174 358.528,-1116.01 390.517,-808.214 398.451,-717.302"/>
<polygon fill="midnightblue" stroke="midnightblue" points="401.94,-717.583 399.301,-707.322 394.965,-716.989 401.94,-717.583"/>
</g>
<!-- Node27 -->
<g id="node3" class="node"><title>Node27</title>
<g id="a_node3"><a xlink:href="class_igor_1_1i_widget_grid.html#a09e374ec95ecf256ec0d086a0b53284a" target="_top" xlink:title=" ">
<polygon fill="white" stroke="black" points="170.5,-1134 170.5,-1164 265.5,-1164 265.5,-1134 170.5,-1134"/>
<text text-anchor="start" x="178.5" y="-1152" font-family="Helvetica,sans-Serif" font-size="10.00">Igor::iWidgetGrid::</text>
<text text-anchor="middle" x="218" y="-1141" font-family="Helvetica,sans-Serif" font-size="10.00">setBorder</text>
</a>
</g>
</g>
<!-- Node25&#45;&gt;Node27 -->
<g id="edge2" class="edge"><title>Node25&#45;&gt;Node27</title>
<path fill="none" stroke="midnightblue" d="M59.2569,-630.146C63.3501,-706.315 85.1467,-1046.93 151,-1125 154,-1128.56 157.571,-1131.59 161.478,-1134.17"/>
<polygon fill="midnightblue" stroke="midnightblue" points="160.026,-1137.36 170.473,-1139.13 163.407,-1131.23 160.026,-1137.36"/>
</g>
<!-- Node28 -->
<g id="node4" class="node"><title>Node28</title>
<g id="a_node4"><a xlink:href="class_igor_1_1i_widget_grid.html#ada59fc39c0e1f9b6b6b1d244b022e4cf" target="_top" xlink:title=" ">
<polygon fill="white" stroke="black" points="170.5,-1085 170.5,-1115 265.5,-1115 265.5,-1085 170.5,-1085"/>
<text text-anchor="start" x="178.5" y="-1103" font-family="Helvetica,sans-Serif" font-size="10.00">Igor::iWidgetGrid::</text>
<text text-anchor="middle" x="218" y="-1092" font-family="Helvetica,sans-Serif" font-size="10.00">appendRows</text>
</a>
</g>
</g>
<!-- Node25&#45;&gt;Node28 -->
<g id="edge3" class="edge"><title>Node25&#45;&gt;Node28</title>
<path fill="none" stroke="midnightblue" d="M59.5713,-630.1C64.9324,-701.673 91.005,-1006.2 151,-1076 153.987,-1079.47 157.518,-1082.45 161.371,-1084.99"/>
<polygon fill="midnightblue" stroke="midnightblue" points="159.787,-1088.11 170.231,-1089.89 163.177,-1081.99 159.787,-1088.11"/>
</g>
<!-- Node29 -->
<g id="node5" class="node"><title>Node29</title>
<g id="a_node5"><a xlink:href="class_igor_1_1i_widget_grid.html#a56bcb476543d78941ee1f2ab756b21bc" target="_top" xlink:title=" ">
<polygon fill="white" stroke="black" points="170.5,-1036 170.5,-1066 265.5,-1066 265.5,-1036 170.5,-1036"/>
<text text-anchor="start" x="178.5" y="-1054" font-family="Helvetica,sans-Serif" font-size="10.00">Igor::iWidgetGrid::</text>
<text text-anchor="middle" x="218" y="-1043" font-family="Helvetica,sans-Serif" font-size="10.00">setCellSpacing</text>
</a>
</g>
</g>
<!-- Node25&#45;&gt;Node29 -->
<g id="edge4" class="edge"><title>Node25&#45;&gt;Node29</title>
<path fill="none" stroke="midnightblue" d="M59.9778,-630.261C66.7575,-697.351 96.8933,-965.488 151,-1027 154.026,-1030.44 157.586,-1033.39 161.457,-1035.91"/>
<polygon fill="midnightblue" stroke="midnightblue" points="159.895,-1039.05 170.345,-1040.79 163.264,-1032.91 159.895,-1039.05"/>
</g>
<!-- Node30 -->
<g id="node6" class="node"><title>Node30</title>
<g id="a_node6"><a xlink:href="class_igor_1_1i_widget_grid.html#aa995858da76fa24beaac1c9494489c07" target="_top" xlink:title=" ">
<polygon fill="white" stroke="black" points="170.5,-987 170.5,-1017 265.5,-1017 265.5,-987 170.5,-987"/>
<text text-anchor="start" x="178.5" y="-1005" font-family="Helvetica,sans-Serif" font-size="10.00">Igor::iWidgetGrid::</text>
<text text-anchor="middle" x="218" y="-994" font-family="Helvetica,sans-Serif" font-size="10.00">setStrechRow</text>
</a>
</g>
</g>
<!-- Node25&#45;&gt;Node30 -->
<g id="edge5" class="edge"><title>Node25&#45;&gt;Node30</title>
<path fill="none" stroke="midnightblue" d="M60.4532,-630.092C68.7223,-691.856 102.659,-924.606 151,-978 154.075,-981.396 157.669,-984.313 161.564,-986.817"/>
<polygon fill="midnightblue" stroke="midnightblue" points="160.029,-989.966 170.487,-991.667 163.372,-983.816 160.029,-989.966"/>
</g>
<!-- Node31 -->
<g id="node7" class="node"><title>Node31</title>
<g id="a_node7"><a xlink:href="class_igor_1_1i_widget_grid.html#a95aaefa85b7b815816b730a6d958cd50" target="_top" xlink:title=" ">
<polygon fill="white" stroke="black" points="170.5,-938 170.5,-968 265.5,-968 265.5,-938 170.5,-938"/>
<text text-anchor="start" x="178.5" y="-956" font-family="Helvetica,sans-Serif" font-size="10.00">Igor::iWidgetGrid::</text>
<text text-anchor="middle" x="218" y="-945" font-family="Helvetica,sans-Serif" font-size="10.00">setStrechColumn</text>
</a>
</g>
</g>
<!-- Node25&#45;&gt;Node31 -->
<g id="edge6" class="edge"><title>Node25&#45;&gt;Node31</title>
<path fill="none" stroke="midnightblue" d="M58.4237,-630.076C58.9966,-679.75 67.5292,-840.161 151,-929 154.089,-932.288 157.664,-935.126 161.519,-937.577"/>
<polygon fill="midnightblue" stroke="midnightblue" points="159.869,-940.663 170.329,-942.346 163.201,-934.508 159.869,-940.663"/>
</g>
<!-- Node32 -->
<g id="node8" class="node"><title>Node32</title>
<g id="a_node8"><a xlink:href="class_igor_1_1i_widget.html#a74cedb6d5151910c64b7d51491775e9a" target="_top" xlink:title=" ">
<polygon fill="white" stroke="black" points="151,-889 151,-919 285,-919 285,-889 151,-889"/>
<text text-anchor="start" x="159" y="-907" font-family="Helvetica,sans-Serif" font-size="10.00">Igor::iWidget::setHorizontal</text>
<text text-anchor="middle" x="218" y="-896" font-family="Helvetica,sans-Serif" font-size="10.00">Alignment</text>
</a>
</g>
</g>
<!-- Node25&#45;&gt;Node32 -->
<g id="edge7" class="edge"><title>Node25&#45;&gt;Node32</title>
<path fill="none" stroke="midnightblue" d="M59.3983,-630.22C62.8435,-674.879 78.9393,-807.001 151,-880 152.071,-881.085 153.194,-882.121 154.363,-883.11"/>
<polygon fill="midnightblue" stroke="midnightblue" points="152.467,-886.056 162.648,-888.987 156.517,-880.347 152.467,-886.056"/>
</g>
<!-- Node33 -->
<g id="node9" class="node"><title>Node33</title>
<g id="a_node9"><a xlink:href="class_igor_1_1i_widget.html#a07294a337cb2c07d5d5088a4ab4550da" target="_top" xlink:title=" ">
<polygon fill="white" stroke="black" points="156,-840 156,-870 280,-870 280,-840 156,-840"/>
<text text-anchor="start" x="164" y="-858" font-family="Helvetica,sans-Serif" font-size="10.00">Igor::iWidget::setVertical</text>
<text text-anchor="middle" x="218" y="-847" font-family="Helvetica,sans-Serif" font-size="10.00">Alignment</text>
</a>
</g>
</g>
<!-- Node25&#45;&gt;Node33 -->
<g id="edge8" class="edge"><title>Node25&#45;&gt;Node33</title>
<path fill="none" stroke="midnightblue" d="M60.7678,-630.176C67.3639,-669.088 90.0904,-773.4 151,-831 152.135,-832.073 153.322,-833.099 154.552,-834.08"/>
<polygon fill="midnightblue" stroke="midnightblue" points="152.972,-837.236 163.222,-839.917 156.882,-831.429 152.972,-837.236"/>
</g>
<!-- Node34 -->
<g id="node10" class="node"><title>Node34</title>
<g id="a_node10"><a xlink:href="class_igor_1_1i_widget_grid.html#a3f9af42fc1b7fdebd5d9f2ad82b68884" target="_top" xlink:title=" ">
<polygon fill="white" stroke="black" points="170.5,-791 170.5,-821 265.5,-821 265.5,-791 170.5,-791"/>
<text text-anchor="start" x="178.5" y="-809" font-family="Helvetica,sans-Serif" font-size="10.00">Igor::iWidgetGrid::</text>
<text text-anchor="middle" x="218" y="-798" font-family="Helvetica,sans-Serif" font-size="10.00">appendCollumns</text>
</a>
</g>
</g>
<!-- Node25&#45;&gt;Node34 -->
<g id="edge9" class="edge"><title>Node25&#45;&gt;Node34</title>
<path fill="none" stroke="midnightblue" d="M62.9085,-630.269C73.0549,-662.787 101.1,-739.38 151,-782 154.181,-784.717 157.695,-787.137 161.396,-789.29"/>
<polygon fill="midnightblue" stroke="midnightblue" points="159.804,-792.407 170.3,-793.846 162.992,-786.175 159.804,-792.407"/>
</g>
<!-- Node35 -->
<g id="node11" class="node"><title>Node35</title>
<g id="a_node11"><a xlink:href="class_igor_1_1i_widget_button.html#a510b3c7d7e0e6b0be6cd1c15da1b550a" target="_top" xlink:title=" ">
<polygon fill="white" stroke="black" points="168,-742 168,-772 268,-772 268,-742 168,-742"/>
<text text-anchor="start" x="176" y="-760" font-family="Helvetica,sans-Serif" font-size="10.00">Igor::iWidgetButton</text>
<text text-anchor="middle" x="218" y="-749" font-family="Helvetica,sans-Serif" font-size="10.00">::setText</text>
</a>
</g>
</g>
<!-- Node25&#45;&gt;Node35 -->
<g id="edge10" class="edge"><title>Node25&#45;&gt;Node35</title>
<path fill="none" stroke="midnightblue" d="M66.7492,-630.078C80.9177,-654.678 112.139,-703.549 151,-732 153.49,-733.823 156.129,-735.529 158.864,-737.124"/>
<polygon fill="midnightblue" stroke="midnightblue" points="157.376,-740.296 167.857,-741.845 160.63,-734.098 157.376,-740.296"/>
</g>
<!-- Node36 -->
<g id="node12" class="node"><title>Node36</title>
<g id="a_node12"><a xlink:href="class_igor_1_1i_widget.html#af44098e3682aafa4b2e74fa0d273679d" target="_top" xlink:title=" ">
<polygon fill="white" stroke="black" points="160,-703.5 160,-722.5 276,-722.5 276,-703.5 160,-703.5"/>
<text text-anchor="middle" x="218" y="-710.5" font-family="Helvetica,sans-Serif" font-size="10.00">Igor::iWidget::setWidth</text>
</a>
</g>
</g>
<!-- Node25&#45;&gt;Node36 -->
<g id="edge11" class="edge"><title>Node25&#45;&gt;Node36</title>
<path fill="none" stroke="midnightblue" d="M72.3981,-630.312C89.3248,-648.078 119.569,-677.091 151,-694 155.177,-696.247 159.65,-698.255 164.226,-700.043"/>
<polygon fill="midnightblue" stroke="midnightblue" points="163.105,-703.36 173.7,-703.412 165.451,-696.764 163.105,-703.36"/>
</g>
<!-- Node37 -->
<g id="node13" class="node"><title>Node37</title>
<g id="a_node13"><a xlink:href="class_igor_1_1i_widget.html#a3218cd1015986a46e48ce181d1310956" target="_top" xlink:title=" ">
<polygon fill="white" stroke="black" points="158.5,-665.5 158.5,-684.5 277.5,-684.5 277.5,-665.5 158.5,-665.5"/>
<text text-anchor="middle" x="218" y="-672.5" font-family="Helvetica,sans-Serif" font-size="10.00">Igor::iWidget::setHeight</text>
</a>
</g>
</g>
<!-- Node25&#45;&gt;Node37 -->
<g id="edge12" class="edge"><title>Node25&#45;&gt;Node37</title>
<path fill="none" stroke="midnightblue" d="M89.7422,-630.129C107.467,-638.386 130.199,-648.436 151,-656 157.324,-658.3 164.068,-660.509 170.738,-662.556"/>
<polygon fill="midnightblue" stroke="midnightblue" points="169.819,-665.934 180.402,-665.43 171.815,-659.224 169.819,-665.934"/>
</g>
<!-- Node38 -->
<g id="node14" class="node"><title>Node38</title>
<g id="a_node14"><a xlink:href="class_igor_1_1i_widget.html#a3e12607670c6f1827838bb42fdb46c3a" target="_top" xlink:title=" ">
<polygon fill="white" stroke="black" points="158.5,-627.5 158.5,-646.5 277.5,-646.5 277.5,-627.5 158.5,-627.5"/>
<text text-anchor="middle" x="218" y="-634.5" font-family="Helvetica,sans-Serif" font-size="10.00">Igor::iWidget::setTooltip</text>
</a>
</g>
</g>
<!-- Node25&#45;&gt;Node38 -->
<g id="edge13" class="edge"><title>Node25&#45;&gt;Node38</title>
<path fill="none" stroke="midnightblue" d="M115.274,-622.88C126.02,-624.372 137.366,-625.947 148.43,-627.482"/>
<polygon fill="midnightblue" stroke="midnightblue" points="148.099,-630.97 158.485,-628.878 149.061,-624.036 148.099,-630.97"/>
</g>
<!-- Node39 -->
<g id="node15" class="node"><title>Node39</title>
<g id="a_node15"><a xlink:href="class_igor_1_1i_widget_button.html#a212435b455ddb8bed63779fd145c6a2e" target="_top" xlink:title=" ">
<polygon fill="white" stroke="black" points="168,-578 168,-608 268,-608 268,-578 168,-578"/>
<text text-anchor="start" x="176" y="-596" font-family="Helvetica,sans-Serif" font-size="10.00">Igor::iWidgetButton</text>
<text text-anchor="middle" x="218" y="-585" font-family="Helvetica,sans-Serif" font-size="10.00">::setTexture</text>
</a>
</g>
</g>
<!-- Node25&#45;&gt;Node39 -->
<g id="edge14" class="edge"><title>Node25&#45;&gt;Node39</title>
<path fill="none" stroke="midnightblue" d="M115.274,-607.12C129.141,-605.195 144.009,-603.131 157.978,-601.192"/>
<polygon fill="midnightblue" stroke="midnightblue" points="158.54,-604.648 167.964,-599.806 157.578,-597.714 158.54,-604.648"/>
</g>
<!-- Node40 -->
<g id="node16" class="node"><title>Node40</title>
<g id="a_node16"><a xlink:href="class_igor_1_1i_widget.html#ad83a7adeddb1e3fdcf75ebbd7c08abfb" target="_top" xlink:title=" ">
<polygon fill="white" stroke="black" points="157,-529 157,-559 279,-559 279,-529 157,-529"/>
<text text-anchor="start" x="165" y="-547" font-family="Helvetica,sans-Serif" font-size="10.00">Igor::iWidget::registerOn</text>
<text text-anchor="middle" x="218" y="-536" font-family="Helvetica,sans-Serif" font-size="10.00">ClickEvent</text>
</a>
</g>
</g>
<!-- Node25&#45;&gt;Node40 -->
<g id="edge15" class="edge"><title>Node25&#45;&gt;Node40</title>
<path fill="none" stroke="midnightblue" d="M86.9024,-599.959C105.027,-590.59 129.14,-578.547 151,-569 155.721,-566.938 160.672,-564.879 165.65,-562.877"/>
<polygon fill="midnightblue" stroke="midnightblue" points="167.181,-566.036 175.202,-559.114 164.615,-559.523 167.181,-566.036"/>
</g>
<!-- Node41 -->
<g id="node17" class="node"><title>Node41</title>
<g id="a_node17"><a xlink:href="class_user_control_graph_view.html#a4a6f1cb2794854024b0d5506766a815c" target="_top" xlink:title=" ">
<polygon fill="white" stroke="black" points="160.5,-480 160.5,-510 275.5,-510 275.5,-480 160.5,-480"/>
<text text-anchor="start" x="168.5" y="-498" font-family="Helvetica,sans-Serif" font-size="10.00">UserControlGraphView</text>
<text text-anchor="middle" x="218" y="-487" font-family="Helvetica,sans-Serif" font-size="10.00">::onAddTransformation</text>
</a>
</g>
</g>
<!-- Node25&#45;&gt;Node41 -->
<g id="edge16" class="edge"><title>Node25&#45;&gt;Node41</title>
<path fill="none" stroke="midnightblue" d="M69.7555,-599.826C85.7519,-579.204 116.927,-542.343 151,-520 153.959,-518.06 157.089,-516.239 160.316,-514.536"/>
<polygon fill="midnightblue" stroke="midnightblue" points="162.122,-517.551 169.599,-510.045 159.073,-511.249 162.122,-517.551"/>
</g>
<!-- Node42 -->
<g id="node18" class="node"><title>Node42</title>
<g id="a_node18"><a xlink:href="class_user_control_graph_view.html#a515df1a65c9790d9235a9b484080c9f6" target="_top" xlink:title=" ">
<polygon fill="white" stroke="black" points="160.5,-431 160.5,-461 275.5,-461 275.5,-431 160.5,-431"/>
<text text-anchor="start" x="168.5" y="-449" font-family="Helvetica,sans-Serif" font-size="10.00">UserControlGraphView</text>
<text text-anchor="middle" x="218" y="-438" font-family="Helvetica,sans-Serif" font-size="10.00">::onAddModel</text>
</a>
</g>
</g>
<!-- Node25&#45;&gt;Node42 -->
<g id="edge17" class="edge"><title>Node25&#45;&gt;Node42</title>
<path fill="none" stroke="midnightblue" d="M64.4533,-599.689C76.4948,-570.615 106.443,-507.102 151,-471 153.231,-469.192 155.607,-467.506 158.083,-465.934"/>
<polygon fill="midnightblue" stroke="midnightblue" points="159.818,-468.974 166.816,-461.019 156.385,-462.873 159.818,-468.974"/>
</g>
<!-- Node43 -->
<g id="node19" class="node"><title>Node43</title>
<g id="a_node19"><a xlink:href="class_user_control_graph_view.html#ab78072d6e442b3cc329a44c39cddf57a" target="_top" xlink:title=" ">
<polygon fill="white" stroke="black" points="160.5,-382 160.5,-412 275.5,-412 275.5,-382 160.5,-382"/>
<text text-anchor="start" x="168.5" y="-400" font-family="Helvetica,sans-Serif" font-size="10.00">UserControlGraphView</text>
<text text-anchor="middle" x="218" y="-389" font-family="Helvetica,sans-Serif" font-size="10.00">::onAddGroup</text>
</a>
</g>
</g>
<!-- Node25&#45;&gt;Node43 -->
<g id="edge18" class="edge"><title>Node25&#45;&gt;Node43</title>
<path fill="none" stroke="midnightblue" d="M61.6708,-599.905C69.9615,-564.036 95.5874,-472.9 151,-422 152.686,-420.451 154.478,-418.995 156.351,-417.627"/>
<polygon fill="midnightblue" stroke="midnightblue" points="158.413,-420.464 165.007,-412.171 154.681,-414.542 158.413,-420.464"/>
</g>
<!-- Node44 -->
<g id="node20" class="node"><title>Node44</title>
<g id="a_node20"><a xlink:href="class_user_control_graph_view.html#abbcb0e6628ebded473829e0977cb0492" target="_top" xlink:title=" ">
<polygon fill="white" stroke="black" points="160.5,-333 160.5,-363 275.5,-363 275.5,-333 160.5,-333"/>
<text text-anchor="start" x="168.5" y="-351" font-family="Helvetica,sans-Serif" font-size="10.00">UserControlGraphView</text>
<text text-anchor="middle" x="218" y="-340" font-family="Helvetica,sans-Serif" font-size="10.00">::onAddEmitter</text>
</a>
</g>
</g>
<!-- Node25&#45;&gt;Node44 -->
<g id="edge19" class="edge"><title>Node25&#45;&gt;Node44</title>
<path fill="none" stroke="midnightblue" d="M60.0127,-599.936C64.9965,-558.098 84.5878,-439.213 151,-373 152.464,-371.54 154.022,-370.164 155.655,-368.867"/>
<polygon fill="midnightblue" stroke="midnightblue" points="158.01,-371.502 164.359,-363.02 154.106,-365.691 158.01,-371.502"/>
</g>
<!-- Node45 -->
<g id="node21" class="node"><title>Node45</title>
<g id="a_node21"><a xlink:href="class_user_control_graph_view.html#a89098b0d4155d2b24b3f122361e0835c" target="_top" xlink:title=" ">
<polygon fill="white" stroke="black" points="159.5,-284 159.5,-314 276.5,-314 276.5,-284 159.5,-284"/>
<text text-anchor="start" x="167.5" y="-302" font-family="Helvetica,sans-Serif" font-size="10.00">UserControlGraphView</text>
<text text-anchor="middle" x="218" y="-291" font-family="Helvetica,sans-Serif" font-size="10.00">::onAddParticleSystem</text>
</a>
</g>
</g>
<!-- Node25&#45;&gt;Node45 -->
<g id="edge20" class="edge"><title>Node25&#45;&gt;Node45</title>
<path fill="none" stroke="midnightblue" d="M58.8948,-599.734C60.9394,-552.303 73.5369,-405.789 151,-324 152.245,-322.685 153.567,-321.439 154.952,-320.257"/>
<polygon fill="midnightblue" stroke="midnightblue" points="157.372,-322.83 163.485,-314.176 153.31,-317.129 157.372,-322.83"/>
</g>
<!-- Node46 -->
<g id="node22" class="node"><title>Node46</title>
<g id="a_node22"><a xlink:href="class_user_control_graph_view.html#aa8829db9968b7283c59b60bd08bb2bb8" target="_top" xlink:title=" ">
<polygon fill="white" stroke="black" points="160.5,-235 160.5,-265 275.5,-265 275.5,-235 160.5,-235"/>
<text text-anchor="start" x="168.5" y="-253" font-family="Helvetica,sans-Serif" font-size="10.00">UserControlGraphView</text>
<text text-anchor="middle" x="218" y="-242" font-family="Helvetica,sans-Serif" font-size="10.00">::onAddSwitch</text>
</a>
</g>
</g>
<!-- Node25&#45;&gt;Node46 -->
<g id="edge21" class="edge"><title>Node25&#45;&gt;Node46</title>
<path fill="none" stroke="midnightblue" d="M58.0638,-599.857C57.3917,-547.622 62.18,-372.829 151,-275 152.217,-273.659 153.514,-272.39 154.877,-271.188"/>
<polygon fill="midnightblue" stroke="midnightblue" points="157.308,-273.746 163.316,-265.02 153.177,-268.095 157.308,-273.746"/>
</g>
<!-- Node47 -->
<g id="node23" class="node"><title>Node47</title>
<g id="a_node23"><a xlink:href="class_igor_1_1i_widget_group_box.html#a1c26446befaab4da76d335cc040761dd" target="_top" xlink:title=" ">
<polygon fill="white" stroke="black" points="160.5,-186 160.5,-216 275.5,-216 275.5,-186 160.5,-186"/>
<text text-anchor="start" x="168.5" y="-204" font-family="Helvetica,sans-Serif" font-size="10.00">Igor::iWidgetGroupBox</text>
<text text-anchor="middle" x="218" y="-193" font-family="Helvetica,sans-Serif" font-size="10.00">::setText</text>
</a>
</g>
</g>
<!-- Node25&#45;&gt;Node47 -->
<g id="edge22" class="edge"><title>Node25&#45;&gt;Node47</title>
<path fill="none" stroke="midnightblue" d="M60.2182,-599.739C67.7812,-535.034 100.015,-284.005 151,-226 152.168,-224.671 153.414,-223.413 154.726,-222.221"/>
<polygon fill="midnightblue" stroke="midnightblue" points="156.979,-224.906 162.869,-216.099 152.773,-219.311 156.979,-224.906"/>
</g>
<!-- Node48 -->
<g id="node24" class="node"><title>Node48</title>
<g id="a_node24"><a xlink:href="class_user_control_graph_view.html#a7bd56ab28ed3970e3a115fdeb2127585" target="_top" xlink:title=" ">
<polygon fill="white" stroke="black" points="160.5,-137 160.5,-167 275.5,-167 275.5,-137 160.5,-137"/>
<text text-anchor="start" x="168.5" y="-155" font-family="Helvetica,sans-Serif" font-size="10.00">UserControlGraphView</text>
<text text-anchor="middle" x="218" y="-144" font-family="Helvetica,sans-Serif" font-size="10.00">::OnSelectionChange</text>
</a>
</g>
</g>
<!-- Node25&#45;&gt;Node48 -->
<g id="edge23" class="edge"><title>Node25&#45;&gt;Node48</title>
<path fill="none" stroke="midnightblue" d="M59.7787,-599.746C65.8947,-530.146 94.239,-243.249 151,-177 152.151,-175.657 153.382,-174.385 154.681,-173.182"/>
<polygon fill="midnightblue" stroke="midnightblue" points="156.941,-175.86 162.766,-167.01 152.693,-170.296 156.941,-175.86"/>
</g>
<!-- Node49 -->
<g id="node25" class="node"><title>Node49</title>
<g id="a_node25"><a xlink:href="class_user_control_graph_view.html#a08a7cc49fd21d13b7be92a52c16ec941" target="_top" xlink:title=" ">
<polygon fill="white" stroke="black" points="160.5,-88 160.5,-118 275.5,-118 275.5,-88 160.5,-88"/>
<text text-anchor="start" x="168.5" y="-106" font-family="Helvetica,sans-Serif" font-size="10.00">UserControlGraphView</text>
<text text-anchor="middle" x="218" y="-95" font-family="Helvetica,sans-Serif" font-size="10.00">::OnContextMenu</text>
</a>
</g>
</g>
<!-- Node25&#45;&gt;Node49 -->
<g id="edge24" class="edge"><title>Node25&#45;&gt;Node49</title>
<path fill="none" stroke="midnightblue" d="M59.4127,-599.524C64.1154,-524.725 87.8791,-201.232 151,-127 151.731,-126.141 152.495,-125.312 153.288,-124.514"/>
<polygon fill="midnightblue" stroke="midnightblue" points="155.618,-127.13 161.153,-118.096 151.193,-121.706 155.618,-127.13"/>
</g>
<!-- Node52 -->
<g id="node28" class="node"><title>Node52</title>
<g id="a_node28"><a xlink:href="class_igor_1_1i_widget_grid.html#a764137d148d8977d459c6ea0635eadeb" target="_top" xlink:title=" ">
<polygon fill="white" stroke="black" points="170.5,-39 170.5,-69 265.5,-69 265.5,-39 170.5,-39"/>
<text text-anchor="start" x="178.5" y="-57" font-family="Helvetica,sans-Serif" font-size="10.00">Igor::iWidgetGrid::</text>
<text text-anchor="middle" x="218" y="-46" font-family="Helvetica,sans-Serif" font-size="10.00">addWidget</text>
</a>
</g>
</g>
<!-- Node25&#45;&gt;Node52 -->
<g id="edge28" class="edge"><title>Node25&#45;&gt;Node52</title>
<path fill="none" stroke="midnightblue" d="M59.1064,-599.845C62.5391,-521.263 81.9047,-160.651 151,-78 153.984,-74.4308 157.544,-71.3924 161.443,-68.8058"/>
<polygon fill="midnightblue" stroke="midnightblue" points="163.372,-71.7386 170.428,-63.8345 159.983,-65.6138 163.372,-71.7386"/>
</g>
<!-- Node53 -->
<g id="node29" class="node"><title>Node53</title>
<g id="a_node29"><a xlink:href="class_igor_1_1i_widget.html#a5a2b456163b1592606d8ce5e075166e3" target="_top" xlink:title=" ">
<polygon fill="white" stroke="black" points="156,-0.5 156,-19.5 280,-19.5 280,-0.5 156,-0.5"/>
<text text-anchor="middle" x="218" y="-7.5" font-family="Helvetica,sans-Serif" font-size="10.00">Igor::iWidget::addWidget</text>
</a>
</g>
</g>
<!-- Node25&#45;&gt;Node53 -->
<g id="edge29" class="edge"><title>Node25&#45;&gt;Node53</title>
<path fill="none" stroke="midnightblue" d="M58.7644,-599.769C60.5141,-516.553 72.9264,-117.386 151,-29 152.167,-27.6791 153.419,-26.4473 154.743,-25.2989"/>
<polygon fill="midnightblue" stroke="midnightblue" points="156.769,-28.1529 163.01,-19.5913 152.792,-22.3923 156.769,-28.1529"/>
</g>
<!-- Node49&#45;&gt;Node26 -->
<g id="edge25" class="edge"><title>Node49&#45;&gt;Node26</title>
<path fill="none" stroke="midnightblue" d="M274.793,-118.142C278.579,-120.655 282.053,-123.584 285,-127 356.947,-210.395 390.539,-567.786 398.56,-666.598"/>
<polygon fill="midnightblue" stroke="midnightblue" points="395.093,-667.148 399.375,-676.84 402.071,-666.594 395.093,-667.148"/>
</g>
<!-- Node50 -->
<g id="node26" class="node"><title>Node50</title>
<g id="a_node26"><a xlink:href="class_igor_1_1i_mouse.html#abe510afcb8d071342d8cd77094926eeb" target="_top" xlink:title=" ">
<polygon fill="white" stroke="black" points="348,-115.5 348,-134.5 455,-134.5 455,-115.5 348,-115.5"/>
<text text-anchor="middle" x="401.5" y="-122.5" font-family="Helvetica,sans-Serif" font-size="10.00">Igor::iMouse::getPos</text>
</a>
</g>
</g>
<!-- Node49&#45;&gt;Node50 -->
<g id="edge26" class="edge"><title>Node49&#45;&gt;Node50</title>
<path fill="none" stroke="midnightblue" d="M275.93,-109.901C295.584,-112.283 317.709,-114.965 337.8,-117.4"/>
<polygon fill="midnightblue" stroke="midnightblue" points="337.438,-120.882 347.787,-118.61 338.28,-113.933 337.438,-120.882"/>
</g>
<!-- Node51 -->
<g id="node27" class="node"><title>Node51</title>
<g id="a_node27"><a xlink:href="class_user_control_graph_view.html#ad04c185ed7efa7548004d3ad46d47ba7" target="_top" xlink:title=" ">
<polygon fill="white" stroke="black" points="342.5,-66 342.5,-96 460.5,-96 460.5,-66 342.5,-66"/>
<text text-anchor="start" x="350.5" y="-84" font-family="Helvetica,sans-Serif" font-size="10.00">UserControlGraphView</text>
<text text-anchor="middle" x="401.5" y="-73" font-family="Helvetica,sans-Serif" font-size="10.00">::OnContextMenuClose</text>
</a>
</g>
</g>
<!-- Node49&#45;&gt;Node51 -->
<g id="edge27" class="edge"><title>Node49&#45;&gt;Node51</title>
<path fill="none" stroke="midnightblue" d="M275.93,-96.0994C293.736,-93.9411 313.57,-91.537 332.082,-89.2931"/>
<polygon fill="midnightblue" stroke="midnightblue" points="332.703,-92.7435 342.209,-88.0656 331.861,-85.7944 332.703,-92.7435"/>
</g>
<!-- Node54 -->
<g id="node30" class="node"><title>Node54</title>
<g id="a_node30"><a xlink:href="class_igor_1_1i_widget.html#aa0816e0911fd5d21a7aed3b9f27bc118" target="_top" xlink:title=" ">
<polygon fill="white" stroke="black" points="351.5,-0.5 351.5,-19.5 451.5,-19.5 451.5,-0.5 351.5,-0.5"/>
<text text-anchor="middle" x="401.5" y="-7.5" font-family="Helvetica,sans-Serif" font-size="10.00">Igor::iWidget::getID</text>
</a>
</g>
</g>
<!-- Node53&#45;&gt;Node54 -->
<g id="edge30" class="edge"><title>Node53&#45;&gt;Node54</title>
<path fill="none" stroke="midnightblue" d="M280.195,-10C299.913,-10 321.721,-10 341.293,-10"/>
<polygon fill="midnightblue" stroke="midnightblue" points="341.302,-13.5001 351.302,-10 341.302,-6.5001 341.302,-13.5001"/>
</g>
</g>
</svg>
