<?xml version="1.0" encoding="UTF-8" standalone="no"?>
<!DOCTYPE svg PUBLIC "-//W3C//DTD SVG 1.1//EN"
 "http://www.w3.org/Graphics/SVG/1.1/DTD/svg11.dtd">
<!-- Generated by graphviz version 2.38.0 (20140413.2041)
 -->
<!-- Title: OMPF::ompfEmitterChunk::read Pages: 1 -->
<svg width="441pt" height="137pt"
 viewBox="0.00 0.00 441.00 137.00" xmlns="http://www.w3.org/2000/svg" xmlns:xlink="http://www.w3.org/1999/xlink">
<g id="graph0" class="graph" transform="scale(1 1) rotate(0) translate(4 133)">
<title>OMPF::ompfEmitterChunk::read</title>
<polygon fill="white" stroke="none" points="-4,4 -4,-133 437,-133 437,4 -4,4"/>
<!-- Node1 -->
<g id="node1" class="node"><title>Node1</title>
<polygon fill="#bfbfbf" stroke="black" points="0,-24.5 0,-54.5 131,-54.5 131,-24.5 0,-24.5"/>
<text text-anchor="start" x="8" y="-42.5" font-family="Helvetica,sans-Serif" font-size="10.00">OMPF::ompfEmitterChunk</text>
<text text-anchor="middle" x="65.5" y="-31.5" font-family="Helvetica,sans-Serif" font-size="10.00">::read</text>
</g>
<!-- Node2 -->
<g id="node2" class="node"><title>Node2</title>
<g id="a_node2"><a xlink:href="class_o_m_p_f_1_1ompf_base_chunk.html#aa3b931de6ce181c023f66628c67244da" target="_top" xlink:title="OMPF::ompfBaseChunk\l::read">
<polygon fill="white" stroke="black" points="167,-49.5 167,-79.5 289,-79.5 289,-49.5 167,-49.5"/>
<text text-anchor="start" x="175" y="-67.5" font-family="Helvetica,sans-Serif" font-size="10.00">OMPF::ompfBaseChunk</text>
<text text-anchor="middle" x="228" y="-56.5" font-family="Helvetica,sans-Serif" font-size="10.00">::read</text>
</a>
</g>
</g>
<!-- Node1&#45;&gt;Node2 -->
<g id="edge1" class="edge"><title>Node1&#45;&gt;Node2</title>
<path fill="none" stroke="midnightblue" d="M131.319,-49.5964C139.761,-50.9113 148.439,-52.2631 156.962,-53.5906"/>
<polygon fill="midnightblue" stroke="midnightblue" points="156.451,-57.0533 166.871,-55.1341 157.529,-50.1367 156.451,-57.0533"/>
</g>
<!-- Node6 -->
<g id="node6" class="node"><title>Node6</title>
<g id="a_node6"><a xlink:href="class_o_m_p_f_1_1ompf_base_chunk.html#af2301d255ce51d9168b808deccaaf8a2" target="_top" xlink:title="OMPF::ompfBaseChunk\l::getName">
<polygon fill="white" stroke="black" points="167,-0.5 167,-30.5 289,-30.5 289,-0.5 167,-0.5"/>
<text text-anchor="start" x="175" y="-18.5" font-family="Helvetica,sans-Serif" font-size="10.00">OMPF::ompfBaseChunk</text>
<text text-anchor="middle" x="228" y="-7.5" font-family="Helvetica,sans-Serif" font-size="10.00">::getName</text>
</a>
</g>
</g>
<!-- Node1&#45;&gt;Node6 -->
<g id="edge5" class="edge"><title>Node1&#45;&gt;Node6</title>
<path fill="none" stroke="midnightblue" d="M131.319,-29.8075C139.761,-28.5451 148.439,-27.2474 156.962,-25.973"/>
<polygon fill="midnightblue" stroke="midnightblue" points="157.499,-29.4317 166.871,-24.4913 156.463,-22.5087 157.499,-29.4317"/>
</g>
<!-- Node3 -->
<g id="node3" class="node"><title>Node3</title>
<g id="a_node3"><a xlink:href="class_o_m_p_f_1_1ompf_settings.html#ac4b44803b6a70b9eb6f3ca573a0a5242" target="_top" xlink:title="OMPF::ompfSettings\l::getTypeIDSize">
<polygon fill="white" stroke="black" points="325,-98.5 325,-128.5 433,-128.5 433,-98.5 325,-98.5"/>
<text text-anchor="start" x="333" y="-116.5" font-family="Helvetica,sans-Serif" font-size="10.00">OMPF::ompfSettings</text>
<text text-anchor="middle" x="379" y="-105.5" font-family="Helvetica,sans-Serif" font-size="10.00">::getTypeIDSize</text>
</a>
</g>
</g>
<!-- Node2&#45;&gt;Node3 -->
<g id="edge2" class="edge"><title>Node2&#45;&gt;Node3</title>
<path fill="none" stroke="midnightblue" d="M274.921,-79.6014C290.003,-84.5615 306.928,-90.1274 322.636,-95.2929"/>
<polygon fill="midnightblue" stroke="midnightblue" points="321.638,-98.6492 332.231,-98.4484 323.825,-91.9995 321.638,-98.6492"/>
</g>
<!-- Node4 -->
<g id="node4" class="node"><title>Node4</title>
<g id="a_node4"><a xlink:href="class_o_m_p_f_1_1ompf_settings.html#ac8b4c4cf739d5c5fd8d09b15d176c90d" target="_top" xlink:title="OMPF::ompfSettings\l::getChunkSizeSize">
<polygon fill="white" stroke="black" points="325,-49.5 325,-79.5 433,-79.5 433,-49.5 325,-49.5"/>
<text text-anchor="start" x="333" y="-67.5" font-family="Helvetica,sans-Serif" font-size="10.00">OMPF::ompfSettings</text>
<text text-anchor="middle" x="379" y="-56.5" font-family="Helvetica,sans-Serif" font-size="10.00">::getChunkSizeSize</text>
</a>
</g>
</g>
<!-- Node2&#45;&gt;Node4 -->
<g id="edge3" class="edge"><title>Node2&#45;&gt;Node4</title>
<path fill="none" stroke="midnightblue" d="M289.175,-64.5C297.558,-64.5 306.193,-64.5 314.633,-64.5"/>
<polygon fill="midnightblue" stroke="midnightblue" points="314.801,-68.0001 324.801,-64.5 314.801,-61.0001 314.801,-68.0001"/>
</g>
<!-- Node5 -->
<g id="node5" class="node"><title>Node5</title>
<g id="a_node5"><a xlink:href="class_o_m_p_f_1_1ompf_settings.html#a3b1a3f75376c3ebee9a59a31d7280aa3" target="_top" xlink:title="OMPF::ompfSettings\l::getChunkIDSize">
<polygon fill="white" stroke="black" points="325,-0.5 325,-30.5 433,-30.5 433,-0.5 325,-0.5"/>
<text text-anchor="start" x="333" y="-18.5" font-family="Helvetica,sans-Serif" font-size="10.00">OMPF::ompfSettings</text>
<text text-anchor="middle" x="379" y="-7.5" font-family="Helvetica,sans-Serif" font-size="10.00">::getChunkIDSize</text>
</a>
</g>
</g>
<!-- Node2&#45;&gt;Node5 -->
<g id="edge4" class="edge"><title>Node2&#45;&gt;Node5</title>
<path fill="none" stroke="midnightblue" d="M274.921,-49.3986C290.003,-44.4385 306.928,-38.8726 322.636,-33.7071"/>
<polygon fill="midnightblue" stroke="midnightblue" points="323.825,-37.0005 332.231,-30.5516 321.638,-30.3508 323.825,-37.0005"/>
</g>
</g>
</svg>
