<?xml version="1.0" encoding="UTF-8" standalone="no"?>
<!DOCTYPE svg PUBLIC "-//W3C//DTD SVG 1.1//EN"
 "http://www.w3.org/Graphics/SVG/1.1/DTD/svg11.dtd">
<!-- Generated by graphviz version 2.38.0 (20140413.2041)
 -->
<!-- Title: Igor::iNodeParticleSystem::getTextureC Pages: 1 -->
<svg width="318pt" height="137pt"
 viewBox="0.00 0.00 318.00 137.00" xmlns="http://www.w3.org/2000/svg" xmlns:xlink="http://www.w3.org/1999/xlink">
<g id="graph0" class="graph" transform="scale(1 1) rotate(0) translate(4 133)">
<title>Igor::iNodeParticleSystem::getTextureC</title>
<polygon fill="white" stroke="none" points="-4,4 -4,-133 314,-133 314,4 -4,4"/>
<!-- Node1 -->
<g id="node1" class="node"><title>Node1</title>
<polygon fill="#bfbfbf" stroke="black" points="0,-49.5 0,-79.5 130,-79.5 130,-49.5 0,-49.5"/>
<text text-anchor="start" x="8" y="-67.5" font-family="Helvetica,sans-Serif" font-size="10.00">Igor::iNodeParticleSystem</text>
<text text-anchor="middle" x="65" y="-56.5" font-family="Helvetica,sans-Serif" font-size="10.00">::getTextureC</text>
</g>
<!-- Node2 -->
<g id="node2" class="node"><title>Node2</title>
<g id="a_node2"><a xlink:href="class_igor_1_1i_model_data_i_o_o_m_p_f.html#ae7624b5254a10e0d9d1580dd5239e9de" target="_top" xlink:title="Igor::iModelDataIOOMPF\l::createParticleSystemChunk">
<polygon fill="white" stroke="black" points="166,-98.5 166,-128.5 310,-128.5 310,-98.5 166,-98.5"/>
<text text-anchor="start" x="174" y="-116.5" font-family="Helvetica,sans-Serif" font-size="10.00">Igor::iModelDataIOOMPF</text>
<text text-anchor="middle" x="238" y="-105.5" font-family="Helvetica,sans-Serif" font-size="10.00">::createParticleSystemChunk</text>
</a>
</g>
</g>
<!-- Node1&#45;&gt;Node2 -->
<g id="edge1" class="edge"><title>Node1&#45;&gt;Node2</title>
<path fill="none" stroke="midnightblue" d="M128.447,-82.3941C146.839,-87.6644 166.77,-93.3755 184.473,-98.4484"/>
<polygon fill="midnightblue" stroke="midnightblue" points="129.278,-78.9916 118.701,-79.6014 127.35,-85.7207 129.278,-78.9916"/>
</g>
<!-- Node3 -->
<g id="node3" class="node"><title>Node3</title>
<g id="a_node3"><a xlink:href="class_igor_1_1i_node_particle_system.html#aa47e497b438194f01c1ececbcac58812" target="_top" xlink:title="Igor::iNodeParticleSystem\l::iNodeParticleSystem">
<polygon fill="white" stroke="black" points="173,-49.5 173,-79.5 303,-79.5 303,-49.5 173,-49.5"/>
<text text-anchor="start" x="181" y="-67.5" font-family="Helvetica,sans-Serif" font-size="10.00">Igor::iNodeParticleSystem</text>
<text text-anchor="middle" x="238" y="-56.5" font-family="Helvetica,sans-Serif" font-size="10.00">::iNodeParticleSystem</text>
</a>
</g>
</g>
<!-- Node1&#45;&gt;Node3 -->
<g id="edge2" class="edge"><title>Node1&#45;&gt;Node3</title>
<path fill="none" stroke="midnightblue" d="M140.402,-64.5C151.184,-64.5 162.205,-64.5 172.764,-64.5"/>
<polygon fill="midnightblue" stroke="midnightblue" points="140.161,-61.0001 130.161,-64.5 140.161,-68.0001 140.161,-61.0001"/>
</g>
<!-- Node4 -->
<g id="node4" class="node"><title>Node4</title>
<g id="a_node4"><a xlink:href="class_user_control_particle_system.html#a60f0ef94fe517d5fcf6e1f9c9ba63d84" target="_top" xlink:title="UserControlParticleSystem\l::updateGUI">
<polygon fill="white" stroke="black" points="171,-0.5 171,-30.5 305,-30.5 305,-0.5 171,-0.5"/>
<text text-anchor="start" x="179" y="-18.5" font-family="Helvetica,sans-Serif" font-size="10.00">UserControlParticleSystem</text>
<text text-anchor="middle" x="238" y="-7.5" font-family="Helvetica,sans-Serif" font-size="10.00">::updateGUI</text>
</a>
</g>
</g>
<!-- Node1&#45;&gt;Node4 -->
<g id="edge3" class="edge"><title>Node1&#45;&gt;Node4</title>
<path fill="none" stroke="midnightblue" d="M128.447,-46.6059C146.839,-41.3356 166.77,-35.6245 184.473,-30.5516"/>
<polygon fill="midnightblue" stroke="midnightblue" points="127.35,-43.2793 118.701,-49.3986 129.278,-50.0084 127.35,-43.2793"/>
</g>
</g>
</svg>
