<?xml version="1.0" encoding="UTF-8" standalone="no"?>
<!DOCTYPE svg PUBLIC "-//W3C//DTD SVG 1.1//EN"
 "http://www.w3.org/Graphics/SVG/1.1/DTD/svg11.dtd">
<!-- Generated by graphviz version 2.38.0 (20140413.2041)
 -->
<!-- Title: Igor::iParticleEmitter::getSize Pages: 1 -->
<svg width="244pt" height="39pt"
 viewBox="0.00 0.00 244.00 39.00" xmlns="http://www.w3.org/2000/svg" xmlns:xlink="http://www.w3.org/1999/xlink">
<g id="graph0" class="graph" transform="scale(1 1) rotate(0) translate(4 35)">
<title>Igor::iParticleEmitter::getSize</title>
<polygon fill="white" stroke="none" points="-4,4 -4,-35 240,-35 240,4 -4,4"/>
<!-- Node1 -->
<g id="node1" class="node"><title>Node1</title>
<polygon fill="#bfbfbf" stroke="black" points="0,-0.5 0,-30.5 105,-30.5 105,-0.5 0,-0.5"/>
<text text-anchor="start" x="8" y="-18.5" font-family="Helvetica,sans-Serif" font-size="10.00">Igor::iParticleEmitter</text>
<text text-anchor="middle" x="52.5" y="-7.5" font-family="Helvetica,sans-Serif" font-size="10.00">::getSize</text>
</g>
<!-- Node2 -->
<g id="node2" class="node"><title>Node2</title>
<g id="a_node2"><a xlink:href="class_igor_1_1i_node_emitter.html#a4c4d6f76f70448cc052410bca6d6d71a" target="_top" xlink:title="Igor::iNodeEmitter\l::iNodeEmitter">
<polygon fill="white" stroke="black" points="141,-0.5 141,-30.5 236,-30.5 236,-0.5 141,-0.5"/>
<text text-anchor="start" x="149" y="-18.5" font-family="Helvetica,sans-Serif" font-size="10.00">Igor::iNodeEmitter</text>
<text text-anchor="middle" x="188.5" y="-7.5" font-family="Helvetica,sans-Serif" font-size="10.00">::iNodeEmitter</text>
</a>
</g>
</g>
<!-- Node1&#45;&gt;Node2 -->
<g id="edge1" class="edge"><title>Node1&#45;&gt;Node2</title>
<path fill="none" stroke="midnightblue" d="M115.524,-15.5C123.973,-15.5 132.527,-15.5 140.647,-15.5"/>
<polygon fill="midnightblue" stroke="midnightblue" points="115.308,-12.0001 105.308,-15.5 115.308,-19.0001 115.308,-12.0001"/>
</g>
</g>
</svg>
