<?xml version="1.0" encoding="UTF-8" standalone="no"?>
<!DOCTYPE svg PUBLIC "-//W3C//DTD SVG 1.1//EN"
 "http://www.w3.org/Graphics/SVG/1.1/DTD/svg11.dtd">
<!-- Generated by graphviz version 2.38.0 (20140413.2041)
 -->
<!-- Title: Igor::iUserControlColorChooser Pages: 1 -->
<svg width="1020pt" height="668pt"
 viewBox="0.00 0.00 1020.00 667.83" xmlns="http://www.w3.org/2000/svg" xmlns:xlink="http://www.w3.org/1999/xlink">
<g id="graph0" class="graph" transform="scale(1 1) rotate(0) translate(4 663.831)">
<title>Igor::iUserControlColorChooser</title>
<polygon fill="white" stroke="none" points="-4,4 -4,-663.831 1016,-663.831 1016,4 -4,4"/>
<!-- Node3 -->
<g id="node1" class="node"><title>Node3</title>
<g id="a_node1"><a xlink:title=" ">
<polygon fill="#bfbfbf" stroke="black" points="862,-300.331 862,-319.331 1012,-319.331 1012,-300.331 862,-300.331"/>
<text text-anchor="middle" x="937" y="-307.331" font-family="Helvetica,sans-Serif" font-size="10.00">Igor::iUserControlColorChooser</text>
</a>
</g>
</g>
<!-- Node4 -->
<g id="node2" class="node"><title>Node4</title>
<g id="a_node2"><a xlink:href="class_igor_1_1i_user_control.html" target="_top" xlink:title=" ">
<polygon fill="white" stroke="black" points="595.5,-138.331 595.5,-157.331 687.5,-157.331 687.5,-138.331 595.5,-138.331"/>
<text text-anchor="middle" x="641.5" y="-145.331" font-family="Helvetica,sans-Serif" font-size="10.00">Igor::iUserControl</text>
</a>
</g>
</g>
<!-- Node4&#45;&gt;Node3 -->
<g id="edge1" class="edge"><title>Node4&#45;&gt;Node3</title>
<path fill="none" stroke="midnightblue" d="M697.879,-143.512C740.803,-142.795 800.157,-147.775 844,-174.831 893.963,-205.663 923.278,-274.9 932.67,-300.275"/>
<polygon fill="midnightblue" stroke="midnightblue" points="697.514,-140.021 687.615,-143.796 697.708,-147.018 697.514,-140.021"/>
</g>
<!-- Node5 -->
<g id="node3" class="node"><title>Node5</title>
<g id="a_node3"><a xlink:href="class_igor_1_1i_widget.html" target="_top" xlink:title=" ">
<polygon fill="white" stroke="black" points="338,-193.331 338,-212.331 409,-212.331 409,-193.331 338,-193.331"/>
<text text-anchor="middle" x="373.5" y="-200.331" font-family="Helvetica,sans-Serif" font-size="10.00">Igor::iWidget</text>
</a>
</g>
</g>
<!-- Node5&#45;&gt;Node4 -->
<g id="edge2" class="edge"><title>Node5&#45;&gt;Node4</title>
<path fill="none" stroke="midnightblue" d="M418.983,-193.633C467.936,-183.511 546.192,-167.331 595.393,-157.158"/>
<polygon fill="midnightblue" stroke="midnightblue" points="418.086,-190.245 409.002,-195.697 419.504,-197.1 418.086,-190.245"/>
</g>
<!-- Node5&#45;&gt;Node5 -->
<g id="edge4" class="edge"><title>Node5&#45;&gt;Node5</title>
<path fill="none" stroke="#9a32cd" stroke-dasharray="5,2" d="M353.501,-222.231C354.837,-227.145 361.503,-230.831 373.5,-230.831 392.695,-230.831 398.244,-221.396 390.146,-212.588"/>
<polygon fill="#9a32cd" stroke="#9a32cd" points="356.876,-223.183 356.854,-212.588 350.264,-220.884 356.876,-223.183"/>
<text text-anchor="middle" x="373.5" y="-244.831" font-family="Helvetica,sans-Serif" font-size="10.00"> _keyboardFocus</text>
<text text-anchor="middle" x="373.5" y="-233.831" font-family="Helvetica,sans-Serif" font-size="10.00">_parent</text>
</g>
<!-- Node10 -->
<g id="node8" class="node"><title>Node10</title>
<g id="a_node8"><a xlink:href="class_igor_1_1i_widget_color.html" target="_top" xlink:title=" ">
<polygon fill="white" stroke="black" points="594.5,-415.331 594.5,-434.331 688.5,-434.331 688.5,-415.331 594.5,-415.331"/>
<text text-anchor="middle" x="641.5" y="-422.331" font-family="Helvetica,sans-Serif" font-size="10.00">Igor::iWidgetColor</text>
</a>
</g>
</g>
<!-- Node5&#45;&gt;Node10 -->
<g id="edge10" class="edge"><title>Node5&#45;&gt;Node10</title>
<path fill="none" stroke="midnightblue" d="M391.463,-219.529C403.962,-232.124 421.126,-250.043 435,-266.831 443.722,-277.385 443.285,-282.184 453,-291.831 508.366,-346.807 588.518,-395.381 623.31,-415.269"/>
<polygon fill="midnightblue" stroke="midnightblue" points="393.905,-217.021 384.355,-212.433 388.959,-221.975 393.905,-217.021"/>
</g>
<!-- Node12 -->
<g id="node10" class="node"><title>Node12</title>
<g id="a_node10"><a xlink:href="class_igor_1_1i_widget_button.html" target="_top" xlink:title=" ">
<polygon fill="white" stroke="black" points="591.5,-279.331 591.5,-298.331 691.5,-298.331 691.5,-279.331 591.5,-279.331"/>
<text text-anchor="middle" x="641.5" y="-286.331" font-family="Helvetica,sans-Serif" font-size="10.00">Igor::iWidgetButton</text>
</a>
</g>
</g>
<!-- Node5&#45;&gt;Node12 -->
<g id="edge13" class="edge"><title>Node5&#45;&gt;Node12</title>
<path fill="none" stroke="midnightblue" d="M413.5,-215.44C467.182,-232.796 562.664,-263.666 610.885,-279.256"/>
<polygon fill="midnightblue" stroke="midnightblue" points="414.575,-212.109 403.983,-212.363 412.421,-218.77 414.575,-212.109"/>
</g>
<!-- Node13 -->
<g id="node11" class="node"><title>Node13</title>
<g id="a_node11"><a xlink:href="class_igor_1_1i_widget_number_chooser.html" target="_top" xlink:title=" ">
<polygon fill="white" stroke="black" points="571,-89.3308 571,-108.331 712,-108.331 712,-89.3308 571,-89.3308"/>
<text text-anchor="middle" x="641.5" y="-96.3308" font-family="Helvetica,sans-Serif" font-size="10.00">Igor::iWidgetNumberChooser</text>
</a>
</g>
</g>
<!-- Node5&#45;&gt;Node13 -->
<g id="edge16" class="edge"><title>Node5&#45;&gt;Node13</title>
<path fill="none" stroke="midnightblue" d="M402.309,-188.783C417.124,-181.631 435.795,-173.14 453,-166.831 496.332,-150.94 510.313,-156.38 553,-138.831 561.464,-135.351 562.789,-132.872 571,-128.831 585.975,-121.462 603.197,-114.021 616.751,-108.393"/>
<polygon fill="midnightblue" stroke="midnightblue" points="400.626,-185.71 393.185,-193.252 403.705,-191.996 400.626,-185.71"/>
</g>
<!-- Node16 -->
<g id="node14" class="node"><title>Node16</title>
<g id="a_node14"><a xlink:href="class_igor_1_1i_widget_label.html" target="_top" xlink:title=" ">
<polygon fill="white" stroke="black" points="594,-453.331 594,-472.331 689,-472.331 689,-453.331 594,-453.331"/>
<text text-anchor="middle" x="641.5" y="-460.331" font-family="Helvetica,sans-Serif" font-size="10.00">Igor::iWidgetLabel</text>
</a>
</g>
</g>
<!-- Node5&#45;&gt;Node16 -->
<g id="edge22" class="edge"><title>Node5&#45;&gt;Node16</title>
<path fill="none" stroke="midnightblue" d="M394.756,-219.168C408.133,-231.028 424.984,-248.208 435,-266.831 451.648,-297.783 434.669,-313.845 453,-343.831 488.856,-402.483 510.182,-411.786 571,-443.831 578.304,-447.679 586.461,-450.806 594.546,-453.328"/>
<polygon fill="midnightblue" stroke="midnightblue" points="396.841,-216.346 386.967,-212.504 392.291,-221.665 396.841,-216.346"/>
</g>
<!-- Node17 -->
<g id="node15" class="node"><title>Node17</title>
<g id="a_node15"><a xlink:href="class_igor_1_1i_widget_grid.html" target="_top" xlink:title=" ">
<polygon fill="white" stroke="black" points="597,-217.331 597,-236.331 686,-236.331 686,-217.331 597,-217.331"/>
<text text-anchor="middle" x="641.5" y="-224.331" font-family="Helvetica,sans-Serif" font-size="10.00">Igor::iWidgetGrid</text>
</a>
</g>
</g>
<!-- Node5&#45;&gt;Node17 -->
<g id="edge25" class="edge"><title>Node5&#45;&gt;Node17</title>
<path fill="none" stroke="midnightblue" d="M419.075,-206.853C468.499,-211.312 547.708,-218.459 596.784,-222.887"/>
<polygon fill="midnightblue" stroke="midnightblue" points="419.276,-203.357 409.002,-205.944 418.647,-210.328 419.276,-203.357"/>
</g>
<!-- Node18 -->
<g id="node16" class="node"><title>Node18</title>
<g id="a_node16"><a xlink:href="class_igor_1_1i_widget_spacer.html" target="_top" xlink:title=" ">
<polygon fill="white" stroke="black" points="590.5,-177.331 590.5,-196.331 692.5,-196.331 692.5,-177.331 590.5,-177.331"/>
<text text-anchor="middle" x="641.5" y="-184.331" font-family="Helvetica,sans-Serif" font-size="10.00">Igor::iWidgetSpacer</text>
</a>
</g>
</g>
<!-- Node5&#45;&gt;Node18 -->
<g id="edge27" class="edge"><title>Node5&#45;&gt;Node18</title>
<path fill="none" stroke="midnightblue" d="M419.238,-200.14C466.503,-197.297 540.876,-192.823 590.16,-189.859"/>
<polygon fill="midnightblue" stroke="midnightblue" points="418.774,-196.661 409.002,-200.756 419.194,-203.649 418.774,-196.661"/>
</g>
<!-- Node19 -->
<g id="node17" class="node"><title>Node19</title>
<g id="a_node17"><a xlink:href="class_igor_1_1i_widget_slider.html" target="_top" xlink:title=" ">
<polygon fill="white" stroke="black" points="593.5,-317.331 593.5,-336.331 689.5,-336.331 689.5,-317.331 593.5,-317.331"/>
<text text-anchor="middle" x="641.5" y="-324.331" font-family="Helvetica,sans-Serif" font-size="10.00">Igor::iWidgetSlider</text>
</a>
</g>
</g>
<!-- Node5&#45;&gt;Node19 -->
<g id="edge29" class="edge"><title>Node5&#45;&gt;Node19</title>
<path fill="none" stroke="midnightblue" d="M395.073,-218.629C410.507,-230.067 432.43,-245.453 453,-256.831 502.994,-284.485 517.088,-288.917 571,-307.831 580.797,-311.268 591.547,-314.473 601.602,-317.236"/>
<polygon fill="midnightblue" stroke="midnightblue" points="396.892,-215.618 386.794,-212.41 392.688,-221.215 396.892,-215.618"/>
</g>
<!-- Node6 -->
<g id="node4" class="node"><title>Node6</title>
<g id="a_node4"><a xlink:href="class_igor_aux_1_1ia_string.html" target="_top" xlink:title=" ">
<polygon fill="white" stroke="black" points="112.5,-308.331 112.5,-327.331 201.5,-327.331 201.5,-308.331 112.5,-308.331"/>
<text text-anchor="middle" x="157" y="-315.331" font-family="Helvetica,sans-Serif" font-size="10.00">IgorAux::iaString</text>
</a>
</g>
</g>
<!-- Node6&#45;&gt;Node3 -->
<g id="edge8" class="edge"><title>Node6&#45;&gt;Node3</title>
<path fill="none" stroke="#9a32cd" stroke-dasharray="5,2" d="M163.901,-337.361C179.514,-385.548 226.67,-510.694 312,-572.831 457.373,-678.692 532.726,-648.002 712,-633.831 771.22,-629.15 799.218,-651.862 844,-612.831 936.626,-532.1 937.642,-361.383 936.407,-319.338"/>
<polygon fill="#9a32cd" stroke="#9a32cd" points="167.16,-336.058 160.823,-327.567 160.482,-338.157 167.16,-336.058"/>
<text text-anchor="middle" x="503" y="-651.831" font-family="Helvetica,sans-Serif" font-size="10.00"> _text</text>
</g>
<!-- Node6&#45;&gt;Node5 -->
<g id="edge3" class="edge"><title>Node6&#45;&gt;Node5</title>
<path fill="none" stroke="#9a32cd" stroke-dasharray="5,2" d="M178.167,-302.058C193.3,-290.632 214.801,-275.251 235,-263.831 272.624,-242.559 319.068,-223.297 347.204,-212.336"/>
<polygon fill="#9a32cd" stroke="#9a32cd" points="175.865,-299.412 170.05,-308.268 180.119,-304.971 175.865,-299.412"/>
<text text-anchor="middle" x="264.5" y="-266.831" font-family="Helvetica,sans-Serif" font-size="10.00"> _tooltip</text>
</g>
<!-- Node6&#45;&gt;Node12 -->
<g id="edge14" class="edge"><title>Node6&#45;&gt;Node12</title>
<path fill="none" stroke="#9a32cd" stroke-dasharray="5,2" d="M211.701,-307.58C241.188,-302.428 278.476,-296.684 312,-293.831 410.888,-285.414 527.109,-286.129 591.417,-287.45"/>
<polygon fill="#9a32cd" stroke="#9a32cd" points="210.848,-304.177 201.615,-309.373 212.073,-311.069 210.848,-304.177"/>
<text text-anchor="middle" x="373.5" y="-307.831" font-family="Helvetica,sans-Serif" font-size="10.00"> _texturePath</text>
<text text-anchor="middle" x="373.5" y="-296.831" font-family="Helvetica,sans-Serif" font-size="10.00">_text</text>
</g>
<!-- Node6&#45;&gt;Node13 -->
<g id="edge17" class="edge"><title>Node6&#45;&gt;Node13</title>
<path fill="none" stroke="#9a32cd" stroke-dasharray="5,2" d="M163.11,-298.454C172.183,-268.068 194.115,-209.61 235,-179.831 249.217,-169.476 479.361,-127.496 586.46,-108.387"/>
<polygon fill="#9a32cd" stroke="#9a32cd" points="159.686,-297.699 160.338,-308.274 166.423,-299.601 159.686,-297.699"/>
<text text-anchor="middle" x="373.5" y="-161.831" font-family="Helvetica,sans-Serif" font-size="10.00"> _postFix</text>
</g>
<!-- Node6&#45;&gt;Node16 -->
<g id="edge23" class="edge"><title>Node6&#45;&gt;Node16</title>
<path fill="none" stroke="#9a32cd" stroke-dasharray="5,2" d="M182.978,-332.499C232.521,-360.767 347.567,-422.333 453,-448.831 500.012,-460.646 555.575,-463.465 593.949,-463.748"/>
<polygon fill="#9a32cd" stroke="#9a32cd" points="184.648,-329.422 174.235,-327.467 181.156,-335.489 184.648,-329.422"/>
<text text-anchor="middle" x="373.5" y="-445.831" font-family="Helvetica,sans-Serif" font-size="10.00"> _text</text>
</g>
<!-- Node6&#45;&gt;Node19 -->
<g id="edge30" class="edge"><title>Node6&#45;&gt;Node19</title>
<path fill="none" stroke="#9a32cd" stroke-dasharray="5,2" d="M211.937,-318.837C307.115,-320.612 503.309,-324.272 593.396,-325.952"/>
<polygon fill="#9a32cd" stroke="#9a32cd" points="211.733,-315.333 201.67,-318.645 211.603,-322.331 211.733,-315.333"/>
<text text-anchor="middle" x="373.5" y="-336.831" font-family="Helvetica,sans-Serif" font-size="10.00"> _texturePath</text>
<text text-anchor="middle" x="373.5" y="-325.831" font-family="Helvetica,sans-Serif" font-size="10.00">_backgroundTexturePath</text>
</g>
<!-- Node7 -->
<g id="node5" class="node"><title>Node7</title>
<g id="a_node5"><a xlink:href="class_igor_1_1i_timer_handle.html" target="_top" xlink:title=" ">
<polygon fill="white" stroke="black" points="109.5,-104.331 109.5,-123.331 204.5,-123.331 204.5,-104.331 109.5,-104.331"/>
<text text-anchor="middle" x="157" y="-111.331" font-family="Helvetica,sans-Serif" font-size="10.00">Igor::iTimerHandle</text>
</a>
</g>
</g>
<!-- Node7&#45;&gt;Node5 -->
<g id="edge5" class="edge"><title>Node7&#45;&gt;Node5</title>
<path fill="none" stroke="#9a32cd" stroke-dasharray="5,2" d="M191.715,-127.2C219.293,-138.199 259.267,-154.289 294,-168.831 313.316,-176.918 335.168,-186.411 350.903,-193.308"/>
<polygon fill="#9a32cd" stroke="#9a32cd" points="192.734,-123.838 182.148,-123.39 190.144,-130.342 192.734,-123.838"/>
<text text-anchor="middle" x="264.5" y="-171.831" font-family="Helvetica,sans-Serif" font-size="10.00"> _timerTooltip</text>
</g>
<!-- Node8 -->
<g id="node6" class="node"><title>Node8</title>
<g id="a_node6"><a xlink:href="class_igor_aux_1_1ia_vector2.html" target="_top" xlink:title=" ">
<polygon fill="white" stroke="black" points="97,-163.331 97,-182.331 217,-182.331 217,-163.331 97,-163.331"/>
<text text-anchor="middle" x="157" y="-170.331" font-family="Helvetica,sans-Serif" font-size="10.00">IgorAux::iaVector2&lt; T &gt;</text>
</a>
</g>
</g>
<!-- Node8&#45;&gt;Node5 -->
<g id="edge6" class="edge"><title>Node8&#45;&gt;Node5</title>
<path fill="none" stroke="#9a32cd" stroke-dasharray="5,2" d="M227.405,-182.538C264.361,-187.707 308.195,-193.837 337.939,-197.997"/>
<polygon fill="#9a32cd" stroke="#9a32cd" points="227.569,-179.027 217.181,-181.108 226.6,-185.959 227.569,-179.027"/>
<text text-anchor="middle" x="264.5" y="-204.831" font-family="Helvetica,sans-Serif" font-size="10.00"> _tooltipPos</text>
<text text-anchor="middle" x="264.5" y="-193.831" font-family="Helvetica,sans-Serif" font-size="10.00">_posLast</text>
</g>
<!-- Node9 -->
<g id="node7" class="node"><title>Node9</title>
<g id="a_node7"><a xlink:title=" ">
<polygon fill="white" stroke="#bfbfbf" points="0,-118.331 0,-137.331 29,-137.331 29,-118.331 0,-118.331"/>
<text text-anchor="middle" x="14.5" y="-125.331" font-family="Helvetica,sans-Serif" font-size="10.00">T</text>
</a>
</g>
</g>
<!-- Node9&#45;&gt;Node8 -->
<g id="edge7" class="edge"><title>Node9&#45;&gt;Node8</title>
<path fill="none" stroke="#9a32cd" stroke-dasharray="5,2" d="M38.8592,-136.086C41.5989,-137.025 44.3583,-137.958 47,-138.831 72.974,-147.414 102.619,-156.624 124.429,-163.29"/>
<polygon fill="#9a32cd" stroke="#9a32cd" points="39.8606,-132.729 29.2658,-132.75 37.5617,-139.341 39.8606,-132.729"/>
<text text-anchor="middle" x="63" y="-161.831" font-family="Helvetica,sans-Serif" font-size="10.00"> _x</text>
<text text-anchor="middle" x="63" y="-150.831" font-family="Helvetica,sans-Serif" font-size="10.00">_y</text>
</g>
<!-- Node15 -->
<g id="node13" class="node"><title>Node15</title>
<g id="a_node13"><a xlink:href="class_igor_1_1i_rectangle.html" target="_top" xlink:title=" ">
<polygon fill="white" stroke="black" points="103.5,-66.3308 103.5,-85.3308 210.5,-85.3308 210.5,-66.3308 103.5,-66.3308"/>
<text text-anchor="middle" x="157" y="-73.3308" font-family="Helvetica,sans-Serif" font-size="10.00">Igor::iRectangle&lt; T &gt;</text>
</a>
</g>
</g>
<!-- Node9&#45;&gt;Node15 -->
<g id="edge20" class="edge"><title>Node9&#45;&gt;Node15</title>
<path fill="none" stroke="#9a32cd" stroke-dasharray="5,2" d="M26.6539,-109.744C31.9404,-102.705 38.8843,-95.2764 47,-90.8308 64.0044,-81.5161 84.6596,-77.2297 103.398,-75.4486"/>
<polygon fill="#9a32cd" stroke="#9a32cd" points="23.6297,-107.967 20.8808,-118.199 29.4105,-111.914 23.6297,-107.967"/>
<text text-anchor="middle" x="63" y="-126.831" font-family="Helvetica,sans-Serif" font-size="10.00"> _width</text>
<text text-anchor="middle" x="63" y="-115.831" font-family="Helvetica,sans-Serif" font-size="10.00">_x</text>
<text text-anchor="middle" x="63" y="-104.831" font-family="Helvetica,sans-Serif" font-size="10.00">_y</text>
<text text-anchor="middle" x="63" y="-93.8308" font-family="Helvetica,sans-Serif" font-size="10.00">_height</text>
</g>
<!-- Node10&#45;&gt;Node3 -->
<g id="edge9" class="edge"><title>Node10&#45;&gt;Node3</title>
<path fill="none" stroke="#9a32cd" stroke-dasharray="5,2" d="M698.944,-428.131C740.937,-428.335 798.591,-423.739 844,-401.831 883.874,-382.593 916.62,-338.884 929.779,-319.453"/>
<polygon fill="#9a32cd" stroke="#9a32cd" points="698.94,-424.631 688.892,-427.99 698.842,-431.63 698.94,-424.631"/>
<text text-anchor="middle" x="787" y="-440.831" font-family="Helvetica,sans-Serif" font-size="10.00"> _colorViewCollapsed</text>
<text text-anchor="middle" x="787" y="-429.831" font-family="Helvetica,sans-Serif" font-size="10.00">_colorViewExpanded</text>
</g>
<!-- Node11 -->
<g id="node9" class="node"><title>Node11</title>
<g id="a_node9"><a xlink:href="class_igor_aux_1_1ia_color4.html" target="_top" xlink:title=" ">
<polygon fill="white" stroke="black" points="316.5,-544.331 316.5,-563.331 430.5,-563.331 430.5,-544.331 316.5,-544.331"/>
<text text-anchor="middle" x="373.5" y="-551.331" font-family="Helvetica,sans-Serif" font-size="10.00">IgorAux::iaColor4&lt; T &gt;</text>
</a>
</g>
</g>
<!-- Node11&#45;&gt;Node3 -->
<g id="edge31" class="edge"><title>Node11&#45;&gt;Node3</title>
<path fill="none" stroke="#9a32cd" stroke-dasharray="5,2" d="M425.21,-565.583C532.561,-589.214 778.315,-636.335 844,-588.831 935.954,-522.328 937.563,-360.668 936.41,-319.497"/>
<polygon fill="#9a32cd" stroke="#9a32cd" points="425.785,-562.125 415.264,-563.373 424.267,-568.959 425.785,-562.125"/>
<text text-anchor="middle" x="641.5" y="-621.831" font-family="Helvetica,sans-Serif" font-size="10.00"> _colorHSV</text>
<text text-anchor="middle" x="641.5" y="-610.831" font-family="Helvetica,sans-Serif" font-size="10.00">_colorRGBA</text>
</g>
<!-- Node11&#45;&gt;Node10 -->
<g id="edge11" class="edge"><title>Node11&#45;&gt;Node10</title>
<path fill="none" stroke="#9a32cd" stroke-dasharray="5,2" d="M397.36,-538.588C433.082,-515.343 504.906,-470.891 571,-443.831 579.914,-440.181 589.753,-437.008 599.154,-434.356"/>
<polygon fill="#9a32cd" stroke="#9a32cd" points="395.12,-535.871 388.678,-544.283 398.96,-541.724 395.12,-535.871"/>
<text text-anchor="middle" x="503" y="-503.831" font-family="Helvetica,sans-Serif" font-size="10.00"> _color</text>
</g>
<!-- Node12&#45;&gt;Node3 -->
<g id="edge12" class="edge"><title>Node12&#45;&gt;Node3</title>
<path fill="none" stroke="#9a32cd" stroke-dasharray="5,2" d="M701.976,-291.237C742.128,-293.069 796.298,-295.939 844,-299.831 849.765,-300.301 855.727,-300.837 861.718,-301.41"/>
<polygon fill="#9a32cd" stroke="#9a32cd" points="701.969,-287.734 691.822,-290.783 701.656,-294.727 701.969,-287.734"/>
<text text-anchor="middle" x="787" y="-302.831" font-family="Helvetica,sans-Serif" font-size="10.00"> _expandButton</text>
</g>
<!-- Node13&#45;&gt;Node3 -->
<g id="edge15" class="edge"><title>Node13&#45;&gt;Node3</title>
<path fill="none" stroke="#9a32cd" stroke-dasharray="5,2" d="M655.154,-81.1859C670.363,-61.6582 697.886,-31.2988 730,-18.8308 777.232,-0.493578 803.129,11.113 844,-18.8308 892.298,-54.216 927.021,-253.917 934.496,-300.236"/>
<polygon fill="#9a32cd" stroke="#9a32cd" points="652.272,-79.1961 649.061,-89.2927 657.867,-83.402 652.272,-79.1961"/>
<text text-anchor="middle" x="787" y="-131.831" font-family="Helvetica,sans-Serif" font-size="10.00"> _valueChooserA</text>
<text text-anchor="middle" x="787" y="-120.831" font-family="Helvetica,sans-Serif" font-size="10.00">_valueChooserAExpanded</text>
<text text-anchor="middle" x="787" y="-109.831" font-family="Helvetica,sans-Serif" font-size="10.00">_valueChooserB</text>
<text text-anchor="middle" x="787" y="-98.8308" font-family="Helvetica,sans-Serif" font-size="10.00">_valueChooserR</text>
<text text-anchor="middle" x="787" y="-87.8308" font-family="Helvetica,sans-Serif" font-size="10.00">_valueChooserS</text>
<text text-anchor="middle" x="787" y="-76.8308" font-family="Helvetica,sans-Serif" font-size="10.00">_valueChooserBExpanded</text>
<text text-anchor="middle" x="787" y="-65.8308" font-family="Helvetica,sans-Serif" font-size="10.00">_valueChooserRExpanded</text>
<text text-anchor="middle" x="787" y="-54.8308" font-family="Helvetica,sans-Serif" font-size="10.00">_valueChooserG</text>
<text text-anchor="middle" x="787" y="-43.8308" font-family="Helvetica,sans-Serif" font-size="10.00">_valueChooserV</text>
<text text-anchor="middle" x="787" y="-32.8308" font-family="Helvetica,sans-Serif" font-size="10.00">_valueChooserH</text>
<text text-anchor="middle" x="787" y="-21.8308" font-family="Helvetica,sans-Serif" font-size="10.00">...</text>
</g>
<!-- Node14 -->
<g id="node12" class="node"><title>Node14</title>
<g id="a_node12"><a xlink:href="class_igor_1_1i_rectangle.html" target="_top" xlink:title=" ">
<polygon fill="white" stroke="black" points="312,-71.3308 312,-90.3308 435,-90.3308 435,-71.3308 312,-71.3308"/>
<text text-anchor="middle" x="373.5" y="-78.3308" font-family="Helvetica,sans-Serif" font-size="10.00">Igor::iRectangle&lt; int32 &gt;</text>
</a>
</g>
</g>
<!-- Node14&#45;&gt;Node13 -->
<g id="edge18" class="edge"><title>Node14&#45;&gt;Node13</title>
<path fill="none" stroke="#9a32cd" stroke-dasharray="5,2" d="M445.619,-84.9145C478.334,-86.8698 517.648,-89.3277 553,-91.8308 558.777,-92.2398 564.766,-92.6817 570.778,-93.1375"/>
<polygon fill="#9a32cd" stroke="#9a32cd" points="445.433,-81.3973 435.242,-84.2979 445.017,-88.385 445.433,-81.3973"/>
<text text-anchor="middle" x="503" y="-105.831" font-family="Helvetica,sans-Serif" font-size="10.00"> _buttonUpRectangle</text>
<text text-anchor="middle" x="503" y="-94.8308" font-family="Helvetica,sans-Serif" font-size="10.00">_buttonDownRectangle</text>
</g>
<!-- Node15&#45;&gt;Node14 -->
<g id="edge19" class="edge"><title>Node15&#45;&gt;Node14</title>
<path fill="none" stroke="orange" stroke-dasharray="5,2" d="M220.642,-77.1679C243.704,-77.6719 270.04,-78.2613 294,-78.8308 299.724,-78.9669 305.683,-79.1121 311.646,-79.2599"/>
<polygon fill="orange" stroke="orange" points="220.71,-73.6686 210.637,-76.95 220.558,-80.667 220.71,-73.6686"/>
<text text-anchor="middle" x="264.5" y="-81.8308" font-family="Helvetica,sans-Serif" font-size="10.00"> &lt; int32 &gt;</text>
</g>
<!-- Node16&#45;&gt;Node3 -->
<g id="edge21" class="edge"><title>Node16&#45;&gt;Node3</title>
<path fill="none" stroke="#9a32cd" stroke-dasharray="5,2" d="M699.669,-464.721C750.5,-465.406 820.33,-463.602 844,-449.831 896.289,-419.41 924.343,-346.001 933.025,-319.542"/>
<polygon fill="#9a32cd" stroke="#9a32cd" points="699.513,-461.218 689.455,-464.547 699.394,-468.217 699.513,-461.218"/>
<text text-anchor="middle" x="787" y="-576.831" font-family="Helvetica,sans-Serif" font-size="10.00"> _labelH</text>
<text text-anchor="middle" x="787" y="-565.831" font-family="Helvetica,sans-Serif" font-size="10.00">_labelGExpanded</text>
<text text-anchor="middle" x="787" y="-554.831" font-family="Helvetica,sans-Serif" font-size="10.00">_labelA</text>
<text text-anchor="middle" x="787" y="-543.831" font-family="Helvetica,sans-Serif" font-size="10.00">_labelR</text>
<text text-anchor="middle" x="787" y="-532.831" font-family="Helvetica,sans-Serif" font-size="10.00">_labelB</text>
<text text-anchor="middle" x="787" y="-521.831" font-family="Helvetica,sans-Serif" font-size="10.00">_labelS</text>
<text text-anchor="middle" x="787" y="-510.831" font-family="Helvetica,sans-Serif" font-size="10.00">_labelAExpanded</text>
<text text-anchor="middle" x="787" y="-499.831" font-family="Helvetica,sans-Serif" font-size="10.00">_labelRExpanded</text>
<text text-anchor="middle" x="787" y="-488.831" font-family="Helvetica,sans-Serif" font-size="10.00">_labelBExpanded</text>
<text text-anchor="middle" x="787" y="-477.831" font-family="Helvetica,sans-Serif" font-size="10.00">_labelV</text>
<text text-anchor="middle" x="787" y="-466.831" font-family="Helvetica,sans-Serif" font-size="10.00">...</text>
</g>
<!-- Node17&#45;&gt;Node3 -->
<g id="edge24" class="edge"><title>Node17&#45;&gt;Node3</title>
<path fill="none" stroke="#9a32cd" stroke-dasharray="5,2" d="M696.11,-219.105C737.816,-215.27 796.401,-214.734 844,-232.831 881.185,-246.969 914.095,-282.873 928.41,-300.194"/>
<polygon fill="#9a32cd" stroke="#9a32cd" points="695.751,-215.623 686.154,-220.112 696.455,-222.588 695.751,-215.623"/>
<text text-anchor="middle" x="787" y="-279.831" font-family="Helvetica,sans-Serif" font-size="10.00"> _expandedSliderGrid</text>
<text text-anchor="middle" x="787" y="-268.831" font-family="Helvetica,sans-Serif" font-size="10.00">_collapsedGrid</text>
<text text-anchor="middle" x="787" y="-257.831" font-family="Helvetica,sans-Serif" font-size="10.00">_headlineGrid</text>
<text text-anchor="middle" x="787" y="-246.831" font-family="Helvetica,sans-Serif" font-size="10.00">_expandedGrid</text>
<text text-anchor="middle" x="787" y="-235.831" font-family="Helvetica,sans-Serif" font-size="10.00">_grid</text>
</g>
<!-- Node18&#45;&gt;Node3 -->
<g id="edge26" class="edge"><title>Node18&#45;&gt;Node3</title>
<path fill="none" stroke="#9a32cd" stroke-dasharray="5,2" d="M702.601,-179.56C744.454,-177.215 800.366,-179.679 844,-201.831 888.145,-224.242 919.684,-278.039 931.198,-300.121"/>
<polygon fill="#9a32cd" stroke="#9a32cd" points="702.295,-176.072 692.55,-180.23 702.76,-183.057 702.295,-176.072"/>
<text text-anchor="middle" x="787" y="-204.831" font-family="Helvetica,sans-Serif" font-size="10.00"> _collapsedSpacer</text>
</g>
<!-- Node19&#45;&gt;Node3 -->
<g id="edge28" class="edge"><title>Node19&#45;&gt;Node3</title>
<path fill="none" stroke="#9a32cd" stroke-dasharray="5,2" d="M699.807,-323.511C746.064,-320.832 811.486,-317.043 861.752,-314.131"/>
<polygon fill="#9a32cd" stroke="#9a32cd" points="699.437,-320.027 689.656,-324.099 699.842,-327.015 699.437,-320.027"/>
<text text-anchor="middle" x="787" y="-389.831" font-family="Helvetica,sans-Serif" font-size="10.00"> _sliderA</text>
<text text-anchor="middle" x="787" y="-378.831" font-family="Helvetica,sans-Serif" font-size="10.00">_sliderR</text>
<text text-anchor="middle" x="787" y="-367.831" font-family="Helvetica,sans-Serif" font-size="10.00">_sliderB</text>
<text text-anchor="middle" x="787" y="-356.831" font-family="Helvetica,sans-Serif" font-size="10.00">_sliderS</text>
<text text-anchor="middle" x="787" y="-345.831" font-family="Helvetica,sans-Serif" font-size="10.00">_sliderV</text>
<text text-anchor="middle" x="787" y="-334.831" font-family="Helvetica,sans-Serif" font-size="10.00">_sliderG</text>
<text text-anchor="middle" x="787" y="-323.831" font-family="Helvetica,sans-Serif" font-size="10.00">_sliderH</text>
</g>
</g>
</svg>
