<?xml version="1.0" encoding="UTF-8" standalone="no"?>
<!DOCTYPE svg PUBLIC "-//W3C//DTD SVG 1.1//EN"
 "http://www.w3.org/Graphics/SVG/1.1/DTD/svg11.dtd">
<!-- Generated by graphviz version 2.38.0 (20140413.2041)
 -->
<!-- Title: Igor::iNode::getKind Pages: 1 -->
<svg width="312pt" height="448pt"
 viewBox="0.00 0.00 312.00 447.50" xmlns="http://www.w3.org/2000/svg" xmlns:xlink="http://www.w3.org/1999/xlink">
<g id="graph0" class="graph" transform="scale(1 1) rotate(0) translate(4 443.5)">
<title>Igor::iNode::getKind</title>
<polygon fill="white" stroke="none" points="-4,4 -4,-443.5 308,-443.5 308,4 -4,4"/>
<!-- Node1 -->
<g id="node1" class="node"><title>Node1</title>
<polygon fill="#bfbfbf" stroke="black" points="0,-193.5 0,-212.5 102,-212.5 102,-193.5 0,-193.5"/>
<text text-anchor="middle" x="51" y="-200.5" font-family="Helvetica,sans-Serif" font-size="10.00">Igor::iNode::getKind</text>
</g>
<!-- Node2 -->
<g id="node2" class="node"><title>Node2</title>
<g id="a_node2"><a xlink:href="class_igor_1_1i_node_visitor_boundings.html#a4628da61fa0214189f1360b3dd5db685" target="_top" xlink:title="Igor::iNodeVisitorBoundings\l::preOrderVisit">
<polygon fill="white" stroke="black" points="152.5,-409 152.5,-439 289.5,-439 289.5,-409 152.5,-409"/>
<text text-anchor="start" x="160.5" y="-427" font-family="Helvetica,sans-Serif" font-size="10.00">Igor::iNodeVisitorBoundings</text>
<text text-anchor="middle" x="221" y="-416" font-family="Helvetica,sans-Serif" font-size="10.00">::preOrderVisit</text>
</a>
</g>
</g>
<!-- Node1&#45;&gt;Node2 -->
<g id="edge1" class="edge"><title>Node1&#45;&gt;Node2</title>
<path fill="none" stroke="midnightblue" d="M54.9981,-222.917C62.032,-262.604 83.331,-351.862 138,-400 142.342,-403.823 147.264,-407.038 152.488,-409.742"/>
<polygon fill="midnightblue" stroke="midnightblue" points="58.4276,-222.202 53.345,-212.906 51.5211,-223.343 58.4276,-222.202"/>
</g>
<!-- Node3 -->
<g id="node3" class="node"><title>Node3</title>
<g id="a_node3"><a xlink:href="class_igor_1_1i_node_visitor_render_boundings.html#ab261bb0c51926523986831a16bf1e8d6" target="_top" xlink:title="Igor::iNodeVisitorRender\lBoundings::preOrderVisit">
<polygon fill="white" stroke="black" points="158.5,-360 158.5,-390 283.5,-390 283.5,-360 158.5,-360"/>
<text text-anchor="start" x="166.5" y="-378" font-family="Helvetica,sans-Serif" font-size="10.00">Igor::iNodeVisitorRender</text>
<text text-anchor="middle" x="221" y="-367" font-family="Helvetica,sans-Serif" font-size="10.00">Boundings::preOrderVisit</text>
</a>
</g>
</g>
<!-- Node1&#45;&gt;Node3 -->
<g id="edge2" class="edge"><title>Node1&#45;&gt;Node3</title>
<path fill="none" stroke="midnightblue" d="M58.0031,-222.467C68.7888,-254.187 94.4742,-316.9 138,-351 144.072,-355.757 151.06,-359.572 158.342,-362.631"/>
<polygon fill="midnightblue" stroke="midnightblue" points="61.2272,-221.064 54.8047,-212.638 54.5707,-223.23 61.2272,-221.064"/>
</g>
<!-- Node4 -->
<g id="node4" class="node"><title>Node4</title>
<g id="a_node4"><a xlink:href="class_igor_1_1i_node_visitor_render_boundings.html#ab746148be84741a08deda6148bf1a4d5" target="_top" xlink:title="Igor::iNodeVisitorRender\lBoundings::postOrderVisit">
<polygon fill="white" stroke="black" points="155.5,-311 155.5,-341 286.5,-341 286.5,-311 155.5,-311"/>
<text text-anchor="start" x="163.5" y="-329" font-family="Helvetica,sans-Serif" font-size="10.00">Igor::iNodeVisitorRender</text>
<text text-anchor="middle" x="221" y="-318" font-family="Helvetica,sans-Serif" font-size="10.00">Boundings::postOrderVisit</text>
</a>
</g>
</g>
<!-- Node1&#45;&gt;Node4 -->
<g id="edge3" class="edge"><title>Node1&#45;&gt;Node4</title>
<path fill="none" stroke="midnightblue" d="M63.1805,-221.35C77.7048,-243.657 105.131,-280.925 138,-302 143.369,-305.443 149.249,-308.406 155.315,-310.954"/>
<polygon fill="midnightblue" stroke="midnightblue" points="66.0727,-219.375 57.7674,-212.796 60.1577,-223.118 66.0727,-219.375"/>
</g>
<!-- Node5 -->
<g id="node5" class="node"><title>Node5</title>
<g id="a_node5"><a xlink:href="class_igor_1_1i_node_visitor_render_color_i_d.html#a4df2a8b810750c412c8d93ad2241f2da" target="_top" xlink:title="Igor::iNodeVisitorRender\lColorID::preOrderVisit">
<polygon fill="white" stroke="black" points="160,-262 160,-292 282,-292 282,-262 160,-262"/>
<text text-anchor="start" x="168" y="-280" font-family="Helvetica,sans-Serif" font-size="10.00">Igor::iNodeVisitorRender</text>
<text text-anchor="middle" x="221" y="-269" font-family="Helvetica,sans-Serif" font-size="10.00">ColorID::preOrderVisit</text>
</a>
</g>
</g>
<!-- Node1&#45;&gt;Node5 -->
<g id="edge4" class="edge"><title>Node1&#45;&gt;Node5</title>
<path fill="none" stroke="midnightblue" d="M74.6573,-218.214C91.5551,-229.047 115.506,-243.339 138,-253 145.632,-256.278 153.85,-259.271 162.03,-261.945"/>
<polygon fill="midnightblue" stroke="midnightblue" points="76.338,-215.132 66.0492,-212.604 72.5156,-220.996 76.338,-215.132"/>
</g>
<!-- Node6 -->
<g id="node6" class="node"><title>Node6</title>
<g id="a_node6"><a xlink:href="class_igor_1_1i_node_visitor_render_color_i_d.html#a21a08c0ea7c6be3e2e1006ab133c08ac" target="_top" xlink:title="Igor::iNodeVisitorRender\lColorID::postOrderVisit">
<polygon fill="white" stroke="black" points="160,-213 160,-243 282,-243 282,-213 160,-213"/>
<text text-anchor="start" x="168" y="-231" font-family="Helvetica,sans-Serif" font-size="10.00">Igor::iNodeVisitorRender</text>
<text text-anchor="middle" x="221" y="-220" font-family="Helvetica,sans-Serif" font-size="10.00">ColorID::postOrderVisit</text>
</a>
</g>
</g>
<!-- Node1&#45;&gt;Node6 -->
<g id="edge5" class="edge"><title>Node1&#45;&gt;Node6</title>
<path fill="none" stroke="midnightblue" d="M112.365,-211.983C127.811,-214.281 144.419,-216.753 159.854,-219.05"/>
<polygon fill="midnightblue" stroke="midnightblue" points="112.812,-208.511 102.406,-210.501 111.781,-215.435 112.812,-208.511"/>
</g>
<!-- Node7 -->
<g id="node7" class="node"><title>Node7</title>
<g id="a_node7"><a xlink:href="class_igor_1_1i_node_visitor_update_transform.html#a68949eb0c13e13d98b38c91b8055fcad" target="_top" xlink:title="Igor::iNodeVisitorUpdate\lTransform::preOrderVisit">
<polygon fill="white" stroke="black" points="160,-164 160,-194 282,-194 282,-164 160,-164"/>
<text text-anchor="start" x="168" y="-182" font-family="Helvetica,sans-Serif" font-size="10.00">Igor::iNodeVisitorUpdate</text>
<text text-anchor="middle" x="221" y="-171" font-family="Helvetica,sans-Serif" font-size="10.00">Transform::preOrderVisit</text>
</a>
</g>
</g>
<!-- Node1&#45;&gt;Node7 -->
<g id="edge6" class="edge"><title>Node1&#45;&gt;Node7</title>
<path fill="none" stroke="midnightblue" d="M112.365,-194.376C127.811,-192.17 144.419,-189.797 159.854,-187.592"/>
<polygon fill="midnightblue" stroke="midnightblue" points="111.81,-190.92 102.406,-195.799 112.8,-197.85 111.81,-190.92"/>
</g>
<!-- Node8 -->
<g id="node8" class="node"><title>Node8</title>
<g id="a_node8"><a xlink:href="class_igor_1_1i_node_visitor_update_transform.html#a76c8f22b5b7af627548d851cc3ef2ac6" target="_top" xlink:title="Igor::iNodeVisitorUpdate\lTransform::postOrderVisit">
<polygon fill="white" stroke="black" points="157,-115 157,-145 285,-145 285,-115 157,-115"/>
<text text-anchor="start" x="165" y="-133" font-family="Helvetica,sans-Serif" font-size="10.00">Igor::iNodeVisitorUpdate</text>
<text text-anchor="middle" x="221" y="-122" font-family="Helvetica,sans-Serif" font-size="10.00">Transform::postOrderVisit</text>
</a>
</g>
</g>
<!-- Node1&#45;&gt;Node8 -->
<g id="edge7" class="edge"><title>Node1&#45;&gt;Node8</title>
<path fill="none" stroke="midnightblue" d="M75.3814,-188.155C92.2983,-177.865 115.965,-164.381 138,-155 146.49,-151.385 155.677,-148.055 164.726,-145.084"/>
<polygon fill="midnightblue" stroke="midnightblue" points="73.4007,-185.264 66.7308,-193.496 77.0783,-191.22 73.4007,-185.264"/>
</g>
<!-- Node9 -->
<g id="node9" class="node"><title>Node9</title>
<g id="a_node9"><a xlink:href="class_manipulator.html#a625692bdcdb2e123dbcba3d845ebbbcc" target="_top" xlink:title="Manipulator::highlightSelected">
<polygon fill="white" stroke="black" points="147.5,-76.5 147.5,-95.5 294.5,-95.5 294.5,-76.5 147.5,-76.5"/>
<text text-anchor="middle" x="221" y="-83.5" font-family="Helvetica,sans-Serif" font-size="10.00">Manipulator::highlightSelected</text>
</a>
</g>
</g>
<!-- Node1&#45;&gt;Node9 -->
<g id="edge8" class="edge"><title>Node1&#45;&gt;Node9</title>
<path fill="none" stroke="midnightblue" d="M63.1184,-184.783C77.5794,-162.685 104.941,-125.922 138,-106 145.279,-101.613 153.469,-98.1878 161.784,-95.513"/>
<polygon fill="midnightblue" stroke="midnightblue" points="60.1386,-182.947 57.7317,-193.265 66.0476,-186.7 60.1386,-182.947"/>
</g>
<!-- Node10 -->
<g id="node10" class="node"><title>Node10</title>
<g id="a_node10"><a xlink:href="class_model_viewer.html#a5d60270216c2e46d070454536aefe54c" target="_top" xlink:title="ModelViewer::setManipulatorMode">
<polygon fill="white" stroke="black" points="138,-38.5 138,-57.5 304,-57.5 304,-38.5 138,-38.5"/>
<text text-anchor="middle" x="221" y="-45.5" font-family="Helvetica,sans-Serif" font-size="10.00">ModelViewer::setManipulatorMode</text>
</a>
</g>
</g>
<!-- Node1&#45;&gt;Node10 -->
<g id="edge9" class="edge"><title>Node1&#45;&gt;Node10</title>
<path fill="none" stroke="midnightblue" d="M58.7338,-183.579C70.1458,-153.664 96.206,-96.6676 138,-67 143.481,-63.109 149.641,-60.0028 156.057,-57.5251"/>
<polygon fill="midnightblue" stroke="midnightblue" points="55.3358,-182.681 55.1901,-193.275 61.9104,-185.084 55.3358,-182.681"/>
</g>
<!-- Node11 -->
<g id="node11" class="node"><title>Node11</title>
<g id="a_node11"><a xlink:href="class_model_viewer.html#a4f285cd99256bc37dd4b1e60919de91b" target="_top" xlink:title="ModelViewer::renderNodeSelected">
<polygon fill="white" stroke="black" points="138,-0.5 138,-19.5 304,-19.5 304,-0.5 138,-0.5"/>
<text text-anchor="middle" x="221" y="-7.5" font-family="Helvetica,sans-Serif" font-size="10.00">ModelViewer::renderNodeSelected</text>
</a>
</g>
</g>
<!-- Node1&#45;&gt;Node11 -->
<g id="edge10" class="edge"><title>Node1&#45;&gt;Node11</title>
<path fill="none" stroke="midnightblue" d="M55.9108,-183.414C64.2338,-147.057 87.2445,-69.1884 138,-29 142.812,-25.19 148.252,-22.1187 153.985,-19.6463"/>
<polygon fill="midnightblue" stroke="midnightblue" points="52.4706,-182.764 53.7848,-193.277 59.3135,-184.239 52.4706,-182.764"/>
</g>
</g>
</svg>
