<?xml version="1.0" encoding="UTF-8" standalone="no"?>
<!DOCTYPE svg PUBLIC "-//W3C//DTD SVG 1.1//EN"
 "http://www.w3.org/Graphics/SVG/1.1/DTD/svg11.dtd">
<!-- Generated by graphviz version 2.38.0 (20140413.2041)
 -->
<!-- Title: Igor::iModel Pages: 1 -->
<svg width="831pt" height="352pt"
 viewBox="0.00 0.00 831.00 352.00" xmlns="http://www.w3.org/2000/svg" xmlns:xlink="http://www.w3.org/1999/xlink">
<g id="graph0" class="graph" transform="scale(1 1) rotate(0) translate(4 348)">
<title>Igor::iModel</title>
<polygon fill="white" stroke="none" points="-4,4 -4,-348 827,-348 827,4 -4,4"/>
<!-- Node1 -->
<g id="node1" class="node"><title>Node1</title>
<g id="a_node1"><a xlink:title=" ">
<polygon fill="#bfbfbf" stroke="black" points="755.5,-257.5 755.5,-276.5 822.5,-276.5 822.5,-257.5 755.5,-257.5"/>
<text text-anchor="middle" x="789" y="-264.5" font-family="Helvetica,sans-Serif" font-size="10.00">Igor::iModel</text>
</a>
</g>
</g>
<!-- Node2 -->
<g id="node2" class="node"><title>Node2</title>
<g id="a_node2"><a xlink:href="class_igor_aux_1_1ia_string.html" target="_top" xlink:title=" ">
<polygon fill="white" stroke="black" points="187.5,-232.5 187.5,-251.5 276.5,-251.5 276.5,-232.5 187.5,-232.5"/>
<text text-anchor="middle" x="232" y="-239.5" font-family="Helvetica,sans-Serif" font-size="10.00">IgorAux::iaString</text>
</a>
</g>
</g>
<!-- Node2&#45;&gt;Node1 -->
<g id="edge1" class="edge"><title>Node2&#45;&gt;Node1</title>
<path fill="none" stroke="#9a32cd" stroke-dasharray="5,2" d="M286.775,-244.422C400.704,-249.554 663.466,-261.39 755.469,-265.535"/>
<polygon fill="#9a32cd" stroke="#9a32cd" points="286.697,-240.915 276.55,-243.962 286.382,-247.908 286.697,-240.915"/>
<text text-anchor="middle" x="533.5" y="-262" font-family="Helvetica,sans-Serif" font-size="10.00"> _name</text>
</g>
<!-- Node3 -->
<g id="node3" class="node"><title>Node3</title>
<g id="a_node3"><a xlink:href="struct_igor_1_1i_model_data_input_parameter.html" target="_top" xlink:title=" ">
<polygon fill="white" stroke="black" points="457,-296.5 457,-315.5 610,-315.5 610,-296.5 457,-296.5"/>
<text text-anchor="middle" x="533.5" y="-303.5" font-family="Helvetica,sans-Serif" font-size="10.00">Igor::iModelDataInputParameter</text>
</a>
</g>
</g>
<!-- Node2&#45;&gt;Node3 -->
<g id="edge3" class="edge"><title>Node2&#45;&gt;Node3</title>
<path fill="none" stroke="#9a32cd" stroke-dasharray="5,2" d="M261.037,-255.972C277.531,-263.62 299.013,-272.61 319,-278 363.937,-290.119 415.662,-297.073 456.944,-301.019"/>
<polygon fill="#9a32cd" stroke="#9a32cd" points="262.486,-252.786 251.951,-251.662 259.486,-259.11 262.486,-252.786"/>
<text text-anchor="middle" x="379" y="-302" font-family="Helvetica,sans-Serif" font-size="10.00"> _identifier</text>
</g>
<!-- Node5 -->
<g id="node5" class="node"><title>Node5</title>
<g id="a_node5"><a xlink:href="class_igor_1_1i_node.html" target="_top" xlink:title=" ">
<polygon fill="white" stroke="black" points="502,-182.5 502,-201.5 565,-201.5 565,-182.5 502,-182.5"/>
<text text-anchor="middle" x="533.5" y="-189.5" font-family="Helvetica,sans-Serif" font-size="10.00">Igor::iNode</text>
</a>
</g>
</g>
<!-- Node2&#45;&gt;Node5 -->
<g id="edge9" class="edge"><title>Node2&#45;&gt;Node5</title>
<path fill="none" stroke="#9a32cd" stroke-dasharray="5,2" d="M286.645,-233.044C349.349,-222.576 450.981,-205.609 501.683,-197.145"/>
<polygon fill="#9a32cd" stroke="#9a32cd" points="285.837,-229.631 276.55,-234.73 286.99,-236.535 285.837,-229.631"/>
<text text-anchor="middle" x="379" y="-231" font-family="Helvetica,sans-Serif" font-size="10.00"> _name</text>
</g>
<!-- Node9 -->
<g id="node9" class="node"><title>Node9</title>
<g id="a_node9"><a xlink:href="class_igor_1_1i_scene.html" target="_top" xlink:title=" ">
<polygon fill="white" stroke="black" points="755,-113.5 755,-132.5 823,-132.5 823,-113.5 755,-113.5"/>
<text text-anchor="middle" x="789" y="-120.5" font-family="Helvetica,sans-Serif" font-size="10.00">Igor::iScene</text>
</a>
</g>
</g>
<!-- Node2&#45;&gt;Node9 -->
<g id="edge11" class="edge"><title>Node2&#45;&gt;Node9</title>
<path fill="none" stroke="#9a32cd" stroke-dasharray="5,2" d="M263.179,-228.1C279.532,-220.802 300.189,-211.956 319,-205 379.254,-182.72 394.165,-175.371 457,-162 564.532,-139.117 694.775,-128.718 754.784,-124.877"/>
<polygon fill="#9a32cd" stroke="#9a32cd" points="261.287,-225.114 253.608,-232.414 264.163,-231.496 261.287,-225.114"/>
<text text-anchor="middle" x="533.5" y="-165" font-family="Helvetica,sans-Serif" font-size="10.00"> _name</text>
</g>
<!-- Node3&#45;&gt;Node1 -->
<g id="edge2" class="edge"><title>Node3&#45;&gt;Node1</title>
<path fill="none" stroke="#9a32cd" stroke-dasharray="5,2" d="M620.432,-298.177C656.611,-294.164 699.043,-288.512 737,-281 743.215,-279.77 749.785,-278.186 756.066,-276.528"/>
<polygon fill="#9a32cd" stroke="#9a32cd" points="619.967,-294.707 610.403,-299.266 620.722,-301.666 619.967,-294.707"/>
<text text-anchor="middle" x="682.5" y="-300" font-family="Helvetica,sans-Serif" font-size="10.00"> _parameter</text>
</g>
<!-- Node4 -->
<g id="node4" class="node"><title>Node4</title>
<g id="a_node4"><a xlink:href="class_igor_aux_1_1ia_mem_block.html" target="_top" xlink:title=" ">
<polygon fill="white" stroke="black" points="177,-324.5 177,-343.5 287,-343.5 287,-324.5 177,-324.5"/>
<text text-anchor="middle" x="232" y="-331.5" font-family="Helvetica,sans-Serif" font-size="10.00">IgorAux::iaMemBlock</text>
</a>
</g>
</g>
<!-- Node4&#45;&gt;Node3 -->
<g id="edge4" class="edge"><title>Node4&#45;&gt;Node3</title>
<path fill="none" stroke="#9a32cd" stroke-dasharray="5,2" d="M297.264,-327.992C344.102,-323.613 407.717,-317.666 456.983,-313.06"/>
<polygon fill="#9a32cd" stroke="#9a32cd" points="296.868,-324.514 287.237,-328.929 297.52,-331.483 296.868,-324.514"/>
<text text-anchor="middle" x="379" y="-329" font-family="Helvetica,sans-Serif" font-size="10.00"> _parameters</text>
</g>
<!-- Node5&#45;&gt;Node1 -->
<g id="edge5" class="edge"><title>Node5&#45;&gt;Node1</title>
<path fill="none" stroke="#9a32cd" stroke-dasharray="5,2" d="M574.904,-204.368C591.309,-209.205 610.487,-214.63 628,-219 676.038,-230.987 690.19,-225.869 737,-242 748.747,-246.048 761.285,-252.167 770.99,-257.339"/>
<polygon fill="#9a32cd" stroke="#9a32cd" points="575.672,-200.944 565.089,-201.446 573.674,-207.653 575.672,-200.944"/>
<text text-anchor="middle" x="682.5" y="-245" font-family="Helvetica,sans-Serif" font-size="10.00"> _node</text>
</g>
<!-- Node5&#45;&gt;Node5 -->
<g id="edge20" class="edge"><title>Node5&#45;&gt;Node5</title>
<path fill="none" stroke="#9a32cd" stroke-dasharray="5,2" d="M505.874,-210.654C507.029,-215.937 516.238,-220 533.5,-220 559.805,-220 567.408,-210.565 556.311,-201.757"/>
<polygon fill="#9a32cd" stroke="#9a32cd" points="509.008,-212.218 510.689,-201.757 502.851,-208.886 509.008,-212.218"/>
<text text-anchor="middle" x="533.5" y="-223" font-family="Helvetica,sans-Serif" font-size="10.00"> _parent</text>
</g>
<!-- Node5&#45;&gt;Node9 -->
<g id="edge17" class="edge"><title>Node5&#45;&gt;Node9</title>
<path fill="none" stroke="#9a32cd" stroke-dasharray="5,2" d="M575.219,-199.995C617.886,-206.297 685.711,-210.315 737,-185 759.747,-173.773 775.927,-147.172 783.381,-132.732"/>
<polygon fill="#9a32cd" stroke="#9a32cd" points="575.627,-196.516 565.202,-198.404 574.529,-203.429 575.627,-196.516"/>
<text text-anchor="middle" x="682.5" y="-208" font-family="Helvetica,sans-Serif" font-size="10.00"> _root</text>
</g>
<!-- Node6 -->
<g id="node6" class="node"><title>Node6</title>
<g id="a_node6"><a xlink:href="class_igor_aux_1_1ia_i_d_generator.html" target="_top" xlink:title=" ">
<polygon fill="white" stroke="black" points="163,-92.5 163,-111.5 301,-111.5 301,-92.5 163,-92.5"/>
<text text-anchor="middle" x="232" y="-99.5" font-family="Helvetica,sans-Serif" font-size="10.00">IgorAux::iaIDGenerator&lt; T &gt;</text>
</a>
</g>
</g>
<!-- Node6&#45;&gt;Node5 -->
<g id="edge6" class="edge"><title>Node6&#45;&gt;Node5</title>
<path fill="none" stroke="#9a32cd" stroke-dasharray="5,2" d="M269.585,-89.552C314.392,-76.8141 390.319,-63.6712 439,-101 463.468,-119.762 435.697,-145.709 457,-168 468.593,-180.131 486.284,-186.15 501.627,-189.128"/>
<polygon fill="#9a32cd" stroke="#9a32cd" points="268.563,-86.2044 259.978,-92.4132 270.561,-92.9132 268.563,-86.2044"/>
<text text-anchor="middle" x="379" y="-104" font-family="Helvetica,sans-Serif" font-size="10.00"> _idGenerator</text>
</g>
<!-- Node7 -->
<g id="node7" class="node"><title>Node7</title>
<g id="a_node7"><a xlink:href="class_igor_aux_1_1ia_mutex.html" target="_top" xlink:title=" ">
<polygon fill="white" stroke="black" points="0,-116.5 0,-135.5 90,-135.5 90,-116.5 0,-116.5"/>
<text text-anchor="middle" x="45" y="-123.5" font-family="Helvetica,sans-Serif" font-size="10.00">IgorAux::iaMutex</text>
</a>
</g>
</g>
<!-- Node7&#45;&gt;Node6 -->
<g id="edge7" class="edge"><title>Node7&#45;&gt;Node6</title>
<path fill="none" stroke="#9a32cd" stroke-dasharray="5,2" d="M88.3326,-113.953C94.8759,-112.417 101.589,-111.026 108,-110 125.644,-107.175 144.863,-105.342 162.754,-104.154"/>
<polygon fill="#9a32cd" stroke="#9a32cd" points="87.1198,-110.648 78.2575,-116.454 88.8062,-117.442 87.1198,-110.648"/>
<text text-anchor="middle" x="126.5" y="-113" font-family="Helvetica,sans-Serif" font-size="10.00"> _mutex</text>
</g>
<!-- Node14 -->
<g id="node14" class="node"><title>Node14</title>
<g id="a_node14"><a xlink:href="class_igor_1_1i_data_update_queue.html" target="_top" xlink:title=" ">
<polygon fill="white" stroke="black" points="319,-118.5 319,-137.5 439,-137.5 439,-118.5 319,-118.5"/>
<text text-anchor="middle" x="379" y="-125.5" font-family="Helvetica,sans-Serif" font-size="10.00">Igor::iDataUpdateQueue</text>
</a>
</g>
</g>
<!-- Node7&#45;&gt;Node14 -->
<g id="edge19" class="edge"><title>Node7&#45;&gt;Node14</title>
<path fill="none" stroke="#9a32cd" stroke-dasharray="5,2" d="M100.133,-126.326C160.209,-126.688 256.847,-127.27 318.867,-127.644"/>
<polygon fill="#9a32cd" stroke="#9a32cd" points="100.108,-122.826 90.087,-126.266 100.066,-129.826 100.108,-122.826"/>
<text text-anchor="middle" x="126.5" y="-130" font-family="Helvetica,sans-Serif" font-size="10.00"> _mutex</text>
</g>
<!-- Node8 -->
<g id="node8" class="node"><title>Node8</title>
<g id="a_node8"><a xlink:title=" ">
<polygon fill="white" stroke="#bfbfbf" points="30.5,-47.5 30.5,-66.5 59.5,-66.5 59.5,-47.5 30.5,-47.5"/>
<text text-anchor="middle" x="45" y="-54.5" font-family="Helvetica,sans-Serif" font-size="10.00">T</text>
</a>
</g>
</g>
<!-- Node8&#45;&gt;Node6 -->
<g id="edge8" class="edge"><title>Node8&#45;&gt;Node6</title>
<path fill="none" stroke="#9a32cd" stroke-dasharray="5,2" d="M69.4403,-62.7017C100.238,-70.1931 154.757,-83.4544 191.863,-92.4803"/>
<polygon fill="#9a32cd" stroke="#9a32cd" points="70.1474,-59.2717 59.6035,-60.309 68.4929,-66.0734 70.1474,-59.2717"/>
<text text-anchor="middle" x="126.5" y="-84" font-family="Helvetica,sans-Serif" font-size="10.00"> _nextID</text>
</g>
<!-- Node13 -->
<g id="node13" class="node"><title>Node13</title>
<g id="a_node13"><a xlink:href="class_igor_aux_1_1ia_matrix.html" target="_top" xlink:title=" ">
<polygon fill="white" stroke="black" points="175.5,-1.5 175.5,-20.5 288.5,-20.5 288.5,-1.5 175.5,-1.5"/>
<text text-anchor="middle" x="232" y="-8.5" font-family="Helvetica,sans-Serif" font-size="10.00">IgorAux::iaMatrix&lt; T &gt;</text>
</a>
</g>
</g>
<!-- Node8&#45;&gt;Node13 -->
<g id="edge16" class="edge"><title>Node8&#45;&gt;Node13</title>
<path fill="none" stroke="#9a32cd" stroke-dasharray="5,2" d="M68.4862,-42.8737C79.9014,-36.3683 94.2367,-29.1807 108,-25 129.49,-18.4724 153.93,-14.9411 175.332,-13.0477"/>
<polygon fill="#9a32cd" stroke="#9a32cd" points="66.4841,-39.9915 59.6609,-48.0968 70.0494,-46.0156 66.4841,-39.9915"/>
<text text-anchor="middle" x="126.5" y="-61" font-family="Helvetica,sans-Serif" font-size="10.00"> _w0</text>
<text text-anchor="middle" x="126.5" y="-50" font-family="Helvetica,sans-Serif" font-size="10.00">_w1</text>
<text text-anchor="middle" x="126.5" y="-39" font-family="Helvetica,sans-Serif" font-size="10.00">_w2</text>
<text text-anchor="middle" x="126.5" y="-28" font-family="Helvetica,sans-Serif" font-size="10.00">_w3</text>
</g>
<!-- Node9&#45;&gt;Node5 -->
<g id="edge10" class="edge"><title>Node9&#45;&gt;Node5</title>
<path fill="none" stroke="#9a32cd" stroke-dasharray="5,2" d="M764.53,-137.825C756.108,-142.615 746.373,-147.569 737,-151 728.937,-153.952 619.623,-175.43 565.051,-186.066"/>
<polygon fill="#9a32cd" stroke="#9a32cd" points="766.571,-140.684 773.391,-132.576 763.003,-134.661 766.571,-140.684"/>
<text text-anchor="middle" x="682.5" y="-176" font-family="Helvetica,sans-Serif" font-size="10.00"> _scene</text>
</g>
<!-- Node10 -->
<g id="node10" class="node"><title>Node10</title>
<g id="a_node10"><a xlink:href="class_igor_1_1i_octree.html" target="_top" xlink:title=" ">
<polygon fill="white" stroke="black" points="498.5,-0.5 498.5,-19.5 568.5,-19.5 568.5,-0.5 498.5,-0.5"/>
<text text-anchor="middle" x="533.5" y="-7.5" font-family="Helvetica,sans-Serif" font-size="10.00">Igor::iOctree</text>
</a>
</g>
</g>
<!-- Node10&#45;&gt;Node9 -->
<g id="edge12" class="edge"><title>Node10&#45;&gt;Node9</title>
<path fill="none" stroke="#9a32cd" stroke-dasharray="5,2" d="M578.781,-6.58229C622.527,-5.40547 689.589,-9.72405 737,-41 763.729,-58.6326 778.963,-95.5998 784.975,-113.236"/>
<polygon fill="#9a32cd" stroke="#9a32cd" points="578.593,-3.08679 568.732,-6.96022 578.856,-10.0818 578.593,-3.08679"/>
<text text-anchor="middle" x="682.5" y="-44" font-family="Helvetica,sans-Serif" font-size="10.00"> _octree</text>
</g>
<!-- Node11 -->
<g id="node11" class="node"><title>Node11</title>
<g id="a_node11"><a xlink:href="class_igor_1_1i_node_visitor_update_transform.html" target="_top" xlink:title=" ">
<polygon fill="white" stroke="black" points="472.5,-39 472.5,-69 594.5,-69 594.5,-39 472.5,-39"/>
<text text-anchor="start" x="480.5" y="-57" font-family="Helvetica,sans-Serif" font-size="10.00">Igor::iNodeVisitorUpdate</text>
<text text-anchor="middle" x="533.5" y="-46" font-family="Helvetica,sans-Serif" font-size="10.00">Transform</text>
</a>
</g>
</g>
<!-- Node11&#45;&gt;Node9 -->
<g id="edge13" class="edge"><title>Node11&#45;&gt;Node9</title>
<path fill="none" stroke="#9a32cd" stroke-dasharray="5,2" d="M605.091,-53.9358C645.22,-56.1857 695.57,-62.9568 737,-81 754.036,-88.4194 769.934,-103.268 779.312,-113.171"/>
<polygon fill="#9a32cd" stroke="#9a32cd" points="605.012,-50.4282 594.856,-53.4466 604.678,-57.4202 605.012,-50.4282"/>
<text text-anchor="middle" x="682.5" y="-84" font-family="Helvetica,sans-Serif" font-size="10.00"> _updateTransformVisitor</text>
</g>
<!-- Node12 -->
<g id="node12" class="node"><title>Node12</title>
<g id="a_node12"><a xlink:href="class_igor_1_1i_node_visitor.html" target="_top" xlink:title=" ">
<polygon fill="white" stroke="black" points="186.5,-44.5 186.5,-63.5 277.5,-63.5 277.5,-44.5 186.5,-44.5"/>
<text text-anchor="middle" x="232" y="-51.5" font-family="Helvetica,sans-Serif" font-size="10.00">Igor::iNodeVisitor</text>
</a>
</g>
</g>
<!-- Node12&#45;&gt;Node11 -->
<g id="edge14" class="edge"><title>Node12&#45;&gt;Node11</title>
<path fill="none" stroke="midnightblue" d="M287.598,-54C339.846,-54 418.476,-54 472.464,-54"/>
<polygon fill="midnightblue" stroke="midnightblue" points="287.515,-50.5001 277.515,-54 287.515,-57.5001 287.515,-50.5001"/>
</g>
<!-- Node13&#45;&gt;Node11 -->
<g id="edge15" class="edge"><title>Node13&#45;&gt;Node11</title>
<path fill="none" stroke="#9a32cd" stroke-dasharray="5,2" d="M298.586,-19.5068C339.087,-24.861 392.098,-32.0513 439,-39 449.815,-40.6022 461.32,-42.3842 472.427,-44.1445"/>
<polygon fill="#9a32cd" stroke="#9a32cd" points="298.942,-16.0235 288.571,-18.1863 298.027,-22.9634 298.942,-16.0235"/>
<text text-anchor="middle" x="379" y="-42" font-family="Helvetica,sans-Serif" font-size="10.00"> _currentMatrix</text>
</g>
<!-- Node14&#45;&gt;Node9 -->
<g id="edge18" class="edge"><title>Node14&#45;&gt;Node9</title>
<path fill="none" stroke="#9a32cd" stroke-dasharray="5,2" d="M449.311,-120.46C451.905,-120.286 454.475,-120.131 457,-120 565.755,-114.366 694.872,-118.717 754.614,-121.357"/>
<polygon fill="#9a32cd" stroke="#9a32cd" points="448.934,-116.979 439.226,-121.222 449.461,-123.959 448.934,-116.979"/>
<text text-anchor="middle" x="533.5" y="-123" font-family="Helvetica,sans-Serif" font-size="10.00"> _dataUpdateQueue</text>
</g>
</g>
</svg>
