<?xml version="1.0" encoding="UTF-8" standalone="no"?>
<!DOCTYPE svg PUBLIC "-//W3C//DTD SVG 1.1//EN"
 "http://www.w3.org/Graphics/SVG/1.1/DTD/svg11.dtd">
<!-- Generated by graphviz version 2.38.0 (20140413.2041)
 -->
<!-- Title: Igor::iOctree::draw Pages: 1 -->
<svg width="404pt" height="78pt"
 viewBox="0.00 0.00 404.00 77.50" xmlns="http://www.w3.org/2000/svg" xmlns:xlink="http://www.w3.org/1999/xlink">
<g id="graph0" class="graph" transform="scale(1 1) rotate(0) translate(4 73.5)">
<title>Igor::iOctree::draw</title>
<polygon fill="white" stroke="none" points="-4,4 -4,-73.5 400,-73.5 400,4 -4,4"/>
<!-- Node1 -->
<g id="node1" class="node"><title>Node1</title>
<polygon fill="#bfbfbf" stroke="black" points="0,-44.5 0,-63.5 96,-63.5 96,-44.5 0,-44.5"/>
<text text-anchor="middle" x="48" y="-51.5" font-family="Helvetica,sans-Serif" font-size="10.00">Igor::iOctree::draw</text>
</g>
<!-- Node2 -->
<g id="node2" class="node"><title>Node2</title>
<g id="a_node2"><a xlink:href="class_igor_aux_1_1ia_singleton.html#a821f1d891129e6d09b992be81094540e" target="_top" xlink:title="IgorAux::iaSingleton\l\&lt; iRenderer \&gt;::getInstance">
<polygon fill="white" stroke="black" points="264,-39 264,-69 396,-69 396,-39 264,-39"/>
<text text-anchor="start" x="272" y="-57" font-family="Helvetica,sans-Serif" font-size="10.00">IgorAux::iaSingleton</text>
<text text-anchor="middle" x="330" y="-46" font-family="Helvetica,sans-Serif" font-size="10.00">&lt; iRenderer &gt;::getInstance</text>
</a>
</g>
</g>
<!-- Node1&#45;&gt;Node2 -->
<g id="edge1" class="edge"><title>Node1&#45;&gt;Node2</title>
<path fill="none" stroke="midnightblue" d="M96.1816,-54C139.195,-54 203.485,-54 253.615,-54"/>
<polygon fill="midnightblue" stroke="midnightblue" points="253.763,-57.5001 263.763,-54 253.763,-50.5001 253.763,-57.5001"/>
</g>
<!-- Node3 -->
<g id="node3" class="node"><title>Node3</title>
<g id="a_node3"><a xlink:href="class_igor_1_1i_octree.html#aac5a4d89939fa38182e146b4c15a35a0" target="_top" xlink:title="Igor::iOctree::draw">
<polygon fill="white" stroke="black" points="132,-25.5 132,-44.5 228,-44.5 228,-25.5 132,-25.5"/>
<text text-anchor="middle" x="180" y="-32.5" font-family="Helvetica,sans-Serif" font-size="10.00">Igor::iOctree::draw</text>
</a>
</g>
</g>
<!-- Node1&#45;&gt;Node3 -->
<g id="edge2" class="edge"><title>Node1&#45;&gt;Node3</title>
<path fill="none" stroke="midnightblue" d="M96.3007,-47.0868C104.65,-45.8666 113.42,-44.5848 122.002,-43.3305"/>
<polygon fill="midnightblue" stroke="midnightblue" points="122.563,-46.7857 131.952,-41.8762 121.551,-39.8593 122.563,-46.7857"/>
</g>
<!-- Node3&#45;&gt;Node2 -->
<g id="edge3" class="edge"><title>Node3&#45;&gt;Node2</title>
<path fill="none" stroke="midnightblue" d="M228.235,-34.7228C236.533,-35.5236 245.349,-36.5193 254.181,-37.6453"/>
<polygon fill="midnightblue" stroke="midnightblue" points="253.759,-41.1198 264.133,-38.9684 254.682,-34.1809 253.759,-41.1198"/>
</g>
<!-- Node3&#45;&gt;Node2 -->
<g id="edge4" class="edge"><title>Node3&#45;&gt;Node2</title>
<path fill="none" stroke="midnightblue" d="M211.666,-44.5295C223.98,-46.8588 238.765,-49.1424 253.625,-51.0725"/>
<polygon fill="midnightblue" stroke="midnightblue" points="253.54,-54.5887 263.895,-52.3484 254.403,-47.6421 253.54,-54.5887"/>
</g>
<!-- Node4 -->
<g id="node4" class="node"><title>Node4</title>
<g id="a_node4"><a xlink:href="namespace_igor.html#a9ca17ac9629ca285f183855e1f350eda" target="_top" xlink:title="Igor::getMaterial">
<polygon fill="white" stroke="black" points="287,-0.5 287,-19.5 373,-19.5 373,-0.5 287,-0.5"/>
<text text-anchor="middle" x="330" y="-7.5" font-family="Helvetica,sans-Serif" font-size="10.00">Igor::getMaterial</text>
</a>
</g>
</g>
<!-- Node3&#45;&gt;Node4 -->
<g id="edge5" class="edge"><title>Node3&#45;&gt;Node4</title>
<path fill="none" stroke="midnightblue" d="M228.235,-27.0211C243.641,-24.4188 260.835,-21.5143 276.597,-18.8519"/>
<polygon fill="midnightblue" stroke="midnightblue" points="277.437,-22.2596 286.715,-17.1428 276.271,-15.3574 277.437,-22.2596"/>
</g>
</g>
</svg>
