<?xml version="1.0" encoding="UTF-8" standalone="no"?>
<!DOCTYPE svg PUBLIC "-//W3C//DTD SVG 1.1//EN"
 "http://www.w3.org/Graphics/SVG/1.1/DTD/svg11.dtd">
<!-- Generated by graphviz version 2.38.0 (20140413.2041)
 -->
<!-- Title: IgorAux::iaVector2::set Pages: 1 -->
<svg width="458pt" height="242pt"
 viewBox="0.00 0.00 458.00 242.00" xmlns="http://www.w3.org/2000/svg" xmlns:xlink="http://www.w3.org/1999/xlink">
<g id="graph0" class="graph" transform="scale(1 1) rotate(0) translate(4 238)">
<title>IgorAux::iaVector2::set</title>
<polygon fill="white" stroke="none" points="-4,4 -4,-238 454,-238 454,4 -4,4"/>
<!-- Node78 -->
<g id="node1" class="node"><title>Node78</title>
<g id="a_node1"><a xlink:title=" ">
<polygon fill="#bfbfbf" stroke="black" points="334,-110.5 334,-129.5 450,-129.5 450,-110.5 334,-110.5"/>
<text text-anchor="middle" x="392" y="-117.5" font-family="Helvetica,sans-Serif" font-size="10.00">IgorAux::iaVector2::set</text>
</a>
</g>
</g>
<!-- Node79 -->
<g id="node2" class="node"><title>Node79</title>
<g id="a_node2"><a xlink:href="class_igor_1_1i_mouse.html#ab28b9a83a441dad90fcc12d5e52c14cf" target="_top" xlink:title=" ">
<polygon fill="white" stroke="black" points="163.5,-214.5 163.5,-233.5 288.5,-233.5 288.5,-214.5 163.5,-214.5"/>
<text text-anchor="middle" x="226" y="-221.5" font-family="Helvetica,sans-Serif" font-size="10.00">Igor::iMouse::onOSEvent</text>
</a>
</g>
</g>
<!-- Node78&#45;&gt;Node79 -->
<g id="edge1" class="edge"><title>Node78&#45;&gt;Node79</title>
<path fill="none" stroke="midnightblue" d="M376.523,-137.532C359.632,-156.858 329.921,-187.521 298,-205 290.949,-208.861 283.069,-211.972 275.194,-214.469"/>
<polygon fill="midnightblue" stroke="midnightblue" points="379.314,-139.654 383.145,-129.776 373.99,-135.108 379.314,-139.654"/>
</g>
<!-- Node80 -->
<g id="node3" class="node"><title>Node80</title>
<g id="a_node3"><a xlink:href="class_igor_1_1i_mouse.html#ad79e27f894736fd41076e19efc588e78" target="_top" xlink:title=" ">
<polygon fill="white" stroke="black" points="163.5,-176.5 163.5,-195.5 288.5,-195.5 288.5,-176.5 163.5,-176.5"/>
<text text-anchor="middle" x="226" y="-183.5" font-family="Helvetica,sans-Serif" font-size="10.00">Igor::iMouse::setPosition</text>
</a>
</g>
</g>
<!-- Node78&#45;&gt;Node80 -->
<g id="edge2" class="edge"><title>Node78&#45;&gt;Node80</title>
<path fill="none" stroke="midnightblue" d="M365.794,-134.531C347.442,-144.661 321.747,-157.934 298,-167 288.583,-170.595 278.216,-173.781 268.383,-176.468"/>
<polygon fill="midnightblue" stroke="midnightblue" points="367.657,-137.499 374.671,-129.558 364.236,-131.391 367.657,-137.499"/>
</g>
<!-- Node82 -->
<g id="node5" class="node"><title>Node82</title>
<g id="a_node5"><a xlink:href="class_igor_1_1i_particle_system3_d.html#a493599094c960413d2c98b4753aa88d3" target="_top" xlink:title=" ">
<polygon fill="white" stroke="black" points="166.5,-127 166.5,-157 285.5,-157 285.5,-127 166.5,-127"/>
<text text-anchor="start" x="174.5" y="-145" font-family="Helvetica,sans-Serif" font-size="10.00">Igor::iParticleSystem3D</text>
<text text-anchor="middle" x="226" y="-134" font-family="Helvetica,sans-Serif" font-size="10.00">::resetParticle</text>
</a>
</g>
</g>
<!-- Node78&#45;&gt;Node82 -->
<g id="edge4" class="edge"><title>Node78&#45;&gt;Node82</title>
<path fill="none" stroke="midnightblue" d="M323.671,-129.032C311.083,-130.721 298.018,-132.473 285.716,-134.124"/>
<polygon fill="midnightblue" stroke="midnightblue" points="324.195,-132.493 333.641,-127.695 323.264,-125.555 324.195,-132.493"/>
</g>
<!-- Node83 -->
<g id="node6" class="node"><title>Node83</title>
<g id="a_node6"><a xlink:href="class_igor_1_1i_renderer.html#afc75af5b67dede4802299530506ed5c2" target="_top" xlink:title=" ">
<polygon fill="white" stroke="black" points="154,-88.5 154,-107.5 298,-107.5 298,-88.5 154,-88.5"/>
<text text-anchor="middle" x="226" y="-95.5" font-family="Helvetica,sans-Serif" font-size="10.00">Igor::iRenderer::drawParticles</text>
</a>
</g>
</g>
<!-- Node78&#45;&gt;Node83 -->
<g id="edge5" class="edge"><title>Node78&#45;&gt;Node83</title>
<path fill="none" stroke="midnightblue" d="M323.473,-110.942C315.031,-109.809 306.377,-108.648 297.886,-107.509"/>
<polygon fill="midnightblue" stroke="midnightblue" points="323.264,-114.445 333.641,-112.305 324.195,-107.507 323.264,-114.445"/>
</g>
<!-- Node84 -->
<g id="node7" class="node"><title>Node84</title>
<g id="a_node7"><a xlink:href="class_igor_1_1i_renderer.html#a7d1dbb68fd7efb2c3f5605ba49060d5f" target="_top" xlink:title=" ">
<polygon fill="white" stroke="black" points="155.5,-39 155.5,-69 296.5,-69 296.5,-39 155.5,-39"/>
<text text-anchor="start" x="163.5" y="-57" font-family="Helvetica,sans-Serif" font-size="10.00">Igor::iRenderer::drawVelocity</text>
<text text-anchor="middle" x="226" y="-46" font-family="Helvetica,sans-Serif" font-size="10.00">OrientedParticles</text>
</a>
</g>
</g>
<!-- Node78&#45;&gt;Node84 -->
<g id="edge6" class="edge"><title>Node78&#45;&gt;Node84</title>
<path fill="none" stroke="midnightblue" d="M361.064,-106.104C342.955,-97.8731 319.319,-87.4382 298,-79 289.494,-75.6333 280.332,-72.2386 271.507,-69.0829"/>
<polygon fill="midnightblue" stroke="midnightblue" points="359.957,-109.446 370.506,-110.423 362.869,-103.08 359.957,-109.446"/>
</g>
<!-- Node85 -->
<g id="node8" class="node"><title>Node85</title>
<g id="a_node8"><a xlink:href="namespace_testigor.html#a28742d507b81a31480a280192e64b0ce" target="_top" xlink:title=" ">
<polygon fill="white" stroke="black" points="166.5,-0.5 166.5,-19.5 285.5,-19.5 285.5,-0.5 166.5,-0.5"/>
<text text-anchor="middle" x="226" y="-7.5" font-family="Helvetica,sans-Serif" font-size="10.00">Testigor::TEST_CLASS</text>
</a>
</g>
</g>
<!-- Node78&#45;&gt;Node85 -->
<g id="edge7" class="edge"><title>Node78&#45;&gt;Node85</title>
<path fill="none" stroke="midnightblue" d="M377.447,-102.394C360.86,-82.0375 330.894,-48.9123 298,-30 290.562,-25.7234 282.154,-22.3154 273.793,-19.6143"/>
<polygon fill="midnightblue" stroke="midnightblue" points="374.74,-104.613 383.706,-110.258 380.217,-100.254 374.74,-104.613"/>
</g>
<!-- Node81 -->
<g id="node4" class="node"><title>Node81</title>
<g id="a_node4"><a xlink:href="class_igor_1_1i_mouse.html#a2e47006caf6781de70e88d72b3985ae3" target="_top" xlink:title=" ">
<polygon fill="white" stroke="black" points="0,-176.5 0,-195.5 118,-195.5 118,-176.5 0,-176.5"/>
<text text-anchor="middle" x="59" y="-183.5" font-family="Helvetica,sans-Serif" font-size="10.00">Igor::iMouse::setCenter</text>
</a>
</g>
</g>
<!-- Node80&#45;&gt;Node81 -->
<g id="edge3" class="edge"><title>Node80&#45;&gt;Node81</title>
<path fill="none" stroke="midnightblue" d="M152.964,-186C141.33,-186 129.415,-186 118.163,-186"/>
<polygon fill="midnightblue" stroke="midnightblue" points="153.091,-189.5 163.091,-186 153.091,-182.5 153.091,-189.5"/>
</g>
</g>
</svg>
