<?xml version="1.0" encoding="UTF-8" standalone="no"?>
<!DOCTYPE svg PUBLIC "-//W3C//DTD SVG 1.1//EN"
 "http://www.w3.org/Graphics/SVG/1.1/DTD/svg11.dtd">
<!-- Generated by graphviz version 2.38.0 (20140413.2041)
 -->
<!-- Title: Igor::iParticleEmitter::calcRandomStart Pages: 1 -->
<svg width="268pt" height="39pt"
 viewBox="0.00 0.00 268.00 39.00" xmlns="http://www.w3.org/2000/svg" xmlns:xlink="http://www.w3.org/1999/xlink">
<g id="graph0" class="graph" transform="scale(1 1) rotate(0) translate(4 35)">
<title>Igor::iParticleEmitter::calcRandomStart</title>
<polygon fill="white" stroke="none" points="-4,4 -4,-35 264,-35 264,4 -4,4"/>
<!-- Node7 -->
<g id="node1" class="node"><title>Node7</title>
<g id="a_node1"><a xlink:title=" ">
<polygon fill="#bfbfbf" stroke="black" points="155,-0.5 155,-30.5 260,-30.5 260,-0.5 155,-0.5"/>
<text text-anchor="start" x="163" y="-18.5" font-family="Helvetica,sans-Serif" font-size="10.00">Igor::iParticleEmitter</text>
<text text-anchor="middle" x="207.5" y="-7.5" font-family="Helvetica,sans-Serif" font-size="10.00">::calcRandomStart</text>
</a>
</g>
</g>
<!-- Node8 -->
<g id="node2" class="node"><title>Node8</title>
<g id="a_node2"><a xlink:href="class_igor_1_1i_particle_system3_d.html#a493599094c960413d2c98b4753aa88d3" target="_top" xlink:title=" ">
<polygon fill="white" stroke="black" points="0,-0.5 0,-30.5 119,-30.5 119,-0.5 0,-0.5"/>
<text text-anchor="start" x="8" y="-18.5" font-family="Helvetica,sans-Serif" font-size="10.00">Igor::iParticleSystem3D</text>
<text text-anchor="middle" x="59.5" y="-7.5" font-family="Helvetica,sans-Serif" font-size="10.00">::resetParticle</text>
</a>
</g>
</g>
<!-- Node7&#45;&gt;Node8 -->
<g id="edge1" class="edge"><title>Node7&#45;&gt;Node8</title>
<path fill="none" stroke="midnightblue" d="M144.504,-15.5C136.109,-15.5 127.515,-15.5 119.18,-15.5"/>
<polygon fill="midnightblue" stroke="midnightblue" points="144.615,-19.0001 154.615,-15.5 144.615,-12.0001 144.615,-19.0001"/>
</g>
</g>
</svg>
