<?xml version="1.0" encoding="UTF-8" standalone="no"?>
<!DOCTYPE svg PUBLIC "-//W3C//DTD SVG 1.1//EN"
 "http://www.w3.org/Graphics/SVG/1.1/DTD/svg11.dtd">
<!-- Generated by graphviz version 2.38.0 (20140413.2041)
 -->
<!-- Title: OMPF::ompfParticleSystemChunk::setStartOrientationRateGradient Pages: 1 -->
<svg width="340pt" height="50pt"
 viewBox="0.00 0.00 340.00 50.00" xmlns="http://www.w3.org/2000/svg" xmlns:xlink="http://www.w3.org/1999/xlink">
<g id="graph0" class="graph" transform="scale(1 1) rotate(0) translate(4 46)">
<title>OMPF::ompfParticleSystemChunk::setStartOrientationRateGradient</title>
<polygon fill="white" stroke="none" points="-4,4 -4,-46 336,-46 336,4 -4,4"/>
<!-- Node1 -->
<g id="node1" class="node"><title>Node1</title>
<polygon fill="#bfbfbf" stroke="black" points="0,-0.5 0,-41.5 152,-41.5 152,-0.5 0,-0.5"/>
<text text-anchor="start" x="8" y="-29.5" font-family="Helvetica,sans-Serif" font-size="10.00">OMPF::ompfParticleSystem</text>
<text text-anchor="start" x="8" y="-18.5" font-family="Helvetica,sans-Serif" font-size="10.00">Chunk::setStartOrientationRate</text>
<text text-anchor="middle" x="76" y="-7.5" font-family="Helvetica,sans-Serif" font-size="10.00">Gradient</text>
</g>
<!-- Node2 -->
<g id="node2" class="node"><title>Node2</title>
<g id="a_node2"><a xlink:href="class_igor_1_1i_model_data_i_o_o_m_p_f.html#ae7624b5254a10e0d9d1580dd5239e9de" target="_top" xlink:title="Igor::iModelDataIOOMPF\l::createParticleSystemChunk">
<polygon fill="white" stroke="black" points="188,-6 188,-36 332,-36 332,-6 188,-6"/>
<text text-anchor="start" x="196" y="-24" font-family="Helvetica,sans-Serif" font-size="10.00">Igor::iModelDataIOOMPF</text>
<text text-anchor="middle" x="260" y="-13" font-family="Helvetica,sans-Serif" font-size="10.00">::createParticleSystemChunk</text>
</a>
</g>
</g>
<!-- Node1&#45;&gt;Node2 -->
<g id="edge1" class="edge"><title>Node1&#45;&gt;Node2</title>
<path fill="none" stroke="midnightblue" d="M162.144,-21C170.762,-21 179.451,-21 187.899,-21"/>
<polygon fill="midnightblue" stroke="midnightblue" points="162.077,-17.5001 152.077,-21 162.077,-24.5001 162.077,-17.5001"/>
</g>
</g>
</svg>
