<?xml version="1.0" encoding="UTF-8" standalone="no"?>
<!DOCTYPE svg PUBLIC "-//W3C//DTD SVG 1.1//EN"
 "http://www.w3.org/Graphics/SVG/1.1/DTD/svg11.dtd">
<!-- Generated by graphviz version 2.38.0 (20140413.2041)
 -->
<!-- Title: Igor::iWidgetNumberChooser::getValue Pages: 1 -->
<svg width="1265pt" height="872pt"
 viewBox="0.00 0.00 1265.00 872.00" xmlns="http://www.w3.org/2000/svg" xmlns:xlink="http://www.w3.org/1999/xlink">
<g id="graph0" class="graph" transform="scale(1 1) rotate(0) translate(4 868)">
<title>Igor::iWidgetNumberChooser::getValue</title>
<polygon fill="white" stroke="none" points="-4,4 -4,-868 1261,-868 1261,4 -4,4"/>
<!-- Node1 -->
<g id="node1" class="node"><title>Node1</title>
<polygon fill="#bfbfbf" stroke="black" points="0,-444.5 0,-474.5 141,-474.5 141,-444.5 0,-444.5"/>
<text text-anchor="start" x="8" y="-462.5" font-family="Helvetica,sans-Serif" font-size="10.00">Igor::iWidgetNumberChooser</text>
<text text-anchor="middle" x="70.5" y="-451.5" font-family="Helvetica,sans-Serif" font-size="10.00">::getValue</text>
</g>
<!-- Node2 -->
<g id="node2" class="node"><title>Node2</title>
<g id="a_node2"><a xlink:href="class_igor_1_1i_user_control_color_chooser.html#ab19c290988630bb04c5d150d6c944d08" target="_top" xlink:title="Igor::iUserControlColorChooser\l::onValueChangedH">
<polygon fill="white" stroke="black" points="363,-833.5 363,-863.5 513,-863.5 513,-833.5 363,-833.5"/>
<text text-anchor="start" x="371" y="-851.5" font-family="Helvetica,sans-Serif" font-size="10.00">Igor::iUserControlColorChooser</text>
<text text-anchor="middle" x="438" y="-840.5" font-family="Helvetica,sans-Serif" font-size="10.00">::onValueChangedH</text>
</a>
</g>
</g>
<!-- Node1&#45;&gt;Node2 -->
<g id="edge1" class="edge"><title>Node1&#45;&gt;Node2</title>
<path fill="none" stroke="midnightblue" d="M71.2762,-484.993C72.1997,-548.146 83.8962,-712.776 177,-796.5 227.231,-841.67 305.31,-852.141 362.804,-852.851"/>
<polygon fill="midnightblue" stroke="midnightblue" points="74.7747,-484.732 71.211,-474.755 67.7748,-484.777 74.7747,-484.732"/>
</g>
<!-- Node6 -->
<g id="node6" class="node"><title>Node6</title>
<g id="a_node6"><a xlink:href="class_igor_1_1i_user_control_color_chooser.html#a7cdc2fe1c25676dd4d8bf69f94d23edf" target="_top" xlink:title="Igor::iUserControlColorChooser\l::onValueChangedS">
<polygon fill="white" stroke="black" points="363,-784.5 363,-814.5 513,-814.5 513,-784.5 363,-784.5"/>
<text text-anchor="start" x="371" y="-802.5" font-family="Helvetica,sans-Serif" font-size="10.00">Igor::iUserControlColorChooser</text>
<text text-anchor="middle" x="438" y="-791.5" font-family="Helvetica,sans-Serif" font-size="10.00">::onValueChangedS</text>
</a>
</g>
</g>
<!-- Node1&#45;&gt;Node6 -->
<g id="edge5" class="edge"><title>Node1&#45;&gt;Node6</title>
<path fill="none" stroke="midnightblue" d="M72.1676,-484.831C75.1843,-543.372 91.3823,-688.455 177,-759.5 228.401,-802.152 305.929,-809.125 362.956,-807.266"/>
<polygon fill="midnightblue" stroke="midnightblue" points="75.6558,-484.475 71.7336,-474.633 68.6621,-484.773 75.6558,-484.475"/>
</g>
<!-- Node7 -->
<g id="node7" class="node"><title>Node7</title>
<g id="a_node7"><a xlink:href="class_igor_1_1i_user_control_color_chooser.html#a1fedb0d336390aab106bf451d9af8a35" target="_top" xlink:title="Igor::iUserControlColorChooser\l::onValueChangedV">
<polygon fill="white" stroke="black" points="363,-735.5 363,-765.5 513,-765.5 513,-735.5 363,-735.5"/>
<text text-anchor="start" x="371" y="-753.5" font-family="Helvetica,sans-Serif" font-size="10.00">Igor::iUserControlColorChooser</text>
<text text-anchor="middle" x="438" y="-742.5" font-family="Helvetica,sans-Serif" font-size="10.00">::onValueChangedV</text>
</a>
</g>
</g>
<!-- Node1&#45;&gt;Node7 -->
<g id="edge7" class="edge"><title>Node1&#45;&gt;Node7</title>
<path fill="none" stroke="midnightblue" d="M73.0728,-484.628C77.9485,-538.922 97.7168,-667.066 177,-726.5 229.774,-766.062 306.547,-768.406 362.992,-763.058"/>
<polygon fill="midnightblue" stroke="midnightblue" points="76.5493,-484.194 72.2626,-474.505 69.5716,-484.752 76.5493,-484.194"/>
</g>
<!-- Node8 -->
<g id="node8" class="node"><title>Node8</title>
<g id="a_node8"><a xlink:href="class_igor_1_1i_user_control_color_chooser.html#aba59339069b9d8e3810947722cd6b604" target="_top" xlink:title="Igor::iUserControlColorChooser\l::onValueChangedR">
<polygon fill="white" stroke="black" points="363,-539.5 363,-569.5 513,-569.5 513,-539.5 363,-539.5"/>
<text text-anchor="start" x="371" y="-557.5" font-family="Helvetica,sans-Serif" font-size="10.00">Igor::iUserControlColorChooser</text>
<text text-anchor="middle" x="438" y="-546.5" font-family="Helvetica,sans-Serif" font-size="10.00">::onValueChangedR</text>
</a>
</g>
</g>
<!-- Node1&#45;&gt;Node8 -->
<g id="edge9" class="edge"><title>Node1&#45;&gt;Node8</title>
<path fill="none" stroke="midnightblue" d="M120.724,-478.114C138.334,-484.413 158.419,-491.189 177,-496.5 238.921,-514.198 310.407,-529.804 362.731,-540.356"/>
<polygon fill="midnightblue" stroke="midnightblue" points="121.816,-474.787 111.221,-474.677 119.434,-481.37 121.816,-474.787"/>
</g>
<!-- Node9 -->
<g id="node9" class="node"><title>Node9</title>
<g id="a_node9"><a xlink:href="class_igor_1_1i_user_control_color_chooser.html#ae1d11950012f128b89fac28535cabf63" target="_top" xlink:title="Igor::iUserControlColorChooser\l::onValueChangedG">
<polygon fill="white" stroke="black" points="363,-490.5 363,-520.5 513,-520.5 513,-490.5 363,-490.5"/>
<text text-anchor="start" x="371" y="-508.5" font-family="Helvetica,sans-Serif" font-size="10.00">Igor::iUserControlColorChooser</text>
<text text-anchor="middle" x="438" y="-497.5" font-family="Helvetica,sans-Serif" font-size="10.00">::onValueChangedG</text>
</a>
</g>
</g>
<!-- Node1&#45;&gt;Node9 -->
<g id="edge11" class="edge"><title>Node1&#45;&gt;Node9</title>
<path fill="none" stroke="midnightblue" d="M151.393,-469.555C214.374,-477.481 301.523,-488.45 362.944,-496.18"/>
<polygon fill="midnightblue" stroke="midnightblue" points="151.467,-466.037 141.108,-468.261 150.593,-472.982 151.467,-466.037"/>
</g>
<!-- Node10 -->
<g id="node10" class="node"><title>Node10</title>
<g id="a_node10"><a xlink:href="class_igor_1_1i_user_control_color_chooser.html#a4dbfef3fb4c7fe99d584f96618da6db8" target="_top" xlink:title="Igor::iUserControlColorChooser\l::onValueChangedB">
<polygon fill="white" stroke="black" points="363,-441.5 363,-471.5 513,-471.5 513,-441.5 363,-441.5"/>
<text text-anchor="start" x="371" y="-459.5" font-family="Helvetica,sans-Serif" font-size="10.00">Igor::iUserControlColorChooser</text>
<text text-anchor="middle" x="438" y="-448.5" font-family="Helvetica,sans-Serif" font-size="10.00">::onValueChangedB</text>
</a>
</g>
</g>
<!-- Node1&#45;&gt;Node10 -->
<g id="edge13" class="edge"><title>Node1&#45;&gt;Node10</title>
<path fill="none" stroke="midnightblue" d="M151.393,-458.844C214.374,-458.327 301.523,-457.612 362.944,-457.108"/>
<polygon fill="midnightblue" stroke="midnightblue" points="151.079,-455.347 141.108,-458.929 151.136,-462.346 151.079,-455.347"/>
</g>
<!-- Node11 -->
<g id="node11" class="node"><title>Node11</title>
<g id="a_node11"><a xlink:href="class_igor_1_1i_user_control_color_chooser.html#aca097612ba969df68ba2ae9d75223ae0" target="_top" xlink:title="Igor::iUserControlColorChooser\l::onValueChangedA">
<polygon fill="white" stroke="black" points="363,-392.5 363,-422.5 513,-422.5 513,-392.5 363,-392.5"/>
<text text-anchor="start" x="371" y="-410.5" font-family="Helvetica,sans-Serif" font-size="10.00">Igor::iUserControlColorChooser</text>
<text text-anchor="middle" x="438" y="-399.5" font-family="Helvetica,sans-Serif" font-size="10.00">::onValueChangedA</text>
</a>
</g>
</g>
<!-- Node1&#45;&gt;Node11 -->
<g id="edge15" class="edge"><title>Node1&#45;&gt;Node11</title>
<path fill="none" stroke="midnightblue" d="M151.393,-448.134C214.374,-439.173 301.523,-426.774 362.944,-418.036"/>
<polygon fill="midnightblue" stroke="midnightblue" points="150.515,-444.723 141.108,-449.597 151.501,-451.653 150.515,-444.723"/>
</g>
<!-- Node12 -->
<g id="node12" class="node"><title>Node12</title>
<g id="a_node12"><a xlink:href="class_igor_1_1i_user_control_color_chooser.html#a2cca9e35555c8e25ad1f6869d1506347" target="_top" xlink:title="Igor::iUserControlColorChooser\l::onValueChangedRExpanded">
<polygon fill="white" stroke="black" points="363,-343.5 363,-373.5 513,-373.5 513,-343.5 363,-343.5"/>
<text text-anchor="start" x="371" y="-361.5" font-family="Helvetica,sans-Serif" font-size="10.00">Igor::iUserControlColorChooser</text>
<text text-anchor="middle" x="438" y="-350.5" font-family="Helvetica,sans-Serif" font-size="10.00">::onValueChangedRExpanded</text>
</a>
</g>
</g>
<!-- Node1&#45;&gt;Node12 -->
<g id="edge17" class="edge"><title>Node1&#45;&gt;Node12</title>
<path fill="none" stroke="midnightblue" d="M118.219,-440.858C136.401,-433.965 157.515,-426.402 177,-420.5 239.177,-401.668 311.107,-384.891 363.527,-373.554"/>
<polygon fill="midnightblue" stroke="midnightblue" points="116.811,-437.649 108.725,-444.496 119.316,-444.186 116.811,-437.649"/>
</g>
<!-- Node13 -->
<g id="node13" class="node"><title>Node13</title>
<g id="a_node13"><a xlink:href="class_igor_1_1i_user_control_color_chooser.html#ab6cb9e428820db046f3b58eba81e463d" target="_top" xlink:title="Igor::iUserControlColorChooser\l::onValueChangedGExpanded">
<polygon fill="white" stroke="black" points="363,-294.5 363,-324.5 513,-324.5 513,-294.5 363,-294.5"/>
<text text-anchor="start" x="371" y="-312.5" font-family="Helvetica,sans-Serif" font-size="10.00">Igor::iUserControlColorChooser</text>
<text text-anchor="middle" x="438" y="-301.5" font-family="Helvetica,sans-Serif" font-size="10.00">::onValueChangedGExpanded</text>
</a>
</g>
</g>
<!-- Node1&#45;&gt;Node13 -->
<g id="edge19" class="edge"><title>Node1&#45;&gt;Node13</title>
<path fill="none" stroke="midnightblue" d="M94.4099,-437.551C114.644,-419.292 145.719,-393.885 177,-378.5 236.194,-349.387 309.22,-331.394 362.793,-321.114"/>
<polygon fill="midnightblue" stroke="midnightblue" points="91.9462,-435.061 86.9499,-444.404 96.682,-440.216 91.9462,-435.061"/>
</g>
<!-- Node14 -->
<g id="node14" class="node"><title>Node14</title>
<g id="a_node14"><a xlink:href="class_igor_1_1i_user_control_color_chooser.html#a79bf4244b35bb85557676a274a8e94fe" target="_top" xlink:title="Igor::iUserControlColorChooser\l::onValueChangedBExpanded">
<polygon fill="white" stroke="black" points="363,-49.5 363,-79.5 513,-79.5 513,-49.5 363,-49.5"/>
<text text-anchor="start" x="371" y="-67.5" font-family="Helvetica,sans-Serif" font-size="10.00">Igor::iUserControlColorChooser</text>
<text text-anchor="middle" x="438" y="-56.5" font-family="Helvetica,sans-Serif" font-size="10.00">::onValueChangedBExpanded</text>
</a>
</g>
</g>
<!-- Node1&#45;&gt;Node14 -->
<g id="edge21" class="edge"><title>Node1&#45;&gt;Node14</title>
<path fill="none" stroke="midnightblue" d="M83.0002,-435.164C100.684,-398.895 136.753,-329.276 177,-276.5 248.274,-183.037 262.93,-150.155 363,-88.5 368.519,-85.0994 374.571,-82.1303 380.76,-79.5504"/>
<polygon fill="midnightblue" stroke="midnightblue" points="79.7047,-433.94 78.512,-444.467 86.0094,-436.981 79.7047,-433.94"/>
</g>
<!-- Node15 -->
<g id="node15" class="node"><title>Node15</title>
<g id="a_node15"><a xlink:href="class_igor_1_1i_user_control_color_chooser.html#a12a8d0b8772ecb459177ad54eb05f5be" target="_top" xlink:title="Igor::iUserControlColorChooser\l::onValueChangedAExpanded">
<polygon fill="white" stroke="black" points="363,-0.5 363,-30.5 513,-30.5 513,-0.5 363,-0.5"/>
<text text-anchor="start" x="371" y="-18.5" font-family="Helvetica,sans-Serif" font-size="10.00">Igor::iUserControlColorChooser</text>
<text text-anchor="middle" x="438" y="-7.5" font-family="Helvetica,sans-Serif" font-size="10.00">::onValueChangedAExpanded</text>
</a>
</g>
</g>
<!-- Node1&#45;&gt;Node15 -->
<g id="edge23" class="edge"><title>Node1&#45;&gt;Node15</title>
<path fill="none" stroke="midnightblue" d="M71.8379,-433.971C74.0518,-370.559 88.4762,-204.18 177,-109.5 225.434,-57.6978 304.567,-34.3793 362.83,-23.9212"/>
<polygon fill="midnightblue" stroke="midnightblue" points="68.3318,-434.15 71.5578,-444.242 75.3292,-434.341 68.3318,-434.15"/>
</g>
<!-- Node16 -->
<g id="node16" class="node"><title>Node16</title>
<g id="a_node16"><a xlink:href="class_igor_1_1i_user_control_color_chooser.html#a5c028eb631129757073aa71a0e52b5b1" target="_top" xlink:title="Igor::iUserControlColorChooser\l::updateColorHSV">
<polygon fill="white" stroke="black" points="177,-286.5 177,-316.5 327,-316.5 327,-286.5 177,-286.5"/>
<text text-anchor="start" x="185" y="-304.5" font-family="Helvetica,sans-Serif" font-size="10.00">Igor::iUserControlColorChooser</text>
<text text-anchor="middle" x="252" y="-293.5" font-family="Helvetica,sans-Serif" font-size="10.00">::updateColorHSV</text>
</a>
</g>
</g>
<!-- Node1&#45;&gt;Node16 -->
<g id="edge25" class="edge"><title>Node1&#45;&gt;Node16</title>
<path fill="none" stroke="midnightblue" d="M85.921,-435.581C104.04,-407.304 137.583,-360.44 177,-331.5 185.046,-325.593 194.419,-320.636 203.737,-316.561"/>
<polygon fill="midnightblue" stroke="midnightblue" points="82.7338,-434.075 80.3813,-444.406 88.6625,-437.797 82.7338,-434.075"/>
</g>
<!-- Node22 -->
<g id="node22" class="node"><title>Node22</title>
<g id="a_node22"><a xlink:href="class_igor_1_1i_user_control_color_chooser.html#ad4ed7b1e777b1c38e54ed32057aff4ba" target="_top" xlink:title="Igor::iUserControlColorChooser\l::updateColorRGB">
<polygon fill="white" stroke="black" points="177,-686.5 177,-716.5 327,-716.5 327,-686.5 177,-686.5"/>
<text text-anchor="start" x="185" y="-704.5" font-family="Helvetica,sans-Serif" font-size="10.00">Igor::iUserControlColorChooser</text>
<text text-anchor="middle" x="252" y="-693.5" font-family="Helvetica,sans-Serif" font-size="10.00">::updateColorRGB</text>
</a>
</g>
</g>
<!-- Node1&#45;&gt;Node22 -->
<g id="edge43" class="edge"><title>Node1&#45;&gt;Node22</title>
<path fill="none" stroke="midnightblue" d="M88.7649,-482.776C125.258,-531.976 209.371,-645.376 239.776,-686.368"/>
<polygon fill="midnightblue" stroke="midnightblue" points="91.4971,-480.585 82.7285,-474.638 85.8749,-484.755 91.4971,-480.585"/>
</g>
<!-- Node3 -->
<g id="node3" class="node"><title>Node3</title>
<g id="a_node3"><a xlink:href="class_igor_1_1i_user_control_color_chooser.html#a350674922c28c48ed8d4f3bf45a39fdc" target="_top" xlink:title="Igor::iUserControlColorChooser\l::initGUI">
<polygon fill="white" stroke="black" points="735,-416.5 735,-446.5 885,-446.5 885,-416.5 735,-416.5"/>
<text text-anchor="start" x="743" y="-434.5" font-family="Helvetica,sans-Serif" font-size="10.00">Igor::iUserControlColorChooser</text>
<text text-anchor="middle" x="810" y="-423.5" font-family="Helvetica,sans-Serif" font-size="10.00">::initGUI</text>
</a>
</g>
</g>
<!-- Node2&#45;&gt;Node3 -->
<g id="edge2" class="edge"><title>Node2&#45;&gt;Node3</title>
<path fill="none" stroke="midnightblue" d="M506.995,-830.47C565.681,-811.559 648.716,-776.243 699,-717.5 772.168,-632.024 799.519,-492.572 806.817,-446.673"/>
<polygon fill="midnightblue" stroke="midnightblue" points="505.92,-827.139 497.43,-833.477 508.019,-833.817 505.92,-827.139"/>
</g>
<!-- Node4 -->
<g id="node4" class="node"><title>Node4</title>
<g id="a_node4"><a xlink:href="class_igor_1_1i_user_control_color_chooser.html#a3e12c44e1c409cc8f785c67eda400a85" target="_top" xlink:title="Igor::iUserControlColorChooser\l::iUserControlColorChooser">
<polygon fill="white" stroke="black" points="921,-416.5 921,-446.5 1071,-446.5 1071,-416.5 921,-416.5"/>
<text text-anchor="start" x="929" y="-434.5" font-family="Helvetica,sans-Serif" font-size="10.00">Igor::iUserControlColorChooser</text>
<text text-anchor="middle" x="996" y="-423.5" font-family="Helvetica,sans-Serif" font-size="10.00">::iUserControlColorChooser</text>
</a>
</g>
</g>
<!-- Node3&#45;&gt;Node4 -->
<g id="edge3" class="edge"><title>Node3&#45;&gt;Node4</title>
<path fill="none" stroke="midnightblue" d="M895.066,-431.5C903.654,-431.5 912.336,-431.5 920.808,-431.5"/>
<polygon fill="midnightblue" stroke="midnightblue" points="895.045,-428 885.044,-431.5 895.044,-435 895.045,-428"/>
</g>
<!-- Node5 -->
<g id="node5" class="node"><title>Node5</title>
<g id="a_node5"><a xlink:href="class_igor_1_1i_user_control_color_chooser.html#af82f3e4ae1b705adacffcdd546439e88" target="_top" xlink:title="Igor::iUserControlColorChooser\l::createInstance">
<polygon fill="white" stroke="black" points="1107,-416.5 1107,-446.5 1257,-446.5 1257,-416.5 1107,-416.5"/>
<text text-anchor="start" x="1115" y="-434.5" font-family="Helvetica,sans-Serif" font-size="10.00">Igor::iUserControlColorChooser</text>
<text text-anchor="middle" x="1182" y="-423.5" font-family="Helvetica,sans-Serif" font-size="10.00">::createInstance</text>
</a>
</g>
</g>
<!-- Node4&#45;&gt;Node5 -->
<g id="edge4" class="edge"><title>Node4&#45;&gt;Node5</title>
<path fill="none" stroke="midnightblue" d="M1081.07,-431.5C1089.65,-431.5 1098.34,-431.5 1106.81,-431.5"/>
<polygon fill="midnightblue" stroke="midnightblue" points="1081.04,-428 1071.04,-431.5 1081.04,-435 1081.04,-428"/>
</g>
<!-- Node6&#45;&gt;Node3 -->
<g id="edge6" class="edge"><title>Node6&#45;&gt;Node3</title>
<path fill="none" stroke="midnightblue" d="M501.08,-780.777C505.163,-779.114 509.171,-777.354 513,-775.5 602.427,-732.212 633.248,-725.983 699,-651.5 756.793,-586.033 792.447,-484.772 804.453,-446.68"/>
<polygon fill="midnightblue" stroke="midnightblue" points="499.538,-777.62 491.461,-784.477 502.051,-784.154 499.538,-777.62"/>
</g>
<!-- Node7&#45;&gt;Node3 -->
<g id="edge8" class="edge"><title>Node7&#45;&gt;Node3</title>
<path fill="none" stroke="midnightblue" d="M504.357,-731.259C507.337,-729.775 510.234,-728.191 513,-726.5 645.163,-645.713 762.759,-494.495 798.162,-446.512"/>
<polygon fill="midnightblue" stroke="midnightblue" points="502.873,-728.088 495.216,-735.411 505.768,-734.461 502.873,-728.088"/>
</g>
<!-- Node8&#45;&gt;Node3 -->
<g id="edge10" class="edge"><title>Node8&#45;&gt;Node3</title>
<path fill="none" stroke="midnightblue" d="M522.961,-537.764C574.607,-526.274 641.656,-509.186 699,-487.5 729.066,-476.13 761.664,-458.858 783.504,-446.504"/>
<polygon fill="midnightblue" stroke="midnightblue" points="522.189,-534.35 513.174,-539.916 523.692,-541.187 522.189,-534.35"/>
</g>
<!-- Node9&#45;&gt;Node3 -->
<g id="edge12" class="edge"><title>Node9&#45;&gt;Node3</title>
<path fill="none" stroke="midnightblue" d="M523.199,-491.638C574.222,-482.901 640.535,-470.947 699,-458.5 715.829,-454.917 734.004,-450.629 750.64,-446.537"/>
<polygon fill="midnightblue" stroke="midnightblue" points="522.475,-488.211 513.205,-493.342 523.651,-495.111 522.475,-488.211"/>
</g>
<!-- Node10&#45;&gt;Node3 -->
<g id="edge14" class="edge"><title>Node10&#45;&gt;Node3</title>
<path fill="none" stroke="midnightblue" d="M523.446,-450.794C587.122,-446.492 673.627,-440.647 734.689,-436.521"/>
<polygon fill="midnightblue" stroke="midnightblue" points="523.171,-447.305 513.43,-451.471 523.643,-454.289 523.171,-447.305"/>
</g>
<!-- Node11&#45;&gt;Node3 -->
<g id="edge16" class="edge"><title>Node11&#45;&gt;Node3</title>
<path fill="none" stroke="midnightblue" d="M523.446,-412.978C587.122,-417.108 673.627,-422.719 734.689,-426.68"/>
<polygon fill="midnightblue" stroke="midnightblue" points="523.636,-409.483 513.43,-412.328 523.182,-416.468 523.636,-409.483"/>
</g>
<!-- Node12&#45;&gt;Node3 -->
<g id="edge18" class="edge"><title>Node12&#45;&gt;Node3</title>
<path fill="none" stroke="midnightblue" d="M523.446,-375.161C587.122,-387.724 673.627,-404.791 734.689,-416.839"/>
<polygon fill="midnightblue" stroke="midnightblue" points="523.918,-371.687 513.43,-373.185 522.563,-378.554 523.918,-371.687"/>
</g>
<!-- Node13&#45;&gt;Node3 -->
<g id="edge20" class="edge"><title>Node13&#45;&gt;Node3</title>
<path fill="none" stroke="midnightblue" d="M520.024,-326.822C571.95,-338.941 640.361,-356.815 699,-378.5 728.028,-389.235 759.724,-404.964 781.604,-416.499"/>
<polygon fill="midnightblue" stroke="midnightblue" points="520.728,-323.393 510.196,-324.551 519.152,-330.213 520.728,-323.393"/>
</g>
<!-- Node14&#45;&gt;Node3 -->
<g id="edge22" class="edge"><title>Node14&#45;&gt;Node3</title>
<path fill="none" stroke="midnightblue" d="M502.997,-83.5225C506.436,-85.079 509.793,-86.7373 513,-88.5 607.052,-140.197 629.601,-160.633 699,-242.5 747.977,-300.275 787.422,-382.783 802.448,-416.388"/>
<polygon fill="midnightblue" stroke="midnightblue" points="504.322,-80.283 493.747,-79.6391 501.613,-86.7373 504.322,-80.283"/>
</g>
<!-- Node15&#45;&gt;Node3 -->
<g id="edge24" class="edge"><title>Node15&#45;&gt;Node3</title>
<path fill="none" stroke="midnightblue" d="M523.248,-25.7761C579.927,-36.8936 652.518,-59.9266 699,-107.5 788.256,-198.851 805.177,-365.29 808.308,-416.26"/>
<polygon fill="midnightblue" stroke="midnightblue" points="523.693,-22.2987 513.22,-23.8997 522.405,-29.1793 523.693,-22.2987"/>
</g>
<!-- Node16&#45;&gt;Node8 -->
<g id="edge26" class="edge"><title>Node16&#45;&gt;Node8</title>
<path fill="none" stroke="midnightblue" d="M258.322,-326.62C269.491,-373.275 299.744,-473.623 363,-529.5 367.37,-533.36 372.36,-536.629 377.638,-539.396"/>
<polygon fill="midnightblue" stroke="midnightblue" points="261.703,-325.704 256.053,-316.742 254.881,-327.272 261.703,-325.704"/>
</g>
<!-- Node16&#45;&gt;Node9 -->
<g id="edge27" class="edge"><title>Node16&#45;&gt;Node9</title>
<path fill="none" stroke="midnightblue" d="M261.74,-326.055C276.629,-364.46 310.495,-438.665 363,-480.5 367.879,-484.387 373.393,-487.685 379.158,-490.479"/>
<polygon fill="midnightblue" stroke="midnightblue" points="265.004,-324.79 258.204,-316.666 258.453,-327.257 265.004,-324.79"/>
</g>
<!-- Node16&#45;&gt;Node10 -->
<g id="edge28" class="edge"><title>Node16&#45;&gt;Node10</title>
<path fill="none" stroke="midnightblue" d="M267.356,-325.35C285.976,-354.366 321.085,-402.998 363,-431.5 368.607,-435.313 374.846,-438.59 381.258,-441.395"/>
<polygon fill="midnightblue" stroke="midnightblue" points="270.185,-323.274 261.902,-316.668 264.258,-326.998 270.185,-323.274"/>
</g>
<!-- Node16&#45;&gt;Node11 -->
<g id="edge29" class="edge"><title>Node16&#45;&gt;Node11</title>
<path fill="none" stroke="midnightblue" d="M277.794,-323.26C299.169,-341.128 331.48,-366.08 363,-382.5 370.096,-386.196 377.851,-389.517 385.586,-392.438"/>
<polygon fill="midnightblue" stroke="midnightblue" points="280.053,-320.586 270.162,-316.791 275.527,-325.926 280.053,-320.586"/>
</g>
<!-- Node16&#45;&gt;Node12 -->
<g id="edge30" class="edge"><title>Node16&#45;&gt;Node12</title>
<path fill="none" stroke="midnightblue" d="M311.459,-319.61C336.198,-327.273 364.687,-336.099 388.266,-343.403"/>
<polygon fill="midnightblue" stroke="midnightblue" points="312.413,-316.241 301.826,-316.625 310.342,-322.928 312.413,-316.241"/>
</g>
<!-- Node16&#45;&gt;Node13 -->
<g id="edge31" class="edge"><title>Node16&#45;&gt;Node13</title>
<path fill="none" stroke="midnightblue" d="M337.066,-305.155C345.654,-305.528 354.336,-305.906 362.808,-306.274"/>
<polygon fill="midnightblue" stroke="midnightblue" points="337.187,-301.657 327.044,-304.719 336.883,-308.65 337.187,-301.657"/>
</g>
<!-- Node16&#45;&gt;Node14 -->
<g id="edge32" class="edge"><title>Node16&#45;&gt;Node14</title>
<path fill="none" stroke="midnightblue" d="M279.015,-279.445C295.007,-264.581 314.72,-243.693 327,-221.5 356.649,-167.918 320.778,-132.856 363,-88.5 366.259,-85.0761 370.01,-82.1398 374.058,-79.6218"/>
<polygon fill="midnightblue" stroke="midnightblue" points="276.576,-276.931 271.512,-286.237 281.274,-282.121 276.576,-276.931"/>
</g>
<!-- Node16&#45;&gt;Node15 -->
<g id="edge33" class="edge"><title>Node16&#45;&gt;Node15</title>
<path fill="none" stroke="midnightblue" d="M260.5,-276.664C278.653,-218.025 326.172,-73.3613 363,-39.5 366.778,-36.0263 371.065,-33.055 375.626,-30.5136"/>
<polygon fill="midnightblue" stroke="midnightblue" points="257.145,-275.667 257.557,-286.254 263.837,-277.721 257.145,-275.667"/>
</g>
<!-- Node17 -->
<g id="node17" class="node"><title>Node17</title>
<g id="a_node17"><a xlink:href="class_igor_1_1i_user_control_color_chooser.html#ad3c851067b17bdd309d178ceb0ca594a" target="_top" xlink:title="Igor::iUserControlColorChooser\l::onSliderChangedR">
<polygon fill="white" stroke="black" points="363,-245.5 363,-275.5 513,-275.5 513,-245.5 363,-245.5"/>
<text text-anchor="start" x="371" y="-263.5" font-family="Helvetica,sans-Serif" font-size="10.00">Igor::iUserControlColorChooser</text>
<text text-anchor="middle" x="438" y="-252.5" font-family="Helvetica,sans-Serif" font-size="10.00">::onSliderChangedR</text>
</a>
</g>
</g>
<!-- Node16&#45;&gt;Node17 -->
<g id="edge34" class="edge"><title>Node16&#45;&gt;Node17</title>
<path fill="none" stroke="midnightblue" d="M330.334,-284.268C343.36,-281.365 356.788,-278.373 369.538,-275.532"/>
<polygon fill="midnightblue" stroke="midnightblue" points="329.469,-280.875 320.47,-286.466 330.992,-287.707 329.469,-280.875"/>
</g>
<!-- Node19 -->
<g id="node19" class="node"><title>Node19</title>
<g id="a_node19"><a xlink:href="class_igor_1_1i_user_control_color_chooser.html#ae71f2bc615681288e009fa2f1e8aff52" target="_top" xlink:title="Igor::iUserControlColorChooser\l::onSliderChangedG">
<polygon fill="white" stroke="black" points="363,-196.5 363,-226.5 513,-226.5 513,-196.5 363,-196.5"/>
<text text-anchor="start" x="371" y="-214.5" font-family="Helvetica,sans-Serif" font-size="10.00">Igor::iUserControlColorChooser</text>
<text text-anchor="middle" x="438" y="-203.5" font-family="Helvetica,sans-Serif" font-size="10.00">::onSliderChangedG</text>
</a>
</g>
</g>
<!-- Node16&#45;&gt;Node19 -->
<g id="edge37" class="edge"><title>Node16&#45;&gt;Node19</title>
<path fill="none" stroke="midnightblue" d="M283.333,-280.737C304.872,-266.642 334.85,-248.309 363,-235.5 370.13,-232.256 377.828,-229.25 385.47,-226.54"/>
<polygon fill="midnightblue" stroke="midnightblue" points="281.343,-277.857 274.937,-286.296 285.207,-283.694 281.343,-277.857"/>
</g>
<!-- Node20 -->
<g id="node20" class="node"><title>Node20</title>
<g id="a_node20"><a xlink:href="class_igor_1_1i_user_control_color_chooser.html#af1ef4cd260b4503f1e1b3ea0e9d21494" target="_top" xlink:title="Igor::iUserControlColorChooser\l::onSliderChangedB">
<polygon fill="white" stroke="black" points="363,-147.5 363,-177.5 513,-177.5 513,-147.5 363,-147.5"/>
<text text-anchor="start" x="371" y="-165.5" font-family="Helvetica,sans-Serif" font-size="10.00">Igor::iUserControlColorChooser</text>
<text text-anchor="middle" x="438" y="-154.5" font-family="Helvetica,sans-Serif" font-size="10.00">::onSliderChangedB</text>
</a>
</g>
</g>
<!-- Node16&#45;&gt;Node20 -->
<g id="edge39" class="edge"><title>Node16&#45;&gt;Node20</title>
<path fill="none" stroke="midnightblue" d="M274.2,-278.772C304.645,-246.216 357.693,-189.832 363,-186.5 368.376,-183.125 374.273,-180.18 380.317,-177.621"/>
<polygon fill="midnightblue" stroke="midnightblue" points="271.62,-276.407 267.35,-286.103 276.735,-281.186 271.62,-276.407"/>
</g>
<!-- Node21 -->
<g id="node21" class="node"><title>Node21</title>
<g id="a_node21"><a xlink:href="class_igor_1_1i_user_control_color_chooser.html#a227b1fa1d3048cb2027ce945e41d3864" target="_top" xlink:title="Igor::iUserControlColorChooser\l::onSliderChangedA">
<polygon fill="white" stroke="black" points="363,-98.5 363,-128.5 513,-128.5 513,-98.5 363,-98.5"/>
<text text-anchor="start" x="371" y="-116.5" font-family="Helvetica,sans-Serif" font-size="10.00">Igor::iUserControlColorChooser</text>
<text text-anchor="middle" x="438" y="-105.5" font-family="Helvetica,sans-Serif" font-size="10.00">::onSliderChangedA</text>
</a>
</g>
</g>
<!-- Node16&#45;&gt;Node21 -->
<g id="edge41" class="edge"><title>Node16&#45;&gt;Node21</title>
<path fill="none" stroke="midnightblue" d="M277.378,-279.399C293.047,-264.244 313.015,-243.049 327,-221.5 349.112,-187.429 332.999,-164.881 363,-137.5 366.791,-134.04 371.087,-131.079 375.654,-128.544"/>
<polygon fill="midnightblue" stroke="midnightblue" points="274.92,-276.906 270.076,-286.329 279.739,-281.984 274.92,-276.906"/>
</g>
<!-- Node18 -->
<g id="node18" class="node"><title>Node18</title>
<g id="a_node18"><a xlink:href="class_igor_1_1i_user_control_color_chooser.html#a32f721a060e9d1e08479db2f679a3a67" target="_top" xlink:title="Igor::iUserControlColorChooser\l::initExpanded">
<polygon fill="white" stroke="black" points="549,-252.5 549,-282.5 699,-282.5 699,-252.5 549,-252.5"/>
<text text-anchor="start" x="557" y="-270.5" font-family="Helvetica,sans-Serif" font-size="10.00">Igor::iUserControlColorChooser</text>
<text text-anchor="middle" x="624" y="-259.5" font-family="Helvetica,sans-Serif" font-size="10.00">::initExpanded</text>
</a>
</g>
</g>
<!-- Node17&#45;&gt;Node18 -->
<g id="edge35" class="edge"><title>Node17&#45;&gt;Node18</title>
<path fill="none" stroke="midnightblue" d="M523.066,-263.698C531.654,-264.025 540.336,-264.355 548.808,-264.677"/>
<polygon fill="midnightblue" stroke="midnightblue" points="523.17,-260.2 513.044,-263.317 522.904,-267.195 523.17,-260.2"/>
</g>
<!-- Node18&#45;&gt;Node3 -->
<g id="edge36" class="edge"><title>Node18&#45;&gt;Node3</title>
<path fill="none" stroke="midnightblue" d="M671.193,-287.073C680.811,-292.096 690.575,-297.957 699,-304.5 742.311,-338.136 781.333,-390.861 799.007,-416.498"/>
<polygon fill="midnightblue" stroke="midnightblue" points="672.576,-283.851 662.065,-282.518 669.45,-290.115 672.576,-283.851"/>
</g>
<!-- Node19&#45;&gt;Node18 -->
<g id="edge38" class="edge"><title>Node19&#45;&gt;Node18</title>
<path fill="none" stroke="midnightblue" d="M498.143,-229.5C522.474,-236.905 550.334,-245.384 573.555,-252.452"/>
<polygon fill="midnightblue" stroke="midnightblue" points="498.894,-226.07 488.309,-226.507 496.856,-232.767 498.894,-226.07"/>
</g>
<!-- Node20&#45;&gt;Node18 -->
<g id="edge40" class="edge"><title>Node20&#45;&gt;Node18</title>
<path fill="none" stroke="midnightblue" d="M501.942,-181.34C505.737,-182.959 509.452,-184.679 513,-186.5 548.869,-204.909 585.607,-234.588 606.243,-252.451"/>
<polygon fill="midnightblue" stroke="midnightblue" points="502.976,-177.984 492.391,-177.527 500.381,-184.485 502.976,-177.984"/>
</g>
<!-- Node21&#45;&gt;Node18 -->
<g id="edge42" class="edge"><title>Node21&#45;&gt;Node18</title>
<path fill="none" stroke="midnightblue" d="M505.856,-133.168C508.321,-134.523 510.713,-135.965 513,-137.5 559.643,-168.803 597.643,-225.25 614.136,-252.275"/>
<polygon fill="midnightblue" stroke="midnightblue" points="507.176,-129.917 496.659,-128.634 504.081,-136.195 507.176,-129.917"/>
</g>
<!-- Node22&#45;&gt;Node2 -->
<g id="edge44" class="edge"><title>Node22&#45;&gt;Node2</title>
<path fill="none" stroke="midnightblue" d="M268.206,-724.992C287.224,-752.592 322.279,-797.974 363,-824.5 368.206,-827.891 373.93,-830.838 379.818,-833.392"/>
<polygon fill="midnightblue" stroke="midnightblue" points="271.105,-723.031 262.608,-716.702 265.304,-726.949 271.105,-723.031"/>
</g>
<!-- Node22&#45;&gt;Node6 -->
<g id="edge45" class="edge"><title>Node22&#45;&gt;Node6</title>
<path fill="none" stroke="midnightblue" d="M279.887,-722.714C301.4,-738.896 332.854,-760.829 363,-775.5 369.679,-778.75 376.904,-781.712 384.132,-784.359"/>
<polygon fill="midnightblue" stroke="midnightblue" points="281.947,-719.883 271.872,-716.604 277.703,-725.45 281.947,-719.883"/>
</g>
<!-- Node22&#45;&gt;Node7 -->
<g id="edge46" class="edge"><title>Node22&#45;&gt;Node7</title>
<path fill="none" stroke="midnightblue" d="M319.176,-719.123C339.306,-724.484 361.232,-730.323 380.65,-735.494"/>
<polygon fill="midnightblue" stroke="midnightblue" points="320.02,-715.726 309.457,-716.535 318.219,-722.49 320.02,-715.726"/>
</g>
<!-- Node23 -->
<g id="node23" class="node"><title>Node23</title>
<g id="a_node23"><a xlink:href="class_igor_1_1i_user_control_color_chooser.html#a3cae6ee180ec98ef6020994ee9d98922" target="_top" xlink:title="Igor::iUserControlColorChooser\l::onSliderChangedH">
<polygon fill="white" stroke="black" points="363,-686.5 363,-716.5 513,-716.5 513,-686.5 363,-686.5"/>
<text text-anchor="start" x="371" y="-704.5" font-family="Helvetica,sans-Serif" font-size="10.00">Igor::iUserControlColorChooser</text>
<text text-anchor="middle" x="438" y="-693.5" font-family="Helvetica,sans-Serif" font-size="10.00">::onSliderChangedH</text>
</a>
</g>
</g>
<!-- Node22&#45;&gt;Node23 -->
<g id="edge47" class="edge"><title>Node22&#45;&gt;Node23</title>
<path fill="none" stroke="midnightblue" d="M337.066,-701.5C345.654,-701.5 354.336,-701.5 362.808,-701.5"/>
<polygon fill="midnightblue" stroke="midnightblue" points="337.045,-698 327.044,-701.5 337.044,-705 337.045,-698"/>
</g>
<!-- Node24 -->
<g id="node24" class="node"><title>Node24</title>
<g id="a_node24"><a xlink:href="class_igor_1_1i_user_control_color_chooser.html#a96622ba2d22cca146b1bea3648b1f9cd" target="_top" xlink:title="Igor::iUserControlColorChooser\l::onSliderChangedS">
<polygon fill="white" stroke="black" points="363,-637.5 363,-667.5 513,-667.5 513,-637.5 363,-637.5"/>
<text text-anchor="start" x="371" y="-655.5" font-family="Helvetica,sans-Serif" font-size="10.00">Igor::iUserControlColorChooser</text>
<text text-anchor="middle" x="438" y="-644.5" font-family="Helvetica,sans-Serif" font-size="10.00">::onSliderChangedS</text>
</a>
</g>
</g>
<!-- Node22&#45;&gt;Node24 -->
<g id="edge49" class="edge"><title>Node22&#45;&gt;Node24</title>
<path fill="none" stroke="midnightblue" d="M319.176,-683.877C339.306,-678.516 361.232,-672.677 380.65,-667.506"/>
<polygon fill="midnightblue" stroke="midnightblue" points="318.219,-680.51 309.457,-686.465 320.02,-687.274 318.219,-680.51"/>
</g>
<!-- Node25 -->
<g id="node25" class="node"><title>Node25</title>
<g id="a_node25"><a xlink:href="class_igor_1_1i_user_control_color_chooser.html#a57a2f6b807ea3c83fa25507a84f7f9b3" target="_top" xlink:title="Igor::iUserControlColorChooser\l::onSliderChangedV">
<polygon fill="white" stroke="black" points="363,-588.5 363,-618.5 513,-618.5 513,-588.5 363,-588.5"/>
<text text-anchor="start" x="371" y="-606.5" font-family="Helvetica,sans-Serif" font-size="10.00">Igor::iUserControlColorChooser</text>
<text text-anchor="middle" x="438" y="-595.5" font-family="Helvetica,sans-Serif" font-size="10.00">::onSliderChangedV</text>
</a>
</g>
</g>
<!-- Node22&#45;&gt;Node25 -->
<g id="edge51" class="edge"><title>Node22&#45;&gt;Node25</title>
<path fill="none" stroke="midnightblue" d="M279.887,-680.286C301.4,-664.104 332.854,-642.171 363,-627.5 369.679,-624.25 376.904,-621.288 384.132,-618.641"/>
<polygon fill="midnightblue" stroke="midnightblue" points="277.703,-677.55 271.872,-686.396 281.947,-683.117 277.703,-677.55"/>
</g>
<!-- Node23&#45;&gt;Node18 -->
<g id="edge48" class="edge"><title>Node23&#45;&gt;Node18</title>
<path fill="none" stroke="midnightblue" d="M510.141,-680.278C511.13,-679.389 512.084,-678.464 513,-677.5 569.717,-617.784 611.244,-349.831 620.874,-282.759"/>
<polygon fill="midnightblue" stroke="midnightblue" points="507.874,-677.602 501.95,-686.386 512.059,-683.213 507.874,-677.602"/>
</g>
<!-- Node24&#45;&gt;Node18 -->
<g id="edge50" class="edge"><title>Node24&#45;&gt;Node18</title>
<path fill="none" stroke="midnightblue" d="M508.5,-631.627C510.078,-630.333 511.583,-628.959 513,-627.5 612.029,-525.531 622.188,-336.969 623.004,-282.559"/>
<polygon fill="midnightblue" stroke="midnightblue" points="506.31,-628.886 500.074,-637.451 510.29,-634.644 506.31,-628.886"/>
</g>
<!-- Node25&#45;&gt;Node18 -->
<g id="edge52" class="edge"><title>Node25&#45;&gt;Node18</title>
<path fill="none" stroke="midnightblue" d="M507.883,-582.962C509.679,-581.571 511.392,-580.086 513,-578.5 600.478,-492.252 618.589,-332.196 622.162,-282.569"/>
<polygon fill="midnightblue" stroke="midnightblue" points="505.949,-580.045 499.536,-588.478 509.809,-585.885 505.949,-580.045"/>
</g>
</g>
</svg>
