<?xml version="1.0" encoding="UTF-8" standalone="no"?>
<!DOCTYPE svg PUBLIC "-//W3C//DTD SVG 1.1//EN"
 "http://www.w3.org/Graphics/SVG/1.1/DTD/svg11.dtd">
<!-- Generated by graphviz version 2.38.0 (20140413.2041)
 -->
<!-- Title: Igor::iMeshBuilder::setColor Pages: 1 -->
<svg width="234pt" height="39pt"
 viewBox="0.00 0.00 234.00 39.00" xmlns="http://www.w3.org/2000/svg" xmlns:xlink="http://www.w3.org/1999/xlink">
<g id="graph0" class="graph" transform="scale(1 1) rotate(0) translate(4 35)">
<title>Igor::iMeshBuilder::setColor</title>
<polygon fill="white" stroke="none" points="-4,4 -4,-35 230,-35 230,4 -4,4"/>
<!-- Node1 -->
<g id="node1" class="node"><title>Node1</title>
<polygon fill="#bfbfbf" stroke="black" points="0,-0.5 0,-30.5 95,-30.5 95,-0.5 0,-0.5"/>
<text text-anchor="start" x="8" y="-18.5" font-family="Helvetica,sans-Serif" font-size="10.00">Igor::iMeshBuilder</text>
<text text-anchor="middle" x="47.5" y="-7.5" font-family="Helvetica,sans-Serif" font-size="10.00">::setColor</text>
</g>
<!-- Node2 -->
<g id="node2" class="node"><title>Node2</title>
<g id="a_node2"><a xlink:href="class_igor_1_1i_mesh_builder.html#a9d4d79a661205452e7d6c8cb21832869" target="_top" xlink:title="Igor::iMeshBuilder\l::copyTriangles">
<polygon fill="white" stroke="black" points="131,-0.5 131,-30.5 226,-30.5 226,-0.5 131,-0.5"/>
<text text-anchor="start" x="139" y="-18.5" font-family="Helvetica,sans-Serif" font-size="10.00">Igor::iMeshBuilder</text>
<text text-anchor="middle" x="178.5" y="-7.5" font-family="Helvetica,sans-Serif" font-size="10.00">::copyTriangles</text>
</a>
</g>
</g>
<!-- Node1&#45;&gt;Node2 -->
<g id="edge1" class="edge"><title>Node1&#45;&gt;Node2</title>
<path fill="none" stroke="midnightblue" d="M105.101,-15.5C113.752,-15.5 122.596,-15.5 130.996,-15.5"/>
<polygon fill="midnightblue" stroke="midnightblue" points="105.072,-12.0001 95.072,-15.5 105.072,-19.0001 105.072,-12.0001"/>
</g>
</g>
</svg>
