<?xml version="1.0" encoding="UTF-8" standalone="no"?>
<!DOCTYPE svg PUBLIC "-//W3C//DTD SVG 1.1//EN"
 "http://www.w3.org/Graphics/SVG/1.1/DTD/svg11.dtd">
<!-- Generated by graphviz version 2.38.0 (20140413.2041)
 -->
<!-- Title: Igor::iWidgetGrid::removeWidget Pages: 1 -->
<svg width="638pt" height="165pt"
 viewBox="0.00 0.00 638.00 164.50" xmlns="http://www.w3.org/2000/svg" xmlns:xlink="http://www.w3.org/1999/xlink">
<g id="graph0" class="graph" transform="scale(1 1) rotate(0) translate(4 160.5)">
<title>Igor::iWidgetGrid::removeWidget</title>
<polygon fill="white" stroke="none" points="-4,4 -4,-160.5 634,-160.5 634,4 -4,4"/>
<!-- Node1 -->
<g id="node1" class="node"><title>Node1</title>
<polygon fill="#bfbfbf" stroke="black" points="0,-30 0,-60 95,-60 95,-30 0,-30"/>
<text text-anchor="start" x="8" y="-48" font-family="Helvetica,sans-Serif" font-size="10.00">Igor::iWidgetGrid::</text>
<text text-anchor="middle" x="47.5" y="-37" font-family="Helvetica,sans-Serif" font-size="10.00">removeWidget</text>
</g>
<!-- Node2 -->
<g id="node2" class="node"><title>Node2</title>
<g id="a_node2"><a xlink:href="class_igor_1_1i_user_control_color_chooser.html#a82993876e647753d5b1b6ab29e1ddc44" target="_top" xlink:title="Igor::iUserControlColorChooser\l::updateMode">
<polygon fill="white" stroke="black" points="131,-55 131,-85 281,-85 281,-55 131,-55"/>
<text text-anchor="start" x="139" y="-73" font-family="Helvetica,sans-Serif" font-size="10.00">Igor::iUserControlColorChooser</text>
<text text-anchor="middle" x="206" y="-62" font-family="Helvetica,sans-Serif" font-size="10.00">::updateMode</text>
</a>
</g>
</g>
<!-- Node1&#45;&gt;Node2 -->
<g id="edge1" class="edge"><title>Node1&#45;&gt;Node2</title>
<path fill="none" stroke="midnightblue" d="M105.034,-54.031C113.404,-55.3681 122.135,-56.7627 130.799,-58.1468"/>
<polygon fill="midnightblue" stroke="midnightblue" points="105.458,-50.5545 95.0314,-52.4331 104.354,-57.4668 105.458,-50.5545"/>
</g>
<!-- Node8 -->
<g id="node8" class="node"><title>Node8</title>
<g id="a_node8"><a xlink:href="class_igor_1_1i_user_control_color_chooser.html#a7f9a58905ee7aa70a01758c5b63a44fe" target="_top" xlink:title="Igor::iUserControlColorChooser\l::setHeadlineVisible">
<polygon fill="white" stroke="black" points="131,-6 131,-36 281,-36 281,-6 131,-6"/>
<text text-anchor="start" x="139" y="-24" font-family="Helvetica,sans-Serif" font-size="10.00">Igor::iUserControlColorChooser</text>
<text text-anchor="middle" x="206" y="-13" font-family="Helvetica,sans-Serif" font-size="10.00">::setHeadlineVisible</text>
</a>
</g>
</g>
<!-- Node1&#45;&gt;Node8 -->
<g id="edge7" class="edge"><title>Node1&#45;&gt;Node8</title>
<path fill="none" stroke="midnightblue" d="M105.034,-36.3302C113.404,-35.0466 122.135,-33.7078 130.799,-32.3791"/>
<polygon fill="midnightblue" stroke="midnightblue" points="104.385,-32.8887 95.0314,-37.8642 105.446,-39.8078 104.385,-32.8887"/>
</g>
<!-- Node3 -->
<g id="node3" class="node"><title>Node3</title>
<g id="a_node3"><a xlink:href="class_igor_1_1i_user_control_color_chooser.html#a4265efe2599790df4dfada25be58b95f" target="_top" xlink:title="Igor::iUserControlColorChooser\l::setMode">
<polygon fill="white" stroke="black" points="317,-55 317,-85 467,-85 467,-55 317,-55"/>
<text text-anchor="start" x="325" y="-73" font-family="Helvetica,sans-Serif" font-size="10.00">Igor::iUserControlColorChooser</text>
<text text-anchor="middle" x="392" y="-62" font-family="Helvetica,sans-Serif" font-size="10.00">::setMode</text>
</a>
</g>
</g>
<!-- Node2&#45;&gt;Node3 -->
<g id="edge2" class="edge"><title>Node2&#45;&gt;Node3</title>
<path fill="none" stroke="midnightblue" d="M291.066,-70C299.654,-70 308.336,-70 316.808,-70"/>
<polygon fill="midnightblue" stroke="midnightblue" points="291.045,-66.5001 281.044,-70 291.044,-73.5001 291.045,-66.5001"/>
</g>
<!-- Node4 -->
<g id="node4" class="node"><title>Node4</title>
<g id="a_node4"><a xlink:href="class_igor_1_1i_dialog_color_chooser.html#a478dcc24d00c3433a4139cd42faca383" target="_top" xlink:title="Igor::iDialogColorChooser\l::initGUI">
<polygon fill="white" stroke="black" points="503.5,-126 503.5,-156 629.5,-156 629.5,-126 503.5,-126"/>
<text text-anchor="start" x="511.5" y="-144" font-family="Helvetica,sans-Serif" font-size="10.00">Igor::iDialogColorChooser</text>
<text text-anchor="middle" x="566.5" y="-133" font-family="Helvetica,sans-Serif" font-size="10.00">::initGUI</text>
</a>
</g>
</g>
<!-- Node3&#45;&gt;Node4 -->
<g id="edge3" class="edge"><title>Node3&#45;&gt;Node4</title>
<path fill="none" stroke="midnightblue" d="M436.761,-89.1395C456.867,-97.8192 481.069,-108.108 503,-117 510.325,-119.97 518.168,-123.055 525.737,-125.986"/>
<polygon fill="midnightblue" stroke="midnightblue" points="438.109,-85.9093 427.542,-85.1486 435.328,-92.3333 438.109,-85.9093"/>
</g>
<!-- Node5 -->
<g id="node5" class="node"><title>Node5</title>
<g id="a_node5"><a xlink:href="class_igor_1_1i_dialog_color_gradient.html#a1c09eeb174db894a5e755b8ef13e914f" target="_top" xlink:title="Igor::iDialogColorGradient\l::initGUI">
<polygon fill="white" stroke="black" points="503,-77 503,-107 630,-107 630,-77 503,-77"/>
<text text-anchor="start" x="511" y="-95" font-family="Helvetica,sans-Serif" font-size="10.00">Igor::iDialogColorGradient</text>
<text text-anchor="middle" x="566.5" y="-84" font-family="Helvetica,sans-Serif" font-size="10.00">::initGUI</text>
</a>
</g>
</g>
<!-- Node3&#45;&gt;Node5 -->
<g id="edge4" class="edge"><title>Node3&#45;&gt;Node5</title>
<path fill="none" stroke="midnightblue" d="M477.226,-80.7419C485.832,-81.8394 494.465,-82.9404 502.781,-84.0011"/>
<polygon fill="midnightblue" stroke="midnightblue" points="477.519,-77.251 467.157,-79.4577 476.633,-84.1947 477.519,-77.251"/>
</g>
<!-- Node6 -->
<g id="node6" class="node"><title>Node6</title>
<g id="a_node6"><a xlink:href="class_user_control_light.html#acae8309ee66f4ae0ffd058cc83580311" target="_top" xlink:title="UserControlLight::initGUI">
<polygon fill="white" stroke="black" points="504.5,-38.5 504.5,-57.5 628.5,-57.5 628.5,-38.5 504.5,-38.5"/>
<text text-anchor="middle" x="566.5" y="-45.5" font-family="Helvetica,sans-Serif" font-size="10.00">UserControlLight::initGUI</text>
</a>
</g>
</g>
<!-- Node3&#45;&gt;Node6 -->
<g id="edge5" class="edge"><title>Node3&#45;&gt;Node6</title>
<path fill="none" stroke="midnightblue" d="M477.105,-59.2735C486.304,-58.1004 495.535,-56.9231 504.379,-55.7951"/>
<polygon fill="midnightblue" stroke="midnightblue" points="476.633,-55.8053 467.157,-60.5423 477.519,-62.749 476.633,-55.8053"/>
</g>
<!-- Node7 -->
<g id="node7" class="node"><title>Node7</title>
<g id="a_node7"><a xlink:href="class_user_control_mesh.html#a792507fb628b4b4ead5787f60ec6e2e2" target="_top" xlink:title="UserControlMesh::initGUI">
<polygon fill="white" stroke="black" points="503,-0.5 503,-19.5 630,-19.5 630,-0.5 503,-0.5"/>
<text text-anchor="middle" x="566.5" y="-7.5" font-family="Helvetica,sans-Serif" font-size="10.00">UserControlMesh::initGUI</text>
</a>
</g>
</g>
<!-- Node3&#45;&gt;Node7 -->
<g id="edge6" class="edge"><title>Node3&#45;&gt;Node7</title>
<path fill="none" stroke="midnightblue" d="M440.918,-51.4079C460.124,-44.1481 482.519,-35.9227 503,-29 512.562,-25.768 523.03,-22.4868 532.617,-19.5813"/>
<polygon fill="midnightblue" stroke="midnightblue" points="439.586,-48.1699 431.481,-54.9939 442.073,-54.7133 439.586,-48.1699"/>
</g>
</g>
</svg>
