<?xml version="1.0" encoding="UTF-8" standalone="no"?>
<!DOCTYPE svg PUBLIC "-//W3C//DTD SVG 1.1//EN"
 "http://www.w3.org/Graphics/SVG/1.1/DTD/svg11.dtd">
<!-- Generated by graphviz version 2.38.0 (20140413.2041)
 -->
<!-- Title: Igor::iWidgetTextEdit::handleChanges Pages: 1 -->
<svg width="289pt" height="137pt"
 viewBox="0.00 0.00 289.00 137.00" xmlns="http://www.w3.org/2000/svg" xmlns:xlink="http://www.w3.org/1999/xlink">
<g id="graph0" class="graph" transform="scale(1 1) rotate(0) translate(4 133)">
<title>Igor::iWidgetTextEdit::handleChanges</title>
<polygon fill="white" stroke="none" points="-4,4 -4,-133 285,-133 285,4 -4,4"/>
<!-- Node66 -->
<g id="node1" class="node"><title>Node66</title>
<g id="a_node1"><a xlink:title=" ">
<polygon fill="#bfbfbf" stroke="black" points="174,-49.5 174,-79.5 281,-79.5 281,-49.5 174,-49.5"/>
<text text-anchor="start" x="182" y="-67.5" font-family="Helvetica,sans-Serif" font-size="10.00">Igor::iWidgetTextEdit</text>
<text text-anchor="middle" x="227.5" y="-56.5" font-family="Helvetica,sans-Serif" font-size="10.00">::handleChanges</text>
</a>
</g>
</g>
<!-- Node67 -->
<g id="node2" class="node"><title>Node67</title>
<g id="a_node2"><a xlink:href="class_igor_1_1i_widget_text_edit.html#ae33a89c07b2be35b46652624a3a76348" target="_top" xlink:title=" ">
<polygon fill="white" stroke="black" points="15.5,-98.5 15.5,-128.5 122.5,-128.5 122.5,-98.5 15.5,-98.5"/>
<text text-anchor="start" x="23.5" y="-116.5" font-family="Helvetica,sans-Serif" font-size="10.00">Igor::iWidgetTextEdit</text>
<text text-anchor="middle" x="69" y="-105.5" font-family="Helvetica,sans-Serif" font-size="10.00">::handleASCII</text>
</a>
</g>
</g>
<!-- Node66&#45;&gt;Node67 -->
<g id="edge1" class="edge"><title>Node66&#45;&gt;Node67</title>
<path fill="none" stroke="midnightblue" d="M168.65,-82.6129C152.012,-87.8222 134.051,-93.4457 118.073,-98.4484"/>
<polygon fill="midnightblue" stroke="midnightblue" points="169.77,-85.9296 178.268,-79.6014 167.679,-79.2494 169.77,-85.9296"/>
</g>
<!-- Node68 -->
<g id="node3" class="node"><title>Node68</title>
<g id="a_node3"><a xlink:href="class_igor_1_1i_widget_text_edit.html#a8dc55fe820b437af2e7fd8bf625379d7" target="_top" xlink:title=" ">
<polygon fill="white" stroke="black" points="15.5,-49.5 15.5,-79.5 122.5,-79.5 122.5,-49.5 15.5,-49.5"/>
<text text-anchor="start" x="23.5" y="-67.5" font-family="Helvetica,sans-Serif" font-size="10.00">Igor::iWidgetTextEdit</text>
<text text-anchor="middle" x="69" y="-56.5" font-family="Helvetica,sans-Serif" font-size="10.00">::handleKeyDown</text>
</a>
</g>
</g>
<!-- Node66&#45;&gt;Node68 -->
<g id="edge2" class="edge"><title>Node66&#45;&gt;Node68</title>
<path fill="none" stroke="midnightblue" d="M163.704,-64.5C150.098,-64.5 135.844,-64.5 122.675,-64.5"/>
<polygon fill="midnightblue" stroke="midnightblue" points="163.952,-68.0001 173.952,-64.5 163.952,-61.0001 163.952,-68.0001"/>
</g>
<!-- Node69 -->
<g id="node4" class="node"><title>Node69</title>
<g id="a_node4"><a xlink:href="class_igor_1_1i_widget_text_edit.html#a2a5406b9e3ce9f6903520572e1521c62" target="_top" xlink:title=" ">
<polygon fill="white" stroke="black" points="0,-0.5 0,-30.5 138,-30.5 138,-0.5 0,-0.5"/>
<text text-anchor="start" x="8" y="-18.5" font-family="Helvetica,sans-Serif" font-size="10.00">Igor::iWidgetTextEdit</text>
<text text-anchor="middle" x="69" y="-7.5" font-family="Helvetica,sans-Serif" font-size="10.00">::handleLostKeyboardFocus</text>
</a>
</g>
</g>
<!-- Node66&#45;&gt;Node69 -->
<g id="edge3" class="edge"><title>Node66&#45;&gt;Node69</title>
<path fill="none" stroke="midnightblue" d="M168.65,-46.3871C152.012,-41.1778 134.051,-35.5543 118.073,-30.5516"/>
<polygon fill="midnightblue" stroke="midnightblue" points="167.679,-49.7506 178.268,-49.3986 169.77,-43.0704 167.679,-49.7506"/>
</g>
</g>
</svg>
