<?xml version="1.0" encoding="UTF-8" standalone="no"?>
<!DOCTYPE svg PUBLIC "-//W3C//DTD SVG 1.1//EN"
 "http://www.w3.org/Graphics/SVG/1.1/DTD/svg11.dtd">
<!-- Generated by graphviz version 2.38.0 (20140413.2041)
 -->
<!-- Title: UserControlLight::initGUI Pages: 1 -->
<svg width="671pt" height="333pt"
 viewBox="0.00 0.00 671.00 333.00" xmlns="http://www.w3.org/2000/svg" xmlns:xlink="http://www.w3.org/1999/xlink">
<g id="graph0" class="graph" transform="scale(1 1) rotate(0) translate(4 329)">
<title>UserControlLight::initGUI</title>
<polygon fill="white" stroke="none" points="-4,4 -4,-329 667,-329 667,4 -4,4"/>
<!-- Node1 -->
<g id="node1" class="node"><title>Node1</title>
<polygon fill="#bfbfbf" stroke="black" points="0,-153 0,-172 124,-172 124,-153 0,-153"/>
<text text-anchor="middle" x="62" y="-160" font-family="Helvetica,sans-Serif" font-size="10.00">UserControlLight::initGUI</text>
</g>
<!-- Node2 -->
<g id="node2" class="node"><title>Node2</title>
<g id="a_node2"><a xlink:href="class_igor_aux_1_1ia_singleton.html#a821f1d891129e6d09b992be81094540e" target="_top" xlink:title="IgorAux::iaSingleton\l\&lt; iWidgetManager \&gt;::getInstance">
<polygon fill="white" stroke="black" points="160,-294.5 160,-324.5 321,-324.5 321,-294.5 160,-294.5"/>
<text text-anchor="start" x="168" y="-312.5" font-family="Helvetica,sans-Serif" font-size="10.00">IgorAux::iaSingleton</text>
<text text-anchor="middle" x="240.5" y="-301.5" font-family="Helvetica,sans-Serif" font-size="10.00">&lt; iWidgetManager &gt;::getInstance</text>
</a>
</g>
</g>
<!-- Node1&#45;&gt;Node2 -->
<g id="edge1" class="edge"><title>Node1&#45;&gt;Node2</title>
<path fill="none" stroke="midnightblue" d="M67.8848,-172.136C80.1157,-195.286 114.377,-254.414 160,-285.5 162.267,-287.045 164.637,-288.493 167.081,-289.85"/>
<polygon fill="midnightblue" stroke="midnightblue" points="165.694,-293.068 176.208,-294.374 168.803,-286.796 165.694,-293.068"/>
</g>
<!-- Node3 -->
<g id="node3" class="node"><title>Node3</title>
<g id="a_node3"><a xlink:href="class_igor_1_1i_widget_manager.html#a6bd957c51cc937fa860f9e2be73f3d27" target="_top" xlink:title="Igor::iWidgetManager\l::createWidget">
<polygon fill="white" stroke="black" points="186,-245.5 186,-275.5 295,-275.5 295,-245.5 186,-245.5"/>
<text text-anchor="start" x="194" y="-263.5" font-family="Helvetica,sans-Serif" font-size="10.00">Igor::iWidgetManager</text>
<text text-anchor="middle" x="240.5" y="-252.5" font-family="Helvetica,sans-Serif" font-size="10.00">::createWidget</text>
</a>
</g>
</g>
<!-- Node1&#45;&gt;Node3 -->
<g id="edge2" class="edge"><title>Node1&#45;&gt;Node3</title>
<path fill="none" stroke="midnightblue" d="M72.9224,-172.051C89.6091,-187.631 124.918,-218.572 160,-236.5 165.181,-239.148 170.705,-241.557 176.334,-243.738"/>
<polygon fill="midnightblue" stroke="midnightblue" points="175.271,-247.075 185.865,-247.193 177.657,-240.494 175.271,-247.075"/>
</g>
<!-- Node7 -->
<g id="node7" class="node"><title>Node7</title>
<g id="a_node7"><a xlink:href="class_igor_1_1i_widget_grid.html#ada59fc39c0e1f9b6b6b1d244b022e4cf" target="_top" xlink:title="Igor::iWidgetGrid::\lappendRows">
<polygon fill="white" stroke="black" points="193,-196.5 193,-226.5 288,-226.5 288,-196.5 193,-196.5"/>
<text text-anchor="start" x="201" y="-214.5" font-family="Helvetica,sans-Serif" font-size="10.00">Igor::iWidgetGrid::</text>
<text text-anchor="middle" x="240.5" y="-203.5" font-family="Helvetica,sans-Serif" font-size="10.00">appendRows</text>
</a>
</g>
</g>
<!-- Node1&#45;&gt;Node7 -->
<g id="edge6" class="edge"><title>Node1&#45;&gt;Node7</title>
<path fill="none" stroke="midnightblue" d="M97.45,-172.064C121.77,-178.816 154.904,-188.015 183.055,-195.83"/>
<polygon fill="midnightblue" stroke="midnightblue" points="182.209,-199.227 192.781,-198.53 184.082,-192.482 182.209,-199.227"/>
</g>
<!-- Node8 -->
<g id="node8" class="node"><title>Node8</title>
<g id="a_node8"><a xlink:href="class_igor_1_1i_user_control_color_chooser.html#a4265efe2599790df4dfada25be58b95f" target="_top" xlink:title="Igor::iUserControlColorChooser\l::setMode">
<polygon fill="white" stroke="black" points="165.5,-147.5 165.5,-177.5 315.5,-177.5 315.5,-147.5 165.5,-147.5"/>
<text text-anchor="start" x="173.5" y="-165.5" font-family="Helvetica,sans-Serif" font-size="10.00">Igor::iUserControlColorChooser</text>
<text text-anchor="middle" x="240.5" y="-154.5" font-family="Helvetica,sans-Serif" font-size="10.00">::setMode</text>
</a>
</g>
</g>
<!-- Node1&#45;&gt;Node8 -->
<g id="edge7" class="edge"><title>Node1&#45;&gt;Node8</title>
<path fill="none" stroke="midnightblue" d="M124.236,-162.5C134.271,-162.5 144.822,-162.5 155.296,-162.5"/>
<polygon fill="midnightblue" stroke="midnightblue" points="155.297,-166 165.296,-162.5 155.296,-159 155.297,-166"/>
</g>
<!-- Node14 -->
<g id="node14" class="node"><title>Node14</title>
<g id="a_node14"><a xlink:href="class_user_control_light.html#a30779df69b9c358a0977ff730eba0c56" target="_top" xlink:title="UserControlLight::onAmbient\lChange">
<polygon fill="white" stroke="black" points="170,-98.5 170,-128.5 311,-128.5 311,-98.5 170,-98.5"/>
<text text-anchor="start" x="178" y="-116.5" font-family="Helvetica,sans-Serif" font-size="10.00">UserControlLight::onAmbient</text>
<text text-anchor="middle" x="240.5" y="-105.5" font-family="Helvetica,sans-Serif" font-size="10.00">Change</text>
</a>
</g>
</g>
<!-- Node1&#45;&gt;Node14 -->
<g id="edge13" class="edge"><title>Node1&#45;&gt;Node14</title>
<path fill="none" stroke="midnightblue" d="M97.45,-152.936C119.6,-146.787 149.063,-138.607 175.412,-131.292"/>
<polygon fill="midnightblue" stroke="midnightblue" points="176.637,-134.585 185.336,-128.537 174.764,-127.84 176.637,-134.585"/>
</g>
<!-- Node15 -->
<g id="node15" class="node"><title>Node15</title>
<g id="a_node15"><a xlink:href="class_user_control_light.html#a9324146b1586470c32fccd2bf9478467" target="_top" xlink:title="UserControlLight::onDiffuse\lChange">
<polygon fill="white" stroke="black" points="173.5,-49.5 173.5,-79.5 307.5,-79.5 307.5,-49.5 173.5,-49.5"/>
<text text-anchor="start" x="181.5" y="-67.5" font-family="Helvetica,sans-Serif" font-size="10.00">UserControlLight::onDiffuse</text>
<text text-anchor="middle" x="240.5" y="-56.5" font-family="Helvetica,sans-Serif" font-size="10.00">Change</text>
</a>
</g>
</g>
<!-- Node1&#45;&gt;Node15 -->
<g id="edge14" class="edge"><title>Node1&#45;&gt;Node15</title>
<path fill="none" stroke="midnightblue" d="M73.2431,-152.883C90.109,-137.513 125.324,-107.329 160,-89.5 164.278,-87.3002 168.786,-85.2502 173.393,-83.348"/>
<polygon fill="midnightblue" stroke="midnightblue" points="174.88,-86.5251 182.942,-79.6507 172.353,-79.9973 174.88,-86.5251"/>
</g>
<!-- Node16 -->
<g id="node16" class="node"><title>Node16</title>
<g id="a_node16"><a xlink:href="class_user_control_light.html#a0b075fefffb0e54073d9f9c2ab5559ee" target="_top" xlink:title="UserControlLight::onSpecular\lChange">
<polygon fill="white" stroke="black" points="169,-0.5 169,-30.5 312,-30.5 312,-0.5 169,-0.5"/>
<text text-anchor="start" x="177" y="-18.5" font-family="Helvetica,sans-Serif" font-size="10.00">UserControlLight::onSpecular</text>
<text text-anchor="middle" x="240.5" y="-7.5" font-family="Helvetica,sans-Serif" font-size="10.00">Change</text>
</a>
</g>
</g>
<!-- Node1&#45;&gt;Node16 -->
<g id="edge15" class="edge"><title>Node1&#45;&gt;Node16</title>
<path fill="none" stroke="midnightblue" d="M67.9292,-152.977C80.2585,-130.091 114.722,-71.6008 160,-40.5 162.89,-38.5148 165.946,-36.6814 169.109,-34.9888"/>
<polygon fill="midnightblue" stroke="midnightblue" points="170.77,-38.0736 178.263,-30.5828 167.735,-31.7662 170.77,-38.0736"/>
</g>
<!-- Node4 -->
<g id="node4" class="node"><title>Node4</title>
<g id="a_node4"><a xlink:href="class_igor_aux_1_1ia_string.html#a7bed20819f1376bd433892feeefdc05c" target="_top" xlink:title="IgorAux::iaString::\lgetHashValue">
<polygon fill="white" stroke="black" points="384.5,-274.5 384.5,-304.5 479.5,-304.5 479.5,-274.5 384.5,-274.5"/>
<text text-anchor="start" x="392.5" y="-292.5" font-family="Helvetica,sans-Serif" font-size="10.00">IgorAux::iaString::</text>
<text text-anchor="middle" x="432" y="-281.5" font-family="Helvetica,sans-Serif" font-size="10.00">getHashValue</text>
</a>
</g>
</g>
<!-- Node3&#45;&gt;Node4 -->
<g id="edge3" class="edge"><title>Node3&#45;&gt;Node4</title>
<path fill="none" stroke="midnightblue" d="M295.043,-268.694C319.765,-272.477 349.135,-276.972 374.241,-280.814"/>
<polygon fill="midnightblue" stroke="midnightblue" points="373.937,-284.308 384.352,-282.361 374.996,-277.389 373.937,-284.308"/>
</g>
<!-- Node6 -->
<g id="node6" class="node"><title>Node6</title>
<g id="a_node6"><a xlink:href="class_igor_1_1i_widget.html#aa0816e0911fd5d21a7aed3b9f27bc118" target="_top" xlink:title="Igor::iWidget::getID">
<polygon fill="white" stroke="black" points="382,-236 382,-255 482,-255 482,-236 382,-236"/>
<text text-anchor="middle" x="432" y="-243" font-family="Helvetica,sans-Serif" font-size="10.00">Igor::iWidget::getID</text>
</a>
</g>
</g>
<!-- Node3&#45;&gt;Node6 -->
<g id="edge5" class="edge"><title>Node3&#45;&gt;Node6</title>
<path fill="none" stroke="midnightblue" d="M295.043,-256.262C318.889,-254.374 347.06,-252.144 371.556,-250.205"/>
<polygon fill="midnightblue" stroke="midnightblue" points="372.114,-253.672 381.807,-249.394 371.562,-246.694 372.114,-253.672"/>
</g>
<!-- Node5 -->
<g id="node5" class="node"><title>Node5</title>
<g id="a_node5"><a xlink:href="class_igor_aux_1_1ia_string.html#a527c422c83c563c834a12548728e625d" target="_top" xlink:title="IgorAux::iaString::\lgetData">
<polygon fill="white" stroke="black" points="555.5,-274.5 555.5,-304.5 650.5,-304.5 650.5,-274.5 555.5,-274.5"/>
<text text-anchor="start" x="563.5" y="-292.5" font-family="Helvetica,sans-Serif" font-size="10.00">IgorAux::iaString::</text>
<text text-anchor="middle" x="603" y="-281.5" font-family="Helvetica,sans-Serif" font-size="10.00">getData</text>
</a>
</g>
</g>
<!-- Node4&#45;&gt;Node5 -->
<g id="edge4" class="edge"><title>Node4&#45;&gt;Node5</title>
<path fill="none" stroke="midnightblue" d="M479.627,-289.5C499.862,-289.5 523.75,-289.5 545.025,-289.5"/>
<polygon fill="midnightblue" stroke="midnightblue" points="545.232,-293 555.232,-289.5 545.232,-286 545.232,-293"/>
</g>
<!-- Node9 -->
<g id="node9" class="node"><title>Node9</title>
<g id="a_node9"><a xlink:href="class_igor_1_1i_user_control_color_chooser.html#a82993876e647753d5b1b6ab29e1ddc44" target="_top" xlink:title="Igor::iUserControlColorChooser\l::updateMode">
<polygon fill="white" stroke="black" points="357,-147.5 357,-177.5 507,-177.5 507,-147.5 357,-147.5"/>
<text text-anchor="start" x="365" y="-165.5" font-family="Helvetica,sans-Serif" font-size="10.00">Igor::iUserControlColorChooser</text>
<text text-anchor="middle" x="432" y="-154.5" font-family="Helvetica,sans-Serif" font-size="10.00">::updateMode</text>
</a>
</g>
</g>
<!-- Node8&#45;&gt;Node9 -->
<g id="edge8" class="edge"><title>Node8&#45;&gt;Node9</title>
<path fill="none" stroke="midnightblue" d="M315.58,-162.5C325.779,-162.5 336.314,-162.5 346.68,-162.5"/>
<polygon fill="midnightblue" stroke="midnightblue" points="346.972,-166 356.972,-162.5 346.972,-159 346.972,-166"/>
</g>
<!-- Node10 -->
<g id="node10" class="node"><title>Node10</title>
<g id="a_node10"><a xlink:href="class_igor_1_1i_widget.html#adb7456467172baf4989672b6cf489646" target="_top" xlink:title="Igor::iWidget::setActive">
<polygon fill="white" stroke="black" points="544.5,-221 544.5,-240 661.5,-240 661.5,-221 544.5,-221"/>
<text text-anchor="middle" x="603" y="-228" font-family="Helvetica,sans-Serif" font-size="10.00">Igor::iWidget::setActive</text>
</a>
</g>
</g>
<!-- Node9&#45;&gt;Node10 -->
<g id="edge9" class="edge"><title>Node9&#45;&gt;Node10</title>
<path fill="none" stroke="midnightblue" d="M464.392,-177.565C486.194,-187.76 516.053,-201.194 543,-211.5 548.602,-213.643 554.561,-215.753 560.456,-217.743"/>
<polygon fill="midnightblue" stroke="midnightblue" points="559.65,-221.163 570.243,-220.964 561.839,-214.513 559.65,-221.163"/>
</g>
<!-- Node11 -->
<g id="node11" class="node"><title>Node11</title>
<g id="a_node11"><a xlink:href="class_igor_1_1i_widget.html#ad472fb1c49ee592a16d50ebb36d7b18a" target="_top" xlink:title="Igor::iWidget::setVisible">
<polygon fill="white" stroke="black" points="543,-183 543,-202 663,-202 663,-183 543,-183"/>
<text text-anchor="middle" x="603" y="-190" font-family="Helvetica,sans-Serif" font-size="10.00">Igor::iWidget::setVisible</text>
</a>
</g>
</g>
<!-- Node9&#45;&gt;Node11 -->
<g id="edge10" class="edge"><title>Node9&#45;&gt;Node11</title>
<path fill="none" stroke="midnightblue" d="M507.126,-175.658C517.502,-177.5 528.091,-179.38 538.252,-181.184"/>
<polygon fill="midnightblue" stroke="midnightblue" points="537.79,-184.656 548.248,-182.958 539.014,-177.764 537.79,-184.656"/>
</g>
<!-- Node12 -->
<g id="node12" class="node"><title>Node12</title>
<g id="a_node12"><a xlink:href="class_igor_1_1i_widget_grid.html#a764137d148d8977d459c6ea0635eadeb" target="_top" xlink:title="Igor::iWidgetGrid::\laddWidget">
<polygon fill="white" stroke="black" points="555.5,-133.5 555.5,-163.5 650.5,-163.5 650.5,-133.5 555.5,-133.5"/>
<text text-anchor="start" x="563.5" y="-151.5" font-family="Helvetica,sans-Serif" font-size="10.00">Igor::iWidgetGrid::</text>
<text text-anchor="middle" x="603" y="-140.5" font-family="Helvetica,sans-Serif" font-size="10.00">addWidget</text>
</a>
</g>
</g>
<!-- Node9&#45;&gt;Node12 -->
<g id="edge11" class="edge"><title>Node9&#45;&gt;Node12</title>
<path fill="none" stroke="midnightblue" d="M507.126,-156.359C519.875,-155.303 532.943,-154.221 545.148,-153.21"/>
<polygon fill="midnightblue" stroke="midnightblue" points="545.493,-156.693 555.17,-152.379 544.915,-149.717 545.493,-156.693"/>
</g>
<!-- Node13 -->
<g id="node13" class="node"><title>Node13</title>
<g id="a_node13"><a xlink:href="class_igor_1_1i_widget_grid.html#acd624f735fbacd5f01310f5155472ce7" target="_top" xlink:title="Igor::iWidgetGrid::\lremoveWidget">
<polygon fill="white" stroke="black" points="555.5,-84.5 555.5,-114.5 650.5,-114.5 650.5,-84.5 555.5,-84.5"/>
<text text-anchor="start" x="563.5" y="-102.5" font-family="Helvetica,sans-Serif" font-size="10.00">Igor::iWidgetGrid::</text>
<text text-anchor="middle" x="603" y="-91.5" font-family="Helvetica,sans-Serif" font-size="10.00">removeWidget</text>
</a>
</g>
</g>
<!-- Node9&#45;&gt;Node13 -->
<g id="edge12" class="edge"><title>Node9&#45;&gt;Node13</title>
<path fill="none" stroke="midnightblue" d="M473.48,-147.41C497.014,-138.637 526.87,-127.507 551.88,-118.184"/>
<polygon fill="midnightblue" stroke="midnightblue" points="553.411,-121.349 561.558,-114.576 550.965,-114.79 553.411,-121.349"/>
</g>
</g>
</svg>
