<?xml version="1.0" encoding="UTF-8" standalone="no"?>
<!DOCTYPE svg PUBLIC "-//W3C//DTD SVG 1.1//EN"
 "http://www.w3.org/Graphics/SVG/1.1/DTD/svg11.dtd">
<!-- Generated by graphviz version 2.38.0 (20140413.2041)
 -->
<!-- Title: MenuDialog::onAddEmitter Pages: 1 -->
<svg width="321pt" height="66pt"
 viewBox="0.00 0.00 321.00 66.00" xmlns="http://www.w3.org/2000/svg" xmlns:xlink="http://www.w3.org/1999/xlink">
<g id="graph0" class="graph" transform="scale(1 1) rotate(0) translate(4 62)">
<title>MenuDialog::onAddEmitter</title>
<polygon fill="white" stroke="none" points="-4,4 -4,-62 317,-62 317,4 -4,4"/>
<!-- Node104 -->
<g id="node1" class="node"><title>Node104</title>
<g id="a_node1"><a xlink:title=" ">
<polygon fill="#bfbfbf" stroke="black" points="180,-19.5 180,-38.5 313,-38.5 313,-19.5 180,-19.5"/>
<text text-anchor="middle" x="246.5" y="-26.5" font-family="Helvetica,sans-Serif" font-size="10.00">MenuDialog::onAddEmitter</text>
</a>
</g>
</g>
<!-- Node105 -->
<g id="node2" class="node"><title>Node105</title>
<g id="a_node2"><a xlink:href="class_menu_dialog.html#a0fe6bdf29a3a7095e2d7e4a38f8d8f70" target="_top" xlink:title=" ">
<polygon fill="white" stroke="black" points="0,-38.5 0,-57.5 144,-57.5 144,-38.5 0,-38.5"/>
<text text-anchor="middle" x="72" y="-45.5" font-family="Helvetica,sans-Serif" font-size="10.00">MenuDialog::deinitGraphView</text>
</a>
</g>
</g>
<!-- Node104&#45;&gt;Node105 -->
<g id="edge1" class="edge"><title>Node104&#45;&gt;Node105</title>
<path fill="none" stroke="midnightblue" d="M169.61,-37.3589C161.189,-38.2865 152.634,-39.2287 144.273,-40.1496"/>
<polygon fill="midnightblue" stroke="midnightblue" points="170.236,-40.8112 179.793,-36.2373 169.47,-33.8532 170.236,-40.8112"/>
</g>
<!-- Node106 -->
<g id="node3" class="node"><title>Node106</title>
<g id="a_node3"><a xlink:href="class_menu_dialog.html#a5f0986a127a923615177c4c264394f7d" target="_top" xlink:title=" ">
<polygon fill="white" stroke="black" points="5,-0.5 5,-19.5 139,-19.5 139,-0.5 5,-0.5"/>
<text text-anchor="middle" x="72" y="-7.5" font-family="Helvetica,sans-Serif" font-size="10.00">MenuDialog::initGraphView</text>
</a>
</g>
</g>
<!-- Node104&#45;&gt;Node106 -->
<g id="edge2" class="edge"><title>Node104&#45;&gt;Node106</title>
<path fill="none" stroke="midnightblue" d="M169.687,-20.6496C159.494,-19.5268 149.103,-18.3824 139.096,-17.2801"/>
<polygon fill="midnightblue" stroke="midnightblue" points="169.47,-24.1468 179.793,-21.7627 170.236,-17.1888 169.47,-24.1468"/>
</g>
</g>
</svg>
