<?xml version="1.0" encoding="UTF-8" standalone="no"?>
<!DOCTYPE svg PUBLIC "-//W3C//DTD SVG 1.1//EN"
 "http://www.w3.org/Graphics/SVG/1.1/DTD/svg11.dtd">
<!-- Generated by graphviz version 2.38.0 (20140413.2041)
 -->
<!-- Title: Igor::iNodeParticleSystem::setColorGradient Pages: 1 -->
<svg width="308pt" height="88pt"
 viewBox="0.00 0.00 308.00 88.00" xmlns="http://www.w3.org/2000/svg" xmlns:xlink="http://www.w3.org/1999/xlink">
<g id="graph0" class="graph" transform="scale(1 1) rotate(0) translate(4 84)">
<title>Igor::iNodeParticleSystem::setColorGradient</title>
<polygon fill="white" stroke="none" points="-4,4 -4,-84 304,-84 304,4 -4,4"/>
<!-- Node155 -->
<g id="node1" class="node"><title>Node155</title>
<g id="a_node1"><a xlink:title=" ">
<polygon fill="#bfbfbf" stroke="black" points="170,-24.5 170,-54.5 300,-54.5 300,-24.5 170,-24.5"/>
<text text-anchor="start" x="178" y="-42.5" font-family="Helvetica,sans-Serif" font-size="10.00">Igor::iNodeParticleSystem</text>
<text text-anchor="middle" x="235" y="-31.5" font-family="Helvetica,sans-Serif" font-size="10.00">::setColorGradient</text>
</a>
</g>
</g>
<!-- Node156 -->
<g id="node2" class="node"><title>Node156</title>
<g id="a_node2"><a xlink:href="class_igor_1_1i_model_data_i_o_o_m_p_f.html#a0f7b5e12c682ae67747df9583b849597" target="_top" xlink:title=" ">
<polygon fill="white" stroke="black" points="4.5,-49.5 4.5,-79.5 129.5,-79.5 129.5,-49.5 4.5,-49.5"/>
<text text-anchor="start" x="12.5" y="-67.5" font-family="Helvetica,sans-Serif" font-size="10.00">Igor::iModelDataIOOMPF</text>
<text text-anchor="middle" x="67" y="-56.5" font-family="Helvetica,sans-Serif" font-size="10.00">::createParticleSystem</text>
</a>
</g>
</g>
<!-- Node155&#45;&gt;Node156 -->
<g id="edge1" class="edge"><title>Node155&#45;&gt;Node156</title>
<path fill="none" stroke="midnightblue" d="M159.795,-50.6755C149.688,-52.1976 139.405,-53.7462 129.555,-55.2296"/>
<polygon fill="midnightblue" stroke="midnightblue" points="160.453,-54.1159 169.82,-49.1657 159.41,-47.194 160.453,-54.1159"/>
</g>
<!-- Node157 -->
<g id="node3" class="node"><title>Node157</title>
<g id="a_node3"><a xlink:href="class_user_control_particle_system.html#ab9d5c0d93ecd969fd6658127d6c26ddd" target="_top" xlink:title=" ">
<polygon fill="white" stroke="black" points="0,-0.5 0,-30.5 134,-30.5 134,-0.5 0,-0.5"/>
<text text-anchor="start" x="8" y="-18.5" font-family="Helvetica,sans-Serif" font-size="10.00">UserControlParticleSystem</text>
<text text-anchor="middle" x="67" y="-7.5" font-family="Helvetica,sans-Serif" font-size="10.00">::updateNode</text>
</a>
</g>
</g>
<!-- Node155&#45;&gt;Node157 -->
<g id="edge2" class="edge"><title>Node155&#45;&gt;Node157</title>
<path fill="none" stroke="midnightblue" d="M159.864,-28.7816C151.315,-27.5455 142.639,-26.2911 134.204,-25.0716"/>
<polygon fill="midnightblue" stroke="midnightblue" points="159.422,-32.254 169.82,-30.221 160.424,-25.326 159.422,-32.254"/>
</g>
</g>
</svg>
