<?xml version="1.0" encoding="UTF-8" standalone="no"?>
<!DOCTYPE svg PUBLIC "-//W3C//DTD SVG 1.1//EN"
 "http://www.w3.org/Graphics/SVG/1.1/DTD/svg11.dtd">
<!-- Generated by graphviz version 2.38.0 (20140413.2041)
 -->
<!-- Title: IgorAux::iaMatrix::perspective Pages: 1 -->
<svg width="249pt" height="66pt"
 viewBox="0.00 0.00 249.00 66.00" xmlns="http://www.w3.org/2000/svg" xmlns:xlink="http://www.w3.org/1999/xlink">
<g id="graph0" class="graph" transform="scale(1 1) rotate(0) translate(4 62)">
<title>IgorAux::iaMatrix::perspective</title>
<polygon fill="white" stroke="none" points="-4,4 -4,-62 245,-62 245,4 -4,4"/>
<!-- Node109 -->
<g id="node1" class="node"><title>Node109</title>
<g id="a_node1"><a xlink:title=" ">
<polygon fill="#bfbfbf" stroke="black" points="145,-14 145,-44 241,-44 241,-14 145,-14"/>
<text text-anchor="start" x="153" y="-32" font-family="Helvetica,sans-Serif" font-size="10.00">IgorAux::iaMatrix::</text>
<text text-anchor="middle" x="193" y="-21" font-family="Helvetica,sans-Serif" font-size="10.00">perspective</text>
</a>
</g>
</g>
<!-- Node110 -->
<g id="node2" class="node"><title>Node110</title>
<g id="a_node2"><a xlink:href="class_igor_1_1i_view.html#a1e61cd23501f81febceba0d9a9d458db" target="_top" xlink:title=" ">
<polygon fill="white" stroke="black" points="6,-38.5 6,-57.5 103,-57.5 103,-38.5 6,-38.5"/>
<text text-anchor="middle" x="54.5" y="-45.5" font-family="Helvetica,sans-Serif" font-size="10.00">Igor::iView::project</text>
</a>
</g>
</g>
<!-- Node109&#45;&gt;Node110 -->
<g id="edge1" class="edge"><title>Node109&#45;&gt;Node110</title>
<path fill="none" stroke="midnightblue" d="M134.732,-36.9714C124.247,-38.4309 113.407,-39.9397 103.237,-41.3553"/>
<polygon fill="midnightblue" stroke="midnightblue" points="135.22,-40.4373 144.642,-35.592 134.255,-33.5041 135.22,-40.4373"/>
</g>
<!-- Node111 -->
<g id="node3" class="node"><title>Node111</title>
<g id="a_node3"><a xlink:href="class_igor_1_1i_view.html#ad19aabd0f4649fa410184908a2200ea9" target="_top" xlink:title=" ">
<polygon fill="white" stroke="black" points="0,-0.5 0,-19.5 109,-19.5 109,-0.5 0,-0.5"/>
<text text-anchor="middle" x="54.5" y="-7.5" font-family="Helvetica,sans-Serif" font-size="10.00">Igor::iView::unProject</text>
</a>
</g>
</g>
<!-- Node109&#45;&gt;Node111 -->
<g id="edge2" class="edge"><title>Node109&#45;&gt;Node111</title>
<path fill="none" stroke="midnightblue" d="M134.579,-21.0073C126.21,-19.8423 117.617,-18.6464 109.323,-17.4918"/>
<polygon fill="midnightblue" stroke="midnightblue" points="134.255,-24.4959 144.642,-22.408 135.22,-17.5627 134.255,-24.4959"/>
</g>
</g>
</svg>
