<?xml version="1.0" encoding="UTF-8" standalone="no"?>
<!DOCTYPE svg PUBLIC "-//W3C//DTD SVG 1.1//EN"
 "http://www.w3.org/Graphics/SVG/1.1/DTD/svg11.dtd">
<!-- Generated by graphviz version 2.38.0 (20140413.2041)
 -->
<!-- Title: Igor::iParticleSystem3D::calcNextFrame Pages: 1 -->
<svg width="260pt" height="186pt"
 viewBox="0.00 0.00 260.00 186.00" xmlns="http://www.w3.org/2000/svg" xmlns:xlink="http://www.w3.org/1999/xlink">
<g id="graph0" class="graph" transform="scale(1 1) rotate(0) translate(4 182)">
<title>Igor::iParticleSystem3D::calcNextFrame</title>
<polygon fill="white" stroke="none" points="-4,4 -4,-182 256,-182 256,4 -4,4"/>
<!-- Node1 -->
<g id="node1" class="node"><title>Node1</title>
<polygon fill="#bfbfbf" stroke="black" points="0,-73.5 0,-103.5 119,-103.5 119,-73.5 0,-73.5"/>
<text text-anchor="start" x="8" y="-91.5" font-family="Helvetica,sans-Serif" font-size="10.00">Igor::iParticleSystem3D</text>
<text text-anchor="middle" x="59.5" y="-80.5" font-family="Helvetica,sans-Serif" font-size="10.00">::calcNextFrame</text>
</g>
<!-- Node2 -->
<g id="node2" class="node"><title>Node2</title>
<g id="a_node2"><a xlink:href="class_igor_aux_1_1ia_vector2.html#adfff01ed1568c1c2b0d9b6df3696c63b" target="_top" xlink:title="IgorAux::iaVector2\l::rotateXY">
<polygon fill="white" stroke="black" points="155,-147.5 155,-177.5 252,-177.5 252,-147.5 155,-147.5"/>
<text text-anchor="start" x="163" y="-165.5" font-family="Helvetica,sans-Serif" font-size="10.00">IgorAux::iaVector2</text>
<text text-anchor="middle" x="203.5" y="-154.5" font-family="Helvetica,sans-Serif" font-size="10.00">::rotateXY</text>
</a>
</g>
</g>
<!-- Node1&#45;&gt;Node2 -->
<g id="edge1" class="edge"><title>Node1&#45;&gt;Node2</title>
<path fill="none" stroke="midnightblue" d="M88.5456,-103.516C107.308,-113.518 132.577,-126.905 155,-138.5 157.743,-139.918 160.579,-141.376 163.438,-142.837"/>
<polygon fill="midnightblue" stroke="midnightblue" points="162.057,-146.062 172.557,-147.478 165.232,-139.823 162.057,-146.062"/>
</g>
<!-- Node3 -->
<g id="node3" class="node"><title>Node3</title>
<g id="a_node3"><a xlink:href="class_igor_aux_1_1ia_vector3.html#ac9f6246137f34cd0851a7e0f577ef4a2" target="_top" xlink:title="IgorAux::iaVector3\l::length">
<polygon fill="white" stroke="black" points="155,-98.5 155,-128.5 252,-128.5 252,-98.5 155,-98.5"/>
<text text-anchor="start" x="163" y="-116.5" font-family="Helvetica,sans-Serif" font-size="10.00">IgorAux::iaVector3</text>
<text text-anchor="middle" x="203.5" y="-105.5" font-family="Helvetica,sans-Serif" font-size="10.00">::length</text>
</a>
</g>
</g>
<!-- Node1&#45;&gt;Node3 -->
<g id="edge2" class="edge"><title>Node1&#45;&gt;Node3</title>
<path fill="none" stroke="midnightblue" d="M119.077,-98.8128C127.643,-100.321 136.458,-101.873 145.002,-103.377"/>
<polygon fill="midnightblue" stroke="midnightblue" points="144.421,-106.829 154.877,-105.116 145.635,-99.9346 144.421,-106.829"/>
</g>
<!-- Node4 -->
<g id="node4" class="node"><title>Node4</title>
<g id="a_node4"><a xlink:href="class_igor_aux_1_1ia_vector3.html#a19d7f1f4d0fba7b22f60fff7d38ea74b" target="_top" xlink:title="IgorAux::iaVector3\l::normalize">
<polygon fill="white" stroke="black" points="155,-49.5 155,-79.5 252,-79.5 252,-49.5 155,-49.5"/>
<text text-anchor="start" x="163" y="-67.5" font-family="Helvetica,sans-Serif" font-size="10.00">IgorAux::iaVector3</text>
<text text-anchor="middle" x="203.5" y="-56.5" font-family="Helvetica,sans-Serif" font-size="10.00">::normalize</text>
</a>
</g>
</g>
<!-- Node1&#45;&gt;Node4 -->
<g id="edge3" class="edge"><title>Node1&#45;&gt;Node4</title>
<path fill="none" stroke="midnightblue" d="M119.077,-78.5997C127.643,-77.1519 136.458,-75.6621 145.002,-74.218"/>
<polygon fill="midnightblue" stroke="midnightblue" points="145.6,-77.6667 154.877,-72.549 144.433,-70.7646 145.6,-77.6667"/>
</g>
<!-- Node5 -->
<g id="node5" class="node"><title>Node5</title>
<g id="a_node5"><a xlink:href="class_igor_aux_1_1ia_vector3.html#a460281d7b8c0c4cf63c372320f118c15" target="_top" xlink:title="IgorAux::iaVector3\l::convert">
<polygon fill="white" stroke="black" points="155,-0.5 155,-30.5 252,-30.5 252,-0.5 155,-0.5"/>
<text text-anchor="start" x="163" y="-18.5" font-family="Helvetica,sans-Serif" font-size="10.00">IgorAux::iaVector3</text>
<text text-anchor="middle" x="203.5" y="-7.5" font-family="Helvetica,sans-Serif" font-size="10.00">::convert</text>
</a>
</g>
</g>
<!-- Node1&#45;&gt;Node5 -->
<g id="edge4" class="edge"><title>Node1&#45;&gt;Node5</title>
<path fill="none" stroke="midnightblue" d="M89.9225,-73.3744C111.437,-62.3139 140.817,-47.2105 164.167,-35.2062"/>
<polygon fill="midnightblue" stroke="midnightblue" points="165.822,-38.2912 173.115,-30.6063 162.621,-32.0656 165.822,-38.2912"/>
</g>
</g>
</svg>
