<?xml version="1.0" encoding="UTF-8" standalone="no"?>
<!DOCTYPE svg PUBLIC "-//W3C//DTD SVG 1.1//EN"
 "http://www.w3.org/Graphics/SVG/1.1/DTD/svg11.dtd">
<!-- Generated by graphviz version 2.38.0 (20140413.2041)
 -->
<!-- Title: Widget3DEmitter Pages: 1 -->
<svg width="1696pt" height="507pt"
 viewBox="0.00 0.00 1696.00 507.00" xmlns="http://www.w3.org/2000/svg" xmlns:xlink="http://www.w3.org/1999/xlink">
<g id="graph0" class="graph" transform="scale(1 1) rotate(0) translate(4 503)">
<title>Widget3DEmitter</title>
<polygon fill="white" stroke="none" points="-4,4 -4,-503 1692,-503 1692,4 -4,4"/>
<!-- Node1 -->
<g id="node1" class="node"><title>Node1</title>
<polygon fill="#bfbfbf" stroke="black" points="1597,-83.5 1597,-102.5 1688,-102.5 1688,-83.5 1597,-83.5"/>
<text text-anchor="middle" x="1642.5" y="-90.5" font-family="Helvetica,sans-Serif" font-size="10.00">Widget3DEmitter</text>
</g>
<!-- Node2 -->
<g id="node2" class="node"><title>Node2</title>
<g id="a_node2"><a xlink:href="class_widget3_d.html" target="_top" xlink:title="Widget3D">
<polygon fill="white" stroke="black" points="1501,-215.5 1501,-234.5 1560,-234.5 1560,-215.5 1501,-215.5"/>
<text text-anchor="middle" x="1530.5" y="-222.5" font-family="Helvetica,sans-Serif" font-size="10.00">Widget3D</text>
</a>
</g>
</g>
<!-- Node2&#45;&gt;Node1 -->
<g id="edge1" class="edge"><title>Node2&#45;&gt;Node1</title>
<path fill="none" stroke="midnightblue" d="M1546.33,-207.203C1569.89,-178.935 1615.07,-124.721 1633.44,-102.678"/>
<polygon fill="midnightblue" stroke="midnightblue" points="1543.48,-205.156 1539.77,-215.079 1548.86,-209.637 1543.48,-205.156"/>
</g>
<!-- Node3 -->
<g id="node3" class="node"><title>Node3</title>
<g id="a_node3"><a xlink:href="class_igor_1_1i_window.html" target="_top" xlink:title="Igor::iWindow">
<polygon fill="white" stroke="black" points="633,-129.5 633,-148.5 708,-148.5 708,-129.5 633,-129.5"/>
<text text-anchor="middle" x="670.5" y="-136.5" font-family="Helvetica,sans-Serif" font-size="10.00">Igor::iWindow</text>
</a>
</g>
</g>
<!-- Node3&#45;&gt;Node2 -->
<g id="edge2" class="edge"><title>Node3&#45;&gt;Node2</title>
<path fill="none" stroke="#9a32cd" stroke-dasharray="5,2" d="M718.33,-139.508C745.042,-139.755 779.148,-140 809.5,-140 809.5,-140 809.5,-140 1195.5,-140 1316.66,-140 1455.13,-193.185 1507.71,-215.415"/>
<polygon fill="#9a32cd" stroke="#9a32cd" points="718.142,-136.006 708.109,-139.41 718.075,-143.006 718.142,-136.006"/>
<text text-anchor="middle" x="1074.5" y="-143" font-family="Helvetica,sans-Serif" font-size="10.00"> _window</text>
</g>
<!-- Node4 -->
<g id="node4" class="node"><title>Node4</title>
<g id="a_node4"><a xlink:href="class_igor_aux_1_1ia_string.html" target="_top" xlink:title="IgorAux::iaString">
<polygon fill="white" stroke="black" points="374.5,-237.5 374.5,-256.5 463.5,-256.5 463.5,-237.5 374.5,-237.5"/>
<text text-anchor="middle" x="419" y="-244.5" font-family="Helvetica,sans-Serif" font-size="10.00">IgorAux::iaString</text>
</a>
</g>
</g>
<!-- Node4&#45;&gt;Node3 -->
<g id="edge3" class="edge"><title>Node4&#45;&gt;Node3</title>
<path fill="none" stroke="#9a32cd" stroke-dasharray="5,2" d="M468.695,-233.811C475.513,-230.848 482.172,-227.279 488,-223 498.748,-215.109 495.301,-206.957 506,-199 544.333,-170.489 597.629,-154.316 632.817,-146.112"/>
<polygon fill="#9a32cd" stroke="#9a32cd" points="467.384,-230.565 459.361,-237.484 469.948,-237.079 467.384,-230.565"/>
<text text-anchor="middle" x="560.5" y="-202" font-family="Helvetica,sans-Serif" font-size="10.00"> _title</text>
</g>
<!-- Node6 -->
<g id="node6" class="node"><title>Node6</title>
<g id="a_node6"><a xlink:href="class_igor_1_1i_scene.html" target="_top" xlink:title="Igor::iScene">
<polygon fill="white" stroke="black" points="636.5,-338.5 636.5,-357.5 704.5,-357.5 704.5,-338.5 636.5,-338.5"/>
<text text-anchor="middle" x="670.5" y="-345.5" font-family="Helvetica,sans-Serif" font-size="10.00">Igor::iScene</text>
</a>
</g>
</g>
<!-- Node4&#45;&gt;Node6 -->
<g id="edge6" class="edge"><title>Node4&#45;&gt;Node6</title>
<path fill="none" stroke="#9a32cd" stroke-dasharray="5,2" d="M473.862,-255.73C529.431,-264.879 608.868,-278.415 615,-282 638.347,-295.651 656.044,-323.25 664.324,-338.066"/>
<polygon fill="#9a32cd" stroke="#9a32cd" points="474.221,-252.242 463.787,-254.076 473.088,-259.15 474.221,-252.242"/>
<text text-anchor="middle" x="560.5" y="-285" font-family="Helvetica,sans-Serif" font-size="10.00"> _name</text>
</g>
<!-- Node12 -->
<g id="node12" class="node"><title>Node12</title>
<g id="a_node12"><a xlink:href="class_igor_1_1i_node.html" target="_top" xlink:title="Igor::iNode">
<polygon fill="white" stroke="black" points="779,-248.5 779,-267.5 842,-267.5 842,-248.5 779,-248.5"/>
<text text-anchor="middle" x="810.5" y="-255.5" font-family="Helvetica,sans-Serif" font-size="10.00">Igor::iNode</text>
</a>
</g>
</g>
<!-- Node4&#45;&gt;Node12 -->
<g id="edge16" class="edge"><title>Node4&#45;&gt;Node12</title>
<path fill="none" stroke="#9a32cd" stroke-dasharray="5,2" d="M473.771,-248.519C556.694,-250.86 713.091,-255.277 778.994,-257.138"/>
<polygon fill="#9a32cd" stroke="#9a32cd" points="473.642,-245.014 463.547,-248.23 473.444,-252.011 473.642,-245.014"/>
<text text-anchor="middle" x="670.5" y="-258" font-family="Helvetica,sans-Serif" font-size="10.00"> _name</text>
</g>
<!-- Node15 -->
<g id="node15" class="node"><title>Node15</title>
<g id="a_node15"><a xlink:href="class_igor_1_1i_view.html" target="_top" xlink:title="Igor::iView">
<polygon fill="white" stroke="black" points="1371,-298.5 1371,-317.5 1433,-317.5 1433,-298.5 1371,-298.5"/>
<text text-anchor="middle" x="1402" y="-305.5" font-family="Helvetica,sans-Serif" font-size="10.00">Igor::iView</text>
</a>
</g>
</g>
<!-- Node4&#45;&gt;Node15 -->
<g id="edge22" class="edge"><title>Node4&#45;&gt;Node15</title>
<path fill="none" stroke="#9a32cd" stroke-dasharray="5,2" d="M473.608,-239.777C564.544,-227.768 745.402,-205 809.5,-205 809.5,-205 809.5,-205 1195.5,-205 1278.51,-205 1362.29,-272.996 1390.79,-298.495"/>
<polygon fill="#9a32cd" stroke="#9a32cd" points="472.96,-236.332 463.507,-241.116 473.88,-243.272 472.96,-236.332"/>
<text text-anchor="middle" x="877.5" y="-208" font-family="Helvetica,sans-Serif" font-size="10.00"> _name</text>
</g>
<!-- Node5 -->
<g id="node5" class="node"><title>Node5</title>
<g id="a_node5"><a xlink:href="class_igor_aux_1_1ia_mutex.html" target="_top" xlink:title="IgorAux::iaMutex">
<polygon fill="white" stroke="black" points="98,-129.5 98,-148.5 188,-148.5 188,-129.5 98,-129.5"/>
<text text-anchor="middle" x="143" y="-136.5" font-family="Helvetica,sans-Serif" font-size="10.00">IgorAux::iaMutex</text>
</a>
</g>
</g>
<!-- Node5&#45;&gt;Node3 -->
<g id="edge4" class="edge"><title>Node5&#45;&gt;Node3</title>
<path fill="none" stroke="#9a32cd" stroke-dasharray="5,2" d="M198.643,-139C306.058,-139 542.146,-139 632.932,-139"/>
<polygon fill="#9a32cd" stroke="#9a32cd" points="198.351,-135.5 188.351,-139 198.351,-142.5 198.351,-135.5"/>
<text text-anchor="middle" x="419" y="-142" font-family="Helvetica,sans-Serif" font-size="10.00"> _wglMutex</text>
</g>
<!-- Node13 -->
<g id="node13" class="node"><title>Node13</title>
<g id="a_node13"><a xlink:href="class_igor_aux_1_1ia_i_d_generator.html" target="_top" xlink:title="IgorAux::iaIDGenerator\&lt; T \&gt;">
<polygon fill="white" stroke="black" points="350,-161.5 350,-180.5 488,-180.5 488,-161.5 350,-161.5"/>
<text text-anchor="middle" x="419" y="-168.5" font-family="Helvetica,sans-Serif" font-size="10.00">IgorAux::iaIDGenerator&lt; T &gt;</text>
</a>
</g>
</g>
<!-- Node5&#45;&gt;Node13 -->
<g id="edge14" class="edge"><title>Node5&#45;&gt;Node13</title>
<path fill="none" stroke="#9a32cd" stroke-dasharray="5,2" d="M198.305,-144.834C235.868,-148.926 286.992,-154.608 332,-160 337.829,-160.698 343.877,-161.439 349.944,-162.193"/>
<polygon fill="#9a32cd" stroke="#9a32cd" points="198.406,-141.324 188.086,-143.723 197.65,-148.283 198.406,-141.324"/>
<text text-anchor="middle" x="275" y="-163" font-family="Helvetica,sans-Serif" font-size="10.00"> _mutex</text>
</g>
<!-- Node14 -->
<g id="node14" class="node"><title>Node14</title>
<g id="a_node14"><a xlink:href="class_igor_1_1i_data_update_queue.html" target="_top" xlink:title="Igor::iDataUpdateQueue">
<polygon fill="white" stroke="black" points="359,-275.5 359,-294.5 479,-294.5 479,-275.5 359,-275.5"/>
<text text-anchor="middle" x="419" y="-282.5" font-family="Helvetica,sans-Serif" font-size="10.00">Igor::iDataUpdateQueue</text>
</a>
</g>
</g>
<!-- Node5&#45;&gt;Node14 -->
<g id="edge20" class="edge"><title>Node5&#45;&gt;Node14</title>
<path fill="none" stroke="#9a32cd" stroke-dasharray="5,2" d="M178.595,-152.582C185.793,-155.752 193.241,-159.293 200,-163 203.891,-165.134 328.368,-250.451 332,-253 340.077,-258.669 341.11,-261.717 350,-266 357.84,-269.777 366.562,-272.921 375.074,-275.492"/>
<polygon fill="#9a32cd" stroke="#9a32cd" points="179.594,-149.204 169.022,-148.51 176.854,-155.646 179.594,-149.204"/>
<text text-anchor="middle" x="275" y="-256" font-family="Helvetica,sans-Serif" font-size="10.00"> _mutex</text>
</g>
<!-- Node6&#45;&gt;Node2 -->
<g id="edge5" class="edge"><title>Node6&#45;&gt;Node2</title>
<path fill="none" stroke="#9a32cd" stroke-dasharray="5,2" d="M687.257,-365.233C721.632,-402.651 800.973,-488 809.5,-488 809.5,-488 809.5,-488 1403,-488 1517.76,-488 1528.47,-282.121 1529.42,-234.672"/>
<polygon fill="#9a32cd" stroke="#9a32cd" points="689.618,-362.628 680.28,-357.623 684.458,-367.359 689.618,-362.628"/>
<text text-anchor="middle" x="1074.5" y="-491" font-family="Helvetica,sans-Serif" font-size="10.00"> _scene</text>
</g>
<!-- Node6&#45;&gt;Node12 -->
<g id="edge17" class="edge"><title>Node6&#45;&gt;Node12</title>
<path fill="none" stroke="#9a32cd" stroke-dasharray="5,2" d="M701.855,-333.824C719.654,-325.004 742.253,-312.908 761,-300 775.312,-290.146 790.191,-276.705 799.632,-267.708"/>
<polygon fill="#9a32cd" stroke="#9a32cd" points="699.974,-330.847 692.516,-338.371 703.039,-337.14 699.974,-330.847"/>
<text text-anchor="middle" x="743.5" y="-324" font-family="Helvetica,sans-Serif" font-size="10.00"> _scene</text>
</g>
<!-- Node6&#45;&gt;Node15 -->
<g id="edge26" class="edge"><title>Node6&#45;&gt;Node15</title>
<path fill="none" stroke="#9a32cd" stroke-dasharray="5,2" d="M714.692,-350.596C718.515,-350.76 722.326,-350.899 726,-351 741.55,-351.428 745.445,-351.12 761,-351 1022.18,-348.983 1090.78,-368.326 1348,-323 1355.63,-321.656 1363.74,-319.661 1371.25,-317.561"/>
<polygon fill="#9a32cd" stroke="#9a32cd" points="714.787,-347.097 704.632,-350.116 714.454,-354.089 714.787,-347.097"/>
<text text-anchor="middle" x="966.5" y="-357" font-family="Helvetica,sans-Serif" font-size="10.00"> _scene</text>
</g>
<!-- Node18 -->
<g id="node18" class="node"><title>Node18</title>
<g id="a_node18"><a xlink:href="class_igor_1_1i_render_engine.html" target="_top" xlink:title="Igor::iRenderEngine">
<polygon fill="white" stroke="black" points="1144,-298.5 1144,-317.5 1245,-317.5 1245,-298.5 1144,-298.5"/>
<text text-anchor="middle" x="1194.5" y="-305.5" font-family="Helvetica,sans-Serif" font-size="10.00">Igor::iRenderEngine</text>
</a>
</g>
</g>
<!-- Node6&#45;&gt;Node18 -->
<g id="edge31" class="edge"><title>Node6&#45;&gt;Node18</title>
<path fill="none" stroke="#9a32cd" stroke-dasharray="5,2" d="M714.956,-341.273C729.589,-338.989 746.005,-336.406 761,-334 828.599,-323.154 844.774,-314.696 913,-309 993.68,-302.265 1087.87,-303.856 1143.99,-305.799"/>
<polygon fill="#9a32cd" stroke="#9a32cd" points="714.005,-337.878 704.663,-342.876 715.082,-344.795 714.005,-337.878"/>
<text text-anchor="middle" x="877.5" y="-319" font-family="Helvetica,sans-Serif" font-size="10.00"> _scene</text>
</g>
<!-- Node7 -->
<g id="node7" class="node"><title>Node7</title>
<g id="a_node7"><a xlink:href="class_igor_1_1i_octree.html" target="_top" xlink:title="Igor::iOctree">
<polygon fill="white" stroke="black" points="384,-313.5 384,-332.5 454,-332.5 454,-313.5 384,-313.5"/>
<text text-anchor="middle" x="419" y="-320.5" font-family="Helvetica,sans-Serif" font-size="10.00">Igor::iOctree</text>
</a>
</g>
</g>
<!-- Node7&#45;&gt;Node6 -->
<g id="edge7" class="edge"><title>Node7&#45;&gt;Node6</title>
<path fill="none" stroke="#9a32cd" stroke-dasharray="5,2" d="M464.203,-327.429C513.409,-332.36 591.822,-340.217 636.142,-344.657"/>
<polygon fill="#9a32cd" stroke="#9a32cd" points="464.468,-323.938 454.169,-326.424 463.77,-330.903 464.468,-323.938"/>
<text text-anchor="middle" x="560.5" y="-345" font-family="Helvetica,sans-Serif" font-size="10.00"> _octree</text>
</g>
<!-- Node8 -->
<g id="node8" class="node"><title>Node8</title>
<g id="a_node8"><a xlink:href="class_igor_1_1i_node_visitor_update_transform.html" target="_top" xlink:title="Igor::iNodeVisitorUpdate\lTransform">
<polygon fill="white" stroke="black" points="358,-352 358,-382 480,-382 480,-352 358,-352"/>
<text text-anchor="start" x="366" y="-370" font-family="Helvetica,sans-Serif" font-size="10.00">Igor::iNodeVisitorUpdate</text>
<text text-anchor="middle" x="419" y="-359" font-family="Helvetica,sans-Serif" font-size="10.00">Transform</text>
</a>
</g>
</g>
<!-- Node8&#45;&gt;Node6 -->
<g id="edge8" class="edge"><title>Node8&#45;&gt;Node6</title>
<path fill="none" stroke="#9a32cd" stroke-dasharray="5,2" d="M490.274,-369.013C527.508,-369.12 573.918,-367.728 615,-362 622.353,-360.975 630.144,-359.324 637.464,-357.51"/>
<polygon fill="#9a32cd" stroke="#9a32cd" points="490.05,-365.511 480.027,-368.945 490.004,-372.511 490.05,-365.511"/>
<text text-anchor="middle" x="560.5" y="-372" font-family="Helvetica,sans-Serif" font-size="10.00"> _updateTransformVisitor</text>
</g>
<!-- Node9 -->
<g id="node9" class="node"><title>Node9</title>
<g id="a_node9"><a xlink:href="class_igor_1_1i_node_visitor.html" target="_top" xlink:title="Igor::iNodeVisitor">
<polygon fill="white" stroke="black" points="97.5,-234.5 97.5,-253.5 188.5,-253.5 188.5,-234.5 97.5,-234.5"/>
<text text-anchor="middle" x="143" y="-241.5" font-family="Helvetica,sans-Serif" font-size="10.00">Igor::iNodeVisitor</text>
</a>
</g>
</g>
<!-- Node9&#45;&gt;Node8 -->
<g id="edge9" class="edge"><title>Node9&#45;&gt;Node8</title>
<path fill="none" stroke="midnightblue" d="M187.721,-256.641C227.565,-269.444 286.905,-291.809 332,-323 341.567,-329.617 340.285,-335.602 350,-342 355.673,-345.736 361.978,-349.008 368.396,-351.846"/>
<polygon fill="midnightblue" stroke="midnightblue" points="188.621,-253.256 178.031,-253.593 186.52,-259.933 188.621,-253.256"/>
</g>
<!-- Node10 -->
<g id="node10" class="node"><title>Node10</title>
<g id="a_node10"><a xlink:href="class_igor_aux_1_1ia_matrix.html" target="_top" xlink:title="IgorAux::iaMatrix\&lt; T \&gt;">
<polygon fill="white" stroke="black" points="86.5,-299.5 86.5,-318.5 199.5,-318.5 199.5,-299.5 86.5,-299.5"/>
<text text-anchor="middle" x="143" y="-306.5" font-family="Helvetica,sans-Serif" font-size="10.00">IgorAux::iaMatrix&lt; T &gt;</text>
</a>
</g>
</g>
<!-- Node10&#45;&gt;Node8 -->
<g id="edge10" class="edge"><title>Node10&#45;&gt;Node8</title>
<path fill="none" stroke="#9a32cd" stroke-dasharray="5,2" d="M198.736,-320.586C244.754,-330.327 310.438,-344.231 357.904,-354.279"/>
<polygon fill="#9a32cd" stroke="#9a32cd" points="199.447,-317.159 188.939,-318.513 197.997,-324.008 199.447,-317.159"/>
<text text-anchor="middle" x="275" y="-352" font-family="Helvetica,sans-Serif" font-size="10.00"> _currentMatrix</text>
</g>
<!-- Node19 -->
<g id="node19" class="node"><title>Node19</title>
<g id="a_node19"><a xlink:href="class_igor_1_1i_node_camera.html" target="_top" xlink:title="Igor::iNodeCamera">
<polygon fill="white" stroke="black" points="918,-318.5 918,-337.5 1015,-337.5 1015,-318.5 918,-318.5"/>
<text text-anchor="middle" x="966.5" y="-325.5" font-family="Helvetica,sans-Serif" font-size="10.00">Igor::iNodeCamera</text>
</a>
</g>
</g>
<!-- Node10&#45;&gt;Node19 -->
<g id="edge30" class="edge"><title>Node10&#45;&gt;Node19</title>
<path fill="none" stroke="#9a32cd" stroke-dasharray="5,2" d="M161.667,-325.422C175.875,-337.771 196.885,-354.189 218,-364 300.807,-402.478 326.69,-411 418,-411 418,-411 418,-411 744.5,-411 765.197,-411 890.831,-359.323 942.911,-337.521"/>
<polygon fill="#9a32cd" stroke="#9a32cd" points="163.93,-322.749 154.139,-318.701 159.268,-327.972 163.93,-322.749"/>
<text text-anchor="middle" x="670.5" y="-414" font-family="Helvetica,sans-Serif" font-size="10.00"> _worldMatrix</text>
</g>
<!-- Node22 -->
<g id="node22" class="node"><title>Node22</title>
<g id="a_node22"><a xlink:href="class_igor_1_1i_node_transform.html" target="_top" xlink:title="Igor::iNodeTransform">
<polygon fill="white" stroke="black" points="913.5,-90.5 913.5,-109.5 1019.5,-109.5 1019.5,-90.5 913.5,-90.5"/>
<text text-anchor="middle" x="966.5" y="-97.5" font-family="Helvetica,sans-Serif" font-size="10.00">Igor::iNodeTransform</text>
</a>
</g>
</g>
<!-- Node10&#45;&gt;Node22 -->
<g id="edge38" class="edge"><title>Node10&#45;&gt;Node22</title>
<path fill="none" stroke="#9a32cd" stroke-dasharray="5,2" d="M209.992,-301.549C248.517,-294.549 296.391,-281.032 332,-255 343.643,-246.489 338.31,-236.447 350,-228 401.562,-190.74 440.237,-232.021 488,-190 503.555,-176.315 490.597,-160.855 506,-147 549.803,-107.598 574.825,-118.322 633,-109 731.073,-93.2839 847.456,-94.6236 913.274,-97.1948"/>
<polygon fill="#9a32cd" stroke="#9a32cd" points="209.171,-298.139 199.904,-303.274 210.351,-305.039 209.171,-298.139"/>
<text text-anchor="middle" x="670.5" y="-112" font-family="Helvetica,sans-Serif" font-size="10.00"> _transform</text>
</g>
<!-- Node11 -->
<g id="node11" class="node"><title>Node11</title>
<polygon fill="white" stroke="#bfbfbf" points="0,-175.5 0,-194.5 29,-194.5 29,-175.5 0,-175.5"/>
<text text-anchor="middle" x="14.5" y="-182.5" font-family="Helvetica,sans-Serif" font-size="10.00">T</text>
</g>
<!-- Node11&#45;&gt;Node10 -->
<g id="edge11" class="edge"><title>Node11&#45;&gt;Node10</title>
<path fill="none" stroke="#9a32cd" stroke-dasharray="5,2" d="M30.1352,-202.646C43.9312,-218.918 65.4939,-243.441 86,-263 100.021,-276.373 117.438,-290.303 129.091,-299.281"/>
<polygon fill="#9a32cd" stroke="#9a32cd" points="32.4373,-199.945 23.3258,-194.538 27.077,-204.447 32.4373,-199.945"/>
<text text-anchor="middle" x="57.5" y="-281" font-family="Helvetica,sans-Serif" font-size="10.00"> _w0</text>
<text text-anchor="middle" x="57.5" y="-270" font-family="Helvetica,sans-Serif" font-size="10.00">_w1</text>
<text text-anchor="middle" x="57.5" y="-259" font-family="Helvetica,sans-Serif" font-size="10.00">_w2</text>
<text text-anchor="middle" x="57.5" y="-248" font-family="Helvetica,sans-Serif" font-size="10.00">_w3</text>
</g>
<!-- Node11&#45;&gt;Node13 -->
<g id="edge15" class="edge"><title>Node11&#45;&gt;Node13</title>
<path fill="none" stroke="#9a32cd" stroke-dasharray="5,2" d="M39.3677,-184.17C99.3577,-182.083 258.189,-176.559 349.954,-173.367"/>
<polygon fill="#9a32cd" stroke="#9a32cd" points="39.2272,-180.672 29.355,-184.518 39.4706,-187.668 39.2272,-180.672"/>
<text text-anchor="middle" x="143" y="-186" font-family="Helvetica,sans-Serif" font-size="10.00"> _nextID</text>
</g>
<!-- Node17 -->
<g id="node17" class="node"><title>Node17</title>
<g id="a_node17"><a xlink:href="class_igor_1_1i_rectangle.html" target="_top" xlink:title="Igor::iRectangle\&lt; T \&gt;">
<polygon fill="white" stroke="black" points="913,-440.5 913,-459.5 1020,-459.5 1020,-440.5 913,-440.5"/>
<text text-anchor="middle" x="966.5" y="-447.5" font-family="Helvetica,sans-Serif" font-size="10.00">Igor::iRectangle&lt; T &gt;</text>
</a>
</g>
</g>
<!-- Node11&#45;&gt;Node17 -->
<g id="edge25" class="edge"><title>Node11&#45;&gt;Node17</title>
<path fill="none" stroke="#9a32cd" stroke-dasharray="5,2" d="M15.8236,-205.104C17.9797,-266.915 33.5216,-450 142,-450 142,-450 142,-450 811.5,-450 845.188,-450 883.02,-450 912.757,-450"/>
<polygon fill="#9a32cd" stroke="#9a32cd" points="19.313,-204.651 15.5523,-194.746 12.3154,-204.834 19.313,-204.651"/>
<text text-anchor="middle" x="560.5" y="-486" font-family="Helvetica,sans-Serif" font-size="10.00"> _width</text>
<text text-anchor="middle" x="560.5" y="-475" font-family="Helvetica,sans-Serif" font-size="10.00">_x</text>
<text text-anchor="middle" x="560.5" y="-464" font-family="Helvetica,sans-Serif" font-size="10.00">_y</text>
<text text-anchor="middle" x="560.5" y="-453" font-family="Helvetica,sans-Serif" font-size="10.00">_height</text>
</g>
<!-- Node21 -->
<g id="node21" class="node"><title>Node21</title>
<g id="a_node21"><a xlink:href="class_igor_aux_1_1ia_color4.html" target="_top" xlink:title="IgorAux::iaColor4\&lt; T \&gt;">
<polygon fill="white" stroke="black" points="218,-77.5 218,-96.5 332,-96.5 332,-77.5 218,-77.5"/>
<text text-anchor="middle" x="275" y="-84.5" font-family="Helvetica,sans-Serif" font-size="10.00">IgorAux::iaColor4&lt; T &gt;</text>
</a>
</g>
</g>
<!-- Node11&#45;&gt;Node21 -->
<g id="edge35" class="edge"><title>Node11&#45;&gt;Node21</title>
<path fill="none" stroke="#9a32cd" stroke-dasharray="5,2" d="M21.1268,-165.59C25.903,-152.637 34.0816,-136.329 47,-127 96.7987,-91.0385 168.492,-83.8214 217.918,-83.8072"/>
<polygon fill="#9a32cd" stroke="#9a32cd" points="17.6823,-164.861 17.8856,-175.454 24.3325,-167.046 17.6823,-164.861"/>
<text text-anchor="middle" x="57.5" y="-163" font-family="Helvetica,sans-Serif" font-size="10.00"> _a</text>
<text text-anchor="middle" x="57.5" y="-152" font-family="Helvetica,sans-Serif" font-size="10.00">_r</text>
<text text-anchor="middle" x="57.5" y="-141" font-family="Helvetica,sans-Serif" font-size="10.00">_b</text>
<text text-anchor="middle" x="57.5" y="-130" font-family="Helvetica,sans-Serif" font-size="10.00">_g</text>
</g>
<!-- Node24 -->
<g id="node24" class="node"><title>Node24</title>
<g id="a_node24"><a xlink:href="class_igor_aux_1_1ia_color3.html" target="_top" xlink:title="IgorAux::iaColor3\&lt; T \&gt;">
<polygon fill="white" stroke="black" points="86,-10.5 86,-29.5 200,-29.5 200,-10.5 86,-10.5"/>
<text text-anchor="middle" x="143" y="-17.5" font-family="Helvetica,sans-Serif" font-size="10.00">IgorAux::iaColor3&lt; T &gt;</text>
</a>
</g>
</g>
<!-- Node11&#45;&gt;Node24 -->
<g id="edge41" class="edge"><title>Node11&#45;&gt;Node24</title>
<path fill="none" stroke="#9a32cd" stroke-dasharray="5,2" d="M17.1333,-165.07C20.4789,-129.323 29.3304,-56.4048 47,-39 57.3052,-28.8493 71.4077,-23.3743 85.5932,-20.5792"/>
<polygon fill="#9a32cd" stroke="#9a32cd" points="13.6274,-164.984 16.2363,-175.253 20.6004,-165.599 13.6274,-164.984"/>
<text text-anchor="middle" x="57.5" y="-64" font-family="Helvetica,sans-Serif" font-size="10.00"> _r</text>
<text text-anchor="middle" x="57.5" y="-53" font-family="Helvetica,sans-Serif" font-size="10.00">_b</text>
<text text-anchor="middle" x="57.5" y="-42" font-family="Helvetica,sans-Serif" font-size="10.00">_g</text>
</g>
<!-- Node12&#45;&gt;Node6 -->
<g id="edge12" class="edge"><title>Node12&#45;&gt;Node6</title>
<path fill="none" stroke="#9a32cd" stroke-dasharray="5,2" d="M769.245,-268.69C754.885,-273.574 739.048,-280.259 726,-289 705.61,-302.659 687.497,-325.424 678.167,-338.318"/>
<polygon fill="#9a32cd" stroke="#9a32cd" points="770.445,-271.981 778.898,-265.594 768.306,-265.316 770.445,-271.981"/>
<text text-anchor="middle" x="743.5" y="-292" font-family="Helvetica,sans-Serif" font-size="10.00"> _root</text>
</g>
<!-- Node12&#45;&gt;Node12 -->
<g id="edge18" class="edge"><title>Node12&#45;&gt;Node12</title>
<path fill="none" stroke="#9a32cd" stroke-dasharray="5,2" d="M798.346,-277.766C799.3,-282.497 803.352,-286 810.5,-286 822.23,-286 825.621,-276.565 820.673,-267.757"/>
<polygon fill="#9a32cd" stroke="#9a32cd" points="801.818,-278.246 800.327,-267.757 794.952,-276.887 801.818,-278.246"/>
<text text-anchor="middle" x="810.5" y="-289" font-family="Helvetica,sans-Serif" font-size="10.00"> _parent</text>
</g>
<!-- Node12&#45;&gt;Node19 -->
<g id="edge29" class="edge"><title>Node12&#45;&gt;Node19</title>
<path fill="none" stroke="midnightblue" d="M824.394,-275.568C833.222,-286.305 845.86,-299.394 860,-307 877.598,-316.466 898.916,-321.688 917.77,-324.559"/>
<polygon fill="midnightblue" stroke="midnightblue" points="827.091,-273.335 818.176,-267.611 821.576,-277.645 827.091,-273.335"/>
</g>
<!-- Node12&#45;&gt;Node22 -->
<g id="edge37" class="edge"><title>Node12&#45;&gt;Node22</title>
<path fill="none" stroke="midnightblue" d="M821.228,-239.405C830.086,-223.455 844.17,-200.367 860,-183 888.101,-152.169 928.484,-123.874 950.235,-109.642"/>
<polygon fill="midnightblue" stroke="midnightblue" points="818.097,-237.837 816.419,-248.298 824.254,-241.167 818.097,-237.837"/>
</g>
<!-- Node13&#45;&gt;Node12 -->
<g id="edge13" class="edge"><title>Node13&#45;&gt;Node12</title>
<path fill="none" stroke="#9a32cd" stroke-dasharray="5,2" d="M472.73,-182.778C555.321,-201.226 712.591,-236.354 778.853,-251.155"/>
<polygon fill="#9a32cd" stroke="#9a32cd" points="473.32,-179.324 462.797,-180.559 471.794,-186.155 473.32,-179.324"/>
<text text-anchor="middle" x="670.5" y="-238" font-family="Helvetica,sans-Serif" font-size="10.00"> _idGenerator</text>
</g>
<!-- Node14&#45;&gt;Node6 -->
<g id="edge19" class="edge"><title>Node14&#45;&gt;Node6</title>
<path fill="none" stroke="#9a32cd" stroke-dasharray="5,2" d="M489.212,-293.733C535.618,-300.088 592.25,-308.955 615,-317 629.778,-322.226 645.175,-331.381 655.819,-338.392"/>
<polygon fill="#9a32cd" stroke="#9a32cd" points="489.558,-290.248 479.179,-292.376 488.62,-297.185 489.558,-290.248"/>
<text text-anchor="middle" x="560.5" y="-320" font-family="Helvetica,sans-Serif" font-size="10.00"> _dataUpdateQueue</text>
</g>
<!-- Node15&#45;&gt;Node2 -->
<g id="edge21" class="edge"><title>Node15&#45;&gt;Node2</title>
<path fill="none" stroke="#9a32cd" stroke-dasharray="5,2" d="M1425.94,-292.945C1451.76,-276.008 1492.93,-248.997 1514.77,-234.666"/>
<polygon fill="#9a32cd" stroke="#9a32cd" points="1423.95,-290.067 1417.51,-298.479 1427.79,-295.919 1423.95,-290.067"/>
<text text-anchor="middle" x="1469.5" y="-275" font-family="Helvetica,sans-Serif" font-size="10.00"> _view</text>
</g>
<!-- Node16 -->
<g id="node16" class="node"><title>Node16</title>
<g id="a_node16"><a xlink:href="class_igor_1_1i_rectangle.html" target="_top" xlink:title="Igor::iRectangle\&lt; int32 \&gt;">
<polygon fill="white" stroke="black" points="1133,-440.5 1133,-459.5 1256,-459.5 1256,-440.5 1133,-440.5"/>
<text text-anchor="middle" x="1194.5" y="-447.5" font-family="Helvetica,sans-Serif" font-size="10.00">Igor::iRectangle&lt; int32 &gt;</text>
</a>
</g>
</g>
<!-- Node16&#45;&gt;Node15 -->
<g id="edge23" class="edge"><title>Node16&#45;&gt;Node15</title>
<path fill="none" stroke="#9a32cd" stroke-dasharray="5,2" d="M1266.25,-452.283C1294.15,-449.859 1324.96,-442.661 1348,-425 1383.75,-397.597 1396.08,-340.593 1399.69,-317.764"/>
<polygon fill="#9a32cd" stroke="#9a32cd" points="1265.87,-448.801 1256.13,-452.97 1266.34,-455.785 1265.87,-448.801"/>
<text text-anchor="middle" x="1313" y="-464" font-family="Helvetica,sans-Serif" font-size="10.00"> _viewport</text>
<text text-anchor="middle" x="1313" y="-453" font-family="Helvetica,sans-Serif" font-size="10.00">_windowRect</text>
</g>
<!-- Node17&#45;&gt;Node16 -->
<g id="edge24" class="edge"><title>Node17&#45;&gt;Node16</title>
<path fill="none" stroke="orange" stroke-dasharray="5,2" d="M1030.33,-450C1062.31,-450 1101.02,-450 1132.71,-450"/>
<polygon fill="orange" stroke="orange" points="1030.2,-446.5 1020.2,-450 1030.2,-453.5 1030.2,-446.5"/>
<text text-anchor="middle" x="1074.5" y="-453" font-family="Helvetica,sans-Serif" font-size="10.00"> &lt; int32 &gt;</text>
</g>
<!-- Node20 -->
<g id="node20" class="node"><title>Node20</title>
<g id="a_node20"><a xlink:href="class_igor_1_1i_rectangle.html" target="_top" xlink:title="Igor::iRectangle\&lt; float32 \&gt;">
<polygon fill="white" stroke="black" points="1129,-402.5 1129,-421.5 1260,-421.5 1260,-402.5 1129,-402.5"/>
<text text-anchor="middle" x="1194.5" y="-409.5" font-family="Helvetica,sans-Serif" font-size="10.00">Igor::iRectangle&lt; float32 &gt;</text>
</a>
</g>
</g>
<!-- Node17&#45;&gt;Node20 -->
<g id="edge33" class="edge"><title>Node17&#45;&gt;Node20</title>
<path fill="none" stroke="orange" stroke-dasharray="5,2" d="M1020.26,-438.398C1026.23,-437.197 1032.24,-436.038 1038,-435 1067.68,-429.653 1100.71,-424.637 1128.67,-420.662"/>
<polygon fill="orange" stroke="orange" points="1019.38,-435.006 1010.29,-440.446 1020.79,-441.862 1019.38,-435.006"/>
<text text-anchor="middle" x="1074.5" y="-438" font-family="Helvetica,sans-Serif" font-size="10.00"> &lt; float32 &gt;</text>
</g>
<!-- Node18&#45;&gt;Node15 -->
<g id="edge27" class="edge"><title>Node18&#45;&gt;Node15</title>
<path fill="none" stroke="#9a32cd" stroke-dasharray="5,2" d="M1255.64,-308C1293.47,-308 1340.65,-308 1370.81,-308"/>
<polygon fill="#9a32cd" stroke="#9a32cd" points="1255.25,-304.5 1245.25,-308 1255.25,-311.5 1255.25,-304.5"/>
<text text-anchor="middle" x="1313" y="-311" font-family="Helvetica,sans-Serif" font-size="10.00"> _renderEngine</text>
</g>
<!-- Node19&#45;&gt;Node18 -->
<g id="edge28" class="edge"><title>Node19&#45;&gt;Node18</title>
<path fill="none" stroke="#9a32cd" stroke-dasharray="5,2" d="M1025.21,-322.893C1061.92,-319.644 1108.95,-315.482 1143.96,-312.384"/>
<polygon fill="#9a32cd" stroke="#9a32cd" points="1024.81,-319.415 1015.15,-323.783 1025.42,-326.388 1024.81,-319.415"/>
<text text-anchor="middle" x="1074.5" y="-325" font-family="Helvetica,sans-Serif" font-size="10.00"> _currentCamera</text>
</g>
<!-- Node20&#45;&gt;Node15 -->
<g id="edge32" class="edge"><title>Node20&#45;&gt;Node15</title>
<path fill="none" stroke="#9a32cd" stroke-dasharray="5,2" d="M1270.4,-412.354C1296.63,-409.46 1325.2,-402.64 1348,-388 1374.78,-370.804 1391.1,-334.735 1397.66,-317.528"/>
<polygon fill="#9a32cd" stroke="#9a32cd" points="1269.74,-408.901 1260.1,-413.308 1270.38,-415.871 1269.74,-408.901"/>
<text text-anchor="middle" x="1313" y="-414" font-family="Helvetica,sans-Serif" font-size="10.00"> _viewportConfig</text>
</g>
<!-- Node21&#45;&gt;Node15 -->
<g id="edge34" class="edge"><title>Node21&#45;&gt;Node15</title>
<path fill="none" stroke="#9a32cd" stroke-dasharray="5,2" d="M342.032,-80.487C442.75,-71.1308 640.851,-55 809.5,-55 809.5,-55 809.5,-55 1075.5,-55 1217.31,-55 1247.72,-120.724 1348,-221 1371.76,-244.761 1389.45,-281.175 1396.99,-298.372"/>
<polygon fill="#9a32cd" stroke="#9a32cd" points="341.635,-77.0087 332.005,-81.426 342.287,-83.9783 341.635,-77.0087"/>
<text text-anchor="middle" x="810.5" y="-59" font-family="Helvetica,sans-Serif" font-size="10.00"> _clearColor</text>
</g>
<!-- Node22&#45;&gt;Node1 -->
<g id="edge36" class="edge"><title>Node22&#45;&gt;Node1</title>
<path fill="none" stroke="#9a32cd" stroke-dasharray="5,2" d="M1029.82,-97.032C1075.2,-95.124 1138.14,-93 1193.5,-93 1193.5,-93 1193.5,-93 1531.5,-93 1552.98,-93 1576.83,-93 1596.81,-93"/>
<polygon fill="#9a32cd" stroke="#9a32cd" points="1029.39,-93.5472 1019.55,-97.4728 1029.69,-100.541 1029.39,-93.5472"/>
<text text-anchor="middle" x="1402" y="-107" font-family="Helvetica,sans-Serif" font-size="10.00"> _rootTransform</text>
<text text-anchor="middle" x="1402" y="-96" font-family="Helvetica,sans-Serif" font-size="10.00">_scaleTransform</text>
</g>
<!-- Node23 -->
<g id="node23" class="node"><title>Node23</title>
<g id="a_node23"><a xlink:href="class_igor_1_1i_target_material.html" target="_top" xlink:title="Igor::iTargetMaterial">
<polygon fill="white" stroke="black" points="509.5,-0.5 509.5,-19.5 611.5,-19.5 611.5,-0.5 509.5,-0.5"/>
<text text-anchor="middle" x="560.5" y="-7.5" font-family="Helvetica,sans-Serif" font-size="10.00">Igor::iTargetMaterial</text>
</a>
</g>
</g>
<!-- Node23&#45;&gt;Node1 -->
<g id="edge39" class="edge"><title>Node23&#45;&gt;Node1</title>
<path fill="none" stroke="#9a32cd" stroke-dasharray="5,2" d="M621.934,-9.49928C657.114,-9.24952 702.316,-9 742.5,-9 742.5,-9 742.5,-9 1531.5,-9 1580.04,-9 1620.47,-61.3 1635.36,-83.3641"/>
<polygon fill="#9a32cd" stroke="#9a32cd" points="621.798,-6.00008 611.824,-9.57301 621.849,-12.9999 621.798,-6.00008"/>
<text text-anchor="middle" x="1074.5" y="-12" font-family="Helvetica,sans-Serif" font-size="10.00"> _targetMaterial</text>
</g>
<!-- Node24&#45;&gt;Node23 -->
<g id="edge40" class="edge"><title>Node24&#45;&gt;Node23</title>
<path fill="none" stroke="#9a32cd" stroke-dasharray="5,2" d="M210.134,-18.4083C293.317,-16.4063 434.306,-13.0131 509.218,-11.2102"/>
<polygon fill="#9a32cd" stroke="#9a32cd" points="209.949,-14.9117 200.036,-18.6514 210.118,-21.9096 209.949,-14.9117"/>
<text text-anchor="middle" x="275" y="-55" font-family="Helvetica,sans-Serif" font-size="10.00"> _emissive</text>
<text text-anchor="middle" x="275" y="-44" font-family="Helvetica,sans-Serif" font-size="10.00">_specular</text>
<text text-anchor="middle" x="275" y="-33" font-family="Helvetica,sans-Serif" font-size="10.00">_diffuse</text>
<text text-anchor="middle" x="275" y="-22" font-family="Helvetica,sans-Serif" font-size="10.00">_ambient</text>
</g>
</g>
</svg>
