<?xml version="1.0" encoding="UTF-8" standalone="no"?>
<!DOCTYPE svg PUBLIC "-//W3C//DTD SVG 1.1//EN"
 "http://www.w3.org/Graphics/SVG/1.1/DTD/svg11.dtd">
<!-- Generated by graphviz version 2.38.0 (20140413.2041)
 -->
<!-- Title: Igor::iMaterialResourceFactory::initDefaultMaterials Pages: 1 -->
<svg width="279pt" height="66pt"
 viewBox="0.00 0.00 279.00 66.00" xmlns="http://www.w3.org/2000/svg" xmlns:xlink="http://www.w3.org/1999/xlink">
<g id="graph0" class="graph" transform="scale(1 1) rotate(0) translate(4 62)">
<title>Igor::iMaterialResourceFactory::initDefaultMaterials</title>
<polygon fill="white" stroke="none" points="-4,4 -4,-62 275,-62 275,4 -4,4"/>
<!-- Node1 -->
<g id="node1" class="node"><title>Node1</title>
<polygon fill="#bfbfbf" stroke="black" points="0,-14 0,-44 149,-44 149,-14 0,-14"/>
<text text-anchor="start" x="8" y="-32" font-family="Helvetica,sans-Serif" font-size="10.00">Igor::iMaterialResourceFactory</text>
<text text-anchor="middle" x="74.5" y="-21" font-family="Helvetica,sans-Serif" font-size="10.00">::initDefaultMaterials</text>
</g>
<!-- Node2 -->
<g id="node2" class="node"><title>Node2</title>
<g id="a_node2"><a xlink:href="namespace_igor.html#a9ca17ac9629ca285f183855e1f350eda" target="_top" xlink:title="Igor::getMaterial">
<polygon fill="white" stroke="black" points="185,-38.5 185,-57.5 271,-57.5 271,-38.5 185,-38.5"/>
<text text-anchor="middle" x="228" y="-45.5" font-family="Helvetica,sans-Serif" font-size="10.00">Igor::getMaterial</text>
</a>
</g>
</g>
<!-- Node1&#45;&gt;Node2 -->
<g id="edge1" class="edge"><title>Node1&#45;&gt;Node2</title>
<path fill="none" stroke="midnightblue" d="M149.031,-38.2217C157.619,-39.2987 166.244,-40.3804 174.466,-41.4115"/>
<polygon fill="midnightblue" stroke="midnightblue" points="174.273,-44.9147 184.63,-42.6863 175.144,-37.9691 174.273,-44.9147"/>
</g>
<!-- Node3 -->
<g id="node3" class="node"><title>Node3</title>
<g id="a_node3"><a xlink:href="namespace_igor.html#a658bed0072edfc04099eb827d1cfb6ba" target="_top" xlink:title="Igor::setMaterial">
<polygon fill="white" stroke="black" points="185,-0.5 185,-19.5 271,-19.5 271,-0.5 185,-0.5"/>
<text text-anchor="middle" x="228" y="-7.5" font-family="Helvetica,sans-Serif" font-size="10.00">Igor::setMaterial</text>
</a>
</g>
</g>
<!-- Node1&#45;&gt;Node3 -->
<g id="edge2" class="edge"><title>Node1&#45;&gt;Node3</title>
<path fill="none" stroke="midnightblue" d="M149.031,-19.7783C157.619,-18.7013 166.244,-17.6196 174.466,-16.5885"/>
<polygon fill="midnightblue" stroke="midnightblue" points="175.144,-20.0309 184.63,-15.3137 174.273,-13.0853 175.144,-20.0309"/>
</g>
</g>
</svg>
