<?xml version="1.0" encoding="UTF-8" standalone="no"?>
<!DOCTYPE svg PUBLIC "-//W3C//DTD SVG 1.1//EN"
 "http://www.w3.org/Graphics/SVG/1.1/DTD/svg11.dtd">
<!-- Generated by graphviz version 2.38.0 (20140413.2041)
 -->
<!-- Title: Igor::iNodeModel::iNodeModel Pages: 1 -->
<svg width="826pt" height="72pt"
 viewBox="0.00 0.00 826.00 71.50" xmlns="http://www.w3.org/2000/svg" xmlns:xlink="http://www.w3.org/1999/xlink">
<g id="graph0" class="graph" transform="scale(1 1) rotate(0) translate(4 67.5)">
<title>Igor::iNodeModel::iNodeModel</title>
<polygon fill="white" stroke="none" points="-4,4 -4,-67.5 822,-67.5 822,4 -4,4"/>
<!-- Node3 -->
<g id="node1" class="node"><title>Node3</title>
<g id="a_node1"><a xlink:title=" ">
<polygon fill="#bfbfbf" stroke="black" points="0,-19.5 0,-38.5 146,-38.5 146,-19.5 0,-19.5"/>
<text text-anchor="middle" x="73" y="-26.5" font-family="Helvetica,sans-Serif" font-size="10.00">Igor::iNodeModel::iNodeModel</text>
</a>
</g>
</g>
<!-- Node4 -->
<g id="node2" class="node"><title>Node4</title>
<g id="a_node2"><a xlink:href="class_igor_1_1i_node_model.html#ab731c3500613a31402bb04315a85b524" target="_top" xlink:title=" ">
<polygon fill="white" stroke="black" points="195,-38.5 195,-57.5 330,-57.5 330,-38.5 195,-38.5"/>
<text text-anchor="middle" x="262.5" y="-45.5" font-family="Helvetica,sans-Serif" font-size="10.00">Igor::iNodeModel::setModel</text>
</a>
</g>
</g>
<!-- Node3&#45;&gt;Node4 -->
<g id="edge1" class="edge"><title>Node3&#45;&gt;Node4</title>
<path fill="none" stroke="midnightblue" d="M146.224,-36.3187C158.842,-37.5973 172.009,-38.9316 184.743,-40.222"/>
<polygon fill="midnightblue" stroke="midnightblue" points="184.542,-43.7195 194.844,-41.2456 185.248,-36.7551 184.542,-43.7195"/>
</g>
<!-- Node8 -->
<g id="node6" class="node"><title>Node8</title>
<g id="a_node6"><a xlink:href="class_igor_1_1i_node_model.html#adf2dd0b4004625024c4daf12d65eb532" target="_top" xlink:title=" ">
<polygon fill="white" stroke="black" points="182,-0.5 182,-19.5 343,-19.5 343,-0.5 182,-0.5"/>
<text text-anchor="middle" x="262.5" y="-7.5" font-family="Helvetica,sans-Serif" font-size="10.00">Igor::iNodeModel::getModelName</text>
</a>
</g>
</g>
<!-- Node3&#45;&gt;Node8 -->
<g id="edge5" class="edge"><title>Node3&#45;&gt;Node8</title>
<path fill="none" stroke="midnightblue" d="M146.224,-21.6813C154.603,-20.8322 163.224,-19.9586 171.8,-19.0896"/>
<polygon fill="midnightblue" stroke="midnightblue" points="172.234,-22.5637 181.83,-18.0733 171.528,-15.5994 172.234,-22.5637"/>
</g>
<!-- Node5 -->
<g id="node3" class="node"><title>Node5</title>
<g id="a_node3"><a xlink:href="class_igor_1_1i_node.html#a7f855c2164f9fc704210c7510afd0a9c" target="_top" xlink:title=" ">
<polygon fill="white" stroke="black" points="379,-38.5 379,-57.5 502,-57.5 502,-38.5 379,-38.5"/>
<text text-anchor="middle" x="440.5" y="-45.5" font-family="Helvetica,sans-Serif" font-size="10.00">Igor::iNode::setDataDirty</text>
</a>
</g>
</g>
<!-- Node4&#45;&gt;Node5 -->
<g id="edge2" class="edge"><title>Node4&#45;&gt;Node5</title>
<path fill="none" stroke="midnightblue" d="M330.038,-48C342.712,-48 356.018,-48 368.816,-48"/>
<polygon fill="midnightblue" stroke="midnightblue" points="368.948,-51.5001 378.948,-48 368.948,-44.5001 368.948,-51.5001"/>
</g>
<!-- Node6 -->
<g id="node4" class="node"><title>Node6</title>
<g id="a_node4"><a xlink:href="class_igor_1_1i_scene.html#acfca34eaff8314fd5edb894074abbe88" target="_top" xlink:title=" ">
<polygon fill="white" stroke="black" points="538,-33 538,-63 690,-63 690,-33 538,-33"/>
<text text-anchor="start" x="546" y="-51" font-family="Helvetica,sans-Serif" font-size="10.00">Igor::iScene::addToDataUpdate</text>
<text text-anchor="middle" x="614" y="-40" font-family="Helvetica,sans-Serif" font-size="10.00">Queue</text>
</a>
</g>
</g>
<!-- Node5&#45;&gt;Node6 -->
<g id="edge3" class="edge"><title>Node5&#45;&gt;Node6</title>
<path fill="none" stroke="midnightblue" d="M502.447,-48C510.682,-48 519.251,-48 527.812,-48"/>
<polygon fill="midnightblue" stroke="midnightblue" points="527.838,-51.5001 537.838,-48 527.838,-44.5001 527.838,-51.5001"/>
</g>
<!-- Node7 -->
<g id="node5" class="node"><title>Node7</title>
<g id="a_node5"><a xlink:href="class_igor_1_1i_node.html#aece61f1af4143a3a1765b19594d72b6e" target="_top" xlink:title=" ">
<polygon fill="white" stroke="black" points="726,-38.5 726,-57.5 818,-57.5 818,-38.5 726,-38.5"/>
<text text-anchor="middle" x="772" y="-45.5" font-family="Helvetica,sans-Serif" font-size="10.00">Igor::iNode::getID</text>
</a>
</g>
</g>
<!-- Node6&#45;&gt;Node7 -->
<g id="edge4" class="edge"><title>Node6&#45;&gt;Node7</title>
<path fill="none" stroke="midnightblue" d="M690.258,-48C698.805,-48 707.395,-48 715.618,-48"/>
<polygon fill="midnightblue" stroke="midnightblue" points="715.806,-51.5001 725.806,-48 715.806,-44.5001 715.806,-51.5001"/>
</g>
</g>
</svg>
