<?xml version="1.0" encoding="UTF-8" standalone="no"?>
<!DOCTYPE svg PUBLIC "-//W3C//DTD SVG 1.1//EN"
 "http://www.w3.org/Graphics/SVG/1.1/DTD/svg11.dtd">
<!-- Generated by graphviz version 2.38.0 (20140413.2041)
 -->
<!-- Title: Igor::iPhysics::createCone Pages: 1 -->
<svg width="457pt" height="135pt"
 viewBox="0.00 0.00 457.00 134.50" xmlns="http://www.w3.org/2000/svg" xmlns:xlink="http://www.w3.org/1999/xlink">
<g id="graph0" class="graph" transform="scale(1 1) rotate(0) translate(4 130.5)">
<title>Igor::iPhysics::createCone</title>
<polygon fill="white" stroke="none" points="-4,4 -4,-130.5 453,-130.5 453,4 -4,4"/>
<!-- Node82 -->
<g id="node1" class="node"><title>Node82</title>
<g id="a_node1"><a xlink:title=" ">
<polygon fill="#bfbfbf" stroke="black" points="0,-69 0,-88 131,-88 131,-69 0,-69"/>
<text text-anchor="middle" x="65.5" y="-76" font-family="Helvetica,sans-Serif" font-size="10.00">Igor::iPhysics::createCone</text>
</a>
</g>
</g>
<!-- Node83 -->
<g id="node2" class="node"><title>Node83</title>
<g id="a_node2"><a xlink:href="class_igor_1_1i_physics.html#ab5efe1f7f2c5a4a94d4eae55289c475a" target="_top" xlink:title=" ">
<polygon fill="white" stroke="black" points="167,-88 167,-107 288,-107 288,-88 167,-88"/>
<text text-anchor="middle" x="227.5" y="-95" font-family="Helvetica,sans-Serif" font-size="10.00">Igor::iPhysics::getWorld</text>
</a>
</g>
</g>
<!-- Node82&#45;&gt;Node83 -->
<g id="edge1" class="edge"><title>Node82&#45;&gt;Node83</title>
<path fill="none" stroke="midnightblue" d="M131.117,-86.1733C139.595,-87.18 148.312,-88.2152 156.869,-89.2313"/>
<polygon fill="midnightblue" stroke="midnightblue" points="156.472,-92.7087 166.815,-90.4124 157.298,-85.7576 156.472,-92.7087"/>
</g>
<!-- Node84 -->
<g id="node3" class="node"><title>Node84</title>
<g id="a_node3"><a xlink:href="class_igor_aux_1_1ia_mutex.html#ab0873c1f25730bd85d6b71d167520921" target="_top" xlink:title=" ">
<polygon fill="white" stroke="black" points="329.5,-107 329.5,-126 443.5,-126 443.5,-107 329.5,-107"/>
<text text-anchor="middle" x="386.5" y="-114" font-family="Helvetica,sans-Serif" font-size="10.00">IgorAux::iaMutex::lock</text>
</a>
</g>
</g>
<!-- Node82&#45;&gt;Node84 -->
<g id="edge5" class="edge"><title>Node82&#45;&gt;Node84</title>
<path fill="none" stroke="midnightblue" d="M85.5428,-88.0848C105.324,-97.4633 137.457,-111.101 167,-116.5 217.438,-125.717 275.526,-125.201 319.125,-122.661"/>
<polygon fill="midnightblue" stroke="midnightblue" points="319.561,-126.14 329.32,-122.015 319.119,-119.154 319.561,-126.14"/>
</g>
<!-- Node85 -->
<g id="node4" class="node"><title>Node85</title>
<g id="a_node4"><a xlink:href="class_igor_aux_1_1ia_mutex.html#a3beb078a1f64de265044ece54657c279" target="_top" xlink:title=" ">
<polygon fill="white" stroke="black" points="324,-60 324,-79 449,-79 449,-60 324,-60"/>
<text text-anchor="middle" x="386.5" y="-67" font-family="Helvetica,sans-Serif" font-size="10.00">IgorAux::iaMutex::unlock</text>
</a>
</g>
</g>
<!-- Node82&#45;&gt;Node85 -->
<g id="edge6" class="edge"><title>Node82&#45;&gt;Node85</title>
<path fill="none" stroke="midnightblue" d="M131.054,-76.6787C183.904,-75.1877 258.619,-73.0797 313.416,-71.5337"/>
<polygon fill="midnightblue" stroke="midnightblue" points="313.854,-75.0228 323.751,-71.2421 313.657,-68.0256 313.854,-75.0228"/>
</g>
<!-- Node86 -->
<g id="node5" class="node"><title>Node86</title>
<g id="a_node5"><a xlink:href="class_igor_aux_1_1ia_matrix.html#a8f8341339caae2135c145ea1ef2e8bf3" target="_top" xlink:title=" ">
<polygon fill="white" stroke="black" points="179.5,-0.5 179.5,-30.5 275.5,-30.5 275.5,-0.5 179.5,-0.5"/>
<text text-anchor="start" x="187.5" y="-18.5" font-family="Helvetica,sans-Serif" font-size="10.00">IgorAux::iaMatrix::</text>
<text text-anchor="middle" x="227.5" y="-7.5" font-family="Helvetica,sans-Serif" font-size="10.00">getData</text>
</a>
</g>
</g>
<!-- Node82&#45;&gt;Node86 -->
<g id="edge4" class="edge"><title>Node82&#45;&gt;Node86</title>
<path fill="none" stroke="midnightblue" d="M90.8006,-68.9317C114.049,-59.7776 149.756,-45.7178 178.708,-34.3181"/>
<polygon fill="midnightblue" stroke="midnightblue" points="180.217,-37.4855 188.24,-30.565 177.653,-30.9722 180.217,-37.4855"/>
</g>
<!-- Node83&#45;&gt;Node84 -->
<g id="edge2" class="edge"><title>Node83&#45;&gt;Node84</title>
<path fill="none" stroke="midnightblue" d="M288.303,-104.737C298.442,-105.964 309.022,-107.245 319.313,-108.49"/>
<polygon fill="midnightblue" stroke="midnightblue" points="319.133,-111.994 329.481,-109.721 319.974,-105.044 319.133,-111.994"/>
</g>
<!-- Node83&#45;&gt;Node85 -->
<g id="edge3" class="edge"><title>Node83&#45;&gt;Node85</title>
<path fill="none" stroke="midnightblue" d="M282.091,-87.9423C294.975,-85.6446 308.857,-83.1689 322.138,-80.8003"/>
<polygon fill="midnightblue" stroke="midnightblue" points="322.92,-84.2161 332.15,-79.0146 321.691,-77.3248 322.92,-84.2161"/>
</g>
</g>
</svg>
