<?xml version="1.0" encoding="UTF-8" standalone="no"?>
<!DOCTYPE svg PUBLIC "-//W3C//DTD SVG 1.1//EN"
 "http://www.w3.org/Graphics/SVG/1.1/DTD/svg11.dtd">
<!-- Generated by graphviz version 2.38.0 (20140413.2041)
 -->
<!-- Title: Igor::iOctree::update Pages: 1 -->
<svg width="376pt" height="53pt"
 viewBox="0.00 0.00 376.00 52.50" xmlns="http://www.w3.org/2000/svg" xmlns:xlink="http://www.w3.org/1999/xlink">
<g id="graph0" class="graph" transform="scale(1 1) rotate(0) translate(4 48.5)">
<title>Igor::iOctree::update</title>
<polygon fill="white" stroke="none" points="-4,4 -4,-48.5 372,-48.5 372,4 -4,4"/>
<!-- Node1 -->
<g id="node1" class="node"><title>Node1</title>
<polygon fill="#bfbfbf" stroke="black" points="0,-19.5 0,-38.5 105,-38.5 105,-19.5 0,-19.5"/>
<text text-anchor="middle" x="52.5" y="-26.5" font-family="Helvetica,sans-Serif" font-size="10.00">Igor::iOctree::update</text>
</g>
<!-- Node2 -->
<g id="node2" class="node"><title>Node2</title>
<g id="a_node2"><a xlink:href="class_igor_1_1i_intersection.html#a6014a2a386e8e33b7f8bf22ece42d3f5" target="_top" xlink:title="Igor::iIntersection\l::intersects">
<polygon fill="white" stroke="black" points="277,-14 277,-44 368,-44 368,-14 277,-14"/>
<text text-anchor="start" x="285" y="-32" font-family="Helvetica,sans-Serif" font-size="10.00">Igor::iIntersection</text>
<text text-anchor="middle" x="322.5" y="-21" font-family="Helvetica,sans-Serif" font-size="10.00">::intersects</text>
</a>
</g>
</g>
<!-- Node1&#45;&gt;Node2 -->
<g id="edge1" class="edge"><title>Node1&#45;&gt;Node2</title>
<path fill="none" stroke="midnightblue" d="M105.173,-29C151.511,-29 219.294,-29 266.597,-29"/>
<polygon fill="midnightblue" stroke="midnightblue" points="266.662,-32.5001 276.662,-29 266.662,-25.5001 266.662,-32.5001"/>
</g>
<!-- Node3 -->
<g id="node3" class="node"><title>Node3</title>
<g id="a_node3"><a xlink:href="class_igor_1_1i_octree.html#a02356a9825edc88cf92bd483dd4a3fba" target="_top" xlink:title="Igor::iOctree::insert">
<polygon fill="white" stroke="black" points="141,-0.5 141,-19.5 241,-19.5 241,-0.5 141,-0.5"/>
<text text-anchor="middle" x="191" y="-7.5" font-family="Helvetica,sans-Serif" font-size="10.00">Igor::iOctree::insert</text>
</a>
</g>
</g>
<!-- Node1&#45;&gt;Node3 -->
<g id="edge2" class="edge"><title>Node1&#45;&gt;Node3</title>
<path fill="none" stroke="midnightblue" d="M105.105,-21.8169C113.371,-20.6664 121.983,-19.4675 130.416,-18.2937"/>
<polygon fill="midnightblue" stroke="midnightblue" points="131.157,-21.7245 140.579,-16.8792 130.192,-14.7913 131.157,-21.7245"/>
</g>
<!-- Node3&#45;&gt;Node2 -->
<g id="edge3" class="edge"><title>Node3&#45;&gt;Node2</title>
<path fill="none" stroke="midnightblue" d="M241.328,-17.2373C249.662,-18.46 258.357,-19.7358 266.818,-20.9772"/>
<polygon fill="midnightblue" stroke="midnightblue" points="266.579,-24.4795 276.982,-22.4683 267.596,-17.5537 266.579,-24.4795"/>
</g>
</g>
</svg>
