<?xml version="1.0" encoding="UTF-8" standalone="no"?>
<!DOCTYPE svg PUBLIC "-//W3C//DTD SVG 1.1//EN"
 "http://www.w3.org/Graphics/SVG/1.1/DTD/svg11.dtd">
<!-- Generated by graphviz version 2.38.0 (20140413.2041)
 -->
<!-- Title: Igor::iUserControlColorChooser::initCollapsed Pages: 1 -->
<svg width="355pt" height="361pt"
 viewBox="0.00 0.00 355.00 361.00" xmlns="http://www.w3.org/2000/svg" xmlns:xlink="http://www.w3.org/1999/xlink">
<g id="graph0" class="graph" transform="scale(1 1) rotate(0) translate(4 357)">
<title>Igor::iUserControlColorChooser::initCollapsed</title>
<polygon fill="white" stroke="none" points="-4,4 -4,-357 351,-357 351,4 -4,4"/>
<!-- Node176 -->
<g id="node1" class="node"><title>Node176</title>
<g id="a_node1"><a xlink:title=" ">
<polygon fill="#bfbfbf" stroke="black" points="0,-150.5 0,-180.5 150,-180.5 150,-150.5 0,-150.5"/>
<text text-anchor="start" x="8" y="-168.5" font-family="Helvetica,sans-Serif" font-size="10.00">Igor::iUserControlColorChooser</text>
<text text-anchor="middle" x="75" y="-157.5" font-family="Helvetica,sans-Serif" font-size="10.00">::initCollapsed</text>
</a>
</g>
</g>
<!-- Node177 -->
<g id="node2" class="node"><title>Node177</title>
<g id="a_node2"><a xlink:href="class_igor_aux_1_1ia_singleton.html#a821f1d891129e6d09b992be81094540e" target="_top" xlink:title=" ">
<polygon fill="white" stroke="black" points="186,-322.5 186,-352.5 347,-352.5 347,-322.5 186,-322.5"/>
<text text-anchor="start" x="194" y="-340.5" font-family="Helvetica,sans-Serif" font-size="10.00">IgorAux::iaSingleton</text>
<text text-anchor="middle" x="266.5" y="-329.5" font-family="Helvetica,sans-Serif" font-size="10.00">&lt; iWidgetManager &gt;::getInstance</text>
</a>
</g>
</g>
<!-- Node176&#45;&gt;Node177 -->
<g id="edge1" class="edge"><title>Node176&#45;&gt;Node177</title>
<path fill="none" stroke="midnightblue" d="M83.0593,-180.592C97.8324,-210.526 134.918,-277.614 186,-313.5 188.116,-314.987 190.326,-316.383 192.606,-317.694"/>
<polygon fill="midnightblue" stroke="midnightblue" points="191.202,-320.906 201.699,-322.34 194.387,-314.673 191.202,-320.906"/>
</g>
<!-- Node178 -->
<g id="node3" class="node"><title>Node178</title>
<g id="a_node3"><a xlink:href="class_igor_1_1i_widget.html#a74cedb6d5151910c64b7d51491775e9a" target="_top" xlink:title=" ">
<polygon fill="white" stroke="black" points="199.5,-273.5 199.5,-303.5 333.5,-303.5 333.5,-273.5 199.5,-273.5"/>
<text text-anchor="start" x="207.5" y="-291.5" font-family="Helvetica,sans-Serif" font-size="10.00">Igor::iWidget::setHorizontal</text>
<text text-anchor="middle" x="266.5" y="-280.5" font-family="Helvetica,sans-Serif" font-size="10.00">Alignment</text>
</a>
</g>
</g>
<!-- Node176&#45;&gt;Node178 -->
<g id="edge2" class="edge"><title>Node176&#45;&gt;Node178</title>
<path fill="none" stroke="midnightblue" d="M88.9931,-180.855C108.116,-202.52 145.93,-241.928 186,-264.5 189.203,-266.304 192.557,-267.987 196,-269.555"/>
<polygon fill="midnightblue" stroke="midnightblue" points="194.702,-272.806 205.278,-273.441 197.406,-266.35 194.702,-272.806"/>
</g>
<!-- Node179 -->
<g id="node4" class="node"><title>Node179</title>
<g id="a_node4"><a xlink:href="class_igor_1_1i_widget.html#a07294a337cb2c07d5d5088a4ab4550da" target="_top" xlink:title=" ">
<polygon fill="white" stroke="black" points="204.5,-224.5 204.5,-254.5 328.5,-254.5 328.5,-224.5 204.5,-224.5"/>
<text text-anchor="start" x="212.5" y="-242.5" font-family="Helvetica,sans-Serif" font-size="10.00">Igor::iWidget::setVertical</text>
<text text-anchor="middle" x="266.5" y="-231.5" font-family="Helvetica,sans-Serif" font-size="10.00">Alignment</text>
</a>
</g>
</g>
<!-- Node176&#45;&gt;Node179 -->
<g id="edge3" class="edge"><title>Node176&#45;&gt;Node179</title>
<path fill="none" stroke="midnightblue" d="M106.357,-180.624C128.192,-191.173 158.513,-205.157 186,-215.5 191.359,-217.517 196.97,-219.485 202.624,-221.372"/>
<polygon fill="midnightblue" stroke="midnightblue" points="201.552,-224.704 212.144,-224.465 203.714,-218.047 201.552,-224.704"/>
</g>
<!-- Node180 -->
<g id="node5" class="node"><title>Node180</title>
<g id="a_node5"><a xlink:href="class_igor_1_1i_widget_grid.html#a3f9af42fc1b7fdebd5d9f2ad82b68884" target="_top" xlink:title=" ">
<polygon fill="white" stroke="black" points="219,-175.5 219,-205.5 314,-205.5 314,-175.5 219,-175.5"/>
<text text-anchor="start" x="227" y="-193.5" font-family="Helvetica,sans-Serif" font-size="10.00">Igor::iWidgetGrid::</text>
<text text-anchor="middle" x="266.5" y="-182.5" font-family="Helvetica,sans-Serif" font-size="10.00">appendCollumns</text>
</a>
</g>
</g>
<!-- Node176&#45;&gt;Node180 -->
<g id="edge4" class="edge"><title>Node176&#45;&gt;Node180</title>
<path fill="none" stroke="midnightblue" d="M150.08,-175.273C169.612,-177.85 190.376,-180.589 208.828,-183.024"/>
<polygon fill="midnightblue" stroke="midnightblue" points="208.447,-186.504 218.819,-184.342 209.363,-179.564 208.447,-186.504"/>
</g>
<!-- Node181 -->
<g id="node6" class="node"><title>Node181</title>
<g id="a_node6"><a xlink:href="class_igor_1_1i_widget_grid.html#a56bcb476543d78941ee1f2ab756b21bc" target="_top" xlink:title=" ">
<polygon fill="white" stroke="black" points="219,-126.5 219,-156.5 314,-156.5 314,-126.5 219,-126.5"/>
<text text-anchor="start" x="227" y="-144.5" font-family="Helvetica,sans-Serif" font-size="10.00">Igor::iWidgetGrid::</text>
<text text-anchor="middle" x="266.5" y="-133.5" font-family="Helvetica,sans-Serif" font-size="10.00">setCellSpacing</text>
</a>
</g>
</g>
<!-- Node176&#45;&gt;Node181 -->
<g id="edge5" class="edge"><title>Node176&#45;&gt;Node181</title>
<path fill="none" stroke="midnightblue" d="M150.08,-156.118C169.612,-153.644 190.376,-151.014 208.828,-148.677"/>
<polygon fill="midnightblue" stroke="midnightblue" points="209.338,-152.141 218.819,-147.412 208.459,-145.196 209.338,-152.141"/>
</g>
<!-- Node182 -->
<g id="node7" class="node"><title>Node182</title>
<g id="a_node7"><a xlink:href="class_igor_1_1i_widget.html#af44098e3682aafa4b2e74fa0d273679d" target="_top" xlink:title=" ">
<polygon fill="white" stroke="black" points="208.5,-88 208.5,-107 324.5,-107 324.5,-88 208.5,-88"/>
<text text-anchor="middle" x="266.5" y="-95" font-family="Helvetica,sans-Serif" font-size="10.00">Igor::iWidget::setWidth</text>
</a>
</g>
</g>
<!-- Node176&#45;&gt;Node182 -->
<g id="edge6" class="edge"><title>Node176&#45;&gt;Node182</title>
<path fill="none" stroke="midnightblue" d="M106.752,-150.449C128.516,-140.204 158.591,-126.856 186,-117.5 194.416,-114.627 203.46,-111.965 212.324,-109.582"/>
<polygon fill="midnightblue" stroke="midnightblue" points="213.413,-112.916 222.212,-107.014 211.653,-106.14 213.413,-112.916"/>
</g>
<!-- Node183 -->
<g id="node8" class="node"><title>Node183</title>
<g id="a_node8"><a xlink:href="class_igor_1_1i_widget.html#a3218cd1015986a46e48ce181d1310956" target="_top" xlink:title=" ">
<polygon fill="white" stroke="black" points="207,-50 207,-69 326,-69 326,-50 207,-50"/>
<text text-anchor="middle" x="266.5" y="-57" font-family="Helvetica,sans-Serif" font-size="10.00">Igor::iWidget::setHeight</text>
</a>
</g>
</g>
<!-- Node176&#45;&gt;Node183 -->
<g id="edge7" class="edge"><title>Node176&#45;&gt;Node183</title>
<path fill="none" stroke="midnightblue" d="M90.5557,-150.47C110.34,-130.929 147.667,-97.1059 186,-78.5 190.947,-76.0988 196.218,-73.9893 201.601,-72.138"/>
<polygon fill="midnightblue" stroke="midnightblue" points="202.871,-75.4079 211.367,-69.0776 200.778,-68.7282 202.871,-75.4079"/>
</g>
<!-- Node184 -->
<g id="node9" class="node"><title>Node184</title>
<g id="a_node9"><a xlink:href="class_igor_1_1i_widget_grid.html#a764137d148d8977d459c6ea0635eadeb" target="_top" xlink:title=" ">
<polygon fill="white" stroke="black" points="219,-0.5 219,-30.5 314,-30.5 314,-0.5 219,-0.5"/>
<text text-anchor="start" x="227" y="-18.5" font-family="Helvetica,sans-Serif" font-size="10.00">Igor::iWidgetGrid::</text>
<text text-anchor="middle" x="266.5" y="-7.5" font-family="Helvetica,sans-Serif" font-size="10.00">addWidget</text>
</a>
</g>
</g>
<!-- Node176&#45;&gt;Node184 -->
<g id="edge8" class="edge"><title>Node176&#45;&gt;Node184</title>
<path fill="none" stroke="midnightblue" d="M85.25,-150.419C102.074,-124.231 140.207,-70.3001 186,-40.5 193.06,-35.9056 201.021,-32.108 209.107,-28.9822"/>
<polygon fill="midnightblue" stroke="midnightblue" points="210.354,-32.2535 218.611,-25.6141 208.016,-25.6556 210.354,-32.2535"/>
</g>
</g>
</svg>
