<?xml version="1.0" encoding="UTF-8" standalone="no"?>
<!DOCTYPE svg PUBLIC "-//W3C//DTD SVG 1.1//EN"
 "http://www.w3.org/Graphics/SVG/1.1/DTD/svg11.dtd">
<!-- Generated by graphviz version 2.38.0 (20140413.2041)
 -->
<!-- Title: Igor::iScene::registerRenderable Pages: 1 -->
<svg width="437pt" height="39pt"
 viewBox="0.00 0.00 437.00 39.00" xmlns="http://www.w3.org/2000/svg" xmlns:xlink="http://www.w3.org/1999/xlink">
<g id="graph0" class="graph" transform="scale(1 1) rotate(0) translate(4 35)">
<title>Igor::iScene::registerRenderable</title>
<polygon fill="white" stroke="none" points="-4,4 -4,-35 433,-35 433,4 -4,4"/>
<!-- Node1 -->
<g id="node1" class="node"><title>Node1</title>
<polygon fill="#bfbfbf" stroke="black" points="0,-6 0,-25 155,-25 155,-6 0,-6"/>
<text text-anchor="middle" x="77.5" y="-13" font-family="Helvetica,sans-Serif" font-size="10.00">Igor::iScene::registerRenderable</text>
</g>
<!-- Node2 -->
<g id="node2" class="node"><title>Node2</title>
<g id="a_node2"><a xlink:href="class_igor_1_1i_node_render.html#a3b6afcd3c7229fd1fa136610f684e5af" target="_top" xlink:title="Igor::iNodeRender::\lonPostSetScene">
<polygon fill="white" stroke="black" points="191,-0.5 191,-30.5 291,-30.5 291,-0.5 191,-0.5"/>
<text text-anchor="start" x="199" y="-18.5" font-family="Helvetica,sans-Serif" font-size="10.00">Igor::iNodeRender::</text>
<text text-anchor="middle" x="241" y="-7.5" font-family="Helvetica,sans-Serif" font-size="10.00">onPostSetScene</text>
</a>
</g>
</g>
<!-- Node1&#45;&gt;Node2 -->
<g id="edge1" class="edge"><title>Node1&#45;&gt;Node2</title>
<path fill="none" stroke="midnightblue" d="M165.614,-15.5C174.241,-15.5 182.77,-15.5 190.805,-15.5"/>
<polygon fill="midnightblue" stroke="midnightblue" points="165.466,-12.0001 155.466,-15.5 165.466,-19.0001 165.466,-12.0001"/>
</g>
<!-- Node3 -->
<g id="node3" class="node"><title>Node3</title>
<g id="a_node3"><a xlink:href="class_igor_1_1i_node_volume.html#af22460eec7108d791c652222ee3f7bff" target="_top" xlink:title="Igor::iNodeVolume::\lonPostSetScene">
<polygon fill="white" stroke="black" points="327,-0.5 327,-30.5 429,-30.5 429,-0.5 327,-0.5"/>
<text text-anchor="start" x="335" y="-18.5" font-family="Helvetica,sans-Serif" font-size="10.00">Igor::iNodeVolume::</text>
<text text-anchor="middle" x="378" y="-7.5" font-family="Helvetica,sans-Serif" font-size="10.00">onPostSetScene</text>
</a>
</g>
</g>
<!-- Node2&#45;&gt;Node3 -->
<g id="edge2" class="edge"><title>Node2&#45;&gt;Node3</title>
<path fill="none" stroke="midnightblue" d="M301.348,-15.5C309.835,-15.5 318.495,-15.5 326.783,-15.5"/>
<polygon fill="midnightblue" stroke="midnightblue" points="301.12,-12.0001 291.12,-15.5 301.12,-19.0001 301.12,-12.0001"/>
</g>
</g>
</svg>
