<?xml version="1.0" encoding="UTF-8" standalone="no"?>
<!DOCTYPE svg PUBLIC "-//W3C//DTD SVG 1.1//EN"
 "http://www.w3.org/Graphics/SVG/1.1/DTD/svg11.dtd">
<!-- Generated by graphviz version 2.38.0 (20140413.2041)
 -->
<!-- Title: Igor::iEntityManager::getEntities Pages: 1 -->
<svg width="544pt" height="142pt"
 viewBox="0.00 0.00 544.00 142.00" xmlns="http://www.w3.org/2000/svg" xmlns:xlink="http://www.w3.org/1999/xlink">
<g id="graph0" class="graph" transform="scale(1 1) rotate(0) translate(4 138)">
<title>Igor::iEntityManager::getEntities</title>
<polygon fill="white" stroke="none" points="-4,4 -4,-138 540,-138 540,4 -4,4"/>
<!-- Node1 -->
<g id="node1" class="node"><title>Node1</title>
<polygon fill="#bfbfbf" stroke="black" points="0,-52 0,-82 104,-82 104,-52 0,-52"/>
<text text-anchor="start" x="8" y="-70" font-family="Helvetica,sans-Serif" font-size="10.00">Igor::iEntityManager</text>
<text text-anchor="middle" x="52" y="-59" font-family="Helvetica,sans-Serif" font-size="10.00">::getEntities</text>
</g>
<!-- Node2 -->
<g id="node2" class="node"><title>Node2</title>
<g id="a_node2"><a xlink:href="class_igor_1_1i_octree.html#a6e5829cfbf13edf5e435e37cf983158c" target="_top" xlink:title="Igor::iOctree::clearFilter">
<polygon fill="white" stroke="black" points="140,-114.5 140,-133.5 259,-133.5 259,-114.5 140,-114.5"/>
<text text-anchor="middle" x="199.5" y="-121.5" font-family="Helvetica,sans-Serif" font-size="10.00">Igor::iOctree::clearFilter</text>
</a>
</g>
</g>
<!-- Node1&#45;&gt;Node2 -->
<g id="edge1" class="edge"><title>Node1&#45;&gt;Node2</title>
<path fill="none" stroke="midnightblue" d="M85.3264,-82.0181C101.576,-89.3364 121.664,-98.037 140,-105 145.564,-107.113 151.478,-109.206 157.326,-111.189"/>
<polygon fill="midnightblue" stroke="midnightblue" points="156.439,-114.582 167.032,-114.404 158.64,-107.937 156.439,-114.582"/>
</g>
<!-- Node3 -->
<g id="node3" class="node"><title>Node3</title>
<g id="a_node3"><a xlink:href="class_igor_1_1i_octree.html#a8bcf17bcf70c00015576b1e96d3cbfb3" target="_top" xlink:title="Igor::iOctree::addFilter">
<polygon fill="white" stroke="black" points="143,-76.5 143,-95.5 256,-95.5 256,-76.5 143,-76.5"/>
<text text-anchor="middle" x="199.5" y="-83.5" font-family="Helvetica,sans-Serif" font-size="10.00">Igor::iOctree::addFilter</text>
</a>
</g>
</g>
<!-- Node1&#45;&gt;Node3 -->
<g id="edge2" class="edge"><title>Node1&#45;&gt;Node3</title>
<path fill="none" stroke="midnightblue" d="M104.298,-73.6987C113.431,-74.8913 123.059,-76.1486 132.532,-77.3857"/>
<polygon fill="midnightblue" stroke="midnightblue" points="132.351,-80.8917 142.72,-78.7161 133.258,-73.9506 132.351,-80.8917"/>
</g>
<!-- Node4 -->
<g id="node4" class="node"><title>Node4</title>
<g id="a_node4"><a xlink:href="class_igor_1_1i_octree.html#a76d17a0c122ae0bef60be65c6531b23a" target="_top" xlink:title="Igor::iOctree::filter">
<polygon fill="white" stroke="black" points="152.5,-38.5 152.5,-57.5 246.5,-57.5 246.5,-38.5 152.5,-38.5"/>
<text text-anchor="middle" x="199.5" y="-45.5" font-family="Helvetica,sans-Serif" font-size="10.00">Igor::iOctree::filter</text>
</a>
</g>
</g>
<!-- Node1&#45;&gt;Node4 -->
<g id="edge3" class="edge"><title>Node1&#45;&gt;Node4</title>
<path fill="none" stroke="midnightblue" d="M104.298,-60.3013C116.443,-58.7154 129.463,-57.0151 141.831,-55.4001"/>
<polygon fill="midnightblue" stroke="midnightblue" points="142.571,-58.8333 152.033,-54.0678 141.664,-51.8922 142.571,-58.8333"/>
</g>
<!-- Node9 -->
<g id="node9" class="node"><title>Node9</title>
<g id="a_node9"><a xlink:href="class_igor_1_1i_octree.html#ae3b52b4a9ea1227c47df624b177f3904" target="_top" xlink:title="Igor::iOctree::getResult">
<polygon fill="white" stroke="black" points="141,-0.5 141,-19.5 258,-19.5 258,-0.5 141,-0.5"/>
<text text-anchor="middle" x="199.5" y="-7.5" font-family="Helvetica,sans-Serif" font-size="10.00">Igor::iOctree::getResult</text>
</a>
</g>
</g>
<!-- Node1&#45;&gt;Node9 -->
<g id="edge8" class="edge"><title>Node1&#45;&gt;Node9</title>
<path fill="none" stroke="midnightblue" d="M85.3264,-51.9819C101.576,-44.6636 121.664,-35.963 140,-29 145.564,-26.8871 151.478,-24.7937 157.326,-22.8114"/>
<polygon fill="midnightblue" stroke="midnightblue" points="158.64,-26.0633 167.032,-19.5963 156.439,-19.4183 158.64,-26.0633"/>
</g>
<!-- Node5 -->
<g id="node5" class="node"><title>Node5</title>
<g id="a_node5"><a xlink:href="class_igor_1_1i_octree.html#aa3b54fdf7ba95e2570b3a024facd875b" target="_top" xlink:title="Igor::iOctree::testFilter">
<polygon fill="white" stroke="black" points="295,-57.5 295,-76.5 409,-76.5 409,-57.5 295,-57.5"/>
<text text-anchor="middle" x="352" y="-64.5" font-family="Helvetica,sans-Serif" font-size="10.00">Igor::iOctree::testFilter</text>
</a>
</g>
</g>
<!-- Node4&#45;&gt;Node5 -->
<g id="edge4" class="edge"><title>Node4&#45;&gt;Node5</title>
<path fill="none" stroke="midnightblue" d="M246.883,-53.8557C258.877,-55.3699 272.025,-57.0297 284.818,-58.6448"/>
<polygon fill="midnightblue" stroke="midnightblue" points="284.613,-62.1466 294.973,-59.9268 285.49,-55.2017 284.613,-62.1466"/>
</g>
<!-- Node8 -->
<g id="node8" class="node"><title>Node8</title>
<g id="a_node8"><a xlink:href="class_igor_1_1i_octree.html#af1deb13e0dc9dd5332d825ab7d6606b6" target="_top" xlink:title="Igor::iOctree::filter">
<polygon fill="white" stroke="black" points="305,-19.5 305,-38.5 399,-38.5 399,-19.5 305,-19.5"/>
<text text-anchor="middle" x="352" y="-26.5" font-family="Helvetica,sans-Serif" font-size="10.00">Igor::iOctree::filter</text>
</a>
</g>
</g>
<!-- Node4&#45;&gt;Node8 -->
<g id="edge7" class="edge"><title>Node4&#45;&gt;Node8</title>
<path fill="none" stroke="midnightblue" d="M246.883,-42.1443C261.974,-40.2392 278.89,-38.1036 294.629,-36.1166"/>
<polygon fill="midnightblue" stroke="midnightblue" points="295.287,-39.5614 304.77,-34.8363 294.41,-32.6165 295.287,-39.5614"/>
</g>
<!-- Node6 -->
<g id="node6" class="node"><title>Node6</title>
<g id="a_node6"><a xlink:href="class_igor_1_1i_intersection.html#aa1673ede8c9eebd7becf60742d0f1e4e" target="_top" xlink:title="Igor::iIntersection\l::inFrontOf">
<polygon fill="white" stroke="black" points="445,-76 445,-106 536,-106 536,-76 445,-76"/>
<text text-anchor="start" x="453" y="-94" font-family="Helvetica,sans-Serif" font-size="10.00">Igor::iIntersection</text>
<text text-anchor="middle" x="490.5" y="-83" font-family="Helvetica,sans-Serif" font-size="10.00">::inFrontOf</text>
</a>
</g>
</g>
<!-- Node5&#45;&gt;Node6 -->
<g id="edge5" class="edge"><title>Node5&#45;&gt;Node6</title>
<path fill="none" stroke="midnightblue" d="M407.341,-76.5544C416.416,-78.15 425.833,-79.8058 434.914,-81.4025"/>
<polygon fill="midnightblue" stroke="midnightblue" points="434.533,-84.889 444.988,-83.1737 435.745,-77.9948 434.533,-84.889"/>
</g>
<!-- Node7 -->
<g id="node7" class="node"><title>Node7</title>
<g id="a_node7"><a xlink:href="class_igor_1_1i_intersection.html#a6014a2a386e8e33b7f8bf22ece42d3f5" target="_top" xlink:title="Igor::iIntersection\l::intersects">
<polygon fill="white" stroke="black" points="445,-27 445,-57 536,-57 536,-27 445,-27"/>
<text text-anchor="start" x="453" y="-45" font-family="Helvetica,sans-Serif" font-size="10.00">Igor::iIntersection</text>
<text text-anchor="middle" x="490.5" y="-34" font-family="Helvetica,sans-Serif" font-size="10.00">::intersects</text>
</a>
</g>
</g>
<!-- Node5&#45;&gt;Node7 -->
<g id="edge6" class="edge"><title>Node5&#45;&gt;Node7</title>
<path fill="none" stroke="midnightblue" d="M404.994,-57.4773C414.724,-55.6953 424.921,-53.8276 434.732,-52.0308"/>
<polygon fill="midnightblue" stroke="midnightblue" points="435.574,-55.4349 444.78,-50.1905 434.313,-48.5494 435.574,-55.4349"/>
</g>
</g>
</svg>
