<?xml version="1.0" encoding="UTF-8" standalone="no"?>
<!DOCTYPE svg PUBLIC "-//W3C//DTD SVG 1.1//EN"
 "http://www.w3.org/Graphics/SVG/1.1/DTD/svg11.dtd">
<!-- Generated by graphviz version 2.38.0 (20140413.2041)
 -->
<!-- Title: Igor::iNodeCamera::iNodeCamera Pages: 1 -->
<svg width="255pt" height="66pt"
 viewBox="0.00 0.00 255.00 66.00" xmlns="http://www.w3.org/2000/svg" xmlns:xlink="http://www.w3.org/1999/xlink">
<g id="graph0" class="graph" transform="scale(1 1) rotate(0) translate(4 62)">
<title>Igor::iNodeCamera::iNodeCamera</title>
<polygon fill="white" stroke="none" points="-4,4 -4,-62 251,-62 251,4 -4,4"/>
<!-- Node3 -->
<g id="node1" class="node"><title>Node3</title>
<g id="a_node1"><a xlink:title=" ">
<polygon fill="#bfbfbf" stroke="black" points="0,-14 0,-44 103,-44 103,-14 0,-14"/>
<text text-anchor="start" x="8" y="-32" font-family="Helvetica,sans-Serif" font-size="10.00">Igor::iNodeCamera::</text>
<text text-anchor="middle" x="51.5" y="-21" font-family="Helvetica,sans-Serif" font-size="10.00">iNodeCamera</text>
</a>
</g>
</g>
<!-- Node4 -->
<g id="node2" class="node"><title>Node4</title>
<g id="a_node2"><a xlink:href="class_igor_1_1i_node.html#ae0d333770cbc83471e71deb2d60465c5" target="_top" xlink:title=" ">
<polygon fill="white" stroke="black" points="139,-38.5 139,-57.5 247,-57.5 247,-38.5 139,-38.5"/>
<text text-anchor="middle" x="193" y="-45.5" font-family="Helvetica,sans-Serif" font-size="10.00">Igor::iNode::setName</text>
</a>
</g>
</g>
<!-- Node3&#45;&gt;Node4 -->
<g id="edge1" class="edge"><title>Node3&#45;&gt;Node4</title>
<path fill="none" stroke="midnightblue" d="M103.257,-35.9132C111.544,-37.0419 120.218,-38.2233 128.761,-39.3868"/>
<polygon fill="midnightblue" stroke="midnightblue" points="128.317,-42.8586 138.698,-40.7403 129.262,-35.9226 128.317,-42.8586"/>
</g>
<!-- Node5 -->
<g id="node3" class="node"><title>Node5</title>
<g id="a_node3"><a xlink:href="class_igor_1_1i_node.html#a80bd4ffd9048275d4921b62160ce50fa" target="_top" xlink:title=" ">
<polygon fill="white" stroke="black" points="139,-0.5 139,-19.5 247,-19.5 247,-0.5 139,-0.5"/>
<text text-anchor="middle" x="193" y="-7.5" font-family="Helvetica,sans-Serif" font-size="10.00">Igor::iNode::getName</text>
</a>
</g>
</g>
<!-- Node3&#45;&gt;Node5 -->
<g id="edge2" class="edge"><title>Node3&#45;&gt;Node5</title>
<path fill="none" stroke="midnightblue" d="M103.257,-22.0868C111.544,-20.9581 120.218,-19.7767 128.761,-18.6132"/>
<polygon fill="midnightblue" stroke="midnightblue" points="129.262,-22.0774 138.698,-17.2597 128.317,-15.1414 129.262,-22.0774"/>
</g>
</g>
</svg>
