<?xml version="1.0" encoding="UTF-8" standalone="no"?>
<!DOCTYPE svg PUBLIC "-//W3C//DTD SVG 1.1//EN"
 "http://www.w3.org/Graphics/SVG/1.1/DTD/svg11.dtd">
<!-- Generated by graphviz version 2.38.0 (20140413.2041)
 -->
<!-- Title: Igor::iNodeTransform::identity Pages: 1 -->
<svg width="451pt" height="88pt"
 viewBox="0.00 0.00 451.00 88.00" xmlns="http://www.w3.org/2000/svg" xmlns:xlink="http://www.w3.org/1999/xlink">
<g id="graph0" class="graph" transform="scale(1 1) rotate(0) translate(4 84)">
<title>Igor::iNodeTransform::identity</title>
<polygon fill="white" stroke="none" points="-4,4 -4,-84 447,-84 447,4 -4,4"/>
<!-- Node34 -->
<g id="node1" class="node"><title>Node34</title>
<g id="a_node1"><a xlink:title=" ">
<polygon fill="#bfbfbf" stroke="black" points="337,-24.5 337,-54.5 443,-54.5 443,-24.5 337,-24.5"/>
<text text-anchor="start" x="345" y="-42.5" font-family="Helvetica,sans-Serif" font-size="10.00">Igor::iNodeTransform</text>
<text text-anchor="middle" x="390" y="-31.5" font-family="Helvetica,sans-Serif" font-size="10.00">::identity</text>
</a>
</g>
</g>
<!-- Node35 -->
<g id="node2" class="node"><title>Node35</title>
<g id="a_node2"><a xlink:href="class_widget3_d_emitter.html#ada67ed081bc12f2a99fb26918efe24e8" target="_top" xlink:title=" ">
<polygon fill="white" stroke="black" points="175,-30 175,-49 301,-49 301,-30 175,-30"/>
<text text-anchor="middle" x="238" y="-37" font-family="Helvetica,sans-Serif" font-size="10.00">Widget3DEmitter::update</text>
</a>
</g>
</g>
<!-- Node34&#45;&gt;Node35 -->
<g id="edge1" class="edge"><title>Node34&#45;&gt;Node35</title>
<path fill="none" stroke="midnightblue" d="M326.733,-39.5C318.234,-39.5 309.51,-39.5 301.015,-39.5"/>
<polygon fill="midnightblue" stroke="midnightblue" points="326.958,-43.0001 336.958,-39.5 326.958,-36.0001 326.958,-43.0001"/>
</g>
<!-- Node36 -->
<g id="node3" class="node"><title>Node36</title>
<g id="a_node3"><a xlink:href="class_widget3_d_emitter.html#a363f3a0acfbb9f55c5bfd54c326f2935" target="_top" xlink:title=" ">
<polygon fill="white" stroke="black" points="3,-49.5 3,-79.5 136,-79.5 136,-49.5 3,-49.5"/>
<text text-anchor="start" x="11" y="-67.5" font-family="Helvetica,sans-Serif" font-size="10.00">Widget3DEmitter::Widget3</text>
<text text-anchor="middle" x="69.5" y="-56.5" font-family="Helvetica,sans-Serif" font-size="10.00">DEmitter</text>
</a>
</g>
</g>
<!-- Node35&#45;&gt;Node36 -->
<g id="edge2" class="edge"><title>Node35&#45;&gt;Node36</title>
<path fill="none" stroke="midnightblue" d="M164.408,-50.3996C154.994,-51.8132 145.395,-53.2545 136.104,-54.6496"/>
<polygon fill="midnightblue" stroke="midnightblue" points="165.158,-53.8263 174.528,-48.8802 164.119,-46.9039 165.158,-53.8263"/>
</g>
<!-- Node37 -->
<g id="node4" class="node"><title>Node37</title>
<g id="a_node4"><a xlink:href="class_widget3_d_emitter.html#a87ddec2cb5f9e7c5c7f40a84deb63e26" target="_top" xlink:title=" ">
<polygon fill="white" stroke="black" points="0,-0.5 0,-30.5 139,-30.5 139,-0.5 0,-0.5"/>
<text text-anchor="start" x="8" y="-18.5" font-family="Helvetica,sans-Serif" font-size="10.00">Widget3DEmitter::~Widget3</text>
<text text-anchor="middle" x="69.5" y="-7.5" font-family="Helvetica,sans-Serif" font-size="10.00">DEmitter</text>
</a>
</g>
</g>
<!-- Node35&#45;&gt;Node37 -->
<g id="edge3" class="edge"><title>Node35&#45;&gt;Node37</title>
<path fill="none" stroke="midnightblue" d="M164.406,-29.036C156.03,-27.8286 147.507,-26.6001 139.184,-25.4004"/>
<polygon fill="midnightblue" stroke="midnightblue" points="164.131,-32.5324 174.528,-30.495 165.13,-25.604 164.131,-32.5324"/>
</g>
</g>
</svg>
