<?xml version="1.0" encoding="UTF-8" standalone="no"?>
<!DOCTYPE svg PUBLIC "-//W3C//DTD SVG 1.1//EN"
 "http://www.w3.org/Graphics/SVG/1.1/DTD/svg11.dtd">
<!-- Generated by graphviz version 2.38.0 (20140413.2041)
 -->
<!-- Title: OMPF::ompfSettings::getCustomDataSizeSize Pages: 1 -->
<svg width="304pt" height="88pt"
 viewBox="0.00 0.00 304.00 88.00" xmlns="http://www.w3.org/2000/svg" xmlns:xlink="http://www.w3.org/1999/xlink">
<g id="graph0" class="graph" transform="scale(1 1) rotate(0) translate(4 84)">
<title>OMPF::ompfSettings::getCustomDataSizeSize</title>
<polygon fill="white" stroke="none" points="-4,4 -4,-84 300,-84 300,4 -4,4"/>
<!-- Node1 -->
<g id="node1" class="node"><title>Node1</title>
<polygon fill="#bfbfbf" stroke="black" points="0,-24.5 0,-54.5 129,-54.5 129,-24.5 0,-24.5"/>
<text text-anchor="start" x="8" y="-42.5" font-family="Helvetica,sans-Serif" font-size="10.00">OMPF::ompfSettings</text>
<text text-anchor="middle" x="64.5" y="-31.5" font-family="Helvetica,sans-Serif" font-size="10.00">::getCustomDataSizeSize</text>
</g>
<!-- Node2 -->
<g id="node2" class="node"><title>Node2</title>
<g id="a_node2"><a xlink:href="class_o_m_p_f_1_1ompf_header_chunk.html#a54b14e4116050ddae69c7a75542bd3e1" target="_top" xlink:title="OMPF::ompfHeaderChunk\l::write">
<polygon fill="white" stroke="black" points="165,-49.5 165,-79.5 296,-79.5 296,-49.5 165,-49.5"/>
<text text-anchor="start" x="173" y="-67.5" font-family="Helvetica,sans-Serif" font-size="10.00">OMPF::ompfHeaderChunk</text>
<text text-anchor="middle" x="230.5" y="-56.5" font-family="Helvetica,sans-Serif" font-size="10.00">::write</text>
</a>
</g>
</g>
<!-- Node1&#45;&gt;Node2 -->
<g id="edge1" class="edge"><title>Node1&#45;&gt;Node2</title>
<path fill="none" stroke="midnightblue" d="M139.342,-50.7563C147.897,-52.0605 156.571,-53.3828 164.988,-54.6659"/>
<polygon fill="midnightblue" stroke="midnightblue" points="139.79,-47.2843 129.376,-49.2372 138.735,-54.2043 139.79,-47.2843"/>
</g>
<!-- Node3 -->
<g id="node3" class="node"><title>Node3</title>
<g id="a_node3"><a xlink:href="class_o_m_p_f_1_1ompf_header_chunk.html#a68247e6408a64b9535fb1483921b5f19" target="_top" xlink:title="OMPF::ompfHeaderChunk\l::read">
<polygon fill="white" stroke="black" points="165,-0.5 165,-30.5 296,-30.5 296,-0.5 165,-0.5"/>
<text text-anchor="start" x="173" y="-18.5" font-family="Helvetica,sans-Serif" font-size="10.00">OMPF::ompfHeaderChunk</text>
<text text-anchor="middle" x="230.5" y="-7.5" font-family="Helvetica,sans-Serif" font-size="10.00">::read</text>
</a>
</g>
</g>
<!-- Node1&#45;&gt;Node3 -->
<g id="edge2" class="edge"><title>Node1&#45;&gt;Node3</title>
<path fill="none" stroke="midnightblue" d="M139.342,-28.6939C147.897,-27.442 156.571,-26.1725 164.988,-24.9408"/>
<polygon fill="midnightblue" stroke="midnightblue" points="138.764,-25.2411 129.376,-30.1523 139.778,-32.1673 138.764,-25.2411"/>
</g>
</g>
</svg>
