<?xml version="1.0" encoding="UTF-8" standalone="no"?>
<!DOCTYPE svg PUBLIC "-//W3C//DTD SVG 1.1//EN"
 "http://www.w3.org/Graphics/SVG/1.1/DTD/svg11.dtd">
<!-- Generated by graphviz version 2.38.0 (20140413.2041)
 -->
<!-- Title: IgorAux::iaColor3::set Pages: 1 -->
<svg width="297pt" height="78pt"
 viewBox="0.00 0.00 297.00 77.50" xmlns="http://www.w3.org/2000/svg" xmlns:xlink="http://www.w3.org/1999/xlink">
<g id="graph0" class="graph" transform="scale(1 1) rotate(0) translate(4 73.5)">
<title>IgorAux::iaColor3::set</title>
<polygon fill="white" stroke="none" points="-4,4 -4,-73.5 293,-73.5 293,4 -4,4"/>
<!-- Node1 -->
<g id="node1" class="node"><title>Node1</title>
<polygon fill="#bfbfbf" stroke="black" points="0,-22.5 0,-41.5 110,-41.5 110,-22.5 0,-22.5"/>
<text text-anchor="middle" x="55" y="-29.5" font-family="Helvetica,sans-Serif" font-size="10.00">IgorAux::iaColor3::set</text>
</g>
<!-- Node2 -->
<g id="node2" class="node"><title>Node2</title>
<g id="a_node2"><a xlink:href="struct_igor_1_1i_model_data_i_o_o_b_j_1_1_o_b_j_material.html#a5a5a4623339a7af6f3d528f64265d06b" target="_top" xlink:title="Igor::iModelDataIOOBJ\l::OBJMaterial::OBJMaterial">
<polygon fill="white" stroke="black" points="150,-39 150,-69 285,-69 285,-39 150,-39"/>
<text text-anchor="start" x="158" y="-57" font-family="Helvetica,sans-Serif" font-size="10.00">Igor::iModelDataIOOBJ</text>
<text text-anchor="middle" x="217.5" y="-46" font-family="Helvetica,sans-Serif" font-size="10.00">::OBJMaterial::OBJMaterial</text>
</a>
</g>
</g>
<!-- Node1&#45;&gt;Node2 -->
<g id="edge1" class="edge"><title>Node1&#45;&gt;Node2</title>
<path fill="none" stroke="midnightblue" d="M120.354,-40.8211C130.103,-42.1575 140.179,-43.5385 149.973,-44.881"/>
<polygon fill="midnightblue" stroke="midnightblue" points="120.721,-37.3387 110.338,-39.4482 119.77,-44.2739 120.721,-37.3387"/>
</g>
<!-- Node3 -->
<g id="node3" class="node"><title>Node3</title>
<g id="a_node3"><a xlink:href="class_user_control_mesh.html#af55d4328c9fab97659a68bb6eec291aa" target="_top" xlink:title="UserControlMesh::updateGUI">
<polygon fill="white" stroke="black" points="146,-0.5 146,-19.5 289,-19.5 289,-0.5 146,-0.5"/>
<text text-anchor="middle" x="217.5" y="-7.5" font-family="Helvetica,sans-Serif" font-size="10.00">UserControlMesh::updateGUI</text>
</a>
</g>
</g>
<!-- Node1&#45;&gt;Node3 -->
<g id="edge2" class="edge"><title>Node1&#45;&gt;Node3</title>
<path fill="none" stroke="midnightblue" d="M120.486,-23.1608C129.256,-21.9587 138.287,-20.7208 147.138,-19.5076"/>
<polygon fill="midnightblue" stroke="midnightblue" points="119.77,-19.7261 110.338,-24.5518 120.721,-26.6613 119.77,-19.7261"/>
</g>
</g>
</svg>
