<?xml version="1.0" encoding="UTF-8" standalone="no"?>
<!DOCTYPE svg PUBLIC "-//W3C//DTD SVG 1.1//EN"
 "http://www.w3.org/Graphics/SVG/1.1/DTD/svg11.dtd">
<!-- Generated by graphviz version 2.38.0 (20140413.2041)
 -->
<!-- Title: Manipulator::createScaleModifier Pages: 1 -->
<svg width="828pt" height="647pt"
 viewBox="0.00 0.00 828.00 647.00" xmlns="http://www.w3.org/2000/svg" xmlns:xlink="http://www.w3.org/1999/xlink">
<g id="graph0" class="graph" transform="scale(1 1) rotate(0) translate(4 643)">
<title>Manipulator::createScaleModifier</title>
<polygon fill="white" stroke="none" points="-4,4 -4,-643 824,-643 824,4 -4,4"/>
<!-- Node1 -->
<g id="node1" class="node"><title>Node1</title>
<polygon fill="#bfbfbf" stroke="black" points="0,-327.5 0,-357.5 125,-357.5 125,-327.5 0,-327.5"/>
<text text-anchor="start" x="8" y="-345.5" font-family="Helvetica,sans-Serif" font-size="10.00">Manipulator::createScale</text>
<text text-anchor="middle" x="62.5" y="-334.5" font-family="Helvetica,sans-Serif" font-size="10.00">Modifier</text>
</g>
<!-- Node2 -->
<g id="node2" class="node"><title>Node2</title>
<g id="a_node2"><a xlink:href="class_igor_aux_1_1ia_singleton.html#a821f1d891129e6d09b992be81094540e" target="_top" xlink:title="IgorAux::iaSingleton\l\&lt; iNodeFactory \&gt;::getInstance">
<polygon fill="white" stroke="black" points="495,-608.5 495,-638.5 644,-638.5 644,-608.5 495,-608.5"/>
<text text-anchor="start" x="503" y="-626.5" font-family="Helvetica,sans-Serif" font-size="10.00">IgorAux::iaSingleton</text>
<text text-anchor="middle" x="569.5" y="-615.5" font-family="Helvetica,sans-Serif" font-size="10.00">&lt; iNodeFactory &gt;::getInstance</text>
</a>
</g>
</g>
<!-- Node1&#45;&gt;Node2 -->
<g id="edge1" class="edge"><title>Node1&#45;&gt;Node2</title>
<path fill="none" stroke="midnightblue" d="M71.3088,-357.806C86.0983,-385.804 120.379,-446.183 161,-487.5 218.741,-546.23 236.004,-564.262 313,-593.5 367.899,-614.347 433.804,-621.694 484.928,-623.908"/>
<polygon fill="midnightblue" stroke="midnightblue" points="484.824,-627.407 494.948,-624.285 485.087,-620.412 484.824,-627.407"/>
</g>
<!-- Node3 -->
<g id="node3" class="node"><title>Node3</title>
<g id="a_node3"><a xlink:href="class_igor_1_1i_node_factory.html#acd7e28d04dabd094e46ec96d345106ee" target="_top" xlink:title="Igor::iNodeFactory\l::createNode">
<polygon fill="white" stroke="black" points="171,-447.5 171,-477.5 267,-477.5 267,-447.5 171,-447.5"/>
<text text-anchor="start" x="179" y="-465.5" font-family="Helvetica,sans-Serif" font-size="10.00">Igor::iNodeFactory</text>
<text text-anchor="middle" x="219" y="-454.5" font-family="Helvetica,sans-Serif" font-size="10.00">::createNode</text>
</a>
</g>
</g>
<!-- Node1&#45;&gt;Node3 -->
<g id="edge2" class="edge"><title>Node1&#45;&gt;Node3</title>
<path fill="none" stroke="midnightblue" d="M83.0675,-357.698C110.232,-378.797 159.507,-417.068 190.399,-441.062"/>
<polygon fill="midnightblue" stroke="midnightblue" points="188.547,-444.055 198.591,-447.425 192.841,-438.527 188.547,-444.055"/>
</g>
<!-- Node13 -->
<g id="node13" class="node"><title>Node13</title>
<g id="a_node13"><a xlink:href="class_igor_1_1i_node.html#a4ce1269afdfb50f10f7b2c10e5aa69e0" target="_top" xlink:title="Igor::iNode::insertNode">
<polygon fill="white" stroke="black" points="161,-213 161,-232 277,-232 277,-213 161,-213"/>
<text text-anchor="middle" x="219" y="-220" font-family="Helvetica,sans-Serif" font-size="10.00">Igor::iNode::insertNode</text>
</a>
</g>
</g>
<!-- Node1&#45;&gt;Node13 -->
<g id="edge15" class="edge"><title>Node1&#45;&gt;Node13</title>
<path fill="none" stroke="midnightblue" d="M83.0675,-327.302C112.481,-304.456 167.816,-261.478 197.671,-238.29"/>
<polygon fill="midnightblue" stroke="midnightblue" points="199.966,-240.938 205.717,-232.04 195.673,-235.41 199.966,-240.938"/>
</g>
<!-- Node26 -->
<g id="node26" class="node"><title>Node26</title>
<g id="a_node26"><a xlink:href="class_igor_1_1i_node_transform.html#a36db58a9939509fcb25f957d652b964f" target="_top" xlink:title="Igor::iNodeTransform\l::rotate">
<polygon fill="white" stroke="black" points="166,-100.5 166,-130.5 272,-130.5 272,-100.5 166,-100.5"/>
<text text-anchor="start" x="174" y="-118.5" font-family="Helvetica,sans-Serif" font-size="10.00">Igor::iNodeTransform</text>
<text text-anchor="middle" x="219" y="-107.5" font-family="Helvetica,sans-Serif" font-size="10.00">::rotate</text>
</a>
</g>
</g>
<!-- Node1&#45;&gt;Node26 -->
<g id="edge32" class="edge"><title>Node1&#45;&gt;Node26</title>
<path fill="none" stroke="midnightblue" d="M73.8771,-327.253C100.264,-288.485 170.074,-185.915 201.845,-139.235"/>
<polygon fill="midnightblue" stroke="midnightblue" points="204.935,-140.916 207.668,-130.68 199.148,-136.978 204.935,-140.916"/>
</g>
<!-- Node4 -->
<g id="node4" class="node"><title>Node4</title>
<g id="a_node4"><a xlink:href="namespace_igor.html#abdbfa48a19f5bf62aca91d60d68662ee" target="_top" xlink:title="Igor::iNodeMesh">
<polygon fill="white" stroke="black" points="342.5,-565 342.5,-584 429.5,-584 429.5,-565 342.5,-565"/>
<text text-anchor="middle" x="386" y="-572" font-family="Helvetica,sans-Serif" font-size="10.00">Igor::iNodeMesh</text>
</a>
</g>
</g>
<!-- Node3&#45;&gt;Node4 -->
<g id="edge3" class="edge"><title>Node3&#45;&gt;Node4</title>
<path fill="none" stroke="midnightblue" d="M242.253,-477.605C273.637,-498.908 330.597,-537.572 362.249,-559.057"/>
<polygon fill="midnightblue" stroke="midnightblue" points="360.594,-562.164 370.834,-564.884 364.526,-556.372 360.594,-562.164"/>
</g>
<!-- Node6 -->
<g id="node6" class="node"><title>Node6</title>
<g id="a_node6"><a xlink:href="namespace_igor.html#a0964db13b4af0a08fcac87ec45f28dbc" target="_top" xlink:title="Igor::iNodePhysics">
<polygon fill="white" stroke="black" points="337,-472 337,-491 435,-491 435,-472 337,-472"/>
<text text-anchor="middle" x="386" y="-479" font-family="Helvetica,sans-Serif" font-size="10.00">Igor::iNodePhysics</text>
</a>
</g>
</g>
<!-- Node3&#45;&gt;Node6 -->
<g id="edge6" class="edge"><title>Node3&#45;&gt;Node6</title>
<path fill="none" stroke="midnightblue" d="M267.282,-467.945C285.853,-470.083 307.354,-472.559 326.859,-474.805"/>
<polygon fill="midnightblue" stroke="midnightblue" points="326.517,-478.289 336.852,-475.956 327.318,-471.335 326.517,-478.289"/>
</g>
<!-- Node12 -->
<g id="node12" class="node"><title>Node12</title>
<g id="a_node12"><a xlink:href="class_igor_1_1i_node.html#a865efb791b77d29bb489514326037380" target="_top" xlink:title="Igor::iNode::getID">
<polygon fill="white" stroke="black" points="523.5,-396 523.5,-415 615.5,-415 615.5,-396 523.5,-396"/>
<text text-anchor="middle" x="569.5" y="-403" font-family="Helvetica,sans-Serif" font-size="10.00">Igor::iNode::getID</text>
</a>
</g>
</g>
<!-- Node3&#45;&gt;Node12 -->
<g id="edge14" class="edge"><title>Node3&#45;&gt;Node12</title>
<path fill="none" stroke="midnightblue" d="M267,-454.813C330.973,-444.349 445.26,-425.657 513.255,-414.536"/>
<polygon fill="midnightblue" stroke="midnightblue" points="514.043,-417.953 523.347,-412.885 512.913,-411.045 514.043,-417.953"/>
</g>
<!-- Node4&#45;&gt;Node2 -->
<g id="edge4" class="edge"><title>Node4&#45;&gt;Node2</title>
<path fill="none" stroke="midnightblue" d="M422.426,-584.064C445.304,-590.24 475.768,-598.465 502.954,-605.804"/>
<polygon fill="midnightblue" stroke="midnightblue" points="502.235,-609.236 512.802,-608.463 504.06,-602.478 502.235,-609.236"/>
</g>
<!-- Node5 -->
<g id="node5" class="node"><title>Node5</title>
<g id="a_node5"><a xlink:href="class_igor_1_1i_material_resource_factory.html#a55ee78b1783c8787a374907fe17f3d01" target="_top" xlink:title="Igor::iMaterialResourceFactory\l::createTargetMaterial">
<polygon fill="white" stroke="black" points="495,-559.5 495,-589.5 644,-589.5 644,-559.5 495,-559.5"/>
<text text-anchor="start" x="503" y="-577.5" font-family="Helvetica,sans-Serif" font-size="10.00">Igor::iMaterialResourceFactory</text>
<text text-anchor="middle" x="569.5" y="-566.5" font-family="Helvetica,sans-Serif" font-size="10.00">::createTargetMaterial</text>
</a>
</g>
</g>
<!-- Node4&#45;&gt;Node5 -->
<g id="edge5" class="edge"><title>Node4&#45;&gt;Node5</title>
<path fill="none" stroke="midnightblue" d="M429.554,-574.5C446.073,-574.5 465.595,-574.5 484.702,-574.5"/>
<polygon fill="midnightblue" stroke="midnightblue" points="484.945,-578 494.945,-574.5 484.945,-571 484.945,-578"/>
</g>
<!-- Node6&#45;&gt;Node2 -->
<g id="edge7" class="edge"><title>Node6&#45;&gt;Node2</title>
<path fill="none" stroke="midnightblue" d="M397.062,-491.294C411.244,-505.219 437.753,-531.697 459,-555.5 475.826,-574.35 474.151,-585.226 495,-599.5 497.259,-601.046 499.624,-602.498 502.064,-603.862"/>
<polygon fill="midnightblue" stroke="midnightblue" points="500.664,-607.075 511.173,-608.419 503.795,-600.814 500.664,-607.075"/>
</g>
<!-- Node7 -->
<g id="node7" class="node"><title>Node7</title>
<g id="a_node7"><a xlink:href="class_igor_1_1i_physics.html#a90dcd82ece96f39ec61120a36e15ff18" target="_top" xlink:title="Igor::iPhysics::createCollision\lConfig">
<polygon fill="white" stroke="black" points="496.5,-510.5 496.5,-540.5 642.5,-540.5 642.5,-510.5 496.5,-510.5"/>
<text text-anchor="start" x="504.5" y="-528.5" font-family="Helvetica,sans-Serif" font-size="10.00">Igor::iPhysics::createCollision</text>
<text text-anchor="middle" x="569.5" y="-517.5" font-family="Helvetica,sans-Serif" font-size="10.00">Config</text>
</a>
</g>
</g>
<!-- Node6&#45;&gt;Node7 -->
<g id="edge8" class="edge"><title>Node6&#45;&gt;Node7</title>
<path fill="none" stroke="midnightblue" d="M426.383,-491.047C446.909,-496.023 472.662,-502.267 496.588,-508.067"/>
<polygon fill="midnightblue" stroke="midnightblue" points="495.812,-511.48 506.355,-510.435 497.461,-504.677 495.812,-511.48"/>
</g>
<!-- Node9 -->
<g id="node9" class="node"><title>Node9</title>
<g id="a_node9"><a xlink:href="class_igor_1_1i_physics_collision_config.html#a358488967c0a81c0b613972334363a09" target="_top" xlink:title="Igor::iPhysicsCollisionConfig\l::getID">
<polygon fill="white" stroke="black" points="680,-466.5 680,-496.5 820,-496.5 820,-466.5 680,-466.5"/>
<text text-anchor="start" x="688" y="-484.5" font-family="Helvetica,sans-Serif" font-size="10.00">Igor::iPhysicsCollisionConfig</text>
<text text-anchor="middle" x="750" y="-473.5" font-family="Helvetica,sans-Serif" font-size="10.00">::getID</text>
</a>
</g>
</g>
<!-- Node6&#45;&gt;Node9 -->
<g id="edge12" class="edge"><title>Node6&#45;&gt;Node9</title>
<path fill="none" stroke="midnightblue" d="M435.071,-481.5C494.922,-481.5 597.991,-481.5 669.631,-481.5"/>
<polygon fill="midnightblue" stroke="midnightblue" points="669.964,-485 679.964,-481.5 669.964,-478 669.964,-485"/>
</g>
<!-- Node11 -->
<g id="node11" class="node"><title>Node11</title>
<g id="a_node11"><a xlink:href="namespace_igor.html#a658bed0072edfc04099eb827d1cfb6ba" target="_top" xlink:title="Igor::setMaterial">
<polygon fill="white" stroke="black" points="526.5,-434 526.5,-453 612.5,-453 612.5,-434 526.5,-434"/>
<text text-anchor="middle" x="569.5" y="-441" font-family="Helvetica,sans-Serif" font-size="10.00">Igor::setMaterial</text>
</a>
</g>
</g>
<!-- Node6&#45;&gt;Node11 -->
<g id="edge13" class="edge"><title>Node6&#45;&gt;Node11</title>
<path fill="none" stroke="midnightblue" d="M432.8,-471.911C458.315,-466.569 490.171,-459.899 516.606,-454.365"/>
<polygon fill="midnightblue" stroke="midnightblue" points="517.376,-457.78 526.447,-452.305 515.942,-450.928 517.376,-457.78"/>
</g>
<!-- Node8 -->
<g id="node8" class="node"><title>Node8</title>
<g id="a_node8"><a xlink:href="class_igor_aux_1_1ia_mutex.html#ab0873c1f25730bd85d6b71d167520921" target="_top" xlink:title="IgorAux::iaMutex::lock">
<polygon fill="white" stroke="black" points="693,-554 693,-573 807,-573 807,-554 693,-554"/>
<text text-anchor="middle" x="750" y="-561" font-family="Helvetica,sans-Serif" font-size="10.00">IgorAux::iaMutex::lock</text>
</a>
</g>
</g>
<!-- Node7&#45;&gt;Node8 -->
<g id="edge9" class="edge"><title>Node7&#45;&gt;Node8</title>
<path fill="none" stroke="midnightblue" d="M641.048,-540.519C658.721,-544.281 677.419,-548.261 694.198,-551.833"/>
<polygon fill="midnightblue" stroke="midnightblue" points="693.861,-555.34 704.371,-553.999 695.319,-548.494 693.861,-555.34"/>
</g>
<!-- Node7&#45;&gt;Node9 -->
<g id="edge10" class="edge"><title>Node7&#45;&gt;Node9</title>
<path fill="none" stroke="midnightblue" d="M631.43,-510.481C646.426,-506.784 662.611,-502.795 678.036,-498.993"/>
<polygon fill="midnightblue" stroke="midnightblue" points="679.17,-502.318 688.041,-496.526 677.494,-495.521 679.17,-502.318"/>
</g>
<!-- Node10 -->
<g id="node10" class="node"><title>Node10</title>
<g id="a_node10"><a xlink:href="class_igor_aux_1_1ia_mutex.html#a3beb078a1f64de265044ece54657c279" target="_top" xlink:title="IgorAux::iaMutex::unlock">
<polygon fill="white" stroke="black" points="687.5,-516 687.5,-535 812.5,-535 812.5,-516 687.5,-516"/>
<text text-anchor="middle" x="750" y="-523" font-family="Helvetica,sans-Serif" font-size="10.00">IgorAux::iaMutex::unlock</text>
</a>
</g>
</g>
<!-- Node7&#45;&gt;Node10 -->
<g id="edge11" class="edge"><title>Node7&#45;&gt;Node10</title>
<path fill="none" stroke="midnightblue" d="M642.588,-525.5C653.923,-525.5 665.641,-525.5 676.974,-525.5"/>
<polygon fill="midnightblue" stroke="midnightblue" points="677.251,-529 687.251,-525.5 677.251,-522 677.251,-529"/>
</g>
<!-- Node14 -->
<g id="node14" class="node"><title>Node14</title>
<g id="a_node14"><a xlink:href="class_igor_1_1i_node.html#afcf6efd30c85e8c37a4261a6f27613b8" target="_top" xlink:title="Igor::iNode::isChild">
<polygon fill="white" stroke="black" points="520.5,-106 520.5,-125 618.5,-125 618.5,-106 520.5,-106"/>
<text text-anchor="middle" x="569.5" y="-113" font-family="Helvetica,sans-Serif" font-size="10.00">Igor::iNode::isChild</text>
</a>
</g>
</g>
<!-- Node13&#45;&gt;Node14 -->
<g id="edge16" class="edge"><title>Node13&#45;&gt;Node14</title>
<path fill="none" stroke="midnightblue" d="M272.677,-232.055C324.484,-238.498 403.636,-240.14 459,-203.5 487.845,-184.411 467.919,-156.019 495,-134.5 499.693,-130.771 505.039,-127.767 510.658,-125.348"/>
<polygon fill="midnightblue" stroke="midnightblue" points="512.123,-128.539 520.303,-121.806 509.709,-121.968 512.123,-128.539"/>
</g>
<!-- Node15 -->
<g id="node15" class="node"><title>Node15</title>
<g id="a_node15"><a xlink:href="class_igor_1_1i_node.html#adbeb716577ae857dc4274e8285dd94fe" target="_top" xlink:title="Igor::iNode::setParent">
<polygon fill="white" stroke="black" points="330.5,-175 330.5,-194 441.5,-194 441.5,-175 330.5,-175"/>
<text text-anchor="middle" x="386" y="-182" font-family="Helvetica,sans-Serif" font-size="10.00">Igor::iNode::setParent</text>
</a>
</g>
</g>
<!-- Node13&#45;&gt;Node15 -->
<g id="edge17" class="edge"><title>Node13&#45;&gt;Node15</title>
<path fill="none" stroke="midnightblue" d="M261.636,-212.911C283.508,-207.874 310.506,-201.656 333.664,-196.323"/>
<polygon fill="midnightblue" stroke="midnightblue" points="334.704,-199.675 343.663,-194.02 333.133,-192.854 334.704,-199.675"/>
</g>
<!-- Node16 -->
<g id="node16" class="node"><title>Node16</title>
<g id="a_node16"><a xlink:href="class_igor_1_1i_node.html#a0392b6251631e79675f7416827335b70" target="_top" xlink:title="Igor::iNode::setScene">
<polygon fill="white" stroke="black" points="331,-254 331,-273 441,-273 441,-254 331,-254"/>
<text text-anchor="middle" x="386" y="-261" font-family="Helvetica,sans-Serif" font-size="10.00">Igor::iNode::setScene</text>
</a>
</g>
</g>
<!-- Node13&#45;&gt;Node16 -->
<g id="edge18" class="edge"><title>Node13&#45;&gt;Node16</title>
<path fill="none" stroke="midnightblue" d="M258.269,-232.009C281.614,-237.81 311.667,-245.278 336.647,-251.485"/>
<polygon fill="midnightblue" stroke="midnightblue" points="336.104,-254.956 346.653,-253.971 337.792,-248.163 336.104,-254.956"/>
</g>
<!-- Node23 -->
<g id="node23" class="node"><title>Node23</title>
<g id="a_node23"><a xlink:href="class_igor_1_1i_node.html#a3be538d0d60b148b1eae5cd5892d279d" target="_top" xlink:title="Igor::iNode::setTransformation\lDirty">
<polygon fill="white" stroke="black" points="313,-100.5 313,-130.5 459,-130.5 459,-100.5 313,-100.5"/>
<text text-anchor="start" x="321" y="-118.5" font-family="Helvetica,sans-Serif" font-size="10.00">Igor::iNode::setTransformation</text>
<text text-anchor="middle" x="386" y="-107.5" font-family="Helvetica,sans-Serif" font-size="10.00">Dirty</text>
</a>
</g>
</g>
<!-- Node13&#45;&gt;Node23 -->
<g id="edge26" class="edge"><title>Node13&#45;&gt;Node23</title>
<path fill="none" stroke="midnightblue" d="M234.934,-212.816C261.48,-195.601 317.432,-159.317 353.01,-136.245"/>
<polygon fill="midnightblue" stroke="midnightblue" points="355.1,-139.061 361.586,-130.684 351.291,-133.188 355.1,-139.061"/>
</g>
<!-- Node16&#45;&gt;Node12 -->
<g id="edge21" class="edge"><title>Node16&#45;&gt;Node12</title>
<path fill="none" stroke="midnightblue" d="M392.653,-273.246C406.746,-296.64 445.868,-356.268 495,-386.5 500.732,-390.027 507.101,-392.903 513.626,-395.247"/>
<polygon fill="midnightblue" stroke="midnightblue" points="512.65,-398.609 523.24,-398.315 514.778,-391.94 512.65,-398.609"/>
</g>
<!-- Node17 -->
<g id="node17" class="node"><title>Node17</title>
<g id="a_node17"><a xlink:href="class_igor_1_1i_node.html#aa8934442e897cfdf775264f161c69143" target="_top" xlink:title="Igor::iNode::onPreSetScene">
<polygon fill="white" stroke="black" points="501,-232 501,-251 638,-251 638,-232 501,-232"/>
<text text-anchor="middle" x="569.5" y="-239" font-family="Helvetica,sans-Serif" font-size="10.00">Igor::iNode::onPreSetScene</text>
</a>
</g>
</g>
<!-- Node16&#45;&gt;Node17 -->
<g id="edge19" class="edge"><title>Node16&#45;&gt;Node17</title>
<path fill="none" stroke="midnightblue" d="M441.456,-256.899C456.934,-255.023 474.099,-252.943 490.676,-250.933"/>
<polygon fill="midnightblue" stroke="midnightblue" points="491.396,-254.372 500.902,-249.694 490.553,-247.423 491.396,-254.372"/>
</g>
<!-- Node18 -->
<g id="node18" class="node"><title>Node18</title>
<g id="a_node18"><a xlink:href="class_igor_1_1i_scene.html#aadee04cec2c19e6de83645d9de7e614f" target="_top" xlink:title="Igor::iScene::signalNode\lRemoved">
<polygon fill="white" stroke="black" points="508.5,-182.5 508.5,-212.5 630.5,-212.5 630.5,-182.5 508.5,-182.5"/>
<text text-anchor="start" x="516.5" y="-200.5" font-family="Helvetica,sans-Serif" font-size="10.00">Igor::iScene::signalNode</text>
<text text-anchor="middle" x="569.5" y="-189.5" font-family="Helvetica,sans-Serif" font-size="10.00">Removed</text>
</a>
</g>
</g>
<!-- Node16&#45;&gt;Node18 -->
<g id="edge20" class="edge"><title>Node16&#45;&gt;Node18</title>
<path fill="none" stroke="midnightblue" d="M412.687,-253.953C426.44,-248.821 443.66,-242.359 459,-236.5 475.037,-230.375 478.87,-228.377 495,-222.5 500.984,-220.32 507.263,-218.093 513.524,-215.911"/>
<polygon fill="midnightblue" stroke="midnightblue" points="514.994,-219.106 523.303,-212.531 512.708,-212.49 514.994,-219.106"/>
</g>
<!-- Node19 -->
<g id="node19" class="node"><title>Node19</title>
<g id="a_node19"><a xlink:href="class_igor_1_1i_scene.html#af975e601d89386f2ef11745ecb831870" target="_top" xlink:title="Igor::iScene::getName">
<polygon fill="white" stroke="black" points="513,-144 513,-163 626,-163 626,-144 513,-144"/>
<text text-anchor="middle" x="569.5" y="-151" font-family="Helvetica,sans-Serif" font-size="10.00">Igor::iScene::getName</text>
</a>
</g>
</g>
<!-- Node16&#45;&gt;Node19 -->
<g id="edge22" class="edge"><title>Node16&#45;&gt;Node19</title>
<path fill="none" stroke="midnightblue" d="M427.427,-253.892C438.528,-249.851 449.979,-244.232 459,-236.5 483.78,-215.262 469.132,-192.398 495,-172.5 497.664,-170.451 500.526,-168.621 503.521,-166.988"/>
<polygon fill="midnightblue" stroke="midnightblue" points="505.248,-170.046 512.838,-162.654 502.295,-163.699 505.248,-170.046"/>
</g>
<!-- Node20 -->
<g id="node20" class="node"><title>Node20</title>
<g id="a_node20"><a xlink:href="class_igor_1_1i_node.html#aa13a0c809d3f0bb17baf52917d04aff0" target="_top" xlink:title="Igor::iNode::hasChildren">
<polygon fill="white" stroke="black" points="509.5,-358 509.5,-377 629.5,-377 629.5,-358 509.5,-358"/>
<text text-anchor="middle" x="569.5" y="-365" font-family="Helvetica,sans-Serif" font-size="10.00">Igor::iNode::hasChildren</text>
</a>
</g>
</g>
<!-- Node16&#45;&gt;Node20 -->
<g id="edge23" class="edge"><title>Node16&#45;&gt;Node20</title>
<path fill="none" stroke="midnightblue" d="M396.454,-273.245C414.143,-290.913 454.161,-328.273 495,-348.5 499.678,-350.817 504.668,-352.872 509.762,-354.69"/>
<polygon fill="midnightblue" stroke="midnightblue" points="509.037,-358.135 519.629,-357.902 511.204,-351.479 509.037,-358.135"/>
</g>
<!-- Node21 -->
<g id="node21" class="node"><title>Node21</title>
<g id="a_node21"><a xlink:href="class_igor_1_1i_node.html#af5a14599bd4dc62d1534865c8a306e8e" target="_top" xlink:title="Igor::iNode::onPostSetScene">
<polygon fill="white" stroke="black" points="498,-320 498,-339 641,-339 641,-320 498,-320"/>
<text text-anchor="middle" x="569.5" y="-327" font-family="Helvetica,sans-Serif" font-size="10.00">Igor::iNode::onPostSetScene</text>
</a>
</g>
</g>
<!-- Node16&#45;&gt;Node21 -->
<g id="edge24" class="edge"><title>Node16&#45;&gt;Node21</title>
<path fill="none" stroke="midnightblue" d="M407.375,-273.172C428.847,-283.127 463.811,-298.672 495,-309.5 502.992,-312.275 511.579,-314.911 519.964,-317.306"/>
<polygon fill="midnightblue" stroke="midnightblue" points="519.097,-320.697 529.669,-319.999 520.969,-313.952 519.097,-320.697"/>
</g>
<!-- Node22 -->
<g id="node22" class="node"><title>Node22</title>
<g id="a_node22"><a xlink:href="class_igor_1_1i_scene.html#a61c6f27b83ccdfbfdc1b7ee02d2fcc21" target="_top" xlink:title="Igor::iScene::signalNode\lAdded">
<polygon fill="white" stroke="black" points="508.5,-270.5 508.5,-300.5 630.5,-300.5 630.5,-270.5 508.5,-270.5"/>
<text text-anchor="start" x="516.5" y="-288.5" font-family="Helvetica,sans-Serif" font-size="10.00">Igor::iScene::signalNode</text>
<text text-anchor="middle" x="569.5" y="-277.5" font-family="Helvetica,sans-Serif" font-size="10.00">Added</text>
</a>
</g>
</g>
<!-- Node16&#45;&gt;Node22 -->
<g id="edge25" class="edge"><title>Node16&#45;&gt;Node22</title>
<path fill="none" stroke="midnightblue" d="M441.456,-270.101C459.335,-272.268 479.464,-274.708 498.339,-276.996"/>
<polygon fill="midnightblue" stroke="midnightblue" points="498.026,-280.483 508.374,-278.212 498.868,-273.534 498.026,-280.483"/>
</g>
<!-- Node23&#45;&gt;Node14 -->
<g id="edge27" class="edge"><title>Node23&#45;&gt;Node14</title>
<path fill="none" stroke="midnightblue" d="M459.255,-115.5C476.123,-115.5 493.88,-115.5 510.061,-115.5"/>
<polygon fill="midnightblue" stroke="midnightblue" points="510.442,-119 520.442,-115.5 510.442,-112 510.442,-119"/>
</g>
<!-- Node24 -->
<g id="node24" class="node"><title>Node24</title>
<g id="a_node24"><a xlink:href="class_igor_1_1i_node.html#a1b3d40431eb4c1c79e5d93ef7fe68129" target="_top" xlink:title="Igor::iNode::getParent">
<polygon fill="white" stroke="black" points="694.5,-37 694.5,-56 805.5,-56 805.5,-37 694.5,-37"/>
<text text-anchor="middle" x="750" y="-44" font-family="Helvetica,sans-Serif" font-size="10.00">Igor::iNode::getParent</text>
</a>
</g>
</g>
<!-- Node23&#45;&gt;Node24 -->
<g id="edge28" class="edge"><title>Node23&#45;&gt;Node24</title>
<path fill="none" stroke="midnightblue" d="M459.386,-101.703C526.718,-88.8686 625.872,-69.9691 688.93,-57.9497"/>
<polygon fill="midnightblue" stroke="midnightblue" points="689.947,-61.3191 699.114,-56.0086 688.636,-54.4429 689.947,-61.3191"/>
</g>
<!-- Node25 -->
<g id="node25" class="node"><title>Node25</title>
<g id="a_node25"><a xlink:href="class_igor_1_1i_node.html#a66b6ecf7babaffce68852de186068e01" target="_top" xlink:title="Igor::iNode::setTransformation\lDirtyUp">
<polygon fill="white" stroke="black" points="496.5,-0.5 496.5,-30.5 642.5,-30.5 642.5,-0.5 496.5,-0.5"/>
<text text-anchor="start" x="504.5" y="-18.5" font-family="Helvetica,sans-Serif" font-size="10.00">Igor::iNode::setTransformation</text>
<text text-anchor="middle" x="569.5" y="-7.5" font-family="Helvetica,sans-Serif" font-size="10.00">DirtyUp</text>
</a>
</g>
</g>
<!-- Node23&#45;&gt;Node25 -->
<g id="edge29" class="edge"><title>Node23&#45;&gt;Node25</title>
<path fill="none" stroke="midnightblue" d="M437.045,-100.385C444.568,-97.4704 452.107,-94.1662 459,-90.5 476.657,-81.1078 478.619,-74.9739 495,-63.5 508.185,-54.2648 523.002,-44.479 535.86,-36.1692"/>
<polygon fill="midnightblue" stroke="midnightblue" points="537.885,-39.0284 544.405,-30.677 534.1,-33.1399 537.885,-39.0284"/>
</g>
<!-- Node25&#45;&gt;Node24 -->
<g id="edge30" class="edge"><title>Node25&#45;&gt;Node24</title>
<path fill="none" stroke="midnightblue" d="M642.588,-28.0195C656.39,-30.4165 670.761,-32.9122 684.312,-35.2657"/>
<polygon fill="midnightblue" stroke="midnightblue" points="684.041,-38.7709 694.492,-37.0337 685.239,-31.8741 684.041,-38.7709"/>
</g>
<!-- Node25&#45;&gt;Node25 -->
<g id="edge31" class="edge"><title>Node25&#45;&gt;Node25</title>
<path fill="none" stroke="midnightblue" d="M538.131,-30.659C530.567,-40.0566 541.023,-49 569.5,-49 586.853,-49 597.514,-45.679 601.484,-40.9579"/>
<polygon fill="midnightblue" stroke="midnightblue" points="604.959,-40.4325 600.869,-30.659 597.971,-40.8499 604.959,-40.4325"/>
</g>
<!-- Node26&#45;&gt;Node23 -->
<g id="edge34" class="edge"><title>Node26&#45;&gt;Node23</title>
<path fill="none" stroke="midnightblue" d="M272.207,-115.5C281.908,-115.5 292.258,-115.5 302.606,-115.5"/>
<polygon fill="midnightblue" stroke="midnightblue" points="302.929,-119 312.929,-115.5 302.929,-112 302.929,-119"/>
</g>
<!-- Node27 -->
<g id="node27" class="node"><title>Node27</title>
<g id="a_node27"><a xlink:href="class_igor_aux_1_1ia_matrix.html#ae9eba9dbfae8fc7cc139579370386efb" target="_top" xlink:title="IgorAux::iaMatrix::\lrotate">
<polygon fill="white" stroke="black" points="338,-51.5 338,-81.5 434,-81.5 434,-51.5 338,-51.5"/>
<text text-anchor="start" x="346" y="-69.5" font-family="Helvetica,sans-Serif" font-size="10.00">IgorAux::iaMatrix::</text>
<text text-anchor="middle" x="386" y="-58.5" font-family="Helvetica,sans-Serif" font-size="10.00">rotate</text>
</a>
</g>
</g>
<!-- Node26&#45;&gt;Node27 -->
<g id="edge33" class="edge"><title>Node26&#45;&gt;Node27</title>
<path fill="none" stroke="midnightblue" d="M270.852,-100.399C288.991,-95.0116 309.537,-88.9102 328.149,-83.3831"/>
<polygon fill="midnightblue" stroke="midnightblue" points="329.381,-86.6682 337.971,-80.4661 327.389,-79.9578 329.381,-86.6682"/>
</g>
</g>
</svg>
