<?xml version="1.0" encoding="UTF-8" standalone="no"?>
<!DOCTYPE svg PUBLIC "-//W3C//DTD SVG 1.1//EN"
 "http://www.w3.org/Graphics/SVG/1.1/DTD/svg11.dtd">
<!-- Generated by graphviz version 2.38.0 (20140413.2041)
 -->
<!-- Title: Igor::iUserControlFileChooser::iUserControlFileChooser Pages: 1 -->
<svg width="1421pt" height="300pt"
 viewBox="0.00 0.00 1421.00 300.00" xmlns="http://www.w3.org/2000/svg" xmlns:xlink="http://www.w3.org/1999/xlink">
<g id="graph0" class="graph" transform="scale(1 1) rotate(0) translate(4 296)">
<title>Igor::iUserControlFileChooser::iUserControlFileChooser</title>
<polygon fill="white" stroke="none" points="-4,4 -4,-296 1417,-296 1417,4 -4,4"/>
<!-- Node0 -->
<g id="node1" class="node"><title>Node0</title>
<g id="a_node1"><a xlink:title=" ">
<polygon fill="#bfbfbf" stroke="black" points="0,-212.5 0,-242.5 143,-242.5 143,-212.5 0,-212.5"/>
<text text-anchor="start" x="8" y="-230.5" font-family="Helvetica,sans-Serif" font-size="10.00">Igor::iUserControlFileChooser</text>
<text text-anchor="middle" x="71.5" y="-219.5" font-family="Helvetica,sans-Serif" font-size="10.00">::iUserControlFileChooser</text>
</a>
</g>
</g>
<!-- Node1 -->
<g id="node2" class="node"><title>Node1</title>
<g id="a_node2"><a xlink:href="class_igor_1_1i_user_control_file_chooser.html#acbdcb369d7f6dabea5fe1a039319b271" target="_top" xlink:title=" ">
<polygon fill="white" stroke="black" points="179,-212.5 179,-242.5 322,-242.5 322,-212.5 179,-212.5"/>
<text text-anchor="start" x="187" y="-230.5" font-family="Helvetica,sans-Serif" font-size="10.00">Igor::iUserControlFileChooser</text>
<text text-anchor="middle" x="250.5" y="-219.5" font-family="Helvetica,sans-Serif" font-size="10.00">::initGUI</text>
</a>
</g>
</g>
<!-- Node0&#45;&gt;Node1 -->
<g id="edge1" class="edge"><title>Node0&#45;&gt;Node1</title>
<path fill="none" stroke="midnightblue" d="M143.218,-227.5C151.57,-227.5 160.142,-227.5 168.62,-227.5"/>
<polygon fill="midnightblue" stroke="midnightblue" points="168.894,-231 178.894,-227.5 168.894,-224 168.894,-231"/>
</g>
<!-- Node2 -->
<g id="node3" class="node"><title>Node2</title>
<g id="a_node3"><a xlink:href="class_igor_aux_1_1ia_singleton.html#a821f1d891129e6d09b992be81094540e" target="_top" xlink:title=" ">
<polygon fill="white" stroke="black" points="716,-259.5 716,-289.5 877,-289.5 877,-259.5 716,-259.5"/>
<text text-anchor="start" x="724" y="-277.5" font-family="Helvetica,sans-Serif" font-size="10.00">IgorAux::iaSingleton</text>
<text text-anchor="middle" x="796.5" y="-266.5" font-family="Helvetica,sans-Serif" font-size="10.00">&lt; iWidgetManager &gt;::getInstance</text>
</a>
</g>
</g>
<!-- Node1&#45;&gt;Node2 -->
<g id="edge2" class="edge"><title>Node1&#45;&gt;Node2</title>
<path fill="none" stroke="midnightblue" d="M310.045,-242.56C325.542,-246.032 342.323,-249.337 358,-251.5 477.526,-267.989 616.916,-272.874 705.654,-274.205"/>
<polygon fill="midnightblue" stroke="midnightblue" points="705.636,-277.705 715.684,-274.344 705.733,-270.706 705.636,-277.705"/>
</g>
<!-- Node3 -->
<g id="node4" class="node"><title>Node3</title>
<g id="a_node4"><a xlink:href="class_igor_1_1i_user_control_file_chooser.html#a7dacbb98e9678673a5bc680dfb3122c1" target="_top" xlink:title=" ">
<polygon fill="white" stroke="black" points="358,-163.5 358,-193.5 501,-193.5 501,-163.5 358,-163.5"/>
<text text-anchor="start" x="366" y="-181.5" font-family="Helvetica,sans-Serif" font-size="10.00">Igor::iUserControlFileChooser</text>
<text text-anchor="middle" x="429.5" y="-170.5" font-family="Helvetica,sans-Serif" font-size="10.00">::onTextChanged</text>
</a>
</g>
</g>
<!-- Node1&#45;&gt;Node3 -->
<g id="edge3" class="edge"><title>Node1&#45;&gt;Node3</title>
<path fill="none" stroke="midnightblue" d="M306.05,-212.399C324.474,-207.298 345.212,-201.557 364.312,-196.27"/>
<polygon fill="midnightblue" stroke="midnightblue" points="365.426,-199.593 374.13,-193.552 363.559,-192.847 365.426,-199.593"/>
</g>
<!-- Node4 -->
<g id="node5" class="node"><title>Node4</title>
<g id="a_node5"><a xlink:href="class_igor_1_1i_user_control_file_chooser.html#abf208141bc278147ca8d87af84f4315d" target="_top" xlink:title=" ">
<polygon fill="white" stroke="black" points="358,-212.5 358,-242.5 501,-242.5 501,-212.5 358,-212.5"/>
<text text-anchor="start" x="366" y="-230.5" font-family="Helvetica,sans-Serif" font-size="10.00">Igor::iUserControlFileChooser</text>
<text text-anchor="middle" x="429.5" y="-219.5" font-family="Helvetica,sans-Serif" font-size="10.00">::onFileSelectButtonPressed</text>
</a>
</g>
</g>
<!-- Node1&#45;&gt;Node4 -->
<g id="edge4" class="edge"><title>Node1&#45;&gt;Node4</title>
<path fill="none" stroke="midnightblue" d="M322.218,-227.5C330.57,-227.5 339.142,-227.5 347.62,-227.5"/>
<polygon fill="midnightblue" stroke="midnightblue" points="347.894,-231 357.894,-227.5 347.894,-224 347.894,-231"/>
</g>
<!-- Node5 -->
<g id="node6" class="node"><title>Node5</title>
<g id="a_node6"><a xlink:href="class_igor_1_1i_dialog_file_select.html#a5c3041d6de616956de2bc0465d8983b3" target="_top" xlink:title=" ">
<polygon fill="white" stroke="black" points="553,-212.5 553,-242.5 664,-242.5 664,-212.5 553,-212.5"/>
<text text-anchor="start" x="561" y="-230.5" font-family="Helvetica,sans-Serif" font-size="10.00">Igor::iDialogFileSelect</text>
<text text-anchor="middle" x="608.5" y="-219.5" font-family="Helvetica,sans-Serif" font-size="10.00">::load</text>
</a>
</g>
</g>
<!-- Node4&#45;&gt;Node5 -->
<g id="edge5" class="edge"><title>Node4&#45;&gt;Node5</title>
<path fill="none" stroke="midnightblue" d="M501.218,-227.5C514.953,-227.5 529.284,-227.5 542.813,-227.5"/>
<polygon fill="midnightblue" stroke="midnightblue" points="542.98,-231 552.98,-227.5 542.98,-224 542.98,-231"/>
</g>
<!-- Node6 -->
<g id="node7" class="node"><title>Node6</title>
<g id="a_node7"><a xlink:href="class_igor_1_1i_user_control_file_chooser.html#a385c31c1ecad69cf5bd75e9f8ffe6b96" target="_top" xlink:title=" ">
<polygon fill="white" stroke="black" points="537,-162.5 537,-192.5 680,-192.5 680,-162.5 537,-162.5"/>
<text text-anchor="start" x="545" y="-180.5" font-family="Helvetica,sans-Serif" font-size="10.00">Igor::iUserControlFileChooser</text>
<text text-anchor="middle" x="608.5" y="-169.5" font-family="Helvetica,sans-Serif" font-size="10.00">::onFileLoadDialogClosed</text>
</a>
</g>
</g>
<!-- Node4&#45;&gt;Node6 -->
<g id="edge6" class="edge"><title>Node4&#45;&gt;Node6</title>
<path fill="none" stroke="midnightblue" d="M483.606,-212.498C502.683,-207.109 524.388,-200.978 544.243,-195.369"/>
<polygon fill="midnightblue" stroke="midnightblue" points="545.454,-198.664 554.126,-192.577 543.551,-191.928 545.454,-198.664"/>
</g>
<!-- Node6&#45;&gt;Node2 -->
<g id="edge27" class="edge"><title>Node6&#45;&gt;Node2</title>
<path fill="none" stroke="midnightblue" d="M662.783,-192.591C668.86,-195.399 674.749,-198.68 680,-202.5 701.277,-217.98 694.447,-234.407 716,-249.5 718.726,-251.409 721.604,-253.177 724.584,-254.813"/>
<polygon fill="midnightblue" stroke="midnightblue" points="723.266,-258.065 733.784,-259.338 726.355,-251.784 723.266,-258.065"/>
</g>
<!-- Node7 -->
<g id="node8" class="node"><title>Node7</title>
<g id="a_node8"><a xlink:href="class_igor_1_1i_dialog_file_select.html#a44e6acae3733f31766696fb940d0e2c5" target="_top" xlink:title=" ">
<polygon fill="white" stroke="black" points="741,-161.5 741,-191.5 852,-191.5 852,-161.5 741,-161.5"/>
<text text-anchor="start" x="749" y="-179.5" font-family="Helvetica,sans-Serif" font-size="10.00">Igor::iDialogFileSelect</text>
<text text-anchor="middle" x="796.5" y="-168.5" font-family="Helvetica,sans-Serif" font-size="10.00">::getReturnState</text>
</a>
</g>
</g>
<!-- Node6&#45;&gt;Node7 -->
<g id="edge7" class="edge"><title>Node6&#45;&gt;Node7</title>
<path fill="none" stroke="midnightblue" d="M680.084,-177.121C696.765,-177.031 714.468,-176.936 730.87,-176.847"/>
<polygon fill="midnightblue" stroke="midnightblue" points="730.913,-180.347 740.894,-176.794 730.875,-173.347 730.913,-180.347"/>
</g>
<!-- Node8 -->
<g id="node9" class="node"><title>Node8</title>
<g id="a_node9"><a xlink:href="class_igor_1_1i_dialog_file_select.html#a622e7780aa38ad6e55dff5a05ad41070" target="_top" xlink:title=" ">
<polygon fill="white" stroke="black" points="741,-112.5 741,-142.5 852,-142.5 852,-112.5 741,-112.5"/>
<text text-anchor="start" x="749" y="-130.5" font-family="Helvetica,sans-Serif" font-size="10.00">Igor::iDialogFileSelect</text>
<text text-anchor="middle" x="796.5" y="-119.5" font-family="Helvetica,sans-Serif" font-size="10.00">::getFullPath</text>
</a>
</g>
</g>
<!-- Node6&#45;&gt;Node8 -->
<g id="edge8" class="edge"><title>Node6&#45;&gt;Node8</title>
<path fill="none" stroke="midnightblue" d="M665.306,-162.498C685.999,-156.936 709.634,-150.582 731.036,-144.829"/>
<polygon fill="midnightblue" stroke="midnightblue" points="731.945,-148.209 740.694,-142.233 730.128,-141.449 731.945,-148.209"/>
</g>
<!-- Node21 -->
<g id="node22" class="node"><title>Node21</title>
<g id="a_node22"><a xlink:href="class_igor_1_1i_widget_text_edit.html#a6c599c767c8d7cc05486af66ceeac0b5" target="_top" xlink:title=" ">
<polygon fill="white" stroke="black" points="743,-63.5 743,-93.5 850,-93.5 850,-63.5 743,-63.5"/>
<text text-anchor="start" x="751" y="-81.5" font-family="Helvetica,sans-Serif" font-size="10.00">Igor::iWidgetTextEdit</text>
<text text-anchor="middle" x="796.5" y="-70.5" font-family="Helvetica,sans-Serif" font-size="10.00">::getText</text>
</a>
</g>
</g>
<!-- Node6&#45;&gt;Node21 -->
<g id="edge28" class="edge"><title>Node6&#45;&gt;Node21</title>
<path fill="none" stroke="midnightblue" d="M627.221,-162.305C647.491,-145.596 682.253,-118.942 716,-102.5 721.529,-99.8064 727.422,-97.344 733.405,-95.1107"/>
<polygon fill="midnightblue" stroke="midnightblue" points="734.571,-98.411 742.842,-91.7894 732.247,-91.808 734.571,-98.411"/>
</g>
<!-- Node22 -->
<g id="node23" class="node"><title>Node22</title>
<g id="a_node23"><a xlink:href="class_igor_1_1i_user_control_file_chooser.html#ad8d3af19f48e2eaf2df7475e55faba2d" target="_top" xlink:title=" ">
<polygon fill="white" stroke="black" points="725,-210.5 725,-240.5 868,-240.5 868,-210.5 725,-210.5"/>
<text text-anchor="start" x="733" y="-228.5" font-family="Helvetica,sans-Serif" font-size="10.00">Igor::iUserControlFileChooser</text>
<text text-anchor="middle" x="796.5" y="-217.5" font-family="Helvetica,sans-Serif" font-size="10.00">::setFileName</text>
</a>
</g>
</g>
<!-- Node6&#45;&gt;Node22 -->
<g id="edge29" class="edge"><title>Node6&#45;&gt;Node22</title>
<path fill="none" stroke="midnightblue" d="M667.841,-192.556C686.798,-197.448 707.998,-202.919 727.591,-207.975"/>
<polygon fill="midnightblue" stroke="midnightblue" points="726.808,-211.388 737.366,-210.498 728.558,-204.61 726.808,-211.388"/>
</g>
<!-- Node9 -->
<g id="node10" class="node"><title>Node9</title>
<g id="a_node10"><a xlink:href="class_igor_aux_1_1ia_directory.html#a9934e835bf1a0f24673e13513b697fab" target="_top" xlink:title=" ">
<polygon fill="white" stroke="black" points="915.5,-137.5 915.5,-167.5 1017.5,-167.5 1017.5,-137.5 915.5,-137.5"/>
<text text-anchor="start" x="923.5" y="-155.5" font-family="Helvetica,sans-Serif" font-size="10.00">IgorAux::iaDirectory</text>
<text text-anchor="middle" x="966.5" y="-144.5" font-family="Helvetica,sans-Serif" font-size="10.00">::fixPath</text>
</a>
</g>
</g>
<!-- Node8&#45;&gt;Node9 -->
<g id="edge9" class="edge"><title>Node8&#45;&gt;Node9</title>
<path fill="none" stroke="midnightblue" d="M852.045,-135.617C869.104,-138.155 888.02,-140.97 905.437,-143.562"/>
<polygon fill="midnightblue" stroke="midnightblue" points="905.087,-147.048 915.493,-145.059 906.118,-140.125 905.087,-147.048"/>
</g>
<!-- Node20 -->
<g id="node21" class="node"><title>Node20</title>
<g id="a_node21"><a xlink:href="class_igor_aux_1_1ia_directory.html#a9dd49ace0ad968ebeedbd1f862beaf2b" target="_top" xlink:title=" ">
<polygon fill="white" stroke="black" points="915.5,-88.5 915.5,-118.5 1017.5,-118.5 1017.5,-88.5 915.5,-88.5"/>
<text text-anchor="start" x="923.5" y="-106.5" font-family="Helvetica,sans-Serif" font-size="10.00">IgorAux::iaDirectory</text>
<text text-anchor="middle" x="966.5" y="-95.5" font-family="Helvetica,sans-Serif" font-size="10.00">::getPathSeperator</text>
</a>
</g>
</g>
<!-- Node8&#45;&gt;Node20 -->
<g id="edge26" class="edge"><title>Node8&#45;&gt;Node20</title>
<path fill="none" stroke="midnightblue" d="M852.045,-119.708C869.104,-117.271 888.02,-114.569 905.437,-112.08"/>
<polygon fill="midnightblue" stroke="midnightblue" points="906.089,-115.523 915.493,-110.644 905.099,-108.593 906.089,-115.523"/>
</g>
<!-- Node10 -->
<g id="node11" class="node"><title>Node10</title>
<g id="a_node11"><a xlink:href="class_igor_aux_1_1ia_string.html#a1de38f8fb334a5e52a266b9a4e891821" target="_top" xlink:title=" ">
<polygon fill="white" stroke="black" points="1187,-5.5 1187,-35.5 1282,-35.5 1282,-5.5 1187,-5.5"/>
<text text-anchor="start" x="1195" y="-23.5" font-family="Helvetica,sans-Serif" font-size="10.00">IgorAux::iaString::</text>
<text text-anchor="middle" x="1234.5" y="-12.5" font-family="Helvetica,sans-Serif" font-size="10.00">getSubString</text>
</a>
</g>
</g>
<!-- Node9&#45;&gt;Node10 -->
<g id="edge10" class="edge"><title>Node9&#45;&gt;Node10</title>
<path fill="none" stroke="midnightblue" d="M1017.43,-137.4C1063.42,-123.076 1127.91,-101.819 1151,-88.5 1169.29,-77.9491 1170.74,-70.9648 1187,-57.5 1193.01,-52.5246 1199.53,-47.2599 1205.73,-42.311"/>
<polygon fill="midnightblue" stroke="midnightblue" points="1208.25,-44.7746 1213.91,-35.8151 1203.9,-39.2926 1208.25,-44.7746"/>
</g>
<!-- Node13 -->
<g id="node14" class="node"><title>Node13</title>
<g id="a_node14"><a xlink:href="class_igor_aux_1_1ia_string.html#af389f9d2294ee35d6e99c7058ea65e18" target="_top" xlink:title=" ">
<polygon fill="white" stroke="black" points="1056,-261.5 1056,-291.5 1151,-291.5 1151,-261.5 1056,-261.5"/>
<text text-anchor="start" x="1064" y="-279.5" font-family="Helvetica,sans-Serif" font-size="10.00">IgorAux::iaString::</text>
<text text-anchor="middle" x="1103.5" y="-268.5" font-family="Helvetica,sans-Serif" font-size="10.00">findLastOf</text>
</a>
</g>
</g>
<!-- Node9&#45;&gt;Node13 -->
<g id="edge13" class="edge"><title>Node9&#45;&gt;Node13</title>
<path fill="none" stroke="midnightblue" d="M984.115,-167.565C994.473,-176.988 1008.06,-189.403 1020,-200.5 1036.12,-215.481 1039.83,-219.568 1056,-234.5 1063.16,-241.113 1071,-248.241 1078.18,-254.715"/>
<polygon fill="midnightblue" stroke="midnightblue" points="1075.86,-257.336 1085.63,-261.426 1080.54,-252.134 1075.86,-257.336"/>
</g>
<!-- Node15 -->
<g id="node16" class="node"><title>Node15</title>
<g id="a_node16"><a xlink:href="class_igor_aux_1_1ia_string.html#a5dd1aa2c22b200e373d37dd369fea22a" target="_top" xlink:title=" ">
<polygon fill="white" stroke="black" points="1187,-230.5 1187,-260.5 1282,-260.5 1282,-230.5 1187,-230.5"/>
<text text-anchor="start" x="1195" y="-248.5" font-family="Helvetica,sans-Serif" font-size="10.00">IgorAux::iaString::</text>
<text text-anchor="middle" x="1234.5" y="-237.5" font-family="Helvetica,sans-Serif" font-size="10.00">findFirstOf</text>
</a>
</g>
</g>
<!-- Node9&#45;&gt;Node15 -->
<g id="edge15" class="edge"><title>Node9&#45;&gt;Node15</title>
<path fill="none" stroke="midnightblue" d="M1010.53,-167.545C1056.99,-183.787 1131.01,-209.667 1180.89,-227.106"/>
<polygon fill="midnightblue" stroke="midnightblue" points="1179.93,-230.48 1190.53,-230.476 1182.24,-223.872 1179.93,-230.48"/>
</g>
<!-- Node16 -->
<g id="node17" class="node"><title>Node16</title>
<g id="a_node17"><a xlink:href="class_igor_aux_1_1ia_string.html#a7d68b1fee6a735fd99728850ea55e2d1" target="_top" xlink:title=" ">
<polygon fill="white" stroke="black" points="1056,-137.5 1056,-167.5 1151,-167.5 1151,-137.5 1056,-137.5"/>
<text text-anchor="start" x="1064" y="-155.5" font-family="Helvetica,sans-Serif" font-size="10.00">IgorAux::iaString::</text>
<text text-anchor="middle" x="1103.5" y="-144.5" font-family="Helvetica,sans-Serif" font-size="10.00">split</text>
</a>
</g>
</g>
<!-- Node9&#45;&gt;Node16 -->
<g id="edge17" class="edge"><title>Node9&#45;&gt;Node16</title>
<path fill="none" stroke="midnightblue" d="M1017.77,-152.5C1026.81,-152.5 1036.29,-152.5 1045.51,-152.5"/>
<polygon fill="midnightblue" stroke="midnightblue" points="1045.76,-156 1055.76,-152.5 1045.76,-149 1045.76,-156"/>
</g>
<!-- Node19 -->
<g id="node20" class="node"><title>Node19</title>
<g id="a_node20"><a xlink:href="class_igor_aux_1_1ia_string.html#abc7b1d9a289302f79de14684de13ab1f" target="_top" xlink:title=" ">
<polygon fill="white" stroke="black" points="1056,-49.5 1056,-79.5 1151,-79.5 1151,-49.5 1056,-49.5"/>
<text text-anchor="start" x="1064" y="-67.5" font-family="Helvetica,sans-Serif" font-size="10.00">IgorAux::iaString::</text>
<text text-anchor="middle" x="1103.5" y="-56.5" font-family="Helvetica,sans-Serif" font-size="10.00">clear</text>
</a>
</g>
</g>
<!-- Node9&#45;&gt;Node19 -->
<g id="edge25" class="edge"><title>Node9&#45;&gt;Node19</title>
<path fill="none" stroke="midnightblue" d="M1003.03,-137.359C1008.87,-134.375 1014.73,-131.055 1020,-127.5 1038,-115.367 1038.82,-107.764 1056,-94.5 1060.08,-91.3517 1064.49,-88.2059 1068.91,-85.1999"/>
<polygon fill="midnightblue" stroke="midnightblue" points="1070.94,-88.0578 1077.35,-79.6273 1067.08,-82.2161 1070.94,-88.0578"/>
</g>
<!-- Node11 -->
<g id="node12" class="node"><title>Node11</title>
<g id="a_node12"><a xlink:href="class_igor_aux_1_1ia_string.html#affa8c96a2d7340a79b9e97d84e2585a4" target="_top" xlink:title=" ">
<polygon fill="white" stroke="black" points="1318,-0.5 1318,-30.5 1413,-30.5 1413,-0.5 1318,-0.5"/>
<text text-anchor="start" x="1326" y="-18.5" font-family="Helvetica,sans-Serif" font-size="10.00">IgorAux::iaString::</text>
<text text-anchor="middle" x="1365.5" y="-7.5" font-family="Helvetica,sans-Serif" font-size="10.00">iaString</text>
</a>
</g>
</g>
<!-- Node10&#45;&gt;Node11 -->
<g id="edge11" class="edge"><title>Node10&#45;&gt;Node11</title>
<path fill="none" stroke="midnightblue" d="M1282.07,-18.6949C1290.48,-18.3692 1299.32,-18.0264 1307.97,-17.6911"/>
<polygon fill="midnightblue" stroke="midnightblue" points="1308.14,-21.1872 1318,-17.3025 1307.87,-14.1925 1308.14,-21.1872"/>
</g>
<!-- Node12 -->
<g id="node13" class="node"><title>Node12</title>
<g id="a_node13"><a xlink:href="class_igor_aux_1_1ia_string.html#a8617a0d26ed0c5b4e1b99223f5ac57ff" target="_top" xlink:title=" ">
<polygon fill="white" stroke="black" points="1318,-49.5 1318,-79.5 1413,-79.5 1413,-49.5 1318,-49.5"/>
<text text-anchor="start" x="1326" y="-67.5" font-family="Helvetica,sans-Serif" font-size="10.00">IgorAux::iaString::</text>
<text text-anchor="middle" x="1365.5" y="-56.5" font-family="Helvetica,sans-Serif" font-size="10.00">getData</text>
</a>
</g>
</g>
<!-- Node10&#45;&gt;Node12 -->
<g id="edge12" class="edge"><title>Node10&#45;&gt;Node12</title>
<path fill="none" stroke="midnightblue" d="M1279.53,-35.5192C1289.49,-38.9151 1300.17,-42.5586 1310.49,-46.0767"/>
<polygon fill="midnightblue" stroke="midnightblue" points="1309.63,-49.4834 1320.23,-49.3991 1311.89,-42.8582 1309.63,-49.4834"/>
</g>
<!-- Node14 -->
<g id="node15" class="node"><title>Node14</title>
<g id="a_node15"><a xlink:href="class_igor_aux_1_1ia_string.html#afa2b9ad864db36d1af6c6c67e02d270b" target="_top" xlink:title=" ">
<polygon fill="white" stroke="black" points="1318,-205.5 1318,-235.5 1413,-235.5 1413,-205.5 1318,-205.5"/>
<text text-anchor="start" x="1326" y="-223.5" font-family="Helvetica,sans-Serif" font-size="10.00">IgorAux::iaString::</text>
<text text-anchor="middle" x="1365.5" y="-212.5" font-family="Helvetica,sans-Serif" font-size="10.00">isEmpty</text>
</a>
</g>
</g>
<!-- Node13&#45;&gt;Node14 -->
<g id="edge14" class="edge"><title>Node13&#45;&gt;Node14</title>
<path fill="none" stroke="midnightblue" d="M1151.11,-280.83C1187.52,-282.752 1238.97,-282.232 1282,-269.5 1301.76,-263.652 1321.69,-252.012 1337.01,-241.545"/>
<polygon fill="midnightblue" stroke="midnightblue" points="1339.32,-244.201 1345.46,-235.569 1335.28,-238.485 1339.32,-244.201"/>
</g>
<!-- Node15&#45;&gt;Node14 -->
<g id="edge16" class="edge"><title>Node15&#45;&gt;Node14</title>
<path fill="none" stroke="midnightblue" d="M1282.07,-236.474C1290.48,-234.846 1299.32,-233.132 1307.97,-231.456"/>
<polygon fill="midnightblue" stroke="midnightblue" points="1308.84,-234.851 1318,-229.512 1307.51,-227.979 1308.84,-234.851"/>
</g>
<!-- Node16&#45;&gt;Node10 -->
<g id="edge23" class="edge"><title>Node16&#45;&gt;Node10</title>
<path fill="none" stroke="midnightblue" d="M1133.43,-137.252C1139.73,-133.045 1146,-128.08 1151,-122.5 1174.88,-95.8575 1163.12,-77.1425 1187,-50.5 1189.81,-47.361 1193.03,-44.4168 1196.42,-41.6928"/>
<polygon fill="midnightblue" stroke="midnightblue" points="1198.56,-44.4692 1204.57,-35.7484 1194.43,-38.8138 1198.56,-44.4692"/>
</g>
<!-- Node16&#45;&gt;Node12 -->
<g id="edge21" class="edge"><title>Node16&#45;&gt;Node12</title>
<path fill="none" stroke="midnightblue" d="M1130.42,-137.417C1137.35,-132.948 1144.68,-127.817 1151,-122.5 1169.05,-107.318 1165.93,-94.0991 1187,-83.5 1224.17,-64.8054 1271.17,-60.4929 1307.47,-60.6194"/>
<polygon fill="midnightblue" stroke="midnightblue" points="1307.83,-64.1253 1317.88,-60.7771 1307.94,-57.1261 1307.83,-64.1253"/>
</g>
<!-- Node16&#45;&gt;Node14 -->
<g id="edge18" class="edge"><title>Node16&#45;&gt;Node14</title>
<path fill="none" stroke="midnightblue" d="M1151.25,-152.104C1187.73,-153.069 1239.21,-157.26 1282,-171.5 1301.29,-177.921 1320.94,-189.356 1336.22,-199.566"/>
<polygon fill="midnightblue" stroke="midnightblue" points="1334.45,-202.6 1344.68,-205.388 1338.42,-196.834 1334.45,-202.6"/>
</g>
<!-- Node16&#45;&gt;Node15 -->
<g id="edge22" class="edge"><title>Node16&#45;&gt;Node15</title>
<path fill="none" stroke="midnightblue" d="M1120.81,-167.578C1136.93,-182.081 1162.65,-204.152 1187,-220.5 1189.43,-222.129 1191.97,-223.739 1194.56,-225.311"/>
<polygon fill="midnightblue" stroke="midnightblue" points="1193.06,-228.49 1203.47,-230.476 1196.57,-222.433 1193.06,-228.49"/>
</g>
<!-- Node17 -->
<g id="node18" class="node"><title>Node17</title>
<g id="a_node18"><a xlink:href="class_igor_aux_1_1ia_string.html#a6f6bb95eb9eb1e85f80cde1045e5b9fc" target="_top" xlink:title=" ">
<polygon fill="white" stroke="black" points="1187,-181.5 1187,-211.5 1282,-211.5 1282,-181.5 1187,-181.5"/>
<text text-anchor="start" x="1195" y="-199.5" font-family="Helvetica,sans-Serif" font-size="10.00">IgorAux::iaString::</text>
<text text-anchor="middle" x="1234.5" y="-188.5" font-family="Helvetica,sans-Serif" font-size="10.00">findFirstNotOf</text>
</a>
</g>
</g>
<!-- Node16&#45;&gt;Node17 -->
<g id="edge19" class="edge"><title>Node16&#45;&gt;Node17</title>
<path fill="none" stroke="midnightblue" d="M1148.53,-167.519C1158.49,-170.915 1169.17,-174.559 1179.49,-178.077"/>
<polygon fill="midnightblue" stroke="midnightblue" points="1178.63,-181.483 1189.23,-181.399 1180.89,-174.858 1178.63,-181.483"/>
</g>
<!-- Node18 -->
<g id="node19" class="node"><title>Node18</title>
<g id="a_node19"><a xlink:href="class_igor_aux_1_1ia_string.html#abdca81f9a7dfc354263de5f174171425" target="_top" xlink:title=" ">
<polygon fill="white" stroke="black" points="1187,-93.5 1187,-123.5 1282,-123.5 1282,-93.5 1187,-93.5"/>
<text text-anchor="start" x="1195" y="-111.5" font-family="Helvetica,sans-Serif" font-size="10.00">IgorAux::iaString::</text>
<text text-anchor="middle" x="1234.5" y="-100.5" font-family="Helvetica,sans-Serif" font-size="10.00">getSize</text>
</a>
</g>
</g>
<!-- Node16&#45;&gt;Node18 -->
<g id="edge24" class="edge"><title>Node16&#45;&gt;Node18</title>
<path fill="none" stroke="midnightblue" d="M1148.53,-137.481C1158.49,-134.085 1169.17,-130.441 1179.49,-126.923"/>
<polygon fill="midnightblue" stroke="midnightblue" points="1180.89,-130.142 1189.23,-123.601 1178.63,-123.517 1180.89,-130.142"/>
</g>
<!-- Node17&#45;&gt;Node14 -->
<g id="edge20" class="edge"><title>Node17&#45;&gt;Node14</title>
<path fill="none" stroke="midnightblue" d="M1282.07,-205.165C1290.48,-206.728 1299.32,-208.373 1307.97,-209.983"/>
<polygon fill="midnightblue" stroke="midnightblue" points="1307.52,-213.46 1318,-211.848 1308.81,-206.578 1307.52,-213.46"/>
</g>
<!-- Node23 -->
<g id="node24" class="node"><title>Node23</title>
<g id="a_node24"><a xlink:href="class_igor_1_1i_widget_text_edit.html#a6c6ff0219d37e32d4b614587e7009213" target="_top" xlink:title=" ">
<polygon fill="white" stroke="black" points="913,-210.5 913,-240.5 1020,-240.5 1020,-210.5 913,-210.5"/>
<text text-anchor="start" x="921" y="-228.5" font-family="Helvetica,sans-Serif" font-size="10.00">Igor::iWidgetTextEdit</text>
<text text-anchor="middle" x="966.5" y="-217.5" font-family="Helvetica,sans-Serif" font-size="10.00">::setText</text>
</a>
</g>
</g>
<!-- Node22&#45;&gt;Node23 -->
<g id="edge30" class="edge"><title>Node22&#45;&gt;Node23</title>
<path fill="none" stroke="midnightblue" d="M868.26,-225.5C879.726,-225.5 891.529,-225.5 902.786,-225.5"/>
<polygon fill="midnightblue" stroke="midnightblue" points="902.946,-229 912.946,-225.5 902.946,-222 902.946,-229"/>
</g>
</g>
</svg>
