<?xml version="1.0" encoding="UTF-8" standalone="no"?>
<!DOCTYPE svg PUBLIC "-//W3C//DTD SVG 1.1//EN"
 "http://www.w3.org/Graphics/SVG/1.1/DTD/svg11.dtd">
<!-- Generated by graphviz version 2.38.0 (20140413.2041)
 -->
<!-- Title: UserControlProperties::setProperty Pages: 1 -->
<svg width="305pt" height="127pt"
 viewBox="0.00 0.00 305.00 126.50" xmlns="http://www.w3.org/2000/svg" xmlns:xlink="http://www.w3.org/1999/xlink">
<g id="graph0" class="graph" transform="scale(1 1) rotate(0) translate(4 122.5)">
<title>UserControlProperties::setProperty</title>
<polygon fill="white" stroke="none" points="-4,4 -4,-122.5 301,-122.5 301,4 -4,4"/>
<!-- Node56 -->
<g id="node1" class="node"><title>Node56</title>
<g id="a_node1"><a xlink:title=" ">
<polygon fill="#bfbfbf" stroke="black" points="0,-39 0,-69 112,-69 112,-39 0,-39"/>
<text text-anchor="start" x="8" y="-57" font-family="Helvetica,sans-Serif" font-size="10.00">UserControlProperties</text>
<text text-anchor="middle" x="56" y="-46" font-family="Helvetica,sans-Serif" font-size="10.00">::setProperty</text>
</a>
</g>
</g>
<!-- Node57 -->
<g id="node2" class="node"><title>Node57</title>
<g id="a_node2"><a xlink:href="class_igor_aux_1_1ia_singleton.html#a821f1d891129e6d09b992be81094540e" target="_top" xlink:title=" ">
<polygon fill="white" stroke="black" points="148,-88 148,-118 297,-118 297,-88 148,-88"/>
<text text-anchor="start" x="156" y="-106" font-family="Helvetica,sans-Serif" font-size="10.00">IgorAux::iaSingleton</text>
<text text-anchor="middle" x="222.5" y="-95" font-family="Helvetica,sans-Serif" font-size="10.00">&lt; iNodeFactory &gt;::getInstance</text>
</a>
</g>
</g>
<!-- Node56&#45;&gt;Node57 -->
<g id="edge1" class="edge"><title>Node56&#45;&gt;Node57</title>
<path fill="none" stroke="midnightblue" d="M107.698,-69.1014C124.664,-74.1551 143.741,-79.8376 161.356,-85.0848"/>
<polygon fill="midnightblue" stroke="midnightblue" points="160.387,-88.4479 170.97,-87.9484 162.385,-81.7392 160.387,-88.4479"/>
</g>
<!-- Node58 -->
<g id="node3" class="node"><title>Node58</title>
<g id="a_node3"><a xlink:href="class_user_control_properties.html#a9a0fe4e5b536f6560c3c3a4ce4e2ac1e" target="_top" xlink:title=" ">
<polygon fill="white" stroke="black" points="166.5,-39 166.5,-69 278.5,-69 278.5,-39 166.5,-39"/>
<text text-anchor="start" x="174.5" y="-57" font-family="Helvetica,sans-Serif" font-size="10.00">UserControlProperties</text>
<text text-anchor="middle" x="222.5" y="-46" font-family="Helvetica,sans-Serif" font-size="10.00">::onNameChanged</text>
</a>
</g>
</g>
<!-- Node56&#45;&gt;Node58 -->
<g id="edge2" class="edge"><title>Node56&#45;&gt;Node58</title>
<path fill="none" stroke="midnightblue" d="M112.234,-54C126.279,-54 141.506,-54 156.008,-54"/>
<polygon fill="midnightblue" stroke="midnightblue" points="156.412,-57.5001 166.412,-54 156.412,-50.5001 156.412,-57.5001"/>
</g>
<!-- Node59 -->
<g id="node4" class="node"><title>Node59</title>
<g id="a_node4"><a xlink:href="class_igor_1_1i_node.html#af2d72831df4a13096e731418b6d6bb4b" target="_top" xlink:title=" ">
<polygon fill="white" stroke="black" points="170.5,-0.5 170.5,-19.5 274.5,-19.5 274.5,-0.5 170.5,-0.5"/>
<text text-anchor="middle" x="222.5" y="-7.5" font-family="Helvetica,sans-Serif" font-size="10.00">Igor::iNode::getType</text>
</a>
</g>
</g>
<!-- Node56&#45;&gt;Node59 -->
<g id="edge3" class="edge"><title>Node56&#45;&gt;Node59</title>
<path fill="none" stroke="midnightblue" d="M112.234,-39.2262C132.994,-33.6733 156.338,-27.4294 176.102,-22.1428"/>
<polygon fill="midnightblue" stroke="midnightblue" points="177.028,-25.5184 185.784,-19.5533 175.219,-18.7561 177.028,-25.5184"/>
</g>
</g>
</svg>
