<?xml version="1.0" encoding="UTF-8" standalone="no"?>
<!DOCTYPE svg PUBLIC "-//W3C//DTD SVG 1.1//EN"
 "http://www.w3.org/Graphics/SVG/1.1/DTD/svg11.dtd">
<!-- Generated by graphviz version 2.38.0 (20140413.2041)
 -->
<!-- Title: Igor::iRenderEngine::drawColorIDs Pages: 1 -->
<svg width="450pt" height="296pt"
 viewBox="0.00 0.00 450.00 295.50" xmlns="http://www.w3.org/2000/svg" xmlns:xlink="http://www.w3.org/1999/xlink">
<g id="graph0" class="graph" transform="scale(1 1) rotate(0) translate(4 291.5)">
<title>Igor::iRenderEngine::drawColorIDs</title>
<polygon fill="white" stroke="none" points="-4,4 -4,-291.5 446,-291.5 446,4 -4,4"/>
<!-- Node1 -->
<g id="node1" class="node"><title>Node1</title>
<polygon fill="#bfbfbf" stroke="black" points="0,-137 0,-167 101,-167 101,-137 0,-137"/>
<text text-anchor="start" x="8" y="-155" font-family="Helvetica,sans-Serif" font-size="10.00">Igor::iRenderEngine</text>
<text text-anchor="middle" x="50.5" y="-144" font-family="Helvetica,sans-Serif" font-size="10.00">::drawColorIDs</text>
</g>
<!-- Node2 -->
<g id="node2" class="node"><title>Node2</title>
<g id="a_node2"><a xlink:href="class_igor_1_1i_material_group.html#ac159f2c1d4d4d226ac8ff15e139677ff" target="_top" xlink:title="Igor::iMaterialGroup\l::getRenderNodes">
<polygon fill="white" stroke="black" points="146.5,-257 146.5,-287 247.5,-287 247.5,-257 146.5,-257"/>
<text text-anchor="start" x="154.5" y="-275" font-family="Helvetica,sans-Serif" font-size="10.00">Igor::iMaterialGroup</text>
<text text-anchor="middle" x="197" y="-264" font-family="Helvetica,sans-Serif" font-size="10.00">::getRenderNodes</text>
</a>
</g>
</g>
<!-- Node1&#45;&gt;Node2 -->
<g id="edge1" class="edge"><title>Node1&#45;&gt;Node2</title>
<path fill="none" stroke="midnightblue" d="M61.6818,-167.275C76.2101,-188.046 104.729,-225.216 137,-248 139.055,-249.451 141.211,-250.834 143.433,-252.149"/>
<polygon fill="midnightblue" stroke="midnightblue" points="141.796,-255.242 152.263,-256.886 145.106,-249.074 141.796,-255.242"/>
</g>
<!-- Node3 -->
<g id="node3" class="node"><title>Node3</title>
<g id="a_node3"><a xlink:href="class_igor_1_1i_node_render.html#aef5fe1bc6120f2cca1284646133293ec" target="_top" xlink:title="Igor::iNodeRender::\lwasReached">
<polygon fill="white" stroke="black" points="147,-208 147,-238 247,-238 247,-208 147,-208"/>
<text text-anchor="start" x="155" y="-226" font-family="Helvetica,sans-Serif" font-size="10.00">Igor::iNodeRender::</text>
<text text-anchor="middle" x="197" y="-215" font-family="Helvetica,sans-Serif" font-size="10.00">wasReached</text>
</a>
</g>
</g>
<!-- Node1&#45;&gt;Node3 -->
<g id="edge2" class="edge"><title>Node1&#45;&gt;Node3</title>
<path fill="none" stroke="midnightblue" d="M77.2842,-167.199C94.0423,-176.82 116.508,-189.24 137,-199 140.394,-200.617 143.928,-202.227 147.504,-203.805"/>
<polygon fill="midnightblue" stroke="midnightblue" points="146.432,-207.153 157.001,-207.885 149.195,-200.722 146.432,-207.153"/>
</g>
<!-- Node4 -->
<g id="node4" class="node"><title>Node4</title>
<g id="a_node4"><a xlink:href="class_igor_1_1i_node_render.html#a5506a0bfcea153a15a8b03923e375949" target="_top" xlink:title="Igor::iNodeRender::\lisVisible">
<polygon fill="white" stroke="black" points="147,-159 147,-189 247,-189 247,-159 147,-159"/>
<text text-anchor="start" x="155" y="-177" font-family="Helvetica,sans-Serif" font-size="10.00">Igor::iNodeRender::</text>
<text text-anchor="middle" x="197" y="-166" font-family="Helvetica,sans-Serif" font-size="10.00">isVisible</text>
</a>
</g>
</g>
<!-- Node1&#45;&gt;Node4 -->
<g id="edge3" class="edge"><title>Node1&#45;&gt;Node4</title>
<path fill="none" stroke="midnightblue" d="M101.229,-159.571C112.594,-161.302 124.786,-163.158 136.514,-164.943"/>
<polygon fill="midnightblue" stroke="midnightblue" points="136.256,-168.444 146.669,-166.489 137.31,-161.524 136.256,-168.444"/>
</g>
<!-- Node5 -->
<g id="node5" class="node"><title>Node5</title>
<g id="a_node5"><a xlink:href="class_igor_1_1i_node.html#a865efb791b77d29bb489514326037380" target="_top" xlink:title="Igor::iNode::getID">
<polygon fill="white" stroke="black" points="151,-120.5 151,-139.5 243,-139.5 243,-120.5 151,-120.5"/>
<text text-anchor="middle" x="197" y="-127.5" font-family="Helvetica,sans-Serif" font-size="10.00">Igor::iNode::getID</text>
</a>
</g>
</g>
<!-- Node1&#45;&gt;Node5 -->
<g id="edge4" class="edge"><title>Node1&#45;&gt;Node5</title>
<path fill="none" stroke="midnightblue" d="M101.229,-144.429C113.855,-142.507 127.5,-140.429 140.397,-138.466"/>
<polygon fill="midnightblue" stroke="midnightblue" points="141.187,-141.886 150.546,-136.92 140.133,-134.965 141.187,-141.886"/>
</g>
<!-- Node6 -->
<g id="node6" class="node"><title>Node6</title>
<g id="a_node6"><a xlink:href="class_igor_1_1i_node_render.html#a555b40da5534a5e54e4235560678bac0" target="_top" xlink:title="Igor::iNodeRender::draw">
<polygon fill="white" stroke="black" points="137,-82.5 137,-101.5 257,-101.5 257,-82.5 137,-82.5"/>
<text text-anchor="middle" x="197" y="-89.5" font-family="Helvetica,sans-Serif" font-size="10.00">Igor::iNodeRender::draw</text>
</a>
</g>
</g>
<!-- Node1&#45;&gt;Node6 -->
<g id="edge5" class="edge"><title>Node1&#45;&gt;Node6</title>
<path fill="none" stroke="midnightblue" d="M80.3459,-136.962C96.7189,-128.733 117.732,-118.681 137,-111 142.443,-108.83 148.24,-106.724 153.994,-104.752"/>
<polygon fill="midnightblue" stroke="midnightblue" points="155.18,-108.046 163.567,-101.573 152.974,-101.403 155.18,-108.046"/>
</g>
<!-- Node7 -->
<g id="node7" class="node"><title>Node7</title>
<g id="a_node7"><a xlink:href="class_igor_1_1i_material_group.html#ae5c9c6cedc257e8a6f58ec1ac02d4d1e" target="_top" xlink:title="Igor::iMaterialGroup\l::removeRenderNode">
<polygon fill="white" stroke="black" points="143.5,-33 143.5,-63 250.5,-63 250.5,-33 143.5,-33"/>
<text text-anchor="start" x="151.5" y="-51" font-family="Helvetica,sans-Serif" font-size="10.00">Igor::iMaterialGroup</text>
<text text-anchor="middle" x="197" y="-40" font-family="Helvetica,sans-Serif" font-size="10.00">::removeRenderNode</text>
</a>
</g>
</g>
<!-- Node1&#45;&gt;Node7 -->
<g id="edge6" class="edge"><title>Node1&#45;&gt;Node7</title>
<path fill="none" stroke="midnightblue" d="M64.7519,-136.942C80.5684,-119.685 108.477,-91.4177 137,-73 139.94,-71.1019 143.047,-69.2929 146.238,-67.5797"/>
<polygon fill="midnightblue" stroke="midnightblue" points="147.997,-70.6131 155.376,-63.0106 144.867,-64.352 147.997,-70.6131"/>
</g>
<!-- Node8 -->
<g id="node8" class="node"><title>Node8</title>
<g id="a_node8"><a xlink:href="class_igor_aux_1_1ia_singleton.html#a821f1d891129e6d09b992be81094540e" target="_top" xlink:title="IgorAux::iaSingleton\l\&lt; iNodeFactory \&gt;::getInstance">
<polygon fill="white" stroke="black" points="293,-77 293,-107 442,-107 442,-77 293,-77"/>
<text text-anchor="start" x="301" y="-95" font-family="Helvetica,sans-Serif" font-size="10.00">IgorAux::iaSingleton</text>
<text text-anchor="middle" x="367.5" y="-84" font-family="Helvetica,sans-Serif" font-size="10.00">&lt; iNodeFactory &gt;::getInstance</text>
</a>
</g>
</g>
<!-- Node7&#45;&gt;Node8 -->
<g id="edge7" class="edge"><title>Node7&#45;&gt;Node8</title>
<path fill="none" stroke="midnightblue" d="M250.852,-61.8012C266.118,-65.7875 282.989,-70.193 299.016,-74.3781"/>
<polygon fill="midnightblue" stroke="midnightblue" points="298.305,-77.8096 308.864,-76.9498 300.073,-71.0367 298.305,-77.8096"/>
</g>
<!-- Node9 -->
<g id="node9" class="node"><title>Node9</title>
<g id="a_node9"><a xlink:href="class_igor_1_1i_node.html#a43329dc1b2a6ad4056c38290c5df777d" target="_top" xlink:title="Igor::iNode::getType">
<polygon fill="white" stroke="black" points="315.5,-38.5 315.5,-57.5 419.5,-57.5 419.5,-38.5 315.5,-38.5"/>
<text text-anchor="middle" x="367.5" y="-45.5" font-family="Helvetica,sans-Serif" font-size="10.00">Igor::iNode::getType</text>
</a>
</g>
</g>
<!-- Node7&#45;&gt;Node9 -->
<g id="edge8" class="edge"><title>Node7&#45;&gt;Node9</title>
<path fill="none" stroke="midnightblue" d="M250.852,-48C268.037,-48 287.256,-48 305.015,-48"/>
<polygon fill="midnightblue" stroke="midnightblue" points="305.277,-51.5001 315.277,-48 305.277,-44.5001 305.277,-51.5001"/>
</g>
<!-- Node10 -->
<g id="node10" class="node"><title>Node10</title>
<g id="a_node10"><a xlink:href="namespace_igor.html#a4614e8f1440b806d814d1f8a4a8b82a3" target="_top" xlink:title="Igor::getMeshBuffers">
<polygon fill="white" stroke="black" points="314.5,-0.5 314.5,-19.5 420.5,-19.5 420.5,-0.5 314.5,-0.5"/>
<text text-anchor="middle" x="367.5" y="-7.5" font-family="Helvetica,sans-Serif" font-size="10.00">Igor::getMeshBuffers</text>
</a>
</g>
</g>
<!-- Node7&#45;&gt;Node10 -->
<g id="edge9" class="edge"><title>Node7&#45;&gt;Node10</title>
<path fill="none" stroke="midnightblue" d="M250.852,-36.0808C271.081,-31.5189 294.127,-26.3215 314.295,-21.7733"/>
<polygon fill="midnightblue" stroke="midnightblue" points="315.258,-25.1441 324.243,-19.5298 313.718,-18.3156 315.258,-25.1441"/>
</g>
</g>
</svg>
