<?xml version="1.0" encoding="UTF-8" standalone="no"?>
<!DOCTYPE svg PUBLIC "-//W3C//DTD SVG 1.1//EN"
 "http://www.w3.org/Graphics/SVG/1.1/DTD/svg11.dtd">
<!-- Generated by graphviz version 2.38.0 (20140413.2041)
 -->
<!-- Title: Igor::iMesh Pages: 1 -->
<svg width="316pt" height="349pt"
 viewBox="0.00 0.00 316.00 349.00" xmlns="http://www.w3.org/2000/svg" xmlns:xlink="http://www.w3.org/1999/xlink">
<g id="graph0" class="graph" transform="scale(1 1) rotate(0) translate(4 345)">
<title>Igor::iMesh</title>
<polygon fill="white" stroke="none" points="-4,4 -4,-345 312,-345 312,4 -4,4"/>
<!-- Node1 -->
<g id="node1" class="node"><title>Node1</title>
<g id="a_node1"><a xlink:title=" ">
<polygon fill="#bfbfbf" stroke="black" points="138,-0.5 138,-19.5 203,-19.5 203,-0.5 138,-0.5"/>
<text text-anchor="middle" x="170.5" y="-7.5" font-family="Helvetica,sans-Serif" font-size="10.00">Igor::iMesh</text>
</a>
</g>
</g>
<!-- Node2 -->
<g id="node2" class="node"><title>Node2</title>
<g id="a_node2"><a xlink:href="class_igor_1_1i_a_a_box.html" target="_top" xlink:title=" ">
<polygon fill="white" stroke="black" points="33.5,-67.5 33.5,-86.5 151.5,-86.5 151.5,-67.5 33.5,-67.5"/>
<text text-anchor="middle" x="92.5" y="-74.5" font-family="Helvetica,sans-Serif" font-size="10.00">Igor::iAABox&lt; float64 &gt;</text>
</a>
</g>
</g>
<!-- Node2&#45;&gt;Node1 -->
<g id="edge1" class="edge"><title>Node2&#45;&gt;Node1</title>
<path fill="none" stroke="#9a32cd" stroke-dasharray="5,2" d="M110.844,-60.7134C126.212,-47.907 147.594,-30.0884 160.147,-19.6273"/>
<polygon fill="#9a32cd" stroke="#9a32cd" points="108.461,-58.1431 103.019,-67.2338 112.942,-63.5207 108.461,-58.1431"/>
<text text-anchor="middle" x="151.5" y="-41" font-family="Helvetica,sans-Serif" font-size="10.00"> _bbox</text>
</g>
<!-- Node3 -->
<g id="node3" class="node"><title>Node3</title>
<g id="a_node3"><a xlink:href="class_igor_aux_1_1ia_vector3.html" target="_top" xlink:title=" ">
<polygon fill="white" stroke="black" points="113,-145.5 113,-175.5 210,-175.5 210,-145.5 113,-145.5"/>
<text text-anchor="start" x="121" y="-163.5" font-family="Helvetica,sans-Serif" font-size="10.00">IgorAux::iaVector3</text>
<text text-anchor="middle" x="161.5" y="-152.5" font-family="Helvetica,sans-Serif" font-size="10.00">&lt; float64 &gt;</text>
</a>
</g>
</g>
<!-- Node3&#45;&gt;Node2 -->
<g id="edge2" class="edge"><title>Node3&#45;&gt;Node2</title>
<path fill="none" stroke="#9a32cd" stroke-dasharray="5,2" d="M141.912,-137.813C138.739,-134.224 135.509,-130.525 132.5,-127 120.665,-113.135 107.36,-96.6481 99.4671,-86.7694"/>
<polygon fill="#9a32cd" stroke="#9a32cd" points="139.392,-140.246 148.659,-145.381 144.617,-135.588 139.392,-140.246"/>
<text text-anchor="middle" x="158.5" y="-119" font-family="Helvetica,sans-Serif" font-size="10.00"> _center</text>
<text text-anchor="middle" x="158.5" y="-108" font-family="Helvetica,sans-Serif" font-size="10.00">_halfWidths</text>
</g>
<!-- Node7 -->
<g id="node7" class="node"><title>Node7</title>
<g id="a_node7"><a xlink:href="class_igor_1_1i_sphere.html" target="_top" xlink:title=" ">
<polygon fill="white" stroke="black" points="169.5,-67.5 169.5,-86.5 287.5,-86.5 287.5,-67.5 169.5,-67.5"/>
<text text-anchor="middle" x="228.5" y="-74.5" font-family="Helvetica,sans-Serif" font-size="10.00">Igor::iSphere&lt; float64 &gt;</text>
</a>
</g>
</g>
<!-- Node3&#45;&gt;Node7 -->
<g id="edge7" class="edge"><title>Node3&#45;&gt;Node7</title>
<path fill="none" stroke="#9a32cd" stroke-dasharray="5,2" d="M179.244,-137.251C187.212,-127.33 196.767,-115.53 205.5,-105 210.532,-98.9331 216.282,-92.1831 220.774,-86.9499"/>
<polygon fill="#9a32cd" stroke="#9a32cd" points="176.499,-135.08 172.977,-145.073 181.962,-139.457 176.499,-135.08"/>
<text text-anchor="middle" x="223.5" y="-113.5" font-family="Helvetica,sans-Serif" font-size="10.00"> _center</text>
</g>
<!-- Node4 -->
<g id="node4" class="node"><title>Node4</title>
<g id="a_node4"><a xlink:href="class_igor_aux_1_1ia_vector3.html" target="_top" xlink:title=" ">
<polygon fill="white" stroke="black" points="104.5,-232.5 104.5,-251.5 224.5,-251.5 224.5,-232.5 104.5,-232.5"/>
<text text-anchor="middle" x="164.5" y="-239.5" font-family="Helvetica,sans-Serif" font-size="10.00">IgorAux::iaVector3&lt; T &gt;</text>
</a>
</g>
</g>
<!-- Node4&#45;&gt;Node3 -->
<g id="edge3" class="edge"><title>Node4&#45;&gt;Node3</title>
<path fill="none" stroke="orange" stroke-dasharray="5,2" d="M156.056,-222.995C154.998,-220.047 154.084,-216.98 153.5,-214 150.983,-201.152 153.72,-186.404 156.656,-175.817"/>
<polygon fill="orange" stroke="orange" points="152.847,-224.393 159.934,-232.268 159.305,-221.692 152.847,-224.393"/>
<text text-anchor="middle" x="178.5" y="-201.5" font-family="Helvetica,sans-Serif" font-size="10.00"> &lt; float64 &gt;</text>
</g>
<!-- Node5 -->
<g id="node5" class="node"><title>Node5</title>
<g id="a_node5"><a xlink:title=" ">
<polygon fill="white" stroke="#bfbfbf" points="210,-321.5 210,-340.5 239,-340.5 239,-321.5 210,-321.5"/>
<text text-anchor="middle" x="224.5" y="-328.5" font-family="Helvetica,sans-Serif" font-size="10.00">T</text>
</a>
</g>
</g>
<!-- Node5&#45;&gt;Node4 -->
<g id="edge4" class="edge"><title>Node5&#45;&gt;Node4</title>
<path fill="none" stroke="#9a32cd" stroke-dasharray="5,2" d="M212.771,-312.993C200.057,-294.557 180.27,-265.867 170.448,-251.625"/>
<polygon fill="#9a32cd" stroke="#9a32cd" points="209.969,-315.095 218.528,-321.34 215.731,-311.121 209.969,-315.095"/>
<text text-anchor="middle" x="212.5" y="-295" font-family="Helvetica,sans-Serif" font-size="10.00"> _x</text>
<text text-anchor="middle" x="212.5" y="-284" font-family="Helvetica,sans-Serif" font-size="10.00">_y</text>
<text text-anchor="middle" x="212.5" y="-273" font-family="Helvetica,sans-Serif" font-size="10.00">_z</text>
</g>
<!-- Node8 -->
<g id="node8" class="node"><title>Node8</title>
<g id="a_node8"><a xlink:href="class_igor_1_1i_sphere.html" target="_top" xlink:title=" ">
<polygon fill="white" stroke="black" points="213,-194.5 213,-213.5 308,-213.5 308,-194.5 213,-194.5"/>
<text text-anchor="middle" x="260.5" y="-201.5" font-family="Helvetica,sans-Serif" font-size="10.00">Igor::iSphere&lt; T &gt;</text>
</a>
</g>
</g>
<!-- Node5&#45;&gt;Node8 -->
<g id="edge9" class="edge"><title>Node5&#45;&gt;Node8</title>
<path fill="none" stroke="#9a32cd" stroke-dasharray="5,2" d="M229.82,-311.528C237.712,-284.127 252.211,-233.782 258.008,-213.652"/>
<polygon fill="#9a32cd" stroke="#9a32cd" points="226.379,-310.83 226.974,-321.408 233.105,-312.767 226.379,-310.83"/>
<text text-anchor="middle" x="260" y="-284" font-family="Helvetica,sans-Serif" font-size="10.00"> _radius</text>
</g>
<!-- Node6 -->
<g id="node6" class="node"><title>Node6</title>
<g id="a_node6"><a xlink:href="class_igor_1_1i_a_a_box.html" target="_top" xlink:title=" ">
<polygon fill="white" stroke="black" points="0,-151 0,-170 95,-170 95,-151 0,-151"/>
<text text-anchor="middle" x="47.5" y="-158" font-family="Helvetica,sans-Serif" font-size="10.00">Igor::iAABox&lt; T &gt;</text>
</a>
</g>
</g>
<!-- Node6&#45;&gt;Node2 -->
<g id="edge5" class="edge"><title>Node6&#45;&gt;Node2</title>
<path fill="none" stroke="orange" stroke-dasharray="5,2" d="M44.4701,-140.754C43.62,-129.641 44.278,-115.687 50.5,-105 55.2103,-96.9094 63.4214,-90.8398 71.3411,-86.526"/>
<polygon fill="orange" stroke="orange" points="40.9968,-141.186 45.6727,-150.693 47.9461,-140.345 40.9968,-141.186"/>
<text text-anchor="middle" x="75.5" y="-113.5" font-family="Helvetica,sans-Serif" font-size="10.00"> &lt; float64 &gt;</text>
</g>
<!-- Node7&#45;&gt;Node1 -->
<g id="edge6" class="edge"><title>Node7&#45;&gt;Node1</title>
<path fill="none" stroke="#9a32cd" stroke-dasharray="5,2" d="M213.897,-59.6348C202.554,-46.9228 187.273,-29.7978 178.198,-19.6273"/>
<polygon fill="#9a32cd" stroke="#9a32cd" points="211.408,-62.1026 220.678,-67.2338 216.631,-57.4421 211.408,-62.1026"/>
<text text-anchor="middle" x="222.5" y="-41" font-family="Helvetica,sans-Serif" font-size="10.00"> _sphere</text>
</g>
<!-- Node8&#45;&gt;Node7 -->
<g id="edge8" class="edge"><title>Node8&#45;&gt;Node7</title>
<path fill="none" stroke="orange" stroke-dasharray="5,2" d="M258.356,-184.495C255.711,-164.518 250.431,-131.941 241.5,-105 239.405,-98.679 236.155,-91.929 233.428,-86.7593"/>
<polygon fill="orange" stroke="orange" points="254.883,-184.931 259.589,-194.423 261.83,-184.068 254.883,-184.931"/>
<text text-anchor="middle" x="281.5" y="-158" font-family="Helvetica,sans-Serif" font-size="10.00"> &lt; float64 &gt;</text>
</g>
</g>
</svg>
