<?xml version="1.0" encoding="UTF-8" standalone="no"?>
<!DOCTYPE svg PUBLIC "-//W3C//DTD SVG 1.1//EN"
 "http://www.w3.org/Graphics/SVG/1.1/DTD/svg11.dtd">
<!-- Generated by graphviz version 2.38.0 (20140413.2041)
 -->
<!-- Title: OMPF::ompfBaseChunk::write Pages: 1 -->
<svg width="318pt" height="508pt"
 viewBox="0.00 0.00 318.00 507.50" xmlns="http://www.w3.org/2000/svg" xmlns:xlink="http://www.w3.org/1999/xlink">
<g id="graph0" class="graph" transform="scale(1 1) rotate(0) translate(4 503.5)">
<title>OMPF::ompfBaseChunk::write</title>
<polygon fill="white" stroke="none" points="-4,4 -4,-503.5 314,-503.5 314,4 -4,4"/>
<!-- Node1 -->
<g id="node1" class="node"><title>Node1</title>
<polygon fill="#bfbfbf" stroke="black" points="0,-245.5 0,-275.5 122,-275.5 122,-245.5 0,-245.5"/>
<text text-anchor="start" x="8" y="-263.5" font-family="Helvetica,sans-Serif" font-size="10.00">OMPF::ompfBaseChunk</text>
<text text-anchor="middle" x="61" y="-252.5" font-family="Helvetica,sans-Serif" font-size="10.00">::write</text>
</g>
<!-- Node2 -->
<g id="node2" class="node"><title>Node2</title>
<g id="a_node2"><a xlink:href="class_o_m_p_f_1_1_o_m_p_f.html#a5b2b8784a1caf169716bfc39e722ca7d" target="_top" xlink:title="OMPF::OMPF::writeMaterial">
<polygon fill="white" stroke="black" points="164,-480 164,-499 304,-499 304,-480 164,-480"/>
<text text-anchor="middle" x="234" y="-487" font-family="Helvetica,sans-Serif" font-size="10.00">OMPF::OMPF::writeMaterial</text>
</a>
</g>
</g>
<!-- Node1&#45;&gt;Node2 -->
<g id="edge1" class="edge"><title>Node1&#45;&gt;Node2</title>
<path fill="none" stroke="midnightblue" d="M66.2095,-285.558C74.9967,-329.82 99.551,-421.76 158,-470.5 162.642,-474.371 167.97,-477.468 173.598,-479.944"/>
<polygon fill="midnightblue" stroke="midnightblue" points="69.6314,-284.816 64.3473,-275.632 62.7514,-286.106 69.6314,-284.816"/>
</g>
<!-- Node3 -->
<g id="node3" class="node"><title>Node3</title>
<g id="a_node3"><a xlink:href="class_o_m_p_f_1_1_o_m_p_f.html#a8fd77db730303b8429524f552de91146" target="_top" xlink:title="OMPF::OMPF::write">
<polygon fill="white" stroke="black" points="181,-442 181,-461 287,-461 287,-442 181,-442"/>
<text text-anchor="middle" x="234" y="-449" font-family="Helvetica,sans-Serif" font-size="10.00">OMPF::OMPF::write</text>
</a>
</g>
</g>
<!-- Node1&#45;&gt;Node3 -->
<g id="edge2" class="edge"><title>Node1&#45;&gt;Node3</title>
<path fill="none" stroke="midnightblue" d="M68.8952,-285.299C80.6944,-323.015 108.418,-394.421 158,-432.5 164.711,-437.654 172.662,-441.422 180.835,-444.174"/>
<polygon fill="midnightblue" stroke="midnightblue" points="72.2137,-284.18 65.9845,-275.61 65.5097,-286.194 72.2137,-284.18"/>
</g>
<!-- Node4 -->
<g id="node4" class="node"><title>Node4</title>
<g id="a_node4"><a xlink:href="class_o_m_p_f_1_1ompf_emitter_chunk.html#acfbbcf5bc5c99d404f9cd80bcf57a8ff" target="_top" xlink:title="OMPF::ompfEmitterChunk\l::write">
<polygon fill="white" stroke="black" points="168.5,-392.5 168.5,-422.5 299.5,-422.5 299.5,-392.5 168.5,-392.5"/>
<text text-anchor="start" x="176.5" y="-410.5" font-family="Helvetica,sans-Serif" font-size="10.00">OMPF::ompfEmitterChunk</text>
<text text-anchor="middle" x="234" y="-399.5" font-family="Helvetica,sans-Serif" font-size="10.00">::write</text>
</a>
</g>
</g>
<!-- Node1&#45;&gt;Node4 -->
<g id="edge3" class="edge"><title>Node1&#45;&gt;Node4</title>
<path fill="none" stroke="midnightblue" d="M74.9502,-284.798C90.9312,-312.542 120.632,-357.445 158,-383.5 162.934,-386.94 168.388,-389.907 174.037,-392.462"/>
<polygon fill="midnightblue" stroke="midnightblue" points="77.8248,-282.769 69.8796,-275.76 71.7198,-286.193 77.8248,-282.769"/>
</g>
<!-- Node5 -->
<g id="node5" class="node"><title>Node5</title>
<g id="a_node5"><a xlink:href="class_o_m_p_f_1_1ompf_external_reference_chunk.html#a465f026905147cc0af22e7e43e8dcbc2" target="_top" xlink:title="OMPF::ompfExternalReference\lChunk::write">
<polygon fill="white" stroke="black" points="158,-343.5 158,-373.5 310,-373.5 310,-343.5 158,-343.5"/>
<text text-anchor="start" x="166" y="-361.5" font-family="Helvetica,sans-Serif" font-size="10.00">OMPF::ompfExternalReference</text>
<text text-anchor="middle" x="234" y="-350.5" font-family="Helvetica,sans-Serif" font-size="10.00">Chunk::write</text>
</a>
</g>
</g>
<!-- Node1&#45;&gt;Node5 -->
<g id="edge4" class="edge"><title>Node1&#45;&gt;Node5</title>
<path fill="none" stroke="midnightblue" d="M85.7427,-282.605C104.247,-298.848 131.217,-320.447 158,-334.5 164.295,-337.803 171.127,-340.754 178.019,-343.361"/>
<polygon fill="midnightblue" stroke="midnightblue" points="87.9013,-279.841 78.112,-275.789 83.2377,-285.061 87.9013,-279.841"/>
</g>
<!-- Node6 -->
<g id="node6" class="node"><title>Node6</title>
<g id="a_node6"><a xlink:href="class_o_m_p_f_1_1ompf_group_chunk.html#a250bff7aa0160678bd47562c19e07865" target="_top" xlink:title="OMPF::ompfGroupChunk\l::write">
<polygon fill="white" stroke="black" points="171,-294.5 171,-324.5 297,-324.5 297,-294.5 171,-294.5"/>
<text text-anchor="start" x="179" y="-312.5" font-family="Helvetica,sans-Serif" font-size="10.00">OMPF::ompfGroupChunk</text>
<text text-anchor="middle" x="234" y="-301.5" font-family="Helvetica,sans-Serif" font-size="10.00">::write</text>
</a>
</g>
</g>
<!-- Node1&#45;&gt;Node6 -->
<g id="edge5" class="edge"><title>Node1&#45;&gt;Node6</title>
<path fill="none" stroke="midnightblue" d="M124.447,-278.394C142.839,-283.664 162.77,-289.376 180.473,-294.448"/>
<polygon fill="midnightblue" stroke="midnightblue" points="125.278,-274.992 114.701,-275.601 123.35,-281.721 125.278,-274.992"/>
</g>
<!-- Node7 -->
<g id="node7" class="node"><title>Node7</title>
<g id="a_node7"><a xlink:href="class_o_m_p_f_1_1ompf_header_chunk.html#a54b14e4116050ddae69c7a75542bd3e1" target="_top" xlink:title="OMPF::ompfHeaderChunk\l::write">
<polygon fill="white" stroke="black" points="168.5,-245.5 168.5,-275.5 299.5,-275.5 299.5,-245.5 168.5,-245.5"/>
<text text-anchor="start" x="176.5" y="-263.5" font-family="Helvetica,sans-Serif" font-size="10.00">OMPF::ompfHeaderChunk</text>
<text text-anchor="middle" x="234" y="-252.5" font-family="Helvetica,sans-Serif" font-size="10.00">::write</text>
</a>
</g>
</g>
<!-- Node1&#45;&gt;Node7 -->
<g id="edge6" class="edge"><title>Node1&#45;&gt;Node7</title>
<path fill="none" stroke="midnightblue" d="M132.567,-260.5C144.407,-260.5 156.641,-260.5 168.323,-260.5"/>
<polygon fill="midnightblue" stroke="midnightblue" points="132.288,-257 122.288,-260.5 132.288,-264 132.288,-257"/>
</g>
<!-- Node8 -->
<g id="node8" class="node"><title>Node8</title>
<g id="a_node8"><a xlink:href="class_o_m_p_f_1_1ompf_material_chunk.html#a16218c145b688f2db2fcfb61c1feec39" target="_top" xlink:title="OMPF::ompfMaterialChunk\l::write">
<polygon fill="white" stroke="black" points="167,-196.5 167,-226.5 301,-226.5 301,-196.5 167,-196.5"/>
<text text-anchor="start" x="175" y="-214.5" font-family="Helvetica,sans-Serif" font-size="10.00">OMPF::ompfMaterialChunk</text>
<text text-anchor="middle" x="234" y="-203.5" font-family="Helvetica,sans-Serif" font-size="10.00">::write</text>
</a>
</g>
</g>
<!-- Node1&#45;&gt;Node8 -->
<g id="edge7" class="edge"><title>Node1&#45;&gt;Node8</title>
<path fill="none" stroke="midnightblue" d="M124.447,-242.606C142.839,-237.336 162.77,-231.624 180.473,-226.552"/>
<polygon fill="midnightblue" stroke="midnightblue" points="123.35,-239.279 114.701,-245.399 125.278,-246.008 123.35,-239.279"/>
</g>
<!-- Node9 -->
<g id="node9" class="node"><title>Node9</title>
<g id="a_node9"><a xlink:href="class_o_m_p_f_1_1ompf_mesh_chunk.html#a83a3fb04f638373d6aa6e736cb42c35b" target="_top" xlink:title="OMPF::ompfMeshChunk\l::write">
<polygon fill="white" stroke="black" points="172,-147.5 172,-177.5 296,-177.5 296,-147.5 172,-147.5"/>
<text text-anchor="start" x="180" y="-165.5" font-family="Helvetica,sans-Serif" font-size="10.00">OMPF::ompfMeshChunk</text>
<text text-anchor="middle" x="234" y="-154.5" font-family="Helvetica,sans-Serif" font-size="10.00">::write</text>
</a>
</g>
</g>
<!-- Node1&#45;&gt;Node9 -->
<g id="edge8" class="edge"><title>Node1&#45;&gt;Node9</title>
<path fill="none" stroke="midnightblue" d="M86.1807,-238.513C104.726,-222.582 131.551,-201.47 158,-187.5 165.039,-183.782 172.738,-180.466 180.437,-177.559"/>
<polygon fill="midnightblue" stroke="midnightblue" points="83.748,-235.991 78.5197,-245.206 88.3534,-241.263 83.748,-235.991"/>
</g>
<!-- Node10 -->
<g id="node10" class="node"><title>Node10</title>
<g id="a_node10"><a xlink:href="class_o_m_p_f_1_1ompf_particle_system_chunk.html#a784b64dcf17282520dd77f074364ca75" target="_top" xlink:title="OMPF::ompfParticleSystem\lChunk::write">
<polygon fill="white" stroke="black" points="164.5,-98.5 164.5,-128.5 303.5,-128.5 303.5,-98.5 164.5,-98.5"/>
<text text-anchor="start" x="172.5" y="-116.5" font-family="Helvetica,sans-Serif" font-size="10.00">OMPF::ompfParticleSystem</text>
<text text-anchor="middle" x="234" y="-105.5" font-family="Helvetica,sans-Serif" font-size="10.00">Chunk::write</text>
</a>
</g>
</g>
<!-- Node1&#45;&gt;Node10 -->
<g id="edge9" class="edge"><title>Node1&#45;&gt;Node10</title>
<path fill="none" stroke="midnightblue" d="M75.0539,-236.481C91.1327,-209.039 120.925,-164.574 158,-138.5 163.501,-134.631 169.644,-131.327 175.982,-128.514"/>
<polygon fill="midnightblue" stroke="midnightblue" points="71.8692,-235 69.9491,-245.419 77.9477,-238.471 71.8692,-235"/>
</g>
<!-- Node11 -->
<g id="node11" class="node"><title>Node11</title>
<g id="a_node11"><a xlink:href="class_o_m_p_f_1_1ompf_resource_search_path_chunk.html#a1b17d55f869cf4c6ce4a375efa17886b" target="_top" xlink:title="OMPF::ompfResourceSearch\lPathChunk::write">
<polygon fill="white" stroke="black" points="162,-49.5 162,-79.5 306,-79.5 306,-49.5 162,-49.5"/>
<text text-anchor="start" x="170" y="-67.5" font-family="Helvetica,sans-Serif" font-size="10.00">OMPF::ompfResourceSearch</text>
<text text-anchor="middle" x="234" y="-56.5" font-family="Helvetica,sans-Serif" font-size="10.00">PathChunk::write</text>
</a>
</g>
</g>
<!-- Node1&#45;&gt;Node11 -->
<g id="edge10" class="edge"><title>Node1&#45;&gt;Node11</title>
<path fill="none" stroke="midnightblue" d="M69.4733,-235.727C81.8934,-198.667 110.257,-128.944 158,-89.5 162.656,-85.6536 167.927,-82.3909 173.464,-79.6248"/>
<polygon fill="midnightblue" stroke="midnightblue" points="66.137,-234.669 66.3902,-245.261 72.7974,-236.823 66.137,-234.669"/>
</g>
<!-- Node12 -->
<g id="node12" class="node"><title>Node12</title>
<g id="a_node12"><a xlink:href="class_o_m_p_f_1_1ompf_transform_chunk.html#ade0febaec0aec168ab684c426cf7cdff" target="_top" xlink:title="OMPF::ompfTransformChunk\l::write">
<polygon fill="white" stroke="black" points="162.5,-0.5 162.5,-30.5 305.5,-30.5 305.5,-0.5 162.5,-0.5"/>
<text text-anchor="start" x="170.5" y="-18.5" font-family="Helvetica,sans-Serif" font-size="10.00">OMPF::ompfTransformChunk</text>
<text text-anchor="middle" x="234" y="-7.5" font-family="Helvetica,sans-Serif" font-size="10.00">::write</text>
</a>
</g>
</g>
<!-- Node1&#45;&gt;Node12 -->
<g id="edge11" class="edge"><title>Node1&#45;&gt;Node12</title>
<path fill="none" stroke="midnightblue" d="M66.1012,-235.333C74.802,-189.944 99.3402,-94.1203 158,-40.5 162.255,-36.6107 167.132,-33.3247 172.314,-30.5486"/>
<polygon fill="midnightblue" stroke="midnightblue" points="62.6472,-234.765 64.3046,-245.23 69.5346,-236.016 62.6472,-234.765"/>
</g>
</g>
</svg>
