<?xml version="1.0" encoding="UTF-8" standalone="no"?>
<!DOCTYPE svg PUBLIC "-//W3C//DTD SVG 1.1//EN"
 "http://www.w3.org/Graphics/SVG/1.1/DTD/svg11.dtd">
<!-- Generated by graphviz version 2.38.0 (20140413.2041)
 -->
<!-- Title: OMPF::ompfSettings::setCustomDataSizeSize Pages: 1 -->
<svg width="304pt" height="39pt"
 viewBox="0.00 0.00 304.00 39.00" xmlns="http://www.w3.org/2000/svg" xmlns:xlink="http://www.w3.org/1999/xlink">
<g id="graph0" class="graph" transform="scale(1 1) rotate(0) translate(4 35)">
<title>OMPF::ompfSettings::setCustomDataSizeSize</title>
<polygon fill="white" stroke="none" points="-4,4 -4,-35 300,-35 300,4 -4,4"/>
<!-- Node126 -->
<g id="node1" class="node"><title>Node126</title>
<g id="a_node1"><a xlink:title=" ">
<polygon fill="#bfbfbf" stroke="black" points="167,-0.5 167,-30.5 296,-30.5 296,-0.5 167,-0.5"/>
<text text-anchor="start" x="175" y="-18.5" font-family="Helvetica,sans-Serif" font-size="10.00">OMPF::ompfSettings</text>
<text text-anchor="middle" x="231.5" y="-7.5" font-family="Helvetica,sans-Serif" font-size="10.00">::setCustomDataSizeSize</text>
</a>
</g>
</g>
<!-- Node127 -->
<g id="node2" class="node"><title>Node127</title>
<g id="a_node2"><a xlink:href="class_o_m_p_f_1_1ompf_header_chunk.html#a68247e6408a64b9535fb1483921b5f19" target="_top" xlink:title=" ">
<polygon fill="white" stroke="black" points="0,-0.5 0,-30.5 131,-30.5 131,-0.5 0,-0.5"/>
<text text-anchor="start" x="8" y="-18.5" font-family="Helvetica,sans-Serif" font-size="10.00">OMPF::ompfHeaderChunk</text>
<text text-anchor="middle" x="65.5" y="-7.5" font-family="Helvetica,sans-Serif" font-size="10.00">::read</text>
</a>
</g>
</g>
<!-- Node126&#45;&gt;Node127 -->
<g id="edge1" class="edge"><title>Node126&#45;&gt;Node127</title>
<path fill="none" stroke="midnightblue" d="M156.379,-15.5C147.915,-15.5 139.337,-15.5 131.012,-15.5"/>
<polygon fill="midnightblue" stroke="midnightblue" points="156.624,-19.0001 166.624,-15.5 156.624,-12.0001 156.624,-19.0001"/>
</g>
</g>
</svg>
