<?xml version="1.0" encoding="UTF-8" standalone="no"?>
<!DOCTYPE svg PUBLIC "-//W3C//DTD SVG 1.1//EN"
 "http://www.w3.org/Graphics/SVG/1.1/DTD/svg11.dtd">
<!-- Generated by graphviz version 2.38.0 (20140413.2041)
 -->
<!-- Title: IgorAux::iaString::getHashValue Pages: 1 -->
<svg width="794pt" height="869pt"
 viewBox="0.00 0.00 794.00 869.00" xmlns="http://www.w3.org/2000/svg" xmlns:xlink="http://www.w3.org/1999/xlink">
<g id="graph0" class="graph" transform="scale(1 1) rotate(0) translate(4 865)">
<title>IgorAux::iaString::getHashValue</title>
<polygon fill="white" stroke="none" points="-4,4 -4,-865 790,-865 790,4 -4,4"/>
<!-- Node1 -->
<g id="node1" class="node"><title>Node1</title>
<polygon fill="#bfbfbf" stroke="black" points="0,-707.5 0,-737.5 95,-737.5 95,-707.5 0,-707.5"/>
<text text-anchor="start" x="8" y="-725.5" font-family="Helvetica,sans-Serif" font-size="10.00">IgorAux::iaString::</text>
<text text-anchor="middle" x="47.5" y="-714.5" font-family="Helvetica,sans-Serif" font-size="10.00">getHashValue</text>
</g>
<!-- Node2 -->
<g id="node2" class="node"><title>Node2</title>
<g id="a_node2"><a xlink:href="class_igor_1_1i_widget_manager.html#a7d62aba88bb0d811d81dde5365d5e0a5" target="_top" xlink:title="Igor::iWidgetManager\l::registerDialogType">
<polygon fill="white" stroke="black" points="135,-830.5 135,-860.5 244,-860.5 244,-830.5 135,-830.5"/>
<text text-anchor="start" x="143" y="-848.5" font-family="Helvetica,sans-Serif" font-size="10.00">Igor::iWidgetManager</text>
<text text-anchor="middle" x="189.5" y="-837.5" font-family="Helvetica,sans-Serif" font-size="10.00">::registerDialogType</text>
</a>
</g>
</g>
<!-- Node1&#45;&gt;Node2 -->
<g id="edge1" class="edge"><title>Node1&#45;&gt;Node2</title>
<path fill="none" stroke="midnightblue" d="M63.1991,-745.972C78.0089,-767.999 102.678,-800.6 131,-821.5 135.526,-824.84 140.586,-827.813 145.776,-830.431"/>
<polygon fill="midnightblue" stroke="midnightblue" points="66.0694,-743.966 57.6554,-737.528 60.2177,-747.808 66.0694,-743.966"/>
</g>
<!-- Node3 -->
<g id="node3" class="node"><title>Node3</title>
<g id="a_node3"><a xlink:href="class_igor_1_1i_widget_manager.html#a57d32d46b3ba88d60026d3b947370ce2" target="_top" xlink:title="Igor::iWidgetManager\l::unregisterDialogType">
<polygon fill="white" stroke="black" points="133,-781.5 133,-811.5 246,-811.5 246,-781.5 133,-781.5"/>
<text text-anchor="start" x="141" y="-799.5" font-family="Helvetica,sans-Serif" font-size="10.00">Igor::iWidgetManager</text>
<text text-anchor="middle" x="189.5" y="-788.5" font-family="Helvetica,sans-Serif" font-size="10.00">::unregisterDialogType</text>
</a>
</g>
</g>
<!-- Node1&#45;&gt;Node3 -->
<g id="edge2" class="edge"><title>Node1&#45;&gt;Node3</title>
<path fill="none" stroke="midnightblue" d="M81.1023,-743.149C96.0601,-752.287 114.176,-762.889 131,-771.5 137.686,-774.922 144.945,-778.315 151.983,-781.447"/>
<polygon fill="midnightblue" stroke="midnightblue" points="82.5852,-739.952 72.2368,-737.68 78.9099,-745.909 82.5852,-739.952"/>
</g>
<!-- Node4 -->
<g id="node4" class="node"><title>Node4</title>
<g id="a_node4"><a xlink:href="class_igor_1_1i_widget_manager.html#a9f6da06bc992b930d9cc81c821611fe0" target="_top" xlink:title="Igor::iWidgetManager\l::registerWidgetType">
<polygon fill="white" stroke="black" points="135,-732.5 135,-762.5 244,-762.5 244,-732.5 135,-732.5"/>
<text text-anchor="start" x="143" y="-750.5" font-family="Helvetica,sans-Serif" font-size="10.00">Igor::iWidgetManager</text>
<text text-anchor="middle" x="189.5" y="-739.5" font-family="Helvetica,sans-Serif" font-size="10.00">::registerWidgetType</text>
</a>
</g>
</g>
<!-- Node1&#45;&gt;Node4 -->
<g id="edge3" class="edge"><title>Node1&#45;&gt;Node4</title>
<path fill="none" stroke="midnightblue" d="M105.16,-732.618C114.954,-734.367 125.111,-736.18 134.823,-737.915"/>
<polygon fill="midnightblue" stroke="midnightblue" points="105.578,-729.137 95.118,-730.825 104.347,-736.028 105.578,-729.137"/>
</g>
<!-- Node5 -->
<g id="node5" class="node"><title>Node5</title>
<g id="a_node5"><a xlink:href="class_igor_1_1i_widget_manager.html#a89bb6b0115ded8f03a573f3b7416ea34" target="_top" xlink:title="Igor::iWidgetManager\l::unregisterWidgetType">
<polygon fill="white" stroke="black" points="131,-683.5 131,-713.5 248,-713.5 248,-683.5 131,-683.5"/>
<text text-anchor="start" x="139" y="-701.5" font-family="Helvetica,sans-Serif" font-size="10.00">Igor::iWidgetManager</text>
<text text-anchor="middle" x="189.5" y="-690.5" font-family="Helvetica,sans-Serif" font-size="10.00">::unregisterWidgetType</text>
</a>
</g>
</g>
<!-- Node1&#45;&gt;Node5 -->
<g id="edge4" class="edge"><title>Node1&#45;&gt;Node5</title>
<path fill="none" stroke="midnightblue" d="M104.974,-712.819C113.507,-711.356 122.318,-709.845 130.875,-708.379"/>
<polygon fill="midnightblue" stroke="midnightblue" points="104.383,-709.369 95.118,-714.508 105.566,-716.268 104.383,-709.369"/>
</g>
<!-- Node6 -->
<g id="node6" class="node"><title>Node6</title>
<g id="a_node6"><a xlink:href="class_igor_1_1i_widget_manager.html#a3cf3de26ec38048c079b976e07d6bd13" target="_top" xlink:title="Igor::iWidgetManager\l::createDialog">
<polygon fill="white" stroke="black" points="135,-634.5 135,-664.5 244,-664.5 244,-634.5 135,-634.5"/>
<text text-anchor="start" x="143" y="-652.5" font-family="Helvetica,sans-Serif" font-size="10.00">Igor::iWidgetManager</text>
<text text-anchor="middle" x="189.5" y="-641.5" font-family="Helvetica,sans-Serif" font-size="10.00">::createDialog</text>
</a>
</g>
</g>
<!-- Node1&#45;&gt;Node6 -->
<g id="edge5" class="edge"><title>Node1&#45;&gt;Node6</title>
<path fill="none" stroke="midnightblue" d="M80.717,-701.936C95.7254,-692.73 113.989,-682.049 131,-673.5 137.186,-670.391 143.873,-667.337 150.423,-664.504"/>
<polygon fill="midnightblue" stroke="midnightblue" points="78.4871,-699.2 71.8331,-707.445 82.1763,-705.149 78.4871,-699.2"/>
</g>
<!-- Node17 -->
<g id="node17" class="node"><title>Node17</title>
<g id="a_node17"><a xlink:href="class_igor_1_1i_widget_manager.html#a6bd957c51cc937fa860f9e2be73f3d27" target="_top" xlink:title="Igor::iWidgetManager\l::createWidget">
<polygon fill="white" stroke="black" points="135,-394.5 135,-424.5 244,-424.5 244,-394.5 135,-394.5"/>
<text text-anchor="start" x="143" y="-412.5" font-family="Helvetica,sans-Serif" font-size="10.00">Igor::iWidgetManager</text>
<text text-anchor="middle" x="189.5" y="-401.5" font-family="Helvetica,sans-Serif" font-size="10.00">::createWidget</text>
</a>
</g>
</g>
<!-- Node1&#45;&gt;Node17 -->
<g id="edge16" class="edge"><title>Node1&#45;&gt;Node17</title>
<path fill="none" stroke="midnightblue" d="M59.4392,-698.043C87.0762,-636.255 159.106,-475.216 181.651,-424.812"/>
<polygon fill="midnightblue" stroke="midnightblue" points="56.1406,-696.846 55.2525,-707.403 62.5305,-699.704 56.1406,-696.846"/>
</g>
<!-- Node7 -->
<g id="node7" class="node"><title>Node7</title>
<g id="a_node7"><a xlink:href="class_igor_1_1i_user_control_file_chooser.html#acbdcb369d7f6dabea5fe1a039319b271" target="_top" xlink:title="Igor::iUserControlFileChooser\l::initGUI">
<polygon fill="white" stroke="black" points="284,-536.5 284,-566.5 427,-566.5 427,-536.5 284,-536.5"/>
<text text-anchor="start" x="292" y="-554.5" font-family="Helvetica,sans-Serif" font-size="10.00">Igor::iUserControlFileChooser</text>
<text text-anchor="middle" x="355.5" y="-543.5" font-family="Helvetica,sans-Serif" font-size="10.00">::initGUI</text>
</a>
</g>
</g>
<!-- Node6&#45;&gt;Node7 -->
<g id="edge6" class="edge"><title>Node6&#45;&gt;Node7</title>
<path fill="none" stroke="midnightblue" d="M213.842,-627.281C231.844,-611.118 257.988,-589.67 284,-575.5 290.131,-572.16 296.813,-569.161 303.539,-566.508"/>
<polygon fill="midnightblue" stroke="midnightblue" points="211.194,-624.96 206.174,-634.29 215.916,-630.127 211.194,-624.96"/>
</g>
<!-- Node10 -->
<g id="node10" class="node"><title>Node10</title>
<g id="a_node10"><a xlink:href="class_menu_dialog.html#aa11150c7006b0d974a9252f03f8068a3" target="_top" xlink:title="MenuDialog::initGUI">
<polygon fill="white" stroke="black" points="304,-684 304,-703 407,-703 407,-684 304,-684"/>
<text text-anchor="middle" x="355.5" y="-691" font-family="Helvetica,sans-Serif" font-size="10.00">MenuDialog::initGUI</text>
</a>
</g>
</g>
<!-- Node6&#45;&gt;Node10 -->
<g id="edge9" class="edge"><title>Node6&#45;&gt;Node10</title>
<path fill="none" stroke="midnightblue" d="M253.871,-666.502C275.989,-672.436 300.016,-678.882 319.044,-683.987"/>
<polygon fill="midnightblue" stroke="midnightblue" points="254.765,-663.118 244.2,-663.907 252.951,-669.879 254.765,-663.118"/>
</g>
<!-- Node11 -->
<g id="node11" class="node"><title>Node11</title>
<g id="a_node11"><a xlink:href="class_menu_dialog.html#a50c8cb83c8d9003bd9525d68c8ee6679" target="_top" xlink:title="MenuDialog::onAddModel">
<polygon fill="white" stroke="black" points="291.5,-772 291.5,-791 419.5,-791 419.5,-772 291.5,-772"/>
<text text-anchor="middle" x="355.5" y="-779" font-family="Helvetica,sans-Serif" font-size="10.00">MenuDialog::onAddModel</text>
</a>
</g>
</g>
<!-- Node6&#45;&gt;Node11 -->
<g id="edge10" class="edge"><title>Node6&#45;&gt;Node11</title>
<path fill="none" stroke="midnightblue" d="M245.047,-670.756C246.07,-671.636 247.057,-672.55 248,-673.5 277.774,-703.486 252.495,-733.337 284,-761.5 288.837,-765.824 294.545,-769.219 300.585,-771.884"/>
<polygon fill="midnightblue" stroke="midnightblue" points="246.749,-667.669 236.588,-664.668 242.66,-673.351 246.749,-667.669"/>
</g>
<!-- Node14 -->
<g id="node14" class="node"><title>Node14</title>
<g id="a_node14"><a xlink:href="class_user_control_graph_view.html#afb737ca9c452b2284871b693addd2e33" target="_top" xlink:title="UserControlGraphView\l::initGUI">
<polygon fill="white" stroke="black" points="298,-634.5 298,-664.5 413,-664.5 413,-634.5 298,-634.5"/>
<text text-anchor="start" x="306" y="-652.5" font-family="Helvetica,sans-Serif" font-size="10.00">UserControlGraphView</text>
<text text-anchor="middle" x="355.5" y="-641.5" font-family="Helvetica,sans-Serif" font-size="10.00">::initGUI</text>
</a>
</g>
</g>
<!-- Node6&#45;&gt;Node14 -->
<g id="edge13" class="edge"><title>Node6&#45;&gt;Node14</title>
<path fill="none" stroke="midnightblue" d="M254.461,-649.5C268.777,-649.5 283.865,-649.5 297.86,-649.5"/>
<polygon fill="midnightblue" stroke="midnightblue" points="254.2,-646 244.2,-649.5 254.2,-653 254.2,-646"/>
</g>
<!-- Node15 -->
<g id="node15" class="node"><title>Node15</title>
<g id="a_node15"><a xlink:href="class_user_control_material.html#a45610f92ae0ae41d9da8fce2aa7bec4b" target="_top" xlink:title="UserControlMaterial\l::initGUI">
<polygon fill="white" stroke="black" points="304.5,-585.5 304.5,-615.5 406.5,-615.5 406.5,-585.5 304.5,-585.5"/>
<text text-anchor="start" x="312.5" y="-603.5" font-family="Helvetica,sans-Serif" font-size="10.00">UserControlMaterial</text>
<text text-anchor="middle" x="355.5" y="-592.5" font-family="Helvetica,sans-Serif" font-size="10.00">::initGUI</text>
</a>
</g>
</g>
<!-- Node6&#45;&gt;Node15 -->
<g id="edge14" class="edge"><title>Node6&#45;&gt;Node15</title>
<path fill="none" stroke="midnightblue" d="M250.68,-631.519C268.337,-626.244 287.449,-620.533 304.405,-615.467"/>
<polygon fill="midnightblue" stroke="midnightblue" points="249.623,-628.182 241.044,-634.399 251.627,-634.889 249.623,-628.182"/>
</g>
<!-- Node16 -->
<g id="node16" class="node"><title>Node16</title>
<g id="a_node16"><a xlink:href="class_user_control_particle_system.html#a40bcd13d702c6d38e59a6509f0c690ff" target="_top" xlink:title="UserControlParticleSystem\l::initGUI">
<polygon fill="white" stroke="black" points="288.5,-722.5 288.5,-752.5 422.5,-752.5 422.5,-722.5 288.5,-722.5"/>
<text text-anchor="start" x="296.5" y="-740.5" font-family="Helvetica,sans-Serif" font-size="10.00">UserControlParticleSystem</text>
<text text-anchor="middle" x="355.5" y="-729.5" font-family="Helvetica,sans-Serif" font-size="10.00">::initGUI</text>
</a>
</g>
</g>
<!-- Node6&#45;&gt;Node16 -->
<g id="edge15" class="edge"><title>Node6&#45;&gt;Node16</title>
<path fill="none" stroke="midnightblue" d="M242.045,-669.66C244.097,-670.885 246.091,-672.165 248,-673.5 267.329,-687.021 264.308,-699.512 284,-712.5 289.746,-716.29 296.134,-719.582 302.652,-722.42"/>
<polygon fill="midnightblue" stroke="midnightblue" points="243.226,-666.319 232.765,-664.641 239.896,-672.476 243.226,-666.319"/>
</g>
<!-- Node8 -->
<g id="node8" class="node"><title>Node8</title>
<g id="a_node8"><a xlink:href="class_igor_1_1i_user_control_file_chooser.html#a5d8f62c79b5df55c4f6c9ad6b1ed52c7" target="_top" xlink:title="Igor::iUserControlFileChooser\l::iUserControlFileChooser">
<polygon fill="white" stroke="black" points="463.5,-536.5 463.5,-566.5 606.5,-566.5 606.5,-536.5 463.5,-536.5"/>
<text text-anchor="start" x="471.5" y="-554.5" font-family="Helvetica,sans-Serif" font-size="10.00">Igor::iUserControlFileChooser</text>
<text text-anchor="middle" x="535" y="-543.5" font-family="Helvetica,sans-Serif" font-size="10.00">::iUserControlFileChooser</text>
</a>
</g>
</g>
<!-- Node7&#45;&gt;Node8 -->
<g id="edge7" class="edge"><title>Node7&#45;&gt;Node8</title>
<path fill="none" stroke="midnightblue" d="M437.283,-551.5C445.962,-551.5 454.743,-551.5 463.29,-551.5"/>
<polygon fill="midnightblue" stroke="midnightblue" points="437.163,-548 427.163,-551.5 437.163,-555 437.163,-548"/>
</g>
<!-- Node9 -->
<g id="node9" class="node"><title>Node9</title>
<g id="a_node9"><a xlink:href="class_igor_1_1i_user_control_file_chooser.html#a6e0a7af39998d6e3dfb1f24ae499fa03" target="_top" xlink:title="Igor::iUserControlFileChooser\l::createInstance">
<polygon fill="white" stroke="black" points="643,-536.5 643,-566.5 786,-566.5 786,-536.5 643,-536.5"/>
<text text-anchor="start" x="651" y="-554.5" font-family="Helvetica,sans-Serif" font-size="10.00">Igor::iUserControlFileChooser</text>
<text text-anchor="middle" x="714.5" y="-543.5" font-family="Helvetica,sans-Serif" font-size="10.00">::createInstance</text>
</a>
</g>
</g>
<!-- Node8&#45;&gt;Node9 -->
<g id="edge8" class="edge"><title>Node8&#45;&gt;Node9</title>
<path fill="none" stroke="midnightblue" d="M616.783,-551.5C625.462,-551.5 634.243,-551.5 642.79,-551.5"/>
<polygon fill="midnightblue" stroke="midnightblue" points="616.663,-548 606.663,-551.5 616.663,-555 616.663,-548"/>
</g>
<!-- Node12 -->
<g id="node12" class="node"><title>Node12</title>
<g id="a_node12"><a xlink:href="class_menu_dialog.html#a0fe6bdf29a3a7095e2d7e4a38f8d8f70" target="_top" xlink:title="MenuDialog::deinitGraphView">
<polygon fill="white" stroke="black" points="463,-753 463,-772 607,-772 607,-753 463,-753"/>
<text text-anchor="middle" x="535" y="-760" font-family="Helvetica,sans-Serif" font-size="10.00">MenuDialog::deinitGraphView</text>
</a>
</g>
</g>
<!-- Node11&#45;&gt;Node12 -->
<g id="edge11" class="edge"><title>Node11&#45;&gt;Node12</title>
<path fill="none" stroke="midnightblue" d="M429.593,-773.676C440.621,-772.496 451.981,-771.279 462.964,-770.104"/>
<polygon fill="midnightblue" stroke="midnightblue" points="429.15,-770.203 419.58,-774.748 429.895,-777.164 429.15,-770.203"/>
</g>
<!-- Node13 -->
<g id="node13" class="node"><title>Node13</title>
<g id="a_node13"><a xlink:href="class_menu_dialog.html#a5f0986a127a923615177c4c264394f7d" target="_top" xlink:title="MenuDialog::initGraphView">
<polygon fill="white" stroke="black" points="468,-791 468,-810 602,-810 602,-791 468,-791"/>
<text text-anchor="middle" x="535" y="-798" font-family="Helvetica,sans-Serif" font-size="10.00">MenuDialog::initGraphView</text>
</a>
</g>
</g>
<!-- Node11&#45;&gt;Node13 -->
<g id="edge12" class="edge"><title>Node11&#45;&gt;Node13</title>
<path fill="none" stroke="midnightblue" d="M429.615,-789.326C442.27,-790.681 455.363,-792.083 467.821,-793.416"/>
<polygon fill="midnightblue" stroke="midnightblue" points="429.895,-785.836 419.58,-788.252 429.15,-792.797 429.895,-785.836"/>
</g>
<!-- Node17&#45;&gt;Node7 -->
<g id="edge17" class="edge"><title>Node17&#45;&gt;Node7</title>
<path fill="none" stroke="midnightblue" d="M204.105,-433.596C220.082,-459.877 248.91,-501.519 284,-526.5 289.395,-530.341 295.439,-533.644 301.659,-536.471"/>
<polygon fill="midnightblue" stroke="midnightblue" points="206.922,-431.485 198.812,-424.668 200.901,-435.055 206.922,-431.485"/>
</g>
<!-- Node17&#45;&gt;Node10 -->
<g id="edge18" class="edge"><title>Node17&#45;&gt;Node10</title>
<path fill="none" stroke="midnightblue" d="M196.261,-434.531C210.35,-493.699 248.027,-639.757 284,-673.5 289.66,-678.809 296.626,-682.724 303.954,-685.607"/>
<polygon fill="midnightblue" stroke="midnightblue" points="199.608,-433.473 193.911,-424.54 192.794,-435.076 199.608,-433.473"/>
</g>
<!-- Node17&#45;&gt;Node14 -->
<g id="edge21" class="edge"><title>Node17&#45;&gt;Node14</title>
<path fill="none" stroke="midnightblue" d="M194.684,-434.591C203.376,-479.018 227.495,-571.789 284,-624.5 288.178,-628.398 293.003,-631.694 298.128,-634.481"/>
<polygon fill="midnightblue" stroke="midnightblue" points="198.103,-433.832 192.84,-424.638 191.221,-435.108 198.103,-433.832"/>
</g>
<!-- Node17&#45;&gt;Node15 -->
<g id="edge24" class="edge"><title>Node17&#45;&gt;Node15</title>
<path fill="none" stroke="midnightblue" d="M198.238,-434.445C210.657,-470.522 238.383,-537.131 284,-575.5 289.963,-580.515 297.004,-584.553 304.289,-587.796"/>
<polygon fill="midnightblue" stroke="midnightblue" points="201.479,-433.097 195.005,-424.71 194.835,-435.303 201.479,-433.097"/>
</g>
<!-- Node17&#45;&gt;Node16 -->
<g id="edge30" class="edge"><title>Node17&#45;&gt;Node16</title>
<path fill="none" stroke="midnightblue" d="M196.948,-434.931C214.676,-504.09 264.148,-691.807 284,-712.5 287.686,-716.342 292,-719.595 296.646,-722.348"/>
<polygon fill="midnightblue" stroke="midnightblue" points="200.25,-433.716 194.385,-424.893 193.468,-435.448 200.25,-433.716"/>
</g>
<!-- Node18 -->
<g id="node18" class="node"><title>Node18</title>
<g id="a_node18"><a xlink:href="class_properties_dialog.html#a15d6b689c4c129bbcf5da5354fd31498" target="_top" xlink:title="PropertiesDialog::initGUI">
<polygon fill="white" stroke="black" points="294,-236 294,-255 417,-255 417,-236 294,-236"/>
<text text-anchor="middle" x="355.5" y="-243" font-family="Helvetica,sans-Serif" font-size="10.00">PropertiesDialog::initGUI</text>
</a>
</g>
</g>
<!-- Node17&#45;&gt;Node18 -->
<g id="edge19" class="edge"><title>Node17&#45;&gt;Node18</title>
<path fill="none" stroke="midnightblue" d="M199.931,-384.451C213.5,-351.854 241.651,-295.42 284,-264.5 289.324,-260.613 295.393,-257.521 301.687,-255.062"/>
<polygon fill="midnightblue" stroke="midnightblue" points="196.52,-383.55 196.038,-394.134 203.015,-386.161 196.52,-383.55"/>
</g>
<!-- Node19 -->
<g id="node19" class="node"><title>Node19</title>
<g id="a_node19"><a xlink:href="class_user_control_emitter.html#abf148c688ae8b1068607f516cdadc289" target="_top" xlink:title="UserControlEmitter\l::initGUI">
<polygon fill="white" stroke="black" points="306,-186.5 306,-216.5 405,-216.5 405,-186.5 306,-186.5"/>
<text text-anchor="start" x="314" y="-204.5" font-family="Helvetica,sans-Serif" font-size="10.00">UserControlEmitter</text>
<text text-anchor="middle" x="355.5" y="-193.5" font-family="Helvetica,sans-Serif" font-size="10.00">::initGUI</text>
</a>
</g>
</g>
<!-- Node17&#45;&gt;Node19 -->
<g id="edge20" class="edge"><title>Node17&#45;&gt;Node19</title>
<path fill="none" stroke="midnightblue" d="M196.79,-384.559C207.892,-345.474 234.598,-269.795 284,-226.5 290.348,-220.937 298.018,-216.587 305.928,-213.192"/>
<polygon fill="midnightblue" stroke="midnightblue" points="193.379,-383.765 194.125,-394.334 200.132,-385.607 193.379,-383.765"/>
</g>
<!-- Node20 -->
<g id="node20" class="node"><title>Node20</title>
<g id="a_node20"><a xlink:href="class_user_control_graph_view.html#ab922991d073ecac1a92ea3e040b8f74d" target="_top" xlink:title="UserControlGraphView\l::preOrderVisit">
<polygon fill="white" stroke="black" points="298,-137.5 298,-167.5 413,-167.5 413,-137.5 298,-137.5"/>
<text text-anchor="start" x="306" y="-155.5" font-family="Helvetica,sans-Serif" font-size="10.00">UserControlGraphView</text>
<text text-anchor="middle" x="355.5" y="-144.5" font-family="Helvetica,sans-Serif" font-size="10.00">::preOrderVisit</text>
</a>
</g>
</g>
<!-- Node17&#45;&gt;Node20 -->
<g id="edge22" class="edge"><title>Node17&#45;&gt;Node20</title>
<path fill="none" stroke="midnightblue" d="M193.664,-384.262C200.921,-336.887 223.103,-234.223 284,-176.5 288.035,-172.675 292.704,-169.458 297.679,-166.753"/>
<polygon fill="midnightblue" stroke="midnightblue" points="190.182,-383.884 192.228,-394.28 197.112,-384.877 190.182,-383.884"/>
</g>
<!-- Node21 -->
<g id="node21" class="node"><title>Node21</title>
<g id="a_node21"><a xlink:href="class_user_control_light.html#acae8309ee66f4ae0ffd058cc83580311" target="_top" xlink:title="UserControlLight::initGUI">
<polygon fill="white" stroke="black" points="293.5,-99 293.5,-118 417.5,-118 417.5,-99 293.5,-99"/>
<text text-anchor="middle" x="355.5" y="-106" font-family="Helvetica,sans-Serif" font-size="10.00">UserControlLight::initGUI</text>
</a>
</g>
</g>
<!-- Node17&#45;&gt;Node21 -->
<g id="edge23" class="edge"><title>Node17&#45;&gt;Node21</title>
<path fill="none" stroke="midnightblue" d="M191.254,-384.105C194.304,-329.031 209.459,-197.916 284,-127.5 288.055,-123.67 292.798,-120.595 297.874,-118.129"/>
<polygon fill="midnightblue" stroke="midnightblue" points="187.745,-384.209 190.78,-394.36 194.738,-384.532 187.745,-384.209"/>
</g>
<!-- Node22 -->
<g id="node22" class="node"><title>Node22</title>
<g id="a_node22"><a xlink:href="class_user_control_material_view.html#af00d3b18c83b4335ffa14bd0b1324dbc" target="_top" xlink:title="UserControlMaterialView\l::initGUI">
<polygon fill="white" stroke="black" points="294,-49.5 294,-79.5 417,-79.5 417,-49.5 294,-49.5"/>
<text text-anchor="start" x="302" y="-67.5" font-family="Helvetica,sans-Serif" font-size="10.00">UserControlMaterialView</text>
<text text-anchor="middle" x="355.5" y="-56.5" font-family="Helvetica,sans-Serif" font-size="10.00">::initGUI</text>
</a>
</g>
</g>
<!-- Node17&#45;&gt;Node22 -->
<g id="edge25" class="edge"><title>Node17&#45;&gt;Node22</title>
<path fill="none" stroke="midnightblue" d="M190.507,-384.119C191.909,-324.56 203.704,-174.466 284,-89.5 287.657,-85.6302 291.951,-82.3587 296.584,-79.5932"/>
<polygon fill="midnightblue" stroke="midnightblue" points="187.002,-384.413 190.35,-394.465 194.001,-384.519 187.002,-384.413"/>
</g>
<!-- Node23 -->
<g id="node23" class="node"><title>Node23</title>
<g id="a_node23"><a xlink:href="class_user_control_material_view.html#af2ea093914c42bcd7bb48c11288089c1" target="_top" xlink:title="UserControlMaterialView\l::refresh">
<polygon fill="white" stroke="black" points="294,-0.5 294,-30.5 417,-30.5 417,-0.5 294,-0.5"/>
<text text-anchor="start" x="302" y="-18.5" font-family="Helvetica,sans-Serif" font-size="10.00">UserControlMaterialView</text>
<text text-anchor="middle" x="355.5" y="-7.5" font-family="Helvetica,sans-Serif" font-size="10.00">::refresh</text>
</a>
</g>
</g>
<!-- Node17&#45;&gt;Node23 -->
<g id="edge26" class="edge"><title>Node17&#45;&gt;Node23</title>
<path fill="none" stroke="midnightblue" d="M193.741,-384.109C203.783,-309.159 236.579,-90.9061 284,-39.5 287.156,-36.0788 290.819,-33.1452 294.783,-30.6297"/>
<polygon fill="midnightblue" stroke="midnightblue" points="190.263,-383.719 192.426,-394.09 197.203,-384.633 190.263,-383.719"/>
</g>
<!-- Node24 -->
<g id="node24" class="node"><title>Node24</title>
<g id="a_node24"><a xlink:href="class_user_control_mesh.html#a792507fb628b4b4ead5787f60ec6e2e2" target="_top" xlink:title="UserControlMesh::initGUI">
<polygon fill="white" stroke="black" points="292,-498 292,-517 419,-517 419,-498 292,-498"/>
<text text-anchor="middle" x="355.5" y="-505" font-family="Helvetica,sans-Serif" font-size="10.00">UserControlMesh::initGUI</text>
</a>
</g>
</g>
<!-- Node17&#45;&gt;Node24 -->
<g id="edge27" class="edge"><title>Node17&#45;&gt;Node24</title>
<path fill="none" stroke="midnightblue" d="M211.236,-431.758C228.968,-449.541 255.996,-473.836 284,-488.5 291.299,-492.322 299.437,-495.429 307.517,-497.936"/>
<polygon fill="midnightblue" stroke="midnightblue" points="213.721,-429.292 204.231,-424.582 208.712,-434.183 213.721,-429.292"/>
</g>
<!-- Node25 -->
<g id="node25" class="node"><title>Node25</title>
<g id="a_node25"><a xlink:href="class_user_control_model.html#acced48197848282357bbc6434d05d7bc" target="_top" xlink:title="UserControlModel::initGUI">
<polygon fill="white" stroke="black" points="291,-460 291,-479 420,-479 420,-460 291,-460"/>
<text text-anchor="middle" x="355.5" y="-467" font-family="Helvetica,sans-Serif" font-size="10.00">UserControlModel::initGUI</text>
</a>
</g>
</g>
<!-- Node17&#45;&gt;Node25 -->
<g id="edge28" class="edge"><title>Node17&#45;&gt;Node25</title>
<path fill="none" stroke="midnightblue" d="M230.854,-428.778C247.141,-436.139 266.249,-444.256 284,-450.5 293.925,-453.991 304.825,-457.216 315.025,-459.98"/>
<polygon fill="midnightblue" stroke="midnightblue" points="232.171,-425.531 221.622,-424.55 229.257,-431.896 232.171,-425.531"/>
</g>
<!-- Node26 -->
<g id="node26" class="node"><title>Node26</title>
<g id="a_node26"><a xlink:href="class_user_control_node.html#a0e88553b48518b283b7ba29851af8334" target="_top" xlink:title="UserControlNode::initGUI">
<polygon fill="white" stroke="black" points="293,-422 293,-441 418,-441 418,-422 293,-422"/>
<text text-anchor="middle" x="355.5" y="-429" font-family="Helvetica,sans-Serif" font-size="10.00">UserControlNode::initGUI</text>
</a>
</g>
</g>
<!-- Node17&#45;&gt;Node26 -->
<g id="edge29" class="edge"><title>Node17&#45;&gt;Node26</title>
<path fill="none" stroke="midnightblue" d="M254.255,-418.052C266.989,-419.761 280.342,-421.552 292.999,-423.25"/>
<polygon fill="midnightblue" stroke="midnightblue" points="254.576,-414.564 244.2,-416.704 253.646,-421.502 254.576,-414.564"/>
</g>
<!-- Node27 -->
<g id="node27" class="node"><title>Node27</title>
<g id="a_node27"><a xlink:href="class_user_control_properties.html#a7741b0b4671d7e9026d49270e2ae1f74" target="_top" xlink:title="UserControlProperties\l::initGUI">
<polygon fill="white" stroke="black" points="299.5,-372.5 299.5,-402.5 411.5,-402.5 411.5,-372.5 299.5,-372.5"/>
<text text-anchor="start" x="307.5" y="-390.5" font-family="Helvetica,sans-Serif" font-size="10.00">UserControlProperties</text>
<text text-anchor="middle" x="355.5" y="-379.5" font-family="Helvetica,sans-Serif" font-size="10.00">::initGUI</text>
</a>
</g>
</g>
<!-- Node17&#45;&gt;Node27 -->
<g id="edge31" class="edge"><title>Node17&#45;&gt;Node27</title>
<path fill="none" stroke="midnightblue" d="M254.316,-400.939C269.158,-398.948 284.838,-396.845 299.274,-394.908"/>
<polygon fill="midnightblue" stroke="midnightblue" points="253.646,-397.498 244.2,-402.296 254.576,-404.436 253.646,-397.498"/>
</g>
<!-- Node28 -->
<g id="node28" class="node"><title>Node28</title>
<g id="a_node28"><a xlink:href="class_user_control_transformation.html#a78f585dbaf9da6958bacb936feefcb48" target="_top" xlink:title="UserControlTransformation\l::createTextEdit">
<polygon fill="white" stroke="black" points="290,-323.5 290,-353.5 421,-353.5 421,-323.5 290,-323.5"/>
<text text-anchor="start" x="298" y="-341.5" font-family="Helvetica,sans-Serif" font-size="10.00">UserControlTransformation</text>
<text text-anchor="middle" x="355.5" y="-330.5" font-family="Helvetica,sans-Serif" font-size="10.00">::createTextEdit</text>
</a>
</g>
</g>
<!-- Node17&#45;&gt;Node28 -->
<g id="edge32" class="edge"><title>Node17&#45;&gt;Node28</title>
<path fill="none" stroke="midnightblue" d="M226.923,-389.725C243.997,-380.838 264.773,-370.56 284,-362.5 291.393,-359.401 299.34,-356.395 307.139,-353.619"/>
<polygon fill="midnightblue" stroke="midnightblue" points="225.073,-386.744 217.852,-394.497 228.332,-392.939 225.073,-386.744"/>
</g>
<!-- Node29 -->
<g id="node29" class="node"><title>Node29</title>
<g id="a_node29"><a xlink:href="class_user_control_transformation.html#a5f920b175524b5e23698ebe1da531d48" target="_top" xlink:title="UserControlTransformation\l::initGUI">
<polygon fill="white" stroke="black" points="290,-274.5 290,-304.5 421,-304.5 421,-274.5 290,-274.5"/>
<text text-anchor="start" x="298" y="-292.5" font-family="Helvetica,sans-Serif" font-size="10.00">UserControlTransformation</text>
<text text-anchor="middle" x="355.5" y="-281.5" font-family="Helvetica,sans-Serif" font-size="10.00">::initGUI</text>
</a>
</g>
</g>
<!-- Node17&#45;&gt;Node29 -->
<g id="edge33" class="edge"><title>Node17&#45;&gt;Node29</title>
<path fill="none" stroke="midnightblue" d="M207.733,-386.343C224.898,-364.75 253.09,-333.024 284,-313.5 289.356,-310.117 295.245,-307.149 301.266,-304.563"/>
<polygon fill="midnightblue" stroke="midnightblue" points="204.878,-384.312 201.499,-394.354 210.403,-388.611 204.878,-384.312"/>
</g>
</g>
</svg>
