<?xml version="1.0" encoding="UTF-8" standalone="no"?>
<!DOCTYPE svg PUBLIC "-//W3C//DTD SVG 1.1//EN"
 "http://www.w3.org/Graphics/SVG/1.1/DTD/svg11.dtd">
<!-- Generated by graphviz version 2.38.0 (20140413.2041)
 -->
<!-- Title: Igor::iWidgetCheckBox::setChecked Pages: 1 -->
<svg width="626pt" height="66pt"
 viewBox="0.00 0.00 626.00 66.00" xmlns="http://www.w3.org/2000/svg" xmlns:xlink="http://www.w3.org/1999/xlink">
<g id="graph0" class="graph" transform="scale(1 1) rotate(0) translate(4 62)">
<title>Igor::iWidgetCheckBox::setChecked</title>
<polygon fill="white" stroke="none" points="-4,4 -4,-62 622,-62 622,4 -4,4"/>
<!-- Node1 -->
<g id="node1" class="node"><title>Node1</title>
<polygon fill="#bfbfbf" stroke="black" points="0,-14 0,-44 116,-44 116,-14 0,-14"/>
<text text-anchor="start" x="8" y="-32" font-family="Helvetica,sans-Serif" font-size="10.00">Igor::iWidgetCheckBox</text>
<text text-anchor="middle" x="58" y="-21" font-family="Helvetica,sans-Serif" font-size="10.00">::setChecked</text>
</g>
<!-- Node2 -->
<g id="node2" class="node"><title>Node2</title>
<g id="a_node2"><a xlink:href="class_igor_1_1i_dialog_decision_box.html#a86e1dc62325ecff2153ea397aef7ca26" target="_top" xlink:title="Igor::iDialogDecisionBox\l::show">
<polygon fill="white" stroke="black" points="152,-14 152,-44 274,-44 274,-14 152,-14"/>
<text text-anchor="start" x="160" y="-32" font-family="Helvetica,sans-Serif" font-size="10.00">Igor::iDialogDecisionBox</text>
<text text-anchor="middle" x="213" y="-21" font-family="Helvetica,sans-Serif" font-size="10.00">::show</text>
</a>
</g>
</g>
<!-- Node1&#45;&gt;Node2 -->
<g id="edge1" class="edge"><title>Node1&#45;&gt;Node2</title>
<path fill="none" stroke="midnightblue" d="M126.61,-29C135.057,-29 143.651,-29 151.972,-29"/>
<polygon fill="midnightblue" stroke="midnightblue" points="126.407,-25.5001 116.407,-29 126.407,-32.5001 126.407,-25.5001"/>
</g>
<!-- Node3 -->
<g id="node3" class="node"><title>Node3</title>
<g id="a_node3"><a xlink:href="class_menu_dialog.html#a50c8cb83c8d9003bd9525d68c8ee6679" target="_top" xlink:title="MenuDialog::onAddModel">
<polygon fill="white" stroke="black" points="310,-19.5 310,-38.5 438,-38.5 438,-19.5 310,-19.5"/>
<text text-anchor="middle" x="374" y="-26.5" font-family="Helvetica,sans-Serif" font-size="10.00">MenuDialog::onAddModel</text>
</a>
</g>
</g>
<!-- Node2&#45;&gt;Node3 -->
<g id="edge2" class="edge"><title>Node2&#45;&gt;Node3</title>
<path fill="none" stroke="midnightblue" d="M284.377,-29C292.872,-29 301.508,-29 309.89,-29"/>
<polygon fill="midnightblue" stroke="midnightblue" points="284.111,-25.5001 274.111,-29 284.111,-32.5001 284.111,-25.5001"/>
</g>
<!-- Node4 -->
<g id="node4" class="node"><title>Node4</title>
<g id="a_node4"><a xlink:href="class_menu_dialog.html#a0fe6bdf29a3a7095e2d7e4a38f8d8f70" target="_top" xlink:title="MenuDialog::deinitGraphView">
<polygon fill="white" stroke="black" points="474,-38.5 474,-57.5 618,-57.5 618,-38.5 474,-38.5"/>
<text text-anchor="middle" x="546" y="-45.5" font-family="Helvetica,sans-Serif" font-size="10.00">MenuDialog::deinitGraphView</text>
</a>
</g>
</g>
<!-- Node3&#45;&gt;Node4 -->
<g id="edge3" class="edge"><title>Node3&#45;&gt;Node4</title>
<path fill="none" stroke="midnightblue" d="M448.493,-37.2139C456.93,-38.1569 465.52,-39.117 473.924,-40.0562"/>
<polygon fill="midnightblue" stroke="midnightblue" points="448.629,-33.7074 438.302,-36.0749 447.851,-40.6641 448.629,-33.7074"/>
</g>
<!-- Node5 -->
<g id="node5" class="node"><title>Node5</title>
<g id="a_node5"><a xlink:href="class_menu_dialog.html#a5f0986a127a923615177c4c264394f7d" target="_top" xlink:title="MenuDialog::initGraphView">
<polygon fill="white" stroke="black" points="479,-0.5 479,-19.5 613,-19.5 613,-0.5 479,-0.5"/>
<text text-anchor="middle" x="546" y="-7.5" font-family="Helvetica,sans-Serif" font-size="10.00">MenuDialog::initGraphView</text>
</a>
</g>
</g>
<!-- Node3&#45;&gt;Node5 -->
<g id="edge4" class="edge"><title>Node3&#45;&gt;Node5</title>
<path fill="none" stroke="midnightblue" d="M448.333,-20.804C458.46,-19.6721 468.814,-18.515 478.802,-17.3986"/>
<polygon fill="midnightblue" stroke="midnightblue" points="447.851,-17.3359 438.302,-21.9251 448.629,-24.2926 447.851,-17.3359"/>
</g>
</g>
</svg>
