<?xml version="1.0" encoding="UTF-8" standalone="no"?>
<!DOCTYPE svg PUBLIC "-//W3C//DTD SVG 1.1//EN"
 "http://www.w3.org/Graphics/SVG/1.1/DTD/svg11.dtd">
<!-- Generated by graphviz version 2.38.0 (20140413.2041)
 -->
<!-- Title: UserControlParticleSystem::UserControlParticleSystem Pages: 1 -->
<svg width="506pt" height="115pt"
 viewBox="0.00 0.00 506.00 115.00" xmlns="http://www.w3.org/2000/svg" xmlns:xlink="http://www.w3.org/1999/xlink">
<g id="graph0" class="graph" transform="scale(1 1) rotate(0) translate(4 111)">
<title>UserControlParticleSystem::UserControlParticleSystem</title>
<polygon fill="white" stroke="none" points="-4,4 -4,-111 502,-111 502,4 -4,4"/>
<!-- Node0 -->
<g id="node1" class="node"><title>Node0</title>
<g id="a_node1"><a xlink:title=" ">
<polygon fill="#bfbfbf" stroke="black" points="0,-55.5 0,-85.5 140,-85.5 140,-55.5 0,-55.5"/>
<text text-anchor="start" x="8" y="-73.5" font-family="Helvetica,sans-Serif" font-size="10.00">UserControlParticleSystem</text>
<text text-anchor="middle" x="70" y="-62.5" font-family="Helvetica,sans-Serif" font-size="10.00">::UserControlParticleSystem</text>
</a>
</g>
</g>
<!-- Node1 -->
<g id="node2" class="node"><title>Node1</title>
<g id="a_node2"><a xlink:href="class_igor_aux_1_1ia_singleton.html#a821f1d891129e6d09b992be81094540e" target="_top" xlink:title=" ">
<polygon fill="white" stroke="black" points="357,-76.5 357,-106.5 498,-106.5 498,-76.5 357,-76.5"/>
<text text-anchor="start" x="365" y="-94.5" font-family="Helvetica,sans-Serif" font-size="10.00">IgorAux::iaSingleton</text>
<text text-anchor="middle" x="427.5" y="-83.5" font-family="Helvetica,sans-Serif" font-size="10.00">&lt; iApplication &gt;::getInstance</text>
</a>
</g>
</g>
<!-- Node0&#45;&gt;Node1 -->
<g id="edge1" class="edge"><title>Node0&#45;&gt;Node1</title>
<path fill="none" stroke="midnightblue" d="M113.332,-85.5023C132.245,-91.4445 154.972,-97.5549 176,-100.5 232.749,-108.448 297.395,-105.838 346.798,-101.429"/>
<polygon fill="midnightblue" stroke="midnightblue" points="347.154,-104.912 356.785,-100.495 346.502,-97.942 347.154,-104.912"/>
</g>
<!-- Node2 -->
<g id="node3" class="node"><title>Node2</title>
<g id="a_node3"><a xlink:href="class_igor_1_1i_application.html#a8e53d8005118edbf7516ff285b4c50af" target="_top" xlink:title=" ">
<polygon fill="white" stroke="black" points="176,-50 176,-91 321,-91 321,-50 176,-50"/>
<text text-anchor="start" x="184" y="-79" font-family="Helvetica,sans-Serif" font-size="10.00">Igor::iApplication</text>
<text text-anchor="start" x="184" y="-68" font-family="Helvetica,sans-Serif" font-size="10.00">::registerApplicationPostDraw</text>
<text text-anchor="middle" x="248.5" y="-57" font-family="Helvetica,sans-Serif" font-size="10.00">HandleDelegate</text>
</a>
</g>
</g>
<!-- Node0&#45;&gt;Node2 -->
<g id="edge2" class="edge"><title>Node0&#45;&gt;Node2</title>
<path fill="none" stroke="midnightblue" d="M140.251,-70.5C148.559,-70.5 157.103,-70.5 165.568,-70.5"/>
<polygon fill="midnightblue" stroke="midnightblue" points="165.835,-74.0001 175.835,-70.5 165.835,-67.0001 165.835,-74.0001"/>
</g>
<!-- Node3 -->
<g id="node4" class="node"><title>Node3</title>
<g id="a_node4"><a xlink:href="class_user_control_particle_system.html#a550c4698548391b6fb7939f934e22c42" target="_top" xlink:title=" ">
<polygon fill="white" stroke="black" points="181.5,-0.5 181.5,-30.5 315.5,-30.5 315.5,-0.5 181.5,-0.5"/>
<text text-anchor="start" x="189.5" y="-18.5" font-family="Helvetica,sans-Serif" font-size="10.00">UserControlParticleSystem</text>
<text text-anchor="middle" x="248.5" y="-7.5" font-family="Helvetica,sans-Serif" font-size="10.00">::onCyclickUpdate</text>
</a>
</g>
</g>
<!-- Node0&#45;&gt;Node3 -->
<g id="edge3" class="edge"><title>Node0&#45;&gt;Node3</title>
<path fill="none" stroke="midnightblue" d="M119.229,-55.471C141.021,-48.6805 166.942,-40.6029 189.761,-33.4924"/>
<polygon fill="midnightblue" stroke="midnightblue" points="190.823,-36.8275 199.329,-30.5108 188.74,-30.1444 190.823,-36.8275"/>
</g>
<!-- Node3&#45;&gt;Node1 -->
<g id="edge4" class="edge"><title>Node3&#45;&gt;Node1</title>
<path fill="none" stroke="midnightblue" d="M295.183,-30.6005C303.824,-33.7024 312.741,-37.0728 321,-40.5 343.71,-49.9234 368.491,-61.8163 388.326,-71.7465"/>
<polygon fill="midnightblue" stroke="midnightblue" points="386.846,-74.9196 397.35,-76.2992 389.999,-68.67 386.846,-74.9196"/>
</g>
<!-- Node4 -->
<g id="node5" class="node"><title>Node4</title>
<g id="a_node5"><a xlink:href="class_igor_1_1i_node_particle_system.html#a532da087f94f9d510630f7127fef3746" target="_top" xlink:title=" ">
<polygon fill="white" stroke="black" points="362.5,-0.5 362.5,-30.5 492.5,-30.5 492.5,-0.5 362.5,-0.5"/>
<text text-anchor="start" x="370.5" y="-18.5" font-family="Helvetica,sans-Serif" font-size="10.00">Igor::iNodeParticleSystem</text>
<text text-anchor="middle" x="427.5" y="-7.5" font-family="Helvetica,sans-Serif" font-size="10.00">::getParticleCount</text>
</a>
</g>
</g>
<!-- Node3&#45;&gt;Node4 -->
<g id="edge5" class="edge"><title>Node3&#45;&gt;Node4</title>
<path fill="none" stroke="midnightblue" d="M315.66,-15.5C327.627,-15.5 340.177,-15.5 352.355,-15.5"/>
<polygon fill="midnightblue" stroke="midnightblue" points="352.476,-19.0001 362.476,-15.5 352.476,-12.0001 352.476,-19.0001"/>
</g>
</g>
</svg>
