<?xml version="1.0" encoding="UTF-8" standalone="no"?>
<!DOCTYPE svg PUBLIC "-//W3C//DTD SVG 1.1//EN"
 "http://www.w3.org/Graphics/SVG/1.1/DTD/svg11.dtd">
<!-- Generated by graphviz version 2.38.0 (20140413.2041)
 -->
<!-- Title: Igor::iMaterialGroup::addRenderNode Pages: 1 -->
<svg width="294pt" height="116pt"
 viewBox="0.00 0.00 294.00 115.50" xmlns="http://www.w3.org/2000/svg" xmlns:xlink="http://www.w3.org/1999/xlink">
<g id="graph0" class="graph" transform="scale(1 1) rotate(0) translate(4 111.5)">
<title>Igor::iMaterialGroup::addRenderNode</title>
<polygon fill="white" stroke="none" points="-4,4 -4,-111.5 290,-111.5 290,4 -4,4"/>
<!-- Node1 -->
<g id="node1" class="node"><title>Node1</title>
<polygon fill="#bfbfbf" stroke="black" points="0,-33 0,-63 101,-63 101,-33 0,-33"/>
<text text-anchor="start" x="8" y="-51" font-family="Helvetica,sans-Serif" font-size="10.00">Igor::iMaterialGroup</text>
<text text-anchor="middle" x="50.5" y="-40" font-family="Helvetica,sans-Serif" font-size="10.00">::addRenderNode</text>
</g>
<!-- Node2 -->
<g id="node2" class="node"><title>Node2</title>
<g id="a_node2"><a xlink:href="class_igor_aux_1_1ia_singleton.html#a821f1d891129e6d09b992be81094540e" target="_top" xlink:title="IgorAux::iaSingleton\l\&lt; iNodeFactory \&gt;::getInstance">
<polygon fill="white" stroke="black" points="137,-77 137,-107 286,-107 286,-77 137,-77"/>
<text text-anchor="start" x="145" y="-95" font-family="Helvetica,sans-Serif" font-size="10.00">IgorAux::iaSingleton</text>
<text text-anchor="middle" x="211.5" y="-84" font-family="Helvetica,sans-Serif" font-size="10.00">&lt; iNodeFactory &gt;::getInstance</text>
</a>
</g>
</g>
<!-- Node1&#45;&gt;Node2 -->
<g id="edge1" class="edge"><title>Node1&#45;&gt;Node2</title>
<path fill="none" stroke="midnightblue" d="M101.372,-61.8012C115.642,-65.7499 131.397,-70.1099 146.393,-74.2596"/>
<polygon fill="midnightblue" stroke="midnightblue" points="145.543,-77.6559 156.114,-76.9498 147.41,-70.9094 145.543,-77.6559"/>
</g>
<!-- Node3 -->
<g id="node3" class="node"><title>Node3</title>
<g id="a_node3"><a xlink:href="class_igor_1_1i_node.html#a43329dc1b2a6ad4056c38290c5df777d" target="_top" xlink:title="Igor::iNode::getType">
<polygon fill="white" stroke="black" points="159.5,-38.5 159.5,-57.5 263.5,-57.5 263.5,-38.5 159.5,-38.5"/>
<text text-anchor="middle" x="211.5" y="-45.5" font-family="Helvetica,sans-Serif" font-size="10.00">Igor::iNode::getType</text>
</a>
</g>
</g>
<!-- Node1&#45;&gt;Node3 -->
<g id="edge2" class="edge"><title>Node1&#45;&gt;Node3</title>
<path fill="none" stroke="midnightblue" d="M101.372,-48C116.538,-48 133.383,-48 149.209,-48"/>
<polygon fill="midnightblue" stroke="midnightblue" points="149.435,-51.5001 159.435,-48 149.435,-44.5001 149.435,-51.5001"/>
</g>
<!-- Node4 -->
<g id="node4" class="node"><title>Node4</title>
<g id="a_node4"><a xlink:href="namespace_igor.html#a4614e8f1440b806d814d1f8a4a8b82a3" target="_top" xlink:title="Igor::getMeshBuffers">
<polygon fill="white" stroke="black" points="158.5,-0.5 158.5,-19.5 264.5,-19.5 264.5,-0.5 158.5,-0.5"/>
<text text-anchor="middle" x="211.5" y="-7.5" font-family="Helvetica,sans-Serif" font-size="10.00">Igor::getMeshBuffers</text>
</a>
</g>
</g>
<!-- Node1&#45;&gt;Node4 -->
<g id="edge3" class="edge"><title>Node1&#45;&gt;Node4</title>
<path fill="none" stroke="midnightblue" d="M101.372,-36.0808C120.286,-31.5606 141.811,-26.4163 160.716,-21.898"/>
<polygon fill="midnightblue" stroke="midnightblue" points="161.713,-25.2585 170.625,-19.5298 160.086,-18.4502 161.713,-25.2585"/>
</g>
</g>
</svg>
