<?xml version="1.0" encoding="UTF-8" standalone="no"?>
<!DOCTYPE svg PUBLIC "-//W3C//DTD SVG 1.1//EN"
 "http://www.w3.org/Graphics/SVG/1.1/DTD/svg11.dtd">
<!-- Generated by graphviz version 2.38.0 (20140413.2041)
 -->
<!-- Title: Igor::iResourceManager::getRelativePath Pages: 1 -->
<svg width="582pt" height="137pt"
 viewBox="0.00 0.00 582.00 137.00" xmlns="http://www.w3.org/2000/svg" xmlns:xlink="http://www.w3.org/1999/xlink">
<g id="graph0" class="graph" transform="scale(1 1) rotate(0) translate(4 133)">
<title>Igor::iResourceManager::getRelativePath</title>
<polygon fill="white" stroke="none" points="-4,4 -4,-133 578,-133 578,4 -4,4"/>
<!-- Node28 -->
<g id="node1" class="node"><title>Node28</title>
<g id="a_node1"><a xlink:title=" ">
<polygon fill="#bfbfbf" stroke="black" points="455,-27.5 455,-57.5 574,-57.5 574,-27.5 455,-27.5"/>
<text text-anchor="start" x="463" y="-45.5" font-family="Helvetica,sans-Serif" font-size="10.00">Igor::iResourceManager</text>
<text text-anchor="middle" x="514.5" y="-34.5" font-family="Helvetica,sans-Serif" font-size="10.00">::getRelativePath</text>
</a>
</g>
</g>
<!-- Node29 -->
<g id="node2" class="node"><title>Node29</title>
<g id="a_node2"><a xlink:href="class_user_control_material.html#a59253e905123cec760aceffaaae4d7df" target="_top" xlink:title=" ">
<polygon fill="white" stroke="black" points="284,-49.5 284,-79.5 411,-79.5 411,-49.5 284,-49.5"/>
<text text-anchor="start" x="292" y="-67.5" font-family="Helvetica,sans-Serif" font-size="10.00">UserControlMaterial</text>
<text text-anchor="middle" x="347.5" y="-56.5" font-family="Helvetica,sans-Serif" font-size="10.00">::onFileLoadDialogClosed</text>
</a>
</g>
</g>
<!-- Node28&#45;&gt;Node29 -->
<g id="edge1" class="edge"><title>Node28&#45;&gt;Node29</title>
<path fill="none" stroke="midnightblue" d="M444.753,-51.6663C433.612,-53.1517 422.128,-54.683 411.142,-56.1477"/>
<polygon fill="midnightblue" stroke="midnightblue" points="445.413,-55.1093 454.863,-50.3183 444.488,-48.1707 445.413,-55.1093"/>
</g>
<!-- Node34 -->
<g id="node7" class="node"><title>Node34</title>
<g id="a_node7"><a xlink:href="class_user_control_mesh.html#af55d4328c9fab97659a68bb6eec291aa" target="_top" xlink:title=" ">
<polygon fill="white" stroke="black" points="276,-11 276,-30 419,-30 419,-11 276,-11"/>
<text text-anchor="middle" x="347.5" y="-18" font-family="Helvetica,sans-Serif" font-size="10.00">UserControlMesh::updateGUI</text>
</a>
</g>
</g>
<!-- Node28&#45;&gt;Node34 -->
<g id="edge8" class="edge"><title>Node28&#45;&gt;Node34</title>
<path fill="none" stroke="midnightblue" d="M444.675,-33.3233C436.222,-32.1962 427.572,-31.0429 419.094,-29.9125"/>
<polygon fill="midnightblue" stroke="midnightblue" points="444.488,-36.8293 454.863,-34.6817 445.413,-29.8907 444.488,-36.8293"/>
</g>
<!-- Node30 -->
<g id="node3" class="node"><title>Node30</title>
<g id="a_node3"><a xlink:href="class_user_control_material.html#a9e9958a948fde0b23e7bbf9a8d6688b1" target="_top" xlink:title=" ">
<polygon fill="white" stroke="black" points="138,-98.5 138,-128.5 240,-128.5 240,-98.5 138,-98.5"/>
<text text-anchor="start" x="146" y="-116.5" font-family="Helvetica,sans-Serif" font-size="10.00">UserControlMaterial</text>
<text text-anchor="middle" x="189" y="-105.5" font-family="Helvetica,sans-Serif" font-size="10.00">::onShader0Button</text>
</a>
</g>
</g>
<!-- Node29&#45;&gt;Node30 -->
<g id="edge2" class="edge"><title>Node29&#45;&gt;Node30</title>
<path fill="none" stroke="midnightblue" d="M288.65,-82.6129C272.012,-87.8222 254.051,-93.4457 238.073,-98.4484"/>
<polygon fill="midnightblue" stroke="midnightblue" points="289.77,-85.9296 298.268,-79.6014 287.679,-79.2494 289.77,-85.9296"/>
</g>
<!-- Node32 -->
<g id="node5" class="node"><title>Node32</title>
<g id="a_node5"><a xlink:href="class_user_control_material.html#a55e322c6c2f8c139a9c66c104dfad463" target="_top" xlink:title=" ">
<polygon fill="white" stroke="black" points="138,-49.5 138,-79.5 240,-79.5 240,-49.5 138,-49.5"/>
<text text-anchor="start" x="146" y="-67.5" font-family="Helvetica,sans-Serif" font-size="10.00">UserControlMaterial</text>
<text text-anchor="middle" x="189" y="-56.5" font-family="Helvetica,sans-Serif" font-size="10.00">::onShader1Button</text>
</a>
</g>
</g>
<!-- Node29&#45;&gt;Node32 -->
<g id="edge4" class="edge"><title>Node29&#45;&gt;Node32</title>
<path fill="none" stroke="midnightblue" d="M273.488,-64.5C262.244,-64.5 250.854,-64.5 240.254,-64.5"/>
<polygon fill="midnightblue" stroke="midnightblue" points="273.747,-68.0001 283.747,-64.5 273.747,-61.0001 273.747,-68.0001"/>
</g>
<!-- Node33 -->
<g id="node6" class="node"><title>Node33</title>
<g id="a_node6"><a xlink:href="class_user_control_material.html#a60ba10a9a3120b3a89b3dd0456d50769" target="_top" xlink:title=" ">
<polygon fill="white" stroke="black" points="138,-0.5 138,-30.5 240,-30.5 240,-0.5 138,-0.5"/>
<text text-anchor="start" x="146" y="-18.5" font-family="Helvetica,sans-Serif" font-size="10.00">UserControlMaterial</text>
<text text-anchor="middle" x="189" y="-7.5" font-family="Helvetica,sans-Serif" font-size="10.00">::onShader2Button</text>
</a>
</g>
</g>
<!-- Node29&#45;&gt;Node33 -->
<g id="edge6" class="edge"><title>Node29&#45;&gt;Node33</title>
<path fill="none" stroke="midnightblue" d="M288.65,-46.3871C272.012,-41.1778 254.051,-35.5543 238.073,-30.5516"/>
<polygon fill="midnightblue" stroke="midnightblue" points="287.679,-49.7506 298.268,-49.3986 289.77,-43.0704 287.679,-49.7506"/>
</g>
<!-- Node31 -->
<g id="node4" class="node"><title>Node31</title>
<g id="a_node4"><a xlink:href="class_user_control_material.html#a45610f92ae0ae41d9da8fce2aa7bec4b" target="_top" xlink:title=" ">
<polygon fill="white" stroke="black" points="0,-49.5 0,-79.5 102,-79.5 102,-49.5 0,-49.5"/>
<text text-anchor="start" x="8" y="-67.5" font-family="Helvetica,sans-Serif" font-size="10.00">UserControlMaterial</text>
<text text-anchor="middle" x="51" y="-56.5" font-family="Helvetica,sans-Serif" font-size="10.00">::initGUI</text>
</a>
</g>
</g>
<!-- Node30&#45;&gt;Node31 -->
<g id="edge3" class="edge"><title>Node30&#45;&gt;Node31</title>
<path fill="none" stroke="midnightblue" d="M136.555,-94.9645C122.509,-89.9041 107.461,-84.4823 94.0099,-79.6359"/>
<polygon fill="midnightblue" stroke="midnightblue" points="135.491,-98.3016 146.086,-98.3986 137.864,-91.7161 135.491,-98.3016"/>
</g>
<!-- Node32&#45;&gt;Node31 -->
<g id="edge5" class="edge"><title>Node32&#45;&gt;Node31</title>
<path fill="none" stroke="midnightblue" d="M127.489,-64.5C118.987,-64.5 110.326,-64.5 102.048,-64.5"/>
<polygon fill="midnightblue" stroke="midnightblue" points="127.745,-68.0001 137.745,-64.5 127.745,-61.0001 127.745,-68.0001"/>
</g>
<!-- Node33&#45;&gt;Node31 -->
<g id="edge7" class="edge"><title>Node33&#45;&gt;Node31</title>
<path fill="none" stroke="midnightblue" d="M136.555,-34.0355C122.509,-39.0959 107.461,-44.5177 94.0099,-49.3641"/>
<polygon fill="midnightblue" stroke="midnightblue" points="137.864,-37.2839 146.086,-30.6014 135.491,-30.6984 137.864,-37.2839"/>
</g>
</g>
</svg>
