<?xml version="1.0" encoding="UTF-8" standalone="no"?>
<!DOCTYPE svg PUBLIC "-//W3C//DTD SVG 1.1//EN"
 "http://www.w3.org/Graphics/SVG/1.1/DTD/svg11.dtd">
<!-- Generated by graphviz version 2.38.0 (20140413.2041)
 -->
<!-- Title: Igor::iNodeParticleSystem::getStartOrientationGradient Pages: 1 -->
<svg width="329pt" height="88pt"
 viewBox="0.00 0.00 329.00 88.00" xmlns="http://www.w3.org/2000/svg" xmlns:xlink="http://www.w3.org/1999/xlink">
<g id="graph0" class="graph" transform="scale(1 1) rotate(0) translate(4 84)">
<title>Igor::iNodeParticleSystem::getStartOrientationGradient</title>
<polygon fill="white" stroke="none" points="-4,4 -4,-84 325,-84 325,4 -4,4"/>
<!-- Node1 -->
<g id="node1" class="node"><title>Node1</title>
<polygon fill="#bfbfbf" stroke="black" points="0,-24.5 0,-54.5 141,-54.5 141,-24.5 0,-24.5"/>
<text text-anchor="start" x="8" y="-42.5" font-family="Helvetica,sans-Serif" font-size="10.00">Igor::iNodeParticleSystem</text>
<text text-anchor="middle" x="70.5" y="-31.5" font-family="Helvetica,sans-Serif" font-size="10.00">::getStartOrientationGradient</text>
</g>
<!-- Node2 -->
<g id="node2" class="node"><title>Node2</title>
<g id="a_node2"><a xlink:href="class_igor_1_1i_model_data_i_o_o_m_p_f.html#ae7624b5254a10e0d9d1580dd5239e9de" target="_top" xlink:title="Igor::iModelDataIOOMPF\l::createParticleSystemChunk">
<polygon fill="white" stroke="black" points="177,-49.5 177,-79.5 321,-79.5 321,-49.5 177,-49.5"/>
<text text-anchor="start" x="185" y="-67.5" font-family="Helvetica,sans-Serif" font-size="10.00">Igor::iModelDataIOOMPF</text>
<text text-anchor="middle" x="249" y="-56.5" font-family="Helvetica,sans-Serif" font-size="10.00">::createParticleSystemChunk</text>
</a>
</g>
</g>
<!-- Node1&#45;&gt;Node2 -->
<g id="edge1" class="edge"><title>Node1&#45;&gt;Node2</title>
<path fill="none" stroke="midnightblue" d="M151.025,-50.7642C159.622,-51.9819 168.33,-53.2154 176.82,-54.4178"/>
<polygon fill="midnightblue" stroke="midnightblue" points="151.396,-47.2819 141.004,-49.3448 150.414,-54.2127 151.396,-47.2819"/>
</g>
<!-- Node3 -->
<g id="node3" class="node"><title>Node3</title>
<g id="a_node3"><a xlink:href="class_user_control_particle_system.html#acb892bdda19fb897335bbc1bfa02673f" target="_top" xlink:title="UserControlParticleSystem\l::convertGradientsToUI">
<polygon fill="white" stroke="black" points="182,-0.5 182,-30.5 316,-30.5 316,-0.5 182,-0.5"/>
<text text-anchor="start" x="190" y="-18.5" font-family="Helvetica,sans-Serif" font-size="10.00">UserControlParticleSystem</text>
<text text-anchor="middle" x="249" y="-7.5" font-family="Helvetica,sans-Serif" font-size="10.00">::convertGradientsToUI</text>
</a>
</g>
</g>
<!-- Node1&#45;&gt;Node3 -->
<g id="edge2" class="edge"><title>Node1&#45;&gt;Node3</title>
<path fill="none" stroke="midnightblue" d="M151.154,-28.6689C161.376,-27.2789 171.753,-25.8679 181.73,-24.5112"/>
<polygon fill="midnightblue" stroke="midnightblue" points="150.441,-25.2335 141.004,-30.049 151.385,-32.1696 150.441,-25.2335"/>
</g>
</g>
</svg>
