<?xml version="1.0" encoding="UTF-8" standalone="no"?>
<!DOCTYPE svg PUBLIC "-//W3C//DTD SVG 1.1//EN"
 "http://www.w3.org/Graphics/SVG/1.1/DTD/svg11.dtd">
<!-- Generated by graphviz version 2.38.0 (20140413.2041)
 -->
<!-- Title: Igor::iScene::unregisterVolume Pages: 1 -->
<svg width="263pt" height="39pt"
 viewBox="0.00 0.00 263.00 39.00" xmlns="http://www.w3.org/2000/svg" xmlns:xlink="http://www.w3.org/1999/xlink">
<g id="graph0" class="graph" transform="scale(1 1) rotate(0) translate(4 35)">
<title>Igor::iScene::unregisterVolume</title>
<polygon fill="white" stroke="none" points="-4,4 -4,-35 259,-35 259,4 -4,4"/>
<!-- Node260 -->
<g id="node1" class="node"><title>Node260</title>
<g id="a_node1"><a xlink:title=" ">
<polygon fill="#bfbfbf" stroke="black" points="138,-0.5 138,-30.5 255,-30.5 255,-0.5 138,-0.5"/>
<text text-anchor="start" x="146" y="-18.5" font-family="Helvetica,sans-Serif" font-size="10.00">Igor::iScene::unregister</text>
<text text-anchor="middle" x="196.5" y="-7.5" font-family="Helvetica,sans-Serif" font-size="10.00">Volume</text>
</a>
</g>
</g>
<!-- Node261 -->
<g id="node2" class="node"><title>Node261</title>
<g id="a_node2"><a xlink:href="class_igor_1_1i_node_volume.html#a05ed3c821278647543de7a025173d636" target="_top" xlink:title=" ">
<polygon fill="white" stroke="black" points="0,-0.5 0,-30.5 102,-30.5 102,-0.5 0,-0.5"/>
<text text-anchor="start" x="8" y="-18.5" font-family="Helvetica,sans-Serif" font-size="10.00">Igor::iNodeVolume::</text>
<text text-anchor="middle" x="51" y="-7.5" font-family="Helvetica,sans-Serif" font-size="10.00">onPreSetScene</text>
</a>
</g>
</g>
<!-- Node260&#45;&gt;Node261 -->
<g id="edge1" class="edge"><title>Node260&#45;&gt;Node261</title>
<path fill="none" stroke="midnightblue" d="M127.862,-15.5C119.203,-15.5 110.464,-15.5 102.152,-15.5"/>
<polygon fill="midnightblue" stroke="midnightblue" points="127.96,-19.0001 137.96,-15.5 127.96,-12.0001 127.96,-19.0001"/>
</g>
</g>
</svg>
