<?xml version="1.0" encoding="UTF-8" standalone="no"?>
<!DOCTYPE svg PUBLIC "-//W3C//DTD SVG 1.1//EN"
 "http://www.w3.org/Graphics/SVG/1.1/DTD/svg11.dtd">
<!-- Generated by graphviz version 2.38.0 (20140413.2041)
 -->
<!-- Title: Igor::iWidget::resetKeyboardFocus Pages: 1 -->
<svg width="291pt" height="39pt"
 viewBox="0.00 0.00 291.00 39.00" xmlns="http://www.w3.org/2000/svg" xmlns:xlink="http://www.w3.org/1999/xlink">
<g id="graph0" class="graph" transform="scale(1 1) rotate(0) translate(4 35)">
<title>Igor::iWidget::resetKeyboardFocus</title>
<polygon fill="white" stroke="none" points="-4,4 -4,-35 287,-35 287,4 -4,4"/>
<!-- Node1 -->
<g id="node1" class="node"><title>Node1</title>
<polygon fill="#bfbfbf" stroke="black" points="0,-0.5 0,-30.5 140,-30.5 140,-0.5 0,-0.5"/>
<text text-anchor="start" x="8" y="-18.5" font-family="Helvetica,sans-Serif" font-size="10.00">Igor::iWidget::resetKeyboard</text>
<text text-anchor="middle" x="70" y="-7.5" font-family="Helvetica,sans-Serif" font-size="10.00">Focus</text>
</g>
<!-- Node2 -->
<g id="node2" class="node"><title>Node2</title>
<g id="a_node2"><a xlink:href="class_igor_1_1i_widget_text_edit.html#a8dc55fe820b437af2e7fd8bf625379d7" target="_top" xlink:title="Igor::iWidgetTextEdit\l::handleKeyDown">
<polygon fill="white" stroke="black" points="176,-0.5 176,-30.5 283,-30.5 283,-0.5 176,-0.5"/>
<text text-anchor="start" x="184" y="-18.5" font-family="Helvetica,sans-Serif" font-size="10.00">Igor::iWidgetTextEdit</text>
<text text-anchor="middle" x="229.5" y="-7.5" font-family="Helvetica,sans-Serif" font-size="10.00">::handleKeyDown</text>
</a>
</g>
</g>
<!-- Node1&#45;&gt;Node2 -->
<g id="edge1" class="edge"><title>Node1&#45;&gt;Node2</title>
<path fill="none" stroke="midnightblue" d="M150.17,-15.5C158.783,-15.5 167.389,-15.5 175.576,-15.5"/>
<polygon fill="midnightblue" stroke="midnightblue" points="150.082,-12.0001 140.082,-15.5 150.082,-19.0001 150.082,-12.0001"/>
</g>
</g>
</svg>
