<?xml version="1.0" encoding="UTF-8" standalone="no"?>
<!DOCTYPE svg PUBLIC "-//W3C//DTD SVG 1.1//EN"
 "http://www.w3.org/Graphics/SVG/1.1/DTD/svg11.dtd">
<!-- Generated by graphviz version 2.38.0 (20140413.2041)
 -->
<!-- Title: Widget3D Pages: 1 -->
<svg width="1557pt" height="461pt"
 viewBox="0.00 0.00 1557.00 461.37" xmlns="http://www.w3.org/2000/svg" xmlns:xlink="http://www.w3.org/1999/xlink">
<g id="graph0" class="graph" transform="scale(1 1) rotate(0) translate(4 457.371)">
<title>Widget3D</title>
<polygon fill="white" stroke="none" points="-4,4 -4,-457.371 1553,-457.371 1553,4 -4,4"/>
<!-- Node3 -->
<g id="node1" class="node"><title>Node3</title>
<g id="a_node1"><a xlink:title=" ">
<polygon fill="#bfbfbf" stroke="black" points="1490,-340.871 1490,-359.871 1549,-359.871 1549,-340.871 1490,-340.871"/>
<text text-anchor="middle" x="1519.5" y="-347.871" font-family="Helvetica,sans-Serif" font-size="10.00">Widget3D</text>
</a>
</g>
</g>
<!-- Node4 -->
<g id="node2" class="node"><title>Node4</title>
<g id="a_node2"><a xlink:href="class_igor_1_1i_window.html" target="_top" xlink:title=" ">
<polygon fill="white" stroke="black" points="632,-429.871 632,-448.871 707,-448.871 707,-429.871 632,-429.871"/>
<text text-anchor="middle" x="669.5" y="-436.871" font-family="Helvetica,sans-Serif" font-size="10.00">Igor::iWindow</text>
</a>
</g>
</g>
<!-- Node4&#45;&gt;Node3 -->
<g id="edge1" class="edge"><title>Node4&#45;&gt;Node3</title>
<path fill="none" stroke="#9a32cd" stroke-dasharray="5,2" d="M717.33,-439.371C744.043,-439.371 778.149,-439.371 808.5,-439.371 808.5,-439.371 808.5,-439.371 1397,-439.371 1450.34,-439.371 1495.82,-382.855 1512.1,-359.895"/>
<polygon fill="#9a32cd" stroke="#9a32cd" points="717.11,-435.871 707.11,-439.371 717.11,-442.871 717.11,-435.871"/>
<text text-anchor="middle" x="1073.5" y="-442.371" font-family="Helvetica,sans-Serif" font-size="10.00"> _window</text>
</g>
<!-- Node5 -->
<g id="node3" class="node"><title>Node5</title>
<g id="a_node3"><a xlink:href="class_igor_aux_1_1ia_string.html" target="_top" xlink:title=" ">
<polygon fill="white" stroke="black" points="373.5,-371.871 373.5,-390.871 462.5,-390.871 462.5,-371.871 373.5,-371.871"/>
<text text-anchor="middle" x="418" y="-378.871" font-family="Helvetica,sans-Serif" font-size="10.00">IgorAux::iaString</text>
</a>
</g>
</g>
<!-- Node5&#45;&gt;Node4 -->
<g id="edge2" class="edge"><title>Node5&#45;&gt;Node4</title>
<path fill="none" stroke="#9a32cd" stroke-dasharray="5,2" d="M451.395,-394.632C467.325,-400.743 486.939,-407.666 505,-412.371 547.875,-423.539 598.333,-431.041 631.735,-435.246"/>
<polygon fill="#9a32cd" stroke="#9a32cd" points="452.587,-391.34 441.999,-390.958 450.038,-397.859 452.587,-391.34"/>
<text text-anchor="middle" x="559.5" y="-435.371" font-family="Helvetica,sans-Serif" font-size="10.00"> _title</text>
</g>
<!-- Node7 -->
<g id="node5" class="node"><title>Node7</title>
<g id="a_node5"><a xlink:href="class_igor_1_1i_scene.html" target="_top" xlink:title=" ">
<polygon fill="white" stroke="black" points="635.5,-275.871 635.5,-294.871 703.5,-294.871 703.5,-275.871 635.5,-275.871"/>
<text text-anchor="middle" x="669.5" y="-282.871" font-family="Helvetica,sans-Serif" font-size="10.00">Igor::iScene</text>
</a>
</g>
</g>
<!-- Node5&#45;&gt;Node7 -->
<g id="edge5" class="edge"><title>Node5&#45;&gt;Node7</title>
<path fill="none" stroke="#9a32cd" stroke-dasharray="5,2" d="M443.706,-366.505C460.485,-356.974 483.459,-345.001 505,-337.371 551.67,-320.839 567.465,-331.277 614,-314.371 627.902,-309.32 642.653,-301.288 653.298,-294.956"/>
<polygon fill="#9a32cd" stroke="#9a32cd" points="441.497,-363.74 434.601,-371.783 445.008,-369.796 441.497,-363.74"/>
<text text-anchor="middle" x="559.5" y="-340.371" font-family="Helvetica,sans-Serif" font-size="10.00"> _name</text>
</g>
<!-- Node13 -->
<g id="node11" class="node"><title>Node13</title>
<g id="a_node11"><a xlink:href="class_igor_1_1i_node.html" target="_top" xlink:title=" ">
<polygon fill="white" stroke="black" points="778,-235.871 778,-254.871 841,-254.871 841,-235.871 778,-235.871"/>
<text text-anchor="middle" x="809.5" y="-242.871" font-family="Helvetica,sans-Serif" font-size="10.00">Igor::iNode</text>
</a>
</g>
</g>
<!-- Node5&#45;&gt;Node13 -->
<g id="edge15" class="edge"><title>Node5&#45;&gt;Node13</title>
<path fill="none" stroke="#9a32cd" stroke-dasharray="5,2" d="M472.569,-376.384C543.136,-367.765 668.935,-345.165 760,-288.371 775.277,-278.843 790.403,-264.428 799.599,-254.957"/>
<polygon fill="#9a32cd" stroke="#9a32cd" points="472.093,-372.915 462.569,-377.556 472.908,-379.868 472.093,-372.915"/>
<text text-anchor="middle" x="669.5" y="-347.371" font-family="Helvetica,sans-Serif" font-size="10.00"> _name</text>
</g>
<!-- Node16 -->
<g id="node14" class="node"><title>Node16</title>
<g id="a_node14"><a xlink:href="class_igor_1_1i_view.html" target="_top" xlink:title=" ">
<polygon fill="white" stroke="black" points="1365,-197.871 1365,-216.871 1427,-216.871 1427,-197.871 1365,-197.871"/>
<text text-anchor="middle" x="1396" y="-204.871" font-family="Helvetica,sans-Serif" font-size="10.00">Igor::iView</text>
</a>
</g>
</g>
<!-- Node5&#45;&gt;Node16 -->
<g id="edge21" class="edge"><title>Node5&#45;&gt;Node16</title>
<path fill="none" stroke="#9a32cd" stroke-dasharray="5,2" d="M472.662,-388.168C523.121,-393.966 600.811,-401.371 668.5,-401.371 668.5,-401.371 668.5,-401.371 1194.5,-401.371 1301.79,-401.371 1373.52,-256.137 1390.9,-216.991"/>
<polygon fill="#9a32cd" stroke="#9a32cd" points="472.972,-384.68 462.633,-386.995 472.159,-391.633 472.972,-384.68"/>
<text text-anchor="middle" x="876.5" y="-404.371" font-family="Helvetica,sans-Serif" font-size="10.00"> _name</text>
</g>
<!-- Node6 -->
<g id="node4" class="node"><title>Node6</title>
<g id="a_node4"><a xlink:href="class_igor_aux_1_1ia_mutex.html" target="_top" xlink:title=" ">
<polygon fill="white" stroke="black" points="97.5,-317.871 97.5,-336.871 187.5,-336.871 187.5,-317.871 97.5,-317.871"/>
<text text-anchor="middle" x="142.5" y="-324.871" font-family="Helvetica,sans-Serif" font-size="10.00">IgorAux::iaMutex</text>
</a>
</g>
</g>
<!-- Node6&#45;&gt;Node4 -->
<g id="edge3" class="edge"><title>Node6&#45;&gt;Node4</title>
<path fill="none" stroke="#9a32cd" stroke-dasharray="5,2" d="M173.445,-341.228C234.28,-368.469 377.389,-427.949 505,-446.371 548.305,-452.622 598.675,-448.819 631.94,-444.796"/>
<polygon fill="#9a32cd" stroke="#9a32cd" points="174.621,-337.918 164.067,-336.99 171.739,-344.297 174.621,-337.918"/>
<text text-anchor="middle" x="418" y="-445.371" font-family="Helvetica,sans-Serif" font-size="10.00"> _wglMutex</text>
</g>
<!-- Node14 -->
<g id="node12" class="node"><title>Node14</title>
<g id="a_node12"><a xlink:href="class_igor_aux_1_1ia_i_d_generator.html" target="_top" xlink:title=" ">
<polygon fill="white" stroke="black" points="349,-177.871 349,-196.871 487,-196.871 487,-177.871 349,-177.871"/>
<text text-anchor="middle" x="418" y="-184.871" font-family="Helvetica,sans-Serif" font-size="10.00">IgorAux::iaIDGenerator&lt; T &gt;</text>
</a>
</g>
</g>
<!-- Node6&#45;&gt;Node14 -->
<g id="edge13" class="edge"><title>Node6&#45;&gt;Node14</title>
<path fill="none" stroke="#9a32cd" stroke-dasharray="5,2" d="M185.002,-314.767C233.507,-299.332 309.846,-272.622 331,-251.371 346.197,-236.104 332.968,-220.758 349,-206.371 353.288,-202.523 358.293,-199.448 363.608,-196.991"/>
<polygon fill="#9a32cd" stroke="#9a32cd" points="183.888,-311.449 175.401,-317.791 185.991,-318.125 183.888,-311.449"/>
<text text-anchor="middle" x="274" y="-306.371" font-family="Helvetica,sans-Serif" font-size="10.00"> _mutex</text>
</g>
<!-- Node15 -->
<g id="node13" class="node"><title>Node15</title>
<g id="a_node13"><a xlink:href="class_igor_1_1i_data_update_queue.html" target="_top" xlink:title=" ">
<polygon fill="white" stroke="black" points="358,-308.871 358,-327.871 478,-327.871 478,-308.871 358,-308.871"/>
<text text-anchor="middle" x="418" y="-315.871" font-family="Helvetica,sans-Serif" font-size="10.00">Igor::iDataUpdateQueue</text>
</a>
</g>
</g>
<!-- Node6&#45;&gt;Node15 -->
<g id="edge19" class="edge"><title>Node6&#45;&gt;Node15</title>
<path fill="none" stroke="#9a32cd" stroke-dasharray="5,2" d="M197.883,-325.581C244.146,-324.059 310.456,-321.877 357.995,-320.313"/>
<polygon fill="#9a32cd" stroke="#9a32cd" points="197.626,-322.088 187.746,-325.915 197.856,-329.084 197.626,-322.088"/>
<text text-anchor="middle" x="274" y="-328.371" font-family="Helvetica,sans-Serif" font-size="10.00"> _mutex</text>
</g>
<!-- Node7&#45;&gt;Node3 -->
<g id="edge4" class="edge"><title>Node7&#45;&gt;Node3</title>
<path fill="none" stroke="#9a32cd" stroke-dasharray="5,2" d="M696.943,-299.525C735.199,-318.647 808.726,-350.371 875.5,-350.371 875.5,-350.371 875.5,-350.371 1397,-350.371 1428.64,-350.371 1464.92,-350.371 1489.53,-350.371"/>
<polygon fill="#9a32cd" stroke="#9a32cd" points="698.501,-296.39 688.003,-294.962 695.319,-302.625 698.501,-296.39"/>
<text text-anchor="middle" x="1073.5" y="-353.371" font-family="Helvetica,sans-Serif" font-size="10.00"> _scene</text>
</g>
<!-- Node7&#45;&gt;Node13 -->
<g id="edge16" class="edge"><title>Node7&#45;&gt;Node13</title>
<path fill="none" stroke="#9a32cd" stroke-dasharray="5,2" d="M713.793,-275.785C728.552,-272.238 745.088,-267.954 760,-263.371 768.07,-260.89 776.752,-257.805 784.51,-254.893"/>
<polygon fill="#9a32cd" stroke="#9a32cd" points="712.83,-272.416 703.9,-278.117 714.437,-279.229 712.83,-272.416"/>
<text text-anchor="middle" x="742.5" y="-276.371" font-family="Helvetica,sans-Serif" font-size="10.00"> _scene</text>
</g>
<!-- Node7&#45;&gt;Node16 -->
<g id="edge25" class="edge"><title>Node7&#45;&gt;Node16</title>
<path fill="none" stroke="#9a32cd" stroke-dasharray="5,2" d="M688.214,-268.586C698.334,-259.751 711.641,-249.336 725,-242.371 785.895,-210.623 806.826,-207.371 875.5,-207.371 875.5,-207.371 875.5,-207.371 1194.5,-207.371 1254.89,-207.371 1325.52,-207.371 1364.77,-207.371"/>
<polygon fill="#9a32cd" stroke="#9a32cd" points="685.605,-266.226 680.53,-275.526 690.297,-271.421 685.605,-266.226"/>
<text text-anchor="middle" x="965.5" y="-210.371" font-family="Helvetica,sans-Serif" font-size="10.00"> _scene</text>
</g>
<!-- Node19 -->
<g id="node17" class="node"><title>Node19</title>
<g id="a_node17"><a xlink:href="class_igor_1_1i_render_engine.html" target="_top" xlink:title=" ">
<polygon fill="white" stroke="black" points="1143,-236.871 1143,-255.871 1244,-255.871 1244,-236.871 1143,-236.871"/>
<text text-anchor="middle" x="1193.5" y="-243.871" font-family="Helvetica,sans-Serif" font-size="10.00">Igor::iRenderEngine</text>
</a>
</g>
</g>
<!-- Node7&#45;&gt;Node19 -->
<g id="edge30" class="edge"><title>Node7&#45;&gt;Node19</title>
<path fill="none" stroke="#9a32cd" stroke-dasharray="5,2" d="M714.009,-289.347C733.554,-290.942 756.916,-292.587 778,-293.371 913.157,-298.393 1071.7,-271.076 1147.59,-255.93"/>
<polygon fill="#9a32cd" stroke="#9a32cd" points="714.134,-285.845 703.876,-288.497 713.548,-292.821 714.134,-285.845"/>
<text text-anchor="middle" x="876.5" y="-296.371" font-family="Helvetica,sans-Serif" font-size="10.00"> _scene</text>
</g>
<!-- Node8 -->
<g id="node6" class="node"><title>Node8</title>
<g id="a_node6"><a xlink:href="class_igor_1_1i_octree.html" target="_top" xlink:title=" ">
<polygon fill="white" stroke="black" points="383,-215.871 383,-234.871 453,-234.871 453,-215.871 383,-215.871"/>
<text text-anchor="middle" x="418" y="-222.871" font-family="Helvetica,sans-Serif" font-size="10.00">Igor::iOctree</text>
</a>
</g>
</g>
<!-- Node8&#45;&gt;Node7 -->
<g id="edge6" class="edge"><title>Node8&#45;&gt;Node7</title>
<path fill="none" stroke="#9a32cd" stroke-dasharray="5,2" d="M463.298,-225.102C503.727,-226.175 564.537,-231.141 614,-249.371 630.386,-255.41 646.78,-267.211 657.242,-275.656"/>
<polygon fill="#9a32cd" stroke="#9a32cd" points="463.291,-221.601 453.224,-224.904 463.153,-228.6 463.291,-221.601"/>
<text text-anchor="middle" x="559.5" y="-252.371" font-family="Helvetica,sans-Serif" font-size="10.00"> _octree</text>
</g>
<!-- Node9 -->
<g id="node7" class="node"><title>Node9</title>
<g id="a_node7"><a xlink:href="class_igor_1_1i_node_visitor_update_transform.html" target="_top" xlink:title=" ">
<polygon fill="white" stroke="black" points="357,-254.371 357,-284.371 479,-284.371 479,-254.371 357,-254.371"/>
<text text-anchor="start" x="365" y="-272.371" font-family="Helvetica,sans-Serif" font-size="10.00">Igor::iNodeVisitorUpdate</text>
<text text-anchor="middle" x="418" y="-261.371" font-family="Helvetica,sans-Serif" font-size="10.00">Transform</text>
</a>
</g>
</g>
<!-- Node9&#45;&gt;Node7 -->
<g id="edge7" class="edge"><title>Node9&#45;&gt;Node7</title>
<path fill="none" stroke="#9a32cd" stroke-dasharray="5,2" d="M489.305,-264.556C526.548,-263.216 572.956,-263.471 614,-269.371 623.175,-270.69 632.96,-273.197 641.671,-275.843"/>
<polygon fill="#9a32cd" stroke="#9a32cd" points="488.905,-261.069 479.056,-264.973 489.19,-268.064 488.905,-261.069"/>
<text text-anchor="middle" x="559.5" y="-272.371" font-family="Helvetica,sans-Serif" font-size="10.00"> _updateTransformVisitor</text>
</g>
<!-- Node10 -->
<g id="node8" class="node"><title>Node10</title>
<g id="a_node8"><a xlink:href="class_igor_1_1i_node_visitor.html" target="_top" xlink:title=" ">
<polygon fill="white" stroke="black" points="97,-250.871 97,-269.871 188,-269.871 188,-250.871 97,-250.871"/>
<text text-anchor="middle" x="142.5" y="-257.871" font-family="Helvetica,sans-Serif" font-size="10.00">Igor::iNodeVisitor</text>
</a>
</g>
</g>
<!-- Node10&#45;&gt;Node9 -->
<g id="edge8" class="edge"><title>Node10&#45;&gt;Node9</title>
<path fill="none" stroke="midnightblue" d="M198.111,-262.168C244.002,-263.678 309.498,-265.833 356.876,-267.392"/>
<polygon fill="midnightblue" stroke="midnightblue" points="198.161,-258.668 188.051,-261.837 197.931,-265.664 198.161,-258.668"/>
</g>
<!-- Node11 -->
<g id="node9" class="node"><title>Node11</title>
<g id="a_node9"><a xlink:href="class_igor_aux_1_1ia_matrix.html" target="_top" xlink:title=" ">
<polygon fill="white" stroke="black" points="86,-157.871 86,-176.871 199,-176.871 199,-157.871 86,-157.871"/>
<text text-anchor="middle" x="142.5" y="-164.871" font-family="Helvetica,sans-Serif" font-size="10.00">IgorAux::iaMatrix&lt; T &gt;</text>
</a>
</g>
</g>
<!-- Node11&#45;&gt;Node9 -->
<g id="edge9" class="edge"><title>Node11&#45;&gt;Node9</title>
<path fill="none" stroke="#9a32cd" stroke-dasharray="5,2" d="M178.282,-180.478C219.13,-195.855 288.944,-222.08 349,-244.371 357.726,-247.61 367.089,-251.065 375.992,-254.341"/>
<polygon fill="#9a32cd" stroke="#9a32cd" points="179.382,-177.153 168.791,-176.905 176.916,-183.704 179.382,-177.153"/>
<text text-anchor="middle" x="274" y="-239.371" font-family="Helvetica,sans-Serif" font-size="10.00"> _currentMatrix</text>
</g>
<!-- Node20 -->
<g id="node18" class="node"><title>Node20</title>
<g id="a_node18"><a xlink:href="class_igor_1_1i_node_camera.html" target="_top" xlink:title=" ">
<polygon fill="white" stroke="black" points="917,-236.871 917,-255.871 1014,-255.871 1014,-236.871 917,-236.871"/>
<text text-anchor="middle" x="965.5" y="-243.871" font-family="Helvetica,sans-Serif" font-size="10.00">Igor::iNodeCamera</text>
</a>
</g>
</g>
<!-- Node11&#45;&gt;Node20 -->
<g id="edge29" class="edge"><title>Node11&#45;&gt;Node20</title>
<path fill="none" stroke="#9a32cd" stroke-dasharray="5,2" d="M209.565,-164.457C278.825,-162.128 390.756,-160.421 487,-168.371 648.147,-181.682 836.939,-219.078 920.682,-236.811"/>
<polygon fill="#9a32cd" stroke="#9a32cd" points="209.114,-160.97 199.243,-164.819 209.36,-167.966 209.114,-160.97"/>
<text text-anchor="middle" x="669.5" y="-199.371" font-family="Helvetica,sans-Serif" font-size="10.00"> _worldMatrix</text>
</g>
<!-- Node12 -->
<g id="node10" class="node"><title>Node12</title>
<g id="a_node10"><a xlink:title=" ">
<polygon fill="white" stroke="#bfbfbf" points="0,-95.8708 0,-114.871 29,-114.871 29,-95.8708 0,-95.8708"/>
<text text-anchor="middle" x="14.5" y="-102.871" font-family="Helvetica,sans-Serif" font-size="10.00">T</text>
</a>
</g>
</g>
<!-- Node12&#45;&gt;Node11 -->
<g id="edge10" class="edge"><title>Node12&#45;&gt;Node11</title>
<path fill="none" stroke="#9a32cd" stroke-dasharray="5,2" d="M27.1399,-123.249C32.4442,-130.133 39.2705,-137.503 47,-142.371 58.6314,-149.697 72.363,-154.89 85.7013,-158.566"/>
<polygon fill="#9a32cd" stroke="#9a32cd" points="29.9304,-121.134 21.2817,-115.014 24.2264,-125.192 29.9304,-121.134"/>
<text text-anchor="middle" x="57.5" y="-188.371" font-family="Helvetica,sans-Serif" font-size="10.00"> _w0</text>
<text text-anchor="middle" x="57.5" y="-177.371" font-family="Helvetica,sans-Serif" font-size="10.00">_w1</text>
<text text-anchor="middle" x="57.5" y="-166.371" font-family="Helvetica,sans-Serif" font-size="10.00">_w2</text>
<text text-anchor="middle" x="57.5" y="-155.371" font-family="Helvetica,sans-Serif" font-size="10.00">_w3</text>
</g>
<!-- Node12&#45;&gt;Node14 -->
<g id="edge14" class="edge"><title>Node12&#45;&gt;Node14</title>
<path fill="none" stroke="#9a32cd" stroke-dasharray="5,2" d="M39.5828,-109.154C74.7265,-114.77 142.078,-125.888 199,-137.371 261.995,-150.078 334.651,-167.253 378.148,-177.807"/>
<polygon fill="#9a32cd" stroke="#9a32cd" points="39.7834,-105.642 29.3583,-107.531 38.6857,-112.556 39.7834,-105.642"/>
<text text-anchor="middle" x="142.5" y="-140.371" font-family="Helvetica,sans-Serif" font-size="10.00"> _nextID</text>
</g>
<!-- Node18 -->
<g id="node16" class="node"><title>Node18</title>
<g id="a_node16"><a xlink:href="class_igor_1_1i_rectangle.html" target="_top" xlink:title=" ">
<polygon fill="white" stroke="black" points="912,-121.871 912,-140.871 1019,-140.871 1019,-121.871 912,-121.871"/>
<text text-anchor="middle" x="965.5" y="-128.871" font-family="Helvetica,sans-Serif" font-size="10.00">Igor::iRectangle&lt; T &gt;</text>
</a>
</g>
</g>
<!-- Node12&#45;&gt;Node18 -->
<g id="edge24" class="edge"><title>Node12&#45;&gt;Node18</title>
<path fill="none" stroke="#9a32cd" stroke-dasharray="5,2" d="M39.0696,-98.4389C64.21,-91.6667 105.31,-82.3708 141.5,-82.3708 141.5,-82.3708 141.5,-82.3708 810.5,-82.3708 861.844,-82.3708 918.476,-107.41 946.6,-121.69"/>
<polygon fill="#9a32cd" stroke="#9a32cd" points="38.0265,-95.0962 29.3332,-101.152 39.9057,-101.839 38.0265,-95.0962"/>
<text text-anchor="middle" x="559.5" y="-118.371" font-family="Helvetica,sans-Serif" font-size="10.00"> _width</text>
<text text-anchor="middle" x="559.5" y="-107.371" font-family="Helvetica,sans-Serif" font-size="10.00">_x</text>
<text text-anchor="middle" x="559.5" y="-96.3708" font-family="Helvetica,sans-Serif" font-size="10.00">_y</text>
<text text-anchor="middle" x="559.5" y="-85.3708" font-family="Helvetica,sans-Serif" font-size="10.00">_height</text>
</g>
<!-- Node22 -->
<g id="node20" class="node"><title>Node22</title>
<g id="a_node20"><a xlink:href="class_igor_aux_1_1ia_color4.html" target="_top" xlink:title=" ">
<polygon fill="white" stroke="black" points="217,-18.8708 217,-37.8708 331,-37.8708 331,-18.8708 217,-18.8708"/>
<text text-anchor="middle" x="274" y="-25.8708" font-family="Helvetica,sans-Serif" font-size="10.00">IgorAux::iaColor4&lt; T &gt;</text>
</a>
</g>
</g>
<!-- Node12&#45;&gt;Node22 -->
<g id="edge34" class="edge"><title>Node12&#45;&gt;Node22</title>
<path fill="none" stroke="#9a32cd" stroke-dasharray="5,2" d="M17.0356,-85.6725C19.7055,-66.4109 27.0122,-38.0438 47,-24.3708 107.891,17.283 201.232,-4.39946 246.523,-18.8572"/>
<polygon fill="#9a32cd" stroke="#9a32cd" points="13.538,-85.4622 15.9386,-95.7814 20.4971,-86.2174 13.538,-85.4622"/>
<text text-anchor="middle" x="57.5" y="-60.3708" font-family="Helvetica,sans-Serif" font-size="10.00"> _a</text>
<text text-anchor="middle" x="57.5" y="-49.3708" font-family="Helvetica,sans-Serif" font-size="10.00">_r</text>
<text text-anchor="middle" x="57.5" y="-38.3708" font-family="Helvetica,sans-Serif" font-size="10.00">_b</text>
<text text-anchor="middle" x="57.5" y="-27.3708" font-family="Helvetica,sans-Serif" font-size="10.00">_g</text>
</g>
<!-- Node13&#45;&gt;Node7 -->
<g id="edge11" class="edge"><title>Node13&#45;&gt;Node7</title>
<path fill="none" stroke="#9a32cd" stroke-dasharray="5,2" d="M767.504,-245.067C753.728,-245.942 738.451,-248.002 725,-252.371 709.22,-257.496 693.221,-267.945 682.677,-275.719"/>
<polygon fill="#9a32cd" stroke="#9a32cd" points="767.858,-248.555 777.691,-244.61 767.544,-241.562 767.858,-248.555"/>
<text text-anchor="middle" x="742.5" y="-255.371" font-family="Helvetica,sans-Serif" font-size="10.00"> _root</text>
</g>
<!-- Node13&#45;&gt;Node13 -->
<g id="edge17" class="edge"><title>Node13&#45;&gt;Node13</title>
<path fill="none" stroke="#9a32cd" stroke-dasharray="5,2" d="M797.346,-265.137C798.3,-269.867 802.352,-273.371 809.5,-273.371 821.23,-273.371 824.621,-263.936 819.673,-255.128"/>
<polygon fill="#9a32cd" stroke="#9a32cd" points="800.818,-265.617 799.327,-255.128 793.952,-264.258 800.818,-265.617"/>
<text text-anchor="middle" x="809.5" y="-276.371" font-family="Helvetica,sans-Serif" font-size="10.00"> _parent</text>
</g>
<!-- Node13&#45;&gt;Node20 -->
<g id="edge28" class="edge"><title>Node13&#45;&gt;Node20</title>
<path fill="none" stroke="midnightblue" d="M851.378,-245.636C871.478,-245.767 895.824,-245.925 916.774,-246.061"/>
<polygon fill="midnightblue" stroke="midnightblue" points="851.317,-242.136 841.294,-245.571 851.271,-249.136 851.317,-242.136"/>
</g>
<!-- Node14&#45;&gt;Node13 -->
<g id="edge12" class="edge"><title>Node14&#45;&gt;Node13</title>
<path fill="none" stroke="#9a32cd" stroke-dasharray="5,2" d="M492.833,-198.365C578.735,-211.157 716.574,-231.682 777.652,-240.777"/>
<polygon fill="#9a32cd" stroke="#9a32cd" points="493.288,-194.895 482.882,-196.883 492.257,-201.818 493.288,-194.895"/>
<text text-anchor="middle" x="669.5" y="-233.371" font-family="Helvetica,sans-Serif" font-size="10.00"> _idGenerator</text>
</g>
<!-- Node15&#45;&gt;Node7 -->
<g id="edge18" class="edge"><title>Node15&#45;&gt;Node7</title>
<path fill="none" stroke="#9a32cd" stroke-dasharray="5,2" d="M480.648,-307.135C488.824,-305.787 497.106,-304.493 505,-303.371 549.954,-296.982 602.138,-291.586 635.23,-288.414"/>
<polygon fill="#9a32cd" stroke="#9a32cd" points="480.041,-303.688 470.76,-308.799 481.202,-310.591 480.041,-303.688"/>
<text text-anchor="middle" x="559.5" y="-306.371" font-family="Helvetica,sans-Serif" font-size="10.00"> _dataUpdateQueue</text>
</g>
<!-- Node16&#45;&gt;Node3 -->
<g id="edge20" class="edge"><title>Node16&#45;&gt;Node3</title>
<path fill="none" stroke="#9a32cd" stroke-dasharray="5,2" d="M1411.9,-224.912C1437.81,-255.403 1490.3,-317.182 1510.41,-340.85"/>
<polygon fill="#9a32cd" stroke="#9a32cd" points="1414.49,-222.554 1405.35,-217.2 1409.16,-227.087 1414.49,-222.554"/>
<text text-anchor="middle" x="1458.5" y="-295.371" font-family="Helvetica,sans-Serif" font-size="10.00"> _view</text>
</g>
<!-- Node17 -->
<g id="node15" class="node"><title>Node17</title>
<g id="a_node15"><a xlink:href="class_igor_1_1i_rectangle.html" target="_top" xlink:title=" ">
<polygon fill="white" stroke="black" points="1132,-121.871 1132,-140.871 1255,-140.871 1255,-121.871 1132,-121.871"/>
<text text-anchor="middle" x="1193.5" y="-128.871" font-family="Helvetica,sans-Serif" font-size="10.00">Igor::iRectangle&lt; int32 &gt;</text>
</a>
</g>
</g>
<!-- Node17&#45;&gt;Node16 -->
<g id="edge22" class="edge"><title>Node17&#45;&gt;Node16</title>
<path fill="none" stroke="#9a32cd" stroke-dasharray="5,2" d="M1265.48,-126.221C1292.43,-127.169 1322.51,-131.934 1347,-145.371 1368.72,-157.287 1383.82,-183.597 1390.73,-197.811"/>
<polygon fill="#9a32cd" stroke="#9a32cd" points="1265.38,-122.718 1255.32,-126.034 1265.25,-129.717 1265.38,-122.718"/>
<text text-anchor="middle" x="1312" y="-159.371" font-family="Helvetica,sans-Serif" font-size="10.00"> _viewport</text>
<text text-anchor="middle" x="1312" y="-148.371" font-family="Helvetica,sans-Serif" font-size="10.00">_windowRect</text>
</g>
<!-- Node18&#45;&gt;Node17 -->
<g id="edge23" class="edge"><title>Node18&#45;&gt;Node17</title>
<path fill="none" stroke="orange" stroke-dasharray="5,2" d="M1029.33,-131.371C1061.31,-131.371 1100.02,-131.371 1131.71,-131.371"/>
<polygon fill="orange" stroke="orange" points="1029.2,-127.871 1019.2,-131.371 1029.2,-134.871 1029.2,-127.871"/>
<text text-anchor="middle" x="1073.5" y="-134.371" font-family="Helvetica,sans-Serif" font-size="10.00"> &lt; int32 &gt;</text>
</g>
<!-- Node21 -->
<g id="node19" class="node"><title>Node21</title>
<g id="a_node19"><a xlink:href="class_igor_1_1i_rectangle.html" target="_top" xlink:title=" ">
<polygon fill="white" stroke="black" points="1128,-159.871 1128,-178.871 1259,-178.871 1259,-159.871 1128,-159.871"/>
<text text-anchor="middle" x="1193.5" y="-166.871" font-family="Helvetica,sans-Serif" font-size="10.00">Igor::iRectangle&lt; float32 &gt;</text>
</a>
</g>
</g>
<!-- Node18&#45;&gt;Node21 -->
<g id="edge32" class="edge"><title>Node18&#45;&gt;Node21</title>
<path fill="none" stroke="orange" stroke-dasharray="5,2" d="M1023.25,-142.859C1027.89,-143.733 1032.52,-144.581 1037,-145.371 1066.73,-150.614 1099.76,-155.802 1127.71,-160.006"/>
<polygon fill="orange" stroke="orange" points="1023.57,-139.358 1013.09,-140.916 1022.26,-146.233 1023.57,-139.358"/>
<text text-anchor="middle" x="1073.5" y="-160.371" font-family="Helvetica,sans-Serif" font-size="10.00"> &lt; float32 &gt;</text>
</g>
<!-- Node19&#45;&gt;Node16 -->
<g id="edge26" class="edge"><title>Node19&#45;&gt;Node16</title>
<path fill="none" stroke="#9a32cd" stroke-dasharray="5,2" d="M1254.37,-238.273C1282.62,-234.015 1316.71,-228.245 1347,-221.371 1352.84,-220.045 1359.02,-218.417 1364.93,-216.746"/>
<polygon fill="#9a32cd" stroke="#9a32cd" points="1253.62,-234.846 1244.24,-239.773 1254.65,-241.77 1253.62,-234.846"/>
<text text-anchor="middle" x="1312" y="-237.371" font-family="Helvetica,sans-Serif" font-size="10.00"> _renderEngine</text>
</g>
<!-- Node20&#45;&gt;Node19 -->
<g id="edge27" class="edge"><title>Node20&#45;&gt;Node19</title>
<path fill="none" stroke="#9a32cd" stroke-dasharray="5,2" d="M1024.21,-246.371C1060.92,-246.371 1107.95,-246.371 1142.96,-246.371"/>
<polygon fill="#9a32cd" stroke="#9a32cd" points="1024.15,-242.871 1014.15,-246.371 1024.15,-249.871 1024.15,-242.871"/>
<text text-anchor="middle" x="1073.5" y="-249.371" font-family="Helvetica,sans-Serif" font-size="10.00"> _currentCamera</text>
</g>
<!-- Node21&#45;&gt;Node16 -->
<g id="edge31" class="edge"><title>Node21&#45;&gt;Node16</title>
<path fill="none" stroke="#9a32cd" stroke-dasharray="5,2" d="M1269.51,-169.885C1294.54,-171.6 1322.33,-175.207 1347,-182.371 1358.73,-185.777 1370.92,-192.171 1380.09,-197.639"/>
<polygon fill="#9a32cd" stroke="#9a32cd" points="1269.53,-166.38 1259.34,-169.28 1269.11,-173.368 1269.53,-166.38"/>
<text text-anchor="middle" x="1312" y="-185.371" font-family="Helvetica,sans-Serif" font-size="10.00"> _viewportConfig</text>
</g>
<!-- Node22&#45;&gt;Node16 -->
<g id="edge33" class="edge"><title>Node22&#45;&gt;Node16</title>
<path fill="none" stroke="#9a32cd" stroke-dasharray="5,2" d="M341.226,-32.0279C398.666,-34.8837 484.048,-38.3708 558.5,-38.3708 558.5,-38.3708 558.5,-38.3708 1194.5,-38.3708 1272.1,-38.3708 1291.84,-68.796 1347,-123.371 1369.57,-145.698 1384.97,-180.843 1391.49,-197.709"/>
<polygon fill="#9a32cd" stroke="#9a32cd" points="341.354,-28.53 331.19,-31.5212 341.001,-35.5211 341.354,-28.53"/>
<text text-anchor="middle" x="809.5" y="-41.3708" font-family="Helvetica,sans-Serif" font-size="10.00"> _clearColor</text>
</g>
</g>
</svg>
