<?xml version="1.0" encoding="UTF-8" standalone="no"?>
<!DOCTYPE svg PUBLIC "-//W3C//DTD SVG 1.1//EN"
 "http://www.w3.org/Graphics/SVG/1.1/DTD/svg11.dtd">
<!-- Generated by graphviz version 2.38.0 (20140413.2041)
 -->
<!-- Title: Igor::iLoader3DS::readChunk Pages: 1 -->
<svg width="322pt" height="104pt"
 viewBox="0.00 0.00 322.00 104.00" xmlns="http://www.w3.org/2000/svg" xmlns:xlink="http://www.w3.org/1999/xlink">
<g id="graph0" class="graph" transform="scale(1 1) rotate(0) translate(4 100)">
<title>Igor::iLoader3DS::readChunk</title>
<polygon fill="white" stroke="none" points="-4,4 -4,-100 318,-100 318,4 -4,4"/>
<!-- Node63 -->
<g id="node1" class="node"><title>Node63</title>
<g id="a_node1"><a xlink:title=" ">
<polygon fill="#bfbfbf" stroke="black" points="0,-38.5 0,-57.5 141,-57.5 141,-38.5 0,-38.5"/>
<text text-anchor="middle" x="70.5" y="-45.5" font-family="Helvetica,sans-Serif" font-size="10.00">Igor::iLoader3DS::readChunk</text>
</a>
</g>
</g>
<!-- Node64 -->
<g id="node2" class="node"><title>Node64</title>
<g id="a_node2"><a xlink:href="class_igor_1_1i_loader3_d_s.html#a82571c8708d1952556e4303e31c34ead" target="_top" xlink:title=" ">
<polygon fill="white" stroke="black" points="177,-76.5 177,-95.5 314,-95.5 314,-76.5 177,-76.5"/>
<text text-anchor="middle" x="245.5" y="-83.5" font-family="Helvetica,sans-Serif" font-size="10.00">Igor::iLoader3DS::readShort</text>
</a>
</g>
</g>
<!-- Node63&#45;&gt;Node64 -->
<g id="edge1" class="edge"><title>Node63&#45;&gt;Node64</title>
<path fill="none" stroke="midnightblue" d="M115.155,-57.589C138.293,-62.6713 166.902,-68.9554 191.327,-74.3203"/>
<polygon fill="midnightblue" stroke="midnightblue" points="190.641,-77.753 201.159,-76.4799 192.142,-70.916 190.641,-77.753"/>
</g>
<!-- Node65 -->
<g id="node3" class="node"><title>Node65</title>
<g id="a_node3"><a xlink:href="class_igor_1_1i_loader3_d_s.html#a95d8f5a8a8fef404729eb4a5eaf4fd48" target="_top" xlink:title=" ">
<polygon fill="white" stroke="black" points="178.5,-38.5 178.5,-57.5 312.5,-57.5 312.5,-38.5 178.5,-38.5"/>
<text text-anchor="middle" x="245.5" y="-45.5" font-family="Helvetica,sans-Serif" font-size="10.00">Igor::iLoader3DS::readLong</text>
</a>
</g>
</g>
<!-- Node63&#45;&gt;Node65 -->
<g id="edge2" class="edge"><title>Node63&#45;&gt;Node65</title>
<path fill="none" stroke="midnightblue" d="M141.367,-48C150.225,-48 159.324,-48 168.274,-48"/>
<polygon fill="midnightblue" stroke="midnightblue" points="168.296,-51.5001 178.296,-48 168.296,-44.5001 168.296,-51.5001"/>
</g>
<!-- Node66 -->
<g id="node4" class="node"><title>Node66</title>
<g id="a_node4"><a xlink:href="class_igor_1_1i_loader3_d_s.html#ace0d875ec6aff2a8c6bc641bf82f5f54" target="_top" xlink:title=" ">
<polygon fill="white" stroke="black" points="190.5,-0.5 190.5,-19.5 300.5,-19.5 300.5,-0.5 190.5,-0.5"/>
<text text-anchor="middle" x="245.5" y="-7.5" font-family="Helvetica,sans-Serif" font-size="10.00">Igor::iLoader3DS::pos</text>
</a>
</g>
</g>
<!-- Node63&#45;&gt;Node66 -->
<g id="edge3" class="edge"><title>Node63&#45;&gt;Node66</title>
<path fill="none" stroke="midnightblue" d="M115.155,-38.411C138.293,-33.3287 166.902,-27.0446 191.327,-21.6797"/>
<polygon fill="midnightblue" stroke="midnightblue" points="192.142,-25.084 201.159,-19.5201 190.641,-18.247 192.142,-25.084"/>
</g>
</g>
</svg>
