<?xml version="1.0" encoding="UTF-8" standalone="no"?>
<!DOCTYPE svg PUBLIC "-//W3C//DTD SVG 1.1//EN"
 "http://www.w3.org/Graphics/SVG/1.1/DTD/svg11.dtd">
<!-- Generated by graphviz version 2.38.0 (20140413.2041)
 -->
<!-- Title: OMPF::ompfBaseChunk::setID Pages: 1 -->
<svg width="333pt" height="313pt"
 viewBox="0.00 0.00 333.00 312.50" xmlns="http://www.w3.org/2000/svg" xmlns:xlink="http://www.w3.org/1999/xlink">
<g id="graph0" class="graph" transform="scale(1 1) rotate(0) translate(4 308.5)">
<title>OMPF::ompfBaseChunk::setID</title>
<polygon fill="white" stroke="none" points="-4,4 -4,-308.5 329,-308.5 329,4 -4,4"/>
<!-- Node101 -->
<g id="node1" class="node"><title>Node101</title>
<g id="a_node1"><a xlink:title=" ">
<polygon fill="#bfbfbf" stroke="black" points="203,-142.5 203,-172.5 325,-172.5 325,-142.5 203,-142.5"/>
<text text-anchor="start" x="211" y="-160.5" font-family="Helvetica,sans-Serif" font-size="10.00">OMPF::ompfBaseChunk</text>
<text text-anchor="middle" x="264" y="-149.5" font-family="Helvetica,sans-Serif" font-size="10.00">::setID</text>
</a>
</g>
</g>
<!-- Node102 -->
<g id="node2" class="node"><title>Node102</title>
<g id="a_node2"><a xlink:href="class_o_m_p_f_1_1_o_m_p_f.html#a6901856f7e376c3ff059eac965a78b00" target="_top" xlink:title=" ">
<polygon fill="white" stroke="black" points="0,-285 0,-304 167,-304 167,-285 0,-285"/>
<text text-anchor="middle" x="83.5" y="-292" font-family="Helvetica,sans-Serif" font-size="10.00">OMPF::OMPF::createGroupChunk</text>
</a>
</g>
</g>
<!-- Node101&#45;&gt;Node102 -->
<g id="edge1" class="edge"><title>Node101&#45;&gt;Node102</title>
<path fill="none" stroke="midnightblue" d="M249.912,-181.779C233.98,-208.928 204.497,-252.142 167,-275.5 160.762,-279.386 153.814,-282.478 146.671,-284.939"/>
<polygon fill="midnightblue" stroke="midnightblue" points="253.059,-183.326 254.973,-172.905 246.978,-179.858 253.059,-183.326"/>
</g>
<!-- Node103 -->
<g id="node3" class="node"><title>Node103</title>
<g id="a_node3"><a xlink:href="class_o_m_p_f_1_1_o_m_p_f.html#aeded0dcc5398c2d40a986a5a5fce1c76" target="_top" xlink:title=" ">
<polygon fill="white" stroke="black" points="6,-235.5 6,-265.5 161,-265.5 161,-235.5 6,-235.5"/>
<text text-anchor="start" x="14" y="-253.5" font-family="Helvetica,sans-Serif" font-size="10.00">OMPF::OMPF::createTransform</text>
<text text-anchor="middle" x="83.5" y="-242.5" font-family="Helvetica,sans-Serif" font-size="10.00">Chunk</text>
</a>
</g>
</g>
<!-- Node101&#45;&gt;Node103 -->
<g id="edge2" class="edge"><title>Node101&#45;&gt;Node103</title>
<path fill="none" stroke="midnightblue" d="M237.836,-179.258C219.306,-194.329 192.924,-213.876 167,-226.5 160.16,-229.831 152.772,-232.787 145.324,-235.385"/>
<polygon fill="midnightblue" stroke="midnightblue" points="240.298,-181.763 245.767,-172.689 235.833,-176.372 240.298,-181.763"/>
</g>
<!-- Node104 -->
<g id="node4" class="node"><title>Node104</title>
<g id="a_node4"><a xlink:href="class_o_m_p_f_1_1_o_m_p_f.html#a0bcedb0162f25f8cc9c415b40a3b1f78" target="_top" xlink:title=" ">
<polygon fill="white" stroke="black" points="10,-186.5 10,-216.5 157,-216.5 157,-186.5 10,-186.5"/>
<text text-anchor="start" x="18" y="-204.5" font-family="Helvetica,sans-Serif" font-size="10.00">OMPF::OMPF::createMaterial</text>
<text text-anchor="middle" x="83.5" y="-193.5" font-family="Helvetica,sans-Serif" font-size="10.00">Chunk</text>
</a>
</g>
</g>
<!-- Node101&#45;&gt;Node104 -->
<g id="edge3" class="edge"><title>Node101&#45;&gt;Node104</title>
<path fill="none" stroke="midnightblue" d="M192.489,-174.881C176.945,-178.713 160.606,-182.74 145.477,-186.469"/>
<polygon fill="midnightblue" stroke="midnightblue" points="193.696,-178.188 202.568,-172.396 192.021,-171.392 193.696,-178.188"/>
</g>
<!-- Node105 -->
<g id="node5" class="node"><title>Node105</title>
<g id="a_node5"><a xlink:href="class_o_m_p_f_1_1_o_m_p_f.html#a788e1033cb0dcf401f3cdb452ceb32a7" target="_top" xlink:title=" ">
<polygon fill="white" stroke="black" points="1.5,-148 1.5,-167 165.5,-167 165.5,-148 1.5,-148"/>
<text text-anchor="middle" x="83.5" y="-155" font-family="Helvetica,sans-Serif" font-size="10.00">OMPF::OMPF::createMeshChunk</text>
</a>
</g>
</g>
<!-- Node101&#45;&gt;Node105 -->
<g id="edge4" class="edge"><title>Node101&#45;&gt;Node105</title>
<path fill="none" stroke="midnightblue" d="M192.425,-157.5C183.669,-157.5 174.661,-157.5 165.76,-157.5"/>
<polygon fill="midnightblue" stroke="midnightblue" points="192.568,-161 202.568,-157.5 192.568,-154 192.568,-161"/>
</g>
<!-- Node106 -->
<g id="node6" class="node"><title>Node106</title>
<g id="a_node6"><a xlink:href="class_o_m_p_f_1_1_o_m_p_f.html#a3560031d9892e6e9c06bf452a7bd1a6f" target="_top" xlink:title=" ">
<polygon fill="white" stroke="black" points="11.5,-98.5 11.5,-128.5 155.5,-128.5 155.5,-98.5 11.5,-98.5"/>
<text text-anchor="start" x="19.5" y="-116.5" font-family="Helvetica,sans-Serif" font-size="10.00">OMPF::OMPF::createEmitter</text>
<text text-anchor="middle" x="83.5" y="-105.5" font-family="Helvetica,sans-Serif" font-size="10.00">Chunk</text>
</a>
</g>
</g>
<!-- Node101&#45;&gt;Node106 -->
<g id="edge5" class="edge"><title>Node101&#45;&gt;Node106</title>
<path fill="none" stroke="midnightblue" d="M192.489,-140.119C176.945,-136.287 160.606,-132.26 145.477,-128.531"/>
<polygon fill="midnightblue" stroke="midnightblue" points="192.021,-143.608 202.568,-142.604 193.696,-136.812 192.021,-143.608"/>
</g>
<!-- Node107 -->
<g id="node7" class="node"><title>Node107</title>
<g id="a_node7"><a xlink:href="class_o_m_p_f_1_1_o_m_p_f.html#aa23fd9a6ed1a9e990bc4f7898cd386aa" target="_top" xlink:title=" ">
<polygon fill="white" stroke="black" points="10.5,-49.5 10.5,-79.5 156.5,-79.5 156.5,-49.5 10.5,-49.5"/>
<text text-anchor="start" x="18.5" y="-67.5" font-family="Helvetica,sans-Serif" font-size="10.00">OMPF::OMPF::createParticle</text>
<text text-anchor="middle" x="83.5" y="-56.5" font-family="Helvetica,sans-Serif" font-size="10.00">SystemChunk</text>
</a>
</g>
</g>
<!-- Node101&#45;&gt;Node107 -->
<g id="edge6" class="edge"><title>Node101&#45;&gt;Node107</title>
<path fill="none" stroke="midnightblue" d="M237.397,-135.89C218.841,-121.126 192.611,-102.038 167,-89.5 159.338,-85.7491 150.998,-82.4291 142.662,-79.5341"/>
<polygon fill="midnightblue" stroke="midnightblue" points="235.378,-138.759 245.353,-142.33 239.782,-133.318 235.378,-138.759"/>
</g>
<!-- Node108 -->
<g id="node8" class="node"><title>Node108</title>
<g id="a_node8"><a xlink:href="class_o_m_p_f_1_1_o_m_p_f.html#a2b8b0578b445f58bc201c0483c4daab9" target="_top" xlink:title=" ">
<polygon fill="white" stroke="black" points="9,-0.5 9,-30.5 158,-30.5 158,-0.5 9,-0.5"/>
<text text-anchor="start" x="17" y="-18.5" font-family="Helvetica,sans-Serif" font-size="10.00">OMPF::OMPF::createExternal</text>
<text text-anchor="middle" x="83.5" y="-7.5" font-family="Helvetica,sans-Serif" font-size="10.00">ReferenceChunk</text>
</a>
</g>
</g>
<!-- Node101&#45;&gt;Node108 -->
<g id="edge7" class="edge"><title>Node101&#45;&gt;Node108</title>
<path fill="none" stroke="midnightblue" d="M249.308,-133.452C233.003,-106.925 203.352,-64.7844 167,-40.5 161.275,-36.6758 154.944,-33.4187 148.41,-30.6484"/>
<polygon fill="midnightblue" stroke="midnightblue" points="246.365,-135.351 254.507,-142.13 252.369,-131.753 246.365,-135.351"/>
</g>
</g>
</svg>
