<?xml version="1.0" encoding="UTF-8" standalone="no"?>
<!DOCTYPE svg PUBLIC "-//W3C//DTD SVG 1.1//EN"
 "http://www.w3.org/Graphics/SVG/1.1/DTD/svg11.dtd">
<!-- Generated by graphviz version 2.38.0 (20140413.2041)
 -->
<!-- Title: IgorAux::iaSerializable::read Pages: 1 -->
<svg width="270pt" height="235pt"
 viewBox="0.00 0.00 270.00 235.00" xmlns="http://www.w3.org/2000/svg" xmlns:xlink="http://www.w3.org/1999/xlink">
<g id="graph0" class="graph" transform="scale(1 1) rotate(0) translate(4 231)">
<title>IgorAux::iaSerializable::read</title>
<polygon fill="white" stroke="none" points="-4,4 -4,-231 266,-231 266,4 -4,4"/>
<!-- Node35 -->
<g id="node1" class="node"><title>Node35</title>
<g id="a_node1"><a xlink:title=" ">
<polygon fill="#bfbfbf" stroke="black" points="0,-98.5 0,-128.5 113,-128.5 113,-98.5 0,-98.5"/>
<text text-anchor="start" x="8" y="-116.5" font-family="Helvetica,sans-Serif" font-size="10.00">IgorAux::iaSerializable</text>
<text text-anchor="middle" x="56.5" y="-105.5" font-family="Helvetica,sans-Serif" font-size="10.00">::read</text>
</a>
</g>
</g>
<!-- Node36 -->
<g id="node2" class="node"><title>Node36</title>
<g id="a_node2"><a xlink:href="class_igor_aux_1_1ia_serializable.html#a184dcce405b1bbbee0d9bac60ac26c02" target="_top" xlink:title=" ">
<polygon fill="white" stroke="black" points="149,-196.5 149,-226.5 262,-226.5 262,-196.5 149,-196.5"/>
<text text-anchor="start" x="157" y="-214.5" font-family="Helvetica,sans-Serif" font-size="10.00">IgorAux::iaSerializable</text>
<text text-anchor="middle" x="205.5" y="-203.5" font-family="Helvetica,sans-Serif" font-size="10.00">::readUInt16</text>
</a>
</g>
</g>
<!-- Node35&#45;&gt;Node36 -->
<g id="edge1" class="edge"><title>Node35&#45;&gt;Node36</title>
<path fill="none" stroke="midnightblue" d="M73.351,-128.582C90.8438,-144.664 120.333,-170.156 149,-187.5 151.484,-189.003 154.079,-190.461 156.732,-191.867"/>
<polygon fill="midnightblue" stroke="midnightblue" points="155.388,-195.107 165.899,-196.433 158.508,-188.841 155.388,-195.107"/>
</g>
<!-- Node37 -->
<g id="node3" class="node"><title>Node37</title>
<g id="a_node3"><a xlink:href="class_igor_aux_1_1ia_serializable.html#a0609b679c17c8b506d112762b549f3b9" target="_top" xlink:title=" ">
<polygon fill="white" stroke="black" points="149,-147.5 149,-177.5 262,-177.5 262,-147.5 149,-147.5"/>
<text text-anchor="start" x="157" y="-165.5" font-family="Helvetica,sans-Serif" font-size="10.00">IgorAux::iaSerializable</text>
<text text-anchor="middle" x="205.5" y="-154.5" font-family="Helvetica,sans-Serif" font-size="10.00">::readFloat32</text>
</a>
</g>
</g>
<!-- Node35&#45;&gt;Node37 -->
<g id="edge2" class="edge"><title>Node35&#45;&gt;Node37</title>
<path fill="none" stroke="midnightblue" d="M102.804,-128.601C117.544,-133.515 134.067,-139.022 149.44,-144.147"/>
<polygon fill="midnightblue" stroke="midnightblue" points="148.752,-147.606 159.345,-147.448 150.965,-140.966 148.752,-147.606"/>
</g>
<!-- Node38 -->
<g id="node4" class="node"><title>Node38</title>
<g id="a_node4"><a xlink:href="class_igor_aux_1_1ia_serializable.html#a2f9b887f1bbc3bfadcb423afe1808f1f" target="_top" xlink:title=" ">
<polygon fill="white" stroke="black" points="149,-98.5 149,-128.5 262,-128.5 262,-98.5 149,-98.5"/>
<text text-anchor="start" x="157" y="-116.5" font-family="Helvetica,sans-Serif" font-size="10.00">IgorAux::iaSerializable</text>
<text text-anchor="middle" x="205.5" y="-105.5" font-family="Helvetica,sans-Serif" font-size="10.00">::read</text>
</a>
</g>
</g>
<!-- Node35&#45;&gt;Node38 -->
<g id="edge3" class="edge"><title>Node35&#45;&gt;Node38</title>
<path fill="none" stroke="midnightblue" d="M113.074,-113.5C121.489,-113.5 130.238,-113.5 138.842,-113.5"/>
<polygon fill="midnightblue" stroke="midnightblue" points="138.847,-117 148.847,-113.5 138.847,-110 138.847,-117"/>
</g>
<!-- Node39 -->
<g id="node5" class="node"><title>Node39</title>
<g id="a_node5"><a xlink:href="class_igor_aux_1_1ia_vector3.html#ab9eeed4aa7fd8d95efc7110748bc94a0" target="_top" xlink:title=" ">
<polygon fill="white" stroke="black" points="157,-49.5 157,-79.5 254,-79.5 254,-49.5 157,-49.5"/>
<text text-anchor="start" x="165" y="-67.5" font-family="Helvetica,sans-Serif" font-size="10.00">IgorAux::iaVector3</text>
<text text-anchor="middle" x="205.5" y="-56.5" font-family="Helvetica,sans-Serif" font-size="10.00">::getData</text>
</a>
</g>
</g>
<!-- Node35&#45;&gt;Node39 -->
<g id="edge4" class="edge"><title>Node35&#45;&gt;Node39</title>
<path fill="none" stroke="midnightblue" d="M102.804,-98.3986C117.544,-93.4853 134.067,-87.9776 149.44,-82.8534"/>
<polygon fill="midnightblue" stroke="midnightblue" points="150.965,-86.0343 159.345,-79.5516 148.752,-79.3935 150.965,-86.0343"/>
</g>
<!-- Node40 -->
<g id="node6" class="node"><title>Node40</title>
<g id="a_node6"><a xlink:href="class_igor_aux_1_1ia_gradient.html#a3ce9a96516704eb9b7e8e88cadb77043" target="_top" xlink:title=" ">
<polygon fill="white" stroke="black" points="155.5,-0.5 155.5,-30.5 255.5,-30.5 255.5,-0.5 155.5,-0.5"/>
<text text-anchor="start" x="163.5" y="-18.5" font-family="Helvetica,sans-Serif" font-size="10.00">IgorAux::iaGradient</text>
<text text-anchor="middle" x="205.5" y="-7.5" font-family="Helvetica,sans-Serif" font-size="10.00">::setValue</text>
</a>
</g>
</g>
<!-- Node35&#45;&gt;Node40 -->
<g id="edge5" class="edge"><title>Node35&#45;&gt;Node40</title>
<path fill="none" stroke="midnightblue" d="M73.761,-98.4336C91.3663,-82.6399 120.732,-57.7661 149,-40.5 152.114,-38.5978 155.398,-36.754 158.749,-34.9873"/>
<polygon fill="midnightblue" stroke="midnightblue" points="160.331,-38.1097 167.707,-30.5039 157.198,-31.85 160.331,-38.1097"/>
</g>
</g>
</svg>
