<?xml version="1.0" encoding="UTF-8" standalone="no"?>
<!DOCTYPE svg PUBLIC "-//W3C//DTD SVG 1.1//EN"
 "http://www.w3.org/Graphics/SVG/1.1/DTD/svg11.dtd">
<!-- Generated by graphviz version 2.38.0 (20140413.2041)
 -->
<!-- Title: PropertiesDialog::initGUI Pages: 1 -->
<svg width="595pt" height="186pt"
 viewBox="0.00 0.00 595.00 186.00" xmlns="http://www.w3.org/2000/svg" xmlns:xlink="http://www.w3.org/1999/xlink">
<g id="graph0" class="graph" transform="scale(1 1) rotate(0) translate(4 182)">
<title>PropertiesDialog::initGUI</title>
<polygon fill="white" stroke="none" points="-4,4 -4,-182 591,-182 591,4 -4,4"/>
<!-- Node1 -->
<g id="node1" class="node"><title>Node1</title>
<polygon fill="#bfbfbf" stroke="black" points="0,-79 0,-98 123,-98 123,-79 0,-79"/>
<text text-anchor="middle" x="61.5" y="-86" font-family="Helvetica,sans-Serif" font-size="10.00">PropertiesDialog::initGUI</text>
</g>
<!-- Node2 -->
<g id="node2" class="node"><title>Node2</title>
<g id="a_node2"><a xlink:href="class_igor_aux_1_1ia_singleton.html#a821f1d891129e6d09b992be81094540e" target="_top" xlink:title="IgorAux::iaSingleton\l\&lt; iWidgetManager \&gt;::getInstance">
<polygon fill="white" stroke="black" points="159,-147.5 159,-177.5 320,-177.5 320,-147.5 159,-147.5"/>
<text text-anchor="start" x="167" y="-165.5" font-family="Helvetica,sans-Serif" font-size="10.00">IgorAux::iaSingleton</text>
<text text-anchor="middle" x="239.5" y="-154.5" font-family="Helvetica,sans-Serif" font-size="10.00">&lt; iWidgetManager &gt;::getInstance</text>
</a>
</g>
</g>
<!-- Node1&#45;&gt;Node2 -->
<g id="edge1" class="edge"><title>Node1&#45;&gt;Node2</title>
<path fill="none" stroke="midnightblue" d="M78.794,-98.1302C97.6332,-108.981 129.803,-126.648 159,-138.5 163.803,-140.45 168.825,-142.325 173.909,-144.109"/>
<polygon fill="midnightblue" stroke="midnightblue" points="173.129,-147.539 183.724,-147.421 175.368,-140.907 173.129,-147.539"/>
</g>
<!-- Node3 -->
<g id="node3" class="node"><title>Node3</title>
<g id="a_node3"><a xlink:href="class_igor_1_1i_widget_manager.html#a6bd957c51cc937fa860f9e2be73f3d27" target="_top" xlink:title="Igor::iWidgetManager\l::createWidget">
<polygon fill="white" stroke="black" points="185,-98.5 185,-128.5 294,-128.5 294,-98.5 185,-98.5"/>
<text text-anchor="start" x="193" y="-116.5" font-family="Helvetica,sans-Serif" font-size="10.00">Igor::iWidgetManager</text>
<text text-anchor="middle" x="239.5" y="-105.5" font-family="Helvetica,sans-Serif" font-size="10.00">::createWidget</text>
</a>
</g>
</g>
<!-- Node1&#45;&gt;Node3 -->
<g id="edge2" class="edge"><title>Node1&#45;&gt;Node3</title>
<path fill="none" stroke="midnightblue" d="M123.069,-97.1036C139.703,-99.4663 157.789,-102.035 174.603,-104.424"/>
<polygon fill="midnightblue" stroke="midnightblue" points="174.491,-107.943 184.884,-105.884 175.475,-101.012 174.491,-107.943"/>
</g>
<!-- Node7 -->
<g id="node7" class="node"><title>Node7</title>
<g id="a_node7"><a xlink:href="class_igor_1_1i_widget_grid.html#a09e374ec95ecf256ec0d086a0b53284a" target="_top" xlink:title="Igor::iWidgetGrid::\lsetBorder">
<polygon fill="white" stroke="black" points="192,-49.5 192,-79.5 287,-79.5 287,-49.5 192,-49.5"/>
<text text-anchor="start" x="200" y="-67.5" font-family="Helvetica,sans-Serif" font-size="10.00">Igor::iWidgetGrid::</text>
<text text-anchor="middle" x="239.5" y="-56.5" font-family="Helvetica,sans-Serif" font-size="10.00">setBorder</text>
</a>
</g>
</g>
<!-- Node1&#45;&gt;Node7 -->
<g id="edge6" class="edge"><title>Node1&#45;&gt;Node7</title>
<path fill="none" stroke="midnightblue" d="M123.069,-80.2406C142.03,-77.655 162.879,-74.812 181.579,-72.2619"/>
<polygon fill="midnightblue" stroke="midnightblue" points="182.286,-75.698 191.722,-70.8789 181.34,-68.7622 182.286,-75.698"/>
</g>
<!-- Node8 -->
<g id="node8" class="node"><title>Node8</title>
<g id="a_node8"><a xlink:href="class_properties_dialog.html#a6003c4e49079a959123c1760601cce2e" target="_top" xlink:title="PropertiesDialog::onStructure\lChanged">
<polygon fill="white" stroke="black" points="167.5,-0.5 167.5,-30.5 311.5,-30.5 311.5,-0.5 167.5,-0.5"/>
<text text-anchor="start" x="175.5" y="-18.5" font-family="Helvetica,sans-Serif" font-size="10.00">PropertiesDialog::onStructure</text>
<text text-anchor="middle" x="239.5" y="-7.5" font-family="Helvetica,sans-Serif" font-size="10.00">Changed</text>
</a>
</g>
</g>
<!-- Node1&#45;&gt;Node8 -->
<g id="edge7" class="edge"><title>Node1&#45;&gt;Node8</title>
<path fill="none" stroke="midnightblue" d="M79.5567,-78.9914C98.5537,-68.6454 130.364,-52.0413 159,-40.5 164.724,-38.1929 170.748,-35.9605 176.813,-33.8421"/>
<polygon fill="midnightblue" stroke="midnightblue" points="177.993,-37.1378 186.34,-30.6124 175.745,-30.5084 177.993,-37.1378"/>
</g>
<!-- Node4 -->
<g id="node4" class="node"><title>Node4</title>
<g id="a_node4"><a xlink:href="class_igor_aux_1_1ia_string.html#a7bed20819f1376bd433892feeefdc05c" target="_top" xlink:title="IgorAux::iaString::\lgetHashValue">
<polygon fill="white" stroke="black" points="358.5,-120.5 358.5,-150.5 453.5,-150.5 453.5,-120.5 358.5,-120.5"/>
<text text-anchor="start" x="366.5" y="-138.5" font-family="Helvetica,sans-Serif" font-size="10.00">IgorAux::iaString::</text>
<text text-anchor="middle" x="406" y="-127.5" font-family="Helvetica,sans-Serif" font-size="10.00">getHashValue</text>
</a>
</g>
</g>
<!-- Node3&#45;&gt;Node4 -->
<g id="edge3" class="edge"><title>Node3&#45;&gt;Node4</title>
<path fill="none" stroke="midnightblue" d="M294.363,-120.704C311.674,-123.019 330.897,-125.59 348.398,-127.93"/>
<polygon fill="midnightblue" stroke="midnightblue" points="348.1,-131.421 358.476,-129.278 349.028,-124.483 348.1,-131.421"/>
</g>
<!-- Node6 -->
<g id="node6" class="node"><title>Node6</title>
<g id="a_node6"><a xlink:href="class_igor_1_1i_widget.html#aa0816e0911fd5d21a7aed3b9f27bc118" target="_top" xlink:title="Igor::iWidget::getID">
<polygon fill="white" stroke="black" points="356,-82 356,-101 456,-101 456,-82 356,-82"/>
<text text-anchor="middle" x="406" y="-89" font-family="Helvetica,sans-Serif" font-size="10.00">Igor::iWidget::getID</text>
</a>
</g>
</g>
<!-- Node3&#45;&gt;Node6 -->
<g id="edge5" class="edge"><title>Node3&#45;&gt;Node6</title>
<path fill="none" stroke="midnightblue" d="M294.363,-106.296C310.736,-104.107 328.82,-101.688 345.539,-99.4522"/>
<polygon fill="midnightblue" stroke="midnightblue" points="346.298,-102.882 355.746,-98.0872 345.37,-95.9438 346.298,-102.882"/>
</g>
<!-- Node5 -->
<g id="node5" class="node"><title>Node5</title>
<g id="a_node5"><a xlink:href="class_igor_aux_1_1ia_string.html#a527c422c83c563c834a12548728e625d" target="_top" xlink:title="IgorAux::iaString::\lgetData">
<polygon fill="white" stroke="black" points="492,-120.5 492,-150.5 587,-150.5 587,-120.5 492,-120.5"/>
<text text-anchor="start" x="500" y="-138.5" font-family="Helvetica,sans-Serif" font-size="10.00">IgorAux::iaString::</text>
<text text-anchor="middle" x="539.5" y="-127.5" font-family="Helvetica,sans-Serif" font-size="10.00">getData</text>
</a>
</g>
</g>
<!-- Node4&#45;&gt;Node5 -->
<g id="edge4" class="edge"><title>Node4&#45;&gt;Node5</title>
<path fill="none" stroke="midnightblue" d="M453.732,-135.5C462.84,-135.5 472.481,-135.5 481.868,-135.5"/>
<polygon fill="midnightblue" stroke="midnightblue" points="481.918,-139 491.918,-135.5 481.918,-132 481.918,-139"/>
</g>
</g>
</svg>
