<?xml version="1.0" encoding="UTF-8" standalone="no"?>
<!DOCTYPE svg PUBLIC "-//W3C//DTD SVG 1.1//EN"
 "http://www.w3.org/Graphics/SVG/1.1/DTD/svg11.dtd">
<!-- Generated by graphviz version 2.38.0 (20140413.2041)
 -->
<!-- Title: Igor::iPhysics::destroyCollisionConfig Pages: 1 -->
<svg width="335pt" height="116pt"
 viewBox="0.00 0.00 335.00 116.00" xmlns="http://www.w3.org/2000/svg" xmlns:xlink="http://www.w3.org/1999/xlink">
<g id="graph0" class="graph" transform="scale(1 1) rotate(0) translate(4 112)">
<title>Igor::iPhysics::destroyCollisionConfig</title>
<polygon fill="white" stroke="none" points="-4,4 -4,-112 331,-112 331,4 -4,4"/>
<!-- Node1 -->
<g id="node1" class="node"><title>Node1</title>
<polygon fill="#bfbfbf" stroke="black" points="0,-39 0,-69 151,-69 151,-39 0,-39"/>
<text text-anchor="start" x="8" y="-57" font-family="Helvetica,sans-Serif" font-size="10.00">Igor::iPhysics::destroyCollision</text>
<text text-anchor="middle" x="75.5" y="-46" font-family="Helvetica,sans-Serif" font-size="10.00">Config</text>
</g>
<!-- Node2 -->
<g id="node2" class="node"><title>Node2</title>
<g id="a_node2"><a xlink:href="class_igor_aux_1_1ia_mutex.html#ab0873c1f25730bd85d6b71d167520921" target="_top" xlink:title="IgorAux::iaMutex::lock">
<polygon fill="white" stroke="black" points="200,-88.5 200,-107.5 314,-107.5 314,-88.5 200,-88.5"/>
<text text-anchor="middle" x="257" y="-95.5" font-family="Helvetica,sans-Serif" font-size="10.00">IgorAux::iaMutex::lock</text>
</a>
</g>
</g>
<!-- Node1&#45;&gt;Node2 -->
<g id="edge1" class="edge"><title>Node1&#45;&gt;Node2</title>
<path fill="none" stroke="midnightblue" d="M137.772,-69.0192C160.48,-74.5856 185.902,-80.8171 207.336,-86.0713"/>
<polygon fill="midnightblue" stroke="midnightblue" points="206.648,-89.5061 217.194,-88.4876 208.314,-82.7074 206.648,-89.5061"/>
</g>
<!-- Node3 -->
<g id="node3" class="node"><title>Node3</title>
<g id="a_node3"><a xlink:href="class_igor_1_1i_physics_collision_config.html#a358488967c0a81c0b613972334363a09" target="_top" xlink:title="Igor::iPhysicsCollisionConfig\l::getID">
<polygon fill="white" stroke="black" points="187,-39 187,-69 327,-69 327,-39 187,-39"/>
<text text-anchor="start" x="195" y="-57" font-family="Helvetica,sans-Serif" font-size="10.00">Igor::iPhysicsCollisionConfig</text>
<text text-anchor="middle" x="257" y="-46" font-family="Helvetica,sans-Serif" font-size="10.00">::getID</text>
</a>
</g>
</g>
<!-- Node1&#45;&gt;Node3 -->
<g id="edge2" class="edge"><title>Node1&#45;&gt;Node3</title>
<path fill="none" stroke="midnightblue" d="M151.065,-54C159.488,-54 168.095,-54 176.577,-54"/>
<polygon fill="midnightblue" stroke="midnightblue" points="176.84,-57.5001 186.84,-54 176.84,-50.5001 176.84,-57.5001"/>
</g>
<!-- Node4 -->
<g id="node4" class="node"><title>Node4</title>
<g id="a_node4"><a xlink:href="class_igor_aux_1_1ia_mutex.html#a3beb078a1f64de265044ece54657c279" target="_top" xlink:title="IgorAux::iaMutex::unlock">
<polygon fill="white" stroke="black" points="194.5,-0.5 194.5,-19.5 319.5,-19.5 319.5,-0.5 194.5,-0.5"/>
<text text-anchor="middle" x="257" y="-7.5" font-family="Helvetica,sans-Serif" font-size="10.00">IgorAux::iaMutex::unlock</text>
</a>
</g>
</g>
<!-- Node1&#45;&gt;Node4 -->
<g id="edge3" class="edge"><title>Node1&#45;&gt;Node4</title>
<path fill="none" stroke="midnightblue" d="M137.772,-38.9808C160.48,-33.4144 185.902,-27.1829 207.336,-21.9287"/>
<polygon fill="midnightblue" stroke="midnightblue" points="208.314,-25.2926 217.194,-19.5124 206.648,-18.4939 208.314,-25.2926"/>
</g>
</g>
</svg>
