<?xml version="1.0" encoding="UTF-8" standalone="no"?>
<!DOCTYPE svg PUBLIC "-//W3C//DTD SVG 1.1//EN"
 "http://www.w3.org/Graphics/SVG/1.1/DTD/svg11.dtd">
<!-- Generated by graphviz version 2.38.0 (20140413.2041)
 -->
<!-- Title: Igor::iOSEventListener Pages: 1 -->
<svg width="206pt" height="162pt"
 viewBox="0.00 0.00 205.50 162.00" xmlns="http://www.w3.org/2000/svg" xmlns:xlink="http://www.w3.org/1999/xlink">
<g id="graph0" class="graph" transform="scale(1 1) rotate(0) translate(4 158)">
<title>Igor::iOSEventListener</title>
<polygon fill="white" stroke="none" points="-4,4 -4,-158 201.5,-158 201.5,4 -4,4"/>
<!-- Node3 -->
<g id="node1" class="node"><title>Node3</title>
<g id="a_node1"><a xlink:title=" ">
<polygon fill="#bfbfbf" stroke="black" points="42,-0.5 42,-19.5 155,-19.5 155,-0.5 42,-0.5"/>
<text text-anchor="middle" x="98.5" y="-7.5" font-family="Helvetica,sans-Serif" font-size="10.00">Igor::iOSEventListener</text>
</a>
</g>
</g>
<!-- Node4 -->
<g id="node2" class="node"><title>Node4</title>
<g id="a_node2"><a xlink:href="class_igor_1_1i_window.html" target="_top" xlink:title=" ">
<polygon fill="white" stroke="black" points="61,-67.5 61,-86.5 136,-86.5 136,-67.5 61,-67.5"/>
<text text-anchor="middle" x="98.5" y="-74.5" font-family="Helvetica,sans-Serif" font-size="10.00">Igor::iWindow</text>
</a>
</g>
</g>
<!-- Node4&#45;&gt;Node3 -->
<g id="edge1" class="edge"><title>Node4&#45;&gt;Node3</title>
<path fill="none" stroke="#9a32cd" stroke-dasharray="5,2" d="M98.5,-57.037C98.5,-44.6703 98.5,-29.1198 98.5,-19.6273"/>
<polygon fill="#9a32cd" stroke="#9a32cd" points="95.0001,-57.2338 98.5,-67.2338 102,-57.2338 95.0001,-57.2338"/>
<text text-anchor="middle" x="118.5" y="-41" font-family="Helvetica,sans-Serif" font-size="10.00"> _window</text>
</g>
<!-- Node5 -->
<g id="node3" class="node"><title>Node5</title>
<g id="a_node3"><a xlink:href="class_igor_aux_1_1ia_string.html" target="_top" xlink:title=" ">
<polygon fill="white" stroke="black" points="0,-134.5 0,-153.5 89,-153.5 89,-134.5 0,-134.5"/>
<text text-anchor="middle" x="44.5" y="-141.5" font-family="Helvetica,sans-Serif" font-size="10.00">IgorAux::iaString</text>
</a>
</g>
</g>
<!-- Node5&#45;&gt;Node4 -->
<g id="edge2" class="edge"><title>Node5&#45;&gt;Node4</title>
<path fill="none" stroke="#9a32cd" stroke-dasharray="5,2" d="M58.3984,-126.27C68.9269,-113.597 82.9638,-96.701 91.3327,-86.6273"/>
<polygon fill="#9a32cd" stroke="#9a32cd" points="55.4807,-124.305 51.7827,-134.234 60.8651,-128.778 55.4807,-124.305"/>
<text text-anchor="middle" x="88" y="-108" font-family="Helvetica,sans-Serif" font-size="10.00"> _title</text>
</g>
<!-- Node6 -->
<g id="node4" class="node"><title>Node6</title>
<g id="a_node4"><a xlink:href="class_igor_aux_1_1ia_mutex.html" target="_top" xlink:title=" ">
<polygon fill="white" stroke="black" points="107.5,-134.5 107.5,-153.5 197.5,-153.5 197.5,-134.5 107.5,-134.5"/>
<text text-anchor="middle" x="152.5" y="-141.5" font-family="Helvetica,sans-Serif" font-size="10.00">IgorAux::iaMutex</text>
</a>
</g>
</g>
<!-- Node6&#45;&gt;Node4 -->
<g id="edge3" class="edge"><title>Node6&#45;&gt;Node4</title>
<path fill="none" stroke="#9a32cd" stroke-dasharray="5,2" d="M138.602,-126.27C128.073,-113.597 114.036,-96.701 105.667,-86.6273"/>
<polygon fill="#9a32cd" stroke="#9a32cd" points="136.135,-128.778 145.217,-134.234 141.519,-124.305 136.135,-128.778"/>
<text text-anchor="middle" x="154.5" y="-108" font-family="Helvetica,sans-Serif" font-size="10.00"> _wglMutex</text>
</g>
</g>
</svg>
