<?xml version="1.0" encoding="UTF-8" standalone="no"?>
<!DOCTYPE svg PUBLIC "-//W3C//DTD SVG 1.1//EN"
 "http://www.w3.org/Graphics/SVG/1.1/DTD/svg11.dtd">
<!-- Generated by graphviz version 2.38.0 (20140413.2041)
 -->
<!-- Title: Igor::iLoader3DS::readfloat32 Pages: 1 -->
<svg width="670pt" height="28pt"
 viewBox="0.00 0.00 670.00 28.00" xmlns="http://www.w3.org/2000/svg" xmlns:xlink="http://www.w3.org/1999/xlink">
<g id="graph0" class="graph" transform="scale(1 1) rotate(0) translate(4 24)">
<title>Igor::iLoader3DS::readfloat32</title>
<polygon fill="white" stroke="none" points="-4,4 -4,-24 666,-24 666,4 -4,4"/>
<!-- Node73 -->
<g id="node1" class="node"><title>Node73</title>
<g id="a_node1"><a xlink:title=" ">
<polygon fill="#bfbfbf" stroke="black" points="520,-0.5 520,-19.5 662,-19.5 662,-0.5 520,-0.5"/>
<text text-anchor="middle" x="591" y="-7.5" font-family="Helvetica,sans-Serif" font-size="10.00">Igor::iLoader3DS::readfloat32</text>
</a>
</g>
</g>
<!-- Node74 -->
<g id="node2" class="node"><title>Node74</title>
<g id="a_node2"><a xlink:href="class_igor_1_1i_loader3_d_s.html#adc6bfd41b7e33b44ac4689aba4ecc57c" target="_top" xlink:title=" ">
<polygon fill="white" stroke="black" points="347,-0.5 347,-19.5 484,-19.5 484,-0.5 347,-0.5"/>
<text text-anchor="middle" x="415.5" y="-7.5" font-family="Helvetica,sans-Serif" font-size="10.00">Igor::iLoader3DS::readMesh</text>
</a>
</g>
</g>
<!-- Node73&#45;&gt;Node74 -->
<g id="edge1" class="edge"><title>Node73&#45;&gt;Node74</title>
<path fill="none" stroke="midnightblue" d="M509.851,-10C501.212,-10 492.485,-10 484.016,-10"/>
<polygon fill="midnightblue" stroke="midnightblue" points="509.931,-13.5001 519.931,-10 509.931,-6.5001 509.931,-13.5001"/>
</g>
<!-- Node75 -->
<g id="node3" class="node"><title>Node75</title>
<g id="a_node3"><a xlink:href="class_igor_1_1i_loader3_d_s.html#aca0e79310e5d9cf03bef571eab095799" target="_top" xlink:title=" ">
<polygon fill="white" stroke="black" points="164,-0.5 164,-19.5 311,-19.5 311,-0.5 164,-0.5"/>
<text text-anchor="middle" x="237.5" y="-7.5" font-family="Helvetica,sans-Serif" font-size="10.00">Igor::iLoader3DS::analyze3DS</text>
</a>
</g>
</g>
<!-- Node74&#45;&gt;Node75 -->
<g id="edge2" class="edge"><title>Node74&#45;&gt;Node75</title>
<path fill="none" stroke="midnightblue" d="M336.678,-10C328.182,-10 319.557,-10 311.126,-10"/>
<polygon fill="midnightblue" stroke="midnightblue" points="336.957,-13.5001 346.957,-10 336.957,-6.5001 336.957,-13.5001"/>
</g>
<!-- Node76 -->
<g id="node4" class="node"><title>Node76</title>
<g id="a_node4"><a xlink:href="class_igor_1_1i_loader3_d_s.html#a4c261f6da8b9cf51264bb49f0df62718" target="_top" xlink:title=" ">
<polygon fill="white" stroke="black" points="0,-0.5 0,-19.5 128,-19.5 128,-0.5 0,-0.5"/>
<text text-anchor="middle" x="64" y="-7.5" font-family="Helvetica,sans-Serif" font-size="10.00">Igor::iLoader3DS::loadFile</text>
</a>
</g>
</g>
<!-- Node75&#45;&gt;Node76 -->
<g id="edge3" class="edge"><title>Node75&#45;&gt;Node76</title>
<path fill="none" stroke="midnightblue" d="M153.695,-10C145.08,-10 136.426,-10 128.08,-10"/>
<polygon fill="midnightblue" stroke="midnightblue" points="153.769,-13.5001 163.769,-10 153.769,-6.5001 153.769,-13.5001"/>
</g>
</g>
</svg>
