<?xml version="1.0" encoding="UTF-8" standalone="no"?>
<!DOCTYPE svg PUBLIC "-//W3C//DTD SVG 1.1//EN"
 "http://www.w3.org/Graphics/SVG/1.1/DTD/svg11.dtd">
<!-- Generated by graphviz version 2.38.0 (20140413.2041)
 -->
<!-- Title: Igor::iVoxelData::getDensityPole Pages: 1 -->
<svg width="665pt" height="39pt"
 viewBox="0.00 0.00 665.00 39.00" xmlns="http://www.w3.org/2000/svg" xmlns:xlink="http://www.w3.org/1999/xlink">
<g id="graph0" class="graph" transform="scale(1 1) rotate(0) translate(4 35)">
<title>Igor::iVoxelData::getDensityPole</title>
<polygon fill="white" stroke="none" points="-4,4 -4,-35 661,-35 661,4 -4,4"/>
<!-- Node1 -->
<g id="node1" class="node"><title>Node1</title>
<polygon fill="#bfbfbf" stroke="black" points="0,-6 0,-25 158,-25 158,-6 0,-6"/>
<text text-anchor="middle" x="79" y="-13" font-family="Helvetica,sans-Serif" font-size="10.00">Igor::iVoxelData::getDensityPole</text>
</g>
<!-- Node2 -->
<g id="node2" class="node"><title>Node2</title>
<g id="a_node2"><a xlink:href="class_igor_1_1i_contouring_cubes.html#aa71c811ece7e65ac6c61bef8ef0bbc8e" target="_top" xlink:title="Igor::iContouringCubes\l::startClimb">
<polygon fill="white" stroke="black" points="194,-0.5 194,-30.5 309,-30.5 309,-0.5 194,-0.5"/>
<text text-anchor="start" x="202" y="-18.5" font-family="Helvetica,sans-Serif" font-size="10.00">Igor::iContouringCubes</text>
<text text-anchor="middle" x="251.5" y="-7.5" font-family="Helvetica,sans-Serif" font-size="10.00">::startClimb</text>
</a>
</g>
</g>
<!-- Node1&#45;&gt;Node2 -->
<g id="edge1" class="edge"><title>Node1&#45;&gt;Node2</title>
<path fill="none" stroke="midnightblue" d="M168.332,-15.5C176.91,-15.5 185.446,-15.5 193.593,-15.5"/>
<polygon fill="midnightblue" stroke="midnightblue" points="168.264,-12.0001 158.264,-15.5 168.264,-19.0001 168.264,-12.0001"/>
</g>
<!-- Node3 -->
<g id="node3" class="node"><title>Node3</title>
<g id="a_node3"><a xlink:href="class_igor_1_1i_contouring_cubes.html#a0ccd75b3e3d06a8516db1d0e03baec9a" target="_top" xlink:title="Igor::iContouringCubes\l::compile">
<polygon fill="white" stroke="black" points="345,-0.5 345,-30.5 460,-30.5 460,-0.5 345,-0.5"/>
<text text-anchor="start" x="353" y="-18.5" font-family="Helvetica,sans-Serif" font-size="10.00">Igor::iContouringCubes</text>
<text text-anchor="middle" x="402.5" y="-7.5" font-family="Helvetica,sans-Serif" font-size="10.00">::compile</text>
</a>
</g>
</g>
<!-- Node2&#45;&gt;Node3 -->
<g id="edge2" class="edge"><title>Node2&#45;&gt;Node3</title>
<path fill="none" stroke="midnightblue" d="M319.508,-15.5C327.99,-15.5 336.604,-15.5 344.902,-15.5"/>
<polygon fill="midnightblue" stroke="midnightblue" points="319.256,-12.0001 309.256,-15.5 319.256,-19.0001 319.256,-12.0001"/>
</g>
<!-- Node4 -->
<g id="node4" class="node"><title>Node4</title>
<g id="a_node4"><a xlink:href="class_igor_1_1i_voxel_terrain_mesh_generator.html#a573443022d97b40da58a922f413a0326" target="_top" xlink:title="Igor::iVoxelTerrainMeshGenerator\l::importData">
<polygon fill="white" stroke="black" points="496,-0.5 496,-30.5 657,-30.5 657,-0.5 496,-0.5"/>
<text text-anchor="start" x="504" y="-18.5" font-family="Helvetica,sans-Serif" font-size="10.00">Igor::iVoxelTerrainMeshGenerator</text>
<text text-anchor="middle" x="576.5" y="-7.5" font-family="Helvetica,sans-Serif" font-size="10.00">::importData</text>
</a>
</g>
</g>
<!-- Node3&#45;&gt;Node4 -->
<g id="edge3" class="edge"><title>Node3&#45;&gt;Node4</title>
<path fill="none" stroke="midnightblue" d="M470.31,-15.5C478.641,-15.5 487.225,-15.5 495.727,-15.5"/>
<polygon fill="midnightblue" stroke="midnightblue" points="470.296,-12.0001 460.296,-15.5 470.296,-19.0001 470.296,-12.0001"/>
</g>
</g>
</svg>
