<?xml version="1.0" encoding="UTF-8" standalone="no"?>
<!DOCTYPE svg PUBLIC "-//W3C//DTD SVG 1.1//EN"
 "http://www.w3.org/Graphics/SVG/1.1/DTD/svg11.dtd">
<!-- Generated by graphviz version 2.38.0 (20140413.2041)
 -->
<!-- Title: Igor::iView::registerRenderDelegate Pages: 1 -->
<svg width="309pt" height="88pt"
 viewBox="0.00 0.00 309.00 88.00" xmlns="http://www.w3.org/2000/svg" xmlns:xlink="http://www.w3.org/1999/xlink">
<g id="graph0" class="graph" transform="scale(1 1) rotate(0) translate(4 84)">
<title>Igor::iView::registerRenderDelegate</title>
<polygon fill="white" stroke="none" points="-4,4 -4,-84 305,-84 305,4 -4,4"/>
<!-- Node1 -->
<g id="node1" class="node"><title>Node1</title>
<polygon fill="#bfbfbf" stroke="black" points="0,-24.5 0,-54.5 131,-54.5 131,-24.5 0,-24.5"/>
<text text-anchor="start" x="8" y="-42.5" font-family="Helvetica,sans-Serif" font-size="10.00">Igor::iView::registerRender</text>
<text text-anchor="middle" x="65.5" y="-31.5" font-family="Helvetica,sans-Serif" font-size="10.00">Delegate</text>
</g>
<!-- Node2 -->
<g id="node2" class="node"><title>Node2</title>
<g id="a_node2"><a xlink:href="class_widget3_d_emitter.html#a363f3a0acfbb9f55c5bfd54c326f2935" target="_top" xlink:title="Widget3DEmitter::Widget3\lDEmitter">
<polygon fill="white" stroke="black" points="167.5,-49.5 167.5,-79.5 300.5,-79.5 300.5,-49.5 167.5,-49.5"/>
<text text-anchor="start" x="175.5" y="-67.5" font-family="Helvetica,sans-Serif" font-size="10.00">Widget3DEmitter::Widget3</text>
<text text-anchor="middle" x="234" y="-56.5" font-family="Helvetica,sans-Serif" font-size="10.00">DEmitter</text>
</a>
</g>
</g>
<!-- Node1&#45;&gt;Node2 -->
<g id="edge1" class="edge"><title>Node1&#45;&gt;Node2</title>
<path fill="none" stroke="midnightblue" d="M141.389,-50.7446C150.007,-52.0385 158.745,-53.3507 167.23,-54.6247"/>
<polygon fill="midnightblue" stroke="midnightblue" points="141.759,-47.261 131.35,-49.2372 140.719,-54.1834 141.759,-47.261"/>
</g>
<!-- Node3 -->
<g id="node3" class="node"><title>Node3</title>
<g id="a_node3"><a xlink:href="class_widget3_d_locator.html#ae3089c10bd105e2327b5e5342c53b0de" target="_top" xlink:title="Widget3DLocator::Widget3\lDLocator">
<polygon fill="white" stroke="black" points="167,-0.5 167,-30.5 301,-30.5 301,-0.5 167,-0.5"/>
<text text-anchor="start" x="175" y="-18.5" font-family="Helvetica,sans-Serif" font-size="10.00">Widget3DLocator::Widget3</text>
<text text-anchor="middle" x="234" y="-7.5" font-family="Helvetica,sans-Serif" font-size="10.00">DLocator</text>
</a>
</g>
</g>
<!-- Node1&#45;&gt;Node3 -->
<g id="edge2" class="edge"><title>Node1&#45;&gt;Node3</title>
<path fill="none" stroke="midnightblue" d="M141.31,-28.7165C149.861,-27.484 158.531,-26.2343 166.956,-25.0199"/>
<polygon fill="midnightblue" stroke="midnightblue" points="140.748,-25.2613 131.35,-30.1523 141.747,-32.1897 140.748,-25.2613"/>
</g>
</g>
</svg>
