<?xml version="1.0" encoding="UTF-8" standalone="no"?>
<!DOCTYPE svg PUBLIC "-//W3C//DTD SVG 1.1//EN"
 "http://www.w3.org/Graphics/SVG/1.1/DTD/svg11.dtd">
<!-- Generated by graphviz version 2.38.0 (20140413.2041)
 -->
<!-- Title: OBJ2OMPF::convert Pages: 1 -->
<svg width="845pt" height="932pt"
 viewBox="0.00 0.00 845.00 931.50" xmlns="http://www.w3.org/2000/svg" xmlns:xlink="http://www.w3.org/1999/xlink">
<g id="graph0" class="graph" transform="scale(1 1) rotate(0) translate(4 927.5)">
<title>OBJ2OMPF::convert</title>
<polygon fill="white" stroke="none" points="-4,4 -4,-927.5 841,-927.5 841,4 -4,4"/>
<!-- Node1 -->
<g id="node1" class="node"><title>Node1</title>
<polygon fill="#bfbfbf" stroke="black" points="0,-381 0,-400 106,-400 106,-381 0,-381"/>
<text text-anchor="middle" x="53" y="-388" font-family="Helvetica,sans-Serif" font-size="10.00">OBJ2OMPF::convert</text>
</g>
<!-- Node2 -->
<g id="node2" class="node"><title>Node2</title>
<g id="a_node2"><a xlink:href="class_igor_aux_1_1ia_singleton.html#a821f1d891129e6d09b992be81094540e" target="_top" xlink:title="IgorAux::iaSingleton\l\&lt; iMaterialResourceFactory\l \&gt;::getInstance">
<polygon fill="white" stroke="black" points="516.5,-882 516.5,-923 653.5,-923 653.5,-882 516.5,-882"/>
<text text-anchor="start" x="524.5" y="-911" font-family="Helvetica,sans-Serif" font-size="10.00">IgorAux::iaSingleton</text>
<text text-anchor="start" x="524.5" y="-900" font-family="Helvetica,sans-Serif" font-size="10.00">&lt; iMaterialResourceFactory</text>
<text text-anchor="middle" x="585" y="-889" font-family="Helvetica,sans-Serif" font-size="10.00"> &gt;::getInstance</text>
</a>
</g>
</g>
<!-- Node1&#45;&gt;Node2 -->
<g id="edge1" class="edge"><title>Node1&#45;&gt;Node2</title>
<path fill="none" stroke="midnightblue" d="M54.0237,-400.209C55.1785,-445.581 65.5553,-609.685 142,-714.5 226.646,-830.56 403.634,-863.14 506.112,-880.923"/>
<polygon fill="midnightblue" stroke="midnightblue" points="505.644,-884.394 516.095,-882.652 506.84,-877.496 505.644,-884.394"/>
</g>
<!-- Node1&#45;&gt;Node2 -->
<g id="edge6" class="edge"><title>Node1&#45;&gt;Node2</title>
<path fill="none" stroke="midnightblue" d="M53.9028,-400.045C54.1644,-443.497 60.9279,-621.34 142,-732.5 226.646,-848.56 403.634,-881.14 506.112,-893.084"/>
<polygon fill="midnightblue" stroke="midnightblue" points="505.766,-896.567 516.095,-894.211 506.551,-889.611 505.766,-896.567"/>
</g>
<!-- Node1&#45;&gt;Node2 -->
<g id="edge24" class="edge"><title>Node1&#45;&gt;Node2</title>
<path fill="none" stroke="midnightblue" d="M53.9012,-400.069C53.7016,-445.116 57.226,-634.264 142,-750.5 226.561,-866.443 403.277,-899.074 505.801,-905.227"/>
<polygon fill="midnightblue" stroke="midnightblue" points="505.925,-908.738 516.095,-905.77 506.293,-901.748 505.925,-908.738"/>
</g>
<!-- Node1&#45;&gt;Node2 -->
<g id="edge45" class="edge"><title>Node1&#45;&gt;Node2</title>
<path fill="none" stroke="midnightblue" d="M53.9277,-400.245C53.5621,-451.484 54.6347,-648.711 142,-768.5 226.561,-884.443 403.277,-917.074 505.801,-917.406"/>
<polygon fill="midnightblue" stroke="midnightblue" points="506.122,-920.904 516.095,-917.328 506.069,-913.904 506.122,-920.904"/>
</g>
<!-- Node3 -->
<g id="node3" class="node"><title>Node3</title>
<g id="a_node3"><a xlink:href="class_igor_1_1i_material_resource_factory.html#a7f16060265e048a59c11b2a5ef6105cc" target="_top" xlink:title="Igor::iMaterialResourceFactory\l::createMaterial">
<polygon fill="white" stroke="black" points="142,-449.5 142,-479.5 291,-479.5 291,-449.5 142,-449.5"/>
<text text-anchor="start" x="150" y="-467.5" font-family="Helvetica,sans-Serif" font-size="10.00">Igor::iMaterialResourceFactory</text>
<text text-anchor="middle" x="216.5" y="-456.5" font-family="Helvetica,sans-Serif" font-size="10.00">::createMaterial</text>
</a>
</g>
</g>
<!-- Node1&#45;&gt;Node3 -->
<g id="edge2" class="edge"><title>Node1&#45;&gt;Node3</title>
<path fill="none" stroke="midnightblue" d="M68.7808,-400.127C85.8892,-410.974 115.16,-428.638 142,-440.5 146.301,-442.401 150.801,-444.231 155.366,-445.974"/>
<polygon fill="midnightblue" stroke="midnightblue" points="154.188,-449.27 164.782,-449.424 156.596,-442.697 154.188,-449.27"/>
</g>
<!-- Node6 -->
<g id="node6" class="node"><title>Node6</title>
<g id="a_node6"><a xlink:href="class_igor_1_1i_material_resource_factory.html#a51a97edf742ff941daa346679887ee9e" target="_top" xlink:title="Igor::iMaterialResourceFactory\l::getMaterial">
<polygon fill="white" stroke="black" points="142,-400.5 142,-430.5 291,-430.5 291,-400.5 142,-400.5"/>
<text text-anchor="start" x="150" y="-418.5" font-family="Helvetica,sans-Serif" font-size="10.00">Igor::iMaterialResourceFactory</text>
<text text-anchor="middle" x="216.5" y="-407.5" font-family="Helvetica,sans-Serif" font-size="10.00">::getMaterial</text>
</a>
</g>
</g>
<!-- Node1&#45;&gt;Node6 -->
<g id="edge5" class="edge"><title>Node1&#45;&gt;Node6</title>
<path fill="none" stroke="midnightblue" d="M106.434,-398.617C114.577,-399.877 123.159,-401.206 131.787,-402.541"/>
<polygon fill="midnightblue" stroke="midnightblue" points="131.494,-406.038 141.912,-404.109 132.565,-399.12 131.494,-406.038"/>
</g>
<!-- Node7 -->
<g id="node7" class="node"><title>Node7</title>
<g id="a_node7"><a xlink:href="class_igor_1_1i_node_factory.html#acd7e28d04dabd094e46ec96d345106ee" target="_top" xlink:title="Igor::iNodeFactory\l::createNode">
<polygon fill="white" stroke="black" points="168.5,-701.5 168.5,-731.5 264.5,-731.5 264.5,-701.5 168.5,-701.5"/>
<text text-anchor="start" x="176.5" y="-719.5" font-family="Helvetica,sans-Serif" font-size="10.00">Igor::iNodeFactory</text>
<text text-anchor="middle" x="216.5" y="-708.5" font-family="Helvetica,sans-Serif" font-size="10.00">::createNode</text>
</a>
</g>
</g>
<!-- Node1&#45;&gt;Node7 -->
<g id="edge7" class="edge"><title>Node1&#45;&gt;Node7</title>
<path fill="none" stroke="midnightblue" d="M57.8898,-400.086C69.659,-428.884 106.275,-516.997 142,-587.5 160.989,-624.975 185.591,-667.02 200.962,-692.627"/>
<polygon fill="midnightblue" stroke="midnightblue" points="198.018,-694.523 206.18,-701.278 204.012,-690.907 198.018,-694.523"/>
</g>
<!-- Node17 -->
<g id="node17" class="node"><title>Node17</title>
<g id="a_node17"><a xlink:href="class_igor_1_1i_node_model.html#ab731c3500613a31402bb04315a85b524" target="_top" xlink:title="Igor::iNodeModel::setModel">
<polygon fill="white" stroke="black" points="149,-559 149,-578 284,-578 284,-559 149,-559"/>
<text text-anchor="middle" x="216.5" y="-566" font-family="Helvetica,sans-Serif" font-size="10.00">Igor::iNodeModel::setModel</text>
</a>
</g>
</g>
<!-- Node1&#45;&gt;Node17 -->
<g id="edge20" class="edge"><title>Node1&#45;&gt;Node17</title>
<path fill="none" stroke="midnightblue" d="M58.2158,-400.273C69.0466,-424.46 99.9753,-488.009 142,-527.5 153.766,-538.557 169.069,-547.707 182.663,-554.537"/>
<polygon fill="midnightblue" stroke="midnightblue" points="181.206,-557.72 191.736,-558.89 184.234,-551.409 181.206,-557.72"/>
</g>
<!-- Node20 -->
<g id="node20" class="node"><title>Node20</title>
<g id="a_node20"><a xlink:href="class_igor_1_1i_scene_factory.html#aa3734f0023b90d8e9be82dc9d7e08219" target="_top" xlink:title="Igor::iSceneFactory\l::createScene">
<polygon fill="white" stroke="black" points="166,-351.5 166,-381.5 267,-381.5 267,-351.5 166,-351.5"/>
<text text-anchor="start" x="174" y="-369.5" font-family="Helvetica,sans-Serif" font-size="10.00">Igor::iSceneFactory</text>
<text text-anchor="middle" x="216.5" y="-358.5" font-family="Helvetica,sans-Serif" font-size="10.00">::createScene</text>
</a>
</g>
</g>
<!-- Node1&#45;&gt;Node20 -->
<g id="edge25" class="edge"><title>Node1&#45;&gt;Node20</title>
<path fill="none" stroke="midnightblue" d="M106.434,-382.708C122.223,-380.362 139.665,-377.77 155.884,-375.359"/>
<polygon fill="midnightblue" stroke="midnightblue" points="156.421,-378.818 165.798,-373.886 155.392,-371.894 156.421,-378.818"/>
</g>
<!-- Node21 -->
<g id="node21" class="node"><title>Node21</title>
<g id="a_node21"><a xlink:href="class_igor_1_1i_scene.html#ab45a6b64fa3cd065f8434c96432b6f9b" target="_top" xlink:title="Igor::iScene::getRoot">
<polygon fill="white" stroke="black" points="162.5,-313 162.5,-332 270.5,-332 270.5,-313 162.5,-313"/>
<text text-anchor="middle" x="216.5" y="-320" font-family="Helvetica,sans-Serif" font-size="10.00">Igor::iScene::getRoot</text>
</a>
</g>
</g>
<!-- Node1&#45;&gt;Node21 -->
<g id="edge26" class="edge"><title>Node1&#45;&gt;Node21</title>
<path fill="none" stroke="midnightblue" d="M69.0445,-380.872C86.1543,-370.264 115.199,-353.283 142,-342.5 148.995,-339.686 156.52,-337.133 163.992,-334.865"/>
<polygon fill="midnightblue" stroke="midnightblue" points="165.1,-338.188 173.735,-332.049 163.157,-331.463 165.1,-338.188"/>
</g>
<!-- Node22 -->
<g id="node22" class="node"><title>Node22</title>
<g id="a_node22"><a xlink:href="class_igor_1_1i_node.html#a4ce1269afdfb50f10f7b2c10e5aa69e0" target="_top" xlink:title="Igor::iNode::insertNode">
<polygon fill="white" stroke="black" points="158.5,-499 158.5,-518 274.5,-518 274.5,-499 158.5,-499"/>
<text text-anchor="middle" x="216.5" y="-506" font-family="Helvetica,sans-Serif" font-size="10.00">Igor::iNode::insertNode</text>
</a>
</g>
</g>
<!-- Node1&#45;&gt;Node22 -->
<g id="edge27" class="edge"><title>Node1&#45;&gt;Node22</title>
<path fill="none" stroke="midnightblue" d="M59.7084,-400.087C72.0706,-419.985 103.345,-465.877 142,-489.5 145.444,-491.605 149.116,-493.478 152.912,-495.145"/>
<polygon fill="midnightblue" stroke="midnightblue" points="151.955,-498.527 162.544,-498.877 154.484,-492 151.955,-498.527"/>
</g>
<!-- Node35 -->
<g id="node35" class="node"><title>Node35</title>
<g id="a_node35"><a xlink:href="class_igor_1_1i_node.html#a3c78aa85a044adc9797618217f133dc9" target="_top" xlink:title="Igor::iNode::getChild">
<polygon fill="white" stroke="black" points="164.5,-275 164.5,-294 268.5,-294 268.5,-275 164.5,-275"/>
<text text-anchor="middle" x="216.5" y="-282" font-family="Helvetica,sans-Serif" font-size="10.00">Igor::iNode::getChild</text>
</a>
</g>
</g>
<!-- Node1&#45;&gt;Node35 -->
<g id="edge44" class="edge"><title>Node1&#45;&gt;Node35</title>
<path fill="none" stroke="midnightblue" d="M61.0241,-380.724C74.5643,-362.619 106.129,-323.864 142,-303.5 145.976,-301.243 150.224,-299.249 154.597,-297.488"/>
<polygon fill="midnightblue" stroke="midnightblue" points="156.088,-300.671 164.313,-293.993 153.719,-294.084 156.088,-300.671"/>
</g>
<!-- Node36 -->
<g id="node36" class="node"><title>Node36</title>
<g id="a_node36"><a xlink:href="class_igor_1_1i_model_resource_factory.html#a43d07adb8bc7e0c540b43ccb435c8d96" target="_top" xlink:title="Igor::iModelResourceFactory\l::flush">
<polygon fill="white" stroke="black" points="146,-225.5 146,-255.5 287,-255.5 287,-225.5 146,-225.5"/>
<text text-anchor="start" x="154" y="-243.5" font-family="Helvetica,sans-Serif" font-size="10.00">Igor::iModelResourceFactory</text>
<text text-anchor="middle" x="216.5" y="-232.5" font-family="Helvetica,sans-Serif" font-size="10.00">::flush</text>
</a>
</g>
</g>
<!-- Node1&#45;&gt;Node36 -->
<g id="edge46" class="edge"><title>Node1&#45;&gt;Node36</title>
<path fill="none" stroke="midnightblue" d="M58.208,-380.797C68.8076,-357.469 98.8711,-297.788 142,-265.5 144.509,-263.622 147.168,-261.879 149.93,-260.262"/>
<polygon fill="midnightblue" stroke="midnightblue" points="151.789,-263.239 159.04,-255.514 148.554,-257.032 151.789,-263.239"/>
</g>
<!-- Node40 -->
<g id="node40" class="node"><title>Node40</title>
<g id="a_node40"><a xlink:href="class_igor_1_1i_scene.html#a9d83cabbbcad0834badd2e6cd8b78db5" target="_top" xlink:title="Igor::iScene::handle">
<polygon fill="white" stroke="black" points="165,-187 165,-206 268,-206 268,-187 165,-187"/>
<text text-anchor="middle" x="216.5" y="-194" font-family="Helvetica,sans-Serif" font-size="10.00">Igor::iScene::handle</text>
</a>
</g>
</g>
<!-- Node1&#45;&gt;Node40 -->
<g id="edge51" class="edge"><title>Node1&#45;&gt;Node40</title>
<path fill="none" stroke="midnightblue" d="M55.9327,-380.78C62.3633,-351.076 85.892,-260.772 142,-215.5 146.063,-212.222 150.628,-209.503 155.443,-207.249"/>
<polygon fill="midnightblue" stroke="midnightblue" points="156.949,-210.417 164.943,-203.464 154.358,-203.914 156.949,-210.417"/>
</g>
<!-- Node41 -->
<g id="node41" class="node"><title>Node41</title>
<g id="a_node41"><a xlink:href="class_igor_1_1i_material_resource_factory.html#a470b7c06bcad28ef79917ae30d58fabe" target="_top" xlink:title="Igor::iMaterialResourceFactory\l::getSortedMaterials">
<polygon fill="white" stroke="black" points="142,-137.5 142,-167.5 291,-167.5 291,-137.5 142,-137.5"/>
<text text-anchor="start" x="150" y="-155.5" font-family="Helvetica,sans-Serif" font-size="10.00">Igor::iMaterialResourceFactory</text>
<text text-anchor="middle" x="216.5" y="-144.5" font-family="Helvetica,sans-Serif" font-size="10.00">::getSortedMaterials</text>
</a>
</g>
</g>
<!-- Node1&#45;&gt;Node41 -->
<g id="edge52" class="edge"><title>Node1&#45;&gt;Node41</title>
<path fill="none" stroke="midnightblue" d="M55.1573,-380.855C59.6539,-347.615 78.9676,-236.626 142,-177.5 143.677,-175.927 145.458,-174.452 147.32,-173.07"/>
<polygon fill="midnightblue" stroke="midnightblue" points="149.384,-175.905 155.941,-167.583 145.626,-169.999 149.384,-175.905"/>
</g>
<!-- Node42 -->
<g id="node42" class="node"><title>Node42</title>
<g id="a_node42"><a xlink:href="class_igor_1_1i_node.html#a48469e19c040925b4937a2b26ca3e978" target="_top" xlink:title="Igor::iNode::getChildren">
<polygon fill="white" stroke="black" points="157.5,-99 157.5,-118 275.5,-118 275.5,-99 157.5,-99"/>
<text text-anchor="middle" x="216.5" y="-106" font-family="Helvetica,sans-Serif" font-size="10.00">Igor::iNode::getChildren</text>
</a>
</g>
</g>
<!-- Node1&#45;&gt;Node42 -->
<g id="edge53" class="edge"><title>Node1&#45;&gt;Node42</title>
<path fill="none" stroke="midnightblue" d="M54.1278,-380.907C55.1785,-342.696 64.351,-199.901 142,-127.5 143.94,-125.691 146.029,-124.049 148.232,-122.559"/>
<polygon fill="midnightblue" stroke="midnightblue" points="150.199,-125.47 157.218,-117.534 146.782,-119.36 150.199,-125.47"/>
</g>
<!-- Node43 -->
<g id="node43" class="node"><title>Node43</title>
<g id="a_node43"><a xlink:href="class_igor_1_1i_model_resource_factory.html#aa57fd26de32bd67598256e6d1de15e79" target="_top" xlink:title="Igor::iModelResourceFactory\l::exportModelData">
<polygon fill="white" stroke="black" points="146,-49.5 146,-79.5 287,-79.5 287,-49.5 146,-49.5"/>
<text text-anchor="start" x="154" y="-67.5" font-family="Helvetica,sans-Serif" font-size="10.00">Igor::iModelResourceFactory</text>
<text text-anchor="middle" x="216.5" y="-56.5" font-family="Helvetica,sans-Serif" font-size="10.00">::exportModelData</text>
</a>
</g>
</g>
<!-- Node1&#45;&gt;Node43 -->
<g id="edge54" class="edge"><title>Node1&#45;&gt;Node43</title>
<path fill="none" stroke="midnightblue" d="M53.8225,-380.881C53.598,-339.777 58.2219,-176.998 142,-89.5 143.398,-88.0397 144.885,-86.6647 146.445,-85.37"/>
<polygon fill="midnightblue" stroke="midnightblue" points="148.593,-88.1391 154.786,-79.5428 144.584,-82.4008 148.593,-88.1391"/>
</g>
<!-- Node48 -->
<g id="node48" class="node"><title>Node48</title>
<g id="a_node48"><a xlink:href="class_igor_1_1i_scene_factory.html#a1f7905d5266282ed8267622abfef33eb" target="_top" xlink:title="Igor::iSceneFactory\l::destroyScene">
<polygon fill="white" stroke="black" points="166,-0.5 166,-30.5 267,-30.5 267,-0.5 166,-0.5"/>
<text text-anchor="start" x="174" y="-18.5" font-family="Helvetica,sans-Serif" font-size="10.00">Igor::iSceneFactory</text>
<text text-anchor="middle" x="216.5" y="-7.5" font-family="Helvetica,sans-Serif" font-size="10.00">::destroyScene</text>
</a>
</g>
</g>
<!-- Node1&#45;&gt;Node48 -->
<g id="edge59" class="edge"><title>Node1&#45;&gt;Node48</title>
<path fill="none" stroke="midnightblue" d="M55.1751,-380.702C61.5135,-329.376 93.1601,-91.8824 142,-39.5 146.105,-35.0972 151.027,-31.5005 156.354,-28.5625"/>
<polygon fill="midnightblue" stroke="midnightblue" points="158.061,-31.6282 165.629,-24.214 155.089,-25.2903 158.061,-31.6282"/>
</g>
<!-- Node4 -->
<g id="node4" class="node"><title>Node4</title>
<g id="a_node4"><a xlink:href="class_igor_1_1i_material.html#a6f3811f8c17023644055d11665ff8504" target="_top" xlink:title="Igor::iMaterial::setName">
<polygon fill="white" stroke="black" points="340,-335 340,-354 460,-354 460,-335 340,-335"/>
<text text-anchor="middle" x="400" y="-342" font-family="Helvetica,sans-Serif" font-size="10.00">Igor::iMaterial::setName</text>
</a>
</g>
</g>
<!-- Node3&#45;&gt;Node4 -->
<g id="edge3" class="edge"><title>Node3&#45;&gt;Node4</title>
<path fill="none" stroke="midnightblue" d="M277.952,-449.481C282.648,-446.939 287.08,-443.97 291,-440.5 319.288,-415.461 298.002,-387.714 327,-363.5 329.04,-361.796 331.218,-360.243 333.496,-358.829"/>
<polygon fill="midnightblue" stroke="midnightblue" points="335.463,-361.751 342.715,-354.027 332.229,-355.542 335.463,-361.751"/>
</g>
<!-- Node5 -->
<g id="node5" class="node"><title>Node5</title>
<g id="a_node5"><a xlink:href="class_igor_1_1i_material.html#a96a6a781d02097245f4a04a7e1f2be8d" target="_top" xlink:title="Igor::iMaterial::getID">
<polygon fill="white" stroke="black" points="348,-297 348,-316 452,-316 452,-297 348,-297"/>
<text text-anchor="middle" x="400" y="-304" font-family="Helvetica,sans-Serif" font-size="10.00">Igor::iMaterial::getID</text>
</a>
</g>
</g>
<!-- Node3&#45;&gt;Node5 -->
<g id="edge4" class="edge"><title>Node3&#45;&gt;Node5</title>
<path fill="none" stroke="midnightblue" d="M279.524,-449.407C283.709,-446.883 287.604,-443.938 291,-440.5 328.638,-402.399 288.28,-362.502 327,-325.5 330.496,-322.159 334.508,-319.389 338.81,-317.094"/>
<polygon fill="midnightblue" stroke="midnightblue" points="340.259,-320.28 347.975,-313.02 337.416,-313.883 340.259,-320.28"/>
</g>
<!-- Node8 -->
<g id="node8" class="node"><title>Node8</title>
<g id="a_node8"><a xlink:href="namespace_igor.html#abdbfa48a19f5bf62aca91d60d68662ee" target="_top" xlink:title="Igor::iNodeMesh">
<polygon fill="white" stroke="black" points="356.5,-828 356.5,-847 443.5,-847 443.5,-828 356.5,-828"/>
<text text-anchor="middle" x="400" y="-835" font-family="Helvetica,sans-Serif" font-size="10.00">Igor::iNodeMesh</text>
</a>
</g>
</g>
<!-- Node7&#45;&gt;Node8 -->
<g id="edge8" class="edge"><title>Node7&#45;&gt;Node8</title>
<path fill="none" stroke="midnightblue" d="M240.12,-731.58C274.839,-754.726 340.909,-798.773 375.909,-822.106"/>
<polygon fill="midnightblue" stroke="midnightblue" points="374.241,-825.2 384.503,-827.835 378.124,-819.376 374.241,-825.2"/>
</g>
<!-- Node10 -->
<g id="node10" class="node"><title>Node10</title>
<g id="a_node10"><a xlink:href="namespace_igor.html#a0964db13b4af0a08fcac87ec45f28dbc" target="_top" xlink:title="Igor::iNodePhysics">
<polygon fill="white" stroke="black" points="351,-745 351,-764 449,-764 449,-745 351,-745"/>
<text text-anchor="middle" x="400" y="-752" font-family="Helvetica,sans-Serif" font-size="10.00">Igor::iNodePhysics</text>
</a>
</g>
</g>
<!-- Node7&#45;&gt;Node10 -->
<g id="edge11" class="edge"><title>Node7&#45;&gt;Node10</title>
<path fill="none" stroke="midnightblue" d="M264.713,-726.385C288.915,-731.452 318.53,-737.652 343.785,-742.94"/>
<polygon fill="midnightblue" stroke="midnightblue" points="343.084,-746.369 353.589,-744.992 344.518,-739.517 343.084,-746.369"/>
</g>
<!-- Node16 -->
<g id="node16" class="node"><title>Node16</title>
<g id="a_node16"><a xlink:href="class_igor_1_1i_node.html#a865efb791b77d29bb489514326037380" target="_top" xlink:title="Igor::iNode::getID">
<polygon fill="white" stroke="black" points="721,-625 721,-644 813,-644 813,-625 721,-625"/>
<text text-anchor="middle" x="767" y="-632" font-family="Helvetica,sans-Serif" font-size="10.00">Igor::iNode::getID</text>
</a>
</g>
</g>
<!-- Node7&#45;&gt;Node16 -->
<g id="edge19" class="edge"><title>Node7&#45;&gt;Node16</title>
<path fill="none" stroke="midnightblue" d="M264.688,-712.094C346.005,-704.132 517.625,-685.706 661,-659.5 680.597,-655.918 702.026,-651 720.385,-646.473"/>
<polygon fill="midnightblue" stroke="midnightblue" points="721.386,-649.83 730.238,-644.009 719.687,-643.039 721.386,-649.83"/>
</g>
<!-- Node8&#45;&gt;Node2 -->
<g id="edge9" class="edge"><title>Node8&#45;&gt;Node2</title>
<path fill="none" stroke="midnightblue" d="M430.499,-847.096C443.555,-851.404 459.077,-856.609 473,-861.5 488.249,-866.856 504.608,-872.792 519.955,-878.446"/>
<polygon fill="midnightblue" stroke="midnightblue" points="518.768,-881.739 529.361,-881.922 521.195,-875.173 518.768,-881.739"/>
</g>
<!-- Node9 -->
<g id="node9" class="node"><title>Node9</title>
<g id="a_node9"><a xlink:href="class_igor_1_1i_material_resource_factory.html#a55ee78b1783c8787a374907fe17f3d01" target="_top" xlink:title="Igor::iMaterialResourceFactory\l::createTargetMaterial">
<polygon fill="white" stroke="black" points="510.5,-832.5 510.5,-862.5 659.5,-862.5 659.5,-832.5 510.5,-832.5"/>
<text text-anchor="start" x="518.5" y="-850.5" font-family="Helvetica,sans-Serif" font-size="10.00">Igor::iMaterialResourceFactory</text>
<text text-anchor="middle" x="585" y="-839.5" font-family="Helvetica,sans-Serif" font-size="10.00">::createTargetMaterial</text>
</a>
</g>
</g>
<!-- Node8&#45;&gt;Node9 -->
<g id="edge10" class="edge"><title>Node8&#45;&gt;Node9</title>
<path fill="none" stroke="midnightblue" d="M443.905,-839.845C460.728,-840.764 480.638,-841.852 500.088,-842.915"/>
<polygon fill="midnightblue" stroke="midnightblue" points="500.022,-846.416 510.198,-843.467 500.404,-839.427 500.022,-846.416"/>
</g>
<!-- Node10&#45;&gt;Node2 -->
<g id="edge12" class="edge"><title>Node10&#45;&gt;Node2</title>
<path fill="none" stroke="midnightblue" d="M413.598,-764.054C428.71,-775.867 454.337,-797.052 473,-818.5 491.934,-840.26 486.601,-854.326 509,-872.5 510.593,-873.792 512.248,-875.035 513.954,-876.229"/>
<polygon fill="midnightblue" stroke="midnightblue" points="512.515,-879.458 522.846,-881.805 516.234,-873.527 512.515,-879.458"/>
</g>
<!-- Node11 -->
<g id="node11" class="node"><title>Node11</title>
<g id="a_node11"><a xlink:href="class_igor_1_1i_physics.html#a90dcd82ece96f39ec61120a36e15ff18" target="_top" xlink:title="Igor::iPhysics::createCollision\lConfig">
<polygon fill="white" stroke="black" points="512,-783.5 512,-813.5 658,-813.5 658,-783.5 512,-783.5"/>
<text text-anchor="start" x="520" y="-801.5" font-family="Helvetica,sans-Serif" font-size="10.00">Igor::iPhysics::createCollision</text>
<text text-anchor="middle" x="585" y="-790.5" font-family="Helvetica,sans-Serif" font-size="10.00">Config</text>
</a>
</g>
</g>
<!-- Node10&#45;&gt;Node11 -->
<g id="edge13" class="edge"><title>Node10&#45;&gt;Node11</title>
<path fill="none" stroke="midnightblue" d="M440.708,-764.047C461.404,-769.023 487.37,-775.267 511.494,-781.067"/>
<polygon fill="midnightblue" stroke="midnightblue" points="510.801,-784.5 521.342,-783.435 512.437,-777.694 510.801,-784.5"/>
</g>
<!-- Node13 -->
<g id="node13" class="node"><title>Node13</title>
<g id="a_node13"><a xlink:href="class_igor_1_1i_physics_collision_config.html#a358488967c0a81c0b613972334363a09" target="_top" xlink:title="Igor::iPhysicsCollisionConfig\l::getID">
<polygon fill="white" stroke="black" points="697,-739.5 697,-769.5 837,-769.5 837,-739.5 697,-739.5"/>
<text text-anchor="start" x="705" y="-757.5" font-family="Helvetica,sans-Serif" font-size="10.00">Igor::iPhysicsCollisionConfig</text>
<text text-anchor="middle" x="767" y="-746.5" font-family="Helvetica,sans-Serif" font-size="10.00">::getID</text>
</a>
</g>
</g>
<!-- Node10&#45;&gt;Node13 -->
<g id="edge17" class="edge"><title>Node10&#45;&gt;Node13</title>
<path fill="none" stroke="midnightblue" d="M449.093,-754.5C509.519,-754.5 614.057,-754.5 686.461,-754.5"/>
<polygon fill="midnightblue" stroke="midnightblue" points="686.901,-758 696.901,-754.5 686.901,-751 686.901,-758"/>
</g>
<!-- Node15 -->
<g id="node15" class="node"><title>Node15</title>
<g id="a_node15"><a xlink:href="namespace_igor.html#a658bed0072edfc04099eb827d1cfb6ba" target="_top" xlink:title="Igor::setMaterial">
<polygon fill="white" stroke="black" points="542,-707 542,-726 628,-726 628,-707 542,-707"/>
<text text-anchor="middle" x="585" y="-714" font-family="Helvetica,sans-Serif" font-size="10.00">Igor::setMaterial</text>
</a>
</g>
</g>
<!-- Node10&#45;&gt;Node15 -->
<g id="edge18" class="edge"><title>Node10&#45;&gt;Node15</title>
<path fill="none" stroke="midnightblue" d="M447.179,-744.911C472.998,-739.55 505.259,-732.851 531.968,-727.304"/>
<polygon fill="midnightblue" stroke="midnightblue" points="532.829,-730.7 541.908,-725.24 531.406,-723.847 532.829,-730.7"/>
</g>
<!-- Node12 -->
<g id="node12" class="node"><title>Node12</title>
<g id="a_node12"><a xlink:href="class_igor_aux_1_1ia_mutex.html#ab0873c1f25730bd85d6b71d167520921" target="_top" xlink:title="IgorAux::iaMutex::lock">
<polygon fill="white" stroke="black" points="710,-827 710,-846 824,-846 824,-827 710,-827"/>
<text text-anchor="middle" x="767" y="-834" font-family="Helvetica,sans-Serif" font-size="10.00">IgorAux::iaMutex::lock</text>
</a>
</g>
</g>
<!-- Node11&#45;&gt;Node12 -->
<g id="edge14" class="edge"><title>Node11&#45;&gt;Node12</title>
<path fill="none" stroke="midnightblue" d="M657.141,-813.519C674.963,-817.281 693.817,-821.261 710.737,-824.833"/>
<polygon fill="midnightblue" stroke="midnightblue" points="710.488,-828.358 720.996,-826.999 711.934,-821.509 710.488,-828.358"/>
</g>
<!-- Node11&#45;&gt;Node13 -->
<g id="edge15" class="edge"><title>Node11&#45;&gt;Node13</title>
<path fill="none" stroke="midnightblue" d="M647.442,-783.481C662.564,-779.784 678.885,-775.795 694.439,-771.993"/>
<polygon fill="midnightblue" stroke="midnightblue" points="695.646,-775.301 704.529,-769.526 693.984,-768.501 695.646,-775.301"/>
</g>
<!-- Node14 -->
<g id="node14" class="node"><title>Node14</title>
<g id="a_node14"><a xlink:href="class_igor_aux_1_1ia_mutex.html#a3beb078a1f64de265044ece54657c279" target="_top" xlink:title="IgorAux::iaMutex::unlock">
<polygon fill="white" stroke="black" points="704.5,-789 704.5,-808 829.5,-808 829.5,-789 704.5,-789"/>
<text text-anchor="middle" x="767" y="-796" font-family="Helvetica,sans-Serif" font-size="10.00">IgorAux::iaMutex::unlock</text>
</a>
</g>
</g>
<!-- Node11&#45;&gt;Node14 -->
<g id="edge16" class="edge"><title>Node11&#45;&gt;Node14</title>
<path fill="none" stroke="midnightblue" d="M658.176,-798.5C669.977,-798.5 682.204,-798.5 694.001,-798.5"/>
<polygon fill="midnightblue" stroke="midnightblue" points="694.235,-802 704.235,-798.5 694.235,-795 694.235,-802"/>
</g>
<!-- Node18 -->
<g id="node18" class="node"><title>Node18</title>
<g id="a_node18"><a xlink:href="class_igor_1_1i_node.html#a7f855c2164f9fc704210c7510afd0a9c" target="_top" xlink:title="Igor::iNode::setDataDirty">
<polygon fill="white" stroke="black" points="338.5,-603 338.5,-622 461.5,-622 461.5,-603 338.5,-603"/>
<text text-anchor="middle" x="400" y="-610" font-family="Helvetica,sans-Serif" font-size="10.00">Igor::iNode::setDataDirty</text>
</a>
</g>
</g>
<!-- Node17&#45;&gt;Node18 -->
<g id="edge21" class="edge"><title>Node17&#45;&gt;Node18</title>
<path fill="none" stroke="midnightblue" d="M256.883,-578.047C284.116,-584.649 320.55,-593.482 349.71,-600.551"/>
<polygon fill="midnightblue" stroke="midnightblue" points="349.151,-604.017 359.694,-602.971 350.8,-597.214 349.151,-604.017"/>
</g>
<!-- Node19 -->
<g id="node19" class="node"><title>Node19</title>
<g id="a_node19"><a xlink:href="class_igor_1_1i_scene.html#acfca34eaff8314fd5edb894074abbe88" target="_top" xlink:title="Igor::iScene::addToDataUpdate\lQueue">
<polygon fill="white" stroke="black" points="509,-619.5 509,-649.5 661,-649.5 661,-619.5 509,-619.5"/>
<text text-anchor="start" x="517" y="-637.5" font-family="Helvetica,sans-Serif" font-size="10.00">Igor::iScene::addToDataUpdate</text>
<text text-anchor="middle" x="585" y="-626.5" font-family="Helvetica,sans-Serif" font-size="10.00">Queue</text>
</a>
</g>
</g>
<!-- Node18&#45;&gt;Node19 -->
<g id="edge22" class="edge"><title>Node18&#45;&gt;Node19</title>
<path fill="none" stroke="midnightblue" d="M461.682,-619.795C473.586,-621.226 486.278,-622.752 498.811,-624.259"/>
<polygon fill="midnightblue" stroke="midnightblue" points="498.464,-627.742 508.81,-625.461 499.3,-620.792 498.464,-627.742"/>
</g>
<!-- Node19&#45;&gt;Node16 -->
<g id="edge23" class="edge"><title>Node19&#45;&gt;Node16</title>
<path fill="none" stroke="midnightblue" d="M661.033,-634.5C677.729,-634.5 695.133,-634.5 710.858,-634.5"/>
<polygon fill="midnightblue" stroke="midnightblue" points="710.925,-638 720.925,-634.5 710.924,-631 710.925,-638"/>
</g>
<!-- Node23 -->
<g id="node23" class="node"><title>Node23</title>
<g id="a_node23"><a xlink:href="class_igor_1_1i_node.html#afcf6efd30c85e8c37a4261a6f27613b8" target="_top" xlink:title="Igor::iNode::isChild">
<polygon fill="white" stroke="black" points="536,-291 536,-310 634,-310 634,-291 536,-291"/>
<text text-anchor="middle" x="585" y="-298" font-family="Helvetica,sans-Serif" font-size="10.00">Igor::iNode::isChild</text>
</a>
</g>
</g>
<!-- Node22&#45;&gt;Node23 -->
<g id="edge28" class="edge"><title>Node22&#45;&gt;Node23</title>
<path fill="none" stroke="midnightblue" d="M274.642,-498.956C345.478,-486.638 458.677,-465.168 473,-451.5 516.992,-409.518 465.613,-362.107 509,-319.5 513.894,-314.694 519.819,-311.05 526.17,-308.294"/>
<polygon fill="midnightblue" stroke="midnightblue" points="527.484,-311.541 535.708,-304.862 525.114,-304.955 527.484,-311.541"/>
</g>
<!-- Node24 -->
<g id="node24" class="node"><title>Node24</title>
<g id="a_node24"><a xlink:href="class_igor_1_1i_node.html#adbeb716577ae857dc4274e8285dd94fe" target="_top" xlink:title="Igor::iNode::setParent">
<polygon fill="white" stroke="black" points="344.5,-373 344.5,-392 455.5,-392 455.5,-373 344.5,-373"/>
<text text-anchor="middle" x="400" y="-380" font-family="Helvetica,sans-Serif" font-size="10.00">Igor::iNode::setParent</text>
</a>
</g>
</g>
<!-- Node22&#45;&gt;Node24 -->
<g id="edge29" class="edge"><title>Node22&#45;&gt;Node24</title>
<path fill="none" stroke="midnightblue" d="M274.762,-499.474C280.658,-496.913 286.226,-493.651 291,-489.5 322.578,-462.042 295.67,-430.24 327,-402.5 329.525,-400.264 332.281,-398.276 335.193,-396.508"/>
<polygon fill="midnightblue" stroke="midnightblue" points="337.015,-399.507 344.327,-391.84 333.83,-393.274 337.015,-399.507"/>
</g>
<!-- Node25 -->
<g id="node25" class="node"><title>Node25</title>
<g id="a_node25"><a xlink:href="class_igor_1_1i_node.html#a0392b6251631e79675f7416827335b70" target="_top" xlink:title="Igor::iNode::setScene">
<polygon fill="white" stroke="black" points="345,-499 345,-518 455,-518 455,-499 345,-499"/>
<text text-anchor="middle" x="400" y="-506" font-family="Helvetica,sans-Serif" font-size="10.00">Igor::iNode::setScene</text>
</a>
</g>
</g>
<!-- Node22&#45;&gt;Node25 -->
<g id="edge30" class="edge"><title>Node22&#45;&gt;Node25</title>
<path fill="none" stroke="midnightblue" d="M274.928,-508.5C293.942,-508.5 315.223,-508.5 334.718,-508.5"/>
<polygon fill="midnightblue" stroke="midnightblue" points="334.728,-512 344.728,-508.5 334.728,-505 334.728,-512"/>
</g>
<!-- Node32 -->
<g id="node32" class="node"><title>Node32</title>
<g id="a_node32"><a xlink:href="class_igor_1_1i_node.html#a3be538d0d60b148b1eae5cd5892d279d" target="_top" xlink:title="Igor::iNode::setTransformation\lDirty">
<polygon fill="white" stroke="black" points="327,-411.5 327,-441.5 473,-441.5 473,-411.5 327,-411.5"/>
<text text-anchor="start" x="335" y="-429.5" font-family="Helvetica,sans-Serif" font-size="10.00">Igor::iNode::setTransformation</text>
<text text-anchor="middle" x="400" y="-418.5" font-family="Helvetica,sans-Serif" font-size="10.00">Dirty</text>
</a>
</g>
</g>
<!-- Node22&#45;&gt;Node32 -->
<g id="edge38" class="edge"><title>Node22&#45;&gt;Node32</title>
<path fill="none" stroke="midnightblue" d="M268.171,-498.9C276.063,-496.423 283.935,-493.336 291,-489.5 310.074,-479.143 308.707,-468.183 327,-456.5 333.12,-452.591 339.835,-449.004 346.628,-445.774"/>
<polygon fill="midnightblue" stroke="midnightblue" points="348.214,-448.899 355.89,-441.596 345.336,-442.518 348.214,-448.899"/>
</g>
<!-- Node25&#45;&gt;Node16 -->
<g id="edge33" class="edge"><title>Node25&#45;&gt;Node16</title>
<path fill="none" stroke="midnightblue" d="M414.658,-518.217C434.528,-531.937 472.978,-556.935 509,-571.5 527.977,-579.173 645.106,-606.7 714.516,-622.716"/>
<polygon fill="midnightblue" stroke="midnightblue" points="713.862,-626.157 724.393,-624.991 715.434,-619.335 713.862,-626.157"/>
</g>
<!-- Node26 -->
<g id="node26" class="node"><title>Node26</title>
<g id="a_node26"><a xlink:href="class_igor_1_1i_node.html#aa8934442e897cfdf775264f161c69143" target="_top" xlink:title="Igor::iNode::onPreSetScene">
<polygon fill="white" stroke="black" points="516.5,-543 516.5,-562 653.5,-562 653.5,-543 516.5,-543"/>
<text text-anchor="middle" x="585" y="-550" font-family="Helvetica,sans-Serif" font-size="10.00">Igor::iNode::onPreSetScene</text>
</a>
</g>
</g>
<!-- Node25&#45;&gt;Node26 -->
<g id="edge31" class="edge"><title>Node25&#45;&gt;Node26</title>
<path fill="none" stroke="midnightblue" d="M440.708,-518.047C468.166,-524.649 504.902,-533.482 534.303,-540.551"/>
<polygon fill="midnightblue" stroke="midnightblue" points="533.828,-544.036 544.369,-542.971 535.465,-537.23 533.828,-544.036"/>
</g>
<!-- Node27 -->
<g id="node27" class="node"><title>Node27</title>
<g id="a_node27"><a xlink:href="class_igor_1_1i_scene.html#aadee04cec2c19e6de83645d9de7e614f" target="_top" xlink:title="Igor::iScene::signalNode\lRemoved">
<polygon fill="white" stroke="black" points="524,-493.5 524,-523.5 646,-523.5 646,-493.5 524,-493.5"/>
<text text-anchor="start" x="532" y="-511.5" font-family="Helvetica,sans-Serif" font-size="10.00">Igor::iScene::signalNode</text>
<text text-anchor="middle" x="585" y="-500.5" font-family="Helvetica,sans-Serif" font-size="10.00">Removed</text>
</a>
</g>
</g>
<!-- Node25&#45;&gt;Node27 -->
<g id="edge32" class="edge"><title>Node25&#45;&gt;Node27</title>
<path fill="none" stroke="midnightblue" d="M455.411,-508.5C473.629,-508.5 494.21,-508.5 513.478,-508.5"/>
<polygon fill="midnightblue" stroke="midnightblue" points="513.719,-512 523.718,-508.5 513.718,-505 513.719,-512"/>
</g>
<!-- Node28 -->
<g id="node28" class="node"><title>Node28</title>
<g id="a_node28"><a xlink:href="class_igor_1_1i_scene.html#af975e601d89386f2ef11745ecb831870" target="_top" xlink:title="Igor::iScene::getName">
<polygon fill="white" stroke="black" points="528.5,-455 528.5,-474 641.5,-474 641.5,-455 528.5,-455"/>
<text text-anchor="middle" x="585" y="-462" font-family="Helvetica,sans-Serif" font-size="10.00">Igor::iScene::getName</text>
</a>
</g>
</g>
<!-- Node25&#45;&gt;Node28 -->
<g id="edge34" class="edge"><title>Node25&#45;&gt;Node28</title>
<path fill="none" stroke="midnightblue" d="M440.708,-498.953C468.166,-492.351 504.902,-483.518 534.303,-476.449"/>
<polygon fill="midnightblue" stroke="midnightblue" points="535.465,-479.77 544.369,-474.029 533.828,-472.964 535.465,-479.77"/>
</g>
<!-- Node29 -->
<g id="node29" class="node"><title>Node29</title>
<g id="a_node29"><a xlink:href="class_igor_1_1i_node.html#aa13a0c809d3f0bb17baf52917d04aff0" target="_top" xlink:title="Igor::iNode::hasChildren">
<polygon fill="white" stroke="black" points="525,-417 525,-436 645,-436 645,-417 525,-417"/>
<text text-anchor="middle" x="585" y="-424" font-family="Helvetica,sans-Serif" font-size="10.00">Igor::iNode::hasChildren</text>
</a>
</g>
</g>
<!-- Node25&#45;&gt;Node29 -->
<g id="edge35" class="edge"><title>Node25&#45;&gt;Node29</title>
<path fill="none" stroke="midnightblue" d="M441.491,-498.94C452.233,-495.375 463.482,-490.649 473,-484.5 492.814,-471.7 488.728,-457.562 509,-445.5 512.636,-443.336 516.513,-441.418 520.516,-439.716"/>
<polygon fill="midnightblue" stroke="midnightblue" points="521.911,-442.931 530.033,-436.127 519.441,-436.381 521.911,-442.931"/>
</g>
<!-- Node30 -->
<g id="node30" class="node"><title>Node30</title>
<g id="a_node30"><a xlink:href="class_igor_1_1i_node.html#af5a14599bd4dc62d1534865c8a306e8e" target="_top" xlink:title="Igor::iNode::onPostSetScene">
<polygon fill="white" stroke="black" points="513.5,-379 513.5,-398 656.5,-398 656.5,-379 513.5,-379"/>
<text text-anchor="middle" x="585" y="-386" font-family="Helvetica,sans-Serif" font-size="10.00">Igor::iNode::onPostSetScene</text>
</a>
</g>
</g>
<!-- Node25&#45;&gt;Node30 -->
<g id="edge36" class="edge"><title>Node25&#45;&gt;Node30</title>
<path fill="none" stroke="midnightblue" d="M448.138,-498.906C457.121,-495.468 465.916,-490.81 473,-484.5 501.211,-459.375 479.883,-431.57 509,-407.5 511.038,-405.815 513.206,-404.277 515.473,-402.873"/>
<polygon fill="midnightblue" stroke="midnightblue" points="517.384,-405.824 524.632,-398.096 514.147,-399.617 517.384,-405.824"/>
</g>
<!-- Node31 -->
<g id="node31" class="node"><title>Node31</title>
<g id="a_node31"><a xlink:href="class_igor_1_1i_scene.html#a61c6f27b83ccdfbfdc1b7ee02d2fcc21" target="_top" xlink:title="Igor::iScene::signalNode\lAdded">
<polygon fill="white" stroke="black" points="524,-329.5 524,-359.5 646,-359.5 646,-329.5 524,-329.5"/>
<text text-anchor="start" x="532" y="-347.5" font-family="Helvetica,sans-Serif" font-size="10.00">Igor::iScene::signalNode</text>
<text text-anchor="middle" x="585" y="-336.5" font-family="Helvetica,sans-Serif" font-size="10.00">Added</text>
</a>
</g>
</g>
<!-- Node25&#45;&gt;Node31 -->
<g id="edge37" class="edge"><title>Node25&#45;&gt;Node31</title>
<path fill="none" stroke="midnightblue" d="M450.673,-498.872C458.936,-495.445 466.815,-490.799 473,-484.5 510.521,-446.283 471.479,-407.717 509,-369.5 510.893,-367.572 512.939,-365.792 515.102,-364.15"/>
<polygon fill="midnightblue" stroke="midnightblue" points="517.428,-366.817 523.956,-358.472 513.649,-360.924 517.428,-366.817"/>
</g>
<!-- Node32&#45;&gt;Node23 -->
<g id="edge39" class="edge"><title>Node32&#45;&gt;Node23</title>
<path fill="none" stroke="midnightblue" d="M458.907,-411.396C464.013,-408.629 468.82,-405.36 473,-401.5 502.24,-374.496 478.625,-345.221 509,-319.5 513.978,-315.285 519.766,-311.985 525.878,-309.405"/>
<polygon fill="midnightblue" stroke="midnightblue" points="527.433,-312.567 535.679,-305.916 525.085,-305.973 527.433,-312.567"/>
</g>
<!-- Node33 -->
<g id="node33" class="node"><title>Node33</title>
<g id="a_node33"><a xlink:href="class_igor_1_1i_node.html#a1b3d40431eb4c1c79e5d93ef7fe68129" target="_top" xlink:title="Igor::iNode::getParent">
<polygon fill="white" stroke="black" points="711.5,-222 711.5,-241 822.5,-241 822.5,-222 711.5,-222"/>
<text text-anchor="middle" x="767" y="-229" font-family="Helvetica,sans-Serif" font-size="10.00">Igor::iNode::getParent</text>
</a>
</g>
</g>
<!-- Node32&#45;&gt;Node33 -->
<g id="edge40" class="edge"><title>Node32&#45;&gt;Node33</title>
<path fill="none" stroke="midnightblue" d="M460.455,-411.303C465.063,-408.56 469.338,-405.322 473,-401.5 511.523,-361.295 467.722,-318.87 509,-281.5 523.172,-268.67 629.697,-251.111 701.079,-240.578"/>
<polygon fill="midnightblue" stroke="midnightblue" points="701.953,-243.988 711.341,-239.077 700.939,-237.061 701.953,-243.988"/>
</g>
<!-- Node34 -->
<g id="node34" class="node"><title>Node34</title>
<g id="a_node34"><a xlink:href="class_igor_1_1i_node.html#a66b6ecf7babaffce68852de186068e01" target="_top" xlink:title="Igor::iNode::setTransformation\lDirtyUp">
<polygon fill="white" stroke="black" points="512,-185.5 512,-215.5 658,-215.5 658,-185.5 512,-185.5"/>
<text text-anchor="start" x="520" y="-203.5" font-family="Helvetica,sans-Serif" font-size="10.00">Igor::iNode::setTransformation</text>
<text text-anchor="middle" x="585" y="-192.5" font-family="Helvetica,sans-Serif" font-size="10.00">DirtyUp</text>
</a>
</g>
</g>
<!-- Node32&#45;&gt;Node34 -->
<g id="edge41" class="edge"><title>Node32&#45;&gt;Node34</title>
<path fill="none" stroke="midnightblue" d="M461.046,-411.324C465.47,-408.577 469.544,-405.332 473,-401.5 519.785,-349.624 468.622,-305.505 509,-248.5 516.975,-237.241 528.505,-227.998 540.142,-220.735"/>
<polygon fill="midnightblue" stroke="midnightblue" points="542.13,-223.627 549.005,-215.565 538.604,-217.58 542.13,-223.627"/>
</g>
<!-- Node34&#45;&gt;Node33 -->
<g id="edge42" class="edge"><title>Node34&#45;&gt;Node33</title>
<path fill="none" stroke="midnightblue" d="M658.176,-212.93C672.421,-215.384 687.287,-217.944 701.268,-220.352"/>
<polygon fill="midnightblue" stroke="midnightblue" points="700.822,-223.826 711.27,-222.074 702.01,-216.928 700.822,-223.826"/>
</g>
<!-- Node34&#45;&gt;Node34 -->
<g id="edge43" class="edge"><title>Node34&#45;&gt;Node34</title>
<path fill="none" stroke="midnightblue" d="M553.283,-215.659C545.635,-225.057 556.207,-234 585,-234 602.546,-234 613.325,-230.679 617.339,-225.958"/>
<polygon fill="midnightblue" stroke="midnightblue" points="620.814,-225.43 616.717,-215.659 613.827,-225.852 620.814,-225.43"/>
</g>
<!-- Node37 -->
<g id="node37" class="node"><title>Node37</title>
<g id="a_node37"><a xlink:href="class_igor_aux_1_1ia_console.html#a025216d7b2e29420a663e8119b937ed4" target="_top" xlink:title="IgorAux::iaConsole\l::lock">
<polygon fill="white" stroke="black" points="351,-229.5 351,-259.5 449,-259.5 449,-229.5 351,-229.5"/>
<text text-anchor="start" x="359" y="-247.5" font-family="Helvetica,sans-Serif" font-size="10.00">IgorAux::iaConsole</text>
<text text-anchor="middle" x="400" y="-236.5" font-family="Helvetica,sans-Serif" font-size="10.00">::lock</text>
</a>
</g>
</g>
<!-- Node36&#45;&gt;Node37 -->
<g id="edge47" class="edge"><title>Node36&#45;&gt;Node37</title>
<path fill="none" stroke="midnightblue" d="M287.154,-242.035C304.787,-242.424 323.546,-242.837 340.561,-243.212"/>
<polygon fill="midnightblue" stroke="midnightblue" points="340.83,-246.719 350.905,-243.44 340.984,-239.72 340.83,-246.719"/>
</g>
<!-- Node38 -->
<g id="node38" class="node"><title>Node38</title>
<g id="a_node38"><a xlink:href="namespacetesting_1_1internal.html#a0f6d06bf8c3093b9c22bb08723db201e" target="_top" xlink:title="testing::internal::move">
<polygon fill="white" stroke="black" points="344,-191 344,-210 456,-210 456,-191 344,-191"/>
<text text-anchor="middle" x="400" y="-198" font-family="Helvetica,sans-Serif" font-size="10.00">testing::internal::move</text>
</a>
</g>
</g>
<!-- Node36&#45;&gt;Node38 -->
<g id="edge49" class="edge"><title>Node36&#45;&gt;Node38</title>
<path fill="none" stroke="midnightblue" d="M285.6,-225.492C305.552,-221.095 327.065,-216.354 345.934,-212.195"/>
<polygon fill="midnightblue" stroke="midnightblue" points="346.815,-215.585 355.827,-210.015 345.308,-208.749 346.815,-215.585"/>
</g>
<!-- Node39 -->
<g id="node39" class="node"><title>Node39</title>
<g id="a_node39"><a xlink:href="class_igor_1_1i_task.html#a1286c3225e5b667287de69bf0c0df0c7" target="_top" xlink:title="Igor::iTask::getID">
<polygon fill="white" stroke="black" points="355,-153 355,-172 445,-172 445,-153 355,-153"/>
<text text-anchor="middle" x="400" y="-160" font-family="Helvetica,sans-Serif" font-size="10.00">Igor::iTask::getID</text>
</a>
</g>
</g>
<!-- Node36&#45;&gt;Node39 -->
<g id="edge50" class="edge"><title>Node36&#45;&gt;Node39</title>
<path fill="none" stroke="midnightblue" d="M270.925,-225.385C277.892,-222.541 284.766,-219.257 291,-215.5 309.85,-204.141 307.765,-192.194 327,-181.5 332.561,-178.408 338.645,-175.803 344.846,-173.611"/>
<polygon fill="midnightblue" stroke="midnightblue" points="346.16,-176.866 354.627,-170.497 344.037,-170.196 346.16,-176.866"/>
</g>
<!-- Node37&#45;&gt;Node37 -->
<g id="edge48" class="edge"><title>Node37&#45;&gt;Node37</title>
<path fill="none" stroke="midnightblue" d="M368.283,-259.659C360.635,-269.057 371.207,-278 400,-278 417.546,-278 428.325,-274.679 432.339,-269.958"/>
<polygon fill="midnightblue" stroke="midnightblue" points="435.814,-269.43 431.717,-259.659 428.827,-269.852 435.814,-269.43"/>
</g>
<!-- Node44 -->
<g id="node44" class="node"><title>Node44</title>
<g id="a_node44"><a xlink:href="class_igor_aux_1_1ia_directory.html#a98786c5b2f0b32bed3db7f2fe452b917" target="_top" xlink:title="IgorAux::iaDirectory\l::directoryIsAbsolute">
<polygon fill="white" stroke="black" points="347,-93.5 347,-123.5 453,-123.5 453,-93.5 347,-93.5"/>
<text text-anchor="start" x="355" y="-111.5" font-family="Helvetica,sans-Serif" font-size="10.00">IgorAux::iaDirectory</text>
<text text-anchor="middle" x="400" y="-100.5" font-family="Helvetica,sans-Serif" font-size="10.00">::directoryIsAbsolute</text>
</a>
</g>
</g>
<!-- Node43&#45;&gt;Node44 -->
<g id="edge55" class="edge"><title>Node43&#45;&gt;Node44</title>
<path fill="none" stroke="midnightblue" d="M279.454,-79.5192C298.083,-84.0352 318.517,-88.989 337.14,-93.5035"/>
<polygon fill="midnightblue" stroke="midnightblue" points="336.441,-96.9354 346.984,-95.89 338.09,-90.1324 336.441,-96.9354"/>
</g>
<!-- Node46 -->
<g id="node46" class="node"><title>Node46</title>
<g id="a_node46"><a xlink:href="class_igor_aux_1_1ia_file.html#a777e728712c704a9e997eb227a71a6e7" target="_top" xlink:title="IgorAux::iaFile::getPath">
<polygon fill="white" stroke="black" points="340.5,-55 340.5,-74 459.5,-74 459.5,-55 340.5,-55"/>
<text text-anchor="middle" x="400" y="-62" font-family="Helvetica,sans-Serif" font-size="10.00">IgorAux::iaFile::getPath</text>
</a>
</g>
</g>
<!-- Node43&#45;&gt;Node46 -->
<g id="edge57" class="edge"><title>Node43&#45;&gt;Node46</title>
<path fill="none" stroke="midnightblue" d="M287.154,-64.5C301.312,-64.5 316.195,-64.5 330.319,-64.5"/>
<polygon fill="midnightblue" stroke="midnightblue" points="330.448,-68.0001 340.448,-64.5 330.448,-61.0001 330.448,-68.0001"/>
</g>
<!-- Node47 -->
<g id="node47" class="node"><title>Node47</title>
<g id="a_node47"><a xlink:href="class_igor_1_1i_model_data_i_o.html#a9992689535f19bd5cf39e1752faeed06" target="_top" xlink:title="Igor::iModelDataIO\l::exportData">
<polygon fill="white" stroke="black" points="351.5,-5.5 351.5,-35.5 448.5,-35.5 448.5,-5.5 351.5,-5.5"/>
<text text-anchor="start" x="359.5" y="-23.5" font-family="Helvetica,sans-Serif" font-size="10.00">Igor::iModelDataIO</text>
<text text-anchor="middle" x="400" y="-12.5" font-family="Helvetica,sans-Serif" font-size="10.00">::exportData</text>
</a>
</g>
</g>
<!-- Node43&#45;&gt;Node47 -->
<g id="edge58" class="edge"><title>Node43&#45;&gt;Node47</title>
<path fill="none" stroke="midnightblue" d="M279.454,-49.4808C299.572,-44.6037 321.797,-39.216 341.57,-34.4224"/>
<polygon fill="midnightblue" stroke="midnightblue" points="342.466,-37.8066 351.36,-32.049 340.817,-31.0036 342.466,-37.8066"/>
</g>
<!-- Node45 -->
<g id="node45" class="node"><title>Node45</title>
<g id="a_node45"><a xlink:href="class_igor_aux_1_1ia_string.html#a6d9c01e546c1e33c9924bc2695d5fc17" target="_top" xlink:title="IgorAux::iaString::\lgetSize">
<polygon fill="white" stroke="black" points="537.5,-93.5 537.5,-123.5 632.5,-123.5 632.5,-93.5 537.5,-93.5"/>
<text text-anchor="start" x="545.5" y="-111.5" font-family="Helvetica,sans-Serif" font-size="10.00">IgorAux::iaString::</text>
<text text-anchor="middle" x="585" y="-100.5" font-family="Helvetica,sans-Serif" font-size="10.00">getSize</text>
</a>
</g>
</g>
<!-- Node44&#45;&gt;Node45 -->
<g id="edge56" class="edge"><title>Node44&#45;&gt;Node45</title>
<path fill="none" stroke="midnightblue" d="M453.44,-108.5C476.533,-108.5 503.712,-108.5 527.276,-108.5"/>
<polygon fill="midnightblue" stroke="midnightblue" points="527.475,-112 537.475,-108.5 527.475,-105 527.475,-112"/>
</g>
</g>
</svg>
