<?xml version="1.0" encoding="UTF-8" standalone="no"?>
<!DOCTYPE svg PUBLIC "-//W3C//DTD SVG 1.1//EN"
 "http://www.w3.org/Graphics/SVG/1.1/DTD/svg11.dtd">
<!-- Generated by graphviz version 2.38.0 (20140413.2041)
 -->
<!-- Title: IgorAux::iaTransform::getMatrix Pages: 1 -->
<svg width="246pt" height="235pt"
 viewBox="0.00 0.00 246.00 235.00" xmlns="http://www.w3.org/2000/svg" xmlns:xlink="http://www.w3.org/1999/xlink">
<g id="graph0" class="graph" transform="scale(1 1) rotate(0) translate(4 231)">
<title>IgorAux::iaTransform::getMatrix</title>
<polygon fill="white" stroke="none" points="-4,4 -4,-231 242,-231 242,4 -4,4"/>
<!-- Node4 -->
<g id="node1" class="node"><title>Node4</title>
<g id="a_node1"><a xlink:title=" ">
<polygon fill="#bfbfbf" stroke="black" points="0,-98.5 0,-128.5 106,-128.5 106,-98.5 0,-98.5"/>
<text text-anchor="start" x="8" y="-116.5" font-family="Helvetica,sans-Serif" font-size="10.00">IgorAux::iaTransform</text>
<text text-anchor="middle" x="53" y="-105.5" font-family="Helvetica,sans-Serif" font-size="10.00">::getMatrix</text>
</a>
</g>
</g>
<!-- Node5 -->
<g id="node2" class="node"><title>Node5</title>
<g id="a_node2"><a xlink:href="class_igor_aux_1_1ia_matrix.html#ad4c84d3532d5b7555a04018ffcba6122" target="_top" xlink:title=" ">
<polygon fill="white" stroke="black" points="142,-196.5 142,-226.5 238,-226.5 238,-196.5 142,-196.5"/>
<text text-anchor="start" x="150" y="-214.5" font-family="Helvetica,sans-Serif" font-size="10.00">IgorAux::iaMatrix::</text>
<text text-anchor="middle" x="190" y="-203.5" font-family="Helvetica,sans-Serif" font-size="10.00">identity</text>
</a>
</g>
</g>
<!-- Node4&#45;&gt;Node5 -->
<g id="edge1" class="edge"><title>Node4&#45;&gt;Node5</title>
<path fill="none" stroke="midnightblue" d="M69.6676,-128.582C86.6232,-144.432 114.885,-169.515 142,-187.5 143.923,-188.776 145.923,-190.032 147.965,-191.262"/>
<polygon fill="midnightblue" stroke="midnightblue" points="146.668,-194.55 157.091,-196.451 150.128,-188.465 146.668,-194.55"/>
</g>
<!-- Node6 -->
<g id="node3" class="node"><title>Node6</title>
<g id="a_node3"><a xlink:href="class_igor_aux_1_1ia_matrix.html#ae9eba9dbfae8fc7cc139579370386efb" target="_top" xlink:title=" ">
<polygon fill="white" stroke="black" points="142,-147.5 142,-177.5 238,-177.5 238,-147.5 142,-147.5"/>
<text text-anchor="start" x="150" y="-165.5" font-family="Helvetica,sans-Serif" font-size="10.00">IgorAux::iaMatrix::</text>
<text text-anchor="middle" x="190" y="-154.5" font-family="Helvetica,sans-Serif" font-size="10.00">rotate</text>
</a>
</g>
</g>
<!-- Node4&#45;&gt;Node6 -->
<g id="edge2" class="edge"><title>Node4&#45;&gt;Node6</title>
<path fill="none" stroke="midnightblue" d="M95.606,-128.601C108.951,-133.445 123.887,-138.866 137.834,-143.928"/>
<polygon fill="midnightblue" stroke="midnightblue" points="136.705,-147.242 147.299,-147.364 139.093,-140.662 136.705,-147.242"/>
</g>
<!-- Node7 -->
<g id="node4" class="node"><title>Node7</title>
<g id="a_node4"><a xlink:href="class_igor_aux_1_1ia_matrix.html#a0d1f814a5844dbda77ed03f55768b8ba" target="_top" xlink:title=" ">
<polygon fill="white" stroke="black" points="142,-98.5 142,-128.5 238,-128.5 238,-98.5 142,-98.5"/>
<text text-anchor="start" x="150" y="-116.5" font-family="Helvetica,sans-Serif" font-size="10.00">IgorAux::iaMatrix::</text>
<text text-anchor="middle" x="190" y="-105.5" font-family="Helvetica,sans-Serif" font-size="10.00">scale</text>
</a>
</g>
</g>
<!-- Node4&#45;&gt;Node7 -->
<g id="edge3" class="edge"><title>Node4&#45;&gt;Node7</title>
<path fill="none" stroke="midnightblue" d="M106.195,-113.5C114.529,-113.5 123.192,-113.5 131.638,-113.5"/>
<polygon fill="midnightblue" stroke="midnightblue" points="131.797,-117 141.797,-113.5 131.797,-110 131.797,-117"/>
</g>
<!-- Node8 -->
<g id="node5" class="node"><title>Node8</title>
<g id="a_node5"><a xlink:href="class_igor_aux_1_1ia_matrix.html#a08581dc9057929f0381ba29a464d19c5" target="_top" xlink:title=" ">
<polygon fill="white" stroke="black" points="142,-49.5 142,-79.5 238,-79.5 238,-49.5 142,-49.5"/>
<text text-anchor="start" x="150" y="-67.5" font-family="Helvetica,sans-Serif" font-size="10.00">IgorAux::iaMatrix::</text>
<text text-anchor="middle" x="190" y="-56.5" font-family="Helvetica,sans-Serif" font-size="10.00">shear</text>
</a>
</g>
</g>
<!-- Node4&#45;&gt;Node8 -->
<g id="edge4" class="edge"><title>Node4&#45;&gt;Node8</title>
<path fill="none" stroke="midnightblue" d="M95.606,-98.3986C108.951,-93.5549 123.887,-88.1336 137.834,-83.0715"/>
<polygon fill="midnightblue" stroke="midnightblue" points="139.093,-86.3378 147.299,-79.6359 136.705,-79.7578 139.093,-86.3378"/>
</g>
<!-- Node9 -->
<g id="node6" class="node"><title>Node9</title>
<g id="a_node6"><a xlink:href="class_igor_aux_1_1ia_matrix.html#ac3391a41520f494b8aa83d41ae89719b" target="_top" xlink:title=" ">
<polygon fill="white" stroke="black" points="142,-0.5 142,-30.5 238,-30.5 238,-0.5 142,-0.5"/>
<text text-anchor="start" x="150" y="-18.5" font-family="Helvetica,sans-Serif" font-size="10.00">IgorAux::iaMatrix::</text>
<text text-anchor="middle" x="190" y="-7.5" font-family="Helvetica,sans-Serif" font-size="10.00">translate</text>
</a>
</g>
</g>
<!-- Node4&#45;&gt;Node9 -->
<g id="edge5" class="edge"><title>Node4&#45;&gt;Node9</title>
<path fill="none" stroke="midnightblue" d="M70.0779,-98.4448C87.146,-82.885 115.291,-58.4091 142,-40.5 144.375,-38.9076 146.862,-37.3349 149.4,-35.8005"/>
<polygon fill="midnightblue" stroke="midnightblue" points="151.223,-38.7893 158.133,-30.7579 147.723,-32.7272 151.223,-38.7893"/>
</g>
</g>
</svg>
