<?xml version="1.0" encoding="UTF-8" standalone="no"?>
<!DOCTYPE svg PUBLIC "-//W3C//DTD SVG 1.1//EN"
 "http://www.w3.org/Graphics/SVG/1.1/DTD/svg11.dtd">
<!-- Generated by graphviz version 2.38.0 (20140413.2041)
 -->
<!-- Title: IgorAux::iaSerializable::read Pages: 1 -->
<svg width="270pt" height="88pt"
 viewBox="0.00 0.00 270.00 88.00" xmlns="http://www.w3.org/2000/svg" xmlns:xlink="http://www.w3.org/1999/xlink">
<g id="graph0" class="graph" transform="scale(1 1) rotate(0) translate(4 84)">
<title>IgorAux::iaSerializable::read</title>
<polygon fill="white" stroke="none" points="-4,4 -4,-84 266,-84 266,4 -4,4"/>
<!-- Node1 -->
<g id="node1" class="node"><title>Node1</title>
<polygon fill="#bfbfbf" stroke="black" points="0,-24.5 0,-54.5 113,-54.5 113,-24.5 0,-24.5"/>
<text text-anchor="start" x="8" y="-42.5" font-family="Helvetica,sans-Serif" font-size="10.00">IgorAux::iaSerializable</text>
<text text-anchor="middle" x="56.5" y="-31.5" font-family="Helvetica,sans-Serif" font-size="10.00">::read</text>
</g>
<!-- Node2 -->
<g id="node2" class="node"><title>Node2</title>
<g id="a_node2"><a xlink:href="class_igor_aux_1_1ia_serializable.html#a2f9b887f1bbc3bfadcb423afe1808f1f" target="_top" xlink:title="IgorAux::iaSerializable\l::read">
<polygon fill="white" stroke="black" points="149,-49.5 149,-79.5 262,-79.5 262,-49.5 149,-49.5"/>
<text text-anchor="start" x="157" y="-67.5" font-family="Helvetica,sans-Serif" font-size="10.00">IgorAux::iaSerializable</text>
<text text-anchor="middle" x="205.5" y="-56.5" font-family="Helvetica,sans-Serif" font-size="10.00">::read</text>
</a>
</g>
</g>
<!-- Node1&#45;&gt;Node2 -->
<g id="edge1" class="edge"><title>Node1&#45;&gt;Node2</title>
<path fill="none" stroke="midnightblue" d="M113.074,-48.9514C121.489,-50.3826 130.238,-51.8705 138.842,-53.3337"/>
<polygon fill="midnightblue" stroke="midnightblue" points="138.402,-56.809 148.847,-55.0352 139.575,-49.9081 138.402,-56.809"/>
</g>
<!-- Node3 -->
<g id="node3" class="node"><title>Node3</title>
<g id="a_node3"><a xlink:href="class_igor_aux_1_1ia_vector3.html#a472d397bcfae85248afadb2345716e07" target="_top" xlink:title="IgorAux::iaVector3\l::getData">
<polygon fill="white" stroke="black" points="157,-0.5 157,-30.5 254,-30.5 254,-0.5 157,-0.5"/>
<text text-anchor="start" x="165" y="-18.5" font-family="Helvetica,sans-Serif" font-size="10.00">IgorAux::iaVector3</text>
<text text-anchor="middle" x="205.5" y="-7.5" font-family="Helvetica,sans-Serif" font-size="10.00">::getData</text>
</a>
</g>
</g>
<!-- Node1&#45;&gt;Node3 -->
<g id="edge2" class="edge"><title>Node1&#45;&gt;Node3</title>
<path fill="none" stroke="midnightblue" d="M113.074,-30.4266C124.03,-28.6379 135.552,-26.7568 146.583,-24.9559"/>
<polygon fill="midnightblue" stroke="midnightblue" points="147.239,-28.3951 156.545,-23.3294 146.111,-21.4866 147.239,-28.3951"/>
</g>
</g>
</svg>
