<?xml version="1.0" encoding="UTF-8" standalone="no"?>
<!DOCTYPE svg PUBLIC "-//W3C//DTD SVG 1.1//EN"
 "http://www.w3.org/Graphics/SVG/1.1/DTD/svg11.dtd">
<!-- Generated by graphviz version 2.38.0 (20140413.2041)
 -->
<!-- Title: Igor::iPhysicsUserMeshCollisionHandler::collideCallback Pages: 1 -->
<svg width="471pt" height="39pt"
 viewBox="0.00 0.00 471.00 39.00" xmlns="http://www.w3.org/2000/svg" xmlns:xlink="http://www.w3.org/1999/xlink">
<g id="graph0" class="graph" transform="scale(1 1) rotate(0) translate(4 35)">
<title>Igor::iPhysicsUserMeshCollisionHandler::collideCallback</title>
<polygon fill="white" stroke="none" points="-4,4 -4,-35 467,-35 467,4 -4,4"/>
<!-- Node1 -->
<g id="node1" class="node"><title>Node1</title>
<polygon fill="#bfbfbf" stroke="black" points="0,-0.5 0,-30.5 157,-30.5 157,-0.5 0,-0.5"/>
<text text-anchor="start" x="8" y="-18.5" font-family="Helvetica,sans-Serif" font-size="10.00">Igor::iPhysicsUserMeshCollision</text>
<text text-anchor="middle" x="78.5" y="-7.5" font-family="Helvetica,sans-Serif" font-size="10.00">Handler::collideCallback</text>
</g>
<!-- Node2 -->
<g id="node2" class="node"><title>Node2</title>
<g id="a_node2"><a xlink:href="namespace_igor.html#a9039d5a74ae09324fa68bdd0f67dd451" target="_top" xlink:title="Igor::CollideCallback">
<polygon fill="white" stroke="black" points="193,-6 193,-25 298,-25 298,-6 193,-6"/>
<text text-anchor="middle" x="245.5" y="-13" font-family="Helvetica,sans-Serif" font-size="10.00">Igor::CollideCallback</text>
</a>
</g>
</g>
<!-- Node1&#45;&gt;Node2 -->
<g id="edge1" class="edge"><title>Node1&#45;&gt;Node2</title>
<path fill="none" stroke="midnightblue" d="M167.334,-15.5C175.982,-15.5 184.552,-15.5 192.661,-15.5"/>
<polygon fill="midnightblue" stroke="midnightblue" points="167.169,-12.0001 157.168,-15.5 167.168,-19.0001 167.169,-12.0001"/>
</g>
<!-- Node3 -->
<g id="node3" class="node"><title>Node3</title>
<g id="a_node3"><a xlink:href="class_igor_1_1i_physics.html#ab0cd7a1d22282b70337e1c55aa15c55f" target="_top" xlink:title="Igor::iPhysics::createUser\lMeshCollision">
<polygon fill="white" stroke="black" points="334,-0.5 334,-30.5 463,-30.5 463,-0.5 334,-0.5"/>
<text text-anchor="start" x="342" y="-18.5" font-family="Helvetica,sans-Serif" font-size="10.00">Igor::iPhysics::createUser</text>
<text text-anchor="middle" x="398.5" y="-7.5" font-family="Helvetica,sans-Serif" font-size="10.00">MeshCollision</text>
</a>
</g>
</g>
<!-- Node2&#45;&gt;Node3 -->
<g id="edge2" class="edge"><title>Node2&#45;&gt;Node3</title>
<path fill="none" stroke="midnightblue" d="M308.224,-15.5C316.692,-15.5 325.4,-15.5 333.901,-15.5"/>
<polygon fill="midnightblue" stroke="midnightblue" points="308.043,-12.0001 298.043,-15.5 308.043,-19.0001 308.043,-12.0001"/>
</g>
</g>
</svg>
