<?xml version="1.0" encoding="UTF-8" standalone="no"?>
<!DOCTYPE svg PUBLIC "-//W3C//DTD SVG 1.1//EN"
 "http://www.w3.org/Graphics/SVG/1.1/DTD/svg11.dtd">
<!-- Generated by graphviz version 2.38.0 (20140413.2041)
 -->
<!-- Title: Igor::iWindow::addView Pages: 1 -->
<svg width="459pt" height="180pt"
 viewBox="0.00 0.00 459.00 180.00" xmlns="http://www.w3.org/2000/svg" xmlns:xlink="http://www.w3.org/1999/xlink">
<g id="graph0" class="graph" transform="scale(1 1) rotate(0) translate(4 176)">
<title>Igor::iWindow::addView</title>
<polygon fill="white" stroke="none" points="-4,4 -4,-176 455,-176 455,4 -4,4"/>
<!-- Node9 -->
<g id="node1" class="node"><title>Node9</title>
<g id="a_node1"><a xlink:title=" ">
<polygon fill="#bfbfbf" stroke="black" points="0,-76.5 0,-95.5 118,-95.5 118,-76.5 0,-76.5"/>
<text text-anchor="middle" x="59" y="-83.5" font-family="Helvetica,sans-Serif" font-size="10.00">Igor::iWindow::addView</text>
</a>
</g>
</g>
<!-- Node10 -->
<g id="node2" class="node"><title>Node10</title>
<g id="a_node2"><a xlink:href="class_igor_1_1i_rectangle.html#a29546c0e2d54ee9608adbbc8b041ea56" target="_top" xlink:title=" ">
<polygon fill="white" stroke="black" points="165.5,-152.5 165.5,-171.5 294.5,-171.5 294.5,-152.5 165.5,-152.5"/>
<text text-anchor="middle" x="230" y="-159.5" font-family="Helvetica,sans-Serif" font-size="10.00">Igor::iRectangle::setWidth</text>
</a>
</g>
</g>
<!-- Node9&#45;&gt;Node10 -->
<g id="edge1" class="edge"><title>Node9&#45;&gt;Node10</title>
<path fill="none" stroke="midnightblue" d="M73.0242,-95.6333C90.5788,-108.199 123.193,-130.098 154,-143 159.854,-145.452 166.102,-147.646 172.399,-149.593"/>
<polygon fill="midnightblue" stroke="midnightblue" points="171.707,-153.037 182.286,-152.453 173.652,-146.312 171.707,-153.037"/>
</g>
<!-- Node11 -->
<g id="node3" class="node"><title>Node11</title>
<g id="a_node3"><a xlink:href="class_igor_1_1i_rectangle.html#a30533fbc10c5e609aafa8b0f251f82ee" target="_top" xlink:title=" ">
<polygon fill="white" stroke="black" points="164.5,-114.5 164.5,-133.5 295.5,-133.5 295.5,-114.5 164.5,-114.5"/>
<text text-anchor="middle" x="230" y="-121.5" font-family="Helvetica,sans-Serif" font-size="10.00">Igor::iRectangle::setHeight</text>
</a>
</g>
</g>
<!-- Node9&#45;&gt;Node11 -->
<g id="edge2" class="edge"><title>Node9&#45;&gt;Node11</title>
<path fill="none" stroke="midnightblue" d="M102.646,-95.589C125.148,-100.649 152.948,-106.9 176.738,-112.249"/>
<polygon fill="midnightblue" stroke="midnightblue" points="176.137,-115.701 186.661,-114.48 177.672,-108.871 176.137,-115.701"/>
</g>
<!-- Node12 -->
<g id="node4" class="node"><title>Node12</title>
<g id="a_node4"><a xlink:href="class_igor_1_1i_view.html#ab2fe093b71743ba586d42d5f35a322e9" target="_top" xlink:title=" ">
<polygon fill="white" stroke="black" points="154,-76.5 154,-95.5 306,-95.5 306,-76.5 154,-76.5"/>
<text text-anchor="middle" x="230" y="-83.5" font-family="Helvetica,sans-Serif" font-size="10.00">Igor::iView::updateWindowRect</text>
</a>
</g>
</g>
<!-- Node9&#45;&gt;Node12 -->
<g id="edge3" class="edge"><title>Node9&#45;&gt;Node12</title>
<path fill="none" stroke="midnightblue" d="M118.16,-86C126.395,-86 135.001,-86 143.62,-86"/>
<polygon fill="midnightblue" stroke="midnightblue" points="143.721,-89.5001 153.721,-86 143.721,-82.5001 143.721,-89.5001"/>
</g>
<!-- Node14 -->
<g id="node6" class="node"><title>Node14</title>
<g id="a_node6"><a xlink:href="class_igor_1_1i_view.html#a4ab7751a13705d520d872899772664c4" target="_top" xlink:title=" ">
<polygon fill="white" stroke="black" points="175,-38.5 175,-57.5 285,-57.5 285,-38.5 175,-38.5"/>
<text text-anchor="middle" x="230" y="-45.5" font-family="Helvetica,sans-Serif" font-size="10.00">Igor::iView::setZIndex</text>
</a>
</g>
</g>
<!-- Node9&#45;&gt;Node14 -->
<g id="edge5" class="edge"><title>Node9&#45;&gt;Node14</title>
<path fill="none" stroke="midnightblue" d="M102.646,-76.411C125.148,-71.3513 152.948,-65.1004 176.738,-59.7512"/>
<polygon fill="midnightblue" stroke="midnightblue" points="177.672,-63.1286 186.661,-57.5201 176.137,-56.2991 177.672,-63.1286"/>
</g>
<!-- Node15 -->
<g id="node7" class="node"><title>Node15</title>
<g id="a_node7"><a xlink:href="class_igor_1_1i_view.html#a39b63e6c6a72fdd3766d87c56a131f62" target="_top" xlink:title=" ">
<polygon fill="white" stroke="black" points="175,-0.5 175,-19.5 285,-19.5 285,-0.5 175,-0.5"/>
<text text-anchor="middle" x="230" y="-7.5" font-family="Helvetica,sans-Serif" font-size="10.00">Igor::iView::getZIndex</text>
</a>
</g>
</g>
<!-- Node9&#45;&gt;Node15 -->
<g id="edge6" class="edge"><title>Node9&#45;&gt;Node15</title>
<path fill="none" stroke="midnightblue" d="M73.0242,-76.3667C90.5788,-63.8006 123.193,-41.9019 154,-29 159.854,-26.5483 166.102,-24.3544 172.399,-22.4066"/>
<polygon fill="midnightblue" stroke="midnightblue" points="173.652,-25.6878 182.286,-19.5467 171.707,-18.9635 173.652,-25.6878"/>
</g>
<!-- Node13 -->
<g id="node5" class="node"><title>Node13</title>
<g id="a_node5"><a xlink:href="class_igor_1_1i_rectangle.html#a59f42bd4f0c4d838d19ef6bd326d4e43" target="_top" xlink:title=" ">
<polygon fill="white" stroke="black" points="342,-76.5 342,-95.5 451,-95.5 451,-76.5 342,-76.5"/>
<text text-anchor="middle" x="396.5" y="-83.5" font-family="Helvetica,sans-Serif" font-size="10.00">Igor::iRectangle::setX</text>
</a>
</g>
</g>
<!-- Node12&#45;&gt;Node13 -->
<g id="edge4" class="edge"><title>Node12&#45;&gt;Node13</title>
<path fill="none" stroke="midnightblue" d="M306.029,-86C314.584,-86 323.243,-86 331.634,-86"/>
<polygon fill="midnightblue" stroke="midnightblue" points="331.71,-89.5001 341.709,-86 331.709,-82.5001 331.71,-89.5001"/>
</g>
</g>
</svg>
