<?xml version="1.0" encoding="UTF-8" standalone="no"?>
<!DOCTYPE svg PUBLIC "-//W3C//DTD SVG 1.1//EN"
 "http://www.w3.org/Graphics/SVG/1.1/DTD/svg11.dtd">
<!-- Generated by graphviz version 2.38.0 (20140413.2041)
 -->
<!-- Title: Igor::iEntityLocatable::getCurrentPos Pages: 1 -->
<svg width="256pt" height="88pt"
 viewBox="0.00 0.00 256.00 88.00" xmlns="http://www.w3.org/2000/svg" xmlns:xlink="http://www.w3.org/1999/xlink">
<g id="graph0" class="graph" transform="scale(1 1) rotate(0) translate(4 84)">
<title>Igor::iEntityLocatable::getCurrentPos</title>
<polygon fill="white" stroke="none" points="-4,4 -4,-84 252,-84 252,4 -4,4"/>
<!-- Node1 -->
<g id="node1" class="node"><title>Node1</title>
<polygon fill="#bfbfbf" stroke="black" points="0,-24.5 0,-54.5 108,-54.5 108,-24.5 0,-24.5"/>
<text text-anchor="start" x="8" y="-42.5" font-family="Helvetica,sans-Serif" font-size="10.00">Igor::iEntityLocatable</text>
<text text-anchor="middle" x="54" y="-31.5" font-family="Helvetica,sans-Serif" font-size="10.00">::getCurrentPos</text>
</g>
<!-- Node2 -->
<g id="node2" class="node"><title>Node2</title>
<g id="a_node2"><a xlink:href="class_igor_1_1i_entity_manager.html#ab9b59ef33842272f13fc52d1b1150c4b" target="_top" xlink:title="Igor::iEntityManager\l::registerEntity">
<polygon fill="white" stroke="black" points="144,-49.5 144,-79.5 248,-79.5 248,-49.5 144,-49.5"/>
<text text-anchor="start" x="152" y="-67.5" font-family="Helvetica,sans-Serif" font-size="10.00">Igor::iEntityManager</text>
<text text-anchor="middle" x="196" y="-56.5" font-family="Helvetica,sans-Serif" font-size="10.00">::registerEntity</text>
</a>
</g>
</g>
<!-- Node1&#45;&gt;Node2 -->
<g id="edge1" class="edge"><title>Node1&#45;&gt;Node2</title>
<path fill="none" stroke="midnightblue" d="M118.23,-50.7911C126.745,-52.3116 135.395,-53.8562 143.669,-55.3337"/>
<polygon fill="midnightblue" stroke="midnightblue" points="118.787,-47.3352 108.327,-49.0227 117.556,-54.2262 118.787,-47.3352"/>
</g>
<!-- Node3 -->
<g id="node3" class="node"><title>Node3</title>
<g id="a_node3"><a xlink:href="class_igor_1_1i_entity_manager.html#a28701eda1decf679b3e1ab6dc1bbb845" target="_top" xlink:title="Igor::iEntityManager\l::handle">
<polygon fill="white" stroke="black" points="144,-0.5 144,-30.5 248,-30.5 248,-0.5 144,-0.5"/>
<text text-anchor="start" x="152" y="-18.5" font-family="Helvetica,sans-Serif" font-size="10.00">Igor::iEntityManager</text>
<text text-anchor="middle" x="196" y="-7.5" font-family="Helvetica,sans-Serif" font-size="10.00">::handle</text>
</a>
</g>
</g>
<!-- Node1&#45;&gt;Node3 -->
<g id="edge2" class="edge"><title>Node1&#45;&gt;Node3</title>
<path fill="none" stroke="midnightblue" d="M118.23,-28.6605C126.745,-27.2008 135.395,-25.7181 143.669,-24.2996"/>
<polygon fill="midnightblue" stroke="midnightblue" points="117.592,-25.2188 108.327,-30.3582 118.775,-32.1181 117.592,-25.2188"/>
</g>
</g>
</svg>
