<?xml version="1.0" encoding="UTF-8" standalone="no"?>
<!DOCTYPE svg PUBLIC "-//W3C//DTD SVG 1.1//EN"
 "http://www.w3.org/Graphics/SVG/1.1/DTD/svg11.dtd">
<!-- Generated by graphviz version 2.38.0 (20140413.2041)
 -->
<!-- Title: MenuDialog::onGraphSelectionChanged Pages: 1 -->
<svg width="339pt" height="66pt"
 viewBox="0.00 0.00 339.00 66.00" xmlns="http://www.w3.org/2000/svg" xmlns:xlink="http://www.w3.org/1999/xlink">
<g id="graph0" class="graph" transform="scale(1 1) rotate(0) translate(4 62)">
<title>MenuDialog::onGraphSelectionChanged</title>
<polygon fill="white" stroke="none" points="-4,4 -4,-62 335,-62 335,4 -4,4"/>
<!-- Node170 -->
<g id="node1" class="node"><title>Node170</title>
<g id="a_node1"><a xlink:title=" ">
<polygon fill="#bfbfbf" stroke="black" points="180,-14 180,-44 331,-44 331,-14 180,-14"/>
<text text-anchor="start" x="188" y="-32" font-family="Helvetica,sans-Serif" font-size="10.00">MenuDialog::onGraphSelection</text>
<text text-anchor="middle" x="255.5" y="-21" font-family="Helvetica,sans-Serif" font-size="10.00">Changed</text>
</a>
</g>
</g>
<!-- Node171 -->
<g id="node2" class="node"><title>Node171</title>
<g id="a_node2"><a xlink:href="class_menu_dialog.html#a0fe6bdf29a3a7095e2d7e4a38f8d8f70" target="_top" xlink:title=" ">
<polygon fill="white" stroke="black" points="0,-38.5 0,-57.5 144,-57.5 144,-38.5 0,-38.5"/>
<text text-anchor="middle" x="72" y="-45.5" font-family="Helvetica,sans-Serif" font-size="10.00">MenuDialog::deinitGraphView</text>
</a>
</g>
</g>
<!-- Node170&#45;&gt;Node171 -->
<g id="edge1" class="edge"><title>Node170&#45;&gt;Node171</title>
<path fill="none" stroke="midnightblue" d="M169.838,-37.8627C161.23,-38.7638 152.548,-39.6727 144.104,-40.5566"/>
<polygon fill="midnightblue" stroke="midnightblue" points="170.31,-41.3325 179.891,-36.8103 169.581,-34.3705 170.31,-41.3325"/>
</g>
<!-- Node172 -->
<g id="node3" class="node"><title>Node172</title>
<g id="a_node3"><a xlink:href="class_menu_dialog.html#a5f0986a127a923615177c4c264394f7d" target="_top" xlink:title=" ">
<polygon fill="white" stroke="black" points="5,-0.5 5,-19.5 139,-19.5 139,-0.5 5,-0.5"/>
<text text-anchor="middle" x="72" y="-7.5" font-family="Helvetica,sans-Serif" font-size="10.00">MenuDialog::initGraphView</text>
</a>
</g>
</g>
<!-- Node170&#45;&gt;Node172 -->
<g id="edge2" class="edge"><title>Node170&#45;&gt;Node172</title>
<path fill="none" stroke="midnightblue" d="M169.699,-20.1228C159.453,-19.0502 149.106,-17.967 139.183,-16.9282"/>
<polygon fill="midnightblue" stroke="midnightblue" points="169.581,-23.6295 179.891,-21.1897 170.31,-16.6675 169.581,-23.6295"/>
</g>
</g>
</svg>
