<?xml version="1.0" encoding="UTF-8" standalone="no"?>
<!DOCTYPE svg PUBLIC "-//W3C//DTD SVG 1.1//EN"
 "http://www.w3.org/Graphics/SVG/1.1/DTD/svg11.dtd">
<!-- Generated by graphviz version 2.38.0 (20140413.2041)
 -->
<!-- Title: IgorAux::iaStateMachine::createGate Pages: 1 -->
<svg width="290pt" height="88pt"
 viewBox="0.00 0.00 290.00 88.00" xmlns="http://www.w3.org/2000/svg" xmlns:xlink="http://www.w3.org/1999/xlink">
<g id="graph0" class="graph" transform="scale(1 1) rotate(0) translate(4 84)">
<title>IgorAux::iaStateMachine::createGate</title>
<polygon fill="white" stroke="none" points="-4,4 -4,-84 286,-84 286,4 -4,4"/>
<!-- Node8 -->
<g id="node1" class="node"><title>Node8</title>
<g id="a_node1"><a xlink:title=" ">
<polygon fill="#bfbfbf" stroke="black" points="0,-24.5 0,-54.5 123,-54.5 123,-24.5 0,-24.5"/>
<text text-anchor="start" x="8" y="-42.5" font-family="Helvetica,sans-Serif" font-size="10.00">IgorAux::iaStateMachine</text>
<text text-anchor="middle" x="61.5" y="-31.5" font-family="Helvetica,sans-Serif" font-size="10.00">::createGate</text>
</a>
</g>
</g>
<!-- Node9 -->
<g id="node2" class="node"><title>Node9</title>
<g id="a_node2"><a xlink:href="class_igor_aux_1_1ia_state_machine.html#ae4e14aa4dfe04b99756e5c148c387690" target="_top" xlink:title=" ">
<polygon fill="white" stroke="black" points="159,-49.5 159,-79.5 282,-79.5 282,-49.5 159,-49.5"/>
<text text-anchor="start" x="167" y="-67.5" font-family="Helvetica,sans-Serif" font-size="10.00">IgorAux::iaStateMachine</text>
<text text-anchor="middle" x="220.5" y="-56.5" font-family="Helvetica,sans-Serif" font-size="10.00">::getTransition</text>
</a>
</g>
</g>
<!-- Node8&#45;&gt;Node9 -->
<g id="edge1" class="edge"><title>Node8&#45;&gt;Node9</title>
<path fill="none" stroke="midnightblue" d="M123.2,-49.1657C131.635,-50.5088 140.359,-51.898 148.955,-53.2667"/>
<polygon fill="midnightblue" stroke="midnightblue" points="148.535,-56.7439 158.961,-54.8601 149.636,-49.831 148.535,-56.7439"/>
</g>
<!-- Node10 -->
<g id="node3" class="node"><title>Node10</title>
<g id="a_node3"><a xlink:href="class_igor_aux_1_1ia_transition.html#ae2ec74e76771994615d944ab94872a0a" target="_top" xlink:title=" ">
<polygon fill="white" stroke="black" points="168,-0.5 168,-30.5 273,-30.5 273,-0.5 168,-0.5"/>
<text text-anchor="start" x="176" y="-18.5" font-family="Helvetica,sans-Serif" font-size="10.00">IgorAux::iaTransition</text>
<text text-anchor="middle" x="220.5" y="-7.5" font-family="Helvetica,sans-Serif" font-size="10.00">::createGate</text>
</a>
</g>
</g>
<!-- Node8&#45;&gt;Node10 -->
<g id="edge2" class="edge"><title>Node8&#45;&gt;Node10</title>
<path fill="none" stroke="midnightblue" d="M123.2,-30.221C134.613,-28.4764 146.555,-26.6509 157.992,-24.9026"/>
<polygon fill="midnightblue" stroke="midnightblue" points="158.53,-28.3611 167.886,-23.39 157.472,-21.4414 158.53,-28.3611"/>
</g>
</g>
</svg>
