<?xml version="1.0" encoding="UTF-8" standalone="no"?>
<!DOCTYPE svg PUBLIC "-//W3C//DTD SVG 1.1//EN"
 "http://www.w3.org/Graphics/SVG/1.1/DTD/svg11.dtd">
<!-- Generated by graphviz version 2.38.0 (20140413.2041)
 -->
<!-- Title: Igor::iTimer::iTimer Pages: 1 -->
<svg width="273pt" height="88pt"
 viewBox="0.00 0.00 273.00 88.00" xmlns="http://www.w3.org/2000/svg" xmlns:xlink="http://www.w3.org/1999/xlink">
<g id="graph0" class="graph" transform="scale(1 1) rotate(0) translate(4 84)">
<title>Igor::iTimer::iTimer</title>
<polygon fill="white" stroke="none" points="-4,4 -4,-84 269,-84 269,4 -4,4"/>
<!-- Node1 -->
<g id="node1" class="node"><title>Node1</title>
<polygon fill="#bfbfbf" stroke="black" points="0,-30 0,-49 97,-49 97,-30 0,-30"/>
<text text-anchor="middle" x="48.5" y="-37" font-family="Helvetica,sans-Serif" font-size="10.00">Igor::iTimer::iTimer</text>
</g>
<!-- Node2 -->
<g id="node2" class="node"><title>Node2</title>
<g id="a_node2"><a xlink:href="class_igor_aux_1_1ia_clock.html#ad179336ad16c01d32f3a38bd7671bcb1" target="_top" xlink:title="IgorAux::iaClock::getTick\lScale">
<polygon fill="white" stroke="black" points="136.5,-49.5 136.5,-79.5 261.5,-79.5 261.5,-49.5 136.5,-49.5"/>
<text text-anchor="start" x="144.5" y="-67.5" font-family="Helvetica,sans-Serif" font-size="10.00">IgorAux::iaClock::getTick</text>
<text text-anchor="middle" x="199" y="-56.5" font-family="Helvetica,sans-Serif" font-size="10.00">Scale</text>
</a>
</g>
</g>
<!-- Node1&#45;&gt;Node2 -->
<g id="edge1" class="edge"><title>Node1&#45;&gt;Node2</title>
<path fill="none" stroke="midnightblue" d="M97.3037,-47.5478C106.652,-49.1215 116.643,-50.8035 126.567,-52.4742"/>
<polygon fill="midnightblue" stroke="midnightblue" points="126,-55.9279 136.442,-54.1367 127.162,-49.025 126,-55.9279"/>
</g>
<!-- Node3 -->
<g id="node3" class="node"><title>Node3</title>
<g id="a_node3"><a xlink:href="class_igor_aux_1_1ia_clock.html#a41deb840b7f4bd25d1adb2b9b482226d" target="_top" xlink:title="IgorAux::iaClock::getClock\lTicks">
<polygon fill="white" stroke="black" points="133,-0.5 133,-30.5 265,-30.5 265,-0.5 133,-0.5"/>
<text text-anchor="start" x="141" y="-18.5" font-family="Helvetica,sans-Serif" font-size="10.00">IgorAux::iaClock::getClock</text>
<text text-anchor="middle" x="199" y="-7.5" font-family="Helvetica,sans-Serif" font-size="10.00">Ticks</text>
</a>
</g>
</g>
<!-- Node1&#45;&gt;Node3 -->
<g id="edge2" class="edge"><title>Node1&#45;&gt;Node3</title>
<path fill="none" stroke="midnightblue" d="M97.3037,-31.7741C105.559,-30.44 114.315,-29.0248 123.084,-27.6076"/>
<polygon fill="midnightblue" stroke="midnightblue" points="123.65,-31.0616 132.964,-26.0109 122.533,-24.1513 123.65,-31.0616"/>
</g>
</g>
</svg>
