<?xml version="1.0" encoding="UTF-8" standalone="no"?>
<!DOCTYPE svg PUBLIC "-//W3C//DTD SVG 1.1//EN"
 "http://www.w3.org/Graphics/SVG/1.1/DTD/svg11.dtd">
<!-- Generated by graphviz version 2.38.0 (20140413.2041)
 -->
<!-- Title: IgorAux::iaStateMachine::getState Pages: 1 -->
<svg width="488pt" height="651pt"
 viewBox="0.00 0.00 488.00 651.00" xmlns="http://www.w3.org/2000/svg" xmlns:xlink="http://www.w3.org/1999/xlink">
<g id="graph0" class="graph" transform="scale(1 1) rotate(0) translate(4 647)">
<title>IgorAux::iaStateMachine::getState</title>
<polygon fill="white" stroke="none" points="-4,4 -4,-647 484,-647 484,4 -4,4"/>
<!-- Node1 -->
<g id="node1" class="node"><title>Node1</title>
<polygon fill="#bfbfbf" stroke="black" points="0,-294.5 0,-324.5 123,-324.5 123,-294.5 0,-294.5"/>
<text text-anchor="start" x="8" y="-312.5" font-family="Helvetica,sans-Serif" font-size="10.00">IgorAux::iaStateMachine</text>
<text text-anchor="middle" x="61.5" y="-301.5" font-family="Helvetica,sans-Serif" font-size="10.00">::getState</text>
</g>
<!-- Node2 -->
<g id="node2" class="node"><title>Node2</title>
<g id="a_node2"><a xlink:href="class_igor_aux_1_1ia_state_machine.html#a91361353dc0886f3f7cee450389688f5" target="_top" xlink:title="IgorAux::iaStateMachine\l::transit">
<polygon fill="white" stroke="black" points="178.5,-588.5 178.5,-618.5 301.5,-618.5 301.5,-588.5 178.5,-588.5"/>
<text text-anchor="start" x="186.5" y="-606.5" font-family="Helvetica,sans-Serif" font-size="10.00">IgorAux::iaStateMachine</text>
<text text-anchor="middle" x="240" y="-595.5" font-family="Helvetica,sans-Serif" font-size="10.00">::transit</text>
</a>
</g>
</g>
<!-- Node1&#45;&gt;Node2 -->
<g id="edge1" class="edge"><title>Node1&#45;&gt;Node2</title>
<path fill="none" stroke="midnightblue" d="M64.1488,-334.785C68.9887,-387.917 87.7211,-511.821 159,-579.5 164.573,-584.792 171.268,-588.921 178.38,-592.142"/>
<polygon fill="midnightblue" stroke="midnightblue" points="67.6167,-334.249 63.3129,-324.567 60.64,-334.82 67.6167,-334.249"/>
</g>
<!-- Node5 -->
<g id="node5" class="node"><title>Node5</title>
<g id="a_node5"><a xlink:href="class_igor_aux_1_1ia_state_machine.html#a28168f5d8e3160b64c4693ae34cfe103" target="_top" xlink:title="IgorAux::iaStateMachine\l::setInitialState">
<polygon fill="white" stroke="black" points="178.5,-539.5 178.5,-569.5 301.5,-569.5 301.5,-539.5 178.5,-539.5"/>
<text text-anchor="start" x="186.5" y="-557.5" font-family="Helvetica,sans-Serif" font-size="10.00">IgorAux::iaStateMachine</text>
<text text-anchor="middle" x="240" y="-546.5" font-family="Helvetica,sans-Serif" font-size="10.00">::setInitialState</text>
</a>
</g>
</g>
<!-- Node1&#45;&gt;Node5 -->
<g id="edge4" class="edge"><title>Node1&#45;&gt;Node5</title>
<path fill="none" stroke="midnightblue" d="M66.4082,-334.624C74.8517,-380.366 99.1068,-477.408 159,-530.5 164.642,-535.502 171.293,-539.462 178.31,-542.597"/>
<polygon fill="midnightblue" stroke="midnightblue" points="69.8369,-333.911 64.6721,-324.66 62.9408,-335.113 69.8369,-333.911"/>
</g>
<!-- Node6 -->
<g id="node6" class="node"><title>Node6</title>
<g id="a_node6"><a xlink:href="class_igor_aux_1_1ia_state_machine.html#abe2cd18bb4c8d0be2e0f6ae7cd7ff947" target="_top" xlink:title="IgorAux::iaStateMachine\l::createTransition">
<polygon fill="white" stroke="black" points="178.5,-490.5 178.5,-520.5 301.5,-520.5 301.5,-490.5 178.5,-490.5"/>
<text text-anchor="start" x="186.5" y="-508.5" font-family="Helvetica,sans-Serif" font-size="10.00">IgorAux::iaStateMachine</text>
<text text-anchor="middle" x="240" y="-497.5" font-family="Helvetica,sans-Serif" font-size="10.00">::createTransition</text>
</a>
</g>
</g>
<!-- Node1&#45;&gt;Node6 -->
<g id="edge5" class="edge"><title>Node1&#45;&gt;Node6</title>
<path fill="none" stroke="midnightblue" d="M69.7658,-334.32C82.0001,-371.764 110.273,-442.459 159,-481.5 164.771,-486.124 171.418,-489.858 178.363,-492.874"/>
<polygon fill="midnightblue" stroke="midnightblue" points="73.0773,-333.183 66.7368,-324.695 66.4001,-335.284 73.0773,-333.183"/>
</g>
<!-- Node7 -->
<g id="node7" class="node"><title>Node7</title>
<g id="a_node7"><a xlink:href="class_igor_aux_1_1ia_state_machine.html#adc6557ba7e685f29ef3132731dbe157e" target="_top" xlink:title="IgorAux::iaStateMachine\l::registerEnterStateDelegate">
<polygon fill="white" stroke="black" points="170,-441.5 170,-471.5 310,-471.5 310,-441.5 170,-441.5"/>
<text text-anchor="start" x="178" y="-459.5" font-family="Helvetica,sans-Serif" font-size="10.00">IgorAux::iaStateMachine</text>
<text text-anchor="middle" x="240" y="-448.5" font-family="Helvetica,sans-Serif" font-size="10.00">::registerEnterStateDelegate</text>
</a>
</g>
</g>
<!-- Node1&#45;&gt;Node7 -->
<g id="edge6" class="edge"><title>Node1&#45;&gt;Node7</title>
<path fill="none" stroke="midnightblue" d="M75.4653,-333.918C91.4802,-361.774 121.289,-406.783 159,-432.5 164.032,-435.931 169.566,-438.883 175.301,-441.419"/>
<polygon fill="midnightblue" stroke="midnightblue" points="78.3231,-331.857 70.3856,-324.84 72.2144,-335.276 78.3231,-331.857"/>
</g>
<!-- Node8 -->
<g id="node8" class="node"><title>Node8</title>
<g id="a_node8"><a xlink:href="class_igor_aux_1_1ia_state_machine.html#a7d72ac75ff56b2e1eb87dafa487292c7" target="_top" xlink:title="IgorAux::iaStateMachine\l::registerReEnterStateDelegate">
<polygon fill="white" stroke="black" points="164,-392.5 164,-422.5 316,-422.5 316,-392.5 164,-392.5"/>
<text text-anchor="start" x="172" y="-410.5" font-family="Helvetica,sans-Serif" font-size="10.00">IgorAux::iaStateMachine</text>
<text text-anchor="middle" x="240" y="-399.5" font-family="Helvetica,sans-Serif" font-size="10.00">::registerReEnterStateDelegate</text>
</a>
</g>
</g>
<!-- Node1&#45;&gt;Node8 -->
<g id="edge7" class="edge"><title>Node1&#45;&gt;Node8</title>
<path fill="none" stroke="midnightblue" d="M85.976,-331.444C104.557,-347.79 131.821,-369.597 159,-383.5 165.584,-386.868 172.72,-389.846 179.926,-392.457"/>
<polygon fill="midnightblue" stroke="midnightblue" points="88.1091,-328.656 78.3258,-324.59 83.4379,-333.87 88.1091,-328.656"/>
</g>
<!-- Node9 -->
<g id="node9" class="node"><title>Node9</title>
<g id="a_node9"><a xlink:href="class_igor_aux_1_1ia_state_machine.html#a36595caadf2a27c4d8b6fdb1a5f4ac46" target="_top" xlink:title="IgorAux::iaStateMachine\l::registerLeaveStateDelegate">
<polygon fill="white" stroke="black" points="169.5,-343.5 169.5,-373.5 310.5,-373.5 310.5,-343.5 169.5,-343.5"/>
<text text-anchor="start" x="177.5" y="-361.5" font-family="Helvetica,sans-Serif" font-size="10.00">IgorAux::iaStateMachine</text>
<text text-anchor="middle" x="240" y="-350.5" font-family="Helvetica,sans-Serif" font-size="10.00">::registerLeaveStateDelegate</text>
</a>
</g>
</g>
<!-- Node1&#45;&gt;Node9 -->
<g id="edge8" class="edge"><title>Node1&#45;&gt;Node9</title>
<path fill="none" stroke="midnightblue" d="M126.693,-327.321C145.75,-332.612 166.427,-338.352 184.784,-343.448"/>
<polygon fill="midnightblue" stroke="midnightblue" points="127.468,-323.904 116.896,-324.601 125.595,-330.649 127.468,-323.904"/>
</g>
<!-- Node10 -->
<g id="node10" class="node"><title>Node10</title>
<g id="a_node10"><a xlink:href="class_igor_aux_1_1ia_state_machine.html#a7c3f8131f696637e19dc164f10350da2" target="_top" xlink:title="IgorAux::iaStateMachine\l::registerHandleStateDelegate">
<polygon fill="white" stroke="black" points="167,-294.5 167,-324.5 313,-324.5 313,-294.5 167,-294.5"/>
<text text-anchor="start" x="175" y="-312.5" font-family="Helvetica,sans-Serif" font-size="10.00">IgorAux::iaStateMachine</text>
<text text-anchor="middle" x="240" y="-301.5" font-family="Helvetica,sans-Serif" font-size="10.00">::registerHandleStateDelegate</text>
</a>
</g>
</g>
<!-- Node1&#45;&gt;Node10 -->
<g id="edge9" class="edge"><title>Node1&#45;&gt;Node10</title>
<path fill="none" stroke="midnightblue" d="M133.277,-309.5C144.344,-309.5 155.794,-309.5 166.89,-309.5"/>
<polygon fill="midnightblue" stroke="midnightblue" points="133.241,-306 123.241,-309.5 133.241,-313 133.241,-306"/>
</g>
<!-- Node11 -->
<g id="node11" class="node"><title>Node11</title>
<g id="a_node11"><a xlink:href="class_igor_aux_1_1ia_state_machine.html#a33e7c2156ba05d1a90254399c1b2a4d7" target="_top" xlink:title="IgorAux::iaStateMachine\l::unregisterEnterStateDelegate">
<polygon fill="white" stroke="black" points="165,-245.5 165,-275.5 315,-275.5 315,-245.5 165,-245.5"/>
<text text-anchor="start" x="173" y="-263.5" font-family="Helvetica,sans-Serif" font-size="10.00">IgorAux::iaStateMachine</text>
<text text-anchor="middle" x="240" y="-252.5" font-family="Helvetica,sans-Serif" font-size="10.00">::unregisterEnterStateDelegate</text>
</a>
</g>
</g>
<!-- Node1&#45;&gt;Node11 -->
<g id="edge10" class="edge"><title>Node1&#45;&gt;Node11</title>
<path fill="none" stroke="midnightblue" d="M126.693,-291.679C145.75,-286.388 166.427,-280.648 184.784,-275.552"/>
<polygon fill="midnightblue" stroke="midnightblue" points="125.595,-288.351 116.896,-294.399 127.468,-295.096 125.595,-288.351"/>
</g>
<!-- Node12 -->
<g id="node12" class="node"><title>Node12</title>
<g id="a_node12"><a xlink:href="class_igor_aux_1_1ia_state_machine.html#ad0fa255aec434b38b15417fcaa78eedd" target="_top" xlink:title="IgorAux::iaStateMachine\l::unregisterReEnterStateDelegate">
<polygon fill="white" stroke="black" points="159,-196.5 159,-226.5 321,-226.5 321,-196.5 159,-196.5"/>
<text text-anchor="start" x="167" y="-214.5" font-family="Helvetica,sans-Serif" font-size="10.00">IgorAux::iaStateMachine</text>
<text text-anchor="middle" x="240" y="-203.5" font-family="Helvetica,sans-Serif" font-size="10.00">::unregisterReEnterStateDelegate</text>
</a>
</g>
</g>
<!-- Node1&#45;&gt;Node12 -->
<g id="edge11" class="edge"><title>Node1&#45;&gt;Node12</title>
<path fill="none" stroke="midnightblue" d="M86.4097,-287.666C105.033,-271.629 132.153,-250.316 159,-236.5 166.246,-232.771 174.149,-229.478 182.077,-226.607"/>
<polygon fill="midnightblue" stroke="midnightblue" points="83.9425,-285.174 78.7286,-294.398 88.5561,-290.439 83.9425,-285.174"/>
</g>
<!-- Node13 -->
<g id="node13" class="node"><title>Node13</title>
<g id="a_node13"><a xlink:href="class_igor_aux_1_1ia_state_machine.html#aed45487e6008fddcc1ca9404a1b555c7" target="_top" xlink:title="IgorAux::iaStateMachine\l::unregisterLeaveStateDelegate">
<polygon fill="white" stroke="black" points="164,-147.5 164,-177.5 316,-177.5 316,-147.5 164,-147.5"/>
<text text-anchor="start" x="172" y="-165.5" font-family="Helvetica,sans-Serif" font-size="10.00">IgorAux::iaStateMachine</text>
<text text-anchor="middle" x="240" y="-154.5" font-family="Helvetica,sans-Serif" font-size="10.00">::unregisterLeaveStateDelegate</text>
</a>
</g>
</g>
<!-- Node1&#45;&gt;Node13 -->
<g id="edge12" class="edge"><title>Node1&#45;&gt;Node13</title>
<path fill="none" stroke="midnightblue" d="M75.566,-285.358C91.6759,-257.801 121.574,-213.227 159,-187.5 164.636,-183.626 170.899,-180.331 177.369,-177.535"/>
<polygon fill="midnightblue" stroke="midnightblue" points="72.3601,-283.915 70.4531,-294.337 78.443,-287.379 72.3601,-283.915"/>
</g>
<!-- Node14 -->
<g id="node14" class="node"><title>Node14</title>
<g id="a_node14"><a xlink:href="class_igor_aux_1_1ia_state_machine.html#ac2ce3840e3f8878e758b8d56f6037170" target="_top" xlink:title="IgorAux::iaStateMachine\l::unregisterHandleStateDelegate">
<polygon fill="white" stroke="black" points="161.5,-98.5 161.5,-128.5 318.5,-128.5 318.5,-98.5 161.5,-98.5"/>
<text text-anchor="start" x="169.5" y="-116.5" font-family="Helvetica,sans-Serif" font-size="10.00">IgorAux::iaStateMachine</text>
<text text-anchor="middle" x="240" y="-105.5" font-family="Helvetica,sans-Serif" font-size="10.00">::unregisterHandleStateDelegate</text>
</a>
</g>
</g>
<!-- Node1&#45;&gt;Node14 -->
<g id="edge13" class="edge"><title>Node1&#45;&gt;Node14</title>
<path fill="none" stroke="midnightblue" d="M69.8625,-284.892C82.2242,-247.754 110.662,-177.585 159,-138.5 163.752,-134.657 169.099,-131.403 174.716,-128.646"/>
<polygon fill="midnightblue" stroke="midnightblue" points="66.5224,-283.846 66.799,-294.437 73.1875,-285.985 66.5224,-283.846"/>
</g>
<!-- Node15 -->
<g id="node15" class="node"><title>Node15</title>
<g id="a_node15"><a xlink:href="class_igor_aux_1_1ia_state_machine.html#a841e05bd14b2d1892f7e529aad97011f" target="_top" xlink:title="IgorAux::iaStateMachine\l::registerRenderStateDelegate">
<polygon fill="white" stroke="black" points="166.5,-49.5 166.5,-79.5 313.5,-79.5 313.5,-49.5 166.5,-49.5"/>
<text text-anchor="start" x="174.5" y="-67.5" font-family="Helvetica,sans-Serif" font-size="10.00">IgorAux::iaStateMachine</text>
<text text-anchor="middle" x="240" y="-56.5" font-family="Helvetica,sans-Serif" font-size="10.00">::registerRenderStateDelegate</text>
</a>
</g>
</g>
<!-- Node1&#45;&gt;Node15 -->
<g id="edge14" class="edge"><title>Node1&#45;&gt;Node15</title>
<path fill="none" stroke="midnightblue" d="M66.5018,-284.553C75.098,-239.121 99.5932,-142.681 159,-89.5 163.337,-85.6178 168.271,-82.3384 173.511,-79.5683"/>
<polygon fill="midnightblue" stroke="midnightblue" points="63.0474,-283.988 64.7311,-294.448 69.938,-285.221 63.0474,-283.988"/>
</g>
<!-- Node16 -->
<g id="node16" class="node"><title>Node16</title>
<g id="a_node16"><a xlink:href="class_igor_aux_1_1ia_state_machine.html#a85d030f80748fc0d05d405ddb4e5336f" target="_top" xlink:title="IgorAux::iaStateMachine\l::unregisterRenderStateDelegate">
<polygon fill="white" stroke="black" points="161,-0.5 161,-30.5 319,-30.5 319,-0.5 161,-0.5"/>
<text text-anchor="start" x="169" y="-18.5" font-family="Helvetica,sans-Serif" font-size="10.00">IgorAux::iaStateMachine</text>
<text text-anchor="middle" x="240" y="-7.5" font-family="Helvetica,sans-Serif" font-size="10.00">::unregisterRenderStateDelegate</text>
</a>
</g>
</g>
<!-- Node1&#45;&gt;Node16 -->
<g id="edge15" class="edge"><title>Node1&#45;&gt;Node16</title>
<path fill="none" stroke="midnightblue" d="M64.2757,-283.994C69.3447,-230.97 88.4689,-108.16 159,-40.5 162.99,-36.6721 167.559,-33.4298 172.446,-30.6836"/>
<polygon fill="midnightblue" stroke="midnightblue" points="60.7674,-283.94 63.3939,-294.205 67.7414,-284.543 60.7674,-283.94"/>
</g>
<!-- Node3 -->
<g id="node3" class="node"><title>Node3</title>
<g id="a_node3"><a xlink:href="class_igor_aux_1_1ia_state_machine.html#ad884bcc26a5262c7c82ca505065be81b" target="_top" xlink:title="IgorAux::iaStateMachine\l::doTransition">
<polygon fill="white" stroke="black" points="357,-612.5 357,-642.5 480,-642.5 480,-612.5 357,-612.5"/>
<text text-anchor="start" x="365" y="-630.5" font-family="Helvetica,sans-Serif" font-size="10.00">IgorAux::iaStateMachine</text>
<text text-anchor="middle" x="418.5" y="-619.5" font-family="Helvetica,sans-Serif" font-size="10.00">::doTransition</text>
</a>
</g>
</g>
<!-- Node2&#45;&gt;Node3 -->
<g id="edge2" class="edge"><title>Node2&#45;&gt;Node3</title>
<path fill="none" stroke="midnightblue" d="M311.935,-613.146C326.851,-615.174 342.453,-617.295 356.946,-619.266"/>
<polygon fill="midnightblue" stroke="midnightblue" points="312.122,-609.639 301.741,-611.759 311.178,-616.575 312.122,-609.639"/>
</g>
<!-- Node4 -->
<g id="node4" class="node"><title>Node4</title>
<g id="a_node4"><a xlink:href="class_igor_aux_1_1ia_state_machine.html#a1668769ea8979928f5683742a0515c4c" target="_top" xlink:title="IgorAux::iaStateMachine\l::openGate">
<polygon fill="white" stroke="black" points="357,-563.5 357,-593.5 480,-593.5 480,-563.5 357,-563.5"/>
<text text-anchor="start" x="365" y="-581.5" font-family="Helvetica,sans-Serif" font-size="10.00">IgorAux::iaStateMachine</text>
<text text-anchor="middle" x="418.5" y="-570.5" font-family="Helvetica,sans-Serif" font-size="10.00">::openGate</text>
</a>
</g>
</g>
<!-- Node2&#45;&gt;Node4 -->
<g id="edge3" class="edge"><title>Node2&#45;&gt;Node4</title>
<path fill="none" stroke="midnightblue" d="M311.935,-593.452C326.851,-591.34 342.453,-589.13 356.946,-587.077"/>
<polygon fill="midnightblue" stroke="midnightblue" points="311.152,-590.028 301.741,-594.896 312.133,-596.959 311.152,-590.028"/>
</g>
</g>
</svg>
