<?xml version="1.0" encoding="UTF-8" standalone="no"?>
<!DOCTYPE svg PUBLIC "-//W3C//DTD SVG 1.1//EN"
 "http://www.w3.org/Graphics/SVG/1.1/DTD/svg11.dtd">
<!-- Generated by graphviz version 2.38.0 (20140413.2041)
 -->
<!-- Title: MenuDialog::onCopy Pages: 1 -->
<svg width="264pt" height="66pt"
 viewBox="0.00 0.00 264.00 66.00" xmlns="http://www.w3.org/2000/svg" xmlns:xlink="http://www.w3.org/1999/xlink">
<g id="graph0" class="graph" transform="scale(1 1) rotate(0) translate(4 62)">
<title>MenuDialog::onCopy</title>
<polygon fill="white" stroke="none" points="-4,4 -4,-62 260,-62 260,4 -4,4"/>
<!-- Node1 -->
<g id="node1" class="node"><title>Node1</title>
<polygon fill="#bfbfbf" stroke="black" points="0,-19.5 0,-38.5 107,-38.5 107,-19.5 0,-19.5"/>
<text text-anchor="middle" x="53.5" y="-26.5" font-family="Helvetica,sans-Serif" font-size="10.00">MenuDialog::onCopy</text>
</g>
<!-- Node2 -->
<g id="node2" class="node"><title>Node2</title>
<g id="a_node2"><a xlink:href="class_menu_dialog.html#aa11150c7006b0d974a9252f03f8068a3" target="_top" xlink:title="MenuDialog::initGUI">
<polygon fill="white" stroke="black" points="148,-38.5 148,-57.5 251,-57.5 251,-38.5 148,-38.5"/>
<text text-anchor="middle" x="199.5" y="-45.5" font-family="Helvetica,sans-Serif" font-size="10.00">MenuDialog::initGUI</text>
</a>
</g>
</g>
<!-- Node1&#45;&gt;Node2 -->
<g id="edge1" class="edge"><title>Node1&#45;&gt;Node2</title>
<path fill="none" stroke="midnightblue" d="M117.318,-37.2886C127.447,-38.6249 137.822,-39.9938 147.623,-41.2871"/>
<polygon fill="midnightblue" stroke="midnightblue" points="117.675,-33.8053 107.303,-35.967 116.759,-40.7451 117.675,-33.8053"/>
</g>
<!-- Node3 -->
<g id="node3" class="node"><title>Node3</title>
<g id="a_node3"><a xlink:href="class_menu_dialog.html#ad45c34150be9cf8c048ee636272137ac" target="_top" xlink:title="MenuDialog::deinitGUI">
<polygon fill="white" stroke="black" points="143,-0.5 143,-19.5 256,-19.5 256,-0.5 143,-0.5"/>
<text text-anchor="middle" x="199.5" y="-7.5" font-family="Helvetica,sans-Serif" font-size="10.00">MenuDialog::deinitGUI</text>
</a>
</g>
</g>
<!-- Node1&#45;&gt;Node3 -->
<g id="edge2" class="edge"><title>Node1&#45;&gt;Node3</title>
<path fill="none" stroke="midnightblue" d="M117.473,-20.6911C125.905,-19.5785 134.505,-18.4438 142.8,-17.3493"/>
<polygon fill="midnightblue" stroke="midnightblue" points="116.759,-17.2549 107.303,-22.033 117.675,-24.1947 116.759,-17.2549"/>
</g>
</g>
</svg>
