<?xml version="1.0" encoding="UTF-8" standalone="no"?>
<!DOCTYPE svg PUBLIC "-//W3C//DTD SVG 1.1//EN"
 "http://www.w3.org/Graphics/SVG/1.1/DTD/svg11.dtd">
<!-- Generated by graphviz version 2.38.0 (20140413.2041)
 -->
<!-- Title: Igor::iOctree::clearFilter Pages: 1 -->
<svg width="276pt" height="78pt"
 viewBox="0.00 0.00 276.00 77.50" xmlns="http://www.w3.org/2000/svg" xmlns:xlink="http://www.w3.org/1999/xlink">
<g id="graph0" class="graph" transform="scale(1 1) rotate(0) translate(4 73.5)">
<title>Igor::iOctree::clearFilter</title>
<polygon fill="white" stroke="none" points="-4,4 -4,-73.5 272,-73.5 272,4 -4,4"/>
<!-- Node14 -->
<g id="node1" class="node"><title>Node14</title>
<g id="a_node1"><a xlink:title=" ">
<polygon fill="#bfbfbf" stroke="black" points="149,-22.5 149,-41.5 268,-41.5 268,-22.5 149,-22.5"/>
<text text-anchor="middle" x="208.5" y="-29.5" font-family="Helvetica,sans-Serif" font-size="10.00">Igor::iOctree::clearFilter</text>
</a>
</g>
</g>
<!-- Node15 -->
<g id="node2" class="node"><title>Node15</title>
<g id="a_node2"><a xlink:href="class_igor_1_1i_entity_manager.html#a1be0eeeb3a34c74b1e64068f6ffcf526" target="_top" xlink:title=" ">
<polygon fill="white" stroke="black" points="4.5,-39 4.5,-69 108.5,-69 108.5,-39 4.5,-39"/>
<text text-anchor="start" x="12.5" y="-57" font-family="Helvetica,sans-Serif" font-size="10.00">Igor::iEntityManager</text>
<text text-anchor="middle" x="56.5" y="-46" font-family="Helvetica,sans-Serif" font-size="10.00">::getEntities</text>
</a>
</g>
</g>
<!-- Node14&#45;&gt;Node15 -->
<g id="edge1" class="edge"><title>Node14&#45;&gt;Node15</title>
<path fill="none" stroke="midnightblue" d="M138.694,-42.0915C128.665,-43.5624 118.488,-45.0551 108.885,-46.4635"/>
<polygon fill="midnightblue" stroke="midnightblue" points="139.26,-45.546 148.647,-40.6318 138.244,-38.6201 139.26,-45.546"/>
</g>
<!-- Node16 -->
<g id="node3" class="node"><title>Node16</title>
<g id="a_node3"><a xlink:href="class_igor_1_1i_octree.html#a0935da099360881341699639ece7515e" target="_top" xlink:title=" ">
<polygon fill="white" stroke="black" points="0,-0.5 0,-19.5 113,-19.5 113,-0.5 0,-0.5"/>
<text text-anchor="middle" x="56.5" y="-7.5" font-family="Helvetica,sans-Serif" font-size="10.00">Igor::iOctree::~iOctree</text>
</a>
</g>
</g>
<!-- Node14&#45;&gt;Node16 -->
<g id="edge2" class="edge"><title>Node14&#45;&gt;Node16</title>
<path fill="none" stroke="midnightblue" d="M138.71,-21.9108C130.18,-20.6598 121.543,-19.3929 113.243,-18.1756"/>
<polygon fill="midnightblue" stroke="midnightblue" points="138.244,-25.3799 148.647,-23.3682 139.26,-18.454 138.244,-25.3799"/>
</g>
</g>
</svg>
