<?xml version="1.0" encoding="UTF-8" standalone="no"?>
<!DOCTYPE svg PUBLIC "-//W3C//DTD SVG 1.1//EN"
 "http://www.w3.org/Graphics/SVG/1.1/DTD/svg11.dtd">
<!-- Generated by graphviz version 2.38.0 (20140413.2041)
 -->
<!-- Title: Igor::iOctree::insert Pages: 1 -->
<svg width="566pt" height="110pt"
 viewBox="0.00 0.00 566.00 109.50" xmlns="http://www.w3.org/2000/svg" xmlns:xlink="http://www.w3.org/1999/xlink">
<g id="graph0" class="graph" transform="scale(1 1) rotate(0) translate(4 105.5)">
<title>Igor::iOctree::insert</title>
<polygon fill="white" stroke="none" points="-4,4 -4,-105.5 562,-105.5 562,4 -4,4"/>
<!-- Node1 -->
<g id="node1" class="node"><title>Node1</title>
<polygon fill="#bfbfbf" stroke="black" points="0,-38.5 0,-57.5 100,-57.5 100,-38.5 0,-38.5"/>
<text text-anchor="middle" x="50" y="-45.5" font-family="Helvetica,sans-Serif" font-size="10.00">Igor::iOctree::insert</text>
</g>
<!-- Node2 -->
<g id="node2" class="node"><title>Node2</title>
<g id="a_node2"><a xlink:href="class_igor_1_1i_octree.html#a02356a9825edc88cf92bd483dd4a3fba" target="_top" xlink:title="Igor::iOctree::insert">
<polygon fill="white" stroke="black" points="151.5,-76.5 151.5,-95.5 251.5,-95.5 251.5,-76.5 151.5,-76.5"/>
<text text-anchor="middle" x="201.5" y="-83.5" font-family="Helvetica,sans-Serif" font-size="10.00">Igor::iOctree::insert</text>
</a>
</g>
</g>
<!-- Node1&#45;&gt;Node2 -->
<g id="edge1" class="edge"><title>Node1&#45;&gt;Node2</title>
<path fill="none" stroke="midnightblue" d="M88.7252,-57.589C108.276,-62.5583 132.347,-68.6767 153.137,-73.9613"/>
<polygon fill="midnightblue" stroke="midnightblue" points="152.492,-77.4085 163.046,-76.4799 154.217,-70.6243 152.492,-77.4085"/>
</g>
<!-- Node4 -->
<g id="node4" class="node"><title>Node4</title>
<g id="a_node4"><a xlink:href="class_igor_1_1i_octree.html#a062b3a1647eae3f44f7f9938d9516408" target="_top" xlink:title="Igor::iOctree::createObject">
<polygon fill="white" stroke="black" points="136,-38.5 136,-57.5 267,-57.5 267,-38.5 136,-38.5"/>
<text text-anchor="middle" x="201.5" y="-45.5" font-family="Helvetica,sans-Serif" font-size="10.00">Igor::iOctree::createObject</text>
</a>
</g>
</g>
<!-- Node1&#45;&gt;Node4 -->
<g id="edge3" class="edge"><title>Node1&#45;&gt;Node4</title>
<path fill="none" stroke="midnightblue" d="M100.366,-48C108.558,-48 117.211,-48 125.862,-48"/>
<polygon fill="midnightblue" stroke="midnightblue" points="125.988,-51.5001 135.988,-48 125.988,-44.5001 125.988,-51.5001"/>
</g>
<!-- Node5 -->
<g id="node5" class="node"><title>Node5</title>
<g id="a_node5"><a xlink:href="class_igor_1_1i_octree.html#a4f0e2a3cb4c930a1f333c5abc10b88da" target="_top" xlink:title="Igor::iOctree::trySplit">
<polygon fill="white" stroke="black" points="148,-0.5 148,-19.5 255,-19.5 255,-0.5 148,-0.5"/>
<text text-anchor="middle" x="201.5" y="-7.5" font-family="Helvetica,sans-Serif" font-size="10.00">Igor::iOctree::trySplit</text>
</a>
</g>
</g>
<!-- Node1&#45;&gt;Node5 -->
<g id="edge4" class="edge"><title>Node1&#45;&gt;Node5</title>
<path fill="none" stroke="midnightblue" d="M88.7252,-38.411C108.276,-33.4417 132.347,-27.3233 153.137,-22.0387"/>
<polygon fill="midnightblue" stroke="midnightblue" points="154.217,-25.3757 163.046,-19.5201 152.492,-18.5915 154.217,-25.3757"/>
</g>
<!-- Node3 -->
<g id="node3" class="node"><title>Node3</title>
<g id="a_node3"><a xlink:href="class_igor_1_1i_intersection.html#a6014a2a386e8e33b7f8bf22ece42d3f5" target="_top" xlink:title="Igor::iIntersection\l::intersects">
<polygon fill="white" stroke="black" points="304.5,-71 304.5,-101 395.5,-101 395.5,-71 304.5,-71"/>
<text text-anchor="start" x="312.5" y="-89" font-family="Helvetica,sans-Serif" font-size="10.00">Igor::iIntersection</text>
<text text-anchor="middle" x="350" y="-78" font-family="Helvetica,sans-Serif" font-size="10.00">::intersects</text>
</a>
</g>
</g>
<!-- Node2&#45;&gt;Node3 -->
<g id="edge2" class="edge"><title>Node2&#45;&gt;Node3</title>
<path fill="none" stroke="midnightblue" d="M251.69,-86C265.203,-86 279.945,-86 293.773,-86"/>
<polygon fill="midnightblue" stroke="midnightblue" points="294.134,-89.5001 304.134,-86 294.134,-82.5001 294.134,-89.5001"/>
</g>
<!-- Node6 -->
<g id="node6" class="node"><title>Node6</title>
<g id="a_node6"><a xlink:href="class_igor_1_1i_octree.html#a1479ad7f15cf021806b5574da4cc7a23" target="_top" xlink:title="Igor::iOctree::split">
<polygon fill="white" stroke="black" points="303,-0.5 303,-19.5 397,-19.5 397,-0.5 303,-0.5"/>
<text text-anchor="middle" x="350" y="-7.5" font-family="Helvetica,sans-Serif" font-size="10.00">Igor::iOctree::split</text>
</a>
</g>
</g>
<!-- Node5&#45;&gt;Node6 -->
<g id="edge5" class="edge"><title>Node5&#45;&gt;Node6</title>
<path fill="none" stroke="midnightblue" d="M255.39,-3.4873C267.556,-3.19682 280.535,-3.17302 292.835,-3.41591"/>
<polygon fill="midnightblue" stroke="midnightblue" points="292.885,-6.91833 302.973,-3.68265 293.069,0.0792441 292.885,-6.91833"/>
</g>
<!-- Node6&#45;&gt;Node5 -->
<g id="edge7" class="edge"><title>Node6&#45;&gt;Node5</title>
<path fill="none" stroke="midnightblue" d="M302.973,-16.3173C291.054,-16.7135 278.014,-16.8376 265.393,-16.6897"/>
<polygon fill="midnightblue" stroke="midnightblue" points="265.45,-13.1902 255.39,-16.5127 265.326,-20.1891 265.45,-13.1902"/>
</g>
<!-- Node7 -->
<g id="node7" class="node"><title>Node7</title>
<g id="a_node7"><a xlink:href="class_igor_1_1i_octree.html#a320a17aa9d473d960cc32579515cb073" target="_top" xlink:title="Igor::iOctree::createNode">
<polygon fill="white" stroke="black" points="433,-0.5 433,-19.5 558,-19.5 558,-0.5 433,-0.5"/>
<text text-anchor="middle" x="495.5" y="-7.5" font-family="Helvetica,sans-Serif" font-size="10.00">Igor::iOctree::createNode</text>
</a>
</g>
</g>
<!-- Node6&#45;&gt;Node7 -->
<g id="edge6" class="edge"><title>Node6&#45;&gt;Node7</title>
<path fill="none" stroke="midnightblue" d="M397.194,-10C405.38,-10 414.076,-10 422.772,-10"/>
<polygon fill="midnightblue" stroke="midnightblue" points="422.949,-13.5001 432.949,-10 422.949,-6.5001 422.949,-13.5001"/>
</g>
</g>
</svg>
