<?xml version="1.0" encoding="UTF-8" standalone="no"?>
<!DOCTYPE svg PUBLIC "-//W3C//DTD SVG 1.1//EN"
 "http://www.w3.org/Graphics/SVG/1.1/DTD/svg11.dtd">
<!-- Generated by graphviz version 2.38.0 (20140413.2041)
 -->
<!-- Title: Igor::iWidget::getMinWidth Pages: 1 -->
<svg width="303pt" height="225pt"
 viewBox="0.00 0.00 303.00 224.50" xmlns="http://www.w3.org/2000/svg" xmlns:xlink="http://www.w3.org/1999/xlink">
<g id="graph0" class="graph" transform="scale(1 1) rotate(0) translate(4 220.5)">
<title>Igor::iWidget::getMinWidth</title>
<polygon fill="white" stroke="none" points="-4,4 -4,-220.5 299,-220.5 299,4 -4,4"/>
<!-- Node106 -->
<g id="node1" class="node"><title>Node106</title>
<g id="a_node1"><a xlink:title=" ">
<polygon fill="#bfbfbf" stroke="black" points="163,-104 163,-123 295,-123 295,-104 163,-104"/>
<text text-anchor="middle" x="229" y="-111" font-family="Helvetica,sans-Serif" font-size="10.00">Igor::iWidget::getMinWidth</text>
</a>
</g>
</g>
<!-- Node107 -->
<g id="node2" class="node"><title>Node107</title>
<g id="a_node2"><a xlink:href="class_igor_1_1i_dialog.html#a05e3859b95c313b11c25c31c74a1fdfc" target="_top" xlink:title=" ">
<polygon fill="white" stroke="black" points="0,-197 0,-216 127,-216 127,-197 0,-197"/>
<text text-anchor="middle" x="63.5" y="-204" font-family="Helvetica,sans-Serif" font-size="10.00">Igor::iDialog::calcMinSize</text>
</a>
</g>
</g>
<!-- Node106&#45;&gt;Node107 -->
<g id="edge1" class="edge"><title>Node106&#45;&gt;Node107</title>
<path fill="none" stroke="midnightblue" d="M209.896,-129.726C190.585,-146.292 158.5,-171.747 127,-187.5 119.595,-191.203 111.332,-194.339 103.301,-196.93"/>
<polygon fill="midnightblue" stroke="midnightblue" points="212.352,-132.228 217.586,-123.016 207.75,-126.953 212.352,-132.228"/>
</g>
<!-- Node108 -->
<g id="node3" class="node"><title>Node108</title>
<g id="a_node3"><a xlink:href="class_igor_1_1i_user_control.html#a50b80706c84e767380319aeb28507c59" target="_top" xlink:title=" ">
<polygon fill="white" stroke="black" points="17.5,-147.5 17.5,-177.5 109.5,-177.5 109.5,-147.5 17.5,-147.5"/>
<text text-anchor="start" x="25.5" y="-165.5" font-family="Helvetica,sans-Serif" font-size="10.00">Igor::iUserControl</text>
<text text-anchor="middle" x="63.5" y="-154.5" font-family="Helvetica,sans-Serif" font-size="10.00">::calcMinSize</text>
</a>
</g>
</g>
<!-- Node106&#45;&gt;Node108 -->
<g id="edge2" class="edge"><title>Node106&#45;&gt;Node108</title>
<path fill="none" stroke="midnightblue" d="M186.427,-125.959C162.973,-132.988 133.645,-141.778 109.631,-148.974"/>
<polygon fill="midnightblue" stroke="midnightblue" points="187.513,-129.288 196.087,-123.064 185.504,-122.582 187.513,-129.288"/>
</g>
<!-- Node109 -->
<g id="node4" class="node"><title>Node109</title>
<g id="a_node4"><a xlink:href="class_igor_1_1i_widget_grid.html#af3fd06ae9663a6aecff1e99927809ee0" target="_top" xlink:title=" ">
<polygon fill="white" stroke="black" points="16,-98.5 16,-128.5 111,-128.5 111,-98.5 16,-98.5"/>
<text text-anchor="start" x="24" y="-116.5" font-family="Helvetica,sans-Serif" font-size="10.00">Igor::iWidgetGrid::</text>
<text text-anchor="middle" x="63.5" y="-105.5" font-family="Helvetica,sans-Serif" font-size="10.00">calcMinSize</text>
</a>
</g>
</g>
<!-- Node106&#45;&gt;Node109 -->
<g id="edge3" class="edge"><title>Node106&#45;&gt;Node109</title>
<path fill="none" stroke="midnightblue" d="M152.694,-113.5C138.566,-113.5 124.18,-113.5 111.238,-113.5"/>
<polygon fill="midnightblue" stroke="midnightblue" points="152.911,-117 162.911,-113.5 152.911,-110 152.911,-117"/>
</g>
<!-- Node110 -->
<g id="node5" class="node"><title>Node110</title>
<g id="a_node5"><a xlink:href="class_igor_1_1i_widget_group_box.html#a9f870fe9a74f87279840f1410640f69b" target="_top" xlink:title=" ">
<polygon fill="white" stroke="black" points="6,-49.5 6,-79.5 121,-79.5 121,-49.5 6,-49.5"/>
<text text-anchor="start" x="14" y="-67.5" font-family="Helvetica,sans-Serif" font-size="10.00">Igor::iWidgetGroupBox</text>
<text text-anchor="middle" x="63.5" y="-56.5" font-family="Helvetica,sans-Serif" font-size="10.00">::calcMinSize</text>
</a>
</g>
</g>
<!-- Node106&#45;&gt;Node110 -->
<g id="edge4" class="edge"><title>Node106&#45;&gt;Node110</title>
<path fill="none" stroke="midnightblue" d="M186.444,-101.046C164.605,-94.5008 137.67,-86.4287 114.674,-79.537"/>
<polygon fill="midnightblue" stroke="midnightblue" points="185.504,-104.418 196.087,-103.936 187.513,-97.7124 185.504,-104.418"/>
</g>
<!-- Node111 -->
<g id="node6" class="node"><title>Node111</title>
<g id="a_node6"><a xlink:href="class_igor_1_1i_widget_scroll.html#a1ee966ffe24e24a937f37167983d912b" target="_top" xlink:title=" ">
<polygon fill="white" stroke="black" points="15.5,-0.5 15.5,-30.5 111.5,-30.5 111.5,-0.5 15.5,-0.5"/>
<text text-anchor="start" x="23.5" y="-18.5" font-family="Helvetica,sans-Serif" font-size="10.00">Igor::iWidgetScroll</text>
<text text-anchor="middle" x="63.5" y="-7.5" font-family="Helvetica,sans-Serif" font-size="10.00">::draw</text>
</a>
</g>
</g>
<!-- Node106&#45;&gt;Node111 -->
<g id="edge5" class="edge"><title>Node106&#45;&gt;Node111</title>
<path fill="none" stroke="midnightblue" d="M208.94,-97.5283C189.31,-81.6206 157.379,-57.2218 127,-40.5 120.448,-36.8934 113.265,-33.5275 106.177,-30.5075"/>
<polygon fill="midnightblue" stroke="midnightblue" points="206.852,-100.342 216.802,-103.98 211.292,-94.9308 206.852,-100.342"/>
</g>
</g>
</svg>
