<?xml version="1.0" encoding="UTF-8" standalone="no"?>
<!DOCTYPE svg PUBLIC "-//W3C//DTD SVG 1.1//EN"
 "http://www.w3.org/Graphics/SVG/1.1/DTD/svg11.dtd">
<!-- Generated by graphviz version 2.38.0 (20140413.2041)
 -->
<!-- Title: Igor::iTargetMaterial::setSpecular Pages: 1 -->
<svg width="280pt" height="88pt"
 viewBox="0.00 0.00 280.00 88.00" xmlns="http://www.w3.org/2000/svg" xmlns:xlink="http://www.w3.org/1999/xlink">
<g id="graph0" class="graph" transform="scale(1 1) rotate(0) translate(4 84)">
<title>Igor::iTargetMaterial::setSpecular</title>
<polygon fill="white" stroke="none" points="-4,4 -4,-84 276,-84 276,4 -4,4"/>
<!-- Node54 -->
<g id="node1" class="node"><title>Node54</title>
<g id="a_node1"><a xlink:title=" ">
<polygon fill="#bfbfbf" stroke="black" points="170,-24.5 170,-54.5 272,-54.5 272,-24.5 170,-24.5"/>
<text text-anchor="start" x="178" y="-42.5" font-family="Helvetica,sans-Serif" font-size="10.00">Igor::iTargetMaterial</text>
<text text-anchor="middle" x="221" y="-31.5" font-family="Helvetica,sans-Serif" font-size="10.00">::setSpecular</text>
</a>
</g>
</g>
<!-- Node55 -->
<g id="node2" class="node"><title>Node55</title>
<g id="a_node2"><a xlink:href="class_widget3_d_emitter.html#a363f3a0acfbb9f55c5bfd54c326f2935" target="_top" xlink:title=" ">
<polygon fill="white" stroke="black" points="0.5,-49.5 0.5,-79.5 133.5,-79.5 133.5,-49.5 0.5,-49.5"/>
<text text-anchor="start" x="8.5" y="-67.5" font-family="Helvetica,sans-Serif" font-size="10.00">Widget3DEmitter::Widget3</text>
<text text-anchor="middle" x="67" y="-56.5" font-family="Helvetica,sans-Serif" font-size="10.00">DEmitter</text>
</a>
</g>
</g>
<!-- Node54&#45;&gt;Node55 -->
<g id="edge1" class="edge"><title>Node54&#45;&gt;Node55</title>
<path fill="none" stroke="midnightblue" d="M159.844,-49.3941C151.221,-50.8124 142.312,-52.2776 133.59,-53.7121"/>
<polygon fill="midnightblue" stroke="midnightblue" points="160.509,-52.8318 169.808,-47.7552 159.373,-45.9246 160.509,-52.8318"/>
</g>
<!-- Node56 -->
<g id="node3" class="node"><title>Node56</title>
<g id="a_node3"><a xlink:href="class_widget3_d_locator.html#ae3089c10bd105e2327b5e5342c53b0de" target="_top" xlink:title=" ">
<polygon fill="white" stroke="black" points="0,-0.5 0,-30.5 134,-30.5 134,-0.5 0,-0.5"/>
<text text-anchor="start" x="8" y="-18.5" font-family="Helvetica,sans-Serif" font-size="10.00">Widget3DLocator::Widget3</text>
<text text-anchor="middle" x="67" y="-7.5" font-family="Helvetica,sans-Serif" font-size="10.00">DLocator</text>
</a>
</g>
</g>
<!-- Node54&#45;&gt;Node56 -->
<g id="edge2" class="edge"><title>Node54&#45;&gt;Node56</title>
<path fill="none" stroke="midnightblue" d="M159.718,-29.9818C151.313,-28.6547 142.64,-27.2852 134.134,-25.9422"/>
<polygon fill="midnightblue" stroke="midnightblue" points="159.385,-33.4725 169.808,-31.575 160.477,-26.5581 159.385,-33.4725"/>
</g>
</g>
</svg>
