<?xml version="1.0" encoding="UTF-8" standalone="no"?>
<!DOCTYPE svg PUBLIC "-//W3C//DTD SVG 1.1//EN"
 "http://www.w3.org/Graphics/SVG/1.1/DTD/svg11.dtd">
<!-- Generated by graphviz version 2.38.0 (20140413.2041)
 -->
<!-- Title: Igor::iPhysics::destroyBody Pages: 1 -->
<svg width="471pt" height="104pt"
 viewBox="0.00 0.00 471.00 104.00" xmlns="http://www.w3.org/2000/svg" xmlns:xlink="http://www.w3.org/1999/xlink">
<g id="graph0" class="graph" transform="scale(1 1) rotate(0) translate(4 100)">
<title>Igor::iPhysics::destroyBody</title>
<polygon fill="white" stroke="none" points="-4,4 -4,-100 467,-100 467,4 -4,4"/>
<!-- Node1 -->
<g id="node1" class="node"><title>Node1</title>
<polygon fill="#bfbfbf" stroke="black" points="0,-38.5 0,-57.5 137,-57.5 137,-38.5 0,-38.5"/>
<text text-anchor="middle" x="68.5" y="-45.5" font-family="Helvetica,sans-Serif" font-size="10.00">Igor::iPhysics::destroyBody</text>
</g>
<!-- Node2 -->
<g id="node2" class="node"><title>Node2</title>
<g id="a_node2"><a xlink:href="class_igor_1_1i_physics.html#aa267695da6309947267ed6735101e2d3" target="_top" xlink:title="Igor::iPhysics::~iPhysics">
<polygon fill="white" stroke="black" points="182.5,-76.5 182.5,-95.5 307.5,-95.5 307.5,-76.5 182.5,-76.5"/>
<text text-anchor="middle" x="245" y="-83.5" font-family="Helvetica,sans-Serif" font-size="10.00">Igor::iPhysics::~iPhysics</text>
</a>
</g>
</g>
<!-- Node1&#45;&gt;Node2 -->
<g id="edge1" class="edge"><title>Node1&#45;&gt;Node2</title>
<path fill="none" stroke="midnightblue" d="M123.469,-59.7526C148.143,-65.1258 176.995,-71.4086 200.283,-76.4799"/>
<polygon fill="midnightblue" stroke="midnightblue" points="124.049,-56.297 113.534,-57.589 122.56,-63.1367 124.049,-56.297"/>
</g>
<!-- Node3 -->
<g id="node3" class="node"><title>Node3</title>
<g id="a_node3"><a xlink:href="class_igor_1_1i_physics.html#a158515b47349b873198f179c950849d1" target="_top" xlink:title="Igor::iPhysics::handleQueues">
<polygon fill="white" stroke="black" points="173,-38.5 173,-57.5 317,-57.5 317,-38.5 173,-38.5"/>
<text text-anchor="middle" x="245" y="-45.5" font-family="Helvetica,sans-Serif" font-size="10.00">Igor::iPhysics::handleQueues</text>
</a>
</g>
</g>
<!-- Node1&#45;&gt;Node3 -->
<g id="edge2" class="edge"><title>Node1&#45;&gt;Node3</title>
<path fill="none" stroke="midnightblue" d="M147.606,-48C155.982,-48 164.472,-48 172.763,-48"/>
<polygon fill="midnightblue" stroke="midnightblue" points="147.466,-44.5001 137.466,-48 147.466,-51.5001 147.466,-44.5001"/>
</g>
<!-- Node5 -->
<g id="node5" class="node"><title>Node5</title>
<g id="a_node5"><a xlink:href="class_igor_1_1i_physics.html#a61921b998e304ba748c00eb4e2d6a5ed" target="_top" xlink:title="Igor::iPhysics::destroyBody">
<polygon fill="white" stroke="black" points="176.5,-0.5 176.5,-19.5 313.5,-19.5 313.5,-0.5 176.5,-0.5"/>
<text text-anchor="middle" x="245" y="-7.5" font-family="Helvetica,sans-Serif" font-size="10.00">Igor::iPhysics::destroyBody</text>
</a>
</g>
</g>
<!-- Node1&#45;&gt;Node5 -->
<g id="edge4" class="edge"><title>Node1&#45;&gt;Node5</title>
<path fill="none" stroke="midnightblue" d="M123.469,-36.2474C148.143,-30.8742 176.995,-24.5914 200.283,-19.5201"/>
<polygon fill="midnightblue" stroke="midnightblue" points="122.56,-32.8633 113.534,-38.411 124.049,-39.703 122.56,-32.8633"/>
</g>
<!-- Node4 -->
<g id="node4" class="node"><title>Node4</title>
<g id="a_node4"><a xlink:href="class_igor_1_1i_physics.html#ae9c9925bac303a2c4c4065d84ba06956" target="_top" xlink:title="Igor::iPhysics::handle">
<polygon fill="white" stroke="black" points="353,-38.5 353,-57.5 463,-57.5 463,-38.5 353,-38.5"/>
<text text-anchor="middle" x="408" y="-45.5" font-family="Helvetica,sans-Serif" font-size="10.00">Igor::iPhysics::handle</text>
</a>
</g>
</g>
<!-- Node3&#45;&gt;Node4 -->
<g id="edge3" class="edge"><title>Node3&#45;&gt;Node4</title>
<path fill="none" stroke="midnightblue" d="M327.221,-48C335.871,-48 344.51,-48 352.738,-48"/>
<polygon fill="midnightblue" stroke="midnightblue" points="327.086,-44.5001 317.086,-48 327.086,-51.5001 327.086,-44.5001"/>
</g>
</g>
</svg>
