<?xml version="1.0" encoding="UTF-8" standalone="no"?>
<!DOCTYPE svg PUBLIC "-//W3C//DTD SVG 1.1//EN"
 "http://www.w3.org/Graphics/SVG/1.1/DTD/svg11.dtd">
<!-- Generated by graphviz version 2.38.0 (20140413.2041)
 -->
<!-- Title: OMPF::ompfParticleSystemChunk::setVorticityConfinement Pages: 1 -->
<svg width="342pt" height="39pt"
 viewBox="0.00 0.00 342.00 39.00" xmlns="http://www.w3.org/2000/svg" xmlns:xlink="http://www.w3.org/1999/xlink">
<g id="graph0" class="graph" transform="scale(1 1) rotate(0) translate(4 35)">
<title>OMPF::ompfParticleSystemChunk::setVorticityConfinement</title>
<polygon fill="white" stroke="none" points="-4,4 -4,-35 338,-35 338,4 -4,4"/>
<!-- Node1 -->
<g id="node1" class="node"><title>Node1</title>
<polygon fill="#bfbfbf" stroke="black" points="0,-0.5 0,-30.5 154,-30.5 154,-0.5 0,-0.5"/>
<text text-anchor="start" x="8" y="-18.5" font-family="Helvetica,sans-Serif" font-size="10.00">OMPF::ompfParticleSystem</text>
<text text-anchor="middle" x="77" y="-7.5" font-family="Helvetica,sans-Serif" font-size="10.00">Chunk::setVorticityConfinement</text>
</g>
<!-- Node2 -->
<g id="node2" class="node"><title>Node2</title>
<g id="a_node2"><a xlink:href="class_igor_1_1i_model_data_i_o_o_m_p_f.html#ae7624b5254a10e0d9d1580dd5239e9de" target="_top" xlink:title="Igor::iModelDataIOOMPF\l::createParticleSystemChunk">
<polygon fill="white" stroke="black" points="190,-0.5 190,-30.5 334,-30.5 334,-0.5 190,-0.5"/>
<text text-anchor="start" x="198" y="-18.5" font-family="Helvetica,sans-Serif" font-size="10.00">Igor::iModelDataIOOMPF</text>
<text text-anchor="middle" x="262" y="-7.5" font-family="Helvetica,sans-Serif" font-size="10.00">::createParticleSystemChunk</text>
</a>
</g>
</g>
<!-- Node1&#45;&gt;Node2 -->
<g id="edge1" class="edge"><title>Node1&#45;&gt;Node2</title>
<path fill="none" stroke="midnightblue" d="M164.111,-15.5C172.749,-15.5 181.451,-15.5 189.909,-15.5"/>
<polygon fill="midnightblue" stroke="midnightblue" points="164.019,-12.0001 154.019,-15.5 164.019,-19.0001 164.019,-12.0001"/>
</g>
</g>
</svg>
