<?xml version="1.0" encoding="UTF-8" standalone="no"?>
<!DOCTYPE svg PUBLIC "-//W3C//DTD SVG 1.1//EN"
 "http://www.w3.org/Graphics/SVG/1.1/DTD/svg11.dtd">
<!-- Generated by graphviz version 2.38.0 (20140413.2041)
 -->
<!-- Title: testing::internal::UniversalPrinter&lt; T &amp; &gt;::Print Pages: 1 -->
<svg width="627pt" height="67pt"
 viewBox="0.00 0.00 627.00 66.50" xmlns="http://www.w3.org/2000/svg" xmlns:xlink="http://www.w3.org/1999/xlink">
<g id="graph0" class="graph" transform="scale(1 1) rotate(0) translate(4 62.5)">
<title>testing::internal::UniversalPrinter&lt; T &amp; &gt;::Print</title>
<polygon fill="white" stroke="none" points="-4,4 -4,-62.5 623,-62.5 623,4 -4,4"/>
<!-- Node0 -->
<g id="node1" class="node"><title>Node0</title>
<g id="a_node1"><a xlink:title=" ">
<polygon fill="#bfbfbf" stroke="black" points="0,-0.5 0,-41.5 98,-41.5 98,-0.5 0,-0.5"/>
<text text-anchor="start" x="8" y="-29.5" font-family="Helvetica,sans-Serif" font-size="10.00">testing::internal::</text>
<text text-anchor="start" x="8" y="-18.5" font-family="Helvetica,sans-Serif" font-size="10.00">UniversalPrinter&lt; T</text>
<text text-anchor="middle" x="49" y="-7.5" font-family="Helvetica,sans-Serif" font-size="10.00"> &amp; &gt;::Print</text>
</a>
</g>
</g>
<!-- Node1 -->
<g id="node2" class="node"><title>Node1</title>
<g id="a_node2"><a xlink:href="namespacetesting_1_1internal.html#a30708fa2bacf11895b03bdb21eb72309" target="_top" xlink:title=" ">
<polygon fill="white" stroke="black" points="134,-6 134,-36 223,-36 223,-6 134,-6"/>
<text text-anchor="start" x="142" y="-24" font-family="Helvetica,sans-Serif" font-size="10.00">testing::internal::</text>
<text text-anchor="middle" x="178.5" y="-13" font-family="Helvetica,sans-Serif" font-size="10.00">UniversalPrint</text>
</a>
</g>
</g>
<!-- Node0&#45;&gt;Node1 -->
<g id="edge1" class="edge"><title>Node0&#45;&gt;Node1</title>
<path fill="none" stroke="midnightblue" d="M98.2023,-21C106.525,-21 115.223,-21 123.683,-21"/>
<polygon fill="midnightblue" stroke="midnightblue" points="123.842,-24.5001 133.842,-21 123.842,-17.5001 123.842,-24.5001"/>
</g>
<!-- Node2 -->
<g id="node3" class="node"><title>Node2</title>
<g id="a_node3"><a xlink:href="classtesting_1_1internal_1_1_universal_printer.html#aecec021e1abbaa260b701e24e3fe33eb" target="_top" xlink:title=" ">
<polygon fill="white" stroke="black" points="259,-28 259,-58 369,-58 369,-28 259,-28"/>
<text text-anchor="start" x="267" y="-46" font-family="Helvetica,sans-Serif" font-size="10.00">testing::internal::</text>
<text text-anchor="middle" x="314" y="-35" font-family="Helvetica,sans-Serif" font-size="10.00">UniversalPrinter::Print</text>
</a>
</g>
</g>
<!-- Node1&#45;&gt;Node2 -->
<g id="edge2" class="edge"><title>Node1&#45;&gt;Node2</title>
<path fill="none" stroke="midnightblue" d="M223.213,-28.2036C231.411,-29.5547 240.138,-30.9928 248.808,-32.4215"/>
<polygon fill="midnightblue" stroke="midnightblue" points="248.487,-35.9158 258.923,-34.0884 249.625,-29.0089 248.487,-35.9158"/>
</g>
<!-- Node3 -->
<g id="node4" class="node"><title>Node3</title>
<g id="a_node4"><a xlink:href="namespacetesting_1_1internal.html#adb3c27150dbe661db0e0c4be27533460" target="_top" xlink:title=" ">
<polygon fill="white" stroke="black" points="405,-28 405,-58 494,-58 494,-28 405,-28"/>
<text text-anchor="start" x="413" y="-46" font-family="Helvetica,sans-Serif" font-size="10.00">testing::internal::</text>
<text text-anchor="middle" x="449.5" y="-35" font-family="Helvetica,sans-Serif" font-size="10.00">PrintTo</text>
</a>
</g>
</g>
<!-- Node2&#45;&gt;Node3 -->
<g id="edge3" class="edge"><title>Node2&#45;&gt;Node3</title>
<path fill="none" stroke="midnightblue" d="M369.3,-43C377.716,-43 386.407,-43 394.81,-43"/>
<polygon fill="midnightblue" stroke="midnightblue" points="394.88,-46.5001 404.879,-43 394.879,-39.5001 394.88,-46.5001"/>
</g>
<!-- Node4 -->
<g id="node5" class="node"><title>Node4</title>
<g id="a_node5"><a xlink:href="namespacetesting_1_1internal.html#a2e96c98d5bd8ee4a1b92f8e3cde7dd40" target="_top" xlink:title=" ">
<polygon fill="white" stroke="black" points="530,-6 530,-36 619,-36 619,-6 530,-6"/>
<text text-anchor="start" x="538" y="-24" font-family="Helvetica,sans-Serif" font-size="10.00">testing::internal::</text>
<text text-anchor="middle" x="574.5" y="-13" font-family="Helvetica,sans-Serif" font-size="10.00">DefaultPrintTo</text>
</a>
</g>
</g>
<!-- Node3&#45;&gt;Node4 -->
<g id="edge4" class="edge"><title>Node3&#45;&gt;Node4</title>
<path fill="none" stroke="midnightblue" d="M494.212,-35.1817C502.549,-33.6904 511.364,-32.1137 519.968,-30.5748"/>
<polygon fill="midnightblue" stroke="midnightblue" points="520.702,-33.9992 529.929,-28.7931 519.469,-27.1086 520.702,-33.9992"/>
</g>
<!-- Node4&#45;&gt;Node1 -->
<g id="edge5" class="edge"><title>Node4&#45;&gt;Node1</title>
<path fill="none" stroke="midnightblue" d="M529.77,-19.0533C518.147,-18.617 505.6,-18.2188 494,-18 389.574,-16.0304 363.426,-16.0304 259,-18 250.753,-18.1555 242.028,-18.4018 233.496,-18.6879"/>
<polygon fill="midnightblue" stroke="midnightblue" points="233.099,-15.1997 223.23,-19.0533 233.348,-22.1953 233.099,-15.1997"/>
</g>
</g>
</svg>
