<?xml version="1.0" encoding="UTF-8" standalone="no"?>
<!DOCTYPE svg PUBLIC "-//W3C//DTD SVG 1.1//EN"
 "http://www.w3.org/Graphics/SVG/1.1/DTD/svg11.dtd">
<!-- Generated by graphviz version 2.38.0 (20140413.2041)
 -->
<!-- Title: IgorAux::iaBSpline::prepareU Pages: 1 -->
<svg width="371pt" height="61pt"
 viewBox="0.00 0.00 371.00 61.00" xmlns="http://www.w3.org/2000/svg" xmlns:xlink="http://www.w3.org/1999/xlink">
<g id="graph0" class="graph" transform="scale(1 1) rotate(0) translate(4 57)">
<title>IgorAux::iaBSpline::prepareU</title>
<polygon fill="white" stroke="none" points="-4,4 -4,-57 367,-57 367,4 -4,4"/>
<!-- Node1 -->
<g id="node1" class="node"><title>Node1</title>
<polygon fill="#bfbfbf" stroke="black" points="0,-0.5 0,-30.5 97,-30.5 97,-0.5 0,-0.5"/>
<text text-anchor="start" x="8" y="-18.5" font-family="Helvetica,sans-Serif" font-size="10.00">IgorAux::iaBSpline</text>
<text text-anchor="middle" x="48.5" y="-7.5" font-family="Helvetica,sans-Serif" font-size="10.00">::prepareU</text>
</g>
<!-- Node2 -->
<g id="node2" class="node"><title>Node2</title>
<g id="a_node2"><a xlink:href="class_igor_aux_1_1ia_b_spline.html#af0cefef6607e399ccd2651552e193bec" target="_top" xlink:title="IgorAux::iaBSpline\l::getPointOfSpline">
<polygon fill="white" stroke="black" points="133,-22.5 133,-52.5 230,-52.5 230,-22.5 133,-22.5"/>
<text text-anchor="start" x="141" y="-40.5" font-family="Helvetica,sans-Serif" font-size="10.00">IgorAux::iaBSpline</text>
<text text-anchor="middle" x="181.5" y="-29.5" font-family="Helvetica,sans-Serif" font-size="10.00">::getPointOfSpline</text>
</a>
</g>
</g>
<!-- Node1&#45;&gt;Node2 -->
<g id="edge1" class="edge"><title>Node1&#45;&gt;Node2</title>
<path fill="none" stroke="midnightblue" d="M107.072,-25.1686C115.614,-26.603 124.337,-28.0681 132.651,-29.4644"/>
<polygon fill="midnightblue" stroke="midnightblue" points="107.606,-21.7094 97.1646,-23.5047 106.447,-28.6127 107.606,-21.7094"/>
</g>
<!-- Node3 -->
<g id="node3" class="node"><title>Node3</title>
<g id="a_node3"><a xlink:href="class_igor_aux_1_1ia_b_spline.html#a8bf3b46050dbcb0b415be916ed62a9e1" target="_top" xlink:title="IgorAux::iaBSpline\l::getSpline">
<polygon fill="white" stroke="black" points="266,-0.5 266,-30.5 363,-30.5 363,-0.5 266,-0.5"/>
<text text-anchor="start" x="274" y="-18.5" font-family="Helvetica,sans-Serif" font-size="10.00">IgorAux::iaBSpline</text>
<text text-anchor="middle" x="314.5" y="-7.5" font-family="Helvetica,sans-Serif" font-size="10.00">::getSpline</text>
</a>
</g>
</g>
<!-- Node1&#45;&gt;Node3 -->
<g id="edge3" class="edge"><title>Node1&#45;&gt;Node3</title>
<path fill="none" stroke="midnightblue" d="M107.217,-13.9374C115.858,-13.7557 124.663,-13.5998 133,-13.5 176.108,-12.9838 186.892,-12.9838 230,-13.5 241.6,-13.6389 254.104,-13.8863 265.814,-14.1608"/>
<polygon fill="midnightblue" stroke="midnightblue" points="107.105,-10.439 97.1855,-14.1608 107.261,-17.4372 107.105,-10.439"/>
</g>
<!-- Node2&#45;&gt;Node3 -->
<g id="edge2" class="edge"><title>Node2&#45;&gt;Node3</title>
<path fill="none" stroke="midnightblue" d="M240.072,-27.8314C248.614,-26.397 257.337,-24.9319 265.651,-23.5356"/>
<polygon fill="midnightblue" stroke="midnightblue" points="239.447,-24.3873 230.165,-29.4953 240.606,-31.2906 239.447,-24.3873"/>
</g>
</g>
</svg>
