<?xml version="1.0" encoding="UTF-8" standalone="no"?>
<!DOCTYPE svg PUBLIC "-//W3C//DTD SVG 1.1//EN"
 "http://www.w3.org/Graphics/SVG/1.1/DTD/svg11.dtd">
<!-- Generated by graphviz version 2.38.0 (20140413.2041)
 -->
<!-- Title: Igor::iNodeVisitorPrintTree::preOrderVisit Pages: 1 -->
<svg width="547pt" height="173pt"
 viewBox="0.00 0.00 547.00 173.08" xmlns="http://www.w3.org/2000/svg" xmlns:xlink="http://www.w3.org/1999/xlink">
<g id="graph0" class="graph" transform="scale(1 1) rotate(0) translate(4 169.084)">
<title>Igor::iNodeVisitorPrintTree::preOrderVisit</title>
<polygon fill="white" stroke="none" points="-4,4 -4,-169.084 543,-169.084 543,4 -4,4"/>
<!-- Node1 -->
<g id="node1" class="node"><title>Node1</title>
<polygon fill="#bfbfbf" stroke="black" points="0,-14.5841 0,-44.5841 130,-44.5841 130,-14.5841 0,-14.5841"/>
<text text-anchor="start" x="8" y="-32.5841" font-family="Helvetica,sans-Serif" font-size="10.00">Igor::iNodeVisitorPrintTree</text>
<text text-anchor="middle" x="65" y="-21.5841" font-family="Helvetica,sans-Serif" font-size="10.00">::preOrderVisit</text>
</g>
<!-- Node2 -->
<g id="node2" class="node"><title>Node2</title>
<g id="a_node2"><a xlink:href="class_igor_1_1i_node.html#ae397893dd8c9dbca7d895033f8a8923c" target="_top" xlink:title="Igor::iNode::getInfo">
<polygon fill="white" stroke="black" points="166,-58.0841 166,-77.0841 264,-77.0841 264,-58.0841 166,-58.0841"/>
<text text-anchor="middle" x="215" y="-65.0841" font-family="Helvetica,sans-Serif" font-size="10.00">Igor::iNode::getInfo</text>
</a>
</g>
</g>
<!-- Node1&#45;&gt;Node2 -->
<g id="edge1" class="edge"><title>Node1&#45;&gt;Node2</title>
<path fill="none" stroke="midnightblue" d="M124.494,-44.6027C138.53,-48.2066 153.345,-52.0105 166.795,-55.4639"/>
<polygon fill="midnightblue" stroke="midnightblue" points="166.222,-58.9303 176.779,-58.0273 167.963,-52.1503 166.222,-58.9303"/>
</g>
<!-- Node5 -->
<g id="node5" class="node"><title>Node5</title>
<g id="a_node5"><a xlink:href="class_igor_aux_1_1ia_string.html#a527c422c83c563c834a12548728e625d" target="_top" xlink:title="IgorAux::iaString::\lgetData">
<polygon fill="white" stroke="black" points="444,-31.5841 444,-61.5841 539,-61.5841 539,-31.5841 444,-31.5841"/>
<text text-anchor="start" x="452" y="-49.5841" font-family="Helvetica,sans-Serif" font-size="10.00">IgorAux::iaString::</text>
<text text-anchor="middle" x="491.5" y="-38.5841" font-family="Helvetica,sans-Serif" font-size="10.00">getData</text>
</a>
</g>
</g>
<!-- Node1&#45;&gt;Node5 -->
<g id="edge8" class="edge"><title>Node1&#45;&gt;Node5</title>
<path fill="none" stroke="midnightblue" d="M130.089,-16.2114C199.371,-4.02166 312.677,9.30799 408,-10.5841 423.785,-13.8782 440.249,-20.3656 454.28,-26.937"/>
<polygon fill="midnightblue" stroke="midnightblue" points="453.043,-30.2279 463.566,-31.4615 456.109,-23.9351 453.043,-30.2279"/>
</g>
<!-- Node3 -->
<g id="node3" class="node"><title>Node3</title>
<g id="a_node3"><a xlink:href="class_igor_aux_1_1ia_string.html#ad733ce0b92ae32cdb253e4fa0ad85e3f" target="_top" xlink:title="IgorAux::iaString::\lgetSubString">
<polygon fill="white" stroke="black" points="306.5,-134.584 306.5,-164.584 401.5,-164.584 401.5,-134.584 306.5,-134.584"/>
<text text-anchor="start" x="314.5" y="-152.584" font-family="Helvetica,sans-Serif" font-size="10.00">IgorAux::iaString::</text>
<text text-anchor="middle" x="354" y="-141.584" font-family="Helvetica,sans-Serif" font-size="10.00">getSubString</text>
</a>
</g>
</g>
<!-- Node2&#45;&gt;Node3 -->
<g id="edge2" class="edge"><title>Node2&#45;&gt;Node3</title>
<path fill="none" stroke="midnightblue" d="M228.692,-77.1156C244.803,-88.9953 273.671,-109.562 300,-124.584 303.192,-126.405 306.539,-128.21 309.933,-129.968"/>
<polygon fill="midnightblue" stroke="midnightblue" points="308.445,-133.137 318.954,-134.485 311.58,-126.878 308.445,-133.137"/>
</g>
<!-- Node6 -->
<g id="node6" class="node"><title>Node6</title>
<g id="a_node6"><a xlink:href="class_igor_1_1i_node.html#a301e06e0e55d6ca93fc64fe44c3ed8bd" target="_top" xlink:title="Igor::iNode::getName">
<polygon fill="white" stroke="black" points="300,-96.0841 300,-115.084 408,-115.084 408,-96.0841 300,-96.0841"/>
<text text-anchor="middle" x="354" y="-103.084" font-family="Helvetica,sans-Serif" font-size="10.00">Igor::iNode::getName</text>
</a>
</g>
</g>
<!-- Node2&#45;&gt;Node6 -->
<g id="edge5" class="edge"><title>Node2&#45;&gt;Node6</title>
<path fill="none" stroke="midnightblue" d="M250.571,-77.1731C268.175,-82.056 289.779,-88.0484 308.601,-93.269"/>
<polygon fill="midnightblue" stroke="midnightblue" points="307.868,-96.6979 318.44,-95.9981 309.739,-89.9526 307.868,-96.6979"/>
</g>
<!-- Node7 -->
<g id="node7" class="node"><title>Node7</title>
<g id="a_node7"><a xlink:href="class_igor_1_1i_node.html#a865efb791b77d29bb489514326037380" target="_top" xlink:title="Igor::iNode::getID">
<polygon fill="white" stroke="black" points="308,-58.0841 308,-77.0841 400,-77.0841 400,-58.0841 308,-58.0841"/>
<text text-anchor="middle" x="354" y="-65.0841" font-family="Helvetica,sans-Serif" font-size="10.00">Igor::iNode::getID</text>
</a>
</g>
</g>
<!-- Node2&#45;&gt;Node7 -->
<g id="edge6" class="edge"><title>Node2&#45;&gt;Node7</title>
<path fill="none" stroke="midnightblue" d="M264.301,-67.5841C275.154,-67.5841 286.749,-67.5841 297.857,-67.5841"/>
<polygon fill="midnightblue" stroke="midnightblue" points="297.886,-71.0842 307.886,-67.5841 297.886,-64.0842 297.886,-71.0842"/>
</g>
<!-- Node8 -->
<g id="node8" class="node"><title>Node8</title>
<g id="a_node8"><a xlink:href="class_igor_1_1i_node.html#a4352c1e232f3776538387f926abd5b87" target="_top" xlink:title="Igor::iNode::isActive">
<polygon fill="white" stroke="black" points="302.5,-20.0841 302.5,-39.0841 405.5,-39.0841 405.5,-20.0841 302.5,-20.0841"/>
<text text-anchor="middle" x="354" y="-27.0841" font-family="Helvetica,sans-Serif" font-size="10.00">Igor::iNode::isActive</text>
</a>
</g>
</g>
<!-- Node2&#45;&gt;Node8 -->
<g id="edge7" class="edge"><title>Node2&#45;&gt;Node8</title>
<path fill="none" stroke="midnightblue" d="M250.571,-57.9951C268.175,-53.1121 289.779,-47.1198 308.601,-41.8991"/>
<polygon fill="midnightblue" stroke="midnightblue" points="309.739,-45.2156 318.44,-39.17 307.868,-38.4702 309.739,-45.2156"/>
</g>
<!-- Node4 -->
<g id="node4" class="node"><title>Node4</title>
<g id="a_node4"><a xlink:href="class_igor_aux_1_1ia_string.html#affa8c96a2d7340a79b9e97d84e2585a4" target="_top" xlink:title="IgorAux::iaString::\liaString">
<polygon fill="white" stroke="black" points="444,-134.584 444,-164.584 539,-164.584 539,-134.584 444,-134.584"/>
<text text-anchor="start" x="452" y="-152.584" font-family="Helvetica,sans-Serif" font-size="10.00">IgorAux::iaString::</text>
<text text-anchor="middle" x="491.5" y="-141.584" font-family="Helvetica,sans-Serif" font-size="10.00">iaString</text>
</a>
</g>
</g>
<!-- Node3&#45;&gt;Node4 -->
<g id="edge3" class="edge"><title>Node3&#45;&gt;Node4</title>
<path fill="none" stroke="midnightblue" d="M401.631,-149.584C411.958,-149.584 423.011,-149.584 433.692,-149.584"/>
<polygon fill="midnightblue" stroke="midnightblue" points="433.783,-153.084 443.783,-149.584 433.783,-146.084 433.783,-153.084"/>
</g>
<!-- Node3&#45;&gt;Node5 -->
<g id="edge4" class="edge"><title>Node3&#45;&gt;Node5</title>
<path fill="none" stroke="midnightblue" d="M390.925,-134.543C396.809,-131.547 402.707,-128.198 408,-124.584 431.222,-108.729 454.182,-86.323 469.961,-69.5908"/>
<polygon fill="midnightblue" stroke="midnightblue" points="472.87,-71.6003 477.099,-61.8861 467.735,-66.8428 472.87,-71.6003"/>
</g>
</g>
</svg>
