<?xml version="1.0" encoding="UTF-8" standalone="no"?>
<!DOCTYPE svg PUBLIC "-//W3C//DTD SVG 1.1//EN"
 "http://www.w3.org/Graphics/SVG/1.1/DTD/svg11.dtd">
<!-- Generated by graphviz version 2.38.0 (20140413.2041)
 -->
<!-- Title: UserControlModel::updateGUI Pages: 1 -->
<svg width="351pt" height="78pt"
 viewBox="0.00 0.00 351.00 77.50" xmlns="http://www.w3.org/2000/svg" xmlns:xlink="http://www.w3.org/1999/xlink">
<g id="graph0" class="graph" transform="scale(1 1) rotate(0) translate(4 73.5)">
<title>UserControlModel::updateGUI</title>
<polygon fill="white" stroke="none" points="-4,4 -4,-73.5 347,-73.5 347,4 -4,4"/>
<!-- Node17 -->
<g id="node1" class="node"><title>Node17</title>
<g id="a_node1"><a xlink:title=" ">
<polygon fill="#bfbfbf" stroke="black" points="0,-22.5 0,-41.5 146,-41.5 146,-22.5 0,-22.5"/>
<text text-anchor="middle" x="73" y="-29.5" font-family="Helvetica,sans-Serif" font-size="10.00">UserControlModel::updateGUI</text>
</a>
</g>
</g>
<!-- Node18 -->
<g id="node2" class="node"><title>Node18</title>
<g id="a_node2"><a xlink:href="class_igor_aux_1_1ia_singleton.html#a821f1d891129e6d09b992be81094540e" target="_top" xlink:title=" ">
<polygon fill="white" stroke="black" points="188,-39 188,-69 337,-69 337,-39 188,-39"/>
<text text-anchor="start" x="196" y="-57" font-family="Helvetica,sans-Serif" font-size="10.00">IgorAux::iaSingleton</text>
<text text-anchor="middle" x="262.5" y="-46" font-family="Helvetica,sans-Serif" font-size="10.00">&lt; iNodeFactory &gt;::getInstance</text>
</a>
</g>
</g>
<!-- Node17&#45;&gt;Node18 -->
<g id="edge1" class="edge"><title>Node17&#45;&gt;Node18</title>
<path fill="none" stroke="midnightblue" d="M146.224,-40.4743C156.544,-41.6851 167.231,-42.9391 177.749,-44.1732"/>
<polygon fill="midnightblue" stroke="midnightblue" points="177.423,-47.6589 187.763,-45.3482 178.239,-40.7066 177.423,-47.6589"/>
</g>
<!-- Node19 -->
<g id="node3" class="node"><title>Node19</title>
<g id="a_node3"><a xlink:href="class_igor_1_1i_node_model.html#adf2dd0b4004625024c4daf12d65eb532" target="_top" xlink:title=" ">
<polygon fill="white" stroke="black" points="182,-0.5 182,-19.5 343,-19.5 343,-0.5 182,-0.5"/>
<text text-anchor="middle" x="262.5" y="-7.5" font-family="Helvetica,sans-Serif" font-size="10.00">Igor::iNodeModel::getModelName</text>
</a>
</g>
</g>
<!-- Node17&#45;&gt;Node19 -->
<g id="edge2" class="edge"><title>Node17&#45;&gt;Node19</title>
<path fill="none" stroke="midnightblue" d="M146.224,-23.5257C154.603,-22.5426 163.224,-21.531 171.8,-20.5248"/>
<polygon fill="midnightblue" stroke="midnightblue" points="172.306,-23.9896 181.83,-19.348 171.49,-17.0373 172.306,-23.9896"/>
</g>
</g>
</svg>
