<?xml version="1.0" encoding="UTF-8" standalone="no"?>
<!DOCTYPE svg PUBLIC "-//W3C//DTD SVG 1.1//EN"
 "http://www.w3.org/Graphics/SVG/1.1/DTD/svg11.dtd">
<!-- Generated by graphviz version 2.38.0 (20140413.2041)
 -->
<!-- Title: Igor::iPhysics::isCollisionConfig Pages: 1 -->
<svg width="295pt" height="66pt"
 viewBox="0.00 0.00 295.00 66.00" xmlns="http://www.w3.org/2000/svg" xmlns:xlink="http://www.w3.org/1999/xlink">
<g id="graph0" class="graph" transform="scale(1 1) rotate(0) translate(4 62)">
<title>Igor::iPhysics::isCollisionConfig</title>
<polygon fill="white" stroke="none" points="-4,4 -4,-62 291,-62 291,4 -4,4"/>
<!-- Node342 -->
<g id="node1" class="node"><title>Node342</title>
<g id="a_node1"><a xlink:title=" ">
<polygon fill="#bfbfbf" stroke="black" points="0,-14 0,-44 126,-44 126,-14 0,-14"/>
<text text-anchor="start" x="8" y="-32" font-family="Helvetica,sans-Serif" font-size="10.00">Igor::iPhysics::isCollision</text>
<text text-anchor="middle" x="63" y="-21" font-family="Helvetica,sans-Serif" font-size="10.00">Config</text>
</a>
</g>
</g>
<!-- Node343 -->
<g id="node2" class="node"><title>Node343</title>
<g id="a_node2"><a xlink:href="class_igor_aux_1_1ia_mutex.html#ab0873c1f25730bd85d6b71d167520921" target="_top" xlink:title=" ">
<polygon fill="white" stroke="black" points="167.5,-38.5 167.5,-57.5 281.5,-57.5 281.5,-38.5 167.5,-38.5"/>
<text text-anchor="middle" x="224.5" y="-45.5" font-family="Helvetica,sans-Serif" font-size="10.00">IgorAux::iaMutex::lock</text>
</a>
</g>
</g>
<!-- Node342&#45;&gt;Node343 -->
<g id="edge1" class="edge"><title>Node342&#45;&gt;Node343</title>
<path fill="none" stroke="midnightblue" d="M126.124,-36.4003C136.292,-37.6116 146.863,-38.8708 157.129,-40.0938"/>
<polygon fill="midnightblue" stroke="midnightblue" points="156.924,-43.594 167.268,-41.3015 157.752,-36.6431 156.924,-43.594"/>
</g>
<!-- Node344 -->
<g id="node3" class="node"><title>Node344</title>
<g id="a_node3"><a xlink:href="class_igor_aux_1_1ia_mutex.html#a3beb078a1f64de265044ece54657c279" target="_top" xlink:title=" ">
<polygon fill="white" stroke="black" points="162,-0.5 162,-19.5 287,-19.5 287,-0.5 162,-0.5"/>
<text text-anchor="middle" x="224.5" y="-7.5" font-family="Helvetica,sans-Serif" font-size="10.00">IgorAux::iaMutex::unlock</text>
</a>
</g>
</g>
<!-- Node342&#45;&gt;Node344 -->
<g id="edge2" class="edge"><title>Node342&#45;&gt;Node344</title>
<path fill="none" stroke="midnightblue" d="M126.124,-21.5997C134.548,-20.5962 143.249,-19.5597 151.824,-18.5382"/>
<polygon fill="midnightblue" stroke="midnightblue" points="152.292,-22.0072 161.808,-17.3489 151.464,-15.0564 152.292,-22.0072"/>
</g>
</g>
</svg>
