<?xml version="1.0" encoding="UTF-8" standalone="no"?>
<!DOCTYPE svg PUBLIC "-//W3C//DTD SVG 1.1//EN"
 "http://www.w3.org/Graphics/SVG/1.1/DTD/svg11.dtd">
<!-- Generated by graphviz version 2.38.0 (20140413.2041)
 -->
<!-- Title: Igor::iIntersection::intersects Pages: 1 -->
<svg width="530pt" height="168pt"
 viewBox="0.00 0.00 530.00 168.00" xmlns="http://www.w3.org/2000/svg" xmlns:xlink="http://www.w3.org/1999/xlink">
<g id="graph0" class="graph" transform="scale(1 1) rotate(0) translate(4 164)">
<title>Igor::iIntersection::intersects</title>
<polygon fill="white" stroke="none" points="-4,4 -4,-164 526,-164 526,4 -4,4"/>
<!-- Node1 -->
<g id="node1" class="node"><title>Node1</title>
<polygon fill="#bfbfbf" stroke="black" points="0,-47.5 0,-77.5 91,-77.5 91,-47.5 0,-47.5"/>
<text text-anchor="start" x="8" y="-65.5" font-family="Helvetica,sans-Serif" font-size="10.00">Igor::iIntersection</text>
<text text-anchor="middle" x="45.5" y="-54.5" font-family="Helvetica,sans-Serif" font-size="10.00">::intersects</text>
</g>
<!-- Node2 -->
<g id="node2" class="node"><title>Node2</title>
<g id="a_node2"><a xlink:href="class_igor_1_1i_octree.html#a02356a9825edc88cf92bd483dd4a3fba" target="_top" xlink:title="Igor::iOctree::insert">
<polygon fill="white" stroke="black" points="134,-91 134,-110 234,-110 234,-91 134,-91"/>
<text text-anchor="middle" x="184" y="-98" font-family="Helvetica,sans-Serif" font-size="10.00">Igor::iOctree::insert</text>
</a>
</g>
</g>
<!-- Node1&#45;&gt;Node2 -->
<g id="edge1" class="edge"><title>Node1&#45;&gt;Node2</title>
<path fill="none" stroke="midnightblue" d="M101.021,-77.6779C117.075,-82.1471 134.186,-86.9106 148.599,-90.9233"/>
<polygon fill="midnightblue" stroke="midnightblue" points="101.768,-74.2528 91.1952,-74.9426 99.8902,-80.9964 101.768,-74.2528"/>
</g>
<!-- Node5 -->
<g id="node5" class="node"><title>Node5</title>
<g id="a_node5"><a xlink:href="class_igor_1_1i_octree.html#a23abc7025f6f141f6493b6a4b89a717d" target="_top" xlink:title="Igor::iOctree::update">
<polygon fill="white" stroke="black" points="277,-53 277,-72 382,-72 382,-53 277,-53"/>
<text text-anchor="middle" x="329.5" y="-60" font-family="Helvetica,sans-Serif" font-size="10.00">Igor::iOctree::update</text>
</a>
</g>
</g>
<!-- Node1&#45;&gt;Node5 -->
<g id="edge6" class="edge"><title>Node1&#45;&gt;Node5</title>
<path fill="none" stroke="midnightblue" d="M101.32,-62.5C152.111,-62.5 227.102,-62.5 276.852,-62.5"/>
<polygon fill="midnightblue" stroke="midnightblue" points="101.184,-59.0001 91.1837,-62.5 101.184,-66.0001 101.184,-59.0001"/>
</g>
<!-- Node7 -->
<g id="node7" class="node"><title>Node7</title>
<g id="a_node7"><a xlink:href="class_igor_1_1i_octree.html#aa3b54fdf7ba95e2570b3a024facd875b" target="_top" xlink:title="Igor::iOctree::testFilter">
<polygon fill="white" stroke="black" points="127,-12 127,-31 241,-31 241,-12 127,-12"/>
<text text-anchor="middle" x="184" y="-19" font-family="Helvetica,sans-Serif" font-size="10.00">Igor::iOctree::testFilter</text>
</a>
</g>
</g>
<!-- Node1&#45;&gt;Node7 -->
<g id="edge7" class="edge"><title>Node1&#45;&gt;Node7</title>
<path fill="none" stroke="midnightblue" d="M101.044,-46.117C118.06,-41.0058 136.262,-35.5384 151.18,-31.0577"/>
<polygon fill="midnightblue" stroke="midnightblue" points="99.7656,-42.8462 91.1952,-49.0751 101.779,-49.5504 99.7656,-42.8462"/>
</g>
<!-- Node3 -->
<g id="node3" class="node"><title>Node3</title>
<g id="a_node3"><a xlink:href="class_igor_1_1i_entity_manager.html#ab9b59ef33842272f13fc52d1b1150c4b" target="_top" xlink:title="Igor::iEntityManager\l::registerEntity">
<polygon fill="white" stroke="black" points="277.5,-129.5 277.5,-159.5 381.5,-159.5 381.5,-129.5 277.5,-129.5"/>
<text text-anchor="start" x="285.5" y="-147.5" font-family="Helvetica,sans-Serif" font-size="10.00">Igor::iEntityManager</text>
<text text-anchor="middle" x="329.5" y="-136.5" font-family="Helvetica,sans-Serif" font-size="10.00">::registerEntity</text>
</a>
</g>
</g>
<!-- Node2&#45;&gt;Node3 -->
<g id="edge2" class="edge"><title>Node2&#45;&gt;Node3</title>
<path fill="none" stroke="midnightblue" d="M226.091,-113.099C242.704,-118.193 262.018,-124.115 279.366,-129.435"/>
<polygon fill="midnightblue" stroke="midnightblue" points="226.724,-109.633 216.137,-110.047 224.672,-116.325 226.724,-109.633"/>
</g>
<!-- Node4 -->
<g id="node4" class="node"><title>Node4</title>
<g id="a_node4"><a xlink:href="class_igor_1_1i_octree.html#a752a714240a21658148771540242d3e2" target="_top" xlink:title="Igor::iOctree::insert">
<polygon fill="white" stroke="black" points="279.5,-91 279.5,-110 379.5,-110 379.5,-91 279.5,-91"/>
<text text-anchor="middle" x="329.5" y="-98" font-family="Helvetica,sans-Serif" font-size="10.00">Igor::iOctree::insert</text>
</a>
</g>
</g>
<!-- Node2&#45;&gt;Node4 -->
<g id="edge3" class="edge"><title>Node2&#45;&gt;Node4</title>
<path fill="none" stroke="midnightblue" d="M244.718,-100.5C256.135,-100.5 267.971,-100.5 279.024,-100.5"/>
<polygon fill="midnightblue" stroke="midnightblue" points="244.385,-97.0001 234.385,-100.5 244.385,-104 244.385,-97.0001"/>
</g>
<!-- Node2&#45;&gt;Node5 -->
<g id="edge4" class="edge"><title>Node2&#45;&gt;Node5</title>
<path fill="none" stroke="midnightblue" d="M230.973,-88.3258C250.816,-83.0713 273.693,-77.0134 292.3,-72.0859"/>
<polygon fill="midnightblue" stroke="midnightblue" points="229.982,-84.9677 221.211,-90.911 231.774,-91.7345 229.982,-84.9677"/>
</g>
<!-- Node6 -->
<g id="node6" class="node"><title>Node6</title>
<g id="a_node6"><a xlink:href="class_igor_1_1i_entity_manager.html#a28701eda1decf679b3e1ab6dc1bbb845" target="_top" xlink:title="Igor::iEntityManager\l::handle">
<polygon fill="white" stroke="black" points="418,-49.5 418,-79.5 522,-79.5 522,-49.5 418,-49.5"/>
<text text-anchor="start" x="426" y="-67.5" font-family="Helvetica,sans-Serif" font-size="10.00">Igor::iEntityManager</text>
<text text-anchor="middle" x="470" y="-56.5" font-family="Helvetica,sans-Serif" font-size="10.00">::handle</text>
</a>
</g>
</g>
<!-- Node5&#45;&gt;Node6 -->
<g id="edge5" class="edge"><title>Node5&#45;&gt;Node6</title>
<path fill="none" stroke="midnightblue" d="M392.074,-63.3892C400.685,-63.5135 409.456,-63.6402 417.846,-63.7613"/>
<polygon fill="midnightblue" stroke="midnightblue" points="392.122,-59.8896 382.072,-63.2447 392.021,-66.8888 392.122,-59.8896"/>
</g>
<!-- Node8 -->
<g id="node8" class="node"><title>Node8</title>
<g id="a_node8"><a xlink:href="class_igor_1_1i_octree.html#a76d17a0c122ae0bef60be65c6531b23a" target="_top" xlink:title="Igor::iOctree::filter">
<polygon fill="white" stroke="black" points="282.5,-11 282.5,-30 376.5,-30 376.5,-11 282.5,-11"/>
<text text-anchor="middle" x="329.5" y="-18" font-family="Helvetica,sans-Serif" font-size="10.00">Igor::iOctree::filter</text>
</a>
</g>
</g>
<!-- Node7&#45;&gt;Node8 -->
<g id="edge8" class="edge"><title>Node7&#45;&gt;Node8</title>
<path fill="none" stroke="midnightblue" d="M251.544,-21.0363C261.865,-20.9644 272.33,-20.8914 282.08,-20.8235"/>
<polygon fill="midnightblue" stroke="midnightblue" points="251.278,-17.5379 241.303,-21.1076 251.327,-24.5378 251.278,-17.5379"/>
</g>
<!-- Node9 -->
<g id="node9" class="node"><title>Node9</title>
<g id="a_node9"><a xlink:href="class_igor_1_1i_entity_manager.html#a1be0eeeb3a34c74b1e64068f6ffcf526" target="_top" xlink:title="Igor::iEntityManager\l::getEntities">
<polygon fill="white" stroke="black" points="418,-0.5 418,-30.5 522,-30.5 522,-0.5 418,-0.5"/>
<text text-anchor="start" x="426" y="-18.5" font-family="Helvetica,sans-Serif" font-size="10.00">Igor::iEntityManager</text>
<text text-anchor="middle" x="470" y="-7.5" font-family="Helvetica,sans-Serif" font-size="10.00">::getEntities</text>
</a>
</g>
</g>
<!-- Node8&#45;&gt;Node9 -->
<g id="edge9" class="edge"><title>Node8&#45;&gt;Node9</title>
<path fill="none" stroke="midnightblue" d="M386.737,-18.4698C397.022,-18.0985 407.705,-17.7128 417.834,-17.3472"/>
<polygon fill="midnightblue" stroke="midnightblue" points="386.486,-14.9765 376.618,-18.8351 386.738,-21.9719 386.486,-14.9765"/>
</g>
</g>
</svg>
