<?xml version="1.0" encoding="UTF-8" standalone="no"?>
<!DOCTYPE svg PUBLIC "-//W3C//DTD SVG 1.1//EN"
 "http://www.w3.org/Graphics/SVG/1.1/DTD/svg11.dtd">
<!-- Generated by graphviz version 2.38.0 (20140413.2041)
 -->
<!-- Title: UserControlTransformation::initGUI Pages: 1 -->
<svg width="1025pt" height="656pt"
 viewBox="0.00 0.00 1025.00 656.00" xmlns="http://www.w3.org/2000/svg" xmlns:xlink="http://www.w3.org/1999/xlink">
<g id="graph0" class="graph" transform="scale(1 1) rotate(0) translate(4 652)">
<title>UserControlTransformation::initGUI</title>
<polygon fill="white" stroke="none" points="-4,4 -4,-652 1021,-652 1021,4 -4,4"/>
<!-- Node12 -->
<g id="node1" class="node"><title>Node12</title>
<g id="a_node1"><a xlink:title=" ">
<polygon fill="#bfbfbf" stroke="black" points="0,-308.5 0,-338.5 131,-338.5 131,-308.5 0,-308.5"/>
<text text-anchor="start" x="8" y="-326.5" font-family="Helvetica,sans-Serif" font-size="10.00">UserControlTransformation</text>
<text text-anchor="middle" x="65.5" y="-315.5" font-family="Helvetica,sans-Serif" font-size="10.00">::initGUI</text>
</a>
</g>
</g>
<!-- Node13 -->
<g id="node2" class="node"><title>Node13</title>
<g id="a_node2"><a xlink:href="class_igor_aux_1_1ia_singleton.html#a821f1d891129e6d09b992be81094540e" target="_top" xlink:title=" ">
<polygon fill="white" stroke="black" points="345,-470.5 345,-500.5 506,-500.5 506,-470.5 345,-470.5"/>
<text text-anchor="start" x="353" y="-488.5" font-family="Helvetica,sans-Serif" font-size="10.00">IgorAux::iaSingleton</text>
<text text-anchor="middle" x="425.5" y="-477.5" font-family="Helvetica,sans-Serif" font-size="10.00">&lt; iWidgetManager &gt;::getInstance</text>
</a>
</g>
</g>
<!-- Node12&#45;&gt;Node13 -->
<g id="edge1" class="edge"><title>Node12&#45;&gt;Node13</title>
<path fill="none" stroke="midnightblue" d="M71.5653,-338.664C82.9317,-369.984 113.729,-441.402 167,-471.5 217.338,-499.941 282.417,-503.251 334.555,-499.546"/>
<polygon fill="midnightblue" stroke="midnightblue" points="335.116,-503.012 344.802,-498.717 334.552,-496.035 335.116,-503.012"/>
</g>
<!-- Node14 -->
<g id="node3" class="node"><title>Node14</title>
<g id="a_node3"><a xlink:href="class_user_control_transformation.html#afc317354393efad087b3760b22aa23a5" target="_top" xlink:title=" ">
<polygon fill="white" stroke="black" points="172.5,-617.5 172.5,-647.5 303.5,-647.5 303.5,-617.5 172.5,-617.5"/>
<text text-anchor="start" x="180.5" y="-635.5" font-family="Helvetica,sans-Serif" font-size="10.00">UserControlTransformation</text>
<text text-anchor="middle" x="238" y="-624.5" font-family="Helvetica,sans-Serif" font-size="10.00">::onTranslation</text>
</a>
</g>
</g>
<!-- Node12&#45;&gt;Node14 -->
<g id="edge2" class="edge"><title>Node12&#45;&gt;Node14</title>
<path fill="none" stroke="midnightblue" d="M67.3608,-338.591C70.8445,-385.452 87.8224,-530.01 167,-608.5 168.083,-609.574 169.217,-610.6 170.394,-611.58"/>
<polygon fill="midnightblue" stroke="midnightblue" points="168.513,-614.536 178.712,-617.406 172.529,-608.803 168.513,-614.536"/>
</g>
<!-- Node21 -->
<g id="node10" class="node"><title>Node21</title>
<g id="a_node10"><a xlink:href="class_user_control_transformation.html#a1794207223f20ea16421640ac5077a82" target="_top" xlink:title=" ">
<polygon fill="white" stroke="black" points="172.5,-568.5 172.5,-598.5 303.5,-598.5 303.5,-568.5 172.5,-568.5"/>
<text text-anchor="start" x="180.5" y="-586.5" font-family="Helvetica,sans-Serif" font-size="10.00">UserControlTransformation</text>
<text text-anchor="middle" x="238" y="-575.5" font-family="Helvetica,sans-Serif" font-size="10.00">::onScale</text>
</a>
</g>
</g>
<!-- Node12&#45;&gt;Node21 -->
<g id="edge12" class="edge"><title>Node12&#45;&gt;Node21</title>
<path fill="none" stroke="midnightblue" d="M68.6216,-338.625C75.2211,-380.045 99.1781,-496.412 167,-559.5 168.146,-560.566 169.342,-561.586 170.581,-562.56"/>
<polygon fill="midnightblue" stroke="midnightblue" points="169.023,-565.728 179.287,-568.357 172.903,-559.902 169.023,-565.728"/>
</g>
<!-- Node24 -->
<g id="node13" class="node"><title>Node24</title>
<g id="a_node13"><a xlink:href="class_user_control_transformation.html#a4fdf61c7a2a6e13a0ac0a2459df07716" target="_top" xlink:title=" ">
<polygon fill="white" stroke="black" points="172.5,-519.5 172.5,-549.5 303.5,-549.5 303.5,-519.5 172.5,-519.5"/>
<text text-anchor="start" x="180.5" y="-537.5" font-family="Helvetica,sans-Serif" font-size="10.00">UserControlTransformation</text>
<text text-anchor="middle" x="238" y="-526.5" font-family="Helvetica,sans-Serif" font-size="10.00">::onID</text>
</a>
</g>
</g>
<!-- Node12&#45;&gt;Node24 -->
<g id="edge17" class="edge"><title>Node12&#45;&gt;Node24</title>
<path fill="none" stroke="midnightblue" d="M71.0806,-338.523C82.1603,-372.533 113.512,-456.206 167,-504.5 171.171,-508.266 175.886,-511.608 180.85,-514.564"/>
<polygon fill="midnightblue" stroke="midnightblue" points="179.524,-517.824 189.99,-519.474 182.837,-511.658 179.524,-517.824"/>
</g>
<!-- Node27 -->
<g id="node16" class="node"><title>Node27</title>
<g id="a_node16"><a xlink:href="class_user_control_transformation.html#ac23b3238c2bf21eff787dff6f22d7648" target="_top" xlink:title=" ">
<polygon fill="white" stroke="black" points="172.5,-431.5 172.5,-461.5 303.5,-461.5 303.5,-431.5 172.5,-431.5"/>
<text text-anchor="start" x="180.5" y="-449.5" font-family="Helvetica,sans-Serif" font-size="10.00">UserControlTransformation</text>
<text text-anchor="middle" x="238" y="-438.5" font-family="Helvetica,sans-Serif" font-size="10.00">::onRotationX</text>
</a>
</g>
</g>
<!-- Node12&#45;&gt;Node27 -->
<g id="edge22" class="edge"><title>Node12&#45;&gt;Node27</title>
<path fill="none" stroke="midnightblue" d="M78.1887,-338.721C95.4382,-360.222 129.719,-399.433 167,-422.5 169.646,-424.137 172.418,-425.679 175.268,-427.13"/>
<polygon fill="midnightblue" stroke="midnightblue" points="174.035,-430.416 184.579,-431.455 176.984,-424.068 174.035,-430.416"/>
</g>
<!-- Node30 -->
<g id="node19" class="node"><title>Node30</title>
<g id="a_node19"><a xlink:href="class_user_control_transformation.html#a4cef3548fe059f6665240d40d2502072" target="_top" xlink:title=" ">
<polygon fill="white" stroke="black" points="172.5,-382.5 172.5,-412.5 303.5,-412.5 303.5,-382.5 172.5,-382.5"/>
<text text-anchor="start" x="180.5" y="-400.5" font-family="Helvetica,sans-Serif" font-size="10.00">UserControlTransformation</text>
<text text-anchor="middle" x="238" y="-389.5" font-family="Helvetica,sans-Serif" font-size="10.00">::onRotationY</text>
</a>
</g>
</g>
<!-- Node12&#45;&gt;Node30 -->
<g id="edge27" class="edge"><title>Node12&#45;&gt;Node30</title>
<path fill="none" stroke="midnightblue" d="M94.1992,-338.513C114.131,-349.01 141.828,-362.977 167,-373.5 171.434,-375.354 176.066,-377.178 180.745,-378.942"/>
<polygon fill="midnightblue" stroke="midnightblue" points="179.771,-382.312 190.364,-382.468 182.18,-375.74 179.771,-382.312"/>
</g>
<!-- Node31 -->
<g id="node20" class="node"><title>Node31</title>
<g id="a_node20"><a xlink:href="class_user_control_transformation.html#a579deda8aaaed66cd9771e619011eda6" target="_top" xlink:title=" ">
<polygon fill="white" stroke="black" points="172.5,-333.5 172.5,-363.5 303.5,-363.5 303.5,-333.5 172.5,-333.5"/>
<text text-anchor="start" x="180.5" y="-351.5" font-family="Helvetica,sans-Serif" font-size="10.00">UserControlTransformation</text>
<text text-anchor="middle" x="238" y="-340.5" font-family="Helvetica,sans-Serif" font-size="10.00">::onRotationZ</text>
</a>
</g>
</g>
<!-- Node12&#45;&gt;Node31 -->
<g id="edge30" class="edge"><title>Node12&#45;&gt;Node31</title>
<path fill="none" stroke="midnightblue" d="M131.445,-333.023C141.468,-334.492 151.888,-336.02 162.106,-337.519"/>
<polygon fill="midnightblue" stroke="midnightblue" points="161.833,-341.016 172.235,-339.004 162.849,-334.09 161.833,-341.016"/>
</g>
<!-- Node32 -->
<g id="node21" class="node"><title>Node32</title>
<g id="a_node21"><a xlink:href="class_igor_1_1i_widget_text_edit.html#a7760ab7e5c9cddc36cf5728db5d98c09" target="_top" xlink:title=" ">
<polygon fill="white" stroke="black" points="167,-284.5 167,-314.5 309,-314.5 309,-284.5 167,-284.5"/>
<text text-anchor="start" x="175" y="-302.5" font-family="Helvetica,sans-Serif" font-size="10.00">Igor::iWidgetTextEdit</text>
<text text-anchor="middle" x="238" y="-291.5" font-family="Helvetica,sans-Serif" font-size="10.00">::setHorizontalTextAlignment</text>
</a>
</g>
</g>
<!-- Node12&#45;&gt;Node32 -->
<g id="edge33" class="edge"><title>Node12&#45;&gt;Node32</title>
<path fill="none" stroke="midnightblue" d="M131.445,-314.358C139.765,-313.187 148.359,-311.977 156.883,-310.777"/>
<polygon fill="midnightblue" stroke="midnightblue" points="157.424,-314.236 166.839,-309.376 156.449,-307.304 157.424,-314.236"/>
</g>
<!-- Node33 -->
<g id="node22" class="node"><title>Node33</title>
<g id="a_node22"><a xlink:href="class_igor_1_1i_widget_text_edit.html#a6c6ff0219d37e32d4b614587e7009213" target="_top" xlink:title=" ">
<polygon fill="white" stroke="black" points="184.5,-235.5 184.5,-265.5 291.5,-265.5 291.5,-235.5 184.5,-235.5"/>
<text text-anchor="start" x="192.5" y="-253.5" font-family="Helvetica,sans-Serif" font-size="10.00">Igor::iWidgetTextEdit</text>
<text text-anchor="middle" x="238" y="-242.5" font-family="Helvetica,sans-Serif" font-size="10.00">::setText</text>
</a>
</g>
</g>
<!-- Node12&#45;&gt;Node33 -->
<g id="edge34" class="edge"><title>Node12&#45;&gt;Node33</title>
<path fill="none" stroke="midnightblue" d="M96.0411,-308.406C115.875,-298.518 142.721,-285.602 167,-275.5 172.138,-273.362 177.531,-271.235 182.948,-269.176"/>
<polygon fill="midnightblue" stroke="midnightblue" points="184.524,-272.324 192.674,-265.555 182.081,-265.764 184.524,-272.324"/>
</g>
<!-- Node34 -->
<g id="node23" class="node"><title>Node34</title>
<g id="a_node23"><a xlink:href="class_igor_1_1i_widget.html#af44098e3682aafa4b2e74fa0d273679d" target="_top" xlink:title=" ">
<polygon fill="white" stroke="black" points="180,-197 180,-216 296,-216 296,-197 180,-197"/>
<text text-anchor="middle" x="238" y="-204" font-family="Helvetica,sans-Serif" font-size="10.00">Igor::iWidget::setWidth</text>
</a>
</g>
</g>
<!-- Node12&#45;&gt;Node34 -->
<g id="edge35" class="edge"><title>Node12&#45;&gt;Node34</title>
<path fill="none" stroke="midnightblue" d="M78.101,-308.337C95.2437,-286.966 129.396,-248.18 167,-226.5 171.537,-223.884 176.44,-221.591 181.47,-219.585"/>
<polygon fill="midnightblue" stroke="midnightblue" points="183.014,-222.749 191.24,-216.071 180.645,-216.162 183.014,-222.749"/>
</g>
<!-- Node35 -->
<g id="node24" class="node"><title>Node35</title>
<g id="a_node24"><a xlink:href="class_igor_1_1i_widget_text_edit.html#a8629638d3ab625e89d7017450a7063fb" target="_top" xlink:title=" ">
<polygon fill="white" stroke="black" points="184.5,-147.5 184.5,-177.5 291.5,-177.5 291.5,-147.5 184.5,-147.5"/>
<text text-anchor="start" x="192.5" y="-165.5" font-family="Helvetica,sans-Serif" font-size="10.00">Igor::iWidgetTextEdit</text>
<text text-anchor="middle" x="238" y="-154.5" font-family="Helvetica,sans-Serif" font-size="10.00">::setMaxTextLength</text>
</a>
</g>
</g>
<!-- Node12&#45;&gt;Node35 -->
<g id="edge36" class="edge"><title>Node12&#45;&gt;Node35</title>
<path fill="none" stroke="midnightblue" d="M73.9399,-308.115C88.1942,-280.181 121.98,-220.929 167,-187.5 169.642,-185.538 172.452,-183.719 175.371,-182.034"/>
<polygon fill="midnightblue" stroke="midnightblue" points="177.116,-185.072 184.393,-177.371 173.902,-178.853 177.116,-185.072"/>
</g>
<!-- Node36 -->
<g id="node25" class="node"><title>Node36</title>
<g id="a_node25"><a xlink:href="class_igor_1_1i_widget.html#a74cedb6d5151910c64b7d51491775e9a" target="_top" xlink:title=" ">
<polygon fill="white" stroke="black" points="171,-98.5 171,-128.5 305,-128.5 305,-98.5 171,-98.5"/>
<text text-anchor="start" x="179" y="-116.5" font-family="Helvetica,sans-Serif" font-size="10.00">Igor::iWidget::setHorizontal</text>
<text text-anchor="middle" x="238" y="-105.5" font-family="Helvetica,sans-Serif" font-size="10.00">Alignment</text>
</a>
</g>
</g>
<!-- Node12&#45;&gt;Node36 -->
<g id="edge37" class="edge"><title>Node12&#45;&gt;Node36</title>
<path fill="none" stroke="midnightblue" d="M70.6185,-308.429C80.9155,-273.511 111.054,-186.401 167,-138.5 168.973,-136.811 171.068,-135.233 173.254,-133.759"/>
<polygon fill="midnightblue" stroke="midnightblue" points="175.225,-136.661 182.071,-128.575 171.677,-130.626 175.225,-136.661"/>
</g>
<!-- Node37 -->
<g id="node26" class="node"><title>Node37</title>
<g id="a_node26"><a xlink:href="class_igor_1_1i_widget.html#a07294a337cb2c07d5d5088a4ab4550da" target="_top" xlink:title=" ">
<polygon fill="white" stroke="black" points="176,-49.5 176,-79.5 300,-79.5 300,-49.5 176,-49.5"/>
<text text-anchor="start" x="184" y="-67.5" font-family="Helvetica,sans-Serif" font-size="10.00">Igor::iWidget::setVertical</text>
<text text-anchor="middle" x="238" y="-56.5" font-family="Helvetica,sans-Serif" font-size="10.00">Alignment</text>
</a>
</g>
</g>
<!-- Node12&#45;&gt;Node37 -->
<g id="edge38" class="edge"><title>Node12&#45;&gt;Node37</title>
<path fill="none" stroke="midnightblue" d="M68.7542,-308.249C75.6348,-267.033 100.128,-152.309 167,-89.5 168.681,-87.9208 170.469,-86.4402 172.34,-85.0523"/>
<polygon fill="midnightblue" stroke="midnightblue" points="174.447,-87.8602 181.008,-79.5407 170.691,-81.9533 174.447,-87.8602"/>
</g>
<!-- Node38 -->
<g id="node27" class="node"><title>Node38</title>
<g id="a_node27"><a xlink:href="class_igor_1_1i_widget_text_edit.html#aaa59f9692347094814f4367401c3db8b" target="_top" xlink:title=" ">
<polygon fill="white" stroke="black" points="184.5,-0.5 184.5,-30.5 291.5,-30.5 291.5,-0.5 184.5,-0.5"/>
<text text-anchor="start" x="192.5" y="-18.5" font-family="Helvetica,sans-Serif" font-size="10.00">Igor::iWidgetTextEdit</text>
<text text-anchor="middle" x="238" y="-7.5" font-family="Helvetica,sans-Serif" font-size="10.00">::setWriteProtected</text>
</a>
</g>
</g>
<!-- Node12&#45;&gt;Node38 -->
<g id="edge39" class="edge"><title>Node12&#45;&gt;Node38</title>
<path fill="none" stroke="midnightblue" d="M67.3785,-308.46C70.9138,-261.761 88.0263,-117.702 167,-39.5 169.542,-36.983 172.359,-34.7297 175.361,-32.7123"/>
<polygon fill="midnightblue" stroke="midnightblue" points="177.299,-35.6358 184.238,-27.6291 173.82,-29.5613 177.299,-35.6358"/>
</g>
<!-- Node14&#45;&gt;Node13 -->
<g id="edge3" class="edge"><title>Node14&#45;&gt;Node13</title>
<path fill="none" stroke="midnightblue" d="M297.24,-617.357C301.515,-614.844 305.511,-611.914 309,-608.5 342.166,-576.048 311.421,-542.524 345,-510.5 346.659,-508.918 348.417,-507.436 350.255,-506.048"/>
<polygon fill="midnightblue" stroke="midnightblue" points="352.276,-508.909 358.775,-500.542 348.477,-503.03 352.276,-508.909"/>
</g>
<!-- Node15 -->
<g id="node4" class="node"><title>Node15</title>
<g id="a_node4"><a xlink:href="class_igor_1_1i_node_transform.html#aa14a8d9d83fd2de1370c662b29bb4b81" target="_top" xlink:title=" ">
<polygon fill="white" stroke="black" points="372.5,-617.5 372.5,-647.5 478.5,-647.5 478.5,-617.5 372.5,-617.5"/>
<text text-anchor="start" x="380.5" y="-635.5" font-family="Helvetica,sans-Serif" font-size="10.00">Igor::iNodeTransform</text>
<text text-anchor="middle" x="425.5" y="-624.5" font-family="Helvetica,sans-Serif" font-size="10.00">::translate</text>
</a>
</g>
</g>
<!-- Node14&#45;&gt;Node15 -->
<g id="edge4" class="edge"><title>Node14&#45;&gt;Node15</title>
<path fill="none" stroke="midnightblue" d="M303.618,-632.5C322.586,-632.5 343.288,-632.5 362.114,-632.5"/>
<polygon fill="midnightblue" stroke="midnightblue" points="362.357,-636 372.357,-632.5 362.357,-629 362.357,-636"/>
</g>
<!-- Node16 -->
<g id="node5" class="node"><title>Node16</title>
<g id="a_node5"><a xlink:href="class_igor_aux_1_1ia_matrix.html#ac3391a41520f494b8aa83d41ae89719b" target="_top" xlink:title=" ">
<polygon fill="white" stroke="black" points="567,-617.5 567,-647.5 663,-647.5 663,-617.5 567,-617.5"/>
<text text-anchor="start" x="575" y="-635.5" font-family="Helvetica,sans-Serif" font-size="10.00">IgorAux::iaMatrix::</text>
<text text-anchor="middle" x="615" y="-624.5" font-family="Helvetica,sans-Serif" font-size="10.00">translate</text>
</a>
</g>
</g>
<!-- Node15&#45;&gt;Node16 -->
<g id="edge5" class="edge"><title>Node15&#45;&gt;Node16</title>
<path fill="none" stroke="midnightblue" d="M478.729,-632.5C503.015,-632.5 531.959,-632.5 556.829,-632.5"/>
<polygon fill="midnightblue" stroke="midnightblue" points="556.854,-636 566.854,-632.5 556.854,-629 556.854,-636"/>
</g>
<!-- Node17 -->
<g id="node6" class="node"><title>Node17</title>
<g id="a_node6"><a xlink:href="class_igor_1_1i_node.html#a3be538d0d60b148b1eae5cd5892d279d" target="_top" xlink:title=" ">
<polygon fill="white" stroke="black" points="542,-519.5 542,-549.5 688,-549.5 688,-519.5 542,-519.5"/>
<text text-anchor="start" x="550" y="-537.5" font-family="Helvetica,sans-Serif" font-size="10.00">Igor::iNode::setTransformation</text>
<text text-anchor="middle" x="615" y="-526.5" font-family="Helvetica,sans-Serif" font-size="10.00">Dirty</text>
</a>
</g>
</g>
<!-- Node15&#45;&gt;Node17 -->
<g id="edge6" class="edge"><title>Node15&#45;&gt;Node17</title>
<path fill="none" stroke="midnightblue" d="M478.782,-621.981C488.356,-618.631 497.876,-614.241 506,-608.5 528.069,-592.905 520.255,-575.545 542,-559.5 544.527,-557.635 547.204,-555.902 549.983,-554.29"/>
<polygon fill="midnightblue" stroke="midnightblue" points="551.865,-557.257 559.137,-549.552 548.647,-551.041 551.865,-557.257"/>
</g>
<!-- Node18 -->
<g id="node7" class="node"><title>Node18</title>
<g id="a_node7"><a xlink:href="class_igor_1_1i_node.html#afcf6efd30c85e8c37a4261a6f27613b8" target="_top" xlink:title=" ">
<polygon fill="white" stroke="black" points="748,-587 748,-606 846,-606 846,-587 748,-587"/>
<text text-anchor="middle" x="797" y="-594" font-family="Helvetica,sans-Serif" font-size="10.00">Igor::iNode::isChild</text>
</a>
</g>
</g>
<!-- Node17&#45;&gt;Node18 -->
<g id="edge7" class="edge"><title>Node17&#45;&gt;Node18</title>
<path fill="none" stroke="midnightblue" d="M662.428,-549.628C671.006,-552.703 679.831,-556.056 688,-559.5 704.484,-566.448 707.263,-571.184 724,-577.5 730.42,-579.923 737.273,-582.157 744.103,-584.178"/>
<polygon fill="midnightblue" stroke="midnightblue" points="743.467,-587.635 754.042,-586.982 745.368,-580.898 743.467,-587.635"/>
</g>
<!-- Node19 -->
<g id="node8" class="node"><title>Node19</title>
<g id="a_node8"><a xlink:href="class_igor_1_1i_node.html#a1b3d40431eb4c1c79e5d93ef7fe68129" target="_top" xlink:title=" ">
<polygon fill="white" stroke="black" points="906,-503 906,-522 1017,-522 1017,-503 906,-503"/>
<text text-anchor="middle" x="961.5" y="-510" font-family="Helvetica,sans-Serif" font-size="10.00">Igor::iNode::getParent</text>
</a>
</g>
</g>
<!-- Node17&#45;&gt;Node19 -->
<g id="edge8" class="edge"><title>Node17&#45;&gt;Node19</title>
<path fill="none" stroke="midnightblue" d="M672.781,-519.441C689.186,-515.757 707.198,-512.344 724,-510.5 788.501,-503.42 805.115,-509.783 870,-510.5 878.358,-510.592 887.15,-510.733 895.834,-510.897"/>
<polygon fill="midnightblue" stroke="midnightblue" points="895.879,-514.398 905.947,-511.1 896.019,-507.4 895.879,-514.398"/>
</g>
<!-- Node20 -->
<g id="node9" class="node"><title>Node20</title>
<g id="a_node9"><a xlink:href="class_igor_1_1i_node.html#a66b6ecf7babaffce68852de186068e01" target="_top" xlink:title=" ">
<polygon fill="white" stroke="black" points="724,-519.5 724,-549.5 870,-549.5 870,-519.5 724,-519.5"/>
<text text-anchor="start" x="732" y="-537.5" font-family="Helvetica,sans-Serif" font-size="10.00">Igor::iNode::setTransformation</text>
<text text-anchor="middle" x="797" y="-526.5" font-family="Helvetica,sans-Serif" font-size="10.00">DirtyUp</text>
</a>
</g>
</g>
<!-- Node17&#45;&gt;Node20 -->
<g id="edge9" class="edge"><title>Node17&#45;&gt;Node20</title>
<path fill="none" stroke="midnightblue" d="M688.176,-534.5C696.52,-534.5 705.077,-534.5 713.544,-534.5"/>
<polygon fill="midnightblue" stroke="midnightblue" points="713.808,-538 723.808,-534.5 713.808,-531 713.808,-538"/>
</g>
<!-- Node20&#45;&gt;Node19 -->
<g id="edge10" class="edge"><title>Node20&#45;&gt;Node19</title>
<path fill="none" stroke="midnightblue" d="M870.221,-524.722C878.658,-523.58 887.226,-522.42 895.556,-521.292"/>
<polygon fill="midnightblue" stroke="midnightblue" points="896.133,-524.746 905.573,-519.936 895.194,-517.81 896.133,-524.746"/>
</g>
<!-- Node20&#45;&gt;Node20 -->
<g id="edge11" class="edge"><title>Node20&#45;&gt;Node20</title>
<path fill="none" stroke="midnightblue" d="M768.42,-549.659C761.528,-559.057 771.055,-568 797,-568 812.81,-568 822.524,-564.679 826.141,-559.958"/>
<polygon fill="midnightblue" stroke="midnightblue" points="829.619,-559.454 825.58,-549.659 822.629,-559.834 829.619,-559.454"/>
</g>
<!-- Node21&#45;&gt;Node13 -->
<g id="edge13" class="edge"><title>Node21&#45;&gt;Node13</title>
<path fill="none" stroke="midnightblue" d="M293.777,-568.441C299.158,-565.885 304.341,-562.923 309,-559.5 330.776,-543.498 323.021,-526.222 345,-510.5 347.707,-508.564 350.569,-506.774 353.536,-505.12"/>
<polygon fill="midnightblue" stroke="midnightblue" points="355.316,-508.143 362.706,-500.552 352.194,-501.878 355.316,-508.143"/>
</g>
<!-- Node22 -->
<g id="node11" class="node"><title>Node22</title>
<g id="a_node11"><a xlink:href="class_igor_1_1i_node_transform.html#aaec81952dc42939abe8be3bb5795e02d" target="_top" xlink:title=" ">
<polygon fill="white" stroke="black" points="372.5,-568.5 372.5,-598.5 478.5,-598.5 478.5,-568.5 372.5,-568.5"/>
<text text-anchor="start" x="380.5" y="-586.5" font-family="Helvetica,sans-Serif" font-size="10.00">Igor::iNodeTransform</text>
<text text-anchor="middle" x="425.5" y="-575.5" font-family="Helvetica,sans-Serif" font-size="10.00">::scale</text>
</a>
</g>
</g>
<!-- Node21&#45;&gt;Node22 -->
<g id="edge14" class="edge"><title>Node21&#45;&gt;Node22</title>
<path fill="none" stroke="midnightblue" d="M303.618,-583.5C322.586,-583.5 343.288,-583.5 362.114,-583.5"/>
<polygon fill="midnightblue" stroke="midnightblue" points="362.357,-587 372.357,-583.5 362.357,-580 362.357,-587"/>
</g>
<!-- Node22&#45;&gt;Node17 -->
<g id="edge16" class="edge"><title>Node22&#45;&gt;Node17</title>
<path fill="none" stroke="midnightblue" d="M478.729,-569.851C499.778,-564.35 524.327,-557.935 546.69,-552.09"/>
<polygon fill="midnightblue" stroke="midnightblue" points="547.665,-555.453 556.456,-549.538 545.896,-548.68 547.665,-555.453"/>
</g>
<!-- Node23 -->
<g id="node12" class="node"><title>Node23</title>
<g id="a_node12"><a xlink:href="class_igor_aux_1_1ia_matrix.html#a0d1f814a5844dbda77ed03f55768b8ba" target="_top" xlink:title=" ">
<polygon fill="white" stroke="black" points="567,-568.5 567,-598.5 663,-598.5 663,-568.5 567,-568.5"/>
<text text-anchor="start" x="575" y="-586.5" font-family="Helvetica,sans-Serif" font-size="10.00">IgorAux::iaMatrix::</text>
<text text-anchor="middle" x="615" y="-575.5" font-family="Helvetica,sans-Serif" font-size="10.00">scale</text>
</a>
</g>
</g>
<!-- Node22&#45;&gt;Node23 -->
<g id="edge15" class="edge"><title>Node22&#45;&gt;Node23</title>
<path fill="none" stroke="midnightblue" d="M478.729,-583.5C503.015,-583.5 531.959,-583.5 556.829,-583.5"/>
<polygon fill="midnightblue" stroke="midnightblue" points="556.854,-587 566.854,-583.5 556.854,-580 556.854,-587"/>
</g>
<!-- Node24&#45;&gt;Node13 -->
<g id="edge18" class="edge"><title>Node24&#45;&gt;Node13</title>
<path fill="none" stroke="midnightblue" d="M295.917,-519.465C315.503,-514.292 337.608,-508.452 357.896,-503.093"/>
<polygon fill="midnightblue" stroke="midnightblue" points="358.916,-506.444 367.691,-500.506 357.129,-499.676 358.916,-506.444"/>
</g>
<!-- Node25 -->
<g id="node14" class="node"><title>Node25</title>
<g id="a_node14"><a xlink:href="class_igor_1_1i_node_transform.html#aa6eafa4e6a19eae9880a62626f8e40c3" target="_top" xlink:title=" ">
<polygon fill="white" stroke="black" points="372.5,-519.5 372.5,-549.5 478.5,-549.5 478.5,-519.5 372.5,-519.5"/>
<text text-anchor="start" x="380.5" y="-537.5" font-family="Helvetica,sans-Serif" font-size="10.00">Igor::iNodeTransform</text>
<text text-anchor="middle" x="425.5" y="-526.5" font-family="Helvetica,sans-Serif" font-size="10.00">::identity</text>
</a>
</g>
</g>
<!-- Node24&#45;&gt;Node25 -->
<g id="edge19" class="edge"><title>Node24&#45;&gt;Node25</title>
<path fill="none" stroke="midnightblue" d="M303.618,-534.5C322.586,-534.5 343.288,-534.5 362.114,-534.5"/>
<polygon fill="midnightblue" stroke="midnightblue" points="362.357,-538 372.357,-534.5 362.357,-531 362.357,-538"/>
</g>
<!-- Node25&#45;&gt;Node17 -->
<g id="edge21" class="edge"><title>Node25&#45;&gt;Node17</title>
<path fill="none" stroke="midnightblue" d="M478.729,-534.5C495.11,-534.5 513.61,-534.5 531.55,-534.5"/>
<polygon fill="midnightblue" stroke="midnightblue" points="531.734,-538 541.734,-534.5 531.734,-531 531.734,-538"/>
</g>
<!-- Node26 -->
<g id="node15" class="node"><title>Node26</title>
<g id="a_node15"><a xlink:href="class_igor_aux_1_1ia_matrix.html#ad4c84d3532d5b7555a04018ffcba6122" target="_top" xlink:title=" ">
<polygon fill="white" stroke="black" points="567,-470.5 567,-500.5 663,-500.5 663,-470.5 567,-470.5"/>
<text text-anchor="start" x="575" y="-488.5" font-family="Helvetica,sans-Serif" font-size="10.00">IgorAux::iaMatrix::</text>
<text text-anchor="middle" x="615" y="-477.5" font-family="Helvetica,sans-Serif" font-size="10.00">identity</text>
</a>
</g>
</g>
<!-- Node25&#45;&gt;Node26 -->
<g id="edge20" class="edge"><title>Node25&#45;&gt;Node26</title>
<path fill="none" stroke="midnightblue" d="M478.729,-520.851C503.123,-514.476 532.216,-506.873 557.16,-500.354"/>
<polygon fill="midnightblue" stroke="midnightblue" points="558.064,-503.736 566.854,-497.821 556.294,-496.963 558.064,-503.736"/>
</g>
<!-- Node27&#45;&gt;Node13 -->
<g id="edge23" class="edge"><title>Node27&#45;&gt;Node13</title>
<path fill="none" stroke="midnightblue" d="M303.618,-460.086C316.367,-462.766 329.898,-465.611 343.117,-468.39"/>
<polygon fill="midnightblue" stroke="midnightblue" points="342.64,-471.866 353.146,-470.498 344.08,-465.016 342.64,-471.866"/>
</g>
<!-- Node28 -->
<g id="node17" class="node"><title>Node28</title>
<g id="a_node17"><a xlink:href="class_igor_1_1i_node_transform.html#a36db58a9939509fcb25f957d652b964f" target="_top" xlink:title=" ">
<polygon fill="white" stroke="black" points="372.5,-401.5 372.5,-431.5 478.5,-431.5 478.5,-401.5 372.5,-401.5"/>
<text text-anchor="start" x="380.5" y="-419.5" font-family="Helvetica,sans-Serif" font-size="10.00">Igor::iNodeTransform</text>
<text text-anchor="middle" x="425.5" y="-408.5" font-family="Helvetica,sans-Serif" font-size="10.00">::rotate</text>
</a>
</g>
</g>
<!-- Node27&#45;&gt;Node28 -->
<g id="edge24" class="edge"><title>Node27&#45;&gt;Node28</title>
<path fill="none" stroke="midnightblue" d="M303.618,-436.05C322.674,-432.968 343.48,-429.603 362.375,-426.547"/>
<polygon fill="midnightblue" stroke="midnightblue" points="363.044,-429.985 372.357,-424.933 361.926,-423.074 363.044,-429.985"/>
</g>
<!-- Node28&#45;&gt;Node17 -->
<g id="edge26" class="edge"><title>Node28&#45;&gt;Node17</title>
<path fill="none" stroke="midnightblue" d="M460.266,-431.596C475.237,-439.259 492.48,-449.495 506,-461.5 526.207,-479.443 520.156,-494.591 542,-510.5 544.05,-511.993 546.199,-513.398 548.421,-514.718"/>
<polygon fill="midnightblue" stroke="midnightblue" points="546.815,-517.828 557.291,-519.405 550.085,-511.639 546.815,-517.828"/>
</g>
<!-- Node29 -->
<g id="node18" class="node"><title>Node29</title>
<g id="a_node18"><a xlink:href="class_igor_aux_1_1ia_matrix.html#ae9eba9dbfae8fc7cc139579370386efb" target="_top" xlink:title=" ">
<polygon fill="white" stroke="black" points="567,-401.5 567,-431.5 663,-431.5 663,-401.5 567,-401.5"/>
<text text-anchor="start" x="575" y="-419.5" font-family="Helvetica,sans-Serif" font-size="10.00">IgorAux::iaMatrix::</text>
<text text-anchor="middle" x="615" y="-408.5" font-family="Helvetica,sans-Serif" font-size="10.00">rotate</text>
</a>
</g>
</g>
<!-- Node28&#45;&gt;Node29 -->
<g id="edge25" class="edge"><title>Node28&#45;&gt;Node29</title>
<path fill="none" stroke="midnightblue" d="M478.729,-416.5C503.015,-416.5 531.959,-416.5 556.829,-416.5"/>
<polygon fill="midnightblue" stroke="midnightblue" points="556.854,-420 566.854,-416.5 556.854,-413 556.854,-420"/>
</g>
<!-- Node30&#45;&gt;Node13 -->
<g id="edge28" class="edge"><title>Node30&#45;&gt;Node13</title>
<path fill="none" stroke="midnightblue" d="M284.596,-412.617C292.81,-415.67 301.227,-419.018 309,-422.5 317.087,-426.123 357.81,-448.503 388.632,-465.569"/>
<polygon fill="midnightblue" stroke="midnightblue" points="386.985,-468.658 397.429,-470.444 390.379,-462.535 386.985,-468.658"/>
</g>
<!-- Node30&#45;&gt;Node28 -->
<g id="edge29" class="edge"><title>Node30&#45;&gt;Node28</title>
<path fill="none" stroke="midnightblue" d="M303.618,-404.119C322.674,-406.07 343.48,-408.201 362.375,-410.137"/>
<polygon fill="midnightblue" stroke="midnightblue" points="362.052,-413.622 372.357,-411.159 362.766,-406.658 362.052,-413.622"/>
</g>
<!-- Node31&#45;&gt;Node13 -->
<g id="edge31" class="edge"><title>Node31&#45;&gt;Node13</title>
<path fill="none" stroke="midnightblue" d="M293.971,-363.526C299.376,-366.319 304.512,-369.615 309,-373.5 334.856,-395.88 321.045,-417.096 345,-441.5 354.422,-451.099 366.387,-459.185 378.156,-465.701"/>
<polygon fill="midnightblue" stroke="midnightblue" points="376.59,-468.832 387.072,-470.377 379.841,-462.633 376.59,-468.832"/>
</g>
<!-- Node31&#45;&gt;Node28 -->
<g id="edge32" class="edge"><title>Node31&#45;&gt;Node28</title>
<path fill="none" stroke="midnightblue" d="M281.603,-363.613C290.655,-366.853 300.15,-370.272 309,-373.5 330.692,-381.411 354.618,-390.293 375.042,-397.922"/>
<polygon fill="midnightblue" stroke="midnightblue" points="373.867,-401.219 384.459,-401.443 376.318,-394.662 373.867,-401.219"/>
</g>
</g>
</svg>
