<?xml version="1.0" encoding="UTF-8" standalone="no"?>
<!DOCTYPE svg PUBLIC "-//W3C//DTD SVG 1.1//EN"
 "http://www.w3.org/Graphics/SVG/1.1/DTD/svg11.dtd">
<!-- Generated by graphviz version 2.38.0 (20140413.2041)
 -->
<!-- Title: Igor::iSkySimulation Pages: 1 -->
<svg width="1344pt" height="331pt"
 viewBox="0.00 0.00 1344.00 331.00" xmlns="http://www.w3.org/2000/svg" xmlns:xlink="http://www.w3.org/1999/xlink">
<g id="graph0" class="graph" transform="scale(1 1) rotate(0) translate(4 327)">
<title>Igor::iSkySimulation</title>
<polygon fill="white" stroke="none" points="-4,4 -4,-327 1340,-327 1340,4 -4,4"/>
<!-- Node1 -->
<g id="node1" class="node"><title>Node1</title>
<g id="a_node1"><a xlink:title=" ">
<polygon fill="#bfbfbf" stroke="black" points="1232,-181.5 1232,-200.5 1336,-200.5 1336,-181.5 1232,-181.5"/>
<text text-anchor="middle" x="1284" y="-188.5" font-family="Helvetica,sans-Serif" font-size="10.00">Igor::iSkySimulation</text>
</a>
</g>
</g>
<!-- Node2 -->
<g id="node2" class="node"><title>Node2</title>
<g id="a_node2"><a xlink:href="class_igor_1_1i_sky_light_node.html" target="_top" xlink:title=" ">
<polygon fill="white" stroke="black" points="1032,-181.5 1032,-200.5 1133,-200.5 1133,-181.5 1032,-181.5"/>
<text text-anchor="middle" x="1082.5" y="-188.5" font-family="Helvetica,sans-Serif" font-size="10.00">Igor::iSkyLightNode</text>
</a>
</g>
</g>
<!-- Node2&#45;&gt;Node1 -->
<g id="edge1" class="edge"><title>Node2&#45;&gt;Node1</title>
<path fill="none" stroke="#9a32cd" stroke-dasharray="5,2" d="M1143.23,-191C1171.49,-191 1204.89,-191 1231.95,-191"/>
<polygon fill="#9a32cd" stroke="#9a32cd" points="1143.07,-187.5 1133.07,-191 1143.07,-194.5 1143.07,-187.5"/>
<text text-anchor="middle" x="1182.5" y="-194" font-family="Helvetica,sans-Serif" font-size="10.00"> skyLightNode</text>
</g>
<!-- Node3 -->
<g id="node3" class="node"><title>Node3</title>
<g id="a_node3"><a xlink:href="class_igor_1_1i_node_render.html" target="_top" xlink:title=" ">
<polygon fill="white" stroke="black" points="901,-135.5 901,-154.5 995,-154.5 995,-135.5 901,-135.5"/>
<text text-anchor="middle" x="948" y="-142.5" font-family="Helvetica,sans-Serif" font-size="10.00">Igor::iNodeRender</text>
</a>
</g>
</g>
<!-- Node3&#45;&gt;Node2 -->
<g id="edge2" class="edge"><title>Node3&#45;&gt;Node2</title>
<path fill="none" stroke="midnightblue" d="M985.969,-157.834C1007.57,-165.334 1034.37,-174.638 1054.08,-181.481"/>
<polygon fill="midnightblue" stroke="midnightblue" points="987.049,-154.505 976.454,-154.531 984.753,-161.117 987.049,-154.505"/>
</g>
<!-- Node16 -->
<g id="node16" class="node"><title>Node16</title>
<g id="a_node16"><a xlink:href="class_igor_1_1i_node_sky_box.html" target="_top" xlink:title=" ">
<polygon fill="white" stroke="black" points="1033.5,-135.5 1033.5,-154.5 1131.5,-154.5 1131.5,-135.5 1033.5,-135.5"/>
<text text-anchor="middle" x="1082.5" y="-142.5" font-family="Helvetica,sans-Serif" font-size="10.00">Igor::iNodeSkyBox</text>
</a>
</g>
</g>
<!-- Node3&#45;&gt;Node16 -->
<g id="edge24" class="edge"><title>Node3&#45;&gt;Node16</title>
<path fill="none" stroke="midnightblue" d="M1005.57,-145C1014.75,-145 1024.19,-145 1033.16,-145"/>
<polygon fill="midnightblue" stroke="midnightblue" points="1005.34,-141.5 995.342,-145 1005.34,-148.5 1005.34,-141.5"/>
</g>
<!-- Node4 -->
<g id="node4" class="node"><title>Node4</title>
<g id="a_node4"><a xlink:href="class_igor_1_1i_node.html" target="_top" xlink:title=" ">
<polygon fill="white" stroke="black" points="801,-135.5 801,-154.5 864,-154.5 864,-135.5 801,-135.5"/>
<text text-anchor="middle" x="832.5" y="-142.5" font-family="Helvetica,sans-Serif" font-size="10.00">Igor::iNode</text>
</a>
</g>
</g>
<!-- Node4&#45;&gt;Node3 -->
<g id="edge3" class="edge"><title>Node4&#45;&gt;Node3</title>
<path fill="none" stroke="midnightblue" d="M874.388,-145C882.992,-145 892.124,-145 900.904,-145"/>
<polygon fill="midnightblue" stroke="midnightblue" points="874.215,-141.5 864.215,-145 874.215,-148.5 874.215,-141.5"/>
</g>
<!-- Node4&#45;&gt;Node4 -->
<g id="edge18" class="edge"><title>Node4&#45;&gt;Node4</title>
<path fill="none" stroke="#9a32cd" stroke-dasharray="5,2" d="M823.292,-164.766C824.015,-169.497 827.085,-173 832.5,-173 841.387,-173 843.956,-163.565 840.206,-154.757"/>
<polygon fill="#9a32cd" stroke="#9a32cd" points="826.771,-165.166 824.794,-154.757 819.849,-164.127 826.771,-165.166"/>
<text text-anchor="middle" x="832.5" y="-176" font-family="Helvetica,sans-Serif" font-size="10.00"> _parent</text>
</g>
<!-- Node9 -->
<g id="node9" class="node"><title>Node9</title>
<g id="a_node9"><a xlink:href="class_igor_1_1i_scene.html" target="_top" xlink:title=" ">
<polygon fill="white" stroke="black" points="638,-197.5 638,-216.5 706,-216.5 706,-197.5 638,-197.5"/>
<text text-anchor="middle" x="672" y="-204.5" font-family="Helvetica,sans-Serif" font-size="10.00">Igor::iScene</text>
</a>
</g>
</g>
<!-- Node4&#45;&gt;Node9 -->
<g id="edge15" class="edge"><title>Node4&#45;&gt;Node9</title>
<path fill="none" stroke="#9a32cd" stroke-dasharray="5,2" d="M815.208,-161.917C806.41,-170.092 794.926,-179.334 783,-185 758.724,-196.533 728.656,-202.025 706.095,-204.638"/>
<polygon fill="#9a32cd" stroke="#9a32cd" points="817.747,-164.33 822.467,-154.844 812.862,-159.316 817.747,-164.33"/>
<text text-anchor="middle" x="753.5" y="-205" font-family="Helvetica,sans-Serif" font-size="10.00"> _root</text>
</g>
<!-- Node5 -->
<g id="node5" class="node"><title>Node5</title>
<g id="a_node5"><a xlink:href="class_igor_aux_1_1ia_i_d_generator.html" target="_top" xlink:title=" ">
<polygon fill="white" stroke="black" points="355,-98.5 355,-117.5 493,-117.5 493,-98.5 355,-98.5"/>
<text text-anchor="middle" x="424" y="-105.5" font-family="Helvetica,sans-Serif" font-size="10.00">IgorAux::iaIDGenerator&lt; T &gt;</text>
</a>
</g>
</g>
<!-- Node5&#45;&gt;Node4 -->
<g id="edge4" class="edge"><title>Node5&#45;&gt;Node4</title>
<path fill="none" stroke="#9a32cd" stroke-dasharray="5,2" d="M503.46,-113.801C559.847,-118.121 637.66,-124.393 706,-131 738.405,-134.133 775.445,-138.342 800.838,-141.325"/>
<polygon fill="#9a32cd" stroke="#9a32cd" points="503.425,-110.288 493.188,-113.017 502.893,-117.268 503.425,-110.288"/>
<text text-anchor="middle" x="672" y="-134" font-family="Helvetica,sans-Serif" font-size="10.00"> _idGenerator</text>
</g>
<!-- Node6 -->
<g id="node6" class="node"><title>Node6</title>
<g id="a_node6"><a xlink:href="class_igor_aux_1_1ia_mutex.html" target="_top" xlink:title=" ">
<polygon fill="white" stroke="black" points="97.5,-243.5 97.5,-262.5 187.5,-262.5 187.5,-243.5 97.5,-243.5"/>
<text text-anchor="middle" x="142.5" y="-250.5" font-family="Helvetica,sans-Serif" font-size="10.00">IgorAux::iaMutex</text>
</a>
</g>
</g>
<!-- Node6&#45;&gt;Node5 -->
<g id="edge5" class="edge"><title>Node6&#45;&gt;Node5</title>
<path fill="none" stroke="#9a32cd" stroke-dasharray="5,2" d="M197.708,-244.248C240.714,-234.655 299.619,-215.22 337,-177 353.222,-160.413 338.062,-143.855 355,-128 359.672,-123.627 365.251,-120.205 371.177,-117.529"/>
<polygon fill="#9a32cd" stroke="#9a32cd" points="196.748,-240.874 187.69,-246.37 198.199,-247.722 196.748,-240.874"/>
<text text-anchor="middle" x="277" y="-242" font-family="Helvetica,sans-Serif" font-size="10.00"> _mutex</text>
</g>
<!-- Node14 -->
<g id="node14" class="node"><title>Node14</title>
<g id="a_node14"><a xlink:href="class_igor_1_1i_data_update_queue.html" target="_top" xlink:title=" ">
<polygon fill="white" stroke="black" points="364,-264.5 364,-283.5 484,-283.5 484,-264.5 364,-264.5"/>
<text text-anchor="middle" x="424" y="-271.5" font-family="Helvetica,sans-Serif" font-size="10.00">Igor::iDataUpdateQueue</text>
</a>
</g>
</g>
<!-- Node6&#45;&gt;Node14 -->
<g id="edge17" class="edge"><title>Node6&#45;&gt;Node14</title>
<path fill="none" stroke="#9a32cd" stroke-dasharray="5,2" d="M197.922,-257.089C245.61,-260.672 314.775,-265.869 363.825,-269.554"/>
<polygon fill="#9a32cd" stroke="#9a32cd" points="198.022,-253.587 187.788,-256.328 197.497,-260.567 198.022,-253.587"/>
<text text-anchor="middle" x="277" y="-271" font-family="Helvetica,sans-Serif" font-size="10.00"> _mutex</text>
</g>
<!-- Node7 -->
<g id="node7" class="node"><title>Node7</title>
<g id="a_node7"><a xlink:title=" ">
<polygon fill="white" stroke="#bfbfbf" points="0,-98.5 0,-117.5 29,-117.5 29,-98.5 0,-98.5"/>
<text text-anchor="middle" x="14.5" y="-105.5" font-family="Helvetica,sans-Serif" font-size="10.00">T</text>
</a>
</g>
</g>
<!-- Node7&#45;&gt;Node5 -->
<g id="edge6" class="edge"><title>Node7&#45;&gt;Node5</title>
<path fill="none" stroke="#9a32cd" stroke-dasharray="5,2" d="M39.1208,-108C99.5536,-108 261.561,-108 354.657,-108"/>
<polygon fill="#9a32cd" stroke="#9a32cd" points="39.0583,-104.5 29.0583,-108 39.0582,-111.5 39.0583,-104.5"/>
<text text-anchor="middle" x="142.5" y="-111" font-family="Helvetica,sans-Serif" font-size="10.00"> _nextID</text>
</g>
<!-- Node13 -->
<g id="node13" class="node"><title>Node13</title>
<g id="a_node13"><a xlink:href="class_igor_aux_1_1ia_matrix.html" target="_top" xlink:title=" ">
<polygon fill="white" stroke="black" points="86,-39.5 86,-58.5 199,-58.5 199,-39.5 86,-39.5"/>
<text text-anchor="middle" x="142.5" y="-46.5" font-family="Helvetica,sans-Serif" font-size="10.00">IgorAux::iaMatrix&lt; T &gt;</text>
</a>
</g>
</g>
<!-- Node7&#45;&gt;Node13 -->
<g id="edge14" class="edge"><title>Node7&#45;&gt;Node13</title>
<path fill="none" stroke="#9a32cd" stroke-dasharray="5,2" d="M20.532,-88.2921C25.0715,-74.9521 33.2119,-58.3011 47,-50 58.5262,-43.0607 72.3641,-40.4643 85.8503,-40.1406"/>
<polygon fill="#9a32cd" stroke="#9a32cd" points="17.1235,-87.4748 17.6243,-98.0578 23.8325,-89.4724 17.1235,-87.4748"/>
<text text-anchor="middle" x="57.5" y="-86" font-family="Helvetica,sans-Serif" font-size="10.00"> _w0</text>
<text text-anchor="middle" x="57.5" y="-75" font-family="Helvetica,sans-Serif" font-size="10.00">_w1</text>
<text text-anchor="middle" x="57.5" y="-64" font-family="Helvetica,sans-Serif" font-size="10.00">_w2</text>
<text text-anchor="middle" x="57.5" y="-53" font-family="Helvetica,sans-Serif" font-size="10.00">_w3</text>
</g>
<!-- Node15 -->
<g id="node15" class="node"><title>Node15</title>
<g id="a_node15"><a xlink:href="class_igor_aux_1_1ia_vector3.html" target="_top" xlink:title=" ">
<polygon fill="white" stroke="black" points="217,-296.5 217,-315.5 337,-315.5 337,-296.5 217,-296.5"/>
<text text-anchor="middle" x="277" y="-303.5" font-family="Helvetica,sans-Serif" font-size="10.00">IgorAux::iaVector3&lt; T &gt;</text>
</a>
</g>
</g>
<!-- Node7&#45;&gt;Node15 -->
<g id="edge21" class="edge"><title>Node7&#45;&gt;Node15</title>
<path fill="none" stroke="#9a32cd" stroke-dasharray="5,2" d="M17.9114,-127.564C23.3165,-162.484 39.784,-235.315 86,-272 122.745,-301.167 176.124,-308.601 216.954,-309.35"/>
<polygon fill="#9a32cd" stroke="#9a32cd" points="21.3764,-127.069 16.5216,-117.652 14.4443,-128.041 21.3764,-127.069"/>
<text text-anchor="middle" x="57.5" y="-278" font-family="Helvetica,sans-Serif" font-size="10.00"> _x</text>
<text text-anchor="middle" x="57.5" y="-267" font-family="Helvetica,sans-Serif" font-size="10.00">_y</text>
<text text-anchor="middle" x="57.5" y="-256" font-family="Helvetica,sans-Serif" font-size="10.00">_z</text>
</g>
<!-- Node8 -->
<g id="node8" class="node"><title>Node8</title>
<g id="a_node8"><a xlink:href="class_igor_aux_1_1ia_string.html" target="_top" xlink:title=" ">
<polygon fill="white" stroke="black" points="379.5,-137.5 379.5,-156.5 468.5,-156.5 468.5,-137.5 379.5,-137.5"/>
<text text-anchor="middle" x="424" y="-144.5" font-family="Helvetica,sans-Serif" font-size="10.00">IgorAux::iaString</text>
</a>
</g>
</g>
<!-- Node8&#45;&gt;Node4 -->
<g id="edge7" class="edge"><title>Node8&#45;&gt;Node4</title>
<path fill="none" stroke="#9a32cd" stroke-dasharray="5,2" d="M478.624,-146.736C565.005,-146.311 732.213,-145.488 800.905,-145.151"/>
<polygon fill="#9a32cd" stroke="#9a32cd" points="478.485,-143.237 468.503,-146.786 478.52,-150.237 478.485,-143.237"/>
<text text-anchor="middle" x="672" y="-149" font-family="Helvetica,sans-Serif" font-size="10.00"> _name</text>
</g>
<!-- Node8&#45;&gt;Node9 -->
<g id="edge9" class="edge"><title>Node8&#45;&gt;Node9</title>
<path fill="none" stroke="#9a32cd" stroke-dasharray="5,2" d="M478.678,-150.879C518.534,-154.931 573.76,-163.039 620,-179 632.985,-183.482 646.567,-191.104 656.447,-197.265"/>
<polygon fill="#9a32cd" stroke="#9a32cd" points="478.925,-147.387 468.636,-149.911 478.254,-154.354 478.925,-147.387"/>
<text text-anchor="middle" x="565.5" y="-182" font-family="Helvetica,sans-Serif" font-size="10.00"> _name</text>
</g>
<!-- Node9&#45;&gt;Node1 -->
<g id="edge22" class="edge"><title>Node9&#45;&gt;Node1</title>
<path fill="none" stroke="#9a32cd" stroke-dasharray="5,2" d="M715.966,-217.926C747.675,-225.038 791.996,-233 831.5,-233 831.5,-233 831.5,-233 1083.5,-233 1146.15,-233 1217.54,-212.922 1255.63,-200.53"/>
<polygon fill="#9a32cd" stroke="#9a32cd" points="716.667,-214.496 706.136,-215.658 715.093,-221.316 716.667,-214.496"/>
<text text-anchor="middle" x="948" y="-236" font-family="Helvetica,sans-Serif" font-size="10.00"> scene</text>
</g>
<!-- Node9&#45;&gt;Node4 -->
<g id="edge8" class="edge"><title>Node9&#45;&gt;Node4</title>
<path fill="none" stroke="#9a32cd" stroke-dasharray="5,2" d="M693.625,-191.563C702.595,-185.414 713.451,-178.697 724,-174 748.899,-162.914 778.982,-155.242 800.984,-150.587"/>
<polygon fill="#9a32cd" stroke="#9a32cd" points="691.493,-188.784 685.365,-197.427 695.546,-194.492 691.493,-188.784"/>
<text text-anchor="middle" x="753.5" y="-177" font-family="Helvetica,sans-Serif" font-size="10.00"> _scene</text>
</g>
<!-- Node10 -->
<g id="node10" class="node"><title>Node10</title>
<g id="a_node10"><a xlink:href="class_igor_1_1i_octree.html" target="_top" xlink:title=" ">
<polygon fill="white" stroke="black" points="389,-176.5 389,-195.5 459,-195.5 459,-176.5 389,-176.5"/>
<text text-anchor="middle" x="424" y="-183.5" font-family="Helvetica,sans-Serif" font-size="10.00">Igor::iOctree</text>
</a>
</g>
</g>
<!-- Node10&#45;&gt;Node9 -->
<g id="edge10" class="edge"><title>Node10&#45;&gt;Node9</title>
<path fill="none" stroke="#9a32cd" stroke-dasharray="5,2" d="M469.399,-189.79C517.873,-193.928 594.376,-200.459 637.871,-204.172"/>
<polygon fill="#9a32cd" stroke="#9a32cd" points="469.467,-186.283 459.205,-188.92 468.871,-193.258 469.467,-186.283"/>
<text text-anchor="middle" x="565.5" y="-206" font-family="Helvetica,sans-Serif" font-size="10.00"> _octree</text>
</g>
<!-- Node11 -->
<g id="node11" class="node"><title>Node11</title>
<g id="a_node11"><a xlink:href="class_igor_1_1i_node_visitor_update_transform.html" target="_top" xlink:title=" ">
<polygon fill="white" stroke="black" points="363,-215 363,-245 485,-245 485,-215 363,-215"/>
<text text-anchor="start" x="371" y="-233" font-family="Helvetica,sans-Serif" font-size="10.00">Igor::iNodeVisitorUpdate</text>
<text text-anchor="middle" x="424" y="-222" font-family="Helvetica,sans-Serif" font-size="10.00">Transform</text>
</a>
</g>
</g>
<!-- Node11&#45;&gt;Node9 -->
<g id="edge11" class="edge"><title>Node11&#45;&gt;Node9</title>
<path fill="none" stroke="#9a32cd" stroke-dasharray="5,2" d="M495.631,-228.223C532.778,-226.641 578.998,-223.65 620,-218 625.832,-217.196 631.991,-216.091 637.934,-214.89"/>
<polygon fill="#9a32cd" stroke="#9a32cd" points="495.258,-224.735 485.406,-228.633 495.538,-231.729 495.258,-224.735"/>
<text text-anchor="middle" x="565.5" y="-231" font-family="Helvetica,sans-Serif" font-size="10.00"> _updateTransformVisitor</text>
</g>
<!-- Node12 -->
<g id="node12" class="node"><title>Node12</title>
<g id="a_node12"><a xlink:href="class_igor_1_1i_node_visitor.html" target="_top" xlink:title=" ">
<polygon fill="white" stroke="black" points="97,-197.5 97,-216.5 188,-216.5 188,-197.5 97,-197.5"/>
<text text-anchor="middle" x="142.5" y="-204.5" font-family="Helvetica,sans-Serif" font-size="10.00">Igor::iNodeVisitor</text>
</a>
</g>
</g>
<!-- Node12&#45;&gt;Node11 -->
<g id="edge12" class="edge"><title>Node12&#45;&gt;Node11</title>
<path fill="none" stroke="midnightblue" d="M198.142,-210.485C236.92,-213.072 290.187,-216.858 337,-221 345.374,-221.741 354.2,-222.588 362.879,-223.46"/>
<polygon fill="midnightblue" stroke="midnightblue" points="198.318,-206.989 188.109,-209.82 197.855,-213.973 198.318,-206.989"/>
</g>
<!-- Node13&#45;&gt;Node3 -->
<g id="edge19" class="edge"><title>Node13&#45;&gt;Node3</title>
<path fill="none" stroke="#9a32cd" stroke-dasharray="5,2" d="M209.43,-47.8936C266.066,-47.0386 349.906,-46 423,-46 423,-46 423,-46 833.5,-46 887.364,-46 928.034,-110.105 941.866,-135.146"/>
<polygon fill="#9a32cd" stroke="#9a32cd" points="209.125,-44.3977 199.18,-48.0508 209.232,-51.3969 209.125,-44.3977"/>
<text text-anchor="middle" x="672" y="-49" font-family="Helvetica,sans-Serif" font-size="10.00"> _worldMatrix</text>
</g>
<!-- Node13&#45;&gt;Node11 -->
<g id="edge13" class="edge"><title>Node13&#45;&gt;Node11</title>
<path fill="none" stroke="#9a32cd" stroke-dasharray="5,2" d="M167.297,-64.3864C177.199,-70.9117 188.752,-78.6865 199,-86 269.981,-136.656 278.555,-163.041 355,-205 361.616,-208.631 368.866,-211.934 376.089,-214.862"/>
<polygon fill="#9a32cd" stroke="#9a32cd" points="169.036,-61.342 158.752,-58.7942 165.203,-67.1991 169.036,-61.342"/>
<text text-anchor="middle" x="277" y="-196" font-family="Helvetica,sans-Serif" font-size="10.00"> _currentMatrix</text>
</g>
<!-- Node13&#45;&gt;Node16 -->
<g id="edge25" class="edge"><title>Node13&#45;&gt;Node16</title>
<path fill="none" stroke="#9a32cd" stroke-dasharray="5,2" d="M186.29,-36.7338C240.782,-22.2197 338.073,-0 423,-0 423,-0 423,-0 949,-0 1022.66,-0 1066.35,-103.228 1078.2,-135.486"/>
<polygon fill="#9a32cd" stroke="#9a32cd" points="185.041,-33.4458 176.303,-39.436 186.87,-40.2028 185.041,-33.4458"/>
<text text-anchor="middle" x="753.5" y="-3" font-family="Helvetica,sans-Serif" font-size="10.00"> _offsetMatrix</text>
</g>
<!-- Node14&#45;&gt;Node9 -->
<g id="edge16" class="edge"><title>Node14&#45;&gt;Node9</title>
<path fill="none" stroke="#9a32cd" stroke-dasharray="5,2" d="M494.049,-270.701C532.306,-267.002 580.064,-259.237 620,-243 635.461,-236.714 650.776,-224.963 660.526,-216.597"/>
<polygon fill="#9a32cd" stroke="#9a32cd" points="493.68,-267.22 484.032,-271.598 494.305,-274.192 493.68,-267.22"/>
<text text-anchor="middle" x="565.5" y="-272" font-family="Helvetica,sans-Serif" font-size="10.00"> _dataUpdateQueue</text>
</g>
<!-- Node15&#45;&gt;Node2 -->
<g id="edge20" class="edge"><title>Node15&#45;&gt;Node2</title>
<path fill="none" stroke="#9a32cd" stroke-dasharray="5,2" d="M347.404,-308.267C405.421,-309.966 490.347,-312 564.5,-312 564.5,-312 564.5,-312 949,-312 1014.73,-312 1062.12,-229.8 1076.75,-200.902"/>
<polygon fill="#9a32cd" stroke="#9a32cd" points="347.353,-304.764 337.253,-307.965 347.144,-311.761 347.353,-304.764"/>
<text text-anchor="middle" x="753.5" y="-315" font-family="Helvetica,sans-Serif" font-size="10.00"> lightdirection</text>
</g>
<!-- Node16&#45;&gt;Node1 -->
<g id="edge23" class="edge"><title>Node16&#45;&gt;Node1</title>
<path fill="none" stroke="#9a32cd" stroke-dasharray="5,2" d="M1134.82,-156.832C1168.03,-164.49 1210.7,-174.329 1241.72,-181.481"/>
<polygon fill="#9a32cd" stroke="#9a32cd" points="1135.37,-153.368 1124.84,-154.531 1133.79,-160.189 1135.37,-153.368"/>
<text text-anchor="middle" x="1182.5" y="-178" font-family="Helvetica,sans-Serif" font-size="10.00"> skyBoxNode</text>
</g>
</g>
</svg>
