<?xml version="1.0" encoding="UTF-8" standalone="no"?>
<!DOCTYPE svg PUBLIC "-//W3C//DTD SVG 1.1//EN"
 "http://www.w3.org/Graphics/SVG/1.1/DTD/svg11.dtd">
<!-- Generated by graphviz version 2.38.0 (20140413.2041)
 -->
<!-- Title: Igor::iNodeFactory::flush Pages: 1 -->
<svg width="773pt" height="448pt"
 viewBox="0.00 0.00 773.00 447.50" xmlns="http://www.w3.org/2000/svg" xmlns:xlink="http://www.w3.org/1999/xlink">
<g id="graph0" class="graph" transform="scale(1 1) rotate(0) translate(4 443.5)">
<title>Igor::iNodeFactory::flush</title>
<polygon fill="white" stroke="none" points="-4,4 -4,-443.5 769,-443.5 769,4 -4,4"/>
<!-- Node53 -->
<g id="node1" class="node"><title>Node53</title>
<g id="a_node1"><a xlink:title=" ">
<polygon fill="#bfbfbf" stroke="black" points="0,-309 0,-339 96,-339 96,-309 0,-309"/>
<text text-anchor="start" x="8" y="-327" font-family="Helvetica,sans-Serif" font-size="10.00">Igor::iNodeFactory</text>
<text text-anchor="middle" x="48" y="-316" font-family="Helvetica,sans-Serif" font-size="10.00">::flush</text>
</a>
</g>
</g>
<!-- Node54 -->
<g id="node2" class="node"><title>Node54</title>
<g id="a_node2"><a xlink:href="class_igor_aux_1_1ia_console.html#a025216d7b2e29420a663e8119b937ed4" target="_top" xlink:title=" ">
<polygon fill="white" stroke="black" points="144,-391 144,-421 242,-421 242,-391 144,-391"/>
<text text-anchor="start" x="152" y="-409" font-family="Helvetica,sans-Serif" font-size="10.00">IgorAux::iaConsole</text>
<text text-anchor="middle" x="193" y="-398" font-family="Helvetica,sans-Serif" font-size="10.00">::lock</text>
</a>
</g>
</g>
<!-- Node53&#45;&gt;Node54 -->
<g id="edge1" class="edge"><title>Node53&#45;&gt;Node54</title>
<path fill="none" stroke="midnightblue" d="M68.3881,-339.025C84.7576,-351.285 109.121,-368.552 132,-381 135.524,-382.917 139.226,-384.784 142.988,-386.577"/>
<polygon fill="midnightblue" stroke="midnightblue" points="141.849,-389.905 152.4,-390.871 144.755,-383.536 141.849,-389.905"/>
</g>
<!-- Node55 -->
<g id="node3" class="node"><title>Node55</title>
<g id="a_node3"><a xlink:href="namespacetesting_1_1internal.html#a0f6d06bf8c3093b9c22bb08723db201e" target="_top" xlink:title=" ">
<polygon fill="white" stroke="black" points="137,-352.5 137,-371.5 249,-371.5 249,-352.5 137,-352.5"/>
<text text-anchor="middle" x="193" y="-359.5" font-family="Helvetica,sans-Serif" font-size="10.00">testing::internal::move</text>
</a>
</g>
</g>
<!-- Node53&#45;&gt;Node55 -->
<g id="edge3" class="edge"><title>Node53&#45;&gt;Node55</title>
<path fill="none" stroke="midnightblue" d="M96.2199,-336.548C112.389,-340.845 130.437,-345.641 146.47,-349.901"/>
<polygon fill="midnightblue" stroke="midnightblue" points="145.594,-353.29 156.157,-352.475 147.392,-346.524 145.594,-353.29"/>
</g>
<!-- Node56 -->
<g id="node4" class="node"><title>Node56</title>
<g id="a_node4"><a xlink:href="class_igor_1_1i_node.html#a4ce1269afdfb50f10f7b2c10e5aa69e0" target="_top" xlink:title=" ">
<polygon fill="white" stroke="black" points="135,-314.5 135,-333.5 251,-333.5 251,-314.5 135,-314.5"/>
<text text-anchor="middle" x="193" y="-321.5" font-family="Helvetica,sans-Serif" font-size="10.00">Igor::iNode::insertNode</text>
</a>
</g>
</g>
<!-- Node53&#45;&gt;Node56 -->
<g id="edge4" class="edge"><title>Node53&#45;&gt;Node56</title>
<path fill="none" stroke="midnightblue" d="M96.2199,-324C105.397,-324 115.181,-324 124.857,-324"/>
<polygon fill="midnightblue" stroke="midnightblue" points="124.873,-327.5 134.873,-324 124.873,-320.5 124.873,-327.5"/>
</g>
<!-- Node70 -->
<g id="node18" class="node"><title>Node70</title>
<g id="a_node18"><a xlink:href="class_igor_1_1i_node.html#ad1adc80c4aa198c0aab3291d9bde8680" target="_top" xlink:title=" ">
<polygon fill="white" stroke="black" points="132,-276.5 132,-295.5 254,-295.5 254,-276.5 132,-276.5"/>
<text text-anchor="middle" x="193" y="-283.5" font-family="Helvetica,sans-Serif" font-size="10.00">Igor::iNode::removeNode</text>
</a>
</g>
</g>
<!-- Node53&#45;&gt;Node70 -->
<g id="edge21" class="edge"><title>Node53&#45;&gt;Node70</title>
<path fill="none" stroke="midnightblue" d="M96.2199,-311.452C112.389,-307.155 130.437,-302.359 146.47,-298.099"/>
<polygon fill="midnightblue" stroke="midnightblue" points="147.392,-301.476 156.157,-295.525 145.594,-294.71 147.392,-301.476"/>
</g>
<!-- Node71 -->
<g id="node19" class="node"><title>Node71</title>
<g id="a_node19"><a xlink:href="class_igor_1_1i_node.html#a828e8024ed2a02707f5a482579937556" target="_top" xlink:title=" ">
<polygon fill="white" stroke="black" points="138.5,-218.5 138.5,-237.5 247.5,-237.5 247.5,-218.5 138.5,-218.5"/>
<text text-anchor="middle" x="193" y="-225.5" font-family="Helvetica,sans-Serif" font-size="10.00">Igor::iNode::setActive</text>
</a>
</g>
</g>
<!-- Node53&#45;&gt;Node71 -->
<g id="edge23" class="edge"><title>Node53&#45;&gt;Node71</title>
<path fill="none" stroke="midnightblue" d="M70.7413,-308.847C87.4251,-297.272 111.071,-280.985 132,-267 143.944,-259.019 157.338,-250.291 168.437,-243.12"/>
<polygon fill="midnightblue" stroke="midnightblue" points="170.628,-245.872 177.137,-237.512 166.835,-239.988 170.628,-245.872"/>
</g>
<!-- Node54&#45;&gt;Node54 -->
<g id="edge2" class="edge"><title>Node54&#45;&gt;Node54</title>
<path fill="none" stroke="midnightblue" d="M167.905,-421.159C161.854,-430.557 170.219,-439.5 193,-439.5 206.882,-439.5 215.411,-436.179 218.587,-431.458"/>
<polygon fill="midnightblue" stroke="midnightblue" points="222.068,-430.981 218.095,-421.159 215.076,-431.315 222.068,-430.981"/>
</g>
<!-- Node57 -->
<g id="node5" class="node"><title>Node57</title>
<g id="a_node5"><a xlink:href="class_igor_1_1i_node.html#afcf6efd30c85e8c37a4261a6f27613b8" target="_top" xlink:title=" ">
<polygon fill="white" stroke="black" points="496,-395.5 496,-414.5 594,-414.5 594,-395.5 496,-395.5"/>
<text text-anchor="middle" x="545" y="-402.5" font-family="Helvetica,sans-Serif" font-size="10.00">Igor::iNode::isChild</text>
</a>
</g>
</g>
<!-- Node56&#45;&gt;Node57 -->
<g id="edge5" class="edge"><title>Node56&#45;&gt;Node57</title>
<path fill="none" stroke="midnightblue" d="M251.247,-331.927C300.62,-339.351 373.603,-351.738 436,-368 461.167,-374.559 488.909,-384.115 509.974,-391.873"/>
<polygon fill="midnightblue" stroke="midnightblue" points="508.851,-395.189 519.443,-395.404 511.297,-388.63 508.851,-395.189"/>
</g>
<!-- Node58 -->
<g id="node6" class="node"><title>Node58</title>
<g id="a_node6"><a xlink:href="class_igor_1_1i_node.html#adbeb716577ae857dc4274e8285dd94fe" target="_top" xlink:title=" ">
<polygon fill="white" stroke="black" points="307.5,-377.5 307.5,-396.5 418.5,-396.5 418.5,-377.5 307.5,-377.5"/>
<text text-anchor="middle" x="363" y="-384.5" font-family="Helvetica,sans-Serif" font-size="10.00">Igor::iNode::setParent</text>
</a>
</g>
</g>
<!-- Node56&#45;&gt;Node58 -->
<g id="edge6" class="edge"><title>Node56&#45;&gt;Node58</title>
<path fill="none" stroke="midnightblue" d="M228.386,-333.587C236.881,-336.309 245.872,-339.497 254,-343 270.809,-350.244 273.246,-355.63 290,-363 299.317,-367.099 309.567,-370.909 319.339,-374.232"/>
<polygon fill="midnightblue" stroke="midnightblue" points="318.306,-377.577 328.899,-377.385 320.499,-370.929 318.306,-377.577"/>
</g>
<!-- Node59 -->
<g id="node7" class="node"><title>Node59</title>
<g id="a_node7"><a xlink:href="class_igor_1_1i_node.html#a0392b6251631e79675f7416827335b70" target="_top" xlink:title=" ">
<polygon fill="white" stroke="black" points="308,-178.5 308,-197.5 418,-197.5 418,-178.5 308,-178.5"/>
<text text-anchor="middle" x="363" y="-185.5" font-family="Helvetica,sans-Serif" font-size="10.00">Igor::iNode::setScene</text>
</a>
</g>
</g>
<!-- Node56&#45;&gt;Node59 -->
<g id="edge7" class="edge"><title>Node56&#45;&gt;Node59</title>
<path fill="none" stroke="midnightblue" d="M234.349,-314.413C241.187,-311.908 248.005,-308.809 254,-305 295.768,-278.461 331.932,-231.827 349.906,-206.178"/>
<polygon fill="midnightblue" stroke="midnightblue" points="352.913,-207.982 355.681,-197.755 347.139,-204.023 352.913,-207.982"/>
</g>
<!-- Node67 -->
<g id="node15" class="node"><title>Node67</title>
<g id="a_node15"><a xlink:href="class_igor_1_1i_node.html#a3be538d0d60b148b1eae5cd5892d279d" target="_top" xlink:title=" ">
<polygon fill="white" stroke="black" points="290,-290 290,-320 436,-320 436,-290 290,-290"/>
<text text-anchor="start" x="298" y="-308" font-family="Helvetica,sans-Serif" font-size="10.00">Igor::iNode::setTransformation</text>
<text text-anchor="middle" x="363" y="-297" font-family="Helvetica,sans-Serif" font-size="10.00">Dirty</text>
</a>
</g>
</g>
<!-- Node56&#45;&gt;Node67 -->
<g id="edge15" class="edge"><title>Node56&#45;&gt;Node67</title>
<path fill="none" stroke="midnightblue" d="M251.346,-317.514C260.518,-316.477 270.162,-315.386 279.775,-314.299"/>
<polygon fill="midnightblue" stroke="midnightblue" points="280.217,-317.772 289.761,-313.17 279.431,-310.816 280.217,-317.772"/>
</g>
<!-- Node60 -->
<g id="node8" class="node"><title>Node60</title>
<g id="a_node8"><a xlink:href="class_igor_1_1i_node.html#aa8934442e897cfdf775264f161c69143" target="_top" xlink:title=" ">
<polygon fill="white" stroke="black" points="476.5,-202.5 476.5,-221.5 613.5,-221.5 613.5,-202.5 476.5,-202.5"/>
<text text-anchor="middle" x="545" y="-209.5" font-family="Helvetica,sans-Serif" font-size="10.00">Igor::iNode::onPreSetScene</text>
</a>
</g>
</g>
<!-- Node59&#45;&gt;Node60 -->
<g id="edge8" class="edge"><title>Node59&#45;&gt;Node60</title>
<path fill="none" stroke="midnightblue" d="M418.006,-195.201C433.185,-197.225 449.999,-199.467 466.268,-201.636"/>
<polygon fill="midnightblue" stroke="midnightblue" points="465.933,-205.122 476.308,-202.974 466.859,-198.183 465.933,-205.122"/>
</g>
<!-- Node61 -->
<g id="node9" class="node"><title>Node61</title>
<g id="a_node9"><a xlink:href="class_igor_1_1i_scene.html#aadee04cec2c19e6de83645d9de7e614f" target="_top" xlink:title=" ">
<polygon fill="white" stroke="black" points="484,-153 484,-183 606,-183 606,-153 484,-153"/>
<text text-anchor="start" x="492" y="-171" font-family="Helvetica,sans-Serif" font-size="10.00">Igor::iScene::signalNode</text>
<text text-anchor="middle" x="545" y="-160" font-family="Helvetica,sans-Serif" font-size="10.00">Removed</text>
</a>
</g>
</g>
<!-- Node59&#45;&gt;Node61 -->
<g id="edge9" class="edge"><title>Node59&#45;&gt;Node61</title>
<path fill="none" stroke="midnightblue" d="M418.006,-181.999C435.481,-180.058 455.123,-177.875 473.606,-175.822"/>
<polygon fill="midnightblue" stroke="midnightblue" points="474.182,-179.279 483.734,-174.696 473.409,-172.322 474.182,-179.279"/>
</g>
<!-- Node62 -->
<g id="node10" class="node"><title>Node62</title>
<g id="a_node10"><a xlink:href="class_igor_1_1i_node.html#aece61f1af4143a3a1765b19594d72b6e" target="_top" xlink:title=" ">
<polygon fill="white" stroke="black" points="499,-114.5 499,-133.5 591,-133.5 591,-114.5 499,-114.5"/>
<text text-anchor="middle" x="545" y="-121.5" font-family="Helvetica,sans-Serif" font-size="10.00">Igor::iNode::getID</text>
</a>
</g>
</g>
<!-- Node59&#45;&gt;Node62 -->
<g id="edge10" class="edge"><title>Node59&#45;&gt;Node62</title>
<path fill="none" stroke="midnightblue" d="M410.601,-178.39C419.248,-175.861 428.053,-172.758 436,-169 453.842,-160.562 454.158,-151.438 472,-143 477.391,-140.451 483.176,-138.203 489.039,-136.232"/>
<polygon fill="midnightblue" stroke="midnightblue" points="490.407,-139.472 498.923,-133.169 488.335,-132.786 490.407,-139.472"/>
</g>
<!-- Node63 -->
<g id="node11" class="node"><title>Node63</title>
<g id="a_node11"><a xlink:href="class_igor_1_1i_scene.html#ab362507531b6b5207a3045283e9820c0" target="_top" xlink:title=" ">
<polygon fill="white" stroke="black" points="488.5,-76.5 488.5,-95.5 601.5,-95.5 601.5,-76.5 488.5,-76.5"/>
<text text-anchor="middle" x="545" y="-83.5" font-family="Helvetica,sans-Serif" font-size="10.00">Igor::iScene::getName</text>
</a>
</g>
</g>
<!-- Node59&#45;&gt;Node63 -->
<g id="edge11" class="edge"><title>Node59&#45;&gt;Node63</title>
<path fill="none" stroke="midnightblue" d="M418.164,-178.867C424.554,-176.338 430.682,-173.112 436,-169 461.818,-149.037 446.182,-124.963 472,-105 474.349,-103.184 476.856,-101.54 479.474,-100.053"/>
<polygon fill="midnightblue" stroke="midnightblue" points="481.253,-103.081 488.733,-95.5777 478.207,-96.7787 481.253,-103.081"/>
</g>
<!-- Node64 -->
<g id="node12" class="node"><title>Node64</title>
<g id="a_node12"><a xlink:href="class_igor_1_1i_node.html#aa13a0c809d3f0bb17baf52917d04aff0" target="_top" xlink:title=" ">
<polygon fill="white" stroke="black" points="485,-38.5 485,-57.5 605,-57.5 605,-38.5 485,-38.5"/>
<text text-anchor="middle" x="545" y="-45.5" font-family="Helvetica,sans-Serif" font-size="10.00">Igor::iNode::hasChildren</text>
</a>
</g>
</g>
<!-- Node59&#45;&gt;Node64 -->
<g id="edge12" class="edge"><title>Node59&#45;&gt;Node64</title>
<path fill="none" stroke="midnightblue" d="M418.153,-180.018C424.696,-177.313 430.867,-173.732 436,-169 471.347,-136.416 436.653,-99.5842 472,-67 473.699,-65.4337 475.512,-63.9935 477.414,-62.6695"/>
<polygon fill="midnightblue" stroke="midnightblue" points="479.336,-65.6015 486.254,-57.577 475.842,-59.5359 479.336,-65.6015"/>
</g>
<!-- Node65 -->
<g id="node13" class="node"><title>Node65</title>
<g id="a_node13"><a xlink:href="class_igor_1_1i_node.html#af5a14599bd4dc62d1534865c8a306e8e" target="_top" xlink:title=" ">
<polygon fill="white" stroke="black" points="473.5,-0.5 473.5,-19.5 616.5,-19.5 616.5,-0.5 473.5,-0.5"/>
<text text-anchor="middle" x="545" y="-7.5" font-family="Helvetica,sans-Serif" font-size="10.00">Igor::iNode::onPostSetScene</text>
</a>
</g>
</g>
<!-- Node59&#45;&gt;Node65 -->
<g id="edge13" class="edge"><title>Node59&#45;&gt;Node65</title>
<path fill="none" stroke="midnightblue" d="M418.189,-180.582C424.806,-177.797 430.988,-174.044 436,-169 481.285,-123.428 426.715,-74.5724 472,-29 473.435,-27.5557 474.966,-26.2172 476.576,-24.9769"/>
<polygon fill="midnightblue" stroke="midnightblue" points="478.595,-27.8422 485.201,-19.5594 474.872,-21.9145 478.595,-27.8422"/>
</g>
<!-- Node66 -->
<g id="node14" class="node"><title>Node66</title>
<g id="a_node14"><a xlink:href="class_igor_1_1i_scene.html#a61c6f27b83ccdfbfdc1b7ee02d2fcc21" target="_top" xlink:title=" ">
<polygon fill="white" stroke="black" points="484,-241 484,-271 606,-271 606,-241 484,-241"/>
<text text-anchor="start" x="492" y="-259" font-family="Helvetica,sans-Serif" font-size="10.00">Igor::iScene::signalNode</text>
<text text-anchor="middle" x="545" y="-248" font-family="Helvetica,sans-Serif" font-size="10.00">Added</text>
</a>
</g>
</g>
<!-- Node59&#45;&gt;Node66 -->
<g id="edge14" class="edge"><title>Node59&#45;&gt;Node66</title>
<path fill="none" stroke="midnightblue" d="M387.058,-197.527C408.846,-206.447 442.497,-220.011 472,-231 477.859,-233.182 484.008,-235.411 490.14,-237.594"/>
<polygon fill="midnightblue" stroke="midnightblue" points="489.124,-240.947 499.719,-240.974 491.453,-234.346 489.124,-240.947"/>
</g>
<!-- Node67&#45;&gt;Node57 -->
<g id="edge16" class="edge"><title>Node67&#45;&gt;Node57</title>
<path fill="none" stroke="midnightblue" d="M410.095,-320.062C419.154,-324.136 428.243,-329.093 436,-335 456.655,-350.727 450.784,-366.037 472,-381 478.07,-385.281 484.959,-388.841 492.01,-391.789"/>
<polygon fill="midnightblue" stroke="midnightblue" points="491.075,-395.177 501.666,-395.44 493.551,-388.629 491.075,-395.177"/>
</g>
<!-- Node68 -->
<g id="node16" class="node"><title>Node68</title>
<g id="a_node16"><a xlink:href="class_igor_1_1i_node.html#a1b3d40431eb4c1c79e5d93ef7fe68129" target="_top" xlink:title=" ">
<polygon fill="white" stroke="black" points="654,-326.5 654,-345.5 765,-345.5 765,-326.5 654,-326.5"/>
<text text-anchor="middle" x="709.5" y="-333.5" font-family="Helvetica,sans-Serif" font-size="10.00">Igor::iNode::getParent</text>
</a>
</g>
</g>
<!-- Node67&#45;&gt;Node68 -->
<g id="edge17" class="edge"><title>Node67&#45;&gt;Node68</title>
<path fill="none" stroke="midnightblue" d="M400.685,-320.039C429.019,-331.523 464.61,-345.614 472,-347 529.705,-357.826 596.644,-353.146 644.548,-346.894"/>
<polygon fill="midnightblue" stroke="midnightblue" points="645.035,-350.36 654.471,-345.54 644.089,-343.424 645.035,-350.36"/>
</g>
<!-- Node69 -->
<g id="node17" class="node"><title>Node69</title>
<g id="a_node17"><a xlink:href="class_igor_1_1i_node.html#a66b6ecf7babaffce68852de186068e01" target="_top" xlink:title=" ">
<polygon fill="white" stroke="black" points="472,-290 472,-320 618,-320 618,-290 472,-290"/>
<text text-anchor="start" x="480" y="-308" font-family="Helvetica,sans-Serif" font-size="10.00">Igor::iNode::setTransformation</text>
<text text-anchor="middle" x="545" y="-297" font-family="Helvetica,sans-Serif" font-size="10.00">DirtyUp</text>
</a>
</g>
</g>
<!-- Node67&#45;&gt;Node69 -->
<g id="edge18" class="edge"><title>Node67&#45;&gt;Node69</title>
<path fill="none" stroke="midnightblue" d="M436.176,-305C444.52,-305 453.077,-305 461.544,-305"/>
<polygon fill="midnightblue" stroke="midnightblue" points="461.808,-308.5 471.808,-305 461.808,-301.5 461.808,-308.5"/>
</g>
<!-- Node69&#45;&gt;Node68 -->
<g id="edge19" class="edge"><title>Node69&#45;&gt;Node68</title>
<path fill="none" stroke="midnightblue" d="M618.221,-318.778C628.287,-320.698 638.54,-322.654 648.352,-324.526"/>
<polygon fill="midnightblue" stroke="midnightblue" points="647.912,-328.005 658.391,-326.441 649.224,-321.129 647.912,-328.005"/>
</g>
<!-- Node69&#45;&gt;Node69 -->
<g id="edge20" class="edge"><title>Node69&#45;&gt;Node69</title>
<path fill="none" stroke="midnightblue" d="M516.42,-320.159C509.528,-329.557 519.055,-338.5 545,-338.5 560.81,-338.5 570.524,-335.179 574.141,-330.458"/>
<polygon fill="midnightblue" stroke="midnightblue" points="577.619,-329.954 573.58,-320.159 570.629,-330.334 577.619,-329.954"/>
</g>
<!-- Node70&#45;&gt;Node67 -->
<g id="edge22" class="edge"><title>Node70&#45;&gt;Node67</title>
<path fill="none" stroke="midnightblue" d="M254.177,-292.806C262.501,-293.747 271.165,-294.727 279.803,-295.704"/>
<polygon fill="midnightblue" stroke="midnightblue" points="279.58,-299.201 289.91,-296.847 280.367,-292.245 279.58,-299.201"/>
</g>
<!-- Node71&#45;&gt;Node59 -->
<g id="edge25" class="edge"><title>Node71&#45;&gt;Node59</title>
<path fill="none" stroke="midnightblue" d="M234.24,-218.419C257.617,-212.853 287.268,-205.793 312.119,-199.876"/>
<polygon fill="midnightblue" stroke="midnightblue" points="313.171,-203.224 322.088,-197.503 311.549,-196.414 313.171,-203.224"/>
</g>
<!-- Node71&#45;&gt;Node67 -->
<g id="edge24" class="edge"><title>Node71&#45;&gt;Node67</title>
<path fill="none" stroke="midnightblue" d="M214.938,-237.596C241.148,-249.61 286.663,-270.471 320.134,-285.812"/>
<polygon fill="midnightblue" stroke="midnightblue" points="318.68,-288.995 329.229,-289.98 321.597,-282.632 318.68,-288.995"/>
</g>
<!-- Node72 -->
<g id="node20" class="node"><title>Node72</title>
<g id="a_node20"><a xlink:href="class_igor_1_1i_node.html#acd9afcdfae20de27c0ca44bb5cb89e79" target="_top" xlink:title=" ">
<polygon fill="white" stroke="black" points="308,-140.5 308,-159.5 418,-159.5 418,-140.5 308,-140.5"/>
<text text-anchor="middle" x="363" y="-147.5" font-family="Helvetica,sans-Serif" font-size="10.00">Igor::iNode::getScene</text>
</a>
</g>
</g>
<!-- Node71&#45;&gt;Node72 -->
<g id="edge26" class="edge"><title>Node71&#45;&gt;Node72</title>
<path fill="none" stroke="midnightblue" d="M206.993,-218.286C224.843,-205.356 258.349,-182.552 290,-169 295.693,-166.562 301.777,-164.372 307.906,-162.421"/>
<polygon fill="midnightblue" stroke="midnightblue" points="308.942,-165.764 317.525,-159.552 306.941,-159.056 308.942,-165.764"/>
</g>
</g>
</svg>
