<?xml version="1.0" encoding="UTF-8" standalone="no"?>
<!DOCTYPE svg PUBLIC "-//W3C//DTD SVG 1.1//EN"
 "http://www.w3.org/Graphics/SVG/1.1/DTD/svg11.dtd">
<!-- Generated by graphviz version 2.38.0 (20140413.2041)
 -->
<!-- Title: Igor::iPhysicsJoint::getNewtonJoint Pages: 1 -->
<svg width="276pt" height="137pt"
 viewBox="0.00 0.00 276.00 137.00" xmlns="http://www.w3.org/2000/svg" xmlns:xlink="http://www.w3.org/1999/xlink">
<g id="graph0" class="graph" transform="scale(1 1) rotate(0) translate(4 133)">
<title>Igor::iPhysicsJoint::getNewtonJoint</title>
<polygon fill="white" stroke="none" points="-4,4 -4,-133 272,-133 272,4 -4,4"/>
<!-- Node1 -->
<g id="node1" class="node"><title>Node1</title>
<polygon fill="#bfbfbf" stroke="black" points="0,-49.5 0,-79.5 96,-79.5 96,-49.5 0,-49.5"/>
<text text-anchor="start" x="8" y="-67.5" font-family="Helvetica,sans-Serif" font-size="10.00">Igor::iPhysicsJoint</text>
<text text-anchor="middle" x="48" y="-56.5" font-family="Helvetica,sans-Serif" font-size="10.00">::getNewtonJoint</text>
</g>
<!-- Node2 -->
<g id="node2" class="node"><title>Node2</title>
<g id="a_node2"><a xlink:href="class_igor_1_1i_physics.html#a8584ff8683bea79a370d48d506349efb" target="_top" xlink:title="Igor::iPhysics::setUserJoint\lAddAngularRow">
<polygon fill="white" stroke="black" points="132,-98.5 132,-128.5 268,-128.5 268,-98.5 132,-98.5"/>
<text text-anchor="start" x="140" y="-116.5" font-family="Helvetica,sans-Serif" font-size="10.00">Igor::iPhysics::setUserJoint</text>
<text text-anchor="middle" x="200" y="-105.5" font-family="Helvetica,sans-Serif" font-size="10.00">AddAngularRow</text>
</a>
</g>
</g>
<!-- Node1&#45;&gt;Node2 -->
<g id="edge1" class="edge"><title>Node1&#45;&gt;Node2</title>
<path fill="none" stroke="midnightblue" d="M104.895,-82.7591C120.716,-87.9273 137.752,-93.4924 152.924,-98.4484"/>
<polygon fill="midnightblue" stroke="midnightblue" points="105.821,-79.3797 95.2289,-79.6014 103.648,-86.0337 105.821,-79.3797"/>
</g>
<!-- Node3 -->
<g id="node3" class="node"><title>Node3</title>
<g id="a_node3"><a xlink:href="class_igor_1_1i_physics.html#a9852fe10d01b66a0f147bd85fc909fc9" target="_top" xlink:title="Igor::iPhysics::setUserJoint\lSetRowMinimumFriction">
<polygon fill="white" stroke="black" points="132,-49.5 132,-79.5 268,-79.5 268,-49.5 132,-49.5"/>
<text text-anchor="start" x="140" y="-67.5" font-family="Helvetica,sans-Serif" font-size="10.00">Igor::iPhysics::setUserJoint</text>
<text text-anchor="middle" x="200" y="-56.5" font-family="Helvetica,sans-Serif" font-size="10.00">SetRowMinimumFriction</text>
</a>
</g>
</g>
<!-- Node1&#45;&gt;Node3 -->
<g id="edge2" class="edge"><title>Node1&#45;&gt;Node3</title>
<path fill="none" stroke="midnightblue" d="M106.103,-64.5C114.5,-64.5 123.214,-64.5 131.791,-64.5"/>
<polygon fill="midnightblue" stroke="midnightblue" points="106.049,-61.0001 96.0494,-64.5 106.049,-68.0001 106.049,-61.0001"/>
</g>
<!-- Node4 -->
<g id="node4" class="node"><title>Node4</title>
<g id="a_node4"><a xlink:href="class_igor_1_1i_physics.html#afa66ef2a2c2642839219aaa32e85bf65" target="_top" xlink:title="Igor::iPhysics::setUserJoint\lSetRowMaximumFriction">
<polygon fill="white" stroke="black" points="132,-0.5 132,-30.5 268,-30.5 268,-0.5 132,-0.5"/>
<text text-anchor="start" x="140" y="-18.5" font-family="Helvetica,sans-Serif" font-size="10.00">Igor::iPhysics::setUserJoint</text>
<text text-anchor="middle" x="200" y="-7.5" font-family="Helvetica,sans-Serif" font-size="10.00">SetRowMaximumFriction</text>
</a>
</g>
</g>
<!-- Node1&#45;&gt;Node4 -->
<g id="edge3" class="edge"><title>Node1&#45;&gt;Node4</title>
<path fill="none" stroke="midnightblue" d="M104.895,-46.2409C120.716,-41.0727 137.752,-35.5076 152.924,-30.5516"/>
<polygon fill="midnightblue" stroke="midnightblue" points="103.648,-42.9663 95.2289,-49.3986 105.821,-49.6203 103.648,-42.9663"/>
</g>
</g>
</svg>
