<?xml version="1.0" encoding="UTF-8" standalone="no"?>
<!DOCTYPE svg PUBLIC "-//W3C//DTD SVG 1.1//EN"
 "http://www.w3.org/Graphics/SVG/1.1/DTD/svg11.dtd">
<!-- Generated by graphviz version 2.38.0 (20140413.2041)
 -->
<!-- Title: ModelViewer::ModelViewer Pages: 1 -->
<svg width="315pt" height="78pt"
 viewBox="0.00 0.00 315.00 77.50" xmlns="http://www.w3.org/2000/svg" xmlns:xlink="http://www.w3.org/1999/xlink">
<g id="graph0" class="graph" transform="scale(1 1) rotate(0) translate(4 73.5)">
<title>ModelViewer::ModelViewer</title>
<polygon fill="white" stroke="none" points="-4,4 -4,-73.5 311,-73.5 311,4 -4,4"/>
<!-- Node1 -->
<g id="node1" class="node"><title>Node1</title>
<polygon fill="#bfbfbf" stroke="black" points="0,-28 0,-47 134,-47 134,-28 0,-28"/>
<text text-anchor="middle" x="67" y="-35" font-family="Helvetica,sans-Serif" font-size="10.00">ModelViewer::ModelViewer</text>
</g>
<!-- Node2 -->
<g id="node2" class="node"><title>Node2</title>
<g id="a_node2"><a xlink:href="class_menu_dialog.html#a2ac3bf74d436c3ea686a009235975df6" target="_top" xlink:title="MenuDialog::createInstance">
<polygon fill="white" stroke="black" points="170,-50 170,-69 307,-69 307,-50 170,-50"/>
<text text-anchor="middle" x="238.5" y="-57" font-family="Helvetica,sans-Serif" font-size="10.00">MenuDialog::createInstance</text>
</a>
</g>
</g>
<!-- Node1&#45;&gt;Node2 -->
<g id="edge1" class="edge"><title>Node1&#45;&gt;Node2</title>
<path fill="none" stroke="midnightblue" d="M134.018,-46.0688C142.503,-47.1701 151.252,-48.3056 159.901,-49.4281"/>
<polygon fill="midnightblue" stroke="midnightblue" points="159.619,-52.9208 169.986,-50.7371 160.52,-45.979 159.619,-52.9208"/>
</g>
<!-- Node3 -->
<g id="node3" class="node"><title>Node3</title>
<g id="a_node3"><a xlink:href="class_properties_dialog.html#a5ee82e0e42c92440a64366aefcc2f8ae" target="_top" xlink:title="PropertiesDialog::create\lInstance">
<polygon fill="white" stroke="black" points="178,-0.5 178,-30.5 299,-30.5 299,-0.5 178,-0.5"/>
<text text-anchor="start" x="186" y="-18.5" font-family="Helvetica,sans-Serif" font-size="10.00">PropertiesDialog::create</text>
<text text-anchor="middle" x="238.5" y="-7.5" font-family="Helvetica,sans-Serif" font-size="10.00">Instance</text>
</a>
</g>
</g>
<!-- Node1&#45;&gt;Node3 -->
<g id="edge2" class="edge"><title>Node1&#45;&gt;Node3</title>
<path fill="none" stroke="midnightblue" d="M134.018,-28.9312C145.05,-27.4995 156.526,-26.0099 167.65,-24.5661"/>
<polygon fill="midnightblue" stroke="midnightblue" points="168.276,-28.0142 177.743,-23.2561 167.375,-21.0725 168.276,-28.0142"/>
</g>
</g>
</svg>
