<?xml version="1.0" encoding="UTF-8" standalone="no"?>
<!DOCTYPE svg PUBLIC "-//W3C//DTD SVG 1.1//EN"
 "http://www.w3.org/Graphics/SVG/1.1/DTD/svg11.dtd">
<!-- Generated by graphviz version 2.38.0 (20140413.2041)
 -->
<!-- Title: Igor::iWidget::addWidget Pages: 1 -->
<svg width="690pt" height="333pt"
 viewBox="0.00 0.00 690.00 333.00" xmlns="http://www.w3.org/2000/svg" xmlns:xlink="http://www.w3.org/1999/xlink">
<g id="graph0" class="graph" transform="scale(1 1) rotate(0) translate(4 329)">
<title>Igor::iWidget::addWidget</title>
<polygon fill="white" stroke="none" points="-4,4 -4,-329 686,-329 686,4 -4,4"/>
<!-- Node1 -->
<g id="node1" class="node"><title>Node1</title>
<polygon fill="#bfbfbf" stroke="black" points="0,-153 0,-172 124,-172 124,-153 0,-153"/>
<text text-anchor="middle" x="62" y="-160" font-family="Helvetica,sans-Serif" font-size="10.00">Igor::iWidget::addWidget</text>
</g>
<!-- Node2 -->
<g id="node2" class="node"><title>Node2</title>
<g id="a_node2"><a xlink:href="class_igor_1_1i_dialog_color_gradient.html#a1c09eeb174db894a5e755b8ef13e914f" target="_top" xlink:title="Igor::iDialogColorGradient\l::initGUI">
<polygon fill="white" stroke="black" points="171.5,-294.5 171.5,-324.5 298.5,-324.5 298.5,-294.5 171.5,-294.5"/>
<text text-anchor="start" x="179.5" y="-312.5" font-family="Helvetica,sans-Serif" font-size="10.00">Igor::iDialogColorGradient</text>
<text text-anchor="middle" x="235" y="-301.5" font-family="Helvetica,sans-Serif" font-size="10.00">::initGUI</text>
</a>
</g>
</g>
<!-- Node1&#45;&gt;Node2 -->
<g id="edge1" class="edge"><title>Node1&#45;&gt;Node2</title>
<path fill="none" stroke="midnightblue" d="M72.949,-181.186C88.1923,-208.078 119.829,-257.524 160,-285.5 164.877,-288.896 170.263,-291.834 175.84,-294.37"/>
<polygon fill="midnightblue" stroke="midnightblue" points="75.8194,-179.143 67.926,-172.076 69.6894,-182.523 75.8194,-179.143"/>
</g>
<!-- Node3 -->
<g id="node3" class="node"><title>Node3</title>
<g id="a_node3"><a xlink:href="class_igor_1_1i_dialog_graph.html#a5bab24dca6ef57e9aee12a304b0b5c69" target="_top" xlink:title="Igor::iDialogGraph\l::initGUI">
<polygon fill="white" stroke="black" points="188,-245.5 188,-275.5 282,-275.5 282,-245.5 188,-245.5"/>
<text text-anchor="start" x="196" y="-263.5" font-family="Helvetica,sans-Serif" font-size="10.00">Igor::iDialogGraph</text>
<text text-anchor="middle" x="235" y="-252.5" font-family="Helvetica,sans-Serif" font-size="10.00">::initGUI</text>
</a>
</g>
</g>
<!-- Node1&#45;&gt;Node3 -->
<g id="edge2" class="edge"><title>Node1&#45;&gt;Node3</title>
<path fill="none" stroke="midnightblue" d="M80.878,-179.145C99.4322,-195.662 129.901,-220.728 160,-236.5 168.613,-241.013 178.235,-244.886 187.617,-248.122"/>
<polygon fill="midnightblue" stroke="midnightblue" points="82.9966,-176.342 73.2356,-172.222 78.2969,-181.53 82.9966,-176.342"/>
</g>
<!-- Node4 -->
<g id="node4" class="node"><title>Node4</title>
<g id="a_node4"><a xlink:href="class_igor_1_1i_user_control_color_chooser.html#a350674922c28c48ed8d4f3bf45a39fdc" target="_top" xlink:title="Igor::iUserControlColorChooser\l::initGUI">
<polygon fill="white" stroke="black" points="160,-196.5 160,-226.5 310,-226.5 310,-196.5 160,-196.5"/>
<text text-anchor="start" x="168" y="-214.5" font-family="Helvetica,sans-Serif" font-size="10.00">Igor::iUserControlColorChooser</text>
<text text-anchor="middle" x="235" y="-203.5" font-family="Helvetica,sans-Serif" font-size="10.00">::initGUI</text>
</a>
</g>
</g>
<!-- Node1&#45;&gt;Node4 -->
<g id="edge3" class="edge"><title>Node1&#45;&gt;Node4</title>
<path fill="none" stroke="midnightblue" d="M106.154,-174.866C129.05,-181.426 157.365,-189.54 181.524,-196.463"/>
<polygon fill="midnightblue" stroke="midnightblue" points="106.954,-171.454 96.3765,-172.064 105.025,-178.183 106.954,-171.454"/>
</g>
<!-- Node7 -->
<g id="node7" class="node"><title>Node7</title>
<g id="a_node7"><a xlink:href="class_user_control_graph_view.html#afb737ca9c452b2284871b693addd2e33" target="_top" xlink:title="UserControlGraphView\l::initGUI">
<polygon fill="white" stroke="black" points="177.5,-147.5 177.5,-177.5 292.5,-177.5 292.5,-147.5 177.5,-147.5"/>
<text text-anchor="start" x="185.5" y="-165.5" font-family="Helvetica,sans-Serif" font-size="10.00">UserControlGraphView</text>
<text text-anchor="middle" x="235" y="-154.5" font-family="Helvetica,sans-Serif" font-size="10.00">::initGUI</text>
</a>
</g>
</g>
<!-- Node1&#45;&gt;Node7 -->
<g id="edge6" class="edge"><title>Node1&#45;&gt;Node7</title>
<path fill="none" stroke="midnightblue" d="M134.558,-162.5C148.874,-162.5 163.726,-162.5 177.45,-162.5"/>
<polygon fill="midnightblue" stroke="midnightblue" points="134.252,-159 124.252,-162.5 134.252,-166 134.252,-159"/>
</g>
<!-- Node8 -->
<g id="node8" class="node"><title>Node8</title>
<g id="a_node8"><a xlink:href="class_user_control_material.html#a45610f92ae0ae41d9da8fce2aa7bec4b" target="_top" xlink:title="UserControlMaterial\l::initGUI">
<polygon fill="white" stroke="black" points="184,-98.5 184,-128.5 286,-128.5 286,-98.5 184,-98.5"/>
<text text-anchor="start" x="192" y="-116.5" font-family="Helvetica,sans-Serif" font-size="10.00">UserControlMaterial</text>
<text text-anchor="middle" x="235" y="-105.5" font-family="Helvetica,sans-Serif" font-size="10.00">::initGUI</text>
</a>
</g>
</g>
<!-- Node1&#45;&gt;Node8 -->
<g id="edge7" class="edge"><title>Node1&#45;&gt;Node8</title>
<path fill="none" stroke="midnightblue" d="M106.123,-150.143C129.763,-143.369 159.188,-134.937 183.85,-127.871"/>
<polygon fill="midnightblue" stroke="midnightblue" points="105.025,-146.817 96.3765,-152.936 106.954,-153.546 105.025,-146.817"/>
</g>
<!-- Node9 -->
<g id="node9" class="node"><title>Node9</title>
<g id="a_node9"><a xlink:href="class_user_control_material_view.html#af00d3b18c83b4335ffa14bd0b1324dbc" target="_top" xlink:title="UserControlMaterialView\l::initGUI">
<polygon fill="white" stroke="black" points="173.5,-49.5 173.5,-79.5 296.5,-79.5 296.5,-49.5 173.5,-49.5"/>
<text text-anchor="start" x="181.5" y="-67.5" font-family="Helvetica,sans-Serif" font-size="10.00">UserControlMaterialView</text>
<text text-anchor="middle" x="235" y="-56.5" font-family="Helvetica,sans-Serif" font-size="10.00">::initGUI</text>
</a>
</g>
</g>
<!-- Node1&#45;&gt;Node9 -->
<g id="edge8" class="edge"><title>Node1&#45;&gt;Node9</title>
<path fill="none" stroke="midnightblue" d="M80.9588,-146.171C99.5766,-129.95 130.094,-105.278 160,-89.5 166.956,-85.8299 174.559,-82.5396 182.158,-79.6453"/>
<polygon fill="midnightblue" stroke="midnightblue" points="78.4513,-143.717 73.287,-152.968 83.0931,-148.956 78.4513,-143.717"/>
</g>
<!-- Node10 -->
<g id="node10" class="node"><title>Node10</title>
<g id="a_node10"><a xlink:href="class_user_control_particle_system.html#a40bcd13d702c6d38e59a6509f0c690ff" target="_top" xlink:title="UserControlParticleSystem\l::initGUI">
<polygon fill="white" stroke="black" points="168,-0.5 168,-30.5 302,-30.5 302,-0.5 168,-0.5"/>
<text text-anchor="start" x="176" y="-18.5" font-family="Helvetica,sans-Serif" font-size="10.00">UserControlParticleSystem</text>
<text text-anchor="middle" x="235" y="-7.5" font-family="Helvetica,sans-Serif" font-size="10.00">::initGUI</text>
</a>
</g>
</g>
<!-- Node1&#45;&gt;Node10 -->
<g id="edge9" class="edge"><title>Node1&#45;&gt;Node10</title>
<path fill="none" stroke="midnightblue" d="M73.2605,-143.637C88.6928,-116.96 120.341,-68.3622 160,-40.5 165.437,-36.6803 171.504,-33.4068 177.76,-30.6106"/>
<polygon fill="midnightblue" stroke="midnightblue" points="70.0144,-142.269 68.157,-152.699 76.1137,-145.704 70.0144,-142.269"/>
</g>
<!-- Node5 -->
<g id="node5" class="node"><title>Node5</title>
<g id="a_node5"><a xlink:href="class_igor_1_1i_user_control_color_chooser.html#a3e12c44e1c409cc8f785c67eda400a85" target="_top" xlink:title="Igor::iUserControlColorChooser\l::iUserControlColorChooser">
<polygon fill="white" stroke="black" points="346,-196.5 346,-226.5 496,-226.5 496,-196.5 346,-196.5"/>
<text text-anchor="start" x="354" y="-214.5" font-family="Helvetica,sans-Serif" font-size="10.00">Igor::iUserControlColorChooser</text>
<text text-anchor="middle" x="421" y="-203.5" font-family="Helvetica,sans-Serif" font-size="10.00">::iUserControlColorChooser</text>
</a>
</g>
</g>
<!-- Node4&#45;&gt;Node5 -->
<g id="edge4" class="edge"><title>Node4&#45;&gt;Node5</title>
<path fill="none" stroke="midnightblue" d="M320.066,-211.5C328.654,-211.5 337.336,-211.5 345.808,-211.5"/>
<polygon fill="midnightblue" stroke="midnightblue" points="320.045,-208 310.044,-211.5 320.044,-215 320.045,-208"/>
</g>
<!-- Node6 -->
<g id="node6" class="node"><title>Node6</title>
<g id="a_node6"><a xlink:href="class_igor_1_1i_user_control_color_chooser.html#af82f3e4ae1b705adacffcdd546439e88" target="_top" xlink:title="Igor::iUserControlColorChooser\l::createInstance">
<polygon fill="white" stroke="black" points="532,-196.5 532,-226.5 682,-226.5 682,-196.5 532,-196.5"/>
<text text-anchor="start" x="540" y="-214.5" font-family="Helvetica,sans-Serif" font-size="10.00">Igor::iUserControlColorChooser</text>
<text text-anchor="middle" x="607" y="-203.5" font-family="Helvetica,sans-Serif" font-size="10.00">::createInstance</text>
</a>
</g>
</g>
<!-- Node5&#45;&gt;Node6 -->
<g id="edge5" class="edge"><title>Node5&#45;&gt;Node6</title>
<path fill="none" stroke="midnightblue" d="M506.066,-211.5C514.654,-211.5 523.336,-211.5 531.808,-211.5"/>
<polygon fill="midnightblue" stroke="midnightblue" points="506.045,-208 496.044,-211.5 506.044,-215 506.045,-208"/>
</g>
</g>
</svg>
