<?xml version="1.0" encoding="UTF-8" standalone="no"?>
<!DOCTYPE svg PUBLIC "-//W3C//DTD SVG 1.1//EN"
 "http://www.w3.org/Graphics/SVG/1.1/DTD/svg11.dtd">
<!-- Generated by graphviz version 2.38.0 (20140413.2041)
 -->
<!-- Title: OMPF::ompfExternalReferenceChunk::setFilename Pages: 1 -->
<svg width="353pt" height="39pt"
 viewBox="0.00 0.00 353.00 39.00" xmlns="http://www.w3.org/2000/svg" xmlns:xlink="http://www.w3.org/1999/xlink">
<g id="graph0" class="graph" transform="scale(1 1) rotate(0) translate(4 35)">
<title>OMPF::ompfExternalReferenceChunk::setFilename</title>
<polygon fill="white" stroke="none" points="-4,4 -4,-35 349,-35 349,4 -4,4"/>
<!-- Node1 -->
<g id="node1" class="node"><title>Node1</title>
<polygon fill="#bfbfbf" stroke="black" points="0,-0.5 0,-30.5 152,-30.5 152,-0.5 0,-0.5"/>
<text text-anchor="start" x="8" y="-18.5" font-family="Helvetica,sans-Serif" font-size="10.00">OMPF::ompfExternalReference</text>
<text text-anchor="middle" x="76" y="-7.5" font-family="Helvetica,sans-Serif" font-size="10.00">Chunk::setFilename</text>
</g>
<!-- Node2 -->
<g id="node2" class="node"><title>Node2</title>
<g id="a_node2"><a xlink:href="class_igor_1_1i_model_data_i_o_o_m_p_f.html#a50976b8dc8d2f6bb6aeb2ad8945967b2" target="_top" xlink:title="Igor::iModelDataIOOMPF\l::createExternalReferenceChunk">
<polygon fill="white" stroke="black" points="188,-0.5 188,-30.5 345,-30.5 345,-0.5 188,-0.5"/>
<text text-anchor="start" x="196" y="-18.5" font-family="Helvetica,sans-Serif" font-size="10.00">Igor::iModelDataIOOMPF</text>
<text text-anchor="middle" x="266.5" y="-7.5" font-family="Helvetica,sans-Serif" font-size="10.00">::createExternalReferenceChunk</text>
</a>
</g>
</g>
<!-- Node1&#45;&gt;Node2 -->
<g id="edge1" class="edge"><title>Node1&#45;&gt;Node2</title>
<path fill="none" stroke="midnightblue" d="M162.086,-15.5C170.698,-15.5 179.412,-15.5 187.938,-15.5"/>
<polygon fill="midnightblue" stroke="midnightblue" points="162.042,-12.0001 152.042,-15.5 162.042,-19.0001 162.042,-12.0001"/>
</g>
</g>
</svg>
