<?xml version="1.0" encoding="UTF-8" standalone="no"?>
<!DOCTYPE svg PUBLIC "-//W3C//DTD SVG 1.1//EN"
 "http://www.w3.org/Graphics/SVG/1.1/DTD/svg11.dtd">
<!-- Generated by graphviz version 2.38.0 (20140413.2041)
 -->
<!-- Title: Igor::iModelResourceFactory Pages: 1 -->
<svg width="374pt" height="206pt"
 viewBox="0.00 0.00 373.50 206.00" xmlns="http://www.w3.org/2000/svg" xmlns:xlink="http://www.w3.org/1999/xlink">
<g id="graph0" class="graph" transform="scale(1 1) rotate(0) translate(4 202)">
<title>Igor::iModelResourceFactory</title>
<polygon fill="white" stroke="none" points="-4,4 -4,-202 369.5,-202 369.5,4 -4,4"/>
<!-- Node3 -->
<g id="node1" class="node"><title>Node3</title>
<g id="a_node1"><a xlink:title=" ">
<polygon fill="#bfbfbf" stroke="black" points="0,-78.5 0,-97.5 141,-97.5 141,-78.5 0,-78.5"/>
<text text-anchor="middle" x="70.5" y="-85.5" font-family="Helvetica,sans-Serif" font-size="10.00">Igor::iModelResourceFactory</text>
</a>
</g>
</g>
<!-- Node4 -->
<g id="node2" class="node"><title>Node4</title>
<g id="a_node2"><a xlink:href="class_igor_aux_1_1ia_singleton.html" target="_top" xlink:title=" ">
<polygon fill="white" stroke="black" points="94,-0.5 94,-30.5 231,-30.5 231,-0.5 94,-0.5"/>
<text text-anchor="start" x="102" y="-18.5" font-family="Helvetica,sans-Serif" font-size="10.00">IgorAux::iaSingleton</text>
<text text-anchor="middle" x="162.5" y="-7.5" font-family="Helvetica,sans-Serif" font-size="10.00">&lt; iModelResourceFactory &gt;</text>
</a>
</g>
</g>
<!-- Node3&#45;&gt;Node4 -->
<g id="edge3" class="edge"><title>Node3&#45;&gt;Node4</title>
<path fill="none" stroke="#9a32cd" stroke-dasharray="5,2" d="M69.7242,-68.1248C70.3565,-61.4598 72.1792,-54.3101 76.5,-49 82.9473,-41.0766 91.546,-35.0836 100.817,-30.5511"/>
<polygon fill="#9a32cd" stroke="#9a32cd" points="66.219,-68.4169 69.553,-78.4735 73.218,-68.5327 66.219,-68.4169"/>
<text text-anchor="middle" x="99.5" y="-52" font-family="Helvetica,sans-Serif" font-size="10.00"> _instance</text>
</g>
<!-- Node4&#45;&gt;Node3 -->
<g id="edge1" class="edge"><title>Node4&#45;&gt;Node3</title>
<path fill="none" stroke="midnightblue" d="M146.887,-39.0438C141.076,-46.3535 134.044,-54.092 126.5,-60 116.728,-67.6528 104.435,-73.8786 93.8574,-78.4151"/>
<polygon fill="midnightblue" stroke="midnightblue" points="149.88,-40.8875 153.104,-30.7952 144.29,-36.6739 149.88,-40.8875"/>
</g>
<!-- Node5 -->
<g id="node3" class="node"><title>Node5</title>
<g id="a_node3"><a xlink:href="class_igor_aux_1_1ia_mutex.html" target="_top" xlink:title=" ">
<polygon fill="white" stroke="black" points="132.5,-178.5 132.5,-197.5 222.5,-197.5 222.5,-178.5 132.5,-178.5"/>
<text text-anchor="middle" x="177.5" y="-185.5" font-family="Helvetica,sans-Serif" font-size="10.00">IgorAux::iaMutex</text>
</a>
</g>
</g>
<!-- Node5&#45;&gt;Node3 -->
<g id="edge7" class="edge"><title>Node5&#45;&gt;Node3</title>
<path fill="none" stroke="#9a32cd" stroke-dasharray="5,2" d="M122.29,-179.567C99.3347,-175.24 76.4159,-168.858 69.5,-160 55.2373,-141.733 62.4622,-112.005 67.3068,-97.5006"/>
<polygon fill="#9a32cd" stroke="#9a32cd" points="121.976,-183.066 132.432,-181.355 123.191,-176.172 121.976,-183.066"/>
<text text-anchor="middle" x="116.5" y="-152" font-family="Helvetica,sans-Serif" font-size="10.00"> _mutexDataIOs</text>
<text text-anchor="middle" x="116.5" y="-141" font-family="Helvetica,sans-Serif" font-size="10.00">_mutexModelQueue</text>
<text text-anchor="middle" x="116.5" y="-130" font-family="Helvetica,sans-Serif" font-size="10.00">_mutexModels</text>
<text text-anchor="middle" x="116.5" y="-119" font-family="Helvetica,sans-Serif" font-size="10.00">_mutexRunningTasks</text>
</g>
<!-- Node5&#45;&gt;Node4 -->
<g id="edge2" class="edge"><title>Node5&#45;&gt;Node4</title>
<path fill="none" stroke="#9a32cd" stroke-dasharray="5,2" d="M175.847,-168.205C172.817,-133.766 166.439,-61.2714 163.744,-30.6398"/>
<polygon fill="#9a32cd" stroke="#9a32cd" points="172.373,-168.656 176.736,-178.31 179.346,-168.042 172.373,-168.656"/>
<text text-anchor="middle" x="188.5" y="-85.5" font-family="Helvetica,sans-Serif" font-size="10.00"> _mutex</text>
</g>
<!-- Node6 -->
<g id="node4" class="node"><title>Node6</title>
<g id="a_node4"><a xlink:href="class_igor_aux_1_1ia_singleton.html" target="_top" xlink:title=" ">
<polygon fill="white" stroke="black" points="232,-78.5 232,-97.5 359,-97.5 359,-78.5 232,-78.5"/>
<text text-anchor="middle" x="295.5" y="-85.5" font-family="Helvetica,sans-Serif" font-size="10.00">IgorAux::iaSingleton&lt; T &gt;</text>
</a>
</g>
</g>
<!-- Node5&#45;&gt;Node6 -->
<g id="edge5" class="edge"><title>Node5&#45;&gt;Node6</title>
<path fill="none" stroke="#9a32cd" stroke-dasharray="5,2" d="M193.423,-171.239C208.777,-156.354 232.941,-133.73 255.5,-116 263.932,-109.373 273.932,-102.623 281.824,-97.5298"/>
<polygon fill="#9a32cd" stroke="#9a32cd" points="190.956,-168.757 186.253,-178.251 195.85,-173.762 190.956,-168.757"/>
<text text-anchor="middle" x="273.5" y="-135.5" font-family="Helvetica,sans-Serif" font-size="10.00"> _mutex</text>
</g>
<!-- Node6&#45;&gt;Node4 -->
<g id="edge4" class="edge"><title>Node6&#45;&gt;Node4</title>
<path fill="none" stroke="orange" stroke-dasharray="5,2" d="M270.568,-73.7844C247.373,-61.4889 212.912,-43.222 189.172,-30.6383"/>
<polygon fill="orange" stroke="orange" points="268.982,-76.905 279.457,-78.4961 272.261,-70.7201 268.982,-76.905"/>
<text text-anchor="middle" x="303.5" y="-52" font-family="Helvetica,sans-Serif" font-size="10.00"> &lt; iModelResourceFactory &gt;</text>
</g>
<!-- Node7 -->
<g id="node5" class="node"><title>Node7</title>
<g id="a_node5"><a xlink:title=" ">
<polygon fill="white" stroke="#bfbfbf" points="281,-178.5 281,-197.5 310,-197.5 310,-178.5 281,-178.5"/>
<text text-anchor="middle" x="295.5" y="-185.5" font-family="Helvetica,sans-Serif" font-size="10.00">T</text>
</a>
</g>
</g>
<!-- Node7&#45;&gt;Node6 -->
<g id="edge6" class="edge"><title>Node7&#45;&gt;Node6</title>
<path fill="none" stroke="#9a32cd" stroke-dasharray="5,2" d="M295.5,-168.22C295.5,-146.951 295.5,-113.22 295.5,-97.5374"/>
<polygon fill="#9a32cd" stroke="#9a32cd" points="292,-168.303 295.5,-178.303 299,-168.303 292,-168.303"/>
<text text-anchor="middle" x="318.5" y="-135.5" font-family="Helvetica,sans-Serif" font-size="10.00"> _instance</text>
</g>
</g>
</svg>
