<?xml version="1.0" encoding="UTF-8" standalone="no"?>
<!DOCTYPE svg PUBLIC "-//W3C//DTD SVG 1.1//EN"
 "http://www.w3.org/Graphics/SVG/1.1/DTD/svg11.dtd">
<!-- Generated by graphviz version 2.38.0 (20140413.2041)
 -->
<!-- Title: Igor::iWidgetSlider::getValue Pages: 1 -->
<svg width="1034pt" height="333pt"
 viewBox="0.00 0.00 1034.00 333.00" xmlns="http://www.w3.org/2000/svg" xmlns:xlink="http://www.w3.org/1999/xlink">
<g id="graph0" class="graph" transform="scale(1 1) rotate(0) translate(4 329)">
<title>Igor::iWidgetSlider::getValue</title>
<polygon fill="white" stroke="none" points="-4,4 -4,-329 1030,-329 1030,4 -4,4"/>
<!-- Node1 -->
<g id="node1" class="node"><title>Node1</title>
<polygon fill="#bfbfbf" stroke="black" points="0,-147.5 0,-177.5 96,-177.5 96,-147.5 0,-147.5"/>
<text text-anchor="start" x="8" y="-165.5" font-family="Helvetica,sans-Serif" font-size="10.00">Igor::iWidgetSlider</text>
<text text-anchor="middle" x="48" y="-154.5" font-family="Helvetica,sans-Serif" font-size="10.00">::getValue</text>
</g>
<!-- Node2 -->
<g id="node2" class="node"><title>Node2</title>
<g id="a_node2"><a xlink:href="class_igor_1_1i_user_control_color_chooser.html#a3cae6ee180ec98ef6020994ee9d98922" target="_top" xlink:title="Igor::iUserControlColorChooser\l::onSliderChangedH">
<polygon fill="white" stroke="black" points="132,-294.5 132,-324.5 282,-324.5 282,-294.5 132,-294.5"/>
<text text-anchor="start" x="140" y="-312.5" font-family="Helvetica,sans-Serif" font-size="10.00">Igor::iUserControlColorChooser</text>
<text text-anchor="middle" x="207" y="-301.5" font-family="Helvetica,sans-Serif" font-size="10.00">::onSliderChangedH</text>
</a>
</g>
</g>
<!-- Node1&#45;&gt;Node2 -->
<g id="edge1" class="edge"><title>Node1&#45;&gt;Node2</title>
<path fill="none" stroke="midnightblue" d="M59.5556,-187.161C72.6526,-214.931 97.5421,-259.554 132,-285.5 136.532,-288.912 141.568,-291.851 146.822,-294.379"/>
<polygon fill="midnightblue" stroke="midnightblue" points="62.6017,-185.405 55.2681,-177.759 56.2326,-188.309 62.6017,-185.405"/>
</g>
<!-- Node7 -->
<g id="node7" class="node"><title>Node7</title>
<g id="a_node7"><a xlink:href="class_igor_1_1i_user_control_color_chooser.html#a96622ba2d22cca146b1bea3648b1f9cd" target="_top" xlink:title="Igor::iUserControlColorChooser\l::onSliderChangedS">
<polygon fill="white" stroke="black" points="132,-245.5 132,-275.5 282,-275.5 282,-245.5 132,-245.5"/>
<text text-anchor="start" x="140" y="-263.5" font-family="Helvetica,sans-Serif" font-size="10.00">Igor::iUserControlColorChooser</text>
<text text-anchor="middle" x="207" y="-252.5" font-family="Helvetica,sans-Serif" font-size="10.00">::onSliderChangedS</text>
</a>
</g>
</g>
<!-- Node1&#45;&gt;Node7 -->
<g id="edge6" class="edge"><title>Node1&#45;&gt;Node7</title>
<path fill="none" stroke="midnightblue" d="M69.3555,-185.113C85.0735,-201.385 108.112,-222.795 132,-236.5 137.857,-239.861 144.25,-242.824 150.744,-245.417"/>
<polygon fill="midnightblue" stroke="midnightblue" points="71.6661,-182.462 62.2558,-177.594 66.5764,-187.268 71.6661,-182.462"/>
</g>
<!-- Node8 -->
<g id="node8" class="node"><title>Node8</title>
<g id="a_node8"><a xlink:href="class_igor_1_1i_user_control_color_chooser.html#a57a2f6b807ea3c83fa25507a84f7f9b3" target="_top" xlink:title="Igor::iUserControlColorChooser\l::onSliderChangedV">
<polygon fill="white" stroke="black" points="132,-196.5 132,-226.5 282,-226.5 282,-196.5 132,-196.5"/>
<text text-anchor="start" x="140" y="-214.5" font-family="Helvetica,sans-Serif" font-size="10.00">Igor::iUserControlColorChooser</text>
<text text-anchor="middle" x="207" y="-203.5" font-family="Helvetica,sans-Serif" font-size="10.00">::onSliderChangedV</text>
</a>
</g>
</g>
<!-- Node1&#45;&gt;Node8 -->
<g id="edge8" class="edge"><title>Node1&#45;&gt;Node8</title>
<path fill="none" stroke="midnightblue" d="M105.931,-180.268C122.953,-185.581 141.441,-191.351 157.841,-196.47"/>
<polygon fill="midnightblue" stroke="midnightblue" points="106.694,-176.84 96.1052,-177.202 104.608,-183.522 106.694,-176.84"/>
</g>
<!-- Node9 -->
<g id="node9" class="node"><title>Node9</title>
<g id="a_node9"><a xlink:href="class_igor_1_1i_user_control_color_chooser.html#ad3c851067b17bdd309d178ceb0ca594a" target="_top" xlink:title="Igor::iUserControlColorChooser\l::onSliderChangedR">
<polygon fill="white" stroke="black" points="132,-147.5 132,-177.5 282,-177.5 282,-147.5 132,-147.5"/>
<text text-anchor="start" x="140" y="-165.5" font-family="Helvetica,sans-Serif" font-size="10.00">Igor::iUserControlColorChooser</text>
<text text-anchor="middle" x="207" y="-154.5" font-family="Helvetica,sans-Serif" font-size="10.00">::onSliderChangedR</text>
</a>
</g>
</g>
<!-- Node1&#45;&gt;Node9 -->
<g id="edge10" class="edge"><title>Node1&#45;&gt;Node9</title>
<path fill="none" stroke="midnightblue" d="M106.128,-162.5C114.511,-162.5 123.246,-162.5 131.909,-162.5"/>
<polygon fill="midnightblue" stroke="midnightblue" points="106.105,-159 96.1052,-162.5 106.105,-166 106.105,-159"/>
</g>
<!-- Node10 -->
<g id="node10" class="node"><title>Node10</title>
<g id="a_node10"><a xlink:href="class_igor_1_1i_user_control_color_chooser.html#ae71f2bc615681288e009fa2f1e8aff52" target="_top" xlink:title="Igor::iUserControlColorChooser\l::onSliderChangedG">
<polygon fill="white" stroke="black" points="132,-98.5 132,-128.5 282,-128.5 282,-98.5 132,-98.5"/>
<text text-anchor="start" x="140" y="-116.5" font-family="Helvetica,sans-Serif" font-size="10.00">Igor::iUserControlColorChooser</text>
<text text-anchor="middle" x="207" y="-105.5" font-family="Helvetica,sans-Serif" font-size="10.00">::onSliderChangedG</text>
</a>
</g>
</g>
<!-- Node1&#45;&gt;Node10 -->
<g id="edge12" class="edge"><title>Node1&#45;&gt;Node10</title>
<path fill="none" stroke="midnightblue" d="M105.931,-144.732C122.953,-139.419 141.441,-133.649 157.841,-128.53"/>
<polygon fill="midnightblue" stroke="midnightblue" points="104.608,-141.478 96.1052,-147.798 106.694,-148.16 104.608,-141.478"/>
</g>
<!-- Node11 -->
<g id="node11" class="node"><title>Node11</title>
<g id="a_node11"><a xlink:href="class_igor_1_1i_user_control_color_chooser.html#af1ef4cd260b4503f1e1b3ea0e9d21494" target="_top" xlink:title="Igor::iUserControlColorChooser\l::onSliderChangedB">
<polygon fill="white" stroke="black" points="132,-49.5 132,-79.5 282,-79.5 282,-49.5 132,-49.5"/>
<text text-anchor="start" x="140" y="-67.5" font-family="Helvetica,sans-Serif" font-size="10.00">Igor::iUserControlColorChooser</text>
<text text-anchor="middle" x="207" y="-56.5" font-family="Helvetica,sans-Serif" font-size="10.00">::onSliderChangedB</text>
</a>
</g>
</g>
<!-- Node1&#45;&gt;Node11 -->
<g id="edge14" class="edge"><title>Node1&#45;&gt;Node11</title>
<path fill="none" stroke="midnightblue" d="M69.7468,-140.001C85.5103,-124.035 108.434,-103.105 132,-89.5 138.459,-85.7709 145.559,-82.4902 152.725,-79.6373"/>
<polygon fill="midnightblue" stroke="midnightblue" points="67.0429,-137.763 62.6122,-147.387 72.0774,-142.626 67.0429,-137.763"/>
</g>
<!-- Node12 -->
<g id="node12" class="node"><title>Node12</title>
<g id="a_node12"><a xlink:href="class_igor_1_1i_user_control_color_chooser.html#a227b1fa1d3048cb2027ce945e41d3864" target="_top" xlink:title="Igor::iUserControlColorChooser\l::onSliderChangedA">
<polygon fill="white" stroke="black" points="132,-0.5 132,-30.5 282,-30.5 282,-0.5 132,-0.5"/>
<text text-anchor="start" x="140" y="-18.5" font-family="Helvetica,sans-Serif" font-size="10.00">Igor::iUserControlColorChooser</text>
<text text-anchor="middle" x="207" y="-7.5" font-family="Helvetica,sans-Serif" font-size="10.00">::onSliderChangedA</text>
</a>
</g>
</g>
<!-- Node1&#45;&gt;Node12 -->
<g id="edge16" class="edge"><title>Node1&#45;&gt;Node12</title>
<path fill="none" stroke="midnightblue" d="M59.6636,-138.115C72.8607,-110.641 97.8429,-66.4447 132,-40.5 137.075,-36.6449 142.781,-33.3627 148.715,-30.5729"/>
<polygon fill="midnightblue" stroke="midnightblue" points="56.3817,-136.872 55.3396,-147.415 62.7292,-139.823 56.3817,-136.872"/>
</g>
<!-- Node3 -->
<g id="node3" class="node"><title>Node3</title>
<g id="a_node3"><a xlink:href="class_igor_1_1i_user_control_color_chooser.html#a32f721a060e9d1e08479db2f679a3a67" target="_top" xlink:title="Igor::iUserControlColorChooser\l::initExpanded">
<polygon fill="white" stroke="black" points="318,-147.5 318,-177.5 468,-177.5 468,-147.5 318,-147.5"/>
<text text-anchor="start" x="326" y="-165.5" font-family="Helvetica,sans-Serif" font-size="10.00">Igor::iUserControlColorChooser</text>
<text text-anchor="middle" x="393" y="-154.5" font-family="Helvetica,sans-Serif" font-size="10.00">::initExpanded</text>
</a>
</g>
</g>
<!-- Node2&#45;&gt;Node3 -->
<g id="edge2" class="edge"><title>Node2&#45;&gt;Node3</title>
<path fill="none" stroke="midnightblue" d="M274.374,-289.981C277.006,-288.582 279.56,-287.09 282,-285.5 327.128,-256.103 365.298,-203.548 382.392,-177.702"/>
<polygon fill="midnightblue" stroke="midnightblue" points="272.684,-286.91 265.182,-294.392 275.712,-293.222 272.684,-286.91"/>
</g>
<!-- Node4 -->
<g id="node4" class="node"><title>Node4</title>
<g id="a_node4"><a xlink:href="class_igor_1_1i_user_control_color_chooser.html#a350674922c28c48ed8d4f3bf45a39fdc" target="_top" xlink:title="Igor::iUserControlColorChooser\l::initGUI">
<polygon fill="white" stroke="black" points="504,-147.5 504,-177.5 654,-177.5 654,-147.5 504,-147.5"/>
<text text-anchor="start" x="512" y="-165.5" font-family="Helvetica,sans-Serif" font-size="10.00">Igor::iUserControlColorChooser</text>
<text text-anchor="middle" x="579" y="-154.5" font-family="Helvetica,sans-Serif" font-size="10.00">::initGUI</text>
</a>
</g>
</g>
<!-- Node3&#45;&gt;Node4 -->
<g id="edge3" class="edge"><title>Node3&#45;&gt;Node4</title>
<path fill="none" stroke="midnightblue" d="M478.066,-162.5C486.654,-162.5 495.336,-162.5 503.808,-162.5"/>
<polygon fill="midnightblue" stroke="midnightblue" points="478.045,-159 468.044,-162.5 478.044,-166 478.045,-159"/>
</g>
<!-- Node5 -->
<g id="node5" class="node"><title>Node5</title>
<g id="a_node5"><a xlink:href="class_igor_1_1i_user_control_color_chooser.html#a3e12c44e1c409cc8f785c67eda400a85" target="_top" xlink:title="Igor::iUserControlColorChooser\l::iUserControlColorChooser">
<polygon fill="white" stroke="black" points="690,-147.5 690,-177.5 840,-177.5 840,-147.5 690,-147.5"/>
<text text-anchor="start" x="698" y="-165.5" font-family="Helvetica,sans-Serif" font-size="10.00">Igor::iUserControlColorChooser</text>
<text text-anchor="middle" x="765" y="-154.5" font-family="Helvetica,sans-Serif" font-size="10.00">::iUserControlColorChooser</text>
</a>
</g>
</g>
<!-- Node4&#45;&gt;Node5 -->
<g id="edge4" class="edge"><title>Node4&#45;&gt;Node5</title>
<path fill="none" stroke="midnightblue" d="M664.066,-162.5C672.654,-162.5 681.336,-162.5 689.808,-162.5"/>
<polygon fill="midnightblue" stroke="midnightblue" points="664.045,-159 654.044,-162.5 664.044,-166 664.045,-159"/>
</g>
<!-- Node6 -->
<g id="node6" class="node"><title>Node6</title>
<g id="a_node6"><a xlink:href="class_igor_1_1i_user_control_color_chooser.html#af82f3e4ae1b705adacffcdd546439e88" target="_top" xlink:title="Igor::iUserControlColorChooser\l::createInstance">
<polygon fill="white" stroke="black" points="876,-147.5 876,-177.5 1026,-177.5 1026,-147.5 876,-147.5"/>
<text text-anchor="start" x="884" y="-165.5" font-family="Helvetica,sans-Serif" font-size="10.00">Igor::iUserControlColorChooser</text>
<text text-anchor="middle" x="951" y="-154.5" font-family="Helvetica,sans-Serif" font-size="10.00">::createInstance</text>
</a>
</g>
</g>
<!-- Node5&#45;&gt;Node6 -->
<g id="edge5" class="edge"><title>Node5&#45;&gt;Node6</title>
<path fill="none" stroke="midnightblue" d="M850.066,-162.5C858.654,-162.5 867.336,-162.5 875.808,-162.5"/>
<polygon fill="midnightblue" stroke="midnightblue" points="850.045,-159 840.044,-162.5 850.044,-166 850.045,-159"/>
</g>
<!-- Node7&#45;&gt;Node3 -->
<g id="edge7" class="edge"><title>Node7&#45;&gt;Node3</title>
<path fill="none" stroke="midnightblue" d="M270.307,-241.706C274.313,-240.065 278.243,-238.328 282,-236.5 316.148,-219.882 351.974,-193.945 373.128,-177.604"/>
<polygon fill="midnightblue" stroke="midnightblue" points="268.931,-238.486 260.868,-245.359 271.457,-245.014 268.931,-238.486"/>
</g>
<!-- Node8&#45;&gt;Node3 -->
<g id="edge9" class="edge"><title>Node8&#45;&gt;Node3</title>
<path fill="none" stroke="midnightblue" d="M274.176,-193.877C294.306,-188.516 316.232,-182.677 335.65,-177.506"/>
<polygon fill="midnightblue" stroke="midnightblue" points="273.219,-190.51 264.457,-196.465 275.02,-197.274 273.219,-190.51"/>
</g>
<!-- Node9&#45;&gt;Node3 -->
<g id="edge11" class="edge"><title>Node9&#45;&gt;Node3</title>
<path fill="none" stroke="midnightblue" d="M292.066,-162.5C300.654,-162.5 309.336,-162.5 317.808,-162.5"/>
<polygon fill="midnightblue" stroke="midnightblue" points="292.045,-159 282.044,-162.5 292.044,-166 292.045,-159"/>
</g>
<!-- Node10&#45;&gt;Node3 -->
<g id="edge13" class="edge"><title>Node10&#45;&gt;Node3</title>
<path fill="none" stroke="midnightblue" d="M274.176,-131.123C294.306,-136.484 316.232,-142.323 335.65,-147.494"/>
<polygon fill="midnightblue" stroke="midnightblue" points="275.02,-127.726 264.457,-128.535 273.219,-134.49 275.02,-127.726"/>
</g>
<!-- Node11&#45;&gt;Node3 -->
<g id="edge15" class="edge"><title>Node11&#45;&gt;Node3</title>
<path fill="none" stroke="midnightblue" d="M267.851,-83.2075C272.702,-85.1792 277.474,-87.2809 282,-89.5 315.75,-106.048 351.402,-131.353 372.668,-147.404"/>
<polygon fill="midnightblue" stroke="midnightblue" points="269.059,-79.9219 258.469,-79.5795 266.534,-86.4507 269.059,-79.9219"/>
</g>
<!-- Node12&#45;&gt;Node3 -->
<g id="edge17" class="edge"><title>Node12&#45;&gt;Node3</title>
<path fill="none" stroke="midnightblue" d="M272.324,-34.8791C275.68,-36.6113 278.93,-38.4821 282,-40.5 326.805,-69.9469 365.126,-121.939 382.323,-147.482"/>
<polygon fill="midnightblue" stroke="midnightblue" points="273.78,-31.6962 263.241,-30.6116 270.804,-38.0318 273.78,-31.6962"/>
</g>
</g>
</svg>
