<?xml version="1.0" encoding="UTF-8" standalone="no"?>
<!DOCTYPE svg PUBLIC "-//W3C//DTD SVG 1.1//EN"
 "http://www.w3.org/Graphics/SVG/1.1/DTD/svg11.dtd">
<!-- Generated by graphviz version 2.38.0 (20140413.2041)
 -->
<!-- Title: OMPF::ompfSettings::getChunkIDSize Pages: 1 -->
<svg width="650pt" height="1051pt"
 viewBox="0.00 0.00 650.00 1050.50" xmlns="http://www.w3.org/2000/svg" xmlns:xlink="http://www.w3.org/1999/xlink">
<g id="graph0" class="graph" transform="scale(1 1) rotate(0) translate(4 1046.5)">
<title>OMPF::ompfSettings::getChunkIDSize</title>
<polygon fill="white" stroke="none" points="-4,4 -4,-1046.5 646,-1046.5 646,4 -4,4"/>
<!-- Node1 -->
<g id="node1" class="node"><title>Node1</title>
<polygon fill="#bfbfbf" stroke="black" points="0,-475.5 0,-505.5 108,-505.5 108,-475.5 0,-475.5"/>
<text text-anchor="start" x="8" y="-493.5" font-family="Helvetica,sans-Serif" font-size="10.00">OMPF::ompfSettings</text>
<text text-anchor="middle" x="54" y="-482.5" font-family="Helvetica,sans-Serif" font-size="10.00">::getChunkIDSize</text>
</g>
<!-- Node2 -->
<g id="node2" class="node"><title>Node2</title>
<g id="a_node2"><a xlink:href="class_o_m_p_f_1_1ompf_base_chunk.html#aa10a43d86b3c7f1efeb2ecb0ca0bf401" target="_top" xlink:title="OMPF::ompfBaseChunk\l::getSize">
<polygon fill="white" stroke="black" points="144,-641.5 144,-671.5 266,-671.5 266,-641.5 144,-641.5"/>
<text text-anchor="start" x="152" y="-659.5" font-family="Helvetica,sans-Serif" font-size="10.00">OMPF::ompfBaseChunk</text>
<text text-anchor="middle" x="205" y="-648.5" font-family="Helvetica,sans-Serif" font-size="10.00">::getSize</text>
</a>
</g>
</g>
<!-- Node1&#45;&gt;Node2 -->
<g id="edge1" class="edge"><title>Node1&#45;&gt;Node2</title>
<path fill="none" stroke="midnightblue" d="M75.3482,-513.17C106.162,-547.5 163.858,-611.778 190.221,-641.149"/>
<polygon fill="midnightblue" stroke="midnightblue" points="77.77,-510.628 68.4855,-505.524 72.5607,-515.304 77.77,-510.628"/>
</g>
<!-- Node3 -->
<g id="node3" class="node"><title>Node3</title>
<g id="a_node3"><a xlink:href="class_o_m_p_f_1_1ompf_base_chunk.html#a6f186b41de009cec29ae83a8929f8cea" target="_top" xlink:title="OMPF::ompfBaseChunk\l::write">
<polygon fill="white" stroke="black" points="317,-813.5 317,-843.5 439,-843.5 439,-813.5 317,-813.5"/>
<text text-anchor="start" x="325" y="-831.5" font-family="Helvetica,sans-Serif" font-size="10.00">OMPF::ompfBaseChunk</text>
<text text-anchor="middle" x="378" y="-820.5" font-family="Helvetica,sans-Serif" font-size="10.00">::write</text>
</a>
</g>
</g>
<!-- Node1&#45;&gt;Node3 -->
<g id="edge20" class="edge"><title>Node1&#45;&gt;Node3</title>
<path fill="none" stroke="midnightblue" d="M62.4768,-515.448C74.86,-553.852 102.456,-628.458 144,-680.5 199.52,-750.05 223.547,-761.491 302,-803.5 308.897,-807.193 316.441,-810.481 324.001,-813.361"/>
<polygon fill="midnightblue" stroke="midnightblue" points="65.7266,-514.114 59.3886,-505.624 59.0488,-516.214 65.7266,-514.114"/>
</g>
<!-- Node9 -->
<g id="node9" class="node"><title>Node9</title>
<g id="a_node9"><a xlink:href="class_o_m_p_f_1_1ompf_header_chunk.html#a54b14e4116050ddae69c7a75542bd3e1" target="_top" xlink:title="OMPF::ompfHeaderChunk\l::write">
<polygon fill="white" stroke="black" points="500.5,-521.5 500.5,-551.5 631.5,-551.5 631.5,-521.5 500.5,-521.5"/>
<text text-anchor="start" x="508.5" y="-539.5" font-family="Helvetica,sans-Serif" font-size="10.00">OMPF::ompfHeaderChunk</text>
<text text-anchor="middle" x="566" y="-528.5" font-family="Helvetica,sans-Serif" font-size="10.00">::write</text>
</a>
</g>
</g>
<!-- Node1&#45;&gt;Node9 -->
<g id="edge32" class="edge"><title>Node1&#45;&gt;Node9</title>
<path fill="none" stroke="midnightblue" d="M118.505,-489.8C197.528,-489.782 336.413,-492.558 454,-509.5 473.139,-512.258 493.801,-516.831 512.049,-521.437"/>
<polygon fill="midnightblue" stroke="midnightblue" points="118.224,-486.3 108.23,-489.818 118.236,-493.3 118.224,-486.3"/>
</g>
<!-- Node21 -->
<g id="node21" class="node"><title>Node21</title>
<g id="a_node21"><a xlink:href="class_o_m_p_f_1_1ompf_base_chunk.html#aa3b931de6ce181c023f66628c67244da" target="_top" xlink:title="OMPF::ompfBaseChunk\l::read">
<polygon fill="white" stroke="black" points="144,-245.5 144,-275.5 266,-275.5 266,-245.5 144,-245.5"/>
<text text-anchor="start" x="152" y="-263.5" font-family="Helvetica,sans-Serif" font-size="10.00">OMPF::ompfBaseChunk</text>
<text text-anchor="middle" x="205" y="-252.5" font-family="Helvetica,sans-Serif" font-size="10.00">::read</text>
</a>
</g>
</g>
<!-- Node1&#45;&gt;Node21 -->
<g id="edge21" class="edge"><title>Node1&#45;&gt;Node21</title>
<path fill="none" stroke="midnightblue" d="M70.3817,-466.756C101.007,-419.482 168.837,-314.779 194.188,-275.647"/>
<polygon fill="midnightblue" stroke="midnightblue" points="67.2759,-465.113 64.7763,-475.409 73.1509,-468.919 67.2759,-465.113"/>
</g>
<!-- Node26 -->
<g id="node26" class="node"><title>Node26</title>
<g id="a_node26"><a xlink:href="class_o_m_p_f_1_1ompf_header_chunk.html#a68247e6408a64b9535fb1483921b5f19" target="_top" xlink:title="OMPF::ompfHeaderChunk\l::read">
<polygon fill="white" stroke="black" points="312.5,-431.5 312.5,-461.5 443.5,-461.5 443.5,-431.5 312.5,-431.5"/>
<text text-anchor="start" x="320.5" y="-449.5" font-family="Helvetica,sans-Serif" font-size="10.00">OMPF::ompfHeaderChunk</text>
<text text-anchor="middle" x="378" y="-438.5" font-family="Helvetica,sans-Serif" font-size="10.00">::read</text>
</a>
</g>
</g>
<!-- Node1&#45;&gt;Node26 -->
<g id="edge33" class="edge"><title>Node1&#45;&gt;Node26</title>
<path fill="none" stroke="midnightblue" d="M118.218,-480.332C126.875,-479.005 135.653,-477.694 144,-476.5 200.726,-468.388 265.369,-460.144 312.152,-454.356"/>
<polygon fill="midnightblue" stroke="midnightblue" points="117.491,-476.903 108.144,-481.891 118.561,-483.821 117.491,-476.903"/>
</g>
<!-- Node2&#45;&gt;Node3 -->
<g id="edge2" class="edge"><title>Node2&#45;&gt;Node3</title>
<path fill="none" stroke="midnightblue" d="M219.378,-681.025C240.092,-718.228 279.844,-786.411 302,-803.5 306.999,-807.356 312.623,-810.633 318.487,-813.416"/>
<polygon fill="midnightblue" stroke="midnightblue" points="222.208,-678.911 214.307,-671.853 216.082,-682.298 222.208,-678.911"/>
</g>
<!-- Node15 -->
<g id="node15" class="node"><title>Node15</title>
<g id="a_node15"><a xlink:href="class_o_m_p_f_1_1ompf_external_reference_chunk.html#a2c053e2524ee60e83375476e794f9841" target="_top" xlink:title="OMPF::ompfExternalReference\lChunk::getSize">
<polygon fill="white" stroke="black" points="302,-764.5 302,-794.5 454,-794.5 454,-764.5 302,-764.5"/>
<text text-anchor="start" x="310" y="-782.5" font-family="Helvetica,sans-Serif" font-size="10.00">OMPF::ompfExternalReference</text>
<text text-anchor="middle" x="378" y="-771.5" font-family="Helvetica,sans-Serif" font-size="10.00">Chunk::getSize</text>
</a>
</g>
</g>
<!-- Node2&#45;&gt;Node15 -->
<g id="edge14" class="edge"><title>Node2&#45;&gt;Node15</title>
<path fill="none" stroke="midnightblue" d="M223.398,-679.809C240.993,-701.887 270.087,-734.549 302,-754.5 308.052,-758.283 314.739,-761.561 321.555,-764.383"/>
<polygon fill="midnightblue" stroke="midnightblue" points="225.929,-677.363 217.019,-671.631 220.41,-681.668 225.929,-677.363"/>
</g>
<!-- Node16 -->
<g id="node16" class="node"><title>Node16</title>
<g id="a_node16"><a xlink:href="class_o_m_p_f_1_1ompf_group_chunk.html#a96c2548c838c158106ad603a7df214e0" target="_top" xlink:title="OMPF::ompfGroupChunk\l::getSize">
<polygon fill="white" stroke="black" points="315,-715.5 315,-745.5 441,-745.5 441,-715.5 315,-715.5"/>
<text text-anchor="start" x="323" y="-733.5" font-family="Helvetica,sans-Serif" font-size="10.00">OMPF::ompfGroupChunk</text>
<text text-anchor="middle" x="378" y="-722.5" font-family="Helvetica,sans-Serif" font-size="10.00">::getSize</text>
</a>
</g>
</g>
<!-- Node2&#45;&gt;Node16 -->
<g id="edge15" class="edge"><title>Node2&#45;&gt;Node16</title>
<path fill="none" stroke="midnightblue" d="M241.695,-676.337C259.511,-685.819 281.572,-696.939 302,-705.5 310.355,-709.001 319.386,-712.359 328.191,-715.414"/>
<polygon fill="midnightblue" stroke="midnightblue" points="243.26,-673.205 232.796,-671.55 239.944,-679.37 243.26,-673.205"/>
</g>
<!-- Node17 -->
<g id="node17" class="node"><title>Node17</title>
<g id="a_node17"><a xlink:href="class_o_m_p_f_1_1ompf_header_chunk.html#a53154e081557780d08d9b3a303ada97a" target="_top" xlink:title="OMPF::ompfHeaderChunk\l::getSize">
<polygon fill="white" stroke="black" points="312.5,-666.5 312.5,-696.5 443.5,-696.5 443.5,-666.5 312.5,-666.5"/>
<text text-anchor="start" x="320.5" y="-684.5" font-family="Helvetica,sans-Serif" font-size="10.00">OMPF::ompfHeaderChunk</text>
<text text-anchor="middle" x="378" y="-673.5" font-family="Helvetica,sans-Serif" font-size="10.00">::getSize</text>
</a>
</g>
</g>
<!-- Node2&#45;&gt;Node17 -->
<g id="edge16" class="edge"><title>Node2&#45;&gt;Node17</title>
<path fill="none" stroke="midnightblue" d="M276.209,-666.764C288.16,-668.512 300.523,-670.319 312.323,-672.044"/>
<polygon fill="midnightblue" stroke="midnightblue" points="276.689,-663.298 266.288,-665.314 275.677,-670.224 276.689,-663.298"/>
</g>
<!-- Node18 -->
<g id="node18" class="node"><title>Node18</title>
<g id="a_node18"><a xlink:href="class_o_m_p_f_1_1ompf_material_chunk.html#abe443abefded7498cf398e8e7a9ebce5" target="_top" xlink:title="OMPF::ompfMaterialChunk\l::getSize">
<polygon fill="white" stroke="black" points="311,-617.5 311,-647.5 445,-647.5 445,-617.5 311,-617.5"/>
<text text-anchor="start" x="319" y="-635.5" font-family="Helvetica,sans-Serif" font-size="10.00">OMPF::ompfMaterialChunk</text>
<text text-anchor="middle" x="378" y="-624.5" font-family="Helvetica,sans-Serif" font-size="10.00">::getSize</text>
</a>
</g>
</g>
<!-- Node2&#45;&gt;Node18 -->
<g id="edge17" class="edge"><title>Node2&#45;&gt;Node18</title>
<path fill="none" stroke="midnightblue" d="M276.232,-646.643C287.682,-645.036 299.51,-643.376 310.858,-641.783"/>
<polygon fill="midnightblue" stroke="midnightblue" points="275.705,-643.182 266.288,-648.038 276.678,-650.115 275.705,-643.182"/>
</g>
<!-- Node19 -->
<g id="node19" class="node"><title>Node19</title>
<g id="a_node19"><a xlink:href="class_o_m_p_f_1_1ompf_resource_search_path_chunk.html#ae01bb05c6d15ee703d033d7569fbedc9" target="_top" xlink:title="OMPF::ompfResourceSearch\lPathChunk::getSize">
<polygon fill="white" stroke="black" points="306,-568.5 306,-598.5 450,-598.5 450,-568.5 306,-568.5"/>
<text text-anchor="start" x="314" y="-586.5" font-family="Helvetica,sans-Serif" font-size="10.00">OMPF::ompfResourceSearch</text>
<text text-anchor="middle" x="378" y="-575.5" font-family="Helvetica,sans-Serif" font-size="10.00">PathChunk::getSize</text>
</a>
</g>
</g>
<!-- Node2&#45;&gt;Node19 -->
<g id="edge18" class="edge"><title>Node2&#45;&gt;Node19</title>
<path fill="none" stroke="midnightblue" d="M241.65,-636.556C259.456,-627.048 281.521,-615.938 302,-607.5 309.711,-604.323 318.005,-601.297 326.167,-598.531"/>
<polygon fill="midnightblue" stroke="midnightblue" points="239.893,-633.527 232.758,-641.359 243.22,-639.686 239.893,-633.527"/>
</g>
<!-- Node20 -->
<g id="node20" class="node"><title>Node20</title>
<g id="a_node20"><a xlink:href="class_o_m_p_f_1_1ompf_transform_chunk.html#abcbe11533efd73c6a1fe1e456bf6bdc7" target="_top" xlink:title="OMPF::ompfTransformChunk\l::getSize">
<polygon fill="white" stroke="black" points="306.5,-519.5 306.5,-549.5 449.5,-549.5 449.5,-519.5 306.5,-519.5"/>
<text text-anchor="start" x="314.5" y="-537.5" font-family="Helvetica,sans-Serif" font-size="10.00">OMPF::ompfTransformChunk</text>
<text text-anchor="middle" x="378" y="-526.5" font-family="Helvetica,sans-Serif" font-size="10.00">::getSize</text>
</a>
</g>
</g>
<!-- Node2&#45;&gt;Node20 -->
<g id="edge19" class="edge"><title>Node2&#45;&gt;Node20</title>
<path fill="none" stroke="midnightblue" d="M223.113,-633.4C240.644,-611.255 269.826,-578.346 302,-558.5 307.469,-555.127 313.457,-552.183 319.591,-549.625"/>
<polygon fill="midnightblue" stroke="midnightblue" points="220.342,-631.262 216.983,-641.31 225.875,-635.55 220.342,-631.262"/>
</g>
<!-- Node4 -->
<g id="node4" class="node"><title>Node4</title>
<g id="a_node4"><a xlink:href="class_o_m_p_f_1_1_o_m_p_f.html#a5b2b8784a1caf169716bfc39e722ca7d" target="_top" xlink:title="OMPF::OMPF::writeMaterial">
<polygon fill="white" stroke="black" points="496,-1023 496,-1042 636,-1042 636,-1023 496,-1023"/>
<text text-anchor="middle" x="566" y="-1030" font-family="Helvetica,sans-Serif" font-size="10.00">OMPF::OMPF::writeMaterial</text>
</a>
</g>
</g>
<!-- Node3&#45;&gt;Node4 -->
<g id="edge3" class="edge"><title>Node3&#45;&gt;Node4</title>
<path fill="none" stroke="midnightblue" d="M386.858,-853.223C400.89,-893.259 434.141,-971.976 490,-1013.5 495.174,-1017.35 501.045,-1020.42 507.169,-1022.87"/>
<polygon fill="midnightblue" stroke="midnightblue" points="390.154,-852.043 383.628,-843.697 383.524,-854.291 390.154,-852.043"/>
</g>
<!-- Node5 -->
<g id="node5" class="node"><title>Node5</title>
<g id="a_node5"><a xlink:href="class_o_m_p_f_1_1_o_m_p_f.html#a8fd77db730303b8429524f552de91146" target="_top" xlink:title="OMPF::OMPF::write">
<polygon fill="white" stroke="black" points="513,-985 513,-1004 619,-1004 619,-985 513,-985"/>
<text text-anchor="middle" x="566" y="-992" font-family="Helvetica,sans-Serif" font-size="10.00">OMPF::OMPF::write</text>
</a>
</g>
</g>
<!-- Node3&#45;&gt;Node5 -->
<g id="edge4" class="edge"><title>Node3&#45;&gt;Node5</title>
<path fill="none" stroke="midnightblue" d="M390.897,-852.819C408.159,-885.517 443.265,-943.162 490,-974.5 496.827,-979.078 504.66,-982.61 512.63,-985.334"/>
<polygon fill="midnightblue" stroke="midnightblue" points="393.805,-850.821 386.12,-843.528 387.58,-854.022 393.805,-850.821"/>
</g>
<!-- Node6 -->
<g id="node6" class="node"><title>Node6</title>
<g id="a_node6"><a xlink:href="class_o_m_p_f_1_1ompf_emitter_chunk.html#acfbbcf5bc5c99d404f9cd80bcf57a8ff" target="_top" xlink:title="OMPF::ompfEmitterChunk\l::write">
<polygon fill="white" stroke="black" points="500.5,-935.5 500.5,-965.5 631.5,-965.5 631.5,-935.5 500.5,-935.5"/>
<text text-anchor="start" x="508.5" y="-953.5" font-family="Helvetica,sans-Serif" font-size="10.00">OMPF::ompfEmitterChunk</text>
<text text-anchor="middle" x="566" y="-942.5" font-family="Helvetica,sans-Serif" font-size="10.00">::write</text>
</a>
</g>
</g>
<!-- Node3&#45;&gt;Node6 -->
<g id="edge5" class="edge"><title>Node3&#45;&gt;Node6</title>
<path fill="none" stroke="midnightblue" d="M399.707,-851.21C420.622,-872.952 454.791,-905.342 490,-925.5 496.551,-929.251 503.749,-932.544 511.014,-935.403"/>
<polygon fill="midnightblue" stroke="midnightblue" points="402.04,-848.582 392.624,-843.724 396.955,-853.393 402.04,-848.582"/>
</g>
<!-- Node7 -->
<g id="node7" class="node"><title>Node7</title>
<g id="a_node7"><a xlink:href="class_o_m_p_f_1_1ompf_external_reference_chunk.html#a465f026905147cc0af22e7e43e8dcbc2" target="_top" xlink:title="OMPF::ompfExternalReference\lChunk::write">
<polygon fill="white" stroke="black" points="490,-886.5 490,-916.5 642,-916.5 642,-886.5 490,-886.5"/>
<text text-anchor="start" x="498" y="-904.5" font-family="Helvetica,sans-Serif" font-size="10.00">OMPF::ompfExternalReference</text>
<text text-anchor="middle" x="566" y="-893.5" font-family="Helvetica,sans-Serif" font-size="10.00">Chunk::write</text>
</a>
</g>
</g>
<!-- Node3&#45;&gt;Node7 -->
<g id="edge6" class="edge"><title>Node3&#45;&gt;Node7</title>
<path fill="none" stroke="midnightblue" d="M421.127,-847.737C441.721,-856.878 466.973,-867.702 490,-876.5 498.847,-879.88 508.373,-883.254 517.57,-886.38"/>
<polygon fill="midnightblue" stroke="midnightblue" points="422.279,-844.418 411.721,-843.535 419.424,-850.81 422.279,-844.418"/>
</g>
<!-- Node8 -->
<g id="node8" class="node"><title>Node8</title>
<g id="a_node8"><a xlink:href="class_o_m_p_f_1_1ompf_group_chunk.html#a250bff7aa0160678bd47562c19e07865" target="_top" xlink:title="OMPF::ompfGroupChunk\l::write">
<polygon fill="white" stroke="black" points="503,-837.5 503,-867.5 629,-867.5 629,-837.5 503,-837.5"/>
<text text-anchor="start" x="511" y="-855.5" font-family="Helvetica,sans-Serif" font-size="10.00">OMPF::ompfGroupChunk</text>
<text text-anchor="middle" x="566" y="-844.5" font-family="Helvetica,sans-Serif" font-size="10.00">::write</text>
</a>
</g>
</g>
<!-- Node3&#45;&gt;Node8 -->
<g id="edge7" class="edge"><title>Node3&#45;&gt;Node8</title>
<path fill="none" stroke="midnightblue" d="M449.336,-837.576C466.929,-839.846 485.674,-842.264 502.838,-844.479"/>
<polygon fill="midnightblue" stroke="midnightblue" points="449.498,-834.068 439.132,-836.259 448.602,-841.01 449.498,-834.068"/>
</g>
<!-- Node3&#45;&gt;Node9 -->
<g id="edge8" class="edge"><title>Node3&#45;&gt;Node9</title>
<path fill="none" stroke="midnightblue" d="M447.667,-809.672C449.954,-807.805 452.082,-805.753 454,-803.5 518.51,-727.724 434.546,-665.134 490,-582.5 499.022,-569.055 513.432,-558.858 527.22,-551.524"/>
<polygon fill="midnightblue" stroke="midnightblue" points="445.641,-806.817 439.344,-815.336 449.58,-812.603 445.641,-806.817"/>
</g>
<!-- Node10 -->
<g id="node10" class="node"><title>Node10</title>
<g id="a_node10"><a xlink:href="class_o_m_p_f_1_1ompf_material_chunk.html#a16218c145b688f2db2fcfb61c1feec39" target="_top" xlink:title="OMPF::ompfMaterialChunk\l::write">
<polygon fill="white" stroke="black" points="499,-788.5 499,-818.5 633,-818.5 633,-788.5 499,-788.5"/>
<text text-anchor="start" x="507" y="-806.5" font-family="Helvetica,sans-Serif" font-size="10.00">OMPF::ompfMaterialChunk</text>
<text text-anchor="middle" x="566" y="-795.5" font-family="Helvetica,sans-Serif" font-size="10.00">::write</text>
</a>
</g>
</g>
<!-- Node3&#45;&gt;Node10 -->
<g id="edge9" class="edge"><title>Node3&#45;&gt;Node10</title>
<path fill="none" stroke="midnightblue" d="M449.152,-819.071C465.483,-816.876 482.817,-814.546 498.963,-812.376"/>
<polygon fill="midnightblue" stroke="midnightblue" points="448.577,-815.617 439.132,-820.418 449.509,-822.554 448.577,-815.617"/>
</g>
<!-- Node11 -->
<g id="node11" class="node"><title>Node11</title>
<g id="a_node11"><a xlink:href="class_o_m_p_f_1_1ompf_mesh_chunk.html#a83a3fb04f638373d6aa6e736cb42c35b" target="_top" xlink:title="OMPF::ompfMeshChunk\l::write">
<polygon fill="white" stroke="black" points="504,-739.5 504,-769.5 628,-769.5 628,-739.5 504,-739.5"/>
<text text-anchor="start" x="512" y="-757.5" font-family="Helvetica,sans-Serif" font-size="10.00">OMPF::ompfMeshChunk</text>
<text text-anchor="middle" x="566" y="-746.5" font-family="Helvetica,sans-Serif" font-size="10.00">::write</text>
</a>
</g>
</g>
<!-- Node3&#45;&gt;Node11 -->
<g id="edge10" class="edge"><title>Node3&#45;&gt;Node11</title>
<path fill="none" stroke="midnightblue" d="M439.957,-809.838C444.778,-807.863 449.513,-805.747 454,-803.5 471.417,-794.776 472.531,-787.119 490,-778.5 496.621,-775.234 503.785,-772.277 510.97,-769.646"/>
<polygon fill="midnightblue" stroke="midnightblue" points="438.679,-806.58 430.623,-813.462 441.212,-813.105 438.679,-806.58"/>
</g>
<!-- Node12 -->
<g id="node12" class="node"><title>Node12</title>
<g id="a_node12"><a xlink:href="class_o_m_p_f_1_1ompf_particle_system_chunk.html#a784b64dcf17282520dd77f074364ca75" target="_top" xlink:title="OMPF::ompfParticleSystem\lChunk::write">
<polygon fill="white" stroke="black" points="496.5,-690.5 496.5,-720.5 635.5,-720.5 635.5,-690.5 496.5,-690.5"/>
<text text-anchor="start" x="504.5" y="-708.5" font-family="Helvetica,sans-Serif" font-size="10.00">OMPF::ompfParticleSystem</text>
<text text-anchor="middle" x="566" y="-697.5" font-family="Helvetica,sans-Serif" font-size="10.00">Chunk::write</text>
</a>
</g>
</g>
<!-- Node3&#45;&gt;Node12 -->
<g id="edge11" class="edge"><title>Node3&#45;&gt;Node12</title>
<path fill="none" stroke="midnightblue" d="M447.845,-808.269C449.998,-806.789 452.059,-805.202 454,-803.5 481.5,-779.387 462.356,-753.447 490,-729.5 493.927,-726.098 498.34,-723.178 503.009,-720.671"/>
<polygon fill="midnightblue" stroke="midnightblue" points="445.94,-805.33 439.147,-813.46 449.528,-811.341 445.94,-805.33"/>
</g>
<!-- Node13 -->
<g id="node13" class="node"><title>Node13</title>
<g id="a_node13"><a xlink:href="class_o_m_p_f_1_1ompf_resource_search_path_chunk.html#a1b17d55f869cf4c6ce4a375efa17886b" target="_top" xlink:title="OMPF::ompfResourceSearch\lPathChunk::write">
<polygon fill="white" stroke="black" points="494,-641.5 494,-671.5 638,-671.5 638,-641.5 494,-641.5"/>
<text text-anchor="start" x="502" y="-659.5" font-family="Helvetica,sans-Serif" font-size="10.00">OMPF::ompfResourceSearch</text>
<text text-anchor="middle" x="566" y="-648.5" font-family="Helvetica,sans-Serif" font-size="10.00">PathChunk::write</text>
</a>
</g>
</g>
<!-- Node3&#45;&gt;Node13 -->
<g id="edge12" class="edge"><title>Node3&#45;&gt;Node13</title>
<path fill="none" stroke="midnightblue" d="M447.944,-808.895C450.095,-807.24 452.125,-805.446 454,-803.5 493.524,-762.485 450.229,-721.277 490,-680.5 493.341,-677.075 497.17,-674.137 501.292,-671.618"/>
<polygon fill="midnightblue" stroke="midnightblue" points="445.616,-806.233 439.128,-814.61 449.423,-812.107 445.616,-806.233"/>
</g>
<!-- Node14 -->
<g id="node14" class="node"><title>Node14</title>
<g id="a_node14"><a xlink:href="class_o_m_p_f_1_1ompf_transform_chunk.html#ade0febaec0aec168ab684c426cf7cdff" target="_top" xlink:title="OMPF::ompfTransformChunk\l::write">
<polygon fill="white" stroke="black" points="494.5,-592.5 494.5,-622.5 637.5,-622.5 637.5,-592.5 494.5,-592.5"/>
<text text-anchor="start" x="502.5" y="-610.5" font-family="Helvetica,sans-Serif" font-size="10.00">OMPF::ompfTransformChunk</text>
<text text-anchor="middle" x="566" y="-599.5" font-family="Helvetica,sans-Serif" font-size="10.00">::write</text>
</a>
</g>
</g>
<!-- Node3&#45;&gt;Node14 -->
<g id="edge13" class="edge"><title>Node3&#45;&gt;Node14</title>
<path fill="none" stroke="midnightblue" d="M447.541,-809.562C449.863,-807.725 452.032,-805.71 454,-803.5 505.948,-745.181 437.701,-689.505 490,-631.5 493.113,-628.048 496.721,-625.089 500.64,-622.554"/>
<polygon fill="midnightblue" stroke="midnightblue" points="445.522,-806.701 439.128,-815.149 449.395,-812.532 445.522,-806.701"/>
</g>
<!-- Node22 -->
<g id="node22" class="node"><title>Node22</title>
<g id="a_node22"><a xlink:href="class_o_m_p_f_1_1_o_m_p_f.html#a5f7e416319d4d411327befca26ab69b6" target="_top" xlink:title="OMPF::OMPF::analyze">
<polygon fill="white" stroke="black" points="318.5,-393 318.5,-412 437.5,-412 437.5,-393 318.5,-393"/>
<text text-anchor="middle" x="378" y="-400" font-family="Helvetica,sans-Serif" font-size="10.00">OMPF::OMPF::analyze</text>
</a>
</g>
</g>
<!-- Node21&#45;&gt;Node22 -->
<g id="edge22" class="edge"><title>Node21&#45;&gt;Node22</title>
<path fill="none" stroke="midnightblue" d="M218.779,-284.924C234.598,-312.747 264.146,-357.572 302,-382.5 308.64,-386.873 316.203,-390.292 323.911,-392.966"/>
<polygon fill="midnightblue" stroke="midnightblue" points="221.665,-282.911 213.765,-275.852 215.539,-286.297 221.665,-282.911"/>
</g>
<!-- Node23 -->
<g id="node23" class="node"><title>Node23</title>
<g id="a_node23"><a xlink:href="class_o_m_p_f_1_1ompf_emitter_chunk.html#a31d325e05450d5ff3fe3cdb722c878fd" target="_top" xlink:title="OMPF::ompfEmitterChunk\l::read">
<polygon fill="white" stroke="black" points="312.5,-343.5 312.5,-373.5 443.5,-373.5 443.5,-343.5 312.5,-343.5"/>
<text text-anchor="start" x="320.5" y="-361.5" font-family="Helvetica,sans-Serif" font-size="10.00">OMPF::ompfEmitterChunk</text>
<text text-anchor="middle" x="378" y="-350.5" font-family="Helvetica,sans-Serif" font-size="10.00">::read</text>
</a>
</g>
</g>
<!-- Node21&#45;&gt;Node23 -->
<g id="edge23" class="edge"><title>Node21&#45;&gt;Node23</title>
<path fill="none" stroke="midnightblue" d="M230.181,-282.487C248.726,-298.418 275.551,-319.53 302,-333.5 309.039,-337.218 316.738,-340.534 324.437,-343.441"/>
<polygon fill="midnightblue" stroke="midnightblue" points="232.353,-279.737 222.52,-275.794 227.748,-285.009 232.353,-279.737"/>
</g>
<!-- Node24 -->
<g id="node24" class="node"><title>Node24</title>
<g id="a_node24"><a xlink:href="class_o_m_p_f_1_1ompf_external_reference_chunk.html#a32b8a16013a33d1c41685df7b6dc5dad" target="_top" xlink:title="OMPF::ompfExternalReference\lChunk::read">
<polygon fill="white" stroke="black" points="302,-294.5 302,-324.5 454,-324.5 454,-294.5 302,-294.5"/>
<text text-anchor="start" x="310" y="-312.5" font-family="Helvetica,sans-Serif" font-size="10.00">OMPF::ompfExternalReference</text>
<text text-anchor="middle" x="378" y="-301.5" font-family="Helvetica,sans-Serif" font-size="10.00">Chunk::read</text>
</a>
</g>
</g>
<!-- Node21&#45;&gt;Node24 -->
<g id="edge24" class="edge"><title>Node21&#45;&gt;Node24</title>
<path fill="none" stroke="midnightblue" d="M268.447,-278.394C286.839,-283.664 306.77,-289.376 324.473,-294.448"/>
<polygon fill="midnightblue" stroke="midnightblue" points="269.278,-274.992 258.701,-275.601 267.35,-281.721 269.278,-274.992"/>
</g>
<!-- Node25 -->
<g id="node25" class="node"><title>Node25</title>
<g id="a_node25"><a xlink:href="class_o_m_p_f_1_1ompf_group_chunk.html#aac0b2bd085254794b5f9920eb4880cb0" target="_top" xlink:title="OMPF::ompfGroupChunk\l::read">
<polygon fill="white" stroke="black" points="315,-245.5 315,-275.5 441,-275.5 441,-245.5 315,-245.5"/>
<text text-anchor="start" x="323" y="-263.5" font-family="Helvetica,sans-Serif" font-size="10.00">OMPF::ompfGroupChunk</text>
<text text-anchor="middle" x="378" y="-252.5" font-family="Helvetica,sans-Serif" font-size="10.00">::read</text>
</a>
</g>
</g>
<!-- Node21&#45;&gt;Node25 -->
<g id="edge25" class="edge"><title>Node21&#45;&gt;Node25</title>
<path fill="none" stroke="midnightblue" d="M276.412,-260.5C289.189,-260.5 302.429,-260.5 314.944,-260.5"/>
<polygon fill="midnightblue" stroke="midnightblue" points="276.288,-257 266.288,-260.5 276.288,-264 276.288,-257"/>
</g>
<!-- Node21&#45;&gt;Node26 -->
<g id="edge26" class="edge"><title>Node21&#45;&gt;Node26</title>
<path fill="none" stroke="midnightblue" d="M214.445,-285.347C227.664,-320.606 256.535,-384.926 302,-421.5 306.812,-425.371 312.251,-428.654 317.945,-431.436"/>
<polygon fill="midnightblue" stroke="midnightblue" points="217.686,-284.018 210.987,-275.81 211.105,-286.404 217.686,-284.018"/>
</g>
<!-- Node27 -->
<g id="node27" class="node"><title>Node27</title>
<g id="a_node27"><a xlink:href="class_o_m_p_f_1_1ompf_material_chunk.html#a54e25359ced1186303c9241cb3cc2f18" target="_top" xlink:title="OMPF::ompfMaterialChunk\l::read">
<polygon fill="white" stroke="black" points="311,-196.5 311,-226.5 445,-226.5 445,-196.5 311,-196.5"/>
<text text-anchor="start" x="319" y="-214.5" font-family="Helvetica,sans-Serif" font-size="10.00">OMPF::ompfMaterialChunk</text>
<text text-anchor="middle" x="378" y="-203.5" font-family="Helvetica,sans-Serif" font-size="10.00">::read</text>
</a>
</g>
</g>
<!-- Node21&#45;&gt;Node27 -->
<g id="edge27" class="edge"><title>Node21&#45;&gt;Node27</title>
<path fill="none" stroke="midnightblue" d="M268.447,-242.606C286.839,-237.336 306.77,-231.624 324.473,-226.552"/>
<polygon fill="midnightblue" stroke="midnightblue" points="267.35,-239.279 258.701,-245.399 269.278,-246.008 267.35,-239.279"/>
</g>
<!-- Node28 -->
<g id="node28" class="node"><title>Node28</title>
<g id="a_node28"><a xlink:href="class_o_m_p_f_1_1ompf_mesh_chunk.html#a733ad33625fef8566fb99830577afe94" target="_top" xlink:title="OMPF::ompfMeshChunk\l::read">
<polygon fill="white" stroke="black" points="316,-147.5 316,-177.5 440,-177.5 440,-147.5 316,-147.5"/>
<text text-anchor="start" x="324" y="-165.5" font-family="Helvetica,sans-Serif" font-size="10.00">OMPF::ompfMeshChunk</text>
<text text-anchor="middle" x="378" y="-154.5" font-family="Helvetica,sans-Serif" font-size="10.00">::read</text>
</a>
</g>
</g>
<!-- Node21&#45;&gt;Node28 -->
<g id="edge28" class="edge"><title>Node21&#45;&gt;Node28</title>
<path fill="none" stroke="midnightblue" d="M229.743,-238.395C248.247,-222.152 275.217,-200.553 302,-186.5 308.295,-183.197 315.127,-180.246 322.019,-177.639"/>
<polygon fill="midnightblue" stroke="midnightblue" points="227.238,-235.939 222.112,-245.211 231.901,-241.159 227.238,-235.939"/>
</g>
<!-- Node29 -->
<g id="node29" class="node"><title>Node29</title>
<g id="a_node29"><a xlink:href="class_o_m_p_f_1_1ompf_particle_system_chunk.html#a8a5646c4ca6bebf68bfe651965d3c6a4" target="_top" xlink:title="OMPF::ompfParticleSystem\lChunk::read">
<polygon fill="white" stroke="black" points="308.5,-98.5 308.5,-128.5 447.5,-128.5 447.5,-98.5 308.5,-98.5"/>
<text text-anchor="start" x="316.5" y="-116.5" font-family="Helvetica,sans-Serif" font-size="10.00">OMPF::ompfParticleSystem</text>
<text text-anchor="middle" x="378" y="-105.5" font-family="Helvetica,sans-Serif" font-size="10.00">Chunk::read</text>
</a>
</g>
</g>
<!-- Node21&#45;&gt;Node29 -->
<g id="edge29" class="edge"><title>Node21&#45;&gt;Node29</title>
<path fill="none" stroke="midnightblue" d="M218.95,-236.202C234.931,-208.458 264.632,-163.555 302,-137.5 306.934,-134.06 312.388,-131.093 318.037,-128.538"/>
<polygon fill="midnightblue" stroke="midnightblue" points="215.72,-234.807 213.88,-245.24 221.825,-238.231 215.72,-234.807"/>
</g>
<!-- Node30 -->
<g id="node30" class="node"><title>Node30</title>
<g id="a_node30"><a xlink:href="class_o_m_p_f_1_1ompf_resource_search_path_chunk.html#aca1209aa9e62ba6babd2c0a77944c910" target="_top" xlink:title="OMPF::ompfResourceSearch\lPathChunk::read">
<polygon fill="white" stroke="black" points="306,-49.5 306,-79.5 450,-79.5 450,-49.5 306,-49.5"/>
<text text-anchor="start" x="314" y="-67.5" font-family="Helvetica,sans-Serif" font-size="10.00">OMPF::ompfResourceSearch</text>
<text text-anchor="middle" x="378" y="-56.5" font-family="Helvetica,sans-Serif" font-size="10.00">PathChunk::read</text>
</a>
</g>
</g>
<!-- Node21&#45;&gt;Node30 -->
<g id="edge30" class="edge"><title>Node21&#45;&gt;Node30</title>
<path fill="none" stroke="midnightblue" d="M213.28,-235.791C225.519,-198.494 253.735,-127.989 302,-88.5 306.232,-85.0372 310.973,-82.0706 315.96,-79.5297"/>
<polygon fill="midnightblue" stroke="midnightblue" points="209.927,-234.787 210.248,-245.377 216.601,-236.898 209.927,-234.787"/>
</g>
<!-- Node31 -->
<g id="node31" class="node"><title>Node31</title>
<g id="a_node31"><a xlink:href="class_o_m_p_f_1_1ompf_transform_chunk.html#aa7de371b8e55002d1b66c5dd68344b97" target="_top" xlink:title="OMPF::ompfTransformChunk\l::read">
<polygon fill="white" stroke="black" points="306.5,-0.5 306.5,-30.5 449.5,-30.5 449.5,-0.5 306.5,-0.5"/>
<text text-anchor="start" x="314.5" y="-18.5" font-family="Helvetica,sans-Serif" font-size="10.00">OMPF::ompfTransformChunk</text>
<text text-anchor="middle" x="378" y="-7.5" font-family="Helvetica,sans-Serif" font-size="10.00">::read</text>
</a>
</g>
</g>
<!-- Node21&#45;&gt;Node31 -->
<g id="edge31" class="edge"><title>Node21&#45;&gt;Node31</title>
<path fill="none" stroke="midnightblue" d="M209.941,-235.483C218.428,-189.915 242.694,-93.1485 302,-39.5 305.751,-36.1066 309.985,-33.1928 314.483,-30.6908"/>
<polygon fill="midnightblue" stroke="midnightblue" points="206.481,-234.952 208.194,-245.407 213.375,-236.165 206.481,-234.952"/>
</g>
</g>
</svg>
