<?xml version="1.0" encoding="UTF-8" standalone="no"?>
<!DOCTYPE svg PUBLIC "-//W3C//DTD SVG 1.1//EN"
 "http://www.w3.org/Graphics/SVG/1.1/DTD/svg11.dtd">
<!-- Generated by graphviz version 2.38.0 (20140413.2041)
 -->
<!-- Title: IgorAux::iaVector3::set Pages: 1 -->
<svg width="985pt" height="1106pt"
 viewBox="0.00 0.00 985.00 1105.50" xmlns="http://www.w3.org/2000/svg" xmlns:xlink="http://www.w3.org/1999/xlink">
<g id="graph0" class="graph" transform="scale(1 1) rotate(0) translate(4 1101.5)">
<title>IgorAux::iaVector3::set</title>
<polygon fill="white" stroke="none" points="-4,4 -4,-1101.5 981,-1101.5 981,4 -4,4"/>
<!-- Node1 -->
<g id="node1" class="node"><title>Node1</title>
<polygon fill="#bfbfbf" stroke="black" points="0,-513.5 0,-532.5 116,-532.5 116,-513.5 0,-513.5"/>
<text text-anchor="middle" x="58" y="-520.5" font-family="Helvetica,sans-Serif" font-size="10.00">IgorAux::iaVector3::set</text>
</g>
<!-- Node2 -->
<g id="node2" class="node"><title>Node2</title>
<g id="a_node2"><a xlink:href="class_igor_1_1i_contouring_cubes.html#a1fa87f92ff7eb7f0c1fd27006954c644" target="_top" xlink:title="Igor::iContouringCubes\l::calculateVertex">
<polygon fill="white" stroke="black" points="172,-1026 172,-1056 287,-1056 287,-1026 172,-1026"/>
<text text-anchor="start" x="180" y="-1044" font-family="Helvetica,sans-Serif" font-size="10.00">Igor::iContouringCubes</text>
<text text-anchor="middle" x="229.5" y="-1033" font-family="Helvetica,sans-Serif" font-size="10.00">::calculateVertex</text>
</a>
</g>
</g>
<!-- Node1&#45;&gt;Node2 -->
<g id="edge1" class="edge"><title>Node1&#45;&gt;Node2</title>
<path fill="none" stroke="midnightblue" d="M60.2806,-543.082C65.9132,-625.571 90.9728,-937.462 152,-1011 157.375,-1017.48 164.336,-1022.56 171.866,-1026.55"/>
<polygon fill="midnightblue" stroke="midnightblue" points="63.7417,-542.378 59.5885,-532.631 56.757,-542.841 63.7417,-542.378"/>
</g>
<!-- Node5 -->
<g id="node5" class="node"><title>Node5</title>
<g id="a_node5"><a xlink:href="class_igor_1_1i_contouring_cubes.html#a0ccd75b3e3d06a8516db1d0e03baec9a" target="_top" xlink:title="Igor::iContouringCubes\l::compile">
<polygon fill="white" stroke="black" points="665,-982 665,-1012 780,-1012 780,-982 665,-982"/>
<text text-anchor="start" x="673" y="-1000" font-family="Helvetica,sans-Serif" font-size="10.00">Igor::iContouringCubes</text>
<text text-anchor="middle" x="722.5" y="-989" font-family="Helvetica,sans-Serif" font-size="10.00">::compile</text>
</a>
</g>
</g>
<!-- Node1&#45;&gt;Node5 -->
<g id="edge9" class="edge"><title>Node1&#45;&gt;Node5</title>
<path fill="none" stroke="midnightblue" d="M60.0492,-542.907C64.6565,-621.939 85.9021,-912.029 152,-969 227.451,-1034.03 536.227,-1014.12 664.85,-1002.63"/>
<polygon fill="midnightblue" stroke="midnightblue" points="63.5388,-542.62 59.4868,-532.831 56.5496,-543.01 63.5388,-542.62"/>
</g>
<!-- Node7 -->
<g id="node7" class="node"><title>Node7</title>
<g id="a_node7"><a xlink:href="class_igor_1_1i_contouring_cubes.html#a5af36984092e3aeab36fc5b08cddaf47" target="_top" xlink:title="Igor::iContouringCubes\l::calcLODOffset">
<polygon fill="white" stroke="black" points="514,-938 514,-968 629,-968 629,-938 514,-938"/>
<text text-anchor="start" x="522" y="-956" font-family="Helvetica,sans-Serif" font-size="10.00">Igor::iContouringCubes</text>
<text text-anchor="middle" x="571.5" y="-945" font-family="Helvetica,sans-Serif" font-size="10.00">::calcLODOffset</text>
</a>
</g>
</g>
<!-- Node1&#45;&gt;Node7 -->
<g id="edge7" class="edge"><title>Node1&#45;&gt;Node7</title>
<path fill="none" stroke="midnightblue" d="M60.2911,-542.621C65.6962,-618.093 89.2153,-888.054 152,-940 205.487,-984.253 412.122,-969.709 513.605,-959.47"/>
<polygon fill="midnightblue" stroke="midnightblue" points="63.7792,-542.327 59.599,-532.591 56.7958,-542.808 63.7792,-542.327"/>
</g>
<!-- Node8 -->
<g id="node8" class="node"><title>Node8</title>
<g id="a_node8"><a xlink:href="class_igor_1_1i_model_data_i_o_o_m_p_f.html#a0f46e7beb40bcb546d611cdda1c9481f" target="_top" xlink:title="Igor::iModelDataIOOMPF\l::calculateBoundingBox">
<polygon fill="white" stroke="black" points="167,-900 167,-930 292,-930 292,-900 167,-900"/>
<text text-anchor="start" x="175" y="-918" font-family="Helvetica,sans-Serif" font-size="10.00">Igor::iModelDataIOOMPF</text>
<text text-anchor="middle" x="229.5" y="-907" font-family="Helvetica,sans-Serif" font-size="10.00">::calculateBoundingBox</text>
</a>
</g>
</g>
<!-- Node1&#45;&gt;Node8 -->
<g id="edge10" class="edge"><title>Node1&#45;&gt;Node8</title>
<path fill="none" stroke="midnightblue" d="M61.4625,-542.899C70.3721,-611.852 103.009,-839.161 152,-891 156.207,-895.451 161.227,-899.081 166.658,-902.041"/>
<polygon fill="midnightblue" stroke="midnightblue" points="64.8852,-542.068 60.1558,-532.587 57.9407,-542.948 64.8852,-542.068"/>
</g>
<!-- Node9 -->
<g id="node9" class="node"><title>Node9</title>
<g id="a_node9"><a xlink:href="class_igor_1_1i_node_visitor_boundings.html#a4628da61fa0214189f1360b3dd5db685" target="_top" xlink:title="Igor::iNodeVisitorBoundings\l::preOrderVisit">
<polygon fill="white" stroke="black" points="161,-851 161,-881 298,-881 298,-851 161,-851"/>
<text text-anchor="start" x="169" y="-869" font-family="Helvetica,sans-Serif" font-size="10.00">Igor::iNodeVisitorBoundings</text>
<text text-anchor="middle" x="229.5" y="-858" font-family="Helvetica,sans-Serif" font-size="10.00">::preOrderVisit</text>
</a>
</g>
</g>
<!-- Node1&#45;&gt;Node9 -->
<g id="edge11" class="edge"><title>Node1&#45;&gt;Node9</title>
<path fill="none" stroke="midnightblue" d="M58.7219,-542.873C59.0577,-598.277 67.7552,-756.025 152,-842 155.312,-845.38 159.094,-848.286 163.162,-850.784"/>
<polygon fill="midnightblue" stroke="midnightblue" points="62.2224,-542.677 58.753,-532.666 55.2225,-542.655 62.2224,-542.677"/>
</g>
<!-- Node10 -->
<g id="node10" class="node"><title>Node10</title>
<g id="a_node10"><a xlink:href="class_igor_1_1i_particle_emitter.html#aad84116dd04353d29863ea4fe0153d16" target="_top" xlink:title="Igor::iParticleEmitter\l::calcRandomStartFromSquare">
<polygon fill="white" stroke="black" points="154,-802 154,-832 305,-832 305,-802 154,-802"/>
<text text-anchor="start" x="162" y="-820" font-family="Helvetica,sans-Serif" font-size="10.00">Igor::iParticleEmitter</text>
<text text-anchor="middle" x="229.5" y="-809" font-family="Helvetica,sans-Serif" font-size="10.00">::calcRandomStartFromSquare</text>
</a>
</g>
</g>
<!-- Node1&#45;&gt;Node10 -->
<g id="edge12" class="edge"><title>Node1&#45;&gt;Node10</title>
<path fill="none" stroke="midnightblue" d="M59.9497,-542.754C63.4027,-592.181 79.2991,-722.287 152,-793 155.492,-796.397 159.46,-799.313 163.707,-801.818"/>
<polygon fill="midnightblue" stroke="midnightblue" points="63.4415,-542.511 59.3484,-532.739 56.4541,-542.931 63.4415,-542.511"/>
</g>
<!-- Node11 -->
<g id="node11" class="node"><title>Node11</title>
<g id="a_node11"><a xlink:href="class_igor_1_1i_particle_emitter.html#a8b9cb3f390bbf3d32feaca6c36f73a22" target="_top" xlink:title="Igor::iParticleEmitter\l::calcRandomStartFromSphere">
<polygon fill="white" stroke="black" points="154,-753 154,-783 305,-783 305,-753 154,-753"/>
<text text-anchor="start" x="162" y="-771" font-family="Helvetica,sans-Serif" font-size="10.00">Igor::iParticleEmitter</text>
<text text-anchor="middle" x="229.5" y="-760" font-family="Helvetica,sans-Serif" font-size="10.00">::calcRandomStartFromSphere</text>
</a>
</g>
</g>
<!-- Node1&#45;&gt;Node11 -->
<g id="edge13" class="edge"><title>Node1&#45;&gt;Node11</title>
<path fill="none" stroke="midnightblue" d="M61.6453,-542.57C68.4743,-585.427 90.6675,-688.196 152,-744 155.809,-747.466 160.116,-750.431 164.696,-752.969"/>
<polygon fill="midnightblue" stroke="midnightblue" points="65.0948,-541.97 60.1656,-532.592 58.1705,-542.997 65.0948,-541.97"/>
</g>
<!-- Node12 -->
<g id="node12" class="node"><title>Node12</title>
<g id="a_node12"><a xlink:href="class_igor_1_1i_particle_emitter.html#aae5c0184386be3cb020fccb16c28783e" target="_top" xlink:title="Igor::iParticleEmitter\l::calcRandomStartFromDisc">
<polygon fill="white" stroke="black" points="159.5,-704 159.5,-734 299.5,-734 299.5,-704 159.5,-704"/>
<text text-anchor="start" x="167.5" y="-722" font-family="Helvetica,sans-Serif" font-size="10.00">Igor::iParticleEmitter</text>
<text text-anchor="middle" x="229.5" y="-711" font-family="Helvetica,sans-Serif" font-size="10.00">::calcRandomStartFromDisc</text>
</a>
</g>
</g>
<!-- Node1&#45;&gt;Node12 -->
<g id="edge14" class="edge"><title>Node1&#45;&gt;Node12</title>
<path fill="none" stroke="midnightblue" d="M64.2309,-542.534C74.7659,-578.135 101.919,-653.703 152,-695 156.188,-698.454 160.876,-701.412 165.814,-703.946"/>
<polygon fill="midnightblue" stroke="midnightblue" points="67.581,-541.519 61.4879,-532.851 60.846,-543.427 67.581,-541.519"/>
</g>
<!-- Node13 -->
<g id="node13" class="node"><title>Node13</title>
<g id="a_node13"><a xlink:href="class_igor_1_1i_particle_emitter.html#a113132e634131afe5c8744e35c301670" target="_top" xlink:title="Igor::iParticleEmitter\l::calcRandomStartFromCircle">
<polygon fill="white" stroke="black" points="157,-655 157,-685 302,-685 302,-655 157,-655"/>
<text text-anchor="start" x="165" y="-673" font-family="Helvetica,sans-Serif" font-size="10.00">Igor::iParticleEmitter</text>
<text text-anchor="middle" x="229.5" y="-662" font-family="Helvetica,sans-Serif" font-size="10.00">::calcRandomStartFromCircle</text>
</a>
</g>
</g>
<!-- Node1&#45;&gt;Node13 -->
<g id="edge15" class="edge"><title>Node1&#45;&gt;Node13</title>
<path fill="none" stroke="midnightblue" d="M68.3059,-541.746C82.6304,-568.711 112.605,-618.248 152,-646 156.893,-649.447 162.301,-652.413 167.912,-654.963"/>
<polygon fill="midnightblue" stroke="midnightblue" points="71.2885,-539.893 63.5951,-532.609 65.0667,-543.101 71.2885,-539.893"/>
</g>
<!-- Node14 -->
<g id="node14" class="node"><title>Node14</title>
<g id="a_node14"><a xlink:href="class_igor_1_1i_particle_emitter.html#a5f456d41dd2fa84aa9bdd5f8da916911" target="_top" xlink:title="Igor::iParticleEmitter\l::calcRandomStartFromPoint">
<polygon fill="white" stroke="black" points="158,-606 158,-636 301,-636 301,-606 158,-606"/>
<text text-anchor="start" x="166" y="-624" font-family="Helvetica,sans-Serif" font-size="10.00">Igor::iParticleEmitter</text>
<text text-anchor="middle" x="229.5" y="-613" font-family="Helvetica,sans-Serif" font-size="10.00">::calcRandomStartFromPoint</text>
</a>
</g>
</g>
<!-- Node1&#45;&gt;Node14 -->
<g id="edge16" class="edge"><title>Node1&#45;&gt;Node14</title>
<path fill="none" stroke="midnightblue" d="M75.6967,-539.481C93.3319,-556.077 122.605,-581.394 152,-597 158.27,-600.329 165.078,-603.284 171.961,-605.882"/>
<polygon fill="midnightblue" stroke="midnightblue" points="78.0945,-536.931 68.4543,-532.536 73.2495,-541.984 78.0945,-536.931"/>
</g>
<!-- Node15 -->
<g id="node15" class="node"><title>Node15</title>
<g id="a_node15"><a xlink:href="class_igor_1_1i_particle_emitter.html#a6c6afe32a71b06777077302304471499" target="_top" xlink:title="Igor::iParticleEmitter\l::calcRandomStartFromMesh">
<polygon fill="white" stroke="black" points="157.5,-557 157.5,-587 301.5,-587 301.5,-557 157.5,-557"/>
<text text-anchor="start" x="165.5" y="-575" font-family="Helvetica,sans-Serif" font-size="10.00">Igor::iParticleEmitter</text>
<text text-anchor="middle" x="229.5" y="-564" font-family="Helvetica,sans-Serif" font-size="10.00">::calcRandomStartFromMesh</text>
</a>
</g>
</g>
<!-- Node1&#45;&gt;Node15 -->
<g id="edge17" class="edge"><title>Node1&#45;&gt;Node15</title>
<path fill="none" stroke="midnightblue" d="M101.775,-535.366C124.47,-541.926 152.537,-550.04 176.484,-556.963"/>
<polygon fill="midnightblue" stroke="midnightblue" points="102.662,-531.979 92.0837,-532.564 100.718,-538.704 102.662,-531.979"/>
</g>
<!-- Node16 -->
<g id="node16" class="node"><title>Node16</title>
<g id="a_node16"><a xlink:href="class_igor_1_1i_particle_system3_d.html#a493599094c960413d2c98b4753aa88d3" target="_top" xlink:title="Igor::iParticleSystem3D\l::resetParticle">
<polygon fill="white" stroke="black" points="170,-508 170,-538 289,-538 289,-508 170,-508"/>
<text text-anchor="start" x="178" y="-526" font-family="Helvetica,sans-Serif" font-size="10.00">Igor::iParticleSystem3D</text>
<text text-anchor="middle" x="229.5" y="-515" font-family="Helvetica,sans-Serif" font-size="10.00">::resetParticle</text>
</a>
</g>
</g>
<!-- Node1&#45;&gt;Node16 -->
<g id="edge18" class="edge"><title>Node1&#45;&gt;Node16</title>
<path fill="none" stroke="midnightblue" d="M126.626,-523C140.888,-523 155.826,-523 169.73,-523"/>
<polygon fill="midnightblue" stroke="midnightblue" points="126.385,-519.5 116.385,-523 126.385,-526.5 126.385,-519.5"/>
</g>
<!-- Node17 -->
<g id="node17" class="node"><title>Node17</title>
<g id="a_node17"><a xlink:href="class_igor_1_1i_particle_system3_d.html#a50302b9ee6c3e5d3aa4693407c510fcb" target="_top" xlink:title="Igor::iParticleSystem3D\l::createParticles">
<polygon fill="white" stroke="black" points="170,-459 170,-489 289,-489 289,-459 170,-459"/>
<text text-anchor="start" x="178" y="-477" font-family="Helvetica,sans-Serif" font-size="10.00">Igor::iParticleSystem3D</text>
<text text-anchor="middle" x="229.5" y="-466" font-family="Helvetica,sans-Serif" font-size="10.00">::createParticles</text>
</a>
</g>
</g>
<!-- Node1&#45;&gt;Node17 -->
<g id="edge19" class="edge"><title>Node1&#45;&gt;Node17</title>
<path fill="none" stroke="midnightblue" d="M101.775,-510.634C124.47,-504.074 152.537,-495.96 176.484,-489.037"/>
<polygon fill="midnightblue" stroke="midnightblue" points="100.718,-507.296 92.0837,-513.436 102.662,-514.021 100.718,-507.296"/>
</g>
<!-- Node18 -->
<g id="node18" class="node"><title>Node18</title>
<g id="a_node18"><a xlink:href="class_igor_1_1i_physics_player.html#a4bceecfcf0005efc8bd5ded4d1cf674e" target="_top" xlink:title="Igor::iPhysicsPlayer\l::ApplyForceAndTorque">
<polygon fill="white" stroke="black" points="170,-410 170,-440 289,-440 289,-410 170,-410"/>
<text text-anchor="start" x="178" y="-428" font-family="Helvetica,sans-Serif" font-size="10.00">Igor::iPhysicsPlayer</text>
<text text-anchor="middle" x="229.5" y="-417" font-family="Helvetica,sans-Serif" font-size="10.00">::ApplyForceAndTorque</text>
</a>
</g>
</g>
<!-- Node1&#45;&gt;Node18 -->
<g id="edge20" class="edge"><title>Node1&#45;&gt;Node18</title>
<path fill="none" stroke="midnightblue" d="M76.0629,-506.562C93.7908,-490.255 122.956,-465.517 152,-450 159.025,-446.247 166.714,-442.926 174.423,-440.03"/>
<polygon fill="midnightblue" stroke="midnightblue" points="73.6701,-504.008 68.7639,-513.398 78.4552,-509.117 73.6701,-504.008"/>
</g>
<!-- Node19 -->
<g id="node19" class="node"><title>Node19</title>
<g id="a_node19"><a xlink:href="class_igor_1_1i_simple_cubes.html#a60cc60922f4cdeff66992c2bba82a080" target="_top" xlink:title="Igor::iSimpleCubes\l::compile">
<polygon fill="white" stroke="black" points="180.5,-361 180.5,-391 278.5,-391 278.5,-361 180.5,-361"/>
<text text-anchor="start" x="188.5" y="-379" font-family="Helvetica,sans-Serif" font-size="10.00">Igor::iSimpleCubes</text>
<text text-anchor="middle" x="229.5" y="-368" font-family="Helvetica,sans-Serif" font-size="10.00">::compile</text>
</a>
</g>
</g>
<!-- Node1&#45;&gt;Node19 -->
<g id="edge21" class="edge"><title>Node1&#45;&gt;Node19</title>
<path fill="none" stroke="midnightblue" d="M68.603,-504.074C83.1131,-477.319 113.11,-428.627 152,-401 160.429,-395.012 170.377,-390.397 180.262,-386.861"/>
<polygon fill="midnightblue" stroke="midnightblue" points="65.3785,-502.685 63.8139,-513.164 71.5716,-505.948 65.3785,-502.685"/>
</g>
<!-- Node20 -->
<g id="node20" class="node"><title>Node20</title>
<g id="a_node20"><a xlink:href="class_igor_1_1i_voxel_data.html#a51e75f5bc442a690d8ab07546bce3649" target="_top" xlink:title="Igor::iVoxelData::getIntersection">
<polygon fill="white" stroke="black" points="152,-322.5 152,-341.5 307,-341.5 307,-322.5 152,-322.5"/>
<text text-anchor="middle" x="229.5" y="-329.5" font-family="Helvetica,sans-Serif" font-size="10.00">Igor::iVoxelData::getIntersection</text>
</a>
</g>
</g>
<!-- Node1&#45;&gt;Node20 -->
<g id="edge22" class="edge"><title>Node1&#45;&gt;Node20</title>
<path fill="none" stroke="midnightblue" d="M64.0643,-503.388C74.3385,-467.628 101.096,-391.85 152,-352 157.513,-347.684 163.865,-344.294 170.504,-341.633"/>
<polygon fill="midnightblue" stroke="midnightblue" points="60.562,-502.927 61.2981,-513.496 67.3137,-504.774 60.562,-502.927"/>
</g>
<!-- Node21 -->
<g id="node21" class="node"><title>Node21</title>
<g id="a_node21"><a xlink:href="class_igor_1_1i_voxel_operation_sphere.html#a9cd8cc5b2bce77f2324362fe05684739" target="_top" xlink:title="Igor::iVoxelOperationSphere\l::getBoundings">
<polygon fill="white" stroke="black" points="160.5,-273 160.5,-303 298.5,-303 298.5,-273 160.5,-273"/>
<text text-anchor="start" x="168.5" y="-291" font-family="Helvetica,sans-Serif" font-size="10.00">Igor::iVoxelOperationSphere</text>
<text text-anchor="middle" x="229.5" y="-280" font-family="Helvetica,sans-Serif" font-size="10.00">::getBoundings</text>
</a>
</g>
</g>
<!-- Node1&#45;&gt;Node21 -->
<g id="edge23" class="edge"><title>Node1&#45;&gt;Node21</title>
<path fill="none" stroke="midnightblue" d="M62.2042,-503.346C69.96,-462.061 93.5927,-365.785 152,-313 156.25,-309.159 161.101,-305.907 166.252,-303.154"/>
<polygon fill="midnightblue" stroke="midnightblue" points="58.7122,-502.995 60.4219,-513.451 65.6058,-504.211 58.7122,-502.995"/>
</g>
<!-- Node22 -->
<g id="node22" class="node"><title>Node22</title>
<g id="a_node22"><a xlink:href="class_igor_1_1i_voxel_terrain.html#a01654a6bcafb57ca10f8baf8ebd27b8a" target="_top" xlink:title="Igor::iVoxelTerrain\l::update">
<polygon fill="white" stroke="black" points="182,-224 182,-254 277,-254 277,-224 182,-224"/>
<text text-anchor="start" x="190" y="-242" font-family="Helvetica,sans-Serif" font-size="10.00">Igor::iVoxelTerrain</text>
<text text-anchor="middle" x="229.5" y="-231" font-family="Helvetica,sans-Serif" font-size="10.00">::update</text>
</a>
</g>
</g>
<!-- Node1&#45;&gt;Node22 -->
<g id="edge24" class="edge"><title>Node1&#45;&gt;Node22</title>
<path fill="none" stroke="midnightblue" d="M60.3477,-503.155C64.6763,-455.136 82.3547,-331.663 152,-264 160.218,-256.016 171.02,-250.582 181.908,-246.883"/>
<polygon fill="midnightblue" stroke="midnightblue" points="56.8352,-503.173 59.5276,-513.42 63.813,-503.731 56.8352,-503.173"/>
</g>
<!-- Node24 -->
<g id="node24" class="node"><title>Node24</title>
<g id="a_node24"><a xlink:href="class_igor_1_1i_voxel_terrain.html#a6cffe52628e9aac6c5917f4752a7f473" target="_top" xlink:title="Igor::iVoxelTerrain\l::applyVoxelOperation">
<polygon fill="white" stroke="black" points="173,-175 173,-205 286,-205 286,-175 173,-175"/>
<text text-anchor="start" x="181" y="-193" font-family="Helvetica,sans-Serif" font-size="10.00">Igor::iVoxelTerrain</text>
<text text-anchor="middle" x="229.5" y="-182" font-family="Helvetica,sans-Serif" font-size="10.00">::applyVoxelOperation</text>
</a>
</g>
</g>
<!-- Node1&#45;&gt;Node24 -->
<g id="edge26" class="edge"><title>Node1&#45;&gt;Node24</title>
<path fill="none" stroke="midnightblue" d="M59.0205,-503.148C60.1735,-449.127 70.8765,-297.979 152,-215 157.861,-209.005 165.176,-204.447 172.943,-200.982"/>
<polygon fill="midnightblue" stroke="midnightblue" points="55.5177,-503.364 58.8969,-513.406 62.5172,-503.449 55.5177,-503.364"/>
</g>
<!-- Node25 -->
<g id="node25" class="node"><title>Node25</title>
<g id="a_node25"><a xlink:href="class_igor_1_1i_voxel_terrain.html#a5c227f58bf75ca092936b1a119d5f29a" target="_top" xlink:title="Igor::iVoxelTerrain\l::discoverBlocks">
<polygon fill="white" stroke="black" points="182,-126 182,-156 277,-156 277,-126 182,-126"/>
<text text-anchor="start" x="190" y="-144" font-family="Helvetica,sans-Serif" font-size="10.00">Igor::iVoxelTerrain</text>
<text text-anchor="middle" x="229.5" y="-133" font-family="Helvetica,sans-Serif" font-size="10.00">::discoverBlocks</text>
</a>
</g>
</g>
<!-- Node1&#45;&gt;Node25 -->
<g id="edge27" class="edge"><title>Node1&#45;&gt;Node25</title>
<path fill="none" stroke="midnightblue" d="M61.63,-503.27C70.9792,-435.905 104.602,-216.382 152,-166 159.946,-157.553 170.782,-151.956 181.797,-148.248"/>
<polygon fill="midnightblue" stroke="midnightblue" points="58.1359,-502.99 60.2532,-513.371 65.0717,-503.936 58.1359,-502.99"/>
</g>
<!-- Node26 -->
<g id="node26" class="node"><title>Node26</title>
<g id="a_node26"><a xlink:href="class_igor_aux_1_1ia_matrix.html#a1ac92f361c8748bc939d17f3db41b1c0" target="_top" xlink:title="IgorAux::iaMatrix::\ldecompose">
<polygon fill="white" stroke="black" points="181.5,-77 181.5,-107 277.5,-107 277.5,-77 181.5,-77"/>
<text text-anchor="start" x="189.5" y="-95" font-family="Helvetica,sans-Serif" font-size="10.00">IgorAux::iaMatrix::</text>
<text text-anchor="middle" x="229.5" y="-84" font-family="Helvetica,sans-Serif" font-size="10.00">decompose</text>
</a>
</g>
</g>
<!-- Node1&#45;&gt;Node26 -->
<g id="edge28" class="edge"><title>Node1&#45;&gt;Node26</title>
<path fill="none" stroke="midnightblue" d="M60.9917,-502.991C68.6928,-429.439 98.7712,-175.288 152,-117 159.726,-108.54 170.352,-102.934 181.226,-99.2226"/>
<polygon fill="midnightblue" stroke="midnightblue" points="57.4846,-502.883 59.9477,-513.187 64.4482,-503.596 57.4846,-502.883"/>
</g>
<!-- Node29 -->
<g id="node29" class="node"><title>Node29</title>
<g id="a_node29"><a xlink:href="namespace_testigor.html#a0eb6023506d882b559fef3e19d1143aa" target="_top" xlink:title="Testigor::TEST_CLASS">
<polygon fill="white" stroke="black" points="170,-38.5 170,-57.5 289,-57.5 289,-38.5 170,-38.5"/>
<text text-anchor="middle" x="229.5" y="-45.5" font-family="Helvetica,sans-Serif" font-size="10.00">Testigor::TEST_CLASS</text>
</a>
</g>
</g>
<!-- Node1&#45;&gt;Node29 -->
<g id="edge31" class="edge"><title>Node1&#45;&gt;Node29</title>
<path fill="none" stroke="midnightblue" d="M60.3309,-503.061C66.0166,-423.848 90.8267,-132.575 152,-68 157.004,-62.7181 163.214,-58.766 169.918,-55.8194"/>
<polygon fill="midnightblue" stroke="midnightblue" points="56.8311,-502.938 59.6288,-513.157 63.8142,-503.424 56.8311,-502.938"/>
</g>
<!-- Node30 -->
<g id="node30" class="node"><title>Node30</title>
<g id="a_node30"><a xlink:href="_vector3_8cpp.html#a0d0f2d1135100b38c7c32e0c1812ee14" target="_top" xlink:title="TEST">
<polygon fill="white" stroke="black" points="209,-0.5 209,-19.5 250,-19.5 250,-0.5 209,-0.5"/>
<text text-anchor="middle" x="229.5" y="-7.5" font-family="Helvetica,sans-Serif" font-size="10.00">TEST</text>
</a>
</g>
</g>
<!-- Node1&#45;&gt;Node30 -->
<g id="edge32" class="edge"><title>Node1&#45;&gt;Node30</title>
<path fill="none" stroke="midnightblue" d="M59.963,-502.963C64.3867,-419.364 85.4781,-99.4513 152,-29 166.562,-13.5774 191.535,-9.86533 208.973,-9.3369"/>
<polygon fill="midnightblue" stroke="midnightblue" points="56.4579,-502.976 59.4464,-513.141 63.4489,-503.331 56.4579,-502.976"/>
</g>
<!-- Node3 -->
<g id="node3" class="node"><title>Node3</title>
<g id="a_node3"><a xlink:href="class_igor_1_1i_contouring_cubes.html#ae795ffe83bbe9dfdc4f1681b040ebf39" target="_top" xlink:title="Igor::iContouringCubes\l::calculateNextLOD">
<polygon fill="white" stroke="black" points="353,-1067 353,-1097 468,-1097 468,-1067 353,-1067"/>
<text text-anchor="start" x="361" y="-1085" font-family="Helvetica,sans-Serif" font-size="10.00">Igor::iContouringCubes</text>
<text text-anchor="middle" x="410.5" y="-1074" font-family="Helvetica,sans-Serif" font-size="10.00">::calculateNextLOD</text>
</a>
</g>
</g>
<!-- Node2&#45;&gt;Node3 -->
<g id="edge2" class="edge"><title>Node2&#45;&gt;Node3</title>
<path fill="none" stroke="midnightblue" d="M296.908,-1056.21C315.32,-1060.43 335.131,-1064.97 352.925,-1069.04"/>
<polygon fill="midnightblue" stroke="midnightblue" points="297.666,-1052.79 287.137,-1053.97 296.103,-1059.62 297.666,-1052.79"/>
</g>
<!-- Node4 -->
<g id="node4" class="node"><title>Node4</title>
<g id="a_node4"><a xlink:href="class_igor_1_1i_contouring_cubes.html#acbdb84a720e39599e880db6b978ce430" target="_top" xlink:title="Igor::iContouringCubes\l::generateGeometry">
<polygon fill="white" stroke="black" points="514,-1026 514,-1056 629,-1056 629,-1026 514,-1026"/>
<text text-anchor="start" x="522" y="-1044" font-family="Helvetica,sans-Serif" font-size="10.00">Igor::iContouringCubes</text>
<text text-anchor="middle" x="571.5" y="-1033" font-family="Helvetica,sans-Serif" font-size="10.00">::generateGeometry</text>
</a>
</g>
</g>
<!-- Node2&#45;&gt;Node4 -->
<g id="edge6" class="edge"><title>Node2&#45;&gt;Node4</title>
<path fill="none" stroke="midnightblue" d="M297.28,-1041C360.452,-1041 454.223,-1041 513.839,-1041"/>
<polygon fill="midnightblue" stroke="midnightblue" points="297.026,-1037.5 287.026,-1041 297.026,-1044.5 297.026,-1037.5"/>
</g>
<!-- Node3&#45;&gt;Node4 -->
<g id="edge3" class="edge"><title>Node3&#45;&gt;Node4</title>
<path fill="none" stroke="midnightblue" d="M477.932,-1064.87C489.893,-1061.79 502.26,-1058.6 513.909,-1055.59"/>
<polygon fill="midnightblue" stroke="midnightblue" points="476.814,-1061.54 468.005,-1067.43 478.562,-1068.32 476.814,-1061.54"/>
</g>
<!-- Node4&#45;&gt;Node5 -->
<g id="edge4" class="edge"><title>Node4&#45;&gt;Node5</title>
<path fill="none" stroke="midnightblue" d="M633.186,-1023.08C645.614,-1019.41 658.574,-1015.58 670.616,-1012.03"/>
<polygon fill="midnightblue" stroke="midnightblue" points="631.96,-1019.79 623.361,-1025.98 633.942,-1026.51 631.96,-1019.79"/>
</g>
<!-- Node6 -->
<g id="node6" class="node"><title>Node6</title>
<g id="a_node6"><a xlink:href="class_igor_1_1i_voxel_terrain_mesh_generator.html#a573443022d97b40da58a922f413a0326" target="_top" xlink:title="Igor::iVoxelTerrainMeshGenerator\l::importData">
<polygon fill="white" stroke="black" points="816,-982 816,-1012 977,-1012 977,-982 816,-982"/>
<text text-anchor="start" x="824" y="-1000" font-family="Helvetica,sans-Serif" font-size="10.00">Igor::iVoxelTerrainMeshGenerator</text>
<text text-anchor="middle" x="896.5" y="-989" font-family="Helvetica,sans-Serif" font-size="10.00">::importData</text>
</a>
</g>
</g>
<!-- Node5&#45;&gt;Node6 -->
<g id="edge5" class="edge"><title>Node5&#45;&gt;Node6</title>
<path fill="none" stroke="midnightblue" d="M790.31,-997C798.641,-997 807.225,-997 815.727,-997"/>
<polygon fill="midnightblue" stroke="midnightblue" points="790.296,-993.5 780.296,-997 790.296,-1000.5 790.296,-993.5"/>
</g>
<!-- Node7&#45;&gt;Node5 -->
<g id="edge8" class="edge"><title>Node7&#45;&gt;Node5</title>
<path fill="none" stroke="midnightblue" d="M633.186,-970.921C645.614,-974.591 658.574,-978.418 670.616,-981.974"/>
<polygon fill="midnightblue" stroke="midnightblue" points="633.942,-967.495 623.361,-968.019 631.96,-974.208 633.942,-967.495"/>
</g>
<!-- Node23 -->
<g id="node23" class="node"><title>Node23</title>
<g id="a_node23"><a xlink:href="class_igor_1_1i_task_voxel_terrain.html#ad578cdbf85786e8ba443221afe6f7031" target="_top" xlink:title="Igor::iTaskVoxelTerrain::run">
<polygon fill="white" stroke="black" points="343,-229.5 343,-248.5 478,-248.5 478,-229.5 343,-229.5"/>
<text text-anchor="middle" x="410.5" y="-236.5" font-family="Helvetica,sans-Serif" font-size="10.00">Igor::iTaskVoxelTerrain::run</text>
</a>
</g>
</g>
<!-- Node22&#45;&gt;Node23 -->
<g id="edge25" class="edge"><title>Node22&#45;&gt;Node23</title>
<path fill="none" stroke="midnightblue" d="M287.234,-239C304.942,-239 324.635,-239 342.952,-239"/>
<polygon fill="midnightblue" stroke="midnightblue" points="287.063,-235.5 277.063,-239 287.063,-242.5 287.063,-235.5"/>
</g>
<!-- Node27 -->
<g id="node27" class="node"><title>Node27</title>
<g id="a_node27"><a xlink:href="_matrix_8cpp.html#a4292d6e5e311a244a15f41b76edffa3f" target="_top" xlink:title="TEST">
<polygon fill="white" stroke="black" points="390,-104.5 390,-123.5 431,-123.5 431,-104.5 390,-104.5"/>
<text text-anchor="middle" x="410.5" y="-111.5" font-family="Helvetica,sans-Serif" font-size="10.00">TEST</text>
</a>
</g>
</g>
<!-- Node26&#45;&gt;Node27 -->
<g id="edge29" class="edge"><title>Node26&#45;&gt;Node27</title>
<path fill="none" stroke="midnightblue" d="M287.629,-99.0215C322.567,-103.315 365.11,-108.544 389.574,-111.551"/>
<polygon fill="midnightblue" stroke="midnightblue" points="287.882,-95.5263 277.53,-97.7802 287.028,-102.474 287.882,-95.5263"/>
</g>
<!-- Node28 -->
<g id="node28" class="node"><title>Node28</title>
<g id="a_node28"><a xlink:href="class_user_control_transformation.html#a90c332e1995255ae5a516a69c3896776" target="_top" xlink:title="UserControlTransformation\l::updateGUI">
<polygon fill="white" stroke="black" points="345,-55 345,-85 476,-85 476,-55 345,-55"/>
<text text-anchor="start" x="353" y="-73" font-family="Helvetica,sans-Serif" font-size="10.00">UserControlTransformation</text>
<text text-anchor="middle" x="410.5" y="-62" font-family="Helvetica,sans-Serif" font-size="10.00">::updateGUI</text>
</a>
</g>
</g>
<!-- Node26&#45;&gt;Node28 -->
<g id="edge30" class="edge"><title>Node26&#45;&gt;Node28</title>
<path fill="none" stroke="midnightblue" d="M287.456,-84.9999C305.753,-82.7511 326.151,-80.244 344.952,-77.9333"/>
<polygon fill="midnightblue" stroke="midnightblue" points="287.028,-81.5259 277.53,-86.2198 287.882,-88.4737 287.028,-81.5259"/>
</g>
</g>
</svg>
