<?xml version="1.0" encoding="UTF-8" standalone="no"?>
<!DOCTYPE svg PUBLIC "-//W3C//DTD SVG 1.1//EN"
 "http://www.w3.org/Graphics/SVG/1.1/DTD/svg11.dtd">
<!-- Generated by graphviz version 2.38.0 (20140413.2041)
 -->
<!-- Title: testing::internal::FloatingPoint::fraction_bits Pages: 1 -->
<svg width="460pt" height="39pt"
 viewBox="0.00 0.00 460.00 39.00" xmlns="http://www.w3.org/2000/svg" xmlns:xlink="http://www.w3.org/1999/xlink">
<g id="graph0" class="graph" transform="scale(1 1) rotate(0) translate(4 35)">
<title>testing::internal::FloatingPoint::fraction_bits</title>
<polygon fill="white" stroke="none" points="-4,4 -4,-35 456,-35 456,4 -4,4"/>
<!-- Node1 -->
<g id="node1" class="node"><title>Node1</title>
<polygon fill="#bfbfbf" stroke="black" points="0,-0.5 0,-30.5 132,-30.5 132,-0.5 0,-0.5"/>
<text text-anchor="start" x="8" y="-18.5" font-family="Helvetica,sans-Serif" font-size="10.00">testing::internal::</text>
<text text-anchor="middle" x="66" y="-7.5" font-family="Helvetica,sans-Serif" font-size="10.00">FloatingPoint::fraction_bits</text>
</g>
<!-- Node2 -->
<g id="node2" class="node"><title>Node2</title>
<g id="a_node2"><a xlink:href="classtesting_1_1internal_1_1_floating_point.html#aaef2fd2cd8cdf791206a5e9fed8ef90d" target="_top" xlink:title="testing::internal::\lFloatingPoint::is_nan">
<polygon fill="white" stroke="black" points="168,-0.5 168,-30.5 276,-30.5 276,-0.5 168,-0.5"/>
<text text-anchor="start" x="176" y="-18.5" font-family="Helvetica,sans-Serif" font-size="10.00">testing::internal::</text>
<text text-anchor="middle" x="222" y="-7.5" font-family="Helvetica,sans-Serif" font-size="10.00">FloatingPoint::is_nan</text>
</a>
</g>
</g>
<!-- Node1&#45;&gt;Node2 -->
<g id="edge1" class="edge"><title>Node1&#45;&gt;Node2</title>
<path fill="none" stroke="midnightblue" d="M142.334,-15.5C150.905,-15.5 159.504,-15.5 167.705,-15.5"/>
<polygon fill="midnightblue" stroke="midnightblue" points="142.31,-12.0001 132.31,-15.5 142.31,-19.0001 142.31,-12.0001"/>
</g>
<!-- Node3 -->
<g id="node3" class="node"><title>Node3</title>
<g id="a_node3"><a xlink:href="classtesting_1_1internal_1_1_floating_point.html#adb0fe9ab1d9e5288f8e5550234211166" target="_top" xlink:title="testing::internal::\lFloatingPoint::AlmostEquals">
<polygon fill="white" stroke="black" points="312,-0.5 312,-30.5 452,-30.5 452,-0.5 312,-0.5"/>
<text text-anchor="start" x="320" y="-18.5" font-family="Helvetica,sans-Serif" font-size="10.00">testing::internal::</text>
<text text-anchor="middle" x="382" y="-7.5" font-family="Helvetica,sans-Serif" font-size="10.00">FloatingPoint::AlmostEquals</text>
</a>
</g>
</g>
<!-- Node2&#45;&gt;Node3 -->
<g id="edge2" class="edge"><title>Node2&#45;&gt;Node3</title>
<path fill="none" stroke="midnightblue" d="M286.181,-15.5C294.61,-15.5 303.289,-15.5 311.814,-15.5"/>
<polygon fill="midnightblue" stroke="midnightblue" points="286.051,-12.0001 276.051,-15.5 286.051,-19.0001 286.051,-12.0001"/>
</g>
</g>
</svg>
