<?xml version="1.0" encoding="UTF-8" standalone="no"?>
<!DOCTYPE svg PUBLIC "-//W3C//DTD SVG 1.1//EN"
 "http://www.w3.org/Graphics/SVG/1.1/DTD/svg11.dtd">
<!-- Generated by graphviz version 2.38.0 (20140413.2041)
 -->
<!-- Title: Igor::iEntity::iEntity Pages: 1 -->
<svg width="300pt" height="116pt"
 viewBox="0.00 0.00 300.00 115.50" xmlns="http://www.w3.org/2000/svg" xmlns:xlink="http://www.w3.org/1999/xlink">
<g id="graph0" class="graph" transform="scale(1 1) rotate(0) translate(4 111.5)">
<title>Igor::iEntity::iEntity</title>
<polygon fill="white" stroke="none" points="-4,4 -4,-111.5 296,-111.5 296,4 -4,4"/>
<!-- Node0 -->
<g id="node1" class="node"><title>Node0</title>
<g id="a_node1"><a xlink:title=" ">
<polygon fill="#bfbfbf" stroke="black" points="0,-50 0,-69 100,-69 100,-50 0,-50"/>
<text text-anchor="middle" x="50" y="-57" font-family="Helvetica,sans-Serif" font-size="10.00">Igor::iEntity::iEntity</text>
</a>
</g>
</g>
<!-- Node1 -->
<g id="node2" class="node"><title>Node1</title>
<g id="a_node2"><a xlink:href="class_igor_aux_1_1ia_mutex.html#ab0873c1f25730bd85d6b71d167520921" target="_top" xlink:title=" ">
<polygon fill="white" stroke="black" points="157,-88 157,-107 271,-107 271,-88 157,-88"/>
<text text-anchor="middle" x="214" y="-95" font-family="Helvetica,sans-Serif" font-size="10.00">IgorAux::iaMutex::lock</text>
</a>
</g>
</g>
<!-- Node0&#45;&gt;Node1 -->
<g id="edge1" class="edge"><title>Node0&#45;&gt;Node1</title>
<path fill="none" stroke="midnightblue" d="M91.8794,-69.089C113.353,-74.1261 139.86,-80.3438 162.597,-85.6771"/>
<polygon fill="midnightblue" stroke="midnightblue" points="161.879,-89.1037 172.415,-87.9799 163.478,-82.2887 161.879,-89.1037"/>
</g>
<!-- Node2 -->
<g id="node3" class="node"><title>Node2</title>
<g id="a_node3"><a xlink:href="class_igor_aux_1_1ia_mutex.html#a3beb078a1f64de265044ece54657c279" target="_top" xlink:title=" ">
<polygon fill="white" stroke="black" points="151.5,-50 151.5,-69 276.5,-69 276.5,-50 151.5,-50"/>
<text text-anchor="middle" x="214" y="-57" font-family="Helvetica,sans-Serif" font-size="10.00">IgorAux::iaMutex::unlock</text>
</a>
</g>
</g>
<!-- Node0&#45;&gt;Node2 -->
<g id="edge2" class="edge"><title>Node0&#45;&gt;Node2</title>
<path fill="none" stroke="midnightblue" d="M100.045,-59.5C113.009,-59.5 127.274,-59.5 141.174,-59.5"/>
<polygon fill="midnightblue" stroke="midnightblue" points="141.207,-63.0001 151.207,-59.5 141.207,-56.0001 141.207,-63.0001"/>
</g>
<!-- Node3 -->
<g id="node4" class="node"><title>Node3</title>
<g id="a_node4"><a xlink:href="class_igor_aux_1_1ia_singleton.html#a821f1d891129e6d09b992be81094540e" target="_top" xlink:title=" ">
<polygon fill="white" stroke="black" points="136,-0.5 136,-30.5 292,-30.5 292,-0.5 136,-0.5"/>
<text text-anchor="start" x="144" y="-18.5" font-family="Helvetica,sans-Serif" font-size="10.00">IgorAux::iaSingleton</text>
<text text-anchor="middle" x="214" y="-7.5" font-family="Helvetica,sans-Serif" font-size="10.00">&lt; iEntityManager &gt;::getInstance</text>
</a>
</g>
</g>
<!-- Node0&#45;&gt;Node3 -->
<g id="edge3" class="edge"><title>Node0&#45;&gt;Node3</title>
<path fill="none" stroke="midnightblue" d="M86.1516,-49.9527C104.147,-45.0651 126.643,-38.9549 147.674,-33.2429"/>
<polygon fill="midnightblue" stroke="midnightblue" points="148.799,-36.5642 157.532,-30.5654 146.964,-29.8089 148.799,-36.5642"/>
</g>
</g>
</svg>
