<?xml version="1.0" encoding="UTF-8" standalone="no"?>
<!DOCTYPE svg PUBLIC "-//W3C//DTD SVG 1.1//EN"
 "http://www.w3.org/Graphics/SVG/1.1/DTD/svg11.dtd">
<!-- Generated by graphviz version 2.38.0 (20140413.2041)
 -->
<!-- Title: Igor::iNodeModel Pages: 1 -->
<svg width="851pt" height="352pt"
 viewBox="0.00 0.00 851.00 351.50" xmlns="http://www.w3.org/2000/svg" xmlns:xlink="http://www.w3.org/1999/xlink">
<g id="graph0" class="graph" transform="scale(1 1) rotate(0) translate(4 347.5)">
<title>Igor::iNodeModel</title>
<polygon fill="white" stroke="none" points="-4,4 -4,-347.5 847,-347.5 847,4 -4,4"/>
<!-- Node2 -->
<g id="node1" class="node"><title>Node2</title>
<g id="a_node1"><a xlink:title=" ">
<polygon fill="#bfbfbf" stroke="black" points="754,-257 754,-276 843,-276 843,-257 754,-257"/>
<text text-anchor="middle" x="798.5" y="-264" font-family="Helvetica,sans-Serif" font-size="10.00">Igor::iNodeModel</text>
</a>
</g>
</g>
<!-- Node3 -->
<g id="node2" class="node"><title>Node3</title>
<g id="a_node2"><a xlink:href="class_igor_1_1i_node.html" target="_top" xlink:title=" ">
<polygon fill="white" stroke="black" points="501,-182 501,-201 564,-201 564,-182 501,-182"/>
<text text-anchor="middle" x="532.5" y="-189" font-family="Helvetica,sans-Serif" font-size="10.00">Igor::iNode</text>
</a>
</g>
</g>
<!-- Node3&#45;&gt;Node2 -->
<g id="edge1" class="edge"><title>Node3&#45;&gt;Node2</title>
<path fill="none" stroke="midnightblue" d="M568.44,-204.746C585.897,-211.129 607.422,-218.649 627,-224.5 669.645,-237.245 719.104,-249.113 753.735,-256.96"/>
<polygon fill="midnightblue" stroke="midnightblue" points="569.271,-201.321 558.678,-201.14 566.846,-207.888 569.271,-201.321"/>
</g>
<!-- Node3&#45;&gt;Node3 -->
<g id="edge15" class="edge"><title>Node3&#45;&gt;Node3</title>
<path fill="none" stroke="#9a32cd" stroke-dasharray="5,2" d="M504.874,-210.154C506.029,-215.437 515.238,-219.5 532.5,-219.5 558.805,-219.5 566.408,-210.065 555.311,-201.257"/>
<polygon fill="#9a32cd" stroke="#9a32cd" points="508.008,-211.718 509.689,-201.257 501.851,-208.386 508.008,-211.718"/>
<text text-anchor="middle" x="532.5" y="-222.5" font-family="Helvetica,sans-Serif" font-size="10.00"> _parent</text>
</g>
<!-- Node7 -->
<g id="node6" class="node"><title>Node7</title>
<g id="a_node6"><a xlink:href="class_igor_1_1i_scene.html" target="_top" xlink:title=" ">
<polygon fill="white" stroke="black" points="764.5,-117 764.5,-136 832.5,-136 832.5,-117 764.5,-117"/>
<text text-anchor="middle" x="798.5" y="-124" font-family="Helvetica,sans-Serif" font-size="10.00">Igor::iScene</text>
</a>
</g>
</g>
<!-- Node3&#45;&gt;Node7 -->
<g id="edge12" class="edge"><title>Node3&#45;&gt;Node7</title>
<path fill="none" stroke="#9a32cd" stroke-dasharray="5,2" d="M574.603,-186.656C624.872,-180.444 706.868,-169.303 736,-159.5 752.997,-153.78 770.896,-143.645 782.974,-136.11"/>
<polygon fill="#9a32cd" stroke="#9a32cd" points="573.89,-183.217 564.388,-187.904 574.739,-190.165 573.89,-183.217"/>
<text text-anchor="middle" x="681.5" y="-182.5" font-family="Helvetica,sans-Serif" font-size="10.00"> _root</text>
</g>
<!-- Node4 -->
<g id="node3" class="node"><title>Node4</title>
<g id="a_node3"><a xlink:href="class_igor_aux_1_1ia_i_d_generator.html" target="_top" xlink:title=" ">
<polygon fill="white" stroke="black" points="162,-82 162,-101 300,-101 300,-82 162,-82"/>
<text text-anchor="middle" x="231" y="-89" font-family="Helvetica,sans-Serif" font-size="10.00">IgorAux::iaIDGenerator&lt; T &gt;</text>
</a>
</g>
</g>
<!-- Node4&#45;&gt;Node3 -->
<g id="edge2" class="edge"><title>Node4&#45;&gt;Node3</title>
<path fill="none" stroke="#9a32cd" stroke-dasharray="5,2" d="M269.147,-79.2097C314.2,-66.8416 390.048,-54.506 438,-92.5 464.868,-113.789 432.652,-142.401 456,-167.5 467.523,-179.887 485.402,-185.911 500.87,-188.827"/>
<polygon fill="#9a32cd" stroke="#9a32cd" points="268.12,-75.8634 259.479,-81.9948 270.057,-82.5899 268.12,-75.8634"/>
<text text-anchor="middle" x="378" y="-95.5" font-family="Helvetica,sans-Serif" font-size="10.00"> _idGenerator</text>
</g>
<!-- Node5 -->
<g id="node4" class="node"><title>Node5</title>
<g id="a_node4"><a xlink:href="class_igor_aux_1_1ia_mutex.html" target="_top" xlink:title=" ">
<polygon fill="white" stroke="black" points="0,-102 0,-121 90,-121 90,-102 0,-102"/>
<text text-anchor="middle" x="45" y="-109" font-family="Helvetica,sans-Serif" font-size="10.00">IgorAux::iaMutex</text>
</a>
</g>
</g>
<!-- Node5&#45;&gt;Node4 -->
<g id="edge3" class="edge"><title>Node5&#45;&gt;Node4</title>
<path fill="none" stroke="#9a32cd" stroke-dasharray="5,2" d="M90.105,-99.7108C96.0847,-98.4415 102.168,-97.3168 108,-96.5 125.32,-94.074 144.146,-92.6924 161.71,-91.9339"/>
<polygon fill="#9a32cd" stroke="#9a32cd" points="89.1819,-96.3311 80.2028,-101.955 90.7291,-103.158 89.1819,-96.3311"/>
<text text-anchor="middle" x="126" y="-99.5" font-family="Helvetica,sans-Serif" font-size="10.00"> _mutex</text>
</g>
<!-- Node13 -->
<g id="node12" class="node"><title>Node13</title>
<g id="a_node12"><a xlink:href="class_igor_1_1i_data_update_queue.html" target="_top" xlink:title=" ">
<polygon fill="white" stroke="black" points="318,-113 318,-132 438,-132 438,-113 318,-113"/>
<text text-anchor="middle" x="378" y="-120" font-family="Helvetica,sans-Serif" font-size="10.00">Igor::iDataUpdateQueue</text>
</a>
</g>
</g>
<!-- Node5&#45;&gt;Node13 -->
<g id="edge14" class="edge"><title>Node5&#45;&gt;Node13</title>
<path fill="none" stroke="#9a32cd" stroke-dasharray="5,2" d="M100.311,-113.305C160.179,-115.294 256.162,-118.484 317.884,-120.535"/>
<polygon fill="#9a32cd" stroke="#9a32cd" points="100.407,-109.806 90.2967,-112.972 100.175,-116.802 100.407,-109.806"/>
<text text-anchor="middle" x="126" y="-118.5" font-family="Helvetica,sans-Serif" font-size="10.00"> _mutex</text>
</g>
<!-- Node6 -->
<g id="node5" class="node"><title>Node6</title>
<g id="a_node5"><a xlink:href="class_igor_aux_1_1ia_string.html" target="_top" xlink:title=" ">
<polygon fill="white" stroke="black" points="186.5,-232 186.5,-251 275.5,-251 275.5,-232 186.5,-232"/>
<text text-anchor="middle" x="231" y="-239" font-family="Helvetica,sans-Serif" font-size="10.00">IgorAux::iaString</text>
</a>
</g>
</g>
<!-- Node6&#45;&gt;Node2 -->
<g id="edge16" class="edge"><title>Node6&#45;&gt;Node2</title>
<path fill="none" stroke="#9a32cd" stroke-dasharray="5,2" d="M285.918,-243.884C397.397,-248.812 651.357,-260.039 753.625,-264.56"/>
<polygon fill="#9a32cd" stroke="#9a32cd" points="286.048,-240.386 275.903,-243.441 285.739,-247.379 286.048,-240.386"/>
<text text-anchor="middle" x="532.5" y="-261.5" font-family="Helvetica,sans-Serif" font-size="10.00"> _filename</text>
</g>
<!-- Node6&#45;&gt;Node3 -->
<g id="edge4" class="edge"><title>Node6&#45;&gt;Node3</title>
<path fill="none" stroke="#9a32cd" stroke-dasharray="5,2" d="M285.645,-232.544C348.349,-222.076 449.981,-205.109 500.683,-196.645"/>
<polygon fill="#9a32cd" stroke="#9a32cd" points="284.837,-229.131 275.55,-234.23 285.99,-236.035 284.837,-229.131"/>
<text text-anchor="middle" x="378" y="-230.5" font-family="Helvetica,sans-Serif" font-size="10.00"> _name</text>
</g>
<!-- Node6&#45;&gt;Node7 -->
<g id="edge6" class="edge"><title>Node6&#45;&gt;Node7</title>
<path fill="none" stroke="#9a32cd" stroke-dasharray="5,2" d="M262.179,-227.6C278.532,-220.302 299.189,-211.456 318,-204.5 378.254,-182.22 393.027,-174.206 456,-161.5 578.552,-136.773 611.772,-148.565 736,-134.5 745.201,-133.458 755.16,-132.214 764.331,-131.02"/>
<polygon fill="#9a32cd" stroke="#9a32cd" points="260.287,-224.614 252.608,-231.914 263.163,-230.996 260.287,-224.614"/>
<text text-anchor="middle" x="532.5" y="-164.5" font-family="Helvetica,sans-Serif" font-size="10.00"> _name</text>
</g>
<!-- Node14 -->
<g id="node13" class="node"><title>Node14</title>
<g id="a_node13"><a xlink:href="struct_igor_1_1i_model_data_input_parameter.html" target="_top" xlink:title=" ">
<polygon fill="white" stroke="black" points="456,-296 456,-315 609,-315 609,-296 456,-296"/>
<text text-anchor="middle" x="532.5" y="-303" font-family="Helvetica,sans-Serif" font-size="10.00">Igor::iModelDataInputParameter</text>
</a>
</g>
</g>
<!-- Node6&#45;&gt;Node14 -->
<g id="edge18" class="edge"><title>Node6&#45;&gt;Node14</title>
<path fill="none" stroke="#9a32cd" stroke-dasharray="5,2" d="M260.037,-255.472C276.531,-263.12 298.013,-272.11 318,-277.5 362.937,-289.619 414.662,-296.573 455.944,-300.519"/>
<polygon fill="#9a32cd" stroke="#9a32cd" points="261.486,-252.286 250.951,-251.162 258.486,-258.61 261.486,-252.286"/>
<text text-anchor="middle" x="378" y="-300.5" font-family="Helvetica,sans-Serif" font-size="10.00"> _identifier</text>
</g>
<!-- Node7&#45;&gt;Node3 -->
<g id="edge5" class="edge"><title>Node7&#45;&gt;Node3</title>
<path fill="none" stroke="#9a32cd" stroke-dasharray="5,2" d="M786.896,-144.808C776.336,-161.028 758.475,-183.622 736,-193.5 679.513,-218.326 605.305,-208.173 564.221,-199.333"/>
<polygon fill="#9a32cd" stroke="#9a32cd" points="789.974,-146.486 792.251,-136.138 784.018,-142.807 789.974,-146.486"/>
<text text-anchor="middle" x="681.5" y="-212.5" font-family="Helvetica,sans-Serif" font-size="10.00"> _scene</text>
</g>
<!-- Node8 -->
<g id="node7" class="node"><title>Node8</title>
<g id="a_node7"><a xlink:href="class_igor_1_1i_octree.html" target="_top" xlink:title=" ">
<polygon fill="white" stroke="black" points="497.5,-50 497.5,-69 567.5,-69 567.5,-50 497.5,-50"/>
<text text-anchor="middle" x="532.5" y="-57" font-family="Helvetica,sans-Serif" font-size="10.00">Igor::iOctree</text>
</a>
</g>
</g>
<!-- Node8&#45;&gt;Node7 -->
<g id="edge7" class="edge"><title>Node8&#45;&gt;Node7</title>
<path fill="none" stroke="#9a32cd" stroke-dasharray="5,2" d="M577.97,-57.4232C620.096,-56.9827 684.412,-60.3266 736,-80.5 756.862,-88.6579 776.828,-105.919 788.09,-116.822"/>
<polygon fill="#9a32cd" stroke="#9a32cd" points="577.693,-53.9275 567.759,-57.6088 577.821,-60.9264 577.693,-53.9275"/>
<text text-anchor="middle" x="681.5" y="-83.5" font-family="Helvetica,sans-Serif" font-size="10.00"> _octree</text>
</g>
<!-- Node9 -->
<g id="node8" class="node"><title>Node9</title>
<g id="a_node8"><a xlink:href="class_igor_1_1i_node_visitor_update_transform.html" target="_top" xlink:title=" ">
<polygon fill="white" stroke="black" points="471.5,-0.5 471.5,-30.5 593.5,-30.5 593.5,-0.5 471.5,-0.5"/>
<text text-anchor="start" x="479.5" y="-18.5" font-family="Helvetica,sans-Serif" font-size="10.00">Igor::iNodeVisitorUpdate</text>
<text text-anchor="middle" x="532.5" y="-7.5" font-family="Helvetica,sans-Serif" font-size="10.00">Transform</text>
</a>
</g>
</g>
<!-- Node9&#45;&gt;Node7 -->
<g id="edge8" class="edge"><title>Node9&#45;&gt;Node7</title>
<path fill="none" stroke="#9a32cd" stroke-dasharray="5,2" d="M603.961,-12.5745C645.056,-13.9118 696.422,-21.0564 736,-44.5 765.397,-61.9128 785.292,-99.3314 793.402,-116.952"/>
<polygon fill="#9a32cd" stroke="#9a32cd" points="603.822,-9.07072 593.748,-12.3532 603.67,-16.0691 603.822,-9.07072"/>
<text text-anchor="middle" x="681.5" y="-47.5" font-family="Helvetica,sans-Serif" font-size="10.00"> _updateTransformVisitor</text>
</g>
<!-- Node10 -->
<g id="node9" class="node"><title>Node10</title>
<g id="a_node9"><a xlink:href="class_igor_1_1i_node_visitor.html" target="_top" xlink:title=" ">
<polygon fill="white" stroke="black" points="185.5,-39 185.5,-58 276.5,-58 276.5,-39 185.5,-39"/>
<text text-anchor="middle" x="231" y="-46" font-family="Helvetica,sans-Serif" font-size="10.00">Igor::iNodeVisitor</text>
</a>
</g>
</g>
<!-- Node10&#45;&gt;Node9 -->
<g id="edge9" class="edge"><title>Node10&#45;&gt;Node9</title>
<path fill="none" stroke="midnightblue" d="M286.868,-44.2901C328.423,-40.8955 386.886,-35.6788 438,-29.5 448.836,-28.1901 460.352,-26.616 471.463,-25.0034"/>
<polygon fill="midnightblue" stroke="midnightblue" points="286.368,-40.819 276.682,-45.1133 286.932,-47.7962 286.368,-40.819"/>
</g>
<!-- Node11 -->
<g id="node10" class="node"><title>Node11</title>
<g id="a_node10"><a xlink:href="class_igor_aux_1_1ia_matrix.html" target="_top" xlink:title=" ">
<polygon fill="white" stroke="black" points="174.5,-1 174.5,-20 287.5,-20 287.5,-1 174.5,-1"/>
<text text-anchor="middle" x="231" y="-8" font-family="Helvetica,sans-Serif" font-size="10.00">IgorAux::iaMatrix&lt; T &gt;</text>
</a>
</g>
</g>
<!-- Node11&#45;&gt;Node9 -->
<g id="edge10" class="edge"><title>Node11&#45;&gt;Node9</title>
<path fill="none" stroke="#9a32cd" stroke-dasharray="5,2" d="M297.705,-11.5969C349.454,-12.4608 421.006,-13.6554 471.282,-14.4947"/>
<polygon fill="#9a32cd" stroke="#9a32cd" points="297.689,-8.09625 287.632,-11.4287 297.572,-15.0953 297.689,-8.09625"/>
<text text-anchor="middle" x="378" y="-17.5" font-family="Helvetica,sans-Serif" font-size="10.00"> _currentMatrix</text>
</g>
<!-- Node12 -->
<g id="node11" class="node"><title>Node12</title>
<g id="a_node11"><a xlink:title=" ">
<polygon fill="white" stroke="#bfbfbf" points="30.5,-1 30.5,-20 59.5,-20 59.5,-1 30.5,-1"/>
<text text-anchor="middle" x="45" y="-8" font-family="Helvetica,sans-Serif" font-size="10.00">T</text>
</a>
</g>
</g>
<!-- Node12&#45;&gt;Node11 -->
<g id="edge11" class="edge"><title>Node12&#45;&gt;Node11</title>
<path fill="none" stroke="#9a32cd" stroke-dasharray="5,2" d="M69.6869,-10.5C95.9985,-10.5 139.383,-10.5 174.388,-10.5"/>
<polygon fill="#9a32cd" stroke="#9a32cd" points="69.53,-7.0001 59.53,-10.5 69.5299,-14.0001 69.53,-7.0001"/>
<text text-anchor="middle" x="126" y="-46.5" font-family="Helvetica,sans-Serif" font-size="10.00"> _w0</text>
<text text-anchor="middle" x="126" y="-35.5" font-family="Helvetica,sans-Serif" font-size="10.00">_w1</text>
<text text-anchor="middle" x="126" y="-24.5" font-family="Helvetica,sans-Serif" font-size="10.00">_w2</text>
<text text-anchor="middle" x="126" y="-13.5" font-family="Helvetica,sans-Serif" font-size="10.00">_w3</text>
</g>
<!-- Node13&#45;&gt;Node7 -->
<g id="edge13" class="edge"><title>Node13&#45;&gt;Node7</title>
<path fill="none" stroke="#9a32cd" stroke-dasharray="5,2" d="M448.333,-119.672C450.921,-119.607 453.484,-119.549 456,-119.5 523.987,-118.176 541.012,-118.238 609,-119.5 663.516,-120.512 726.856,-123.169 764.481,-124.903"/>
<polygon fill="#9a32cd" stroke="#9a32cd" points="448.164,-116.176 438.268,-119.958 448.363,-123.173 448.164,-116.176"/>
<text text-anchor="middle" x="532.5" y="-122.5" font-family="Helvetica,sans-Serif" font-size="10.00"> _dataUpdateQueue</text>
</g>
<!-- Node14&#45;&gt;Node2 -->
<g id="edge17" class="edge"><title>Node14&#45;&gt;Node2</title>
<path fill="none" stroke="#9a32cd" stroke-dasharray="5,2" d="M619.278,-296.851C655.432,-292.703 697.887,-287.173 736,-280.5 743.227,-279.235 750.883,-277.673 758.25,-276.056"/>
<polygon fill="#9a32cd" stroke="#9a32cd" points="618.801,-293.382 609.257,-297.983 619.587,-300.338 618.801,-293.382"/>
<text text-anchor="middle" x="681.5" y="-297.5" font-family="Helvetica,sans-Serif" font-size="10.00"> _parameters</text>
</g>
<!-- Node15 -->
<g id="node14" class="node"><title>Node15</title>
<g id="a_node14"><a xlink:href="class_igor_aux_1_1ia_mem_block.html" target="_top" xlink:title=" ">
<polygon fill="white" stroke="black" points="176,-324 176,-343 286,-343 286,-324 176,-324"/>
<text text-anchor="middle" x="231" y="-331" font-family="Helvetica,sans-Serif" font-size="10.00">IgorAux::iaMemBlock</text>
</a>
</g>
</g>
<!-- Node15&#45;&gt;Node14 -->
<g id="edge19" class="edge"><title>Node15&#45;&gt;Node14</title>
<path fill="none" stroke="#9a32cd" stroke-dasharray="5,2" d="M296.264,-327.492C343.102,-323.113 406.717,-317.166 455.983,-312.56"/>
<polygon fill="#9a32cd" stroke="#9a32cd" points="295.868,-324.014 286.237,-328.429 296.52,-330.983 295.868,-324.014"/>
<text text-anchor="middle" x="378" y="-327.5" font-family="Helvetica,sans-Serif" font-size="10.00"> _parameters</text>
</g>
</g>
</svg>
