<?xml version="1.0" encoding="UTF-8" standalone="no"?>
<!DOCTYPE svg PUBLIC "-//W3C//DTD SVG 1.1//EN"
 "http://www.w3.org/Graphics/SVG/1.1/DTD/svg11.dtd">
<!-- Generated by graphviz version 2.38.0 (20140413.2041)
 -->
<!-- Title: Igor::iWidgetColor Pages: 1 -->
<svg width="425pt" height="253pt"
 viewBox="0.00 0.00 424.50 253.00" xmlns="http://www.w3.org/2000/svg" xmlns:xlink="http://www.w3.org/1999/xlink">
<g id="graph0" class="graph" transform="scale(1 1) rotate(0) translate(4 249)">
<title>Igor::iWidgetColor</title>
<polygon fill="white" stroke="none" points="-4,4 -4,-249 420.5,-249 420.5,4 -4,4"/>
<!-- Node2 -->
<g id="node1" class="node"><title>Node2</title>
<g id="a_node1"><a xlink:title=" ">
<polygon fill="#bfbfbf" stroke="black" points="260.5,-0.5 260.5,-19.5 354.5,-19.5 354.5,-0.5 260.5,-0.5"/>
<text text-anchor="middle" x="307.5" y="-7.5" font-family="Helvetica,sans-Serif" font-size="10.00">Igor::iWidgetColor</text>
</a>
</g>
</g>
<!-- Node3 -->
<g id="node2" class="node"><title>Node3</title>
<g id="a_node2"><a xlink:href="class_igor_1_1i_widget.html" target="_top" xlink:title=" ">
<polygon fill="white" stroke="black" points="119,-68.5 119,-87.5 190,-87.5 190,-68.5 119,-68.5"/>
<text text-anchor="middle" x="154.5" y="-75.5" font-family="Helvetica,sans-Serif" font-size="10.00">Igor::iWidget</text>
</a>
</g>
</g>
<!-- Node3&#45;&gt;Node2 -->
<g id="edge1" class="edge"><title>Node3&#45;&gt;Node2</title>
<path fill="none" stroke="midnightblue" d="M183.762,-64.3772C214.2,-51.2472 261.032,-31.0452 287.493,-19.6305"/>
<polygon fill="midnightblue" stroke="midnightblue" points="182.298,-61.1969 174.502,-68.3717 185.071,-67.6244 182.298,-61.1969"/>
</g>
<!-- Node3&#45;&gt;Node3 -->
<g id="edge3" class="edge"><title>Node3&#45;&gt;Node3</title>
<path fill="none" stroke="#9a32cd" stroke-dasharray="5,2" d="M200.28,-83.2561C204.99,-82.2215 208,-80.4695 208,-78 208,-74.0488 200.293,-71.9343 190.253,-71.6565"/>
<polygon fill="#9a32cd" stroke="#9a32cd" points="199.818,-79.7857 190.253,-84.3435 200.572,-86.7449 199.818,-79.7857"/>
<text text-anchor="middle" x="246" y="-81" font-family="Helvetica,sans-Serif" font-size="10.00"> _keyboardFocus</text>
<text text-anchor="middle" x="246" y="-70" font-family="Helvetica,sans-Serif" font-size="10.00">_parent</text>
</g>
<!-- Node4 -->
<g id="node3" class="node"><title>Node4</title>
<g id="a_node3"><a xlink:href="class_igor_aux_1_1ia_string.html" target="_top" xlink:title=" ">
<polygon fill="white" stroke="black" points="0,-147.5 0,-166.5 89,-166.5 89,-147.5 0,-147.5"/>
<text text-anchor="middle" x="44.5" y="-154.5" font-family="Helvetica,sans-Serif" font-size="10.00">IgorAux::iaString</text>
</a>
</g>
</g>
<!-- Node4&#45;&gt;Node3 -->
<g id="edge2" class="edge"><title>Node4&#45;&gt;Node3</title>
<path fill="none" stroke="#9a32cd" stroke-dasharray="5,2" d="M64.9648,-141.675C87.6667,-125.783 123.553,-100.663 142.253,-87.5728"/>
<polygon fill="#9a32cd" stroke="#9a32cd" points="62.8774,-138.863 56.6922,-147.465 66.8917,-144.598 62.8774,-138.863"/>
<text text-anchor="middle" x="131" y="-115.5" font-family="Helvetica,sans-Serif" font-size="10.00"> _tooltip</text>
</g>
<!-- Node5 -->
<g id="node4" class="node"><title>Node5</title>
<g id="a_node4"><a xlink:href="class_igor_1_1i_timer_handle.html" target="_top" xlink:title=" ">
<polygon fill="white" stroke="black" points="107,-147.5 107,-166.5 202,-166.5 202,-147.5 107,-147.5"/>
<text text-anchor="middle" x="154.5" y="-154.5" font-family="Helvetica,sans-Serif" font-size="10.00">Igor::iTimerHandle</text>
</a>
</g>
</g>
<!-- Node5&#45;&gt;Node3 -->
<g id="edge4" class="edge"><title>Node5&#45;&gt;Node3</title>
<path fill="none" stroke="#9a32cd" stroke-dasharray="5,2" d="M154.5,-137.315C154.5,-121.592 154.5,-99.8079 154.5,-87.8094"/>
<polygon fill="#9a32cd" stroke="#9a32cd" points="151,-137.465 154.5,-147.465 158,-137.465 151,-137.465"/>
<text text-anchor="middle" x="184" y="-115.5" font-family="Helvetica,sans-Serif" font-size="10.00"> _timerTooltip</text>
</g>
<!-- Node6 -->
<g id="node5" class="node"><title>Node6</title>
<g id="a_node5"><a xlink:href="class_igor_aux_1_1ia_vector2.html" target="_top" xlink:title=" ">
<polygon fill="white" stroke="black" points="220.5,-147.5 220.5,-166.5 340.5,-166.5 340.5,-147.5 220.5,-147.5"/>
<text text-anchor="middle" x="280.5" y="-154.5" font-family="Helvetica,sans-Serif" font-size="10.00">IgorAux::iaVector2&lt; T &gt;</text>
</a>
</g>
</g>
<!-- Node6&#45;&gt;Node3 -->
<g id="edge5" class="edge"><title>Node6&#45;&gt;Node3</title>
<path fill="none" stroke="#9a32cd" stroke-dasharray="5,2" d="M263.173,-140.656C250.961,-130.321 233.919,-116.834 217.5,-107 204.767,-99.374 189.588,-92.5664 177.32,-87.5735"/>
<polygon fill="#9a32cd" stroke="#9a32cd" points="260.93,-143.344 270.789,-147.224 265.502,-138.042 260.93,-143.344"/>
<text text-anchor="middle" x="274.5" y="-121" font-family="Helvetica,sans-Serif" font-size="10.00"> _tooltipPos</text>
<text text-anchor="middle" x="274.5" y="-110" font-family="Helvetica,sans-Serif" font-size="10.00">_posLast</text>
</g>
<!-- Node7 -->
<g id="node6" class="node"><title>Node7</title>
<g id="a_node6"><a xlink:title=" ">
<polygon fill="white" stroke="#bfbfbf" points="266,-225.5 266,-244.5 295,-244.5 295,-225.5 266,-225.5"/>
<text text-anchor="middle" x="280.5" y="-232.5" font-family="Helvetica,sans-Serif" font-size="10.00">T</text>
</a>
</g>
</g>
<!-- Node7&#45;&gt;Node6 -->
<g id="edge6" class="edge"><title>Node7&#45;&gt;Node6</title>
<path fill="none" stroke="#9a32cd" stroke-dasharray="5,2" d="M280.5,-215.224C280.5,-199.697 280.5,-178.358 280.5,-166.616"/>
<polygon fill="#9a32cd" stroke="#9a32cd" points="277,-215.282 280.5,-225.282 284,-215.282 277,-215.282"/>
<text text-anchor="middle" x="287.5" y="-199" font-family="Helvetica,sans-Serif" font-size="10.00"> _x</text>
<text text-anchor="middle" x="287.5" y="-188" font-family="Helvetica,sans-Serif" font-size="10.00">_y</text>
</g>
<!-- Node8 -->
<g id="node7" class="node"><title>Node8</title>
<g id="a_node7"><a xlink:href="class_igor_aux_1_1ia_color4.html" target="_top" xlink:title=" ">
<polygon fill="white" stroke="black" points="302.5,-68.5 302.5,-87.5 416.5,-87.5 416.5,-68.5 302.5,-68.5"/>
<text text-anchor="middle" x="359.5" y="-75.5" font-family="Helvetica,sans-Serif" font-size="10.00">IgorAux::iaColor4&lt; T &gt;</text>
</a>
</g>
</g>
<!-- Node8&#45;&gt;Node2 -->
<g id="edge7" class="edge"><title>Node8&#45;&gt;Node2</title>
<path fill="none" stroke="#9a32cd" stroke-dasharray="5,2" d="M346.35,-60.3101C336.213,-47.4437 322.594,-30.1583 314.466,-19.8411"/>
<polygon fill="#9a32cd" stroke="#9a32cd" points="343.764,-62.6828 352.702,-68.3717 349.262,-58.3506 343.764,-62.6828"/>
<text text-anchor="middle" x="352.5" y="-41" font-family="Helvetica,sans-Serif" font-size="10.00"> _color</text>
</g>
</g>
</svg>
