<?xml version="1.0" encoding="UTF-8" standalone="no"?>
<!DOCTYPE svg PUBLIC "-//W3C//DTD SVG 1.1//EN"
 "http://www.w3.org/Graphics/SVG/1.1/DTD/svg11.dtd">
<!-- Generated by graphviz version 2.38.0 (20140413.2041)
 -->
<!-- Title: Igor::iTaskFlushTextures::run Pages: 1 -->
<svg width="321pt" height="50pt"
 viewBox="0.00 0.00 321.00 50.00" xmlns="http://www.w3.org/2000/svg" xmlns:xlink="http://www.w3.org/1999/xlink">
<g id="graph0" class="graph" transform="scale(1 1) rotate(0) translate(4 46)">
<title>Igor::iTaskFlushTextures::run</title>
<polygon fill="white" stroke="none" points="-4,4 -4,-46 317,-46 317,4 -4,4"/>
<!-- Node1 -->
<g id="node1" class="node"><title>Node1</title>
<polygon fill="#bfbfbf" stroke="black" points="0,-11.5 0,-30.5 143,-30.5 143,-11.5 0,-11.5"/>
<text text-anchor="middle" x="71.5" y="-18.5" font-family="Helvetica,sans-Serif" font-size="10.00">Igor::iTaskFlushTextures::run</text>
</g>
<!-- Node2 -->
<g id="node2" class="node"><title>Node2</title>
<g id="a_node2"><a xlink:href="class_igor_aux_1_1ia_singleton.html#a821f1d891129e6d09b992be81094540e" target="_top" xlink:title="IgorAux::iaSingleton\l\&lt; iTextureResourceFactory\l \&gt;::getInstance">
<polygon fill="white" stroke="black" points="179,-0.5 179,-41.5 313,-41.5 313,-0.5 179,-0.5"/>
<text text-anchor="start" x="187" y="-29.5" font-family="Helvetica,sans-Serif" font-size="10.00">IgorAux::iaSingleton</text>
<text text-anchor="start" x="187" y="-18.5" font-family="Helvetica,sans-Serif" font-size="10.00">&lt; iTextureResourceFactory</text>
<text text-anchor="middle" x="246" y="-7.5" font-family="Helvetica,sans-Serif" font-size="10.00"> &gt;::getInstance</text>
</a>
</g>
</g>
<!-- Node1&#45;&gt;Node2 -->
<g id="edge1" class="edge"><title>Node1&#45;&gt;Node2</title>
<path fill="none" stroke="midnightblue" d="M143.16,-21C151.561,-21 160.166,-21 168.642,-21"/>
<polygon fill="midnightblue" stroke="midnightblue" points="168.894,-24.5001 178.894,-21 168.894,-17.5001 168.894,-24.5001"/>
</g>
</g>
</svg>
