<?xml version="1.0" encoding="UTF-8" standalone="no"?>
<!DOCTYPE svg PUBLIC "-//W3C//DTD SVG 1.1//EN"
 "http://www.w3.org/Graphics/SVG/1.1/DTD/svg11.dtd">
<!-- Generated by graphviz version 2.38.0 (20140413.2041)
 -->
<!-- Title: OMPF::ompfMeshChunk::read Pages: 1 -->
<svg width="436pt" height="186pt"
 viewBox="0.00 0.00 436.00 186.00" xmlns="http://www.w3.org/2000/svg" xmlns:xlink="http://www.w3.org/1999/xlink">
<g id="graph0" class="graph" transform="scale(1 1) rotate(0) translate(4 182)">
<title>OMPF::ompfMeshChunk::read</title>
<polygon fill="white" stroke="none" points="-4,4 -4,-182 432,-182 432,4 -4,4"/>
<!-- Node1 -->
<g id="node1" class="node"><title>Node1</title>
<polygon fill="#bfbfbf" stroke="black" points="0,-73.5 0,-103.5 124,-103.5 124,-73.5 0,-73.5"/>
<text text-anchor="start" x="8" y="-91.5" font-family="Helvetica,sans-Serif" font-size="10.00">OMPF::ompfMeshChunk</text>
<text text-anchor="middle" x="62" y="-80.5" font-family="Helvetica,sans-Serif" font-size="10.00">::read</text>
</g>
<!-- Node2 -->
<g id="node2" class="node"><title>Node2</title>
<g id="a_node2"><a xlink:href="class_o_m_p_f_1_1ompf_base_chunk.html#af2301d255ce51d9168b808deccaaf8a2" target="_top" xlink:title="OMPF::ompfBaseChunk\l::getName">
<polygon fill="white" stroke="black" points="161,-147.5 161,-177.5 283,-177.5 283,-147.5 161,-147.5"/>
<text text-anchor="start" x="169" y="-165.5" font-family="Helvetica,sans-Serif" font-size="10.00">OMPF::ompfBaseChunk</text>
<text text-anchor="middle" x="222" y="-154.5" font-family="Helvetica,sans-Serif" font-size="10.00">::getName</text>
</a>
</g>
</g>
<!-- Node1&#45;&gt;Node2 -->
<g id="edge1" class="edge"><title>Node1&#45;&gt;Node2</title>
<path fill="none" stroke="midnightblue" d="M90.6484,-103.699C109.858,-114.024 136.185,-127.71 160,-138.5 163.79,-140.217 167.742,-141.933 171.732,-143.614"/>
<polygon fill="midnightblue" stroke="midnightblue" points="170.474,-146.881 181.053,-147.454 173.14,-140.409 170.474,-146.881"/>
</g>
<!-- Node3 -->
<g id="node3" class="node"><title>Node3</title>
<g id="a_node3"><a xlink:href="class_o_m_p_f_1_1ompf_base_chunk.html#aa3b931de6ce181c023f66628c67244da" target="_top" xlink:title="OMPF::ompfBaseChunk\l::read">
<polygon fill="white" stroke="black" points="161,-98.5 161,-128.5 283,-128.5 283,-98.5 161,-98.5"/>
<text text-anchor="start" x="169" y="-116.5" font-family="Helvetica,sans-Serif" font-size="10.00">OMPF::ompfBaseChunk</text>
<text text-anchor="middle" x="222" y="-105.5" font-family="Helvetica,sans-Serif" font-size="10.00">::read</text>
</a>
</g>
</g>
<!-- Node1&#45;&gt;Node3 -->
<g id="edge2" class="edge"><title>Node1&#45;&gt;Node3</title>
<path fill="none" stroke="midnightblue" d="M124.087,-98.1657C132.857,-99.5533 141.938,-100.99 150.866,-102.403"/>
<polygon fill="midnightblue" stroke="midnightblue" points="150.432,-105.878 160.856,-103.984 151.526,-98.9636 150.432,-105.878"/>
</g>
<!-- Node7 -->
<g id="node7" class="node"><title>Node7</title>
<g id="a_node7"><a xlink:href="class_o_m_p_f_1_1ompf_mesh_chunk.html#ab33f0e1acbe9888492a6ed9b4c368a46" target="_top" xlink:title="OMPF::ompfMeshChunk\l::setTexture">
<polygon fill="white" stroke="black" points="160,-49.5 160,-79.5 284,-79.5 284,-49.5 160,-49.5"/>
<text text-anchor="start" x="168" y="-67.5" font-family="Helvetica,sans-Serif" font-size="10.00">OMPF::ompfMeshChunk</text>
<text text-anchor="middle" x="222" y="-56.5" font-family="Helvetica,sans-Serif" font-size="10.00">::setTexture</text>
</a>
</g>
</g>
<!-- Node1&#45;&gt;Node7 -->
<g id="edge6" class="edge"><title>Node1&#45;&gt;Node7</title>
<path fill="none" stroke="midnightblue" d="M124.087,-79.221C132.513,-77.9411 141.226,-76.6176 149.815,-75.313"/>
<polygon fill="midnightblue" stroke="midnightblue" points="150.454,-78.7561 159.815,-73.7939 149.403,-71.8355 150.454,-78.7561"/>
</g>
<!-- Node8 -->
<g id="node8" class="node"><title>Node8</title>
<g id="a_node8"><a xlink:href="class_o_m_p_f_1_1ompf_mesh_chunk.html#a5f62ef05d2f41907d0fe33859506fc33" target="_top" xlink:title="OMPF::ompfMeshChunk\l::getVertexSize">
<polygon fill="white" stroke="black" points="160,-0.5 160,-30.5 284,-30.5 284,-0.5 160,-0.5"/>
<text text-anchor="start" x="168" y="-18.5" font-family="Helvetica,sans-Serif" font-size="10.00">OMPF::ompfMeshChunk</text>
<text text-anchor="middle" x="222" y="-7.5" font-family="Helvetica,sans-Serif" font-size="10.00">::getVertexSize</text>
</a>
</g>
</g>
<!-- Node1&#45;&gt;Node8 -->
<g id="edge7" class="edge"><title>Node1&#45;&gt;Node8</title>
<path fill="none" stroke="midnightblue" d="M91.1028,-73.4319C110.291,-63.3604 136.412,-50.0704 160,-39.5 163.797,-37.7984 167.754,-36.0932 171.747,-34.4203"/>
<polygon fill="midnightblue" stroke="midnightblue" points="173.152,-37.6273 181.074,-30.5921 170.494,-31.1516 173.152,-37.6273"/>
</g>
<!-- Node4 -->
<g id="node4" class="node"><title>Node4</title>
<g id="a_node4"><a xlink:href="class_o_m_p_f_1_1ompf_settings.html#ac4b44803b6a70b9eb6f3ca573a0a5242" target="_top" xlink:title="OMPF::ompfSettings\l::getTypeIDSize">
<polygon fill="white" stroke="black" points="320,-147.5 320,-177.5 428,-177.5 428,-147.5 320,-147.5"/>
<text text-anchor="start" x="328" y="-165.5" font-family="Helvetica,sans-Serif" font-size="10.00">OMPF::ompfSettings</text>
<text text-anchor="middle" x="374" y="-154.5" font-family="Helvetica,sans-Serif" font-size="10.00">::getTypeIDSize</text>
</a>
</g>
</g>
<!-- Node3&#45;&gt;Node4 -->
<g id="edge3" class="edge"><title>Node3&#45;&gt;Node4</title>
<path fill="none" stroke="midnightblue" d="M269.229,-128.601C284.413,-133.562 301.451,-139.127 317.264,-144.293"/>
<polygon fill="midnightblue" stroke="midnightblue" points="316.331,-147.67 326.924,-147.448 318.505,-141.016 316.331,-147.67"/>
</g>
<!-- Node5 -->
<g id="node5" class="node"><title>Node5</title>
<g id="a_node5"><a xlink:href="class_o_m_p_f_1_1ompf_settings.html#ac8b4c4cf739d5c5fd8d09b15d176c90d" target="_top" xlink:title="OMPF::ompfSettings\l::getChunkSizeSize">
<polygon fill="white" stroke="black" points="320,-98.5 320,-128.5 428,-128.5 428,-98.5 320,-98.5"/>
<text text-anchor="start" x="328" y="-116.5" font-family="Helvetica,sans-Serif" font-size="10.00">OMPF::ompfSettings</text>
<text text-anchor="middle" x="374" y="-105.5" font-family="Helvetica,sans-Serif" font-size="10.00">::getChunkSizeSize</text>
</a>
</g>
</g>
<!-- Node3&#45;&gt;Node5 -->
<g id="edge4" class="edge"><title>Node3&#45;&gt;Node5</title>
<path fill="none" stroke="midnightblue" d="M283.146,-113.5C291.817,-113.5 300.763,-113.5 309.496,-113.5"/>
<polygon fill="midnightblue" stroke="midnightblue" points="309.621,-117 319.621,-113.5 309.621,-110 309.621,-117"/>
</g>
<!-- Node6 -->
<g id="node6" class="node"><title>Node6</title>
<g id="a_node6"><a xlink:href="class_o_m_p_f_1_1ompf_settings.html#a3b1a3f75376c3ebee9a59a31d7280aa3" target="_top" xlink:title="OMPF::ompfSettings\l::getChunkIDSize">
<polygon fill="white" stroke="black" points="320,-49.5 320,-79.5 428,-79.5 428,-49.5 320,-49.5"/>
<text text-anchor="start" x="328" y="-67.5" font-family="Helvetica,sans-Serif" font-size="10.00">OMPF::ompfSettings</text>
<text text-anchor="middle" x="374" y="-56.5" font-family="Helvetica,sans-Serif" font-size="10.00">::getChunkIDSize</text>
</a>
</g>
</g>
<!-- Node3&#45;&gt;Node6 -->
<g id="edge5" class="edge"><title>Node3&#45;&gt;Node6</title>
<path fill="none" stroke="midnightblue" d="M269.229,-98.3986C284.413,-93.4385 301.451,-87.8726 317.264,-82.7071"/>
<polygon fill="midnightblue" stroke="midnightblue" points="318.505,-85.9838 326.924,-79.5516 316.331,-79.3298 318.505,-85.9838"/>
</g>
</g>
</svg>
