<?xml version="1.0" encoding="UTF-8" standalone="no"?>
<!DOCTYPE svg PUBLIC "-//W3C//DTD SVG 1.1//EN"
 "http://www.w3.org/Graphics/SVG/1.1/DTD/svg11.dtd">
<!-- Generated by graphviz version 2.38.0 (20140413.2041)
 -->
<!-- Title: Igor::iUserControlFileChooser::createInstance Pages: 1 -->
<svg width="1600pt" height="519pt"
 viewBox="0.00 0.00 1600.00 519.00" xmlns="http://www.w3.org/2000/svg" xmlns:xlink="http://www.w3.org/1999/xlink">
<g id="graph0" class="graph" transform="scale(1 1) rotate(0) translate(4 515)">
<title>Igor::iUserControlFileChooser::createInstance</title>
<polygon fill="white" stroke="none" points="-4,4 -4,-515 1596,-515 1596,4 -4,4"/>
<!-- Node1 -->
<g id="node1" class="node"><title>Node1</title>
<polygon fill="#bfbfbf" stroke="black" points="0,-308.5 0,-338.5 143,-338.5 143,-308.5 0,-308.5"/>
<text text-anchor="start" x="8" y="-326.5" font-family="Helvetica,sans-Serif" font-size="10.00">Igor::iUserControlFileChooser</text>
<text text-anchor="middle" x="71.5" y="-315.5" font-family="Helvetica,sans-Serif" font-size="10.00">::createInstance</text>
</g>
<!-- Node2 -->
<g id="node2" class="node"><title>Node2</title>
<g id="a_node2"><a xlink:href="class_igor_1_1i_user_control_file_chooser.html#a5d8f62c79b5df55c4f6c9ad6b1ed52c7" target="_top" xlink:title="Igor::iUserControlFileChooser\l::iUserControlFileChooser">
<polygon fill="white" stroke="black" points="179,-308.5 179,-338.5 322,-338.5 322,-308.5 179,-308.5"/>
<text text-anchor="start" x="187" y="-326.5" font-family="Helvetica,sans-Serif" font-size="10.00">Igor::iUserControlFileChooser</text>
<text text-anchor="middle" x="250.5" y="-315.5" font-family="Helvetica,sans-Serif" font-size="10.00">::iUserControlFileChooser</text>
</a>
</g>
</g>
<!-- Node1&#45;&gt;Node2 -->
<g id="edge1" class="edge"><title>Node1&#45;&gt;Node2</title>
<path fill="none" stroke="midnightblue" d="M143.218,-323.5C151.57,-323.5 160.142,-323.5 168.62,-323.5"/>
<polygon fill="midnightblue" stroke="midnightblue" points="168.894,-327 178.894,-323.5 168.894,-320 168.894,-327"/>
</g>
<!-- Node3 -->
<g id="node3" class="node"><title>Node3</title>
<g id="a_node3"><a xlink:href="class_igor_1_1i_user_control_file_chooser.html#acbdcb369d7f6dabea5fe1a039319b271" target="_top" xlink:title="Igor::iUserControlFileChooser\l::initGUI">
<polygon fill="white" stroke="black" points="358,-308.5 358,-338.5 501,-338.5 501,-308.5 358,-308.5"/>
<text text-anchor="start" x="366" y="-326.5" font-family="Helvetica,sans-Serif" font-size="10.00">Igor::iUserControlFileChooser</text>
<text text-anchor="middle" x="429.5" y="-315.5" font-family="Helvetica,sans-Serif" font-size="10.00">::initGUI</text>
</a>
</g>
</g>
<!-- Node2&#45;&gt;Node3 -->
<g id="edge2" class="edge"><title>Node2&#45;&gt;Node3</title>
<path fill="none" stroke="midnightblue" d="M322.218,-323.5C330.57,-323.5 339.142,-323.5 347.62,-323.5"/>
<polygon fill="midnightblue" stroke="midnightblue" points="347.894,-327 357.894,-323.5 347.894,-320 347.894,-327"/>
</g>
<!-- Node4 -->
<g id="node4" class="node"><title>Node4</title>
<g id="a_node4"><a xlink:href="class_igor_aux_1_1ia_singleton.html#a821f1d891129e6d09b992be81094540e" target="_top" xlink:title="IgorAux::iaSingleton\l\&lt; iWidgetManager \&gt;::getInstance">
<polygon fill="white" stroke="black" points="895,-196.5 895,-226.5 1056,-226.5 1056,-196.5 895,-196.5"/>
<text text-anchor="start" x="903" y="-214.5" font-family="Helvetica,sans-Serif" font-size="10.00">IgorAux::iaSingleton</text>
<text text-anchor="middle" x="975.5" y="-203.5" font-family="Helvetica,sans-Serif" font-size="10.00">&lt; iWidgetManager &gt;::getInstance</text>
</a>
</g>
</g>
<!-- Node3&#45;&gt;Node4 -->
<g id="edge3" class="edge"><title>Node3&#45;&gt;Node4</title>
<path fill="none" stroke="midnightblue" d="M441.158,-308.381C458.303,-285.498 494.435,-242.893 537,-225.5 650.065,-179.298 793.609,-185.592 884.793,-196.676"/>
<polygon fill="midnightblue" stroke="midnightblue" points="884.464,-200.162 894.823,-197.94 885.339,-193.217 884.464,-200.162"/>
</g>
<!-- Node5 -->
<g id="node5" class="node"><title>Node5</title>
<g id="a_node5"><a xlink:href="class_igor_1_1i_widget_manager.html#a6bd957c51cc937fa860f9e2be73f3d27" target="_top" xlink:title="Igor::iWidgetManager\l::createWidget">
<polygon fill="white" stroke="black" points="554,-431.5 554,-461.5 663,-461.5 663,-431.5 554,-431.5"/>
<text text-anchor="start" x="562" y="-449.5" font-family="Helvetica,sans-Serif" font-size="10.00">Igor::iWidgetManager</text>
<text text-anchor="middle" x="608.5" y="-438.5" font-family="Helvetica,sans-Serif" font-size="10.00">::createWidget</text>
</a>
</g>
</g>
<!-- Node3&#45;&gt;Node5 -->
<g id="edge4" class="edge"><title>Node3&#45;&gt;Node5</title>
<path fill="none" stroke="midnightblue" d="M443.467,-338.821C462.168,-360.054 498.692,-398.416 537,-421.5 540.406,-423.553 544.007,-425.472 547.706,-427.26"/>
<polygon fill="midnightblue" stroke="midnightblue" points="546.492,-430.552 557.05,-431.438 549.35,-424.161 546.492,-430.552"/>
</g>
<!-- Node9 -->
<g id="node9" class="node"><title>Node9</title>
<g id="a_node9"><a xlink:href="class_igor_1_1i_widget_grid.html#a3f9af42fc1b7fdebd5d9f2ad82b68884" target="_top" xlink:title="Igor::iWidgetGrid::\lappendCollumns">
<polygon fill="white" stroke="black" points="561,-382.5 561,-412.5 656,-412.5 656,-382.5 561,-382.5"/>
<text text-anchor="start" x="569" y="-400.5" font-family="Helvetica,sans-Serif" font-size="10.00">Igor::iWidgetGrid::</text>
<text text-anchor="middle" x="608.5" y="-389.5" font-family="Helvetica,sans-Serif" font-size="10.00">appendCollumns</text>
</a>
</g>
</g>
<!-- Node3&#45;&gt;Node9 -->
<g id="edge8" class="edge"><title>Node3&#45;&gt;Node9</title>
<path fill="none" stroke="midnightblue" d="M461.398,-338.615C482.484,-348.707 511.168,-362.002 537,-372.5 542.318,-374.661 547.901,-376.821 553.5,-378.916"/>
<polygon fill="midnightblue" stroke="midnightblue" points="552.299,-382.204 562.892,-382.37 554.714,-375.634 552.299,-382.204"/>
</g>
<!-- Node10 -->
<g id="node10" class="node"><title>Node10</title>
<g id="a_node10"><a xlink:href="class_igor_1_1i_widget_text_edit.html#a8629638d3ab625e89d7017450a7063fb" target="_top" xlink:title="Igor::iWidgetTextEdit\l::setMaxTextLength">
<polygon fill="white" stroke="black" points="555,-333.5 555,-363.5 662,-363.5 662,-333.5 555,-333.5"/>
<text text-anchor="start" x="563" y="-351.5" font-family="Helvetica,sans-Serif" font-size="10.00">Igor::iWidgetTextEdit</text>
<text text-anchor="middle" x="608.5" y="-340.5" font-family="Helvetica,sans-Serif" font-size="10.00">::setMaxTextLength</text>
</a>
</g>
</g>
<!-- Node3&#45;&gt;Node10 -->
<g id="edge9" class="edge"><title>Node3&#45;&gt;Node10</title>
<path fill="none" stroke="midnightblue" d="M501.218,-333.488C515.63,-335.524 530.699,-337.652 544.808,-339.645"/>
<polygon fill="midnightblue" stroke="midnightblue" points="544.498,-343.136 554.889,-341.069 545.477,-336.205 544.498,-343.136"/>
</g>
<!-- Node11 -->
<g id="node11" class="node"><title>Node11</title>
<g id="a_node11"><a xlink:href="class_igor_1_1i_user_control_file_chooser.html#a7dacbb98e9678673a5bc680dfb3122c1" target="_top" xlink:title="Igor::iUserControlFileChooser\l::onTextChanged">
<polygon fill="white" stroke="black" points="537,-284.5 537,-314.5 680,-314.5 680,-284.5 537,-284.5"/>
<text text-anchor="start" x="545" y="-302.5" font-family="Helvetica,sans-Serif" font-size="10.00">Igor::iUserControlFileChooser</text>
<text text-anchor="middle" x="608.5" y="-291.5" font-family="Helvetica,sans-Serif" font-size="10.00">::onTextChanged</text>
</a>
</g>
</g>
<!-- Node3&#45;&gt;Node11 -->
<g id="edge10" class="edge"><title>Node3&#45;&gt;Node11</title>
<path fill="none" stroke="midnightblue" d="M501.218,-313.911C509.662,-312.766 518.331,-311.591 526.9,-310.429"/>
<polygon fill="midnightblue" stroke="midnightblue" points="527.455,-313.886 536.894,-309.074 526.515,-306.949 527.455,-313.886"/>
</g>
<!-- Node12 -->
<g id="node12" class="node"><title>Node12</title>
<g id="a_node12"><a xlink:href="class_igor_1_1i_widget_button.html#a510b3c7d7e0e6b0be6cd1c15da1b550a" target="_top" xlink:title="Igor::iWidgetButton\l::setText">
<polygon fill="white" stroke="black" points="558.5,-235.5 558.5,-265.5 658.5,-265.5 658.5,-235.5 558.5,-235.5"/>
<text text-anchor="start" x="566.5" y="-253.5" font-family="Helvetica,sans-Serif" font-size="10.00">Igor::iWidgetButton</text>
<text text-anchor="middle" x="608.5" y="-242.5" font-family="Helvetica,sans-Serif" font-size="10.00">::setText</text>
</a>
</g>
</g>
<!-- Node3&#45;&gt;Node12 -->
<g id="edge11" class="edge"><title>Node3&#45;&gt;Node12</title>
<path fill="none" stroke="midnightblue" d="M461.355,-308.279C482.423,-298.14 511.102,-284.834 537,-274.5 541.683,-272.631 546.576,-270.775 551.505,-268.97"/>
<polygon fill="midnightblue" stroke="midnightblue" points="552.751,-272.242 560.985,-265.575 550.39,-265.652 552.751,-272.242"/>
</g>
<!-- Node13 -->
<g id="node13" class="node"><title>Node13</title>
<g id="a_node13"><a xlink:href="class_igor_1_1i_user_control_file_chooser.html#abf208141bc278147ca8d87af84f4315d" target="_top" xlink:title="Igor::iUserControlFileChooser\l::onFileSelectButtonPressed">
<polygon fill="white" stroke="black" points="537,-147.5 537,-177.5 680,-177.5 680,-147.5 537,-147.5"/>
<text text-anchor="start" x="545" y="-165.5" font-family="Helvetica,sans-Serif" font-size="10.00">Igor::iUserControlFileChooser</text>
<text text-anchor="middle" x="608.5" y="-154.5" font-family="Helvetica,sans-Serif" font-size="10.00">::onFileSelectButtonPressed</text>
</a>
</g>
</g>
<!-- Node3&#45;&gt;Node13 -->
<g id="edge12" class="edge"><title>Node3&#45;&gt;Node13</title>
<path fill="none" stroke="midnightblue" d="M439.471,-308.124C455.784,-281.342 492.741,-225.816 537,-192.5 542.091,-188.668 547.746,-185.219 553.574,-182.145"/>
<polygon fill="midnightblue" stroke="midnightblue" points="555.377,-185.159 562.821,-177.621 552.301,-178.872 555.377,-185.159"/>
</g>
<!-- Node32 -->
<g id="node32" class="node"><title>Node32</title>
<g id="a_node32"><a xlink:href="class_igor_1_1i_widget_manager.html#a3cf3de26ec38048c079b976e07d6bd13" target="_top" xlink:title="Igor::iWidgetManager\l::createDialog">
<polygon fill="white" stroke="black" points="554,-480.5 554,-510.5 663,-510.5 663,-480.5 554,-480.5"/>
<text text-anchor="start" x="562" y="-498.5" font-family="Helvetica,sans-Serif" font-size="10.00">Igor::iWidgetManager</text>
<text text-anchor="middle" x="608.5" y="-487.5" font-family="Helvetica,sans-Serif" font-size="10.00">::createDialog</text>
</a>
</g>
</g>
<!-- Node3&#45;&gt;Node32 -->
<g id="edge39" class="edge"><title>Node3&#45;&gt;Node32</title>
<path fill="none" stroke="midnightblue" d="M437.531,-338.905C451.937,-368.8 487.653,-434.945 537,-471.5 539.466,-473.327 542.08,-475.021 544.795,-476.592"/>
<polygon fill="midnightblue" stroke="midnightblue" points="543.252,-479.734 553.745,-481.198 546.456,-473.51 543.252,-479.734"/>
</g>
<!-- Node6 -->
<g id="node6" class="node"><title>Node6</title>
<g id="a_node6"><a xlink:href="class_igor_aux_1_1ia_string.html#a7bed20819f1376bd433892feeefdc05c" target="_top" xlink:title="IgorAux::iaString::\lgetHashValue">
<polygon fill="white" stroke="black" points="740,-431.5 740,-461.5 835,-461.5 835,-431.5 740,-431.5"/>
<text text-anchor="start" x="748" y="-449.5" font-family="Helvetica,sans-Serif" font-size="10.00">IgorAux::iaString::</text>
<text text-anchor="middle" x="787.5" y="-438.5" font-family="Helvetica,sans-Serif" font-size="10.00">getHashValue</text>
</a>
</g>
</g>
<!-- Node5&#45;&gt;Node6 -->
<g id="edge5" class="edge"><title>Node5&#45;&gt;Node6</title>
<path fill="none" stroke="midnightblue" d="M663.086,-446.5C684.159,-446.5 708.378,-446.5 729.749,-446.5"/>
<polygon fill="midnightblue" stroke="midnightblue" points="729.985,-450 739.985,-446.5 729.985,-443 729.985,-450"/>
</g>
<!-- Node8 -->
<g id="node8" class="node"><title>Node8</title>
<g id="a_node8"><a xlink:href="class_igor_1_1i_widget.html#aa0816e0911fd5d21a7aed3b9f27bc118" target="_top" xlink:title="Igor::iWidget::getID">
<polygon fill="white" stroke="black" points="737.5,-483 737.5,-502 837.5,-502 837.5,-483 737.5,-483"/>
<text text-anchor="middle" x="787.5" y="-490" font-family="Helvetica,sans-Serif" font-size="10.00">Igor::iWidget::getID</text>
</a>
</g>
</g>
<!-- Node5&#45;&gt;Node8 -->
<g id="edge7" class="edge"><title>Node5&#45;&gt;Node8</title>
<path fill="none" stroke="midnightblue" d="M663.086,-460.426C687.659,-466.812 716.508,-474.31 740.132,-480.45"/>
<polygon fill="midnightblue" stroke="midnightblue" points="739.35,-483.863 749.909,-482.991 741.111,-477.088 739.35,-483.863"/>
</g>
<!-- Node7 -->
<g id="node7" class="node"><title>Node7</title>
<g id="a_node7"><a xlink:href="class_igor_aux_1_1ia_string.html#a527c422c83c563c834a12548728e625d" target="_top" xlink:title="IgorAux::iaString::\lgetData">
<polygon fill="white" stroke="black" points="1497,-342.5 1497,-372.5 1592,-372.5 1592,-342.5 1497,-342.5"/>
<text text-anchor="start" x="1505" y="-360.5" font-family="Helvetica,sans-Serif" font-size="10.00">IgorAux::iaString::</text>
<text text-anchor="middle" x="1544.5" y="-349.5" font-family="Helvetica,sans-Serif" font-size="10.00">getData</text>
</a>
</g>
</g>
<!-- Node6&#45;&gt;Node7 -->
<g id="edge6" class="edge"><title>Node6&#45;&gt;Node7</title>
<path fill="none" stroke="midnightblue" d="M835.071,-440.922C902.994,-433.283 1033.26,-420.5 1144.5,-420.5 1144.5,-420.5 1144.5,-420.5 1283.5,-420.5 1359.64,-420.5 1444.88,-394.665 1496.35,-376.084"/>
<polygon fill="midnightblue" stroke="midnightblue" points="1497.68,-379.321 1505.87,-372.59 1495.27,-372.75 1497.68,-379.321"/>
</g>
<!-- Node14 -->
<g id="node14" class="node"><title>Node14</title>
<g id="a_node14"><a xlink:href="class_igor_1_1i_dialog_file_select.html#a5c3041d6de616956de2bc0465d8983b3" target="_top" xlink:title="Igor::iDialogFileSelect\l::load">
<polygon fill="white" stroke="black" points="732,-147.5 732,-177.5 843,-177.5 843,-147.5 732,-147.5"/>
<text text-anchor="start" x="740" y="-165.5" font-family="Helvetica,sans-Serif" font-size="10.00">Igor::iDialogFileSelect</text>
<text text-anchor="middle" x="787.5" y="-154.5" font-family="Helvetica,sans-Serif" font-size="10.00">::load</text>
</a>
</g>
</g>
<!-- Node13&#45;&gt;Node14 -->
<g id="edge13" class="edge"><title>Node13&#45;&gt;Node14</title>
<path fill="none" stroke="midnightblue" d="M680.218,-162.5C693.953,-162.5 708.284,-162.5 721.813,-162.5"/>
<polygon fill="midnightblue" stroke="midnightblue" points="721.98,-166 731.98,-162.5 721.98,-159 721.98,-166"/>
</g>
<!-- Node15 -->
<g id="node15" class="node"><title>Node15</title>
<g id="a_node15"><a xlink:href="class_igor_1_1i_user_control_file_chooser.html#a385c31c1ecad69cf5bd75e9f8ffe6b96" target="_top" xlink:title="Igor::iUserControlFileChooser\l::onFileLoadDialogClosed">
<polygon fill="white" stroke="black" points="716,-98.5 716,-128.5 859,-128.5 859,-98.5 716,-98.5"/>
<text text-anchor="start" x="724" y="-116.5" font-family="Helvetica,sans-Serif" font-size="10.00">Igor::iUserControlFileChooser</text>
<text text-anchor="middle" x="787.5" y="-105.5" font-family="Helvetica,sans-Serif" font-size="10.00">::onFileLoadDialogClosed</text>
</a>
</g>
</g>
<!-- Node13&#45;&gt;Node15 -->
<g id="edge14" class="edge"><title>Node13&#45;&gt;Node15</title>
<path fill="none" stroke="midnightblue" d="M664.05,-147.399C682.474,-142.298 703.212,-136.557 722.312,-131.27"/>
<polygon fill="midnightblue" stroke="midnightblue" points="723.426,-134.593 732.13,-128.552 721.559,-127.847 723.426,-134.593"/>
</g>
<!-- Node15&#45;&gt;Node4 -->
<g id="edge35" class="edge"><title>Node15&#45;&gt;Node4</title>
<path fill="none" stroke="midnightblue" d="M843.668,-128.525C849.087,-131.088 854.308,-134.06 859,-137.5 880.794,-153.478 873.021,-170.778 895,-186.5 897.707,-188.436 900.569,-190.226 903.536,-191.88"/>
<polygon fill="midnightblue" stroke="midnightblue" points="902.194,-195.122 912.706,-196.448 905.316,-188.857 902.194,-195.122"/>
</g>
<!-- Node16 -->
<g id="node16" class="node"><title>Node16</title>
<g id="a_node16"><a xlink:href="class_igor_1_1i_dialog_file_select.html#a44e6acae3733f31766696fb940d0e2c5" target="_top" xlink:title="Igor::iDialogFileSelect\l::getReturnState">
<polygon fill="white" stroke="black" points="920,-147.5 920,-177.5 1031,-177.5 1031,-147.5 920,-147.5"/>
<text text-anchor="start" x="928" y="-165.5" font-family="Helvetica,sans-Serif" font-size="10.00">Igor::iDialogFileSelect</text>
<text text-anchor="middle" x="975.5" y="-154.5" font-family="Helvetica,sans-Serif" font-size="10.00">::getReturnState</text>
</a>
</g>
</g>
<!-- Node15&#45;&gt;Node16 -->
<g id="edge15" class="edge"><title>Node15&#45;&gt;Node16</title>
<path fill="none" stroke="midnightblue" d="M845.57,-128.535C865.944,-133.902 889.036,-139.985 909.992,-145.506"/>
<polygon fill="midnightblue" stroke="midnightblue" points="909.206,-148.918 919.768,-148.081 910.99,-142.149 909.206,-148.918"/>
</g>
<!-- Node17 -->
<g id="node17" class="node"><title>Node17</title>
<g id="a_node17"><a xlink:href="class_igor_1_1i_dialog_file_select.html#a622e7780aa38ad6e55dff5a05ad41070" target="_top" xlink:title="Igor::iDialogFileSelect\l::getFullPath">
<polygon fill="white" stroke="black" points="920,-98.5 920,-128.5 1031,-128.5 1031,-98.5 920,-98.5"/>
<text text-anchor="start" x="928" y="-116.5" font-family="Helvetica,sans-Serif" font-size="10.00">Igor::iDialogFileSelect</text>
<text text-anchor="middle" x="975.5" y="-105.5" font-family="Helvetica,sans-Serif" font-size="10.00">::getFullPath</text>
</a>
</g>
</g>
<!-- Node15&#45;&gt;Node17 -->
<g id="edge16" class="edge"><title>Node15&#45;&gt;Node17</title>
<path fill="none" stroke="midnightblue" d="M859.084,-113.5C875.765,-113.5 893.468,-113.5 909.87,-113.5"/>
<polygon fill="midnightblue" stroke="midnightblue" points="909.894,-117 919.894,-113.5 909.894,-110 909.894,-117"/>
</g>
<!-- Node29 -->
<g id="node29" class="node"><title>Node29</title>
<g id="a_node29"><a xlink:href="class_igor_1_1i_widget_text_edit.html#a6ff2275f7f801cbb45822ef926427570" target="_top" xlink:title="Igor::iWidgetTextEdit\l::getText">
<polygon fill="white" stroke="black" points="922,-49.5 922,-79.5 1029,-79.5 1029,-49.5 922,-49.5"/>
<text text-anchor="start" x="930" y="-67.5" font-family="Helvetica,sans-Serif" font-size="10.00">Igor::iWidgetTextEdit</text>
<text text-anchor="middle" x="975.5" y="-56.5" font-family="Helvetica,sans-Serif" font-size="10.00">::getText</text>
</a>
</g>
</g>
<!-- Node15&#45;&gt;Node29 -->
<g id="edge36" class="edge"><title>Node15&#45;&gt;Node29</title>
<path fill="none" stroke="midnightblue" d="M845.57,-98.4654C866.684,-92.9031 890.718,-86.5716 912.268,-80.8945"/>
<polygon fill="midnightblue" stroke="midnightblue" points="913.196,-84.2694 921.975,-78.3373 911.413,-77.5003 913.196,-84.2694"/>
</g>
<!-- Node30 -->
<g id="node30" class="node"><title>Node30</title>
<g id="a_node30"><a xlink:href="class_igor_1_1i_user_control_file_chooser.html#ad8d3af19f48e2eaf2df7475e55faba2d" target="_top" xlink:title="Igor::iUserControlFileChooser\l::setFileName">
<polygon fill="white" stroke="black" points="904,-0.5 904,-30.5 1047,-30.5 1047,-0.5 904,-0.5"/>
<text text-anchor="start" x="912" y="-18.5" font-family="Helvetica,sans-Serif" font-size="10.00">Igor::iUserControlFileChooser</text>
<text text-anchor="middle" x="975.5" y="-7.5" font-family="Helvetica,sans-Serif" font-size="10.00">::setFileName</text>
</a>
</g>
</g>
<!-- Node15&#45;&gt;Node30 -->
<g id="edge37" class="edge"><title>Node15&#45;&gt;Node30</title>
<path fill="none" stroke="midnightblue" d="M806.625,-98.2243C826.979,-81.7342 861.552,-55.666 895,-39.5 898.977,-37.5776 903.141,-35.7716 907.391,-34.0817"/>
<polygon fill="midnightblue" stroke="midnightblue" points="908.649,-37.348 916.79,-30.5673 906.197,-30.7914 908.649,-37.348"/>
</g>
<!-- Node18 -->
<g id="node18" class="node"><title>Node18</title>
<g id="a_node18"><a xlink:href="class_igor_aux_1_1ia_directory.html#a9934e835bf1a0f24673e13513b697fab" target="_top" xlink:title="IgorAux::iaDirectory\l::fixPath">
<polygon fill="white" stroke="black" points="1094.5,-177.5 1094.5,-207.5 1196.5,-207.5 1196.5,-177.5 1094.5,-177.5"/>
<text text-anchor="start" x="1102.5" y="-195.5" font-family="Helvetica,sans-Serif" font-size="10.00">IgorAux::iaDirectory</text>
<text text-anchor="middle" x="1145.5" y="-184.5" font-family="Helvetica,sans-Serif" font-size="10.00">::fixPath</text>
</a>
</g>
</g>
<!-- Node17&#45;&gt;Node18 -->
<g id="edge17" class="edge"><title>Node17&#45;&gt;Node18</title>
<path fill="none" stroke="midnightblue" d="M1031.08,-127.896C1039.56,-130.725 1048.12,-133.936 1056,-137.5 1076.77,-146.893 1098.54,-160.367 1115.29,-171.628"/>
<polygon fill="midnightblue" stroke="midnightblue" points="1113.33,-174.527 1123.56,-177.282 1117.28,-168.749 1113.33,-174.527"/>
</g>
<!-- Node28 -->
<g id="node28" class="node"><title>Node28</title>
<g id="a_node28"><a xlink:href="class_igor_aux_1_1ia_directory.html#a9dd49ace0ad968ebeedbd1f862beaf2b" target="_top" xlink:title="IgorAux::iaDirectory\l::getPathSeperator">
<polygon fill="white" stroke="black" points="1094.5,-98.5 1094.5,-128.5 1196.5,-128.5 1196.5,-98.5 1094.5,-98.5"/>
<text text-anchor="start" x="1102.5" y="-116.5" font-family="Helvetica,sans-Serif" font-size="10.00">IgorAux::iaDirectory</text>
<text text-anchor="middle" x="1145.5" y="-105.5" font-family="Helvetica,sans-Serif" font-size="10.00">::getPathSeperator</text>
</a>
</g>
</g>
<!-- Node17&#45;&gt;Node28 -->
<g id="edge34" class="edge"><title>Node17&#45;&gt;Node28</title>
<path fill="none" stroke="midnightblue" d="M1031.04,-113.5C1048.1,-113.5 1067.02,-113.5 1084.44,-113.5"/>
<polygon fill="midnightblue" stroke="midnightblue" points="1084.49,-117 1094.49,-113.5 1084.49,-110 1084.49,-117"/>
</g>
<!-- Node19 -->
<g id="node19" class="node"><title>Node19</title>
<g id="a_node19"><a xlink:href="class_igor_aux_1_1ia_string.html#ad733ce0b92ae32cdb253e4fa0ad85e3f" target="_top" xlink:title="IgorAux::iaString::\lgetSubString">
<polygon fill="white" stroke="black" points="1366,-295.5 1366,-325.5 1461,-325.5 1461,-295.5 1366,-295.5"/>
<text text-anchor="start" x="1374" y="-313.5" font-family="Helvetica,sans-Serif" font-size="10.00">IgorAux::iaString::</text>
<text text-anchor="middle" x="1413.5" y="-302.5" font-family="Helvetica,sans-Serif" font-size="10.00">getSubString</text>
</a>
</g>
</g>
<!-- Node18&#45;&gt;Node19 -->
<g id="edge18" class="edge"><title>Node18&#45;&gt;Node19</title>
<path fill="none" stroke="midnightblue" d="M1161.04,-207.734C1177.5,-224.103 1205.84,-249.749 1235,-264.5 1273.04,-283.74 1319.85,-295.438 1355.85,-302.22"/>
<polygon fill="midnightblue" stroke="midnightblue" points="1355.23,-305.666 1365.7,-304.005 1356.48,-298.778 1355.23,-305.666"/>
</g>
<!-- Node21 -->
<g id="node21" class="node"><title>Node21</title>
<g id="a_node21"><a xlink:href="class_igor_aux_1_1ia_string.html#a59aa54666dd7c142a73347a73170f7e3" target="_top" xlink:title="IgorAux::iaString::\lfindLastOf">
<polygon fill="white" stroke="black" points="1235,-153.5 1235,-183.5 1330,-183.5 1330,-153.5 1235,-153.5"/>
<text text-anchor="start" x="1243" y="-171.5" font-family="Helvetica,sans-Serif" font-size="10.00">IgorAux::iaString::</text>
<text text-anchor="middle" x="1282.5" y="-160.5" font-family="Helvetica,sans-Serif" font-size="10.00">findLastOf</text>
</a>
</g>
</g>
<!-- Node18&#45;&gt;Node21 -->
<g id="edge21" class="edge"><title>Node18&#45;&gt;Node21</title>
<path fill="none" stroke="midnightblue" d="M1196.77,-183.563C1205.91,-181.939 1215.5,-180.234 1224.81,-178.579"/>
<polygon fill="midnightblue" stroke="midnightblue" points="1225.53,-182.005 1234.76,-176.809 1224.3,-175.113 1225.53,-182.005"/>
</g>
<!-- Node23 -->
<g id="node23" class="node"><title>Node23</title>
<g id="a_node23"><a xlink:href="class_igor_aux_1_1ia_string.html#ad748ecfc41a5a2c74b3c94572c3db864" target="_top" xlink:title="IgorAux::iaString::\lfindFirstOf">
<polygon fill="white" stroke="black" points="1366,-246.5 1366,-276.5 1461,-276.5 1461,-246.5 1366,-246.5"/>
<text text-anchor="start" x="1374" y="-264.5" font-family="Helvetica,sans-Serif" font-size="10.00">IgorAux::iaString::</text>
<text text-anchor="middle" x="1413.5" y="-253.5" font-family="Helvetica,sans-Serif" font-size="10.00">findFirstOf</text>
</a>
</g>
</g>
<!-- Node18&#45;&gt;Node23 -->
<g id="edge23" class="edge"><title>Node18&#45;&gt;Node23</title>
<path fill="none" stroke="midnightblue" d="M1167.95,-207.548C1185.22,-218.863 1210.57,-233.704 1235,-241.5 1274.12,-253.986 1320.27,-258.906 1355.7,-260.747"/>
<polygon fill="midnightblue" stroke="midnightblue" points="1355.72,-264.251 1365.86,-261.206 1356.03,-257.258 1355.72,-264.251"/>
</g>
<!-- Node24 -->
<g id="node24" class="node"><title>Node24</title>
<g id="a_node24"><a xlink:href="class_igor_aux_1_1ia_string.html#a9d5321ccb47f6bf2910409f0da56f08e" target="_top" xlink:title="IgorAux::iaString::\lsplit">
<polygon fill="white" stroke="black" points="1235,-202.5 1235,-232.5 1330,-232.5 1330,-202.5 1235,-202.5"/>
<text text-anchor="start" x="1243" y="-220.5" font-family="Helvetica,sans-Serif" font-size="10.00">IgorAux::iaString::</text>
<text text-anchor="middle" x="1282.5" y="-209.5" font-family="Helvetica,sans-Serif" font-size="10.00">split</text>
</a>
</g>
</g>
<!-- Node18&#45;&gt;Node24 -->
<g id="edge25" class="edge"><title>Node18&#45;&gt;Node24</title>
<path fill="none" stroke="midnightblue" d="M1196.77,-201.809C1205.91,-203.501 1215.5,-205.277 1224.81,-207.001"/>
<polygon fill="midnightblue" stroke="midnightblue" points="1224.29,-210.466 1234.76,-208.845 1225.57,-203.583 1224.29,-210.466"/>
</g>
<!-- Node27 -->
<g id="node27" class="node"><title>Node27</title>
<g id="a_node27"><a xlink:href="class_igor_aux_1_1ia_string.html#abc7b1d9a289302f79de14684de13ab1f" target="_top" xlink:title="IgorAux::iaString::\lclear">
<polygon fill="white" stroke="black" points="1235,-104.5 1235,-134.5 1330,-134.5 1330,-104.5 1235,-104.5"/>
<text text-anchor="start" x="1243" y="-122.5" font-family="Helvetica,sans-Serif" font-size="10.00">IgorAux::iaString::</text>
<text text-anchor="middle" x="1282.5" y="-111.5" font-family="Helvetica,sans-Serif" font-size="10.00">clear</text>
</a>
</g>
</g>
<!-- Node18&#45;&gt;Node27 -->
<g id="edge33" class="edge"><title>Node18&#45;&gt;Node27</title>
<path fill="none" stroke="midnightblue" d="M1173.5,-177.283C1190.97,-167.503 1214.25,-154.598 1235,-143.5 1237.55,-142.134 1240.19,-140.737 1242.85,-139.336"/>
<polygon fill="midnightblue" stroke="midnightblue" points="1244.67,-142.338 1251.91,-134.606 1241.43,-136.133 1244.67,-142.338"/>
</g>
<!-- Node19&#45;&gt;Node7 -->
<g id="edge20" class="edge"><title>Node19&#45;&gt;Node7</title>
<path fill="none" stroke="midnightblue" d="M1455.67,-325.5C1467.42,-329.782 1480.37,-334.5 1492.63,-338.966"/>
<polygon fill="midnightblue" stroke="midnightblue" points="1491.68,-342.346 1502.28,-342.481 1494.08,-335.769 1491.68,-342.346"/>
</g>
<!-- Node20 -->
<g id="node20" class="node"><title>Node20</title>
<g id="a_node20"><a xlink:href="class_igor_aux_1_1ia_string.html#affa8c96a2d7340a79b9e97d84e2585a4" target="_top" xlink:title="IgorAux::iaString::\liaString">
<polygon fill="white" stroke="black" points="1497,-293.5 1497,-323.5 1592,-323.5 1592,-293.5 1497,-293.5"/>
<text text-anchor="start" x="1505" y="-311.5" font-family="Helvetica,sans-Serif" font-size="10.00">IgorAux::iaString::</text>
<text text-anchor="middle" x="1544.5" y="-300.5" font-family="Helvetica,sans-Serif" font-size="10.00">iaString</text>
</a>
</g>
</g>
<!-- Node19&#45;&gt;Node20 -->
<g id="edge19" class="edge"><title>Node19&#45;&gt;Node20</title>
<path fill="none" stroke="midnightblue" d="M1461.07,-309.778C1469.48,-309.648 1478.32,-309.511 1486.97,-309.376"/>
<polygon fill="midnightblue" stroke="midnightblue" points="1487.05,-312.876 1497,-309.221 1486.94,-305.877 1487.05,-312.876"/>
</g>
<!-- Node22 -->
<g id="node22" class="node"><title>Node22</title>
<g id="a_node22"><a xlink:href="class_igor_aux_1_1ia_string.html#afb40afde994d28224201cd9cb28909f7" target="_top" xlink:title="IgorAux::iaString::\lisEmpty">
<polygon fill="white" stroke="black" points="1497,-180.5 1497,-210.5 1592,-210.5 1592,-180.5 1497,-180.5"/>
<text text-anchor="start" x="1505" y="-198.5" font-family="Helvetica,sans-Serif" font-size="10.00">IgorAux::iaString::</text>
<text text-anchor="middle" x="1544.5" y="-187.5" font-family="Helvetica,sans-Serif" font-size="10.00">isEmpty</text>
</a>
</g>
</g>
<!-- Node21&#45;&gt;Node22 -->
<g id="edge22" class="edge"><title>Node21&#45;&gt;Node22</title>
<path fill="none" stroke="midnightblue" d="M1315.58,-153.415C1320.63,-150.443 1325.61,-147.114 1330,-143.5 1349.5,-127.433 1343.17,-110.32 1366,-99.5 1404.15,-81.4192 1422.63,-81.8818 1461,-99.5 1492.95,-114.168 1517.18,-147.987 1530.87,-171.298"/>
<polygon fill="midnightblue" stroke="midnightblue" points="1527.96,-173.263 1535.92,-180.256 1534.06,-169.826 1527.96,-173.263"/>
</g>
<!-- Node23&#45;&gt;Node22 -->
<g id="edge24" class="edge"><title>Node23&#45;&gt;Node22</title>
<path fill="none" stroke="midnightblue" d="M1444.1,-246.358C1462.2,-237.093 1485.57,-225.141 1505.09,-215.151"/>
<polygon fill="midnightblue" stroke="midnightblue" points="1506.73,-218.242 1514.04,-210.571 1503.55,-212.01 1506.73,-218.242"/>
</g>
<!-- Node24&#45;&gt;Node7 -->
<g id="edge29" class="edge"><title>Node24&#45;&gt;Node7</title>
<path fill="none" stroke="midnightblue" d="M1289.4,-232.771C1300.25,-258.58 1325.99,-310.366 1366,-334.5 1402.12,-356.285 1449.84,-361.434 1486.7,-361.464"/>
<polygon fill="midnightblue" stroke="midnightblue" points="1486.83,-364.963 1496.79,-361.347 1486.75,-357.964 1486.83,-364.963"/>
</g>
<!-- Node24&#45;&gt;Node19 -->
<g id="edge31" class="edge"><title>Node24&#45;&gt;Node19</title>
<path fill="none" stroke="midnightblue" d="M1299.81,-232.578C1315.93,-247.081 1341.65,-269.152 1366,-285.5 1368.43,-287.129 1370.97,-288.739 1373.56,-290.311"/>
<polygon fill="midnightblue" stroke="midnightblue" points="1372.06,-293.49 1382.47,-295.476 1375.57,-287.433 1372.06,-293.49"/>
</g>
<!-- Node24&#45;&gt;Node22 -->
<g id="edge26" class="edge"><title>Node24&#45;&gt;Node22</title>
<path fill="none" stroke="midnightblue" d="M1330.28,-213.541C1374.14,-209.83 1439.8,-204.274 1486.66,-200.31"/>
<polygon fill="midnightblue" stroke="midnightblue" points="1486.99,-203.795 1496.65,-199.464 1486.4,-196.82 1486.99,-203.795"/>
</g>
<!-- Node24&#45;&gt;Node23 -->
<g id="edge30" class="edge"><title>Node24&#45;&gt;Node23</title>
<path fill="none" stroke="midnightblue" d="M1327.53,-232.519C1337.49,-235.915 1348.17,-239.559 1358.49,-243.077"/>
<polygon fill="midnightblue" stroke="midnightblue" points="1357.63,-246.483 1368.23,-246.399 1359.89,-239.858 1357.63,-246.483"/>
</g>
<!-- Node25 -->
<g id="node25" class="node"><title>Node25</title>
<g id="a_node25"><a xlink:href="class_igor_aux_1_1ia_string.html#a7e261d6c82b88b2cd963296db78dc7a7" target="_top" xlink:title="IgorAux::iaString::\lfindFirstNotOf">
<polygon fill="white" stroke="black" points="1366,-158.5 1366,-188.5 1461,-188.5 1461,-158.5 1366,-158.5"/>
<text text-anchor="start" x="1374" y="-176.5" font-family="Helvetica,sans-Serif" font-size="10.00">IgorAux::iaString::</text>
<text text-anchor="middle" x="1413.5" y="-165.5" font-family="Helvetica,sans-Serif" font-size="10.00">findFirstNotOf</text>
</a>
</g>
</g>
<!-- Node24&#45;&gt;Node25 -->
<g id="edge27" class="edge"><title>Node24&#45;&gt;Node25</title>
<path fill="none" stroke="midnightblue" d="M1327.53,-202.481C1337.49,-199.085 1348.17,-195.441 1358.49,-191.923"/>
<polygon fill="midnightblue" stroke="midnightblue" points="1359.89,-195.142 1368.23,-188.601 1357.63,-188.517 1359.89,-195.142"/>
</g>
<!-- Node26 -->
<g id="node26" class="node"><title>Node26</title>
<g id="a_node26"><a xlink:href="class_igor_aux_1_1ia_string.html#a6d9c01e546c1e33c9924bc2695d5fc17" target="_top" xlink:title="IgorAux::iaString::\lgetSize">
<polygon fill="white" stroke="black" points="1366,-109.5 1366,-139.5 1461,-139.5 1461,-109.5 1366,-109.5"/>
<text text-anchor="start" x="1374" y="-127.5" font-family="Helvetica,sans-Serif" font-size="10.00">IgorAux::iaString::</text>
<text text-anchor="middle" x="1413.5" y="-116.5" font-family="Helvetica,sans-Serif" font-size="10.00">getSize</text>
</a>
</g>
</g>
<!-- Node24&#45;&gt;Node26 -->
<g id="edge32" class="edge"><title>Node24&#45;&gt;Node26</title>
<path fill="none" stroke="midnightblue" d="M1315.58,-202.415C1320.63,-199.443 1325.61,-196.114 1330,-192.5 1349.5,-176.433 1346.37,-164.403 1366,-148.5 1367.36,-147.399 1368.78,-146.328 1370.24,-145.289"/>
<polygon fill="midnightblue" stroke="midnightblue" points="1372.42,-148.045 1378.94,-139.694 1368.64,-142.157 1372.42,-148.045"/>
</g>
<!-- Node25&#45;&gt;Node22 -->
<g id="edge28" class="edge"><title>Node25&#45;&gt;Node22</title>
<path fill="none" stroke="midnightblue" d="M1461.07,-181.443C1469.48,-182.876 1478.32,-184.384 1486.97,-185.859"/>
<polygon fill="midnightblue" stroke="midnightblue" points="1486.55,-189.338 1497,-187.569 1487.73,-182.438 1486.55,-189.338"/>
</g>
<!-- Node31 -->
<g id="node31" class="node"><title>Node31</title>
<g id="a_node31"><a xlink:href="class_igor_1_1i_widget_text_edit.html#a6c6ff0219d37e32d4b614587e7009213" target="_top" xlink:title="Igor::iWidgetTextEdit\l::setText">
<polygon fill="white" stroke="black" points="1092,-0.5 1092,-30.5 1199,-30.5 1199,-0.5 1092,-0.5"/>
<text text-anchor="start" x="1100" y="-18.5" font-family="Helvetica,sans-Serif" font-size="10.00">Igor::iWidgetTextEdit</text>
<text text-anchor="middle" x="1145.5" y="-7.5" font-family="Helvetica,sans-Serif" font-size="10.00">::setText</text>
</a>
</g>
</g>
<!-- Node30&#45;&gt;Node31 -->
<g id="edge38" class="edge"><title>Node30&#45;&gt;Node31</title>
<path fill="none" stroke="midnightblue" d="M1047.26,-15.5C1058.73,-15.5 1070.53,-15.5 1081.79,-15.5"/>
<polygon fill="midnightblue" stroke="midnightblue" points="1081.95,-19.0001 1091.95,-15.5 1081.95,-12.0001 1081.95,-19.0001"/>
</g>
<!-- Node32&#45;&gt;Node6 -->
<g id="edge40" class="edge"><title>Node32&#45;&gt;Node6</title>
<path fill="none" stroke="midnightblue" d="M663.086,-480.665C684.351,-474.779 708.819,-468.005 730.331,-462.05"/>
<polygon fill="midnightblue" stroke="midnightblue" points="731.282,-465.418 739.985,-459.377 729.414,-458.672 731.282,-465.418"/>
</g>
<!-- Node32&#45;&gt;Node8 -->
<g id="edge41" class="edge"><title>Node32&#45;&gt;Node8</title>
<path fill="none" stroke="midnightblue" d="M663.086,-494.592C683.28,-494.249 706.363,-493.858 727.06,-493.507"/>
<polygon fill="midnightblue" stroke="midnightblue" points="727.381,-497.003 737.321,-493.334 727.263,-490.004 727.381,-497.003"/>
</g>
</g>
</svg>
