<?xml version="1.0" encoding="UTF-8" standalone="no"?>
<!DOCTYPE svg PUBLIC "-//W3C//DTD SVG 1.1//EN"
 "http://www.w3.org/Graphics/SVG/1.1/DTD/svg11.dtd">
<!-- Generated by graphviz version 2.38.0 (20140413.2041)
 -->
<!-- Title: Igor::iNodeRender::getWorldMatrix Pages: 1 -->
<svg width="310pt" height="116pt"
 viewBox="0.00 0.00 310.00 115.50" xmlns="http://www.w3.org/2000/svg" xmlns:xlink="http://www.w3.org/1999/xlink">
<g id="graph0" class="graph" transform="scale(1 1) rotate(0) translate(4 111.5)">
<title>Igor::iNodeRender::getWorldMatrix</title>
<polygon fill="white" stroke="none" points="-4,4 -4,-111.5 306,-111.5 306,4 -4,4"/>
<!-- Node1 -->
<g id="node1" class="node"><title>Node1</title>
<polygon fill="#bfbfbf" stroke="black" points="0,-33 0,-63 100,-63 100,-33 0,-33"/>
<text text-anchor="start" x="8" y="-51" font-family="Helvetica,sans-Serif" font-size="10.00">Igor::iNodeRender::</text>
<text text-anchor="middle" x="50" y="-40" font-family="Helvetica,sans-Serif" font-size="10.00">getWorldMatrix</text>
</g>
<!-- Node2 -->
<g id="node2" class="node"><title>Node2</title>
<g id="a_node2"><a xlink:href="class_igor_1_1i_node_visitor_boundings.html#a4628da61fa0214189f1360b3dd5db685" target="_top" xlink:title="Igor::iNodeVisitorBoundings\l::preOrderVisit">
<polygon fill="white" stroke="black" points="150.5,-77 150.5,-107 287.5,-107 287.5,-77 150.5,-77"/>
<text text-anchor="start" x="158.5" y="-95" font-family="Helvetica,sans-Serif" font-size="10.00">Igor::iNodeVisitorBoundings</text>
<text text-anchor="middle" x="219" y="-84" font-family="Helvetica,sans-Serif" font-size="10.00">::preOrderVisit</text>
</a>
</g>
</g>
<!-- Node1&#45;&gt;Node2 -->
<g id="edge1" class="edge"><title>Node1&#45;&gt;Node2</title>
<path fill="none" stroke="midnightblue" d="M110.255,-63.612C126.727,-67.952 144.578,-72.6552 160.922,-76.9615"/>
<polygon fill="midnightblue" stroke="midnightblue" points="110.764,-60.1268 100.202,-60.9635 108.981,-66.8958 110.764,-60.1268"/>
</g>
<!-- Node3 -->
<g id="node3" class="node"><title>Node3</title>
<g id="a_node3"><a xlink:href="class_manipulator.html#a625692bdcdb2e123dbcba3d845ebbbcc" target="_top" xlink:title="Manipulator::highlightSelected">
<polygon fill="white" stroke="black" points="145.5,-38.5 145.5,-57.5 292.5,-57.5 292.5,-38.5 145.5,-38.5"/>
<text text-anchor="middle" x="219" y="-45.5" font-family="Helvetica,sans-Serif" font-size="10.00">Manipulator::highlightSelected</text>
</a>
</g>
</g>
<!-- Node1&#45;&gt;Node3 -->
<g id="edge2" class="edge"><title>Node1&#45;&gt;Node3</title>
<path fill="none" stroke="midnightblue" d="M110.382,-48C121.693,-48 133.65,-48 145.321,-48"/>
<polygon fill="midnightblue" stroke="midnightblue" points="110.202,-44.5001 100.202,-48 110.202,-51.5001 110.202,-44.5001"/>
</g>
<!-- Node4 -->
<g id="node4" class="node"><title>Node4</title>
<g id="a_node4"><a xlink:href="class_model_viewer.html#a4f285cd99256bc37dd4b1e60919de91b" target="_top" xlink:title="ModelViewer::renderNodeSelected">
<polygon fill="white" stroke="black" points="136,-0.5 136,-19.5 302,-19.5 302,-0.5 136,-0.5"/>
<text text-anchor="middle" x="219" y="-7.5" font-family="Helvetica,sans-Serif" font-size="10.00">ModelViewer::renderNodeSelected</text>
</a>
</g>
</g>
<!-- Node1&#45;&gt;Node4 -->
<g id="edge3" class="edge"><title>Node1&#45;&gt;Node4</title>
<path fill="none" stroke="midnightblue" d="M110.045,-34.5646C131.896,-29.5925 156.197,-24.0629 176.202,-19.5109"/>
<polygon fill="midnightblue" stroke="midnightblue" points="109.176,-31.1727 100.202,-36.8043 110.73,-37.9982 109.176,-31.1727"/>
</g>
</g>
</svg>
