<?xml version="1.0" encoding="UTF-8" standalone="no"?>
<!DOCTYPE svg PUBLIC "-//W3C//DTD SVG 1.1//EN"
 "http://www.w3.org/Graphics/SVG/1.1/DTD/svg11.dtd">
<!-- Generated by graphviz version 2.38.0 (20140413.2041)
 -->
<!-- Title: OMPF::ompfBaseChunk::getSize Pages: 1 -->
<svg width="506pt" height="557pt"
 viewBox="0.00 0.00 506.00 556.50" xmlns="http://www.w3.org/2000/svg" xmlns:xlink="http://www.w3.org/1999/xlink">
<g id="graph0" class="graph" transform="scale(1 1) rotate(0) translate(4 552.5)">
<title>OMPF::ompfBaseChunk::getSize</title>
<polygon fill="white" stroke="none" points="-4,4 -4,-552.5 502,-552.5 502,4 -4,4"/>
<!-- Node1 -->
<g id="node1" class="node"><title>Node1</title>
<polygon fill="#bfbfbf" stroke="black" points="0,-147.5 0,-177.5 122,-177.5 122,-147.5 0,-147.5"/>
<text text-anchor="start" x="8" y="-165.5" font-family="Helvetica,sans-Serif" font-size="10.00">OMPF::ompfBaseChunk</text>
<text text-anchor="middle" x="61" y="-154.5" font-family="Helvetica,sans-Serif" font-size="10.00">::getSize</text>
</g>
<!-- Node2 -->
<g id="node2" class="node"><title>Node2</title>
<g id="a_node2"><a xlink:href="class_o_m_p_f_1_1ompf_base_chunk.html#a6f186b41de009cec29ae83a8929f8cea" target="_top" xlink:title="OMPF::ompfBaseChunk\l::write">
<polygon fill="white" stroke="black" points="173,-294.5 173,-324.5 295,-324.5 295,-294.5 173,-294.5"/>
<text text-anchor="start" x="181" y="-312.5" font-family="Helvetica,sans-Serif" font-size="10.00">OMPF::ompfBaseChunk</text>
<text text-anchor="middle" x="234" y="-301.5" font-family="Helvetica,sans-Serif" font-size="10.00">::write</text>
</a>
</g>
</g>
<!-- Node1&#45;&gt;Node2 -->
<g id="edge1" class="edge"><title>Node1&#45;&gt;Node2</title>
<path fill="none" stroke="midnightblue" d="M74.9502,-186.798C90.9312,-214.542 120.632,-259.445 158,-285.5 162.934,-288.94 168.388,-291.907 174.037,-294.462"/>
<polygon fill="midnightblue" stroke="midnightblue" points="77.8248,-184.769 69.8796,-177.76 71.7198,-188.193 77.8248,-184.769"/>
</g>
<!-- Node14 -->
<g id="node14" class="node"><title>Node14</title>
<g id="a_node14"><a xlink:href="class_o_m_p_f_1_1ompf_external_reference_chunk.html#a2c053e2524ee60e83375476e794f9841" target="_top" xlink:title="OMPF::ompfExternalReference\lChunk::getSize">
<polygon fill="white" stroke="black" points="158,-245.5 158,-275.5 310,-275.5 310,-245.5 158,-245.5"/>
<text text-anchor="start" x="166" y="-263.5" font-family="Helvetica,sans-Serif" font-size="10.00">OMPF::ompfExternalReference</text>
<text text-anchor="middle" x="234" y="-252.5" font-family="Helvetica,sans-Serif" font-size="10.00">Chunk::getSize</text>
</a>
</g>
</g>
<!-- Node1&#45;&gt;Node14 -->
<g id="edge13" class="edge"><title>Node1&#45;&gt;Node14</title>
<path fill="none" stroke="midnightblue" d="M86.1807,-184.487C104.726,-200.418 131.551,-221.53 158,-235.5 165.039,-239.218 172.738,-242.534 180.437,-245.441"/>
<polygon fill="midnightblue" stroke="midnightblue" points="88.3534,-181.737 78.5197,-177.794 83.748,-187.009 88.3534,-181.737"/>
</g>
<!-- Node15 -->
<g id="node15" class="node"><title>Node15</title>
<g id="a_node15"><a xlink:href="class_o_m_p_f_1_1ompf_group_chunk.html#a96c2548c838c158106ad603a7df214e0" target="_top" xlink:title="OMPF::ompfGroupChunk\l::getSize">
<polygon fill="white" stroke="black" points="171,-196.5 171,-226.5 297,-226.5 297,-196.5 171,-196.5"/>
<text text-anchor="start" x="179" y="-214.5" font-family="Helvetica,sans-Serif" font-size="10.00">OMPF::ompfGroupChunk</text>
<text text-anchor="middle" x="234" y="-203.5" font-family="Helvetica,sans-Serif" font-size="10.00">::getSize</text>
</a>
</g>
</g>
<!-- Node1&#45;&gt;Node15 -->
<g id="edge14" class="edge"><title>Node1&#45;&gt;Node15</title>
<path fill="none" stroke="midnightblue" d="M124.447,-180.394C142.839,-185.664 162.77,-191.376 180.473,-196.448"/>
<polygon fill="midnightblue" stroke="midnightblue" points="125.278,-176.992 114.701,-177.601 123.35,-183.721 125.278,-176.992"/>
</g>
<!-- Node16 -->
<g id="node16" class="node"><title>Node16</title>
<g id="a_node16"><a xlink:href="class_o_m_p_f_1_1ompf_header_chunk.html#a53154e081557780d08d9b3a303ada97a" target="_top" xlink:title="OMPF::ompfHeaderChunk\l::getSize">
<polygon fill="white" stroke="black" points="168.5,-147.5 168.5,-177.5 299.5,-177.5 299.5,-147.5 168.5,-147.5"/>
<text text-anchor="start" x="176.5" y="-165.5" font-family="Helvetica,sans-Serif" font-size="10.00">OMPF::ompfHeaderChunk</text>
<text text-anchor="middle" x="234" y="-154.5" font-family="Helvetica,sans-Serif" font-size="10.00">::getSize</text>
</a>
</g>
</g>
<!-- Node1&#45;&gt;Node16 -->
<g id="edge15" class="edge"><title>Node1&#45;&gt;Node16</title>
<path fill="none" stroke="midnightblue" d="M132.567,-162.5C144.407,-162.5 156.641,-162.5 168.323,-162.5"/>
<polygon fill="midnightblue" stroke="midnightblue" points="132.288,-159 122.288,-162.5 132.288,-166 132.288,-159"/>
</g>
<!-- Node17 -->
<g id="node17" class="node"><title>Node17</title>
<g id="a_node17"><a xlink:href="class_o_m_p_f_1_1ompf_material_chunk.html#abe443abefded7498cf398e8e7a9ebce5" target="_top" xlink:title="OMPF::ompfMaterialChunk\l::getSize">
<polygon fill="white" stroke="black" points="167,-98.5 167,-128.5 301,-128.5 301,-98.5 167,-98.5"/>
<text text-anchor="start" x="175" y="-116.5" font-family="Helvetica,sans-Serif" font-size="10.00">OMPF::ompfMaterialChunk</text>
<text text-anchor="middle" x="234" y="-105.5" font-family="Helvetica,sans-Serif" font-size="10.00">::getSize</text>
</a>
</g>
</g>
<!-- Node1&#45;&gt;Node17 -->
<g id="edge16" class="edge"><title>Node1&#45;&gt;Node17</title>
<path fill="none" stroke="midnightblue" d="M124.447,-144.606C142.839,-139.336 162.77,-133.624 180.473,-128.552"/>
<polygon fill="midnightblue" stroke="midnightblue" points="123.35,-141.279 114.701,-147.399 125.278,-148.008 123.35,-141.279"/>
</g>
<!-- Node18 -->
<g id="node18" class="node"><title>Node18</title>
<g id="a_node18"><a xlink:href="class_o_m_p_f_1_1ompf_resource_search_path_chunk.html#ae01bb05c6d15ee703d033d7569fbedc9" target="_top" xlink:title="OMPF::ompfResourceSearch\lPathChunk::getSize">
<polygon fill="white" stroke="black" points="162,-49.5 162,-79.5 306,-79.5 306,-49.5 162,-49.5"/>
<text text-anchor="start" x="170" y="-67.5" font-family="Helvetica,sans-Serif" font-size="10.00">OMPF::ompfResourceSearch</text>
<text text-anchor="middle" x="234" y="-56.5" font-family="Helvetica,sans-Serif" font-size="10.00">PathChunk::getSize</text>
</a>
</g>
</g>
<!-- Node1&#45;&gt;Node18 -->
<g id="edge17" class="edge"><title>Node1&#45;&gt;Node18</title>
<path fill="none" stroke="midnightblue" d="M85.7427,-140.395C104.247,-124.152 131.217,-102.553 158,-88.5 164.295,-85.197 171.127,-82.2456 178.019,-79.6393"/>
<polygon fill="midnightblue" stroke="midnightblue" points="83.2377,-137.939 78.112,-147.211 87.9013,-143.159 83.2377,-137.939"/>
</g>
<!-- Node19 -->
<g id="node19" class="node"><title>Node19</title>
<g id="a_node19"><a xlink:href="class_o_m_p_f_1_1ompf_transform_chunk.html#abcbe11533efd73c6a1fe1e456bf6bdc7" target="_top" xlink:title="OMPF::ompfTransformChunk\l::getSize">
<polygon fill="white" stroke="black" points="162.5,-0.5 162.5,-30.5 305.5,-30.5 305.5,-0.5 162.5,-0.5"/>
<text text-anchor="start" x="170.5" y="-18.5" font-family="Helvetica,sans-Serif" font-size="10.00">OMPF::ompfTransformChunk</text>
<text text-anchor="middle" x="234" y="-7.5" font-family="Helvetica,sans-Serif" font-size="10.00">::getSize</text>
</a>
</g>
</g>
<!-- Node1&#45;&gt;Node19 -->
<g id="edge18" class="edge"><title>Node1&#45;&gt;Node19</title>
<path fill="none" stroke="midnightblue" d="M74.9502,-138.202C90.9312,-110.458 120.632,-65.5553 158,-39.5 162.934,-36.0595 168.388,-33.0927 174.037,-30.5384"/>
<polygon fill="midnightblue" stroke="midnightblue" points="71.7198,-136.807 69.8796,-147.24 77.8248,-140.231 71.7198,-136.807"/>
</g>
<!-- Node3 -->
<g id="node3" class="node"><title>Node3</title>
<g id="a_node3"><a xlink:href="class_o_m_p_f_1_1_o_m_p_f.html#a5b2b8784a1caf169716bfc39e722ca7d" target="_top" xlink:title="OMPF::OMPF::writeMaterial">
<polygon fill="white" stroke="black" points="352,-529 352,-548 492,-548 492,-529 352,-529"/>
<text text-anchor="middle" x="422" y="-536" font-family="Helvetica,sans-Serif" font-size="10.00">OMPF::OMPF::writeMaterial</text>
</a>
</g>
</g>
<!-- Node2&#45;&gt;Node3 -->
<g id="edge2" class="edge"><title>Node2&#45;&gt;Node3</title>
<path fill="none" stroke="midnightblue" d="M241.077,-334.628C253.149,-379 284.458,-471.109 346,-519.5 350.963,-523.402 356.631,-526.512 362.579,-528.989"/>
<polygon fill="midnightblue" stroke="midnightblue" points="244.391,-333.467 238.477,-324.677 237.619,-335.237 244.391,-333.467"/>
</g>
<!-- Node4 -->
<g id="node4" class="node"><title>Node4</title>
<g id="a_node4"><a xlink:href="class_o_m_p_f_1_1_o_m_p_f.html#a8fd77db730303b8429524f552de91146" target="_top" xlink:title="OMPF::OMPF::write">
<polygon fill="white" stroke="black" points="369,-491 369,-510 475,-510 475,-491 369,-491"/>
<text text-anchor="middle" x="422" y="-498" font-family="Helvetica,sans-Serif" font-size="10.00">OMPF::OMPF::write</text>
</a>
</g>
</g>
<!-- Node2&#45;&gt;Node4 -->
<g id="edge3" class="edge"><title>Node2&#45;&gt;Node4</title>
<path fill="none" stroke="midnightblue" d="M244.091,-334.342C259.223,-372.115 293.232,-443.596 346,-481.5 352.764,-486.358 360.651,-489.978 368.72,-492.674"/>
<polygon fill="midnightblue" stroke="midnightblue" points="247.205,-332.693 240.323,-324.638 240.68,-335.227 247.205,-332.693"/>
</g>
<!-- Node5 -->
<g id="node5" class="node"><title>Node5</title>
<g id="a_node5"><a xlink:href="class_o_m_p_f_1_1ompf_emitter_chunk.html#acfbbcf5bc5c99d404f9cd80bcf57a8ff" target="_top" xlink:title="OMPF::ompfEmitterChunk\l::write">
<polygon fill="white" stroke="black" points="356.5,-441.5 356.5,-471.5 487.5,-471.5 487.5,-441.5 356.5,-441.5"/>
<text text-anchor="start" x="364.5" y="-459.5" font-family="Helvetica,sans-Serif" font-size="10.00">OMPF::ompfEmitterChunk</text>
<text text-anchor="middle" x="422" y="-448.5" font-family="Helvetica,sans-Serif" font-size="10.00">::write</text>
</a>
</g>
</g>
<!-- Node2&#45;&gt;Node5 -->
<g id="edge4" class="edge"><title>Node2&#45;&gt;Node5</title>
<path fill="none" stroke="midnightblue" d="M250.376,-333.014C269.598,-360.635 305.003,-406.038 346,-432.5 351.284,-435.91 357.09,-438.87 363.061,-441.431"/>
<polygon fill="midnightblue" stroke="midnightblue" points="253.244,-331.007 244.718,-324.718 247.461,-334.951 253.244,-331.007"/>
</g>
<!-- Node6 -->
<g id="node6" class="node"><title>Node6</title>
<g id="a_node6"><a xlink:href="class_o_m_p_f_1_1ompf_external_reference_chunk.html#a465f026905147cc0af22e7e43e8dcbc2" target="_top" xlink:title="OMPF::ompfExternalReference\lChunk::write">
<polygon fill="white" stroke="black" points="346,-392.5 346,-422.5 498,-422.5 498,-392.5 346,-392.5"/>
<text text-anchor="start" x="354" y="-410.5" font-family="Helvetica,sans-Serif" font-size="10.00">OMPF::ompfExternalReference</text>
<text text-anchor="middle" x="422" y="-399.5" font-family="Helvetica,sans-Serif" font-size="10.00">Chunk::write</text>
</a>
</g>
</g>
<!-- Node2&#45;&gt;Node6 -->
<g id="edge5" class="edge"><title>Node2&#45;&gt;Node6</title>
<path fill="none" stroke="midnightblue" d="M262.146,-330.731C283.862,-346.922 315.605,-368.861 346,-383.5 352.774,-386.763 360.1,-389.731 367.427,-392.382"/>
<polygon fill="midnightblue" stroke="midnightblue" points="264.143,-327.854 254.054,-324.618 259.923,-333.439 264.143,-327.854"/>
</g>
<!-- Node7 -->
<g id="node7" class="node"><title>Node7</title>
<g id="a_node7"><a xlink:href="class_o_m_p_f_1_1ompf_group_chunk.html#a250bff7aa0160678bd47562c19e07865" target="_top" xlink:title="OMPF::ompfGroupChunk\l::write">
<polygon fill="white" stroke="black" points="359,-343.5 359,-373.5 485,-373.5 485,-343.5 359,-343.5"/>
<text text-anchor="start" x="367" y="-361.5" font-family="Helvetica,sans-Serif" font-size="10.00">OMPF::ompfGroupChunk</text>
<text text-anchor="middle" x="422" y="-350.5" font-family="Helvetica,sans-Serif" font-size="10.00">::write</text>
</a>
</g>
</g>
<!-- Node2&#45;&gt;Node7 -->
<g id="edge6" class="edge"><title>Node2&#45;&gt;Node7</title>
<path fill="none" stroke="midnightblue" d="M301.895,-327.123C322.244,-332.484 344.408,-338.323 364.038,-343.494"/>
<polygon fill="midnightblue" stroke="midnightblue" points="302.632,-323.698 292.07,-324.535 300.849,-330.467 302.632,-323.698"/>
</g>
<!-- Node8 -->
<g id="node8" class="node"><title>Node8</title>
<g id="a_node8"><a xlink:href="class_o_m_p_f_1_1ompf_header_chunk.html#a54b14e4116050ddae69c7a75542bd3e1" target="_top" xlink:title="OMPF::ompfHeaderChunk\l::write">
<polygon fill="white" stroke="black" points="356.5,-294.5 356.5,-324.5 487.5,-324.5 487.5,-294.5 356.5,-294.5"/>
<text text-anchor="start" x="364.5" y="-312.5" font-family="Helvetica,sans-Serif" font-size="10.00">OMPF::ompfHeaderChunk</text>
<text text-anchor="middle" x="422" y="-301.5" font-family="Helvetica,sans-Serif" font-size="10.00">::write</text>
</a>
</g>
</g>
<!-- Node2&#45;&gt;Node8 -->
<g id="edge7" class="edge"><title>Node2&#45;&gt;Node8</title>
<path fill="none" stroke="midnightblue" d="M305.378,-309.5C322.081,-309.5 339.822,-309.5 356.26,-309.5"/>
<polygon fill="midnightblue" stroke="midnightblue" points="305.132,-306 295.132,-309.5 305.132,-313 305.132,-306"/>
</g>
<!-- Node9 -->
<g id="node9" class="node"><title>Node9</title>
<g id="a_node9"><a xlink:href="class_o_m_p_f_1_1ompf_material_chunk.html#a16218c145b688f2db2fcfb61c1feec39" target="_top" xlink:title="OMPF::ompfMaterialChunk\l::write">
<polygon fill="white" stroke="black" points="355,-245.5 355,-275.5 489,-275.5 489,-245.5 355,-245.5"/>
<text text-anchor="start" x="363" y="-263.5" font-family="Helvetica,sans-Serif" font-size="10.00">OMPF::ompfMaterialChunk</text>
<text text-anchor="middle" x="422" y="-252.5" font-family="Helvetica,sans-Serif" font-size="10.00">::write</text>
</a>
</g>
</g>
<!-- Node2&#45;&gt;Node9 -->
<g id="edge8" class="edge"><title>Node2&#45;&gt;Node9</title>
<path fill="none" stroke="midnightblue" d="M301.895,-291.877C322.244,-286.516 344.408,-280.677 364.038,-275.506"/>
<polygon fill="midnightblue" stroke="midnightblue" points="300.849,-288.533 292.07,-294.465 302.632,-295.302 300.849,-288.533"/>
</g>
<!-- Node10 -->
<g id="node10" class="node"><title>Node10</title>
<g id="a_node10"><a xlink:href="class_o_m_p_f_1_1ompf_mesh_chunk.html#a83a3fb04f638373d6aa6e736cb42c35b" target="_top" xlink:title="OMPF::ompfMeshChunk\l::write">
<polygon fill="white" stroke="black" points="360,-196.5 360,-226.5 484,-226.5 484,-196.5 360,-196.5"/>
<text text-anchor="start" x="368" y="-214.5" font-family="Helvetica,sans-Serif" font-size="10.00">OMPF::ompfMeshChunk</text>
<text text-anchor="middle" x="422" y="-203.5" font-family="Helvetica,sans-Serif" font-size="10.00">::write</text>
</a>
</g>
</g>
<!-- Node2&#45;&gt;Node10 -->
<g id="edge9" class="edge"><title>Node2&#45;&gt;Node10</title>
<path fill="none" stroke="midnightblue" d="M303.486,-289.762C305.739,-288.431 307.919,-287.012 310,-285.5 332.155,-269.406 323.845,-251.594 346,-235.5 350.756,-232.045 356.031,-229.074 361.515,-226.521"/>
<polygon fill="midnightblue" stroke="midnightblue" points="301.718,-286.737 294.485,-294.479 304.967,-292.938 301.718,-286.737"/>
</g>
<!-- Node11 -->
<g id="node11" class="node"><title>Node11</title>
<g id="a_node11"><a xlink:href="class_o_m_p_f_1_1ompf_particle_system_chunk.html#a784b64dcf17282520dd77f074364ca75" target="_top" xlink:title="OMPF::ompfParticleSystem\lChunk::write">
<polygon fill="white" stroke="black" points="352.5,-147.5 352.5,-177.5 491.5,-177.5 491.5,-147.5 352.5,-147.5"/>
<text text-anchor="start" x="360.5" y="-165.5" font-family="Helvetica,sans-Serif" font-size="10.00">OMPF::ompfParticleSystem</text>
<text text-anchor="middle" x="422" y="-154.5" font-family="Helvetica,sans-Serif" font-size="10.00">Chunk::write</text>
</a>
</g>
</g>
<!-- Node2&#45;&gt;Node11 -->
<g id="edge10" class="edge"><title>Node2&#45;&gt;Node11</title>
<path fill="none" stroke="midnightblue" d="M303.925,-290.567C306.067,-289.01 308.103,-287.324 310,-285.5 343.746,-253.047 312.254,-218.953 346,-186.5 349.547,-183.089 353.58,-180.162 357.892,-177.651"/>
<polygon fill="midnightblue" stroke="midnightblue" points="301.862,-287.728 295.195,-295.962 305.541,-293.682 301.862,-287.728"/>
</g>
<!-- Node12 -->
<g id="node12" class="node"><title>Node12</title>
<g id="a_node12"><a xlink:href="class_o_m_p_f_1_1ompf_resource_search_path_chunk.html#a1b17d55f869cf4c6ce4a375efa17886b" target="_top" xlink:title="OMPF::ompfResourceSearch\lPathChunk::write">
<polygon fill="white" stroke="black" points="350,-98.5 350,-128.5 494,-128.5 494,-98.5 350,-98.5"/>
<text text-anchor="start" x="358" y="-116.5" font-family="Helvetica,sans-Serif" font-size="10.00">OMPF::ompfResourceSearch</text>
<text text-anchor="middle" x="422" y="-105.5" font-family="Helvetica,sans-Serif" font-size="10.00">PathChunk::write</text>
</a>
</g>
</g>
<!-- Node2&#45;&gt;Node12 -->
<g id="edge11" class="edge"><title>Node2&#45;&gt;Node12</title>
<path fill="none" stroke="midnightblue" d="M304.048,-290.939C306.17,-289.278 308.166,-287.47 310,-285.5 356.137,-235.961 299.863,-187.039 346,-137.5 349.168,-134.098 352.817,-131.177 356.764,-128.668"/>
<polygon fill="midnightblue" stroke="midnightblue" points="301.777,-288.242 295.317,-296.639 305.604,-294.103 301.777,-288.242"/>
</g>
<!-- Node13 -->
<g id="node13" class="node"><title>Node13</title>
<g id="a_node13"><a xlink:href="class_o_m_p_f_1_1ompf_transform_chunk.html#ade0febaec0aec168ab684c426cf7cdff" target="_top" xlink:title="OMPF::ompfTransformChunk\l::write">
<polygon fill="white" stroke="black" points="350.5,-49.5 350.5,-79.5 493.5,-79.5 493.5,-49.5 350.5,-49.5"/>
<text text-anchor="start" x="358.5" y="-67.5" font-family="Helvetica,sans-Serif" font-size="10.00">OMPF::ompfTransformChunk</text>
<text text-anchor="middle" x="422" y="-56.5" font-family="Helvetica,sans-Serif" font-size="10.00">::write</text>
</a>
</g>
</g>
<!-- Node2&#45;&gt;Node13 -->
<g id="edge12" class="edge"><title>Node2&#45;&gt;Node13</title>
<path fill="none" stroke="midnightblue" d="M303.598,-291.553C305.904,-289.726 308.054,-287.714 310,-285.5 368.75,-218.639 287.25,-155.361 346,-88.5 348.978,-85.111 352.434,-82.1968 356.197,-79.6915"/>
<polygon fill="midnightblue" stroke="midnightblue" points="301.641,-288.651 295.226,-297.083 305.499,-294.492 301.641,-288.651"/>
</g>
</g>
</svg>
