<?xml version="1.0" encoding="UTF-8" standalone="no"?>
<!DOCTYPE svg PUBLIC "-//W3C//DTD SVG 1.1//EN"
 "http://www.w3.org/Graphics/SVG/1.1/DTD/svg11.dtd">
<!-- Generated by graphviz version 2.38.0 (20140413.2041)
 -->
<!-- Title: Igor::iVoxelData Pages: 1 -->
<svg width="140pt" height="329pt"
 viewBox="0.00 0.00 140.00 329.00" xmlns="http://www.w3.org/2000/svg" xmlns:xlink="http://www.w3.org/1999/xlink">
<g id="graph0" class="graph" transform="scale(1 1) rotate(0) translate(4 325)">
<title>Igor::iVoxelData</title>
<polygon fill="white" stroke="none" points="-4,4 -4,-325 136,-325 136,4 -4,4"/>
<!-- Node1 -->
<g id="node1" class="node"><title>Node1</title>
<polygon fill="#bfbfbf" stroke="black" points="19,-0.5 19,-19.5 105,-19.5 105,-0.5 19,-0.5"/>
<text text-anchor="middle" x="62" y="-7.5" font-family="Helvetica,sans-Serif" font-size="10.00">Igor::iVoxelData</text>
</g>
<!-- Node2 -->
<g id="node2" class="node"><title>Node2</title>
<g id="a_node2"><a xlink:href="struct_igor_1_1i_voxel_pole.html" target="_top" xlink:title="Igor::iVoxelPole">
<polygon fill="white" stroke="black" points="19.5,-67.5 19.5,-86.5 104.5,-86.5 104.5,-67.5 19.5,-67.5"/>
<text text-anchor="middle" x="62" y="-74.5" font-family="Helvetica,sans-Serif" font-size="10.00">Igor::iVoxelPole</text>
</a>
</g>
</g>
<!-- Node2&#45;&gt;Node1 -->
<g id="edge1" class="edge"><title>Node2&#45;&gt;Node1</title>
<path fill="none" stroke="#9a32cd" stroke-dasharray="5,2" d="M62,-57.037C62,-44.6703 62,-29.1198 62,-19.6273"/>
<polygon fill="#9a32cd" stroke="#9a32cd" points="58.5001,-57.2338 62,-67.2338 65.5001,-57.2338 58.5001,-57.2338"/>
<text text-anchor="middle" x="76" y="-41" font-family="Helvetica,sans-Serif" font-size="10.00"> _data</text>
</g>
<!-- Node3 -->
<g id="node3" class="node"><title>Node3</title>
<g id="a_node3"><a xlink:href="class_igor_aux_1_1ia_r_l_e.html" target="_top" xlink:title="IgorAux::iaRLE\&lt; uint8,\l uint8 \&gt;">
<polygon fill="white" stroke="black" points="4.5,-145.5 4.5,-175.5 119.5,-175.5 119.5,-145.5 4.5,-145.5"/>
<text text-anchor="start" x="12.5" y="-163.5" font-family="Helvetica,sans-Serif" font-size="10.00">IgorAux::iaRLE&lt; uint8,</text>
<text text-anchor="middle" x="62" y="-152.5" font-family="Helvetica,sans-Serif" font-size="10.00"> uint8 &gt;</text>
</a>
</g>
</g>
<!-- Node3&#45;&gt;Node2 -->
<g id="edge2" class="edge"><title>Node3&#45;&gt;Node2</title>
<path fill="none" stroke="#9a32cd" stroke-dasharray="5,2" d="M62,-135.248C62,-118.781 62,-97.9886 62,-86.5391"/>
<polygon fill="#9a32cd" stroke="#9a32cd" points="58.5001,-135.304 62,-145.304 65.5001,-135.304 58.5001,-135.304"/>
<text text-anchor="middle" x="82" y="-119" font-family="Helvetica,sans-Serif" font-size="10.00"> _density</text>
<text text-anchor="middle" x="82" y="-108" font-family="Helvetica,sans-Serif" font-size="10.00">_material</text>
</g>
<!-- Node4 -->
<g id="node4" class="node"><title>Node4</title>
<g id="a_node4"><a xlink:href="class_igor_aux_1_1ia_r_l_e.html" target="_top" xlink:title="IgorAux::iaRLE\&lt; TValue,\l TIndex \&gt;">
<polygon fill="white" stroke="black" points="0,-223.5 0,-253.5 124,-253.5 124,-223.5 0,-223.5"/>
<text text-anchor="start" x="8" y="-241.5" font-family="Helvetica,sans-Serif" font-size="10.00">IgorAux::iaRLE&lt; TValue,</text>
<text text-anchor="middle" x="62" y="-230.5" font-family="Helvetica,sans-Serif" font-size="10.00"> TIndex &gt;</text>
</a>
</g>
</g>
<!-- Node4&#45;&gt;Node3 -->
<g id="edge3" class="edge"><title>Node4&#45;&gt;Node3</title>
<path fill="none" stroke="orange" stroke-dasharray="5,2" d="M62,-213.09C62,-200.757 62,-186.224 62,-175.731"/>
<polygon fill="orange" stroke="orange" points="58.5001,-213.205 62,-223.205 65.5001,-213.205 58.5001,-213.205"/>
<text text-anchor="middle" x="97" y="-197" font-family="Helvetica,sans-Serif" font-size="10.00"> &lt; uint8, uint8 &gt;</text>
</g>
<!-- Node5 -->
<g id="node5" class="node"><title>Node5</title>
<polygon fill="white" stroke="#bfbfbf" points="39.5,-301.5 39.5,-320.5 84.5,-320.5 84.5,-301.5 39.5,-301.5"/>
<text text-anchor="middle" x="62" y="-308.5" font-family="Helvetica,sans-Serif" font-size="10.00">TIndex</text>
</g>
<!-- Node5&#45;&gt;Node4 -->
<g id="edge4" class="edge"><title>Node5&#45;&gt;Node4</title>
<path fill="none" stroke="#9a32cd" stroke-dasharray="5,2" d="M62,-291.236C62,-279.408 62,-264.383 62,-253.576"/>
<polygon fill="#9a32cd" stroke="#9a32cd" points="58.5001,-291.355 62,-301.355 65.5001,-291.355 58.5001,-291.355"/>
<text text-anchor="middle" x="75.5" y="-275" font-family="Helvetica,sans-Serif" font-size="10.00"> _size</text>
</g>
</g>
</svg>
