<?xml version="1.0" encoding="UTF-8" standalone="no"?>
<!DOCTYPE svg PUBLIC "-//W3C//DTD SVG 1.1//EN"
 "http://www.w3.org/Graphics/SVG/1.1/DTD/svg11.dtd">
<!-- Generated by graphviz version 2.38.0 (20140413.2041)
 -->
<!-- Title: ModelViewer::onAddTransformation Pages: 1 -->
<svg width="841pt" height="424pt"
 viewBox="0.00 0.00 841.00 423.50" xmlns="http://www.w3.org/2000/svg" xmlns:xlink="http://www.w3.org/1999/xlink">
<g id="graph0" class="graph" transform="scale(1 1) rotate(0) translate(4 419.5)">
<title>ModelViewer::onAddTransformation</title>
<polygon fill="white" stroke="none" points="-4,4 -4,-419.5 837,-419.5 837,4 -4,4"/>
<!-- Node1 -->
<g id="node1" class="node"><title>Node1</title>
<polygon fill="#bfbfbf" stroke="black" points="0,-349 0,-368 170,-368 170,-349 0,-349"/>
<text text-anchor="middle" x="85" y="-356" font-family="Helvetica,sans-Serif" font-size="10.00">ModelViewer::onAddTransformation</text>
</g>
<!-- Node2 -->
<g id="node2" class="node"><title>Node2</title>
<g id="a_node2"><a xlink:href="class_igor_1_1i_node.html#ae0d333770cbc83471e71deb2d60465c5" target="_top" xlink:title="Igor::iNode::setName">
<polygon fill="white" stroke="black" points="210,-368 210,-387 318,-387 318,-368 210,-368"/>
<text text-anchor="middle" x="264" y="-375" font-family="Helvetica,sans-Serif" font-size="10.00">Igor::iNode::setName</text>
</a>
</g>
</g>
<!-- Node1&#45;&gt;Node2 -->
<g id="edge1" class="edge"><title>Node1&#45;&gt;Node2</title>
<path fill="none" stroke="midnightblue" d="M170.094,-367.527C180.051,-368.596 190.082,-369.673 199.682,-370.703"/>
<polygon fill="midnightblue" stroke="midnightblue" points="199.589,-374.213 209.905,-371.801 200.336,-367.253 199.589,-374.213"/>
</g>
<!-- Node3 -->
<g id="node3" class="node"><title>Node3</title>
<g id="a_node3"><a xlink:href="class_igor_1_1i_node.html#a4ce1269afdfb50f10f7b2c10e5aa69e0" target="_top" xlink:title="Igor::iNode::insertNode">
<polygon fill="white" stroke="black" points="206,-330 206,-349 322,-349 322,-330 206,-330"/>
<text text-anchor="middle" x="264" y="-337" font-family="Helvetica,sans-Serif" font-size="10.00">Igor::iNode::insertNode</text>
</a>
</g>
</g>
<!-- Node1&#45;&gt;Node3 -->
<g id="edge2" class="edge"><title>Node1&#45;&gt;Node3</title>
<path fill="none" stroke="midnightblue" d="M170.094,-349.473C178.718,-348.547 187.398,-347.615 195.806,-346.713"/>
<polygon fill="midnightblue" stroke="midnightblue" points="196.334,-350.176 205.904,-345.629 195.587,-343.216 196.334,-350.176"/>
</g>
<!-- Node4 -->
<g id="node4" class="node"><title>Node4</title>
<g id="a_node4"><a xlink:href="class_igor_1_1i_node.html#afcf6efd30c85e8c37a4261a6f27613b8" target="_top" xlink:title="Igor::iNode::isChild">
<polygon fill="white" stroke="black" points="564,-396 564,-415 662,-415 662,-396 564,-396"/>
<text text-anchor="middle" x="613" y="-403" font-family="Helvetica,sans-Serif" font-size="10.00">Igor::iNode::isChild</text>
</a>
</g>
</g>
<!-- Node3&#45;&gt;Node4 -->
<g id="edge3" class="edge"><title>Node3&#45;&gt;Node4</title>
<path fill="none" stroke="midnightblue" d="M299.845,-349.027C307.354,-351.649 315.102,-354.808 322,-358.5 339.871,-368.064 339.086,-379.211 358,-386.5 421.634,-411.024 500.778,-412.896 553.651,-410.508"/>
<polygon fill="midnightblue" stroke="midnightblue" points="554.058,-413.992 563.864,-409.979 553.696,-407.001 554.058,-413.992"/>
</g>
<!-- Node5 -->
<g id="node5" class="node"><title>Node5</title>
<g id="a_node5"><a xlink:href="class_igor_1_1i_node.html#adbeb716577ae857dc4274e8285dd94fe" target="_top" xlink:title="Igor::iNode::setParent">
<polygon fill="white" stroke="black" points="375.5,-308 375.5,-327 486.5,-327 486.5,-308 375.5,-308"/>
<text text-anchor="middle" x="431" y="-315" font-family="Helvetica,sans-Serif" font-size="10.00">Igor::iNode::setParent</text>
</a>
</g>
</g>
<!-- Node3&#45;&gt;Node5 -->
<g id="edge4" class="edge"><title>Node3&#45;&gt;Node5</title>
<path fill="none" stroke="midnightblue" d="M322.246,-331.867C336.102,-330.02 351.01,-328.032 365.187,-326.142"/>
<polygon fill="midnightblue" stroke="midnightblue" points="365.906,-329.577 375.355,-324.786 364.981,-322.638 365.906,-329.577"/>
</g>
<!-- Node6 -->
<g id="node6" class="node"><title>Node6</title>
<g id="a_node6"><a xlink:href="class_igor_1_1i_node.html#a0392b6251631e79675f7416827335b70" target="_top" xlink:title="Igor::iNode::setScene">
<polygon fill="white" stroke="black" points="376,-145 376,-164 486,-164 486,-145 376,-145"/>
<text text-anchor="middle" x="431" y="-152" font-family="Helvetica,sans-Serif" font-size="10.00">Igor::iNode::setScene</text>
</a>
</g>
</g>
<!-- Node3&#45;&gt;Node6 -->
<g id="edge5" class="edge"><title>Node3&#45;&gt;Node6</title>
<path fill="none" stroke="midnightblue" d="M273.639,-329.814C300.147,-300.093 380.584,-209.906 414.575,-171.795"/>
<polygon fill="midnightblue" stroke="midnightblue" points="417.403,-173.883 421.447,-164.09 412.178,-169.223 417.403,-173.883"/>
</g>
<!-- Node14 -->
<g id="node14" class="node"><title>Node14</title>
<g id="a_node14"><a xlink:href="class_igor_1_1i_node.html#a3be538d0d60b148b1eae5cd5892d279d" target="_top" xlink:title="Igor::iNode::setTransformation\lDirty">
<polygon fill="white" stroke="black" points="358,-346.5 358,-376.5 504,-376.5 504,-346.5 358,-346.5"/>
<text text-anchor="start" x="366" y="-364.5" font-family="Helvetica,sans-Serif" font-size="10.00">Igor::iNode::setTransformation</text>
<text text-anchor="middle" x="431" y="-353.5" font-family="Helvetica,sans-Serif" font-size="10.00">Dirty</text>
</a>
</g>
</g>
<!-- Node3&#45;&gt;Node14 -->
<g id="edge13" class="edge"><title>Node3&#45;&gt;Node14</title>
<path fill="none" stroke="midnightblue" d="M322.246,-347.133C330.475,-348.23 339.074,-349.377 347.671,-350.523"/>
<polygon fill="midnightblue" stroke="midnightblue" points="347.365,-354.013 357.74,-351.865 348.291,-347.074 347.365,-354.013"/>
</g>
<!-- Node7 -->
<g id="node7" class="node"><title>Node7</title>
<g id="a_node7"><a xlink:href="class_igor_1_1i_node.html#aa8934442e897cfdf775264f161c69143" target="_top" xlink:title="Igor::iNode::onPreSetScene">
<polygon fill="white" stroke="black" points="544.5,-252 544.5,-271 681.5,-271 681.5,-252 544.5,-252"/>
<text text-anchor="middle" x="613" y="-259" font-family="Helvetica,sans-Serif" font-size="10.00">Igor::iNode::onPreSetScene</text>
</a>
</g>
</g>
<!-- Node6&#45;&gt;Node7 -->
<g id="edge6" class="edge"><title>Node6&#45;&gt;Node7</title>
<path fill="none" stroke="midnightblue" d="M441.165,-164.133C458.69,-182.001 498.88,-220.377 540,-241.5 545.323,-244.234 551.065,-246.632 556.902,-248.727"/>
<polygon fill="midnightblue" stroke="midnightblue" points="556.166,-252.169 566.759,-251.971 558.354,-245.52 556.166,-252.169"/>
</g>
<!-- Node8 -->
<g id="node8" class="node"><title>Node8</title>
<g id="a_node8"><a xlink:href="class_igor_1_1i_scene.html#aadee04cec2c19e6de83645d9de7e614f" target="_top" xlink:title="Igor::iScene::signalNode\lRemoved">
<polygon fill="white" stroke="black" points="552,-202.5 552,-232.5 674,-232.5 674,-202.5 552,-202.5"/>
<text text-anchor="start" x="560" y="-220.5" font-family="Helvetica,sans-Serif" font-size="10.00">Igor::iScene::signalNode</text>
<text text-anchor="middle" x="613" y="-209.5" font-family="Helvetica,sans-Serif" font-size="10.00">Removed</text>
</a>
</g>
</g>
<!-- Node6&#45;&gt;Node8 -->
<g id="edge7" class="edge"><title>Node6&#45;&gt;Node8</title>
<path fill="none" stroke="midnightblue" d="M459.064,-164.057C480.901,-171.76 512.418,-182.859 540,-192.5 546.066,-194.62 552.421,-196.836 558.738,-199.034"/>
<polygon fill="midnightblue" stroke="midnightblue" points="557.991,-202.48 568.586,-202.458 560.29,-195.868 557.991,-202.48"/>
</g>
<!-- Node9 -->
<g id="node9" class="node"><title>Node9</title>
<g id="a_node9"><a xlink:href="class_igor_1_1i_node.html#a865efb791b77d29bb489514326037380" target="_top" xlink:title="Igor::iNode::getID">
<polygon fill="white" stroke="black" points="567,-164 567,-183 659,-183 659,-164 567,-164"/>
<text text-anchor="middle" x="613" y="-171" font-family="Helvetica,sans-Serif" font-size="10.00">Igor::iNode::getID</text>
</a>
</g>
</g>
<!-- Node6&#45;&gt;Node9 -->
<g id="edge8" class="edge"><title>Node6&#45;&gt;Node9</title>
<path fill="none" stroke="midnightblue" d="M486.006,-160.201C508.367,-162.561 534.276,-165.296 556.764,-167.67"/>
<polygon fill="midnightblue" stroke="midnightblue" points="556.519,-171.163 566.831,-168.732 557.253,-164.202 556.519,-171.163"/>
</g>
<!-- Node10 -->
<g id="node10" class="node"><title>Node10</title>
<g id="a_node10"><a xlink:href="class_igor_1_1i_scene.html#af975e601d89386f2ef11745ecb831870" target="_top" xlink:title="Igor::iScene::getName">
<polygon fill="white" stroke="black" points="556.5,-126 556.5,-145 669.5,-145 669.5,-126 556.5,-126"/>
<text text-anchor="middle" x="613" y="-133" font-family="Helvetica,sans-Serif" font-size="10.00">Igor::iScene::getName</text>
</a>
</g>
</g>
<!-- Node6&#45;&gt;Node10 -->
<g id="edge9" class="edge"><title>Node6&#45;&gt;Node10</title>
<path fill="none" stroke="midnightblue" d="M486.006,-148.799C504.965,-146.798 526.476,-144.527 546.29,-142.436"/>
<polygon fill="midnightblue" stroke="midnightblue" points="546.896,-145.892 556.474,-141.361 546.161,-138.93 546.896,-145.892"/>
</g>
<!-- Node11 -->
<g id="node11" class="node"><title>Node11</title>
<g id="a_node11"><a xlink:href="class_igor_1_1i_node.html#aa13a0c809d3f0bb17baf52917d04aff0" target="_top" xlink:title="Igor::iNode::hasChildren">
<polygon fill="white" stroke="black" points="553,-88 553,-107 673,-107 673,-88 553,-88"/>
<text text-anchor="middle" x="613" y="-95" font-family="Helvetica,sans-Serif" font-size="10.00">Igor::iNode::hasChildren</text>
</a>
</g>
</g>
<!-- Node6&#45;&gt;Node11 -->
<g id="edge10" class="edge"><title>Node6&#45;&gt;Node11</title>
<path fill="none" stroke="midnightblue" d="M457.557,-144.855C479.32,-136.8 511.5,-125.259 540,-116.5 547.559,-114.177 555.617,-111.879 563.503,-109.727"/>
<polygon fill="midnightblue" stroke="midnightblue" points="564.597,-113.058 573.351,-107.089 562.786,-106.296 564.597,-113.058"/>
</g>
<!-- Node12 -->
<g id="node12" class="node"><title>Node12</title>
<g id="a_node12"><a xlink:href="class_igor_1_1i_node.html#af5a14599bd4dc62d1534865c8a306e8e" target="_top" xlink:title="Igor::iNode::onPostSetScene">
<polygon fill="white" stroke="black" points="541.5,-50 541.5,-69 684.5,-69 684.5,-50 541.5,-50"/>
<text text-anchor="middle" x="613" y="-57" font-family="Helvetica,sans-Serif" font-size="10.00">Igor::iNode::onPostSetScene</text>
</a>
</g>
</g>
<!-- Node6&#45;&gt;Node12 -->
<g id="edge11" class="edge"><title>Node6&#45;&gt;Node12</title>
<path fill="none" stroke="midnightblue" d="M442.837,-144.856C461.419,-128.805 501.13,-96.5911 540,-78.5 545.055,-76.1475 550.449,-74.0484 555.926,-72.1841"/>
<polygon fill="midnightblue" stroke="midnightblue" points="557.326,-75.4132 565.818,-69.0779 555.229,-68.7348 557.326,-75.4132"/>
</g>
<!-- Node13 -->
<g id="node13" class="node"><title>Node13</title>
<g id="a_node13"><a xlink:href="class_igor_1_1i_scene.html#a61c6f27b83ccdfbfdc1b7ee02d2fcc21" target="_top" xlink:title="Igor::iScene::signalNode\lAdded">
<polygon fill="white" stroke="black" points="552,-0.5 552,-30.5 674,-30.5 674,-0.5 552,-0.5"/>
<text text-anchor="start" x="560" y="-18.5" font-family="Helvetica,sans-Serif" font-size="10.00">Igor::iScene::signalNode</text>
<text text-anchor="middle" x="613" y="-7.5" font-family="Helvetica,sans-Serif" font-size="10.00">Added</text>
</a>
</g>
</g>
<!-- Node6&#45;&gt;Node13 -->
<g id="edge12" class="edge"><title>Node6&#45;&gt;Node13</title>
<path fill="none" stroke="midnightblue" d="M438.667,-144.767C454.041,-123.019 494.192,-70.0757 540,-40.5 543.13,-38.4791 546.442,-36.6004 549.859,-34.857"/>
<polygon fill="midnightblue" stroke="midnightblue" points="551.509,-37.9497 559.094,-30.5533 548.552,-31.6049 551.509,-37.9497"/>
</g>
<!-- Node14&#45;&gt;Node4 -->
<g id="edge14" class="edge"><title>Node14&#45;&gt;Node4</title>
<path fill="none" stroke="midnightblue" d="M493.442,-376.519C516.214,-382.086 541.706,-388.317 563.201,-393.571"/>
<polygon fill="midnightblue" stroke="midnightblue" points="562.54,-397.013 573.086,-395.988 564.203,-390.213 562.54,-397.013"/>
</g>
<!-- Node15 -->
<g id="node15" class="node"><title>Node15</title>
<g id="a_node15"><a xlink:href="class_igor_1_1i_node.html#a1b3d40431eb4c1c79e5d93ef7fe68129" target="_top" xlink:title="Igor::iNode::getParent">
<polygon fill="white" stroke="black" points="722,-327 722,-346 833,-346 833,-327 722,-327"/>
<text text-anchor="middle" x="777.5" y="-334" font-family="Helvetica,sans-Serif" font-size="10.00">Igor::iNode::getParent</text>
</a>
</g>
</g>
<!-- Node14&#45;&gt;Node15 -->
<g id="edge15" class="edge"><title>Node14&#45;&gt;Node15</title>
<path fill="none" stroke="midnightblue" d="M504.096,-359.359C555,-357.47 624.771,-354.117 686,-348.5 694.281,-347.74 702.969,-346.788 711.55,-345.754"/>
<polygon fill="midnightblue" stroke="midnightblue" points="712.052,-349.218 721.543,-344.509 711.187,-342.272 712.052,-349.218"/>
</g>
<!-- Node16 -->
<g id="node16" class="node"><title>Node16</title>
<g id="a_node16"><a xlink:href="class_igor_1_1i_node.html#a66b6ecf7babaffce68852de186068e01" target="_top" xlink:title="Igor::iNode::setTransformation\lDirtyUp">
<polygon fill="white" stroke="black" points="540,-290.5 540,-320.5 686,-320.5 686,-290.5 540,-290.5"/>
<text text-anchor="start" x="548" y="-308.5" font-family="Helvetica,sans-Serif" font-size="10.00">Igor::iNode::setTransformation</text>
<text text-anchor="middle" x="613" y="-297.5" font-family="Helvetica,sans-Serif" font-size="10.00">DirtyUp</text>
</a>
</g>
</g>
<!-- Node14&#45;&gt;Node16 -->
<g id="edge16" class="edge"><title>Node14&#45;&gt;Node16</title>
<path fill="none" stroke="midnightblue" d="M480.237,-346.493C502.935,-339.431 530.188,-330.953 554.003,-323.543"/>
<polygon fill="midnightblue" stroke="midnightblue" points="555.121,-326.861 563.63,-320.548 553.042,-320.177 555.121,-326.861"/>
</g>
<!-- Node16&#45;&gt;Node15 -->
<g id="edge17" class="edge"><title>Node16&#45;&gt;Node15</title>
<path fill="none" stroke="midnightblue" d="M686.221,-319.278C696.287,-321.198 706.54,-323.154 716.352,-325.026"/>
<polygon fill="midnightblue" stroke="midnightblue" points="715.912,-328.505 726.391,-326.941 717.224,-321.629 715.912,-328.505"/>
</g>
<!-- Node16&#45;&gt;Node16 -->
<g id="edge18" class="edge"><title>Node16&#45;&gt;Node16</title>
<path fill="none" stroke="midnightblue" d="M584.42,-320.659C577.528,-330.057 587.055,-339 613,-339 628.81,-339 638.524,-335.679 642.141,-330.958"/>
<polygon fill="midnightblue" stroke="midnightblue" points="645.619,-330.454 641.58,-320.659 638.629,-330.834 645.619,-330.454"/>
</g>
</g>
</svg>
