<?xml version="1.0" encoding="UTF-8" standalone="no"?>
<!DOCTYPE svg PUBLIC "-//W3C//DTD SVG 1.1//EN"
 "http://www.w3.org/Graphics/SVG/1.1/DTD/svg11.dtd">
<!-- Generated by graphviz version 2.38.0 (20140413.2041)
 -->
<!-- Title: Igor::iNodeEmitter Pages: 1 -->
<svg width="864pt" height="334pt"
 viewBox="0.00 0.00 864.00 334.00" xmlns="http://www.w3.org/2000/svg" xmlns:xlink="http://www.w3.org/1999/xlink">
<g id="graph0" class="graph" transform="scale(1 1) rotate(0) translate(4 330)">
<title>Igor::iNodeEmitter</title>
<polygon fill="white" stroke="none" points="-4,4 -4,-330 860,-330 860,4 -4,4"/>
<!-- Node2 -->
<g id="node1" class="node"><title>Node2</title>
<g id="a_node1"><a xlink:title=" ">
<polygon fill="#bfbfbf" stroke="black" points="761,-60.5 761,-79.5 856,-79.5 856,-60.5 761,-60.5"/>
<text text-anchor="middle" x="808.5" y="-67.5" font-family="Helvetica,sans-Serif" font-size="10.00">Igor::iNodeEmitter</text>
</a>
</g>
</g>
<!-- Node3 -->
<g id="node2" class="node"><title>Node3</title>
<g id="a_node2"><a xlink:href="class_igor_1_1i_node.html" target="_top" xlink:title=" ">
<polygon fill="white" stroke="black" points="523.5,-196.5 523.5,-215.5 586.5,-215.5 586.5,-196.5 523.5,-196.5"/>
<text text-anchor="middle" x="555" y="-203.5" font-family="Helvetica,sans-Serif" font-size="10.00">Igor::iNode</text>
</a>
</g>
</g>
<!-- Node3&#45;&gt;Node2 -->
<g id="edge1" class="edge"><title>Node3&#45;&gt;Node2</title>
<path fill="none" stroke="midnightblue" d="M596.238,-195.977C603.629,-192.572 610.678,-188.035 616,-182 636.963,-158.23 611.453,-135.273 634,-113 638.719,-108.338 714.546,-90.7185 764.38,-79.5318"/>
<polygon fill="midnightblue" stroke="midnightblue" points="594.809,-192.778 586.798,-199.712 597.384,-199.287 594.809,-192.778"/>
</g>
<!-- Node3&#45;&gt;Node3 -->
<g id="edge15" class="edge"><title>Node3&#45;&gt;Node3</title>
<path fill="none" stroke="#9a32cd" stroke-dasharray="5,2" d="M530.447,-225.029C531.786,-230.128 539.97,-234 555,-234 578.461,-234 585.243,-224.565 575.345,-215.757"/>
<polygon fill="#9a32cd" stroke="#9a32cd" points="533.709,-226.31 534.655,-215.757 527.335,-223.416 533.709,-226.31"/>
<text text-anchor="middle" x="555" y="-237" font-family="Helvetica,sans-Serif" font-size="10.00"> _parent</text>
</g>
<!-- Node7 -->
<g id="node6" class="node"><title>Node7</title>
<g id="a_node6"><a xlink:href="class_igor_1_1i_scene.html" target="_top" xlink:title=" ">
<polygon fill="white" stroke="black" points="774.5,-209.5 774.5,-228.5 842.5,-228.5 842.5,-209.5 774.5,-209.5"/>
<text text-anchor="middle" x="808.5" y="-216.5" font-family="Helvetica,sans-Serif" font-size="10.00">Igor::iScene</text>
</a>
</g>
</g>
<!-- Node3&#45;&gt;Node7 -->
<g id="edge12" class="edge"><title>Node3&#45;&gt;Node7</title>
<path fill="none" stroke="#9a32cd" stroke-dasharray="5,2" d="M596.778,-201.118C634.801,-197.461 693,-194.154 743,-201 755.209,-202.672 768.366,-206.045 779.593,-209.424"/>
<polygon fill="#9a32cd" stroke="#9a32cd" points="596.208,-197.658 586.613,-202.151 596.915,-204.622 596.208,-197.658"/>
<text text-anchor="middle" x="688.5" y="-204" font-family="Helvetica,sans-Serif" font-size="10.00"> _root</text>
</g>
<!-- Node4 -->
<g id="node3" class="node"><title>Node4</title>
<g id="a_node3"><a xlink:href="class_igor_aux_1_1ia_i_d_generator.html" target="_top" xlink:title=" ">
<polygon fill="white" stroke="black" points="181,-234.5 181,-253.5 319,-253.5 319,-234.5 181,-234.5"/>
<text text-anchor="middle" x="250" y="-241.5" font-family="Helvetica,sans-Serif" font-size="10.00">IgorAux::iaIDGenerator&lt; T &gt;</text>
</a>
</g>
</g>
<!-- Node4&#45;&gt;Node3 -->
<g id="edge2" class="edge"><title>Node4&#45;&gt;Node3</title>
<path fill="none" stroke="#9a32cd" stroke-dasharray="5,2" d="M329.648,-234.966C372.871,-229.899 427.423,-223.339 476,-217 491.595,-214.965 508.919,-212.538 523.272,-210.483"/>
<polygon fill="#9a32cd" stroke="#9a32cd" points="329.006,-231.517 319.48,-236.155 329.819,-238.47 329.006,-231.517"/>
<text text-anchor="middle" x="416" y="-235" font-family="Helvetica,sans-Serif" font-size="10.00"> _idGenerator</text>
</g>
<!-- Node5 -->
<g id="node4" class="node"><title>Node5</title>
<g id="a_node4"><a xlink:href="class_igor_aux_1_1ia_mutex.html" target="_top" xlink:title=" ">
<polygon fill="white" stroke="black" points="0,-261.5 0,-280.5 90,-280.5 90,-261.5 0,-261.5"/>
<text text-anchor="middle" x="45" y="-268.5" font-family="Helvetica,sans-Serif" font-size="10.00">IgorAux::iaMutex</text>
</a>
</g>
</g>
<!-- Node5&#45;&gt;Node4 -->
<g id="edge3" class="edge"><title>Node5&#45;&gt;Node4</title>
<path fill="none" stroke="#9a32cd" stroke-dasharray="5,2" d="M100.328,-260.211C102.918,-259.783 105.486,-259.376 108,-259 131.616,-255.465 157.578,-252.455 180.719,-250.08"/>
<polygon fill="#9a32cd" stroke="#9a32cd" points="99.5422,-256.795 90.2874,-261.953 100.738,-263.692 99.5422,-256.795"/>
<text text-anchor="middle" x="126" y="-262" font-family="Helvetica,sans-Serif" font-size="10.00"> _mutex</text>
</g>
<!-- Node13 -->
<g id="node12" class="node"><title>Node13</title>
<g id="a_node12"><a xlink:href="class_igor_1_1i_data_update_queue.html" target="_top" xlink:title=" ">
<polygon fill="white" stroke="black" points="356,-303.5 356,-322.5 476,-322.5 476,-303.5 356,-303.5"/>
<text text-anchor="middle" x="416" y="-310.5" font-family="Helvetica,sans-Serif" font-size="10.00">Igor::iDataUpdateQueue</text>
</a>
</g>
</g>
<!-- Node5&#45;&gt;Node13 -->
<g id="edge14" class="edge"><title>Node5&#45;&gt;Node13</title>
<path fill="none" stroke="#9a32cd" stroke-dasharray="5,2" d="M100.263,-277.176C168.547,-284.948 285.399,-298.249 355.892,-306.272"/>
<polygon fill="#9a32cd" stroke="#9a32cd" points="100.475,-273.678 90.1435,-276.024 99.6835,-280.633 100.475,-273.678"/>
<text text-anchor="middle" x="126" y="-284" font-family="Helvetica,sans-Serif" font-size="10.00"> _mutex</text>
</g>
<!-- Node6 -->
<g id="node5" class="node"><title>Node6</title>
<g id="a_node5"><a xlink:href="class_igor_aux_1_1ia_string.html" target="_top" xlink:title=" ">
<polygon fill="white" stroke="black" points="205.5,-179.5 205.5,-198.5 294.5,-198.5 294.5,-179.5 205.5,-179.5"/>
<text text-anchor="middle" x="250" y="-186.5" font-family="Helvetica,sans-Serif" font-size="10.00">IgorAux::iaString</text>
</a>
</g>
</g>
<!-- Node6&#45;&gt;Node3 -->
<g id="edge4" class="edge"><title>Node6&#45;&gt;Node3</title>
<path fill="none" stroke="#9a32cd" stroke-dasharray="5,2" d="M304.964,-192.028C368.522,-195.594 471.922,-201.395 523.179,-204.271"/>
<polygon fill="#9a32cd" stroke="#9a32cd" points="304.916,-188.52 294.735,-191.454 304.523,-195.509 304.916,-188.52"/>
<text text-anchor="middle" x="416" y="-205" font-family="Helvetica,sans-Serif" font-size="10.00"> _name</text>
</g>
<!-- Node6&#45;&gt;Node7 -->
<g id="edge6" class="edge"><title>Node6&#45;&gt;Node7</title>
<path fill="none" stroke="#9a32cd" stroke-dasharray="5,2" d="M304.671,-183.537C375.894,-177.101 505.525,-168.21 616,-176 672.867,-180.01 687.839,-179.604 743,-194 757.874,-197.882 773.999,-204.132 786.406,-209.411"/>
<polygon fill="#9a32cd" stroke="#9a32cd" points="304.231,-180.063 294.595,-184.467 304.875,-187.033 304.231,-180.063"/>
<text text-anchor="middle" x="555" y="-179" font-family="Helvetica,sans-Serif" font-size="10.00"> _name</text>
</g>
<!-- Node7&#45;&gt;Node3 -->
<g id="edge5" class="edge"><title>Node7&#45;&gt;Node3</title>
<path fill="none" stroke="#9a32cd" stroke-dasharray="5,2" d="M763.829,-218.628C728.719,-218.115 678.146,-216.896 634,-214 618.379,-212.975 601.052,-211.257 586.705,-209.675"/>
<polygon fill="#9a32cd" stroke="#9a32cd" points="764.159,-222.132 774.205,-218.765 764.252,-215.133 764.159,-222.132"/>
<text text-anchor="middle" x="688.5" y="-222" font-family="Helvetica,sans-Serif" font-size="10.00"> _scene</text>
</g>
<!-- Node8 -->
<g id="node7" class="node"><title>Node8</title>
<g id="a_node7"><a xlink:href="class_igor_1_1i_octree.html" target="_top" xlink:title=" ">
<polygon fill="white" stroke="black" points="520,-263.5 520,-282.5 590,-282.5 590,-263.5 520,-263.5"/>
<text text-anchor="middle" x="555" y="-270.5" font-family="Helvetica,sans-Serif" font-size="10.00">Igor::iOctree</text>
</a>
</g>
</g>
<!-- Node8&#45;&gt;Node7 -->
<g id="edge7" class="edge"><title>Node8&#45;&gt;Node7</title>
<path fill="none" stroke="#9a32cd" stroke-dasharray="5,2" d="M600.371,-264.044C638.299,-256.317 694.304,-244.739 743,-234 753.217,-231.747 764.32,-229.2 774.389,-226.854"/>
<polygon fill="#9a32cd" stroke="#9a32cd" points="599.275,-260.695 590.173,-266.117 600.67,-267.555 599.275,-260.695"/>
<text text-anchor="middle" x="688.5" y="-260" font-family="Helvetica,sans-Serif" font-size="10.00"> _octree</text>
</g>
<!-- Node9 -->
<g id="node8" class="node"><title>Node9</title>
<g id="a_node8"><a xlink:href="class_igor_1_1i_node_visitor_update_transform.html" target="_top" xlink:title=" ">
<polygon fill="white" stroke="black" points="494,-100 494,-130 616,-130 616,-100 494,-100"/>
<text text-anchor="start" x="502" y="-118" font-family="Helvetica,sans-Serif" font-size="10.00">Igor::iNodeVisitorUpdate</text>
<text text-anchor="middle" x="555" y="-107" font-family="Helvetica,sans-Serif" font-size="10.00">Transform</text>
</a>
</g>
</g>
<!-- Node9&#45;&gt;Node7 -->
<g id="edge8" class="edge"><title>Node9&#45;&gt;Node7</title>
<path fill="none" stroke="#9a32cd" stroke-dasharray="5,2" d="M626.491,-113.389C663.254,-115.365 707.774,-122.368 743,-142 771.789,-158.045 793.226,-192.368 802.474,-209.235"/>
<polygon fill="#9a32cd" stroke="#9a32cd" points="626.481,-109.885 616.342,-112.959 626.185,-116.879 626.481,-109.885"/>
<text text-anchor="middle" x="688.5" y="-145" font-family="Helvetica,sans-Serif" font-size="10.00"> _updateTransformVisitor</text>
</g>
<!-- Node10 -->
<g id="node9" class="node"><title>Node10</title>
<g id="a_node9"><a xlink:href="class_igor_1_1i_node_visitor.html" target="_top" xlink:title=" ">
<polygon fill="white" stroke="black" points="204.5,-119.5 204.5,-138.5 295.5,-138.5 295.5,-119.5 204.5,-119.5"/>
<text text-anchor="middle" x="250" y="-126.5" font-family="Helvetica,sans-Serif" font-size="10.00">Igor::iNodeVisitor</text>
</a>
</g>
</g>
<!-- Node10&#45;&gt;Node9 -->
<g id="edge9" class="edge"><title>Node10&#45;&gt;Node9</title>
<path fill="none" stroke="midnightblue" d="M305.948,-126.461C359.027,-124.009 439.213,-120.304 493.95,-117.775"/>
<polygon fill="midnightblue" stroke="midnightblue" points="305.536,-122.976 295.709,-126.934 305.86,-129.969 305.536,-122.976"/>
</g>
<!-- Node11 -->
<g id="node10" class="node"><title>Node11</title>
<g id="a_node10"><a xlink:href="class_igor_aux_1_1ia_matrix.html" target="_top" xlink:title=" ">
<polygon fill="white" stroke="black" points="193.5,-60.5 193.5,-79.5 306.5,-79.5 306.5,-60.5 193.5,-60.5"/>
<text text-anchor="middle" x="250" y="-67.5" font-family="Helvetica,sans-Serif" font-size="10.00">IgorAux::iaMatrix&lt; T &gt;</text>
</a>
</g>
</g>
<!-- Node11&#45;&gt;Node2 -->
<g id="edge19" class="edge"><title>Node11&#45;&gt;Node2</title>
<path fill="none" stroke="#9a32cd" stroke-dasharray="5,2" d="M316.97,-70C430.892,-70 661.781,-70 760.746,-70"/>
<polygon fill="#9a32cd" stroke="#9a32cd" points="316.65,-66.5001 306.65,-70 316.65,-73.5001 316.65,-66.5001"/>
<text text-anchor="middle" x="555" y="-73" font-family="Helvetica,sans-Serif" font-size="10.00"> _worldMatrix</text>
</g>
<!-- Node11&#45;&gt;Node9 -->
<g id="edge10" class="edge"><title>Node11&#45;&gt;Node9</title>
<path fill="none" stroke="#9a32cd" stroke-dasharray="5,2" d="M316.492,-79.7266C369.182,-87.5518 442.627,-98.4595 493.845,-106.066"/>
<polygon fill="#9a32cd" stroke="#9a32cd" points="316.981,-76.2608 306.575,-78.2537 315.952,-83.1848 316.981,-76.2608"/>
<text text-anchor="middle" x="416" y="-106" font-family="Helvetica,sans-Serif" font-size="10.00"> _currentMatrix</text>
</g>
<!-- Node14 -->
<g id="node13" class="node"><title>Node14</title>
<g id="a_node13"><a xlink:href="class_igor_1_1i_particle_emitter.html" target="_top" xlink:title=" ">
<polygon fill="white" stroke="black" points="502.5,-14.5 502.5,-33.5 607.5,-33.5 607.5,-14.5 502.5,-14.5"/>
<text text-anchor="middle" x="555" y="-21.5" font-family="Helvetica,sans-Serif" font-size="10.00">Igor::iParticleEmitter</text>
</a>
</g>
</g>
<!-- Node11&#45;&gt;Node14 -->
<g id="edge18" class="edge"><title>Node11&#45;&gt;Node14</title>
<path fill="none" stroke="#9a32cd" stroke-dasharray="5,2" d="M296.139,-57.913C314.589,-53.3237 336.209,-48.3913 356,-45 405.403,-36.5346 462.363,-30.9218 502.471,-27.6459"/>
<polygon fill="#9a32cd" stroke="#9a32cd" points="295.083,-54.5697 286.247,-60.4153 296.8,-61.356 295.083,-54.5697"/>
<text text-anchor="middle" x="416" y="-48" font-family="Helvetica,sans-Serif" font-size="10.00"> _worldMatrix</text>
</g>
<!-- Node12 -->
<g id="node11" class="node"><title>Node12</title>
<g id="a_node11"><a xlink:title=" ">
<polygon fill="white" stroke="#bfbfbf" points="30.5,-60.5 30.5,-79.5 59.5,-79.5 59.5,-60.5 30.5,-60.5"/>
<text text-anchor="middle" x="45" y="-67.5" font-family="Helvetica,sans-Serif" font-size="10.00">T</text>
</a>
</g>
</g>
<!-- Node12&#45;&gt;Node11 -->
<g id="edge11" class="edge"><title>Node12&#45;&gt;Node11</title>
<path fill="none" stroke="#9a32cd" stroke-dasharray="5,2" d="M70.0032,-70C100.116,-70 152.703,-70 193.112,-70"/>
<polygon fill="#9a32cd" stroke="#9a32cd" points="69.6347,-66.5001 59.6346,-70 69.6346,-73.5001 69.6347,-66.5001"/>
<text text-anchor="middle" x="126" y="-106" font-family="Helvetica,sans-Serif" font-size="10.00"> _w0</text>
<text text-anchor="middle" x="126" y="-95" font-family="Helvetica,sans-Serif" font-size="10.00">_w1</text>
<text text-anchor="middle" x="126" y="-84" font-family="Helvetica,sans-Serif" font-size="10.00">_w2</text>
<text text-anchor="middle" x="126" y="-73" font-family="Helvetica,sans-Serif" font-size="10.00">_w3</text>
</g>
<!-- Node13&#45;&gt;Node7 -->
<g id="edge13" class="edge"><title>Node13&#45;&gt;Node7</title>
<path fill="none" stroke="#9a32cd" stroke-dasharray="5,2" d="M486.504,-315.803C554.746,-315.956 660.339,-309.114 743,-272 766.006,-261.67 787.536,-240.898 798.968,-228.65"/>
<polygon fill="#9a32cd" stroke="#9a32cd" points="486.324,-312.302 476.298,-315.727 486.272,-319.302 486.324,-312.302"/>
<text text-anchor="middle" x="555" y="-318" font-family="Helvetica,sans-Serif" font-size="10.00"> _dataUpdateQueue</text>
</g>
<!-- Node14&#45;&gt;Node2 -->
<g id="edge16" class="edge"><title>Node14&#45;&gt;Node2</title>
<path fill="none" stroke="#9a32cd" stroke-dasharray="5,2" d="M617.896,-26.9349C654.66,-29.6682 701.965,-34.9232 743,-45 758.162,-48.7233 774.558,-55.1119 787.025,-60.4988"/>
<polygon fill="#9a32cd" stroke="#9a32cd" points="618.041,-23.4365 607.821,-26.229 617.551,-30.4194 618.041,-23.4365"/>
<text text-anchor="middle" x="688.5" y="-48" font-family="Helvetica,sans-Serif" font-size="10.00"> _emitter</text>
</g>
<!-- Node15 -->
<g id="node14" class="node"><title>Node15</title>
<g id="a_node14"><a xlink:href="class_igor_aux_1_1ia_random_number_generator.html" target="_top" xlink:title=" ">
<polygon fill="white" stroke="black" points="162,-0.5 162,-19.5 338,-19.5 338,-0.5 162,-0.5"/>
<text text-anchor="middle" x="250" y="-7.5" font-family="Helvetica,sans-Serif" font-size="10.00">IgorAux::iaRandomNumberGenerator</text>
</a>
</g>
</g>
<!-- Node15&#45;&gt;Node14 -->
<g id="edge17" class="edge"><title>Node15&#45;&gt;Node14</title>
<path fill="none" stroke="#9a32cd" stroke-dasharray="5,2" d="M348.422,-7.02583C388.066,-6.70209 434.286,-7.45433 476,-11 485.165,-11.779 494.875,-13.0407 504.218,-14.4791"/>
<polygon fill="#9a32cd" stroke="#9a32cd" points="348.189,-3.52801 338.226,-7.1337 348.263,-10.5276 348.189,-3.52801"/>
<text text-anchor="middle" x="416" y="-14" font-family="Helvetica,sans-Serif" font-size="10.00"> _rand</text>
</g>
</g>
</svg>
