<?xml version="1.0" encoding="UTF-8" standalone="no"?>
<!DOCTYPE svg PUBLIC "-//W3C//DTD SVG 1.1//EN"
 "http://www.w3.org/Graphics/SVG/1.1/DTD/svg11.dtd">
<!-- Generated by graphviz version 2.38.0 (20140413.2041)
 -->
<!-- Title: Igor::iModelResourceFactory::flush Pages: 1 -->
<svg width="365pt" height="39pt"
 viewBox="0.00 0.00 365.00 39.00" xmlns="http://www.w3.org/2000/svg" xmlns:xlink="http://www.w3.org/1999/xlink">
<g id="graph0" class="graph" transform="scale(1 1) rotate(0) translate(4 35)">
<title>Igor::iModelResourceFactory::flush</title>
<polygon fill="white" stroke="none" points="-4,4 -4,-35 361,-35 361,4 -4,4"/>
<!-- Node1 -->
<g id="node1" class="node"><title>Node1</title>
<polygon fill="#bfbfbf" stroke="black" points="0,-0.5 0,-30.5 141,-30.5 141,-0.5 0,-0.5"/>
<text text-anchor="start" x="8" y="-18.5" font-family="Helvetica,sans-Serif" font-size="10.00">Igor::iModelResourceFactory</text>
<text text-anchor="middle" x="70.5" y="-7.5" font-family="Helvetica,sans-Serif" font-size="10.00">::flush</text>
</g>
<!-- Node2 -->
<g id="node2" class="node"><title>Node2</title>
<g id="a_node2"><a xlink:href="class_o_b_j2_o_m_p_f.html#ad02e6ef54cf7a8530e5c54f4c9d2f61d" target="_top" xlink:title="OBJ2OMPF::convert">
<polygon fill="white" stroke="black" points="177,-6 177,-25 283,-25 283,-6 177,-6"/>
<text text-anchor="middle" x="230" y="-13" font-family="Helvetica,sans-Serif" font-size="10.00">OBJ2OMPF::convert</text>
</a>
</g>
</g>
<!-- Node1&#45;&gt;Node2 -->
<g id="edge1" class="edge"><title>Node1&#45;&gt;Node2</title>
<path fill="none" stroke="midnightblue" d="M151.235,-15.5C159.935,-15.5 168.619,-15.5 176.862,-15.5"/>
<polygon fill="midnightblue" stroke="midnightblue" points="151.04,-12.0001 141.04,-15.5 151.04,-19.0001 151.04,-12.0001"/>
</g>
<!-- Node3 -->
<g id="node3" class="node"><title>Node3</title>
<g id="a_node3"><a xlink:href="_o_b_j2_o_m_p_f_2src_2main_8cpp.html#a0ddf1224851353fc92bfbff6f499fa97" target="_top" xlink:title="main">
<polygon fill="white" stroke="black" points="319,-6 319,-25 357,-25 357,-6 319,-6"/>
<text text-anchor="middle" x="338" y="-13" font-family="Helvetica,sans-Serif" font-size="10.00">main</text>
</a>
</g>
</g>
<!-- Node2&#45;&gt;Node3 -->
<g id="edge2" class="edge"><title>Node2&#45;&gt;Node3</title>
<path fill="none" stroke="midnightblue" d="M293.208,-15.5C302.464,-15.5 311.334,-15.5 318.64,-15.5"/>
<polygon fill="midnightblue" stroke="midnightblue" points="293.068,-12.0001 283.068,-15.5 293.068,-19.0001 293.068,-12.0001"/>
</g>
</g>
</svg>
