<?xml version="1.0" encoding="UTF-8" standalone="no"?>
<!DOCTYPE svg PUBLIC "-//W3C//DTD SVG 1.1//EN"
 "http://www.w3.org/Graphics/SVG/1.1/DTD/svg11.dtd">
<!-- Generated by graphviz version 2.38.0 (20140413.2041)
 -->
<!-- Title: Igor::iLoader3DS::readMesh Pages: 1 -->
<svg width="492pt" height="28pt"
 viewBox="0.00 0.00 492.00 28.00" xmlns="http://www.w3.org/2000/svg" xmlns:xlink="http://www.w3.org/1999/xlink">
<g id="graph0" class="graph" transform="scale(1 1) rotate(0) translate(4 24)">
<title>Igor::iLoader3DS::readMesh</title>
<polygon fill="white" stroke="none" points="-4,4 -4,-24 488,-24 488,4 -4,4"/>
<!-- Node1 -->
<g id="node1" class="node"><title>Node1</title>
<polygon fill="#bfbfbf" stroke="black" points="0,-0.5 0,-19.5 137,-19.5 137,-0.5 0,-0.5"/>
<text text-anchor="middle" x="68.5" y="-7.5" font-family="Helvetica,sans-Serif" font-size="10.00">Igor::iLoader3DS::readMesh</text>
</g>
<!-- Node2 -->
<g id="node2" class="node"><title>Node2</title>
<g id="a_node2"><a xlink:href="class_igor_1_1i_loader3_d_s.html#aca0e79310e5d9cf03bef571eab095799" target="_top" xlink:title="Igor::iLoader3DS::analyze3DS">
<polygon fill="white" stroke="black" points="173,-0.5 173,-19.5 320,-19.5 320,-0.5 173,-0.5"/>
<text text-anchor="middle" x="246.5" y="-7.5" font-family="Helvetica,sans-Serif" font-size="10.00">Igor::iLoader3DS::analyze3DS</text>
</a>
</g>
</g>
<!-- Node1&#45;&gt;Node2 -->
<g id="edge1" class="edge"><title>Node1&#45;&gt;Node2</title>
<path fill="none" stroke="midnightblue" d="M147.322,-10C155.818,-10 164.443,-10 172.874,-10"/>
<polygon fill="midnightblue" stroke="midnightblue" points="147.043,-6.5001 137.043,-10 147.043,-13.5001 147.043,-6.5001"/>
</g>
<!-- Node3 -->
<g id="node3" class="node"><title>Node3</title>
<g id="a_node3"><a xlink:href="class_igor_1_1i_loader3_d_s.html#a4c261f6da8b9cf51264bb49f0df62718" target="_top" xlink:title="Igor::iLoader3DS::loadFile">
<polygon fill="white" stroke="black" points="356,-0.5 356,-19.5 484,-19.5 484,-0.5 356,-0.5"/>
<text text-anchor="middle" x="420" y="-7.5" font-family="Helvetica,sans-Serif" font-size="10.00">Igor::iLoader3DS::loadFile</text>
</a>
</g>
</g>
<!-- Node2&#45;&gt;Node3 -->
<g id="edge2" class="edge"><title>Node2&#45;&gt;Node3</title>
<path fill="none" stroke="midnightblue" d="M330.305,-10C338.92,-10 347.574,-10 355.92,-10"/>
<polygon fill="midnightblue" stroke="midnightblue" points="330.231,-6.5001 320.231,-10 330.231,-13.5001 330.231,-6.5001"/>
</g>
</g>
</svg>
