<?xml version="1.0" encoding="UTF-8" standalone="no"?>
<!DOCTYPE svg PUBLIC "-//W3C//DTD SVG 1.1//EN"
 "http://www.w3.org/Graphics/SVG/1.1/DTD/svg11.dtd">
<!-- Generated by graphviz version 2.38.0 (20140413.2041)
 -->
<!-- Title: Widget3D Pages: 1 -->
<svg width="210pt" height="84pt"
 viewBox="0.00 0.00 209.50 84.00" xmlns="http://www.w3.org/2000/svg" xmlns:xlink="http://www.w3.org/1999/xlink">
<g id="graph0" class="graph" transform="scale(1 1) rotate(0) translate(4 80)">
<title>Widget3D</title>
<polygon fill="white" stroke="none" points="-4,4 -4,-80 205.5,-80 205.5,4 -4,4"/>
<!-- Node1 -->
<g id="node1" class="node"><title>Node1</title>
<polygon fill="#bfbfbf" stroke="black" points="71,-56.5 71,-75.5 130,-75.5 130,-56.5 71,-56.5"/>
<text text-anchor="middle" x="100.5" y="-63.5" font-family="Helvetica,sans-Serif" font-size="10.00">Widget3D</text>
</g>
<!-- Node2 -->
<g id="node2" class="node"><title>Node2</title>
<g id="a_node2"><a xlink:href="class_widget3_d_emitter.html" target="_top" xlink:title="Widget3DEmitter">
<polygon fill="white" stroke="black" points="0,-0.5 0,-19.5 91,-19.5 91,-0.5 0,-0.5"/>
<text text-anchor="middle" x="45.5" y="-7.5" font-family="Helvetica,sans-Serif" font-size="10.00">Widget3DEmitter</text>
</a>
</g>
</g>
<!-- Node1&#45;&gt;Node2 -->
<g id="edge1" class="edge"><title>Node1&#45;&gt;Node2</title>
<path fill="none" stroke="midnightblue" d="M84.2062,-49.0024C74.4594,-39.4329 62.447,-27.6389 54.4131,-19.7511"/>
<polygon fill="midnightblue" stroke="midnightblue" points="81.8301,-51.5746 91.4179,-56.083 86.7343,-46.5796 81.8301,-51.5746"/>
</g>
<!-- Node3 -->
<g id="node3" class="node"><title>Node3</title>
<g id="a_node3"><a xlink:href="class_widget3_d_locator.html" target="_top" xlink:title="Widget3DLocator">
<polygon fill="white" stroke="black" points="109.5,-0.5 109.5,-19.5 201.5,-19.5 201.5,-0.5 109.5,-0.5"/>
<text text-anchor="middle" x="155.5" y="-7.5" font-family="Helvetica,sans-Serif" font-size="10.00">Widget3DLocator</text>
</a>
</g>
</g>
<!-- Node1&#45;&gt;Node3 -->
<g id="edge2" class="edge"><title>Node1&#45;&gt;Node3</title>
<path fill="none" stroke="midnightblue" d="M116.794,-49.0024C126.541,-39.4329 138.553,-27.6389 146.587,-19.7511"/>
<polygon fill="midnightblue" stroke="midnightblue" points="114.266,-46.5796 109.582,-56.083 119.17,-51.5746 114.266,-46.5796"/>
</g>
</g>
</svg>
