<?xml version="1.0" encoding="UTF-8" standalone="no"?>
<!DOCTYPE svg PUBLIC "-//W3C//DTD SVG 1.1//EN"
 "http://www.w3.org/Graphics/SVG/1.1/DTD/svg11.dtd">
<!-- Generated by graphviz version 2.38.0 (20140413.2041)
 -->
<!-- Title: Igor::iMeshBuilder::clear Pages: 1 -->
<svg width="451pt" height="39pt"
 viewBox="0.00 0.00 451.00 39.00" xmlns="http://www.w3.org/2000/svg" xmlns:xlink="http://www.w3.org/1999/xlink">
<g id="graph0" class="graph" transform="scale(1 1) rotate(0) translate(4 35)">
<title>Igor::iMeshBuilder::clear</title>
<polygon fill="white" stroke="none" points="-4,4 -4,-35 447,-35 447,4 -4,4"/>
<!-- Node110 -->
<g id="node1" class="node"><title>Node110</title>
<g id="a_node1"><a xlink:title=" ">
<polygon fill="#bfbfbf" stroke="black" points="348,-0.5 348,-30.5 443,-30.5 443,-0.5 348,-0.5"/>
<text text-anchor="start" x="356" y="-18.5" font-family="Helvetica,sans-Serif" font-size="10.00">Igor::iMeshBuilder</text>
<text text-anchor="middle" x="395.5" y="-7.5" font-family="Helvetica,sans-Serif" font-size="10.00">::clear</text>
</a>
</g>
</g>
<!-- Node111 -->
<g id="node2" class="node"><title>Node111</title>
<g id="a_node2"><a xlink:href="class_igor_1_1i_contouring_cubes.html#a0ccd75b3e3d06a8516db1d0e03baec9a" target="_top" xlink:title=" ">
<polygon fill="white" stroke="black" points="197,-0.5 197,-30.5 312,-30.5 312,-0.5 197,-0.5"/>
<text text-anchor="start" x="205" y="-18.5" font-family="Helvetica,sans-Serif" font-size="10.00">Igor::iContouringCubes</text>
<text text-anchor="middle" x="254.5" y="-7.5" font-family="Helvetica,sans-Serif" font-size="10.00">::compile</text>
</a>
</g>
</g>
<!-- Node110&#45;&gt;Node111 -->
<g id="edge1" class="edge"><title>Node110&#45;&gt;Node111</title>
<path fill="none" stroke="midnightblue" d="M337.784,-15.5C329.418,-15.5 320.796,-15.5 312.425,-15.5"/>
<polygon fill="midnightblue" stroke="midnightblue" points="337.828,-19.0001 347.828,-15.5 337.828,-12.0001 337.828,-19.0001"/>
</g>
<!-- Node112 -->
<g id="node3" class="node"><title>Node112</title>
<g id="a_node3"><a xlink:href="class_igor_1_1i_voxel_terrain_mesh_generator.html#a573443022d97b40da58a922f413a0326" target="_top" xlink:title=" ">
<polygon fill="white" stroke="black" points="0,-0.5 0,-30.5 161,-30.5 161,-0.5 0,-0.5"/>
<text text-anchor="start" x="8" y="-18.5" font-family="Helvetica,sans-Serif" font-size="10.00">Igor::iVoxelTerrainMeshGenerator</text>
<text text-anchor="middle" x="80.5" y="-7.5" font-family="Helvetica,sans-Serif" font-size="10.00">::importData</text>
</a>
</g>
</g>
<!-- Node111&#45;&gt;Node112 -->
<g id="edge2" class="edge"><title>Node111&#45;&gt;Node112</title>
<path fill="none" stroke="midnightblue" d="M186.69,-15.5C178.359,-15.5 169.775,-15.5 161.273,-15.5"/>
<polygon fill="midnightblue" stroke="midnightblue" points="186.704,-19.0001 196.704,-15.5 186.704,-12.0001 186.704,-19.0001"/>
</g>
</g>
</svg>
