<?xml version="1.0" encoding="UTF-8" standalone="no"?>
<!DOCTYPE svg PUBLIC "-//W3C//DTD SVG 1.1//EN"
 "http://www.w3.org/Graphics/SVG/1.1/DTD/svg11.dtd">
<!-- Generated by graphviz version 2.38.0 (20140413.2041)
 -->
<!-- Title: Igor::iTaskUpdateLOD Pages: 1 -->
<svg width="843pt" height="370pt"
 viewBox="0.00 0.00 843.00 370.04" xmlns="http://www.w3.org/2000/svg" xmlns:xlink="http://www.w3.org/1999/xlink">
<g id="graph0" class="graph" transform="scale(1 1) rotate(0) translate(4 366.036)">
<title>Igor::iTaskUpdateLOD</title>
<polygon fill="white" stroke="none" points="-4,4 -4,-366.036 839,-366.036 839,4 -4,4"/>
<!-- Node1 -->
<g id="node1" class="node"><title>Node1</title>
<polygon fill="#bfbfbf" stroke="black" points="723,-342.5 723,-361.5 835,-361.5 835,-342.5 723,-342.5"/>
<text text-anchor="middle" x="779" y="-349.5" font-family="Helvetica,sans-Serif" font-size="10.00">Igor::iTaskUpdateLOD</text>
</g>
<!-- Node2 -->
<g id="node2" class="node"><title>Node2</title>
<g id="a_node2"><a xlink:href="class_igor_1_1i_task.html" target="_top" xlink:title="Igor::iTask">
<polygon fill="white" stroke="black" points="587,-258.5 587,-277.5 649,-277.5 649,-258.5 587,-258.5"/>
<text text-anchor="middle" x="618" y="-265.5" font-family="Helvetica,sans-Serif" font-size="10.00">Igor::iTask</text>
</a>
</g>
</g>
<!-- Node2&#45;&gt;Node1 -->
<g id="edge1" class="edge"><title>Node2&#45;&gt;Node1</title>
<path fill="none" stroke="midnightblue" d="M624.723,-287.312C631.785,-307.274 645.914,-337.383 670,-351 686.976,-360.597 707.983,-362.561 726.944,-361.511"/>
<polygon fill="midnightblue" stroke="midnightblue" points="628.012,-286.109 621.583,-277.687 621.357,-288.28 628.012,-286.109"/>
</g>
<!-- Node3 -->
<g id="node3" class="node"><title>Node3</title>
<g id="a_node3"><a xlink:href="class_igor_1_1i_window.html" target="_top" xlink:title="Igor::iWindow">
<polygon fill="white" stroke="black" points="332.5,-258.5 332.5,-277.5 407.5,-277.5 407.5,-258.5 332.5,-258.5"/>
<text text-anchor="middle" x="370" y="-265.5" font-family="Helvetica,sans-Serif" font-size="10.00">Igor::iWindow</text>
</a>
</g>
</g>
<!-- Node3&#45;&gt;Node2 -->
<g id="edge2" class="edge"><title>Node3&#45;&gt;Node2</title>
<path fill="none" stroke="#9a32cd" stroke-dasharray="5,2" d="M417.73,-268C467.435,-268 544.589,-268 586.83,-268"/>
<polygon fill="#9a32cd" stroke="#9a32cd" points="417.563,-264.5 407.563,-268 417.563,-271.5 417.563,-264.5"/>
<text text-anchor="middle" x="511.5" y="-271" font-family="Helvetica,sans-Serif" font-size="10.00"> _window</text>
</g>
<!-- Node4 -->
<g id="node4" class="node"><title>Node4</title>
<g id="a_node4"><a xlink:href="class_igor_aux_1_1ia_string.html" target="_top" xlink:title="IgorAux::iaString">
<polygon fill="white" stroke="black" points="98,-258.5 98,-277.5 187,-277.5 187,-258.5 98,-258.5"/>
<text text-anchor="middle" x="142.5" y="-265.5" font-family="Helvetica,sans-Serif" font-size="10.00">IgorAux::iaString</text>
</a>
</g>
</g>
<!-- Node4&#45;&gt;Node3 -->
<g id="edge3" class="edge"><title>Node4&#45;&gt;Node3</title>
<path fill="none" stroke="#9a32cd" stroke-dasharray="5,2" d="M197.251,-268C239.016,-268 295.819,-268 332.451,-268"/>
<polygon fill="#9a32cd" stroke="#9a32cd" points="197.246,-264.5 187.246,-268 197.246,-271.5 197.246,-264.5"/>
<text text-anchor="middle" x="250" y="-271" font-family="Helvetica,sans-Serif" font-size="10.00"> _title</text>
</g>
<!-- Node6 -->
<g id="node6" class="node"><title>Node6</title>
<g id="a_node6"><a xlink:href="class_igor_1_1i_scene.html" target="_top" xlink:title="Igor::iScene">
<polygon fill="white" stroke="black" points="584,-126.5 584,-145.5 652,-145.5 652,-126.5 584,-126.5"/>
<text text-anchor="middle" x="618" y="-133.5" font-family="Helvetica,sans-Serif" font-size="10.00">Igor::iScene</text>
</a>
</g>
</g>
<!-- Node4&#45;&gt;Node6 -->
<g id="edge7" class="edge"><title>Node4&#45;&gt;Node6</title>
<path fill="none" stroke="#9a32cd" stroke-dasharray="5,2" d="M196.771,-257.789C225.005,-250.165 258.759,-237.276 283,-216 295.851,-204.721 286.89,-191.657 301,-182 349.929,-148.514 507.906,-162.852 566,-151 573.144,-149.543 580.735,-147.556 587.818,-145.506"/>
<polygon fill="#9a32cd" stroke="#9a32cd" points="195.864,-254.408 187.039,-260.271 197.594,-261.191 195.864,-254.408"/>
<text text-anchor="middle" x="370" y="-185" font-family="Helvetica,sans-Serif" font-size="10.00"> _name</text>
</g>
<!-- Node12 -->
<g id="node12" class="node"><title>Node12</title>
<g id="a_node12"><a xlink:href="class_igor_1_1i_node.html" target="_top" xlink:title="Igor::iNode">
<polygon fill="white" stroke="black" points="747.5,-126.5 747.5,-145.5 810.5,-145.5 810.5,-126.5 747.5,-126.5"/>
<text text-anchor="middle" x="779" y="-133.5" font-family="Helvetica,sans-Serif" font-size="10.00">Igor::iNode</text>
</a>
</g>
</g>
<!-- Node4&#45;&gt;Node12 -->
<g id="edge17" class="edge"><title>Node4&#45;&gt;Node12</title>
<path fill="none" stroke="#9a32cd" stroke-dasharray="5,2" d="M181.191,-280.564C268.799,-307.475 490.946,-362.37 652,-287 717.251,-256.464 760.536,-173.685 773.737,-145.526"/>
<polygon fill="#9a32cd" stroke="#9a32cd" points="182.018,-277.155 171.429,-277.509 179.927,-283.836 182.018,-277.155"/>
<text text-anchor="middle" x="511.5" y="-328" font-family="Helvetica,sans-Serif" font-size="10.00"> _name</text>
</g>
<!-- Node5 -->
<g id="node5" class="node"><title>Node5</title>
<g id="a_node5"><a xlink:href="class_igor_aux_1_1ia_mutex.html" target="_top" xlink:title="IgorAux::iaMutex">
<polygon fill="white" stroke="black" points="97.5,-142.5 97.5,-161.5 187.5,-161.5 187.5,-142.5 97.5,-142.5"/>
<text text-anchor="middle" x="142.5" y="-149.5" font-family="Helvetica,sans-Serif" font-size="10.00">IgorAux::iaMutex</text>
</a>
</g>
</g>
<!-- Node5&#45;&gt;Node2 -->
<g id="edge5" class="edge"><title>Node5&#45;&gt;Node2</title>
<path fill="none" stroke="#9a32cd" stroke-dasharray="5,2" d="M184.826,-164.508C216.493,-173.922 261.34,-186.888 301,-197 405.34,-223.604 530.403,-250.136 586.799,-261.816"/>
<polygon fill="#9a32cd" stroke="#9a32cd" points="185.614,-161.091 175.031,-161.585 183.612,-167.799 185.614,-161.091"/>
<text text-anchor="middle" x="370" y="-233" font-family="Helvetica,sans-Serif" font-size="10.00"> _mutexID</text>
</g>
<!-- Node5&#45;&gt;Node3 -->
<g id="edge4" class="edge"><title>Node5&#45;&gt;Node3</title>
<path fill="none" stroke="#9a32cd" stroke-dasharray="5,2" d="M166.239,-167.139C196.212,-186.656 251.007,-220.831 301,-244 312.813,-249.475 326.251,-254.462 338.043,-258.455"/>
<polygon fill="#9a32cd" stroke="#9a32cd" points="168.047,-164.14 157.766,-161.581 164.208,-169.993 168.047,-164.14"/>
<text text-anchor="middle" x="250" y="-237" font-family="Helvetica,sans-Serif" font-size="10.00"> _wglMutex</text>
</g>
<!-- Node13 -->
<g id="node13" class="node"><title>Node13</title>
<g id="a_node13"><a xlink:href="class_igor_aux_1_1ia_i_d_generator.html" target="_top" xlink:title="IgorAux::iaIDGenerator\&lt; T \&gt;">
<polygon fill="white" stroke="black" points="301,-0.5 301,-19.5 439,-19.5 439,-0.5 301,-0.5"/>
<text text-anchor="middle" x="370" y="-7.5" font-family="Helvetica,sans-Serif" font-size="10.00">IgorAux::iaIDGenerator&lt; T &gt;</text>
</a>
</g>
</g>
<!-- Node5&#45;&gt;Node13 -->
<g id="edge15" class="edge"><title>Node5&#45;&gt;Node13</title>
<path fill="none" stroke="#9a32cd" stroke-dasharray="5,2" d="M169.262,-136.873C179.749,-129.601 191.21,-120.053 199,-109 213.818,-87.9769 198.569,-71.9396 217,-54 239.344,-32.2515 271.754,-21.1388 300.911,-15.5061"/>
<polygon fill="#9a32cd" stroke="#9a32cd" points="167.229,-134.021 160.783,-142.43 171.066,-139.876 167.229,-134.021"/>
<text text-anchor="middle" x="250" y="-57" font-family="Helvetica,sans-Serif" font-size="10.00"> _mutex</text>
</g>
<!-- Node14 -->
<g id="node14" class="node"><title>Node14</title>
<g id="a_node14"><a xlink:href="class_igor_1_1i_data_update_queue.html" target="_top" xlink:title="Igor::iDataUpdateQueue">
<polygon fill="white" stroke="black" points="310,-88.5 310,-107.5 430,-107.5 430,-88.5 310,-88.5"/>
<text text-anchor="middle" x="370" y="-95.5" font-family="Helvetica,sans-Serif" font-size="10.00">Igor::iDataUpdateQueue</text>
</a>
</g>
</g>
<!-- Node5&#45;&gt;Node14 -->
<g id="edge21" class="edge"><title>Node5&#45;&gt;Node14</title>
<path fill="none" stroke="#9a32cd" stroke-dasharray="5,2" d="M193.06,-140.132C233.969,-130.336 291.267,-116.614 329.223,-107.525"/>
<polygon fill="#9a32cd" stroke="#9a32cd" points="192.206,-136.738 183.296,-142.47 193.836,-143.545 192.206,-136.738"/>
<text text-anchor="middle" x="250" y="-136" font-family="Helvetica,sans-Serif" font-size="10.00"> _mutex</text>
</g>
<!-- Node6&#45;&gt;Node1 -->
<g id="edge6" class="edge"><title>Node6&#45;&gt;Node1</title>
<path fill="none" stroke="#9a32cd" stroke-dasharray="5,2" d="M632.087,-153.778C664.142,-197.325 745.784,-308.235 770.681,-342.057"/>
<polygon fill="#9a32cd" stroke="#9a32cd" points="634.784,-151.538 626.037,-145.56 629.147,-155.688 634.784,-151.538"/>
<text text-anchor="middle" x="687.5" y="-254" font-family="Helvetica,sans-Serif" font-size="10.00"> _scene</text>
</g>
<!-- Node6&#45;&gt;Node12 -->
<g id="edge18" class="edge"><title>Node6&#45;&gt;Node12</title>
<path fill="none" stroke="#9a32cd" stroke-dasharray="5,2" d="M656.129,-123.752C660.757,-122.62 665.458,-121.654 670,-121 696.044,-117.249 725.646,-121.994 747.264,-127.114"/>
<polygon fill="#9a32cd" stroke="#9a32cd" points="654.945,-120.446 646.207,-126.438 656.774,-127.203 654.945,-120.446"/>
<text text-anchor="middle" x="687.5" y="-124" font-family="Helvetica,sans-Serif" font-size="10.00"> _scene</text>
</g>
<!-- Node7 -->
<g id="node7" class="node"><title>Node7</title>
<g id="a_node7"><a xlink:href="class_igor_1_1i_octree.html" target="_top" xlink:title="Igor::iOctree">
<polygon fill="white" stroke="black" points="335,-126.5 335,-145.5 405,-145.5 405,-126.5 335,-126.5"/>
<text text-anchor="middle" x="370" y="-133.5" font-family="Helvetica,sans-Serif" font-size="10.00">Igor::iOctree</text>
</a>
</g>
</g>
<!-- Node7&#45;&gt;Node6 -->
<g id="edge8" class="edge"><title>Node7&#45;&gt;Node6</title>
<path fill="none" stroke="#9a32cd" stroke-dasharray="5,2" d="M415.399,-136C463.873,-136 540.376,-136 583.871,-136"/>
<polygon fill="#9a32cd" stroke="#9a32cd" points="415.205,-132.5 405.205,-136 415.205,-139.5 415.205,-132.5"/>
<text text-anchor="middle" x="511.5" y="-139" font-family="Helvetica,sans-Serif" font-size="10.00"> _octree</text>
</g>
<!-- Node8 -->
<g id="node8" class="node"><title>Node8</title>
<g id="a_node8"><a xlink:href="class_igor_1_1i_node_visitor_update_transform.html" target="_top" xlink:title="Igor::iNodeVisitorUpdate\lTransform">
<polygon fill="white" stroke="black" points="309,-39 309,-69 431,-69 431,-39 309,-39"/>
<text text-anchor="start" x="317" y="-57" font-family="Helvetica,sans-Serif" font-size="10.00">Igor::iNodeVisitorUpdate</text>
<text text-anchor="middle" x="370" y="-46" font-family="Helvetica,sans-Serif" font-size="10.00">Transform</text>
</a>
</g>
</g>
<!-- Node8&#45;&gt;Node6 -->
<g id="edge9" class="edge"><title>Node8&#45;&gt;Node6</title>
<path fill="none" stroke="#9a32cd" stroke-dasharray="5,2" d="M441.258,-58.2401C479.686,-62.7514 527.22,-72.0157 566,-91 583.605,-99.6184 599.823,-115.981 609.05,-126.421"/>
<polygon fill="#9a32cd" stroke="#9a32cd" points="441.508,-54.7466 431.187,-57.141 440.748,-61.7053 441.508,-54.7466"/>
<text text-anchor="middle" x="511.5" y="-94" font-family="Helvetica,sans-Serif" font-size="10.00"> _updateTransformVisitor</text>
</g>
<!-- Node9 -->
<g id="node9" class="node"><title>Node9</title>
<g id="a_node9"><a xlink:href="class_igor_1_1i_node_visitor.html" target="_top" xlink:title="Igor::iNodeVisitor">
<polygon fill="white" stroke="black" points="97,-42.5 97,-61.5 188,-61.5 188,-42.5 97,-42.5"/>
<text text-anchor="middle" x="142.5" y="-49.5" font-family="Helvetica,sans-Serif" font-size="10.00">Igor::iNodeVisitor</text>
</a>
</g>
</g>
<!-- Node9&#45;&gt;Node8 -->
<g id="edge10" class="edge"><title>Node9&#45;&gt;Node8</title>
<path fill="none" stroke="midnightblue" d="M198.103,-52.4843C231.526,-52.7807 274.333,-53.1604 308.744,-53.4656"/>
<polygon fill="midnightblue" stroke="midnightblue" points="198.082,-48.9841 188.052,-52.3951 198.02,-55.9838 198.082,-48.9841"/>
</g>
<!-- Node10 -->
<g id="node10" class="node"><title>Node10</title>
<g id="a_node10"><a xlink:href="class_igor_aux_1_1ia_matrix.html" target="_top" xlink:title="IgorAux::iaMatrix\&lt; T \&gt;">
<polygon fill="white" stroke="black" points="86,-80.5 86,-99.5 199,-99.5 199,-80.5 86,-80.5"/>
<text text-anchor="middle" x="142.5" y="-87.5" font-family="Helvetica,sans-Serif" font-size="10.00">IgorAux::iaMatrix&lt; T &gt;</text>
</a>
</g>
</g>
<!-- Node10&#45;&gt;Node8 -->
<g id="edge11" class="edge"><title>Node10&#45;&gt;Node8</title>
<path fill="none" stroke="#9a32cd" stroke-dasharray="5,2" d="M209.226,-79.5071C240.671,-74.4871 278.061,-68.518 308.762,-63.6167"/>
<polygon fill="#9a32cd" stroke="#9a32cd" points="208.565,-76.0683 199.242,-81.1011 209.668,-82.9808 208.565,-76.0683"/>
<text text-anchor="middle" x="250" y="-81" font-family="Helvetica,sans-Serif" font-size="10.00"> _currentMatrix</text>
</g>
<!-- Node11 -->
<g id="node11" class="node"><title>Node11</title>
<polygon fill="white" stroke="#bfbfbf" points="0,-17.5 0,-36.5 29,-36.5 29,-17.5 0,-17.5"/>
<text text-anchor="middle" x="14.5" y="-24.5" font-family="Helvetica,sans-Serif" font-size="10.00">T</text>
</g>
<!-- Node11&#45;&gt;Node10 -->
<g id="edge12" class="edge"><title>Node11&#45;&gt;Node10</title>
<path fill="none" stroke="#9a32cd" stroke-dasharray="5,2" d="M37.3608,-42.4602C50.9223,-51.584 68.9558,-62.8946 86,-71 93.4499,-74.5428 101.742,-77.7458 109.597,-80.4694"/>
<polygon fill="#9a32cd" stroke="#9a32cd" points="38.9807,-39.3272 28.7537,-36.5593 35.0225,-45.1006 38.9807,-39.3272"/>
<text text-anchor="middle" x="57.5" y="-98" font-family="Helvetica,sans-Serif" font-size="10.00"> _w0</text>
<text text-anchor="middle" x="57.5" y="-87" font-family="Helvetica,sans-Serif" font-size="10.00">_w1</text>
<text text-anchor="middle" x="57.5" y="-76" font-family="Helvetica,sans-Serif" font-size="10.00">_w2</text>
<text text-anchor="middle" x="57.5" y="-65" font-family="Helvetica,sans-Serif" font-size="10.00">_w3</text>
</g>
<!-- Node11&#45;&gt;Node13 -->
<g id="edge16" class="edge"><title>Node11&#45;&gt;Node13</title>
<path fill="none" stroke="#9a32cd" stroke-dasharray="5,2" d="M39.0446,-25.1621C52.7415,-24.135 70.3402,-22.8871 86,-22 159.401,-17.8418 243.585,-14.4478 300.926,-12.3435"/>
<polygon fill="#9a32cd" stroke="#9a32cd" points="38.713,-21.6771 29.008,-25.9274 39.2452,-28.6569 38.713,-21.6771"/>
<text text-anchor="middle" x="142.5" y="-25" font-family="Helvetica,sans-Serif" font-size="10.00"> _nextID</text>
</g>
<!-- Node12&#45;&gt;Node6 -->
<g id="edge13" class="edge"><title>Node12&#45;&gt;Node6</title>
<path fill="none" stroke="#9a32cd" stroke-dasharray="5,2" d="M737.349,-136C710.996,-136 677.092,-136 652.332,-136"/>
<polygon fill="#9a32cd" stroke="#9a32cd" points="737.405,-139.5 747.405,-136 737.405,-132.5 737.405,-139.5"/>
<text text-anchor="middle" x="687.5" y="-139" font-family="Helvetica,sans-Serif" font-size="10.00"> _root</text>
</g>
<!-- Node12&#45;&gt;Node12 -->
<g id="edge19" class="edge"><title>Node12&#45;&gt;Node12</title>
<path fill="none" stroke="#9a32cd" stroke-dasharray="5,2" d="M762.334,-155.4C763.447,-160.315 769.002,-164 779,-164 794.996,-164 799.62,-154.565 792.872,-145.757"/>
<polygon fill="#9a32cd" stroke="#9a32cd" points="765.707,-156.336 765.128,-145.757 758.983,-154.388 765.707,-156.336"/>
<text text-anchor="middle" x="779" y="-167" font-family="Helvetica,sans-Serif" font-size="10.00"> _parent</text>
</g>
<!-- Node13&#45;&gt;Node12 -->
<g id="edge14" class="edge"><title>Node13&#45;&gt;Node12</title>
<path fill="none" stroke="#9a32cd" stroke-dasharray="5,2" d="M427.423,-21.7154C466.623,-30.3122 519.893,-42.9085 566,-57 636.055,-78.4104 716.553,-110.553 755.098,-126.428"/>
<polygon fill="#9a32cd" stroke="#9a32cd" points="428.035,-18.2668 417.52,-19.5629 426.548,-25.1071 428.035,-18.2668"/>
<text text-anchor="middle" x="618" y="-89" font-family="Helvetica,sans-Serif" font-size="10.00"> _idGenerator</text>
</g>
<!-- Node14&#45;&gt;Node6 -->
<g id="edge20" class="edge"><title>Node14&#45;&gt;Node6</title>
<path fill="none" stroke="#9a32cd" stroke-dasharray="5,2" d="M440.584,-103.336C477.998,-106.925 524.788,-112.572 566,-121 573.143,-122.461 580.734,-124.449 587.817,-126.499"/>
<polygon fill="#9a32cd" stroke="#9a32cd" points="440.574,-99.82 430.292,-102.378 439.925,-106.79 440.574,-99.82"/>
<text text-anchor="middle" x="511.5" y="-124" font-family="Helvetica,sans-Serif" font-size="10.00"> _dataUpdateQueue</text>
</g>
</g>
</svg>
