<?xml version="1.0" encoding="UTF-8" standalone="no"?>
<!DOCTYPE svg PUBLIC "-//W3C//DTD SVG 1.1//EN"
 "http://www.w3.org/Graphics/SVG/1.1/DTD/svg11.dtd">
<!-- Generated by graphviz version 2.38.0 (20140413.2041)
 -->
<!-- Title: IgorAux::iaMatrix::shear Pages: 1 -->
<svg width="438pt" height="127pt"
 viewBox="0.00 0.00 438.00 127.00" xmlns="http://www.w3.org/2000/svg" xmlns:xlink="http://www.w3.org/1999/xlink">
<g id="graph0" class="graph" transform="scale(1 1) rotate(0) translate(4 123)">
<title>IgorAux::iaMatrix::shear</title>
<polygon fill="white" stroke="none" points="-4,4 -4,-123 434,-123 434,4 -4,4"/>
<!-- Node1 -->
<g id="node1" class="node"><title>Node1</title>
<polygon fill="#bfbfbf" stroke="black" points="0,-44.5 0,-74.5 96,-74.5 96,-44.5 0,-44.5"/>
<text text-anchor="start" x="8" y="-62.5" font-family="Helvetica,sans-Serif" font-size="10.00">IgorAux::iaMatrix::</text>
<text text-anchor="middle" x="48" y="-51.5" font-family="Helvetica,sans-Serif" font-size="10.00">shear</text>
</g>
<!-- Node2 -->
<g id="node2" class="node"><title>Node2</title>
<g id="a_node2"><a xlink:href="class_igor_aux_1_1ia_transform.html#a2883bf24d3522a7b7ca3d55507770d52" target="_top" xlink:title="IgorAux::iaTransform\l::getMatrix">
<polygon fill="white" stroke="black" points="144.5,-88.5 144.5,-118.5 250.5,-118.5 250.5,-88.5 144.5,-88.5"/>
<text text-anchor="start" x="152.5" y="-106.5" font-family="Helvetica,sans-Serif" font-size="10.00">IgorAux::iaTransform</text>
<text text-anchor="middle" x="197.5" y="-95.5" font-family="Helvetica,sans-Serif" font-size="10.00">::getMatrix</text>
</a>
</g>
</g>
<!-- Node1&#45;&gt;Node2 -->
<g id="edge1" class="edge"><title>Node1&#45;&gt;Node2</title>
<path fill="none" stroke="midnightblue" d="M105.993,-76.5014C119.195,-80.4394 133.153,-84.6032 146.051,-88.4507"/>
<polygon fill="midnightblue" stroke="midnightblue" points="106.659,-73.0475 96.0755,-73.5428 104.658,-79.7554 106.659,-73.0475"/>
</g>
<!-- Node3 -->
<g id="node3" class="node"><title>Node3</title>
<g id="a_node3"><a xlink:href="_matrix_8cpp.html#a0a1b233092aa8e33b0ee1fe6a5802c25" target="_top" xlink:title="TEST">
<polygon fill="white" stroke="black" points="177,-50 177,-69 218,-69 218,-50 177,-50"/>
<text text-anchor="middle" x="197.5" y="-57" font-family="Helvetica,sans-Serif" font-size="10.00">TEST</text>
</a>
</g>
</g>
<!-- Node1&#45;&gt;Node3 -->
<g id="edge2" class="edge"><title>Node1&#45;&gt;Node3</title>
<path fill="none" stroke="midnightblue" d="M106.215,-59.5C131.192,-59.5 158.836,-59.5 176.873,-59.5"/>
<polygon fill="midnightblue" stroke="midnightblue" points="106.075,-56.0001 96.0755,-59.5 106.075,-63.0001 106.075,-56.0001"/>
</g>
<!-- Node4 -->
<g id="node4" class="node"><title>Node4</title>
<g id="a_node4"><a xlink:href="class_user_control_transformation.html#a1d05ce7b9e9b44dc148fcd4518747d04" target="_top" xlink:title="UserControlTransformation\l::onChange">
<polygon fill="white" stroke="black" points="132,-0.5 132,-30.5 263,-30.5 263,-0.5 132,-0.5"/>
<text text-anchor="start" x="140" y="-18.5" font-family="Helvetica,sans-Serif" font-size="10.00">UserControlTransformation</text>
<text text-anchor="middle" x="197.5" y="-7.5" font-family="Helvetica,sans-Serif" font-size="10.00">::onChange</text>
</a>
</g>
</g>
<!-- Node1&#45;&gt;Node4 -->
<g id="edge3" class="edge"><title>Node1&#45;&gt;Node4</title>
<path fill="none" stroke="midnightblue" d="M105.993,-42.4986C119.195,-38.5606 133.153,-34.3968 146.051,-30.5493"/>
<polygon fill="midnightblue" stroke="midnightblue" points="104.658,-39.2446 96.0755,-45.4572 106.659,-45.9525 104.658,-39.2446"/>
</g>
<!-- Node5 -->
<g id="node5" class="node"><title>Node5</title>
<g id="a_node5"><a xlink:href="class_user_control_transformation.html#a78f585dbaf9da6958bacb936feefcb48" target="_top" xlink:title="UserControlTransformation\l::createTextEdit">
<polygon fill="white" stroke="black" points="299,-0.5 299,-30.5 430,-30.5 430,-0.5 299,-0.5"/>
<text text-anchor="start" x="307" y="-18.5" font-family="Helvetica,sans-Serif" font-size="10.00">UserControlTransformation</text>
<text text-anchor="middle" x="364.5" y="-7.5" font-family="Helvetica,sans-Serif" font-size="10.00">::createTextEdit</text>
</a>
</g>
</g>
<!-- Node4&#45;&gt;Node5 -->
<g id="edge4" class="edge"><title>Node4&#45;&gt;Node5</title>
<path fill="none" stroke="midnightblue" d="M273.239,-15.5C281.821,-15.5 290.516,-15.5 298.948,-15.5"/>
<polygon fill="midnightblue" stroke="midnightblue" points="273.239,-12.0001 263.239,-15.5 273.239,-19.0001 273.239,-12.0001"/>
</g>
</g>
</svg>
