<?xml version="1.0" encoding="UTF-8" standalone="no"?>
<!DOCTYPE svg PUBLIC "-//W3C//DTD SVG 1.1//EN"
 "http://www.w3.org/Graphics/SVG/1.1/DTD/svg11.dtd">
<!-- Generated by graphviz version 2.38.0 (20140413.2041)
 -->
<!-- Title: Igor::iWidgetScroll::calcChildOffsets Pages: 1 -->
<svg width="277pt" height="241pt"
 viewBox="0.00 0.00 277.00 240.50" xmlns="http://www.w3.org/2000/svg" xmlns:xlink="http://www.w3.org/1999/xlink">
<g id="graph0" class="graph" transform="scale(1 1) rotate(0) translate(4 236.5)">
<title>Igor::iWidgetScroll::calcChildOffsets</title>
<polygon fill="white" stroke="none" points="-4,4 -4,-236.5 273,-236.5 273,4 -4,4"/>
<!-- Node1 -->
<g id="node1" class="node"><title>Node1</title>
<polygon fill="#bfbfbf" stroke="black" points="0,-90 0,-120 96,-120 96,-90 0,-90"/>
<text text-anchor="start" x="8" y="-108" font-family="Helvetica,sans-Serif" font-size="10.00">Igor::iWidgetScroll</text>
<text text-anchor="middle" x="48" y="-97" font-family="Helvetica,sans-Serif" font-size="10.00">::calcChildOffsets</text>
</g>
<!-- Node2 -->
<g id="node2" class="node"><title>Node2</title>
<g id="a_node2"><a xlink:href="class_igor_1_1i_widget.html#a3dc524fb298d297373ab95205a812dcb" target="_top" xlink:title="Igor::iWidget::getConfigured\lWidth">
<polygon fill="white" stroke="black" points="132,-202 132,-232 269,-232 269,-202 132,-202"/>
<text text-anchor="start" x="140" y="-220" font-family="Helvetica,sans-Serif" font-size="10.00">Igor::iWidget::getConfigured</text>
<text text-anchor="middle" x="200.5" y="-209" font-family="Helvetica,sans-Serif" font-size="10.00">Width</text>
</a>
</g>
</g>
<!-- Node1&#45;&gt;Node2 -->
<g id="edge1" class="edge"><title>Node1&#45;&gt;Node2</title>
<path fill="none" stroke="midnightblue" d="M59.6722,-120.156C74.0506,-139.554 101.396,-173.031 132,-193 134.441,-194.593 137.001,-196.095 139.638,-197.51"/>
<polygon fill="midnightblue" stroke="midnightblue" points="138.313,-200.758 148.836,-201.99 141.378,-194.465 138.313,-200.758"/>
</g>
<!-- Node3 -->
<g id="node3" class="node"><title>Node3</title>
<g id="a_node3"><a xlink:href="class_igor_1_1i_widget.html#a6fe44b012a0b61d6c6aa4f75a57bb954" target="_top" xlink:title="Igor::iWidget::getConfigured\lHeight">
<polygon fill="white" stroke="black" points="132,-153 132,-183 269,-183 269,-153 132,-153"/>
<text text-anchor="start" x="140" y="-171" font-family="Helvetica,sans-Serif" font-size="10.00">Igor::iWidget::getConfigured</text>
<text text-anchor="middle" x="200.5" y="-160" font-family="Helvetica,sans-Serif" font-size="10.00">Height</text>
</a>
</g>
</g>
<!-- Node1&#45;&gt;Node3 -->
<g id="edge2" class="edge"><title>Node1&#45;&gt;Node3</title>
<path fill="none" stroke="midnightblue" d="M80.6809,-120.178C96.0549,-127.37 114.864,-135.916 132,-143 137.053,-145.089 142.35,-147.194 147.66,-149.249"/>
<polygon fill="midnightblue" stroke="midnightblue" points="146.592,-152.587 157.183,-152.878 149.085,-146.046 146.592,-152.587"/>
</g>
<!-- Node4 -->
<g id="node4" class="node"><title>Node4</title>
<g id="a_node4"><a xlink:href="class_igor_1_1i_rectangle.html#a59f42bd4f0c4d838d19ef6bd326d4e43" target="_top" xlink:title="Igor::iRectangle::setX">
<polygon fill="white" stroke="black" points="146,-114.5 146,-133.5 255,-133.5 255,-114.5 146,-114.5"/>
<text text-anchor="middle" x="200.5" y="-121.5" font-family="Helvetica,sans-Serif" font-size="10.00">Igor::iRectangle::setX</text>
</a>
</g>
</g>
<!-- Node1&#45;&gt;Node4 -->
<g id="edge3" class="edge"><title>Node1&#45;&gt;Node4</title>
<path fill="none" stroke="midnightblue" d="M96.2062,-110.96C108.777,-112.547 122.567,-114.288 135.861,-115.966"/>
<polygon fill="midnightblue" stroke="midnightblue" points="135.542,-119.453 145.902,-117.233 136.419,-112.508 135.542,-119.453"/>
</g>
<!-- Node5 -->
<g id="node5" class="node"><title>Node5</title>
<g id="a_node5"><a xlink:href="class_igor_1_1i_rectangle.html#adf858c6f072682c572aa78044361ac89" target="_top" xlink:title="Igor::iRectangle::setY">
<polygon fill="white" stroke="black" points="145.5,-76.5 145.5,-95.5 255.5,-95.5 255.5,-76.5 145.5,-76.5"/>
<text text-anchor="middle" x="200.5" y="-83.5" font-family="Helvetica,sans-Serif" font-size="10.00">Igor::iRectangle::setY</text>
</a>
</g>
</g>
<!-- Node1&#45;&gt;Node5 -->
<g id="edge4" class="edge"><title>Node1&#45;&gt;Node5</title>
<path fill="none" stroke="midnightblue" d="M96.2062,-99.0404C108.64,-97.4707 122.266,-95.7505 135.425,-94.0892"/>
<polygon fill="midnightblue" stroke="midnightblue" points="135.887,-97.5588 145.37,-92.8337 135.01,-90.6139 135.887,-97.5588"/>
</g>
<!-- Node6 -->
<g id="node6" class="node"><title>Node6</title>
<g id="a_node6"><a xlink:href="class_igor_1_1i_rectangle.html#a29546c0e2d54ee9608adbbc8b041ea56" target="_top" xlink:title="Igor::iRectangle::setWidth">
<polygon fill="white" stroke="black" points="136,-38.5 136,-57.5 265,-57.5 265,-38.5 136,-38.5"/>
<text text-anchor="middle" x="200.5" y="-45.5" font-family="Helvetica,sans-Serif" font-size="10.00">Igor::iRectangle::setWidth</text>
</a>
</g>
</g>
<!-- Node1&#45;&gt;Node6 -->
<g id="edge5" class="edge"><title>Node1&#45;&gt;Node6</title>
<path fill="none" stroke="midnightblue" d="M78.8828,-89.9567C94.4717,-82.4599 113.999,-73.6091 132,-67 138.373,-64.6602 145.173,-62.4382 151.91,-60.3937"/>
<polygon fill="midnightblue" stroke="midnightblue" points="153.068,-63.7018 161.681,-57.5322 151.1,-56.984 153.068,-63.7018"/>
</g>
<!-- Node7 -->
<g id="node7" class="node"><title>Node7</title>
<g id="a_node7"><a xlink:href="class_igor_1_1i_rectangle.html#a30533fbc10c5e609aafa8b0f251f82ee" target="_top" xlink:title="Igor::iRectangle::setHeight">
<polygon fill="white" stroke="black" points="135,-0.5 135,-19.5 266,-19.5 266,-0.5 135,-0.5"/>
<text text-anchor="middle" x="200.5" y="-7.5" font-family="Helvetica,sans-Serif" font-size="10.00">Igor::iRectangle::setHeight</text>
</a>
</g>
</g>
<!-- Node1&#45;&gt;Node7 -->
<g id="edge6" class="edge"><title>Node1&#45;&gt;Node7</title>
<path fill="none" stroke="midnightblue" d="M61.5131,-89.8916C76.537,-72.7053 103.319,-44.9634 132,-29 135.997,-26.7751 140.276,-24.794 144.666,-23.033"/>
<polygon fill="midnightblue" stroke="midnightblue" points="146.175,-26.2093 154.392,-19.5205 143.797,-19.6256 146.175,-26.2093"/>
</g>
</g>
</svg>
