<?xml version="1.0" encoding="UTF-8" standalone="no"?>
<!DOCTYPE svg PUBLIC "-//W3C//DTD SVG 1.1//EN"
 "http://www.w3.org/Graphics/SVG/1.1/DTD/svg11.dtd">
<!-- Generated by graphviz version 2.38.0 (20140413.2041)
 -->
<!-- Title: Igor::iLoader3DS::readChunk Pages: 1 -->
<svg width="842pt" height="82pt"
 viewBox="0.00 0.00 842.00 81.87" xmlns="http://www.w3.org/2000/svg" xmlns:xlink="http://www.w3.org/1999/xlink">
<g id="graph0" class="graph" transform="scale(1 1) rotate(0) translate(4 77.8704)">
<title>Igor::iLoader3DS::readChunk</title>
<polygon fill="white" stroke="none" points="-4,4 -4,-77.8704 838,-77.8704 838,4 -4,4"/>
<!-- Node1 -->
<g id="node1" class="node"><title>Node1</title>
<polygon fill="#bfbfbf" stroke="black" points="0,-38.5 0,-57.5 141,-57.5 141,-38.5 0,-38.5"/>
<text text-anchor="middle" x="70.5" y="-45.5" font-family="Helvetica,sans-Serif" font-size="10.00">Igor::iLoader3DS::readChunk</text>
</g>
<!-- Node2 -->
<g id="node2" class="node"><title>Node2</title>
<g id="a_node2"><a xlink:href="class_igor_1_1i_loader3_d_s.html#aca0e79310e5d9cf03bef571eab095799" target="_top" xlink:title="Igor::iLoader3DS::analyze3DS">
<polygon fill="white" stroke="black" points="523,-38.5 523,-57.5 670,-57.5 670,-38.5 523,-38.5"/>
<text text-anchor="middle" x="596.5" y="-45.5" font-family="Helvetica,sans-Serif" font-size="10.00">Igor::iLoader3DS::analyze3DS</text>
</a>
</g>
</g>
<!-- Node1&#45;&gt;Node2 -->
<g id="edge1" class="edge"><title>Node1&#45;&gt;Node2</title>
<path fill="none" stroke="midnightblue" d="M124.515,-59.4515C141.224,-62.5472 159.807,-65.4642 177,-67 314.249,-79.2603 349.63,-72.8208 487,-62 500.917,-60.9038 515.786,-59.283 529.914,-57.5292"/>
<polygon fill="midnightblue" stroke="midnightblue" points="124.862,-55.9544 114.382,-57.5116 123.546,-62.8296 124.862,-55.9544"/>
</g>
<!-- Node4 -->
<g id="node4" class="node"><title>Node4</title>
<g id="a_node4"><a xlink:href="class_igor_1_1i_loader3_d_s.html#ad4d61d85248ac21d1fc637f9028ef3dc" target="_top" xlink:title="Igor::iLoader3DS::findChunk">
<polygon fill="white" stroke="black" points="177,-38.5 177,-57.5 314,-57.5 314,-38.5 177,-38.5"/>
<text text-anchor="middle" x="245.5" y="-45.5" font-family="Helvetica,sans-Serif" font-size="10.00">Igor::iLoader3DS::findChunk</text>
</a>
</g>
</g>
<!-- Node1&#45;&gt;Node4 -->
<g id="edge3" class="edge"><title>Node1&#45;&gt;Node4</title>
<path fill="none" stroke="midnightblue" d="M151.617,-48C160.071,-48 168.606,-48 176.898,-48"/>
<polygon fill="midnightblue" stroke="midnightblue" points="151.367,-44.5001 141.367,-48 151.367,-51.5001 151.367,-44.5001"/>
</g>
<!-- Node5 -->
<g id="node5" class="node"><title>Node5</title>
<g id="a_node5"><a xlink:href="class_igor_1_1i_loader3_d_s.html#adc6bfd41b7e33b44ac4689aba4ecc57c" target="_top" xlink:title="Igor::iLoader3DS::readMesh">
<polygon fill="white" stroke="black" points="350,-0.5 350,-19.5 487,-19.5 487,-0.5 350,-0.5"/>
<text text-anchor="middle" x="418.5" y="-7.5" font-family="Helvetica,sans-Serif" font-size="10.00">Igor::iLoader3DS::readMesh</text>
</a>
</g>
</g>
<!-- Node1&#45;&gt;Node5 -->
<g id="edge7" class="edge"><title>Node1&#45;&gt;Node5</title>
<path fill="none" stroke="midnightblue" d="M128.659,-36.6376C144.286,-33.8235 161.254,-31.0348 177,-29 235.153,-21.4852 301.628,-16.5073 349.931,-13.5391"/>
<polygon fill="midnightblue" stroke="midnightblue" points="127.814,-33.2342 118.611,-38.4829 129.078,-40.1191 127.814,-33.2342"/>
</g>
<!-- Node3 -->
<g id="node3" class="node"><title>Node3</title>
<g id="a_node3"><a xlink:href="class_igor_1_1i_loader3_d_s.html#a4c261f6da8b9cf51264bb49f0df62718" target="_top" xlink:title="Igor::iLoader3DS::loadFile">
<polygon fill="white" stroke="black" points="706,-38.5 706,-57.5 834,-57.5 834,-38.5 706,-38.5"/>
<text text-anchor="middle" x="770" y="-45.5" font-family="Helvetica,sans-Serif" font-size="10.00">Igor::iLoader3DS::loadFile</text>
</a>
</g>
</g>
<!-- Node2&#45;&gt;Node3 -->
<g id="edge2" class="edge"><title>Node2&#45;&gt;Node3</title>
<path fill="none" stroke="midnightblue" d="M680.305,-48C688.92,-48 697.574,-48 705.92,-48"/>
<polygon fill="midnightblue" stroke="midnightblue" points="680.231,-44.5001 670.231,-48 680.231,-51.5001 680.231,-44.5001"/>
</g>
<!-- Node4&#45;&gt;Node2 -->
<g id="edge4" class="edge"><title>Node4&#45;&gt;Node2</title>
<path fill="none" stroke="midnightblue" d="M324.279,-48C383.638,-48 464.825,-48 522.87,-48"/>
<polygon fill="midnightblue" stroke="midnightblue" points="324.205,-44.5001 314.205,-48 324.204,-51.5001 324.205,-44.5001"/>
</g>
<!-- Node4&#45;&gt;Node5 -->
<g id="edge5" class="edge"><title>Node4&#45;&gt;Node5</title>
<path fill="none" stroke="midnightblue" d="M299.709,-36.1757C323.817,-30.8184 351.94,-24.5689 374.66,-19.5201"/>
<polygon fill="midnightblue" stroke="midnightblue" points="298.653,-32.825 289.651,-38.411 300.172,-39.6583 298.653,-32.825"/>
</g>
<!-- Node5&#45;&gt;Node2 -->
<g id="edge6" class="edge"><title>Node5&#45;&gt;Node2</title>
<path fill="none" stroke="midnightblue" d="M473.933,-21.7526C498.819,-27.1258 527.919,-33.4086 551.407,-38.4799"/>
<polygon fill="midnightblue" stroke="midnightblue" points="474.426,-18.2784 463.912,-19.589 472.948,-25.1207 474.426,-18.2784"/>
</g>
</g>
</svg>
