<?xml version="1.0" encoding="UTF-8" standalone="no"?>
<!DOCTYPE svg PUBLIC "-//W3C//DTD SVG 1.1//EN"
 "http://www.w3.org/Graphics/SVG/1.1/DTD/svg11.dtd">
<!-- Generated by graphviz version 2.38.0 (20140413.2041)
 -->
<!-- Title: Igor::iModelDataIOOBJ::readVertex Pages: 1 -->
<svg width="517pt" height="245pt"
 viewBox="0.00 0.00 517.00 245.14" xmlns="http://www.w3.org/2000/svg" xmlns:xlink="http://www.w3.org/1999/xlink">
<g id="graph0" class="graph" transform="scale(1 1) rotate(0) translate(4 241.145)">
<title>Igor::iModelDataIOOBJ::readVertex</title>
<polygon fill="white" stroke="none" points="-4,4 -4,-241.145 513,-241.145 513,4 -4,4"/>
<!-- Node95 -->
<g id="node1" class="node"><title>Node95</title>
<g id="a_node1"><a xlink:title=" ">
<polygon fill="#bfbfbf" stroke="black" points="0,-115.5 0,-145.5 116,-145.5 116,-115.5 0,-115.5"/>
<text text-anchor="start" x="8" y="-133.5" font-family="Helvetica,sans-Serif" font-size="10.00">Igor::iModelDataIOOBJ</text>
<text text-anchor="middle" x="58" y="-122.5" font-family="Helvetica,sans-Serif" font-size="10.00">::readVertex</text>
</a>
</g>
</g>
<!-- Node96 -->
<g id="node2" class="node"><title>Node96</title>
<g id="a_node2"><a xlink:href="class_igor_aux_1_1ia_string.html#a7d68b1fee6a735fd99728850ea55e2d1" target="_top" xlink:title=" ">
<polygon fill="white" stroke="black" points="152,-115.5 152,-145.5 247,-145.5 247,-115.5 152,-115.5"/>
<text text-anchor="start" x="160" y="-133.5" font-family="Helvetica,sans-Serif" font-size="10.00">IgorAux::iaString::</text>
<text text-anchor="middle" x="199.5" y="-122.5" font-family="Helvetica,sans-Serif" font-size="10.00">split</text>
</a>
</g>
</g>
<!-- Node95&#45;&gt;Node96 -->
<g id="edge1" class="edge"><title>Node95&#45;&gt;Node96</title>
<path fill="none" stroke="midnightblue" d="M116.142,-130.5C124.594,-130.5 133.302,-130.5 141.746,-130.5"/>
<polygon fill="midnightblue" stroke="midnightblue" points="141.88,-134 151.88,-130.5 141.88,-127 141.88,-134"/>
</g>
<!-- Node97 -->
<g id="node3" class="node"><title>Node97</title>
<g id="a_node3"><a xlink:href="class_igor_aux_1_1ia_string.html#afa2b9ad864db36d1af6c6c67e02d270b" target="_top" xlink:title=" ">
<polygon fill="white" stroke="black" points="414,-186.5 414,-216.5 509,-216.5 509,-186.5 414,-186.5"/>
<text text-anchor="start" x="422" y="-204.5" font-family="Helvetica,sans-Serif" font-size="10.00">IgorAux::iaString::</text>
<text text-anchor="middle" x="461.5" y="-193.5" font-family="Helvetica,sans-Serif" font-size="10.00">isEmpty</text>
</a>
</g>
</g>
<!-- Node96&#45;&gt;Node97 -->
<g id="edge2" class="edge"><title>Node96&#45;&gt;Node97</title>
<path fill="none" stroke="midnightblue" d="M208.084,-145.744C220.289,-168.33 246.653,-209.811 283,-226.5 326.096,-246.288 380.778,-233.66 417.983,-220.197"/>
<polygon fill="midnightblue" stroke="midnightblue" points="419.403,-223.402 427.518,-216.59 416.926,-216.855 419.403,-223.402"/>
</g>
<!-- Node98 -->
<g id="node4" class="node"><title>Node98</title>
<g id="a_node4"><a xlink:href="class_igor_aux_1_1ia_string.html#a6f6bb95eb9eb1e85f80cde1045e5b9fc" target="_top" xlink:title=" ">
<polygon fill="white" stroke="black" points="283,-186.5 283,-216.5 378,-216.5 378,-186.5 283,-186.5"/>
<text text-anchor="start" x="291" y="-204.5" font-family="Helvetica,sans-Serif" font-size="10.00">IgorAux::iaString::</text>
<text text-anchor="middle" x="330.5" y="-193.5" font-family="Helvetica,sans-Serif" font-size="10.00">findFirstNotOf</text>
</a>
</g>
</g>
<!-- Node96&#45;&gt;Node98 -->
<g id="edge3" class="edge"><title>Node96&#45;&gt;Node98</title>
<path fill="none" stroke="midnightblue" d="M226.356,-145.595C242.538,-154.951 263.875,-167.123 283,-177.5 285.545,-178.881 288.178,-180.29 290.836,-181.699"/>
<polygon fill="midnightblue" stroke="midnightblue" points="289.403,-184.9 299.885,-186.447 292.656,-178.702 289.403,-184.9"/>
</g>
<!-- Node99 -->
<g id="node5" class="node"><title>Node99</title>
<g id="a_node5"><a xlink:href="class_igor_aux_1_1ia_string.html#a8617a0d26ed0c5b4e1b99223f5ac57ff" target="_top" xlink:title=" ">
<polygon fill="white" stroke="black" points="414,-93.5 414,-123.5 509,-123.5 509,-93.5 414,-93.5"/>
<text text-anchor="start" x="422" y="-111.5" font-family="Helvetica,sans-Serif" font-size="10.00">IgorAux::iaString::</text>
<text text-anchor="middle" x="461.5" y="-100.5" font-family="Helvetica,sans-Serif" font-size="10.00">getData</text>
</a>
</g>
</g>
<!-- Node96&#45;&gt;Node99 -->
<g id="edge5" class="edge"><title>Node96&#45;&gt;Node99</title>
<path fill="none" stroke="midnightblue" d="M247.283,-126.541C291.142,-122.83 356.802,-117.274 403.66,-113.31"/>
<polygon fill="midnightblue" stroke="midnightblue" points="403.985,-116.795 413.655,-112.464 403.395,-109.82 403.985,-116.795"/>
</g>
<!-- Node100 -->
<g id="node6" class="node"><title>Node100</title>
<g id="a_node6"><a xlink:href="class_igor_aux_1_1ia_string.html#a5dd1aa2c22b200e373d37dd369fea22a" target="_top" xlink:title=" ">
<polygon fill="white" stroke="black" points="283,-137.5 283,-167.5 378,-167.5 378,-137.5 283,-137.5"/>
<text text-anchor="start" x="291" y="-155.5" font-family="Helvetica,sans-Serif" font-size="10.00">IgorAux::iaString::</text>
<text text-anchor="middle" x="330.5" y="-144.5" font-family="Helvetica,sans-Serif" font-size="10.00">findFirstOf</text>
</a>
</g>
</g>
<!-- Node96&#45;&gt;Node100 -->
<g id="edge6" class="edge"><title>Node96&#45;&gt;Node100</title>
<path fill="none" stroke="midnightblue" d="M247.072,-138.443C255.475,-139.876 264.319,-141.384 272.969,-142.859"/>
<polygon fill="midnightblue" stroke="midnightblue" points="272.55,-146.338 282.996,-144.569 273.727,-139.438 272.55,-146.338"/>
</g>
<!-- Node101 -->
<g id="node7" class="node"><title>Node101</title>
<g id="a_node7"><a xlink:href="class_igor_aux_1_1ia_string.html#a1de38f8fb334a5e52a266b9a4e891821" target="_top" xlink:title=" ">
<polygon fill="white" stroke="black" points="283,-49.5 283,-79.5 378,-79.5 378,-49.5 283,-49.5"/>
<text text-anchor="start" x="291" y="-67.5" font-family="Helvetica,sans-Serif" font-size="10.00">IgorAux::iaString::</text>
<text text-anchor="middle" x="330.5" y="-56.5" font-family="Helvetica,sans-Serif" font-size="10.00">getSubString</text>
</a>
</g>
</g>
<!-- Node96&#45;&gt;Node101 -->
<g id="edge8" class="edge"><title>Node96&#45;&gt;Node101</title>
<path fill="none" stroke="midnightblue" d="M230.095,-115.358C248.204,-106.093 271.565,-94.1409 291.091,-84.1513"/>
<polygon fill="midnightblue" stroke="midnightblue" points="292.734,-87.242 300.043,-79.5713 289.546,-81.0102 292.734,-87.242"/>
</g>
<!-- Node103 -->
<g id="node9" class="node"><title>Node103</title>
<g id="a_node9"><a xlink:href="class_igor_aux_1_1ia_string.html#abdca81f9a7dfc354263de5f174171425" target="_top" xlink:title=" ">
<polygon fill="white" stroke="black" points="283,-0.5 283,-30.5 378,-30.5 378,-0.5 283,-0.5"/>
<text text-anchor="start" x="291" y="-18.5" font-family="Helvetica,sans-Serif" font-size="10.00">IgorAux::iaString::</text>
<text text-anchor="middle" x="330.5" y="-7.5" font-family="Helvetica,sans-Serif" font-size="10.00">getSize</text>
</a>
</g>
</g>
<!-- Node96&#45;&gt;Node103 -->
<g id="edge11" class="edge"><title>Node96&#45;&gt;Node103</title>
<path fill="none" stroke="midnightblue" d="M211.416,-115.432C226.042,-96.0274 253.583,-62.1149 283,-39.5 284.567,-38.2957 286.203,-37.1228 287.885,-35.9846"/>
<polygon fill="midnightblue" stroke="midnightblue" points="289.919,-38.8416 296.576,-30.5991 286.232,-32.8914 289.919,-38.8416"/>
</g>
<!-- Node98&#45;&gt;Node97 -->
<g id="edge4" class="edge"><title>Node98&#45;&gt;Node97</title>
<path fill="none" stroke="midnightblue" d="M378.072,-201.5C386.475,-201.5 395.319,-201.5 403.969,-201.5"/>
<polygon fill="midnightblue" stroke="midnightblue" points="403.996,-205 413.996,-201.5 403.996,-198 403.996,-205"/>
</g>
<!-- Node100&#45;&gt;Node97 -->
<g id="edge7" class="edge"><title>Node100&#45;&gt;Node97</title>
<path fill="none" stroke="midnightblue" d="M371.257,-167.601C383.886,-172.399 398.007,-177.762 411.223,-182.782"/>
<polygon fill="midnightblue" stroke="midnightblue" points="410.061,-186.085 420.652,-186.364 412.547,-179.541 410.061,-186.085"/>
</g>
<!-- Node101&#45;&gt;Node99 -->
<g id="edge10" class="edge"><title>Node101&#45;&gt;Node99</title>
<path fill="none" stroke="midnightblue" d="M375.534,-79.5192C385.49,-82.9151 396.172,-86.5586 406.486,-90.0767"/>
<polygon fill="midnightblue" stroke="midnightblue" points="405.632,-93.4834 416.227,-93.3991 407.892,-86.8582 405.632,-93.4834"/>
</g>
<!-- Node102 -->
<g id="node8" class="node"><title>Node102</title>
<g id="a_node8"><a xlink:href="class_igor_aux_1_1ia_string.html#affa8c96a2d7340a79b9e97d84e2585a4" target="_top" xlink:title=" ">
<polygon fill="white" stroke="black" points="414,-44.5 414,-74.5 509,-74.5 509,-44.5 414,-44.5"/>
<text text-anchor="start" x="422" y="-62.5" font-family="Helvetica,sans-Serif" font-size="10.00">IgorAux::iaString::</text>
<text text-anchor="middle" x="461.5" y="-51.5" font-family="Helvetica,sans-Serif" font-size="10.00">iaString</text>
</a>
</g>
</g>
<!-- Node101&#45;&gt;Node102 -->
<g id="edge9" class="edge"><title>Node101&#45;&gt;Node102</title>
<path fill="none" stroke="midnightblue" d="M378.072,-62.6949C386.475,-62.3692 395.319,-62.0264 403.969,-61.6911"/>
<polygon fill="midnightblue" stroke="midnightblue" points="404.139,-65.1872 413.996,-61.3025 403.868,-58.1925 404.139,-65.1872"/>
</g>
</g>
</svg>
