<?xml version="1.0" encoding="UTF-8" standalone="no"?>
<!DOCTYPE svg PUBLIC "-//W3C//DTD SVG 1.1//EN"
 "http://www.w3.org/Graphics/SVG/1.1/DTD/svg11.dtd">
<!-- Generated by graphviz version 2.38.0 (20140413.2041)
 -->
<!-- Title: Igor::iPhysicsPlayer::ApplyForceAndTorque Pages: 1 -->
<svg width="324pt" height="166pt"
 viewBox="0.00 0.00 324.00 165.50" xmlns="http://www.w3.org/2000/svg" xmlns:xlink="http://www.w3.org/1999/xlink">
<g id="graph0" class="graph" transform="scale(1 1) rotate(0) translate(4 161.5)">
<title>Igor::iPhysicsPlayer::ApplyForceAndTorque</title>
<polygon fill="white" stroke="none" points="-4,4 -4,-161.5 320,-161.5 320,4 -4,4"/>
<!-- Node2 -->
<g id="node1" class="node"><title>Node2</title>
<g id="a_node1"><a xlink:title=" ">
<polygon fill="#bfbfbf" stroke="black" points="0,-61 0,-91 119,-91 119,-61 0,-61"/>
<text text-anchor="start" x="8" y="-79" font-family="Helvetica,sans-Serif" font-size="10.00">Igor::iPhysicsPlayer</text>
<text text-anchor="middle" x="59.5" y="-68" font-family="Helvetica,sans-Serif" font-size="10.00">::ApplyForceAndTorque</text>
</a>
</g>
</g>
<!-- Node3 -->
<g id="node2" class="node"><title>Node3</title>
<g id="a_node2"><a xlink:href="class_igor_aux_1_1ia_singleton.html#a821f1d891129e6d09b992be81094540e" target="_top" xlink:title=" ">
<polygon fill="white" stroke="black" points="171.5,-127 171.5,-157 299.5,-157 299.5,-127 171.5,-127"/>
<text text-anchor="start" x="179.5" y="-145" font-family="Helvetica,sans-Serif" font-size="10.00">IgorAux::iaSingleton</text>
<text text-anchor="middle" x="235.5" y="-134" font-family="Helvetica,sans-Serif" font-size="10.00">&lt; iPhysics &gt;::getInstance</text>
</a>
</g>
</g>
<!-- Node2&#45;&gt;Node3 -->
<g id="edge1" class="edge"><title>Node2&#45;&gt;Node3</title>
<path fill="none" stroke="midnightblue" d="M92.9569,-91.0833C111.033,-99.2292 134.055,-109.187 155,-117 161.193,-119.31 167.708,-121.592 174.233,-123.782"/>
<polygon fill="midnightblue" stroke="midnightblue" points="173.169,-127.117 183.762,-126.918 175.357,-120.467 173.169,-127.117"/>
</g>
<!-- Node4 -->
<g id="node3" class="node"><title>Node4</title>
<g id="a_node3"><a xlink:href="class_igor_aux_1_1ia_vector3.html#a9318308d20ed3bd29e16fd1b41b02eef" target="_top" xlink:title=" ">
<polygon fill="white" stroke="black" points="177.5,-88.5 177.5,-107.5 293.5,-107.5 293.5,-88.5 177.5,-88.5"/>
<text text-anchor="middle" x="235.5" y="-95.5" font-family="Helvetica,sans-Serif" font-size="10.00">IgorAux::iaVector3::set</text>
</a>
</g>
</g>
<!-- Node2&#45;&gt;Node4 -->
<g id="edge2" class="edge"><title>Node2&#45;&gt;Node4</title>
<path fill="none" stroke="midnightblue" d="M119.408,-83.4482C134.775,-85.3911 151.451,-87.4995 167.216,-89.4928"/>
<polygon fill="midnightblue" stroke="midnightblue" points="167.06,-93.0009 177.42,-90.783 167.939,-86.0562 167.06,-93.0009"/>
</g>
<!-- Node5 -->
<g id="node4" class="node"><title>Node5</title>
<g id="a_node4"><a xlink:href="class_igor_aux_1_1ia_vector3.html#a1cdfc5f611862d8d296e83db3fb8e871" target="_top" xlink:title=" ">
<polygon fill="white" stroke="black" points="187,-39 187,-69 284,-69 284,-39 187,-39"/>
<text text-anchor="start" x="195" y="-57" font-family="Helvetica,sans-Serif" font-size="10.00">IgorAux::iaVector3</text>
<text text-anchor="middle" x="235.5" y="-46" font-family="Helvetica,sans-Serif" font-size="10.00">::negate</text>
</a>
</g>
</g>
<!-- Node2&#45;&gt;Node5 -->
<g id="edge3" class="edge"><title>Node2&#45;&gt;Node5</title>
<path fill="none" stroke="midnightblue" d="M119.408,-68.5518C137.959,-66.2063 158.418,-63.6195 176.878,-61.2855"/>
<polygon fill="midnightblue" stroke="midnightblue" points="177.421,-64.7448 186.903,-60.018 176.543,-57.8001 177.421,-64.7448"/>
</g>
<!-- Node6 -->
<g id="node5" class="node"><title>Node6</title>
<g id="a_node5"><a xlink:href="class_igor_1_1i_physics.html#a5ded8c896a2acb0350dabc2acbe11986" target="_top" xlink:title=" ">
<polygon fill="white" stroke="black" points="155,-0.5 155,-19.5 316,-19.5 316,-0.5 155,-0.5"/>
<text text-anchor="middle" x="235.5" y="-7.5" font-family="Helvetica,sans-Serif" font-size="10.00">Igor::iPhysics::getSimulationRate</text>
</a>
</g>
</g>
<!-- Node2&#45;&gt;Node6 -->
<g id="edge4" class="edge"><title>Node2&#45;&gt;Node6</title>
<path fill="none" stroke="midnightblue" d="M87.5511,-60.9743C106.102,-51.1373 131.515,-38.5655 155,-30 162.976,-27.0908 171.552,-24.4514 180.016,-22.114"/>
<polygon fill="midnightblue" stroke="midnightblue" points="181.084,-25.452 189.856,-19.5108 179.293,-18.6847 181.084,-25.452"/>
</g>
</g>
</svg>
