<?xml version="1.0" encoding="UTF-8" standalone="no"?>
<!DOCTYPE svg PUBLIC "-//W3C//DTD SVG 1.1//EN"
 "http://www.w3.org/Graphics/SVG/1.1/DTD/svg11.dtd">
<!-- Generated by graphviz version 2.38.0 (20140413.2041)
 -->
<!-- Title: Igor::iAABox&lt; T &gt; Pages: 1 -->
<svg width="390pt" height="95pt"
 viewBox="0.00 0.00 390.00 95.00" xmlns="http://www.w3.org/2000/svg" xmlns:xlink="http://www.w3.org/1999/xlink">
<g id="graph0" class="graph" transform="scale(1 1) rotate(0) translate(4 91)">
<title>Igor::iAABox&lt; T &gt;</title>
<polygon fill="white" stroke="none" points="-4,4 -4,-91 386,-91 386,4 -4,4"/>
<!-- Node1 -->
<g id="node1" class="node"><title>Node1</title>
<polygon fill="#bfbfbf" stroke="black" points="143.5,-67.5 143.5,-86.5 238.5,-86.5 238.5,-67.5 143.5,-67.5"/>
<text text-anchor="middle" x="191" y="-74.5" font-family="Helvetica,sans-Serif" font-size="10.00">Igor::iAABox&lt; T &gt;</text>
</g>
<!-- Node2 -->
<g id="node2" class="node"><title>Node2</title>
<g id="a_node2"><a xlink:href="class_igor_1_1i_a_a_box.html" target="_top" xlink:title="Igor::iAABox\&lt; float32 \&gt;">
<polygon fill="white" stroke="black" points="0,-0.5 0,-19.5 118,-19.5 118,-0.5 0,-0.5"/>
<text text-anchor="middle" x="59" y="-7.5" font-family="Helvetica,sans-Serif" font-size="10.00">Igor::iAABox&lt; float32 &gt;</text>
</a>
</g>
</g>
<!-- Node1&#45;&gt;Node2 -->
<g id="edge1" class="edge"><title>Node1&#45;&gt;Node2</title>
<path fill="none" stroke="orange" stroke-dasharray="5,2" d="M164.486,-62.9436C138.34,-50.0691 99.1224,-30.7573 76.6011,-19.6672"/>
<polygon fill="orange" stroke="orange" points="162.954,-66.0907 173.471,-67.3685 166.046,-59.8108 162.954,-66.0907"/>
<text text-anchor="middle" x="158" y="-41" font-family="Helvetica,sans-Serif" font-size="10.00"> &lt; float32 &gt;</text>
</g>
<!-- Node3 -->
<g id="node3" class="node"><title>Node3</title>
<g id="a_node3"><a xlink:href="class_igor_1_1i_a_a_box.html" target="_top" xlink:title="Igor::iAABox\&lt; int64 \&gt;">
<polygon fill="white" stroke="black" points="136,-0.5 136,-19.5 246,-19.5 246,-0.5 136,-0.5"/>
<text text-anchor="middle" x="191" y="-7.5" font-family="Helvetica,sans-Serif" font-size="10.00">Igor::iAABox&lt; int64 &gt;</text>
</a>
</g>
</g>
<!-- Node1&#45;&gt;Node3 -->
<g id="edge2" class="edge"><title>Node1&#45;&gt;Node3</title>
<path fill="none" stroke="orange" stroke-dasharray="5,2" d="M191,-57.037C191,-44.6703 191,-29.1198 191,-19.6273"/>
<polygon fill="orange" stroke="orange" points="187.5,-57.2338 191,-67.2338 194.5,-57.2338 187.5,-57.2338"/>
<text text-anchor="middle" x="212.5" y="-41" font-family="Helvetica,sans-Serif" font-size="10.00"> &lt; int64 &gt;</text>
</g>
<!-- Node4 -->
<g id="node4" class="node"><title>Node4</title>
<g id="a_node4"><a xlink:href="class_igor_1_1i_a_a_box.html" target="_top" xlink:title="Igor::iAABox\&lt; float64 \&gt;">
<polygon fill="white" stroke="black" points="264,-0.5 264,-19.5 382,-19.5 382,-0.5 264,-0.5"/>
<text text-anchor="middle" x="323" y="-7.5" font-family="Helvetica,sans-Serif" font-size="10.00">Igor::iAABox&lt; float64 &gt;</text>
</a>
</g>
</g>
<!-- Node1&#45;&gt;Node4 -->
<g id="edge3" class="edge"><title>Node1&#45;&gt;Node4</title>
<path fill="none" stroke="orange" stroke-dasharray="5,2" d="M217.514,-62.9436C243.66,-50.0691 282.878,-30.7573 305.399,-19.6672"/>
<polygon fill="orange" stroke="orange" points="215.954,-59.8108 208.529,-67.3685 219.046,-66.0907 215.954,-59.8108"/>
<text text-anchor="middle" x="289" y="-41" font-family="Helvetica,sans-Serif" font-size="10.00"> &lt; float64 &gt;</text>
</g>
</g>
</svg>
