<?xml version="1.0" encoding="UTF-8" standalone="no"?>
<!DOCTYPE svg PUBLIC "-//W3C//DTD SVG 1.1//EN"
 "http://www.w3.org/Graphics/SVG/1.1/DTD/svg11.dtd">
<!-- Generated by graphviz version 2.38.0 (20140413.2041)
 -->
<!-- Title: Igor::iThread::getWorld Pages: 1 -->
<svg width="564pt" height="39pt"
 viewBox="0.00 0.00 564.00 39.00" xmlns="http://www.w3.org/2000/svg" xmlns:xlink="http://www.w3.org/1999/xlink">
<g id="graph0" class="graph" transform="scale(1 1) rotate(0) translate(4 35)">
<title>Igor::iThread::getWorld</title>
<polygon fill="white" stroke="none" points="-4,4 -4,-35 560,-35 560,4 -4,4"/>
<!-- Node1 -->
<g id="node1" class="node"><title>Node1</title>
<polygon fill="#bfbfbf" stroke="black" points="0,-6 0,-25 115,-25 115,-6 0,-6"/>
<text text-anchor="middle" x="57.5" y="-13" font-family="Helvetica,sans-Serif" font-size="10.00">Igor::iThread::getWorld</text>
</g>
<!-- Node2 -->
<g id="node2" class="node"><title>Node2</title>
<g id="a_node2"><a xlink:href="class_igor_1_1i_task_manager.html#a8f02fd3959c51b04be63e493900f7ffd" target="_top" xlink:title="Igor::iTaskManager\l::workWithRegularTasks">
<polygon fill="white" stroke="black" points="151,-0.5 151,-30.5 273,-30.5 273,-0.5 151,-0.5"/>
<text text-anchor="start" x="159" y="-18.5" font-family="Helvetica,sans-Serif" font-size="10.00">Igor::iTaskManager</text>
<text text-anchor="middle" x="212" y="-7.5" font-family="Helvetica,sans-Serif" font-size="10.00">::workWithRegularTasks</text>
</a>
</g>
</g>
<!-- Node1&#45;&gt;Node2 -->
<g id="edge1" class="edge"><title>Node1&#45;&gt;Node2</title>
<path fill="none" stroke="midnightblue" d="M125.479,-15.5C133.922,-15.5 142.519,-15.5 150.848,-15.5"/>
<polygon fill="midnightblue" stroke="midnightblue" points="125.285,-12.0001 115.285,-15.5 125.285,-19.0001 125.285,-12.0001"/>
</g>
<!-- Node3 -->
<g id="node3" class="node"><title>Node3</title>
<g id="a_node3"><a xlink:href="class_igor_1_1i_task_manager.html#a8af31ae39ff0bef36e31483276e5d206" target="_top" xlink:title="Igor::iTaskManager\l::createRegularThread">
<polygon fill="white" stroke="black" points="309,-0.5 309,-30.5 421,-30.5 421,-0.5 309,-0.5"/>
<text text-anchor="start" x="317" y="-18.5" font-family="Helvetica,sans-Serif" font-size="10.00">Igor::iTaskManager</text>
<text text-anchor="middle" x="365" y="-7.5" font-family="Helvetica,sans-Serif" font-size="10.00">::createRegularThread</text>
</a>
</g>
</g>
<!-- Node2&#45;&gt;Node3 -->
<g id="edge2" class="edge"><title>Node2&#45;&gt;Node3</title>
<path fill="none" stroke="midnightblue" d="M283.203,-15.5C291.859,-15.5 300.608,-15.5 308.992,-15.5"/>
<polygon fill="midnightblue" stroke="midnightblue" points="283.113,-12.0001 273.113,-15.5 283.113,-19.0001 283.113,-12.0001"/>
</g>
<!-- Node4 -->
<g id="node4" class="node"><title>Node4</title>
<g id="a_node4"><a xlink:href="class_igor_1_1i_task_manager.html#ad9fbf069776eea9885e9cee3c5178f99" target="_top" xlink:title="Igor::iTaskManager\l::iTaskManager">
<polygon fill="white" stroke="black" points="457,-0.5 457,-30.5 556,-30.5 556,-0.5 457,-0.5"/>
<text text-anchor="start" x="465" y="-18.5" font-family="Helvetica,sans-Serif" font-size="10.00">Igor::iTaskManager</text>
<text text-anchor="middle" x="506.5" y="-7.5" font-family="Helvetica,sans-Serif" font-size="10.00">::iTaskManager</text>
</a>
</g>
</g>
<!-- Node3&#45;&gt;Node4 -->
<g id="edge3" class="edge"><title>Node3&#45;&gt;Node4</title>
<path fill="none" stroke="midnightblue" d="M431.135,-15.5C439.718,-15.5 448.395,-15.5 456.642,-15.5"/>
<polygon fill="midnightblue" stroke="midnightblue" points="431.134,-12.0001 421.134,-15.5 431.134,-19.0001 431.134,-12.0001"/>
</g>
</g>
</svg>
