<?xml version="1.0" encoding="UTF-8" standalone="no"?>
<!DOCTYPE svg PUBLIC "-//W3C//DTD SVG 1.1//EN"
 "http://www.w3.org/Graphics/SVG/1.1/DTD/svg11.dtd">
<!-- Generated by graphviz version 2.38.0 (20140413.2041)
 -->
<!-- Title: Manipulator::deinit Pages: 1 -->
<svg width="289pt" height="149pt"
 viewBox="0.00 0.00 289.00 148.50" xmlns="http://www.w3.org/2000/svg" xmlns:xlink="http://www.w3.org/1999/xlink">
<g id="graph0" class="graph" transform="scale(1 1) rotate(0) translate(4 144.5)">
<title>Manipulator::deinit</title>
<polygon fill="white" stroke="none" points="-4,4 -4,-144.5 285,-144.5 285,4 -4,4"/>
<!-- Node1 -->
<g id="node1" class="node"><title>Node1</title>
<polygon fill="#bfbfbf" stroke="black" points="0,-55 0,-74 96,-74 96,-55 0,-55"/>
<text text-anchor="middle" x="48" y="-62" font-family="Helvetica,sans-Serif" font-size="10.00">Manipulator::deinit</text>
</g>
<!-- Node2 -->
<g id="node2" class="node"><title>Node2</title>
<g id="a_node2"><a xlink:href="class_igor_aux_1_1ia_singleton.html#a821f1d891129e6d09b992be81094540e" target="_top" xlink:title="IgorAux::iaSingleton\l\&lt; iMaterialResourceFactory\l \&gt;::getInstance">
<polygon fill="white" stroke="black" points="138,-99 138,-140 275,-140 275,-99 138,-99"/>
<text text-anchor="start" x="146" y="-128" font-family="Helvetica,sans-Serif" font-size="10.00">IgorAux::iaSingleton</text>
<text text-anchor="start" x="146" y="-117" font-family="Helvetica,sans-Serif" font-size="10.00">&lt; iMaterialResourceFactory</text>
<text text-anchor="middle" x="206.5" y="-106" font-family="Helvetica,sans-Serif" font-size="10.00"> &gt;::getInstance</text>
</a>
</g>
</g>
<!-- Node1&#45;&gt;Node2 -->
<g id="edge1" class="edge"><title>Node1&#45;&gt;Node2</title>
<path fill="none" stroke="midnightblue" d="M76.2602,-74.0803C93.272,-80.0588 115.979,-88.0388 137.61,-95.641"/>
<polygon fill="midnightblue" stroke="midnightblue" points="136.526,-98.9697 147.121,-98.9834 138.847,-92.3657 136.526,-98.9697"/>
</g>
<!-- Node3 -->
<g id="node3" class="node"><title>Node3</title>
<g id="a_node3"><a xlink:href="class_igor_1_1i_material_resource_factory.html#ad43e41d2e034291e68071e73b79ae0fd" target="_top" xlink:title="Igor::iMaterialResourceFactory\l::destroyTargetMaterial">
<polygon fill="white" stroke="black" points="132,-49.5 132,-79.5 281,-79.5 281,-49.5 132,-49.5"/>
<text text-anchor="start" x="140" y="-67.5" font-family="Helvetica,sans-Serif" font-size="10.00">Igor::iMaterialResourceFactory</text>
<text text-anchor="middle" x="206.5" y="-56.5" font-family="Helvetica,sans-Serif" font-size="10.00">::destroyTargetMaterial</text>
</a>
</g>
</g>
<!-- Node1&#45;&gt;Node3 -->
<g id="edge2" class="edge"><title>Node1&#45;&gt;Node3</title>
<path fill="none" stroke="midnightblue" d="M96.3799,-64.5C104.463,-64.5 113.069,-64.5 121.766,-64.5"/>
<polygon fill="midnightblue" stroke="midnightblue" points="121.991,-68.0001 131.991,-64.5 121.991,-61.0001 121.991,-68.0001"/>
</g>
<!-- Node4 -->
<g id="node4" class="node"><title>Node4</title>
<g id="a_node4"><a xlink:href="class_igor_1_1i_material_resource_factory.html#acf490b2841756011dec4fe567b9b403e" target="_top" xlink:title="Igor::iMaterialResourceFactory\l::destroyMaterial">
<polygon fill="white" stroke="black" points="132,-0.5 132,-30.5 281,-30.5 281,-0.5 132,-0.5"/>
<text text-anchor="start" x="140" y="-18.5" font-family="Helvetica,sans-Serif" font-size="10.00">Igor::iMaterialResourceFactory</text>
<text text-anchor="middle" x="206.5" y="-7.5" font-family="Helvetica,sans-Serif" font-size="10.00">::destroyMaterial</text>
</a>
</g>
</g>
<!-- Node1&#45;&gt;Node4 -->
<g id="edge3" class="edge"><title>Node1&#45;&gt;Node4</title>
<path fill="none" stroke="midnightblue" d="M79.5463,-54.936C98.9271,-48.8679 124.621,-40.823 147.746,-33.5826"/>
<polygon fill="midnightblue" stroke="midnightblue" points="148.976,-36.8651 157.474,-30.537 146.885,-30.1849 148.976,-36.8651"/>
</g>
</g>
</svg>
