<?xml version="1.0" encoding="UTF-8" standalone="no"?>
<!DOCTYPE svg PUBLIC "-//W3C//DTD SVG 1.1//EN"
 "http://www.w3.org/Graphics/SVG/1.1/DTD/svg11.dtd">
<!-- Generated by graphviz version 2.38.0 (20140413.2041)
 -->
<!-- Title: Igor::iTaskUpdateLOD Pages: 1 -->
<svg width="856pt" height="338pt"
 viewBox="0.00 0.00 856.00 338.00" xmlns="http://www.w3.org/2000/svg" xmlns:xlink="http://www.w3.org/1999/xlink">
<g id="graph0" class="graph" transform="scale(1 1) rotate(0) translate(4 334)">
<title>Igor::iTaskUpdateLOD</title>
<polygon fill="white" stroke="none" points="-4,4 -4,-334 852,-334 852,4 -4,4"/>
<!-- Node2 -->
<g id="node1" class="node"><title>Node2</title>
<g id="a_node1"><a xlink:title=" ">
<polygon fill="#bfbfbf" stroke="black" points="736,-203.5 736,-222.5 848,-222.5 848,-203.5 736,-203.5"/>
<text text-anchor="middle" x="792" y="-210.5" font-family="Helvetica,sans-Serif" font-size="10.00">Igor::iTaskUpdateLOD</text>
</a>
</g>
</g>
<!-- Node3 -->
<g id="node2" class="node"><title>Node3</title>
<g id="a_node2"><a xlink:href="class_igor_1_1i_task.html" target="_top" xlink:title=" ">
<polygon fill="white" stroke="black" points="600,-239.5 600,-258.5 662,-258.5 662,-239.5 600,-239.5"/>
<text text-anchor="middle" x="631" y="-246.5" font-family="Helvetica,sans-Serif" font-size="10.00">Igor::iTask</text>
</a>
</g>
</g>
<!-- Node3&#45;&gt;Node2 -->
<g id="edge1" class="edge"><title>Node3&#45;&gt;Node2</title>
<path fill="none" stroke="midnightblue" d="M672.233,-239.891C695.634,-234.592 725.096,-227.922 748.821,-222.55"/>
<polygon fill="midnightblue" stroke="midnightblue" points="671.261,-236.522 662.281,-242.144 672.807,-243.349 671.261,-236.522"/>
</g>
<!-- Node4 -->
<g id="node3" class="node"><title>Node4</title>
<g id="a_node3"><a xlink:href="class_igor_1_1i_window.html" target="_top" xlink:title=" ">
<polygon fill="white" stroke="black" points="324.5,-231.5 324.5,-250.5 399.5,-250.5 399.5,-231.5 324.5,-231.5"/>
<text text-anchor="middle" x="362" y="-238.5" font-family="Helvetica,sans-Serif" font-size="10.00">Igor::iWindow</text>
</a>
</g>
</g>
<!-- Node4&#45;&gt;Node3 -->
<g id="edge2" class="edge"><title>Node4&#45;&gt;Node3</title>
<path fill="none" stroke="#9a32cd" stroke-dasharray="5,2" d="M409.759,-241.602C453.519,-242.28 520.709,-243.612 579,-246 585.735,-246.276 592.966,-246.652 599.805,-247.046"/>
<polygon fill="#9a32cd" stroke="#9a32cd" points="409.754,-238.102 399.703,-241.452 409.649,-245.101 409.754,-238.102"/>
<text text-anchor="middle" x="510" y="-249" font-family="Helvetica,sans-Serif" font-size="10.00"> _window</text>
</g>
<!-- Node5 -->
<g id="node4" class="node"><title>Node5</title>
<g id="a_node4"><a xlink:href="class_igor_aux_1_1ia_string.html" target="_top" xlink:title=" ">
<polygon fill="white" stroke="black" points="98,-116.5 98,-135.5 187,-135.5 187,-116.5 98,-116.5"/>
<text text-anchor="middle" x="142.5" y="-123.5" font-family="Helvetica,sans-Serif" font-size="10.00">IgorAux::iaString</text>
</a>
</g>
</g>
<!-- Node5&#45;&gt;Node4 -->
<g id="edge3" class="edge"><title>Node5&#45;&gt;Node4</title>
<path fill="none" stroke="#9a32cd" stroke-dasharray="5,2" d="M179.633,-139.334C209.486,-151.533 251.867,-171.677 283,-198 293.182,-206.609 290.125,-214.286 301,-222 307.951,-226.931 316.237,-230.621 324.398,-233.369"/>
<polygon fill="#9a32cd" stroke="#9a32cd" points="180.609,-135.955 170.023,-135.504 178.017,-142.458 180.609,-135.955"/>
<text text-anchor="middle" x="250" y="-201" font-family="Helvetica,sans-Serif" font-size="10.00"> _title</text>
</g>
<!-- Node7 -->
<g id="node6" class="node"><title>Node7</title>
<g id="a_node6"><a xlink:href="class_igor_1_1i_scene.html" target="_top" xlink:title=" ">
<polygon fill="white" stroke="black" points="597,-140.5 597,-159.5 665,-159.5 665,-140.5 597,-140.5"/>
<text text-anchor="middle" x="631" y="-147.5" font-family="Helvetica,sans-Serif" font-size="10.00">Igor::iScene</text>
</a>
</g>
</g>
<!-- Node5&#45;&gt;Node7 -->
<g id="edge7" class="edge"><title>Node5&#45;&gt;Node7</title>
<path fill="none" stroke="#9a32cd" stroke-dasharray="5,2" d="M197.19,-127.089C253.482,-128.381 344.495,-130.893 423,-135 484.35,-138.209 555.8,-143.797 596.684,-147.172"/>
<polygon fill="#9a32cd" stroke="#9a32cd" points="197.171,-123.588 187.095,-126.862 197.013,-130.586 197.171,-123.588"/>
<text text-anchor="middle" x="362" y="-138" font-family="Helvetica,sans-Serif" font-size="10.00"> _name</text>
</g>
<!-- Node13 -->
<g id="node12" class="node"><title>Node13</title>
<g id="a_node12"><a xlink:href="class_igor_1_1i_node.html" target="_top" xlink:title=" ">
<polygon fill="white" stroke="black" points="760.5,-121.5 760.5,-140.5 823.5,-140.5 823.5,-121.5 760.5,-121.5"/>
<text text-anchor="middle" x="792" y="-128.5" font-family="Helvetica,sans-Serif" font-size="10.00">Igor::iNode</text>
</a>
</g>
</g>
<!-- Node5&#45;&gt;Node13 -->
<g id="edge16" class="edge"><title>Node5&#45;&gt;Node13</title>
<path fill="none" stroke="#9a32cd" stroke-dasharray="5,2" d="M197.346,-123.874C294.4,-120.161 505.138,-112.637 683,-110 698.554,-109.769 702.597,-107.828 718,-110 733.801,-112.228 750.973,-117.041 764.691,-121.498"/>
<polygon fill="#9a32cd" stroke="#9a32cd" points="197.055,-120.383 187.197,-124.265 197.324,-127.378 197.055,-120.383"/>
<text text-anchor="middle" x="510" y="-119" font-family="Helvetica,sans-Serif" font-size="10.00"> _name</text>
</g>
<!-- Node6 -->
<g id="node5" class="node"><title>Node6</title>
<g id="a_node5"><a xlink:href="class_igor_aux_1_1ia_mutex.html" target="_top" xlink:title=" ">
<polygon fill="white" stroke="black" points="97.5,-252.5 97.5,-271.5 187.5,-271.5 187.5,-252.5 97.5,-252.5"/>
<text text-anchor="middle" x="142.5" y="-259.5" font-family="Helvetica,sans-Serif" font-size="10.00">IgorAux::iaMutex</text>
</a>
</g>
</g>
<!-- Node6&#45;&gt;Node3 -->
<g id="edge5" class="edge"><title>Node6&#45;&gt;Node3</title>
<path fill="none" stroke="#9a32cd" stroke-dasharray="5,2" d="M179.285,-274.75C255.674,-299.851 439.127,-348.761 579,-295 597.921,-287.728 614.202,-269.829 623.006,-258.624"/>
<polygon fill="#9a32cd" stroke="#9a32cd" points="180.251,-271.383 169.657,-271.525 178.028,-278.02 180.251,-271.383"/>
<text text-anchor="middle" x="362" y="-322" font-family="Helvetica,sans-Serif" font-size="10.00"> _mutexID</text>
</g>
<!-- Node6&#45;&gt;Node4 -->
<g id="edge4" class="edge"><title>Node6&#45;&gt;Node4</title>
<path fill="none" stroke="#9a32cd" stroke-dasharray="5,2" d="M190.965,-250.364C199.582,-248.624 208.525,-247.061 217,-246 253.363,-241.448 295.266,-240.469 324.459,-240.463"/>
<polygon fill="#9a32cd" stroke="#9a32cd" points="190.101,-246.969 181.045,-252.467 191.554,-253.817 190.101,-246.969"/>
<text text-anchor="middle" x="250" y="-249" font-family="Helvetica,sans-Serif" font-size="10.00"> _wglMutex</text>
</g>
<!-- Node14 -->
<g id="node13" class="node"><title>Node14</title>
<g id="a_node13"><a xlink:href="class_igor_aux_1_1ia_i_d_generator.html" target="_top" xlink:title=" ">
<polygon fill="white" stroke="black" points="441,-266.5 441,-285.5 579,-285.5 579,-266.5 441,-266.5"/>
<text text-anchor="middle" x="510" y="-273.5" font-family="Helvetica,sans-Serif" font-size="10.00">IgorAux::iaIDGenerator&lt; T &gt;</text>
</a>
</g>
</g>
<!-- Node6&#45;&gt;Node14 -->
<g id="edge15" class="edge"><title>Node6&#45;&gt;Node14</title>
<path fill="none" stroke="#9a32cd" stroke-dasharray="5,2" d="M197.975,-264.087C262.665,-266.564 370.611,-270.699 440.794,-273.387"/>
<polygon fill="#9a32cd" stroke="#9a32cd" points="197.715,-260.574 187.588,-263.689 197.447,-267.569 197.715,-260.574"/>
<text text-anchor="middle" x="250" y="-270" font-family="Helvetica,sans-Serif" font-size="10.00"> _mutex</text>
</g>
<!-- Node15 -->
<g id="node14" class="node"><title>Node15</title>
<g id="a_node14"><a xlink:href="class_igor_1_1i_data_update_queue.html" target="_top" xlink:title=" ">
<polygon fill="white" stroke="black" points="302,-193.5 302,-212.5 422,-212.5 422,-193.5 302,-193.5"/>
<text text-anchor="middle" x="362" y="-200.5" font-family="Helvetica,sans-Serif" font-size="10.00">Igor::iDataUpdateQueue</text>
</a>
</g>
</g>
<!-- Node6&#45;&gt;Node15 -->
<g id="edge20" class="edge"><title>Node6&#45;&gt;Node15</title>
<path fill="none" stroke="#9a32cd" stroke-dasharray="5,2" d="M169.08,-247.644C182.891,-240.458 200.459,-232.203 217,-227 244.32,-218.406 275.578,-212.722 301.975,-209.055"/>
<polygon fill="#9a32cd" stroke="#9a32cd" points="167.35,-244.601 160.177,-252.398 170.647,-250.775 167.35,-244.601"/>
<text text-anchor="middle" x="250" y="-230" font-family="Helvetica,sans-Serif" font-size="10.00"> _mutex</text>
</g>
<!-- Node7&#45;&gt;Node2 -->
<g id="edge6" class="edge"><title>Node7&#45;&gt;Node2</title>
<path fill="none" stroke="#9a32cd" stroke-dasharray="5,2" d="M665.487,-163.268C695.845,-175.297 739.854,-192.735 766.885,-203.445"/>
<polygon fill="#9a32cd" stroke="#9a32cd" points="666.735,-159.998 656.149,-159.568 664.156,-166.506 666.735,-159.998"/>
<text text-anchor="middle" x="700.5" y="-187" font-family="Helvetica,sans-Serif" font-size="10.00"> _scene</text>
</g>
<!-- Node7&#45;&gt;Node13 -->
<g id="edge17" class="edge"><title>Node7&#45;&gt;Node13</title>
<path fill="none" stroke="#9a32cd" stroke-dasharray="5,2" d="M675.28,-144.828C702.231,-141.608 736.245,-137.543 760.405,-134.656"/>
<polygon fill="#9a32cd" stroke="#9a32cd" points="674.846,-141.355 665.332,-146.017 675.676,-148.306 674.846,-141.355"/>
<text text-anchor="middle" x="700.5" y="-147" font-family="Helvetica,sans-Serif" font-size="10.00"> _scene</text>
</g>
<!-- Node8 -->
<g id="node7" class="node"><title>Node8</title>
<g id="a_node7"><a xlink:href="class_igor_1_1i_octree.html" target="_top" xlink:title=" ">
<polygon fill="white" stroke="black" points="327,-155.5 327,-174.5 397,-174.5 397,-155.5 327,-155.5"/>
<text text-anchor="middle" x="362" y="-162.5" font-family="Helvetica,sans-Serif" font-size="10.00">Igor::iOctree</text>
</a>
</g>
</g>
<!-- Node8&#45;&gt;Node7 -->
<g id="edge8" class="edge"><title>Node8&#45;&gt;Node7</title>
<path fill="none" stroke="#9a32cd" stroke-dasharray="5,2" d="M407.274,-162.513C460.663,-159.513 549.167,-154.541 596.953,-151.857"/>
<polygon fill="#9a32cd" stroke="#9a32cd" points="406.875,-159.03 397.087,-163.085 407.268,-166.018 406.875,-159.03"/>
<text text-anchor="middle" x="510" y="-164" font-family="Helvetica,sans-Serif" font-size="10.00"> _octree</text>
</g>
<!-- Node9 -->
<g id="node8" class="node"><title>Node9</title>
<g id="a_node8"><a xlink:href="class_igor_1_1i_node_visitor_update_transform.html" target="_top" xlink:title=" ">
<polygon fill="white" stroke="black" points="301,-21 301,-51 423,-51 423,-21 301,-21"/>
<text text-anchor="start" x="309" y="-39" font-family="Helvetica,sans-Serif" font-size="10.00">Igor::iNodeVisitorUpdate</text>
<text text-anchor="middle" x="362" y="-28" font-family="Helvetica,sans-Serif" font-size="10.00">Transform</text>
</a>
</g>
</g>
<!-- Node9&#45;&gt;Node7 -->
<g id="edge9" class="edge"><title>Node9&#45;&gt;Node7</title>
<path fill="none" stroke="#9a32cd" stroke-dasharray="5,2" d="M433.48,-22.4323C478.645,-17.636 536.541,-19.1241 579,-47 612.194,-68.793 624.599,-118.944 628.478,-140.196"/>
<polygon fill="#9a32cd" stroke="#9a32cd" points="432.981,-18.9668 423.463,-23.6197 433.805,-25.9181 432.981,-18.9668"/>
<text text-anchor="middle" x="510" y="-50" font-family="Helvetica,sans-Serif" font-size="10.00"> _updateTransformVisitor</text>
</g>
<!-- Node10 -->
<g id="node9" class="node"><title>Node10</title>
<g id="a_node9"><a xlink:href="class_igor_1_1i_node_visitor.html" target="_top" xlink:title=" ">
<polygon fill="white" stroke="black" points="97,-0.5 97,-19.5 188,-19.5 188,-0.5 97,-0.5"/>
<text text-anchor="middle" x="142.5" y="-7.5" font-family="Helvetica,sans-Serif" font-size="10.00">Igor::iNodeVisitor</text>
</a>
</g>
</g>
<!-- Node10&#45;&gt;Node9 -->
<g id="edge10" class="edge"><title>Node10&#45;&gt;Node9</title>
<path fill="none" stroke="midnightblue" d="M198.309,-16.5519C229.555,-20.287 268.757,-24.9732 300.849,-28.8096"/>
<polygon fill="midnightblue" stroke="midnightblue" points="198.384,-13.036 188.039,-15.3242 197.553,-19.9865 198.384,-13.036"/>
</g>
<!-- Node11 -->
<g id="node10" class="node"><title>Node11</title>
<g id="a_node10"><a xlink:href="class_igor_aux_1_1ia_matrix.html" target="_top" xlink:title=" ">
<polygon fill="white" stroke="black" points="86,-38.5 86,-57.5 199,-57.5 199,-38.5 86,-38.5"/>
<text text-anchor="middle" x="142.5" y="-45.5" font-family="Helvetica,sans-Serif" font-size="10.00">IgorAux::iaMatrix&lt; T &gt;</text>
</a>
</g>
</g>
<!-- Node11&#45;&gt;Node9 -->
<g id="edge11" class="edge"><title>Node11&#45;&gt;Node9</title>
<path fill="none" stroke="#9a32cd" stroke-dasharray="5,2" d="M209.304,-44.3694C238.412,-42.7635 272.411,-40.8877 300.835,-39.3194"/>
<polygon fill="#9a32cd" stroke="#9a32cd" points="209.021,-40.8796 199.229,-44.9253 209.407,-47.869 209.021,-40.8796"/>
<text text-anchor="middle" x="250" y="-47" font-family="Helvetica,sans-Serif" font-size="10.00"> _currentMatrix</text>
</g>
<!-- Node12 -->
<g id="node11" class="node"><title>Node12</title>
<g id="a_node11"><a xlink:title=" ">
<polygon fill="white" stroke="#bfbfbf" points="0,-38.5 0,-57.5 29,-57.5 29,-38.5 0,-38.5"/>
<text text-anchor="middle" x="14.5" y="-45.5" font-family="Helvetica,sans-Serif" font-size="10.00">T</text>
</a>
</g>
</g>
<!-- Node12&#45;&gt;Node11 -->
<g id="edge12" class="edge"><title>Node12&#45;&gt;Node11</title>
<path fill="none" stroke="#9a32cd" stroke-dasharray="5,2" d="M39.5321,-48C52.6734,-48 69.5397,-48 85.756,-48"/>
<polygon fill="#9a32cd" stroke="#9a32cd" points="39.4657,-44.5001 29.4656,-48 39.4656,-51.5001 39.4657,-44.5001"/>
<text text-anchor="middle" x="57.5" y="-84" font-family="Helvetica,sans-Serif" font-size="10.00"> _w0</text>
<text text-anchor="middle" x="57.5" y="-73" font-family="Helvetica,sans-Serif" font-size="10.00">_w1</text>
<text text-anchor="middle" x="57.5" y="-62" font-family="Helvetica,sans-Serif" font-size="10.00">_w2</text>
<text text-anchor="middle" x="57.5" y="-51" font-family="Helvetica,sans-Serif" font-size="10.00">_w3</text>
</g>
<!-- Node13&#45;&gt;Node7 -->
<g id="edge13" class="edge"><title>Node13&#45;&gt;Node7</title>
<path fill="none" stroke="#9a32cd" stroke-dasharray="5,2" d="M754.003,-118.76C732.867,-113.602 706.063,-110.189 683,-117 667.626,-121.54 652.529,-132.323 642.8,-140.334"/>
<polygon fill="#9a32cd" stroke="#9a32cd" points="753.318,-122.2 763.882,-121.396 755.122,-115.436 753.318,-122.2"/>
<text text-anchor="middle" x="700.5" y="-120" font-family="Helvetica,sans-Serif" font-size="10.00"> _root</text>
</g>
<!-- Node13&#45;&gt;Node13 -->
<g id="edge18" class="edge"><title>Node13&#45;&gt;Node13</title>
<path fill="none" stroke="#9a32cd" stroke-dasharray="5,2" d="M775.334,-150.4C776.447,-155.315 782.002,-159 792,-159 807.996,-159 812.62,-149.565 805.872,-140.757"/>
<polygon fill="#9a32cd" stroke="#9a32cd" points="778.707,-151.336 778.128,-140.757 771.983,-149.388 778.707,-151.336"/>
<text text-anchor="middle" x="792" y="-162" font-family="Helvetica,sans-Serif" font-size="10.00"> _parent</text>
</g>
<!-- Node14&#45;&gt;Node13 -->
<g id="edge14" class="edge"><title>Node14&#45;&gt;Node13</title>
<path fill="none" stroke="#9a32cd" stroke-dasharray="5,2" d="M578.517,-259.24C591.581,-243.775 583.271,-230.031 597,-219 639.672,-184.713 668.893,-220.188 718,-196 745.706,-182.353 770.914,-155.258 783.172,-140.733"/>
<polygon fill="#9a32cd" stroke="#9a32cd" points="575.731,-257.056 570.855,-266.462 580.532,-262.15 575.731,-257.056"/>
<text text-anchor="middle" x="631" y="-222" font-family="Helvetica,sans-Serif" font-size="10.00"> _idGenerator</text>
</g>
<!-- Node15&#45;&gt;Node7 -->
<g id="edge19" class="edge"><title>Node15&#45;&gt;Node7</title>
<path fill="none" stroke="#9a32cd" stroke-dasharray="5,2" d="M432.448,-200.433C475.439,-197.355 531.34,-190.634 579,-176 591.541,-172.149 604.708,-165.357 614.522,-159.681"/>
<polygon fill="#9a32cd" stroke="#9a32cd" points="432.113,-196.948 422.368,-201.106 432.579,-203.932 432.113,-196.948"/>
<text text-anchor="middle" x="510" y="-203" font-family="Helvetica,sans-Serif" font-size="10.00"> _dataUpdateQueue</text>
</g>
</g>
</svg>
