<?xml version="1.0" encoding="UTF-8" standalone="no"?>
<!DOCTYPE svg PUBLIC "-//W3C//DTD SVG 1.1//EN"
 "http://www.w3.org/Graphics/SVG/1.1/DTD/svg11.dtd">
<!-- Generated by graphviz version 2.38.0 (20140413.2041)
 -->
<!-- Title: UserControlProperties::initGUI Pages: 1 -->
<svg width="584pt" height="235pt"
 viewBox="0.00 0.00 584.00 235.00" xmlns="http://www.w3.org/2000/svg" xmlns:xlink="http://www.w3.org/1999/xlink">
<g id="graph0" class="graph" transform="scale(1 1) rotate(0) translate(4 231)">
<title>UserControlProperties::initGUI</title>
<polygon fill="white" stroke="none" points="-4,4 -4,-231 580,-231 580,4 -4,4"/>
<!-- Node1 -->
<g id="node1" class="node"><title>Node1</title>
<polygon fill="#bfbfbf" stroke="black" points="0,-98.5 0,-128.5 112,-128.5 112,-98.5 0,-98.5"/>
<text text-anchor="start" x="8" y="-116.5" font-family="Helvetica,sans-Serif" font-size="10.00">UserControlProperties</text>
<text text-anchor="middle" x="56" y="-105.5" font-family="Helvetica,sans-Serif" font-size="10.00">::initGUI</text>
</g>
<!-- Node2 -->
<g id="node2" class="node"><title>Node2</title>
<g id="a_node2"><a xlink:href="class_igor_aux_1_1ia_singleton.html#a821f1d891129e6d09b992be81094540e" target="_top" xlink:title="IgorAux::iaSingleton\l\&lt; iWidgetManager \&gt;::getInstance">
<polygon fill="white" stroke="black" points="148,-196.5 148,-226.5 309,-226.5 309,-196.5 148,-196.5"/>
<text text-anchor="start" x="156" y="-214.5" font-family="Helvetica,sans-Serif" font-size="10.00">IgorAux::iaSingleton</text>
<text text-anchor="middle" x="228.5" y="-203.5" font-family="Helvetica,sans-Serif" font-size="10.00">&lt; iWidgetManager &gt;::getInstance</text>
</a>
</g>
</g>
<!-- Node1&#45;&gt;Node2 -->
<g id="edge1" class="edge"><title>Node1&#45;&gt;Node2</title>
<path fill="none" stroke="midnightblue" d="M71.7628,-128.631C88.7437,-145.242 118.143,-171.653 148,-187.5 151.482,-189.348 155.127,-191.075 158.861,-192.686"/>
<polygon fill="midnightblue" stroke="midnightblue" points="157.698,-195.991 168.282,-196.454 160.297,-189.491 157.698,-195.991"/>
</g>
<!-- Node3 -->
<g id="node3" class="node"><title>Node3</title>
<g id="a_node3"><a xlink:href="class_igor_1_1i_widget_manager.html#a6bd957c51cc937fa860f9e2be73f3d27" target="_top" xlink:title="Igor::iWidgetManager\l::createWidget">
<polygon fill="white" stroke="black" points="174,-147.5 174,-177.5 283,-177.5 283,-147.5 174,-147.5"/>
<text text-anchor="start" x="182" y="-165.5" font-family="Helvetica,sans-Serif" font-size="10.00">Igor::iWidgetManager</text>
<text text-anchor="middle" x="228.5" y="-154.5" font-family="Helvetica,sans-Serif" font-size="10.00">::createWidget</text>
</a>
</g>
</g>
<!-- Node1&#45;&gt;Node3 -->
<g id="edge2" class="edge"><title>Node1&#45;&gt;Node3</title>
<path fill="none" stroke="midnightblue" d="M109.547,-128.601C127.213,-133.679 147.087,-139.39 165.416,-144.658"/>
<polygon fill="midnightblue" stroke="midnightblue" points="164.549,-148.05 175.127,-147.448 166.482,-141.322 164.549,-148.05"/>
</g>
<!-- Node7 -->
<g id="node7" class="node"><title>Node7</title>
<g id="a_node7"><a xlink:href="class_igor_1_1i_widget_group_box.html#a1c26446befaab4da76d335cc040761dd" target="_top" xlink:title="Igor::iWidgetGroupBox\l::setText">
<polygon fill="white" stroke="black" points="171,-98.5 171,-128.5 286,-128.5 286,-98.5 171,-98.5"/>
<text text-anchor="start" x="179" y="-116.5" font-family="Helvetica,sans-Serif" font-size="10.00">Igor::iWidgetGroupBox</text>
<text text-anchor="middle" x="228.5" y="-105.5" font-family="Helvetica,sans-Serif" font-size="10.00">::setText</text>
</a>
</g>
</g>
<!-- Node1&#45;&gt;Node7 -->
<g id="edge6" class="edge"><title>Node1&#45;&gt;Node7</title>
<path fill="none" stroke="midnightblue" d="M112.356,-113.5C127.751,-113.5 144.634,-113.5 160.614,-113.5"/>
<polygon fill="midnightblue" stroke="midnightblue" points="160.96,-117 170.96,-113.5 160.96,-110 160.96,-117"/>
</g>
<!-- Node8 -->
<g id="node8" class="node"><title>Node8</title>
<g id="a_node8"><a xlink:href="class_igor_1_1i_widget.html#a74cedb6d5151910c64b7d51491775e9a" target="_top" xlink:title="Igor::iWidget::setHorizontal\lAlignment">
<polygon fill="white" stroke="black" points="161.5,-49.5 161.5,-79.5 295.5,-79.5 295.5,-49.5 161.5,-49.5"/>
<text text-anchor="start" x="169.5" y="-67.5" font-family="Helvetica,sans-Serif" font-size="10.00">Igor::iWidget::setHorizontal</text>
<text text-anchor="middle" x="228.5" y="-56.5" font-family="Helvetica,sans-Serif" font-size="10.00">Alignment</text>
</a>
</g>
</g>
<!-- Node1&#45;&gt;Node8 -->
<g id="edge7" class="edge"><title>Node1&#45;&gt;Node8</title>
<path fill="none" stroke="midnightblue" d="M109.547,-98.3986C127.213,-93.3215 147.087,-87.6098 165.416,-82.3423"/>
<polygon fill="midnightblue" stroke="midnightblue" points="166.482,-85.6776 175.127,-79.5516 164.549,-78.9499 166.482,-85.6776"/>
</g>
<!-- Node9 -->
<g id="node9" class="node"><title>Node9</title>
<g id="a_node9"><a xlink:href="class_igor_1_1i_widget_grid.html#ada59fc39c0e1f9b6b6b1d244b022e4cf" target="_top" xlink:title="Igor::iWidgetGrid::\lappendRows">
<polygon fill="white" stroke="black" points="181,-0.5 181,-30.5 276,-30.5 276,-0.5 181,-0.5"/>
<text text-anchor="start" x="189" y="-18.5" font-family="Helvetica,sans-Serif" font-size="10.00">Igor::iWidgetGrid::</text>
<text text-anchor="middle" x="228.5" y="-7.5" font-family="Helvetica,sans-Serif" font-size="10.00">appendRows</text>
</a>
</g>
</g>
<!-- Node1&#45;&gt;Node9 -->
<g id="edge8" class="edge"><title>Node1&#45;&gt;Node9</title>
<path fill="none" stroke="midnightblue" d="M72.1457,-98.3516C89.2379,-82.015 118.519,-56.2389 148,-40.5 155.259,-36.6245 163.217,-33.2371 171.204,-30.3121"/>
<polygon fill="midnightblue" stroke="midnightblue" points="172.599,-33.5338 180.917,-26.972 170.323,-26.9143 172.599,-33.5338"/>
</g>
<!-- Node4 -->
<g id="node4" class="node"><title>Node4</title>
<g id="a_node4"><a xlink:href="class_igor_aux_1_1ia_string.html#a7bed20819f1376bd433892feeefdc05c" target="_top" xlink:title="IgorAux::iaString::\lgetHashValue">
<polygon fill="white" stroke="black" points="347.5,-169.5 347.5,-199.5 442.5,-199.5 442.5,-169.5 347.5,-169.5"/>
<text text-anchor="start" x="355.5" y="-187.5" font-family="Helvetica,sans-Serif" font-size="10.00">IgorAux::iaString::</text>
<text text-anchor="middle" x="395" y="-176.5" font-family="Helvetica,sans-Serif" font-size="10.00">getHashValue</text>
</a>
</g>
</g>
<!-- Node3&#45;&gt;Node4 -->
<g id="edge3" class="edge"><title>Node3&#45;&gt;Node4</title>
<path fill="none" stroke="midnightblue" d="M283.363,-169.704C300.674,-172.019 319.897,-174.59 337.398,-176.93"/>
<polygon fill="midnightblue" stroke="midnightblue" points="337.1,-180.421 347.476,-178.278 338.028,-173.483 337.1,-180.421"/>
</g>
<!-- Node6 -->
<g id="node6" class="node"><title>Node6</title>
<g id="a_node6"><a xlink:href="class_igor_1_1i_widget.html#aa0816e0911fd5d21a7aed3b9f27bc118" target="_top" xlink:title="Igor::iWidget::getID">
<polygon fill="white" stroke="black" points="345,-131 345,-150 445,-150 445,-131 345,-131"/>
<text text-anchor="middle" x="395" y="-138" font-family="Helvetica,sans-Serif" font-size="10.00">Igor::iWidget::getID</text>
</a>
</g>
</g>
<!-- Node3&#45;&gt;Node6 -->
<g id="edge5" class="edge"><title>Node3&#45;&gt;Node6</title>
<path fill="none" stroke="midnightblue" d="M283.363,-155.296C299.736,-153.107 317.82,-150.688 334.539,-148.452"/>
<polygon fill="midnightblue" stroke="midnightblue" points="335.298,-151.882 344.746,-147.087 334.37,-144.944 335.298,-151.882"/>
</g>
<!-- Node5 -->
<g id="node5" class="node"><title>Node5</title>
<g id="a_node5"><a xlink:href="class_igor_aux_1_1ia_string.html#a527c422c83c563c834a12548728e625d" target="_top" xlink:title="IgorAux::iaString::\lgetData">
<polygon fill="white" stroke="black" points="481,-169.5 481,-199.5 576,-199.5 576,-169.5 481,-169.5"/>
<text text-anchor="start" x="489" y="-187.5" font-family="Helvetica,sans-Serif" font-size="10.00">IgorAux::iaString::</text>
<text text-anchor="middle" x="528.5" y="-176.5" font-family="Helvetica,sans-Serif" font-size="10.00">getData</text>
</a>
</g>
</g>
<!-- Node4&#45;&gt;Node5 -->
<g id="edge4" class="edge"><title>Node4&#45;&gt;Node5</title>
<path fill="none" stroke="midnightblue" d="M442.732,-184.5C451.84,-184.5 461.481,-184.5 470.868,-184.5"/>
<polygon fill="midnightblue" stroke="midnightblue" points="470.918,-188 480.918,-184.5 470.918,-181 470.918,-188"/>
</g>
</g>
</svg>
