<?xml version="1.0" encoding="UTF-8" standalone="no"?>
<!DOCTYPE svg PUBLIC "-//W3C//DTD SVG 1.1//EN"
 "http://www.w3.org/Graphics/SVG/1.1/DTD/svg11.dtd">
<!-- Generated by graphviz version 2.38.0 (20140413.2041)
 -->
<!-- Title: Igor::iUserControlFileChooser::createInstance Pages: 1 -->
<svg width="1600pt" height="300pt"
 viewBox="0.00 0.00 1600.00 300.00" xmlns="http://www.w3.org/2000/svg" xmlns:xlink="http://www.w3.org/1999/xlink">
<g id="graph0" class="graph" transform="scale(1 1) rotate(0) translate(4 296)">
<title>Igor::iUserControlFileChooser::createInstance</title>
<polygon fill="white" stroke="none" points="-4,4 -4,-296 1596,-296 1596,4 -4,4"/>
<!-- Node30 -->
<g id="node1" class="node"><title>Node30</title>
<g id="a_node1"><a xlink:title=" ">
<polygon fill="#bfbfbf" stroke="black" points="0,-212.5 0,-242.5 143,-242.5 143,-212.5 0,-212.5"/>
<text text-anchor="start" x="8" y="-230.5" font-family="Helvetica,sans-Serif" font-size="10.00">Igor::iUserControlFileChooser</text>
<text text-anchor="middle" x="71.5" y="-219.5" font-family="Helvetica,sans-Serif" font-size="10.00">::createInstance</text>
</a>
</g>
</g>
<!-- Node31 -->
<g id="node2" class="node"><title>Node31</title>
<g id="a_node2"><a xlink:href="class_igor_1_1i_user_control_file_chooser.html#a5d8f62c79b5df55c4f6c9ad6b1ed52c7" target="_top" xlink:title=" ">
<polygon fill="white" stroke="black" points="179,-212.5 179,-242.5 322,-242.5 322,-212.5 179,-212.5"/>
<text text-anchor="start" x="187" y="-230.5" font-family="Helvetica,sans-Serif" font-size="10.00">Igor::iUserControlFileChooser</text>
<text text-anchor="middle" x="250.5" y="-219.5" font-family="Helvetica,sans-Serif" font-size="10.00">::iUserControlFileChooser</text>
</a>
</g>
</g>
<!-- Node30&#45;&gt;Node31 -->
<g id="edge1" class="edge"><title>Node30&#45;&gt;Node31</title>
<path fill="none" stroke="midnightblue" d="M143.218,-227.5C151.57,-227.5 160.142,-227.5 168.62,-227.5"/>
<polygon fill="midnightblue" stroke="midnightblue" points="168.894,-231 178.894,-227.5 168.894,-224 168.894,-231"/>
</g>
<!-- Node32 -->
<g id="node3" class="node"><title>Node32</title>
<g id="a_node3"><a xlink:href="class_igor_1_1i_user_control_file_chooser.html#acbdcb369d7f6dabea5fe1a039319b271" target="_top" xlink:title=" ">
<polygon fill="white" stroke="black" points="358,-212.5 358,-242.5 501,-242.5 501,-212.5 358,-212.5"/>
<text text-anchor="start" x="366" y="-230.5" font-family="Helvetica,sans-Serif" font-size="10.00">Igor::iUserControlFileChooser</text>
<text text-anchor="middle" x="429.5" y="-219.5" font-family="Helvetica,sans-Serif" font-size="10.00">::initGUI</text>
</a>
</g>
</g>
<!-- Node31&#45;&gt;Node32 -->
<g id="edge2" class="edge"><title>Node31&#45;&gt;Node32</title>
<path fill="none" stroke="midnightblue" d="M322.218,-227.5C330.57,-227.5 339.142,-227.5 347.62,-227.5"/>
<polygon fill="midnightblue" stroke="midnightblue" points="347.894,-231 357.894,-227.5 347.894,-224 347.894,-231"/>
</g>
<!-- Node33 -->
<g id="node4" class="node"><title>Node33</title>
<g id="a_node4"><a xlink:href="class_igor_aux_1_1ia_singleton.html#a821f1d891129e6d09b992be81094540e" target="_top" xlink:title=" ">
<polygon fill="white" stroke="black" points="895,-259.5 895,-289.5 1056,-289.5 1056,-259.5 895,-259.5"/>
<text text-anchor="start" x="903" y="-277.5" font-family="Helvetica,sans-Serif" font-size="10.00">IgorAux::iaSingleton</text>
<text text-anchor="middle" x="975.5" y="-266.5" font-family="Helvetica,sans-Serif" font-size="10.00">&lt; iWidgetManager &gt;::getInstance</text>
</a>
</g>
</g>
<!-- Node32&#45;&gt;Node33 -->
<g id="edge3" class="edge"><title>Node32&#45;&gt;Node33</title>
<path fill="none" stroke="midnightblue" d="M489.045,-242.56C504.542,-246.032 521.323,-249.337 537,-251.5 656.526,-267.989 795.916,-272.874 884.654,-274.205"/>
<polygon fill="midnightblue" stroke="midnightblue" points="884.636,-277.705 894.684,-274.344 884.733,-270.706 884.636,-277.705"/>
</g>
<!-- Node34 -->
<g id="node5" class="node"><title>Node34</title>
<g id="a_node5"><a xlink:href="class_igor_1_1i_user_control_file_chooser.html#a7dacbb98e9678673a5bc680dfb3122c1" target="_top" xlink:title=" ">
<polygon fill="white" stroke="black" points="537,-163.5 537,-193.5 680,-193.5 680,-163.5 537,-163.5"/>
<text text-anchor="start" x="545" y="-181.5" font-family="Helvetica,sans-Serif" font-size="10.00">Igor::iUserControlFileChooser</text>
<text text-anchor="middle" x="608.5" y="-170.5" font-family="Helvetica,sans-Serif" font-size="10.00">::onTextChanged</text>
</a>
</g>
</g>
<!-- Node32&#45;&gt;Node34 -->
<g id="edge4" class="edge"><title>Node32&#45;&gt;Node34</title>
<path fill="none" stroke="midnightblue" d="M485.05,-212.399C503.474,-207.298 524.212,-201.557 543.312,-196.27"/>
<polygon fill="midnightblue" stroke="midnightblue" points="544.426,-199.593 553.13,-193.552 542.559,-192.847 544.426,-199.593"/>
</g>
<!-- Node35 -->
<g id="node6" class="node"><title>Node35</title>
<g id="a_node6"><a xlink:href="class_igor_1_1i_user_control_file_chooser.html#abf208141bc278147ca8d87af84f4315d" target="_top" xlink:title=" ">
<polygon fill="white" stroke="black" points="537,-212.5 537,-242.5 680,-242.5 680,-212.5 537,-212.5"/>
<text text-anchor="start" x="545" y="-230.5" font-family="Helvetica,sans-Serif" font-size="10.00">Igor::iUserControlFileChooser</text>
<text text-anchor="middle" x="608.5" y="-219.5" font-family="Helvetica,sans-Serif" font-size="10.00">::onFileSelectButtonPressed</text>
</a>
</g>
</g>
<!-- Node32&#45;&gt;Node35 -->
<g id="edge5" class="edge"><title>Node32&#45;&gt;Node35</title>
<path fill="none" stroke="midnightblue" d="M501.218,-227.5C509.57,-227.5 518.142,-227.5 526.62,-227.5"/>
<polygon fill="midnightblue" stroke="midnightblue" points="526.894,-231 536.894,-227.5 526.894,-224 526.894,-231"/>
</g>
<!-- Node36 -->
<g id="node7" class="node"><title>Node36</title>
<g id="a_node7"><a xlink:href="class_igor_1_1i_dialog_file_select.html#a5c3041d6de616956de2bc0465d8983b3" target="_top" xlink:title=" ">
<polygon fill="white" stroke="black" points="732,-212.5 732,-242.5 843,-242.5 843,-212.5 732,-212.5"/>
<text text-anchor="start" x="740" y="-230.5" font-family="Helvetica,sans-Serif" font-size="10.00">Igor::iDialogFileSelect</text>
<text text-anchor="middle" x="787.5" y="-219.5" font-family="Helvetica,sans-Serif" font-size="10.00">::load</text>
</a>
</g>
</g>
<!-- Node35&#45;&gt;Node36 -->
<g id="edge6" class="edge"><title>Node35&#45;&gt;Node36</title>
<path fill="none" stroke="midnightblue" d="M680.218,-227.5C693.953,-227.5 708.284,-227.5 721.813,-227.5"/>
<polygon fill="midnightblue" stroke="midnightblue" points="721.98,-231 731.98,-227.5 721.98,-224 721.98,-231"/>
</g>
<!-- Node37 -->
<g id="node8" class="node"><title>Node37</title>
<g id="a_node8"><a xlink:href="class_igor_1_1i_user_control_file_chooser.html#a385c31c1ecad69cf5bd75e9f8ffe6b96" target="_top" xlink:title=" ">
<polygon fill="white" stroke="black" points="716,-162.5 716,-192.5 859,-192.5 859,-162.5 716,-162.5"/>
<text text-anchor="start" x="724" y="-180.5" font-family="Helvetica,sans-Serif" font-size="10.00">Igor::iUserControlFileChooser</text>
<text text-anchor="middle" x="787.5" y="-169.5" font-family="Helvetica,sans-Serif" font-size="10.00">::onFileLoadDialogClosed</text>
</a>
</g>
</g>
<!-- Node35&#45;&gt;Node37 -->
<g id="edge7" class="edge"><title>Node35&#45;&gt;Node37</title>
<path fill="none" stroke="midnightblue" d="M662.606,-212.498C681.683,-207.109 703.388,-200.978 723.243,-195.369"/>
<polygon fill="midnightblue" stroke="midnightblue" points="724.454,-198.664 733.126,-192.577 722.551,-191.928 724.454,-198.664"/>
</g>
<!-- Node37&#45;&gt;Node33 -->
<g id="edge28" class="edge"><title>Node37&#45;&gt;Node33</title>
<path fill="none" stroke="midnightblue" d="M841.783,-192.591C847.86,-195.399 853.749,-198.68 859,-202.5 880.277,-217.98 873.447,-234.407 895,-249.5 897.726,-251.409 900.604,-253.177 903.584,-254.813"/>
<polygon fill="midnightblue" stroke="midnightblue" points="902.266,-258.065 912.784,-259.338 905.355,-251.784 902.266,-258.065"/>
</g>
<!-- Node38 -->
<g id="node9" class="node"><title>Node38</title>
<g id="a_node9"><a xlink:href="class_igor_1_1i_dialog_file_select.html#a44e6acae3733f31766696fb940d0e2c5" target="_top" xlink:title=" ">
<polygon fill="white" stroke="black" points="920,-161.5 920,-191.5 1031,-191.5 1031,-161.5 920,-161.5"/>
<text text-anchor="start" x="928" y="-179.5" font-family="Helvetica,sans-Serif" font-size="10.00">Igor::iDialogFileSelect</text>
<text text-anchor="middle" x="975.5" y="-168.5" font-family="Helvetica,sans-Serif" font-size="10.00">::getReturnState</text>
</a>
</g>
</g>
<!-- Node37&#45;&gt;Node38 -->
<g id="edge8" class="edge"><title>Node37&#45;&gt;Node38</title>
<path fill="none" stroke="midnightblue" d="M859.084,-177.121C875.765,-177.031 893.468,-176.936 909.87,-176.847"/>
<polygon fill="midnightblue" stroke="midnightblue" points="909.913,-180.347 919.894,-176.794 909.875,-173.347 909.913,-180.347"/>
</g>
<!-- Node39 -->
<g id="node10" class="node"><title>Node39</title>
<g id="a_node10"><a xlink:href="class_igor_1_1i_dialog_file_select.html#a622e7780aa38ad6e55dff5a05ad41070" target="_top" xlink:title=" ">
<polygon fill="white" stroke="black" points="920,-112.5 920,-142.5 1031,-142.5 1031,-112.5 920,-112.5"/>
<text text-anchor="start" x="928" y="-130.5" font-family="Helvetica,sans-Serif" font-size="10.00">Igor::iDialogFileSelect</text>
<text text-anchor="middle" x="975.5" y="-119.5" font-family="Helvetica,sans-Serif" font-size="10.00">::getFullPath</text>
</a>
</g>
</g>
<!-- Node37&#45;&gt;Node39 -->
<g id="edge9" class="edge"><title>Node37&#45;&gt;Node39</title>
<path fill="none" stroke="midnightblue" d="M844.306,-162.498C864.999,-156.936 888.634,-150.582 910.036,-144.829"/>
<polygon fill="midnightblue" stroke="midnightblue" points="910.945,-148.209 919.694,-142.233 909.128,-141.449 910.945,-148.209"/>
</g>
<!-- Node52 -->
<g id="node23" class="node"><title>Node52</title>
<g id="a_node23"><a xlink:href="class_igor_1_1i_widget_text_edit.html#a6c599c767c8d7cc05486af66ceeac0b5" target="_top" xlink:title=" ">
<polygon fill="white" stroke="black" points="922,-63.5 922,-93.5 1029,-93.5 1029,-63.5 922,-63.5"/>
<text text-anchor="start" x="930" y="-81.5" font-family="Helvetica,sans-Serif" font-size="10.00">Igor::iWidgetTextEdit</text>
<text text-anchor="middle" x="975.5" y="-70.5" font-family="Helvetica,sans-Serif" font-size="10.00">::getText</text>
</a>
</g>
</g>
<!-- Node37&#45;&gt;Node52 -->
<g id="edge29" class="edge"><title>Node37&#45;&gt;Node52</title>
<path fill="none" stroke="midnightblue" d="M806.221,-162.305C826.491,-145.596 861.253,-118.942 895,-102.5 900.529,-99.8064 906.422,-97.344 912.405,-95.1107"/>
<polygon fill="midnightblue" stroke="midnightblue" points="913.571,-98.411 921.842,-91.7894 911.247,-91.808 913.571,-98.411"/>
</g>
<!-- Node53 -->
<g id="node24" class="node"><title>Node53</title>
<g id="a_node24"><a xlink:href="class_igor_1_1i_user_control_file_chooser.html#ad8d3af19f48e2eaf2df7475e55faba2d" target="_top" xlink:title=" ">
<polygon fill="white" stroke="black" points="904,-210.5 904,-240.5 1047,-240.5 1047,-210.5 904,-210.5"/>
<text text-anchor="start" x="912" y="-228.5" font-family="Helvetica,sans-Serif" font-size="10.00">Igor::iUserControlFileChooser</text>
<text text-anchor="middle" x="975.5" y="-217.5" font-family="Helvetica,sans-Serif" font-size="10.00">::setFileName</text>
</a>
</g>
</g>
<!-- Node37&#45;&gt;Node53 -->
<g id="edge30" class="edge"><title>Node37&#45;&gt;Node53</title>
<path fill="none" stroke="midnightblue" d="M846.841,-192.556C865.798,-197.448 886.998,-202.919 906.591,-207.975"/>
<polygon fill="midnightblue" stroke="midnightblue" points="905.808,-211.388 916.366,-210.498 907.558,-204.61 905.808,-211.388"/>
</g>
<!-- Node40 -->
<g id="node11" class="node"><title>Node40</title>
<g id="a_node11"><a xlink:href="class_igor_aux_1_1ia_directory.html#a9934e835bf1a0f24673e13513b697fab" target="_top" xlink:title=" ">
<polygon fill="white" stroke="black" points="1094.5,-137.5 1094.5,-167.5 1196.5,-167.5 1196.5,-137.5 1094.5,-137.5"/>
<text text-anchor="start" x="1102.5" y="-155.5" font-family="Helvetica,sans-Serif" font-size="10.00">IgorAux::iaDirectory</text>
<text text-anchor="middle" x="1145.5" y="-144.5" font-family="Helvetica,sans-Serif" font-size="10.00">::fixPath</text>
</a>
</g>
</g>
<!-- Node39&#45;&gt;Node40 -->
<g id="edge10" class="edge"><title>Node39&#45;&gt;Node40</title>
<path fill="none" stroke="midnightblue" d="M1031.04,-135.617C1048.1,-138.155 1067.02,-140.97 1084.44,-143.562"/>
<polygon fill="midnightblue" stroke="midnightblue" points="1084.09,-147.048 1094.49,-145.059 1085.12,-140.125 1084.09,-147.048"/>
</g>
<!-- Node51 -->
<g id="node22" class="node"><title>Node51</title>
<g id="a_node22"><a xlink:href="class_igor_aux_1_1ia_directory.html#a9dd49ace0ad968ebeedbd1f862beaf2b" target="_top" xlink:title=" ">
<polygon fill="white" stroke="black" points="1094.5,-88.5 1094.5,-118.5 1196.5,-118.5 1196.5,-88.5 1094.5,-88.5"/>
<text text-anchor="start" x="1102.5" y="-106.5" font-family="Helvetica,sans-Serif" font-size="10.00">IgorAux::iaDirectory</text>
<text text-anchor="middle" x="1145.5" y="-95.5" font-family="Helvetica,sans-Serif" font-size="10.00">::getPathSeperator</text>
</a>
</g>
</g>
<!-- Node39&#45;&gt;Node51 -->
<g id="edge27" class="edge"><title>Node39&#45;&gt;Node51</title>
<path fill="none" stroke="midnightblue" d="M1031.04,-119.708C1048.1,-117.271 1067.02,-114.569 1084.44,-112.08"/>
<polygon fill="midnightblue" stroke="midnightblue" points="1085.09,-115.523 1094.49,-110.644 1084.1,-108.593 1085.09,-115.523"/>
</g>
<!-- Node41 -->
<g id="node12" class="node"><title>Node41</title>
<g id="a_node12"><a xlink:href="class_igor_aux_1_1ia_string.html#a1de38f8fb334a5e52a266b9a4e891821" target="_top" xlink:title=" ">
<polygon fill="white" stroke="black" points="1366,-5.5 1366,-35.5 1461,-35.5 1461,-5.5 1366,-5.5"/>
<text text-anchor="start" x="1374" y="-23.5" font-family="Helvetica,sans-Serif" font-size="10.00">IgorAux::iaString::</text>
<text text-anchor="middle" x="1413.5" y="-12.5" font-family="Helvetica,sans-Serif" font-size="10.00">getSubString</text>
</a>
</g>
</g>
<!-- Node40&#45;&gt;Node41 -->
<g id="edge11" class="edge"><title>Node40&#45;&gt;Node41</title>
<path fill="none" stroke="midnightblue" d="M1196.43,-137.4C1242.42,-123.076 1306.91,-101.819 1330,-88.5 1348.29,-77.9491 1349.74,-70.9648 1366,-57.5 1372.01,-52.5246 1378.53,-47.2599 1384.73,-42.311"/>
<polygon fill="midnightblue" stroke="midnightblue" points="1387.25,-44.7746 1392.91,-35.8151 1382.9,-39.2926 1387.25,-44.7746"/>
</g>
<!-- Node44 -->
<g id="node15" class="node"><title>Node44</title>
<g id="a_node15"><a xlink:href="class_igor_aux_1_1ia_string.html#af389f9d2294ee35d6e99c7058ea65e18" target="_top" xlink:title=" ">
<polygon fill="white" stroke="black" points="1235,-261.5 1235,-291.5 1330,-291.5 1330,-261.5 1235,-261.5"/>
<text text-anchor="start" x="1243" y="-279.5" font-family="Helvetica,sans-Serif" font-size="10.00">IgorAux::iaString::</text>
<text text-anchor="middle" x="1282.5" y="-268.5" font-family="Helvetica,sans-Serif" font-size="10.00">findLastOf</text>
</a>
</g>
</g>
<!-- Node40&#45;&gt;Node44 -->
<g id="edge14" class="edge"><title>Node40&#45;&gt;Node44</title>
<path fill="none" stroke="midnightblue" d="M1163.11,-167.565C1173.47,-176.988 1187.06,-189.403 1199,-200.5 1215.12,-215.481 1218.83,-219.568 1235,-234.5 1242.16,-241.113 1250,-248.241 1257.18,-254.715"/>
<polygon fill="midnightblue" stroke="midnightblue" points="1254.86,-257.336 1264.63,-261.426 1259.54,-252.134 1254.86,-257.336"/>
</g>
<!-- Node46 -->
<g id="node17" class="node"><title>Node46</title>
<g id="a_node17"><a xlink:href="class_igor_aux_1_1ia_string.html#a5dd1aa2c22b200e373d37dd369fea22a" target="_top" xlink:title=" ">
<polygon fill="white" stroke="black" points="1366,-230.5 1366,-260.5 1461,-260.5 1461,-230.5 1366,-230.5"/>
<text text-anchor="start" x="1374" y="-248.5" font-family="Helvetica,sans-Serif" font-size="10.00">IgorAux::iaString::</text>
<text text-anchor="middle" x="1413.5" y="-237.5" font-family="Helvetica,sans-Serif" font-size="10.00">findFirstOf</text>
</a>
</g>
</g>
<!-- Node40&#45;&gt;Node46 -->
<g id="edge16" class="edge"><title>Node40&#45;&gt;Node46</title>
<path fill="none" stroke="midnightblue" d="M1189.53,-167.545C1235.99,-183.787 1310.01,-209.667 1359.89,-227.106"/>
<polygon fill="midnightblue" stroke="midnightblue" points="1358.93,-230.48 1369.53,-230.476 1361.24,-223.872 1358.93,-230.48"/>
</g>
<!-- Node47 -->
<g id="node18" class="node"><title>Node47</title>
<g id="a_node18"><a xlink:href="class_igor_aux_1_1ia_string.html#a7d68b1fee6a735fd99728850ea55e2d1" target="_top" xlink:title=" ">
<polygon fill="white" stroke="black" points="1235,-137.5 1235,-167.5 1330,-167.5 1330,-137.5 1235,-137.5"/>
<text text-anchor="start" x="1243" y="-155.5" font-family="Helvetica,sans-Serif" font-size="10.00">IgorAux::iaString::</text>
<text text-anchor="middle" x="1282.5" y="-144.5" font-family="Helvetica,sans-Serif" font-size="10.00">split</text>
</a>
</g>
</g>
<!-- Node40&#45;&gt;Node47 -->
<g id="edge18" class="edge"><title>Node40&#45;&gt;Node47</title>
<path fill="none" stroke="midnightblue" d="M1196.77,-152.5C1205.81,-152.5 1215.29,-152.5 1224.51,-152.5"/>
<polygon fill="midnightblue" stroke="midnightblue" points="1224.76,-156 1234.76,-152.5 1224.76,-149 1224.76,-156"/>
</g>
<!-- Node50 -->
<g id="node21" class="node"><title>Node50</title>
<g id="a_node21"><a xlink:href="class_igor_aux_1_1ia_string.html#abc7b1d9a289302f79de14684de13ab1f" target="_top" xlink:title=" ">
<polygon fill="white" stroke="black" points="1235,-49.5 1235,-79.5 1330,-79.5 1330,-49.5 1235,-49.5"/>
<text text-anchor="start" x="1243" y="-67.5" font-family="Helvetica,sans-Serif" font-size="10.00">IgorAux::iaString::</text>
<text text-anchor="middle" x="1282.5" y="-56.5" font-family="Helvetica,sans-Serif" font-size="10.00">clear</text>
</a>
</g>
</g>
<!-- Node40&#45;&gt;Node50 -->
<g id="edge26" class="edge"><title>Node40&#45;&gt;Node50</title>
<path fill="none" stroke="midnightblue" d="M1182.03,-137.359C1187.87,-134.375 1193.73,-131.055 1199,-127.5 1217,-115.367 1217.82,-107.764 1235,-94.5 1239.08,-91.3517 1243.49,-88.2059 1247.91,-85.1999"/>
<polygon fill="midnightblue" stroke="midnightblue" points="1249.94,-88.0578 1256.35,-79.6273 1246.08,-82.2161 1249.94,-88.0578"/>
</g>
<!-- Node42 -->
<g id="node13" class="node"><title>Node42</title>
<g id="a_node13"><a xlink:href="class_igor_aux_1_1ia_string.html#affa8c96a2d7340a79b9e97d84e2585a4" target="_top" xlink:title=" ">
<polygon fill="white" stroke="black" points="1497,-0.5 1497,-30.5 1592,-30.5 1592,-0.5 1497,-0.5"/>
<text text-anchor="start" x="1505" y="-18.5" font-family="Helvetica,sans-Serif" font-size="10.00">IgorAux::iaString::</text>
<text text-anchor="middle" x="1544.5" y="-7.5" font-family="Helvetica,sans-Serif" font-size="10.00">iaString</text>
</a>
</g>
</g>
<!-- Node41&#45;&gt;Node42 -->
<g id="edge12" class="edge"><title>Node41&#45;&gt;Node42</title>
<path fill="none" stroke="midnightblue" d="M1461.07,-18.6949C1469.48,-18.3692 1478.32,-18.0264 1486.97,-17.6911"/>
<polygon fill="midnightblue" stroke="midnightblue" points="1487.14,-21.1872 1497,-17.3025 1486.87,-14.1925 1487.14,-21.1872"/>
</g>
<!-- Node43 -->
<g id="node14" class="node"><title>Node43</title>
<g id="a_node14"><a xlink:href="class_igor_aux_1_1ia_string.html#a8617a0d26ed0c5b4e1b99223f5ac57ff" target="_top" xlink:title=" ">
<polygon fill="white" stroke="black" points="1497,-49.5 1497,-79.5 1592,-79.5 1592,-49.5 1497,-49.5"/>
<text text-anchor="start" x="1505" y="-67.5" font-family="Helvetica,sans-Serif" font-size="10.00">IgorAux::iaString::</text>
<text text-anchor="middle" x="1544.5" y="-56.5" font-family="Helvetica,sans-Serif" font-size="10.00">getData</text>
</a>
</g>
</g>
<!-- Node41&#45;&gt;Node43 -->
<g id="edge13" class="edge"><title>Node41&#45;&gt;Node43</title>
<path fill="none" stroke="midnightblue" d="M1458.53,-35.5192C1468.49,-38.9151 1479.17,-42.5586 1489.49,-46.0767"/>
<polygon fill="midnightblue" stroke="midnightblue" points="1488.63,-49.4834 1499.23,-49.3991 1490.89,-42.8582 1488.63,-49.4834"/>
</g>
<!-- Node45 -->
<g id="node16" class="node"><title>Node45</title>
<g id="a_node16"><a xlink:href="class_igor_aux_1_1ia_string.html#afa2b9ad864db36d1af6c6c67e02d270b" target="_top" xlink:title=" ">
<polygon fill="white" stroke="black" points="1497,-205.5 1497,-235.5 1592,-235.5 1592,-205.5 1497,-205.5"/>
<text text-anchor="start" x="1505" y="-223.5" font-family="Helvetica,sans-Serif" font-size="10.00">IgorAux::iaString::</text>
<text text-anchor="middle" x="1544.5" y="-212.5" font-family="Helvetica,sans-Serif" font-size="10.00">isEmpty</text>
</a>
</g>
</g>
<!-- Node44&#45;&gt;Node45 -->
<g id="edge15" class="edge"><title>Node44&#45;&gt;Node45</title>
<path fill="none" stroke="midnightblue" d="M1330.11,-280.83C1366.52,-282.752 1417.97,-282.232 1461,-269.5 1480.76,-263.652 1500.69,-252.012 1516.01,-241.545"/>
<polygon fill="midnightblue" stroke="midnightblue" points="1518.32,-244.201 1524.46,-235.569 1514.28,-238.485 1518.32,-244.201"/>
</g>
<!-- Node46&#45;&gt;Node45 -->
<g id="edge17" class="edge"><title>Node46&#45;&gt;Node45</title>
<path fill="none" stroke="midnightblue" d="M1461.07,-236.474C1469.48,-234.846 1478.32,-233.132 1486.97,-231.456"/>
<polygon fill="midnightblue" stroke="midnightblue" points="1487.84,-234.851 1497,-229.512 1486.51,-227.979 1487.84,-234.851"/>
</g>
<!-- Node47&#45;&gt;Node41 -->
<g id="edge24" class="edge"><title>Node47&#45;&gt;Node41</title>
<path fill="none" stroke="midnightblue" d="M1312.43,-137.252C1318.73,-133.045 1325,-128.08 1330,-122.5 1353.88,-95.8575 1342.12,-77.1425 1366,-50.5 1368.81,-47.361 1372.03,-44.4168 1375.42,-41.6928"/>
<polygon fill="midnightblue" stroke="midnightblue" points="1377.56,-44.4692 1383.57,-35.7484 1373.43,-38.8138 1377.56,-44.4692"/>
</g>
<!-- Node47&#45;&gt;Node43 -->
<g id="edge22" class="edge"><title>Node47&#45;&gt;Node43</title>
<path fill="none" stroke="midnightblue" d="M1309.42,-137.417C1316.35,-132.948 1323.68,-127.817 1330,-122.5 1348.05,-107.318 1344.93,-94.0991 1366,-83.5 1403.17,-64.8054 1450.17,-60.4929 1486.47,-60.6194"/>
<polygon fill="midnightblue" stroke="midnightblue" points="1486.83,-64.1253 1496.88,-60.7771 1486.94,-57.1261 1486.83,-64.1253"/>
</g>
<!-- Node47&#45;&gt;Node45 -->
<g id="edge19" class="edge"><title>Node47&#45;&gt;Node45</title>
<path fill="none" stroke="midnightblue" d="M1330.25,-152.104C1366.73,-153.069 1418.21,-157.26 1461,-171.5 1480.29,-177.921 1499.94,-189.356 1515.22,-199.566"/>
<polygon fill="midnightblue" stroke="midnightblue" points="1513.45,-202.6 1523.68,-205.388 1517.42,-196.834 1513.45,-202.6"/>
</g>
<!-- Node47&#45;&gt;Node46 -->
<g id="edge23" class="edge"><title>Node47&#45;&gt;Node46</title>
<path fill="none" stroke="midnightblue" d="M1299.81,-167.578C1315.93,-182.081 1341.65,-204.152 1366,-220.5 1368.43,-222.129 1370.97,-223.739 1373.56,-225.311"/>
<polygon fill="midnightblue" stroke="midnightblue" points="1372.06,-228.49 1382.47,-230.476 1375.57,-222.433 1372.06,-228.49"/>
</g>
<!-- Node48 -->
<g id="node19" class="node"><title>Node48</title>
<g id="a_node19"><a xlink:href="class_igor_aux_1_1ia_string.html#a6f6bb95eb9eb1e85f80cde1045e5b9fc" target="_top" xlink:title=" ">
<polygon fill="white" stroke="black" points="1366,-181.5 1366,-211.5 1461,-211.5 1461,-181.5 1366,-181.5"/>
<text text-anchor="start" x="1374" y="-199.5" font-family="Helvetica,sans-Serif" font-size="10.00">IgorAux::iaString::</text>
<text text-anchor="middle" x="1413.5" y="-188.5" font-family="Helvetica,sans-Serif" font-size="10.00">findFirstNotOf</text>
</a>
</g>
</g>
<!-- Node47&#45;&gt;Node48 -->
<g id="edge20" class="edge"><title>Node47&#45;&gt;Node48</title>
<path fill="none" stroke="midnightblue" d="M1327.53,-167.519C1337.49,-170.915 1348.17,-174.559 1358.49,-178.077"/>
<polygon fill="midnightblue" stroke="midnightblue" points="1357.63,-181.483 1368.23,-181.399 1359.89,-174.858 1357.63,-181.483"/>
</g>
<!-- Node49 -->
<g id="node20" class="node"><title>Node49</title>
<g id="a_node20"><a xlink:href="class_igor_aux_1_1ia_string.html#abdca81f9a7dfc354263de5f174171425" target="_top" xlink:title=" ">
<polygon fill="white" stroke="black" points="1366,-93.5 1366,-123.5 1461,-123.5 1461,-93.5 1366,-93.5"/>
<text text-anchor="start" x="1374" y="-111.5" font-family="Helvetica,sans-Serif" font-size="10.00">IgorAux::iaString::</text>
<text text-anchor="middle" x="1413.5" y="-100.5" font-family="Helvetica,sans-Serif" font-size="10.00">getSize</text>
</a>
</g>
</g>
<!-- Node47&#45;&gt;Node49 -->
<g id="edge25" class="edge"><title>Node47&#45;&gt;Node49</title>
<path fill="none" stroke="midnightblue" d="M1327.53,-137.481C1337.49,-134.085 1348.17,-130.441 1358.49,-126.923"/>
<polygon fill="midnightblue" stroke="midnightblue" points="1359.89,-130.142 1368.23,-123.601 1357.63,-123.517 1359.89,-130.142"/>
</g>
<!-- Node48&#45;&gt;Node45 -->
<g id="edge21" class="edge"><title>Node48&#45;&gt;Node45</title>
<path fill="none" stroke="midnightblue" d="M1461.07,-205.165C1469.48,-206.728 1478.32,-208.373 1486.97,-209.983"/>
<polygon fill="midnightblue" stroke="midnightblue" points="1486.52,-213.46 1497,-211.848 1487.81,-206.578 1486.52,-213.46"/>
</g>
<!-- Node54 -->
<g id="node25" class="node"><title>Node54</title>
<g id="a_node25"><a xlink:href="class_igor_1_1i_widget_text_edit.html#a6c6ff0219d37e32d4b614587e7009213" target="_top" xlink:title=" ">
<polygon fill="white" stroke="black" points="1092,-210.5 1092,-240.5 1199,-240.5 1199,-210.5 1092,-210.5"/>
<text text-anchor="start" x="1100" y="-228.5" font-family="Helvetica,sans-Serif" font-size="10.00">Igor::iWidgetTextEdit</text>
<text text-anchor="middle" x="1145.5" y="-217.5" font-family="Helvetica,sans-Serif" font-size="10.00">::setText</text>
</a>
</g>
</g>
<!-- Node53&#45;&gt;Node54 -->
<g id="edge31" class="edge"><title>Node53&#45;&gt;Node54</title>
<path fill="none" stroke="midnightblue" d="M1047.26,-225.5C1058.73,-225.5 1070.53,-225.5 1081.79,-225.5"/>
<polygon fill="midnightblue" stroke="midnightblue" points="1081.95,-229 1091.95,-225.5 1081.95,-222 1081.95,-229"/>
</g>
</g>
</svg>
