<?xml version="1.0" encoding="UTF-8" standalone="no"?>
<!DOCTYPE svg PUBLIC "-//W3C//DTD SVG 1.1//EN"
 "http://www.w3.org/Graphics/SVG/1.1/DTD/svg11.dtd">
<!-- Generated by graphviz version 2.38.0 (20140413.2041)
 -->
<!-- Title: UserControlParticleSystem::onCloseStartSizeGradientEditor Pages: 1 -->
<svg width="534pt" height="39pt"
 viewBox="0.00 0.00 534.00 39.00" xmlns="http://www.w3.org/2000/svg" xmlns:xlink="http://www.w3.org/1999/xlink">
<g id="graph0" class="graph" transform="scale(1 1) rotate(0) translate(4 35)">
<title>UserControlParticleSystem::onCloseStartSizeGradientEditor</title>
<polygon fill="white" stroke="none" points="-4,4 -4,-35 530,-35 530,4 -4,4"/>
<!-- Node1 -->
<g id="node1" class="node"><title>Node1</title>
<polygon fill="#bfbfbf" stroke="black" points="0,-0.5 0,-30.5 161,-30.5 161,-0.5 0,-0.5"/>
<text text-anchor="start" x="8" y="-18.5" font-family="Helvetica,sans-Serif" font-size="10.00">UserControlParticleSystem</text>
<text text-anchor="middle" x="80.5" y="-7.5" font-family="Helvetica,sans-Serif" font-size="10.00">::onCloseStartSizeGradientEditor</text>
</g>
<!-- Node2 -->
<g id="node2" class="node"><title>Node2</title>
<g id="a_node2"><a xlink:href="class_user_control_particle_system.html#aeb75c96e8be626af001b713cf362de33" target="_top" xlink:title="UserControlParticleSystem\l::onOpenStartSizeGradientEditor">
<polygon fill="white" stroke="black" points="197,-0.5 197,-30.5 356,-30.5 356,-0.5 197,-0.5"/>
<text text-anchor="start" x="205" y="-18.5" font-family="Helvetica,sans-Serif" font-size="10.00">UserControlParticleSystem</text>
<text text-anchor="middle" x="276.5" y="-7.5" font-family="Helvetica,sans-Serif" font-size="10.00">::onOpenStartSizeGradientEditor</text>
</a>
</g>
</g>
<!-- Node1&#45;&gt;Node2 -->
<g id="edge1" class="edge"><title>Node1&#45;&gt;Node2</title>
<path fill="none" stroke="midnightblue" d="M171.467,-15.5C179.888,-15.5 188.381,-15.5 196.689,-15.5"/>
<polygon fill="midnightblue" stroke="midnightblue" points="171.247,-12.0001 161.247,-15.5 171.247,-19.0001 171.247,-12.0001"/>
</g>
<!-- Node3 -->
<g id="node3" class="node"><title>Node3</title>
<g id="a_node3"><a xlink:href="class_user_control_particle_system.html#a40bcd13d702c6d38e59a6509f0c690ff" target="_top" xlink:title="UserControlParticleSystem\l::initGUI">
<polygon fill="white" stroke="black" points="392,-0.5 392,-30.5 526,-30.5 526,-0.5 392,-0.5"/>
<text text-anchor="start" x="400" y="-18.5" font-family="Helvetica,sans-Serif" font-size="10.00">UserControlParticleSystem</text>
<text text-anchor="middle" x="459" y="-7.5" font-family="Helvetica,sans-Serif" font-size="10.00">::initGUI</text>
</a>
</g>
</g>
<!-- Node2&#45;&gt;Node3 -->
<g id="edge2" class="edge"><title>Node2&#45;&gt;Node3</title>
<path fill="none" stroke="midnightblue" d="M366.211,-15.5C374.808,-15.5 383.425,-15.5 391.747,-15.5"/>
<polygon fill="midnightblue" stroke="midnightblue" points="366.145,-12.0001 356.145,-15.5 366.145,-19.0001 366.145,-12.0001"/>
</g>
</g>
</svg>
