<?xml version="1.0" encoding="UTF-8" standalone="no"?>
<!DOCTYPE svg PUBLIC "-//W3C//DTD SVG 1.1//EN"
 "http://www.w3.org/Graphics/SVG/1.1/DTD/svg11.dtd">
<!-- Generated by graphviz version 2.38.0 (20140413.2041)
 -->
<!-- Title: Igor::iScene::addToDataUpdateQueue Pages: 1 -->
<svg width="1002pt" height="352pt"
 viewBox="0.00 0.00 1002.00 351.50" xmlns="http://www.w3.org/2000/svg" xmlns:xlink="http://www.w3.org/1999/xlink">
<g id="graph0" class="graph" transform="scale(1 1) rotate(0) translate(4 347.5)">
<title>Igor::iScene::addToDataUpdateQueue</title>
<polygon fill="white" stroke="none" points="-4,4 -4,-347.5 998,-347.5 998,4 -4,4"/>
<!-- Node6 -->
<g id="node1" class="node"><title>Node6</title>
<g id="a_node1"><a xlink:title=" ">
<polygon fill="#bfbfbf" stroke="black" points="842,-137 842,-167 994,-167 994,-137 842,-137"/>
<text text-anchor="start" x="850" y="-155" font-family="Helvetica,sans-Serif" font-size="10.00">Igor::iScene::addToDataUpdate</text>
<text text-anchor="middle" x="918" y="-144" font-family="Helvetica,sans-Serif" font-size="10.00">Queue</text>
</a>
</g>
</g>
<!-- Node7 -->
<g id="node2" class="node"><title>Node7</title>
<g id="a_node2"><a xlink:href="class_igor_1_1i_node.html#a7f855c2164f9fc704210c7510afd0a9c" target="_top" xlink:title=" ">
<polygon fill="white" stroke="black" points="681.5,-164.5 681.5,-183.5 804.5,-183.5 804.5,-164.5 681.5,-164.5"/>
<text text-anchor="middle" x="743" y="-171.5" font-family="Helvetica,sans-Serif" font-size="10.00">Igor::iNode::setDataDirty</text>
</a>
</g>
</g>
<!-- Node6&#45;&gt;Node7 -->
<g id="edge1" class="edge"><title>Node6&#45;&gt;Node7</title>
<path fill="none" stroke="midnightblue" d="M831.944,-162.816C822.767,-163.983 813.569,-165.153 804.761,-166.273"/>
<polygon fill="midnightblue" stroke="midnightblue" points="832.396,-166.287 841.874,-161.554 831.513,-159.343 832.396,-166.287"/>
</g>
<!-- Node23 -->
<g id="node18" class="node"><title>Node23</title>
<g id="a_node18"><a xlink:href="class_igor_1_1i_node_model.html#a43f2cf258bc69d849bf24069391ce259" target="_top" xlink:title=" ">
<polygon fill="white" stroke="black" points="680,-115 680,-145 806,-145 806,-115 680,-115"/>
<text text-anchor="start" x="688" y="-133" font-family="Helvetica,sans-Serif" font-size="10.00">Igor::iNodeModel::onPost</text>
<text text-anchor="middle" x="743" y="-122" font-family="Helvetica,sans-Serif" font-size="10.00">SetScene</text>
</a>
</g>
</g>
<!-- Node6&#45;&gt;Node23 -->
<g id="edge22" class="edge"><title>Node6&#45;&gt;Node23</title>
<path fill="none" stroke="midnightblue" d="M831.746,-141.158C823.094,-140.058 814.426,-138.956 806.087,-137.895"/>
<polygon fill="midnightblue" stroke="midnightblue" points="831.513,-144.657 841.874,-142.446 832.396,-137.713 831.513,-144.657"/>
</g>
<!-- Node8 -->
<g id="node3" class="node"><title>Node8</title>
<g id="a_node3"><a xlink:href="class_igor_1_1i_node_model.html#ab731c3500613a31402bb04315a85b524" target="_top" xlink:title=" ">
<polygon fill="white" stroke="black" points="509,-164.5 509,-183.5 644,-183.5 644,-164.5 509,-164.5"/>
<text text-anchor="middle" x="576.5" y="-171.5" font-family="Helvetica,sans-Serif" font-size="10.00">Igor::iNodeModel::setModel</text>
</a>
</g>
</g>
<!-- Node7&#45;&gt;Node8 -->
<g id="edge2" class="edge"><title>Node7&#45;&gt;Node8</title>
<path fill="none" stroke="midnightblue" d="M671.178,-174C662.198,-174 653.034,-174 644.123,-174"/>
<polygon fill="midnightblue" stroke="midnightblue" points="671.214,-177.5 681.214,-174 671.214,-170.5 671.214,-177.5"/>
</g>
<!-- Node9 -->
<g id="node4" class="node"><title>Node9</title>
<g id="a_node4"><a xlink:href="class_igor_1_1i_model_data_i_o_o_m_p_f.html#a4872c9dbcc8050a911e76db6167a1ebf" target="_top" xlink:title=" ">
<polygon fill="white" stroke="black" points="334.5,-313 334.5,-343 459.5,-343 459.5,-313 334.5,-313"/>
<text text-anchor="start" x="342.5" y="-331" font-family="Helvetica,sans-Serif" font-size="10.00">Igor::iModelDataIOOMPF</text>
<text text-anchor="middle" x="397" y="-320" font-family="Helvetica,sans-Serif" font-size="10.00">::createNodeTree</text>
</a>
</g>
</g>
<!-- Node8&#45;&gt;Node9 -->
<g id="edge3" class="edge"><title>Node8&#45;&gt;Node9</title>
<path fill="none" stroke="midnightblue" d="M565.577,-192.401C549.647,-220.263 515.768,-273.073 473,-303 467.49,-306.856 461.341,-310.151 455.001,-312.96"/>
<polygon fill="midnightblue" stroke="midnightblue" points="568.635,-194.103 570.449,-183.664 562.522,-190.694 568.635,-194.103"/>
</g>
<!-- Node10 -->
<g id="node5" class="node"><title>Node10</title>
<g id="a_node5"><a xlink:href="class_igor_1_1i_node_model.html#a7e332947f6197618cba5ace0c80e1ca0" target="_top" xlink:title=" ">
<polygon fill="white" stroke="black" points="324,-274.5 324,-293.5 470,-293.5 470,-274.5 324,-274.5"/>
<text text-anchor="middle" x="397" y="-281.5" font-family="Helvetica,sans-Serif" font-size="10.00">Igor::iNodeModel::iNodeModel</text>
</a>
</g>
</g>
<!-- Node8&#45;&gt;Node10 -->
<g id="edge4" class="edge"><title>Node8&#45;&gt;Node10</title>
<path fill="none" stroke="midnightblue" d="M560.838,-191.314C542.419,-211.947 508.856,-246.009 473,-265 465.759,-268.835 457.711,-271.921 449.651,-274.398"/>
<polygon fill="midnightblue" stroke="midnightblue" points="563.611,-193.459 567.554,-183.625 558.34,-188.854 563.611,-193.459"/>
</g>
<!-- Node11 -->
<g id="node6" class="node"><title>Node11</title>
<g id="a_node6"><a xlink:href="class_igor_1_1i_voxel_terrain.html#a2866e4ad74ac190ae4591a64329297b0" target="_top" xlink:title=" ">
<polygon fill="white" stroke="black" points="349.5,-225 349.5,-255 444.5,-255 444.5,-225 349.5,-225"/>
<text text-anchor="start" x="357.5" y="-243" font-family="Helvetica,sans-Serif" font-size="10.00">Igor::iVoxelTerrain</text>
<text text-anchor="middle" x="397" y="-232" font-family="Helvetica,sans-Serif" font-size="10.00">::updateMesh</text>
</a>
</g>
</g>
<!-- Node8&#45;&gt;Node11 -->
<g id="edge5" class="edge"><title>Node8&#45;&gt;Node11</title>
<path fill="none" stroke="midnightblue" d="M540.27,-187.1C510.992,-197.986 469.311,-213.484 438.629,-224.893"/>
<polygon fill="midnightblue" stroke="midnightblue" points="541.537,-190.363 549.69,-183.597 539.097,-183.802 541.537,-190.363"/>
</g>
<!-- Node12 -->
<g id="node7" class="node"><title>Node12</title>
<g id="a_node7"><a xlink:href="class_model_viewer.html#a0a80ce07e2d2b7f390678ad21805f3b2" target="_top" xlink:title=" ">
<polygon fill="white" stroke="black" points="174,-177.5 174,-196.5 265,-196.5 265,-177.5 174,-177.5"/>
<text text-anchor="middle" x="219.5" y="-184.5" font-family="Helvetica,sans-Serif" font-size="10.00">ModelViewer::init</text>
</a>
</g>
</g>
<!-- Node8&#45;&gt;Node12 -->
<g id="edge6" class="edge"><title>Node8&#45;&gt;Node12</title>
<path fill="none" stroke="midnightblue" d="M498.448,-176.822C427.129,-179.433 323.558,-183.226 265.071,-185.368"/>
<polygon fill="midnightblue" stroke="midnightblue" points="498.862,-180.309 508.727,-176.445 498.606,-173.314 498.862,-180.309"/>
</g>
<!-- Node13 -->
<g id="node8" class="node"><title>Node13</title>
<g id="a_node8"><a xlink:href="class_model_viewer.html#a13014378c1aca9d191468a5b17e947f6" target="_top" xlink:title=" ">
<polygon fill="white" stroke="black" points="331.5,-88 331.5,-118 462.5,-118 462.5,-88 331.5,-88"/>
<text text-anchor="start" x="339.5" y="-106" font-family="Helvetica,sans-Serif" font-size="10.00">ModelViewer::onImportFile</text>
<text text-anchor="middle" x="397" y="-95" font-family="Helvetica,sans-Serif" font-size="10.00">DialogClosed</text>
</a>
</g>
</g>
<!-- Node8&#45;&gt;Node13 -->
<g id="edge7" class="edge"><title>Node8&#45;&gt;Node13</title>
<path fill="none" stroke="midnightblue" d="M546.664,-160.127C526.303,-150.562 498.257,-137.849 473,-128 464.177,-124.56 454.661,-121.158 445.468,-118.023"/>
<polygon fill="midnightblue" stroke="midnightblue" points="545.181,-163.298 555.717,-164.411 548.175,-156.97 545.181,-163.298"/>
</g>
<!-- Node17 -->
<g id="node12" class="node"><title>Node17</title>
<g id="a_node12"><a xlink:href="class_model_viewer.html#a8e8f805fcefbe96a8685e1d957cdbda9" target="_top" xlink:title=" ">
<polygon fill="white" stroke="black" points="331.5,-39 331.5,-69 462.5,-69 462.5,-39 331.5,-39"/>
<text text-anchor="start" x="339.5" y="-57" font-family="Helvetica,sans-Serif" font-size="10.00">ModelViewer::onImportFile</text>
<text text-anchor="middle" x="397" y="-46" font-family="Helvetica,sans-Serif" font-size="10.00">ReferenceDialogClosed</text>
</a>
</g>
</g>
<!-- Node8&#45;&gt;Node17 -->
<g id="edge11" class="edge"><title>Node8&#45;&gt;Node17</title>
<path fill="none" stroke="midnightblue" d="M561.036,-156.669C542.594,-135.584 508.781,-100.186 473,-79 466.623,-75.2238 459.598,-71.9284 452.484,-69.0789"/>
<polygon fill="midnightblue" stroke="midnightblue" points="558.581,-159.183 567.749,-164.495 563.895,-154.626 558.581,-159.183"/>
</g>
<!-- Node19 -->
<g id="node14" class="node"><title>Node19</title>
<g id="a_node14"><a xlink:href="class_model_viewer.html#a9f2e19c85aa4ffb6970717d68c171e75" target="_top" xlink:title=" ">
<polygon fill="white" stroke="black" points="321,-137 321,-167 473,-167 473,-137 321,-137"/>
<text text-anchor="start" x="329" y="-155" font-family="Helvetica,sans-Serif" font-size="10.00">ModelViewer::onFileLoadDialog</text>
<text text-anchor="middle" x="397" y="-144" font-family="Helvetica,sans-Serif" font-size="10.00">Closed</text>
</a>
</g>
</g>
<!-- Node8&#45;&gt;Node19 -->
<g id="edge15" class="edge"><title>Node8&#45;&gt;Node19</title>
<path fill="none" stroke="midnightblue" d="M498.913,-164.508C490.327,-163.443 481.587,-162.36 473.022,-161.298"/>
<polygon fill="midnightblue" stroke="midnightblue" points="498.546,-167.989 508.901,-165.745 499.407,-161.042 498.546,-167.989"/>
</g>
<!-- Node21 -->
<g id="node16" class="node"><title>Node21</title>
<g id="a_node16"><a xlink:href="class_o_b_j2_o_m_p_f.html#ad02e6ef54cf7a8530e5c54f4c9d2f61d" target="_top" xlink:title=" ">
<polygon fill="white" stroke="black" points="344,-0.5 344,-19.5 450,-19.5 450,-0.5 344,-0.5"/>
<text text-anchor="middle" x="397" y="-7.5" font-family="Helvetica,sans-Serif" font-size="10.00">OBJ2OMPF::convert</text>
</a>
</g>
</g>
<!-- Node8&#45;&gt;Node21 -->
<g id="edge20" class="edge"><title>Node8&#45;&gt;Node21</title>
<path fill="none" stroke="midnightblue" d="M567.214,-154.873C552.75,-123.79 519.895,-62.5247 473,-30 466.135,-25.2384 458.196,-21.6101 450.106,-18.8454"/>
<polygon fill="midnightblue" stroke="midnightblue" points="564.107,-156.495 571.409,-164.172 570.487,-153.617 564.107,-156.495"/>
</g>
<!-- Node14 -->
<g id="node9" class="node"><title>Node14</title>
<g id="a_node9"><a xlink:href="class_model_viewer.html#a07958faefef0e0a8054fdefa67359f12" target="_top" xlink:title=" ">
<polygon fill="white" stroke="black" points="154,-93.5 154,-112.5 285,-112.5 285,-93.5 154,-93.5"/>
<text text-anchor="middle" x="219.5" y="-100.5" font-family="Helvetica,sans-Serif" font-size="10.00">ModelViewer::onImportFile</text>
</a>
</g>
</g>
<!-- Node13&#45;&gt;Node14 -->
<g id="edge8" class="edge"><title>Node13&#45;&gt;Node14</title>
<path fill="none" stroke="midnightblue" d="M320.802,-103C308.911,-103 296.706,-103 285.085,-103"/>
<polygon fill="midnightblue" stroke="midnightblue" points="321.149,-106.5 331.149,-103 321.149,-99.5001 321.149,-106.5"/>
</g>
<!-- Node15 -->
<g id="node10" class="node"><title>Node15</title>
<g id="a_node10"><a xlink:href="class_model_viewer.html#a6583fbced0dd9654fed6adbad4650911" target="_top" xlink:title=" ">
<polygon fill="white" stroke="black" points="5.5,-74.5 5.5,-93.5 112.5,-93.5 112.5,-74.5 5.5,-74.5"/>
<text text-anchor="middle" x="59" y="-81.5" font-family="Helvetica,sans-Serif" font-size="10.00">ModelViewer::initGUI</text>
</a>
</g>
</g>
<!-- Node14&#45;&gt;Node15 -->
<g id="edge9" class="edge"><title>Node14&#45;&gt;Node15</title>
<path fill="none" stroke="midnightblue" d="M143.362,-93.9929C133.093,-92.7619 122.731,-91.5198 112.969,-90.3496"/>
<polygon fill="midnightblue" stroke="midnightblue" points="143.229,-97.502 153.575,-95.2172 144.062,-90.5517 143.229,-97.502"/>
</g>
<!-- Node16 -->
<g id="node11" class="node"><title>Node16</title>
<g id="a_node11"><a xlink:href="class_model_viewer.html#a247bac03643084abda6e880573312206" target="_top" xlink:title=" ">
<polygon fill="white" stroke="black" points="0,-112.5 0,-131.5 118,-131.5 118,-112.5 0,-112.5"/>
<text text-anchor="middle" x="59" y="-119.5" font-family="Helvetica,sans-Serif" font-size="10.00">ModelViewer::deinitGUI</text>
</a>
</g>
</g>
<!-- Node14&#45;&gt;Node16 -->
<g id="edge10" class="edge"><title>Node14&#45;&gt;Node16</title>
<path fill="none" stroke="midnightblue" d="M143.614,-111.977C135.082,-113 126.482,-114.031 118.212,-115.022"/>
<polygon fill="midnightblue" stroke="midnightblue" points="144.062,-115.448 153.575,-110.783 143.229,-108.498 144.062,-115.448"/>
</g>
<!-- Node18 -->
<g id="node13" class="node"><title>Node18</title>
<g id="a_node13"><a xlink:href="class_model_viewer.html#aa54c56522db1f2fe99c35cb8a22bea13" target="_top" xlink:title=" ">
<polygon fill="white" stroke="black" points="154,-44 154,-74 285,-74 285,-44 154,-44"/>
<text text-anchor="start" x="162" y="-62" font-family="Helvetica,sans-Serif" font-size="10.00">ModelViewer::onImportFile</text>
<text text-anchor="middle" x="219.5" y="-51" font-family="Helvetica,sans-Serif" font-size="10.00">Reference</text>
</a>
</g>
</g>
<!-- Node17&#45;&gt;Node18 -->
<g id="edge12" class="edge"><title>Node17&#45;&gt;Node18</title>
<path fill="none" stroke="midnightblue" d="M320.802,-56.1424C308.911,-56.4812 296.706,-56.8289 285.085,-57.16"/>
<polygon fill="midnightblue" stroke="midnightblue" points="321.253,-59.6311 331.149,-55.8476 321.053,-52.6339 321.253,-59.6311"/>
</g>
<!-- Node18&#45;&gt;Node15 -->
<g id="edge13" class="edge"><title>Node18&#45;&gt;Node15</title>
<path fill="none" stroke="midnightblue" d="M143.683,-70.8008C133.308,-72.4371 122.833,-74.0895 112.969,-75.6452"/>
<polygon fill="midnightblue" stroke="midnightblue" points="144.242,-74.256 153.575,-69.2406 143.151,-67.3414 144.242,-74.256"/>
</g>
<!-- Node18&#45;&gt;Node16 -->
<g id="edge14" class="edge"><title>Node18&#45;&gt;Node16</title>
<path fill="none" stroke="midnightblue" d="M168.277,-77.8094C163.42,-79.8246 158.595,-81.9055 154,-84 137.538,-91.504 134.656,-95.9365 118,-103 109.903,-106.434 100.96,-109.638 92.5702,-112.401"/>
<polygon fill="midnightblue" stroke="midnightblue" points="169.649,-81.0297 177.601,-74.0286 167.019,-74.5426 169.649,-81.0297"/>
</g>
<!-- Node19&#45;&gt;Node12 -->
<g id="edge16" class="edge"><title>Node19&#45;&gt;Node12</title>
<path fill="none" stroke="midnightblue" d="M310.97,-168.958C295.114,-172.12 279.14,-175.305 265.121,-178.101"/>
<polygon fill="midnightblue" stroke="midnightblue" points="311.686,-172.384 320.808,-166.995 310.317,-165.519 311.686,-172.384"/>
</g>
<!-- Node20 -->
<g id="node15" class="node"><title>Node20</title>
<g id="a_node15"><a xlink:href="class_model_viewer.html#ab188aff8f81707ba02bd93ef2b201fa7" target="_top" xlink:title=" ">
<polygon fill="white" stroke="black" points="157,-131.5 157,-150.5 282,-150.5 282,-131.5 157,-131.5"/>
<text text-anchor="middle" x="219.5" y="-138.5" font-family="Helvetica,sans-Serif" font-size="10.00">ModelViewer::onLoadFile</text>
</a>
</g>
</g>
<!-- Node19&#45;&gt;Node20 -->
<g id="edge17" class="edge"><title>Node19&#45;&gt;Node20</title>
<path fill="none" stroke="midnightblue" d="M310.752,-146.657C301.069,-146.05 291.346,-145.44 282.053,-144.858"/>
<polygon fill="midnightblue" stroke="midnightblue" points="310.609,-150.155 320.808,-147.287 311.047,-143.168 310.609,-150.155"/>
</g>
<!-- Node20&#45;&gt;Node15 -->
<g id="edge18" class="edge"><title>Node20&#45;&gt;Node15</title>
<path fill="none" stroke="midnightblue" d="M172.015,-128.518C165.891,-126.522 159.749,-124.336 154,-122 137.24,-115.188 134.656,-110.063 118,-103 109.903,-99.5663 100.96,-96.3619 92.5702,-93.5991"/>
<polygon fill="midnightblue" stroke="midnightblue" points="170.977,-131.861 181.566,-131.494 173.06,-125.178 170.977,-131.861"/>
</g>
<!-- Node20&#45;&gt;Node16 -->
<g id="edge19" class="edge"><title>Node20&#45;&gt;Node16</title>
<path fill="none" stroke="midnightblue" d="M146.546,-132.375C137.052,-131.237 127.417,-130.082 118.193,-128.976"/>
<polygon fill="midnightblue" stroke="midnightblue" points="146.42,-135.885 156.766,-133.6 147.254,-128.934 146.42,-135.885"/>
</g>
<!-- Node22 -->
<g id="node17" class="node"><title>Node22</title>
<g id="a_node17"><a xlink:href="_o_b_j2_o_m_p_f_2src_2main_8cpp.html#a0ddf1224851353fc92bfbff6f499fa97" target="_top" xlink:title=" ">
<polygon fill="white" stroke="black" points="200.5,-0.5 200.5,-19.5 238.5,-19.5 238.5,-0.5 200.5,-0.5"/>
<text text-anchor="middle" x="219.5" y="-7.5" font-family="Helvetica,sans-Serif" font-size="10.00">main</text>
</a>
</g>
</g>
<!-- Node21&#45;&gt;Node22 -->
<g id="edge21" class="edge"><title>Node21&#45;&gt;Node22</title>
<path fill="none" stroke="midnightblue" d="M333.593,-10C300.004,-10 260.995,-10 238.682,-10"/>
<polygon fill="midnightblue" stroke="midnightblue" points="333.819,-13.5001 343.819,-10 333.819,-6.5001 333.819,-13.5001"/>
</g>
</g>
</svg>
