<?xml version="1.0" encoding="UTF-8" standalone="no"?>
<!DOCTYPE svg PUBLIC "-//W3C//DTD SVG 1.1//EN"
 "http://www.w3.org/Graphics/SVG/1.1/DTD/svg11.dtd">
<!-- Generated by graphviz version 2.38.0 (20140413.2041)
 -->
<!-- Title: Igor::iInstancer::getInstanceArrayObject Pages: 1 -->
<svg width="324pt" height="66pt"
 viewBox="0.00 0.00 324.00 66.00" xmlns="http://www.w3.org/2000/svg" xmlns:xlink="http://www.w3.org/1999/xlink">
<g id="graph0" class="graph" transform="scale(1 1) rotate(0) translate(4 62)">
<title>Igor::iInstancer::getInstanceArrayObject</title>
<polygon fill="white" stroke="none" points="-4,4 -4,-62 320,-62 320,4 -4,4"/>
<!-- Node1 -->
<g id="node1" class="node"><title>Node1</title>
<polygon fill="#bfbfbf" stroke="black" points="0,-14 0,-44 137,-44 137,-14 0,-14"/>
<text text-anchor="start" x="8" y="-32" font-family="Helvetica,sans-Serif" font-size="10.00">Igor::iInstancer::getInstance</text>
<text text-anchor="middle" x="68.5" y="-21" font-family="Helvetica,sans-Serif" font-size="10.00">ArrayObject</text>
</g>
<!-- Node2 -->
<g id="node2" class="node"><title>Node2</title>
<g id="a_node2"><a xlink:href="class_igor_1_1i_renderer.html#a3f5170c2d66fe4a510c303a25e9c7e02" target="_top" xlink:title="Igor::iRenderer::createBuffers">
<polygon fill="white" stroke="black" points="173,-38.5 173,-57.5 316,-57.5 316,-38.5 173,-38.5"/>
<text text-anchor="middle" x="244.5" y="-45.5" font-family="Helvetica,sans-Serif" font-size="10.00">Igor::iRenderer::createBuffers</text>
</a>
</g>
</g>
<!-- Node1&#45;&gt;Node2 -->
<g id="edge1" class="edge"><title>Node1&#45;&gt;Node2</title>
<path fill="none" stroke="midnightblue" d="M147.466,-37.5136C155.888,-38.4332 164.425,-39.3654 172.755,-40.275"/>
<polygon fill="midnightblue" stroke="midnightblue" points="147.592,-34.0066 137.271,-36.4003 146.832,-40.9652 147.592,-34.0066"/>
</g>
<!-- Node3 -->
<g id="node3" class="node"><title>Node3</title>
<g id="a_node3"><a xlink:href="class_igor_1_1i_renderer.html#a6bcd50201808fc32b8c2f2ec98723f16" target="_top" xlink:title="Igor::iRenderer::drawMesh">
<polygon fill="white" stroke="black" points="179.5,-0.5 179.5,-19.5 309.5,-19.5 309.5,-0.5 179.5,-0.5"/>
<text text-anchor="middle" x="244.5" y="-7.5" font-family="Helvetica,sans-Serif" font-size="10.00">Igor::iRenderer::drawMesh</text>
</a>
</g>
</g>
<!-- Node1&#45;&gt;Node3 -->
<g id="edge2" class="edge"><title>Node1&#45;&gt;Node3</title>
<path fill="none" stroke="midnightblue" d="M147.423,-20.4912C158.092,-19.3261 168.946,-18.1409 179.332,-17.0068"/>
<polygon fill="midnightblue" stroke="midnightblue" points="146.832,-17.0348 137.271,-21.5997 147.592,-23.9934 146.832,-17.0348"/>
</g>
</g>
</svg>
