<?xml version="1.0" encoding="UTF-8" standalone="no"?>
<!DOCTYPE svg PUBLIC "-//W3C//DTD SVG 1.1//EN"
 "http://www.w3.org/Graphics/SVG/1.1/DTD/svg11.dtd">
<!-- Generated by graphviz version 2.38.0 (20140413.2041)
 -->
<!-- Title: UserControlTransformation::onChange Pages: 1 -->
<svg width="835pt" height="395pt"
 viewBox="0.00 0.00 835.00 395.00" xmlns="http://www.w3.org/2000/svg" xmlns:xlink="http://www.w3.org/1999/xlink">
<g id="graph0" class="graph" transform="scale(1 1) rotate(0) translate(4 391)">
<title>UserControlTransformation::onChange</title>
<polygon fill="white" stroke="none" points="-4,4 -4,-391 831,-391 831,4 -4,4"/>
<!-- Node43 -->
<g id="node1" class="node"><title>Node43</title>
<g id="a_node1"><a xlink:title=" ">
<polygon fill="#bfbfbf" stroke="black" points="0,-233.5 0,-263.5 131,-263.5 131,-233.5 0,-233.5"/>
<text text-anchor="start" x="8" y="-251.5" font-family="Helvetica,sans-Serif" font-size="10.00">UserControlTransformation</text>
<text text-anchor="middle" x="65.5" y="-240.5" font-family="Helvetica,sans-Serif" font-size="10.00">::onChange</text>
</a>
</g>
</g>
<!-- Node44 -->
<g id="node2" class="node"><title>Node44</title>
<g id="a_node2"><a xlink:href="class_igor_aux_1_1ia_singleton.html#a821f1d891129e6d09b992be81094540e" target="_top" xlink:title=" ">
<polygon fill="white" stroke="black" points="167,-356.5 167,-386.5 316,-386.5 316,-356.5 167,-356.5"/>
<text text-anchor="start" x="175" y="-374.5" font-family="Helvetica,sans-Serif" font-size="10.00">IgorAux::iaSingleton</text>
<text text-anchor="middle" x="241.5" y="-363.5" font-family="Helvetica,sans-Serif" font-size="10.00">&lt; iNodeFactory &gt;::getInstance</text>
</a>
</g>
</g>
<!-- Node43&#45;&gt;Node44 -->
<g id="edge1" class="edge"><title>Node43&#45;&gt;Node44</title>
<path fill="none" stroke="midnightblue" d="M78.143,-263.795C95.3369,-285.387 129.551,-324.707 167,-347.5 169.666,-349.123 172.454,-350.648 175.32,-352.082"/>
<polygon fill="midnightblue" stroke="midnightblue" points="174.132,-355.387 184.683,-356.349 177.035,-349.017 174.132,-355.387"/>
</g>
<!-- Node45 -->
<g id="node3" class="node"><title>Node45</title>
<g id="a_node3"><a xlink:href="class_igor_aux_1_1ia_matrix.html#ac3391a41520f494b8aa83d41ae89719b" target="_top" xlink:title=" ">
<polygon fill="white" stroke="black" points="193.5,-307.5 193.5,-337.5 289.5,-337.5 289.5,-307.5 193.5,-307.5"/>
<text text-anchor="start" x="201.5" y="-325.5" font-family="Helvetica,sans-Serif" font-size="10.00">IgorAux::iaMatrix::</text>
<text text-anchor="middle" x="241.5" y="-314.5" font-family="Helvetica,sans-Serif" font-size="10.00">translate</text>
</a>
</g>
</g>
<!-- Node43&#45;&gt;Node45 -->
<g id="edge2" class="edge"><title>Node43&#45;&gt;Node45</title>
<path fill="none" stroke="midnightblue" d="M94.152,-263.627C114.062,-274.177 141.751,-288.162 167,-298.5 172.412,-300.716 178.11,-302.872 183.84,-304.926"/>
<polygon fill="midnightblue" stroke="midnightblue" points="182.875,-308.296 193.47,-308.277 185.175,-301.685 182.875,-308.296"/>
</g>
<!-- Node46 -->
<g id="node4" class="node"><title>Node46</title>
<g id="a_node4"><a xlink:href="class_igor_aux_1_1ia_matrix.html#ae9eba9dbfae8fc7cc139579370386efb" target="_top" xlink:title=" ">
<polygon fill="white" stroke="black" points="193.5,-258.5 193.5,-288.5 289.5,-288.5 289.5,-258.5 193.5,-258.5"/>
<text text-anchor="start" x="201.5" y="-276.5" font-family="Helvetica,sans-Serif" font-size="10.00">IgorAux::iaMatrix::</text>
<text text-anchor="middle" x="241.5" y="-265.5" font-family="Helvetica,sans-Serif" font-size="10.00">rotate</text>
</a>
</g>
</g>
<!-- Node43&#45;&gt;Node46 -->
<g id="edge3" class="edge"><title>Node43&#45;&gt;Node46</title>
<path fill="none" stroke="midnightblue" d="M131.291,-257.809C148.334,-260.258 166.596,-262.882 183.214,-265.269"/>
<polygon fill="midnightblue" stroke="midnightblue" points="182.927,-268.764 193.323,-266.722 183.923,-261.835 182.927,-268.764"/>
</g>
<!-- Node47 -->
<g id="node5" class="node"><title>Node47</title>
<g id="a_node5"><a xlink:href="class_igor_aux_1_1ia_matrix.html#a0d1f814a5844dbda77ed03f55768b8ba" target="_top" xlink:title=" ">
<polygon fill="white" stroke="black" points="193.5,-209.5 193.5,-239.5 289.5,-239.5 289.5,-209.5 193.5,-209.5"/>
<text text-anchor="start" x="201.5" y="-227.5" font-family="Helvetica,sans-Serif" font-size="10.00">IgorAux::iaMatrix::</text>
<text text-anchor="middle" x="241.5" y="-216.5" font-family="Helvetica,sans-Serif" font-size="10.00">scale</text>
</a>
</g>
</g>
<!-- Node43&#45;&gt;Node47 -->
<g id="edge4" class="edge"><title>Node43&#45;&gt;Node47</title>
<path fill="none" stroke="midnightblue" d="M131.291,-239.563C148.334,-237.212 166.596,-234.694 183.214,-232.401"/>
<polygon fill="midnightblue" stroke="midnightblue" points="183.896,-235.841 193.323,-231.007 182.939,-228.906 183.896,-235.841"/>
</g>
<!-- Node48 -->
<g id="node6" class="node"><title>Node48</title>
<g id="a_node6"><a xlink:href="class_igor_aux_1_1ia_matrix.html#a08581dc9057929f0381ba29a464d19c5" target="_top" xlink:title=" ">
<polygon fill="white" stroke="black" points="193.5,-160.5 193.5,-190.5 289.5,-190.5 289.5,-160.5 193.5,-160.5"/>
<text text-anchor="start" x="201.5" y="-178.5" font-family="Helvetica,sans-Serif" font-size="10.00">IgorAux::iaMatrix::</text>
<text text-anchor="middle" x="241.5" y="-167.5" font-family="Helvetica,sans-Serif" font-size="10.00">shear</text>
</a>
</g>
</g>
<!-- Node43&#45;&gt;Node48 -->
<g id="edge5" class="edge"><title>Node43&#45;&gt;Node48</title>
<path fill="none" stroke="midnightblue" d="M95.991,-233.285C115.804,-223.345 142.645,-210.418 167,-200.5 172.438,-198.286 178.153,-196.101 183.895,-194"/>
<polygon fill="midnightblue" stroke="midnightblue" points="185.298,-197.215 193.536,-190.553 182.942,-190.624 185.298,-197.215"/>
</g>
<!-- Node49 -->
<g id="node7" class="node"><title>Node49</title>
<g id="a_node7"><a xlink:href="class_igor_1_1i_node_transform.html#af9faf556c676307b03065ad556015aa3" target="_top" xlink:title=" ">
<polygon fill="white" stroke="black" points="188.5,-111.5 188.5,-141.5 294.5,-141.5 294.5,-111.5 188.5,-111.5"/>
<text text-anchor="start" x="196.5" y="-129.5" font-family="Helvetica,sans-Serif" font-size="10.00">Igor::iNodeTransform</text>
<text text-anchor="middle" x="241.5" y="-118.5" font-family="Helvetica,sans-Serif" font-size="10.00">::setMatrix</text>
</a>
</g>
</g>
<!-- Node43&#45;&gt;Node49 -->
<g id="edge6" class="edge"><title>Node43&#45;&gt;Node49</title>
<path fill="none" stroke="midnightblue" d="M78.5418,-233.233C95.9579,-212.094 130.152,-173.979 167,-151.5 170.792,-149.187 174.825,-147.055 178.975,-145.096"/>
<polygon fill="midnightblue" stroke="midnightblue" points="180.427,-148.282 188.198,-141.081 177.632,-141.864 180.427,-148.282"/>
</g>
<!-- Node50 -->
<g id="node8" class="node"><title>Node50</title>
<g id="a_node8"><a xlink:href="class_igor_aux_1_1ia_matrix.html#a4239bef6ee96a682ec474e30a871ae41" target="_top" xlink:title=" ">
<polygon fill="white" stroke="black" points="377,-160.5 377,-190.5 473,-190.5 473,-160.5 377,-160.5"/>
<text text-anchor="start" x="385" y="-178.5" font-family="Helvetica,sans-Serif" font-size="10.00">IgorAux::iaMatrix::</text>
<text text-anchor="middle" x="425" y="-167.5" font-family="Helvetica,sans-Serif" font-size="10.00">setData</text>
</a>
</g>
</g>
<!-- Node49&#45;&gt;Node50 -->
<g id="edge7" class="edge"><title>Node49&#45;&gt;Node50</title>
<path fill="none" stroke="midnightblue" d="M294.511,-140.541C317.242,-146.678 343.965,-153.893 367.213,-160.169"/>
<polygon fill="midnightblue" stroke="midnightblue" points="366.375,-163.568 376.942,-162.796 368.2,-156.81 366.375,-163.568"/>
</g>
<!-- Node51 -->
<g id="node9" class="node"><title>Node51</title>
<g id="a_node9"><a xlink:href="class_igor_aux_1_1ia_matrix.html#a8f8341339caae2135c145ea1ef2e8bf3" target="_top" xlink:title=" ">
<polygon fill="white" stroke="black" points="377,-111.5 377,-141.5 473,-141.5 473,-111.5 377,-111.5"/>
<text text-anchor="start" x="385" y="-129.5" font-family="Helvetica,sans-Serif" font-size="10.00">IgorAux::iaMatrix::</text>
<text text-anchor="middle" x="425" y="-118.5" font-family="Helvetica,sans-Serif" font-size="10.00">getData</text>
</a>
</g>
</g>
<!-- Node49&#45;&gt;Node51 -->
<g id="edge8" class="edge"><title>Node49&#45;&gt;Node51</title>
<path fill="none" stroke="midnightblue" d="M294.511,-126.5C317.14,-126.5 343.726,-126.5 366.901,-126.5"/>
<polygon fill="midnightblue" stroke="midnightblue" points="366.942,-130 376.942,-126.5 366.942,-123 366.942,-130"/>
</g>
<!-- Node52 -->
<g id="node10" class="node"><title>Node52</title>
<g id="a_node10"><a xlink:href="class_igor_1_1i_node.html#a3be538d0d60b148b1eae5cd5892d279d" target="_top" xlink:title=" ">
<polygon fill="white" stroke="black" points="352,-62.5 352,-92.5 498,-92.5 498,-62.5 352,-62.5"/>
<text text-anchor="start" x="360" y="-80.5" font-family="Helvetica,sans-Serif" font-size="10.00">Igor::iNode::setTransformation</text>
<text text-anchor="middle" x="425" y="-69.5" font-family="Helvetica,sans-Serif" font-size="10.00">Dirty</text>
</a>
</g>
</g>
<!-- Node49&#45;&gt;Node52 -->
<g id="edge9" class="edge"><title>Node49&#45;&gt;Node52</title>
<path fill="none" stroke="midnightblue" d="M294.511,-112.459C314.405,-107.088 337.358,-100.891 358.362,-95.2204"/>
<polygon fill="midnightblue" stroke="midnightblue" points="359.433,-98.5567 368.175,-92.5712 357.609,-91.7986 359.433,-98.5567"/>
</g>
<!-- Node53 -->
<g id="node11" class="node"><title>Node53</title>
<g id="a_node11"><a xlink:href="class_igor_1_1i_node.html#afcf6efd30c85e8c37a4261a6f27613b8" target="_top" xlink:title=" ">
<polygon fill="white" stroke="black" points="558,-106 558,-125 656,-125 656,-106 558,-106"/>
<text text-anchor="middle" x="607" y="-113" font-family="Helvetica,sans-Serif" font-size="10.00">Igor::iNode::isChild</text>
</a>
</g>
</g>
<!-- Node52&#45;&gt;Node53 -->
<g id="edge10" class="edge"><title>Node52&#45;&gt;Node53</title>
<path fill="none" stroke="midnightblue" d="M497.141,-92.5186C514.963,-96.281 533.817,-100.261 550.737,-103.833"/>
<polygon fill="midnightblue" stroke="midnightblue" points="550.488,-107.358 560.996,-105.999 551.934,-100.509 550.488,-107.358"/>
</g>
<!-- Node54 -->
<g id="node12" class="node"><title>Node54</title>
<g id="a_node12"><a xlink:href="class_igor_1_1i_node.html#a1b3d40431eb4c1c79e5d93ef7fe68129" target="_top" xlink:title=" ">
<polygon fill="white" stroke="black" points="716,-37 716,-56 827,-56 827,-37 716,-37"/>
<text text-anchor="middle" x="771.5" y="-44" font-family="Helvetica,sans-Serif" font-size="10.00">Igor::iNode::getParent</text>
</a>
</g>
</g>
<!-- Node52&#45;&gt;Node54 -->
<g id="edge11" class="edge"><title>Node52&#45;&gt;Node54</title>
<path fill="none" stroke="midnightblue" d="M498.083,-73.209C548.982,-69.9102 618.751,-64.8463 680,-58.5 688.272,-57.6429 696.954,-56.6331 705.532,-55.5691"/>
<polygon fill="midnightblue" stroke="midnightblue" points="706.043,-59.0325 715.522,-54.3012 705.161,-52.0882 706.043,-59.0325"/>
</g>
<!-- Node55 -->
<g id="node13" class="node"><title>Node55</title>
<g id="a_node13"><a xlink:href="class_igor_1_1i_node.html#a66b6ecf7babaffce68852de186068e01" target="_top" xlink:title=" ">
<polygon fill="white" stroke="black" points="534,-0.5 534,-30.5 680,-30.5 680,-0.5 534,-0.5"/>
<text text-anchor="start" x="542" y="-18.5" font-family="Helvetica,sans-Serif" font-size="10.00">Igor::iNode::setTransformation</text>
<text text-anchor="middle" x="607" y="-7.5" font-family="Helvetica,sans-Serif" font-size="10.00">DirtyUp</text>
</a>
</g>
</g>
<!-- Node52&#45;&gt;Node55 -->
<g id="edge12" class="edge"><title>Node52&#45;&gt;Node55</title>
<path fill="none" stroke="midnightblue" d="M469.573,-62.4915C494.593,-53.8736 526.205,-42.9851 552.697,-33.8598"/>
<polygon fill="midnightblue" stroke="midnightblue" points="553.889,-37.1511 562.204,-30.5851 551.61,-30.5327 553.889,-37.1511"/>
</g>
<!-- Node55&#45;&gt;Node54 -->
<g id="edge13" class="edge"><title>Node55&#45;&gt;Node54</title>
<path fill="none" stroke="midnightblue" d="M680.221,-29.2776C690.287,-31.1978 700.54,-33.1538 710.352,-35.0256"/>
<polygon fill="midnightblue" stroke="midnightblue" points="709.912,-38.5048 720.391,-36.9407 711.224,-31.6288 709.912,-38.5048"/>
</g>
<!-- Node55&#45;&gt;Node55 -->
<g id="edge14" class="edge"><title>Node55&#45;&gt;Node55</title>
<path fill="none" stroke="midnightblue" d="M578.42,-30.659C571.528,-40.0566 581.055,-49 607,-49 622.81,-49 632.524,-45.679 636.141,-40.9579"/>
<polygon fill="midnightblue" stroke="midnightblue" points="639.619,-40.454 635.58,-30.659 632.629,-40.8344 639.619,-40.454"/>
</g>
</g>
</svg>
