<?xml version="1.0" encoding="UTF-8" standalone="no"?>
<!DOCTYPE svg PUBLIC "-//W3C//DTD SVG 1.1//EN"
 "http://www.w3.org/Graphics/SVG/1.1/DTD/svg11.dtd">
<!-- Generated by graphviz version 2.38.0 (20140413.2041)
 -->
<!-- Title: Igor::iOctree::split Pages: 1 -->
<svg width="263pt" height="66pt"
 viewBox="0.00 0.00 263.00 66.00" xmlns="http://www.w3.org/2000/svg" xmlns:xlink="http://www.w3.org/1999/xlink">
<g id="graph0" class="graph" transform="scale(1 1) rotate(0) translate(4 62)">
<title>Igor::iOctree::split</title>
<polygon fill="white" stroke="none" points="-4,4 -4,-62 259,-62 259,4 -4,4"/>
<!-- Node94 -->
<g id="node1" class="node"><title>Node94</title>
<g id="a_node1"><a xlink:title=" ">
<polygon fill="#bfbfbf" stroke="black" points="0,-0.5 0,-19.5 94,-19.5 94,-0.5 0,-0.5"/>
<text text-anchor="middle" x="47" y="-7.5" font-family="Helvetica,sans-Serif" font-size="10.00">Igor::iOctree::split</text>
</a>
</g>
</g>
<!-- Node95 -->
<g id="node2" class="node"><title>Node95</title>
<g id="a_node2"><a xlink:href="class_igor_1_1i_octree.html#a320a17aa9d473d960cc32579515cb073" target="_top" xlink:title=" ">
<polygon fill="white" stroke="black" points="130,-38.5 130,-57.5 255,-57.5 255,-38.5 130,-38.5"/>
<text text-anchor="middle" x="192.5" y="-45.5" font-family="Helvetica,sans-Serif" font-size="10.00">Igor::iOctree::createNode</text>
</a>
</g>
</g>
<!-- Node94&#45;&gt;Node95 -->
<g id="edge1" class="edge"><title>Node94&#45;&gt;Node95</title>
<path fill="none" stroke="midnightblue" d="M84.2111,-19.589C102.821,-24.5169 125.697,-30.5749 145.539,-35.8291"/>
<polygon fill="midnightblue" stroke="midnightblue" points="144.738,-39.2375 155.3,-38.4141 146.53,-32.4708 144.738,-39.2375"/>
</g>
<!-- Node96 -->
<g id="node3" class="node"><title>Node96</title>
<g id="a_node3"><a xlink:href="class_igor_1_1i_octree.html#a4f0e2a3cb4c930a1f333c5abc10b88da" target="_top" xlink:title=" ">
<polygon fill="white" stroke="black" points="139,-0.5 139,-19.5 246,-19.5 246,-0.5 139,-0.5"/>
<text text-anchor="middle" x="192.5" y="-7.5" font-family="Helvetica,sans-Serif" font-size="10.00">Igor::iOctree::trySplit</text>
</a>
</g>
</g>
<!-- Node94&#45;&gt;Node96 -->
<g id="edge2" class="edge"><title>Node94&#45;&gt;Node96</title>
<path fill="none" stroke="midnightblue" d="M94.1942,-3.64592C105.221,-3.29008 117.173,-3.1741 128.803,-3.29799"/>
<polygon fill="midnightblue" stroke="midnightblue" points="128.852,-6.79921 138.909,-3.46861 128.97,0.199794 128.852,-6.79921"/>
</g>
<!-- Node96&#45;&gt;Node94 -->
<g id="edge3" class="edge"><title>Node96&#45;&gt;Node94</title>
<path fill="none" stroke="midnightblue" d="M138.909,-16.5314C127.69,-16.7931 115.796,-16.8198 104.439,-16.6115"/>
<polygon fill="midnightblue" stroke="midnightblue" points="104.279,-13.1065 94.1942,-16.3541 104.103,-20.1043 104.279,-13.1065"/>
</g>
</g>
</svg>
