<?xml version="1.0" encoding="UTF-8" standalone="no"?>
<!DOCTYPE svg PUBLIC "-//W3C//DTD SVG 1.1//EN"
 "http://www.w3.org/Graphics/SVG/1.1/DTD/svg11.dtd">
<!-- Generated by graphviz version 2.38.0 (20140413.2041)
 -->
<!-- Title: IgorAux::iaClock::initClock Pages: 1 -->
<svg width="439pt" height="28pt"
 viewBox="0.00 0.00 439.00 28.00" xmlns="http://www.w3.org/2000/svg" xmlns:xlink="http://www.w3.org/1999/xlink">
<g id="graph0" class="graph" transform="scale(1 1) rotate(0) translate(4 24)">
<title>IgorAux::iaClock::initClock</title>
<polygon fill="white" stroke="none" points="-4,4 -4,-24 435,-24 435,4 -4,4"/>
<!-- Node1 -->
<g id="node1" class="node"><title>Node1</title>
<polygon fill="#bfbfbf" stroke="black" points="0,-0.5 0,-19.5 131,-19.5 131,-0.5 0,-0.5"/>
<text text-anchor="middle" x="65.5" y="-7.5" font-family="Helvetica,sans-Serif" font-size="10.00">IgorAux::iaClock::initClock</text>
</g>
<!-- Node2 -->
<g id="node2" class="node"><title>Node2</title>
<g id="a_node2"><a xlink:href="namespace_igor_aux.html#aba920763eec5d3b65199d4d73bfdbef7" target="_top" xlink:title="IgorAux::startup">
<polygon fill="white" stroke="black" points="167,-0.5 167,-19.5 253,-19.5 253,-0.5 167,-0.5"/>
<text text-anchor="middle" x="210" y="-7.5" font-family="Helvetica,sans-Serif" font-size="10.00">IgorAux::startup</text>
</a>
</g>
</g>
<!-- Node1&#45;&gt;Node2 -->
<g id="edge1" class="edge"><title>Node1&#45;&gt;Node2</title>
<path fill="none" stroke="midnightblue" d="M141.299,-10C150.004,-10 158.638,-10 166.679,-10"/>
<polygon fill="midnightblue" stroke="midnightblue" points="141.079,-6.5001 131.079,-10 141.079,-13.5001 141.079,-6.5001"/>
</g>
<!-- Node3 -->
<g id="node3" class="node"><title>Node3</title>
<g id="a_node3"><a xlink:href="namespace_igor.html#a016335a59650872e308a07ef7d4143d0" target="_top" xlink:title="Igor::startup">
<polygon fill="white" stroke="black" points="289,-0.5 289,-19.5 357,-19.5 357,-0.5 289,-0.5"/>
<text text-anchor="middle" x="323" y="-7.5" font-family="Helvetica,sans-Serif" font-size="10.00">Igor::startup</text>
</a>
</g>
</g>
<!-- Node2&#45;&gt;Node3 -->
<g id="edge2" class="edge"><title>Node2&#45;&gt;Node3</title>
<path fill="none" stroke="midnightblue" d="M263.355,-10C272.02,-10 280.788,-10 288.809,-10"/>
<polygon fill="midnightblue" stroke="midnightblue" points="263.281,-6.5001 253.281,-10 263.281,-13.5001 263.281,-6.5001"/>
</g>
<!-- Node4 -->
<g id="node4" class="node"><title>Node4</title>
<g id="a_node4"><a xlink:href="_model_viewer_2src_2main_8cpp.html#a0ddf1224851353fc92bfbff6f499fa97" target="_top" xlink:title="main">
<polygon fill="white" stroke="black" points="393,-0.5 393,-19.5 431,-19.5 431,-0.5 393,-0.5"/>
<text text-anchor="middle" x="412" y="-7.5" font-family="Helvetica,sans-Serif" font-size="10.00">main</text>
</a>
</g>
</g>
<!-- Node3&#45;&gt;Node4 -->
<g id="edge3" class="edge"><title>Node3&#45;&gt;Node4</title>
<path fill="none" stroke="midnightblue" d="M367.458,-10C376.452,-10 385.447,-10 392.908,-10"/>
<polygon fill="midnightblue" stroke="midnightblue" points="367.388,-6.5001 357.388,-10 367.388,-13.5001 367.388,-6.5001"/>
</g>
</g>
</svg>
