<?xml version="1.0" encoding="UTF-8" standalone="no"?>
<!DOCTYPE svg PUBLIC "-//W3C//DTD SVG 1.1//EN"
 "http://www.w3.org/Graphics/SVG/1.1/DTD/svg11.dtd">
<!-- Generated by graphviz version 2.38.0 (20140413.2041)
 -->
<!-- Title: Igor::iMeshBuilder::setJoinVertexes Pages: 1 -->
<svg width="303pt" height="78pt"
 viewBox="0.00 0.00 303.00 77.50" xmlns="http://www.w3.org/2000/svg" xmlns:xlink="http://www.w3.org/1999/xlink">
<g id="graph0" class="graph" transform="scale(1 1) rotate(0) translate(4 73.5)">
<title>Igor::iMeshBuilder::setJoinVertexes</title>
<polygon fill="white" stroke="none" points="-4,4 -4,-73.5 299,-73.5 299,4 -4,4"/>
<!-- Node231 -->
<g id="node1" class="node"><title>Node231</title>
<g id="a_node1"><a xlink:title=" ">
<polygon fill="#bfbfbf" stroke="black" points="200,-17 200,-47 295,-47 295,-17 200,-17"/>
<text text-anchor="start" x="208" y="-35" font-family="Helvetica,sans-Serif" font-size="10.00">Igor::iMeshBuilder</text>
<text text-anchor="middle" x="247.5" y="-24" font-family="Helvetica,sans-Serif" font-size="10.00">::setJoinVertexes</text>
</a>
</g>
</g>
<!-- Node232 -->
<g id="node2" class="node"><title>Node232</title>
<g id="a_node2"><a xlink:href="class_igor_1_1i_contouring_cubes.html#a90b6587f68cbe78fa10c13a2e9cb068a" target="_top" xlink:title=" ">
<polygon fill="white" stroke="black" points="24.5,-39 24.5,-69 139.5,-69 139.5,-39 24.5,-39"/>
<text text-anchor="start" x="32.5" y="-57" font-family="Helvetica,sans-Serif" font-size="10.00">Igor::iContouringCubes</text>
<text text-anchor="middle" x="82" y="-46" font-family="Helvetica,sans-Serif" font-size="10.00">::iContouringCubes</text>
</a>
</g>
</g>
<!-- Node231&#45;&gt;Node232 -->
<g id="edge1" class="edge"><title>Node231&#45;&gt;Node232</title>
<path fill="none" stroke="midnightblue" d="M189.315,-39.6946C173.241,-41.8574 155.771,-44.2082 139.724,-46.3675"/>
<polygon fill="midnightblue" stroke="midnightblue" points="190.204,-43.1067 199.647,-38.3043 189.27,-36.1692 190.204,-43.1067"/>
</g>
<!-- Node233 -->
<g id="node3" class="node"><title>Node233</title>
<g id="a_node3"><a xlink:href="class_manipulator.html#af6638ebbe40c4bf04d29030660227e2d" target="_top" xlink:title=" ">
<polygon fill="white" stroke="black" points="0,-0.5 0,-19.5 164,-19.5 164,-0.5 0,-0.5"/>
<text text-anchor="middle" x="82" y="-7.5" font-family="Helvetica,sans-Serif" font-size="10.00">Manipulator::createTranslateMesh</text>
</a>
</g>
</g>
<!-- Node231&#45;&gt;Node233 -->
<g id="edge2" class="edge"><title>Node231&#45;&gt;Node233</title>
<path fill="none" stroke="midnightblue" d="M189.654,-24.351C178.034,-22.7874 165.671,-21.124 153.636,-19.5046"/>
<polygon fill="midnightblue" stroke="midnightblue" points="189.27,-27.8308 199.647,-25.6957 190.204,-20.8933 189.27,-27.8308"/>
</g>
</g>
</svg>
