<?xml version="1.0" encoding="UTF-8" standalone="no"?>
<!DOCTYPE svg PUBLIC "-//W3C//DTD SVG 1.1//EN"
 "http://www.w3.org/Graphics/SVG/1.1/DTD/svg11.dtd">
<!-- Generated by graphviz version 2.38.0 (20140413.2041)
 -->
<!-- Title: Igor::iWidget::setWidth Pages: 1 -->
<svg width="1054pt" height="624pt"
 viewBox="0.00 0.00 1054.00 624.00" xmlns="http://www.w3.org/2000/svg" xmlns:xlink="http://www.w3.org/1999/xlink">
<g id="graph0" class="graph" transform="scale(1 1) rotate(0) translate(4 620)">
<title>Igor::iWidget::setWidth</title>
<polygon fill="white" stroke="none" points="-4,4 -4,-620 1050,-620 1050,4 -4,4"/>
<!-- Node327 -->
<g id="node1" class="node"><title>Node327</title>
<g id="a_node1"><a xlink:title=" ">
<polygon fill="#bfbfbf" stroke="black" points="930,-312 930,-331 1046,-331 1046,-312 930,-312"/>
<text text-anchor="middle" x="988" y="-319" font-family="Helvetica,sans-Serif" font-size="10.00">Igor::iWidget::setWidth</text>
</a>
</g>
</g>
<!-- Node328 -->
<g id="node2" class="node"><title>Node328</title>
<g id="a_node2"><a xlink:href="class_igor_1_1i_dialog_color_gradient.html#a1c09eeb174db894a5e755b8ef13e914f" target="_top" xlink:title=" ">
<polygon fill="white" stroke="black" points="755.5,-585.5 755.5,-615.5 882.5,-615.5 882.5,-585.5 755.5,-585.5"/>
<text text-anchor="start" x="763.5" y="-603.5" font-family="Helvetica,sans-Serif" font-size="10.00">Igor::iDialogColorGradient</text>
<text text-anchor="middle" x="819" y="-592.5" font-family="Helvetica,sans-Serif" font-size="10.00">::initGUI</text>
</a>
</g>
</g>
<!-- Node327&#45;&gt;Node328 -->
<g id="edge1" class="edge"><title>Node327&#45;&gt;Node328</title>
<path fill="none" stroke="midnightblue" d="M985.531,-341.379C980.948,-388.921 962.777,-510.162 894,-576.5 890.403,-579.969 886.3,-582.937 881.913,-585.476"/>
<polygon fill="midnightblue" stroke="midnightblue" points="989.037,-341.457 986.408,-331.194 982.062,-340.857 989.037,-341.457"/>
</g>
<!-- Node329 -->
<g id="node3" class="node"><title>Node329</title>
<g id="a_node3"><a xlink:href="class_igor_1_1i_dialog_graph.html#a5bab24dca6ef57e9aee12a304b0b5c69" target="_top" xlink:title=" ">
<polygon fill="white" stroke="black" points="772,-536.5 772,-566.5 866,-566.5 866,-536.5 772,-536.5"/>
<text text-anchor="start" x="780" y="-554.5" font-family="Helvetica,sans-Serif" font-size="10.00">Igor::iDialogGraph</text>
<text text-anchor="middle" x="819" y="-543.5" font-family="Helvetica,sans-Serif" font-size="10.00">::initGUI</text>
</a>
</g>
</g>
<!-- Node327&#45;&gt;Node329 -->
<g id="edge2" class="edge"><title>Node327&#45;&gt;Node329</title>
<path fill="none" stroke="midnightblue" d="M982.918,-341.273C973.795,-380.758 948.159,-469.989 894,-521.5 886.165,-528.952 876.235,-534.648 866.213,-538.966"/>
<polygon fill="midnightblue" stroke="midnightblue" points="986.377,-341.842 985.106,-331.323 979.54,-340.338 986.377,-341.842"/>
</g>
<!-- Node330 -->
<g id="node4" class="node"><title>Node330</title>
<g id="a_node4"><a xlink:href="class_igor_1_1i_user_control_color_chooser.html#a350674922c28c48ed8d4f3bf45a39fdc" target="_top" xlink:title=" ">
<polygon fill="white" stroke="black" points="372,-423.5 372,-453.5 522,-453.5 522,-423.5 372,-423.5"/>
<text text-anchor="start" x="380" y="-441.5" font-family="Helvetica,sans-Serif" font-size="10.00">Igor::iUserControlColorChooser</text>
<text text-anchor="middle" x="447" y="-430.5" font-family="Helvetica,sans-Serif" font-size="10.00">::initGUI</text>
</a>
</g>
</g>
<!-- Node327&#45;&gt;Node330 -->
<g id="edge3" class="edge"><title>Node327&#45;&gt;Node330</title>
<path fill="none" stroke="midnightblue" d="M981.97,-340.989C971.88,-375.635 945.583,-447.238 894,-478.5 766.234,-555.934 704.013,-520.128 558,-488.5 527.247,-481.839 494.767,-465.817 473.142,-453.692"/>
<polygon fill="midnightblue" stroke="midnightblue" points="985.403,-341.707 984.689,-331.136 978.655,-339.845 985.403,-341.707"/>
</g>
<!-- Node333 -->
<g id="node7" class="node"><title>Node333</title>
<g id="a_node7"><a xlink:href="class_igor_1_1i_user_control_color_chooser.html#ac82a382282c1b5daf90091ec6494d42c" target="_top" xlink:title=" ">
<polygon fill="white" stroke="black" points="558,-448.5 558,-478.5 708,-478.5 708,-448.5 558,-448.5"/>
<text text-anchor="start" x="566" y="-466.5" font-family="Helvetica,sans-Serif" font-size="10.00">Igor::iUserControlColorChooser</text>
<text text-anchor="middle" x="633" y="-455.5" font-family="Helvetica,sans-Serif" font-size="10.00">::createNumberChooser</text>
</a>
</g>
</g>
<!-- Node327&#45;&gt;Node333 -->
<g id="edge6" class="edge"><title>Node327&#45;&gt;Node333</title>
<path fill="none" stroke="midnightblue" d="M979.551,-340.87C966.983,-370.531 938.5,-426.301 894,-450.5 837.222,-481.375 762.749,-481.813 708.066,-476.184"/>
<polygon fill="midnightblue" stroke="midnightblue" points="982.945,-341.814 983.461,-331.231 976.458,-339.182 982.945,-341.814"/>
</g>
<!-- Node334 -->
<g id="node8" class="node"><title>Node334</title>
<g id="a_node8"><a xlink:href="class_igor_1_1i_user_control_color_chooser.html#a6d257a8fff6d79650db8af78a37c756a" target="_top" xlink:title=" ">
<polygon fill="white" stroke="black" points="744,-410.5 744,-440.5 894,-440.5 894,-410.5 744,-410.5"/>
<text text-anchor="start" x="752" y="-428.5" font-family="Helvetica,sans-Serif" font-size="10.00">Igor::iUserControlColorChooser</text>
<text text-anchor="middle" x="819" y="-417.5" font-family="Helvetica,sans-Serif" font-size="10.00">::createSlider</text>
</a>
</g>
</g>
<!-- Node327&#45;&gt;Node334 -->
<g id="edge8" class="edge"><title>Node327&#45;&gt;Node334</title>
<path fill="none" stroke="midnightblue" d="M969.454,-338.023C951.549,-354.241 922.429,-378.895 894,-395.5 884.424,-401.093 873.606,-406.121 863.258,-410.389"/>
<polygon fill="midnightblue" stroke="midnightblue" points="971.856,-340.569 976.848,-331.224 967.118,-335.416 971.856,-340.569"/>
</g>
<!-- Node335 -->
<g id="node9" class="node"><title>Node335</title>
<g id="a_node9"><a xlink:href="class_igor_1_1i_user_control_color_chooser.html#a32f721a060e9d1e08479db2f679a3a67" target="_top" xlink:title=" ">
<polygon fill="white" stroke="black" points="558,-399.5 558,-429.5 708,-429.5 708,-399.5 558,-399.5"/>
<text text-anchor="start" x="566" y="-417.5" font-family="Helvetica,sans-Serif" font-size="10.00">Igor::iUserControlColorChooser</text>
<text text-anchor="middle" x="633" y="-406.5" font-family="Helvetica,sans-Serif" font-size="10.00">::initExpanded</text>
</a>
</g>
</g>
<!-- Node327&#45;&gt;Node335 -->
<g id="edge11" class="edge"><title>Node327&#45;&gt;Node335</title>
<path fill="none" stroke="midnightblue" d="M947.93,-334.264C931.366,-339.524 911.809,-345.536 894,-350.5 828.286,-368.815 752.474,-387.163 699.736,-399.488"/>
<polygon fill="midnightblue" stroke="midnightblue" points="949.357,-337.482 957.815,-331.102 947.224,-330.815 949.357,-337.482"/>
</g>
<!-- Node336 -->
<g id="node10" class="node"><title>Node336</title>
<g id="a_node10"><a xlink:href="class_igor_1_1i_user_control_color_chooser.html#a1e744b2e83061214456c18529e2a7d1f" target="_top" xlink:title=" ">
<polygon fill="white" stroke="black" points="558,-339.5 558,-369.5 708,-369.5 708,-339.5 558,-339.5"/>
<text text-anchor="start" x="566" y="-357.5" font-family="Helvetica,sans-Serif" font-size="10.00">Igor::iUserControlColorChooser</text>
<text text-anchor="middle" x="633" y="-346.5" font-family="Helvetica,sans-Serif" font-size="10.00">::initCollapsed</text>
</a>
</g>
</g>
<!-- Node327&#45;&gt;Node336 -->
<g id="edge12" class="edge"><title>Node327&#45;&gt;Node336</title>
<path fill="none" stroke="midnightblue" d="M919.696,-327.792C859.262,-333.442 770.693,-341.721 708.223,-347.561"/>
<polygon fill="midnightblue" stroke="midnightblue" points="920.261,-331.254 929.892,-326.839 919.61,-324.285 920.261,-331.254"/>
</g>
<!-- Node337 -->
<g id="node11" class="node"><title>Node337</title>
<g id="a_node11"><a xlink:href="class_user_control_emitter.html#abf148c688ae8b1068607f516cdadc289" target="_top" xlink:title=" ">
<polygon fill="white" stroke="black" points="769.5,-284.5 769.5,-314.5 868.5,-314.5 868.5,-284.5 769.5,-284.5"/>
<text text-anchor="start" x="777.5" y="-302.5" font-family="Helvetica,sans-Serif" font-size="10.00">UserControlEmitter</text>
<text text-anchor="middle" x="819" y="-291.5" font-family="Helvetica,sans-Serif" font-size="10.00">::initGUI</text>
</a>
</g>
</g>
<!-- Node327&#45;&gt;Node337 -->
<g id="edge14" class="edge"><title>Node327&#45;&gt;Node337</title>
<path fill="none" stroke="midnightblue" d="M920.024,-312.677C902.859,-310.416 884.723,-308.026 868.678,-305.913"/>
<polygon fill="midnightblue" stroke="midnightblue" points="919.624,-316.154 929.995,-313.99 920.538,-309.214 919.624,-316.154"/>
</g>
<!-- Node338 -->
<g id="node12" class="node"><title>Node338</title>
<g id="a_node12"><a xlink:href="class_user_control_graph_view.html#afb737ca9c452b2284871b693addd2e33" target="_top" xlink:title=" ">
<polygon fill="white" stroke="black" points="761.5,-235.5 761.5,-265.5 876.5,-265.5 876.5,-235.5 761.5,-235.5"/>
<text text-anchor="start" x="769.5" y="-253.5" font-family="Helvetica,sans-Serif" font-size="10.00">UserControlGraphView</text>
<text text-anchor="middle" x="819" y="-242.5" font-family="Helvetica,sans-Serif" font-size="10.00">::initGUI</text>
</a>
</g>
</g>
<!-- Node327&#45;&gt;Node338 -->
<g id="edge15" class="edge"><title>Node327&#45;&gt;Node338</title>
<path fill="none" stroke="midnightblue" d="M960.558,-307.241C942.18,-297.625 916.959,-285.006 894,-275.5 885.606,-272.024 876.536,-268.655 867.721,-265.576"/>
<polygon fill="midnightblue" stroke="midnightblue" points="959.02,-310.387 969.497,-311.964 962.29,-304.198 959.02,-310.387"/>
</g>
<!-- Node339 -->
<g id="node13" class="node"><title>Node339</title>
<g id="a_node13"><a xlink:href="class_user_control_graph_view.html#ab922991d073ecac1a92ea3e040b8f74d" target="_top" xlink:title=" ">
<polygon fill="white" stroke="black" points="761.5,-186.5 761.5,-216.5 876.5,-216.5 876.5,-186.5 761.5,-186.5"/>
<text text-anchor="start" x="769.5" y="-204.5" font-family="Helvetica,sans-Serif" font-size="10.00">UserControlGraphView</text>
<text text-anchor="middle" x="819" y="-193.5" font-family="Helvetica,sans-Serif" font-size="10.00">::preOrderVisit</text>
</a>
</g>
</g>
<!-- Node327&#45;&gt;Node339 -->
<g id="edge16" class="edge"><title>Node327&#45;&gt;Node339</title>
<path fill="none" stroke="midnightblue" d="M973.995,-303.84C957.555,-282.675 927.347,-247.449 894,-226.5 887.914,-222.677 881.177,-219.365 874.318,-216.517"/>
<polygon fill="midnightblue" stroke="midnightblue" points="971.332,-306.12 980.167,-311.967 976.906,-301.886 971.332,-306.12"/>
</g>
<!-- Node340 -->
<g id="node14" class="node"><title>Node340</title>
<g id="a_node14"><a xlink:href="class_user_control_material_view.html#af00d3b18c83b4335ffa14bd0b1324dbc" target="_top" xlink:title=" ">
<polygon fill="white" stroke="black" points="757.5,-137.5 757.5,-167.5 880.5,-167.5 880.5,-137.5 757.5,-137.5"/>
<text text-anchor="start" x="765.5" y="-155.5" font-family="Helvetica,sans-Serif" font-size="10.00">UserControlMaterialView</text>
<text text-anchor="middle" x="819" y="-144.5" font-family="Helvetica,sans-Serif" font-size="10.00">::initGUI</text>
</a>
</g>
</g>
<!-- Node327&#45;&gt;Node340 -->
<g id="edge17" class="edge"><title>Node327&#45;&gt;Node340</title>
<path fill="none" stroke="midnightblue" d="M979.567,-302.304C966.717,-271.573 937.481,-211.356 894,-177.5 889.078,-173.668 883.536,-170.405 877.755,-167.632"/>
<polygon fill="midnightblue" stroke="midnightblue" points="976.434,-303.892 983.425,-311.852 982.924,-301.269 976.434,-303.892"/>
</g>
<!-- Node341 -->
<g id="node15" class="node"><title>Node341</title>
<g id="a_node15"><a xlink:href="class_user_control_mesh.html#a792507fb628b4b4ead5787f60ec6e2e2" target="_top" xlink:title=" ">
<polygon fill="white" stroke="black" points="755.5,-99 755.5,-118 882.5,-118 882.5,-99 755.5,-99"/>
<text text-anchor="middle" x="819" y="-106" font-family="Helvetica,sans-Serif" font-size="10.00">UserControlMesh::initGUI</text>
</a>
</g>
</g>
<!-- Node327&#45;&gt;Node341 -->
<g id="edge18" class="edge"><title>Node327&#45;&gt;Node341</title>
<path fill="none" stroke="midnightblue" d="M983.206,-301.854C974.603,-262.732 949.86,-174.873 894,-128.5 888.778,-124.165 882.699,-120.763 876.313,-118.095"/>
<polygon fill="midnightblue" stroke="midnightblue" points="979.796,-302.646 985.257,-311.725 986.65,-301.222 979.796,-302.646"/>
</g>
<!-- Node342 -->
<g id="node16" class="node"><title>Node342</title>
<g id="a_node16"><a xlink:href="class_user_control_particle_system.html#a40bcd13d702c6d38e59a6509f0c690ff" target="_top" xlink:title=" ">
<polygon fill="white" stroke="black" points="752,-49.5 752,-79.5 886,-79.5 886,-49.5 752,-49.5"/>
<text text-anchor="start" x="760" y="-67.5" font-family="Helvetica,sans-Serif" font-size="10.00">UserControlParticleSystem</text>
<text text-anchor="middle" x="819" y="-56.5" font-family="Helvetica,sans-Serif" font-size="10.00">::initGUI</text>
</a>
</g>
</g>
<!-- Node327&#45;&gt;Node342 -->
<g id="edge19" class="edge"><title>Node327&#45;&gt;Node342</title>
<path fill="none" stroke="midnightblue" d="M984.698,-301.975C978.46,-257.782 957.216,-149.305 894,-89.5 889.961,-85.6791 885.318,-82.4408 880.367,-79.6966"/>
<polygon fill="midnightblue" stroke="midnightblue" points="981.239,-302.516 986.003,-311.979 988.18,-301.611 981.239,-302.516"/>
</g>
<!-- Node343 -->
<g id="node17" class="node"><title>Node343</title>
<g id="a_node17"><a xlink:href="class_user_control_transformation.html#a78f585dbaf9da6958bacb936feefcb48" target="_top" xlink:title=" ">
<polygon fill="white" stroke="black" points="753.5,-0.5 753.5,-30.5 884.5,-30.5 884.5,-0.5 753.5,-0.5"/>
<text text-anchor="start" x="761.5" y="-18.5" font-family="Helvetica,sans-Serif" font-size="10.00">UserControlTransformation</text>
<text text-anchor="middle" x="819" y="-7.5" font-family="Helvetica,sans-Serif" font-size="10.00">::createTextEdit</text>
</a>
</g>
</g>
<!-- Node327&#45;&gt;Node343 -->
<g id="edge20" class="edge"><title>Node327&#45;&gt;Node343</title>
<path fill="none" stroke="midnightblue" d="M986.261,-301.749C983.295,-251.113 968.437,-115.399 894,-40.5 890.176,-36.6526 885.741,-33.3972 880.978,-30.6427"/>
<polygon fill="midnightblue" stroke="midnightblue" points="982.776,-302.147 986.76,-311.964 989.768,-301.805 982.776,-302.147"/>
</g>
<!-- Node331 -->
<g id="node5" class="node"><title>Node331</title>
<g id="a_node5"><a xlink:href="class_igor_1_1i_user_control_color_chooser.html#a3e12c44e1c409cc8f785c67eda400a85" target="_top" xlink:title=" ">
<polygon fill="white" stroke="black" points="186,-423.5 186,-453.5 336,-453.5 336,-423.5 186,-423.5"/>
<text text-anchor="start" x="194" y="-441.5" font-family="Helvetica,sans-Serif" font-size="10.00">Igor::iUserControlColorChooser</text>
<text text-anchor="middle" x="261" y="-430.5" font-family="Helvetica,sans-Serif" font-size="10.00">::iUserControlColorChooser</text>
</a>
</g>
</g>
<!-- Node330&#45;&gt;Node331 -->
<g id="edge4" class="edge"><title>Node330&#45;&gt;Node331</title>
<path fill="none" stroke="midnightblue" d="M361.934,-438.5C353.346,-438.5 344.664,-438.5 336.192,-438.5"/>
<polygon fill="midnightblue" stroke="midnightblue" points="361.956,-442 371.956,-438.5 361.955,-435 361.956,-442"/>
</g>
<!-- Node332 -->
<g id="node6" class="node"><title>Node332</title>
<g id="a_node6"><a xlink:href="class_igor_1_1i_user_control_color_chooser.html#af82f3e4ae1b705adacffcdd546439e88" target="_top" xlink:title=" ">
<polygon fill="white" stroke="black" points="0,-423.5 0,-453.5 150,-453.5 150,-423.5 0,-423.5"/>
<text text-anchor="start" x="8" y="-441.5" font-family="Helvetica,sans-Serif" font-size="10.00">Igor::iUserControlColorChooser</text>
<text text-anchor="middle" x="75" y="-430.5" font-family="Helvetica,sans-Serif" font-size="10.00">::createInstance</text>
</a>
</g>
</g>
<!-- Node331&#45;&gt;Node332 -->
<g id="edge5" class="edge"><title>Node331&#45;&gt;Node332</title>
<path fill="none" stroke="midnightblue" d="M175.934,-438.5C167.346,-438.5 158.664,-438.5 150.192,-438.5"/>
<polygon fill="midnightblue" stroke="midnightblue" points="175.956,-442 185.956,-438.5 175.955,-435 175.956,-442"/>
</g>
<!-- Node333&#45;&gt;Node330 -->
<g id="edge7" class="edge"><title>Node333&#45;&gt;Node330</title>
<path fill="none" stroke="midnightblue" d="M547.934,-452.078C539.346,-450.911 530.664,-449.732 522.192,-448.581"/>
<polygon fill="midnightblue" stroke="midnightblue" points="547.575,-455.561 557.956,-453.44 548.518,-448.625 547.575,-455.561"/>
</g>
<!-- Node334&#45;&gt;Node335 -->
<g id="edge9" class="edge"><title>Node334&#45;&gt;Node335</title>
<path fill="none" stroke="midnightblue" d="M733.934,-420.474C725.346,-419.961 716.664,-419.442 708.192,-418.935"/>
<polygon fill="midnightblue" stroke="midnightblue" points="733.764,-423.97 743.956,-421.073 734.182,-416.983 733.764,-423.97"/>
</g>
<!-- Node335&#45;&gt;Node330 -->
<g id="edge10" class="edge"><title>Node335&#45;&gt;Node330</title>
<path fill="none" stroke="midnightblue" d="M547.934,-425.465C539.346,-426.585 530.664,-427.718 522.192,-428.823"/>
<polygon fill="midnightblue" stroke="midnightblue" points="548.492,-428.922 557.956,-424.158 547.587,-421.981 548.492,-428.922"/>
</g>
<!-- Node336&#45;&gt;Node330 -->
<g id="edge13" class="edge"><title>Node336&#45;&gt;Node330</title>
<path fill="none" stroke="midnightblue" d="M589.695,-373.813C556.626,-388.91 511.317,-409.594 480.92,-423.471"/>
<polygon fill="midnightblue" stroke="midnightblue" points="591.461,-376.854 599.104,-369.518 588.554,-370.487 591.461,-376.854"/>
</g>
</g>
</svg>
