<?xml version="1.0" encoding="UTF-8" standalone="no"?>
<!DOCTYPE svg PUBLIC "-//W3C//DTD SVG 1.1//EN"
 "http://www.w3.org/Graphics/SVG/1.1/DTD/svg11.dtd">
<!-- Generated by graphviz version 2.38.0 (20140413.2041)
 -->
<!-- Title: Igor::iRectangle::getWidth Pages: 1 -->
<svg width="580pt" height="165pt"
 viewBox="0.00 0.00 580.00 164.50" xmlns="http://www.w3.org/2000/svg" xmlns:xlink="http://www.w3.org/1999/xlink">
<g id="graph0" class="graph" transform="scale(1 1) rotate(0) translate(4 160.5)">
<title>Igor::iRectangle::getWidth</title>
<polygon fill="white" stroke="none" points="-4,4 -4,-160.5 576,-160.5 576,4 -4,4"/>
<!-- Node15 -->
<g id="node1" class="node"><title>Node15</title>
<g id="a_node1"><a xlink:title=" ">
<polygon fill="#bfbfbf" stroke="black" points="443,-77 443,-96 572,-96 572,-77 443,-77"/>
<text text-anchor="middle" x="507.5" y="-84" font-family="Helvetica,sans-Serif" font-size="10.00">Igor::iRectangle::getWidth</text>
</a>
</g>
</g>
<!-- Node16 -->
<g id="node2" class="node"><title>Node16</title>
<g id="a_node2"><a xlink:href="class_igor_1_1i_renderer.html#a4321ab9584c1e87a59248daf439d396a" target="_top" xlink:title=" ">
<polygon fill="white" stroke="black" points="286,-137 286,-156 401,-156 401,-137 286,-137"/>
<text text-anchor="middle" x="343.5" y="-144" font-family="Helvetica,sans-Serif" font-size="10.00">Igor::iRenderer::project</text>
</a>
</g>
</g>
<!-- Node15&#45;&gt;Node16 -->
<g id="edge1" class="edge"><title>Node15&#45;&gt;Node16</title>
<path fill="none" stroke="midnightblue" d="M475.693,-100.088C456.187,-108.468 430.331,-119.168 407,-127.5 397.708,-130.818 387.513,-134.075 378.103,-136.93"/>
<polygon fill="midnightblue" stroke="midnightblue" points="477.207,-103.247 484.993,-96.062 474.426,-96.8229 477.207,-103.247"/>
</g>
<!-- Node17 -->
<g id="node3" class="node"><title>Node17</title>
<g id="a_node3"><a xlink:href="class_igor_1_1i_renderer.html#aa118709cc370ba9d3b824cfcfaa8d739" target="_top" xlink:title=" ">
<polygon fill="white" stroke="black" points="280,-99 280,-118 407,-118 407,-99 280,-99"/>
<text text-anchor="middle" x="343.5" y="-106" font-family="Helvetica,sans-Serif" font-size="10.00">Igor::iRenderer::unProject</text>
</a>
</g>
</g>
<!-- Node15&#45;&gt;Node17 -->
<g id="edge2" class="edge"><title>Node15&#45;&gt;Node17</title>
<path fill="none" stroke="midnightblue" d="M432.892,-96.4962C424.269,-97.6671 415.534,-98.8534 407.082,-100.001"/>
<polygon fill="midnightblue" stroke="midnightblue" points="433.5,-99.9458 442.938,-95.1318 432.558,-93.0094 433.5,-99.9458"/>
</g>
<!-- Node18 -->
<g id="node4" class="node"><title>Node18</title>
<g id="a_node4"><a xlink:href="class_igor_1_1i_texture_font.html#afbaafb654ccbc0802993e0c81c9cf60d" target="_top" xlink:title=" ">
<polygon fill="white" stroke="black" points="297.5,-49.5 297.5,-79.5 389.5,-79.5 389.5,-49.5 297.5,-49.5"/>
<text text-anchor="start" x="305.5" y="-67.5" font-family="Helvetica,sans-Serif" font-size="10.00">Igor::iTextureFont</text>
<text text-anchor="middle" x="343.5" y="-56.5" font-family="Helvetica,sans-Serif" font-size="10.00">::modifyWidth</text>
</a>
</g>
</g>
<!-- Node15&#45;&gt;Node18 -->
<g id="edge3" class="edge"><title>Node15&#45;&gt;Node18</title>
<path fill="none" stroke="midnightblue" d="M432.866,-76.5004C418.209,-74.5098 403.227,-72.4752 389.862,-70.6602"/>
<polygon fill="midnightblue" stroke="midnightblue" points="432.558,-79.9906 442.938,-77.8682 433.5,-73.0542 432.558,-79.9906"/>
</g>
<!-- Node22 -->
<g id="node8" class="node"><title>Node22</title>
<g id="a_node8"><a xlink:href="class_igor_1_1i_widget_scroll.html#a1ee966ffe24e24a937f37167983d912b" target="_top" xlink:title=" ">
<polygon fill="white" stroke="black" points="295.5,-0.5 295.5,-30.5 391.5,-30.5 391.5,-0.5 295.5,-0.5"/>
<text text-anchor="start" x="303.5" y="-18.5" font-family="Helvetica,sans-Serif" font-size="10.00">Igor::iWidgetScroll</text>
<text text-anchor="middle" x="343.5" y="-7.5" font-family="Helvetica,sans-Serif" font-size="10.00">::draw</text>
</a>
</g>
</g>
<!-- Node15&#45;&gt;Node22 -->
<g id="edge8" class="edge"><title>Node15&#45;&gt;Node22</title>
<path fill="none" stroke="midnightblue" d="M477.355,-72.5351C457.617,-63.199 430.882,-50.7885 407,-40.5 399.272,-37.1709 390.948,-33.7368 382.973,-30.5203"/>
<polygon fill="midnightblue" stroke="midnightblue" points="475.905,-75.721 486.439,-76.8486 478.907,-69.3976 475.905,-75.721"/>
</g>
<!-- Node19 -->
<g id="node5" class="node"><title>Node19</title>
<g id="a_node5"><a xlink:href="class_igor_1_1i_texture_font.html#a526d59c7ef93d9616c29999c63399184" target="_top" xlink:title=" ">
<polygon fill="white" stroke="black" points="138,-74.5 138,-104.5 234,-104.5 234,-74.5 138,-74.5"/>
<text text-anchor="start" x="146" y="-92.5" font-family="Helvetica,sans-Serif" font-size="10.00">Igor::iTextureFont</text>
<text text-anchor="middle" x="186" y="-81.5" font-family="Helvetica,sans-Serif" font-size="10.00">::makeFixedWidth</text>
</a>
</g>
</g>
<!-- Node18&#45;&gt;Node19 -->
<g id="edge4" class="edge"><title>Node18&#45;&gt;Node19</title>
<path fill="none" stroke="midnightblue" d="M287.108,-73.4055C269.76,-76.1945 250.79,-79.2444 234.073,-81.932"/>
<polygon fill="midnightblue" stroke="midnightblue" points="287.787,-76.8413 297.105,-71.7982 286.676,-69.93 287.787,-76.8413"/>
</g>
<!-- Node21 -->
<g id="node7" class="node"><title>Node21</title>
<g id="a_node7"><a xlink:href="class_igor_1_1i_texture_font.html#a9fb472fc3c0fcb49bf31f70759d1db62" target="_top" xlink:title=" ">
<polygon fill="white" stroke="black" points="128,-25.5 128,-55.5 244,-55.5 244,-25.5 128,-25.5"/>
<text text-anchor="start" x="136" y="-43.5" font-family="Helvetica,sans-Serif" font-size="10.00">Igor::iTextureFont</text>
<text text-anchor="middle" x="186" y="-32.5" font-family="Helvetica,sans-Serif" font-size="10.00">::makeFixedDigitWidth</text>
</a>
</g>
</g>
<!-- Node18&#45;&gt;Node21 -->
<g id="edge6" class="edge"><title>Node18&#45;&gt;Node21</title>
<path fill="none" stroke="midnightblue" d="M287.143,-55.9562C273.166,-53.7989 258.134,-51.4788 244.074,-49.3088"/>
<polygon fill="midnightblue" stroke="midnightblue" points="286.688,-59.4273 297.105,-57.4937 287.756,-52.5092 286.688,-59.4273"/>
</g>
<!-- Node20 -->
<g id="node6" class="node"><title>Node20</title>
<g id="a_node6"><a xlink:href="class_igor_1_1i_texture_font.html#a3cb874f65070247f89e95060484dd3fa" target="_top" xlink:title=" ">
<polygon fill="white" stroke="black" points="0,-49.5 0,-79.5 92,-79.5 92,-49.5 0,-49.5"/>
<text text-anchor="start" x="8" y="-67.5" font-family="Helvetica,sans-Serif" font-size="10.00">Igor::iTextureFont</text>
<text text-anchor="middle" x="46" y="-56.5" font-family="Helvetica,sans-Serif" font-size="10.00">::iTextureFont</text>
</a>
</g>
</g>
<!-- Node19&#45;&gt;Node20 -->
<g id="edge5" class="edge"><title>Node19&#45;&gt;Node20</title>
<path fill="none" stroke="midnightblue" d="M127.975,-79.1694C115.988,-76.9979 103.504,-74.7363 92.0297,-72.6576"/>
<polygon fill="midnightblue" stroke="midnightblue" points="127.43,-82.6276 137.894,-80.9663 128.678,-75.7397 127.43,-82.6276"/>
</g>
<!-- Node21&#45;&gt;Node20 -->
<g id="edge7" class="edge"><title>Node21&#45;&gt;Node20</title>
<path fill="none" stroke="midnightblue" d="M117.597,-52.2222C108.973,-53.7222 100.314,-55.2279 92.1625,-56.6457"/>
<polygon fill="midnightblue" stroke="midnightblue" points="118.422,-55.6314 127.674,-50.4697 117.223,-48.7349 118.422,-55.6314"/>
</g>
</g>
</svg>
