<?xml version="1.0" encoding="UTF-8" standalone="no"?>
<!DOCTYPE svg PUBLIC "-//W3C//DTD SVG 1.1//EN"
 "http://www.w3.org/Graphics/SVG/1.1/DTD/svg11.dtd">
<!-- Generated by graphviz version 2.38.0 (20140413.2041)
 -->
<!-- Title: Igor::iDialogMessageBox Pages: 1 -->
<svg width="745pt" height="205pt"
 viewBox="0.00 0.00 745.00 205.00" xmlns="http://www.w3.org/2000/svg" xmlns:xlink="http://www.w3.org/1999/xlink">
<g id="graph0" class="graph" transform="scale(1 1) rotate(0) translate(4 201)">
<title>Igor::iDialogMessageBox</title>
<polygon fill="white" stroke="none" points="-4,4 -4,-201 741,-201 741,4 -4,4"/>
<!-- Node1 -->
<g id="node1" class="node"><title>Node1</title>
<polygon fill="#bfbfbf" stroke="black" points="612,-96.5 612,-115.5 737,-115.5 737,-96.5 612,-96.5"/>
<text text-anchor="middle" x="674.5" y="-103.5" font-family="Helvetica,sans-Serif" font-size="10.00">Igor::iDialogMessageBox</text>
</g>
<!-- Node2 -->
<g id="node2" class="node"><title>Node2</title>
<g id="a_node2"><a xlink:href="class_igor_1_1i_dialog.html" target="_top" xlink:title="Igor::iDialog">
<polygon fill="white" stroke="black" points="419,-96.5 419,-115.5 487,-115.5 487,-96.5 419,-96.5"/>
<text text-anchor="middle" x="453" y="-103.5" font-family="Helvetica,sans-Serif" font-size="10.00">Igor::iDialog</text>
</a>
</g>
</g>
<!-- Node2&#45;&gt;Node1 -->
<g id="edge1" class="edge"><title>Node2&#45;&gt;Node1</title>
<path fill="none" stroke="midnightblue" d="M497.495,-106C530.226,-106 575.52,-106 611.962,-106"/>
<polygon fill="midnightblue" stroke="midnightblue" points="497.337,-102.5 487.337,-106 497.337,-109.5 497.337,-102.5"/>
</g>
<!-- Node3 -->
<g id="node3" class="node"><title>Node3</title>
<g id="a_node3"><a xlink:href="class_igor_1_1i_widget.html" target="_top" xlink:title="Igor::iWidget">
<polygon fill="white" stroke="black" points="294,-108.5 294,-127.5 365,-127.5 365,-108.5 294,-108.5"/>
<text text-anchor="middle" x="329.5" y="-115.5" font-family="Helvetica,sans-Serif" font-size="10.00">Igor::iWidget</text>
</a>
</g>
</g>
<!-- Node3&#45;&gt;Node2 -->
<g id="edge2" class="edge"><title>Node3&#45;&gt;Node2</title>
<path fill="none" stroke="midnightblue" d="M375.502,-113.555C389.864,-112.137 405.488,-110.594 418.85,-109.274"/>
<polygon fill="midnightblue" stroke="midnightblue" points="374.925,-110.095 365.317,-114.561 375.613,-117.061 374.925,-110.095"/>
</g>
<!-- Node3&#45;&gt;Node3 -->
<g id="edge4" class="edge"><title>Node3&#45;&gt;Node3</title>
<path fill="none" stroke="#9a32cd" stroke-dasharray="5,2" d="M319.556,-137.766C320.337,-142.497 323.651,-146 329.5,-146 339.098,-146 341.872,-136.565 337.823,-127.757"/>
<polygon fill="#9a32cd" stroke="#9a32cd" points="323.033,-138.188 321.177,-127.757 316.123,-137.069 323.033,-138.188"/>
<text text-anchor="middle" x="329.5" y="-160" font-family="Helvetica,sans-Serif" font-size="10.00"> _keyboardFocus</text>
<text text-anchor="middle" x="329.5" y="-149" font-family="Helvetica,sans-Serif" font-size="10.00">_parent</text>
</g>
<!-- Node8 -->
<g id="node8" class="node"><title>Node8</title>
<g id="a_node8"><a xlink:href="class_igor_1_1i_widget_button.html" target="_top" xlink:title="Igor::iWidgetButton">
<polygon fill="white" stroke="black" points="403,-38.5 403,-57.5 503,-57.5 503,-38.5 403,-38.5"/>
<text text-anchor="middle" x="453" y="-45.5" font-family="Helvetica,sans-Serif" font-size="10.00">Igor::iWidgetButton</text>
</a>
</g>
</g>
<!-- Node3&#45;&gt;Node8 -->
<g id="edge9" class="edge"><title>Node3&#45;&gt;Node8</title>
<path fill="none" stroke="midnightblue" d="M355.977,-103.322C379.787,-89.6042 414.657,-69.5142 435.172,-57.6953"/>
<polygon fill="midnightblue" stroke="midnightblue" points="354.057,-100.389 347.139,-108.414 357.551,-106.454 354.057,-100.389"/>
</g>
<!-- Node9 -->
<g id="node9" class="node"><title>Node9</title>
<g id="a_node9"><a xlink:href="class_igor_1_1i_widget_label.html" target="_top" xlink:title="Igor::iWidgetLabel">
<polygon fill="white" stroke="black" points="405.5,-0.5 405.5,-19.5 500.5,-19.5 500.5,-0.5 405.5,-0.5"/>
<text text-anchor="middle" x="453" y="-7.5" font-family="Helvetica,sans-Serif" font-size="10.00">Igor::iWidgetLabel</text>
</a>
</g>
</g>
<!-- Node3&#45;&gt;Node9 -->
<g id="edge12" class="edge"><title>Node3&#45;&gt;Node9</title>
<path fill="none" stroke="midnightblue" d="M343.04,-100.237C359.491,-77.3371 387.918,-39.2369 402,-29 407.183,-25.2325 413.204,-22.1156 419.235,-19.5723"/>
<polygon fill="midnightblue" stroke="midnightblue" points="340.138,-98.2783 337.183,-108.453 345.838,-102.342 340.138,-98.2783"/>
</g>
<!-- Node10 -->
<g id="node10" class="node"><title>Node10</title>
<g id="a_node10"><a xlink:href="class_igor_1_1i_widget_grid.html" target="_top" xlink:title="Igor::iWidgetGrid">
<polygon fill="white" stroke="black" points="408.5,-173.5 408.5,-192.5 497.5,-192.5 497.5,-173.5 408.5,-173.5"/>
<text text-anchor="middle" x="453" y="-180.5" font-family="Helvetica,sans-Serif" font-size="10.00">Igor::iWidgetGrid</text>
</a>
</g>
</g>
<!-- Node3&#45;&gt;Node10 -->
<g id="edge15" class="edge"><title>Node3&#45;&gt;Node10</title>
<path fill="none" stroke="midnightblue" d="M352.41,-133.246C366.258,-142.511 384.739,-154.208 402,-163 409.498,-166.819 417.903,-170.425 425.652,-173.495"/>
<polygon fill="midnightblue" stroke="midnightblue" points="354.278,-130.283 344.038,-127.564 350.347,-136.075 354.278,-130.283"/>
</g>
<!-- Node11 -->
<g id="node11" class="node"><title>Node11</title>
<g id="a_node11"><a xlink:href="class_igor_1_1i_widget_spacer.html" target="_top" xlink:title="Igor::iWidgetSpacer">
<polygon fill="white" stroke="black" points="402,-134.5 402,-153.5 504,-153.5 504,-134.5 402,-134.5"/>
<text text-anchor="middle" x="453" y="-141.5" font-family="Helvetica,sans-Serif" font-size="10.00">Igor::iWidgetSpacer</text>
</a>
</g>
</g>
<!-- Node3&#45;&gt;Node11 -->
<g id="edge17" class="edge"><title>Node3&#45;&gt;Node11</title>
<path fill="none" stroke="midnightblue" d="M375.418,-127.612C385.789,-129.831 396.822,-132.192 407.188,-134.411"/>
<polygon fill="midnightblue" stroke="midnightblue" points="375.828,-124.121 365.317,-125.451 374.363,-130.966 375.828,-124.121"/>
</g>
<!-- Node4 -->
<g id="node4" class="node"><title>Node4</title>
<g id="a_node4"><a xlink:href="class_igor_aux_1_1ia_string.html" target="_top" xlink:title="IgorAux::iaString">
<polygon fill="white" stroke="black" points="94.5,-34.5 94.5,-53.5 183.5,-53.5 183.5,-34.5 94.5,-34.5"/>
<text text-anchor="middle" x="139" y="-41.5" font-family="Helvetica,sans-Serif" font-size="10.00">IgorAux::iaString</text>
</a>
</g>
</g>
<!-- Node4&#45;&gt;Node3 -->
<g id="edge3" class="edge"><title>Node4&#45;&gt;Node3</title>
<path fill="none" stroke="#9a32cd" stroke-dasharray="5,2" d="M173.739,-57.2449C211.211,-71.9557 270.794,-95.3463 304.037,-108.397"/>
<polygon fill="#9a32cd" stroke="#9a32cd" points="174.845,-53.9191 164.257,-53.5227 172.287,-60.435 174.845,-53.9191"/>
<text text-anchor="middle" x="246.5" y="-99" font-family="Helvetica,sans-Serif" font-size="10.00"> _tooltip</text>
</g>
<!-- Node4&#45;&gt;Node8 -->
<g id="edge10" class="edge"><title>Node4&#45;&gt;Node8</title>
<path fill="none" stroke="#9a32cd" stroke-dasharray="5,2" d="M193.918,-44.6913C252.744,-45.4454 346.094,-46.6422 402.934,-47.3709"/>
<polygon fill="#9a32cd" stroke="#9a32cd" points="193.755,-41.189 183.711,-44.5604 193.665,-48.1884 193.755,-41.189"/>
<text text-anchor="middle" x="329.5" y="-61" font-family="Helvetica,sans-Serif" font-size="10.00"> _texturePath</text>
<text text-anchor="middle" x="329.5" y="-50" font-family="Helvetica,sans-Serif" font-size="10.00">_text</text>
</g>
<!-- Node4&#45;&gt;Node9 -->
<g id="edge13" class="edge"><title>Node4&#45;&gt;Node9</title>
<path fill="none" stroke="#9a32cd" stroke-dasharray="5,2" d="M193.687,-38.1495C253.313,-31.6518 348.616,-21.2662 405.277,-15.0916"/>
<polygon fill="#9a32cd" stroke="#9a32cd" points="193.273,-34.6738 183.711,-39.2366 194.031,-41.6326 193.273,-34.6738"/>
<text text-anchor="middle" x="329.5" y="-31" font-family="Helvetica,sans-Serif" font-size="10.00"> _text</text>
</g>
<!-- Node5 -->
<g id="node5" class="node"><title>Node5</title>
<g id="a_node5"><a xlink:href="class_igor_1_1i_timer_handle.html" target="_top" xlink:title="Igor::iTimerHandle">
<polygon fill="white" stroke="black" points="91.5,-107.5 91.5,-126.5 186.5,-126.5 186.5,-107.5 91.5,-107.5"/>
<text text-anchor="middle" x="139" y="-114.5" font-family="Helvetica,sans-Serif" font-size="10.00">Igor::iTimerHandle</text>
</a>
</g>
</g>
<!-- Node5&#45;&gt;Node3 -->
<g id="edge5" class="edge"><title>Node5&#45;&gt;Node3</title>
<path fill="none" stroke="#9a32cd" stroke-dasharray="5,2" d="M196.622,-117.3C228.308,-117.468 266.783,-117.673 293.976,-117.817"/>
<polygon fill="#9a32cd" stroke="#9a32cd" points="196.614,-113.8 186.596,-117.247 196.577,-120.8 196.614,-113.8"/>
<text text-anchor="middle" x="246.5" y="-120" font-family="Helvetica,sans-Serif" font-size="10.00"> _timerTooltip</text>
</g>
<!-- Node6 -->
<g id="node6" class="node"><title>Node6</title>
<g id="a_node6"><a xlink:href="class_igor_aux_1_1ia_vector2.html" target="_top" xlink:title="IgorAux::iaVector2\&lt; T \&gt;">
<polygon fill="white" stroke="black" points="79,-145.5 79,-164.5 199,-164.5 199,-145.5 79,-145.5"/>
<text text-anchor="middle" x="139" y="-152.5" font-family="Helvetica,sans-Serif" font-size="10.00">IgorAux::iaVector2&lt; T &gt;</text>
</a>
</g>
</g>
<!-- Node6&#45;&gt;Node3 -->
<g id="edge6" class="edge"><title>Node6&#45;&gt;Node3</title>
<path fill="none" stroke="#9a32cd" stroke-dasharray="5,2" d="M209.104,-143.743C230.596,-139.991 254.334,-135.589 276,-131 281.787,-129.774 287.906,-128.365 293.842,-126.936"/>
<polygon fill="#9a32cd" stroke="#9a32cd" points="208.336,-140.324 199.078,-145.475 209.528,-147.222 208.336,-140.324"/>
<text text-anchor="middle" x="246.5" y="-155" font-family="Helvetica,sans-Serif" font-size="10.00"> _tooltipPos</text>
<text text-anchor="middle" x="246.5" y="-144" font-family="Helvetica,sans-Serif" font-size="10.00">_posLast</text>
</g>
<!-- Node7 -->
<g id="node7" class="node"><title>Node7</title>
<polygon fill="white" stroke="#bfbfbf" points="0,-145.5 0,-164.5 29,-164.5 29,-145.5 0,-145.5"/>
<text text-anchor="middle" x="14.5" y="-152.5" font-family="Helvetica,sans-Serif" font-size="10.00">T</text>
</g>
<!-- Node7&#45;&gt;Node6 -->
<g id="edge7" class="edge"><title>Node7&#45;&gt;Node6</title>
<path fill="none" stroke="#9a32cd" stroke-dasharray="5,2" d="M39.4257,-155C50.8091,-155 64.9724,-155 78.98,-155"/>
<polygon fill="#9a32cd" stroke="#9a32cd" points="39.0777,-151.5 29.0777,-155 39.0777,-158.5 39.0777,-151.5"/>
<text text-anchor="middle" x="54" y="-169" font-family="Helvetica,sans-Serif" font-size="10.00"> _x</text>
<text text-anchor="middle" x="54" y="-158" font-family="Helvetica,sans-Serif" font-size="10.00">_y</text>
</g>
<!-- Node8&#45;&gt;Node1 -->
<g id="edge8" class="edge"><title>Node8&#45;&gt;Node1</title>
<path fill="none" stroke="#9a32cd" stroke-dasharray="5,2" d="M513.227,-46.1223C538.612,-46.867 568.279,-49.8387 594,-58 620.279,-66.3381 646.922,-84.9538 661.718,-96.3965"/>
<polygon fill="#9a32cd" stroke="#9a32cd" points="513.063,-42.6188 503,-45.9335 512.934,-49.6176 513.063,-42.6188"/>
<text text-anchor="middle" x="558" y="-94" font-family="Helvetica,sans-Serif" font-size="10.00"> _cancelButton</text>
<text text-anchor="middle" x="558" y="-83" font-family="Helvetica,sans-Serif" font-size="10.00">_noButton</text>
<text text-anchor="middle" x="558" y="-72" font-family="Helvetica,sans-Serif" font-size="10.00">_yesButton</text>
<text text-anchor="middle" x="558" y="-61" font-family="Helvetica,sans-Serif" font-size="10.00">_okButton</text>
</g>
<!-- Node9&#45;&gt;Node1 -->
<g id="edge11" class="edge"><title>Node9&#45;&gt;Node1</title>
<path fill="none" stroke="#9a32cd" stroke-dasharray="5,2" d="M511.028,-11.3641C537.372,-13.863 568.413,-19.5537 594,-32 625.878,-47.5062 653.81,-80.1463 666.4,-96.3924"/>
<polygon fill="#9a32cd" stroke="#9a32cd" points="511.06,-7.85519 500.809,-10.5294 510.49,-14.8319 511.06,-7.85519"/>
<text text-anchor="middle" x="558" y="-35" font-family="Helvetica,sans-Serif" font-size="10.00"> _messageLabel</text>
</g>
<!-- Node10&#45;&gt;Node1 -->
<g id="edge14" class="edge"><title>Node10&#45;&gt;Node1</title>
<path fill="none" stroke="#9a32cd" stroke-dasharray="5,2" d="M508.046,-177.911C534.615,-174.181 566.708,-167.806 594,-157 620.224,-146.617 647.097,-127.164 661.909,-115.516"/>
<polygon fill="#9a32cd" stroke="#9a32cd" points="507.24,-174.487 497.781,-179.261 508.152,-181.427 507.24,-174.487"/>
<text text-anchor="middle" x="558" y="-189" font-family="Helvetica,sans-Serif" font-size="10.00"> _buttonGrid</text>
<text text-anchor="middle" x="558" y="-178" font-family="Helvetica,sans-Serif" font-size="10.00">_grid</text>
</g>
<!-- Node11&#45;&gt;Node1 -->
<g id="edge16" class="edge"><title>Node11&#45;&gt;Node1</title>
<path fill="none" stroke="#9a32cd" stroke-dasharray="5,2" d="M514.349,-133.552C546.82,-127.931 586.582,-121.047 618.239,-115.567"/>
<polygon fill="#9a32cd" stroke="#9a32cd" points="513.339,-130.175 504.083,-135.33 514.533,-137.072 513.339,-130.175"/>
<text text-anchor="middle" x="558" y="-145" font-family="Helvetica,sans-Serif" font-size="10.00"> _spacerLittle</text>
<text text-anchor="middle" x="558" y="-134" font-family="Helvetica,sans-Serif" font-size="10.00">_spacerLine</text>
</g>
</g>
</svg>
