<?xml version="1.0" encoding="UTF-8" standalone="no"?>
<!DOCTYPE svg PUBLIC "-//W3C//DTD SVG 1.1//EN"
 "http://www.w3.org/Graphics/SVG/1.1/DTD/svg11.dtd">
<!-- Generated by graphviz version 2.38.0 (20140413.2041)
 -->
<!-- Title: OMPF::ompfMaterialChunk::printInfo Pages: 1 -->
<svg width="312pt" height="88pt"
 viewBox="0.00 0.00 312.00 88.00" xmlns="http://www.w3.org/2000/svg" xmlns:xlink="http://www.w3.org/1999/xlink">
<g id="graph0" class="graph" transform="scale(1 1) rotate(0) translate(4 84)">
<title>OMPF::ompfMaterialChunk::printInfo</title>
<polygon fill="white" stroke="none" points="-4,4 -4,-84 308,-84 308,4 -4,4"/>
<!-- Node38 -->
<g id="node1" class="node"><title>Node38</title>
<g id="a_node1"><a xlink:title=" ">
<polygon fill="#bfbfbf" stroke="black" points="170,-24.5 170,-54.5 304,-54.5 304,-24.5 170,-24.5"/>
<text text-anchor="start" x="178" y="-42.5" font-family="Helvetica,sans-Serif" font-size="10.00">OMPF::ompfMaterialChunk</text>
<text text-anchor="middle" x="237" y="-31.5" font-family="Helvetica,sans-Serif" font-size="10.00">::printInfo</text>
</a>
</g>
</g>
<!-- Node39 -->
<g id="node2" class="node"><title>Node39</title>
<g id="a_node2"><a xlink:href="class_o_m_p_f_1_1ompf_material_chunk.html#a16218c145b688f2db2fcfb61c1feec39" target="_top" xlink:title=" ">
<polygon fill="white" stroke="black" points="0,-49.5 0,-79.5 134,-79.5 134,-49.5 0,-49.5"/>
<text text-anchor="start" x="8" y="-67.5" font-family="Helvetica,sans-Serif" font-size="10.00">OMPF::ompfMaterialChunk</text>
<text text-anchor="middle" x="67" y="-56.5" font-family="Helvetica,sans-Serif" font-size="10.00">::write</text>
</a>
</g>
</g>
<!-- Node38&#45;&gt;Node39 -->
<g id="edge1" class="edge"><title>Node38&#45;&gt;Node39</title>
<path fill="none" stroke="midnightblue" d="M159.683,-50.8567C151.174,-52.1229 142.559,-53.4049 134.191,-54.6502"/>
<polygon fill="midnightblue" stroke="midnightblue" points="160.226,-54.3145 169.602,-49.3807 159.196,-47.3908 160.226,-54.3145"/>
</g>
<!-- Node40 -->
<g id="node3" class="node"><title>Node40</title>
<g id="a_node3"><a xlink:href="class_o_m_p_f_1_1ompf_material_chunk.html#a54e25359ced1186303c9241cb3cc2f18" target="_top" xlink:title=" ">
<polygon fill="white" stroke="black" points="0,-0.5 0,-30.5 134,-30.5 134,-0.5 0,-0.5"/>
<text text-anchor="start" x="8" y="-18.5" font-family="Helvetica,sans-Serif" font-size="10.00">OMPF::ompfMaterialChunk</text>
<text text-anchor="middle" x="67" y="-7.5" font-family="Helvetica,sans-Serif" font-size="10.00">::read</text>
</a>
</g>
</g>
<!-- Node38&#45;&gt;Node40 -->
<g id="edge2" class="edge"><title>Node38&#45;&gt;Node40</title>
<path fill="none" stroke="midnightblue" d="M159.683,-28.5976C151.174,-27.382 142.559,-26.1512 134.191,-24.9558"/>
<polygon fill="midnightblue" stroke="midnightblue" points="159.207,-32.0651 169.602,-30.0146 160.197,-25.1354 159.207,-32.0651"/>
</g>
</g>
</svg>
