<?xml version="1.0" encoding="UTF-8" standalone="no"?>
<!DOCTYPE svg PUBLIC "-//W3C//DTD SVG 1.1//EN"
 "http://www.w3.org/Graphics/SVG/1.1/DTD/svg11.dtd">
<!-- Generated by graphviz version 2.38.0 (20140413.2041)
 -->
<!-- Title: IgorAux::iaString::setUTF8 Pages: 1 -->
<svg width="258pt" height="78pt"
 viewBox="0.00 0.00 258.00 77.50" xmlns="http://www.w3.org/2000/svg" xmlns:xlink="http://www.w3.org/1999/xlink">
<g id="graph0" class="graph" transform="scale(1 1) rotate(0) translate(4 73.5)">
<title>IgorAux::iaString::setUTF8</title>
<polygon fill="white" stroke="none" points="-4,4 -4,-73.5 254,-73.5 254,4 -4,4"/>
<!-- Node643 -->
<g id="node1" class="node"><title>Node643</title>
<g id="a_node1"><a xlink:title=" ">
<polygon fill="#bfbfbf" stroke="black" points="155,-17 155,-47 250,-47 250,-17 155,-17"/>
<text text-anchor="start" x="163" y="-35" font-family="Helvetica,sans-Serif" font-size="10.00">IgorAux::iaString::</text>
<text text-anchor="middle" x="202.5" y="-24" font-family="Helvetica,sans-Serif" font-size="10.00">setUTF8</text>
</a>
</g>
</g>
<!-- Node644 -->
<g id="node2" class="node"><title>Node644</title>
<g id="a_node2"><a xlink:href="class_igor_aux_1_1ia_serializable.html#abe4b8f6065e617a2bc2777c44b990f69" target="_top" xlink:title=" ">
<polygon fill="white" stroke="black" points="3,-39 3,-69 116,-69 116,-39 3,-39"/>
<text text-anchor="start" x="11" y="-57" font-family="Helvetica,sans-Serif" font-size="10.00">IgorAux::iaSerializable</text>
<text text-anchor="middle" x="59.5" y="-46" font-family="Helvetica,sans-Serif" font-size="10.00">::readUTF8</text>
</a>
</g>
</g>
<!-- Node643&#45;&gt;Node644 -->
<g id="edge1" class="edge"><title>Node643&#45;&gt;Node644</title>
<path fill="none" stroke="midnightblue" d="M144.895,-40.832C135.481,-42.3008 125.724,-43.8233 116.33,-45.289"/>
<polygon fill="midnightblue" stroke="midnightblue" points="145.6,-44.2645 154.941,-39.2646 144.521,-37.3481 145.6,-44.2645"/>
</g>
<!-- Node645 -->
<g id="node3" class="node"><title>Node645</title>
<g id="a_node3"><a xlink:href="namespace_testigor.html#afff8930d0cf962f5dc34405e911a82a8" target="_top" xlink:title=" ">
<polygon fill="white" stroke="black" points="0,-0.5 0,-19.5 119,-19.5 119,-0.5 0,-0.5"/>
<text text-anchor="middle" x="59.5" y="-7.5" font-family="Helvetica,sans-Serif" font-size="10.00">Testigor::TEST_CLASS</text>
</a>
</g>
</g>
<!-- Node643&#45;&gt;Node645 -->
<g id="edge2" class="edge"><title>Node643&#45;&gt;Node645</title>
<path fill="none" stroke="midnightblue" d="M144.787,-23.1512C136.323,-21.8305 127.583,-20.4668 119.081,-19.1402"/>
<polygon fill="midnightblue" stroke="midnightblue" points="144.521,-26.6519 154.941,-24.7354 145.6,-19.7355 144.521,-26.6519"/>
</g>
</g>
</svg>
