<?xml version="1.0" encoding="UTF-8" standalone="no"?>
<!DOCTYPE svg PUBLIC "-//W3C//DTD SVG 1.1//EN"
 "http://www.w3.org/Graphics/SVG/1.1/DTD/svg11.dtd">
<!-- Generated by graphviz version 2.38.0 (20140413.2041)
 -->
<!-- Title: Igor::iWidgetNumberChooser::setStepping Pages: 1 -->
<svg width="893pt" height="39pt"
 viewBox="0.00 0.00 893.00 39.00" xmlns="http://www.w3.org/2000/svg" xmlns:xlink="http://www.w3.org/1999/xlink">
<g id="graph0" class="graph" transform="scale(1 1) rotate(0) translate(4 35)">
<title>Igor::iWidgetNumberChooser::setStepping</title>
<polygon fill="white" stroke="none" points="-4,4 -4,-35 889,-35 889,4 -4,4"/>
<!-- Node1 -->
<g id="node1" class="node"><title>Node1</title>
<polygon fill="#bfbfbf" stroke="black" points="0,-0.5 0,-30.5 141,-30.5 141,-0.5 0,-0.5"/>
<text text-anchor="start" x="8" y="-18.5" font-family="Helvetica,sans-Serif" font-size="10.00">Igor::iWidgetNumberChooser</text>
<text text-anchor="middle" x="70.5" y="-7.5" font-family="Helvetica,sans-Serif" font-size="10.00">::setStepping</text>
</g>
<!-- Node2 -->
<g id="node2" class="node"><title>Node2</title>
<g id="a_node2"><a xlink:href="class_igor_1_1i_user_control_color_chooser.html#ac82a382282c1b5daf90091ec6494d42c" target="_top" xlink:title="Igor::iUserControlColorChooser\l::createNumberChooser">
<polygon fill="white" stroke="black" points="177,-0.5 177,-30.5 327,-30.5 327,-0.5 177,-0.5"/>
<text text-anchor="start" x="185" y="-18.5" font-family="Helvetica,sans-Serif" font-size="10.00">Igor::iUserControlColorChooser</text>
<text text-anchor="middle" x="252" y="-7.5" font-family="Helvetica,sans-Serif" font-size="10.00">::createNumberChooser</text>
</a>
</g>
</g>
<!-- Node1&#45;&gt;Node2 -->
<g id="edge1" class="edge"><title>Node1&#45;&gt;Node2</title>
<path fill="none" stroke="midnightblue" d="M151.426,-15.5C159.911,-15.5 168.514,-15.5 176.927,-15.5"/>
<polygon fill="midnightblue" stroke="midnightblue" points="151.156,-12.0001 141.156,-15.5 151.156,-19.0001 151.156,-12.0001"/>
</g>
<!-- Node3 -->
<g id="node3" class="node"><title>Node3</title>
<g id="a_node3"><a xlink:href="class_igor_1_1i_user_control_color_chooser.html#a350674922c28c48ed8d4f3bf45a39fdc" target="_top" xlink:title="Igor::iUserControlColorChooser\l::initGUI">
<polygon fill="white" stroke="black" points="363,-0.5 363,-30.5 513,-30.5 513,-0.5 363,-0.5"/>
<text text-anchor="start" x="371" y="-18.5" font-family="Helvetica,sans-Serif" font-size="10.00">Igor::iUserControlColorChooser</text>
<text text-anchor="middle" x="438" y="-7.5" font-family="Helvetica,sans-Serif" font-size="10.00">::initGUI</text>
</a>
</g>
</g>
<!-- Node2&#45;&gt;Node3 -->
<g id="edge2" class="edge"><title>Node2&#45;&gt;Node3</title>
<path fill="none" stroke="midnightblue" d="M337.066,-15.5C345.654,-15.5 354.336,-15.5 362.808,-15.5"/>
<polygon fill="midnightblue" stroke="midnightblue" points="337.045,-12.0001 327.044,-15.5 337.044,-19.0001 337.045,-12.0001"/>
</g>
<!-- Node4 -->
<g id="node4" class="node"><title>Node4</title>
<g id="a_node4"><a xlink:href="class_igor_1_1i_user_control_color_chooser.html#a3e12c44e1c409cc8f785c67eda400a85" target="_top" xlink:title="Igor::iUserControlColorChooser\l::iUserControlColorChooser">
<polygon fill="white" stroke="black" points="549,-0.5 549,-30.5 699,-30.5 699,-0.5 549,-0.5"/>
<text text-anchor="start" x="557" y="-18.5" font-family="Helvetica,sans-Serif" font-size="10.00">Igor::iUserControlColorChooser</text>
<text text-anchor="middle" x="624" y="-7.5" font-family="Helvetica,sans-Serif" font-size="10.00">::iUserControlColorChooser</text>
</a>
</g>
</g>
<!-- Node3&#45;&gt;Node4 -->
<g id="edge3" class="edge"><title>Node3&#45;&gt;Node4</title>
<path fill="none" stroke="midnightblue" d="M523.066,-15.5C531.654,-15.5 540.336,-15.5 548.808,-15.5"/>
<polygon fill="midnightblue" stroke="midnightblue" points="523.045,-12.0001 513.044,-15.5 523.044,-19.0001 523.045,-12.0001"/>
</g>
<!-- Node5 -->
<g id="node5" class="node"><title>Node5</title>
<g id="a_node5"><a xlink:href="class_igor_1_1i_user_control_color_chooser.html#af82f3e4ae1b705adacffcdd546439e88" target="_top" xlink:title="Igor::iUserControlColorChooser\l::createInstance">
<polygon fill="white" stroke="black" points="735,-0.5 735,-30.5 885,-30.5 885,-0.5 735,-0.5"/>
<text text-anchor="start" x="743" y="-18.5" font-family="Helvetica,sans-Serif" font-size="10.00">Igor::iUserControlColorChooser</text>
<text text-anchor="middle" x="810" y="-7.5" font-family="Helvetica,sans-Serif" font-size="10.00">::createInstance</text>
</a>
</g>
</g>
<!-- Node4&#45;&gt;Node5 -->
<g id="edge4" class="edge"><title>Node4&#45;&gt;Node5</title>
<path fill="none" stroke="midnightblue" d="M709.066,-15.5C717.654,-15.5 726.336,-15.5 734.808,-15.5"/>
<polygon fill="midnightblue" stroke="midnightblue" points="709.045,-12.0001 699.044,-15.5 709.044,-19.0001 709.045,-12.0001"/>
</g>
</g>
</svg>
