<?xml version="1.0" encoding="UTF-8" standalone="no"?>
<!DOCTYPE svg PUBLIC "-//W3C//DTD SVG 1.1//EN"
 "http://www.w3.org/Graphics/SVG/1.1/DTD/svg11.dtd">
<!-- Generated by graphviz version 2.38.0 (20140413.2041)
 -->
<!-- Title: Igor::iWidget::isVisible Pages: 1 -->
<svg width="274pt" height="88pt"
 viewBox="0.00 0.00 274.00 88.00" xmlns="http://www.w3.org/2000/svg" xmlns:xlink="http://www.w3.org/1999/xlink">
<g id="graph0" class="graph" transform="scale(1 1) rotate(0) translate(4 84)">
<title>Igor::iWidget::isVisible</title>
<polygon fill="white" stroke="none" points="-4,4 -4,-84 270,-84 270,4 -4,4"/>
<!-- Node1 -->
<g id="node1" class="node"><title>Node1</title>
<polygon fill="#bfbfbf" stroke="black" points="0,-30 0,-49 114,-49 114,-30 0,-30"/>
<text text-anchor="middle" x="57" y="-37" font-family="Helvetica,sans-Serif" font-size="10.00">Igor::iWidget::isVisible</text>
</g>
<!-- Node2 -->
<g id="node2" class="node"><title>Node2</title>
<g id="a_node2"><a xlink:href="class_igor_1_1i_widget_check_box.html#aa54db8546decd504d661331f88225f7d" target="_top" xlink:title="Igor::iWidgetCheckBox\l::draw">
<polygon fill="white" stroke="black" points="150,-49.5 150,-79.5 266,-79.5 266,-49.5 150,-49.5"/>
<text text-anchor="start" x="158" y="-67.5" font-family="Helvetica,sans-Serif" font-size="10.00">Igor::iWidgetCheckBox</text>
<text text-anchor="middle" x="208" y="-56.5" font-family="Helvetica,sans-Serif" font-size="10.00">::draw</text>
</a>
</g>
</g>
<!-- Node1&#45;&gt;Node2 -->
<g id="edge1" class="edge"><title>Node1&#45;&gt;Node2</title>
<path fill="none" stroke="midnightblue" d="M124.462,-50.6513C132.847,-52.0583 141.37,-53.4883 149.599,-54.869"/>
<polygon fill="midnightblue" stroke="midnightblue" points="124.772,-47.1545 114.331,-48.9514 123.613,-54.058 124.772,-47.1545"/>
</g>
<!-- Node3 -->
<g id="node3" class="node"><title>Node3</title>
<g id="a_node3"><a xlink:href="class_igor_1_1i_widget_text_edit.html#aa4bcfd88e7154fc128fa0f0126971387" target="_top" xlink:title="Igor::iWidgetTextEdit\l::draw">
<polygon fill="white" stroke="black" points="154.5,-0.5 154.5,-30.5 261.5,-30.5 261.5,-0.5 154.5,-0.5"/>
<text text-anchor="start" x="162.5" y="-18.5" font-family="Helvetica,sans-Serif" font-size="10.00">Igor::iWidgetTextEdit</text>
<text text-anchor="middle" x="208" y="-7.5" font-family="Helvetica,sans-Serif" font-size="10.00">::draw</text>
</a>
</g>
</g>
<!-- Node1&#45;&gt;Node3 -->
<g id="edge2" class="edge"><title>Node1&#45;&gt;Node3</title>
<path fill="none" stroke="midnightblue" d="M124.217,-28.8342C134.197,-27.2266 144.379,-25.5867 154.032,-24.0317"/>
<polygon fill="midnightblue" stroke="midnightblue" points="123.647,-25.3808 114.331,-30.4266 124.76,-32.2918 123.647,-25.3808"/>
</g>
</g>
</svg>
