<?xml version="1.0" encoding="UTF-8" standalone="no"?>
<!DOCTYPE svg PUBLIC "-//W3C//DTD SVG 1.1//EN"
 "http://www.w3.org/Graphics/SVG/1.1/DTD/svg11.dtd">
<!-- Generated by graphviz version 2.38.0 (20140413.2041)
 -->
<!-- Title: Igor::iPhysicsCollisionConfig::finalize Pages: 1 -->
<svg width="336pt" height="66pt"
 viewBox="0.00 0.00 336.00 66.00" xmlns="http://www.w3.org/2000/svg" xmlns:xlink="http://www.w3.org/1999/xlink">
<g id="graph0" class="graph" transform="scale(1 1) rotate(0) translate(4 62)">
<title>Igor::iPhysicsCollisionConfig::finalize</title>
<polygon fill="white" stroke="none" points="-4,4 -4,-62 332,-62 332,4 -4,4"/>
<!-- Node1 -->
<g id="node1" class="node"><title>Node1</title>
<polygon fill="#bfbfbf" stroke="black" points="0,-14 0,-44 140,-44 140,-14 0,-14"/>
<text text-anchor="start" x="8" y="-32" font-family="Helvetica,sans-Serif" font-size="10.00">Igor::iPhysicsCollisionConfig</text>
<text text-anchor="middle" x="70" y="-21" font-family="Helvetica,sans-Serif" font-size="10.00">::finalize</text>
</g>
<!-- Node2 -->
<g id="node2" class="node"><title>Node2</title>
<g id="a_node2"><a xlink:href="namespace_igor.html#a5fe8dccb73e478843127c8c2a4b7ae1d" target="_top" xlink:title="Igor::finalizeCollision">
<polygon fill="white" stroke="black" points="199.5,-38.5 199.5,-57.5 304.5,-57.5 304.5,-38.5 199.5,-38.5"/>
<text text-anchor="middle" x="252" y="-45.5" font-family="Helvetica,sans-Serif" font-size="10.00">Igor::finalizeCollision</text>
</a>
</g>
</g>
<!-- Node1&#45;&gt;Node2 -->
<g id="edge1" class="edge"><title>Node1&#45;&gt;Node2</title>
<path fill="none" stroke="midnightblue" d="M150.356,-37.3765C166.999,-39.1332 184.134,-40.9419 199.442,-42.5577"/>
<polygon fill="midnightblue" stroke="midnightblue" points="150.39,-33.8607 140.078,-36.2916 149.655,-40.822 150.39,-33.8607"/>
</g>
<!-- Node3 -->
<g id="node3" class="node"><title>Node3</title>
<g id="a_node3"><a xlink:href="class_igor_1_1i_task_prepare_collision.html#afdeb0a774847db7fd907aa353b23f9e2" target="_top" xlink:title="Igor::iTaskPrepareCollision::run">
<polygon fill="white" stroke="black" points="176,-0.5 176,-19.5 328,-19.5 328,-0.5 176,-0.5"/>
<text text-anchor="middle" x="252" y="-7.5" font-family="Helvetica,sans-Serif" font-size="10.00">Igor::iTaskPrepareCollision::run</text>
</a>
</g>
</g>
<!-- Node1&#45;&gt;Node3 -->
<g id="edge2" class="edge"><title>Node1&#45;&gt;Node3</title>
<path fill="none" stroke="midnightblue" d="M150.048,-20.656C158.61,-19.7522 167.306,-18.8343 175.821,-17.9356"/>
<polygon fill="midnightblue" stroke="midnightblue" points="149.655,-17.178 140.078,-21.7084 150.39,-24.1393 149.655,-17.178"/>
</g>
</g>
</svg>
