<?xml version="1.0" encoding="UTF-8" standalone="no"?>
<!DOCTYPE svg PUBLIC "-//W3C//DTD SVG 1.1//EN"
 "http://www.w3.org/Graphics/SVG/1.1/DTD/svg11.dtd">
<!-- Generated by graphviz version 2.38.0 (20140413.2041)
 -->
<!-- Title: Igor::iNodeCamera Pages: 1 -->
<svg width="829pt" height="262pt"
 viewBox="0.00 0.00 829.00 262.22" xmlns="http://www.w3.org/2000/svg" xmlns:xlink="http://www.w3.org/1999/xlink">
<g id="graph0" class="graph" transform="scale(1 1) rotate(0) translate(4 258.218)">
<title>Igor::iNodeCamera</title>
<polygon fill="white" stroke="none" points="-4,4 -4,-258.218 825,-258.218 825,4 -4,4"/>
<!-- Node2 -->
<g id="node1" class="node"><title>Node2</title>
<g id="a_node1"><a xlink:title=" ">
<polygon fill="#bfbfbf" stroke="black" points="724,-37.7177 724,-56.7177 821,-56.7177 821,-37.7177 724,-37.7177"/>
<text text-anchor="middle" x="772.5" y="-44.7177" font-family="Helvetica,sans-Serif" font-size="10.00">Igor::iNodeCamera</text>
</a>
</g>
</g>
<!-- Node3 -->
<g id="node2" class="node"><title>Node3</title>
<g id="a_node2"><a xlink:href="class_igor_1_1i_node.html" target="_top" xlink:title=" ">
<polygon fill="white" stroke="black" points="486.5,-112.718 486.5,-131.718 549.5,-131.718 549.5,-112.718 486.5,-112.718"/>
<text text-anchor="middle" x="518" y="-119.718" font-family="Helvetica,sans-Serif" font-size="10.00">Igor::iNode</text>
</a>
</g>
</g>
<!-- Node3&#45;&gt;Node2 -->
<g id="edge1" class="edge"><title>Node3&#45;&gt;Node2</title>
<path fill="none" stroke="midnightblue" d="M560.198,-120.022C598.98,-116.841 658.099,-109.084 706,-90.2177 726.757,-82.0424 747.8,-66.6945 760.244,-56.719"/>
<polygon fill="midnightblue" stroke="midnightblue" points="559.534,-116.562 549.825,-120.803 560.06,-123.542 559.534,-116.562"/>
</g>
<!-- Node3&#45;&gt;Node3 -->
<g id="edge16" class="edge"><title>Node3&#45;&gt;Node3</title>
<path fill="none" stroke="#9a32cd" stroke-dasharray="5,2" d="M493.447,-141.247C494.786,-146.346 502.97,-150.218 518,-150.218 541.461,-150.218 548.243,-140.783 538.345,-131.975"/>
<polygon fill="#9a32cd" stroke="#9a32cd" points="496.709,-142.527 497.655,-131.975 490.335,-139.634 496.709,-142.527"/>
<text text-anchor="middle" x="518" y="-153.218" font-family="Helvetica,sans-Serif" font-size="10.00"> _parent</text>
</g>
<!-- Node8 -->
<g id="node7" class="node"><title>Node8</title>
<g id="a_node7"><a xlink:href="class_igor_1_1i_scene.html" target="_top" xlink:title=" ">
<polygon fill="white" stroke="black" points="738.5,-144.718 738.5,-163.718 806.5,-163.718 806.5,-144.718 738.5,-144.718"/>
<text text-anchor="middle" x="772.5" y="-151.718" font-family="Helvetica,sans-Serif" font-size="10.00">Igor::iScene</text>
</a>
</g>
</g>
<!-- Node3&#45;&gt;Node8 -->
<g id="edge13" class="edge"><title>Node3&#45;&gt;Node8</title>
<path fill="none" stroke="#9a32cd" stroke-dasharray="5,2" d="M559.849,-123.006C597.921,-124.275 656.153,-127.586 706,-136.218 717.736,-138.25 730.407,-141.48 741.449,-144.647"/>
<polygon fill="#9a32cd" stroke="#9a32cd" points="559.77,-119.502 549.669,-122.699 559.559,-126.499 559.77,-119.502"/>
<text text-anchor="middle" x="651.5" y="-139.218" font-family="Helvetica,sans-Serif" font-size="10.00"> _root</text>
</g>
<!-- Node4 -->
<g id="node3" class="node"><title>Node4</title>
<g id="a_node3"><a xlink:href="class_igor_aux_1_1ia_i_d_generator.html" target="_top" xlink:title=" ">
<polygon fill="white" stroke="black" points="163,-112.718 163,-131.718 301,-131.718 301,-112.718 163,-112.718"/>
<text text-anchor="middle" x="232" y="-119.718" font-family="Helvetica,sans-Serif" font-size="10.00">IgorAux::iaIDGenerator&lt; T &gt;</text>
</a>
</g>
</g>
<!-- Node4&#45;&gt;Node3 -->
<g id="edge2" class="edge"><title>Node4&#45;&gt;Node3</title>
<path fill="none" stroke="#9a32cd" stroke-dasharray="5,2" d="M311.251,-122.218C369.157,-122.218 444.91,-122.218 486.45,-122.218"/>
<polygon fill="#9a32cd" stroke="#9a32cd" points="311.025,-118.718 301.025,-122.218 311.025,-125.718 311.025,-118.718"/>
<text text-anchor="middle" x="379" y="-125.218" font-family="Helvetica,sans-Serif" font-size="10.00"> _idGenerator</text>
</g>
<!-- Node5 -->
<g id="node4" class="node"><title>Node5</title>
<g id="a_node4"><a xlink:href="class_igor_aux_1_1ia_mutex.html" target="_top" xlink:title=" ">
<polygon fill="white" stroke="black" points="0,-154.718 0,-173.718 90,-173.718 90,-154.718 0,-154.718"/>
<text text-anchor="middle" x="45" y="-161.718" font-family="Helvetica,sans-Serif" font-size="10.00">IgorAux::iaMutex</text>
</a>
</g>
</g>
<!-- Node5&#45;&gt;Node4 -->
<g id="edge3" class="edge"><title>Node5&#45;&gt;Node4</title>
<path fill="none" stroke="#9a32cd" stroke-dasharray="5,2" d="M97.8462,-152.447C126.58,-145.924 161.848,-137.917 188.867,-131.783"/>
<polygon fill="#9a32cd" stroke="#9a32cd" points="96.9563,-149.06 87.9794,-154.687 98.5061,-155.886 96.9563,-149.06"/>
<text text-anchor="middle" x="126.5" y="-153.218" font-family="Helvetica,sans-Serif" font-size="10.00"> _mutex</text>
</g>
<!-- Node13 -->
<g id="node12" class="node"><title>Node13</title>
<g id="a_node12"><a xlink:href="class_igor_1_1i_data_update_queue.html" target="_top" xlink:title=" ">
<polygon fill="white" stroke="black" points="319,-223.718 319,-242.718 439,-242.718 439,-223.718 319,-223.718"/>
<text text-anchor="middle" x="379" y="-230.718" font-family="Helvetica,sans-Serif" font-size="10.00">Igor::iDataUpdateQueue</text>
</a>
</g>
</g>
<!-- Node5&#45;&gt;Node13 -->
<g id="edge15" class="edge"><title>Node5&#45;&gt;Node13</title>
<path fill="none" stroke="#9a32cd" stroke-dasharray="5,2" d="M100.07,-175.455C164.619,-188.87 271.438,-211.071 332.13,-223.684"/>
<polygon fill="#9a32cd" stroke="#9a32cd" points="100.59,-171.989 90.087,-173.38 99.1656,-178.842 100.59,-171.989"/>
<text text-anchor="middle" x="126.5" y="-188.218" font-family="Helvetica,sans-Serif" font-size="10.00"> _mutex</text>
</g>
<!-- Node6 -->
<g id="node5" class="node"><title>Node6</title>
<g id="a_node5"><a xlink:title=" ">
<polygon fill="white" stroke="#bfbfbf" points="30.5,-80.7177 30.5,-99.7177 59.5,-99.7177 59.5,-80.7177 30.5,-80.7177"/>
<text text-anchor="middle" x="45" y="-87.7177" font-family="Helvetica,sans-Serif" font-size="10.00">T</text>
</a>
</g>
</g>
<!-- Node6&#45;&gt;Node4 -->
<g id="edge4" class="edge"><title>Node6&#45;&gt;Node4</title>
<path fill="none" stroke="#9a32cd" stroke-dasharray="5,2" d="M69.5382,-94.2892C96.1735,-98.8964 140.461,-106.557 175.922,-112.691"/>
<polygon fill="#9a32cd" stroke="#9a32cd" points="70.0537,-90.8265 59.6035,-92.5708 68.8606,-97.7241 70.0537,-90.8265"/>
<text text-anchor="middle" x="126.5" y="-110.218" font-family="Helvetica,sans-Serif" font-size="10.00"> _nextID</text>
</g>
<!-- Node12 -->
<g id="node11" class="node"><title>Node12</title>
<g id="a_node11"><a xlink:href="class_igor_aux_1_1ia_matrix.html" target="_top" xlink:title=" ">
<polygon fill="white" stroke="black" points="175.5,-18.7177 175.5,-37.7177 288.5,-37.7177 288.5,-18.7177 175.5,-18.7177"/>
<text text-anchor="middle" x="232" y="-25.7177" font-family="Helvetica,sans-Serif" font-size="10.00">IgorAux::iaMatrix&lt; T &gt;</text>
</a>
</g>
</g>
<!-- Node6&#45;&gt;Node12 -->
<g id="edge12" class="edge"><title>Node6&#45;&gt;Node12</title>
<path fill="none" stroke="#9a32cd" stroke-dasharray="5,2" d="M68.1172,-75.061C79.5802,-67.8165 94.0667,-59.577 108,-54.2177 129.39,-45.9905 153.925,-40.1383 175.428,-36.0968"/>
<polygon fill="#9a32cd" stroke="#9a32cd" points="66.1086,-72.1923 59.6406,-80.5837 69.9299,-78.0573 66.1086,-72.1923"/>
<text text-anchor="middle" x="126.5" y="-90.2177" font-family="Helvetica,sans-Serif" font-size="10.00"> _w0</text>
<text text-anchor="middle" x="126.5" y="-79.2177" font-family="Helvetica,sans-Serif" font-size="10.00">_w1</text>
<text text-anchor="middle" x="126.5" y="-68.2177" font-family="Helvetica,sans-Serif" font-size="10.00">_w2</text>
<text text-anchor="middle" x="126.5" y="-57.2177" font-family="Helvetica,sans-Serif" font-size="10.00">_w3</text>
</g>
<!-- Node7 -->
<g id="node6" class="node"><title>Node7</title>
<g id="a_node6"><a xlink:href="class_igor_aux_1_1ia_string.html" target="_top" xlink:title=" ">
<polygon fill="white" stroke="black" points="187.5,-155.718 187.5,-174.718 276.5,-174.718 276.5,-155.718 187.5,-155.718"/>
<text text-anchor="middle" x="232" y="-162.718" font-family="Helvetica,sans-Serif" font-size="10.00">IgorAux::iaString</text>
</a>
</g>
</g>
<!-- Node7&#45;&gt;Node3 -->
<g id="edge5" class="edge"><title>Node7&#45;&gt;Node3</title>
<path fill="none" stroke="#9a32cd" stroke-dasharray="5,2" d="M286.438,-158.772C328.093,-153.549 387.341,-145.689 439,-137.218 454.649,-134.651 471.979,-131.364 486.321,-128.521"/>
<polygon fill="#9a32cd" stroke="#9a32cd" points="285.998,-155.299 276.507,-160.008 286.863,-162.246 285.998,-155.299"/>
<text text-anchor="middle" x="379" y="-158.218" font-family="Helvetica,sans-Serif" font-size="10.00"> _name</text>
</g>
<!-- Node7&#45;&gt;Node8 -->
<g id="edge7" class="edge"><title>Node7&#45;&gt;Node8</title>
<path fill="none" stroke="#9a32cd" stroke-dasharray="5,2" d="M286.785,-168.767C297.455,-169.352 308.579,-169.878 319,-170.218 490.911,-175.83 535.542,-195.213 706,-172.218 718.388,-170.546 731.748,-167.173 743.15,-163.794"/>
<polygon fill="#9a32cd" stroke="#9a32cd" points="286.914,-165.269 276.731,-168.192 286.515,-172.257 286.914,-165.269"/>
<text text-anchor="middle" x="518" y="-186.218" font-family="Helvetica,sans-Serif" font-size="10.00"> _name</text>
</g>
<!-- Node8&#45;&gt;Node3 -->
<g id="edge6" class="edge"><title>Node8&#45;&gt;Node3</title>
<path fill="none" stroke="#9a32cd" stroke-dasharray="5,2" d="M728.347,-156.601C692.799,-157.702 641.229,-157.309 597,-149.218 577.406,-145.633 556.095,-137.981 540.707,-131.736"/>
<polygon fill="#9a32cd" stroke="#9a32cd" points="728.517,-160.097 738.384,-156.237 728.264,-153.102 728.517,-160.097"/>
<text text-anchor="middle" x="651.5" y="-160.218" font-family="Helvetica,sans-Serif" font-size="10.00"> _scene</text>
</g>
<!-- Node9 -->
<g id="node8" class="node"><title>Node9</title>
<g id="a_node8"><a xlink:href="class_igor_1_1i_octree.html" target="_top" xlink:title=" ">
<polygon fill="white" stroke="black" points="483,-74.7177 483,-93.7177 553,-93.7177 553,-74.7177 483,-74.7177"/>
<text text-anchor="middle" x="518" y="-81.7177" font-family="Helvetica,sans-Serif" font-size="10.00">Igor::iOctree</text>
</a>
</g>
</g>
<!-- Node9&#45;&gt;Node8 -->
<g id="edge8" class="edge"><title>Node9&#45;&gt;Node8</title>
<path fill="none" stroke="#9a32cd" stroke-dasharray="5,2" d="M563.671,-84.8125C602.459,-86.629 659.539,-92.4726 706,-110.218 726.988,-118.234 747.966,-134.037 760.334,-144.36"/>
<polygon fill="#9a32cd" stroke="#9a32cd" points="563.37,-81.298 553.239,-84.4005 563.093,-88.2926 563.37,-81.298"/>
<text text-anchor="middle" x="651.5" y="-113.218" font-family="Helvetica,sans-Serif" font-size="10.00"> _octree</text>
</g>
<!-- Node10 -->
<g id="node9" class="node"><title>Node10</title>
<g id="a_node9"><a xlink:href="class_igor_1_1i_node_visitor_update_transform.html" target="_top" xlink:title=" ">
<polygon fill="white" stroke="black" points="457,-25.2177 457,-55.2177 579,-55.2177 579,-25.2177 457,-25.2177"/>
<text text-anchor="start" x="465" y="-43.2177" font-family="Helvetica,sans-Serif" font-size="10.00">Igor::iNodeVisitorUpdate</text>
<text text-anchor="middle" x="518" y="-32.2177" font-family="Helvetica,sans-Serif" font-size="10.00">Transform</text>
</a>
</g>
</g>
<!-- Node10&#45;&gt;Node8 -->
<g id="edge9" class="edge"><title>Node10&#45;&gt;Node8</title>
<path fill="none" stroke="#9a32cd" stroke-dasharray="5,2" d="M589.334,-40.9768C626.248,-44.1459 670.957,-52.5562 706,-73.2177 735.755,-90.7616 757.571,-127.216 766.731,-144.597"/>
<polygon fill="#9a32cd" stroke="#9a32cd" points="589.376,-37.4703 579.143,-40.2161 588.855,-44.4509 589.376,-37.4703"/>
<text text-anchor="middle" x="651.5" y="-76.2177" font-family="Helvetica,sans-Serif" font-size="10.00"> _updateTransformVisitor</text>
</g>
<!-- Node11 -->
<g id="node10" class="node"><title>Node11</title>
<g id="a_node10"><a xlink:href="class_igor_1_1i_node_visitor.html" target="_top" xlink:title=" ">
<polygon fill="white" stroke="black" points="186.5,-56.7177 186.5,-75.7177 277.5,-75.7177 277.5,-56.7177 186.5,-56.7177"/>
<text text-anchor="middle" x="232" y="-63.7177" font-family="Helvetica,sans-Serif" font-size="10.00">Igor::iNodeVisitor</text>
</a>
</g>
</g>
<!-- Node11&#45;&gt;Node10 -->
<g id="edge10" class="edge"><title>Node11&#45;&gt;Node10</title>
<path fill="none" stroke="midnightblue" d="M287.891,-63.7554C329.457,-61.5835 387.926,-57.8718 439,-52.2177 444.719,-51.5846 450.662,-50.8362 456.6,-50.0274"/>
<polygon fill="midnightblue" stroke="midnightblue" points="287.511,-60.2701 277.702,-64.2746 287.867,-67.261 287.511,-60.2701"/>
</g>
<!-- Node12&#45;&gt;Node2 -->
<g id="edge17" class="edge"><title>Node12&#45;&gt;Node2</title>
<path fill="none" stroke="#9a32cd" stroke-dasharray="5,2" d="M295.781,-17.1245C365.21,-6.42453 480.312,6.67039 579,-4.21774 636.183,-10.5266 701.216,-27.0737 739.169,-37.7043"/>
<polygon fill="#9a32cd" stroke="#9a32cd" points="295.21,-13.6711 285.876,-18.6827 296.298,-20.586 295.21,-13.6711"/>
<text text-anchor="middle" x="518" y="-7.21774" font-family="Helvetica,sans-Serif" font-size="10.00"> _worldMatrix</text>
</g>
<!-- Node12&#45;&gt;Node10 -->
<g id="edge11" class="edge"><title>Node12&#45;&gt;Node10</title>
<path fill="none" stroke="#9a32cd" stroke-dasharray="5,2" d="M298.998,-31.0064C346.711,-33.0224 410.656,-35.7243 456.942,-37.6801"/>
<polygon fill="#9a32cd" stroke="#9a32cd" points="298.909,-27.4996 288.77,-30.5742 298.614,-34.4934 298.909,-27.4996"/>
<text text-anchor="middle" x="379" y="-40.2177" font-family="Helvetica,sans-Serif" font-size="10.00"> _currentMatrix</text>
</g>
<!-- Node13&#45;&gt;Node8 -->
<g id="edge14" class="edge"><title>Node13&#45;&gt;Node8</title>
<path fill="none" stroke="#9a32cd" stroke-dasharray="5,2" d="M449.237,-240.982C517.276,-245.801 622.72,-245.621 706,-211.218 730.8,-200.973 752.779,-177.418 763.87,-164.015"/>
<polygon fill="#9a32cd" stroke="#9a32cd" points="449.3,-237.477 439.062,-240.204 448.766,-244.456 449.3,-237.477"/>
<text text-anchor="middle" x="518" y="-246.218" font-family="Helvetica,sans-Serif" font-size="10.00"> _dataUpdateQueue</text>
</g>
</g>
</svg>
