<?xml version="1.0" encoding="UTF-8" standalone="no"?>
<!DOCTYPE svg PUBLIC "-//W3C//DTD SVG 1.1//EN"
 "http://www.w3.org/Graphics/SVG/1.1/DTD/svg11.dtd">
<!-- Generated by graphviz version 2.38.0 (20140413.2041)
 -->
<!-- Title: Igor::iPhysics::createMaterial Pages: 1 -->
<svg width="312pt" height="166pt"
 viewBox="0.00 0.00 312.00 165.50" xmlns="http://www.w3.org/2000/svg" xmlns:xlink="http://www.w3.org/1999/xlink">
<g id="graph0" class="graph" transform="scale(1 1) rotate(0) translate(4 161.5)">
<title>Igor::iPhysics::createMaterial</title>
<polygon fill="white" stroke="none" points="-4,4 -4,-161.5 308,-161.5 308,4 -4,4"/>
<!-- Node120 -->
<g id="node1" class="node"><title>Node120</title>
<g id="a_node1"><a xlink:title=" ">
<polygon fill="#bfbfbf" stroke="black" points="0,-66.5 0,-85.5 143,-85.5 143,-66.5 0,-66.5"/>
<text text-anchor="middle" x="71.5" y="-73.5" font-family="Helvetica,sans-Serif" font-size="10.00">Igor::iPhysics::createMaterial</text>
</a>
</g>
</g>
<!-- Node121 -->
<g id="node2" class="node"><title>Node121</title>
<g id="a_node2"><a xlink:href="class_igor_1_1i_physics_material.html#afb291832a8f40a984b2e527e1ab71429" target="_top" xlink:title=" ">
<polygon fill="white" stroke="black" points="186.5,-127 186.5,-157 296.5,-157 296.5,-127 186.5,-127"/>
<text text-anchor="start" x="194.5" y="-145" font-family="Helvetica,sans-Serif" font-size="10.00">Igor::iPhysicsMaterial</text>
<text text-anchor="middle" x="241.5" y="-134" font-family="Helvetica,sans-Serif" font-size="10.00">::setName</text>
</a>
</g>
</g>
<!-- Node120&#45;&gt;Node121 -->
<g id="edge1" class="edge"><title>Node120&#45;&gt;Node121</title>
<path fill="none" stroke="midnightblue" d="M96.9286,-85.597C121.918,-95.4142 161.399,-110.925 192.64,-123.198"/>
<polygon fill="midnightblue" stroke="midnightblue" points="191.458,-126.494 202.045,-126.893 194.018,-119.979 191.458,-126.494"/>
</g>
<!-- Node122 -->
<g id="node3" class="node"><title>Node122</title>
<g id="a_node3"><a xlink:href="class_igor_aux_1_1ia_mutex.html#ab0873c1f25730bd85d6b71d167520921" target="_top" xlink:title=" ">
<polygon fill="white" stroke="black" points="184.5,-88.5 184.5,-107.5 298.5,-107.5 298.5,-88.5 184.5,-88.5"/>
<text text-anchor="middle" x="241.5" y="-95.5" font-family="Helvetica,sans-Serif" font-size="10.00">IgorAux::iaMutex::lock</text>
</a>
</g>
</g>
<!-- Node120&#45;&gt;Node122 -->
<g id="edge2" class="edge"><title>Node120&#45;&gt;Node122</title>
<path fill="none" stroke="midnightblue" d="M143.26,-85.2662C153.55,-86.6137 164.112,-87.9969 174.308,-89.3319"/>
<polygon fill="midnightblue" stroke="midnightblue" points="173.987,-92.8198 184.357,-90.6479 174.896,-85.879 173.987,-92.8198"/>
</g>
<!-- Node123 -->
<g id="node4" class="node"><title>Node123</title>
<g id="a_node4"><a xlink:href="class_igor_1_1i_physics_material.html#a0cc33137715f8af6f0d1ab03a43396cf" target="_top" xlink:title=" ">
<polygon fill="white" stroke="black" points="186.5,-39 186.5,-69 296.5,-69 296.5,-39 186.5,-39"/>
<text text-anchor="start" x="194.5" y="-57" font-family="Helvetica,sans-Serif" font-size="10.00">Igor::iPhysicsMaterial</text>
<text text-anchor="middle" x="241.5" y="-46" font-family="Helvetica,sans-Serif" font-size="10.00">::getID</text>
</a>
</g>
</g>
<!-- Node120&#45;&gt;Node123 -->
<g id="edge3" class="edge"><title>Node120&#45;&gt;Node123</title>
<path fill="none" stroke="midnightblue" d="M143.26,-66.7338C154.201,-65.301 165.45,-63.828 176.237,-62.4153"/>
<polygon fill="midnightblue" stroke="midnightblue" points="176.954,-65.8515 186.414,-61.0826 176.045,-58.9108 176.954,-65.8515"/>
</g>
<!-- Node124 -->
<g id="node5" class="node"><title>Node124</title>
<g id="a_node5"><a xlink:href="class_igor_aux_1_1ia_mutex.html#a3beb078a1f64de265044ece54657c279" target="_top" xlink:title=" ">
<polygon fill="white" stroke="black" points="179,-0.5 179,-19.5 304,-19.5 304,-0.5 179,-0.5"/>
<text text-anchor="middle" x="241.5" y="-7.5" font-family="Helvetica,sans-Serif" font-size="10.00">IgorAux::iaMutex::unlock</text>
</a>
</g>
</g>
<!-- Node120&#45;&gt;Node124 -->
<g id="edge4" class="edge"><title>Node120&#45;&gt;Node124</title>
<path fill="none" stroke="midnightblue" d="M93.0809,-66.43C114.362,-56.6961 148.665,-41.4554 179,-30 185.563,-27.5216 192.586,-25.0616 199.454,-22.7586"/>
<polygon fill="midnightblue" stroke="midnightblue" points="200.925,-25.9595 209.333,-19.513 198.74,-19.3092 200.925,-25.9595"/>
</g>
</g>
</svg>
