<?xml version="1.0" encoding="UTF-8" standalone="no"?>
<!DOCTYPE svg PUBLIC "-//W3C//DTD SVG 1.1//EN"
 "http://www.w3.org/Graphics/SVG/1.1/DTD/svg11.dtd">
<!-- Generated by graphviz version 2.38.0 (20140413.2041)
 -->
<!-- Title: Igor::iPixmap::getWidth Pages: 1 -->
<svg width="310pt" height="88pt"
 viewBox="0.00 0.00 310.00 88.00" xmlns="http://www.w3.org/2000/svg" xmlns:xlink="http://www.w3.org/1999/xlink">
<g id="graph0" class="graph" transform="scale(1 1) rotate(0) translate(4 84)">
<title>Igor::iPixmap::getWidth</title>
<polygon fill="white" stroke="none" points="-4,4 -4,-84 306,-84 306,4 -4,4"/>
<!-- Node1 -->
<g id="node1" class="node"><title>Node1</title>
<polygon fill="#bfbfbf" stroke="black" points="0,-30 0,-49 119,-49 119,-30 0,-30"/>
<text text-anchor="middle" x="59.5" y="-37" font-family="Helvetica,sans-Serif" font-size="10.00">Igor::iPixmap::getWidth</text>
</g>
<!-- Node2 -->
<g id="node2" class="node"><title>Node2</title>
<g id="a_node2"><a xlink:href="class_igor_1_1i_texture_font.html#a3cb874f65070247f89e95060484dd3fa" target="_top" xlink:title="Igor::iTextureFont\l::iTextureFont">
<polygon fill="white" stroke="black" points="182.5,-49.5 182.5,-79.5 274.5,-79.5 274.5,-49.5 182.5,-49.5"/>
<text text-anchor="start" x="190.5" y="-67.5" font-family="Helvetica,sans-Serif" font-size="10.00">Igor::iTextureFont</text>
<text text-anchor="middle" x="228.5" y="-56.5" font-family="Helvetica,sans-Serif" font-size="10.00">::iTextureFont</text>
</a>
</g>
</g>
<!-- Node1&#45;&gt;Node2 -->
<g id="edge1" class="edge"><title>Node1&#45;&gt;Node2</title>
<path fill="none" stroke="midnightblue" d="M129.699,-49.8592C147.447,-52.516 166.082,-55.3057 182.27,-57.729"/>
<polygon fill="midnightblue" stroke="midnightblue" points="129.786,-46.3332 119.378,-48.3141 128.75,-53.2561 129.786,-46.3332"/>
</g>
<!-- Node3 -->
<g id="node3" class="node"><title>Node3</title>
<g id="a_node3"><a xlink:href="class_igor_1_1i_texture_resource_factory.html#abc70422421a7945de647dceb8db76cd3" target="_top" xlink:title="Igor::iTextureResourceFactory\l::loadFromPixmap">
<polygon fill="white" stroke="black" points="155,-0.5 155,-30.5 302,-30.5 302,-0.5 155,-0.5"/>
<text text-anchor="start" x="163" y="-18.5" font-family="Helvetica,sans-Serif" font-size="10.00">Igor::iTextureResourceFactory</text>
<text text-anchor="middle" x="228.5" y="-7.5" font-family="Helvetica,sans-Serif" font-size="10.00">::loadFromPixmap</text>
</a>
</g>
</g>
<!-- Node1&#45;&gt;Node3 -->
<g id="edge2" class="edge"><title>Node1&#45;&gt;Node3</title>
<path fill="none" stroke="midnightblue" d="M129.46,-29.5896C137.826,-28.3873 146.393,-27.1561 154.811,-25.9463"/>
<polygon fill="midnightblue" stroke="midnightblue" points="128.778,-26.1515 119.378,-31.0385 129.774,-33.0803 128.778,-26.1515"/>
</g>
</g>
</svg>
