<?xml version="1.0" encoding="UTF-8" standalone="no"?>
<!DOCTYPE svg PUBLIC "-//W3C//DTD SVG 1.1//EN"
 "http://www.w3.org/Graphics/SVG/1.1/DTD/svg11.dtd">
<!-- Generated by graphviz version 2.38.0 (20140413.2041)
 -->
<!-- Title: Igor::iPhysicsBody::setTransformNodeMatrix Pages: 1 -->
<svg width="789pt" height="199pt"
 viewBox="0.00 0.00 789.00 199.00" xmlns="http://www.w3.org/2000/svg" xmlns:xlink="http://www.w3.org/1999/xlink">
<g id="graph0" class="graph" transform="scale(1 1) rotate(0) translate(4 195)">
<title>Igor::iPhysicsBody::setTransformNodeMatrix</title>
<polygon fill="white" stroke="none" points="-4,4 -4,-195 785,-195 785,4 -4,4"/>
<!-- Node1 -->
<g id="node1" class="node"><title>Node1</title>
<polygon fill="#bfbfbf" stroke="black" points="0,-111.5 0,-141.5 128,-141.5 128,-111.5 0,-111.5"/>
<text text-anchor="start" x="8" y="-129.5" font-family="Helvetica,sans-Serif" font-size="10.00">Igor::iPhysicsBody</text>
<text text-anchor="middle" x="64" y="-118.5" font-family="Helvetica,sans-Serif" font-size="10.00">::setTransformNodeMatrix</text>
</g>
<!-- Node2 -->
<g id="node2" class="node"><title>Node2</title>
<g id="a_node2"><a xlink:href="class_igor_1_1i_node_transform.html#af9faf556c676307b03065ad556015aa3" target="_top" xlink:title="Igor::iNodeTransform\l::setMatrix">
<polygon fill="white" stroke="black" points="164,-111.5 164,-141.5 270,-141.5 270,-111.5 164,-111.5"/>
<text text-anchor="start" x="172" y="-129.5" font-family="Helvetica,sans-Serif" font-size="10.00">Igor::iNodeTransform</text>
<text text-anchor="middle" x="217" y="-118.5" font-family="Helvetica,sans-Serif" font-size="10.00">::setMatrix</text>
</a>
</g>
</g>
<!-- Node1&#45;&gt;Node2 -->
<g id="edge1" class="edge"><title>Node1&#45;&gt;Node2</title>
<path fill="none" stroke="midnightblue" d="M128.163,-126.5C136.551,-126.5 145.148,-126.5 153.525,-126.5"/>
<polygon fill="midnightblue" stroke="midnightblue" points="153.605,-130 163.605,-126.5 153.605,-123 153.605,-130"/>
</g>
<!-- Node3 -->
<g id="node3" class="node"><title>Node3</title>
<g id="a_node3"><a xlink:href="class_igor_aux_1_1ia_matrix.html#a4239bef6ee96a682ec474e30a871ae41" target="_top" xlink:title="IgorAux::iaMatrix::\lsetData">
<polygon fill="white" stroke="black" points="331,-160.5 331,-190.5 427,-190.5 427,-160.5 331,-160.5"/>
<text text-anchor="start" x="339" y="-178.5" font-family="Helvetica,sans-Serif" font-size="10.00">IgorAux::iaMatrix::</text>
<text text-anchor="middle" x="379" y="-167.5" font-family="Helvetica,sans-Serif" font-size="10.00">setData</text>
</a>
</g>
</g>
<!-- Node2&#45;&gt;Node3 -->
<g id="edge2" class="edge"><title>Node2&#45;&gt;Node3</title>
<path fill="none" stroke="midnightblue" d="M267.311,-141.601C284.355,-146.821 303.59,-152.712 321.186,-158.101"/>
<polygon fill="midnightblue" stroke="midnightblue" points="320.182,-161.454 330.769,-161.036 322.232,-154.761 320.182,-161.454"/>
</g>
<!-- Node4 -->
<g id="node4" class="node"><title>Node4</title>
<g id="a_node4"><a xlink:href="class_igor_aux_1_1ia_matrix.html#a996b71eeda2c5f6e6fc621149f01015d" target="_top" xlink:title="IgorAux::iaMatrix::\lgetData">
<polygon fill="white" stroke="black" points="331,-111.5 331,-141.5 427,-141.5 427,-111.5 331,-111.5"/>
<text text-anchor="start" x="339" y="-129.5" font-family="Helvetica,sans-Serif" font-size="10.00">IgorAux::iaMatrix::</text>
<text text-anchor="middle" x="379" y="-118.5" font-family="Helvetica,sans-Serif" font-size="10.00">getData</text>
</a>
</g>
</g>
<!-- Node2&#45;&gt;Node4 -->
<g id="edge3" class="edge"><title>Node2&#45;&gt;Node4</title>
<path fill="none" stroke="midnightblue" d="M270.39,-126.5C286.541,-126.5 304.404,-126.5 320.859,-126.5"/>
<polygon fill="midnightblue" stroke="midnightblue" points="320.894,-130 330.894,-126.5 320.894,-123 320.894,-130"/>
</g>
<!-- Node5 -->
<g id="node5" class="node"><title>Node5</title>
<g id="a_node5"><a xlink:href="class_igor_1_1i_node.html#a3be538d0d60b148b1eae5cd5892d279d" target="_top" xlink:title="Igor::iNode::setTransformation\lDirty">
<polygon fill="white" stroke="black" points="306,-62.5 306,-92.5 452,-92.5 452,-62.5 306,-62.5"/>
<text text-anchor="start" x="314" y="-80.5" font-family="Helvetica,sans-Serif" font-size="10.00">Igor::iNode::setTransformation</text>
<text text-anchor="middle" x="379" y="-69.5" font-family="Helvetica,sans-Serif" font-size="10.00">Dirty</text>
</a>
</g>
</g>
<!-- Node2&#45;&gt;Node5 -->
<g id="edge4" class="edge"><title>Node2&#45;&gt;Node5</title>
<path fill="none" stroke="midnightblue" d="M267.311,-111.399C283.66,-106.392 302.024,-100.768 319.025,-95.561"/>
<polygon fill="midnightblue" stroke="midnightblue" points="320.315,-98.8265 328.852,-92.5516 318.265,-92.1333 320.315,-98.8265"/>
</g>
<!-- Node6 -->
<g id="node6" class="node"><title>Node6</title>
<g id="a_node6"><a xlink:href="class_igor_1_1i_node.html#afcf6efd30c85e8c37a4261a6f27613b8" target="_top" xlink:title="Igor::iNode::isChild">
<polygon fill="white" stroke="black" points="512,-106 512,-125 610,-125 610,-106 512,-106"/>
<text text-anchor="middle" x="561" y="-113" font-family="Helvetica,sans-Serif" font-size="10.00">Igor::iNode::isChild</text>
</a>
</g>
</g>
<!-- Node5&#45;&gt;Node6 -->
<g id="edge5" class="edge"><title>Node5&#45;&gt;Node6</title>
<path fill="none" stroke="midnightblue" d="M451.141,-92.5186C468.963,-96.281 487.817,-100.261 504.737,-103.833"/>
<polygon fill="midnightblue" stroke="midnightblue" points="504.488,-107.358 514.996,-105.999 505.934,-100.509 504.488,-107.358"/>
</g>
<!-- Node7 -->
<g id="node7" class="node"><title>Node7</title>
<g id="a_node7"><a xlink:href="class_igor_1_1i_node.html#a1b3d40431eb4c1c79e5d93ef7fe68129" target="_top" xlink:title="Igor::iNode::getParent">
<polygon fill="white" stroke="black" points="670,-37 670,-56 781,-56 781,-37 670,-37"/>
<text text-anchor="middle" x="725.5" y="-44" font-family="Helvetica,sans-Serif" font-size="10.00">Igor::iNode::getParent</text>
</a>
</g>
</g>
<!-- Node5&#45;&gt;Node7 -->
<g id="edge6" class="edge"><title>Node5&#45;&gt;Node7</title>
<path fill="none" stroke="midnightblue" d="M452.083,-73.209C502.982,-69.9102 572.751,-64.8463 634,-58.5 642.272,-57.6429 650.954,-56.6331 659.532,-55.5691"/>
<polygon fill="midnightblue" stroke="midnightblue" points="660.043,-59.0325 669.522,-54.3012 659.161,-52.0882 660.043,-59.0325"/>
</g>
<!-- Node8 -->
<g id="node8" class="node"><title>Node8</title>
<g id="a_node8"><a xlink:href="class_igor_1_1i_node.html#a66b6ecf7babaffce68852de186068e01" target="_top" xlink:title="Igor::iNode::setTransformation\lDirtyUp">
<polygon fill="white" stroke="black" points="488,-0.5 488,-30.5 634,-30.5 634,-0.5 488,-0.5"/>
<text text-anchor="start" x="496" y="-18.5" font-family="Helvetica,sans-Serif" font-size="10.00">Igor::iNode::setTransformation</text>
<text text-anchor="middle" x="561" y="-7.5" font-family="Helvetica,sans-Serif" font-size="10.00">DirtyUp</text>
</a>
</g>
</g>
<!-- Node5&#45;&gt;Node8 -->
<g id="edge7" class="edge"><title>Node5&#45;&gt;Node8</title>
<path fill="none" stroke="midnightblue" d="M423.573,-62.4915C448.593,-53.8736 480.205,-42.9851 506.697,-33.8598"/>
<polygon fill="midnightblue" stroke="midnightblue" points="507.889,-37.1511 516.204,-30.5851 505.61,-30.5327 507.889,-37.1511"/>
</g>
<!-- Node8&#45;&gt;Node7 -->
<g id="edge8" class="edge"><title>Node8&#45;&gt;Node7</title>
<path fill="none" stroke="midnightblue" d="M634.221,-29.2776C644.287,-31.1978 654.54,-33.1538 664.352,-35.0256"/>
<polygon fill="midnightblue" stroke="midnightblue" points="663.912,-38.5048 674.391,-36.9407 665.224,-31.6288 663.912,-38.5048"/>
</g>
<!-- Node8&#45;&gt;Node8 -->
<g id="edge9" class="edge"><title>Node8&#45;&gt;Node8</title>
<path fill="none" stroke="midnightblue" d="M532.42,-30.659C525.528,-40.0566 535.055,-49 561,-49 576.81,-49 586.524,-45.679 590.141,-40.9579"/>
<polygon fill="midnightblue" stroke="midnightblue" points="593.619,-40.454 589.58,-30.659 586.629,-40.8344 593.619,-40.454"/>
</g>
</g>
</svg>
