<?xml version="1.0" encoding="UTF-8" standalone="no"?>
<!DOCTYPE svg PUBLIC "-//W3C//DTD SVG 1.1//EN"
 "http://www.w3.org/Graphics/SVG/1.1/DTD/svg11.dtd">
<!-- Generated by graphviz version 2.38.0 (20140413.2041)
 -->
<!-- Title: Igor::iTaskManager::iTaskManager Pages: 1 -->
<svg width="729pt" height="489pt"
 viewBox="0.00 0.00 729.00 489.40" xmlns="http://www.w3.org/2000/svg" xmlns:xlink="http://www.w3.org/1999/xlink">
<g id="graph0" class="graph" transform="scale(1 1) rotate(0) translate(4 485.401)">
<title>Igor::iTaskManager::iTaskManager</title>
<polygon fill="white" stroke="none" points="-4,4 -4,-485.401 725,-485.401 725,4 -4,4"/>
<!-- Node0 -->
<g id="node1" class="node"><title>Node0</title>
<g id="a_node1"><a xlink:title=" ">
<polygon fill="#bfbfbf" stroke="black" points="0,-314.401 0,-344.401 99,-344.401 99,-314.401 0,-314.401"/>
<text text-anchor="start" x="8" y="-332.401" font-family="Helvetica,sans-Serif" font-size="10.00">Igor::iTaskManager</text>
<text text-anchor="middle" x="49.5" y="-321.401" font-family="Helvetica,sans-Serif" font-size="10.00">::iTaskManager</text>
</a>
</g>
</g>
<!-- Node1 -->
<g id="node2" class="node"><title>Node1</title>
<g id="a_node2"><a xlink:href="class_igor_1_1i_task_manager.html#a8af31ae39ff0bef36e31483276e5d206" target="_top" xlink:title=" ">
<polygon fill="white" stroke="black" points="135,-314.401 135,-344.401 247,-344.401 247,-314.401 135,-314.401"/>
<text text-anchor="start" x="143" y="-332.401" font-family="Helvetica,sans-Serif" font-size="10.00">Igor::iTaskManager</text>
<text text-anchor="middle" x="191" y="-321.401" font-family="Helvetica,sans-Serif" font-size="10.00">::createRegularThread</text>
</a>
</g>
</g>
<!-- Node0&#45;&gt;Node1 -->
<g id="edge1" class="edge"><title>Node0&#45;&gt;Node1</title>
<path fill="none" stroke="midnightblue" d="M99.2903,-329.401C107.535,-329.401 116.211,-329.401 124.794,-329.401"/>
<polygon fill="midnightblue" stroke="midnightblue" points="124.797,-332.901 134.797,-329.401 124.797,-325.901 124.797,-332.901"/>
</g>
<!-- Node2 -->
<g id="node3" class="node"><title>Node2</title>
<g id="a_node3"><a xlink:href="class_igor_1_1i_thread.html#a98bcb4a3b3cc363d0c3773ac4a593b7d" target="_top" xlink:title=" ">
<polygon fill="white" stroke="black" points="299.5,-461.901 299.5,-480.901 388.5,-480.901 388.5,-461.901 299.5,-461.901"/>
<text text-anchor="middle" x="344" y="-468.901" font-family="Helvetica,sans-Serif" font-size="10.00">Igor::iThread::run</text>
</a>
</g>
</g>
<!-- Node1&#45;&gt;Node2 -->
<g id="edge2" class="edge"><title>Node1&#45;&gt;Node2</title>
<path fill="none" stroke="midnightblue" d="M200.08,-344.536C213.968,-369.243 244.612,-418.388 283,-447.401 288.412,-451.491 294.615,-454.989 300.933,-457.944"/>
<polygon fill="midnightblue" stroke="midnightblue" points="299.623,-461.19 310.194,-461.894 302.369,-454.751 299.623,-461.19"/>
</g>
<!-- Node3 -->
<g id="node4" class="node"><title>Node3</title>
<g id="a_node4"><a xlink:href="class_igor_1_1i_task_manager.html#a8f02fd3959c51b04be63e493900f7ffd" target="_top" xlink:title=" ">
<polygon fill="white" stroke="black" points="283,-210.401 283,-240.401 405,-240.401 405,-210.401 283,-210.401"/>
<text text-anchor="start" x="291" y="-228.401" font-family="Helvetica,sans-Serif" font-size="10.00">Igor::iTaskManager</text>
<text text-anchor="middle" x="344" y="-217.401" font-family="Helvetica,sans-Serif" font-size="10.00">::workWithRegularTasks</text>
</a>
</g>
</g>
<!-- Node1&#45;&gt;Node3 -->
<g id="edge3" class="edge"><title>Node1&#45;&gt;Node3</title>
<path fill="none" stroke="midnightblue" d="M213.957,-314.279C239.901,-296.409 283.226,-266.57 312.439,-246.45"/>
<polygon fill="midnightblue" stroke="midnightblue" points="314.766,-249.096 321.017,-240.542 310.796,-243.332 314.766,-249.096"/>
</g>
<!-- Node6 -->
<g id="node7" class="node"><title>Node6</title>
<g id="a_node7"><a xlink:href="class_igor_aux_1_1ia_mutex.html#ab0873c1f25730bd85d6b71d167520921" target="_top" xlink:title=" ">
<polygon fill="white" stroke="black" points="601.5,-259.901 601.5,-278.901 715.5,-278.901 715.5,-259.901 601.5,-259.901"/>
<text text-anchor="middle" x="658.5" y="-266.901" font-family="Helvetica,sans-Serif" font-size="10.00">IgorAux::iaMutex::lock</text>
</a>
</g>
</g>
<!-- Node1&#45;&gt;Node6 -->
<g id="edge16" class="edge"><title>Node1&#45;&gt;Node6</title>
<path fill="none" stroke="midnightblue" d="M214.118,-344.564C273.533,-383.253 440.202,-478.21 560,-414.401 610.275,-387.623 639.253,-322.117 651.128,-289.102"/>
<polygon fill="midnightblue" stroke="midnightblue" points="654.572,-289.849 654.506,-279.255 647.951,-287.578 654.572,-289.849"/>
</g>
<!-- Node7 -->
<g id="node8" class="node"><title>Node7</title>
<g id="a_node8"><a xlink:href="class_igor_aux_1_1ia_mutex.html#a3beb078a1f64de265044ece54657c279" target="_top" xlink:title=" ">
<polygon fill="white" stroke="black" points="596,-19.901 596,-38.901 721,-38.901 721,-19.901 596,-19.901"/>
<text text-anchor="middle" x="658.5" y="-26.901" font-family="Helvetica,sans-Serif" font-size="10.00">IgorAux::iaMutex::unlock</text>
</a>
</g>
</g>
<!-- Node1&#45;&gt;Node7 -->
<g id="edge17" class="edge"><title>Node1&#45;&gt;Node7</title>
<path fill="none" stroke="midnightblue" d="M198.036,-314.173C220.339,-260.331 303.978,-78.7917 441,-15.401 499.354,11.5952 576.149,-3.6361 620.846,-16.783"/>
<polygon fill="midnightblue" stroke="midnightblue" points="620.096,-20.2138 630.683,-19.7963 622.147,-13.5208 620.096,-20.2138"/>
</g>
<!-- Node4 -->
<g id="node5" class="node"><title>Node4</title>
<g id="a_node5"><a xlink:href="class_igor_1_1i_task_manager.html#adfa0bd6c22c3afe1709e626e8197794e" target="_top" xlink:title=" ">
<polygon fill="white" stroke="black" points="451,-298.401 451,-328.401 550,-328.401 550,-298.401 451,-298.401"/>
<text text-anchor="start" x="459" y="-316.401" font-family="Helvetica,sans-Serif" font-size="10.00">Igor::iTaskManager</text>
<text text-anchor="middle" x="500.5" y="-305.401" font-family="Helvetica,sans-Serif" font-size="10.00">::isRunning</text>
</a>
</g>
</g>
<!-- Node3&#45;&gt;Node4 -->
<g id="edge4" class="edge"><title>Node3&#45;&gt;Node4</title>
<path fill="none" stroke="midnightblue" d="M368.794,-240.41C388.057,-252.406 416,-269.461 441,-283.401 447.095,-286.8 453.615,-290.286 460.011,-293.624"/>
<polygon fill="midnightblue" stroke="midnightblue" points="458.735,-296.905 469.226,-298.382 461.946,-290.685 458.735,-296.905"/>
</g>
<!-- Node5 -->
<g id="node6" class="node"><title>Node5</title>
<g id="a_node6"><a xlink:href="class_igor_1_1i_task_manager.html#ad73b975973467369ec209771d8812f34" target="_top" xlink:title=" ">
<polygon fill="white" stroke="black" points="442.5,-210.401 442.5,-240.401 558.5,-240.401 558.5,-210.401 442.5,-210.401"/>
<text text-anchor="start" x="450.5" y="-228.401" font-family="Helvetica,sans-Serif" font-size="10.00">Igor::iTaskManager</text>
<text text-anchor="middle" x="500.5" y="-217.401" font-family="Helvetica,sans-Serif" font-size="10.00">::flushIncommingTasks</text>
</a>
</g>
</g>
<!-- Node3&#45;&gt;Node5 -->
<g id="edge5" class="edge"><title>Node3&#45;&gt;Node5</title>
<path fill="none" stroke="midnightblue" d="M405.176,-225.401C414.041,-225.401 423.221,-225.401 432.218,-225.401"/>
<polygon fill="midnightblue" stroke="midnightblue" points="432.272,-228.901 442.272,-225.401 432.272,-221.901 432.272,-228.901"/>
</g>
<!-- Node3&#45;&gt;Node6 -->
<g id="edge8" class="edge"><title>Node3&#45;&gt;Node6</title>
<path fill="none" stroke="midnightblue" d="M396.469,-240.495C410.782,-244.229 426.405,-247.878 441,-250.401 490.91,-259.027 548.007,-263.831 591.03,-266.449"/>
<polygon fill="midnightblue" stroke="midnightblue" points="590.908,-269.948 601.095,-267.038 591.316,-262.96 590.908,-269.948"/>
</g>
<!-- Node3&#45;&gt;Node7 -->
<g id="edge9" class="edge"><title>Node3&#45;&gt;Node7</title>
<path fill="none" stroke="midnightblue" d="M348.131,-210.268C356.321,-174.948 381.96,-87.14 441,-48.401 483.233,-20.69 540.502,-16.7659 585.531,-19.3282"/>
<polygon fill="midnightblue" stroke="midnightblue" points="585.31,-22.8212 595.526,-20.0134 585.789,-15.8376 585.31,-22.8212"/>
</g>
<!-- Node8 -->
<g id="node9" class="node"><title>Node8</title>
<g id="a_node9"><a xlink:href="class_igor_1_1i_task.html#ab17249cecf2b768cf4f74d4cbb46bdfc" target="_top" xlink:title=" ">
<polygon fill="white" stroke="black" points="447,-171.901 447,-190.901 554,-190.901 554,-171.901 447,-171.901"/>
<text text-anchor="middle" x="500.5" y="-178.901" font-family="Helvetica,sans-Serif" font-size="10.00">Igor::iTask::setWorld</text>
</a>
</g>
</g>
<!-- Node3&#45;&gt;Node8 -->
<g id="edge10" class="edge"><title>Node3&#45;&gt;Node8</title>
<path fill="none" stroke="midnightblue" d="M397.738,-210.382C416.768,-204.962 438.011,-198.912 456.146,-193.748"/>
<polygon fill="midnightblue" stroke="midnightblue" points="457.208,-197.084 465.867,-190.979 455.291,-190.352 457.208,-197.084"/>
</g>
<!-- Node9 -->
<g id="node10" class="node"><title>Node9</title>
<g id="a_node10"><a xlink:href="class_igor_1_1i_thread.html#a7f4710fe382459da77bf45aa05753fc1" target="_top" xlink:title=" ">
<polygon fill="white" stroke="black" points="443,-133.901 443,-152.901 558,-152.901 558,-133.901 443,-133.901"/>
<text text-anchor="middle" x="500.5" y="-140.901" font-family="Helvetica,sans-Serif" font-size="10.00">Igor::iThread::getWorld</text>
</a>
</g>
</g>
<!-- Node3&#45;&gt;Node9 -->
<g id="edge11" class="edge"><title>Node3&#45;&gt;Node9</title>
<path fill="none" stroke="midnightblue" d="M364.667,-210.231C383.447,-196.306 412.962,-175.855 441,-162.401 445.576,-160.205 450.47,-158.17 455.405,-156.311"/>
<polygon fill="midnightblue" stroke="midnightblue" points="456.616,-159.595 464.875,-152.958 454.28,-152.996 456.616,-159.595"/>
</g>
<!-- Node10 -->
<g id="node11" class="node"><title>Node10</title>
<g id="a_node11"><a xlink:href="class_igor_1_1i_task.html#a3d0a70a268a955d2f28700988959f779" target="_top" xlink:title=" ">
<polygon fill="white" stroke="black" points="460,-95.901 460,-114.901 541,-114.901 541,-95.901 460,-95.901"/>
<text text-anchor="middle" x="500.5" y="-102.901" font-family="Helvetica,sans-Serif" font-size="10.00">Igor::iTask::run</text>
</a>
</g>
</g>
<!-- Node3&#45;&gt;Node10 -->
<g id="edge12" class="edge"><title>Node3&#45;&gt;Node10</title>
<path fill="none" stroke="midnightblue" d="M355.619,-210.121C371.666,-188.12 404.162,-147.62 441,-124.401 444.31,-122.315 447.871,-120.436 451.543,-118.749"/>
<polygon fill="midnightblue" stroke="midnightblue" points="452.9,-121.976 460.821,-114.94 450.241,-115.5 452.9,-121.976"/>
</g>
<!-- Node11 -->
<g id="node12" class="node"><title>Node11</title>
<g id="a_node12"><a xlink:href="class_igor_1_1i_task.html#a3b8ccb97febe2fcdb52cb1ca61304e61" target="_top" xlink:title=" ">
<polygon fill="white" stroke="black" points="445,-57.901 445,-76.901 556,-76.901 556,-57.901 445,-57.901"/>
<text text-anchor="middle" x="500.5" y="-64.901" font-family="Helvetica,sans-Serif" font-size="10.00">Igor::iTask::finishTask</text>
</a>
</g>
</g>
<!-- Node3&#45;&gt;Node11 -->
<g id="edge13" class="edge"><title>Node3&#45;&gt;Node11</title>
<path fill="none" stroke="midnightblue" d="M351.533,-209.989C364.421,-181.407 395.841,-120.038 441,-86.401 443.612,-84.4554 446.432,-82.7038 449.373,-81.1274"/>
<polygon fill="midnightblue" stroke="midnightblue" points="450.876,-84.2887 458.475,-76.9057 447.93,-77.9386 450.876,-84.2887"/>
</g>
<!-- Node12 -->
<g id="node13" class="node"><title>Node12</title>
<g id="a_node13"><a xlink:href="class_igor_1_1i_task.html#ada585c97fa5855939e3aff26624fea51" target="_top" xlink:title=" ">
<polygon fill="white" stroke="black" points="441,-385.901 441,-404.901 560,-404.901 560,-385.901 441,-385.901"/>
<text text-anchor="middle" x="500.5" y="-392.901" font-family="Helvetica,sans-Serif" font-size="10.00">Igor::iTask::isRepeating</text>
</a>
</g>
</g>
<!-- Node3&#45;&gt;Node12 -->
<g id="edge14" class="edge"><title>Node3&#45;&gt;Node12</title>
<path fill="none" stroke="midnightblue" d="M350.599,-240.715C362.481,-271.105 393.118,-339.296 441,-376.401 443.334,-378.21 445.847,-379.85 448.472,-381.336"/>
<polygon fill="midnightblue" stroke="midnightblue" points="447.211,-384.614 457.737,-385.819 450.26,-378.313 447.211,-384.614"/>
</g>
<!-- Node13 -->
<g id="node14" class="node"><title>Node13</title>
<g id="a_node14"><a xlink:href="class_igor_1_1i_task.html#a1286c3225e5b667287de69bf0c0df0c7" target="_top" xlink:title=" ">
<polygon fill="white" stroke="black" points="455.5,-347.901 455.5,-366.901 545.5,-366.901 545.5,-347.901 455.5,-347.901"/>
<text text-anchor="middle" x="500.5" y="-354.901" font-family="Helvetica,sans-Serif" font-size="10.00">Igor::iTask::getID</text>
</a>
</g>
</g>
<!-- Node3&#45;&gt;Node13 -->
<g id="edge15" class="edge"><title>Node3&#45;&gt;Node13</title>
<path fill="none" stroke="midnightblue" d="M353.927,-240.539C368.92,-264.686 401.436,-311.894 441,-338.401 443.928,-340.362 447.072,-342.134 450.33,-343.732"/>
<polygon fill="midnightblue" stroke="midnightblue" points="449.154,-347.036 459.722,-347.789 451.93,-340.61 449.154,-347.036"/>
</g>
<!-- Node5&#45;&gt;Node6 -->
<g id="edge6" class="edge"><title>Node5&#45;&gt;Node6</title>
<path fill="none" stroke="midnightblue" d="M554.75,-240.42C573.964,-245.84 595.414,-251.89 613.725,-257.054"/>
<polygon fill="midnightblue" stroke="midnightblue" points="612.966,-260.477 623.541,-259.823 614.866,-253.739 612.966,-260.477"/>
</g>
<!-- Node5&#45;&gt;Node7 -->
<g id="edge7" class="edge"><title>Node5&#45;&gt;Node7</title>
<path fill="none" stroke="midnightblue" d="M545.573,-210.358C550.755,-207.524 555.713,-204.223 560,-200.401 608.562,-157.097 638.821,-83.62 651.14,-48.8042"/>
<polygon fill="midnightblue" stroke="midnightblue" points="654.587,-49.5406 654.51,-38.946 647.963,-47.2763 654.587,-49.5406"/>
</g>
</g>
</svg>
