<?xml version="1.0" encoding="UTF-8" standalone="no"?>
<!DOCTYPE svg PUBLIC "-//W3C//DTD SVG 1.1//EN"
 "http://www.w3.org/Graphics/SVG/1.1/DTD/svg11.dtd">
<!-- Generated by graphviz version 2.38.0 (20140413.2041)
 -->
<!-- Title: Igor::iTaskManager::addTask Pages: 1 -->
<svg width="268pt" height="104pt"
 viewBox="0.00 0.00 268.00 104.00" xmlns="http://www.w3.org/2000/svg" xmlns:xlink="http://www.w3.org/1999/xlink">
<g id="graph0" class="graph" transform="scale(1 1) rotate(0) translate(4 100)">
<title>Igor::iTaskManager::addTask</title>
<polygon fill="white" stroke="none" points="-4,4 -4,-100 264,-100 264,4 -4,4"/>
<!-- Node26 -->
<g id="node1" class="node"><title>Node26</title>
<g id="a_node1"><a xlink:title=" ">
<polygon fill="#bfbfbf" stroke="black" points="0,-33 0,-63 99,-63 99,-33 0,-33"/>
<text text-anchor="start" x="8" y="-51" font-family="Helvetica,sans-Serif" font-size="10.00">Igor::iTaskManager</text>
<text text-anchor="middle" x="49.5" y="-40" font-family="Helvetica,sans-Serif" font-size="10.00">::addTask</text>
</a>
</g>
</g>
<!-- Node27 -->
<g id="node2" class="node"><title>Node27</title>
<g id="a_node2"><a xlink:href="class_igor_1_1i_task.html#a1286c3225e5b667287de69bf0c0df0c7" target="_top" xlink:title=" ">
<polygon fill="white" stroke="black" points="152.5,-76.5 152.5,-95.5 242.5,-95.5 242.5,-76.5 152.5,-76.5"/>
<text text-anchor="middle" x="197.5" y="-83.5" font-family="Helvetica,sans-Serif" font-size="10.00">Igor::iTask::getID</text>
</a>
</g>
</g>
<!-- Node26&#45;&gt;Node27 -->
<g id="edge1" class="edge"><title>Node26&#45;&gt;Node27</title>
<path fill="none" stroke="midnightblue" d="M99.1159,-60.6534C115.465,-64.9088 133.658,-69.6439 149.853,-73.8589"/>
<polygon fill="midnightblue" stroke="midnightblue" points="149.084,-77.2754 159.643,-76.4072 150.847,-70.5011 149.084,-77.2754"/>
</g>
<!-- Node28 -->
<g id="node3" class="node"><title>Node28</title>
<g id="a_node3"><a xlink:href="class_igor_aux_1_1ia_mutex.html#ab0873c1f25730bd85d6b71d167520921" target="_top" xlink:title=" ">
<polygon fill="white" stroke="black" points="140.5,-38.5 140.5,-57.5 254.5,-57.5 254.5,-38.5 140.5,-38.5"/>
<text text-anchor="middle" x="197.5" y="-45.5" font-family="Helvetica,sans-Serif" font-size="10.00">IgorAux::iaMutex::lock</text>
</a>
</g>
</g>
<!-- Node26&#45;&gt;Node28 -->
<g id="edge2" class="edge"><title>Node26&#45;&gt;Node28</title>
<path fill="none" stroke="midnightblue" d="M99.1159,-48C109.008,-48 119.575,-48 129.966,-48"/>
<polygon fill="midnightblue" stroke="midnightblue" points="130.266,-51.5001 140.266,-48 130.266,-44.5001 130.266,-51.5001"/>
</g>
<!-- Node29 -->
<g id="node4" class="node"><title>Node29</title>
<g id="a_node4"><a xlink:href="class_igor_aux_1_1ia_mutex.html#a3beb078a1f64de265044ece54657c279" target="_top" xlink:title=" ">
<polygon fill="white" stroke="black" points="135,-0.5 135,-19.5 260,-19.5 260,-0.5 135,-0.5"/>
<text text-anchor="middle" x="197.5" y="-7.5" font-family="Helvetica,sans-Serif" font-size="10.00">IgorAux::iaMutex::unlock</text>
</a>
</g>
</g>
<!-- Node26&#45;&gt;Node29 -->
<g id="edge3" class="edge"><title>Node26&#45;&gt;Node29</title>
<path fill="none" stroke="midnightblue" d="M99.1159,-35.3466C115.465,-31.0912 133.658,-26.3561 149.853,-22.1411"/>
<polygon fill="midnightblue" stroke="midnightblue" points="150.847,-25.4989 159.643,-19.5928 149.084,-18.7246 150.847,-25.4989"/>
</g>
</g>
</svg>
