<?xml version="1.0" encoding="UTF-8" standalone="no"?>
<!DOCTYPE svg PUBLIC "-//W3C//DTD SVG 1.1//EN"
 "http://www.w3.org/Graphics/SVG/1.1/DTD/svg11.dtd">
<!-- Generated by graphviz version 2.38.0 (20140413.2041)
 -->
<!-- Title: Igor::iWidgetGroupBox::calcMinSize Pages: 1 -->
<svg width="293pt" height="66pt"
 viewBox="0.00 0.00 293.00 66.00" xmlns="http://www.w3.org/2000/svg" xmlns:xlink="http://www.w3.org/1999/xlink">
<g id="graph0" class="graph" transform="scale(1 1) rotate(0) translate(4 62)">
<title>Igor::iWidgetGroupBox::calcMinSize</title>
<polygon fill="white" stroke="none" points="-4,4 -4,-62 289,-62 289,4 -4,4"/>
<!-- Node4 -->
<g id="node1" class="node"><title>Node4</title>
<g id="a_node1"><a xlink:title=" ">
<polygon fill="#bfbfbf" stroke="black" points="0,-14 0,-44 115,-44 115,-14 0,-14"/>
<text text-anchor="start" x="8" y="-32" font-family="Helvetica,sans-Serif" font-size="10.00">Igor::iWidgetGroupBox</text>
<text text-anchor="middle" x="57.5" y="-21" font-family="Helvetica,sans-Serif" font-size="10.00">::calcMinSize</text>
</a>
</g>
</g>
<!-- Node5 -->
<g id="node2" class="node"><title>Node5</title>
<g id="a_node2"><a xlink:href="class_igor_1_1i_widget.html#a7607d7a6a36d25a88976f24227c74391" target="_top" xlink:title=" ">
<polygon fill="white" stroke="black" points="152,-38.5 152,-57.5 284,-57.5 284,-38.5 152,-38.5"/>
<text text-anchor="middle" x="218" y="-45.5" font-family="Helvetica,sans-Serif" font-size="10.00">Igor::iWidget::getMinWidth</text>
</a>
</g>
</g>
<!-- Node4&#45;&gt;Node5 -->
<g id="edge1" class="edge"><title>Node4&#45;&gt;Node5</title>
<path fill="none" stroke="midnightblue" d="M115.274,-35.8058C123.923,-36.8425 132.96,-37.9258 141.926,-39.0006"/>
<polygon fill="midnightblue" stroke="midnightblue" points="141.649,-42.4923 151.994,-40.2075 142.482,-35.5421 141.649,-42.4923"/>
</g>
<!-- Node6 -->
<g id="node3" class="node"><title>Node6</title>
<g id="a_node3"><a xlink:href="class_igor_1_1i_widget.html#ae479f53b5aefb0bd9039bd2d2d62c8be" target="_top" xlink:title=" ">
<polygon fill="white" stroke="black" points="151,-0.5 151,-19.5 285,-19.5 285,-0.5 151,-0.5"/>
<text text-anchor="middle" x="218" y="-7.5" font-family="Helvetica,sans-Serif" font-size="10.00">Igor::iWidget::getMinHeight</text>
</a>
</g>
</g>
<!-- Node4&#45;&gt;Node6 -->
<g id="edge2" class="edge"><title>Node4&#45;&gt;Node6</title>
<path fill="none" stroke="midnightblue" d="M115.274,-22.1942C123.574,-21.1993 132.233,-20.1614 140.842,-19.1293"/>
<polygon fill="midnightblue" stroke="midnightblue" points="141.39,-22.5888 150.903,-17.9233 140.557,-15.6385 141.39,-22.5888"/>
</g>
</g>
</svg>
