<?xml version="1.0" encoding="UTF-8" standalone="no"?>
<!DOCTYPE svg PUBLIC "-//W3C//DTD SVG 1.1//EN"
 "http://www.w3.org/Graphics/SVG/1.1/DTD/svg11.dtd">
<!-- Generated by graphviz version 2.38.0 (20140413.2041)
 -->
<!-- Title: IgorAux::iaVector3::distance Pages: 1 -->
<svg width="279pt" height="116pt"
 viewBox="0.00 0.00 279.00 115.50" xmlns="http://www.w3.org/2000/svg" xmlns:xlink="http://www.w3.org/1999/xlink">
<g id="graph0" class="graph" transform="scale(1 1) rotate(0) translate(4 111.5)">
<title>IgorAux::iaVector3::distance</title>
<polygon fill="white" stroke="none" points="-4,4 -4,-111.5 275,-111.5 275,4 -4,4"/>
<!-- Node1 -->
<g id="node1" class="node"><title>Node1</title>
<polygon fill="#bfbfbf" stroke="black" points="0,-33 0,-63 97,-63 97,-33 0,-33"/>
<text text-anchor="start" x="8" y="-51" font-family="Helvetica,sans-Serif" font-size="10.00">IgorAux::iaVector3</text>
<text text-anchor="middle" x="48.5" y="-40" font-family="Helvetica,sans-Serif" font-size="10.00">::distance</text>
</g>
<!-- Node2 -->
<g id="node2" class="node"><title>Node2</title>
<g id="a_node2"><a xlink:href="class_igor_1_1i_voxel_operation_sphere.html#a6ff8077abac919d193c1026743fda084" target="_top" xlink:title="Igor::iVoxelOperationSphere\l::apply">
<polygon fill="white" stroke="black" points="133,-77 133,-107 271,-107 271,-77 133,-77"/>
<text text-anchor="start" x="141" y="-95" font-family="Helvetica,sans-Serif" font-size="10.00">Igor::iVoxelOperationSphere</text>
<text text-anchor="middle" x="202" y="-84" font-family="Helvetica,sans-Serif" font-size="10.00">::apply</text>
</a>
</g>
</g>
<!-- Node1&#45;&gt;Node2 -->
<g id="edge1" class="edge"><title>Node1&#45;&gt;Node2</title>
<path fill="none" stroke="midnightblue" d="M106.943,-64.6832C120.823,-68.7143 135.575,-72.9987 149.179,-76.9498"/>
<polygon fill="midnightblue" stroke="midnightblue" points="107.599,-61.2291 97.0199,-61.8012 105.647,-67.9514 107.599,-61.2291"/>
</g>
<!-- Node3 -->
<g id="node3" class="node"><title>Node3</title>
<g id="a_node3"><a xlink:href="namespace_testigor.html#a0eb6023506d882b559fef3e19d1143aa" target="_top" xlink:title="Testigor::TEST_CLASS">
<polygon fill="white" stroke="black" points="142.5,-38.5 142.5,-57.5 261.5,-57.5 261.5,-38.5 142.5,-38.5"/>
<text text-anchor="middle" x="202" y="-45.5" font-family="Helvetica,sans-Serif" font-size="10.00">Testigor::TEST_CLASS</text>
</a>
</g>
</g>
<!-- Node1&#45;&gt;Node3 -->
<g id="edge2" class="edge"><title>Node1&#45;&gt;Node3</title>
<path fill="none" stroke="midnightblue" d="M107.026,-48C118.623,-48 130.827,-48 142.458,-48"/>
<polygon fill="midnightblue" stroke="midnightblue" points="107.02,-44.5001 97.0199,-48 107.02,-51.5001 107.02,-44.5001"/>
</g>
<!-- Node4 -->
<g id="node4" class="node"><title>Node4</title>
<g id="a_node4"><a xlink:href="_vector3_8cpp.html#a574fdd77480933a2a34fa1111f37f30c" target="_top" xlink:title="TEST">
<polygon fill="white" stroke="black" points="181.5,-0.5 181.5,-19.5 222.5,-19.5 222.5,-0.5 181.5,-0.5"/>
<text text-anchor="middle" x="202" y="-7.5" font-family="Helvetica,sans-Serif" font-size="10.00">TEST</text>
</a>
</g>
</g>
<!-- Node1&#45;&gt;Node4 -->
<g id="edge3" class="edge"><title>Node1&#45;&gt;Node4</title>
<path fill="none" stroke="midnightblue" d="M106.903,-33.6018C133.165,-27.0147 162.557,-19.6424 181.393,-14.9179"/>
<polygon fill="midnightblue" stroke="midnightblue" points="105.868,-30.253 97.0199,-36.0808 107.571,-37.0427 105.868,-30.253"/>
</g>
</g>
</svg>
