<?xml version="1.0" encoding="UTF-8" standalone="no"?>
<!DOCTYPE svg PUBLIC "-//W3C//DTD SVG 1.1//EN"
 "http://www.w3.org/Graphics/SVG/1.1/DTD/svg11.dtd">
<!-- Generated by graphviz version 2.38.0 (20140413.2041)
 -->
<!-- Title: Igor::iSkySimulation::init Pages: 1 -->
<svg width="775pt" height="541pt"
 viewBox="0.00 0.00 775.00 540.50" xmlns="http://www.w3.org/2000/svg" xmlns:xlink="http://www.w3.org/1999/xlink">
<g id="graph0" class="graph" transform="scale(1 1) rotate(0) translate(4 536.5)">
<title>Igor::iSkySimulation::init</title>
<polygon fill="white" stroke="none" points="-4,4 -4,-536.5 771,-536.5 771,4 -4,4"/>
<!-- Node25 -->
<g id="node1" class="node"><title>Node25</title>
<g id="a_node1"><a xlink:title=" ">
<polygon fill="#bfbfbf" stroke="black" points="0,-143.5 0,-173.5 104,-173.5 104,-143.5 0,-143.5"/>
<text text-anchor="start" x="8" y="-161.5" font-family="Helvetica,sans-Serif" font-size="10.00">Igor::iSkySimulation</text>
<text text-anchor="middle" x="52" y="-150.5" font-family="Helvetica,sans-Serif" font-size="10.00">::init</text>
</a>
</g>
</g>
<!-- Node26 -->
<g id="node2" class="node"><title>Node26</title>
<g id="a_node2"><a xlink:href="class_igor_1_1i_scene.html#ab45a6b64fa3cd065f8434c96432b6f9b" target="_top" xlink:title=" ">
<polygon fill="white" stroke="black" points="144,-228 144,-247 252,-247 252,-228 144,-228"/>
<text text-anchor="middle" x="198" y="-235" font-family="Helvetica,sans-Serif" font-size="10.00">Igor::iScene::getRoot</text>
</a>
</g>
</g>
<!-- Node25&#45;&gt;Node26 -->
<g id="edge1" class="edge"><title>Node25&#45;&gt;Node26</title>
<path fill="none" stroke="midnightblue" d="M71.7187,-173.737C88.7106,-186.984 114.88,-205.968 140,-218.5 144.323,-220.657 148.947,-222.655 153.622,-224.481"/>
<polygon fill="midnightblue" stroke="midnightblue" points="152.616,-227.84 163.21,-227.985 155.019,-221.265 152.616,-227.84"/>
</g>
<!-- Node27 -->
<g id="node3" class="node"><title>Node27</title>
<g id="a_node3"><a xlink:href="class_igor_1_1i_node.html#a4ce1269afdfb50f10f7b2c10e5aa69e0" target="_top" xlink:title=" ">
<polygon fill="white" stroke="black" points="140,-190 140,-209 256,-209 256,-190 140,-190"/>
<text text-anchor="middle" x="198" y="-197" font-family="Helvetica,sans-Serif" font-size="10.00">Igor::iNode::insertNode</text>
</a>
</g>
</g>
<!-- Node25&#45;&gt;Node27 -->
<g id="edge2" class="edge"><title>Node25&#45;&gt;Node27</title>
<path fill="none" stroke="midnightblue" d="M104.174,-173.071C120.355,-177.677 138.071,-182.722 153.649,-187.157"/>
<polygon fill="midnightblue" stroke="midnightblue" points="152.963,-190.601 163.539,-189.973 154.88,-183.868 152.963,-190.601"/>
</g>
<!-- Node41 -->
<g id="node17" class="node"><title>Node41</title>
<g id="a_node17"><a xlink:href="class_igor_1_1i_node.html#ae0d333770cbc83471e71deb2d60465c5" target="_top" xlink:title=" ">
<polygon fill="white" stroke="black" points="144,-149 144,-168 252,-168 252,-149 144,-149"/>
<text text-anchor="middle" x="198" y="-156" font-family="Helvetica,sans-Serif" font-size="10.00">Igor::iNode::setName</text>
</a>
</g>
</g>
<!-- Node25&#45;&gt;Node41 -->
<g id="edge19" class="edge"><title>Node25&#45;&gt;Node41</title>
<path fill="none" stroke="midnightblue" d="M104.174,-158.5C113.654,-158.5 123.661,-158.5 133.456,-158.5"/>
<polygon fill="midnightblue" stroke="midnightblue" points="133.556,-162 143.556,-158.5 133.556,-155 133.556,-162"/>
</g>
<!-- Node42 -->
<g id="node18" class="node"><title>Node42</title>
<g id="a_node18"><a xlink:href="class_igor_1_1i_node_sky_box.html#acb1b3b3b1c0afc25c566abe20bda14ac" target="_top" xlink:title=" ">
<polygon fill="white" stroke="black" points="313,-98.5 313,-128.5 417,-128.5 417,-98.5 313,-98.5"/>
<text text-anchor="start" x="321" y="-116.5" font-family="Helvetica,sans-Serif" font-size="10.00">Igor::iNodeSkyBox::</text>
<text text-anchor="middle" x="365" y="-105.5" font-family="Helvetica,sans-Serif" font-size="10.00">setAlpha</text>
</a>
</g>
</g>
<!-- Node25&#45;&gt;Node42 -->
<g id="edge20" class="edge"><title>Node25&#45;&gt;Node42</title>
<path fill="none" stroke="midnightblue" d="M104.36,-146.397C116.034,-143.893 128.41,-141.433 140,-139.5 194.634,-130.387 257.296,-123.405 302.426,-118.983"/>
<polygon fill="midnightblue" stroke="midnightblue" points="303.024,-122.441 312.641,-117.996 302.351,-115.474 303.024,-122.441"/>
</g>
<!-- Node43 -->
<g id="node19" class="node"><title>Node43</title>
<g id="a_node19"><a xlink:href="class_igor_1_1i_sky_simulation.html#ada20beecede15afa328ea95ebf15f136" target="_top" xlink:title=" ">
<polygon fill="white" stroke="black" points="146,-53.5 146,-83.5 250,-83.5 250,-53.5 146,-53.5"/>
<text text-anchor="start" x="154" y="-71.5" font-family="Helvetica,sans-Serif" font-size="10.00">Igor::iSkySimulation</text>
<text text-anchor="middle" x="198" y="-60.5" font-family="Helvetica,sans-Serif" font-size="10.00">::update</text>
</a>
</g>
</g>
<!-- Node25&#45;&gt;Node43 -->
<g id="edge21" class="edge"><title>Node25&#45;&gt;Node43</title>
<path fill="none" stroke="midnightblue" d="M74.5112,-143.493C91.9385,-131.497 117.247,-114.443 140,-100.5 146.453,-96.5457 153.412,-92.48 160.175,-88.6294"/>
<polygon fill="midnightblue" stroke="midnightblue" points="162.214,-91.4982 169.211,-83.5425 158.78,-85.3984 162.214,-91.4982"/>
</g>
<!-- Node28 -->
<g id="node4" class="node"><title>Node28</title>
<g id="a_node4"><a xlink:href="class_igor_1_1i_node.html#afcf6efd30c85e8c37a4261a6f27613b8" target="_top" xlink:title=" ">
<polygon fill="white" stroke="black" points="498,-117 498,-136 596,-136 596,-117 498,-117"/>
<text text-anchor="middle" x="547" y="-124" font-family="Helvetica,sans-Serif" font-size="10.00">Igor::iNode::isChild</text>
</a>
</g>
</g>
<!-- Node27&#45;&gt;Node28 -->
<g id="edge3" class="edge"><title>Node27&#45;&gt;Node28</title>
<path fill="none" stroke="midnightblue" d="M236.013,-189.913C253.023,-185.619 273.49,-180.608 292,-176.5 358.842,-161.665 436.08,-146.779 487.67,-137.157"/>
<polygon fill="midnightblue" stroke="midnightblue" points="488.443,-140.574 497.635,-135.305 487.164,-133.691 488.443,-140.574"/>
</g>
<!-- Node29 -->
<g id="node5" class="node"><title>Node29</title>
<g id="a_node5"><a xlink:href="class_igor_1_1i_node.html#adbeb716577ae857dc4274e8285dd94fe" target="_top" xlink:title=" ">
<polygon fill="white" stroke="black" points="309.5,-381 309.5,-400 420.5,-400 420.5,-381 309.5,-381"/>
<text text-anchor="middle" x="365" y="-388" font-family="Helvetica,sans-Serif" font-size="10.00">Igor::iNode::setParent</text>
</a>
</g>
</g>
<!-- Node27&#45;&gt;Node29 -->
<g id="edge4" class="edge"><title>Node27&#45;&gt;Node29</title>
<path fill="none" stroke="midnightblue" d="M243.494,-209.127C248.165,-211.577 252.483,-214.649 256,-218.5 303.107,-270.084 243.273,-321.443 292,-371.5 294.511,-374.079 297.327,-376.322 300.353,-378.272"/>
<polygon fill="midnightblue" stroke="midnightblue" points="298.877,-381.45 309.355,-383.023 302.145,-375.26 298.877,-381.45"/>
</g>
<!-- Node30 -->
<g id="node6" class="node"><title>Node30</title>
<g id="a_node6"><a xlink:href="class_igor_1_1i_node.html#a0392b6251631e79675f7416827335b70" target="_top" xlink:title=" ">
<polygon fill="white" stroke="black" points="310,-343 310,-362 420,-362 420,-343 310,-343"/>
<text text-anchor="middle" x="365" y="-350" font-family="Helvetica,sans-Serif" font-size="10.00">Igor::iNode::setScene</text>
</a>
</g>
</g>
<!-- Node27&#45;&gt;Node30 -->
<g id="edge5" class="edge"><title>Node27&#45;&gt;Node30</title>
<path fill="none" stroke="midnightblue" d="M237.841,-209.104C244.213,-211.6 250.517,-214.692 256,-218.5 301.002,-249.758 336.949,-304.992 353.722,-333.814"/>
<polygon fill="midnightblue" stroke="midnightblue" points="350.857,-335.857 358.839,-342.825 356.944,-332.401 350.857,-335.857"/>
</g>
<!-- Node38 -->
<g id="node14" class="node"><title>Node38</title>
<g id="a_node14"><a xlink:href="class_igor_1_1i_node.html#a3be538d0d60b148b1eae5cd5892d279d" target="_top" xlink:title=" ">
<polygon fill="white" stroke="black" points="292,-186.5 292,-216.5 438,-216.5 438,-186.5 292,-186.5"/>
<text text-anchor="start" x="300" y="-204.5" font-family="Helvetica,sans-Serif" font-size="10.00">Igor::iNode::setTransformation</text>
<text text-anchor="middle" x="365" y="-193.5" font-family="Helvetica,sans-Serif" font-size="10.00">Dirty</text>
</a>
</g>
</g>
<!-- Node27&#45;&gt;Node38 -->
<g id="edge13" class="edge"><title>Node27&#45;&gt;Node38</title>
<path fill="none" stroke="midnightblue" d="M256.246,-200.194C264.475,-200.294 273.074,-200.398 281.671,-200.502"/>
<polygon fill="midnightblue" stroke="midnightblue" points="281.698,-204.003 291.74,-200.624 281.783,-197.003 281.698,-204.003"/>
</g>
<!-- Node31 -->
<g id="node7" class="node"><title>Node31</title>
<g id="a_node7"><a xlink:href="class_igor_1_1i_node.html#aa8934442e897cfdf775264f161c69143" target="_top" xlink:title=" ">
<polygon fill="white" stroke="black" points="478.5,-387 478.5,-406 615.5,-406 615.5,-387 478.5,-387"/>
<text text-anchor="middle" x="547" y="-394" font-family="Helvetica,sans-Serif" font-size="10.00">Igor::iNode::onPreSetScene</text>
</a>
</g>
</g>
<!-- Node30&#45;&gt;Node31 -->
<g id="edge6" class="edge"><title>Node30&#45;&gt;Node31</title>
<path fill="none" stroke="midnightblue" d="M405.057,-362.047C432.065,-368.649 468.199,-377.482 497.118,-384.551"/>
<polygon fill="midnightblue" stroke="midnightblue" points="496.474,-387.997 507.019,-386.971 498.136,-381.197 496.474,-387.997"/>
</g>
<!-- Node32 -->
<g id="node8" class="node"><title>Node32</title>
<g id="a_node8"><a xlink:href="class_igor_1_1i_scene.html#aadee04cec2c19e6de83645d9de7e614f" target="_top" xlink:title=" ">
<polygon fill="white" stroke="black" points="486,-337.5 486,-367.5 608,-367.5 608,-337.5 486,-337.5"/>
<text text-anchor="start" x="494" y="-355.5" font-family="Helvetica,sans-Serif" font-size="10.00">Igor::iScene::signalNode</text>
<text text-anchor="middle" x="547" y="-344.5" font-family="Helvetica,sans-Serif" font-size="10.00">Removed</text>
</a>
</g>
</g>
<!-- Node30&#45;&gt;Node32 -->
<g id="edge7" class="edge"><title>Node30&#45;&gt;Node32</title>
<path fill="none" stroke="midnightblue" d="M420.006,-352.5C437.481,-352.5 457.123,-352.5 475.606,-352.5"/>
<polygon fill="midnightblue" stroke="midnightblue" points="475.734,-356 485.734,-352.5 475.734,-349 475.734,-356"/>
</g>
<!-- Node33 -->
<g id="node9" class="node"><title>Node33</title>
<g id="a_node9"><a xlink:href="class_igor_1_1i_node.html#aece61f1af4143a3a1765b19594d72b6e" target="_top" xlink:title=" ">
<polygon fill="white" stroke="black" points="501,-299 501,-318 593,-318 593,-299 501,-299"/>
<text text-anchor="middle" x="547" y="-306" font-family="Helvetica,sans-Serif" font-size="10.00">Igor::iNode::getID</text>
</a>
</g>
</g>
<!-- Node30&#45;&gt;Node33 -->
<g id="edge8" class="edge"><title>Node30&#45;&gt;Node33</title>
<path fill="none" stroke="midnightblue" d="M405.057,-342.953C432.065,-336.351 468.199,-327.518 497.118,-320.449"/>
<polygon fill="midnightblue" stroke="midnightblue" points="498.136,-323.803 507.019,-318.029 496.474,-317.003 498.136,-323.803"/>
</g>
<!-- Node34 -->
<g id="node10" class="node"><title>Node34</title>
<g id="a_node10"><a xlink:href="class_igor_1_1i_scene.html#ab362507531b6b5207a3045283e9820c0" target="_top" xlink:title=" ">
<polygon fill="white" stroke="black" points="490.5,-261 490.5,-280 603.5,-280 603.5,-261 490.5,-261"/>
<text text-anchor="middle" x="547" y="-268" font-family="Helvetica,sans-Serif" font-size="10.00">Igor::iScene::getName</text>
</a>
</g>
</g>
<!-- Node30&#45;&gt;Node34 -->
<g id="edge9" class="edge"><title>Node30&#45;&gt;Node34</title>
<path fill="none" stroke="midnightblue" d="M379.693,-342.869C399.606,-329.253 438.107,-304.382 474,-289.5 479.799,-287.095 485.989,-284.92 492.213,-282.972"/>
<polygon fill="midnightblue" stroke="midnightblue" points="493.366,-286.281 501.97,-280.099 491.389,-279.566 493.366,-286.281"/>
</g>
<!-- Node35 -->
<g id="node11" class="node"><title>Node35</title>
<g id="a_node11"><a xlink:href="class_igor_1_1i_node.html#aa13a0c809d3f0bb17baf52917d04aff0" target="_top" xlink:title=" ">
<polygon fill="white" stroke="black" points="487,-513 487,-532 607,-532 607,-513 487,-513"/>
<text text-anchor="middle" x="547" y="-520" font-family="Helvetica,sans-Serif" font-size="10.00">Igor::iNode::hasChildren</text>
</a>
</g>
</g>
<!-- Node30&#45;&gt;Node35 -->
<g id="edge10" class="edge"><title>Node30&#45;&gt;Node35</title>
<path fill="none" stroke="midnightblue" d="M420.121,-359.986C426.749,-362.76 432.952,-366.493 438,-371.5 481.176,-414.321 430.824,-460.679 474,-503.5 475.446,-504.934 476.986,-506.263 478.604,-507.495"/>
<polygon fill="midnightblue" stroke="midnightblue" points="476.92,-510.57 487.26,-512.882 480.619,-504.627 476.92,-510.57"/>
</g>
<!-- Node36 -->
<g id="node12" class="node"><title>Node36</title>
<g id="a_node12"><a xlink:href="class_igor_1_1i_node.html#af5a14599bd4dc62d1534865c8a306e8e" target="_top" xlink:title=" ">
<polygon fill="white" stroke="black" points="475.5,-475 475.5,-494 618.5,-494 618.5,-475 475.5,-475"/>
<text text-anchor="middle" x="547" y="-482" font-family="Helvetica,sans-Serif" font-size="10.00">Igor::iNode::onPostSetScene</text>
</a>
</g>
</g>
<!-- Node30&#45;&gt;Node36 -->
<g id="edge11" class="edge"><title>Node30&#45;&gt;Node36</title>
<path fill="none" stroke="midnightblue" d="M420.037,-360.61C426.598,-363.295 432.805,-366.837 438,-371.5 471.291,-401.385 440.709,-435.615 474,-465.5 475.759,-467.079 477.633,-468.529 479.599,-469.861"/>
<polygon fill="midnightblue" stroke="midnightblue" points="478.281,-473.135 488.715,-474.975 481.706,-467.03 478.281,-473.135"/>
</g>
<!-- Node37 -->
<g id="node13" class="node"><title>Node37</title>
<g id="a_node13"><a xlink:href="class_igor_1_1i_scene.html#a61c6f27b83ccdfbfdc1b7ee02d2fcc21" target="_top" xlink:title=" ">
<polygon fill="white" stroke="black" points="486,-425.5 486,-455.5 608,-455.5 608,-425.5 486,-425.5"/>
<text text-anchor="start" x="494" y="-443.5" font-family="Helvetica,sans-Serif" font-size="10.00">Igor::iScene::signalNode</text>
<text text-anchor="middle" x="547" y="-432.5" font-family="Helvetica,sans-Serif" font-size="10.00">Added</text>
</a>
</g>
</g>
<!-- Node30&#45;&gt;Node37 -->
<g id="edge12" class="edge"><title>Node30&#45;&gt;Node37</title>
<path fill="none" stroke="midnightblue" d="M418.398,-362.133C425.286,-364.583 432.02,-367.654 438,-371.5 459.251,-385.168 453.285,-401.033 474,-415.5 476.712,-417.394 479.581,-419.157 482.551,-420.795"/>
<polygon fill="midnightblue" stroke="midnightblue" points="481.191,-424.028 491.704,-425.347 484.308,-417.76 481.191,-424.028"/>
</g>
<!-- Node38&#45;&gt;Node28 -->
<g id="edge14" class="edge"><title>Node38&#45;&gt;Node28</title>
<path fill="none" stroke="midnightblue" d="M406.764,-186.435C417.175,-182.071 428.191,-176.988 438,-171.5 455.224,-161.863 456.158,-153.938 474,-145.5 478.967,-143.151 484.269,-141.058 489.658,-139.202"/>
<polygon fill="midnightblue" stroke="midnightblue" points="490.927,-142.471 499.399,-136.11 488.809,-135.799 490.927,-142.471"/>
</g>
<!-- Node39 -->
<g id="node15" class="node"><title>Node39</title>
<g id="a_node15"><a xlink:href="class_igor_1_1i_node.html#a1b3d40431eb4c1c79e5d93ef7fe68129" target="_top" xlink:title=" ">
<polygon fill="white" stroke="black" points="656,-192 656,-211 767,-211 767,-192 656,-192"/>
<text text-anchor="middle" x="711.5" y="-199" font-family="Helvetica,sans-Serif" font-size="10.00">Igor::iNode::getParent</text>
</a>
</g>
</g>
<!-- Node38&#45;&gt;Node39 -->
<g id="edge15" class="edge"><title>Node38&#45;&gt;Node39</title>
<path fill="none" stroke="midnightblue" d="M438.249,-209.882C450.177,-210.972 462.424,-211.912 474,-212.5 538.805,-215.792 555.23,-216.422 620,-212.5 628.289,-211.998 636.982,-211.24 645.565,-210.351"/>
<polygon fill="midnightblue" stroke="midnightblue" points="646.001,-213.825 655.56,-209.256 645.238,-206.866 646.001,-213.825"/>
</g>
<!-- Node40 -->
<g id="node16" class="node"><title>Node40</title>
<g id="a_node16"><a xlink:href="class_igor_1_1i_node.html#a66b6ecf7babaffce68852de186068e01" target="_top" xlink:title=" ">
<polygon fill="white" stroke="black" points="474,-155.5 474,-185.5 620,-185.5 620,-155.5 474,-155.5"/>
<text text-anchor="start" x="482" y="-173.5" font-family="Helvetica,sans-Serif" font-size="10.00">Igor::iNode::setTransformation</text>
<text text-anchor="middle" x="547" y="-162.5" font-family="Helvetica,sans-Serif" font-size="10.00">DirtyUp</text>
</a>
</g>
</g>
<!-- Node38&#45;&gt;Node40 -->
<g id="edge16" class="edge"><title>Node38&#45;&gt;Node40</title>
<path fill="none" stroke="midnightblue" d="M438.176,-189.07C446.612,-187.617 455.265,-186.127 463.824,-184.653"/>
<polygon fill="midnightblue" stroke="midnightblue" points="464.547,-188.08 473.808,-182.933 463.359,-181.181 464.547,-188.08"/>
</g>
<!-- Node40&#45;&gt;Node39 -->
<g id="edge17" class="edge"><title>Node40&#45;&gt;Node39</title>
<path fill="none" stroke="midnightblue" d="M620.221,-184.278C630.287,-186.198 640.54,-188.154 650.352,-190.026"/>
<polygon fill="midnightblue" stroke="midnightblue" points="649.912,-193.505 660.391,-191.941 651.224,-186.629 649.912,-193.505"/>
</g>
<!-- Node40&#45;&gt;Node40 -->
<g id="edge18" class="edge"><title>Node40&#45;&gt;Node40</title>
<path fill="none" stroke="midnightblue" d="M518.42,-185.659C511.528,-195.057 521.055,-204 547,-204 562.81,-204 572.524,-200.679 576.141,-195.958"/>
<polygon fill="midnightblue" stroke="midnightblue" points="579.619,-195.454 575.58,-185.659 572.629,-195.834 579.619,-195.454"/>
</g>
<!-- Node43&#45;&gt;Node42 -->
<g id="edge24" class="edge"><title>Node43&#45;&gt;Node42</title>
<path fill="none" stroke="midnightblue" d="M250.303,-82.4916C266.91,-87.0208 285.495,-92.0894 302.749,-96.7951"/>
<polygon fill="midnightblue" stroke="midnightblue" points="302.161,-100.262 312.729,-99.517 304.002,-93.5091 302.161,-100.262"/>
</g>
<!-- Node44 -->
<g id="node20" class="node"><title>Node44</title>
<g id="a_node20"><a xlink:href="class_igor_aux_1_1ia_matrix.html#ae9eba9dbfae8fc7cc139579370386efb" target="_top" xlink:title=" ">
<polygon fill="white" stroke="black" points="317,-0.5 317,-30.5 413,-30.5 413,-0.5 317,-0.5"/>
<text text-anchor="start" x="325" y="-18.5" font-family="Helvetica,sans-Serif" font-size="10.00">IgorAux::iaMatrix::</text>
<text text-anchor="middle" x="365" y="-7.5" font-family="Helvetica,sans-Serif" font-size="10.00">rotate</text>
</a>
</g>
</g>
<!-- Node43&#45;&gt;Node44 -->
<g id="edge22" class="edge"><title>Node43&#45;&gt;Node44</title>
<path fill="none" stroke="midnightblue" d="M245.841,-53.4541C265,-47.2999 287.337,-40.1251 307.4,-33.6808"/>
<polygon fill="midnightblue" stroke="midnightblue" points="308.591,-36.9741 317.042,-30.5835 306.451,-30.3095 308.591,-36.9741"/>
</g>
<!-- Node45 -->
<g id="node21" class="node"><title>Node45</title>
<g id="a_node21"><a xlink:href="class_igor_1_1i_sky_light_node.html#af7ea9d097996ca00bd0880aa99e15056" target="_top" xlink:title=" ">
<polygon fill="white" stroke="black" points="314.5,-49.5 314.5,-79.5 415.5,-79.5 415.5,-49.5 314.5,-49.5"/>
<text text-anchor="start" x="322.5" y="-67.5" font-family="Helvetica,sans-Serif" font-size="10.00">Igor::iSkyLightNode</text>
<text text-anchor="middle" x="365" y="-56.5" font-family="Helvetica,sans-Serif" font-size="10.00">::setLightDirection</text>
</a>
</g>
</g>
<!-- Node43&#45;&gt;Node45 -->
<g id="edge23" class="edge"><title>Node43&#45;&gt;Node45</title>
<path fill="none" stroke="midnightblue" d="M250.303,-67.2563C267.384,-66.8422 286.558,-66.3774 304.224,-65.9491"/>
<polygon fill="midnightblue" stroke="midnightblue" points="304.512,-69.4432 314.425,-65.7018 304.343,-62.4453 304.512,-69.4432"/>
</g>
</g>
</svg>
