<?xml version="1.0" encoding="UTF-8" standalone="no"?>
<!DOCTYPE svg PUBLIC "-//W3C//DTD SVG 1.1//EN"
 "http://www.w3.org/Graphics/SVG/1.1/DTD/svg11.dtd">
<!-- Generated by graphviz version 2.38.0 (20140413.2041)
 -->
<!-- Title: ModelViewer::onAddParticleSystem Pages: 1 -->
<svg width="810pt" height="424pt"
 viewBox="0.00 0.00 810.00 423.50" xmlns="http://www.w3.org/2000/svg" xmlns:xlink="http://www.w3.org/1999/xlink">
<g id="graph0" class="graph" transform="scale(1 1) rotate(0) translate(4 419.5)">
<title>ModelViewer::onAddParticleSystem</title>
<polygon fill="white" stroke="none" points="-4,4 -4,-419.5 806,-419.5 806,4 -4,4"/>
<!-- Node242 -->
<g id="node1" class="node"><title>Node242</title>
<g id="a_node1"><a xlink:title=" ">
<polygon fill="#bfbfbf" stroke="black" points="0,-343.5 0,-373.5 139,-373.5 139,-343.5 0,-343.5"/>
<text text-anchor="start" x="8" y="-361.5" font-family="Helvetica,sans-Serif" font-size="10.00">ModelViewer::onAddParticle</text>
<text text-anchor="middle" x="69.5" y="-350.5" font-family="Helvetica,sans-Serif" font-size="10.00">System</text>
</a>
</g>
</g>
<!-- Node243 -->
<g id="node2" class="node"><title>Node243</title>
<g id="a_node2"><a xlink:href="class_igor_1_1i_node.html#ae0d333770cbc83471e71deb2d60465c5" target="_top" xlink:title=" ">
<polygon fill="white" stroke="black" points="179,-368 179,-387 287,-387 287,-368 179,-368"/>
<text text-anchor="middle" x="233" y="-375" font-family="Helvetica,sans-Serif" font-size="10.00">Igor::iNode::setName</text>
</a>
</g>
</g>
<!-- Node242&#45;&gt;Node243 -->
<g id="edge1" class="edge"><title>Node242&#45;&gt;Node243</title>
<path fill="none" stroke="midnightblue" d="M139.459,-366.613C149.258,-367.766 159.294,-368.946 168.972,-370.085"/>
<polygon fill="midnightblue" stroke="midnightblue" points="168.563,-373.561 178.904,-371.253 169.381,-366.609 168.563,-373.561"/>
</g>
<!-- Node244 -->
<g id="node3" class="node"><title>Node244</title>
<g id="a_node3"><a xlink:href="class_igor_1_1i_node.html#a4ce1269afdfb50f10f7b2c10e5aa69e0" target="_top" xlink:title=" ">
<polygon fill="white" stroke="black" points="175,-330 175,-349 291,-349 291,-330 175,-330"/>
<text text-anchor="middle" x="233" y="-337" font-family="Helvetica,sans-Serif" font-size="10.00">Igor::iNode::insertNode</text>
</a>
</g>
</g>
<!-- Node242&#45;&gt;Node244 -->
<g id="edge2" class="edge"><title>Node242&#45;&gt;Node244</title>
<path fill="none" stroke="midnightblue" d="M139.459,-350.387C147.87,-349.398 156.456,-348.388 164.84,-347.401"/>
<polygon fill="midnightblue" stroke="midnightblue" points="165.42,-350.857 174.942,-346.213 164.602,-343.905 165.42,-350.857"/>
</g>
<!-- Node245 -->
<g id="node4" class="node"><title>Node245</title>
<g id="a_node4"><a xlink:href="class_igor_1_1i_node.html#afcf6efd30c85e8c37a4261a6f27613b8" target="_top" xlink:title=" ">
<polygon fill="white" stroke="black" points="533,-396 533,-415 631,-415 631,-396 533,-396"/>
<text text-anchor="middle" x="582" y="-403" font-family="Helvetica,sans-Serif" font-size="10.00">Igor::iNode::isChild</text>
</a>
</g>
</g>
<!-- Node244&#45;&gt;Node245 -->
<g id="edge3" class="edge"><title>Node244&#45;&gt;Node245</title>
<path fill="none" stroke="midnightblue" d="M268.845,-349.027C276.354,-351.649 284.102,-354.808 291,-358.5 308.871,-368.064 308.086,-379.211 327,-386.5 390.634,-411.024 469.778,-412.896 522.651,-410.508"/>
<polygon fill="midnightblue" stroke="midnightblue" points="523.058,-413.992 532.864,-409.979 522.696,-407.001 523.058,-413.992"/>
</g>
<!-- Node246 -->
<g id="node5" class="node"><title>Node246</title>
<g id="a_node5"><a xlink:href="class_igor_1_1i_node.html#adbeb716577ae857dc4274e8285dd94fe" target="_top" xlink:title=" ">
<polygon fill="white" stroke="black" points="344.5,-308 344.5,-327 455.5,-327 455.5,-308 344.5,-308"/>
<text text-anchor="middle" x="400" y="-315" font-family="Helvetica,sans-Serif" font-size="10.00">Igor::iNode::setParent</text>
</a>
</g>
</g>
<!-- Node244&#45;&gt;Node246 -->
<g id="edge4" class="edge"><title>Node244&#45;&gt;Node246</title>
<path fill="none" stroke="midnightblue" d="M291.246,-331.867C305.102,-330.02 320.01,-328.032 334.187,-326.142"/>
<polygon fill="midnightblue" stroke="midnightblue" points="334.906,-329.577 344.355,-324.786 333.981,-322.638 334.906,-329.577"/>
</g>
<!-- Node247 -->
<g id="node6" class="node"><title>Node247</title>
<g id="a_node6"><a xlink:href="class_igor_1_1i_node.html#a0392b6251631e79675f7416827335b70" target="_top" xlink:title=" ">
<polygon fill="white" stroke="black" points="345,-145 345,-164 455,-164 455,-145 345,-145"/>
<text text-anchor="middle" x="400" y="-152" font-family="Helvetica,sans-Serif" font-size="10.00">Igor::iNode::setScene</text>
</a>
</g>
</g>
<!-- Node244&#45;&gt;Node247 -->
<g id="edge5" class="edge"><title>Node244&#45;&gt;Node247</title>
<path fill="none" stroke="midnightblue" d="M242.639,-329.814C269.147,-300.093 349.584,-209.906 383.575,-171.795"/>
<polygon fill="midnightblue" stroke="midnightblue" points="386.403,-173.883 390.447,-164.09 381.178,-169.223 386.403,-173.883"/>
</g>
<!-- Node255 -->
<g id="node14" class="node"><title>Node255</title>
<g id="a_node14"><a xlink:href="class_igor_1_1i_node.html#a3be538d0d60b148b1eae5cd5892d279d" target="_top" xlink:title=" ">
<polygon fill="white" stroke="black" points="327,-346.5 327,-376.5 473,-376.5 473,-346.5 327,-346.5"/>
<text text-anchor="start" x="335" y="-364.5" font-family="Helvetica,sans-Serif" font-size="10.00">Igor::iNode::setTransformation</text>
<text text-anchor="middle" x="400" y="-353.5" font-family="Helvetica,sans-Serif" font-size="10.00">Dirty</text>
</a>
</g>
</g>
<!-- Node244&#45;&gt;Node255 -->
<g id="edge13" class="edge"><title>Node244&#45;&gt;Node255</title>
<path fill="none" stroke="midnightblue" d="M291.246,-347.133C299.475,-348.23 308.074,-349.377 316.671,-350.523"/>
<polygon fill="midnightblue" stroke="midnightblue" points="316.365,-354.013 326.74,-351.865 317.291,-347.074 316.365,-354.013"/>
</g>
<!-- Node248 -->
<g id="node7" class="node"><title>Node248</title>
<g id="a_node7"><a xlink:href="class_igor_1_1i_node.html#aa8934442e897cfdf775264f161c69143" target="_top" xlink:title=" ">
<polygon fill="white" stroke="black" points="513.5,-252 513.5,-271 650.5,-271 650.5,-252 513.5,-252"/>
<text text-anchor="middle" x="582" y="-259" font-family="Helvetica,sans-Serif" font-size="10.00">Igor::iNode::onPreSetScene</text>
</a>
</g>
</g>
<!-- Node247&#45;&gt;Node248 -->
<g id="edge6" class="edge"><title>Node247&#45;&gt;Node248</title>
<path fill="none" stroke="midnightblue" d="M410.165,-164.133C427.69,-182.001 467.88,-220.377 509,-241.5 514.323,-244.234 520.065,-246.632 525.902,-248.727"/>
<polygon fill="midnightblue" stroke="midnightblue" points="525.166,-252.169 535.759,-251.971 527.354,-245.52 525.166,-252.169"/>
</g>
<!-- Node249 -->
<g id="node8" class="node"><title>Node249</title>
<g id="a_node8"><a xlink:href="class_igor_1_1i_scene.html#aadee04cec2c19e6de83645d9de7e614f" target="_top" xlink:title=" ">
<polygon fill="white" stroke="black" points="521,-202.5 521,-232.5 643,-232.5 643,-202.5 521,-202.5"/>
<text text-anchor="start" x="529" y="-220.5" font-family="Helvetica,sans-Serif" font-size="10.00">Igor::iScene::signalNode</text>
<text text-anchor="middle" x="582" y="-209.5" font-family="Helvetica,sans-Serif" font-size="10.00">Removed</text>
</a>
</g>
</g>
<!-- Node247&#45;&gt;Node249 -->
<g id="edge7" class="edge"><title>Node247&#45;&gt;Node249</title>
<path fill="none" stroke="midnightblue" d="M428.064,-164.057C449.901,-171.76 481.418,-182.859 509,-192.5 515.066,-194.62 521.421,-196.836 527.738,-199.034"/>
<polygon fill="midnightblue" stroke="midnightblue" points="526.991,-202.48 537.586,-202.458 529.29,-195.868 526.991,-202.48"/>
</g>
<!-- Node250 -->
<g id="node9" class="node"><title>Node250</title>
<g id="a_node9"><a xlink:href="class_igor_1_1i_node.html#aece61f1af4143a3a1765b19594d72b6e" target="_top" xlink:title=" ">
<polygon fill="white" stroke="black" points="536,-164 536,-183 628,-183 628,-164 536,-164"/>
<text text-anchor="middle" x="582" y="-171" font-family="Helvetica,sans-Serif" font-size="10.00">Igor::iNode::getID</text>
</a>
</g>
</g>
<!-- Node247&#45;&gt;Node250 -->
<g id="edge8" class="edge"><title>Node247&#45;&gt;Node250</title>
<path fill="none" stroke="midnightblue" d="M455.006,-160.201C477.367,-162.561 503.276,-165.296 525.764,-167.67"/>
<polygon fill="midnightblue" stroke="midnightblue" points="525.519,-171.163 535.831,-168.732 526.253,-164.202 525.519,-171.163"/>
</g>
<!-- Node251 -->
<g id="node10" class="node"><title>Node251</title>
<g id="a_node10"><a xlink:href="class_igor_1_1i_scene.html#ab362507531b6b5207a3045283e9820c0" target="_top" xlink:title=" ">
<polygon fill="white" stroke="black" points="525.5,-126 525.5,-145 638.5,-145 638.5,-126 525.5,-126"/>
<text text-anchor="middle" x="582" y="-133" font-family="Helvetica,sans-Serif" font-size="10.00">Igor::iScene::getName</text>
</a>
</g>
</g>
<!-- Node247&#45;&gt;Node251 -->
<g id="edge9" class="edge"><title>Node247&#45;&gt;Node251</title>
<path fill="none" stroke="midnightblue" d="M455.006,-148.799C473.965,-146.798 495.476,-144.527 515.29,-142.436"/>
<polygon fill="midnightblue" stroke="midnightblue" points="515.896,-145.892 525.474,-141.361 515.161,-138.93 515.896,-145.892"/>
</g>
<!-- Node252 -->
<g id="node11" class="node"><title>Node252</title>
<g id="a_node11"><a xlink:href="class_igor_1_1i_node.html#aa13a0c809d3f0bb17baf52917d04aff0" target="_top" xlink:title=" ">
<polygon fill="white" stroke="black" points="522,-88 522,-107 642,-107 642,-88 522,-88"/>
<text text-anchor="middle" x="582" y="-95" font-family="Helvetica,sans-Serif" font-size="10.00">Igor::iNode::hasChildren</text>
</a>
</g>
</g>
<!-- Node247&#45;&gt;Node252 -->
<g id="edge10" class="edge"><title>Node247&#45;&gt;Node252</title>
<path fill="none" stroke="midnightblue" d="M426.557,-144.855C448.32,-136.8 480.5,-125.259 509,-116.5 516.559,-114.177 524.617,-111.879 532.503,-109.727"/>
<polygon fill="midnightblue" stroke="midnightblue" points="533.597,-113.058 542.351,-107.089 531.786,-106.296 533.597,-113.058"/>
</g>
<!-- Node253 -->
<g id="node12" class="node"><title>Node253</title>
<g id="a_node12"><a xlink:href="class_igor_1_1i_node.html#af5a14599bd4dc62d1534865c8a306e8e" target="_top" xlink:title=" ">
<polygon fill="white" stroke="black" points="510.5,-50 510.5,-69 653.5,-69 653.5,-50 510.5,-50"/>
<text text-anchor="middle" x="582" y="-57" font-family="Helvetica,sans-Serif" font-size="10.00">Igor::iNode::onPostSetScene</text>
</a>
</g>
</g>
<!-- Node247&#45;&gt;Node253 -->
<g id="edge11" class="edge"><title>Node247&#45;&gt;Node253</title>
<path fill="none" stroke="midnightblue" d="M411.837,-144.856C430.419,-128.805 470.13,-96.5911 509,-78.5 514.055,-76.1475 519.449,-74.0484 524.926,-72.1841"/>
<polygon fill="midnightblue" stroke="midnightblue" points="526.326,-75.4132 534.818,-69.0779 524.229,-68.7348 526.326,-75.4132"/>
</g>
<!-- Node254 -->
<g id="node13" class="node"><title>Node254</title>
<g id="a_node13"><a xlink:href="class_igor_1_1i_scene.html#a61c6f27b83ccdfbfdc1b7ee02d2fcc21" target="_top" xlink:title=" ">
<polygon fill="white" stroke="black" points="521,-0.5 521,-30.5 643,-30.5 643,-0.5 521,-0.5"/>
<text text-anchor="start" x="529" y="-18.5" font-family="Helvetica,sans-Serif" font-size="10.00">Igor::iScene::signalNode</text>
<text text-anchor="middle" x="582" y="-7.5" font-family="Helvetica,sans-Serif" font-size="10.00">Added</text>
</a>
</g>
</g>
<!-- Node247&#45;&gt;Node254 -->
<g id="edge12" class="edge"><title>Node247&#45;&gt;Node254</title>
<path fill="none" stroke="midnightblue" d="M407.667,-144.767C423.041,-123.019 463.192,-70.0757 509,-40.5 512.13,-38.4791 515.442,-36.6004 518.859,-34.857"/>
<polygon fill="midnightblue" stroke="midnightblue" points="520.509,-37.9497 528.094,-30.5533 517.552,-31.6049 520.509,-37.9497"/>
</g>
<!-- Node255&#45;&gt;Node245 -->
<g id="edge14" class="edge"><title>Node255&#45;&gt;Node245</title>
<path fill="none" stroke="midnightblue" d="M462.442,-376.519C485.214,-382.086 510.706,-388.317 532.201,-393.571"/>
<polygon fill="midnightblue" stroke="midnightblue" points="531.54,-397.013 542.086,-395.988 533.203,-390.213 531.54,-397.013"/>
</g>
<!-- Node256 -->
<g id="node15" class="node"><title>Node256</title>
<g id="a_node15"><a xlink:href="class_igor_1_1i_node.html#a1b3d40431eb4c1c79e5d93ef7fe68129" target="_top" xlink:title=" ">
<polygon fill="white" stroke="black" points="691,-327 691,-346 802,-346 802,-327 691,-327"/>
<text text-anchor="middle" x="746.5" y="-334" font-family="Helvetica,sans-Serif" font-size="10.00">Igor::iNode::getParent</text>
</a>
</g>
</g>
<!-- Node255&#45;&gt;Node256 -->
<g id="edge15" class="edge"><title>Node255&#45;&gt;Node256</title>
<path fill="none" stroke="midnightblue" d="M473.096,-359.359C524,-357.47 593.771,-354.117 655,-348.5 663.281,-347.74 671.969,-346.788 680.55,-345.754"/>
<polygon fill="midnightblue" stroke="midnightblue" points="681.052,-349.218 690.543,-344.509 680.187,-342.272 681.052,-349.218"/>
</g>
<!-- Node257 -->
<g id="node16" class="node"><title>Node257</title>
<g id="a_node16"><a xlink:href="class_igor_1_1i_node.html#a66b6ecf7babaffce68852de186068e01" target="_top" xlink:title=" ">
<polygon fill="white" stroke="black" points="509,-290.5 509,-320.5 655,-320.5 655,-290.5 509,-290.5"/>
<text text-anchor="start" x="517" y="-308.5" font-family="Helvetica,sans-Serif" font-size="10.00">Igor::iNode::setTransformation</text>
<text text-anchor="middle" x="582" y="-297.5" font-family="Helvetica,sans-Serif" font-size="10.00">DirtyUp</text>
</a>
</g>
</g>
<!-- Node255&#45;&gt;Node257 -->
<g id="edge16" class="edge"><title>Node255&#45;&gt;Node257</title>
<path fill="none" stroke="midnightblue" d="M449.237,-346.493C471.935,-339.431 499.188,-330.953 523.003,-323.543"/>
<polygon fill="midnightblue" stroke="midnightblue" points="524.121,-326.861 532.63,-320.548 522.042,-320.177 524.121,-326.861"/>
</g>
<!-- Node257&#45;&gt;Node256 -->
<g id="edge17" class="edge"><title>Node257&#45;&gt;Node256</title>
<path fill="none" stroke="midnightblue" d="M655.221,-319.278C665.287,-321.198 675.54,-323.154 685.352,-325.026"/>
<polygon fill="midnightblue" stroke="midnightblue" points="684.912,-328.505 695.391,-326.941 686.224,-321.629 684.912,-328.505"/>
</g>
<!-- Node257&#45;&gt;Node257 -->
<g id="edge18" class="edge"><title>Node257&#45;&gt;Node257</title>
<path fill="none" stroke="midnightblue" d="M553.42,-320.659C546.528,-330.057 556.055,-339 582,-339 597.81,-339 607.524,-335.679 611.141,-330.958"/>
<polygon fill="midnightblue" stroke="midnightblue" points="614.619,-330.454 610.58,-320.659 607.629,-330.834 614.619,-330.454"/>
</g>
</g>
</svg>
