<?xml version="1.0" encoding="UTF-8" standalone="no"?>
<!DOCTYPE svg PUBLIC "-//W3C//DTD SVG 1.1//EN"
 "http://www.w3.org/Graphics/SVG/1.1/DTD/svg11.dtd">
<!-- Generated by graphviz version 2.38.0 (20140413.2041)
 -->
<!-- Title: IgorAux::iaString::getUTF8Size Pages: 1 -->
<svg width="637pt" height="508pt"
 viewBox="0.00 0.00 637.00 507.50" xmlns="http://www.w3.org/2000/svg" xmlns:xlink="http://www.w3.org/1999/xlink">
<g id="graph0" class="graph" transform="scale(1 1) rotate(0) translate(4 503.5)">
<title>IgorAux::iaString::getUTF8Size</title>
<polygon fill="white" stroke="none" points="-4,4 -4,-503.5 633,-503.5 633,4 -4,4"/>
<!-- Node1 -->
<g id="node1" class="node"><title>Node1</title>
<polygon fill="#bfbfbf" stroke="black" points="0,-149.5 0,-179.5 95,-179.5 95,-149.5 0,-149.5"/>
<text text-anchor="start" x="8" y="-167.5" font-family="Helvetica,sans-Serif" font-size="10.00">IgorAux::iaString::</text>
<text text-anchor="middle" x="47.5" y="-156.5" font-family="Helvetica,sans-Serif" font-size="10.00">getUTF8Size</text>
</g>
<!-- Node2 -->
<g id="node2" class="node"><title>Node2</title>
<g id="a_node2"><a xlink:href="class_igor_aux_1_1ia_serializable.html#a9b63bb5311ab7ab619dafd544ad73911" target="_top" xlink:title="IgorAux::iaSerializable\l::writeUTF8">
<polygon fill="white" stroke="black" points="135.5,-259.5 135.5,-289.5 248.5,-289.5 248.5,-259.5 135.5,-259.5"/>
<text text-anchor="start" x="143.5" y="-277.5" font-family="Helvetica,sans-Serif" font-size="10.00">IgorAux::iaSerializable</text>
<text text-anchor="middle" x="192" y="-266.5" font-family="Helvetica,sans-Serif" font-size="10.00">::writeUTF8</text>
</a>
</g>
</g>
<!-- Node1&#45;&gt;Node2 -->
<g id="edge1" class="edge"><title>Node1&#45;&gt;Node2</title>
<path fill="none" stroke="midnightblue" d="M68.7586,-187.67C84.5466,-204.802 107.644,-227.937 131,-244.5 138.79,-250.024 147.746,-255.087 156.321,-259.418"/>
<polygon fill="midnightblue" stroke="midnightblue" points="70.9338,-184.858 61.6261,-179.796 65.746,-189.557 70.9338,-184.858"/>
</g>
<!-- Node3 -->
<g id="node3" class="node"><title>Node3</title>
<g id="a_node3"><a xlink:href="class_o_m_p_f_1_1ompf_base_chunk.html#aa10a43d86b3c7f1efeb2ecb0ca0bf401" target="_top" xlink:title="OMPF::ompfBaseChunk\l::getSize">
<polygon fill="white" stroke="black" points="131,-171.5 131,-201.5 253,-201.5 253,-171.5 131,-171.5"/>
<text text-anchor="start" x="139" y="-189.5" font-family="Helvetica,sans-Serif" font-size="10.00">OMPF::ompfBaseChunk</text>
<text text-anchor="middle" x="192" y="-178.5" font-family="Helvetica,sans-Serif" font-size="10.00">::getSize</text>
</a>
</g>
</g>
<!-- Node1&#45;&gt;Node3 -->
<g id="edge2" class="edge"><title>Node1&#45;&gt;Node3</title>
<path fill="none" stroke="midnightblue" d="M105.293,-173.268C113.743,-174.573 122.476,-175.921 130.99,-177.235"/>
<polygon fill="midnightblue" stroke="midnightblue" points="105.577,-169.77 95.1598,-171.704 104.509,-176.689 105.577,-169.77"/>
</g>
<!-- Node16 -->
<g id="node16" class="node"><title>Node16</title>
<g id="a_node16"><a xlink:href="class_o_m_p_f_1_1ompf_external_reference_chunk.html#a2c053e2524ee60e83375476e794f9841" target="_top" xlink:title="OMPF::ompfExternalReference\lChunk::getSize">
<polygon fill="white" stroke="black" points="289,-343.5 289,-373.5 441,-373.5 441,-343.5 289,-343.5"/>
<text text-anchor="start" x="297" y="-361.5" font-family="Helvetica,sans-Serif" font-size="10.00">OMPF::ompfExternalReference</text>
<text text-anchor="middle" x="365" y="-350.5" font-family="Helvetica,sans-Serif" font-size="10.00">Chunk::getSize</text>
</a>
</g>
</g>
<!-- Node1&#45;&gt;Node16 -->
<g id="edge21" class="edge"><title>Node1&#45;&gt;Node16</title>
<path fill="none" stroke="midnightblue" d="M81.5287,-184.903C96.3157,-193.513 114.179,-203.209 131,-210.5 183.23,-233.14 210.954,-211.125 253,-249.5 283.303,-277.157 258.702,-306.838 289,-334.5 292.736,-337.911 296.958,-340.837 301.449,-343.347"/>
<polygon fill="midnightblue" stroke="midnightblue" points="83.145,-181.793 72.756,-179.714 79.5812,-187.818 83.145,-181.793"/>
</g>
<!-- Node19 -->
<g id="node19" class="node"><title>Node19</title>
<g id="a_node19"><a xlink:href="class_o_m_p_f_1_1ompf_material_chunk.html#abe443abefded7498cf398e8e7a9ebce5" target="_top" xlink:title="OMPF::ompfMaterialChunk\l::getSize">
<polygon fill="white" stroke="black" points="298,-98.5 298,-128.5 432,-128.5 432,-98.5 298,-98.5"/>
<text text-anchor="start" x="306" y="-116.5" font-family="Helvetica,sans-Serif" font-size="10.00">OMPF::ompfMaterialChunk</text>
<text text-anchor="middle" x="365" y="-105.5" font-family="Helvetica,sans-Serif" font-size="10.00">::getSize</text>
</a>
</g>
</g>
<!-- Node1&#45;&gt;Node19 -->
<g id="edge22" class="edge"><title>Node1&#45;&gt;Node19</title>
<path fill="none" stroke="midnightblue" d="M105.152,-155.342C159.218,-146.603 240.664,-133.437 297.72,-124.214"/>
<polygon fill="midnightblue" stroke="midnightblue" points="104.366,-151.924 95.0531,-156.975 105.484,-158.834 104.366,-151.924"/>
</g>
<!-- Node20 -->
<g id="node20" class="node"><title>Node20</title>
<g id="a_node20"><a xlink:href="class_o_m_p_f_1_1ompf_resource_search_path_chunk.html#ae01bb05c6d15ee703d033d7569fbedc9" target="_top" xlink:title="OMPF::ompfResourceSearch\lPathChunk::getSize">
<polygon fill="white" stroke="black" points="293,-49.5 293,-79.5 437,-79.5 437,-49.5 293,-49.5"/>
<text text-anchor="start" x="301" y="-67.5" font-family="Helvetica,sans-Serif" font-size="10.00">OMPF::ompfResourceSearch</text>
<text text-anchor="middle" x="365" y="-56.5" font-family="Helvetica,sans-Serif" font-size="10.00">PathChunk::getSize</text>
</a>
</g>
</g>
<!-- Node1&#45;&gt;Node20 -->
<g id="edge23" class="edge"><title>Node1&#45;&gt;Node20</title>
<path fill="none" stroke="midnightblue" d="M88.366,-145.097C101.734,-139.003 116.843,-132.553 131,-127.5 186.054,-107.85 250.295,-90.9079 297.363,-79.5578"/>
<polygon fill="midnightblue" stroke="midnightblue" points="86.5799,-142.067 78.978,-149.447 89.5228,-148.419 86.5799,-142.067"/>
</g>
<!-- Node22 -->
<g id="node22" class="node"><title>Node22</title>
<g id="a_node22"><a xlink:href="namespace_testigor.html#afff8930d0cf962f5dc34405e911a82a8" target="_top" xlink:title="Testigor::TEST_CLASS">
<polygon fill="white" stroke="black" points="132.5,-57 132.5,-76 251.5,-76 251.5,-57 132.5,-57"/>
<text text-anchor="middle" x="192" y="-64" font-family="Helvetica,sans-Serif" font-size="10.00">Testigor::TEST_CLASS</text>
</a>
</g>
</g>
<!-- Node1&#45;&gt;Node22 -->
<g id="edge24" class="edge"><title>Node1&#45;&gt;Node22</title>
<path fill="none" stroke="midnightblue" d="M69.2699,-142.054C85.0116,-126.047 107.824,-104.895 131,-90.5 140.34,-84.6987 151.321,-79.822 161.319,-76.012"/>
<polygon fill="midnightblue" stroke="midnightblue" points="66.5628,-139.819 62.1396,-149.446 71.6011,-144.678 66.5628,-139.819"/>
</g>
<!-- Node4 -->
<g id="node4" class="node"><title>Node4</title>
<g id="a_node4"><a xlink:href="class_o_m_p_f_1_1ompf_base_chunk.html#a6f186b41de009cec29ae83a8929f8cea" target="_top" xlink:title="OMPF::ompfBaseChunk\l::write">
<polygon fill="white" stroke="black" points="304,-245.5 304,-275.5 426,-275.5 426,-245.5 304,-245.5"/>
<text text-anchor="start" x="312" y="-263.5" font-family="Helvetica,sans-Serif" font-size="10.00">OMPF::ompfBaseChunk</text>
<text text-anchor="middle" x="365" y="-252.5" font-family="Helvetica,sans-Serif" font-size="10.00">::write</text>
</a>
</g>
</g>
<!-- Node3&#45;&gt;Node4 -->
<g id="edge3" class="edge"><title>Node3&#45;&gt;Node4</title>
<path fill="none" stroke="midnightblue" d="M232.679,-206.186C239.471,-209.599 246.448,-213.134 253,-216.5 269.092,-224.768 272.363,-228.393 289,-235.5 297.204,-239.004 306.077,-242.341 314.751,-245.369"/>
<polygon fill="midnightblue" stroke="midnightblue" points="234.098,-202.982 223.589,-201.632 230.963,-209.24 234.098,-202.982"/>
</g>
<!-- Node3&#45;&gt;Node16 -->
<g id="edge15" class="edge"><title>Node3&#45;&gt;Node16</title>
<path fill="none" stroke="midnightblue" d="M243.003,-207.202C246.684,-209.965 250.088,-213.054 253,-216.5 288.391,-258.379 250.493,-295.466 289,-334.5 292.36,-337.906 296.204,-340.83 300.335,-343.339"/>
<polygon fill="midnightblue" stroke="midnightblue" points="244.864,-204.237 234.586,-201.666 241.017,-210.085 244.864,-204.237"/>
</g>
<!-- Node17 -->
<g id="node17" class="node"><title>Node17</title>
<g id="a_node17"><a xlink:href="class_o_m_p_f_1_1ompf_group_chunk.html#a96c2548c838c158106ad603a7df214e0" target="_top" xlink:title="OMPF::ompfGroupChunk\l::getSize">
<polygon fill="white" stroke="black" points="302,-196.5 302,-226.5 428,-226.5 428,-196.5 302,-196.5"/>
<text text-anchor="start" x="310" y="-214.5" font-family="Helvetica,sans-Serif" font-size="10.00">OMPF::ompfGroupChunk</text>
<text text-anchor="middle" x="365" y="-203.5" font-family="Helvetica,sans-Serif" font-size="10.00">::getSize</text>
</a>
</g>
</g>
<!-- Node3&#45;&gt;Node17 -->
<g id="edge16" class="edge"><title>Node3&#45;&gt;Node17</title>
<path fill="none" stroke="midnightblue" d="M263.412,-196.794C276.189,-198.662 289.429,-200.598 301.944,-202.427"/>
<polygon fill="midnightblue" stroke="midnightblue" points="263.689,-193.298 253.288,-195.314 262.677,-200.224 263.689,-193.298"/>
</g>
<!-- Node18 -->
<g id="node18" class="node"><title>Node18</title>
<g id="a_node18"><a xlink:href="class_o_m_p_f_1_1ompf_header_chunk.html#a53154e081557780d08d9b3a303ada97a" target="_top" xlink:title="OMPF::ompfHeaderChunk\l::getSize">
<polygon fill="white" stroke="black" points="299.5,-147.5 299.5,-177.5 430.5,-177.5 430.5,-147.5 299.5,-147.5"/>
<text text-anchor="start" x="307.5" y="-165.5" font-family="Helvetica,sans-Serif" font-size="10.00">OMPF::ompfHeaderChunk</text>
<text text-anchor="middle" x="365" y="-154.5" font-family="Helvetica,sans-Serif" font-size="10.00">::getSize</text>
</a>
</g>
</g>
<!-- Node3&#45;&gt;Node18 -->
<g id="edge17" class="edge"><title>Node3&#45;&gt;Node18</title>
<path fill="none" stroke="midnightblue" d="M263.209,-176.646C275.16,-174.969 287.523,-173.234 299.323,-171.578"/>
<polygon fill="midnightblue" stroke="midnightblue" points="262.705,-173.182 253.288,-178.038 263.678,-180.115 262.705,-173.182"/>
</g>
<!-- Node3&#45;&gt;Node19 -->
<g id="edge18" class="edge"><title>Node3&#45;&gt;Node19</title>
<path fill="none" stroke="midnightblue" d="M232.679,-166.814C239.471,-163.401 246.448,-159.866 253,-156.5 269.092,-148.232 272.32,-144.506 289,-137.5 296.563,-134.323 304.7,-131.317 312.728,-128.577"/>
<polygon fill="midnightblue" stroke="midnightblue" points="230.963,-163.76 223.589,-171.368 234.098,-170.018 230.963,-163.76"/>
</g>
<!-- Node3&#45;&gt;Node20 -->
<g id="edge19" class="edge"><title>Node3&#45;&gt;Node20</title>
<path fill="none" stroke="midnightblue" d="M213.263,-163.37C236.02,-137.85 271.989,-98.9929 289,-88.5 294.469,-85.1267 300.457,-82.183 306.591,-79.625"/>
<polygon fill="midnightblue" stroke="midnightblue" points="210.395,-161.329 206.379,-171.134 215.632,-165.973 210.395,-161.329"/>
</g>
<!-- Node21 -->
<g id="node21" class="node"><title>Node21</title>
<g id="a_node21"><a xlink:href="class_o_m_p_f_1_1ompf_transform_chunk.html#abcbe11533efd73c6a1fe1e456bf6bdc7" target="_top" xlink:title="OMPF::ompfTransformChunk\l::getSize">
<polygon fill="white" stroke="black" points="293.5,-294.5 293.5,-324.5 436.5,-324.5 436.5,-294.5 293.5,-294.5"/>
<text text-anchor="start" x="301.5" y="-312.5" font-family="Helvetica,sans-Serif" font-size="10.00">OMPF::ompfTransformChunk</text>
<text text-anchor="middle" x="365" y="-301.5" font-family="Helvetica,sans-Serif" font-size="10.00">::getSize</text>
</a>
</g>
</g>
<!-- Node3&#45;&gt;Node21 -->
<g id="edge20" class="edge"><title>Node3&#45;&gt;Node21</title>
<path fill="none" stroke="midnightblue" d="M240.811,-206.781C245.198,-209.683 249.356,-212.918 253,-216.5 277.668,-240.747 262.54,-263.222 289,-285.5 293.079,-288.934 297.655,-291.879 302.483,-294.404"/>
<polygon fill="midnightblue" stroke="midnightblue" points="242.542,-203.738 232.163,-201.606 238.947,-209.744 242.542,-203.738"/>
</g>
<!-- Node5 -->
<g id="node5" class="node"><title>Node5</title>
<g id="a_node5"><a xlink:href="class_o_m_p_f_1_1_o_m_p_f.html#a5b2b8784a1caf169716bfc39e722ca7d" target="_top" xlink:title="OMPF::OMPF::writeMaterial">
<polygon fill="white" stroke="black" points="483,-480 483,-499 623,-499 623,-480 483,-480"/>
<text text-anchor="middle" x="553" y="-487" font-family="Helvetica,sans-Serif" font-size="10.00">OMPF::OMPF::writeMaterial</text>
</a>
</g>
</g>
<!-- Node4&#45;&gt;Node5 -->
<g id="edge4" class="edge"><title>Node4&#45;&gt;Node5</title>
<path fill="none" stroke="midnightblue" d="M434.58,-279.403C436.891,-281.25 439.047,-283.276 441,-285.5 496.272,-348.44 419.449,-409.637 477,-470.5 480.599,-474.306 484.842,-477.394 489.45,-479.893"/>
<polygon fill="midnightblue" stroke="midnightblue" points="436.453,-276.445 426.195,-273.792 432.559,-282.262 436.453,-276.445"/>
</g>
<!-- Node6 -->
<g id="node6" class="node"><title>Node6</title>
<g id="a_node6"><a xlink:href="class_o_m_p_f_1_1_o_m_p_f.html#a8fd77db730303b8429524f552de91146" target="_top" xlink:title="OMPF::OMPF::write">
<polygon fill="white" stroke="black" points="500,-442 500,-461 606,-461 606,-442 500,-442"/>
<text text-anchor="middle" x="553" y="-449" font-family="Helvetica,sans-Serif" font-size="10.00">OMPF::OMPF::write</text>
</a>
</g>
</g>
<!-- Node4&#45;&gt;Node6 -->
<g id="edge5" class="edge"><title>Node4&#45;&gt;Node6</title>
<path fill="none" stroke="midnightblue" d="M435.056,-280C437.176,-281.684 439.169,-283.513 441,-285.5 486.584,-334.963 429.626,-384.749 477,-432.5 483.244,-438.794 491.253,-443.105 499.703,-446.038"/>
<polygon fill="midnightblue" stroke="midnightblue" points="436.597,-276.821 426.332,-274.198 432.721,-282.65 436.597,-276.821"/>
</g>
<!-- Node7 -->
<g id="node7" class="node"><title>Node7</title>
<g id="a_node7"><a xlink:href="class_o_m_p_f_1_1ompf_emitter_chunk.html#acfbbcf5bc5c99d404f9cd80bcf57a8ff" target="_top" xlink:title="OMPF::ompfEmitterChunk\l::write">
<polygon fill="white" stroke="black" points="487.5,-392.5 487.5,-422.5 618.5,-422.5 618.5,-392.5 487.5,-392.5"/>
<text text-anchor="start" x="495.5" y="-410.5" font-family="Helvetica,sans-Serif" font-size="10.00">OMPF::ompfEmitterChunk</text>
<text text-anchor="middle" x="553" y="-399.5" font-family="Helvetica,sans-Serif" font-size="10.00">::write</text>
</a>
</g>
</g>
<!-- Node4&#45;&gt;Node7 -->
<g id="edge6" class="edge"><title>Node4&#45;&gt;Node7</title>
<path fill="none" stroke="midnightblue" d="M434.926,-280.377C437.068,-281.956 439.104,-283.66 441,-285.5 474.304,-317.81 443.502,-351.391 477,-383.5 480.553,-386.906 484.59,-389.828 488.904,-392.336"/>
<polygon fill="midnightblue" stroke="midnightblue" points="436.526,-277.248 426.197,-274.887 432.799,-283.174 436.526,-277.248"/>
</g>
<!-- Node8 -->
<g id="node8" class="node"><title>Node8</title>
<g id="a_node8"><a xlink:href="class_o_m_p_f_1_1ompf_external_reference_chunk.html#a465f026905147cc0af22e7e43e8dcbc2" target="_top" xlink:title="OMPF::ompfExternalReference\lChunk::write">
<polygon fill="white" stroke="black" points="477,-343.5 477,-373.5 629,-373.5 629,-343.5 477,-343.5"/>
<text text-anchor="start" x="485" y="-361.5" font-family="Helvetica,sans-Serif" font-size="10.00">OMPF::ompfExternalReference</text>
<text text-anchor="middle" x="553" y="-350.5" font-family="Helvetica,sans-Serif" font-size="10.00">Chunk::write</text>
</a>
</g>
</g>
<!-- Node4&#45;&gt;Node8 -->
<g id="edge7" class="edge"><title>Node4&#45;&gt;Node8</title>
<path fill="none" stroke="midnightblue" d="M432.585,-280.104C435.515,-281.765 438.337,-283.561 441,-285.5 462.844,-301.409 455.06,-318.723 477,-334.5 481.773,-337.932 487.058,-340.888 492.549,-343.432"/>
<polygon fill="midnightblue" stroke="midnightblue" points="434.033,-276.914 423.532,-275.512 430.867,-283.157 434.033,-276.914"/>
</g>
<!-- Node9 -->
<g id="node9" class="node"><title>Node9</title>
<g id="a_node9"><a xlink:href="class_o_m_p_f_1_1ompf_group_chunk.html#a250bff7aa0160678bd47562c19e07865" target="_top" xlink:title="OMPF::ompfGroupChunk\l::write">
<polygon fill="white" stroke="black" points="490,-294.5 490,-324.5 616,-324.5 616,-294.5 490,-294.5"/>
<text text-anchor="start" x="498" y="-312.5" font-family="Helvetica,sans-Serif" font-size="10.00">OMPF::ompfGroupChunk</text>
<text text-anchor="middle" x="553" y="-301.5" font-family="Helvetica,sans-Serif" font-size="10.00">::write</text>
</a>
</g>
</g>
<!-- Node4&#45;&gt;Node9 -->
<g id="edge8" class="edge"><title>Node4&#45;&gt;Node9</title>
<path fill="none" stroke="midnightblue" d="M432.895,-278.123C453.244,-283.484 475.408,-289.323 495.038,-294.494"/>
<polygon fill="midnightblue" stroke="midnightblue" points="433.632,-274.698 423.07,-275.535 431.849,-281.467 433.632,-274.698"/>
</g>
<!-- Node10 -->
<g id="node10" class="node"><title>Node10</title>
<g id="a_node10"><a xlink:href="class_o_m_p_f_1_1ompf_header_chunk.html#a54b14e4116050ddae69c7a75542bd3e1" target="_top" xlink:title="OMPF::ompfHeaderChunk\l::write">
<polygon fill="white" stroke="black" points="487.5,-245.5 487.5,-275.5 618.5,-275.5 618.5,-245.5 487.5,-245.5"/>
<text text-anchor="start" x="495.5" y="-263.5" font-family="Helvetica,sans-Serif" font-size="10.00">OMPF::ompfHeaderChunk</text>
<text text-anchor="middle" x="553" y="-252.5" font-family="Helvetica,sans-Serif" font-size="10.00">::write</text>
</a>
</g>
</g>
<!-- Node4&#45;&gt;Node10 -->
<g id="edge9" class="edge"><title>Node4&#45;&gt;Node10</title>
<path fill="none" stroke="midnightblue" d="M436.378,-260.5C453.081,-260.5 470.822,-260.5 487.26,-260.5"/>
<polygon fill="midnightblue" stroke="midnightblue" points="436.132,-257 426.132,-260.5 436.132,-264 436.132,-257"/>
</g>
<!-- Node11 -->
<g id="node11" class="node"><title>Node11</title>
<g id="a_node11"><a xlink:href="class_o_m_p_f_1_1ompf_material_chunk.html#a16218c145b688f2db2fcfb61c1feec39" target="_top" xlink:title="OMPF::ompfMaterialChunk\l::write">
<polygon fill="white" stroke="black" points="486,-196.5 486,-226.5 620,-226.5 620,-196.5 486,-196.5"/>
<text text-anchor="start" x="494" y="-214.5" font-family="Helvetica,sans-Serif" font-size="10.00">OMPF::ompfMaterialChunk</text>
<text text-anchor="middle" x="553" y="-203.5" font-family="Helvetica,sans-Serif" font-size="10.00">::write</text>
</a>
</g>
</g>
<!-- Node4&#45;&gt;Node11 -->
<g id="edge10" class="edge"><title>Node4&#45;&gt;Node11</title>
<path fill="none" stroke="midnightblue" d="M432.895,-242.877C453.244,-237.516 475.408,-231.677 495.038,-226.506"/>
<polygon fill="midnightblue" stroke="midnightblue" points="431.849,-239.533 423.07,-245.465 433.632,-246.302 431.849,-239.533"/>
</g>
<!-- Node12 -->
<g id="node12" class="node"><title>Node12</title>
<g id="a_node12"><a xlink:href="class_o_m_p_f_1_1ompf_mesh_chunk.html#a83a3fb04f638373d6aa6e736cb42c35b" target="_top" xlink:title="OMPF::ompfMeshChunk\l::write">
<polygon fill="white" stroke="black" points="491,-147.5 491,-177.5 615,-177.5 615,-147.5 491,-147.5"/>
<text text-anchor="start" x="499" y="-165.5" font-family="Helvetica,sans-Serif" font-size="10.00">OMPF::ompfMeshChunk</text>
<text text-anchor="middle" x="553" y="-154.5" font-family="Helvetica,sans-Serif" font-size="10.00">::write</text>
</a>
</g>
</g>
<!-- Node4&#45;&gt;Node12 -->
<g id="edge11" class="edge"><title>Node4&#45;&gt;Node12</title>
<path fill="none" stroke="midnightblue" d="M432.585,-240.896C435.515,-239.235 438.337,-237.439 441,-235.5 462.844,-219.591 455.06,-202.277 477,-186.5 481.773,-183.068 487.058,-180.112 492.549,-177.568"/>
<polygon fill="midnightblue" stroke="midnightblue" points="430.867,-237.843 423.532,-245.488 434.033,-244.086 430.867,-237.843"/>
</g>
<!-- Node13 -->
<g id="node13" class="node"><title>Node13</title>
<g id="a_node13"><a xlink:href="class_o_m_p_f_1_1ompf_particle_system_chunk.html#a784b64dcf17282520dd77f074364ca75" target="_top" xlink:title="OMPF::ompfParticleSystem\lChunk::write">
<polygon fill="white" stroke="black" points="483.5,-98.5 483.5,-128.5 622.5,-128.5 622.5,-98.5 483.5,-98.5"/>
<text text-anchor="start" x="491.5" y="-116.5" font-family="Helvetica,sans-Serif" font-size="10.00">OMPF::ompfParticleSystem</text>
<text text-anchor="middle" x="553" y="-105.5" font-family="Helvetica,sans-Serif" font-size="10.00">Chunk::write</text>
</a>
</g>
</g>
<!-- Node4&#45;&gt;Node13 -->
<g id="edge12" class="edge"><title>Node4&#45;&gt;Node13</title>
<path fill="none" stroke="midnightblue" d="M434.926,-240.623C437.068,-239.044 439.104,-237.34 441,-235.5 474.304,-203.19 443.502,-169.609 477,-137.5 480.553,-134.094 484.59,-131.172 488.904,-128.664"/>
<polygon fill="midnightblue" stroke="midnightblue" points="432.799,-237.826 426.197,-246.113 436.526,-243.752 432.799,-237.826"/>
</g>
<!-- Node14 -->
<g id="node14" class="node"><title>Node14</title>
<g id="a_node14"><a xlink:href="class_o_m_p_f_1_1ompf_resource_search_path_chunk.html#a1b17d55f869cf4c6ce4a375efa17886b" target="_top" xlink:title="OMPF::ompfResourceSearch\lPathChunk::write">
<polygon fill="white" stroke="black" points="481,-49.5 481,-79.5 625,-79.5 625,-49.5 481,-49.5"/>
<text text-anchor="start" x="489" y="-67.5" font-family="Helvetica,sans-Serif" font-size="10.00">OMPF::ompfResourceSearch</text>
<text text-anchor="middle" x="553" y="-56.5" font-family="Helvetica,sans-Serif" font-size="10.00">PathChunk::write</text>
</a>
</g>
</g>
<!-- Node4&#45;&gt;Node14 -->
<g id="edge13" class="edge"><title>Node4&#45;&gt;Node14</title>
<path fill="none" stroke="midnightblue" d="M435.056,-241C437.176,-239.316 439.169,-237.487 441,-235.5 486.584,-186.037 431.119,-137.687 477,-88.5 480.171,-85.1009 483.822,-82.1814 487.77,-79.674"/>
<polygon fill="midnightblue" stroke="midnightblue" points="432.721,-238.35 426.332,-246.802 436.597,-244.179 432.721,-238.35"/>
</g>
<!-- Node15 -->
<g id="node15" class="node"><title>Node15</title>
<g id="a_node15"><a xlink:href="class_o_m_p_f_1_1ompf_transform_chunk.html#ade0febaec0aec168ab684c426cf7cdff" target="_top" xlink:title="OMPF::ompfTransformChunk\l::write">
<polygon fill="white" stroke="black" points="481.5,-0.5 481.5,-30.5 624.5,-30.5 624.5,-0.5 481.5,-0.5"/>
<text text-anchor="start" x="489.5" y="-18.5" font-family="Helvetica,sans-Serif" font-size="10.00">OMPF::ompfTransformChunk</text>
<text text-anchor="middle" x="553" y="-7.5" font-family="Helvetica,sans-Serif" font-size="10.00">::write</text>
</a>
</g>
</g>
<!-- Node4&#45;&gt;Node15 -->
<g id="edge14" class="edge"><title>Node4&#45;&gt;Node15</title>
<path fill="none" stroke="midnightblue" d="M434.61,-241.623C436.913,-239.769 439.059,-237.734 441,-235.5 499.09,-168.643 418.508,-106.006 477,-39.5 479.979,-36.1123 483.437,-33.1992 487.2,-30.6946"/>
<polygon fill="midnightblue" stroke="midnightblue" points="432.587,-238.765 426.246,-247.253 436.496,-244.572 432.587,-238.765"/>
</g>
</g>
</svg>
