<?xml version="1.0" encoding="UTF-8" standalone="no"?>
<!DOCTYPE svg PUBLIC "-//W3C//DTD SVG 1.1//EN"
 "http://www.w3.org/Graphics/SVG/1.1/DTD/svg11.dtd">
<!-- Generated by graphviz version 2.38.0 (20140413.2041)
 -->
<!-- Title: Igor::iSoundResourceFactory::loadFile Pages: 1 -->
<svg width="509pt" height="100pt"
 viewBox="0.00 0.00 509.00 99.50" xmlns="http://www.w3.org/2000/svg" xmlns:xlink="http://www.w3.org/1999/xlink">
<g id="graph0" class="graph" transform="scale(1 1) rotate(0) translate(4 95.5)">
<title>Igor::iSoundResourceFactory::loadFile</title>
<polygon fill="white" stroke="none" points="-4,4 -4,-95.5 505,-95.5 505,4 -4,4"/>
<!-- Node11 -->
<g id="node1" class="node"><title>Node11</title>
<g id="a_node1"><a xlink:title=" ">
<polygon fill="#bfbfbf" stroke="black" points="0,-27.5 0,-57.5 143,-57.5 143,-27.5 0,-27.5"/>
<text text-anchor="start" x="8" y="-45.5" font-family="Helvetica,sans-Serif" font-size="10.00">Igor::iSoundResourceFactory</text>
<text text-anchor="middle" x="71.5" y="-34.5" font-family="Helvetica,sans-Serif" font-size="10.00">::loadFile</text>
</a>
</g>
</g>
<!-- Node12 -->
<g id="node2" class="node"><title>Node12</title>
<g id="a_node2"><a xlink:href="class_igor_1_1i_sound_resource_factory.html#a6427f3498bc7fe736d7f0b59c21cd822" target="_top" xlink:title=" ">
<polygon fill="white" stroke="black" points="179,-27.5 179,-57.5 322,-57.5 322,-27.5 179,-27.5"/>
<text text-anchor="start" x="187" y="-45.5" font-family="Helvetica,sans-Serif" font-size="10.00">Igor::iSoundResourceFactory</text>
<text text-anchor="middle" x="250.5" y="-34.5" font-family="Helvetica,sans-Serif" font-size="10.00">::loadBuffer</text>
</a>
</g>
</g>
<!-- Node11&#45;&gt;Node12 -->
<g id="edge1" class="edge"><title>Node11&#45;&gt;Node12</title>
<path fill="none" stroke="midnightblue" d="M143.218,-42.5C151.57,-42.5 160.142,-42.5 168.62,-42.5"/>
<polygon fill="midnightblue" stroke="midnightblue" points="168.894,-46.0001 178.894,-42.5 168.894,-39.0001 168.894,-46.0001"/>
</g>
<!-- Node13 -->
<g id="node3" class="node"><title>Node13</title>
<g id="a_node3"><a xlink:href="class_igor_aux_1_1ia_singleton.html#a821f1d891129e6d09b992be81094540e" target="_top" xlink:title=" ">
<polygon fill="white" stroke="black" points="371.5,-50 371.5,-91 487.5,-91 487.5,-50 371.5,-50"/>
<text text-anchor="start" x="379.5" y="-79" font-family="Helvetica,sans-Serif" font-size="10.00">IgorAux::iaSingleton</text>
<text text-anchor="start" x="379.5" y="-68" font-family="Helvetica,sans-Serif" font-size="10.00">&lt; iResourceManager &gt;</text>
<text text-anchor="middle" x="429.5" y="-57" font-family="Helvetica,sans-Serif" font-size="10.00">::getInstance</text>
</a>
</g>
</g>
<!-- Node12&#45;&gt;Node13 -->
<g id="edge2" class="edge"><title>Node12&#45;&gt;Node13</title>
<path fill="none" stroke="midnightblue" d="M322.218,-53.6871C335.135,-55.7304 348.579,-57.8571 361.387,-59.8832"/>
<polygon fill="midnightblue" stroke="midnightblue" points="361.076,-63.3775 371.5,-61.483 362.17,-56.4634 361.076,-63.3775"/>
</g>
<!-- Node14 -->
<g id="node4" class="node"><title>Node14</title>
<g id="a_node4"><a xlink:href="class_igor_1_1i_sound_resource_factory.html#a7463161612f7b252d316fbd7a2d87b0f" target="_top" xlink:title=" ">
<polygon fill="white" stroke="black" points="358,-0.5 358,-30.5 501,-30.5 501,-0.5 358,-0.5"/>
<text text-anchor="start" x="366" y="-18.5" font-family="Helvetica,sans-Serif" font-size="10.00">Igor::iSoundResourceFactory</text>
<text text-anchor="middle" x="429.5" y="-7.5" font-family="Helvetica,sans-Serif" font-size="10.00">::loadWAVBuffer</text>
</a>
</g>
</g>
<!-- Node12&#45;&gt;Node14 -->
<g id="edge3" class="edge"><title>Node12&#45;&gt;Node14</title>
<path fill="none" stroke="midnightblue" d="M322.218,-31.7125C330.662,-30.4245 339.331,-29.1021 347.9,-27.7949"/>
<polygon fill="midnightblue" stroke="midnightblue" points="348.536,-31.2384 357.894,-26.2704 347.481,-24.3185 348.536,-31.2384"/>
</g>
</g>
</svg>
