<?xml version="1.0" encoding="UTF-8" standalone="no"?>
<!DOCTYPE svg PUBLIC "-//W3C//DTD SVG 1.1//EN"
 "http://www.w3.org/Graphics/SVG/1.1/DTD/svg11.dtd">
<!-- Generated by graphviz version 2.38.0 (20140413.2041)
 -->
<!-- Title: Igor::iNodeParticleSystem Pages: 1 -->
<svg width="1462pt" height="502pt"
 viewBox="0.00 0.00 1462.00 502.00" xmlns="http://www.w3.org/2000/svg" xmlns:xlink="http://www.w3.org/1999/xlink">
<g id="graph0" class="graph" transform="scale(1 1) rotate(0) translate(4 498.002)">
<title>Igor::iNodeParticleSystem</title>
<polygon fill="white" stroke="none" points="-4,4 -4,-498.002 1458,-498.002 1458,4 -4,4"/>
<!-- Node4 -->
<g id="node1" class="node"><title>Node4</title>
<g id="a_node1"><a xlink:title=" ">
<polygon fill="#bfbfbf" stroke="black" points="1324,-137.502 1324,-156.502 1454,-156.502 1454,-137.502 1324,-137.502"/>
<text text-anchor="middle" x="1389" y="-144.502" font-family="Helvetica,sans-Serif" font-size="10.00">Igor::iNodeParticleSystem</text>
</a>
</g>
</g>
<!-- Node5 -->
<g id="node2" class="node"><title>Node5</title>
<g id="a_node2"><a xlink:href="class_igor_1_1i_node_volume.html" target="_top" xlink:title=" ">
<polygon fill="white" stroke="black" points="1106.5,-137.502 1106.5,-156.502 1202.5,-156.502 1202.5,-137.502 1106.5,-137.502"/>
<text text-anchor="middle" x="1154.5" y="-144.502" font-family="Helvetica,sans-Serif" font-size="10.00">Igor::iNodeVolume</text>
</a>
</g>
</g>
<!-- Node5&#45;&gt;Node4 -->
<g id="edge1" class="edge"><title>Node5&#45;&gt;Node4</title>
<path fill="none" stroke="midnightblue" d="M1212.69,-147.002C1246.36,-147.002 1289.03,-147.002 1323.84,-147.002"/>
<polygon fill="midnightblue" stroke="midnightblue" points="1212.55,-143.502 1202.55,-147.002 1212.55,-150.502 1212.55,-143.502"/>
</g>
<!-- Node6 -->
<g id="node3" class="node"><title>Node6</title>
<g id="a_node3"><a xlink:href="class_igor_1_1i_node_render.html" target="_top" xlink:title=" ">
<polygon fill="white" stroke="black" points="794,-184.502 794,-203.502 888,-203.502 888,-184.502 794,-184.502"/>
<text text-anchor="middle" x="841" y="-191.502" font-family="Helvetica,sans-Serif" font-size="10.00">Igor::iNodeRender</text>
</a>
</g>
</g>
<!-- Node6&#45;&gt;Node5 -->
<g id="edge2" class="edge"><title>Node6&#45;&gt;Node5</title>
<path fill="none" stroke="midnightblue" d="M897.997,-201.989C946.344,-206.959 1017.58,-209.629 1077,-193.002 1102.37,-185.904 1127.78,-167.948 1141.99,-156.685"/>
<polygon fill="midnightblue" stroke="midnightblue" points="898.361,-198.508 888.04,-200.9 897.6,-205.467 898.361,-198.508"/>
</g>
<!-- Node7 -->
<g id="node4" class="node"><title>Node7</title>
<g id="a_node4"><a xlink:href="class_igor_1_1i_node.html" target="_top" xlink:title=" ">
<polygon fill="white" stroke="black" points="486.5,-324.502 486.5,-343.502 549.5,-343.502 549.5,-324.502 486.5,-324.502"/>
<text text-anchor="middle" x="518" y="-331.502" font-family="Helvetica,sans-Serif" font-size="10.00">Igor::iNode</text>
</a>
</g>
</g>
<!-- Node7&#45;&gt;Node6 -->
<g id="edge3" class="edge"><title>Node7&#45;&gt;Node6</title>
<path fill="none" stroke="midnightblue" d="M559.744,-329.415C618.541,-322.465 721.635,-308.923 735,-298.002 752.321,-283.849 738.965,-268.42 753,-251.002 770.448,-229.349 798.387,-213.121 817.881,-203.626"/>
<polygon fill="midnightblue" stroke="midnightblue" points="559.188,-325.956 549.662,-330.593 560,-332.908 559.188,-325.956"/>
</g>
<!-- Node7&#45;&gt;Node7 -->
<g id="edge18" class="edge"><title>Node7&#45;&gt;Node7</title>
<path fill="none" stroke="#9a32cd" stroke-dasharray="5,2" d="M492.33,-353.032C493.731,-358.13 502.287,-362.002 518,-362.002 542.527,-362.002 549.617,-352.568 539.27,-343.759"/>
<polygon fill="#9a32cd" stroke="#9a32cd" points="495.605,-354.294 496.73,-343.759 489.281,-351.293 495.605,-354.294"/>
<text text-anchor="middle" x="518" y="-365.002" font-family="Helvetica,sans-Serif" font-size="10.00"> _parent</text>
</g>
<!-- Node12 -->
<g id="node9" class="node"><title>Node12</title>
<g id="a_node9"><a xlink:href="class_igor_1_1i_scene.html" target="_top" xlink:title=" ">
<polygon fill="white" stroke="black" points="807,-418.502 807,-437.502 875,-437.502 875,-418.502 807,-418.502"/>
<text text-anchor="middle" x="841" y="-425.502" font-family="Helvetica,sans-Serif" font-size="10.00">Igor::iScene</text>
</a>
</g>
</g>
<!-- Node7&#45;&gt;Node12 -->
<g id="edge15" class="edge"><title>Node7&#45;&gt;Node12</title>
<path fill="none" stroke="#9a32cd" stroke-dasharray="5,2" d="M559.491,-346.149C571.543,-349.709 584.79,-353.566 597,-357.002 658.125,-374.206 678.628,-364.773 735,-394.002 744.245,-398.796 743.645,-404.427 753,-409.002 769.805,-417.221 790.16,-421.915 806.955,-424.581"/>
<polygon fill="#9a32cd" stroke="#9a32cd" points="560.28,-342.733 549.698,-343.245 558.29,-349.444 560.28,-342.733"/>
<text text-anchor="middle" x="666" y="-397.002" font-family="Helvetica,sans-Serif" font-size="10.00"> _root</text>
</g>
<!-- Node8 -->
<g id="node5" class="node"><title>Node8</title>
<g id="a_node5"><a xlink:href="class_igor_aux_1_1ia_i_d_generator.html" target="_top" xlink:title=" ">
<polygon fill="white" stroke="black" points="163,-324.502 163,-343.502 301,-343.502 301,-324.502 163,-324.502"/>
<text text-anchor="middle" x="232" y="-331.502" font-family="Helvetica,sans-Serif" font-size="10.00">IgorAux::iaIDGenerator&lt; T &gt;</text>
</a>
</g>
</g>
<!-- Node8&#45;&gt;Node7 -->
<g id="edge4" class="edge"><title>Node8&#45;&gt;Node7</title>
<path fill="none" stroke="#9a32cd" stroke-dasharray="5,2" d="M311.251,-334.002C369.157,-334.002 444.91,-334.002 486.45,-334.002"/>
<polygon fill="#9a32cd" stroke="#9a32cd" points="311.025,-330.502 301.025,-334.002 311.025,-337.502 311.025,-330.502"/>
<text text-anchor="middle" x="379" y="-337.002" font-family="Helvetica,sans-Serif" font-size="10.00"> _idGenerator</text>
</g>
<!-- Node9 -->
<g id="node6" class="node"><title>Node9</title>
<g id="a_node6"><a xlink:href="class_igor_aux_1_1ia_mutex.html" target="_top" xlink:title=" ">
<polygon fill="white" stroke="black" points="0,-394.502 0,-413.502 90,-413.502 90,-394.502 0,-394.502"/>
<text text-anchor="middle" x="45" y="-401.502" font-family="Helvetica,sans-Serif" font-size="10.00">IgorAux::iaMutex</text>
</a>
</g>
</g>
<!-- Node9&#45;&gt;Node8 -->
<g id="edge5" class="edge"><title>Node9&#45;&gt;Node8</title>
<path fill="none" stroke="#9a32cd" stroke-dasharray="5,2" d="M81.0359,-390.745C117.401,-376.986 173.387,-355.802 205.674,-343.585"/>
<polygon fill="#9a32cd" stroke="#9a32cd" points="79.4498,-387.603 71.3356,-394.416 81.9271,-394.15 79.4498,-387.603"/>
<text text-anchor="middle" x="126.5" y="-383.002" font-family="Helvetica,sans-Serif" font-size="10.00"> _mutex</text>
</g>
<!-- Node17 -->
<g id="node14" class="node"><title>Node17</title>
<g id="a_node14"><a xlink:href="class_igor_1_1i_data_update_queue.html" target="_top" xlink:title=" ">
<polygon fill="white" stroke="black" points="319,-473.502 319,-492.502 439,-492.502 439,-473.502 319,-473.502"/>
<text text-anchor="middle" x="379" y="-480.502" font-family="Helvetica,sans-Serif" font-size="10.00">Igor::iDataUpdateQueue</text>
</a>
</g>
</g>
<!-- Node9&#45;&gt;Node17 -->
<g id="edge17" class="edge"><title>Node9&#45;&gt;Node17</title>
<path fill="none" stroke="#9a32cd" stroke-dasharray="5,2" d="M95.825,-415.858C161.94,-431.59 277.362,-459.055 338.07,-473.501"/>
<polygon fill="#9a32cd" stroke="#9a32cd" points="96.5856,-412.442 86.047,-413.532 94.9651,-419.251 96.5856,-412.442"/>
<text text-anchor="middle" x="126.5" y="-431.002" font-family="Helvetica,sans-Serif" font-size="10.00"> _mutex</text>
</g>
<!-- Node10 -->
<g id="node7" class="node"><title>Node10</title>
<g id="a_node7"><a xlink:title=" ">
<polygon fill="white" stroke="#bfbfbf" points="30.5,-148.502 30.5,-167.502 59.5,-167.502 59.5,-148.502 30.5,-148.502"/>
<text text-anchor="middle" x="45" y="-155.502" font-family="Helvetica,sans-Serif" font-size="10.00">T</text>
</a>
</g>
</g>
<!-- Node10&#45;&gt;Node8 -->
<g id="edge6" class="edge"><title>Node10&#45;&gt;Node8</title>
<path fill="none" stroke="#9a32cd" stroke-dasharray="5,2" d="M55.7354,-176.862C73.0993,-208.728 112.388,-273.329 163,-310.002 171.516,-316.173 181.764,-320.878 191.692,-324.415"/>
<polygon fill="#9a32cd" stroke="#9a32cd" points="58.6699,-174.926 50.8816,-167.743 52.4907,-178.215 58.6699,-174.926"/>
<text text-anchor="middle" x="126.5" y="-297.002" font-family="Helvetica,sans-Serif" font-size="10.00"> _nextID</text>
</g>
<!-- Node16 -->
<g id="node13" class="node"><title>Node16</title>
<g id="a_node13"><a xlink:href="class_igor_aux_1_1ia_matrix.html" target="_top" xlink:title=" ">
<polygon fill="white" stroke="black" points="175.5,-183.502 175.5,-202.502 288.5,-202.502 288.5,-183.502 175.5,-183.502"/>
<text text-anchor="middle" x="232" y="-190.502" font-family="Helvetica,sans-Serif" font-size="10.00">IgorAux::iaMatrix&lt; T &gt;</text>
</a>
</g>
</g>
<!-- Node10&#45;&gt;Node16 -->
<g id="edge14" class="edge"><title>Node10&#45;&gt;Node16</title>
<path fill="none" stroke="#9a32cd" stroke-dasharray="5,2" d="M69.5872,-162.465C97.3783,-167.723 144.338,-176.607 180.462,-183.441"/>
<polygon fill="#9a32cd" stroke="#9a32cd" points="70.0798,-158.996 59.6035,-160.576 68.7785,-165.874 70.0798,-158.996"/>
<text text-anchor="middle" x="126.5" y="-213.002" font-family="Helvetica,sans-Serif" font-size="10.00"> _w0</text>
<text text-anchor="middle" x="126.5" y="-202.002" font-family="Helvetica,sans-Serif" font-size="10.00">_w1</text>
<text text-anchor="middle" x="126.5" y="-191.002" font-family="Helvetica,sans-Serif" font-size="10.00">_w2</text>
<text text-anchor="middle" x="126.5" y="-180.002" font-family="Helvetica,sans-Serif" font-size="10.00">_w3</text>
</g>
<!-- Node20 -->
<g id="node17" class="node"><title>Node20</title>
<g id="a_node17"><a xlink:href="class_igor_aux_1_1ia_vector3.html" target="_top" xlink:title=" ">
<polygon fill="white" stroke="black" points="172,-118.502 172,-137.502 292,-137.502 292,-118.502 172,-118.502"/>
<text text-anchor="middle" x="232" y="-125.502" font-family="Helvetica,sans-Serif" font-size="10.00">IgorAux::iaVector3&lt; T &gt;</text>
</a>
</g>
</g>
<!-- Node10&#45;&gt;Node20 -->
<g id="edge23" class="edge"><title>Node10&#45;&gt;Node20</title>
<path fill="none" stroke="#9a32cd" stroke-dasharray="5,2" d="M69.0811,-146.495C80.4981,-141.379 94.661,-135.873 108,-133.002 128.58,-128.574 151.533,-126.813 171.985,-126.322"/>
<polygon fill="#9a32cd" stroke="#9a32cd" points="67.4204,-143.408 59.8445,-150.814 70.3856,-149.749 67.4204,-143.408"/>
<text text-anchor="middle" x="126.5" y="-158.002" font-family="Helvetica,sans-Serif" font-size="10.00"> _x</text>
<text text-anchor="middle" x="126.5" y="-147.002" font-family="Helvetica,sans-Serif" font-size="10.00">_y</text>
<text text-anchor="middle" x="126.5" y="-136.002" font-family="Helvetica,sans-Serif" font-size="10.00">_z</text>
</g>
<!-- Node23 -->
<g id="node20" class="node"><title>Node23</title>
<g id="a_node20"><a xlink:href="class_igor_1_1i_sphere.html" target="_top" xlink:title=" ">
<polygon fill="white" stroke="black" points="331.5,-47.5023 331.5,-66.5023 426.5,-66.5023 426.5,-47.5023 331.5,-47.5023"/>
<text text-anchor="middle" x="379" y="-54.5023" font-family="Helvetica,sans-Serif" font-size="10.00">Igor::iSphere&lt; T &gt;</text>
</a>
</g>
</g>
<!-- Node10&#45;&gt;Node23 -->
<g id="edge28" class="edge"><title>Node10&#45;&gt;Node23</title>
<path fill="none" stroke="#9a32cd" stroke-dasharray="5,2" d="M64.2533,-141.545C75.9677,-131.836 91.946,-120.098 108,-113.002 181.999,-80.2956 275.964,-66.3668 331.284,-60.677"/>
<polygon fill="#9a32cd" stroke="#9a32cd" points="61.8507,-138.995 56.5368,-148.161 66.4068,-144.309 61.8507,-138.995"/>
<text text-anchor="middle" x="126.5" y="-116.002" font-family="Helvetica,sans-Serif" font-size="10.00"> _radius</text>
</g>
<!-- Node11 -->
<g id="node8" class="node"><title>Node11</title>
<g id="a_node8"><a xlink:href="class_igor_aux_1_1ia_string.html" target="_top" xlink:title=" ">
<polygon fill="white" stroke="black" points="187.5,-386.502 187.5,-405.502 276.5,-405.502 276.5,-386.502 187.5,-386.502"/>
<text text-anchor="middle" x="232" y="-393.502" font-family="Helvetica,sans-Serif" font-size="10.00">IgorAux::iaString</text>
</a>
</g>
</g>
<!-- Node11&#45;&gt;Node7 -->
<g id="edge7" class="edge"><title>Node11&#45;&gt;Node7</title>
<path fill="none" stroke="#9a32cd" stroke-dasharray="5,2" d="M286.644,-384.291C345.683,-371.402 438.537,-351.132 486.326,-340.699"/>
<polygon fill="#9a32cd" stroke="#9a32cd" points="285.776,-380.898 276.753,-386.451 287.269,-387.737 285.776,-380.898"/>
<text text-anchor="middle" x="379" y="-379.002" font-family="Helvetica,sans-Serif" font-size="10.00"> _name</text>
</g>
<!-- Node11&#45;&gt;Node12 -->
<g id="edge9" class="edge"><title>Node11&#45;&gt;Node12</title>
<path fill="none" stroke="#9a32cd" stroke-dasharray="5,2" d="M286.961,-402C332.319,-406.99 398.871,-414.19 457,-420.002 519.18,-426.22 534.577,-430.11 597,-433.002 658.268,-435.841 673.684,-434.461 735,-433.002 759.083,-432.429 786.247,-431.118 806.911,-429.982"/>
<polygon fill="#9a32cd" stroke="#9a32cd" points="287.085,-398.493 276.762,-400.876 286.318,-405.451 287.085,-398.493"/>
<text text-anchor="middle" x="518" y="-435.002" font-family="Helvetica,sans-Serif" font-size="10.00"> _name</text>
</g>
<!-- Node12&#45;&gt;Node7 -->
<g id="edge8" class="edge"><title>Node12&#45;&gt;Node7</title>
<path fill="none" stroke="#9a32cd" stroke-dasharray="5,2" d="M796.888,-427.512C781.337,-425.223 764.744,-420.025 753,-409.002 731.768,-389.073 757.753,-364.177 735,-346.002 707.195,-323.793 602.198,-327.888 549.525,-331.515"/>
<polygon fill="#9a32cd" stroke="#9a32cd" points="796.569,-430.998 806.896,-428.627 797.345,-424.041 796.569,-430.998"/>
<text text-anchor="middle" x="666" y="-349.002" font-family="Helvetica,sans-Serif" font-size="10.00"> _scene</text>
</g>
<!-- Node13 -->
<g id="node10" class="node"><title>Node13</title>
<g id="a_node10"><a xlink:href="class_igor_1_1i_octree.html" target="_top" xlink:title=" ">
<polygon fill="white" stroke="black" points="483,-391.502 483,-410.502 553,-410.502 553,-391.502 483,-391.502"/>
<text text-anchor="middle" x="518" y="-398.502" font-family="Helvetica,sans-Serif" font-size="10.00">Igor::iOctree</text>
</a>
</g>
</g>
<!-- Node13&#45;&gt;Node12 -->
<g id="edge10" class="edge"><title>Node13&#45;&gt;Node12</title>
<path fill="none" stroke="#9a32cd" stroke-dasharray="5,2" d="M563.402,-404.737C628.573,-410.219 748.674,-420.321 806.781,-425.208"/>
<polygon fill="#9a32cd" stroke="#9a32cd" points="563.307,-401.217 553.049,-403.866 562.72,-408.192 563.307,-401.217"/>
<text text-anchor="middle" x="666" y="-422.002" font-family="Helvetica,sans-Serif" font-size="10.00"> _octree</text>
</g>
<!-- Node14 -->
<g id="node11" class="node"><title>Node14</title>
<g id="a_node11"><a xlink:href="class_igor_1_1i_node_visitor_update_transform.html" target="_top" xlink:title=" ">
<polygon fill="white" stroke="black" points="457,-271.002 457,-301.002 579,-301.002 579,-271.002 457,-271.002"/>
<text text-anchor="start" x="465" y="-289.002" font-family="Helvetica,sans-Serif" font-size="10.00">Igor::iNodeVisitorUpdate</text>
<text text-anchor="middle" x="518" y="-278.002" font-family="Helvetica,sans-Serif" font-size="10.00">Transform</text>
</a>
</g>
</g>
<!-- Node14&#45;&gt;Node12 -->
<g id="edge11" class="edge"><title>Node14&#45;&gt;Node12</title>
<path fill="none" stroke="#9a32cd" stroke-dasharray="5,2" d="M589.343,-275.59C636.532,-272.794 696.816,-277.984 735,-314.002 766.26,-343.49 723.038,-378.197 753,-409.002 766.797,-423.188 788.547,-427.938 806.848,-429.142"/>
<polygon fill="#9a32cd" stroke="#9a32cd" points="588.901,-272.113 579.18,-276.326 589.407,-279.095 588.901,-272.113"/>
<text text-anchor="middle" x="666" y="-317.002" font-family="Helvetica,sans-Serif" font-size="10.00"> _updateTransformVisitor</text>
</g>
<!-- Node15 -->
<g id="node12" class="node"><title>Node15</title>
<g id="a_node12"><a xlink:href="class_igor_1_1i_node_visitor.html" target="_top" xlink:title=" ">
<polygon fill="white" stroke="black" points="186.5,-281.502 186.5,-300.502 277.5,-300.502 277.5,-281.502 186.5,-281.502"/>
<text text-anchor="middle" x="232" y="-288.502" font-family="Helvetica,sans-Serif" font-size="10.00">Igor::iNodeVisitor</text>
</a>
</g>
</g>
<!-- Node15&#45;&gt;Node14 -->
<g id="edge12" class="edge"><title>Node15&#45;&gt;Node14</title>
<path fill="none" stroke="midnightblue" d="M287.687,-290.04C336.201,-289.185 406.938,-287.94 456.995,-287.059"/>
<polygon fill="midnightblue" stroke="midnightblue" points="287.624,-286.54 277.687,-290.216 287.748,-293.539 287.624,-286.54"/>
</g>
<!-- Node16&#45;&gt;Node4 -->
<g id="edge35" class="edge"><title>Node16&#45;&gt;Node4</title>
<path fill="none" stroke="#9a32cd" stroke-dasharray="5,2" d="M264.837,-178.659C278.059,-171.103 292.316,-160.556 301,-147.002 327.49,-105.661 283.966,-72.4038 319,-38.0023 382.46,24.3111 428.061,-9.00234 517,-9.00234 517,-9.00234 517,-9.00234 1155.5,-9.00234 1255.95,-9.00234 1350.93,-105.436 1379.39,-137.078"/>
<polygon fill="#9a32cd" stroke="#9a32cd" points="263.105,-175.617 255.93,-183.413 266.4,-181.792 263.105,-175.617"/>
<text text-anchor="middle" x="841" y="-12.0023" font-family="Helvetica,sans-Serif" font-size="10.00"> _worldMatrixInv</text>
</g>
<!-- Node16&#45;&gt;Node6 -->
<g id="edge19" class="edge"><title>Node16&#45;&gt;Node6</title>
<path fill="none" stroke="#9a32cd" stroke-dasharray="5,2" d="M298.842,-193.111C422.58,-193.315 686.965,-193.75 793.795,-193.926"/>
<polygon fill="#9a32cd" stroke="#9a32cd" points="298.752,-189.611 288.746,-193.094 298.741,-196.611 298.752,-189.611"/>
<text text-anchor="middle" x="518" y="-197.002" font-family="Helvetica,sans-Serif" font-size="10.00"> _worldMatrix</text>
</g>
<!-- Node16&#45;&gt;Node14 -->
<g id="edge13" class="edge"><title>Node16&#45;&gt;Node14</title>
<path fill="none" stroke="#9a32cd" stroke-dasharray="5,2" d="M254.864,-208.303C271.693,-219.423 295.906,-234.039 319,-243.002 343.759,-252.612 408.197,-265.846 456.892,-275.085"/>
<polygon fill="#9a32cd" stroke="#9a32cd" points="256.576,-205.235 246.329,-202.543 252.66,-211.038 256.576,-205.235"/>
<text text-anchor="middle" x="379" y="-274.002" font-family="Helvetica,sans-Serif" font-size="10.00"> _currentMatrix</text>
</g>
<!-- Node24 -->
<g id="node21" class="node"><title>Node24</title>
<g id="a_node21"><a xlink:href="class_igor_1_1i_particle_system3_d.html" target="_top" xlink:title=" ">
<polygon fill="white" stroke="black" points="1095,-198.502 1095,-217.502 1214,-217.502 1214,-198.502 1095,-198.502"/>
<text text-anchor="middle" x="1154.5" y="-205.502" font-family="Helvetica,sans-Serif" font-size="10.00">Igor::iParticleSystem3D</text>
</a>
</g>
</g>
<!-- Node16&#45;&gt;Node24 -->
<g id="edge33" class="edge"><title>Node16&#45;&gt;Node24</title>
<path fill="none" stroke="#9a32cd" stroke-dasharray="5,2" d="M289.687,-204.22C299.428,-205.766 309.479,-207.123 319,-208.002 596.941,-233.674 667.877,-213.283 947,-214.002 1004.78,-214.151 1019.27,-216.263 1077,-214.002 1082.72,-213.778 1088.68,-213.46 1094.64,-213.086"/>
<polygon fill="#9a32cd" stroke="#9a32cd" points="290.121,-200.745 279.682,-202.554 288.971,-207.65 290.121,-200.745"/>
<text text-anchor="middle" x="666" y="-224.002" font-family="Helvetica,sans-Serif" font-size="10.00"> _particleSystemInvWorldMatrix</text>
</g>
<!-- Node17&#45;&gt;Node12 -->
<g id="edge16" class="edge"><title>Node17&#45;&gt;Node12</title>
<path fill="none" stroke="#9a32cd" stroke-dasharray="5,2" d="M449.569,-483.647C521.585,-483.162 637.054,-479.15 735,-461.002 763.183,-455.781 794.388,-445.348 815.397,-437.605"/>
<polygon fill="#9a32cd" stroke="#9a32cd" points="449.25,-480.149 439.266,-483.695 449.282,-487.149 449.25,-480.149"/>
<text text-anchor="middle" x="518" y="-486.002" font-family="Helvetica,sans-Serif" font-size="10.00"> _dataUpdateQueue</text>
</g>
<!-- Node18 -->
<g id="node15" class="node"><title>Node18</title>
<g id="a_node15"><a xlink:href="class_igor_1_1i_a_a_box.html" target="_top" xlink:title=" ">
<polygon fill="white" stroke="black" points="782,-141.502 782,-160.502 900,-160.502 900,-141.502 782,-141.502"/>
<text text-anchor="middle" x="841" y="-148.502" font-family="Helvetica,sans-Serif" font-size="10.00">Igor::iAABox&lt; float64 &gt;</text>
</a>
</g>
</g>
<!-- Node18&#45;&gt;Node5 -->
<g id="edge20" class="edge"><title>Node18&#45;&gt;Node5</title>
<path fill="none" stroke="#9a32cd" stroke-dasharray="5,2" d="M910.205,-148.818C922.454,-148.493 935.105,-148.201 947,-148.002 1001.67,-147.089 1064.48,-146.909 1106.34,-146.913"/>
<polygon fill="#9a32cd" stroke="#9a32cd" points="909.936,-145.324 900.036,-149.098 910.128,-152.322 909.936,-145.324"/>
<text text-anchor="middle" x="1012" y="-151.002" font-family="Helvetica,sans-Serif" font-size="10.00"> _bbox</text>
</g>
<!-- Node18&#45;&gt;Node24 -->
<g id="edge30" class="edge"><title>Node18&#45;&gt;Node24</title>
<path fill="none" stroke="#9a32cd" stroke-dasharray="5,2" d="M904.244,-162.392C962.056,-172.971 1047.16,-188.544 1101.45,-198.478"/>
<polygon fill="#9a32cd" stroke="#9a32cd" points="904.605,-158.9 894.138,-160.543 903.345,-165.786 904.605,-158.9"/>
<text text-anchor="middle" x="1012" y="-196.002" font-family="Helvetica,sans-Serif" font-size="10.00"> _boundingBox</text>
</g>
<!-- Node19 -->
<g id="node16" class="node"><title>Node19</title>
<g id="a_node16"><a xlink:href="class_igor_aux_1_1ia_vector3.html" target="_top" xlink:title=" ">
<polygon fill="white" stroke="black" points="469.5,-88.0023 469.5,-118.002 566.5,-118.002 566.5,-88.0023 469.5,-88.0023"/>
<text text-anchor="start" x="477.5" y="-106.002" font-family="Helvetica,sans-Serif" font-size="10.00">IgorAux::iaVector3</text>
<text text-anchor="middle" x="518" y="-95.0023" font-family="Helvetica,sans-Serif" font-size="10.00">&lt; float64 &gt;</text>
</a>
</g>
</g>
<!-- Node19&#45;&gt;Node18 -->
<g id="edge21" class="edge"><title>Node19&#45;&gt;Node18</title>
<path fill="none" stroke="#9a32cd" stroke-dasharray="5,2" d="M577.082,-105.725C620.769,-108.413 681.97,-113.546 735,-123.002 760.445,-127.54 788.727,-135.24 809.523,-141.418"/>
<polygon fill="#9a32cd" stroke="#9a32cd" points="577.115,-102.22 566.926,-105.124 576.702,-109.208 577.115,-102.22"/>
<text text-anchor="middle" x="666" y="-137.002" font-family="Helvetica,sans-Serif" font-size="10.00"> _center</text>
<text text-anchor="middle" x="666" y="-126.002" font-family="Helvetica,sans-Serif" font-size="10.00">_halfWidths</text>
</g>
<!-- Node22 -->
<g id="node19" class="node"><title>Node22</title>
<g id="a_node19"><a xlink:href="class_igor_1_1i_sphere.html" target="_top" xlink:title=" ">
<polygon fill="white" stroke="black" points="782,-73.5023 782,-92.5023 900,-92.5023 900,-73.5023 782,-73.5023"/>
<text text-anchor="middle" x="841" y="-80.5023" font-family="Helvetica,sans-Serif" font-size="10.00">Igor::iSphere&lt; float64 &gt;</text>
</a>
</g>
</g>
<!-- Node19&#45;&gt;Node22 -->
<g id="edge26" class="edge"><title>Node19&#45;&gt;Node22</title>
<path fill="none" stroke="#9a32cd" stroke-dasharray="5,2" d="M576.631,-91.6392C583.474,-90.5923 590.379,-89.6743 597,-89.0023 659.977,-82.6109 732.58,-81.6495 781.908,-81.9491"/>
<polygon fill="#9a32cd" stroke="#9a32cd" points="575.998,-88.196 566.687,-93.2518 577.119,-95.1057 575.998,-88.196"/>
<text text-anchor="middle" x="666" y="-92.0023" font-family="Helvetica,sans-Serif" font-size="10.00"> _center</text>
</g>
<!-- Node20&#45;&gt;Node19 -->
<g id="edge22" class="edge"><title>Node20&#45;&gt;Node19</title>
<path fill="none" stroke="orange" stroke-dasharray="5,2" d="M302.295,-121.902C354.059,-117.346 423.473,-111.235 469.18,-107.212"/>
<polygon fill="orange" stroke="orange" points="301.845,-118.428 292.19,-122.792 302.458,-125.401 301.845,-118.428"/>
<text text-anchor="middle" x="379" y="-123.002" font-family="Helvetica,sans-Serif" font-size="10.00"> &lt; float64 &gt;</text>
</g>
<!-- Node21 -->
<g id="node18" class="node"><title>Node21</title>
<g id="a_node18"><a xlink:href="class_igor_1_1i_a_a_box.html" target="_top" xlink:title=" ">
<polygon fill="white" stroke="black" points="470.5,-137.502 470.5,-156.502 565.5,-156.502 565.5,-137.502 470.5,-137.502"/>
<text text-anchor="middle" x="518" y="-144.502" font-family="Helvetica,sans-Serif" font-size="10.00">Igor::iAABox&lt; T &gt;</text>
</a>
</g>
</g>
<!-- Node21&#45;&gt;Node18 -->
<g id="edge24" class="edge"><title>Node21&#45;&gt;Node18</title>
<path fill="none" stroke="orange" stroke-dasharray="5,2" d="M575.766,-147.71C633.755,-148.432 723.353,-149.549 781.842,-150.278"/>
<polygon fill="orange" stroke="orange" points="575.719,-144.209 565.676,-147.584 575.632,-151.208 575.719,-144.209"/>
<text text-anchor="middle" x="666" y="-153.002" font-family="Helvetica,sans-Serif" font-size="10.00"> &lt; float64 &gt;</text>
</g>
<!-- Node22&#45;&gt;Node5 -->
<g id="edge25" class="edge"><title>Node22&#45;&gt;Node5</title>
<path fill="none" stroke="#9a32cd" stroke-dasharray="5,2" d="M894.372,-71.718C943.275,-63.6082 1017.46,-57.6137 1077,-80.0023 1107.74,-91.5595 1134.19,-121.691 1146.36,-137.306"/>
<polygon fill="#9a32cd" stroke="#9a32cd" points="893.583,-68.3027 884.334,-73.4712 894.788,-75.1983 893.583,-68.3027"/>
<text text-anchor="middle" x="1012" y="-83.0023" font-family="Helvetica,sans-Serif" font-size="10.00"> _sphere</text>
</g>
<!-- Node22&#45;&gt;Node24 -->
<g id="edge34" class="edge"><title>Node22&#45;&gt;Node24</title>
<path fill="none" stroke="#9a32cd" stroke-dasharray="5,2" d="M910.238,-90.724C969.956,-98.6326 1051.1,-112.528 1077,-132.002 1090.67,-142.278 1083.76,-153.12 1095,-166.002 1106.67,-179.379 1123.4,-190.838 1135.97,-198.392"/>
<polygon fill="#9a32cd" stroke="#9a32cd" points="910.47,-87.2249 900.103,-89.4116 909.571,-94.167 910.47,-87.2249"/>
<text text-anchor="middle" x="1012" y="-135.002" font-family="Helvetica,sans-Serif" font-size="10.00"> _boundingSphere</text>
</g>
<!-- Node23&#45;&gt;Node22 -->
<g id="edge27" class="edge"><title>Node23&#45;&gt;Node22</title>
<path fill="none" stroke="orange" stroke-dasharray="5,2" d="M436.701,-59.6853C476.521,-61.6102 531.023,-64.3264 579,-67.0023 648.804,-70.8957 729.075,-75.8949 781.959,-79.2605"/>
<polygon fill="orange" stroke="orange" points="436.806,-56.1864 426.649,-59.2011 436.469,-63.1783 436.806,-56.1864"/>
<text text-anchor="middle" x="518" y="-70.0023" font-family="Helvetica,sans-Serif" font-size="10.00"> &lt; float64 &gt;</text>
</g>
<!-- Node24&#45;&gt;Node4 -->
<g id="edge29" class="edge"><title>Node24&#45;&gt;Node4</title>
<path fill="none" stroke="#9a32cd" stroke-dasharray="5,2" d="M1201.7,-195.88C1245.71,-184.333 1311.09,-167.182 1351.54,-156.567"/>
<polygon fill="#9a32cd" stroke="#9a32cd" points="1200.61,-192.548 1191.83,-198.471 1202.39,-199.319 1200.61,-192.548"/>
<text text-anchor="middle" x="1269" y="-190.002" font-family="Helvetica,sans-Serif" font-size="10.00"> _particleSystem</text>
</g>
<!-- Node25 -->
<g id="node22" class="node"><title>Node25</title>
<g id="a_node22"><a xlink:href="class_igor_aux_1_1ia_random_number_generator.html" target="_top" xlink:title=" ">
<polygon fill="white" stroke="black" points="753,-380.502 753,-399.502 929,-399.502 929,-380.502 753,-380.502"/>
<text text-anchor="middle" x="841" y="-387.502" font-family="Helvetica,sans-Serif" font-size="10.00">IgorAux::iaRandomNumberGenerator</text>
</a>
</g>
</g>
<!-- Node25&#45;&gt;Node24 -->
<g id="edge31" class="edge"><title>Node25&#45;&gt;Node24</title>
<path fill="none" stroke="#9a32cd" stroke-dasharray="5,2" d="M939.079,-399.164C993.471,-402.307 1054.74,-401.905 1077,-387.002 1137.1,-346.775 1150.18,-248.719 1152.85,-217.627"/>
<polygon fill="#9a32cd" stroke="#9a32cd" points="939.212,-395.666 929.014,-398.539 938.778,-402.652 939.212,-395.666"/>
<text text-anchor="middle" x="1012" y="-404.002" font-family="Helvetica,sans-Serif" font-size="10.00"> _rand</text>
</g>
<!-- Node26 -->
<g id="node23" class="node"><title>Node26</title>
<g id="a_node23"><a xlink:href="class_igor_aux_1_1ia_gradient.html" target="_top" xlink:title=" ">
<polygon fill="white" stroke="black" points="779.5,-260.502 779.5,-279.502 902.5,-279.502 902.5,-260.502 779.5,-260.502"/>
<text text-anchor="middle" x="841" y="-267.502" font-family="Helvetica,sans-Serif" font-size="10.00">IgorAux::iaGradient&lt; T &gt;</text>
</a>
</g>
</g>
<!-- Node26&#45;&gt;Node24 -->
<g id="edge32" class="edge"><title>Node26&#45;&gt;Node24</title>
<path fill="none" stroke="#9a32cd" stroke-dasharray="5,2" d="M913.013,-267.649C960.22,-264.678 1023.19,-257.995 1077,-243.002 1098.53,-237.004 1121.65,-225.674 1136.77,-217.528"/>
<polygon fill="#9a32cd" stroke="#9a32cd" points="912.664,-264.164 902.887,-268.245 913.075,-271.152 912.664,-264.164"/>
<text text-anchor="middle" x="1012" y="-378.002" font-family="Helvetica,sans-Serif" font-size="10.00"> _startOrientationGradient</text>
<text text-anchor="middle" x="1012" y="-367.002" font-family="Helvetica,sans-Serif" font-size="10.00">_colorGradient</text>
<text text-anchor="middle" x="1012" y="-356.002" font-family="Helvetica,sans-Serif" font-size="10.00">_torqueFactorGradient</text>
<text text-anchor="middle" x="1012" y="-345.002" font-family="Helvetica,sans-Serif" font-size="10.00">_startLiftGradient</text>
<text text-anchor="middle" x="1012" y="-334.002" font-family="Helvetica,sans-Serif" font-size="10.00">_emissionRateGradient</text>
<text text-anchor="middle" x="1012" y="-323.002" font-family="Helvetica,sans-Serif" font-size="10.00">_startSizeGradient</text>
<text text-anchor="middle" x="1012" y="-312.002" font-family="Helvetica,sans-Serif" font-size="10.00">_startVelocityGradient</text>
<text text-anchor="middle" x="1012" y="-301.002" font-family="Helvetica,sans-Serif" font-size="10.00">_startVisibleTimeGradient</text>
<text text-anchor="middle" x="1012" y="-290.002" font-family="Helvetica,sans-Serif" font-size="10.00">_sizeScaleGradient</text>
<text text-anchor="middle" x="1012" y="-279.002" font-family="Helvetica,sans-Serif" font-size="10.00">_startOrientationRateGradient</text>
<text text-anchor="middle" x="1012" y="-268.002" font-family="Helvetica,sans-Serif" font-size="10.00">...</text>
</g>
</g>
</svg>
