<?xml version="1.0" encoding="UTF-8" standalone="no"?>
<!DOCTYPE svg PUBLIC "-//W3C//DTD SVG 1.1//EN"
 "http://www.w3.org/Graphics/SVG/1.1/DTD/svg11.dtd">
<!-- Generated by graphviz version 2.38.0 (20140413.2041)
 -->
<!-- Title: Igor::iSimpleCubes Pages: 1 -->
<svg width="259pt" height="440pt"
 viewBox="0.00 0.00 259.00 440.00" xmlns="http://www.w3.org/2000/svg" xmlns:xlink="http://www.w3.org/1999/xlink">
<g id="graph0" class="graph" transform="scale(1 1) rotate(0) translate(4 436)">
<title>Igor::iSimpleCubes</title>
<polygon fill="white" stroke="none" points="-4,4 -4,-436 255,-436 255,4 -4,4"/>
<!-- Node1 -->
<g id="node1" class="node"><title>Node1</title>
<g id="a_node1"><a xlink:title=" ">
<polygon fill="#bfbfbf" stroke="black" points="79,-0.5 79,-19.5 177,-19.5 177,-0.5 79,-0.5"/>
<text text-anchor="middle" x="128" y="-7.5" font-family="Helvetica,sans-Serif" font-size="10.00">Igor::iSimpleCubes</text>
</a>
</g>
</g>
<!-- Node2 -->
<g id="node2" class="node"><title>Node2</title>
<g id="a_node2"><a xlink:href="class_igor_1_1i_voxel_data.html" target="_top" xlink:title=" ">
<polygon fill="white" stroke="black" points="19,-89.5 19,-108.5 105,-108.5 105,-89.5 19,-89.5"/>
<text text-anchor="middle" x="62" y="-96.5" font-family="Helvetica,sans-Serif" font-size="10.00">Igor::iVoxelData</text>
</a>
</g>
</g>
<!-- Node2&#45;&gt;Node1 -->
<g id="edge1" class="edge"><title>Node2&#45;&gt;Node1</title>
<path fill="none" stroke="#9a32cd" stroke-dasharray="5,2" d="M67.6288,-79.9905C72.2221,-67.2975 79.6502,-50.4173 90,-38 96.1143,-30.6643 104.666,-24.3547 112.108,-19.6838"/>
<polygon fill="#9a32cd" stroke="#9a32cd" points="64.3084,-78.8839 64.4353,-89.478 70.9427,-81.1171 64.3084,-78.8839"/>
<text text-anchor="middle" x="115.5" y="-52" font-family="Helvetica,sans-Serif" font-size="10.00"> _voxelData</text>
</g>
<!-- Node3 -->
<g id="node3" class="node"><title>Node3</title>
<g id="a_node3"><a xlink:href="struct_igor_1_1i_voxel_pole.html" target="_top" xlink:title=" ">
<polygon fill="white" stroke="black" points="19.5,-178.5 19.5,-197.5 104.5,-197.5 104.5,-178.5 19.5,-178.5"/>
<text text-anchor="middle" x="62" y="-185.5" font-family="Helvetica,sans-Serif" font-size="10.00">Igor::iVoxelPole</text>
</a>
</g>
</g>
<!-- Node3&#45;&gt;Node2 -->
<g id="edge2" class="edge"><title>Node3&#45;&gt;Node2</title>
<path fill="none" stroke="#9a32cd" stroke-dasharray="5,2" d="M62,-168.195C62,-149.738 62,-122.412 62,-108.625"/>
<polygon fill="#9a32cd" stroke="#9a32cd" points="58.5001,-168.34 62,-178.34 65.5001,-168.34 58.5001,-168.34"/>
<text text-anchor="middle" x="76" y="-141" font-family="Helvetica,sans-Serif" font-size="10.00"> _data</text>
</g>
<!-- Node4 -->
<g id="node4" class="node"><title>Node4</title>
<g id="a_node4"><a xlink:href="class_igor_aux_1_1ia_r_l_e.html" target="_top" xlink:title=" ">
<polygon fill="white" stroke="black" points="4.5,-256.5 4.5,-286.5 119.5,-286.5 119.5,-256.5 4.5,-256.5"/>
<text text-anchor="start" x="12.5" y="-274.5" font-family="Helvetica,sans-Serif" font-size="10.00">IgorAux::iaRLE&lt; uint8,</text>
<text text-anchor="middle" x="62" y="-263.5" font-family="Helvetica,sans-Serif" font-size="10.00"> uint8 &gt;</text>
</a>
</g>
</g>
<!-- Node4&#45;&gt;Node3 -->
<g id="edge3" class="edge"><title>Node4&#45;&gt;Node3</title>
<path fill="none" stroke="#9a32cd" stroke-dasharray="5,2" d="M62,-246.248C62,-229.781 62,-208.989 62,-197.539"/>
<polygon fill="#9a32cd" stroke="#9a32cd" points="58.5001,-246.304 62,-256.304 65.5001,-246.304 58.5001,-246.304"/>
<text text-anchor="middle" x="82" y="-230" font-family="Helvetica,sans-Serif" font-size="10.00"> _density</text>
<text text-anchor="middle" x="82" y="-219" font-family="Helvetica,sans-Serif" font-size="10.00">_material</text>
</g>
<!-- Node5 -->
<g id="node5" class="node"><title>Node5</title>
<g id="a_node5"><a xlink:href="class_igor_aux_1_1ia_r_l_e.html" target="_top" xlink:title=" ">
<polygon fill="white" stroke="black" points="0,-334.5 0,-364.5 124,-364.5 124,-334.5 0,-334.5"/>
<text text-anchor="start" x="8" y="-352.5" font-family="Helvetica,sans-Serif" font-size="10.00">IgorAux::iaRLE&lt; TValue,</text>
<text text-anchor="middle" x="62" y="-341.5" font-family="Helvetica,sans-Serif" font-size="10.00"> TIndex &gt;</text>
</a>
</g>
</g>
<!-- Node5&#45;&gt;Node4 -->
<g id="edge4" class="edge"><title>Node5&#45;&gt;Node4</title>
<path fill="none" stroke="orange" stroke-dasharray="5,2" d="M62,-324.09C62,-311.757 62,-297.224 62,-286.731"/>
<polygon fill="orange" stroke="orange" points="58.5001,-324.205 62,-334.205 65.5001,-324.205 58.5001,-324.205"/>
<text text-anchor="middle" x="97" y="-308" font-family="Helvetica,sans-Serif" font-size="10.00"> &lt; uint8, uint8 &gt;</text>
</g>
<!-- Node6 -->
<g id="node6" class="node"><title>Node6</title>
<g id="a_node6"><a xlink:title=" ">
<polygon fill="white" stroke="#bfbfbf" points="39.5,-412.5 39.5,-431.5 84.5,-431.5 84.5,-412.5 39.5,-412.5"/>
<text text-anchor="middle" x="62" y="-419.5" font-family="Helvetica,sans-Serif" font-size="10.00">TIndex</text>
</a>
</g>
</g>
<!-- Node6&#45;&gt;Node5 -->
<g id="edge5" class="edge"><title>Node6&#45;&gt;Node5</title>
<path fill="none" stroke="#9a32cd" stroke-dasharray="5,2" d="M62,-402.236C62,-390.408 62,-375.383 62,-364.576"/>
<polygon fill="#9a32cd" stroke="#9a32cd" points="58.5001,-402.355 62,-412.355 65.5001,-402.355 58.5001,-402.355"/>
<text text-anchor="middle" x="75.5" y="-386" font-family="Helvetica,sans-Serif" font-size="10.00"> _size</text>
</g>
<!-- Node7 -->
<g id="node7" class="node"><title>Node7</title>
<g id="a_node7"><a xlink:href="class_igor_aux_1_1ia_vector3.html" target="_top" xlink:title=" ">
<polygon fill="white" stroke="black" points="123,-89.5 123,-108.5 243,-108.5 243,-89.5 123,-89.5"/>
<text text-anchor="middle" x="183" y="-96.5" font-family="Helvetica,sans-Serif" font-size="10.00">IgorAux::iaVector3&lt; T &gt;</text>
</a>
</g>
</g>
<!-- Node7&#45;&gt;Node1 -->
<g id="edge6" class="edge"><title>Node7&#45;&gt;Node1</title>
<path fill="none" stroke="#9a32cd" stroke-dasharray="5,2" d="M172.088,-80.7399C160.428,-62.2955 142.415,-33.8022 133.453,-19.6249"/>
<polygon fill="#9a32cd" stroke="#9a32cd" points="169.223,-82.7577 177.525,-89.34 175.14,-79.0172 169.223,-82.7577"/>
<text text-anchor="middle" x="208" y="-63" font-family="Helvetica,sans-Serif" font-size="10.00"> _cubeStartPosition</text>
<text text-anchor="middle" x="208" y="-52" font-family="Helvetica,sans-Serif" font-size="10.00">_marchingVolume</text>
<text text-anchor="middle" x="208" y="-41" font-family="Helvetica,sans-Serif" font-size="10.00">_cubePosition</text>
</g>
<!-- Node8 -->
<g id="node8" class="node"><title>Node8</title>
<g id="a_node8"><a xlink:title=" ">
<polygon fill="white" stroke="#bfbfbf" points="168.5,-178.5 168.5,-197.5 197.5,-197.5 197.5,-178.5 168.5,-178.5"/>
<text text-anchor="middle" x="183" y="-185.5" font-family="Helvetica,sans-Serif" font-size="10.00">T</text>
</a>
</g>
</g>
<!-- Node8&#45;&gt;Node7 -->
<g id="edge7" class="edge"><title>Node8&#45;&gt;Node7</title>
<path fill="none" stroke="#9a32cd" stroke-dasharray="5,2" d="M183,-168.195C183,-149.738 183,-122.412 183,-108.625"/>
<polygon fill="#9a32cd" stroke="#9a32cd" points="179.5,-168.34 183,-178.34 186.5,-168.34 179.5,-168.34"/>
<text text-anchor="middle" x="190" y="-152" font-family="Helvetica,sans-Serif" font-size="10.00"> _x</text>
<text text-anchor="middle" x="190" y="-141" font-family="Helvetica,sans-Serif" font-size="10.00">_y</text>
<text text-anchor="middle" x="190" y="-130" font-family="Helvetica,sans-Serif" font-size="10.00">_z</text>
</g>
</g>
</svg>
