<?xml version="1.0" encoding="UTF-8" standalone="no"?>
<!DOCTYPE svg PUBLIC "-//W3C//DTD SVG 1.1//EN"
 "http://www.w3.org/Graphics/SVG/1.1/DTD/svg11.dtd">
<!-- Generated by graphviz version 2.38.0 (20140413.2041)
 -->
<!-- Title: Igor::iPhysics::destroyBody Pages: 1 -->
<svg width="523pt" height="104pt"
 viewBox="0.00 0.00 523.00 104.00" xmlns="http://www.w3.org/2000/svg" xmlns:xlink="http://www.w3.org/1999/xlink">
<g id="graph0" class="graph" transform="scale(1 1) rotate(0) translate(4 100)">
<title>Igor::iPhysics::destroyBody</title>
<polygon fill="white" stroke="none" points="-4,4 -4,-100 519,-100 519,4 -4,4"/>
<!-- Node177 -->
<g id="node1" class="node"><title>Node177</title>
<g id="a_node1"><a xlink:title=" ">
<polygon fill="#bfbfbf" stroke="black" points="0,-57.5 0,-76.5 137,-76.5 137,-57.5 0,-57.5"/>
<text text-anchor="middle" x="68.5" y="-64.5" font-family="Helvetica,sans-Serif" font-size="10.00">Igor::iPhysics::destroyBody</text>
</a>
</g>
</g>
<!-- Node178 -->
<g id="node2" class="node"><title>Node178</title>
<g id="a_node2"><a xlink:href="class_igor_1_1i_physics.html#aa66bfe02146b75839cefbe15dd6e296a" target="_top" xlink:title=" ">
<polygon fill="white" stroke="black" points="182.5,-76.5 182.5,-95.5 300.5,-95.5 300.5,-76.5 182.5,-76.5"/>
<text text-anchor="middle" x="241.5" y="-83.5" font-family="Helvetica,sans-Serif" font-size="10.00">Igor::iPhysics::getBody</text>
</a>
</g>
</g>
<!-- Node177&#45;&gt;Node178 -->
<g id="edge1" class="edge"><title>Node177&#45;&gt;Node178</title>
<path fill="none" stroke="midnightblue" d="M137.084,-74.5093C148.636,-75.7929 160.646,-77.1273 172.217,-78.4129"/>
<polygon fill="midnightblue" stroke="midnightblue" points="171.924,-81.9019 182.249,-79.5277 172.697,-74.9447 171.924,-81.9019"/>
</g>
<!-- Node181 -->
<g id="node5" class="node"><title>Node181</title>
<g id="a_node5"><a xlink:href="class_igor_1_1i_physics.html#a652d7314475cae2d969224ebc6d47853" target="_top" xlink:title=" ">
<polygon fill="white" stroke="black" points="173,-38.5 173,-57.5 310,-57.5 310,-38.5 173,-38.5"/>
<text text-anchor="middle" x="241.5" y="-45.5" font-family="Helvetica,sans-Serif" font-size="10.00">Igor::iPhysics::destroyBody</text>
</a>
</g>
</g>
<!-- Node177&#45;&gt;Node181 -->
<g id="edge4" class="edge"><title>Node177&#45;&gt;Node181</title>
<path fill="none" stroke="midnightblue" d="M137.084,-59.4907C145.538,-58.5513 154.237,-57.5848 162.83,-56.63"/>
<polygon fill="midnightblue" stroke="midnightblue" points="163.295,-60.1 172.847,-55.517 162.522,-53.1428 163.295,-60.1"/>
</g>
<!-- Node179 -->
<g id="node3" class="node"><title>Node179</title>
<g id="a_node3"><a xlink:href="class_igor_aux_1_1ia_mutex.html#ab0873c1f25730bd85d6b71d167520921" target="_top" xlink:title=" ">
<polygon fill="white" stroke="black" points="373.5,-38.5 373.5,-57.5 487.5,-57.5 487.5,-38.5 373.5,-38.5"/>
<text text-anchor="middle" x="430.5" y="-45.5" font-family="Helvetica,sans-Serif" font-size="10.00">IgorAux::iaMutex::lock</text>
</a>
</g>
</g>
<!-- Node178&#45;&gt;Node179 -->
<g id="edge2" class="edge"><title>Node178&#45;&gt;Node179</title>
<path fill="none" stroke="midnightblue" d="M289.688,-76.411C314.92,-71.2835 346.173,-64.9328 372.727,-59.5368"/>
<polygon fill="midnightblue" stroke="midnightblue" points="373.549,-62.9414 382.651,-57.5201 372.155,-56.0816 373.549,-62.9414"/>
</g>
<!-- Node180 -->
<g id="node4" class="node"><title>Node180</title>
<g id="a_node4"><a xlink:href="class_igor_aux_1_1ia_mutex.html#a3beb078a1f64de265044ece54657c279" target="_top" xlink:title=" ">
<polygon fill="white" stroke="black" points="368,-76.5 368,-95.5 493,-95.5 493,-76.5 368,-76.5"/>
<text text-anchor="middle" x="430.5" y="-83.5" font-family="Helvetica,sans-Serif" font-size="10.00">IgorAux::iaMutex::unlock</text>
</a>
</g>
</g>
<!-- Node178&#45;&gt;Node180 -->
<g id="edge3" class="edge"><title>Node178&#45;&gt;Node180</title>
<path fill="none" stroke="midnightblue" d="M300.643,-86C318.728,-86 338.884,-86 357.782,-86"/>
<polygon fill="midnightblue" stroke="midnightblue" points="357.83,-89.5001 367.83,-86 357.83,-82.5001 357.83,-89.5001"/>
</g>
<!-- Node181&#45;&gt;Node179 -->
<g id="edge5" class="edge"><title>Node181&#45;&gt;Node179</title>
<path fill="none" stroke="midnightblue" d="M310.011,-48C327.414,-48 346.123,-48 363.45,-48"/>
<polygon fill="midnightblue" stroke="midnightblue" points="363.473,-51.5001 373.473,-48 363.473,-44.5001 363.473,-51.5001"/>
</g>
<!-- Node181&#45;&gt;Node180 -->
<g id="edge6" class="edge"><title>Node181&#45;&gt;Node180</title>
<path fill="none" stroke="midnightblue" d="M289.688,-57.589C314.92,-62.7165 346.173,-69.0672 372.727,-74.4632"/>
<polygon fill="midnightblue" stroke="midnightblue" points="372.155,-77.9184 382.651,-76.4799 373.549,-71.0586 372.155,-77.9184"/>
</g>
<!-- Node182 -->
<g id="node6" class="node"><title>Node182</title>
<g id="a_node6"><a xlink:href="class_igor_1_1i_physics.html#adfede4e16fd914bd6a9fa6e568c0b263" target="_top" xlink:title=" ">
<polygon fill="white" stroke="black" points="346,-0.5 346,-19.5 515,-19.5 515,-0.5 346,-0.5"/>
<text text-anchor="middle" x="430.5" y="-7.5" font-family="Helvetica,sans-Serif" font-size="10.00">Igor::iPhysics::destroyNewtonBody</text>
</a>
</g>
</g>
<!-- Node181&#45;&gt;Node182 -->
<g id="edge7" class="edge"><title>Node181&#45;&gt;Node182</title>
<path fill="none" stroke="midnightblue" d="M289.688,-38.411C314.92,-33.2835 346.173,-26.9328 372.727,-21.5368"/>
<polygon fill="midnightblue" stroke="midnightblue" points="373.549,-24.9414 382.651,-19.5201 372.155,-18.0816 373.549,-24.9414"/>
</g>
</g>
</svg>
