<?xml version="1.0" encoding="UTF-8" standalone="no"?>
<!DOCTYPE svg PUBLIC "-//W3C//DTD SVG 1.1//EN"
 "http://www.w3.org/Graphics/SVG/1.1/DTD/svg11.dtd">
<!-- Generated by graphviz version 2.38.0 (20140413.2041)
 -->
<!-- Title: Igor::iNode::calcWorldTransformation Pages: 1 -->
<svg width="572pt" height="334pt"
 viewBox="0.00 0.00 572.00 333.50" xmlns="http://www.w3.org/2000/svg" xmlns:xlink="http://www.w3.org/1999/xlink">
<g id="graph0" class="graph" transform="scale(1 1) rotate(0) translate(4 329.5)">
<title>Igor::iNode::calcWorldTransformation</title>
<polygon fill="white" stroke="none" points="-4,4 -4,-329.5 568,-329.5 568,4 -4,4"/>
<!-- Node1 -->
<g id="node1" class="node"><title>Node1</title>
<polygon fill="#bfbfbf" stroke="black" points="0,-180 0,-199 176,-199 176,-180 0,-180"/>
<text text-anchor="middle" x="88" y="-187" font-family="Helvetica,sans-Serif" font-size="10.00">Igor::iNode::calcWorldTransformation</text>
</g>
<!-- Node2 -->
<g id="node2" class="node"><title>Node2</title>
<g id="a_node2"><a xlink:href="class_igor_1_1i_node.html#a2529f66706e941541b94098de2f72b8b" target="_top" xlink:title="Igor::iNode::calcWorldTransformation">
<polygon fill="white" stroke="black" points="212,-306 212,-325 388,-325 388,-306 212,-306"/>
<text text-anchor="middle" x="300" y="-313" font-family="Helvetica,sans-Serif" font-size="10.00">Igor::iNode::calcWorldTransformation</text>
</a>
</g>
</g>
<!-- Node1&#45;&gt;Node2 -->
<g id="edge1" class="edge"><title>Node1&#45;&gt;Node2</title>
<path fill="none" stroke="midnightblue" d="M103.755,-206.944C125.095,-230.984 166.977,-273.885 212,-296.5 219.737,-300.386 228.251,-303.481 236.834,-305.945"/>
<polygon fill="midnightblue" stroke="midnightblue" points="106.299,-204.535 97.0924,-199.292 101.019,-209.132 106.299,-204.535"/>
</g>
<!-- Node3 -->
<g id="node3" class="node"><title>Node3</title>
<g id="a_node3"><a xlink:href="class_igor_1_1i_node_visitor_boundings.html#a4628da61fa0214189f1360b3dd5db685" target="_top" xlink:title="Igor::iNodeVisitorBoundings\l::preOrderVisit">
<polygon fill="white" stroke="black" points="231.5,-256.5 231.5,-286.5 368.5,-286.5 368.5,-256.5 231.5,-256.5"/>
<text text-anchor="start" x="239.5" y="-274.5" font-family="Helvetica,sans-Serif" font-size="10.00">Igor::iNodeVisitorBoundings</text>
<text text-anchor="middle" x="300" y="-263.5" font-family="Helvetica,sans-Serif" font-size="10.00">::preOrderVisit</text>
</a>
</g>
</g>
<!-- Node1&#45;&gt;Node3 -->
<g id="edge2" class="edge"><title>Node1&#45;&gt;Node3</title>
<path fill="none" stroke="midnightblue" d="M116.458,-203.713C141.048,-216.081 178.32,-233.942 212,-246.5 221.571,-250.069 231.891,-253.437 241.962,-256.476"/>
<polygon fill="midnightblue" stroke="midnightblue" points="117.875,-200.508 107.373,-199.104 114.707,-206.75 117.875,-200.508"/>
</g>
<!-- Node4 -->
<g id="node4" class="node"><title>Node4</title>
<g id="a_node4"><a xlink:href="class_manipulator.html#a625f4653980b2522822410afa0967aca" target="_top" xlink:title="Manipulator::update">
<polygon fill="white" stroke="black" points="249,-218 249,-237 351,-237 351,-218 249,-218"/>
<text text-anchor="middle" x="300" y="-225" font-family="Helvetica,sans-Serif" font-size="10.00">Manipulator::update</text>
</a>
</g>
</g>
<!-- Node1&#45;&gt;Node4 -->
<g id="edge3" class="edge"><title>Node1&#45;&gt;Node4</title>
<path fill="none" stroke="midnightblue" d="M151.575,-200.823C182.625,-206.442 219.625,-213.137 248.79,-218.414"/>
<polygon fill="midnightblue" stroke="midnightblue" points="152.184,-197.377 141.721,-199.04 150.938,-204.265 152.184,-197.377"/>
</g>
<!-- Node5 -->
<g id="node5" class="node"><title>Node5</title>
<g id="a_node5"><a xlink:href="class_manipulator.html#acac7c534388ab5e30e9cf8d80c4f9f72" target="_top" xlink:title="Manipulator::rotate">
<polygon fill="white" stroke="black" points="251,-180 251,-199 349,-199 349,-180 251,-180"/>
<text text-anchor="middle" x="300" y="-187" font-family="Helvetica,sans-Serif" font-size="10.00">Manipulator::rotate</text>
</a>
</g>
</g>
<!-- Node1&#45;&gt;Node5 -->
<g id="edge4" class="edge"><title>Node1&#45;&gt;Node5</title>
<path fill="none" stroke="midnightblue" d="M186.443,-189.5C208.764,-189.5 231.543,-189.5 250.717,-189.5"/>
<polygon fill="midnightblue" stroke="midnightblue" points="186.235,-186 176.235,-189.5 186.234,-193 186.235,-186"/>
</g>
<!-- Node6 -->
<g id="node6" class="node"><title>Node6</title>
<g id="a_node6"><a xlink:href="class_manipulator.html#a42640108b0db21295d8a1d8996973ebd" target="_top" xlink:title="Manipulator::onMouseMoved">
<polygon fill="white" stroke="black" points="230,-142 230,-161 370,-161 370,-142 230,-142"/>
<text text-anchor="middle" x="300" y="-149" font-family="Helvetica,sans-Serif" font-size="10.00">Manipulator::onMouseMoved</text>
</a>
</g>
</g>
<!-- Node1&#45;&gt;Node6 -->
<g id="edge5" class="edge"><title>Node1&#45;&gt;Node6</title>
<path fill="none" stroke="midnightblue" d="M151.707,-178.153C181.837,-172.701 217.546,-166.239 246.258,-161.044"/>
<polygon fill="midnightblue" stroke="midnightblue" points="150.938,-174.735 141.721,-179.96 152.184,-181.623 150.938,-174.735"/>
</g>
<!-- Node7 -->
<g id="node7" class="node"><title>Node7</title>
<g id="a_node7"><a xlink:href="class_widget3_d_emitter.html#ada67ed081bc12f2a99fb26918efe24e8" target="_top" xlink:title="Widget3DEmitter::update">
<polygon fill="white" stroke="black" points="237,-104 237,-123 363,-123 363,-104 237,-104"/>
<text text-anchor="middle" x="300" y="-111" font-family="Helvetica,sans-Serif" font-size="10.00">Widget3DEmitter::update</text>
</a>
</g>
</g>
<!-- Node1&#45;&gt;Node7 -->
<g id="edge6" class="edge"><title>Node1&#45;&gt;Node7</title>
<path fill="none" stroke="midnightblue" d="M115.424,-175.19C139.874,-162.452 177.537,-144.093 212,-132.5 222.99,-128.803 235.008,-125.642 246.508,-123.019"/>
<polygon fill="midnightblue" stroke="midnightblue" points="113.637,-172.175 106.425,-179.936 116.903,-178.367 113.637,-172.175"/>
</g>
<!-- Node10 -->
<g id="node10" class="node"><title>Node10</title>
<g id="a_node10"><a xlink:href="class_widget3_d_locator.html#a0354993c66e97375245a3d14e141ea6a" target="_top" xlink:title="Widget3DLocator::update">
<polygon fill="white" stroke="black" points="236.5,-55 236.5,-74 363.5,-74 363.5,-55 236.5,-55"/>
<text text-anchor="middle" x="300" y="-62" font-family="Helvetica,sans-Serif" font-size="10.00">Widget3DLocator::update</text>
</a>
</g>
</g>
<!-- Node1&#45;&gt;Node10 -->
<g id="edge9" class="edge"><title>Node1&#45;&gt;Node10</title>
<path fill="none" stroke="midnightblue" d="M106.536,-172.929C129.297,-152.169 170.973,-116.64 212,-94.5 227.888,-85.9261 246.701,-79.0761 262.761,-74.0987"/>
<polygon fill="midnightblue" stroke="midnightblue" points="104.01,-170.498 99.0432,-179.857 108.762,-175.638 104.01,-170.498"/>
</g>
<!-- Node8 -->
<g id="node8" class="node"><title>Node8</title>
<g id="a_node8"><a xlink:href="class_widget3_d_emitter.html#a363f3a0acfbb9f55c5bfd54c326f2935" target="_top" xlink:title="Widget3DEmitter::Widget3\lDEmitter">
<polygon fill="white" stroke="black" points="427.5,-147.5 427.5,-177.5 560.5,-177.5 560.5,-147.5 427.5,-147.5"/>
<text text-anchor="start" x="435.5" y="-165.5" font-family="Helvetica,sans-Serif" font-size="10.00">Widget3DEmitter::Widget3</text>
<text text-anchor="middle" x="494" y="-154.5" font-family="Helvetica,sans-Serif" font-size="10.00">DEmitter</text>
</a>
</g>
</g>
<!-- Node7&#45;&gt;Node8 -->
<g id="edge7" class="edge"><title>Node7&#45;&gt;Node8</title>
<path fill="none" stroke="midnightblue" d="M356.962,-125.174C367.309,-127.488 378.002,-129.983 388,-132.5 405.925,-137.013 425.427,-142.44 442.705,-147.43"/>
<polygon fill="midnightblue" stroke="midnightblue" points="357.701,-121.753 347.181,-123.016 356.193,-128.588 357.701,-121.753"/>
</g>
<!-- Node9 -->
<g id="node9" class="node"><title>Node9</title>
<g id="a_node9"><a xlink:href="class_widget3_d_emitter.html#a87ddec2cb5f9e7c5c7f40a84deb63e26" target="_top" xlink:title="Widget3DEmitter::~Widget3\lDEmitter">
<polygon fill="white" stroke="black" points="424.5,-98.5 424.5,-128.5 563.5,-128.5 563.5,-98.5 424.5,-98.5"/>
<text text-anchor="start" x="432.5" y="-116.5" font-family="Helvetica,sans-Serif" font-size="10.00">Widget3DEmitter::~Widget3</text>
<text text-anchor="middle" x="494" y="-105.5" font-family="Helvetica,sans-Serif" font-size="10.00">DEmitter</text>
</a>
</g>
</g>
<!-- Node7&#45;&gt;Node9 -->
<g id="edge8" class="edge"><title>Node7&#45;&gt;Node9</title>
<path fill="none" stroke="midnightblue" d="M373.356,-113.5C390.118,-113.5 407.906,-113.5 424.497,-113.5"/>
<polygon fill="midnightblue" stroke="midnightblue" points="373.072,-110 363.072,-113.5 373.072,-117 373.072,-110"/>
</g>
<!-- Node11 -->
<g id="node11" class="node"><title>Node11</title>
<g id="a_node11"><a xlink:href="class_widget3_d_locator.html#ae3089c10bd105e2327b5e5342c53b0de" target="_top" xlink:title="Widget3DLocator::Widget3\lDLocator">
<polygon fill="white" stroke="black" points="427,-49.5 427,-79.5 561,-79.5 561,-49.5 427,-49.5"/>
<text text-anchor="start" x="435" y="-67.5" font-family="Helvetica,sans-Serif" font-size="10.00">Widget3DLocator::Widget3</text>
<text text-anchor="middle" x="494" y="-56.5" font-family="Helvetica,sans-Serif" font-size="10.00">DLocator</text>
</a>
</g>
</g>
<!-- Node10&#45;&gt;Node11 -->
<g id="edge10" class="edge"><title>Node10&#45;&gt;Node11</title>
<path fill="none" stroke="midnightblue" d="M373.731,-64.5C391.179,-64.5 409.718,-64.5 426.849,-64.5"/>
<polygon fill="midnightblue" stroke="midnightblue" points="373.602,-61.0001 363.602,-64.5 373.602,-68.0001 373.602,-61.0001"/>
</g>
<!-- Node12 -->
<g id="node12" class="node"><title>Node12</title>
<g id="a_node12"><a xlink:href="class_widget3_d_locator.html#a7c92018b711c6370809abe7088a9b264" target="_top" xlink:title="Widget3DLocator::~Widget3\lDLocator">
<polygon fill="white" stroke="black" points="424,-0.5 424,-30.5 564,-30.5 564,-0.5 424,-0.5"/>
<text text-anchor="start" x="432" y="-18.5" font-family="Helvetica,sans-Serif" font-size="10.00">Widget3DLocator::~Widget3</text>
<text text-anchor="middle" x="494" y="-7.5" font-family="Helvetica,sans-Serif" font-size="10.00">DLocator</text>
</a>
</g>
</g>
<!-- Node10&#45;&gt;Node12 -->
<g id="edge11" class="edge"><title>Node10&#45;&gt;Node12</title>
<path fill="none" stroke="midnightblue" d="M348.419,-52.3982C374.305,-45.792 406.589,-37.5529 434.08,-30.537"/>
<polygon fill="midnightblue" stroke="midnightblue" points="347.299,-49.0718 338.475,-54.936 349.03,-55.8544 347.299,-49.0718"/>
</g>
</g>
</svg>
