<?xml version="1.0" encoding="UTF-8" standalone="no"?>
<!DOCTYPE svg PUBLIC "-//W3C//DTD SVG 1.1//EN"
 "http://www.w3.org/Graphics/SVG/1.1/DTD/svg11.dtd">
<!-- Generated by graphviz version 2.38.0 (20140413.2041)
 -->
<!-- Title: Igor::iVoxelTerrain Pages: 1 -->
<svg width="964pt" height="306pt"
 viewBox="0.00 0.00 964.00 306.00" xmlns="http://www.w3.org/2000/svg" xmlns:xlink="http://www.w3.org/1999/xlink">
<g id="graph0" class="graph" transform="scale(1 1) rotate(0) translate(4 302)">
<title>Igor::iVoxelTerrain</title>
<polygon fill="white" stroke="none" points="-4,4 -4,-302 960,-302 960,4 -4,4"/>
<!-- Node1 -->
<g id="node1" class="node"><title>Node1</title>
<g id="a_node1"><a xlink:title=" ">
<polygon fill="#bfbfbf" stroke="black" points="563.5,-0.5 563.5,-19.5 658.5,-19.5 658.5,-0.5 563.5,-0.5"/>
<text text-anchor="middle" x="611" y="-7.5" font-family="Helvetica,sans-Serif" font-size="10.00">Igor::iVoxelTerrain</text>
</a>
</g>
</g>
<!-- Node2 -->
<g id="node2" class="node"><title>Node2</title>
<g id="a_node2"><a xlink:href="class_igor_aux_1_1ia_mutex.html" target="_top" xlink:title=" ">
<polygon fill="white" stroke="black" points="303,-278.5 303,-297.5 393,-297.5 393,-278.5 303,-278.5"/>
<text text-anchor="middle" x="348" y="-285.5" font-family="Helvetica,sans-Serif" font-size="10.00">IgorAux::iaMutex</text>
</a>
</g>
</g>
<!-- Node2&#45;&gt;Node1 -->
<g id="edge1" class="edge"><title>Node2&#45;&gt;Node1</title>
<path fill="none" stroke="#9a32cd" stroke-dasharray="5,2" d="M396.95,-275.759C439.327,-263.552 499.273,-239.933 535,-198 559.627,-169.095 545.188,-151.372 559,-116 573.429,-79.05 596.047,-37.4684 606.007,-19.7501"/>
<polygon fill="#9a32cd" stroke="#9a32cd" points="395.823,-272.439 387.118,-278.478 397.689,-279.185 395.823,-272.439"/>
<text text-anchor="middle" x="613.5" y="-141" font-family="Helvetica,sans-Serif" font-size="10.00"> _operationsQueueMutex</text>
<text text-anchor="middle" x="613.5" y="-130" font-family="Helvetica,sans-Serif" font-size="10.00">_mutexActionQueue</text>
</g>
<!-- Node4 -->
<g id="node4" class="node"><title>Node4</title>
<g id="a_node4"><a xlink:href="class_igor_aux_1_1ia_i_d_generator.html" target="_top" xlink:title=" ">
<polygon fill="white" stroke="black" points="279,-178.5 279,-197.5 417,-197.5 417,-178.5 279,-178.5"/>
<text text-anchor="middle" x="348" y="-185.5" font-family="Helvetica,sans-Serif" font-size="10.00">IgorAux::iaIDGenerator&lt; T &gt;</text>
</a>
</g>
</g>
<!-- Node2&#45;&gt;Node4 -->
<g id="edge4" class="edge"><title>Node2&#45;&gt;Node4</title>
<path fill="none" stroke="#9a32cd" stroke-dasharray="5,2" d="M348,-268.22C348,-246.951 348,-213.22 348,-197.537"/>
<polygon fill="#9a32cd" stroke="#9a32cd" points="344.5,-268.303 348,-278.303 351.5,-268.303 344.5,-268.303"/>
<text text-anchor="middle" x="366" y="-235.5" font-family="Helvetica,sans-Serif" font-size="10.00"> _mutex</text>
</g>
<!-- Node12 -->
<g id="node12" class="node"><title>Node12</title>
<g id="a_node12"><a xlink:href="class_igor_1_1i_data_update_queue.html" target="_top" xlink:title=" ">
<polygon fill="white" stroke="black" points="59,-128.5 59,-147.5 179,-147.5 179,-128.5 59,-128.5"/>
<text text-anchor="middle" x="119" y="-135.5" font-family="Helvetica,sans-Serif" font-size="10.00">Igor::iDataUpdateQueue</text>
</a>
</g>
</g>
<!-- Node2&#45;&gt;Node12 -->
<g id="edge15" class="edge"><title>Node2&#45;&gt;Node12</title>
<path fill="none" stroke="#9a32cd" stroke-dasharray="5,2" d="M310.422,-275.228C270.496,-261.388 207.041,-235.451 162,-198 144.457,-183.414 130.326,-160.171 123.481,-147.656"/>
<polygon fill="#9a32cd" stroke="#9a32cd" points="309.446,-278.593 320.04,-278.486 311.692,-271.963 309.446,-278.593"/>
<text text-anchor="middle" x="287" y="-235.5" font-family="Helvetica,sans-Serif" font-size="10.00"> _mutex</text>
</g>
<!-- Node3 -->
<g id="node3" class="node"><title>Node3</title>
<g id="a_node3"><a xlink:href="class_igor_1_1i_node.html" target="_top" xlink:title=" ">
<polygon fill="white" stroke="black" points="280.5,-73 280.5,-92 343.5,-92 343.5,-73 280.5,-73"/>
<text text-anchor="middle" x="312" y="-80" font-family="Helvetica,sans-Serif" font-size="10.00">Igor::iNode</text>
</a>
</g>
</g>
<!-- Node3&#45;&gt;Node1 -->
<g id="edge2" class="edge"><title>Node3&#45;&gt;Node1</title>
<path fill="none" stroke="#9a32cd" stroke-dasharray="5,2" d="M327.585,-65.5354C338.057,-55.8557 352.698,-44.2102 368,-38 402.366,-24.0526 503.044,-16.5656 563.489,-13.218"/>
<polygon fill="#9a32cd" stroke="#9a32cd" points="324.898,-63.2652 320.148,-72.7355 329.767,-68.2945 324.898,-63.2652"/>
<text text-anchor="middle" x="392" y="-41" font-family="Helvetica,sans-Serif" font-size="10.00"> _rootNode</text>
</g>
<!-- Node3&#45;&gt;Node3 -->
<g id="edge16" class="edge"><title>Node3&#45;&gt;Node3</title>
<path fill="none" stroke="#9a32cd" stroke-dasharray="5,2" d="M354.148,-88.4292C358.625,-87.2805 361.5,-85.3041 361.5,-82.5 361.5,-77.8984 353.758,-75.5258 343.898,-75.382"/>
<polygon fill="#9a32cd" stroke="#9a32cd" points="353.428,-84.9891 343.898,-89.618 354.235,-91.9425 353.428,-84.9891"/>
<text text-anchor="middle" x="379.5" y="-80" font-family="Helvetica,sans-Serif" font-size="10.00"> _parent</text>
</g>
<!-- Node6 -->
<g id="node6" class="node"><title>Node6</title>
<g id="a_node6"><a xlink:href="class_igor_1_1i_scene.html" target="_top" xlink:title=" ">
<polygon fill="white" stroke="black" points="212,-0.5 212,-19.5 280,-19.5 280,-0.5 212,-0.5"/>
<text text-anchor="middle" x="246" y="-7.5" font-family="Helvetica,sans-Serif" font-size="10.00">Igor::iScene</text>
</a>
</g>
</g>
<!-- Node3&#45;&gt;Node6 -->
<g id="edge13" class="edge"><title>Node3&#45;&gt;Node6</title>
<path fill="none" stroke="#9a32cd" stroke-dasharray="5,2" d="M283.071,-68.0186C274.73,-63.0077 266.214,-56.6437 260,-49 252.993,-40.3805 249.302,-27.9257 247.503,-19.6532"/>
<polygon fill="#9a32cd" stroke="#9a32cd" points="281.492,-71.1449 291.937,-72.9213 284.879,-65.0191 281.492,-71.1449"/>
<text text-anchor="middle" x="272.5" y="-41" font-family="Helvetica,sans-Serif" font-size="10.00"> _root</text>
</g>
<!-- Node4&#45;&gt;Node3 -->
<g id="edge3" class="edge"><title>Node4&#45;&gt;Node3</title>
<path fill="none" stroke="#9a32cd" stroke-dasharray="5,2" d="M341.64,-168.714C333.791,-146.149 320.772,-108.72 314.96,-92.0111"/>
<polygon fill="#9a32cd" stroke="#9a32cd" points="338.34,-169.881 344.931,-178.176 344.951,-167.581 338.34,-169.881"/>
<text text-anchor="middle" x="368.5" y="-135.5" font-family="Helvetica,sans-Serif" font-size="10.00"> _idGenerator</text>
</g>
<!-- Node5 -->
<g id="node5" class="node"><title>Node5</title>
<g id="a_node5"><a xlink:href="class_igor_aux_1_1ia_string.html" target="_top" xlink:title=" ">
<polygon fill="white" stroke="black" points="171.5,-178.5 171.5,-197.5 260.5,-197.5 260.5,-178.5 171.5,-178.5"/>
<text text-anchor="middle" x="216" y="-185.5" font-family="Helvetica,sans-Serif" font-size="10.00">IgorAux::iaString</text>
</a>
</g>
</g>
<!-- Node5&#45;&gt;Node3 -->
<g id="edge5" class="edge"><title>Node5&#45;&gt;Node3</title>
<path fill="none" stroke="#9a32cd" stroke-dasharray="5,2" d="M232.414,-170.857C235.94,-167.314 239.622,-163.557 243,-160 265.91,-135.879 291.953,-106.425 304.483,-92.1208"/>
<polygon fill="#9a32cd" stroke="#9a32cd" points="229.739,-168.581 225.117,-178.114 234.676,-173.544 229.739,-168.581"/>
<text text-anchor="middle" x="299.5" y="-135.5" font-family="Helvetica,sans-Serif" font-size="10.00"> _name</text>
</g>
<!-- Node5&#45;&gt;Node6 -->
<g id="edge7" class="edge"><title>Node5&#45;&gt;Node6</title>
<path fill="none" stroke="#9a32cd" stroke-dasharray="5,2" d="M219.266,-167.842C225.72,-129.973 239.888,-46.8574 244.51,-19.7429"/>
<polygon fill="#9a32cd" stroke="#9a32cd" points="215.759,-167.584 217.529,-178.03 222.66,-168.76 215.759,-167.584"/>
<text text-anchor="middle" x="253.5" y="-80" font-family="Helvetica,sans-Serif" font-size="10.00"> _name</text>
</g>
<!-- Node6&#45;&gt;Node3 -->
<g id="edge6" class="edge"><title>Node6&#45;&gt;Node3</title>
<path fill="none" stroke="#9a32cd" stroke-dasharray="5,2" d="M273.093,-24.9735C278.782,-28.7015 284.435,-33.0821 289,-38 298.532,-48.2678 305.29,-63.2324 308.917,-72.6621"/>
<polygon fill="#9a32cd" stroke="#9a32cd" points="274.646,-21.8237 264.273,-19.6691 271.039,-27.8224 274.646,-21.8237"/>
<text text-anchor="middle" x="315.5" y="-41" font-family="Helvetica,sans-Serif" font-size="10.00"> _scene</text>
</g>
<!-- Node7 -->
<g id="node7" class="node"><title>Node7</title>
<g id="a_node7"><a xlink:href="class_igor_1_1i_octree.html" target="_top" xlink:title=" ">
<polygon fill="white" stroke="black" points="0,-73 0,-92 70,-92 70,-73 0,-73"/>
<text text-anchor="middle" x="35" y="-80" font-family="Helvetica,sans-Serif" font-size="10.00">Igor::iOctree</text>
</a>
</g>
</g>
<!-- Node7&#45;&gt;Node6 -->
<g id="edge8" class="edge"><title>Node7&#45;&gt;Node6</title>
<path fill="none" stroke="#9a32cd" stroke-dasharray="5,2" d="M39.4337,-63.2251C42.5673,-54.2302 47.727,-44.0459 56,-38 80.1426,-20.3566 163.841,-14.181 211.708,-12.0656"/>
<polygon fill="#9a32cd" stroke="#9a32cd" points="36.0463,-62.3395 36.6206,-72.9188 42.769,-64.2905 36.0463,-62.3395"/>
<text text-anchor="middle" x="74" y="-41" font-family="Helvetica,sans-Serif" font-size="10.00"> _octree</text>
</g>
<!-- Node8 -->
<g id="node8" class="node"><title>Node8</title>
<g id="a_node8"><a xlink:href="class_igor_1_1i_node_visitor_update_transform.html" target="_top" xlink:title=" ">
<polygon fill="white" stroke="black" points="416,-67.5 416,-97.5 538,-97.5 538,-67.5 416,-67.5"/>
<text text-anchor="start" x="424" y="-85.5" font-family="Helvetica,sans-Serif" font-size="10.00">Igor::iNodeVisitorUpdate</text>
<text text-anchor="middle" x="477" y="-74.5" font-family="Helvetica,sans-Serif" font-size="10.00">Transform</text>
</a>
</g>
</g>
<!-- Node8&#45;&gt;Node6 -->
<g id="edge9" class="edge"><title>Node8&#45;&gt;Node6</title>
<path fill="none" stroke="#9a32cd" stroke-dasharray="5,2" d="M455.073,-60.6428C445.102,-52.3055 432.704,-43.4148 420,-38 374.161,-18.4624 316.154,-12.8586 280.057,-11.3656"/>
<polygon fill="#9a32cd" stroke="#9a32cd" points="452.999,-63.4792 462.831,-67.4274 457.607,-58.2098 452.999,-63.4792"/>
<text text-anchor="middle" x="493.5" y="-41" font-family="Helvetica,sans-Serif" font-size="10.00"> _updateTransformVisitor</text>
</g>
<!-- Node9 -->
<g id="node9" class="node"><title>Node9</title>
<g id="a_node9"><a xlink:href="class_igor_1_1i_node_visitor.html" target="_top" xlink:title=" ">
<polygon fill="white" stroke="black" points="435.5,-178.5 435.5,-197.5 526.5,-197.5 526.5,-178.5 435.5,-178.5"/>
<text text-anchor="middle" x="481" y="-185.5" font-family="Helvetica,sans-Serif" font-size="10.00">Igor::iNodeVisitor</text>
</a>
</g>
</g>
<!-- Node9&#45;&gt;Node8 -->
<g id="edge10" class="edge"><title>Node9&#45;&gt;Node8</title>
<path fill="none" stroke="midnightblue" d="M480.266,-167.996C479.483,-147.736 478.26,-116.109 477.554,-97.8403"/>
<polygon fill="midnightblue" stroke="midnightblue" points="476.775,-168.318 480.659,-178.176 483.77,-168.048 476.775,-168.318"/>
</g>
<!-- Node10 -->
<g id="node10" class="node"><title>Node10</title>
<g id="a_node10"><a xlink:href="class_igor_aux_1_1ia_matrix.html" target="_top" xlink:title=" ">
<polygon fill="white" stroke="black" points="607.5,-178.5 607.5,-197.5 720.5,-197.5 720.5,-178.5 607.5,-178.5"/>
<text text-anchor="middle" x="664" y="-185.5" font-family="Helvetica,sans-Serif" font-size="10.00">IgorAux::iaMatrix&lt; T &gt;</text>
</a>
</g>
</g>
<!-- Node10&#45;&gt;Node8 -->
<g id="edge11" class="edge"><title>Node10&#45;&gt;Node8</title>
<path fill="none" stroke="#9a32cd" stroke-dasharray="5,2" d="M672.652,-169.177C678.929,-153.373 684.365,-130.596 672,-116 655.029,-95.9664 588.691,-88.2704 538.057,-85.3206"/>
<polygon fill="#9a32cd" stroke="#9a32cd" points="669.417,-167.837 668.584,-178.399 675.822,-170.662 669.417,-167.837"/>
<text text-anchor="middle" x="713" y="-135.5" font-family="Helvetica,sans-Serif" font-size="10.00"> _currentMatrix</text>
</g>
<!-- Node11 -->
<g id="node11" class="node"><title>Node11</title>
<g id="a_node11"><a xlink:title=" ">
<polygon fill="white" stroke="#bfbfbf" points="805.5,-278.5 805.5,-297.5 834.5,-297.5 834.5,-278.5 805.5,-278.5"/>
<text text-anchor="middle" x="820" y="-285.5" font-family="Helvetica,sans-Serif" font-size="10.00">T</text>
</a>
</g>
</g>
<!-- Node11&#45;&gt;Node10 -->
<g id="edge12" class="edge"><title>Node11&#45;&gt;Node10</title>
<path fill="none" stroke="#9a32cd" stroke-dasharray="5,2" d="M797.562,-272.904C764.725,-252.276 704.569,-214.486 677.651,-197.575"/>
<polygon fill="#9a32cd" stroke="#9a32cd" points="796.099,-276.119 806.429,-278.475 799.823,-270.191 796.099,-276.119"/>
<text text-anchor="middle" x="784.5" y="-252" font-family="Helvetica,sans-Serif" font-size="10.00"> _w0</text>
<text text-anchor="middle" x="784.5" y="-241" font-family="Helvetica,sans-Serif" font-size="10.00">_w1</text>
<text text-anchor="middle" x="784.5" y="-230" font-family="Helvetica,sans-Serif" font-size="10.00">_w2</text>
<text text-anchor="middle" x="784.5" y="-219" font-family="Helvetica,sans-Serif" font-size="10.00">_w3</text>
</g>
<!-- Node15 -->
<g id="node15" class="node"><title>Node15</title>
<g id="a_node15"><a xlink:href="class_igor_aux_1_1ia_vector3.html" target="_top" xlink:title=" ">
<polygon fill="white" stroke="black" points="834,-128.5 834,-147.5 954,-147.5 954,-128.5 834,-128.5"/>
<text text-anchor="middle" x="894" y="-135.5" font-family="Helvetica,sans-Serif" font-size="10.00">IgorAux::iaVector3&lt; T &gt;</text>
</a>
</g>
</g>
<!-- Node11&#45;&gt;Node15 -->
<g id="edge20" class="edge"><title>Node11&#45;&gt;Node15</title>
<path fill="none" stroke="#9a32cd" stroke-dasharray="5,2" d="M828.964,-269.071C844.982,-237.035 877.942,-171.116 889.708,-147.583"/>
<polygon fill="#9a32cd" stroke="#9a32cd" points="825.749,-267.676 824.407,-278.185 832.01,-270.806 825.749,-267.676"/>
<text text-anchor="middle" x="862" y="-246.5" font-family="Helvetica,sans-Serif" font-size="10.00"> _x</text>
<text text-anchor="middle" x="862" y="-235.5" font-family="Helvetica,sans-Serif" font-size="10.00">_y</text>
<text text-anchor="middle" x="862" y="-224.5" font-family="Helvetica,sans-Serif" font-size="10.00">_z</text>
</g>
<!-- Node12&#45;&gt;Node6 -->
<g id="edge14" class="edge"><title>Node12&#45;&gt;Node6</title>
<path fill="none" stroke="#9a32cd" stroke-dasharray="5,2" d="M114.105,-118.219C111.308,-103.125 110.076,-82.0345 120,-67 140.374,-36.1335 182.049,-22.1269 211.893,-15.8723"/>
<polygon fill="#9a32cd" stroke="#9a32cd" points="110.784,-119.403 116.39,-128.393 117.614,-117.869 110.784,-119.403"/>
<text text-anchor="middle" x="163.5" y="-80" font-family="Helvetica,sans-Serif" font-size="10.00"> _dataUpdateQueue</text>
</g>
<!-- Node13 -->
<g id="node13" class="node"><title>Node13</title>
<g id="a_node13"><a xlink:href="class_igor_1_1i_target_material.html" target="_top" xlink:title=" ">
<polygon fill="white" stroke="black" points="663,-73 663,-92 765,-92 765,-73 663,-73"/>
<text text-anchor="middle" x="714" y="-80" font-family="Helvetica,sans-Serif" font-size="10.00">Igor::iTargetMaterial</text>
</a>
</g>
</g>
<!-- Node13&#45;&gt;Node1 -->
<g id="edge17" class="edge"><title>Node13&#45;&gt;Node1</title>
<path fill="none" stroke="#9a32cd" stroke-dasharray="5,2" d="M692.893,-67.0528C672.098,-52.8194 641.009,-31.5399 623.733,-19.7154"/>
<polygon fill="#9a32cd" stroke="#9a32cd" points="691.141,-70.0952 701.37,-72.8553 695.095,-64.3188 691.141,-70.0952"/>
<text text-anchor="middle" x="700" y="-41" font-family="Helvetica,sans-Serif" font-size="10.00"> _targetMaterial</text>
</g>
<!-- Node14 -->
<g id="node14" class="node"><title>Node14</title>
<g id="a_node14"><a xlink:href="class_igor_aux_1_1ia_color3.html" target="_top" xlink:title=" ">
<polygon fill="white" stroke="black" points="739,-178.5 739,-197.5 853,-197.5 853,-178.5 739,-178.5"/>
<text text-anchor="middle" x="796" y="-185.5" font-family="Helvetica,sans-Serif" font-size="10.00">IgorAux::iaColor3&lt; T &gt;</text>
</a>
</g>
</g>
<!-- Node14&#45;&gt;Node13 -->
<g id="edge18" class="edge"><title>Node14&#45;&gt;Node13</title>
<path fill="none" stroke="#9a32cd" stroke-dasharray="5,2" d="M784.393,-169.539C782.495,-166.416 780.622,-163.152 779,-160 769.335,-141.212 774.237,-132.468 761,-116 752.92,-105.948 740.926,-97.7243 731.077,-92.064"/>
<polygon fill="#9a32cd" stroke="#9a32cd" points="781.606,-171.678 789.933,-178.229 787.508,-167.915 781.606,-171.678"/>
<text text-anchor="middle" x="802" y="-152" font-family="Helvetica,sans-Serif" font-size="10.00"> _emissive</text>
<text text-anchor="middle" x="802" y="-141" font-family="Helvetica,sans-Serif" font-size="10.00">_specular</text>
<text text-anchor="middle" x="802" y="-130" font-family="Helvetica,sans-Serif" font-size="10.00">_diffuse</text>
<text text-anchor="middle" x="802" y="-119" font-family="Helvetica,sans-Serif" font-size="10.00">_ambient</text>
</g>
<!-- Node15&#45;&gt;Node1 -->
<g id="edge19" class="edge"><title>Node15&#45;&gt;Node1</title>
<path fill="none" stroke="#9a32cd" stroke-dasharray="5,2" d="M875.27,-121.944C847.153,-100.107 791.597,-59.8736 738,-38 712.747,-27.6939 682.994,-21.0984 658.636,-17.0082"/>
<polygon fill="#9a32cd" stroke="#9a32cd" points="873.375,-124.906 883.398,-128.341 877.705,-119.405 873.375,-124.906"/>
<text text-anchor="middle" x="898.5" y="-85.5" font-family="Helvetica,sans-Serif" font-size="10.00"> _lastDiscoveryPosition</text>
<text text-anchor="middle" x="898.5" y="-74.5" font-family="Helvetica,sans-Serif" font-size="10.00">_maxDiscoveryBoundaries</text>
</g>
</g>
</svg>
