<?xml version="1.0" encoding="UTF-8" standalone="no"?>
<!DOCTYPE svg PUBLIC "-//W3C//DTD SVG 1.1//EN"
 "http://www.w3.org/Graphics/SVG/1.1/DTD/svg11.dtd">
<!-- Generated by graphviz version 2.38.0 (20140413.2041)
 -->
<!-- Title: Igor::iWidget::handleMouseWheel Pages: 1 -->
<svg width="287pt" height="88pt"
 viewBox="0.00 0.00 287.00 88.00" xmlns="http://www.w3.org/2000/svg" xmlns:xlink="http://www.w3.org/1999/xlink">
<g id="graph0" class="graph" transform="scale(1 1) rotate(0) translate(4 84)">
<title>Igor::iWidget::handleMouseWheel</title>
<polygon fill="white" stroke="none" points="-4,4 -4,-84 283,-84 283,4 -4,4"/>
<!-- Node1 -->
<g id="node1" class="node"><title>Node1</title>
<polygon fill="#bfbfbf" stroke="black" points="0,-24.5 0,-54.5 135,-54.5 135,-24.5 0,-24.5"/>
<text text-anchor="start" x="8" y="-42.5" font-family="Helvetica,sans-Serif" font-size="10.00">Igor::iWidget::handleMouse</text>
<text text-anchor="middle" x="67.5" y="-31.5" font-family="Helvetica,sans-Serif" font-size="10.00">Wheel</text>
</g>
<!-- Node2 -->
<g id="node2" class="node"><title>Node2</title>
<g id="a_node2"><a xlink:href="class_igor_1_1i_widget_grid.html#a68e72b17a54aaca89c22e4779a170188" target="_top" xlink:title="Igor::iWidgetGrid::\lhandleMouseWheel">
<polygon fill="white" stroke="black" points="174,-49.5 174,-79.5 276,-79.5 276,-49.5 174,-49.5"/>
<text text-anchor="start" x="182" y="-67.5" font-family="Helvetica,sans-Serif" font-size="10.00">Igor::iWidgetGrid::</text>
<text text-anchor="middle" x="225" y="-56.5" font-family="Helvetica,sans-Serif" font-size="10.00">handleMouseWheel</text>
</a>
</g>
</g>
<!-- Node1&#45;&gt;Node2 -->
<g id="edge1" class="edge"><title>Node1&#45;&gt;Node2</title>
<path fill="none" stroke="midnightblue" d="M145.336,-51.8531C154.951,-53.3989 164.584,-54.9476 173.648,-56.4048"/>
<polygon fill="midnightblue" stroke="midnightblue" points="145.777,-48.3791 135.348,-50.2473 144.666,-55.2904 145.777,-48.3791"/>
</g>
<!-- Node3 -->
<g id="node3" class="node"><title>Node3</title>
<g id="a_node3"><a xlink:href="class_igor_1_1i_widget_scroll.html#a7ecfa850afc533ba2301ebc736b4949f" target="_top" xlink:title="Igor::iWidgetScroll\l::handleMouseWheel">
<polygon fill="white" stroke="black" points="171,-0.5 171,-30.5 279,-30.5 279,-0.5 171,-0.5"/>
<text text-anchor="start" x="179" y="-18.5" font-family="Helvetica,sans-Serif" font-size="10.00">Igor::iWidgetScroll</text>
<text text-anchor="middle" x="225" y="-7.5" font-family="Helvetica,sans-Serif" font-size="10.00">::handleMouseWheel</text>
</a>
</g>
</g>
<!-- Node1&#45;&gt;Node3 -->
<g id="edge2" class="edge"><title>Node1&#45;&gt;Node3</title>
<path fill="none" stroke="midnightblue" d="M145.407,-27.6302C154.001,-26.3037 162.61,-24.975 170.812,-23.7091"/>
<polygon fill="midnightblue" stroke="midnightblue" points="144.698,-24.1981 135.348,-29.1826 145.765,-31.1162 144.698,-24.1981"/>
</g>
</g>
</svg>
