<?xml version="1.0" encoding="UTF-8" standalone="no"?>
<!DOCTYPE svg PUBLIC "-//W3C//DTD SVG 1.1//EN"
 "http://www.w3.org/Graphics/SVG/1.1/DTD/svg11.dtd">
<!-- Generated by graphviz version 2.38.0 (20140413.2041)
 -->
<!-- Title: OMPF::ompfGroupChunk::getSize Pages: 1 -->
<svg width="567pt" height="235pt"
 viewBox="0.00 0.00 567.00 235.00" xmlns="http://www.w3.org/2000/svg" xmlns:xlink="http://www.w3.org/1999/xlink">
<g id="graph0" class="graph" transform="scale(1 1) rotate(0) translate(4 231)">
<title>OMPF::ompfGroupChunk::getSize</title>
<polygon fill="white" stroke="none" points="-4,4 -4,-231 563,-231 563,4 -4,4"/>
<!-- Node1 -->
<g id="node1" class="node"><title>Node1</title>
<polygon fill="#bfbfbf" stroke="black" points="0,-122.5 0,-152.5 126,-152.5 126,-122.5 0,-122.5"/>
<text text-anchor="start" x="8" y="-140.5" font-family="Helvetica,sans-Serif" font-size="10.00">OMPF::ompfGroupChunk</text>
<text text-anchor="middle" x="63" y="-129.5" font-family="Helvetica,sans-Serif" font-size="10.00">::getSize</text>
</g>
<!-- Node2 -->
<g id="node2" class="node"><title>Node2</title>
<g id="a_node2"><a xlink:href="class_o_m_p_f_1_1ompf_base_chunk.html#aa10a43d86b3c7f1efeb2ecb0ca0bf401" target="_top" xlink:title="OMPF::ompfBaseChunk\l::getSize">
<polygon fill="white" stroke="black" points="162,-122.5 162,-152.5 284,-152.5 284,-122.5 162,-122.5"/>
<text text-anchor="start" x="170" y="-140.5" font-family="Helvetica,sans-Serif" font-size="10.00">OMPF::ompfBaseChunk</text>
<text text-anchor="middle" x="223" y="-129.5" font-family="Helvetica,sans-Serif" font-size="10.00">::getSize</text>
</a>
</g>
</g>
<!-- Node1&#45;&gt;Node2 -->
<g id="edge1" class="edge"><title>Node1&#45;&gt;Node2</title>
<path fill="none" stroke="midnightblue" d="M126.446,-137.5C134.724,-137.5 143.257,-137.5 151.658,-137.5"/>
<polygon fill="midnightblue" stroke="midnightblue" points="151.813,-141 161.813,-137.5 151.813,-134 151.813,-141"/>
</g>
<!-- Node3 -->
<g id="node3" class="node"><title>Node3</title>
<g id="a_node3"><a xlink:href="class_o_m_p_f_1_1ompf_settings.html#ac4b44803b6a70b9eb6f3ca573a0a5242" target="_top" xlink:title="OMPF::ompfSettings\l::getTypeIDSize">
<polygon fill="white" stroke="black" points="320,-196.5 320,-226.5 428,-226.5 428,-196.5 320,-196.5"/>
<text text-anchor="start" x="328" y="-214.5" font-family="Helvetica,sans-Serif" font-size="10.00">OMPF::ompfSettings</text>
<text text-anchor="middle" x="374" y="-203.5" font-family="Helvetica,sans-Serif" font-size="10.00">::getTypeIDSize</text>
</a>
</g>
</g>
<!-- Node2&#45;&gt;Node3 -->
<g id="edge2" class="edge"><title>Node2&#45;&gt;Node3</title>
<path fill="none" stroke="midnightblue" d="M251.938,-152.568C270.983,-162.712 296.848,-176.24 320,-187.5 323.138,-189.026 326.394,-190.578 329.68,-192.12"/>
<polygon fill="midnightblue" stroke="midnightblue" points="328.397,-195.383 338.942,-196.411 331.34,-189.032 328.397,-195.383"/>
</g>
<!-- Node4 -->
<g id="node4" class="node"><title>Node4</title>
<g id="a_node4"><a xlink:href="class_o_m_p_f_1_1ompf_settings.html#a3b1a3f75376c3ebee9a59a31d7280aa3" target="_top" xlink:title="OMPF::ompfSettings\l::getChunkIDSize">
<polygon fill="white" stroke="black" points="320,-147.5 320,-177.5 428,-177.5 428,-147.5 320,-147.5"/>
<text text-anchor="start" x="328" y="-165.5" font-family="Helvetica,sans-Serif" font-size="10.00">OMPF::ompfSettings</text>
<text text-anchor="middle" x="374" y="-154.5" font-family="Helvetica,sans-Serif" font-size="10.00">::getChunkIDSize</text>
</a>
</g>
</g>
<!-- Node2&#45;&gt;Node4 -->
<g id="edge3" class="edge"><title>Node2&#45;&gt;Node4</title>
<path fill="none" stroke="midnightblue" d="M284.175,-147.596C292.65,-149.018 301.383,-150.484 309.911,-151.915"/>
<polygon fill="midnightblue" stroke="midnightblue" points="309.36,-155.371 319.801,-153.574 310.518,-148.467 309.36,-155.371"/>
</g>
<!-- Node5 -->
<g id="node5" class="node"><title>Node5</title>
<g id="a_node5"><a xlink:href="class_o_m_p_f_1_1ompf_settings.html#ac8b4c4cf739d5c5fd8d09b15d176c90d" target="_top" xlink:title="OMPF::ompfSettings\l::getChunkSizeSize">
<polygon fill="white" stroke="black" points="320,-98.5 320,-128.5 428,-128.5 428,-98.5 320,-98.5"/>
<text text-anchor="start" x="328" y="-116.5" font-family="Helvetica,sans-Serif" font-size="10.00">OMPF::ompfSettings</text>
<text text-anchor="middle" x="374" y="-105.5" font-family="Helvetica,sans-Serif" font-size="10.00">::getChunkSizeSize</text>
</a>
</g>
</g>
<!-- Node2&#45;&gt;Node5 -->
<g id="edge4" class="edge"><title>Node2&#45;&gt;Node5</title>
<path fill="none" stroke="midnightblue" d="M284.175,-127.807C292.65,-126.442 301.383,-125.036 309.911,-123.662"/>
<polygon fill="midnightblue" stroke="midnightblue" points="310.485,-127.115 319.801,-122.069 309.372,-120.204 310.485,-127.115"/>
</g>
<!-- Node6 -->
<g id="node6" class="node"><title>Node6</title>
<g id="a_node6"><a xlink:href="class_igor_aux_1_1ia_string.html#a7793c7a60aff4ef3e35bd60c7d6ee703" target="_top" xlink:title="IgorAux::iaString::\lgetUTF8Size">
<polygon fill="white" stroke="black" points="326.5,-49.5 326.5,-79.5 421.5,-79.5 421.5,-49.5 326.5,-49.5"/>
<text text-anchor="start" x="334.5" y="-67.5" font-family="Helvetica,sans-Serif" font-size="10.00">IgorAux::iaString::</text>
<text text-anchor="middle" x="374" y="-56.5" font-family="Helvetica,sans-Serif" font-size="10.00">getUTF8Size</text>
</a>
</g>
</g>
<!-- Node2&#45;&gt;Node6 -->
<g id="edge5" class="edge"><title>Node2&#45;&gt;Node6</title>
<path fill="none" stroke="midnightblue" d="M253.751,-122.405C272.667,-112.862 297.708,-100.329 320,-89.5 323.758,-87.6746 327.673,-85.7916 331.6,-83.9165"/>
<polygon fill="midnightblue" stroke="midnightblue" points="333.182,-87.0396 340.712,-79.5861 330.178,-80.7173 333.182,-87.0396"/>
</g>
<!-- Node7 -->
<g id="node7" class="node"><title>Node7</title>
<g id="a_node7"><a xlink:href="class_igor_aux_1_1ia_string.html#afb40afde994d28224201cd9cb28909f7" target="_top" xlink:title="IgorAux::iaString::\lisEmpty">
<polygon fill="white" stroke="black" points="464,-98.5 464,-128.5 559,-128.5 559,-98.5 464,-98.5"/>
<text text-anchor="start" x="472" y="-116.5" font-family="Helvetica,sans-Serif" font-size="10.00">IgorAux::iaString::</text>
<text text-anchor="middle" x="511.5" y="-105.5" font-family="Helvetica,sans-Serif" font-size="10.00">isEmpty</text>
</a>
</g>
</g>
<!-- Node6&#45;&gt;Node7 -->
<g id="edge6" class="edge"><title>Node6&#45;&gt;Node7</title>
<path fill="none" stroke="midnightblue" d="M416.76,-79.6014C430.154,-84.4451 445.146,-89.8664 459.144,-94.9285"/>
<polygon fill="midnightblue" stroke="midnightblue" points="458.05,-98.2547 468.645,-98.3641 460.431,-91.6719 458.05,-98.2547"/>
</g>
<!-- Node8 -->
<g id="node8" class="node"><title>Node8</title>
<g id="a_node8"><a xlink:href="class_igor_aux_1_1ia_string.html#a527c422c83c563c834a12548728e625d" target="_top" xlink:title="IgorAux::iaString::\lgetData">
<polygon fill="white" stroke="black" points="464,-49.5 464,-79.5 559,-79.5 559,-49.5 464,-49.5"/>
<text text-anchor="start" x="472" y="-67.5" font-family="Helvetica,sans-Serif" font-size="10.00">IgorAux::iaString::</text>
<text text-anchor="middle" x="511.5" y="-56.5" font-family="Helvetica,sans-Serif" font-size="10.00">getData</text>
</a>
</g>
</g>
<!-- Node6&#45;&gt;Node8 -->
<g id="edge7" class="edge"><title>Node6&#45;&gt;Node8</title>
<path fill="none" stroke="midnightblue" d="M421.631,-64.5C431.958,-64.5 443.011,-64.5 453.692,-64.5"/>
<polygon fill="midnightblue" stroke="midnightblue" points="453.783,-68.0001 463.783,-64.5 453.783,-61.0001 453.783,-68.0001"/>
</g>
<!-- Node9 -->
<g id="node9" class="node"><title>Node9</title>
<g id="a_node9"><a xlink:href="class_igor_aux_1_1ia_string.html#a6d9c01e546c1e33c9924bc2695d5fc17" target="_top" xlink:title="IgorAux::iaString::\lgetSize">
<polygon fill="white" stroke="black" points="464,-0.5 464,-30.5 559,-30.5 559,-0.5 464,-0.5"/>
<text text-anchor="start" x="472" y="-18.5" font-family="Helvetica,sans-Serif" font-size="10.00">IgorAux::iaString::</text>
<text text-anchor="middle" x="511.5" y="-7.5" font-family="Helvetica,sans-Serif" font-size="10.00">getSize</text>
</a>
</g>
</g>
<!-- Node6&#45;&gt;Node9 -->
<g id="edge8" class="edge"><title>Node6&#45;&gt;Node9</title>
<path fill="none" stroke="midnightblue" d="M416.76,-49.3986C430.154,-44.5549 445.146,-39.1336 459.144,-34.0715"/>
<polygon fill="midnightblue" stroke="midnightblue" points="460.431,-37.3281 468.645,-30.6359 458.05,-30.7453 460.431,-37.3281"/>
</g>
</g>
</svg>
