<?xml version="1.0" encoding="UTF-8" standalone="no"?>
<!DOCTYPE svg PUBLIC "-//W3C//DTD SVG 1.1//EN"
 "http://www.w3.org/Graphics/SVG/1.1/DTD/svg11.dtd">
<!-- Generated by graphviz version 2.38.0 (20140413.2041)
 -->
<!-- Title: IgorAux::iaColor3::set Pages: 1 -->
<svg width="297pt" height="78pt"
 viewBox="0.00 0.00 297.00 77.50" xmlns="http://www.w3.org/2000/svg" xmlns:xlink="http://www.w3.org/1999/xlink">
<g id="graph0" class="graph" transform="scale(1 1) rotate(0) translate(4 73.5)">
<title>IgorAux::iaColor3::set</title>
<polygon fill="white" stroke="none" points="-4,4 -4,-73.5 293,-73.5 293,4 -4,4"/>
<!-- Node17 -->
<g id="node1" class="node"><title>Node17</title>
<g id="a_node1"><a xlink:title=" ">
<polygon fill="#bfbfbf" stroke="black" points="179,-22.5 179,-41.5 289,-41.5 289,-22.5 179,-22.5"/>
<text text-anchor="middle" x="234" y="-29.5" font-family="Helvetica,sans-Serif" font-size="10.00">IgorAux::iaColor3::set</text>
</a>
</g>
</g>
<!-- Node18 -->
<g id="node2" class="node"><title>Node18</title>
<g id="a_node2"><a xlink:href="struct_igor_1_1i_model_data_i_o_o_b_j_1_1_o_b_j_material.html#a5a5a4623339a7af6f3d528f64265d06b" target="_top" xlink:title=" ">
<polygon fill="white" stroke="black" points="4,-39 4,-69 139,-69 139,-39 4,-39"/>
<text text-anchor="start" x="12" y="-57" font-family="Helvetica,sans-Serif" font-size="10.00">Igor::iModelDataIOOBJ</text>
<text text-anchor="middle" x="71.5" y="-46" font-family="Helvetica,sans-Serif" font-size="10.00">::OBJMaterial::OBJMaterial</text>
</a>
</g>
</g>
<!-- Node17&#45;&gt;Node18 -->
<g id="edge1" class="edge"><title>Node17&#45;&gt;Node18</title>
<path fill="none" stroke="midnightblue" d="M168.646,-40.8211C158.897,-42.1575 148.821,-43.5385 139.027,-44.881"/>
<polygon fill="midnightblue" stroke="midnightblue" points="169.23,-44.2739 178.662,-39.4482 168.279,-37.3387 169.23,-44.2739"/>
</g>
<!-- Node19 -->
<g id="node3" class="node"><title>Node19</title>
<g id="a_node3"><a xlink:href="class_user_control_mesh.html#af55d4328c9fab97659a68bb6eec291aa" target="_top" xlink:title=" ">
<polygon fill="white" stroke="black" points="0,-0.5 0,-19.5 143,-19.5 143,-0.5 0,-0.5"/>
<text text-anchor="middle" x="71.5" y="-7.5" font-family="Helvetica,sans-Serif" font-size="10.00">UserControlMesh::updateGUI</text>
</a>
</g>
</g>
<!-- Node17&#45;&gt;Node19 -->
<g id="edge2" class="edge"><title>Node17&#45;&gt;Node19</title>
<path fill="none" stroke="midnightblue" d="M168.514,-23.1608C159.744,-21.9587 150.713,-20.7208 141.862,-19.5076"/>
<polygon fill="midnightblue" stroke="midnightblue" points="168.279,-26.6613 178.662,-24.5518 169.23,-19.7261 168.279,-26.6613"/>
</g>
</g>
</svg>
