<?xml version="1.0" encoding="UTF-8" standalone="no"?>
<!DOCTYPE svg PUBLIC "-//W3C//DTD SVG 1.1//EN"
 "http://www.w3.org/Graphics/SVG/1.1/DTD/svg11.dtd">
<!-- Generated by graphviz version 2.38.0 (20140413.2041)
 -->
<!-- Title: OMPF::ompfMaterialChunk Pages: 1 -->
<svg width="241pt" height="152pt"
 viewBox="0.00 0.00 241.00 152.00" xmlns="http://www.w3.org/2000/svg" xmlns:xlink="http://www.w3.org/1999/xlink">
<g id="graph0" class="graph" transform="scale(1 1) rotate(0) translate(4 148)">
<title>OMPF::ompfMaterialChunk</title>
<polygon fill="white" stroke="none" points="-4,4 -4,-148 237,-148 237,4 -4,4"/>
<!-- Node1 -->
<g id="node1" class="node"><title>Node1</title>
<polygon fill="#bfbfbf" stroke="black" points="0,-0.5 0,-19.5 134,-19.5 134,-0.5 0,-0.5"/>
<text text-anchor="middle" x="67" y="-7.5" font-family="Helvetica,sans-Serif" font-size="10.00">OMPF::ompfMaterialChunk</text>
</g>
<!-- Node2 -->
<g id="node2" class="node"><title>Node2</title>
<g id="a_node2"><a xlink:href="class_o_m_p_f_1_1ompf_base_chunk.html" target="_top" xlink:title="OMPF::ompfBaseChunk">
<polygon fill="white" stroke="black" points="111,-57.5 111,-76.5 233,-76.5 233,-57.5 111,-57.5"/>
<text text-anchor="middle" x="172" y="-64.5" font-family="Helvetica,sans-Serif" font-size="10.00">OMPF::ompfBaseChunk</text>
</a>
</g>
</g>
<!-- Node2&#45;&gt;Node1 -->
<g id="edge1" class="edge"><title>Node2&#45;&gt;Node1</title>
<path fill="none" stroke="midnightblue" d="M146.564,-52.6762C126.876,-42.3634 100.199,-28.3898 83.291,-19.5334"/>
<polygon fill="midnightblue" stroke="midnightblue" points="145.111,-55.8665 155.594,-57.4063 148.359,-49.6657 145.111,-55.8665"/>
</g>
<!-- Node3 -->
<g id="node3" class="node"><title>Node3</title>
<g id="a_node3"><a xlink:href="class_igor_aux_1_1ia_string.html" target="_top" xlink:title="IgorAux::iaString">
<polygon fill="white" stroke="black" points="24.5,-124.5 24.5,-143.5 113.5,-143.5 113.5,-124.5 24.5,-124.5"/>
<text text-anchor="middle" x="69" y="-131.5" font-family="Helvetica,sans-Serif" font-size="10.00">IgorAux::iaString</text>
</a>
</g>
</g>
<!-- Node3&#45;&gt;Node1 -->
<g id="edge3" class="edge"><title>Node3&#45;&gt;Node1</title>
<path fill="none" stroke="#9a32cd" stroke-dasharray="5,2" d="M54.7308,-116.435C46.6291,-105.905 37.2748,-91.5549 33,-77 30.4951,-68.4713 30.2186,-65.4425 33,-57 37.9097,-42.0973 49.7103,-28.0678 58.0256,-19.5103"/>
<polygon fill="#9a32cd" stroke="#9a32cd" points="52.0888,-118.734 61.1025,-124.302 57.5284,-114.328 52.0888,-118.734"/>
<text text-anchor="middle" x="67.5" y="-64.5" font-family="Helvetica,sans-Serif" font-size="10.00"> _materialName</text>
</g>
<!-- Node3&#45;&gt;Node2 -->
<g id="edge2" class="edge"><title>Node3&#45;&gt;Node2</title>
<path fill="none" stroke="#9a32cd" stroke-dasharray="5,2" d="M91.5511,-118.769C111.939,-105.903 141.292,-87.379 158.329,-76.6273"/>
<polygon fill="#9a32cd" stroke="#9a32cd" points="89.48,-115.937 82.891,-124.234 93.2158,-121.857 89.48,-115.937"/>
<text text-anchor="middle" x="142.5" y="-98" font-family="Helvetica,sans-Serif" font-size="10.00"> _name</text>
</g>
</g>
</svg>
