<?xml version="1.0" encoding="UTF-8" standalone="no"?>
<!DOCTYPE svg PUBLIC "-//W3C//DTD SVG 1.1//EN"
 "http://www.w3.org/Graphics/SVG/1.1/DTD/svg11.dtd">
<!-- Generated by graphviz version 2.38.0 (20140413.2041)
 -->
<!-- Title: Igor::iNodeModel::onPostSetScene Pages: 1 -->
<svg width="450pt" height="116pt"
 viewBox="0.00 0.00 450.00 115.50" xmlns="http://www.w3.org/2000/svg" xmlns:xlink="http://www.w3.org/1999/xlink">
<g id="graph0" class="graph" transform="scale(1 1) rotate(0) translate(4 111.5)">
<title>Igor::iNodeModel::onPostSetScene</title>
<polygon fill="white" stroke="none" points="-4,4 -4,-111.5 446,-111.5 446,4 -4,4"/>
<!-- Node50 -->
<g id="node1" class="node"><title>Node50</title>
<g id="a_node1"><a xlink:title=" ">
<polygon fill="#bfbfbf" stroke="black" points="0,-44.5 0,-74.5 126,-74.5 126,-44.5 0,-44.5"/>
<text text-anchor="start" x="8" y="-62.5" font-family="Helvetica,sans-Serif" font-size="10.00">Igor::iNodeModel::onPost</text>
<text text-anchor="middle" x="63" y="-51.5" font-family="Helvetica,sans-Serif" font-size="10.00">SetScene</text>
</a>
</g>
</g>
<!-- Node51 -->
<g id="node2" class="node"><title>Node51</title>
<g id="a_node2"><a xlink:href="class_igor_1_1i_node.html#acd9afcdfae20de27c0ca44bb5cb89e79" target="_top" xlink:title=" ">
<polygon fill="white" stroke="black" points="183,-88 183,-107 293,-107 293,-88 183,-88"/>
<text text-anchor="middle" x="238" y="-95" font-family="Helvetica,sans-Serif" font-size="10.00">Igor::iNode::getScene</text>
</a>
</g>
</g>
<!-- Node50&#45;&gt;Node51 -->
<g id="edge1" class="edge"><title>Node50&#45;&gt;Node51</title>
<path fill="none" stroke="midnightblue" d="M126.457,-73.2189C145.239,-77.3445 165.664,-81.8309 183.789,-85.812"/>
<polygon fill="midnightblue" stroke="midnightblue" points="183.078,-89.2392 193.596,-87.9662 184.58,-82.4022 183.078,-89.2392"/>
</g>
<!-- Node52 -->
<g id="node3" class="node"><title>Node52</title>
<g id="a_node3"><a xlink:href="class_igor_1_1i_node.html#acfa6ad12dcab840f398ccf5bd2df7d69" target="_top" xlink:title=" ">
<polygon fill="white" stroke="black" points="179.5,-50 179.5,-69 296.5,-69 296.5,-50 179.5,-50"/>
<text text-anchor="middle" x="238" y="-57" font-family="Helvetica,sans-Serif" font-size="10.00">Igor::iNode::isDataDirty</text>
</a>
</g>
</g>
<!-- Node50&#45;&gt;Node52 -->
<g id="edge2" class="edge"><title>Node50&#45;&gt;Node52</title>
<path fill="none" stroke="midnightblue" d="M126.457,-59.5C140.32,-59.5 155.078,-59.5 169.145,-59.5"/>
<polygon fill="midnightblue" stroke="midnightblue" points="169.243,-63.0001 179.243,-59.5 169.243,-56.0001 169.243,-63.0001"/>
</g>
<!-- Node53 -->
<g id="node4" class="node"><title>Node53</title>
<g id="a_node4"><a xlink:href="class_igor_1_1i_scene.html#acfca34eaff8314fd5edb894074abbe88" target="_top" xlink:title=" ">
<polygon fill="white" stroke="black" points="162,-0.5 162,-30.5 314,-30.5 314,-0.5 162,-0.5"/>
<text text-anchor="start" x="170" y="-18.5" font-family="Helvetica,sans-Serif" font-size="10.00">Igor::iScene::addToDataUpdate</text>
<text text-anchor="middle" x="238" y="-7.5" font-family="Helvetica,sans-Serif" font-size="10.00">Queue</text>
</a>
</g>
</g>
<!-- Node50&#45;&gt;Node53 -->
<g id="edge3" class="edge"><title>Node50&#45;&gt;Node53</title>
<path fill="none" stroke="midnightblue" d="M123.053,-44.4808C137.586,-40.7844 153.273,-36.7947 168.222,-32.9926"/>
<polygon fill="midnightblue" stroke="midnightblue" points="169.091,-36.3832 177.92,-30.5262 167.365,-29.5991 169.091,-36.3832"/>
</g>
<!-- Node54 -->
<g id="node5" class="node"><title>Node54</title>
<g id="a_node5"><a xlink:href="class_igor_1_1i_node.html#aece61f1af4143a3a1765b19594d72b6e" target="_top" xlink:title=" ">
<polygon fill="white" stroke="black" points="350,-6 350,-25 442,-25 442,-6 350,-6"/>
<text text-anchor="middle" x="396" y="-13" font-family="Helvetica,sans-Serif" font-size="10.00">Igor::iNode::getID</text>
</a>
</g>
</g>
<!-- Node53&#45;&gt;Node54 -->
<g id="edge4" class="edge"><title>Node53&#45;&gt;Node54</title>
<path fill="none" stroke="midnightblue" d="M314.258,-15.5C322.805,-15.5 331.395,-15.5 339.618,-15.5"/>
<polygon fill="midnightblue" stroke="midnightblue" points="339.806,-19.0001 349.806,-15.5 339.806,-12.0001 339.806,-19.0001"/>
</g>
</g>
</svg>
