<?xml version="1.0" encoding="UTF-8" standalone="no"?>
<!DOCTYPE svg PUBLIC "-//W3C//DTD SVG 1.1//EN"
 "http://www.w3.org/Graphics/SVG/1.1/DTD/svg11.dtd">
<!-- Generated by graphviz version 2.38.0 (20140413.2041)
 -->
<!-- Title: IgorAux::iaStateMachine::enterCurrentState Pages: 1 -->
<svg width="449pt" height="112pt"
 viewBox="0.00 0.00 449.00 112.00" xmlns="http://www.w3.org/2000/svg" xmlns:xlink="http://www.w3.org/1999/xlink">
<g id="graph0" class="graph" transform="scale(1 1) rotate(0) translate(4 108)">
<title>IgorAux::iaStateMachine::enterCurrentState</title>
<polygon fill="white" stroke="none" points="-4,4 -4,-108 445,-108 445,4 -4,4"/>
<!-- Node33 -->
<g id="node1" class="node"><title>Node33</title>
<g id="a_node1"><a xlink:title=" ">
<polygon fill="#bfbfbf" stroke="black" points="318,-48.5 318,-78.5 441,-78.5 441,-48.5 318,-48.5"/>
<text text-anchor="start" x="326" y="-66.5" font-family="Helvetica,sans-Serif" font-size="10.00">IgorAux::iaStateMachine</text>
<text text-anchor="middle" x="379.5" y="-55.5" font-family="Helvetica,sans-Serif" font-size="10.00">::enterCurrentState</text>
</a>
</g>
</g>
<!-- Node34 -->
<g id="node2" class="node"><title>Node34</title>
<g id="a_node2"><a xlink:href="class_igor_aux_1_1ia_state_machine.html#a57e7a88381461a7b7259c4295de36b98" target="_top" xlink:title=" ">
<polygon fill="white" stroke="black" points="159,-73.5 159,-103.5 282,-103.5 282,-73.5 159,-73.5"/>
<text text-anchor="start" x="167" y="-91.5" font-family="Helvetica,sans-Serif" font-size="10.00">IgorAux::iaStateMachine</text>
<text text-anchor="middle" x="220.5" y="-80.5" font-family="Helvetica,sans-Serif" font-size="10.00">::start</text>
</a>
</g>
</g>
<!-- Node33&#45;&gt;Node34 -->
<g id="edge1" class="edge"><title>Node33&#45;&gt;Node34</title>
<path fill="none" stroke="midnightblue" d="M307.79,-74.7595C299.193,-76.1285 290.47,-77.5175 282.039,-78.8601"/>
<polygon fill="midnightblue" stroke="midnightblue" points="308.475,-78.1947 317.8,-73.1657 307.374,-71.2818 308.475,-78.1947"/>
</g>
<!-- Node35 -->
<g id="node3" class="node"><title>Node35</title>
<g id="a_node3"><a xlink:href="class_igor_aux_1_1ia_state_machine.html#a91361353dc0886f3f7cee450389688f5" target="_top" xlink:title=" ">
<polygon fill="white" stroke="black" points="159,-24.5 159,-54.5 282,-54.5 282,-24.5 159,-24.5"/>
<text text-anchor="start" x="167" y="-42.5" font-family="Helvetica,sans-Serif" font-size="10.00">IgorAux::iaStateMachine</text>
<text text-anchor="middle" x="220.5" y="-31.5" font-family="Helvetica,sans-Serif" font-size="10.00">::transit</text>
</a>
</g>
</g>
<!-- Node33&#45;&gt;Node35 -->
<g id="edge2" class="edge"><title>Node33&#45;&gt;Node35</title>
<path fill="none" stroke="midnightblue" d="M307.79,-52.6909C299.193,-51.3766 290.47,-50.0432 282.039,-48.7543"/>
<polygon fill="midnightblue" stroke="midnightblue" points="307.386,-56.1696 317.8,-54.221 308.443,-49.25 307.386,-56.1696"/>
</g>
<!-- Node36 -->
<g id="node4" class="node"><title>Node36</title>
<g id="a_node4"><a xlink:href="class_igor_aux_1_1ia_state_machine.html#ad884bcc26a5262c7c82ca505065be81b" target="_top" xlink:title=" ">
<polygon fill="white" stroke="black" points="0,-49.5 0,-79.5 123,-79.5 123,-49.5 0,-49.5"/>
<text text-anchor="start" x="8" y="-67.5" font-family="Helvetica,sans-Serif" font-size="10.00">IgorAux::iaStateMachine</text>
<text text-anchor="middle" x="61.5" y="-56.5" font-family="Helvetica,sans-Serif" font-size="10.00">::doTransition</text>
</a>
</g>
</g>
<!-- Node35&#45;&gt;Node36 -->
<g id="edge3" class="edge"><title>Node35&#45;&gt;Node36</title>
<path fill="none" stroke="midnightblue" d="M148.79,-50.7595C140.193,-52.1285 131.47,-53.5175 123.039,-54.8601"/>
<polygon fill="midnightblue" stroke="midnightblue" points="149.475,-54.1947 158.8,-49.1657 148.374,-47.2818 149.475,-54.1947"/>
</g>
<!-- Node37 -->
<g id="node5" class="node"><title>Node37</title>
<g id="a_node5"><a xlink:href="class_igor_aux_1_1ia_state_machine.html#a1668769ea8979928f5683742a0515c4c" target="_top" xlink:title=" ">
<polygon fill="white" stroke="black" points="0,-0.5 0,-30.5 123,-30.5 123,-0.5 0,-0.5"/>
<text text-anchor="start" x="8" y="-18.5" font-family="Helvetica,sans-Serif" font-size="10.00">IgorAux::iaStateMachine</text>
<text text-anchor="middle" x="61.5" y="-7.5" font-family="Helvetica,sans-Serif" font-size="10.00">::openGate</text>
</a>
</g>
</g>
<!-- Node35&#45;&gt;Node37 -->
<g id="edge4" class="edge"><title>Node35&#45;&gt;Node37</title>
<path fill="none" stroke="midnightblue" d="M148.79,-28.6909C140.193,-27.3766 131.47,-26.0432 123.039,-24.7543"/>
<polygon fill="midnightblue" stroke="midnightblue" points="148.386,-32.1696 158.8,-30.221 149.443,-25.25 148.386,-32.1696"/>
</g>
</g>
</svg>
