<?xml version="1.0" encoding="UTF-8" standalone="no"?>
<!DOCTYPE svg PUBLIC "-//W3C//DTD SVG 1.1//EN"
 "http://www.w3.org/Graphics/SVG/1.1/DTD/svg11.dtd">
<!-- Generated by graphviz version 2.38.0 (20140413.2041)
 -->
<!-- Title: IgorAux::iaGradient::setValue Pages: 1 -->
<svg width="278pt" height="88pt"
 viewBox="0.00 0.00 278.00 88.00" xmlns="http://www.w3.org/2000/svg" xmlns:xlink="http://www.w3.org/1999/xlink">
<g id="graph0" class="graph" transform="scale(1 1) rotate(0) translate(4 84)">
<title>IgorAux::iaGradient::setValue</title>
<polygon fill="white" stroke="none" points="-4,4 -4,-84 274,-84 274,4 -4,4"/>
<!-- Node1 -->
<g id="node1" class="node"><title>Node1</title>
<polygon fill="#bfbfbf" stroke="black" points="0,-24.5 0,-54.5 100,-54.5 100,-24.5 0,-24.5"/>
<text text-anchor="start" x="8" y="-42.5" font-family="Helvetica,sans-Serif" font-size="10.00">IgorAux::iaGradient</text>
<text text-anchor="middle" x="50" y="-31.5" font-family="Helvetica,sans-Serif" font-size="10.00">::setValue</text>
</g>
<!-- Node2 -->
<g id="node2" class="node"><title>Node2</title>
<g id="a_node2"><a xlink:href="class_igor_aux_1_1ia_serializable.html#a43626e8cf5678dbcc4f00705676ba9c5" target="_top" xlink:title="IgorAux::iaSerializable\l::read">
<polygon fill="white" stroke="black" points="146.5,-49.5 146.5,-79.5 259.5,-79.5 259.5,-49.5 146.5,-49.5"/>
<text text-anchor="start" x="154.5" y="-67.5" font-family="Helvetica,sans-Serif" font-size="10.00">IgorAux::iaSerializable</text>
<text text-anchor="middle" x="203" y="-56.5" font-family="Helvetica,sans-Serif" font-size="10.00">::read</text>
</a>
</g>
</g>
<!-- Node1&#45;&gt;Node2 -->
<g id="edge1" class="edge"><title>Node1&#45;&gt;Node2</title>
<path fill="none" stroke="midnightblue" d="M109.941,-49.2584C121.943,-51.2455 134.532,-53.3298 146.413,-55.2969"/>
<polygon fill="midnightblue" stroke="midnightblue" points="110.463,-45.7973 100.025,-47.6168 109.319,-52.7033 110.463,-45.7973"/>
</g>
<!-- Node3 -->
<g id="node3" class="node"><title>Node3</title>
<g id="a_node3"><a xlink:href="class_user_control_particle_system.html#ab9d5c0d93ecd969fd6658127d6c26ddd" target="_top" xlink:title="UserControlParticleSystem\l::updateNode">
<polygon fill="white" stroke="black" points="136,-0.5 136,-30.5 270,-30.5 270,-0.5 136,-0.5"/>
<text text-anchor="start" x="144" y="-18.5" font-family="Helvetica,sans-Serif" font-size="10.00">UserControlParticleSystem</text>
<text text-anchor="middle" x="203" y="-7.5" font-family="Helvetica,sans-Serif" font-size="10.00">::updateNode</text>
</a>
</g>
</g>
<!-- Node1&#45;&gt;Node3 -->
<g id="edge2" class="edge"><title>Node1&#45;&gt;Node3</title>
<path fill="none" stroke="midnightblue" d="M110.161,-30.097C118.611,-28.7539 127.348,-27.3652 135.921,-26.0026"/>
<polygon fill="midnightblue" stroke="midnightblue" points="109.352,-26.6815 100.025,-31.7079 110.451,-33.5947 109.352,-26.6815"/>
</g>
</g>
</svg>
