<?xml version="1.0" encoding="UTF-8" standalone="no"?>
<!DOCTYPE svg PUBLIC "-//W3C//DTD SVG 1.1//EN"
 "http://www.w3.org/Graphics/SVG/1.1/DTD/svg11.dtd">
<!-- Generated by graphviz version 2.38.0 (20140413.2041)
 -->
<!-- Title: Igor::iTaskFlushModels::abort Pages: 1 -->
<svg width="289pt" height="126pt"
 viewBox="0.00 0.00 289.00 126.00" xmlns="http://www.w3.org/2000/svg" xmlns:xlink="http://www.w3.org/1999/xlink">
<g id="graph0" class="graph" transform="scale(1 1) rotate(0) translate(4 122)">
<title>Igor::iTaskFlushModels::abort</title>
<polygon fill="white" stroke="none" points="-4,4 -4,-122 285,-122 285,4 -4,4"/>
<!-- Node4 -->
<g id="node1" class="node"><title>Node4</title>
<g id="a_node1"><a xlink:title=" ">
<polygon fill="#bfbfbf" stroke="black" points="0,-33 0,-63 117,-63 117,-33 0,-33"/>
<text text-anchor="start" x="8" y="-51" font-family="Helvetica,sans-Serif" font-size="10.00">Igor::iTaskFlushModels</text>
<text text-anchor="middle" x="58.5" y="-40" font-family="Helvetica,sans-Serif" font-size="10.00">::abort</text>
</a>
</g>
</g>
<!-- Node5 -->
<g id="node2" class="node"><title>Node5</title>
<g id="a_node2"><a xlink:href="class_igor_aux_1_1ia_singleton.html#a821f1d891129e6d09b992be81094540e" target="_top" xlink:title=" ">
<polygon fill="white" stroke="black" points="153,-76.5 153,-117.5 281,-117.5 281,-76.5 153,-76.5"/>
<text text-anchor="start" x="161" y="-105.5" font-family="Helvetica,sans-Serif" font-size="10.00">IgorAux::iaSingleton</text>
<text text-anchor="start" x="161" y="-94.5" font-family="Helvetica,sans-Serif" font-size="10.00">&lt; iModelResourceFactory</text>
<text text-anchor="middle" x="217" y="-83.5" font-family="Helvetica,sans-Serif" font-size="10.00"> &gt;::getInstance</text>
</a>
</g>
</g>
<!-- Node4&#45;&gt;Node5 -->
<g id="edge1" class="edge"><title>Node4&#45;&gt;Node5</title>
<path fill="none" stroke="midnightblue" d="M107.732,-63.1014C119,-66.6294 131.247,-70.4638 143.316,-74.2426"/>
<polygon fill="midnightblue" stroke="midnightblue" points="142.346,-77.6064 152.935,-77.2543 144.437,-70.9262 142.346,-77.6064"/>
</g>
<!-- Node6 -->
<g id="node3" class="node"><title>Node6</title>
<g id="a_node3"><a xlink:href="class_igor_1_1i_task.html#a9a6b5fdd96fec5df44942f8df19ee217" target="_top" xlink:title=" ">
<polygon fill="white" stroke="black" points="162,-38.5 162,-57.5 272,-57.5 272,-38.5 162,-38.5"/>
<text text-anchor="middle" x="217" y="-45.5" font-family="Helvetica,sans-Serif" font-size="10.00">Igor::iTask::isRunning</text>
</a>
</g>
</g>
<!-- Node4&#45;&gt;Node6 -->
<g id="edge2" class="edge"><title>Node4&#45;&gt;Node6</title>
<path fill="none" stroke="midnightblue" d="M117.33,-48C128.463,-48 140.189,-48 151.518,-48"/>
<polygon fill="midnightblue" stroke="midnightblue" points="151.781,-51.5001 161.781,-48 151.781,-44.5001 151.781,-51.5001"/>
</g>
<!-- Node7 -->
<g id="node4" class="node"><title>Node7</title>
<g id="a_node4"><a xlink:href="class_igor_1_1i_task.html#acdadecbd8a4427becbef93a5fa2873b7" target="_top" xlink:title=" ">
<polygon fill="white" stroke="black" points="154.5,-0.5 154.5,-19.5 279.5,-19.5 279.5,-0.5 154.5,-0.5"/>
<text text-anchor="middle" x="217" y="-7.5" font-family="Helvetica,sans-Serif" font-size="10.00">Igor::iTask::setRepeating</text>
</a>
</g>
</g>
<!-- Node4&#45;&gt;Node7 -->
<g id="edge3" class="edge"><title>Node4&#45;&gt;Node7</title>
<path fill="none" stroke="midnightblue" d="M117.33,-33.9582C133.473,-30.0386 150.862,-25.8164 166.478,-22.0245"/>
<polygon fill="midnightblue" stroke="midnightblue" points="167.561,-25.3632 176.453,-19.6024 165.91,-18.5609 167.561,-25.3632"/>
</g>
</g>
</svg>
