<?xml version="1.0" encoding="UTF-8" standalone="no"?>
<!DOCTYPE svg PUBLIC "-//W3C//DTD SVG 1.1//EN"
 "http://www.w3.org/Graphics/SVG/1.1/DTD/svg11.dtd">
<!-- Generated by graphviz version 2.38.0 (20140413.2041)
 -->
<!-- Title: Igor::iWindow Pages: 1 -->
<svg width="206pt" height="95pt"
 viewBox="0.00 0.00 205.50 95.00" xmlns="http://www.w3.org/2000/svg" xmlns:xlink="http://www.w3.org/1999/xlink">
<g id="graph0" class="graph" transform="scale(1 1) rotate(0) translate(4 91)">
<title>Igor::iWindow</title>
<polygon fill="white" stroke="none" points="-4,4 -4,-91 201.5,-91 201.5,4 -4,4"/>
<!-- Node1 -->
<g id="node1" class="node"><title>Node1</title>
<polygon fill="#bfbfbf" stroke="black" points="61,-0.5 61,-19.5 136,-19.5 136,-0.5 61,-0.5"/>
<text text-anchor="middle" x="98.5" y="-7.5" font-family="Helvetica,sans-Serif" font-size="10.00">Igor::iWindow</text>
</g>
<!-- Node2 -->
<g id="node2" class="node"><title>Node2</title>
<g id="a_node2"><a xlink:href="class_igor_aux_1_1ia_string.html" target="_top" xlink:title="IgorAux::iaString">
<polygon fill="white" stroke="black" points="0,-67.5 0,-86.5 89,-86.5 89,-67.5 0,-67.5"/>
<text text-anchor="middle" x="44.5" y="-74.5" font-family="Helvetica,sans-Serif" font-size="10.00">IgorAux::iaString</text>
</a>
</g>
</g>
<!-- Node2&#45;&gt;Node1 -->
<g id="edge1" class="edge"><title>Node2&#45;&gt;Node1</title>
<path fill="none" stroke="#9a32cd" stroke-dasharray="5,2" d="M58.3984,-59.2705C68.9269,-46.5972 82.9638,-29.701 91.3327,-19.6273"/>
<polygon fill="#9a32cd" stroke="#9a32cd" points="55.4807,-57.3053 51.7827,-67.2338 60.8651,-61.7785 55.4807,-57.3053"/>
<text text-anchor="middle" x="88" y="-41" font-family="Helvetica,sans-Serif" font-size="10.00"> _title</text>
</g>
<!-- Node3 -->
<g id="node3" class="node"><title>Node3</title>
<g id="a_node3"><a xlink:href="class_igor_aux_1_1ia_mutex.html" target="_top" xlink:title="IgorAux::iaMutex">
<polygon fill="white" stroke="black" points="107.5,-67.5 107.5,-86.5 197.5,-86.5 197.5,-67.5 107.5,-67.5"/>
<text text-anchor="middle" x="152.5" y="-74.5" font-family="Helvetica,sans-Serif" font-size="10.00">IgorAux::iaMutex</text>
</a>
</g>
</g>
<!-- Node3&#45;&gt;Node1 -->
<g id="edge2" class="edge"><title>Node3&#45;&gt;Node1</title>
<path fill="none" stroke="#9a32cd" stroke-dasharray="5,2" d="M138.602,-59.2705C128.073,-46.5972 114.036,-29.701 105.667,-19.6273"/>
<polygon fill="#9a32cd" stroke="#9a32cd" points="136.135,-61.7785 145.217,-67.2338 141.519,-57.3053 136.135,-61.7785"/>
<text text-anchor="middle" x="154.5" y="-41" font-family="Helvetica,sans-Serif" font-size="10.00"> _wglMutex</text>
</g>
</g>
</svg>
