<?xml version="1.0" encoding="UTF-8" standalone="no"?>
<!DOCTYPE svg PUBLIC "-//W3C//DTD SVG 1.1//EN"
 "http://www.w3.org/Graphics/SVG/1.1/DTD/svg11.dtd">
<!-- Generated by graphviz version 2.38.0 (20140413.2041)
 -->
<!-- Title: Igor::iNodeVolume::updateTree Pages: 1 -->
<svg width="248pt" height="88pt"
 viewBox="0.00 0.00 248.00 88.00" xmlns="http://www.w3.org/2000/svg" xmlns:xlink="http://www.w3.org/1999/xlink">
<g id="graph0" class="graph" transform="scale(1 1) rotate(0) translate(4 84)">
<title>Igor::iNodeVolume::updateTree</title>
<polygon fill="white" stroke="none" points="-4,4 -4,-84 244,-84 244,4 -4,4"/>
<!-- Node79 -->
<g id="node1" class="node"><title>Node79</title>
<g id="a_node1"><a xlink:title=" ">
<polygon fill="#bfbfbf" stroke="black" points="138,-24.5 138,-54.5 240,-54.5 240,-24.5 138,-24.5"/>
<text text-anchor="start" x="146" y="-42.5" font-family="Helvetica,sans-Serif" font-size="10.00">Igor::iNodeVolume::</text>
<text text-anchor="middle" x="189" y="-31.5" font-family="Helvetica,sans-Serif" font-size="10.00">updateTree</text>
</a>
</g>
</g>
<!-- Node80 -->
<g id="node2" class="node"><title>Node80</title>
<g id="a_node2"><a xlink:href="class_igor_1_1i_node_volume.html#a1e9e75c89b3bb3a230a558a188686486" target="_top" xlink:title=" ">
<polygon fill="white" stroke="black" points="0,-49.5 0,-79.5 102,-79.5 102,-49.5 0,-49.5"/>
<text text-anchor="start" x="8" y="-67.5" font-family="Helvetica,sans-Serif" font-size="10.00">Igor::iNodeVolume::</text>
<text text-anchor="middle" x="51" y="-56.5" font-family="Helvetica,sans-Serif" font-size="10.00">setBoundingSphere</text>
</a>
</g>
</g>
<!-- Node79&#45;&gt;Node80 -->
<g id="edge1" class="edge"><title>Node79&#45;&gt;Node80</title>
<path fill="none" stroke="midnightblue" d="M127.769,-50.5718C119.177,-52.1513 110.417,-53.7615 102.048,-55.2999"/>
<polygon fill="midnightblue" stroke="midnightblue" points="128.543,-53.9884 137.745,-48.738 127.277,-47.1037 128.543,-53.9884"/>
</g>
<!-- Node81 -->
<g id="node3" class="node"><title>Node81</title>
<g id="a_node3"><a xlink:href="class_igor_1_1i_node_volume.html#a40d766c3877a3125e4733c8203ee8c07" target="_top" xlink:title=" ">
<polygon fill="white" stroke="black" points="0,-0.5 0,-30.5 102,-30.5 102,-0.5 0,-0.5"/>
<text text-anchor="start" x="8" y="-18.5" font-family="Helvetica,sans-Serif" font-size="10.00">Igor::iNodeVolume::</text>
<text text-anchor="middle" x="51" y="-7.5" font-family="Helvetica,sans-Serif" font-size="10.00">onUpdateTransform</text>
</a>
</g>
</g>
<!-- Node79&#45;&gt;Node81 -->
<g id="edge2" class="edge"><title>Node79&#45;&gt;Node81</title>
<path fill="none" stroke="midnightblue" d="M127.769,-28.871C119.177,-27.3548 110.417,-25.809 102.048,-24.3321"/>
<polygon fill="midnightblue" stroke="midnightblue" points="127.289,-32.3403 137.745,-30.6315 128.505,-25.4468 127.289,-32.3403"/>
</g>
</g>
</svg>
