<?xml version="1.0" encoding="UTF-8" standalone="no"?>
<!DOCTYPE svg PUBLIC "-//W3C//DTD SVG 1.1//EN"
 "http://www.w3.org/Graphics/SVG/1.1/DTD/svg11.dtd">
<!-- Generated by graphviz version 2.38.0 (20140413.2041)
 -->
<!-- Title: OMPF::OMPF::createTransformChunk Pages: 1 -->
<svg width="321pt" height="88pt"
 viewBox="0.00 0.00 321.00 88.00" xmlns="http://www.w3.org/2000/svg" xmlns:xlink="http://www.w3.org/1999/xlink">
<g id="graph0" class="graph" transform="scale(1 1) rotate(0) translate(4 84)">
<title>OMPF::OMPF::createTransformChunk</title>
<polygon fill="white" stroke="none" points="-4,4 -4,-84 317,-84 317,4 -4,4"/>
<!-- Node1 -->
<g id="node1" class="node"><title>Node1</title>
<polygon fill="#bfbfbf" stroke="black" points="0,-24.5 0,-54.5 155,-54.5 155,-24.5 0,-24.5"/>
<text text-anchor="start" x="8" y="-42.5" font-family="Helvetica,sans-Serif" font-size="10.00">OMPF::OMPF::createTransform</text>
<text text-anchor="middle" x="77.5" y="-31.5" font-family="Helvetica,sans-Serif" font-size="10.00">Chunk</text>
</g>
<!-- Node2 -->
<g id="node2" class="node"><title>Node2</title>
<g id="a_node2"><a xlink:href="class_o_m_p_f_1_1ompf_base_chunk.html#a60c963bf58ea5aacd0f1329bec35163c" target="_top" xlink:title="OMPF::ompfBaseChunk\l::setID">
<polygon fill="white" stroke="black" points="191,-49.5 191,-79.5 313,-79.5 313,-49.5 191,-49.5"/>
<text text-anchor="start" x="199" y="-67.5" font-family="Helvetica,sans-Serif" font-size="10.00">OMPF::ompfBaseChunk</text>
<text text-anchor="middle" x="252" y="-56.5" font-family="Helvetica,sans-Serif" font-size="10.00">::setID</text>
</a>
</g>
</g>
<!-- Node1&#45;&gt;Node2 -->
<g id="edge1" class="edge"><title>Node1&#45;&gt;Node2</title>
<path fill="none" stroke="midnightblue" d="M155.166,-50.611C163.674,-51.844 172.308,-53.0953 180.731,-54.3161"/>
<polygon fill="midnightblue" stroke="midnightblue" points="180.48,-57.8162 190.879,-55.7868 181.484,-50.8886 180.48,-57.8162"/>
</g>
<!-- Node3 -->
<g id="node3" class="node"><title>Node3</title>
<g id="a_node3"><a xlink:href="class_o_m_p_f_1_1ompf_base_chunk.html#a975a727d2e35826854206a927ab003b0" target="_top" xlink:title="OMPF::ompfBaseChunk\l::getID">
<polygon fill="white" stroke="black" points="191,-0.5 191,-30.5 313,-30.5 313,-0.5 191,-0.5"/>
<text text-anchor="start" x="199" y="-18.5" font-family="Helvetica,sans-Serif" font-size="10.00">OMPF::ompfBaseChunk</text>
<text text-anchor="middle" x="252" y="-7.5" font-family="Helvetica,sans-Serif" font-size="10.00">::getID</text>
</a>
</g>
</g>
<!-- Node1&#45;&gt;Node3 -->
<g id="edge2" class="edge"><title>Node1&#45;&gt;Node3</title>
<path fill="none" stroke="midnightblue" d="M155.166,-28.8335C163.674,-27.6497 172.308,-26.4485 180.731,-25.2765"/>
<polygon fill="midnightblue" stroke="midnightblue" points="181.457,-28.7094 190.879,-23.8647 180.492,-21.7762 181.457,-28.7094"/>
</g>
</g>
</svg>
