<?xml version="1.0" encoding="UTF-8" standalone="no"?>
<!DOCTYPE svg PUBLIC "-//W3C//DTD SVG 1.1//EN"
 "http://www.w3.org/Graphics/SVG/1.1/DTD/svg11.dtd">
<!-- Generated by graphviz version 2.38.0 (20140413.2041)
 -->
<!-- Title: Igor::iNodeCamera::~iNodeCamera Pages: 1 -->
<svg width="436pt" height="280pt"
 viewBox="0.00 0.00 436.00 279.50" xmlns="http://www.w3.org/2000/svg" xmlns:xlink="http://www.w3.org/1999/xlink">
<g id="graph0" class="graph" transform="scale(1 1) rotate(0) translate(4 275.5)">
<title>Igor::iNodeCamera::~iNodeCamera</title>
<polygon fill="white" stroke="none" points="-4,4 -4,-275.5 432,-275.5 432,4 -4,4"/>
<!-- Node7 -->
<g id="node1" class="node"><title>Node7</title>
<g id="a_node1"><a xlink:title=" ">
<polygon fill="#bfbfbf" stroke="black" points="0,-120.5 0,-150.5 103,-150.5 103,-120.5 0,-120.5"/>
<text text-anchor="start" x="8" y="-138.5" font-family="Helvetica,sans-Serif" font-size="10.00">Igor::iNodeCamera::</text>
<text text-anchor="middle" x="51.5" y="-127.5" font-family="Helvetica,sans-Serif" font-size="10.00">~iNodeCamera</text>
</a>
</g>
</g>
<!-- Node8 -->
<g id="node2" class="node"><title>Node8</title>
<g id="a_node2"><a xlink:href="class_igor_1_1i_node.html#a0392b6251631e79675f7416827335b70" target="_top" xlink:title=" ">
<polygon fill="white" stroke="black" points="139,-126 139,-145 249,-145 249,-126 139,-126"/>
<text text-anchor="middle" x="194" y="-133" font-family="Helvetica,sans-Serif" font-size="10.00">Igor::iNode::setScene</text>
</a>
</g>
</g>
<!-- Node7&#45;&gt;Node8 -->
<g id="edge1" class="edge"><title>Node7&#45;&gt;Node8</title>
<path fill="none" stroke="midnightblue" d="M103.224,-135.5C111.382,-135.5 119.923,-135.5 128.355,-135.5"/>
<polygon fill="midnightblue" stroke="midnightblue" points="128.553,-139 138.553,-135.5 128.553,-132 128.553,-139"/>
</g>
<!-- Node9 -->
<g id="node3" class="node"><title>Node9</title>
<g id="a_node3"><a xlink:href="class_igor_1_1i_node.html#aa8934442e897cfdf775264f161c69143" target="_top" xlink:title=" ">
<polygon fill="white" stroke="black" points="288,-252 288,-271 425,-271 425,-252 288,-252"/>
<text text-anchor="middle" x="356.5" y="-259" font-family="Helvetica,sans-Serif" font-size="10.00">Igor::iNode::onPreSetScene</text>
</a>
</g>
</g>
<!-- Node8&#45;&gt;Node9 -->
<g id="edge2" class="edge"><title>Node8&#45;&gt;Node9</title>
<path fill="none" stroke="midnightblue" d="M200.34,-145.191C212.476,-166.284 244.263,-216.54 285,-242.5 288.332,-244.624 291.898,-246.512 295.592,-248.19"/>
<polygon fill="midnightblue" stroke="midnightblue" points="294.39,-251.479 304.975,-251.946 296.991,-244.98 294.39,-251.479"/>
</g>
<!-- Node10 -->
<g id="node4" class="node"><title>Node10</title>
<g id="a_node4"><a xlink:href="class_igor_1_1i_scene.html#aadee04cec2c19e6de83645d9de7e614f" target="_top" xlink:title=" ">
<polygon fill="white" stroke="black" points="295.5,-202.5 295.5,-232.5 417.5,-232.5 417.5,-202.5 295.5,-202.5"/>
<text text-anchor="start" x="303.5" y="-220.5" font-family="Helvetica,sans-Serif" font-size="10.00">Igor::iScene::signalNode</text>
<text text-anchor="middle" x="356.5" y="-209.5" font-family="Helvetica,sans-Serif" font-size="10.00">Removed</text>
</a>
</g>
</g>
<!-- Node8&#45;&gt;Node10 -->
<g id="edge3" class="edge"><title>Node8&#45;&gt;Node10</title>
<path fill="none" stroke="midnightblue" d="M208.173,-145.177C225.241,-157.395 256.226,-178.506 285,-192.5 289.368,-194.625 293.965,-196.662 298.631,-198.593"/>
<polygon fill="midnightblue" stroke="midnightblue" points="297.666,-201.975 308.253,-202.398 300.241,-195.466 297.666,-201.975"/>
</g>
<!-- Node11 -->
<g id="node5" class="node"><title>Node11</title>
<g id="a_node5"><a xlink:href="class_igor_1_1i_node.html#aece61f1af4143a3a1765b19594d72b6e" target="_top" xlink:title=" ">
<polygon fill="white" stroke="black" points="310.5,-164 310.5,-183 402.5,-183 402.5,-164 310.5,-164"/>
<text text-anchor="middle" x="356.5" y="-171" font-family="Helvetica,sans-Serif" font-size="10.00">Igor::iNode::getID</text>
</a>
</g>
</g>
<!-- Node8&#45;&gt;Node11 -->
<g id="edge4" class="edge"><title>Node8&#45;&gt;Node11</title>
<path fill="none" stroke="midnightblue" d="M235.501,-145.089C256.681,-150.104 282.802,-156.288 305.26,-161.605"/>
<polygon fill="midnightblue" stroke="midnightblue" points="304.753,-165.082 315.29,-163.98 306.366,-158.27 304.753,-165.082"/>
</g>
<!-- Node12 -->
<g id="node6" class="node"><title>Node12</title>
<g id="a_node6"><a xlink:href="class_igor_1_1i_scene.html#ab362507531b6b5207a3045283e9820c0" target="_top" xlink:title=" ">
<polygon fill="white" stroke="black" points="300,-126 300,-145 413,-145 413,-126 300,-126"/>
<text text-anchor="middle" x="356.5" y="-133" font-family="Helvetica,sans-Serif" font-size="10.00">Igor::iScene::getName</text>
</a>
</g>
</g>
<!-- Node8&#45;&gt;Node12 -->
<g id="edge5" class="edge"><title>Node8&#45;&gt;Node12</title>
<path fill="none" stroke="midnightblue" d="M249.338,-135.5C262.31,-135.5 276.294,-135.5 289.719,-135.5"/>
<polygon fill="midnightblue" stroke="midnightblue" points="289.851,-139 299.85,-135.5 289.85,-132 289.851,-139"/>
</g>
<!-- Node13 -->
<g id="node7" class="node"><title>Node13</title>
<g id="a_node7"><a xlink:href="class_igor_1_1i_node.html#aa13a0c809d3f0bb17baf52917d04aff0" target="_top" xlink:title=" ">
<polygon fill="white" stroke="black" points="296.5,-88 296.5,-107 416.5,-107 416.5,-88 296.5,-88"/>
<text text-anchor="middle" x="356.5" y="-95" font-family="Helvetica,sans-Serif" font-size="10.00">Igor::iNode::hasChildren</text>
</a>
</g>
</g>
<!-- Node8&#45;&gt;Node13 -->
<g id="edge6" class="edge"><title>Node8&#45;&gt;Node13</title>
<path fill="none" stroke="midnightblue" d="M235.501,-125.911C256.681,-120.896 282.802,-114.712 305.26,-109.395"/>
<polygon fill="midnightblue" stroke="midnightblue" points="306.366,-112.73 315.29,-107.02 304.753,-105.918 306.366,-112.73"/>
</g>
<!-- Node14 -->
<g id="node8" class="node"><title>Node14</title>
<g id="a_node8"><a xlink:href="class_igor_1_1i_node.html#af5a14599bd4dc62d1534865c8a306e8e" target="_top" xlink:title=" ">
<polygon fill="white" stroke="black" points="285,-50 285,-69 428,-69 428,-50 285,-50"/>
<text text-anchor="middle" x="356.5" y="-57" font-family="Helvetica,sans-Serif" font-size="10.00">Igor::iNode::onPostSetScene</text>
</a>
</g>
</g>
<!-- Node8&#45;&gt;Node14 -->
<g id="edge7" class="edge"><title>Node8&#45;&gt;Node14</title>
<path fill="none" stroke="midnightblue" d="M207.429,-125.901C224.191,-113.374 255.367,-91.5175 285,-78.5 290.428,-76.1158 296.225,-73.9685 302.076,-72.0513"/>
<polygon fill="midnightblue" stroke="midnightblue" points="303.378,-75.3131 311.917,-69.0407 301.33,-68.6193 303.378,-75.3131"/>
</g>
<!-- Node15 -->
<g id="node9" class="node"><title>Node15</title>
<g id="a_node9"><a xlink:href="class_igor_1_1i_scene.html#a61c6f27b83ccdfbfdc1b7ee02d2fcc21" target="_top" xlink:title=" ">
<polygon fill="white" stroke="black" points="295.5,-0.5 295.5,-30.5 417.5,-30.5 417.5,-0.5 295.5,-0.5"/>
<text text-anchor="start" x="303.5" y="-18.5" font-family="Helvetica,sans-Serif" font-size="10.00">Igor::iScene::signalNode</text>
<text text-anchor="middle" x="356.5" y="-7.5" font-family="Helvetica,sans-Serif" font-size="10.00">Added</text>
</a>
</g>
</g>
<!-- Node8&#45;&gt;Node15 -->
<g id="edge8" class="edge"><title>Node8&#45;&gt;Node15</title>
<path fill="none" stroke="midnightblue" d="M201.778,-125.711C215.418,-106.695 248.051,-64.5287 285,-40.5 288.065,-38.5066 291.309,-36.6492 294.655,-34.9222"/>
<polygon fill="midnightblue" stroke="midnightblue" points="296.151,-38.0864 303.699,-30.6507 293.162,-31.7569 296.151,-38.0864"/>
</g>
</g>
</svg>
