<?xml version="1.0" encoding="UTF-8" standalone="no"?>
<!DOCTYPE svg PUBLIC "-//W3C//DTD SVG 1.1//EN"
 "http://www.w3.org/Graphics/SVG/1.1/DTD/svg11.dtd">
<!-- Generated by graphviz version 2.38.0 (20140413.2041)
 -->
<!-- Title: Igor::iRenderEngine::drawColorIDs Pages: 1 -->
<svg width="450pt" height="280pt"
 viewBox="0.00 0.00 450.00 279.50" xmlns="http://www.w3.org/2000/svg" xmlns:xlink="http://www.w3.org/1999/xlink">
<g id="graph0" class="graph" transform="scale(1 1) rotate(0) translate(4 275.5)">
<title>Igor::iRenderEngine::drawColorIDs</title>
<polygon fill="white" stroke="none" points="-4,4 -4,-275.5 446,-275.5 446,4 -4,4"/>
<!-- Node16 -->
<g id="node1" class="node"><title>Node16</title>
<g id="a_node1"><a xlink:title=" ">
<polygon fill="#bfbfbf" stroke="black" points="0,-121 0,-151 101,-151 101,-121 0,-121"/>
<text text-anchor="start" x="8" y="-139" font-family="Helvetica,sans-Serif" font-size="10.00">Igor::iRenderEngine</text>
<text text-anchor="middle" x="50.5" y="-128" font-family="Helvetica,sans-Serif" font-size="10.00">::drawColorIDs</text>
</a>
</g>
</g>
<!-- Node17 -->
<g id="node2" class="node"><title>Node17</title>
<g id="a_node2"><a xlink:href="class_igor_1_1i_material_group.html#aaa0f9de975bbac4ef031085931409f65" target="_top" xlink:title=" ">
<polygon fill="white" stroke="black" points="146.5,-241 146.5,-271 247.5,-271 247.5,-241 146.5,-241"/>
<text text-anchor="start" x="154.5" y="-259" font-family="Helvetica,sans-Serif" font-size="10.00">Igor::iMaterialGroup</text>
<text text-anchor="middle" x="197" y="-248" font-family="Helvetica,sans-Serif" font-size="10.00">::getRenderNodes</text>
</a>
</g>
</g>
<!-- Node16&#45;&gt;Node17 -->
<g id="edge1" class="edge"><title>Node16&#45;&gt;Node17</title>
<path fill="none" stroke="midnightblue" d="M61.6818,-151.275C76.2101,-172.046 104.729,-209.216 137,-232 139.055,-233.451 141.211,-234.834 143.433,-236.149"/>
<polygon fill="midnightblue" stroke="midnightblue" points="141.796,-239.242 152.263,-240.886 145.106,-233.074 141.796,-239.242"/>
</g>
<!-- Node18 -->
<g id="node3" class="node"><title>Node18</title>
<g id="a_node3"><a xlink:href="class_igor_1_1i_node_render.html#aef5fe1bc6120f2cca1284646133293ec" target="_top" xlink:title=" ">
<polygon fill="white" stroke="black" points="147,-192 147,-222 247,-222 247,-192 147,-192"/>
<text text-anchor="start" x="155" y="-210" font-family="Helvetica,sans-Serif" font-size="10.00">Igor::iNodeRender::</text>
<text text-anchor="middle" x="197" y="-199" font-family="Helvetica,sans-Serif" font-size="10.00">wasReached</text>
</a>
</g>
</g>
<!-- Node16&#45;&gt;Node18 -->
<g id="edge2" class="edge"><title>Node16&#45;&gt;Node18</title>
<path fill="none" stroke="midnightblue" d="M77.2842,-151.199C94.0423,-160.82 116.508,-173.24 137,-183 140.394,-184.617 143.928,-186.227 147.504,-187.805"/>
<polygon fill="midnightblue" stroke="midnightblue" points="146.432,-191.153 157.001,-191.885 149.195,-184.722 146.432,-191.153"/>
</g>
<!-- Node19 -->
<g id="node4" class="node"><title>Node19</title>
<g id="a_node4"><a xlink:href="class_igor_1_1i_node_render.html#a3a820bf3205cb6e8556da2544fd53a67" target="_top" xlink:title=" ">
<polygon fill="white" stroke="black" points="147,-143 147,-173 247,-173 247,-143 147,-143"/>
<text text-anchor="start" x="155" y="-161" font-family="Helvetica,sans-Serif" font-size="10.00">Igor::iNodeRender::</text>
<text text-anchor="middle" x="197" y="-150" font-family="Helvetica,sans-Serif" font-size="10.00">isVisible</text>
</a>
</g>
</g>
<!-- Node16&#45;&gt;Node19 -->
<g id="edge3" class="edge"><title>Node16&#45;&gt;Node19</title>
<path fill="none" stroke="midnightblue" d="M101.229,-143.571C112.594,-145.302 124.786,-147.158 136.514,-148.943"/>
<polygon fill="midnightblue" stroke="midnightblue" points="136.256,-152.444 146.669,-150.489 137.31,-145.524 136.256,-152.444"/>
</g>
<!-- Node20 -->
<g id="node5" class="node"><title>Node20</title>
<g id="a_node5"><a xlink:href="class_igor_1_1i_node.html#aece61f1af4143a3a1765b19594d72b6e" target="_top" xlink:title=" ">
<polygon fill="white" stroke="black" points="151,-104.5 151,-123.5 243,-123.5 243,-104.5 151,-104.5"/>
<text text-anchor="middle" x="197" y="-111.5" font-family="Helvetica,sans-Serif" font-size="10.00">Igor::iNode::getID</text>
</a>
</g>
</g>
<!-- Node16&#45;&gt;Node20 -->
<g id="edge4" class="edge"><title>Node16&#45;&gt;Node20</title>
<path fill="none" stroke="midnightblue" d="M101.229,-128.429C113.855,-126.507 127.5,-124.429 140.397,-122.466"/>
<polygon fill="midnightblue" stroke="midnightblue" points="141.187,-125.886 150.546,-120.92 140.133,-118.965 141.187,-125.886"/>
</g>
<!-- Node21 -->
<g id="node6" class="node"><title>Node21</title>
<g id="a_node6"><a xlink:href="class_igor_1_1i_node_render.html#a555b40da5534a5e54e4235560678bac0" target="_top" xlink:title=" ">
<polygon fill="white" stroke="black" points="137,-66.5 137,-85.5 257,-85.5 257,-66.5 137,-66.5"/>
<text text-anchor="middle" x="197" y="-73.5" font-family="Helvetica,sans-Serif" font-size="10.00">Igor::iNodeRender::draw</text>
</a>
</g>
</g>
<!-- Node16&#45;&gt;Node21 -->
<g id="edge5" class="edge"><title>Node16&#45;&gt;Node21</title>
<path fill="none" stroke="midnightblue" d="M80.3459,-120.962C96.7189,-112.733 117.732,-102.681 137,-95 142.443,-92.8301 148.24,-90.7236 153.994,-88.7518"/>
<polygon fill="midnightblue" stroke="midnightblue" points="155.18,-92.0462 163.567,-85.5731 152.974,-85.4028 155.18,-92.0462"/>
</g>
<!-- Node22 -->
<g id="node7" class="node"><title>Node22</title>
<g id="a_node7"><a xlink:href="class_igor_1_1i_material_group.html#ae5c9c6cedc257e8a6f58ec1ac02d4d1e" target="_top" xlink:title=" ">
<polygon fill="white" stroke="black" points="143.5,-17 143.5,-47 250.5,-47 250.5,-17 143.5,-17"/>
<text text-anchor="start" x="151.5" y="-35" font-family="Helvetica,sans-Serif" font-size="10.00">Igor::iMaterialGroup</text>
<text text-anchor="middle" x="197" y="-24" font-family="Helvetica,sans-Serif" font-size="10.00">::removeRenderNode</text>
</a>
</g>
</g>
<!-- Node16&#45;&gt;Node22 -->
<g id="edge6" class="edge"><title>Node16&#45;&gt;Node22</title>
<path fill="none" stroke="midnightblue" d="M64.7519,-120.942C80.5684,-103.685 108.477,-75.4177 137,-57 139.94,-55.1019 143.047,-53.2929 146.238,-51.5797"/>
<polygon fill="midnightblue" stroke="midnightblue" points="147.997,-54.6131 155.376,-47.0106 144.867,-48.352 147.997,-54.6131"/>
</g>
<!-- Node23 -->
<g id="node8" class="node"><title>Node23</title>
<g id="a_node8"><a xlink:href="class_igor_aux_1_1ia_singleton.html#a821f1d891129e6d09b992be81094540e" target="_top" xlink:title=" ">
<polygon fill="white" stroke="black" points="293,-39 293,-69 442,-69 442,-39 293,-39"/>
<text text-anchor="start" x="301" y="-57" font-family="Helvetica,sans-Serif" font-size="10.00">IgorAux::iaSingleton</text>
<text text-anchor="middle" x="367.5" y="-46" font-family="Helvetica,sans-Serif" font-size="10.00">&lt; iNodeFactory &gt;::getInstance</text>
</a>
</g>
</g>
<!-- Node22&#45;&gt;Node23 -->
<g id="edge7" class="edge"><title>Node22&#45;&gt;Node23</title>
<path fill="none" stroke="midnightblue" d="M250.852,-38.9006C261.05,-40.232 271.963,-41.6569 282.863,-43.08"/>
<polygon fill="midnightblue" stroke="midnightblue" points="282.479,-46.5595 292.848,-44.3837 283.385,-39.6185 282.479,-46.5595"/>
</g>
<!-- Node24 -->
<g id="node9" class="node"><title>Node24</title>
<g id="a_node9"><a xlink:href="class_igor_1_1i_node.html#af2d72831df4a13096e731418b6d6bb4b" target="_top" xlink:title=" ">
<polygon fill="white" stroke="black" points="315.5,-0.5 315.5,-19.5 419.5,-19.5 419.5,-0.5 315.5,-0.5"/>
<text text-anchor="middle" x="367.5" y="-7.5" font-family="Helvetica,sans-Serif" font-size="10.00">Igor::iNode::getType</text>
</a>
</g>
</g>
<!-- Node22&#45;&gt;Node24 -->
<g id="edge8" class="edge"><title>Node22&#45;&gt;Node24</title>
<path fill="none" stroke="midnightblue" d="M250.852,-25.0994C268.037,-22.8557 287.256,-20.3464 305.015,-18.0277"/>
<polygon fill="midnightblue" stroke="midnightblue" points="305.814,-21.4532 315.277,-16.6879 304.908,-14.5121 305.814,-21.4532"/>
</g>
</g>
</svg>
