<?xml version="1.0" encoding="UTF-8" standalone="no"?>
<!DOCTYPE svg PUBLIC "-//W3C//DTD SVG 1.1//EN"
 "http://www.w3.org/Graphics/SVG/1.1/DTD/svg11.dtd">
<!-- Generated by graphviz version 2.38.0 (20140413.2041)
 -->
<!-- Title: C:/dev/Igor/Igor/src/Tools/ModelViewer Pages: 1 -->
<svg width="200pt" height="231pt"
 viewBox="0.00 0.00 200.00 231.00" xmlns="http://www.w3.org/2000/svg" xmlns:xlink="http://www.w3.org/1999/xlink">
<g id="graph0" class="graph" transform="scale(1 1) rotate(0) translate(4 227)">
<title>C:/dev/Igor/Igor/src/Tools/ModelViewer</title>
<polygon fill="white" stroke="none" points="-4,4 -4,-227 196,-227 196,4 -4,4"/>
<g id="clust1" class="cluster"><title>clusterdir_7e461070e7b716e896e0d97cd6a82321</title>
<g id="a_clust1"><a xlink:href="dir_7e461070e7b716e896e0d97cd6a82321.html" target="_top" xlink:title="Tools">
<polygon fill="#ddddee" stroke="black" points="8,-128 8,-215 184,-215 184,-128 8,-128"/>
<text text-anchor="middle" x="96" y="-203" font-family="Helvetica,sans-Serif" font-size="10.00">Tools</text>
</a>
</g>
</g>
<g id="clust2" class="cluster"><title>clusterdir_35f2d965650731d0c22b2f38a2bf7dd7</title>
<g id="a_clust2"><a xlink:href="dir_35f2d965650731d0c22b2f38a2bf7dd7.html" target="_top">
<polygon fill="#eeeeff" stroke="black" points="16,-136 16,-188 176,-188 176,-136 16,-136"/>
</a>
</g>
</g>
<!-- dir_35f2d965650731d0c22b2f38a2bf7dd7 -->
<g id="node1" class="node"><title>dir_35f2d965650731d0c22b2f38a2bf7dd7</title>
<text text-anchor="middle" x="132" y="-159.5" font-family="Helvetica,sans-Serif" font-size="10.00">ModelViewer</text>
</g>
<!-- dir_16b007fb714ff8ebadc247bbd86402ce -->
<g id="node2" class="node"><title>dir_16b007fb714ff8ebadc247bbd86402ce</title>
<g id="a_node2"><a xlink:href="dir_16b007fb714ff8ebadc247bbd86402ce.html" target="_top" xlink:title="src">
<polygon fill="white" stroke="black" points="78,-180 24,-180 24,-144 78,-144 78,-180"/>
<text text-anchor="middle" x="51" y="-159.5" font-family="Helvetica,sans-Serif" font-size="10.00">src</text>
</a>
</g>
</g>
<!-- dir_038706058e6e4ef52f3f38f20b163fcb -->
<g id="node3" class="node"><title>dir_038706058e6e4ef52f3f38f20b163fcb</title>
<g id="a_node3"><a xlink:href="dir_038706058e6e4ef52f3f38f20b163fcb.html" target="_top" xlink:title="IgorAux">
<polygon fill="white" stroke="red" points="78,-36 24,-36 24,-0 78,-0 78,-36"/>
<text text-anchor="middle" x="51" y="-15.5" font-family="Helvetica,sans-Serif" font-size="10.00">IgorAux</text>
</a>
</g>
</g>
<!-- dir_16b007fb714ff8ebadc247bbd86402ce&#45;&gt;dir_038706058e6e4ef52f3f38f20b163fcb -->
<g id="edge2" class="edge"><title>dir_16b007fb714ff8ebadc247bbd86402ce&#45;&gt;dir_038706058e6e4ef52f3f38f20b163fcb</title>
<path fill="none" stroke="black" d="M47.7517,-143.888C45.9542,-133.542 43.9053,-120.063 43,-108 41.8026,-92.0449 41.8026,-87.9551 43,-72 43.6366,-63.5179 44.8384,-54.3361 46.1208,-46.0356"/>
<polygon fill="black" stroke="black" points="49.5836,-46.5472 47.7517,-36.1119 42.6763,-45.412 49.5836,-46.5472"/>
<g id="a_edge2&#45;headlabel"><a xlink:href="dir_000010_000002.html" target="_top" xlink:title="19">
<text text-anchor="middle" x="51.8024" y="-48.0546" font-family="Helvetica,sans-Serif" font-size="10.00">19</text>
</a>
</g>
</g>
<!-- dir_f25e90d47839bd5aa725b19f9dd3e654 -->
<g id="node4" class="node"><title>dir_f25e90d47839bd5aa725b19f9dd3e654</title>
<g id="a_node4"><a xlink:href="dir_f25e90d47839bd5aa725b19f9dd3e654.html" target="_top" xlink:title="Igor">
<polygon fill="white" stroke="red" points="106,-108 52,-108 52,-72 106,-72 106,-108"/>
<text text-anchor="middle" x="79" y="-87.5" font-family="Helvetica,sans-Serif" font-size="10.00">Igor</text>
</a>
</g>
</g>
<!-- dir_16b007fb714ff8ebadc247bbd86402ce&#45;&gt;dir_f25e90d47839bd5aa725b19f9dd3e654 -->
<g id="edge3" class="edge"><title>dir_16b007fb714ff8ebadc247bbd86402ce&#45;&gt;dir_f25e90d47839bd5aa725b19f9dd3e654</title>
<path fill="none" stroke="black" d="M57.9214,-143.697C61.0747,-135.813 64.8783,-126.304 68.3814,-117.546"/>
<polygon fill="black" stroke="black" points="71.694,-118.689 72.1583,-108.104 65.1946,-116.089 71.694,-118.689"/>
<g id="a_edge3&#45;headlabel"><a xlink:href="dir_000010_000000.html" target="_top" xlink:title="285">
<text text-anchor="middle" x="72.9952" y="-120.581" font-family="Helvetica,sans-Serif" font-size="10.00">285</text>
</a>
</g>
</g>
<!-- dir_f25e90d47839bd5aa725b19f9dd3e654&#45;&gt;dir_038706058e6e4ef52f3f38f20b163fcb -->
<g id="edge1" class="edge"><title>dir_f25e90d47839bd5aa725b19f9dd3e654&#45;&gt;dir_038706058e6e4ef52f3f38f20b163fcb</title>
<path fill="none" stroke="black" d="M72.0786,-71.6966C68.9253,-63.8132 65.1217,-54.3042 61.6186,-45.5464"/>
<polygon fill="black" stroke="black" points="64.8054,-44.0892 57.8417,-36.1043 58.306,-46.689 64.8054,-44.0892"/>
<g id="a_edge1&#45;headlabel"><a xlink:href="dir_000000_000002.html" target="_top" xlink:title="361">
<text text-anchor="middle" x="68.7765" y="-43.8723" font-family="Helvetica,sans-Serif" font-size="10.00">361</text>
</a>
</g>
</g>
</g>
</svg>
