<?xml version="1.0" encoding="UTF-8" standalone="no"?>
<!DOCTYPE svg PUBLIC "-//W3C//DTD SVG 1.1//EN"
 "http://www.w3.org/Graphics/SVG/1.1/DTD/svg11.dtd">
<!-- Generated by graphviz version 2.38.0 (20140413.2041)
 -->
<!-- Title: C:/dev/Igor/Igor/src/Igor/vs/packages/Microsoft.googletest.v140.windesktop.msvcstl.static.rt&#45;dyn.1.8.1/build/native/include/gtest/gtest&#45;printers.h Pages: 1 -->
<svg width="1721pt" height="441pt"
 viewBox="0.00 0.00 1721.00 441.00" xmlns="http://www.w3.org/2000/svg" xmlns:xlink="http://www.w3.org/1999/xlink">
<g id="graph0" class="graph" transform="scale(1 1) rotate(0) translate(4 437)">
<title>C:/dev/Igor/Igor/src/Igor/vs/packages/Microsoft.googletest.v140.windesktop.msvcstl.static.rt&#45;dyn.1.8.1/build/native/include/gtest/gtest&#45;printers.h</title>
<polygon fill="white" stroke="none" points="-4,4 -4,-437 1717,-437 1717,4 -4,4"/>
<!-- Node0 -->
<g id="node1" class="node"><title>Node0</title>
<g id="a_node1"><a xlink:title=" ">
<polygon fill="#bfbfbf" stroke="black" points="717.5,-391.5 717.5,-432.5 1046.5,-432.5 1046.5,-391.5 717.5,-391.5"/>
<text text-anchor="start" x="725.5" y="-420.5" font-family="Helvetica,sans-Serif" font-size="10.00">C:/dev/Igor/Igor/src</text>
<text text-anchor="start" x="725.5" y="-409.5" font-family="Helvetica,sans-Serif" font-size="10.00">/Igor/vs/packages/Microsoft.googletest.v140.windesktop.msvcstl.static.rt</text>
<text text-anchor="middle" x="882" y="-398.5" font-family="Helvetica,sans-Serif" font-size="10.00">&#45;dyn.1.8.1/build/native/include/gtest/gtest&#45;printers.h</text>
</a>
</g>
</g>
<!-- Node1 -->
<g id="node2" class="node"><title>Node1</title>
<g id="a_node2"><a xlink:title=" ">
<polygon fill="white" stroke="#bfbfbf" points="0,-330 0,-349 52,-349 52,-330 0,-330"/>
<text text-anchor="middle" x="26" y="-337" font-family="Helvetica,sans-Serif" font-size="10.00">ostream</text>
</a>
</g>
</g>
<!-- Node0&#45;&gt;Node1 -->
<g id="edge1" class="edge"><title>Node0&#45;&gt;Node1</title>
<path fill="none" stroke="midnightblue" d="M717.316,-405.126C515.625,-396.985 186.005,-380.345 66,-355 62.7478,-354.313 59.4029,-353.42 56.0985,-352.414"/>
<polygon fill="midnightblue" stroke="midnightblue" points="57.034,-349.035 46.4398,-349.151 54.7937,-355.667 57.034,-349.035"/>
</g>
<!-- Node2 -->
<g id="node3" class="node"><title>Node2</title>
<g id="a_node3"><a xlink:title=" ">
<polygon fill="white" stroke="#bfbfbf" points="108,-62 108,-81 160,-81 160,-62 108,-62"/>
<text text-anchor="middle" x="134" y="-69" font-family="Helvetica,sans-Serif" font-size="10.00">sstream</text>
</a>
</g>
</g>
<!-- Node0&#45;&gt;Node2 -->
<g id="edge2" class="edge"><title>Node0&#45;&gt;Node2</title>
<path fill="none" stroke="midnightblue" d="M717.491,-395.035C578.881,-376.873 403,-340.606 403,-273.5 403,-273.5 403,-273.5 403,-204.5 403,-191.268 233.032,-115.667 163.308,-85.2115"/>
<polygon fill="midnightblue" stroke="midnightblue" points="164.346,-81.8459 153.78,-81.0584 161.549,-88.2628 164.346,-81.8459"/>
</g>
<!-- Node3 -->
<g id="node4" class="node"><title>Node3</title>
<g id="a_node4"><a xlink:title=" ">
<polygon fill="white" stroke="#bfbfbf" points="1497.5,-62 1497.5,-81 1538.5,-81 1538.5,-62 1497.5,-62"/>
<text text-anchor="middle" x="1518" y="-69" font-family="Helvetica,sans-Serif" font-size="10.00">string</text>
</a>
</g>
</g>
<!-- Node0&#45;&gt;Node3 -->
<g id="edge3" class="edge"><title>Node0&#45;&gt;Node3</title>
<path fill="none" stroke="midnightblue" d="M1046.52,-408.721C1241.13,-401.458 1539,-373.937 1539,-273.5 1539,-273.5 1539,-273.5 1539,-204.5 1539,-163.466 1528.98,-116.139 1522.78,-90.791"/>
<polygon fill="midnightblue" stroke="midnightblue" points="1526.17,-89.9114 1520.33,-81.0735 1519.38,-91.6262 1526.17,-89.9114"/>
</g>
<!-- Node4 -->
<g id="node5" class="node"><title>Node4</title>
<g id="a_node5"><a xlink:title=" ">
<polygon fill="white" stroke="#bfbfbf" points="941,-0.5 941,-19.5 981,-19.5 981,-0.5 941,-0.5"/>
<text text-anchor="middle" x="961" y="-7.5" font-family="Helvetica,sans-Serif" font-size="10.00">utility</text>
</a>
</g>
</g>
<!-- Node0&#45;&gt;Node4 -->
<g id="edge4" class="edge"><title>Node0&#45;&gt;Node4</title>
<path fill="none" stroke="midnightblue" d="M717.283,-399.089C482.577,-379.866 80,-337.556 80,-273.5 80,-273.5 80,-273.5 80,-137.5 80,-100.306 70.4801,-79.8741 99,-56 131.545,-28.7563 781.739,-14.4869 930.752,-11.5669"/>
<polygon fill="midnightblue" stroke="midnightblue" points="931.05,-15.0619 940.981,-11.369 930.915,-8.06323 931.05,-15.0619"/>
</g>
<!-- Node5 -->
<g id="node6" class="node"><title>Node5</title>
<g id="a_node6"><a xlink:title=" ">
<polygon fill="white" stroke="#bfbfbf" points="1557,-62 1557,-81 1599,-81 1599,-62 1557,-62"/>
<text text-anchor="middle" x="1578" y="-69" font-family="Helvetica,sans-Serif" font-size="10.00">vector</text>
</a>
</g>
</g>
<!-- Node0&#45;&gt;Node5 -->
<g id="edge5" class="edge"><title>Node0&#45;&gt;Node5</title>
<path fill="none" stroke="midnightblue" d="M1046.58,-408.305C1200.27,-403.577 1417.15,-390.594 1494,-355 1540.91,-333.271 1577,-325.2 1577,-273.5 1577,-273.5 1577,-273.5 1577,-204.5 1577,-164.157 1577.47,-116.879 1577.77,-91.2814"/>
<polygon fill="midnightblue" stroke="midnightblue" points="1581.27,-91.1896 1577.89,-81.1486 1574.27,-91.1061 1581.27,-91.1896"/>
</g>
<!-- Node6 -->
<g id="node7" class="node"><title>Node6</title>
<g id="a_node7"><a xlink:href="gtest-port_8h.html" target="_top" xlink:title=" ">
<polygon fill="white" stroke="black" points="912,-123.5 912,-153.5 1010,-153.5 1010,-123.5 912,-123.5"/>
<text text-anchor="start" x="920" y="-141.5" font-family="Helvetica,sans-Serif" font-size="10.00">gtest/internal/gtest</text>
<text text-anchor="middle" x="961" y="-130.5" font-family="Helvetica,sans-Serif" font-size="10.00">&#45;port.h</text>
</a>
</g>
</g>
<!-- Node0&#45;&gt;Node6 -->
<g id="edge6" class="edge"><title>Node0&#45;&gt;Node6</title>
<path fill="none" stroke="midnightblue" d="M850.892,-391.469C809.793,-363.067 745.725,-308.16 774,-257 801.906,-206.509 861.605,-174.78 906.086,-157.201"/>
<polygon fill="midnightblue" stroke="midnightblue" points="907.522,-160.398 915.613,-153.558 905.022,-153.86 907.522,-160.398"/>
</g>
<!-- Node23 -->
<g id="node24" class="node"><title>Node23</title>
<g id="a_node24"><a xlink:href="gtest-internal_8h.html" target="_top" xlink:title=" ">
<polygon fill="white" stroke="black" points="999,-324.5 999,-354.5 1097,-354.5 1097,-324.5 999,-324.5"/>
<text text-anchor="start" x="1007" y="-342.5" font-family="Helvetica,sans-Serif" font-size="10.00">gtest/internal/gtest</text>
<text text-anchor="middle" x="1048" y="-331.5" font-family="Helvetica,sans-Serif" font-size="10.00">&#45;internal.h</text>
</a>
</g>
</g>
<!-- Node0&#45;&gt;Node23 -->
<g id="edge28" class="edge"><title>Node0&#45;&gt;Node23</title>
<path fill="none" stroke="midnightblue" d="M928.24,-391.362C952.439,-381.085 981.862,-368.589 1005.49,-358.555"/>
<polygon fill="midnightblue" stroke="midnightblue" points="1007.06,-361.69 1014.9,-354.56 1004.32,-355.247 1007.06,-361.69"/>
</g>
<!-- Node33 -->
<g id="node34" class="node"><title>Node33</title>
<g id="a_node34"><a xlink:href="internal_2custom_2gtest-printers_8h.html" target="_top" xlink:title=" ">
<polygon fill="white" stroke="black" points="1605,-324.5 1605,-354.5 1713,-354.5 1713,-324.5 1605,-324.5"/>
<text text-anchor="start" x="1613" y="-342.5" font-family="Helvetica,sans-Serif" font-size="10.00">gtest/internal/custom</text>
<text text-anchor="middle" x="1659" y="-331.5" font-family="Helvetica,sans-Serif" font-size="10.00">/gtest&#45;printers.h</text>
</a>
</g>
</g>
<!-- Node0&#45;&gt;Node33 -->
<g id="edge50" class="edge"><title>Node0&#45;&gt;Node33</title>
<path fill="none" stroke="midnightblue" d="M1046.72,-404.122C1190.86,-396.645 1405.58,-381.973 1591,-355 1592.28,-354.814 1593.57,-354.619 1594.86,-354.415"/>
<polygon fill="midnightblue" stroke="midnightblue" points="1595.66,-357.83 1604.92,-352.7 1594.48,-350.93 1595.66,-357.83"/>
</g>
<!-- Node6&#45;&gt;Node2 -->
<g id="edge17" class="edge"><title>Node6&#45;&gt;Node2</title>
<path fill="none" stroke="midnightblue" d="M911.991,-136.478C762.109,-133.021 311.427,-120.081 169,-87 166.329,-86.3797 163.6,-85.5769 160.903,-84.6675"/>
<polygon fill="midnightblue" stroke="midnightblue" points="162.022,-81.3482 151.431,-81.0424 159.52,-87.8858 162.022,-81.3482"/>
</g>
<!-- Node6&#45;&gt;Node3 -->
<g id="edge14" class="edge"><title>Node6&#45;&gt;Node3</title>
<path fill="none" stroke="midnightblue" d="M1010.06,-135.11C1123.23,-129.226 1399.71,-112.626 1489,-87 1490.67,-86.5196 1492.37,-85.9435 1494.05,-85.3019"/>
<polygon fill="midnightblue" stroke="midnightblue" points="1495.68,-88.4056 1503.38,-81.1207 1492.82,-82.0182 1495.68,-88.4056"/>
</g>
<!-- Node6&#45;&gt;Node4 -->
<g id="edge18" class="edge"><title>Node6&#45;&gt;Node4</title>
<path fill="none" stroke="midnightblue" d="M985.587,-123.295C998.095,-114.585 1012.09,-102.189 1019,-87 1024.71,-74.4605 1025.06,-68.3732 1019,-56 1012.48,-42.6839 999.904,-32.177 988.127,-24.6761"/>
<polygon fill="midnightblue" stroke="midnightblue" points="989.782,-21.5891 979.389,-19.5294 986.229,-27.6205 989.782,-21.5891"/>
</g>
<!-- Node6&#45;&gt;Node5 -->
<g id="edge19" class="edge"><title>Node6&#45;&gt;Node5</title>
<path fill="none" stroke="midnightblue" d="M1010.02,-135.573C1132.07,-130.408 1447.02,-114.731 1548,-87 1549.73,-86.5261 1551.47,-85.9549 1553.21,-85.3169"/>
<polygon fill="midnightblue" stroke="midnightblue" points="1555.06,-88.3289 1562.85,-81.1445 1552.28,-81.9049 1555.06,-88.3289"/>
</g>
<!-- Node7 -->
<g id="node8" class="node"><title>Node7</title>
<g id="a_node8"><a xlink:title=" ">
<polygon fill="white" stroke="#bfbfbf" points="178.5,-62 178.5,-81 227.5,-81 227.5,-62 178.5,-62"/>
<text text-anchor="middle" x="203" y="-69" font-family="Helvetica,sans-Serif" font-size="10.00">ctype.h</text>
</a>
</g>
</g>
<!-- Node6&#45;&gt;Node7 -->
<g id="edge7" class="edge"><title>Node6&#45;&gt;Node7</title>
<path fill="none" stroke="midnightblue" d="M911.681,-133.669C872.903,-130.682 817.514,-126.473 769,-123 532.62,-106.077 467.453,-142.259 237,-87 234.488,-86.3977 231.926,-85.6264 229.391,-84.7541"/>
<polygon fill="midnightblue" stroke="midnightblue" points="230.502,-81.4302 219.914,-81.0331 227.943,-87.9459 230.502,-81.4302"/>
</g>
<!-- Node8 -->
<g id="node9" class="node"><title>Node8</title>
<g id="a_node9"><a xlink:title=" ">
<polygon fill="white" stroke="#bfbfbf" points="1066.5,-62 1066.5,-81 1117.5,-81 1117.5,-62 1066.5,-62"/>
<text text-anchor="middle" x="1092" y="-69" font-family="Helvetica,sans-Serif" font-size="10.00">stddef.h</text>
</a>
</g>
</g>
<!-- Node6&#45;&gt;Node8 -->
<g id="edge8" class="edge"><title>Node6&#45;&gt;Node8</title>
<path fill="none" stroke="midnightblue" d="M989.425,-123.396C1012.11,-112.142 1043.63,-96.501 1065.72,-85.5375"/>
<polygon fill="midnightblue" stroke="midnightblue" points="1067.45,-88.5871 1074.86,-81.007 1064.34,-82.3165 1067.45,-88.5871"/>
</g>
<!-- Node9 -->
<g id="node10" class="node"><title>Node9</title>
<g id="a_node10"><a xlink:title=" ">
<polygon fill="white" stroke="#bfbfbf" points="1136,-62 1136,-81 1184,-81 1184,-62 1136,-62"/>
<text text-anchor="middle" x="1160" y="-69" font-family="Helvetica,sans-Serif" font-size="10.00">stdlib.h</text>
</a>
</g>
</g>
<!-- Node6&#45;&gt;Node9 -->
<g id="edge9" class="edge"><title>Node6&#45;&gt;Node9</title>
<path fill="none" stroke="midnightblue" d="M1010.18,-123.929C1043.23,-114.45 1087.59,-101.024 1126,-87 1127.66,-86.3948 1129.35,-85.7523 1131.05,-85.0875"/>
<polygon fill="midnightblue" stroke="midnightblue" points="1132.79,-88.1603 1140.72,-81.1404 1130.14,-81.6795 1132.79,-88.1603"/>
</g>
<!-- Node10 -->
<g id="node11" class="node"><title>Node10</title>
<g id="a_node11"><a xlink:title=" ">
<polygon fill="white" stroke="#bfbfbf" points="1202,-62 1202,-81 1248,-81 1248,-62 1202,-62"/>
<text text-anchor="middle" x="1225" y="-69" font-family="Helvetica,sans-Serif" font-size="10.00">stdio.h</text>
</a>
</g>
</g>
<!-- Node6&#45;&gt;Node10 -->
<g id="edge10" class="edge"><title>Node6&#45;&gt;Node10</title>
<path fill="none" stroke="midnightblue" d="M1010.25,-126.28C1015.23,-125.164 1020.22,-124.054 1025,-123 1099.57,-106.563 1120.47,-110.896 1193,-87 1194.87,-86.3845 1196.77,-85.6939 1198.68,-84.957"/>
<polygon fill="midnightblue" stroke="midnightblue" points="1200.15,-88.1348 1208,-81.0188 1197.42,-81.6866 1200.15,-88.1348"/>
</g>
<!-- Node11 -->
<g id="node12" class="node"><title>Node11</title>
<g id="a_node12"><a xlink:title=" ">
<polygon fill="white" stroke="#bfbfbf" points="1430.5,-62 1430.5,-81 1479.5,-81 1479.5,-62 1430.5,-62"/>
<text text-anchor="middle" x="1455" y="-69" font-family="Helvetica,sans-Serif" font-size="10.00">string.h</text>
</a>
</g>
</g>
<!-- Node6&#45;&gt;Node11 -->
<g id="edge11" class="edge"><title>Node6&#45;&gt;Node11</title>
<path fill="none" stroke="midnightblue" d="M1010.14,-125.678C1015.14,-124.682 1020.16,-123.765 1025,-123 1199.56,-95.4149 1249.63,-130.19 1421,-87 1423.36,-86.4045 1425.77,-85.6668 1428.16,-84.842"/>
<polygon fill="midnightblue" stroke="midnightblue" points="1429.68,-88.007 1437.72,-81.1033 1427.13,-81.4884 1429.68,-88.007"/>
</g>
<!-- Node12 -->
<g id="node13" class="node"><title>Node12</title>
<g id="a_node13"><a xlink:title=" ">
<polygon fill="white" stroke="#bfbfbf" points="1266,-62 1266,-81 1334,-81 1334,-62 1266,-62"/>
<text text-anchor="middle" x="1300" y="-69" font-family="Helvetica,sans-Serif" font-size="10.00">sys/types.h</text>
</a>
</g>
</g>
<!-- Node6&#45;&gt;Node12 -->
<g id="edge12" class="edge"><title>Node6&#45;&gt;Node12</title>
<path fill="none" stroke="midnightblue" d="M1010.2,-125.995C1015.19,-124.936 1020.19,-123.917 1025,-123 1127.5,-103.46 1155.64,-111.762 1257,-87 1260.39,-86.171 1263.9,-85.1941 1267.38,-84.1454"/>
<polygon fill="midnightblue" stroke="midnightblue" points="1268.55,-87.4471 1277.01,-81.0633 1266.41,-80.7808 1268.55,-87.4471"/>
</g>
<!-- Node13 -->
<g id="node14" class="node"><title>Node13</title>
<g id="a_node14"><a xlink:title=" ">
<polygon fill="white" stroke="#bfbfbf" points="1352,-62 1352,-81 1412,-81 1412,-62 1352,-62"/>
<text text-anchor="middle" x="1382" y="-69" font-family="Helvetica,sans-Serif" font-size="10.00">sys/stat.h</text>
</a>
</g>
</g>
<!-- Node6&#45;&gt;Node13 -->
<g id="edge13" class="edge"><title>Node6&#45;&gt;Node13</title>
<path fill="none" stroke="midnightblue" d="M1010.16,-125.789C1015.16,-124.77 1020.17,-123.818 1025,-123 1165.24,-99.2496 1204.65,-120.028 1343,-87 1345.99,-86.285 1349.07,-85.4062 1352.13,-84.4378"/>
<polygon fill="midnightblue" stroke="midnightblue" points="1353.35,-87.7185 1361.65,-81.1307 1351.05,-81.1061 1353.35,-87.7185"/>
</g>
<!-- Node14 -->
<g id="node15" class="node"><title>Node14</title>
<g id="a_node15"><a xlink:title=" ">
<polygon fill="white" stroke="#bfbfbf" points="246,-62 246,-81 302,-81 302,-62 246,-62"/>
<text text-anchor="middle" x="274" y="-69" font-family="Helvetica,sans-Serif" font-size="10.00">algorithm</text>
</a>
</g>
</g>
<!-- Node6&#45;&gt;Node14 -->
<g id="edge15" class="edge"><title>Node6&#45;&gt;Node14</title>
<path fill="none" stroke="midnightblue" d="M911.974,-133.787C761.88,-122.407 318.33,-88.6817 311,-87 308.163,-86.3492 305.256,-85.519 302.38,-84.5864"/>
<polygon fill="midnightblue" stroke="midnightblue" points="303.456,-81.2537 292.862,-81.1322 301.068,-87.8338 303.456,-81.2537"/>
</g>
<!-- Node15 -->
<g id="node16" class="node"><title>Node15</title>
<g id="a_node16"><a xlink:title=" ">
<polygon fill="white" stroke="#bfbfbf" points="320,-62 320,-81 374,-81 374,-62 320,-62"/>
<text text-anchor="middle" x="347" y="-69" font-family="Helvetica,sans-Serif" font-size="10.00">iostream</text>
</a>
</g>
</g>
<!-- Node6&#45;&gt;Node15 -->
<g id="edge16" class="edge"><title>Node6&#45;&gt;Node15</title>
<path fill="none" stroke="midnightblue" d="M911.81,-133.6C776.763,-122.838 408.562,-93.1207 383,-87 380.328,-86.3601 377.593,-85.5562 374.884,-84.6566"/>
<polygon fill="midnightblue" stroke="midnightblue" points="375.934,-81.3127 365.341,-81.1024 373.491,-87.8725 375.934,-81.3127"/>
</g>
<!-- Node16 -->
<g id="node17" class="node"><title>Node16</title>
<g id="a_node17"><a xlink:href="gtest-port-arch_8h.html" target="_top" xlink:title=" ">
<polygon fill="white" stroke="black" points="392,-56.5 392,-86.5 490,-86.5 490,-56.5 392,-56.5"/>
<text text-anchor="start" x="400" y="-74.5" font-family="Helvetica,sans-Serif" font-size="10.00">gtest/internal/gtest</text>
<text text-anchor="middle" x="441" y="-63.5" font-family="Helvetica,sans-Serif" font-size="10.00">&#45;port&#45;arch.h</text>
</a>
</g>
</g>
<!-- Node6&#45;&gt;Node16 -->
<g id="edge20" class="edge"><title>Node6&#45;&gt;Node16</title>
<path fill="none" stroke="midnightblue" d="M911.794,-134.331C828.832,-128.507 655.766,-114.291 500.465,-87.1095"/>
<polygon fill="midnightblue" stroke="midnightblue" points="500.72,-83.6002 490.262,-85.3004 499.498,-90.4927 500.72,-83.6002"/>
</g>
<!-- Node17 -->
<g id="node18" class="node"><title>Node17</title>
<g id="a_node18"><a xlink:href="custom_2gtest-port_8h.html" target="_top" xlink:title=" ">
<polygon fill="white" stroke="black" points="508,-56.5 508,-86.5 616,-86.5 616,-56.5 508,-56.5"/>
<text text-anchor="start" x="516" y="-74.5" font-family="Helvetica,sans-Serif" font-size="10.00">gtest/internal/custom</text>
<text text-anchor="middle" x="562" y="-63.5" font-family="Helvetica,sans-Serif" font-size="10.00">/gtest&#45;port.h</text>
</a>
</g>
</g>
<!-- Node6&#45;&gt;Node17 -->
<g id="edge21" class="edge"><title>Node6&#45;&gt;Node17</title>
<path fill="none" stroke="midnightblue" d="M911.832,-131.318C848.178,-123.047 733.619,-107.256 626.271,-87.1579"/>
<polygon fill="midnightblue" stroke="midnightblue" points="626.716,-83.6801 616.24,-85.2631 625.417,-90.5585 626.716,-83.6801"/>
</g>
<!-- Node18 -->
<g id="node19" class="node"><title>Node18</title>
<g id="a_node19"><a xlink:title=" ">
<polygon fill="white" stroke="#bfbfbf" points="634.5,-62 634.5,-81 685.5,-81 685.5,-62 634.5,-62"/>
<text text-anchor="middle" x="660" y="-69" font-family="Helvetica,sans-Serif" font-size="10.00">unistd.h</text>
</a>
</g>
</g>
<!-- Node6&#45;&gt;Node18 -->
<g id="edge22" class="edge"><title>Node6&#45;&gt;Node18</title>
<path fill="none" stroke="midnightblue" d="M911.742,-131.237C857.797,-123.668 769.091,-109.125 695,-87 692.713,-86.3172 690.372,-85.5367 688.037,-84.6999"/>
<polygon fill="midnightblue" stroke="midnightblue" points="689.223,-81.4057 678.634,-81.0491 686.689,-87.9312 689.223,-81.4057"/>
</g>
<!-- Node19 -->
<g id="node20" class="node"><title>Node19</title>
<g id="a_node20"><a xlink:title=" ">
<polygon fill="white" stroke="#bfbfbf" points="704,-62 704,-81 758,-81 758,-62 704,-62"/>
<text text-anchor="middle" x="731" y="-69" font-family="Helvetica,sans-Serif" font-size="10.00">strings.h</text>
</a>
</g>
</g>
<!-- Node6&#45;&gt;Node19 -->
<g id="edge23" class="edge"><title>Node6&#45;&gt;Node19</title>
<path fill="none" stroke="midnightblue" d="M911.862,-126.551C872.338,-117.305 815.583,-103.034 767,-87 764.869,-86.2965 762.682,-85.5306 760.491,-84.7304"/>
<polygon fill="midnightblue" stroke="midnightblue" points="761.604,-81.4085 751.014,-81.0901 759.094,-87.943 761.604,-81.4085"/>
</g>
<!-- Node20 -->
<g id="node21" class="node"><title>Node20</title>
<g id="a_node21"><a xlink:title=" ">
<polygon fill="white" stroke="#bfbfbf" points="776.5,-62 776.5,-81 825.5,-81 825.5,-62 776.5,-62"/>
<text text-anchor="middle" x="801" y="-69" font-family="Helvetica,sans-Serif" font-size="10.00">regex.h</text>
</a>
</g>
</g>
<!-- Node6&#45;&gt;Node20 -->
<g id="edge24" class="edge"><title>Node6&#45;&gt;Node20</title>
<path fill="none" stroke="midnightblue" d="M925.342,-123.45C900.065,-113.431 865.38,-99.5643 835,-87 833.41,-86.3424 831.78,-85.6635 830.136,-84.975"/>
<polygon fill="midnightblue" stroke="midnightblue" points="831.319,-81.6754 820.746,-81.0075 828.595,-88.1235 831.319,-81.6754"/>
</g>
<!-- Node21 -->
<g id="node22" class="node"><title>Node21</title>
<g id="a_node22"><a xlink:title=" ">
<polygon fill="white" stroke="#bfbfbf" points="844,-62 844,-81 894,-81 894,-62 844,-62"/>
<text text-anchor="middle" x="869" y="-69" font-family="Helvetica,sans-Serif" font-size="10.00">typeinfo</text>
</a>
</g>
</g>
<!-- Node6&#45;&gt;Node21 -->
<g id="edge25" class="edge"><title>Node6&#45;&gt;Node21</title>
<path fill="none" stroke="midnightblue" d="M941.037,-123.396C925.752,-112.597 904.748,-97.7564 889.363,-86.8872"/>
<polygon fill="midnightblue" stroke="midnightblue" points="891.228,-83.9188 881.041,-81.007 887.188,-89.6359 891.228,-83.9188"/>
</g>
<!-- Node22 -->
<g id="node23" class="node"><title>Node22</title>
<g id="a_node23"><a xlink:href="gtest-tuple_8h.html" target="_top" xlink:title=" ">
<polygon fill="white" stroke="black" points="912,-56.5 912,-86.5 1010,-86.5 1010,-56.5 912,-56.5"/>
<text text-anchor="start" x="920" y="-74.5" font-family="Helvetica,sans-Serif" font-size="10.00">gtest/internal/gtest</text>
<text text-anchor="middle" x="961" y="-63.5" font-family="Helvetica,sans-Serif" font-size="10.00">&#45;tuple.h</text>
</a>
</g>
</g>
<!-- Node6&#45;&gt;Node22 -->
<g id="edge26" class="edge"><title>Node6&#45;&gt;Node22</title>
<path fill="none" stroke="midnightblue" d="M961,-123.396C961,-115.645 961,-105.812 961,-96.8601"/>
<polygon fill="midnightblue" stroke="midnightblue" points="964.5,-96.5765 961,-86.5765 957.5,-96.5765 964.5,-96.5765"/>
</g>
<!-- Node22&#45;&gt;Node4 -->
<g id="edge27" class="edge"><title>Node22&#45;&gt;Node4</title>
<path fill="none" stroke="midnightblue" d="M961,-56.3993C961,-48.4664 961,-38.458 961,-29.8583"/>
<polygon fill="midnightblue" stroke="midnightblue" points="964.5,-29.6577 961,-19.6578 957.5,-29.6578 964.5,-29.6577"/>
</g>
<!-- Node23&#45;&gt;Node3 -->
<g id="edge37" class="edge"><title>Node23&#45;&gt;Node3</title>
<path fill="none" stroke="midnightblue" d="M1097.4,-332.763C1140.73,-326.288 1204.52,-313.189 1255,-288 1362.99,-234.109 1466.24,-128.841 1503.44,-88.636"/>
<polygon fill="midnightblue" stroke="midnightblue" points="1506.18,-90.825 1510.36,-81.0862 1501.02,-86.0977 1506.18,-90.825"/>
</g>
<!-- Node23&#45;&gt;Node5 -->
<g id="edge38" class="edge"><title>Node23&#45;&gt;Node5</title>
<path fill="none" stroke="midnightblue" d="M1097.01,-338.053C1193.47,-336.297 1403.63,-327.866 1462,-288 1498.21,-263.272 1551.43,-138.345 1570.7,-90.8558"/>
<polygon fill="midnightblue" stroke="midnightblue" points="1573.98,-92.0703 1574.47,-81.4865 1567.49,-89.459 1573.98,-92.0703"/>
</g>
<!-- Node23&#45;&gt;Node6 -->
<g id="edge29" class="edge"><title>Node23&#45;&gt;Node6</title>
<path fill="none" stroke="midnightblue" d="M1007.11,-324.353C987.097,-315.996 963.586,-303.906 946,-288 919.935,-264.425 913.711,-254.776 904,-221 900.193,-207.759 898.346,-202.564 904,-190 909.341,-178.132 919.003,-167.924 928.872,-159.855"/>
<polygon fill="midnightblue" stroke="midnightblue" points="931.274,-162.425 937.121,-153.59 927.041,-156.851 931.274,-162.425"/>
</g>
<!-- Node23&#45;&gt;Node7 -->
<g id="edge30" class="edge"><title>Node23&#45;&gt;Node7</title>
<path fill="none" stroke="midnightblue" d="M998.591,-333.178C943.017,-326.328 850.526,-312.311 774,-288 607.411,-235.077 583.184,-177.182 417,-123 339.434,-97.7108 314.934,-111.13 237,-87 234.858,-86.3369 232.668,-85.5847 230.482,-84.7801"/>
<polygon fill="midnightblue" stroke="midnightblue" points="231.678,-81.4888 221.093,-81.0309 229.082,-87.9897 231.678,-81.4888"/>
</g>
<!-- Node23&#45;&gt;Node11 -->
<g id="edge32" class="edge"><title>Node23&#45;&gt;Node11</title>
<path fill="none" stroke="midnightblue" d="M1023.41,-324.295C1010.91,-315.585 996.915,-303.189 990,-288 984.291,-275.46 983.513,-269.155 990,-257 1015.19,-209.803 1140.17,-142.468 1190,-123 1286.78,-85.1884 1321.11,-115.601 1421,-87 1423.29,-86.3442 1425.63,-85.5737 1427.96,-84.7355"/>
<polygon fill="midnightblue" stroke="midnightblue" points="1429.3,-87.9697 1437.3,-81.0295 1426.72,-81.4628 1429.3,-87.9697"/>
</g>
<!-- Node24 -->
<g id="node25" class="node"><title>Node24</title>
<g id="a_node25"><a xlink:title=" ">
<polygon fill="white" stroke="#bfbfbf" points="1323.5,-263 1323.5,-282 1366.5,-282 1366.5,-263 1323.5,-263"/>
<text text-anchor="middle" x="1345" y="-270" font-family="Helvetica,sans-Serif" font-size="10.00">float.h</text>
</a>
</g>
</g>
<!-- Node23&#45;&gt;Node24 -->
<g id="edge31" class="edge"><title>Node23&#45;&gt;Node24</title>
<path fill="none" stroke="midnightblue" d="M1097.26,-331.852C1150.24,-324.036 1236.63,-309.362 1309,-288 1311.43,-287.282 1313.93,-286.462 1316.41,-285.586"/>
<polygon fill="midnightblue" stroke="midnightblue" points="1317.7,-288.84 1325.81,-282.02 1315.22,-282.295 1317.7,-288.84"/>
</g>
<!-- Node25 -->
<g id="node26" class="node"><title>Node25</title>
<g id="a_node26"><a xlink:title=" ">
<polygon fill="white" stroke="#bfbfbf" points="1385,-263 1385,-282 1435,-282 1435,-263 1385,-263"/>
<text text-anchor="middle" x="1410" y="-270" font-family="Helvetica,sans-Serif" font-size="10.00">iomanip</text>
</a>
</g>
</g>
<!-- Node23&#45;&gt;Node25 -->
<g id="edge33" class="edge"><title>Node23&#45;&gt;Node25</title>
<path fill="none" stroke="midnightblue" d="M1097.17,-334.792C1162.04,-329.028 1279.32,-315.585 1376,-288 1378.29,-287.346 1380.63,-286.577 1382.96,-285.74"/>
<polygon fill="midnightblue" stroke="midnightblue" points="1384.3,-288.975 1392.31,-282.036 1381.72,-282.467 1384.3,-288.975"/>
</g>
<!-- Node26 -->
<g id="node27" class="node"><title>Node26</title>
<g id="a_node27"><a xlink:title=" ">
<polygon fill="white" stroke="#bfbfbf" points="1227,-196 1227,-215 1267,-215 1267,-196 1227,-196"/>
<text text-anchor="middle" x="1247" y="-203" font-family="Helvetica,sans-Serif" font-size="10.00">limits</text>
</a>
</g>
</g>
<!-- Node23&#45;&gt;Node26 -->
<g id="edge34" class="edge"><title>Node23&#45;&gt;Node26</title>
<path fill="none" stroke="midnightblue" d="M1097.04,-335.817C1197.97,-329.795 1421.38,-313.682 1444,-288 1493.12,-232.216 1343.95,-213.8 1277.36,-208.452"/>
<polygon fill="midnightblue" stroke="midnightblue" points="1277.29,-204.937 1267.05,-207.676 1276.76,-211.917 1277.29,-204.937"/>
</g>
<!-- Node27 -->
<g id="node28" class="node"><title>Node27</title>
<g id="a_node28"><a xlink:title=" ">
<polygon fill="white" stroke="#bfbfbf" points="783.5,-263 783.5,-282 818.5,-282 818.5,-263 783.5,-263"/>
<text text-anchor="middle" x="801" y="-270" font-family="Helvetica,sans-Serif" font-size="10.00">map</text>
</a>
</g>
</g>
<!-- Node23&#45;&gt;Node27 -->
<g id="edge35" class="edge"><title>Node23&#45;&gt;Node27</title>
<path fill="none" stroke="midnightblue" d="M998.842,-331.092C953.519,-323.363 884.864,-309.354 828,-288 826.795,-287.548 825.577,-287.051 824.359,-286.523"/>
<polygon fill="midnightblue" stroke="midnightblue" points="825.76,-283.312 815.239,-282.062 822.684,-289.6 825.76,-283.312"/>
</g>
<!-- Node28 -->
<g id="node29" class="node"><title>Node28</title>
<g id="a_node29"><a xlink:title=" ">
<polygon fill="white" stroke="#bfbfbf" points="837,-263 837,-282 867,-282 867,-263 837,-263"/>
<text text-anchor="middle" x="852" y="-270" font-family="Helvetica,sans-Serif" font-size="10.00">set</text>
</a>
</g>
</g>
<!-- Node23&#45;&gt;Node28 -->
<g id="edge36" class="edge"><title>Node23&#45;&gt;Node28</title>
<path fill="none" stroke="midnightblue" d="M998.654,-325.952C965.003,-316.822 919.698,-303.396 881,-288 879.418,-287.371 877.805,-286.687 876.19,-285.972"/>
<polygon fill="midnightblue" stroke="midnightblue" points="877.664,-282.797 867.129,-281.672 874.663,-289.121 877.664,-282.797"/>
</g>
<!-- Node29 -->
<g id="node30" class="node"><title>Node29</title>
<g id="a_node30"><a xlink:href="gtest-message_8h.html" target="_top" xlink:title=" ">
<polygon fill="white" stroke="black" points="1115,-263 1115,-282 1229,-282 1229,-263 1115,-263"/>
<text text-anchor="middle" x="1172" y="-270" font-family="Helvetica,sans-Serif" font-size="10.00">gtest/gtest&#45;message.h</text>
</a>
</g>
</g>
<!-- Node23&#45;&gt;Node29 -->
<g id="edge39" class="edge"><title>Node23&#45;&gt;Node29</title>
<path fill="none" stroke="midnightblue" d="M1074.91,-324.396C1096.28,-313.193 1125.95,-297.641 1146.85,-286.685"/>
<polygon fill="midnightblue" stroke="midnightblue" points="1148.54,-289.75 1155.77,-282.007 1145.29,-283.55 1148.54,-289.75"/>
</g>
<!-- Node30 -->
<g id="node31" class="node"><title>Node30</title>
<g id="a_node31"><a xlink:href="gtest-filepath_8h.html" target="_top" xlink:title=" ">
<polygon fill="white" stroke="black" points="999,-257.5 999,-287.5 1097,-287.5 1097,-257.5 999,-257.5"/>
<text text-anchor="start" x="1007" y="-275.5" font-family="Helvetica,sans-Serif" font-size="10.00">gtest/internal/gtest</text>
<text text-anchor="middle" x="1048" y="-264.5" font-family="Helvetica,sans-Serif" font-size="10.00">&#45;filepath.h</text>
</a>
</g>
</g>
<!-- Node23&#45;&gt;Node30 -->
<g id="edge42" class="edge"><title>Node23&#45;&gt;Node30</title>
<path fill="none" stroke="midnightblue" d="M1048,-324.396C1048,-316.645 1048,-306.812 1048,-297.86"/>
<polygon fill="midnightblue" stroke="midnightblue" points="1051.5,-297.576 1048,-287.577 1044.5,-297.577 1051.5,-297.576"/>
</g>
<!-- Node31 -->
<g id="node32" class="node"><title>Node31</title>
<g id="a_node32"><a xlink:href="gtest-string_8h.html" target="_top" xlink:title=" ">
<polygon fill="white" stroke="black" points="1111,-190.5 1111,-220.5 1209,-220.5 1209,-190.5 1111,-190.5"/>
<text text-anchor="start" x="1119" y="-208.5" font-family="Helvetica,sans-Serif" font-size="10.00">gtest/internal/gtest</text>
<text text-anchor="middle" x="1160" y="-197.5" font-family="Helvetica,sans-Serif" font-size="10.00">&#45;string.h</text>
</a>
</g>
</g>
<!-- Node23&#45;&gt;Node31 -->
<g id="edge47" class="edge"><title>Node23&#45;&gt;Node31</title>
<path fill="none" stroke="midnightblue" d="M1097.37,-332.218C1147.76,-324.672 1220.94,-310.187 1238,-288 1246.4,-277.078 1244.58,-269.104 1238,-257 1230.74,-243.643 1218.25,-233.276 1205.37,-225.508"/>
<polygon fill="midnightblue" stroke="midnightblue" points="1206.89,-222.348 1196.45,-220.541 1203.48,-228.464 1206.89,-222.348"/>
</g>
<!-- Node32 -->
<g id="node33" class="node"><title>Node32</title>
<g id="a_node33"><a xlink:href="gtest-type-util_8h.html" target="_top" xlink:title=" ">
<polygon fill="white" stroke="black" points="913,-190.5 913,-220.5 1011,-220.5 1011,-190.5 913,-190.5"/>
<text text-anchor="start" x="921" y="-208.5" font-family="Helvetica,sans-Serif" font-size="10.00">gtest/internal/gtest</text>
<text text-anchor="middle" x="962" y="-197.5" font-family="Helvetica,sans-Serif" font-size="10.00">&#45;type&#45;util.h</text>
</a>
</g>
</g>
<!-- Node23&#45;&gt;Node32 -->
<g id="edge48" class="edge"><title>Node23&#45;&gt;Node32</title>
<path fill="none" stroke="midnightblue" d="M1002.33,-324.457C984.972,-316.646 966.992,-304.972 957,-288 946.816,-270.701 949.428,-247.602 953.797,-230.413"/>
<polygon fill="midnightblue" stroke="midnightblue" points="957.225,-231.158 956.645,-220.579 950.501,-229.211 957.225,-231.158"/>
</g>
<!-- Node29&#45;&gt;Node6 -->
<g id="edge41" class="edge"><title>Node29&#45;&gt;Node6</title>
<path fill="none" stroke="midnightblue" d="M1158.16,-262.839C1124.65,-241.878 1038.53,-188.003 991.977,-158.879"/>
<polygon fill="midnightblue" stroke="midnightblue" points="993.827,-155.908 983.493,-153.572 990.115,-161.842 993.827,-155.908"/>
</g>
<!-- Node29&#45;&gt;Node26 -->
<g id="edge40" class="edge"><title>Node29&#45;&gt;Node26</title>
<path fill="none" stroke="midnightblue" d="M1182.11,-262.734C1194.15,-252.305 1214.45,-234.709 1229.15,-221.973"/>
<polygon fill="midnightblue" stroke="midnightblue" points="1231.78,-224.322 1237.05,-215.127 1227.2,-219.032 1231.78,-224.322"/>
</g>
<!-- Node30&#45;&gt;Node31 -->
<g id="edge43" class="edge"><title>Node30&#45;&gt;Node31</title>
<path fill="none" stroke="midnightblue" d="M1072.3,-257.396C1088.3,-248.112 1109.44,-235.841 1126.96,-225.674"/>
<polygon fill="midnightblue" stroke="midnightblue" points="1128.85,-228.623 1135.75,-220.577 1125.34,-222.569 1128.85,-228.623"/>
</g>
<!-- Node31&#45;&gt;Node3 -->
<g id="edge45" class="edge"><title>Node31&#45;&gt;Node3</title>
<path fill="none" stroke="midnightblue" d="M1179.13,-190.161C1207.48,-169.161 1259.61,-131.593 1281,-123 1368.05,-88.0206 1399.87,-116.291 1489,-87 1490.62,-86.4684 1492.26,-85.8599 1493.89,-85.2003"/>
<polygon fill="midnightblue" stroke="midnightblue" points="1495.36,-88.3773 1503,-81.0397 1492.45,-82.0097 1495.36,-88.3773"/>
</g>
<!-- Node31&#45;&gt;Node6 -->
<g id="edge46" class="edge"><title>Node31&#45;&gt;Node6</title>
<path fill="none" stroke="midnightblue" d="M1116.82,-190.396C1086.57,-180.515 1045.97,-167.252 1013.79,-156.743"/>
<polygon fill="midnightblue" stroke="midnightblue" points="1014.69,-153.354 1004.1,-153.577 1012.51,-160.008 1014.69,-153.354"/>
</g>
<!-- Node31&#45;&gt;Node11 -->
<g id="edge44" class="edge"><title>Node31&#45;&gt;Node11</title>
<path fill="none" stroke="midnightblue" d="M1167.57,-190.4C1178.37,-171.768 1200.02,-139.394 1228,-123 1303.29,-78.8937 1337.48,-112.266 1421,-87 1423.15,-86.3508 1425.34,-85.6088 1427.53,-84.8113"/>
<polygon fill="midnightblue" stroke="midnightblue" points="1428.92,-88.0234 1436.92,-81.0763 1426.34,-81.5187 1428.92,-88.0234"/>
</g>
<!-- Node32&#45;&gt;Node6 -->
<g id="edge49" class="edge"><title>Node32&#45;&gt;Node6</title>
<path fill="none" stroke="midnightblue" d="M961.783,-190.396C961.664,-182.645 961.512,-172.812 961.375,-163.86"/>
<polygon fill="midnightblue" stroke="midnightblue" points="964.87,-163.521 961.217,-153.577 957.871,-163.629 964.87,-163.521"/>
</g>
</g>
</svg>
