<?xml version="1.0" encoding="UTF-8" standalone="no"?>
<!DOCTYPE svg PUBLIC "-//W3C//DTD SVG 1.1//EN"
 "http://www.w3.org/Graphics/SVG/1.1/DTD/svg11.dtd">
<!-- Generated by graphviz version 2.38.0 (20140413.2041)
 -->
<!-- Title: C:/dev/Igor/src/Igor/vs/packages/Microsoft.googletest.v140.windesktop.msvcstl.static.rt&#45;dyn.1.8.1/build/native/include/gtest/gtest&#45;printers.h Pages: 1 -->
<svg width="1159pt" height="529pt"
 viewBox="0.00 0.00 1158.50 529.00" xmlns="http://www.w3.org/2000/svg" xmlns:xlink="http://www.w3.org/1999/xlink">
<g id="graph0" class="graph" transform="scale(1 1) rotate(0) translate(4 525)">
<title>C:/dev/Igor/src/Igor/vs/packages/Microsoft.googletest.v140.windesktop.msvcstl.static.rt&#45;dyn.1.8.1/build/native/include/gtest/gtest&#45;printers.h</title>
<polygon fill="white" stroke="none" points="-4,4 -4,-525 1154.5,-525 1154.5,4 -4,4"/>
<!-- Node1 -->
<g id="node1" class="node"><title>Node1</title>
<polygon fill="#bfbfbf" stroke="black" points="329,-479.5 329,-520.5 640,-520.5 640,-479.5 329,-479.5"/>
<text text-anchor="start" x="337" y="-508.5" font-family="Helvetica,sans-Serif" font-size="10.00">C:/dev/Igor/src/Igor</text>
<text text-anchor="start" x="337" y="-497.5" font-family="Helvetica,sans-Serif" font-size="10.00">/vs/packages/Microsoft.googletest.v140.windesktop.msvcstl.static.rt</text>
<text text-anchor="middle" x="484.5" y="-486.5" font-family="Helvetica,sans-Serif" font-size="10.00">&#45;dyn.1.8.1/build/native/include/gtest/gtest&#45;printers.h</text>
</g>
<!-- Node2 -->
<g id="node2" class="node"><title>Node2</title>
<g id="a_node2"><a xlink:href="gtest_8h.html" target="_top" xlink:title="C:/dev/Igor/src/Igor\l/vs/packages/Microsoft.googletest.v140.windesktop.msvcstl.static.rt\l&#45;dyn.1.8.1/build/native/include/gtest/gtest.h">
<polygon fill="white" stroke="black" points="329,-145.5 329,-186.5 640,-186.5 640,-145.5 329,-145.5"/>
<text text-anchor="start" x="337" y="-174.5" font-family="Helvetica,sans-Serif" font-size="10.00">C:/dev/Igor/src/Igor</text>
<text text-anchor="start" x="337" y="-163.5" font-family="Helvetica,sans-Serif" font-size="10.00">/vs/packages/Microsoft.googletest.v140.windesktop.msvcstl.static.rt</text>
<text text-anchor="middle" x="484.5" y="-152.5" font-family="Helvetica,sans-Serif" font-size="10.00">&#45;dyn.1.8.1/build/native/include/gtest/gtest.h</text>
</a>
</g>
</g>
<!-- Node1&#45;&gt;Node2 -->
<g id="edge1" class="edge"><title>Node1&#45;&gt;Node2</title>
<path fill="none" stroke="midnightblue" d="M438.137,-473.565C427.446,-465.313 417.468,-455.101 411.5,-443 368.248,-355.309 368.248,-310.691 411.5,-223 418.99,-207.815 432.793,-195.604 446.397,-186.508"/>
<polygon fill="midnightblue" stroke="midnightblue" points="436.231,-476.506 446.397,-479.492 440.313,-470.818 436.231,-476.506"/>
</g>
<!-- Node12 -->
<g id="node12" class="node"><title>Node12</title>
<g id="a_node12"><a xlink:href="gtest-param-util_8h.html" target="_top" xlink:title="C:/dev/Igor/src/Igor\l/vs/packages/Microsoft.googletest.v140.windesktop.msvcstl.static.rt\l&#45;dyn.1.8.1/build/native/include/gtest/internal\l/gtest&#45;param&#45;util.h">
<polygon fill="white" stroke="black" points="421,-390.5 421,-442.5 732,-442.5 732,-390.5 421,-390.5"/>
<text text-anchor="start" x="429" y="-430.5" font-family="Helvetica,sans-Serif" font-size="10.00">C:/dev/Igor/src/Igor</text>
<text text-anchor="start" x="429" y="-419.5" font-family="Helvetica,sans-Serif" font-size="10.00">/vs/packages/Microsoft.googletest.v140.windesktop.msvcstl.static.rt</text>
<text text-anchor="start" x="429" y="-408.5" font-family="Helvetica,sans-Serif" font-size="10.00">&#45;dyn.1.8.1/build/native/include/gtest/internal</text>
<text text-anchor="middle" x="576.5" y="-397.5" font-family="Helvetica,sans-Serif" font-size="10.00">/gtest&#45;param&#45;util.h</text>
</a>
</g>
</g>
<!-- Node1&#45;&gt;Node12 -->
<g id="edge12" class="edge"><title>Node1&#45;&gt;Node12</title>
<path fill="none" stroke="midnightblue" d="M514.386,-472.525C525.233,-462.916 537.448,-452.095 548.158,-442.607"/>
<polygon fill="midnightblue" stroke="midnightblue" points="511.935,-470.02 506.771,-479.271 516.577,-475.26 511.935,-470.02"/>
</g>
<!-- Node3 -->
<g id="node3" class="node"><title>Node3</title>
<g id="a_node3"><a xlink:href="gtest-spi_8h.html" target="_top" xlink:title="C:/dev/Igor/src/Igor\l/vs/packages/Microsoft.googletest.v140.windesktop.msvcstl.static.rt\l&#45;dyn.1.8.1/build/native/include/gtest/gtest&#45;spi.h">
<polygon fill="white" stroke="black" points="0,-67.5 0,-108.5 311,-108.5 311,-67.5 0,-67.5"/>
<text text-anchor="start" x="8" y="-96.5" font-family="Helvetica,sans-Serif" font-size="10.00">C:/dev/Igor/src/Igor</text>
<text text-anchor="start" x="8" y="-85.5" font-family="Helvetica,sans-Serif" font-size="10.00">/vs/packages/Microsoft.googletest.v140.windesktop.msvcstl.static.rt</text>
<text text-anchor="middle" x="155.5" y="-74.5" font-family="Helvetica,sans-Serif" font-size="10.00">&#45;dyn.1.8.1/build/native/include/gtest/gtest&#45;spi.h</text>
</a>
</g>
</g>
<!-- Node2&#45;&gt;Node3 -->
<g id="edge2" class="edge"><title>Node2&#45;&gt;Node3</title>
<path fill="none" stroke="midnightblue" d="M389.83,-143.131C342.522,-132.203 285.752,-119.089 239.939,-108.506"/>
<polygon fill="midnightblue" stroke="midnightblue" points="389.243,-146.587 399.774,-145.428 390.819,-139.767 389.243,-146.587"/>
</g>
<!-- Node4 -->
<g id="node4" class="node"><title>Node4</title>
<g id="a_node4"><a xlink:href="gtest__pred__impl_8h.html" target="_top" xlink:title="C:/dev/Igor/src/Igor\l/vs/packages/Microsoft.googletest.v140.windesktop.msvcstl.static.rt\l&#45;dyn.1.8.1/build/native/include/gtest/gtest_pred_impl.h">
<polygon fill="white" stroke="black" points="329,-67.5 329,-108.5 640,-108.5 640,-67.5 329,-67.5"/>
<text text-anchor="start" x="337" y="-96.5" font-family="Helvetica,sans-Serif" font-size="10.00">C:/dev/Igor/src/Igor</text>
<text text-anchor="start" x="337" y="-85.5" font-family="Helvetica,sans-Serif" font-size="10.00">/vs/packages/Microsoft.googletest.v140.windesktop.msvcstl.static.rt</text>
<text text-anchor="middle" x="484.5" y="-74.5" font-family="Helvetica,sans-Serif" font-size="10.00">&#45;dyn.1.8.1/build/native/include/gtest/gtest_pred_impl.h</text>
</a>
</g>
</g>
<!-- Node2&#45;&gt;Node4 -->
<g id="edge3" class="edge"><title>Node2&#45;&gt;Node4</title>
<path fill="none" stroke="midnightblue" d="M477.895,-135.297C477.576,-126.301 477.783,-116.653 478.518,-108.506"/>
<polygon fill="midnightblue" stroke="midnightblue" points="474.411,-135.659 478.512,-145.428 481.398,-135.234 474.411,-135.659"/>
</g>
<!-- Node5 -->
<g id="node5" class="node"><title>Node5</title>
<g id="a_node5"><a xlink:href="pch_8h.html" target="_top" xlink:title="C:/dev/Igor/src/Tests\l/IgorAuxMath/pch.h">
<polygon fill="white" stroke="black" points="658.5,-73 658.5,-103 764.5,-103 764.5,-73 658.5,-73"/>
<text text-anchor="start" x="666.5" y="-91" font-family="Helvetica,sans-Serif" font-size="10.00">C:/dev/Igor/src/Tests</text>
<text text-anchor="middle" x="711.5" y="-80" font-family="Helvetica,sans-Serif" font-size="10.00">/IgorAuxMath/pch.h</text>
</a>
</g>
</g>
<!-- Node2&#45;&gt;Node5 -->
<g id="edge5" class="edge"><title>Node2&#45;&gt;Node5</title>
<path fill="none" stroke="midnightblue" d="M552.911,-142.096C590.809,-129.407 636.717,-114.038 669.366,-103.106"/>
<polygon fill="midnightblue" stroke="midnightblue" points="551.33,-138.934 542.958,-145.428 553.552,-145.572 551.33,-138.934"/>
</g>
<!-- Node4&#45;&gt;Node2 -->
<g id="edge4" class="edge"><title>Node4&#45;&gt;Node2</title>
<path fill="none" stroke="midnightblue" d="M491.102,-118.63C491.424,-127.622 491.22,-137.272 490.488,-145.428"/>
<polygon fill="midnightblue" stroke="midnightblue" points="494.587,-118.273 490.482,-108.506 487.6,-118.701 494.587,-118.273"/>
</g>
<!-- Node6 -->
<g id="node6" class="node"><title>Node6</title>
<g id="a_node6"><a xlink:href="_matrix_8cpp.html" target="_top" xlink:title="C:/dev/Igor/src/Tests\l/IgorAuxMath/Matrix.cpp">
<polygon fill="white" stroke="black" points="291,-0.5 291,-30.5 414,-30.5 414,-0.5 291,-0.5"/>
<text text-anchor="start" x="299" y="-18.5" font-family="Helvetica,sans-Serif" font-size="10.00">C:/dev/Igor/src/Tests</text>
<text text-anchor="middle" x="352.5" y="-7.5" font-family="Helvetica,sans-Serif" font-size="10.00">/IgorAuxMath/Matrix.cpp</text>
</a>
</g>
</g>
<!-- Node5&#45;&gt;Node6 -->
<g id="edge6" class="edge"><title>Node5&#45;&gt;Node6</title>
<path fill="none" stroke="midnightblue" d="M660.793,-70.1889C656.654,-69.0352 652.519,-67.954 648.5,-67 549.965,-43.614 523.135,-49.1362 423.5,-31 420.406,-30.4367 417.239,-29.8452 414.042,-29.2363"/>
<polygon fill="midnightblue" stroke="midnightblue" points="659.822,-73.5517 670.402,-72.9869 661.779,-66.8308 659.822,-73.5517"/>
</g>
<!-- Node7 -->
<g id="node7" class="node"><title>Node7</title>
<g id="a_node7"><a xlink:href="pch_8cpp.html" target="_top" xlink:title="C:/dev/Igor/src/Tests\l/IgorAuxMath/pch.cpp">
<polygon fill="white" stroke="black" points="432.5,-0.5 432.5,-30.5 544.5,-30.5 544.5,-0.5 432.5,-0.5"/>
<text text-anchor="start" x="440.5" y="-18.5" font-family="Helvetica,sans-Serif" font-size="10.00">C:/dev/Igor/src/Tests</text>
<text text-anchor="middle" x="488.5" y="-7.5" font-family="Helvetica,sans-Serif" font-size="10.00">/IgorAuxMath/pch.cpp</text>
</a>
</g>
</g>
<!-- Node5&#45;&gt;Node7 -->
<g id="edge7" class="edge"><title>Node5&#45;&gt;Node7</title>
<path fill="none" stroke="midnightblue" d="M657.423,-69.8264C654.405,-68.8698 651.415,-67.9226 648.5,-67 609.483,-54.6493 565.099,-40.6442 532.992,-30.5209"/>
<polygon fill="midnightblue" stroke="midnightblue" points="656.512,-73.2092 667.103,-72.8954 658.628,-66.5366 656.512,-73.2092"/>
</g>
<!-- Node8 -->
<g id="node8" class="node"><title>Node8</title>
<g id="a_node8"><a xlink:href="_quaternion_8cpp.html" target="_top" xlink:title="C:/dev/Igor/src/Tests\l/IgorAuxMath/Quaternion.cpp">
<polygon fill="white" stroke="black" points="563,-0.5 563,-30.5 706,-30.5 706,-0.5 563,-0.5"/>
<text text-anchor="start" x="571" y="-18.5" font-family="Helvetica,sans-Serif" font-size="10.00">C:/dev/Igor/src/Tests</text>
<text text-anchor="middle" x="634.5" y="-7.5" font-family="Helvetica,sans-Serif" font-size="10.00">/IgorAuxMath/Quaternion.cpp</text>
</a>
</g>
</g>
<!-- Node5&#45;&gt;Node8 -->
<g id="edge8" class="edge"><title>Node5&#45;&gt;Node8</title>
<path fill="none" stroke="midnightblue" d="M688.525,-65.964C676.008,-54.5043 660.862,-40.637 649.796,-30.5049"/>
<polygon fill="midnightblue" stroke="midnightblue" points="686.179,-68.5618 695.918,-72.7333 690.906,-63.3989 686.179,-68.5618"/>
</g>
<!-- Node9 -->
<g id="node9" class="node"><title>Node9</title>
<g id="a_node9"><a xlink:href="_vector2_8cpp.html" target="_top" xlink:title="C:/dev/Igor/src/Tests\l/IgorAuxMath/Vector2.cpp">
<polygon fill="white" stroke="black" points="724.5,-0.5 724.5,-30.5 854.5,-30.5 854.5,-0.5 724.5,-0.5"/>
<text text-anchor="start" x="732.5" y="-18.5" font-family="Helvetica,sans-Serif" font-size="10.00">C:/dev/Igor/src/Tests</text>
<text text-anchor="middle" x="789.5" y="-7.5" font-family="Helvetica,sans-Serif" font-size="10.00">/IgorAuxMath/Vector2.cpp</text>
</a>
</g>
</g>
<!-- Node5&#45;&gt;Node9 -->
<g id="edge9" class="edge"><title>Node5&#45;&gt;Node9</title>
<path fill="none" stroke="midnightblue" d="M734.774,-65.964C747.453,-54.5043 762.795,-40.637 774.005,-30.5049"/>
<polygon fill="midnightblue" stroke="midnightblue" points="732.356,-63.4313 727.284,-72.7333 737.05,-68.6244 732.356,-63.4313"/>
</g>
<!-- Node10 -->
<g id="node10" class="node"><title>Node10</title>
<g id="a_node10"><a xlink:href="_vector3_8cpp.html" target="_top" xlink:title="C:/dev/Igor/src/Tests\l/IgorAuxMath/Vector3.cpp">
<polygon fill="white" stroke="black" points="872.5,-0.5 872.5,-30.5 1002.5,-30.5 1002.5,-0.5 872.5,-0.5"/>
<text text-anchor="start" x="880.5" y="-18.5" font-family="Helvetica,sans-Serif" font-size="10.00">C:/dev/Igor/src/Tests</text>
<text text-anchor="middle" x="937.5" y="-7.5" font-family="Helvetica,sans-Serif" font-size="10.00">/IgorAuxMath/Vector3.cpp</text>
</a>
</g>
</g>
<!-- Node5&#45;&gt;Node10 -->
<g id="edge10" class="edge"><title>Node5&#45;&gt;Node10</title>
<path fill="none" stroke="midnightblue" d="M766.45,-69.8585C805.043,-57.8196 856.037,-41.9123 892.278,-30.6069"/>
<polygon fill="midnightblue" stroke="midnightblue" points="764.925,-66.668 756.421,-72.9872 767.009,-73.3504 764.925,-66.668"/>
</g>
<!-- Node11 -->
<g id="node11" class="node"><title>Node11</title>
<g id="a_node11"><a xlink:href="_vector4_8cpp.html" target="_top" xlink:title="C:/dev/Igor/src/Tests\l/IgorAuxMath/Vector4.cpp">
<polygon fill="white" stroke="black" points="1020.5,-0.5 1020.5,-30.5 1150.5,-30.5 1150.5,-0.5 1020.5,-0.5"/>
<text text-anchor="start" x="1028.5" y="-18.5" font-family="Helvetica,sans-Serif" font-size="10.00">C:/dev/Igor/src/Tests</text>
<text text-anchor="middle" x="1085.5" y="-7.5" font-family="Helvetica,sans-Serif" font-size="10.00">/IgorAuxMath/Vector4.cpp</text>
</a>
</g>
</g>
<!-- Node5&#45;&gt;Node11 -->
<g id="edge11" class="edge"><title>Node5&#45;&gt;Node11</title>
<path fill="none" stroke="midnightblue" d="M774.831,-75.3484C835.569,-64.1336 929.839,-46.6219 1011.5,-31 1014.33,-30.4588 1017.22,-29.9036 1020.14,-29.3407"/>
<polygon fill="midnightblue" stroke="midnightblue" points="773.834,-71.9732 764.635,-77.23 775.104,-78.857 773.834,-71.9732"/>
</g>
<!-- Node13 -->
<g id="node13" class="node"><title>Node13</title>
<g id="a_node13"><a xlink:href="gtest-param-test_8h.html" target="_top" xlink:title="C:/dev/Igor/src/Igor\l/vs/packages/Microsoft.googletest.v140.windesktop.msvcstl.static.rt\l&#45;dyn.1.8.1/build/native/include/gtest/gtest&#45;param&#45;test.h">
<polygon fill="white" stroke="black" points="421,-223.5 421,-264.5 732,-264.5 732,-223.5 421,-223.5"/>
<text text-anchor="start" x="429" y="-252.5" font-family="Helvetica,sans-Serif" font-size="10.00">C:/dev/Igor/src/Igor</text>
<text text-anchor="start" x="429" y="-241.5" font-family="Helvetica,sans-Serif" font-size="10.00">/vs/packages/Microsoft.googletest.v140.windesktop.msvcstl.static.rt</text>
<text text-anchor="middle" x="576.5" y="-230.5" font-family="Helvetica,sans-Serif" font-size="10.00">&#45;dyn.1.8.1/build/native/include/gtest/gtest&#45;param&#45;test.h</text>
</a>
</g>
</g>
<!-- Node12&#45;&gt;Node13 -->
<g id="edge13" class="edge"><title>Node12&#45;&gt;Node13</title>
<path fill="none" stroke="midnightblue" d="M540.177,-382.722C532.962,-374.155 526.412,-364.384 522.5,-354 514.196,-331.957 513.684,-322.844 522.5,-301 528.212,-286.847 539.403,-274.278 550.123,-264.651"/>
<polygon fill="midnightblue" stroke="midnightblue" points="537.644,-385.139 546.933,-390.234 542.848,-380.458 537.644,-385.139"/>
</g>
<!-- Node14 -->
<g id="node14" class="node"><title>Node14</title>
<g id="a_node14"><a xlink:href="gtest-param-util-generated_8h.html" target="_top" xlink:title="C:/dev/Igor/src/Igor\l/vs/packages/Microsoft.googletest.v140.windesktop.msvcstl.static.rt\l&#45;dyn.1.8.1/build/native/include/gtest/internal\l/gtest&#45;param&#45;util&#45;generated.h">
<polygon fill="white" stroke="black" points="532,-301.5 532,-353.5 843,-353.5 843,-301.5 532,-301.5"/>
<text text-anchor="start" x="540" y="-341.5" font-family="Helvetica,sans-Serif" font-size="10.00">C:/dev/Igor/src/Igor</text>
<text text-anchor="start" x="540" y="-330.5" font-family="Helvetica,sans-Serif" font-size="10.00">/vs/packages/Microsoft.googletest.v140.windesktop.msvcstl.static.rt</text>
<text text-anchor="start" x="540" y="-319.5" font-family="Helvetica,sans-Serif" font-size="10.00">&#45;dyn.1.8.1/build/native/include/gtest/internal</text>
<text text-anchor="middle" x="687.5" y="-308.5" font-family="Helvetica,sans-Serif" font-size="10.00">/gtest&#45;param&#45;util&#45;generated.h</text>
</a>
</g>
</g>
<!-- Node12&#45;&gt;Node14 -->
<g id="edge15" class="edge"><title>Node12&#45;&gt;Node14</title>
<path fill="none" stroke="midnightblue" d="M616.774,-383.934C629.504,-373.956 643.393,-363.07 655.466,-353.607"/>
<polygon fill="midnightblue" stroke="midnightblue" points="614.317,-381.412 608.606,-390.336 618.635,-386.922 614.317,-381.412"/>
</g>
<!-- Node13&#45;&gt;Node2 -->
<g id="edge14" class="edge"><title>Node13&#45;&gt;Node2</title>
<path fill="none" stroke="midnightblue" d="M544.758,-216.779C532.731,-206.843 519.261,-195.716 508.112,-186.506"/>
<polygon fill="midnightblue" stroke="midnightblue" points="542.869,-219.758 552.808,-223.428 547.327,-214.361 542.869,-219.758"/>
</g>
<!-- Node14&#45;&gt;Node13 -->
<g id="edge16" class="edge"><title>Node14&#45;&gt;Node13</title>
<path fill="none" stroke="midnightblue" d="M645.193,-295.437C631.155,-285.13 615.923,-273.945 603.377,-264.734"/>
<polygon fill="midnightblue" stroke="midnightblue" points="643.159,-298.285 653.291,-301.382 647.301,-292.643 643.159,-298.285"/>
</g>
</g>
</svg>
