<?xml version="1.0" encoding="UTF-8" standalone="no"?>
<!DOCTYPE svg PUBLIC "-//W3C//DTD SVG 1.1//EN"
 "http://www.w3.org/Graphics/SVG/1.1/DTD/svg11.dtd">
<!-- Generated by graphviz version 2.38.0 (20140413.2041)
 -->
<!-- Title: C:/dev/Igor/src/Igor/vs/packages/Microsoft.googletest.v140.windesktop.msvcstl.static.rt&#45;dyn.1.8.1/build/native/include/gtest/internal/gtest&#45;string.h Pages: 1 -->
<svg width="1566pt" height="251pt"
 viewBox="0.00 0.00 1565.50 251.00" xmlns="http://www.w3.org/2000/svg" xmlns:xlink="http://www.w3.org/1999/xlink">
<g id="graph0" class="graph" transform="scale(1 1) rotate(0) translate(4 247)">
<title>C:/dev/Igor/src/Igor/vs/packages/Microsoft.googletest.v140.windesktop.msvcstl.static.rt&#45;dyn.1.8.1/build/native/include/gtest/internal/gtest&#45;string.h</title>
<polygon fill="white" stroke="none" points="-4,4 -4,-247 1561.5,-247 1561.5,4 -4,4"/>
<!-- Node1 -->
<g id="node1" class="node"><title>Node1</title>
<polygon fill="#bfbfbf" stroke="black" points="0,-190.5 0,-242.5 311,-242.5 311,-190.5 0,-190.5"/>
<text text-anchor="start" x="8" y="-230.5" font-family="Helvetica,sans-Serif" font-size="10.00">C:/dev/Igor/src/Igor</text>
<text text-anchor="start" x="8" y="-219.5" font-family="Helvetica,sans-Serif" font-size="10.00">/vs/packages/Microsoft.googletest.v140.windesktop.msvcstl.static.rt</text>
<text text-anchor="start" x="8" y="-208.5" font-family="Helvetica,sans-Serif" font-size="10.00">&#45;dyn.1.8.1/build/native/include/gtest/internal</text>
<text text-anchor="middle" x="155.5" y="-197.5" font-family="Helvetica,sans-Serif" font-size="10.00">/gtest&#45;string.h</text>
</g>
<!-- Node2 -->
<g id="node2" class="node"><title>Node2</title>
<polygon fill="white" stroke="#bfbfbf" points="68,-62 68,-81 117,-81 117,-62 68,-62"/>
<text text-anchor="middle" x="92.5" y="-69" font-family="Helvetica,sans-Serif" font-size="10.00">string.h</text>
</g>
<!-- Node1&#45;&gt;Node2 -->
<g id="edge1" class="edge"><title>Node1&#45;&gt;Node2</title>
<path fill="none" stroke="midnightblue" d="M144.382,-190.264C131.771,-161.639 111.523,-115.678 100.418,-90.4736"/>
<polygon fill="midnightblue" stroke="midnightblue" points="103.503,-88.7937 96.2683,-81.0535 97.0971,-91.6159 103.503,-88.7937"/>
</g>
<!-- Node3 -->
<g id="node3" class="node"><title>Node3</title>
<polygon fill="white" stroke="#bfbfbf" points="135,-62 135,-81 176,-81 176,-62 135,-62"/>
<text text-anchor="middle" x="155.5" y="-69" font-family="Helvetica,sans-Serif" font-size="10.00">string</text>
</g>
<!-- Node1&#45;&gt;Node3 -->
<g id="edge2" class="edge"><title>Node1&#45;&gt;Node3</title>
<path fill="none" stroke="midnightblue" d="M155.5,-190.264C155.5,-161.895 155.5,-116.498 155.5,-91.1537"/>
<polygon fill="midnightblue" stroke="midnightblue" points="159,-91.0535 155.5,-81.0535 152,-91.0535 159,-91.0535"/>
</g>
<!-- Node4 -->
<g id="node4" class="node"><title>Node4</title>
<g id="a_node4"><a xlink:href="gtest-port_8h.html" target="_top" xlink:title="gtest/internal/gtest\l&#45;port.h">
<polygon fill="white" stroke="black" points="745.5,-123.5 745.5,-153.5 843.5,-153.5 843.5,-123.5 745.5,-123.5"/>
<text text-anchor="start" x="753.5" y="-141.5" font-family="Helvetica,sans-Serif" font-size="10.00">gtest/internal/gtest</text>
<text text-anchor="middle" x="794.5" y="-130.5" font-family="Helvetica,sans-Serif" font-size="10.00">&#45;port.h</text>
</a>
</g>
</g>
<!-- Node1&#45;&gt;Node4 -->
<g id="edge3" class="edge"><title>Node1&#45;&gt;Node4</title>
<path fill="none" stroke="midnightblue" d="M311.408,-196.957C448.113,-180.698 639.537,-157.931 735.192,-146.554"/>
<polygon fill="midnightblue" stroke="midnightblue" points="735.743,-150.013 745.26,-145.356 734.916,-143.062 735.743,-150.013"/>
</g>
<!-- Node4&#45;&gt;Node2 -->
<g id="edge8" class="edge"><title>Node4&#45;&gt;Node2</title>
<path fill="none" stroke="midnightblue" d="M745.157,-135.934C611.217,-131.342 243.028,-116.343 125.5,-87 123.144,-86.4116 120.743,-85.6684 118.366,-84.8308"/>
<polygon fill="midnightblue" stroke="midnightblue" points="119.483,-81.5075 108.9,-81.0109 116.864,-87.9989 119.483,-81.5075"/>
</g>
<!-- Node4&#45;&gt;Node3 -->
<g id="edge11" class="edge"><title>Node4&#45;&gt;Node3</title>
<path fill="none" stroke="midnightblue" d="M745.489,-135.749C620.219,-130.904 290.79,-115.741 185.5,-87 183.575,-86.4744 181.623,-85.8272 179.688,-85.1006"/>
<polygon fill="midnightblue" stroke="midnightblue" points="180.904,-81.812 170.34,-81.0024 178.093,-88.223 180.904,-81.812"/>
</g>
<!-- Node5 -->
<g id="node5" class="node"><title>Node5</title>
<polygon fill="white" stroke="#bfbfbf" points="1145,-62 1145,-81 1194,-81 1194,-62 1145,-62"/>
<text text-anchor="middle" x="1169.5" y="-69" font-family="Helvetica,sans-Serif" font-size="10.00">ctype.h</text>
</g>
<!-- Node4&#45;&gt;Node5 -->
<g id="edge4" class="edge"><title>Node4&#45;&gt;Node5</title>
<path fill="none" stroke="midnightblue" d="M843.605,-134.192C910.617,-128.787 1033.98,-115.65 1135.5,-87 1137.79,-86.3529 1140.14,-85.5886 1142.47,-84.7546"/>
<polygon fill="midnightblue" stroke="midnightblue" points="1143.8,-87.9901 1151.81,-81.0561 1141.23,-81.4811 1143.8,-87.9901"/>
</g>
<!-- Node6 -->
<g id="node6" class="node"><title>Node6</title>
<polygon fill="white" stroke="#bfbfbf" points="1212,-62 1212,-81 1263,-81 1263,-62 1212,-62"/>
<text text-anchor="middle" x="1237.5" y="-69" font-family="Helvetica,sans-Serif" font-size="10.00">stddef.h</text>
</g>
<!-- Node4&#45;&gt;Node6 -->
<g id="edge5" class="edge"><title>Node4&#45;&gt;Node6</title>
<path fill="none" stroke="midnightblue" d="M843.51,-135.87C921.129,-132.308 1076.55,-121.176 1203.5,-87 1205.8,-86.3807 1208.15,-85.636 1210.48,-84.8154"/>
<polygon fill="midnightblue" stroke="midnightblue" points="1211.81,-88.0552 1219.84,-81.1411 1209.25,-81.5399 1211.81,-88.0552"/>
</g>
<!-- Node7 -->
<g id="node7" class="node"><title>Node7</title>
<polygon fill="white" stroke="#bfbfbf" points="1281.5,-62 1281.5,-81 1329.5,-81 1329.5,-62 1281.5,-62"/>
<text text-anchor="middle" x="1305.5" y="-69" font-family="Helvetica,sans-Serif" font-size="10.00">stdlib.h</text>
</g>
<!-- Node4&#45;&gt;Node7 -->
<g id="edge6" class="edge"><title>Node4&#45;&gt;Node7</title>
<path fill="none" stroke="midnightblue" d="M843.568,-137.266C931.179,-135.762 1119.67,-127.596 1272.5,-87 1274.8,-86.39 1277.14,-85.642 1279.46,-84.8104"/>
<polygon fill="midnightblue" stroke="midnightblue" points="1280.78,-88.0535 1288.73,-81.0598 1278.15,-81.564 1280.78,-88.0535"/>
</g>
<!-- Node8 -->
<g id="node8" class="node"><title>Node8</title>
<polygon fill="white" stroke="#bfbfbf" points="1347.5,-62 1347.5,-81 1393.5,-81 1393.5,-62 1347.5,-62"/>
<text text-anchor="middle" x="1370.5" y="-69" font-family="Helvetica,sans-Serif" font-size="10.00">stdio.h</text>
</g>
<!-- Node4&#45;&gt;Node8 -->
<g id="edge7" class="edge"><title>Node4&#45;&gt;Node8</title>
<path fill="none" stroke="midnightblue" d="M843.843,-138.343C940.504,-138.817 1160.86,-134.068 1338.5,-87 1340.66,-86.4288 1342.85,-85.725 1345.02,-84.9382"/>
<polygon fill="midnightblue" stroke="midnightblue" points="1346.37,-88.1668 1354.28,-81.1102 1343.7,-81.6984 1346.37,-88.1668"/>
</g>
<!-- Node9 -->
<g id="node9" class="node"><title>Node9</title>
<polygon fill="white" stroke="#bfbfbf" points="1411.5,-62 1411.5,-81 1479.5,-81 1479.5,-62 1411.5,-62"/>
<text text-anchor="middle" x="1445.5" y="-69" font-family="Helvetica,sans-Serif" font-size="10.00">sys/types.h</text>
</g>
<!-- Node4&#45;&gt;Node9 -->
<g id="edge9" class="edge"><title>Node4&#45;&gt;Node9</title>
<path fill="none" stroke="midnightblue" d="M843.541,-137.431C947.637,-136.413 1197.91,-129.336 1402.5,-87 1406.19,-86.2367 1410,-85.2527 1413.76,-84.1571"/>
<polygon fill="midnightblue" stroke="midnightblue" points="1415,-87.4363 1423.47,-81.0713 1412.88,-80.7653 1415,-87.4363"/>
</g>
<!-- Node10 -->
<g id="node10" class="node"><title>Node10</title>
<polygon fill="white" stroke="#bfbfbf" points="1497.5,-62 1497.5,-81 1557.5,-81 1557.5,-62 1497.5,-62"/>
<text text-anchor="middle" x="1527.5" y="-69" font-family="Helvetica,sans-Serif" font-size="10.00">sys/stat.h</text>
</g>
<!-- Node4&#45;&gt;Node10 -->
<g id="edge10" class="edge"><title>Node4&#45;&gt;Node10</title>
<path fill="none" stroke="midnightblue" d="M843.614,-135.733C980.642,-130.517 1365.15,-113.847 1488.5,-87 1491.58,-86.3303 1494.74,-85.4682 1497.86,-84.4987"/>
<polygon fill="midnightblue" stroke="midnightblue" points="1499.28,-87.7134 1507.58,-81.1397 1496.99,-81.0972 1499.28,-87.7134"/>
</g>
<!-- Node11 -->
<g id="node11" class="node"><title>Node11</title>
<polygon fill="white" stroke="#bfbfbf" points="194.5,-62 194.5,-81 250.5,-81 250.5,-62 194.5,-62"/>
<text text-anchor="middle" x="222.5" y="-69" font-family="Helvetica,sans-Serif" font-size="10.00">algorithm</text>
</g>
<!-- Node4&#45;&gt;Node11 -->
<g id="edge12" class="edge"><title>Node4&#45;&gt;Node11</title>
<path fill="none" stroke="midnightblue" d="M745.439,-137.414C650.349,-136.255 434.887,-128.77 259.5,-87 256.669,-86.3257 253.766,-85.4798 250.891,-84.5373"/>
<polygon fill="midnightblue" stroke="midnightblue" points="251.971,-81.2055 241.377,-81.069 249.573,-87.7822 251.971,-81.2055"/>
</g>
<!-- Node12 -->
<g id="node12" class="node"><title>Node12</title>
<polygon fill="white" stroke="#bfbfbf" points="268.5,-62 268.5,-81 322.5,-81 322.5,-62 268.5,-62"/>
<text text-anchor="middle" x="295.5" y="-69" font-family="Helvetica,sans-Serif" font-size="10.00">iostream</text>
</g>
<!-- Node4&#45;&gt;Node12 -->
<g id="edge13" class="edge"><title>Node4&#45;&gt;Node12</title>
<path fill="none" stroke="midnightblue" d="M745.402,-136.543C660.01,-133.91 479.142,-124.035 331.5,-87 328.835,-86.3314 326.105,-85.5079 323.399,-84.5958"/>
<polygon fill="midnightblue" stroke="midnightblue" points="324.453,-81.2531 313.861,-81.0225 321.997,-87.8082 324.453,-81.2531"/>
</g>
<!-- Node13 -->
<g id="node13" class="node"><title>Node13</title>
<polygon fill="white" stroke="#bfbfbf" points="340.5,-62 340.5,-81 392.5,-81 392.5,-62 340.5,-62"/>
<text text-anchor="middle" x="366.5" y="-69" font-family="Helvetica,sans-Serif" font-size="10.00">sstream</text>
</g>
<!-- Node4&#45;&gt;Node13 -->
<g id="edge14" class="edge"><title>Node4&#45;&gt;Node13</title>
<path fill="none" stroke="midnightblue" d="M745.483,-134.562C671.258,-129.344 526.299,-116.139 406.5,-87 403.441,-86.2559 400.291,-85.3576 397.166,-84.377"/>
<polygon fill="midnightblue" stroke="midnightblue" points="398.004,-80.9649 387.409,-81.053 395.746,-87.5909 398.004,-80.9649"/>
</g>
<!-- Node14 -->
<g id="node14" class="node"><title>Node14</title>
<polygon fill="white" stroke="#bfbfbf" points="438.5,-0.5 438.5,-19.5 478.5,-19.5 478.5,-0.5 438.5,-0.5"/>
<text text-anchor="middle" x="458.5" y="-7.5" font-family="Helvetica,sans-Serif" font-size="10.00">utility</text>
</g>
<!-- Node4&#45;&gt;Node14 -->
<g id="edge15" class="edge"><title>Node4&#45;&gt;Node14</title>
<path fill="none" stroke="midnightblue" d="M745.345,-138.071C657.367,-137.928 478.517,-131.96 439.5,-87 425.342,-70.6853 436.065,-45.3604 446.246,-28.4855"/>
<polygon fill="midnightblue" stroke="midnightblue" points="449.469,-29.9498 451.985,-19.6582 443.6,-26.1341 449.469,-29.9498"/>
</g>
<!-- Node15 -->
<g id="node15" class="node"><title>Node15</title>
<polygon fill="white" stroke="#bfbfbf" points="564.5,-62 564.5,-81 606.5,-81 606.5,-62 564.5,-62"/>
<text text-anchor="middle" x="585.5" y="-69" font-family="Helvetica,sans-Serif" font-size="10.00">vector</text>
</g>
<!-- Node4&#45;&gt;Node15 -->
<g id="edge16" class="edge"><title>Node4&#45;&gt;Node15</title>
<path fill="none" stroke="midnightblue" d="M745.129,-126.051C708.755,-117.023 658.37,-103.264 615.5,-87 614.08,-86.4614 612.636,-85.8808 611.188,-85.2724"/>
<polygon fill="midnightblue" stroke="midnightblue" points="612.33,-81.9474 601.777,-81.0069 609.44,-88.3231 612.33,-81.9474"/>
</g>
<!-- Node16 -->
<g id="node16" class="node"><title>Node16</title>
<g id="a_node16"><a xlink:href="gtest-port-arch_8h.html" target="_top" xlink:title="gtest/internal/gtest\l&#45;port&#45;arch.h">
<polygon fill="white" stroke="black" points="624.5,-56.5 624.5,-86.5 722.5,-86.5 722.5,-56.5 624.5,-56.5"/>
<text text-anchor="start" x="632.5" y="-74.5" font-family="Helvetica,sans-Serif" font-size="10.00">gtest/internal/gtest</text>
<text text-anchor="middle" x="673.5" y="-63.5" font-family="Helvetica,sans-Serif" font-size="10.00">&#45;port&#45;arch.h</text>
</a>
</g>
</g>
<!-- Node4&#45;&gt;Node16 -->
<g id="edge17" class="edge"><title>Node4&#45;&gt;Node16</title>
<path fill="none" stroke="midnightblue" d="M768.245,-123.396C750.803,-114.026 727.7,-101.615 708.674,-91.395"/>
<polygon fill="midnightblue" stroke="midnightblue" points="710.17,-88.2256 699.704,-86.5765 706.857,-94.3922 710.17,-88.2256"/>
</g>
<!-- Node17 -->
<g id="node17" class="node"><title>Node17</title>
<g id="a_node17"><a xlink:href="custom_2gtest-port_8h.html" target="_top" xlink:title="gtest/internal/custom\l/gtest&#45;port.h">
<polygon fill="white" stroke="black" points="740.5,-56.5 740.5,-86.5 848.5,-86.5 848.5,-56.5 740.5,-56.5"/>
<text text-anchor="start" x="748.5" y="-74.5" font-family="Helvetica,sans-Serif" font-size="10.00">gtest/internal/custom</text>
<text text-anchor="middle" x="794.5" y="-63.5" font-family="Helvetica,sans-Serif" font-size="10.00">/gtest&#45;port.h</text>
</a>
</g>
</g>
<!-- Node4&#45;&gt;Node17 -->
<g id="edge18" class="edge"><title>Node4&#45;&gt;Node17</title>
<path fill="none" stroke="midnightblue" d="M794.5,-123.396C794.5,-115.645 794.5,-105.812 794.5,-96.8601"/>
<polygon fill="midnightblue" stroke="midnightblue" points="798,-96.5765 794.5,-86.5765 791,-96.5765 798,-96.5765"/>
</g>
<!-- Node18 -->
<g id="node18" class="node"><title>Node18</title>
<polygon fill="white" stroke="#bfbfbf" points="867,-62 867,-81 918,-81 918,-62 867,-62"/>
<text text-anchor="middle" x="892.5" y="-69" font-family="Helvetica,sans-Serif" font-size="10.00">unistd.h</text>
</g>
<!-- Node4&#45;&gt;Node18 -->
<g id="edge19" class="edge"><title>Node4&#45;&gt;Node18</title>
<path fill="none" stroke="midnightblue" d="M815.765,-123.396C832.199,-112.496 854.84,-97.4787 871.266,-86.5835"/>
<polygon fill="midnightblue" stroke="midnightblue" points="873.275,-89.4512 879.674,-81.007 869.406,-83.6177 873.275,-89.4512"/>
</g>
<!-- Node19 -->
<g id="node19" class="node"><title>Node19</title>
<polygon fill="white" stroke="#bfbfbf" points="936.5,-62 936.5,-81 990.5,-81 990.5,-62 936.5,-62"/>
<text text-anchor="middle" x="963.5" y="-69" font-family="Helvetica,sans-Serif" font-size="10.00">strings.h</text>
</g>
<!-- Node4&#45;&gt;Node19 -->
<g id="edge20" class="edge"><title>Node4&#45;&gt;Node19</title>
<path fill="none" stroke="midnightblue" d="M832.127,-123.442C858.803,-113.42 895.413,-99.5522 927.5,-87 929.335,-86.282 931.221,-85.5388 933.122,-84.7855"/>
<polygon fill="midnightblue" stroke="midnightblue" points="934.6,-87.9643 942.588,-81.005 932.003,-81.4636 934.6,-87.9643"/>
</g>
<!-- Node20 -->
<g id="node20" class="node"><title>Node20</title>
<polygon fill="white" stroke="#bfbfbf" points="1009,-62 1009,-81 1058,-81 1058,-62 1009,-62"/>
<text text-anchor="middle" x="1033.5" y="-69" font-family="Helvetica,sans-Serif" font-size="10.00">regex.h</text>
</g>
<!-- Node4&#45;&gt;Node20 -->
<g id="edge21" class="edge"><title>Node4&#45;&gt;Node20</title>
<path fill="none" stroke="midnightblue" d="M843.593,-127.742C885.523,-118.856 947.176,-104.475 999.5,-87 1001.42,-86.3597 1003.38,-85.6574 1005.34,-84.9181"/>
<polygon fill="midnightblue" stroke="midnightblue" points="1007.03,-88.0097 1015,-81.0286 1004.42,-81.516 1007.03,-88.0097"/>
</g>
<!-- Node21 -->
<g id="node21" class="node"><title>Node21</title>
<polygon fill="white" stroke="#bfbfbf" points="1076.5,-62 1076.5,-81 1126.5,-81 1126.5,-62 1076.5,-62"/>
<text text-anchor="middle" x="1101.5" y="-69" font-family="Helvetica,sans-Serif" font-size="10.00">typeinfo</text>
</g>
<!-- Node4&#45;&gt;Node21 -->
<g id="edge22" class="edge"><title>Node4&#45;&gt;Node21</title>
<path fill="none" stroke="midnightblue" d="M843.598,-131.733C898.851,-124.483 990.898,-110.111 1067.5,-87 1069.65,-86.3524 1071.84,-85.6115 1074.03,-84.8149"/>
<polygon fill="midnightblue" stroke="midnightblue" points="1075.42,-88.0273 1083.42,-81.0815 1072.84,-81.5221 1075.42,-88.0273"/>
</g>
<!-- Node22 -->
<g id="node22" class="node"><title>Node22</title>
<g id="a_node22"><a xlink:href="gtest-tuple_8h.html" target="_top" xlink:title="gtest/internal/gtest\l&#45;tuple.h">
<polygon fill="white" stroke="black" points="448.5,-56.5 448.5,-86.5 546.5,-86.5 546.5,-56.5 448.5,-56.5"/>
<text text-anchor="start" x="456.5" y="-74.5" font-family="Helvetica,sans-Serif" font-size="10.00">gtest/internal/gtest</text>
<text text-anchor="middle" x="497.5" y="-63.5" font-family="Helvetica,sans-Serif" font-size="10.00">&#45;tuple.h</text>
</a>
</g>
</g>
<!-- Node4&#45;&gt;Node22 -->
<g id="edge23" class="edge"><title>Node4&#45;&gt;Node22</title>
<path fill="none" stroke="midnightblue" d="M745.407,-127.676C699.184,-118.303 627.773,-103.506 556.562,-87.1993"/>
<polygon fill="midnightblue" stroke="midnightblue" points="557.047,-83.7197 546.517,-84.8888 555.478,-90.5416 557.047,-83.7197"/>
</g>
<!-- Node22&#45;&gt;Node14 -->
<g id="edge24" class="edge"><title>Node22&#45;&gt;Node14</title>
<path fill="none" stroke="midnightblue" d="M488.258,-56.3993C482.707,-47.9315 475.607,-37.0991 469.734,-28.1393"/>
<polygon fill="midnightblue" stroke="midnightblue" points="472.584,-26.1026 464.175,-19.6578 466.73,-29.94 472.584,-26.1026"/>
</g>
</g>
</svg>
