<?xml version="1.0" encoding="UTF-8" standalone="no"?>
<!DOCTYPE svg PUBLIC "-//W3C//DTD SVG 1.1//EN"
 "http://www.w3.org/Graphics/SVG/1.1/DTD/svg11.dtd">
<!-- Generated by graphviz version 2.38.0 (20140413.2041)
 -->
<!-- Title: C:/dev/Igor/src/Igor/vs/packages/Microsoft.googletest.v140.windesktop.msvcstl.static.rt&#45;dyn.1.8.1/build/native/include/gtest/gtest_pred_impl.h Pages: 1 -->
<svg width="868pt" height="273pt"
 viewBox="0.00 0.00 867.50 273.00" xmlns="http://www.w3.org/2000/svg" xmlns:xlink="http://www.w3.org/1999/xlink">
<g id="graph0" class="graph" transform="scale(1 1) rotate(0) translate(4 269)">
<title>C:/dev/Igor/src/Igor/vs/packages/Microsoft.googletest.v140.windesktop.msvcstl.static.rt&#45;dyn.1.8.1/build/native/include/gtest/gtest_pred_impl.h</title>
<polygon fill="white" stroke="none" points="-4,4 -4,-269 863.5,-269 863.5,4 -4,4"/>
<!-- Node1 -->
<g id="node1" class="node"><title>Node1</title>
<polygon fill="#bfbfbf" stroke="black" points="152,-223.5 152,-264.5 463,-264.5 463,-223.5 152,-223.5"/>
<text text-anchor="start" x="160" y="-252.5" font-family="Helvetica,sans-Serif" font-size="10.00">C:/dev/Igor/src/Igor</text>
<text text-anchor="start" x="160" y="-241.5" font-family="Helvetica,sans-Serif" font-size="10.00">/vs/packages/Microsoft.googletest.v140.windesktop.msvcstl.static.rt</text>
<text text-anchor="middle" x="307.5" y="-230.5" font-family="Helvetica,sans-Serif" font-size="10.00">&#45;dyn.1.8.1/build/native/include/gtest/gtest_pred_impl.h</text>
</g>
<!-- Node2 -->
<g id="node2" class="node"><title>Node2</title>
<g id="a_node2"><a xlink:href="gtest_8h.html" target="_top" xlink:title="C:/dev/Igor/src/Igor\l/vs/packages/Microsoft.googletest.v140.windesktop.msvcstl.static.rt\l&#45;dyn.1.8.1/build/native/include/gtest/gtest.h">
<polygon fill="white" stroke="black" points="152,-145.5 152,-186.5 463,-186.5 463,-145.5 152,-145.5"/>
<text text-anchor="start" x="160" y="-174.5" font-family="Helvetica,sans-Serif" font-size="10.00">C:/dev/Igor/src/Igor</text>
<text text-anchor="start" x="160" y="-163.5" font-family="Helvetica,sans-Serif" font-size="10.00">/vs/packages/Microsoft.googletest.v140.windesktop.msvcstl.static.rt</text>
<text text-anchor="middle" x="307.5" y="-152.5" font-family="Helvetica,sans-Serif" font-size="10.00">&#45;dyn.1.8.1/build/native/include/gtest/gtest.h</text>
</a>
</g>
</g>
<!-- Node1&#45;&gt;Node2 -->
<g id="edge1" class="edge"><title>Node1&#45;&gt;Node2</title>
<path fill="none" stroke="midnightblue" d="M300.895,-213.297C300.576,-204.301 300.783,-194.653 301.518,-186.506"/>
<polygon fill="midnightblue" stroke="midnightblue" points="297.411,-213.659 301.512,-223.428 304.398,-213.234 297.411,-213.659"/>
</g>
<!-- Node2&#45;&gt;Node1 -->
<g id="edge3" class="edge"><title>Node2&#45;&gt;Node1</title>
<path fill="none" stroke="midnightblue" d="M314.102,-196.63C314.424,-205.622 314.22,-215.272 313.488,-223.428"/>
<polygon fill="midnightblue" stroke="midnightblue" points="317.587,-196.273 313.482,-186.506 310.6,-196.701 317.587,-196.273"/>
</g>
<!-- Node3 -->
<g id="node3" class="node"><title>Node3</title>
<g id="a_node3"><a xlink:href="gtest-spi_8h.html" target="_top" xlink:title="C:/dev/Igor/src/Igor\l/vs/packages/Microsoft.googletest.v140.windesktop.msvcstl.static.rt\l&#45;dyn.1.8.1/build/native/include/gtest/gtest&#45;spi.h">
<polygon fill="white" stroke="black" points="39,-67.5 39,-108.5 350,-108.5 350,-67.5 39,-67.5"/>
<text text-anchor="start" x="47" y="-96.5" font-family="Helvetica,sans-Serif" font-size="10.00">C:/dev/Igor/src/Igor</text>
<text text-anchor="start" x="47" y="-85.5" font-family="Helvetica,sans-Serif" font-size="10.00">/vs/packages/Microsoft.googletest.v140.windesktop.msvcstl.static.rt</text>
<text text-anchor="middle" x="194.5" y="-74.5" font-family="Helvetica,sans-Serif" font-size="10.00">&#45;dyn.1.8.1/build/native/include/gtest/gtest&#45;spi.h</text>
</a>
</g>
</g>
<!-- Node2&#45;&gt;Node3 -->
<g id="edge2" class="edge"><title>Node2&#45;&gt;Node3</title>
<path fill="none" stroke="midnightblue" d="M269.787,-139.635C254.697,-129.487 237.591,-117.982 223.502,-108.506"/>
<polygon fill="midnightblue" stroke="midnightblue" points="268.149,-142.751 278.4,-145.428 272.055,-136.943 268.149,-142.751"/>
</g>
<!-- Node4 -->
<g id="node4" class="node"><title>Node4</title>
<g id="a_node4"><a xlink:href="pch_8h.html" target="_top" xlink:title="C:/dev/Igor/src/Tests\l/IgorAuxMath/pch.h">
<polygon fill="white" stroke="black" points="368.5,-73 368.5,-103 474.5,-103 474.5,-73 368.5,-73"/>
<text text-anchor="start" x="376.5" y="-91" font-family="Helvetica,sans-Serif" font-size="10.00">C:/dev/Igor/src/Tests</text>
<text text-anchor="middle" x="421.5" y="-80" font-family="Helvetica,sans-Serif" font-size="10.00">/IgorAuxMath/pch.h</text>
</a>
</g>
</g>
<!-- Node2&#45;&gt;Node4 -->
<g id="edge4" class="edge"><title>Node2&#45;&gt;Node4</title>
<path fill="none" stroke="midnightblue" d="M345.517,-139.655C363.711,-127.526 384.818,-113.455 400.162,-103.225"/>
<polygon fill="midnightblue" stroke="midnightblue" points="343.237,-136.969 336.858,-145.428 347.12,-142.793 343.237,-136.969"/>
</g>
<!-- Node5 -->
<g id="node5" class="node"><title>Node5</title>
<g id="a_node5"><a xlink:href="_matrix_8cpp.html" target="_top" xlink:title="C:/dev/Igor/src/Tests\l/IgorAuxMath/Matrix.cpp">
<polygon fill="white" stroke="black" points="0,-0.5 0,-30.5 123,-30.5 123,-0.5 0,-0.5"/>
<text text-anchor="start" x="8" y="-18.5" font-family="Helvetica,sans-Serif" font-size="10.00">C:/dev/Igor/src/Tests</text>
<text text-anchor="middle" x="61.5" y="-7.5" font-family="Helvetica,sans-Serif" font-size="10.00">/IgorAuxMath/Matrix.cpp</text>
</a>
</g>
</g>
<!-- Node4&#45;&gt;Node5 -->
<g id="edge5" class="edge"><title>Node4&#45;&gt;Node5</title>
<path fill="none" stroke="midnightblue" d="M371.268,-70.0771C367.306,-68.963 363.35,-67.9204 359.5,-67 260.15,-43.2488 233.011,-49.2243 132.5,-31 129.405,-30.4389 126.238,-29.8491 123.041,-29.2415"/>
<polygon fill="midnightblue" stroke="midnightblue" points="370.486,-73.4956 381.068,-72.9651 372.465,-66.781 370.486,-73.4956"/>
</g>
<!-- Node6 -->
<g id="node6" class="node"><title>Node6</title>
<g id="a_node6"><a xlink:href="pch_8cpp.html" target="_top" xlink:title="C:/dev/Igor/src/Tests\l/IgorAuxMath/pch.cpp">
<polygon fill="white" stroke="black" points="141.5,-0.5 141.5,-30.5 253.5,-30.5 253.5,-0.5 141.5,-0.5"/>
<text text-anchor="start" x="149.5" y="-18.5" font-family="Helvetica,sans-Serif" font-size="10.00">C:/dev/Igor/src/Tests</text>
<text text-anchor="middle" x="197.5" y="-7.5" font-family="Helvetica,sans-Serif" font-size="10.00">/IgorAuxMath/pch.cpp</text>
</a>
</g>
</g>
<!-- Node4&#45;&gt;Node6 -->
<g id="edge6" class="edge"><title>Node4&#45;&gt;Node6</title>
<path fill="none" stroke="midnightblue" d="M368.453,-69.85C365.425,-68.8829 362.424,-67.9274 359.5,-67 320.186,-54.5317 275.422,-40.5975 242.927,-30.5296"/>
<polygon fill="midnightblue" stroke="midnightblue" points="367.566,-73.2409 378.157,-72.9583 369.701,-66.5746 367.566,-73.2409"/>
</g>
<!-- Node7 -->
<g id="node7" class="node"><title>Node7</title>
<g id="a_node7"><a xlink:href="_quaternion_8cpp.html" target="_top" xlink:title="C:/dev/Igor/src/Tests\l/IgorAuxMath/Quaternion.cpp">
<polygon fill="white" stroke="black" points="272,-0.5 272,-30.5 415,-30.5 415,-0.5 272,-0.5"/>
<text text-anchor="start" x="280" y="-18.5" font-family="Helvetica,sans-Serif" font-size="10.00">C:/dev/Igor/src/Tests</text>
<text text-anchor="middle" x="343.5" y="-7.5" font-family="Helvetica,sans-Serif" font-size="10.00">/IgorAuxMath/Quaternion.cpp</text>
</a>
</g>
</g>
<!-- Node4&#45;&gt;Node7 -->
<g id="edge7" class="edge"><title>Node4&#45;&gt;Node7</title>
<path fill="none" stroke="midnightblue" d="M398.226,-65.964C385.547,-54.5043 370.205,-40.637 358.995,-30.5049"/>
<polygon fill="midnightblue" stroke="midnightblue" points="395.95,-68.6244 405.716,-72.7333 400.644,-63.4313 395.95,-68.6244"/>
</g>
<!-- Node8 -->
<g id="node8" class="node"><title>Node8</title>
<g id="a_node8"><a xlink:href="_vector2_8cpp.html" target="_top" xlink:title="C:/dev/Igor/src/Tests\l/IgorAuxMath/Vector2.cpp">
<polygon fill="white" stroke="black" points="433.5,-0.5 433.5,-30.5 563.5,-30.5 563.5,-0.5 433.5,-0.5"/>
<text text-anchor="start" x="441.5" y="-18.5" font-family="Helvetica,sans-Serif" font-size="10.00">C:/dev/Igor/src/Tests</text>
<text text-anchor="middle" x="498.5" y="-7.5" font-family="Helvetica,sans-Serif" font-size="10.00">/IgorAuxMath/Vector2.cpp</text>
</a>
</g>
</g>
<!-- Node4&#45;&gt;Node8 -->
<g id="edge8" class="edge"><title>Node4&#45;&gt;Node8</title>
<path fill="none" stroke="midnightblue" d="M444.475,-65.964C456.992,-54.5043 472.138,-40.637 483.204,-30.5049"/>
<polygon fill="midnightblue" stroke="midnightblue" points="442.094,-63.3989 437.082,-72.7333 446.821,-68.5618 442.094,-63.3989"/>
</g>
<!-- Node9 -->
<g id="node9" class="node"><title>Node9</title>
<g id="a_node9"><a xlink:href="_vector3_8cpp.html" target="_top" xlink:title="C:/dev/Igor/src/Tests\l/IgorAuxMath/Vector3.cpp">
<polygon fill="white" stroke="black" points="581.5,-0.5 581.5,-30.5 711.5,-30.5 711.5,-0.5 581.5,-0.5"/>
<text text-anchor="start" x="589.5" y="-18.5" font-family="Helvetica,sans-Serif" font-size="10.00">C:/dev/Igor/src/Tests</text>
<text text-anchor="middle" x="646.5" y="-7.5" font-family="Helvetica,sans-Serif" font-size="10.00">/IgorAuxMath/Vector3.cpp</text>
</a>
</g>
</g>
<!-- Node4&#45;&gt;Node9 -->
<g id="edge9" class="edge"><title>Node4&#45;&gt;Node9</title>
<path fill="none" stroke="midnightblue" d="M476.207,-69.8585C514.629,-57.8196 565.397,-41.9123 601.478,-30.6069"/>
<polygon fill="midnightblue" stroke="midnightblue" points="474.718,-66.6572 466.222,-72.9872 476.811,-73.337 474.718,-66.6572"/>
</g>
<!-- Node10 -->
<g id="node10" class="node"><title>Node10</title>
<g id="a_node10"><a xlink:href="_vector4_8cpp.html" target="_top" xlink:title="C:/dev/Igor/src/Tests\l/IgorAuxMath/Vector4.cpp">
<polygon fill="white" stroke="black" points="729.5,-0.5 729.5,-30.5 859.5,-30.5 859.5,-0.5 729.5,-0.5"/>
<text text-anchor="start" x="737.5" y="-18.5" font-family="Helvetica,sans-Serif" font-size="10.00">C:/dev/Igor/src/Tests</text>
<text text-anchor="middle" x="794.5" y="-7.5" font-family="Helvetica,sans-Serif" font-size="10.00">/IgorAuxMath/Vector4.cpp</text>
</a>
</g>
</g>
<!-- Node4&#45;&gt;Node10 -->
<g id="edge10" class="edge"><title>Node4&#45;&gt;Node10</title>
<path fill="none" stroke="midnightblue" d="M484.891,-75.2861C545.434,-64.0609 639.229,-46.5727 720.5,-31 723.329,-30.458 726.218,-29.902 729.136,-29.3386"/>
<polygon fill="midnightblue" stroke="midnightblue" points="483.921,-71.9062 474.726,-77.1698 485.197,-78.789 483.921,-71.9062"/>
</g>
</g>
</svg>
