<?xml version="1.0" encoding="UTF-8" standalone="no"?>
<!DOCTYPE svg PUBLIC "-//W3C//DTD SVG 1.1//EN"
 "http://www.w3.org/Graphics/SVG/1.1/DTD/svg11.dtd">
<!-- Generated by graphviz version 2.38.0 (20140413.2041)
 -->
<!-- Title: C:/dev/Igor/src/Igor/src/iAACube.inl Pages: 1 -->
<svg width="5874pt" height="318pt"
 viewBox="0.00 0.00 5873.50 318.00" xmlns="http://www.w3.org/2000/svg" xmlns:xlink="http://www.w3.org/1999/xlink">
<g id="graph0" class="graph" transform="scale(1 1) rotate(0) translate(4 314)">
<title>C:/dev/Igor/src/Igor/src/iAACube.inl</title>
<polygon fill="white" stroke="none" points="-4,4 -4,-314 5869.5,-314 5869.5,4 -4,4"/>
<!-- Node1 -->
<g id="node1" class="node"><title>Node1</title>
<polygon fill="#bfbfbf" stroke="black" points="523,-279.5 523,-309.5 621,-309.5 621,-279.5 523,-279.5"/>
<text text-anchor="start" x="531" y="-297.5" font-family="Helvetica,sans-Serif" font-size="10.00">C:/dev/Igor/src/Igor</text>
<text text-anchor="middle" x="572" y="-286.5" font-family="Helvetica,sans-Serif" font-size="10.00">/src/iAACube.inl</text>
</g>
<!-- Node2 -->
<g id="node2" class="node"><title>Node2</title>
<g id="a_node2"><a xlink:href="i_a_a_cube_8h.html" target="_top" xlink:title="C:/dev/Igor/src/Igor\l/src/iAACube.h">
<polygon fill="white" stroke="black" points="523,-212.5 523,-242.5 621,-242.5 621,-212.5 523,-212.5"/>
<text text-anchor="start" x="531" y="-230.5" font-family="Helvetica,sans-Serif" font-size="10.00">C:/dev/Igor/src/Igor</text>
<text text-anchor="middle" x="572" y="-219.5" font-family="Helvetica,sans-Serif" font-size="10.00">/src/iAACube.h</text>
</a>
</g>
</g>
<!-- Node1&#45;&gt;Node2 -->
<g id="edge1" class="edge"><title>Node1&#45;&gt;Node2</title>
<path fill="none" stroke="midnightblue" d="M572,-269.108C572,-260.154 572,-250.323 572,-242.577"/>
<polygon fill="midnightblue" stroke="midnightblue" points="568.5,-269.396 572,-279.396 575.5,-269.396 568.5,-269.396"/>
</g>
<!-- Node3 -->
<g id="node3" class="node"><title>Node3</title>
<g id="a_node3"><a xlink:href="i_intersection_8h.html" target="_top" xlink:title="C:/dev/Igor/src/Igor\l/src/iIntersection.h">
<polygon fill="white" stroke="black" points="706,-145.5 706,-175.5 804,-175.5 804,-145.5 706,-145.5"/>
<text text-anchor="start" x="714" y="-163.5" font-family="Helvetica,sans-Serif" font-size="10.00">C:/dev/Igor/src/Igor</text>
<text text-anchor="middle" x="755" y="-152.5" font-family="Helvetica,sans-Serif" font-size="10.00">/src/iIntersection.h</text>
</a>
</g>
</g>
<!-- Node2&#45;&gt;Node3 -->
<g id="edge2" class="edge"><title>Node2&#45;&gt;Node3</title>
<path fill="none" stroke="midnightblue" d="M621.395,-208.955C650.874,-198.485 687.809,-185.366 715.369,-175.577"/>
<polygon fill="midnightblue" stroke="midnightblue" points="619.96,-205.751 611.708,-212.396 622.303,-212.347 619.96,-205.751"/>
</g>
<!-- Node4 -->
<g id="node4" class="node"><title>Node4</title>
<g id="a_node4"><a xlink:href="i_octree_8cpp.html" target="_top" xlink:title="C:/dev/Igor/src/Igor\l/src/iOctree.cpp">
<polygon fill="white" stroke="black" points="417,-73 417,-103 515,-103 515,-73 417,-73"/>
<text text-anchor="start" x="425" y="-91" font-family="Helvetica,sans-Serif" font-size="10.00">C:/dev/Igor/src/Igor</text>
<text text-anchor="middle" x="466" y="-80" font-family="Helvetica,sans-Serif" font-size="10.00">/src/iOctree.cpp</text>
</a>
</g>
</g>
<!-- Node2&#45;&gt;Node4 -->
<g id="edge8" class="edge"><title>Node2&#45;&gt;Node4</title>
<path fill="none" stroke="midnightblue" d="M554.774,-204.155C532.824,-175.682 495.519,-127.292 477.044,-103.326"/>
<polygon fill="midnightblue" stroke="midnightblue" points="552.178,-206.52 561.055,-212.303 557.722,-202.246 552.178,-206.52"/>
</g>
<!-- Node9 -->
<g id="node9" class="node"><title>Node9</title>
<g id="a_node9"><a xlink:href="i_octree_8h.html" target="_top" xlink:title="C:/dev/Igor/src/Igor\l/src/iOctree.h">
<polygon fill="white" stroke="black" points="355,-145.5 355,-175.5 453,-175.5 453,-145.5 355,-145.5"/>
<text text-anchor="start" x="363" y="-163.5" font-family="Helvetica,sans-Serif" font-size="10.00">C:/dev/Igor/src/Igor</text>
<text text-anchor="middle" x="404" y="-152.5" font-family="Helvetica,sans-Serif" font-size="10.00">/src/iOctree.h</text>
</a>
</g>
</g>
<!-- Node2&#45;&gt;Node9 -->
<g id="edge9" class="edge"><title>Node2&#45;&gt;Node9</title>
<path fill="none" stroke="midnightblue" d="M525.946,-208.682C499.002,-198.257 465.464,-185.281 440.382,-175.577"/>
<polygon fill="midnightblue" stroke="midnightblue" points="524.957,-212.052 535.547,-212.396 527.483,-205.523 524.957,-212.052"/>
</g>
<!-- Node16 -->
<g id="node16" class="node"><title>Node16</title>
<g id="a_node16"><a xlink:href="i_renderer_8h.html" target="_top" xlink:title="C:/dev/Igor/src/Igor\l/src/iRenderer.h">
<polygon fill="white" stroke="black" points="3010,-145.5 3010,-175.5 3108,-175.5 3108,-145.5 3010,-145.5"/>
<text text-anchor="start" x="3018" y="-163.5" font-family="Helvetica,sans-Serif" font-size="10.00">C:/dev/Igor/src/Igor</text>
<text text-anchor="middle" x="3059" y="-152.5" font-family="Helvetica,sans-Serif" font-size="10.00">/src/iRenderer.h</text>
</a>
</g>
</g>
<!-- Node2&#45;&gt;Node16 -->
<g id="edge17" class="edge"><title>Node2&#45;&gt;Node16</title>
<path fill="none" stroke="midnightblue" d="M631.324,-224.95C974.038,-215.992 2696.21,-170.982 3009.92,-162.783"/>
<polygon fill="midnightblue" stroke="midnightblue" points="631.025,-221.456 621.12,-225.216 631.208,-228.454 631.025,-221.456"/>
</g>
<!-- Node3&#45;&gt;Node4 -->
<g id="edge3" class="edge"><title>Node3&#45;&gt;Node4</title>
<path fill="none" stroke="midnightblue" d="M695.923,-148.563C648.97,-139.397 581.811,-125.227 524,-109 517.744,-107.244 511.177,-105.19 504.801,-103.078"/>
<polygon fill="midnightblue" stroke="midnightblue" points="695.437,-152.034 705.92,-150.499 696.768,-145.161 695.437,-152.034"/>
</g>
<!-- Node5 -->
<g id="node5" class="node"><title>Node5</title>
<g id="a_node5"><a xlink:href="i_physics_user_mesh_collision_handler_8cpp.html" target="_top" xlink:title="C:/dev/Igor/src/Igor\l/src/iPhysicsUserMeshCollision\lHandler.cpp">
<polygon fill="white" stroke="black" points="533.5,-67.5 533.5,-108.5 688.5,-108.5 688.5,-67.5 533.5,-67.5"/>
<text text-anchor="start" x="541.5" y="-96.5" font-family="Helvetica,sans-Serif" font-size="10.00">C:/dev/Igor/src/Igor</text>
<text text-anchor="start" x="541.5" y="-85.5" font-family="Helvetica,sans-Serif" font-size="10.00">/src/iPhysicsUserMeshCollision</text>
<text text-anchor="middle" x="611" y="-74.5" font-family="Helvetica,sans-Serif" font-size="10.00">Handler.cpp</text>
</a>
</g>
</g>
<!-- Node3&#45;&gt;Node5 -->
<g id="edge4" class="edge"><title>Node3&#45;&gt;Node5</title>
<path fill="none" stroke="midnightblue" d="M717.203,-140.995C696.806,-131.009 671.639,-118.688 650.925,-108.546"/>
<polygon fill="midnightblue" stroke="midnightblue" points="715.685,-144.149 726.206,-145.403 718.763,-137.862 715.685,-144.149"/>
</g>
<!-- Node6 -->
<g id="node6" class="node"><title>Node6</title>
<g id="a_node6"><a xlink:href="i_voxel_terrain_8cpp.html" target="_top" xlink:title="C:/dev/Igor/src/Igor\l/src/iVoxelTerrain.cpp">
<polygon fill="white" stroke="black" points="843.5,-73 843.5,-103 954.5,-103 954.5,-73 843.5,-73"/>
<text text-anchor="start" x="851.5" y="-91" font-family="Helvetica,sans-Serif" font-size="10.00">C:/dev/Igor/src/Igor</text>
<text text-anchor="middle" x="899" y="-80" font-family="Helvetica,sans-Serif" font-size="10.00">/src/iVoxelTerrain.cpp</text>
</a>
</g>
</g>
<!-- Node3&#45;&gt;Node6 -->
<g id="edge5" class="edge"><title>Node3&#45;&gt;Node6</title>
<path fill="none" stroke="midnightblue" d="M793.047,-140.873C817.252,-129.023 848.096,-113.922 870.255,-103.073"/>
<polygon fill="midnightblue" stroke="midnightblue" points="791.237,-137.862 783.794,-145.403 794.315,-144.149 791.237,-137.862"/>
</g>
<!-- Node7 -->
<g id="node7" class="node"><title>Node7</title>
<g id="a_node7"><a xlink:href="i_widget_color_gradient_8cpp.html" target="_top" xlink:title="C:/dev/Igor/src/Igor\l/src/iWidgetColorGradient.cpp">
<polygon fill="white" stroke="black" points="972.5,-73 972.5,-103 1119.5,-103 1119.5,-73 972.5,-73"/>
<text text-anchor="start" x="980.5" y="-91" font-family="Helvetica,sans-Serif" font-size="10.00">C:/dev/Igor/src/Igor</text>
<text text-anchor="middle" x="1046" y="-80" font-family="Helvetica,sans-Serif" font-size="10.00">/src/iWidgetColorGradient.cpp</text>
</a>
</g>
</g>
<!-- Node3&#45;&gt;Node7 -->
<g id="edge6" class="edge"><title>Node3&#45;&gt;Node7</title>
<path fill="none" stroke="midnightblue" d="M813.878,-145.236C864.63,-132.94 937.493,-115.288 987.991,-103.054"/>
<polygon fill="midnightblue" stroke="midnightblue" points="812.93,-141.864 804.035,-147.62 814.578,-148.667 812.93,-141.864"/>
</g>
<!-- Node8 -->
<g id="node8" class="node"><title>Node8</title>
<g id="a_node8"><a xlink:href="i_widget_graph_8cpp.html" target="_top" xlink:title="C:/dev/Igor/src/Igor\l/src/iWidgetGraph.cpp">
<polygon fill="white" stroke="black" points="1138,-73 1138,-103 1252,-103 1252,-73 1138,-73"/>
<text text-anchor="start" x="1146" y="-91" font-family="Helvetica,sans-Serif" font-size="10.00">C:/dev/Igor/src/Igor</text>
<text text-anchor="middle" x="1195" y="-80" font-family="Helvetica,sans-Serif" font-size="10.00">/src/iWidgetGraph.cpp</text>
</a>
</g>
</g>
<!-- Node3&#45;&gt;Node8 -->
<g id="edge7" class="edge"><title>Node3&#45;&gt;Node8</title>
<path fill="none" stroke="midnightblue" d="M814.054,-154.367C888.01,-147.285 1018.33,-132.642 1128,-109 1135.71,-107.337 1143.83,-105.229 1151.65,-103.01"/>
<polygon fill="midnightblue" stroke="midnightblue" points="813.627,-150.892 804,-155.317 814.285,-157.861 813.627,-150.892"/>
</g>
<!-- Node9&#45;&gt;Node4 -->
<g id="edge13" class="edge"><title>Node9&#45;&gt;Node4</title>
<path fill="none" stroke="midnightblue" d="M423.313,-137.539C433.148,-126.356 444.821,-113.083 453.472,-103.246"/>
<polygon fill="midnightblue" stroke="midnightblue" points="420.522,-135.413 416.547,-145.233 425.779,-140.035 420.522,-135.413"/>
</g>
<!-- Node10 -->
<g id="node10" class="node"><title>Node10</title>
<g id="a_node10"><a xlink:href="i_entity_manager_8h.html" target="_top" xlink:title="C:/dev/Igor/src/Igor\l/src/iEntityManager.h">
<polygon fill="white" stroke="black" points="57,-73 57,-103 167,-103 167,-73 57,-73"/>
<text text-anchor="start" x="65" y="-91" font-family="Helvetica,sans-Serif" font-size="10.00">C:/dev/Igor/src/Igor</text>
<text text-anchor="middle" x="112" y="-80" font-family="Helvetica,sans-Serif" font-size="10.00">/src/iEntityManager.h</text>
</a>
</g>
</g>
<!-- Node9&#45;&gt;Node10 -->
<g id="edge10" class="edge"><title>Node9&#45;&gt;Node10</title>
<path fill="none" stroke="midnightblue" d="M344.937,-147.854C298.71,-138.394 232.936,-124.172 176,-109 169.251,-107.202 162.15,-105.147 155.233,-103.056"/>
<polygon fill="midnightblue" stroke="midnightblue" points="344.288,-151.294 354.785,-149.858 345.684,-144.434 344.288,-151.294"/>
</g>
<!-- Node13 -->
<g id="node13" class="node"><title>Node13</title>
<g id="a_node13"><a xlink:href="i_render_engine_8cpp.html" target="_top" xlink:title="C:/dev/Igor/src/Igor\l/src/iRenderEngine.cpp">
<polygon fill="white" stroke="black" points="707,-73 707,-103 825,-103 825,-73 707,-73"/>
<text text-anchor="start" x="715" y="-91" font-family="Helvetica,sans-Serif" font-size="10.00">C:/dev/Igor/src/Igor</text>
<text text-anchor="middle" x="766" y="-80" font-family="Helvetica,sans-Serif" font-size="10.00">/src/iRenderEngine.cpp</text>
</a>
</g>
</g>
<!-- Node9&#45;&gt;Node13 -->
<g id="edge14" class="edge"><title>Node9&#45;&gt;Node13</title>
<path fill="none" stroke="midnightblue" d="M463.024,-151.303C522.471,-142.585 616.641,-127.511 697,-109 704.535,-107.264 712.468,-105.196 720.164,-103.058"/>
<polygon fill="midnightblue" stroke="midnightblue" points="462.457,-147.849 453.065,-152.752 463.464,-154.776 462.457,-147.849"/>
</g>
<!-- Node14 -->
<g id="node14" class="node"><title>Node14</title>
<g id="a_node14"><a xlink:href="i_scene_8cpp.html" target="_top" xlink:title="C:/dev/Igor/src/Igor\l/src/iScene.cpp">
<polygon fill="white" stroke="black" points="185,-73 185,-103 283,-103 283,-73 185,-73"/>
<text text-anchor="start" x="193" y="-91" font-family="Helvetica,sans-Serif" font-size="10.00">C:/dev/Igor/src/Igor</text>
<text text-anchor="middle" x="234" y="-80" font-family="Helvetica,sans-Serif" font-size="10.00">/src/iScene.cpp</text>
</a>
</g>
</g>
<!-- Node9&#45;&gt;Node14 -->
<g id="edge15" class="edge"><title>Node9&#45;&gt;Node14</title>
<path fill="none" stroke="midnightblue" d="M360.594,-141.499C331.801,-129.559 294.557,-114.114 267.935,-103.073"/>
<polygon fill="midnightblue" stroke="midnightblue" points="359.429,-144.805 370.007,-145.403 362.11,-138.339 359.429,-144.805"/>
</g>
<!-- Node15 -->
<g id="node15" class="node"><title>Node15</title>
<g id="a_node15"><a xlink:href="i_view_8cpp.html" target="_top" xlink:title="C:/dev/Igor/src/Igor\l/src/iView.cpp">
<polygon fill="white" stroke="black" points="301,-73 301,-103 399,-103 399,-73 301,-73"/>
<text text-anchor="start" x="309" y="-91" font-family="Helvetica,sans-Serif" font-size="10.00">C:/dev/Igor/src/Igor</text>
<text text-anchor="middle" x="350" y="-80" font-family="Helvetica,sans-Serif" font-size="10.00">/src/iView.cpp</text>
</a>
</g>
</g>
<!-- Node9&#45;&gt;Node15 -->
<g id="edge16" class="edge"><title>Node9&#45;&gt;Node15</title>
<path fill="none" stroke="midnightblue" d="M386.929,-137.213C378.416,-126.099 368.373,-112.988 360.911,-103.246"/>
<polygon fill="midnightblue" stroke="midnightblue" points="384.213,-139.423 393.072,-145.233 389.77,-135.166 384.213,-139.423"/>
</g>
<!-- Node11 -->
<g id="node11" class="node"><title>Node11</title>
<g id="a_node11"><a xlink:href="i_entity_8cpp.html" target="_top" xlink:title="C:/dev/Igor/src/Igor\l/src/iEntity.cpp">
<polygon fill="white" stroke="black" points="0,-0.5 0,-30.5 98,-30.5 98,-0.5 0,-0.5"/>
<text text-anchor="start" x="8" y="-18.5" font-family="Helvetica,sans-Serif" font-size="10.00">C:/dev/Igor/src/Igor</text>
<text text-anchor="middle" x="49" y="-7.5" font-family="Helvetica,sans-Serif" font-size="10.00">/src/iEntity.cpp</text>
</a>
</g>
</g>
<!-- Node10&#45;&gt;Node11 -->
<g id="edge11" class="edge"><title>Node10&#45;&gt;Node11</title>
<path fill="none" stroke="midnightblue" d="M92.3752,-65.0389C82.3821,-53.8562 70.521,-40.5831 61.73,-30.7455"/>
<polygon fill="midnightblue" stroke="midnightblue" points="89.9779,-67.6089 99.251,-72.7333 95.1975,-62.9445 89.9779,-67.6089"/>
</g>
<!-- Node12 -->
<g id="node12" class="node"><title>Node12</title>
<g id="a_node12"><a xlink:href="i_entity_manager_8cpp.html" target="_top" xlink:title="C:/dev/Igor/src/Igor\l/src/iEntityManager.cpp">
<polygon fill="white" stroke="black" points="116,-0.5 116,-30.5 236,-30.5 236,-0.5 116,-0.5"/>
<text text-anchor="start" x="124" y="-18.5" font-family="Helvetica,sans-Serif" font-size="10.00">C:/dev/Igor/src/Igor</text>
<text text-anchor="middle" x="176" y="-7.5" font-family="Helvetica,sans-Serif" font-size="10.00">/src/iEntityManager.cpp</text>
</a>
</g>
</g>
<!-- Node10&#45;&gt;Node12 -->
<g id="edge12" class="edge"><title>Node10&#45;&gt;Node12</title>
<path fill="none" stroke="midnightblue" d="M131.936,-65.0389C142.088,-53.8562 154.137,-40.5831 163.068,-30.7455"/>
<polygon fill="midnightblue" stroke="midnightblue" points="129.081,-62.9766 124.951,-72.7333 134.264,-67.6816 129.081,-62.9766"/>
</g>
<!-- Node16&#45;&gt;Node4 -->
<g id="edge33" class="edge"><title>Node16&#45;&gt;Node4</title>
<path fill="none" stroke="midnightblue" d="M2999.67,-159.425C2641.49,-158.824 774.589,-153.562 524,-109 516.45,-107.657 508.558,-105.488 501.115,-103.063"/>
<polygon fill="midnightblue" stroke="midnightblue" points="2999.82,-162.925 3009.82,-159.441 2999.83,-155.925 2999.82,-162.925"/>
</g>
<!-- Node16&#45;&gt;Node6 -->
<g id="edge43" class="edge"><title>Node16&#45;&gt;Node6</title>
<path fill="none" stroke="midnightblue" d="M2999.38,-159.054C2678.97,-156.522 1168.3,-142.866 963,-109 954.73,-107.636 946.05,-105.457 937.844,-103.03"/>
<polygon fill="midnightblue" stroke="midnightblue" points="2999.81,-162.557 3009.84,-159.136 2999.86,-155.557 2999.81,-162.557"/>
</g>
<!-- Node16&#45;&gt;Node7 -->
<g id="edge44" class="edge"><title>Node16&#45;&gt;Node7</title>
<path fill="none" stroke="midnightblue" d="M2999.62,-159.627C2716.73,-159.975 1503.81,-158.501 1129,-109 1118.57,-107.622 1107.54,-105.47 1097.04,-103.079"/>
<polygon fill="midnightblue" stroke="midnightblue" points="2999.69,-163.127 3009.68,-159.613 2999.68,-156.127 2999.69,-163.127"/>
</g>
<!-- Node16&#45;&gt;Node8 -->
<g id="edge46" class="edge"><title>Node16&#45;&gt;Node8</title>
<path fill="none" stroke="midnightblue" d="M2999.64,-158.771C2708.17,-155.064 1435.5,-137.368 1261,-109 1252.49,-107.617 1243.55,-105.43 1235.09,-103"/>
<polygon fill="midnightblue" stroke="midnightblue" points="2999.95,-162.275 3009.99,-158.902 3000.04,-155.275 2999.95,-162.275"/>
</g>
<!-- Node16&#45;&gt;Node13 -->
<g id="edge35" class="edge"><title>Node16&#45;&gt;Node13</title>
<path fill="none" stroke="midnightblue" d="M2999.49,-159.085C2667.66,-156.644 1053.06,-143.088 834,-109 825.245,-107.638 816.036,-105.46 807.321,-103.032"/>
<polygon fill="midnightblue" stroke="midnightblue" points="2999.81,-162.587 3009.84,-159.16 2999.86,-155.587 2999.81,-162.587"/>
</g>
<!-- Node16&#45;&gt;Node15 -->
<g id="edge42" class="edge"><title>Node16&#45;&gt;Node15</title>
<path fill="none" stroke="midnightblue" d="M2999.61,-159.481C2631.72,-159.213 670.698,-155.597 408,-109 400.449,-107.661 392.557,-105.493 385.114,-103.068"/>
<polygon fill="midnightblue" stroke="midnightblue" points="2999.78,-162.981 3009.78,-159.487 2999.78,-155.981 2999.78,-162.981"/>
</g>
<!-- Node17 -->
<g id="node17" class="node"><title>Node17</title>
<g id="a_node17"><a xlink:href="i_celestial_node_8cpp.html" target="_top" xlink:title="C:/dev/Igor/src/Igor\l/src/iCelestialNode.cpp">
<polygon fill="white" stroke="black" points="2027.5,-73 2027.5,-103 2144.5,-103 2144.5,-73 2027.5,-73"/>
<text text-anchor="start" x="2035.5" y="-91" font-family="Helvetica,sans-Serif" font-size="10.00">C:/dev/Igor/src/Igor</text>
<text text-anchor="middle" x="2086" y="-80" font-family="Helvetica,sans-Serif" font-size="10.00">/src/iCelestialNode.cpp</text>
</a>
</g>
</g>
<!-- Node16&#45;&gt;Node17 -->
<g id="edge18" class="edge"><title>Node16&#45;&gt;Node17</title>
<path fill="none" stroke="midnightblue" d="M2999.66,-157.972C2825.44,-153.205 2317.46,-137.21 2154,-109 2145.51,-107.535 2136.58,-105.376 2128.08,-103.012"/>
<polygon fill="midnightblue" stroke="midnightblue" points="2999.82,-161.478 3009.91,-158.25 3000.01,-154.48 2999.82,-161.478"/>
</g>
<!-- Node18 -->
<g id="node18" class="node"><title>Node18</title>
<g id="a_node18"><a xlink:href="_igor_8cpp.html" target="_top" xlink:title="C:/dev/Igor/src/Igor\l/src/Igor.cpp">
<polygon fill="white" stroke="black" points="2163,-73 2163,-103 2261,-103 2261,-73 2163,-73"/>
<text text-anchor="start" x="2171" y="-91" font-family="Helvetica,sans-Serif" font-size="10.00">C:/dev/Igor/src/Igor</text>
<text text-anchor="middle" x="2212" y="-80" font-family="Helvetica,sans-Serif" font-size="10.00">/src/Igor.cpp</text>
</a>
</g>
</g>
<!-- Node16&#45;&gt;Node18 -->
<g id="edge19" class="edge"><title>Node16&#45;&gt;Node18</title>
<path fill="none" stroke="midnightblue" d="M2999.96,-157.77C2841.55,-152.802 2409.67,-137.02 2270,-109 2262.69,-107.533 2255.04,-105.374 2247.78,-103.009"/>
<polygon fill="midnightblue" stroke="midnightblue" points="2999.89,-161.269 3010,-158.082 3000.11,-154.273 2999.89,-161.269"/>
</g>
<!-- Node19 -->
<g id="node19" class="node"><title>Node19</title>
<g id="a_node19"><a xlink:href="i_instancer_8cpp.html" target="_top" xlink:title="C:/dev/Igor/src/Igor\l/src/iInstancer.cpp">
<polygon fill="white" stroke="black" points="2279,-73 2279,-103 2377,-103 2377,-73 2279,-73"/>
<text text-anchor="start" x="2287" y="-91" font-family="Helvetica,sans-Serif" font-size="10.00">C:/dev/Igor/src/Igor</text>
<text text-anchor="middle" x="2328" y="-80" font-family="Helvetica,sans-Serif" font-size="10.00">/src/iInstancer.cpp</text>
</a>
</g>
</g>
<!-- Node16&#45;&gt;Node19 -->
<g id="edge20" class="edge"><title>Node16&#45;&gt;Node19</title>
<path fill="none" stroke="midnightblue" d="M2999.57,-160.13C2881.39,-160.271 2609.06,-155.024 2386,-109 2378.8,-107.515 2371.27,-105.377 2364.11,-103.047"/>
<polygon fill="midnightblue" stroke="midnightblue" points="2999.85,-163.63 3009.84,-160.104 2999.83,-156.63 2999.85,-163.63"/>
</g>
<!-- Node20 -->
<g id="node20" class="node"><title>Node20</title>
<g id="a_node20"><a xlink:href="i_material_8cpp.html" target="_top" xlink:title="C:/dev/Igor/src/Igor\l/src/iMaterial.cpp">
<polygon fill="white" stroke="black" points="2395,-73 2395,-103 2493,-103 2493,-73 2395,-73"/>
<text text-anchor="start" x="2403" y="-91" font-family="Helvetica,sans-Serif" font-size="10.00">C:/dev/Igor/src/Igor</text>
<text text-anchor="middle" x="2444" y="-80" font-family="Helvetica,sans-Serif" font-size="10.00">/src/iMaterial.cpp</text>
</a>
</g>
</g>
<!-- Node16&#45;&gt;Node20 -->
<g id="edge21" class="edge"><title>Node16&#45;&gt;Node20</title>
<path fill="none" stroke="midnightblue" d="M2999.83,-158.807C2897.31,-156.572 2680.53,-147.283 2502,-109 2494.92,-107.481 2487.51,-105.358 2480.44,-103.059"/>
<polygon fill="midnightblue" stroke="midnightblue" points="2999.91,-162.309 3009.98,-159.013 3000.05,-155.31 2999.91,-162.309"/>
</g>
<!-- Node21 -->
<g id="node21" class="node"><title>Node21</title>
<g id="a_node21"><a xlink:href="i_material_resource_factory_8cpp.html" target="_top" xlink:title="C:/dev/Igor/src/Igor\l/src/iMaterialResourceFactory.cpp">
<polygon fill="white" stroke="black" points="2511,-73 2511,-103 2677,-103 2677,-73 2511,-73"/>
<text text-anchor="start" x="2519" y="-91" font-family="Helvetica,sans-Serif" font-size="10.00">C:/dev/Igor/src/Igor</text>
<text text-anchor="middle" x="2594" y="-80" font-family="Helvetica,sans-Serif" font-size="10.00">/src/iMaterialResourceFactory.cpp</text>
</a>
</g>
</g>
<!-- Node16&#45;&gt;Node21 -->
<g id="edge22" class="edge"><title>Node16&#45;&gt;Node21</title>
<path fill="none" stroke="midnightblue" d="M2999.91,-152.97C2926.17,-144.484 2796.33,-128.43 2686,-109 2676.02,-107.242 2665.48,-105.163 2655.23,-103.021"/>
<polygon fill="midnightblue" stroke="midnightblue" points="2999.6,-156.457 3009.93,-154.116 3000.39,-149.503 2999.6,-156.457"/>
</g>
<!-- Node22 -->
<g id="node22" class="node"><title>Node22</title>
<g id="a_node22"><a xlink:href="i_mesh_8cpp.html" target="_top" xlink:title="C:/dev/Igor/src/Igor\l/src/iMesh.cpp">
<polygon fill="white" stroke="black" points="2695,-73 2695,-103 2793,-103 2793,-73 2695,-73"/>
<text text-anchor="start" x="2703" y="-91" font-family="Helvetica,sans-Serif" font-size="10.00">C:/dev/Igor/src/Igor</text>
<text text-anchor="middle" x="2744" y="-80" font-family="Helvetica,sans-Serif" font-size="10.00">/src/iMesh.cpp</text>
</a>
</g>
</g>
<!-- Node16&#45;&gt;Node22 -->
<g id="edge23" class="edge"><title>Node16&#45;&gt;Node22</title>
<path fill="none" stroke="midnightblue" d="M2999.87,-150.119C2947.66,-141.294 2869.68,-126.795 2803,-109 2796.52,-107.271 2789.72,-105.206 2783.13,-103.07"/>
<polygon fill="midnightblue" stroke="midnightblue" points="2999.52,-153.609 3009.96,-151.807 3000.68,-146.705 2999.52,-153.609"/>
</g>
<!-- Node23 -->
<g id="node23" class="node"><title>Node23</title>
<g id="a_node23"><a xlink:href="i_mesh_buffers_8cpp.html" target="_top" xlink:title="C:/dev/Igor/src/Igor\l/src/iMeshBuffers.cpp">
<polygon fill="white" stroke="black" points="2811.5,-73 2811.5,-103 2922.5,-103 2922.5,-73 2811.5,-73"/>
<text text-anchor="start" x="2819.5" y="-91" font-family="Helvetica,sans-Serif" font-size="10.00">C:/dev/Igor/src/Igor</text>
<text text-anchor="middle" x="2867" y="-80" font-family="Helvetica,sans-Serif" font-size="10.00">/src/iMeshBuffers.cpp</text>
</a>
</g>
</g>
<!-- Node16&#45;&gt;Node23 -->
<g id="edge24" class="edge"><title>Node16&#45;&gt;Node23</title>
<path fill="none" stroke="midnightblue" d="M3010.82,-141.81C2978.19,-129.827 2935.66,-114.21 2905.33,-103.073"/>
<polygon fill="midnightblue" stroke="midnightblue" points="3010.01,-145.241 3020.61,-145.403 3012.43,-138.67 3010.01,-145.241"/>
</g>
<!-- Node24 -->
<g id="node24" class="node"><title>Node24</title>
<g id="a_node24"><a xlink:href="i_mesh_builder_8cpp.html" target="_top" xlink:title="C:/dev/Igor/src/Igor\l/src/iMeshBuilder.cpp">
<polygon fill="white" stroke="black" points="2940.5,-73 2940.5,-103 3051.5,-103 3051.5,-73 2940.5,-73"/>
<text text-anchor="start" x="2948.5" y="-91" font-family="Helvetica,sans-Serif" font-size="10.00">C:/dev/Igor/src/Igor</text>
<text text-anchor="middle" x="2996" y="-80" font-family="Helvetica,sans-Serif" font-size="10.00">/src/iMeshBuilder.cpp</text>
</a>
</g>
</g>
<!-- Node16&#45;&gt;Node24 -->
<g id="edge25" class="edge"><title>Node16&#45;&gt;Node24</title>
<path fill="none" stroke="midnightblue" d="M3039.38,-137.539C3029.38,-126.356 3017.52,-113.083 3008.73,-103.246"/>
<polygon fill="midnightblue" stroke="midnightblue" points="3036.98,-140.109 3046.25,-145.233 3042.2,-135.445 3036.98,-140.109"/>
</g>
<!-- Node25 -->
<g id="node25" class="node"><title>Node25</title>
<g id="a_node25"><a xlink:href="i_node_mesh_8cpp.html" target="_top" xlink:title="C:/dev/Igor/src/Igor\l/src/iNodeMesh.cpp">
<polygon fill="white" stroke="black" points="3070,-73 3070,-103 3174,-103 3174,-73 3070,-73"/>
<text text-anchor="start" x="3078" y="-91" font-family="Helvetica,sans-Serif" font-size="10.00">C:/dev/Igor/src/Igor</text>
<text text-anchor="middle" x="3122" y="-80" font-family="Helvetica,sans-Serif" font-size="10.00">/src/iNodeMesh.cpp</text>
</a>
</g>
</g>
<!-- Node16&#45;&gt;Node25 -->
<g id="edge26" class="edge"><title>Node16&#45;&gt;Node25</title>
<path fill="none" stroke="midnightblue" d="M3078.62,-137.539C3088.62,-126.356 3100.48,-113.083 3109.27,-103.246"/>
<polygon fill="midnightblue" stroke="midnightblue" points="3075.8,-135.445 3071.75,-145.233 3081.02,-140.109 3075.8,-135.445"/>
</g>
<!-- Node26 -->
<g id="node26" class="node"><title>Node26</title>
<g id="a_node26"><a xlink:href="i_node_model_8cpp.html" target="_top" xlink:title="C:/dev/Igor/src/Igor\l/src/iNodeModel.cpp">
<polygon fill="white" stroke="black" points="3192,-73 3192,-103 3298,-103 3298,-73 3192,-73"/>
<text text-anchor="start" x="3200" y="-91" font-family="Helvetica,sans-Serif" font-size="10.00">C:/dev/Igor/src/Igor</text>
<text text-anchor="middle" x="3245" y="-80" font-family="Helvetica,sans-Serif" font-size="10.00">/src/iNodeModel.cpp</text>
</a>
</g>
</g>
<!-- Node16&#45;&gt;Node26 -->
<g id="edge27" class="edge"><title>Node16&#45;&gt;Node26</title>
<path fill="none" stroke="midnightblue" d="M3105.67,-141.81C3137.28,-129.827 3178.49,-114.21 3207.87,-103.073"/>
<polygon fill="midnightblue" stroke="midnightblue" points="3104.3,-138.586 3096.19,-145.403 3106.78,-145.131 3104.3,-138.586"/>
</g>
<!-- Node27 -->
<g id="node27" class="node"><title>Node27</title>
<g id="a_node27"><a xlink:href="i_node_particle_system_8cpp.html" target="_top" xlink:title="C:/dev/Igor/src/Igor\l/src/iNodeParticleSystem.cpp">
<polygon fill="white" stroke="black" points="3316,-73 3316,-103 3462,-103 3462,-73 3316,-73"/>
<text text-anchor="start" x="3324" y="-91" font-family="Helvetica,sans-Serif" font-size="10.00">C:/dev/Igor/src/Igor</text>
<text text-anchor="middle" x="3389" y="-80" font-family="Helvetica,sans-Serif" font-size="10.00">/src/iNodeParticleSystem.cpp</text>
</a>
</g>
</g>
<!-- Node16&#45;&gt;Node27 -->
<g id="edge28" class="edge"><title>Node16&#45;&gt;Node27</title>
<path fill="none" stroke="midnightblue" d="M3118.11,-148.126C3168.44,-138.283 3242.61,-123.402 3307,-109 3315.29,-107.145 3324.04,-105.104 3332.6,-103.056"/>
<polygon fill="midnightblue" stroke="midnightblue" points="3117.2,-144.737 3108.06,-150.087 3118.54,-151.607 3117.2,-144.737"/>
</g>
<!-- Node28 -->
<g id="node28" class="node"><title>Node28</title>
<g id="a_node28"><a xlink:href="i_node_sky_box_8cpp.html" target="_top" xlink:title="C:/dev/Igor/src/Igor\l/src/iNodeSkyBox.cpp">
<polygon fill="white" stroke="black" points="3480,-73 3480,-103 3594,-103 3594,-73 3480,-73"/>
<text text-anchor="start" x="3488" y="-91" font-family="Helvetica,sans-Serif" font-size="10.00">C:/dev/Igor/src/Igor</text>
<text text-anchor="middle" x="3537" y="-80" font-family="Helvetica,sans-Serif" font-size="10.00">/src/iNodeSkyBox.cpp</text>
</a>
</g>
</g>
<!-- Node16&#45;&gt;Node28 -->
<g id="edge29" class="edge"><title>Node16&#45;&gt;Node28</title>
<path fill="none" stroke="midnightblue" d="M3118.73,-155.423C3199.35,-149.185 3347.18,-135.146 3471,-109 3478.61,-107.392 3486.62,-105.311 3494.32,-103.102"/>
<polygon fill="midnightblue" stroke="midnightblue" points="3117.99,-151.969 3108.28,-156.217 3118.52,-158.949 3117.99,-151.969"/>
</g>
<!-- Node29 -->
<g id="node29" class="node"><title>Node29</title>
<g id="a_node29"><a xlink:href="i_node_visitor_render_boundings_8cpp.html" target="_top" xlink:title="C:/dev/Igor/src/Igor\l/src/iNodeVisitorRenderBoundings.cpp">
<polygon fill="white" stroke="black" points="3612,-73 3612,-103 3796,-103 3796,-73 3612,-73"/>
<text text-anchor="start" x="3620" y="-91" font-family="Helvetica,sans-Serif" font-size="10.00">C:/dev/Igor/src/Igor</text>
<text text-anchor="middle" x="3704" y="-80" font-family="Helvetica,sans-Serif" font-size="10.00">/src/iNodeVisitorRenderBoundings.cpp</text>
</a>
</g>
</g>
<!-- Node16&#45;&gt;Node29 -->
<g id="edge30" class="edge"><title>Node16&#45;&gt;Node29</title>
<path fill="none" stroke="midnightblue" d="M3118.57,-155.984C3218.9,-149.612 3427.8,-134.41 3603,-109 3614.5,-107.332 3626.67,-105.222 3638.43,-103.002"/>
<polygon fill="midnightblue" stroke="midnightblue" points="3118.1,-152.507 3108.33,-156.627 3118.53,-159.493 3118.1,-152.507"/>
</g>
<!-- Node30 -->
<g id="node30" class="node"><title>Node30</title>
<g id="a_node30"><a xlink:href="i_node_visitor_render_color_i_d_8cpp.html" target="_top" xlink:title="C:/dev/Igor/src/Igor\l/src/iNodeVisitorRenderColor\lID.cpp">
<polygon fill="white" stroke="black" points="3814,-67.5 3814,-108.5 3956,-108.5 3956,-67.5 3814,-67.5"/>
<text text-anchor="start" x="3822" y="-96.5" font-family="Helvetica,sans-Serif" font-size="10.00">C:/dev/Igor/src/Igor</text>
<text text-anchor="start" x="3822" y="-85.5" font-family="Helvetica,sans-Serif" font-size="10.00">/src/iNodeVisitorRenderColor</text>
<text text-anchor="middle" x="3885" y="-74.5" font-family="Helvetica,sans-Serif" font-size="10.00">ID.cpp</text>
</a>
</g>
</g>
<!-- Node16&#45;&gt;Node30 -->
<g id="edge31" class="edge"><title>Node16&#45;&gt;Node30</title>
<path fill="none" stroke="midnightblue" d="M3118.49,-159.044C3245.4,-157.29 3551.81,-148.894 3805,-109 3807.83,-108.554 3810.7,-108.056 3813.6,-107.517"/>
<polygon fill="midnightblue" stroke="midnightblue" points="3118.17,-155.548 3108.21,-159.177 3118.26,-162.547 3118.17,-155.548"/>
</g>
<!-- Node31 -->
<g id="node31" class="node"><title>Node31</title>
<g id="a_node31"><a xlink:href="i_node_water_8cpp.html" target="_top" xlink:title="C:/dev/Igor/src/Igor\l/src/iNodeWater.cpp">
<polygon fill="white" stroke="black" points="3974,-73 3974,-103 4080,-103 4080,-73 3974,-73"/>
<text text-anchor="start" x="3982" y="-91" font-family="Helvetica,sans-Serif" font-size="10.00">C:/dev/Igor/src/Igor</text>
<text text-anchor="middle" x="4027" y="-80" font-family="Helvetica,sans-Serif" font-size="10.00">/src/iNodeWater.cpp</text>
</a>
</g>
</g>
<!-- Node16&#45;&gt;Node31 -->
<g id="edge32" class="edge"><title>Node16&#45;&gt;Node31</title>
<path fill="none" stroke="midnightblue" d="M3118.19,-158.179C3292.45,-153.978 3801.66,-139.375 3965,-109 3972.78,-107.553 3980.95,-105.401 3988.7,-103.039"/>
<polygon fill="midnightblue" stroke="midnightblue" points="3118.09,-154.681 3108.18,-158.418 3118.26,-161.679 3118.09,-154.681"/>
</g>
<!-- Node32 -->
<g id="node32" class="node"><title>Node32</title>
<g id="a_node32"><a xlink:href="i_physics_8cpp.html" target="_top" xlink:title="C:/dev/Igor/src/Igor\l/src/iPhysics.cpp">
<polygon fill="white" stroke="black" points="4098,-73 4098,-103 4196,-103 4196,-73 4098,-73"/>
<text text-anchor="start" x="4106" y="-91" font-family="Helvetica,sans-Serif" font-size="10.00">C:/dev/Igor/src/Igor</text>
<text text-anchor="middle" x="4147" y="-80" font-family="Helvetica,sans-Serif" font-size="10.00">/src/iPhysics.cpp</text>
</a>
</g>
</g>
<!-- Node16&#45;&gt;Node32 -->
<g id="edge34" class="edge"><title>Node16&#45;&gt;Node32</title>
<path fill="none" stroke="midnightblue" d="M3118.38,-158.791C3308.54,-156.174 3901.06,-145.247 4089,-109 4096.32,-107.588 4103.97,-105.453 4111.23,-103.096"/>
<polygon fill="midnightblue" stroke="midnightblue" points="3118.24,-155.292 3108.29,-158.927 3118.34,-162.292 3118.24,-155.292"/>
</g>
<!-- Node33 -->
<g id="node33" class="node"><title>Node33</title>
<g id="a_node33"><a xlink:href="i_renderer_8cpp.html" target="_top" xlink:title="C:/dev/Igor/src/Igor\l/src/iRenderer.cpp">
<polygon fill="white" stroke="black" points="4214,-73 4214,-103 4312,-103 4312,-73 4214,-73"/>
<text text-anchor="start" x="4222" y="-91" font-family="Helvetica,sans-Serif" font-size="10.00">C:/dev/Igor/src/Igor</text>
<text text-anchor="middle" x="4263" y="-80" font-family="Helvetica,sans-Serif" font-size="10.00">/src/iRenderer.cpp</text>
</a>
</g>
</g>
<!-- Node16&#45;&gt;Node33 -->
<g id="edge36" class="edge"><title>Node16&#45;&gt;Node33</title>
<path fill="none" stroke="midnightblue" d="M3118.38,-159.134C3322.39,-157.526 3993.59,-149.23 4205,-109 4212.43,-107.586 4220.2,-105.418 4227.55,-103.023"/>
<polygon fill="midnightblue" stroke="midnightblue" points="3118.14,-155.636 3108.17,-159.212 3118.2,-162.636 3118.14,-155.636"/>
</g>
<!-- Node34 -->
<g id="node34" class="node"><title>Node34</title>
<g id="a_node34"><a xlink:href="i_shader_8cpp.html" target="_top" xlink:title="C:/dev/Igor/src/Igor\l/src/iShader.cpp">
<polygon fill="white" stroke="black" points="4330,-73 4330,-103 4428,-103 4428,-73 4330,-73"/>
<text text-anchor="start" x="4338" y="-91" font-family="Helvetica,sans-Serif" font-size="10.00">C:/dev/Igor/src/Igor</text>
<text text-anchor="middle" x="4379" y="-80" font-family="Helvetica,sans-Serif" font-size="10.00">/src/iShader.cpp</text>
</a>
</g>
</g>
<!-- Node16&#45;&gt;Node34 -->
<g id="edge37" class="edge"><title>Node16&#45;&gt;Node34</title>
<path fill="none" stroke="midnightblue" d="M3118.48,-159.415C3335.75,-158.747 4086.06,-153.217 4321,-109 4328.43,-107.601 4336.2,-105.44 4343.55,-103.047"/>
<polygon fill="midnightblue" stroke="midnightblue" points="3118.23,-155.915 3108.24,-159.444 3118.25,-162.915 3118.23,-155.915"/>
</g>
<!-- Node35 -->
<g id="node35" class="node"><title>Node35</title>
<g id="a_node35"><a xlink:href="i_sky_light_node_8cpp.html" target="_top" xlink:title="C:/dev/Igor/src/Igor\l/src/iSkyLightNode.cpp">
<polygon fill="white" stroke="black" points="4446,-73 4446,-103 4564,-103 4564,-73 4446,-73"/>
<text text-anchor="start" x="4454" y="-91" font-family="Helvetica,sans-Serif" font-size="10.00">C:/dev/Igor/src/Igor</text>
<text text-anchor="middle" x="4505" y="-80" font-family="Helvetica,sans-Serif" font-size="10.00">/src/iSkyLightNode.cpp</text>
</a>
</g>
</g>
<!-- Node16&#45;&gt;Node35 -->
<g id="edge38" class="edge"><title>Node16&#45;&gt;Node35</title>
<path fill="none" stroke="midnightblue" d="M3118.46,-159.291C3348.12,-158.177 4177.38,-151.254 4437,-109 4445.62,-107.596 4454.69,-105.433 4463.3,-103.039"/>
<polygon fill="midnightblue" stroke="midnightblue" points="3118.28,-155.791 3108.3,-159.338 3118.31,-162.791 3118.28,-155.791"/>
</g>
<!-- Node36 -->
<g id="node36" class="node"><title>Node36</title>
<g id="a_node36"><a xlink:href="i_sound_resource_factory_8cpp.html" target="_top" xlink:title="C:/dev/Igor/src/Igor\l/src/iSoundResourceFactory.cpp">
<polygon fill="white" stroke="black" points="4582.5,-73 4582.5,-103 4741.5,-103 4741.5,-73 4582.5,-73"/>
<text text-anchor="start" x="4590.5" y="-91" font-family="Helvetica,sans-Serif" font-size="10.00">C:/dev/Igor/src/Igor</text>
<text text-anchor="middle" x="4662" y="-80" font-family="Helvetica,sans-Serif" font-size="10.00">/src/iSoundResourceFactory.cpp</text>
</a>
</g>
</g>
<!-- Node16&#45;&gt;Node36 -->
<g id="edge39" class="edge"><title>Node16&#45;&gt;Node36</title>
<path fill="none" stroke="midnightblue" d="M3118.12,-159.011C3361.14,-156.771 4284,-145.959 4573,-109 4584.15,-107.574 4595.97,-105.4 4607.21,-103.004"/>
<polygon fill="midnightblue" stroke="midnightblue" points="3118.04,-155.511 3108.07,-159.102 3118.1,-162.511 3118.04,-155.511"/>
</g>
<!-- Node37 -->
<g id="node37" class="node"><title>Node37</title>
<g id="a_node37"><a xlink:href="i_statistics_visualizer_8cpp.html" target="_top" xlink:title="C:/dev/Igor/src/Igor\l/src/iStatisticsVisualizer.cpp">
<polygon fill="white" stroke="black" points="4759.5,-73 4759.5,-103 4900.5,-103 4900.5,-73 4759.5,-73"/>
<text text-anchor="start" x="4767.5" y="-91" font-family="Helvetica,sans-Serif" font-size="10.00">C:/dev/Igor/src/Igor</text>
<text text-anchor="middle" x="4830" y="-80" font-family="Helvetica,sans-Serif" font-size="10.00">/src/iStatisticsVisualizer.cpp</text>
</a>
</g>
</g>
<!-- Node16&#45;&gt;Node37 -->
<g id="edge40" class="edge"><title>Node16&#45;&gt;Node37</title>
<path fill="none" stroke="midnightblue" d="M3118.11,-159.463C3378.63,-159.037 4425.73,-154.471 4751,-109 4760.95,-107.609 4771.46,-105.452 4781.45,-103.059"/>
<polygon fill="midnightblue" stroke="midnightblue" points="3118.09,-155.963 3108.1,-159.478 3118.1,-162.963 3118.09,-155.963"/>
</g>
<!-- Node38 -->
<g id="node38" class="node"><title>Node38</title>
<g id="a_node38"><a xlink:href="i_texture_resource_factory_8cpp.html" target="_top" xlink:title="C:/dev/Igor/src/Igor\l/src/iTextureResourceFactory.cpp">
<polygon fill="white" stroke="black" points="4919,-73 4919,-103 5083,-103 5083,-73 4919,-73"/>
<text text-anchor="start" x="4927" y="-91" font-family="Helvetica,sans-Serif" font-size="10.00">C:/dev/Igor/src/Igor</text>
<text text-anchor="middle" x="5001" y="-80" font-family="Helvetica,sans-Serif" font-size="10.00">/src/iTextureResourceFactory.cpp</text>
</a>
</g>
</g>
<!-- Node16&#45;&gt;Node38 -->
<g id="edge41" class="edge"><title>Node16&#45;&gt;Node38</title>
<path fill="none" stroke="midnightblue" d="M3118.58,-159.39C3394.66,-158.646 4551.25,-152.916 4910,-109 4921.4,-107.605 4933.48,-105.445 4944.98,-103.052"/>
<polygon fill="midnightblue" stroke="midnightblue" points="3118.36,-155.89 3108.37,-159.416 3118.38,-162.89 3118.36,-155.89"/>
</g>
<!-- Node39 -->
<g id="node39" class="node"><title>Node39</title>
<g id="a_node39"><a xlink:href="i_widget_default_theme_8cpp.html" target="_top" xlink:title="C:/dev/Igor/src/Igor\l/src/iWidgetDefaultTheme.cpp">
<polygon fill="white" stroke="black" points="5101.5,-73 5101.5,-103 5248.5,-103 5248.5,-73 5101.5,-73"/>
<text text-anchor="start" x="5109.5" y="-91" font-family="Helvetica,sans-Serif" font-size="10.00">C:/dev/Igor/src/Igor</text>
<text text-anchor="middle" x="5175" y="-80" font-family="Helvetica,sans-Serif" font-size="10.00">/src/iWidgetDefaultTheme.cpp</text>
</a>
</g>
</g>
<!-- Node16&#45;&gt;Node39 -->
<g id="edge45" class="edge"><title>Node16&#45;&gt;Node39</title>
<path fill="none" stroke="midnightblue" d="M3118.64,-159.72C3411.13,-160.538 4695.87,-161.049 5092,-109 5102.43,-107.629 5113.46,-105.48 5123.96,-103.09"/>
<polygon fill="midnightblue" stroke="midnightblue" points="3118.26,-156.219 3108.25,-159.689 3118.24,-163.219 3118.26,-156.219"/>
</g>
<!-- Node40 -->
<g id="node40" class="node"><title>Node40</title>
<g id="a_node40"><a xlink:href="i_widget_scroll_8cpp.html" target="_top" xlink:title="C:/dev/Igor/src/Igor\l/src/iWidgetScroll.cpp">
<polygon fill="white" stroke="black" points="5266.5,-73 5266.5,-103 5379.5,-103 5379.5,-73 5266.5,-73"/>
<text text-anchor="start" x="5274.5" y="-91" font-family="Helvetica,sans-Serif" font-size="10.00">C:/dev/Igor/src/Igor</text>
<text text-anchor="middle" x="5323" y="-80" font-family="Helvetica,sans-Serif" font-size="10.00">/src/iWidgetScroll.cpp</text>
</a>
</g>
</g>
<!-- Node16&#45;&gt;Node40 -->
<g id="edge47" class="edge"><title>Node16&#45;&gt;Node40</title>
<path fill="none" stroke="midnightblue" d="M3118.36,-159.112C3447.53,-156.833 5041.83,-144.047 5258,-109 5266.39,-107.64 5275.2,-105.462 5283.54,-103.035"/>
<polygon fill="midnightblue" stroke="midnightblue" points="3118.06,-155.614 3108.08,-159.183 3118.11,-162.614 3118.06,-155.614"/>
</g>
<!-- Node41 -->
<g id="node41" class="node"><title>Node41</title>
<g id="a_node41"><a xlink:href="i_window_8cpp.html" target="_top" xlink:title="C:/dev/Igor/src/Igor\l/src/iWindow.cpp">
<polygon fill="white" stroke="black" points="5398,-73 5398,-103 5496,-103 5496,-73 5398,-73"/>
<text text-anchor="start" x="5406" y="-91" font-family="Helvetica,sans-Serif" font-size="10.00">C:/dev/Igor/src/Igor</text>
<text text-anchor="middle" x="5447" y="-80" font-family="Helvetica,sans-Serif" font-size="10.00">/src/iWindow.cpp</text>
</a>
</g>
</g>
<!-- Node16&#45;&gt;Node41 -->
<g id="edge48" class="edge"><title>Node16&#45;&gt;Node41</title>
<path fill="none" stroke="midnightblue" d="M3118.34,-159.313C3459.1,-158.09 5159.8,-149.965 5389,-109 5396.55,-107.651 5404.44,-105.478 5411.88,-103.053"/>
<polygon fill="midnightblue" stroke="midnightblue" points="3118.18,-155.813 3108.19,-159.348 3118.2,-162.813 3118.18,-155.813"/>
</g>
<!-- Node42 -->
<g id="node42" class="node"><title>Node42</title>
<g id="a_node42"><a xlink:href="_manipulator_8cpp.html" target="_top" xlink:title="C:/dev/Igor/src/Tools\l/ModelViewer/src/Manipulator.cpp">
<polygon fill="white" stroke="black" points="5514,-73 5514,-103 5678,-103 5678,-73 5514,-73"/>
<text text-anchor="start" x="5522" y="-91" font-family="Helvetica,sans-Serif" font-size="10.00">C:/dev/Igor/src/Tools</text>
<text text-anchor="middle" x="5596" y="-80" font-family="Helvetica,sans-Serif" font-size="10.00">/ModelViewer/src/Manipulator.cpp</text>
</a>
</g>
</g>
<!-- Node16&#45;&gt;Node42 -->
<g id="edge49" class="edge"><title>Node16&#45;&gt;Node42</title>
<path fill="none" stroke="midnightblue" d="M3118.4,-158.97C3469.08,-155.75 5261.65,-137.971 5505,-109 5516.56,-107.623 5528.82,-105.439 5540.47,-103.01"/>
<polygon fill="midnightblue" stroke="midnightblue" points="3118.18,-155.472 3108.21,-159.063 3118.24,-162.472 3118.18,-155.472"/>
</g>
<!-- Node43 -->
<g id="node43" class="node"><title>Node43</title>
<g id="a_node43"><a xlink:href="_model_viewer_8cpp.html" target="_top" xlink:title="C:/dev/Igor/src/Tools\l/ModelViewer/src/ModelViewer.cpp">
<polygon fill="white" stroke="black" points="5696.5,-73 5696.5,-103 5865.5,-103 5865.5,-73 5696.5,-73"/>
<text text-anchor="start" x="5704.5" y="-91" font-family="Helvetica,sans-Serif" font-size="10.00">C:/dev/Igor/src/Tools</text>
<text text-anchor="middle" x="5781" y="-80" font-family="Helvetica,sans-Serif" font-size="10.00">/ModelViewer/src/ModelViewer.cpp</text>
</a>
</g>
</g>
<!-- Node16&#45;&gt;Node43 -->
<g id="edge50" class="edge"><title>Node16&#45;&gt;Node43</title>
<path fill="none" stroke="midnightblue" d="M3118.1,-159.04C3483.17,-156.108 5424.32,-139.19 5687,-109 5698.93,-107.628 5711.59,-105.446 5723.62,-103.018"/>
<polygon fill="midnightblue" stroke="midnightblue" points="3117.99,-155.541 3108.01,-159.121 3118.04,-162.54 3117.99,-155.541"/>
</g>
<!-- Node44 -->
<g id="node44" class="node"><title>Node44</title>
<g id="a_node44"><a xlink:href="_user_control_material_8cpp.html" target="_top" xlink:title="C:/dev/Igor/src/Tools\l/ModelViewer/src/UserControl\lMaterial.cpp">
<polygon fill="white" stroke="black" points="1270,-67.5 1270,-108.5 1416,-108.5 1416,-67.5 1270,-67.5"/>
<text text-anchor="start" x="1278" y="-96.5" font-family="Helvetica,sans-Serif" font-size="10.00">C:/dev/Igor/src/Tools</text>
<text text-anchor="start" x="1278" y="-85.5" font-family="Helvetica,sans-Serif" font-size="10.00">/ModelViewer/src/UserControl</text>
<text text-anchor="middle" x="1343" y="-74.5" font-family="Helvetica,sans-Serif" font-size="10.00">Material.cpp</text>
</a>
</g>
</g>
<!-- Node16&#45;&gt;Node44 -->
<g id="edge51" class="edge"><title>Node16&#45;&gt;Node44</title>
<path fill="none" stroke="midnightblue" d="M2999.44,-159.32C2743.8,-158.293 1738.27,-151.571 1425,-109 1422.1,-108.605 1419.15,-108.15 1416.17,-107.647"/>
<polygon fill="midnightblue" stroke="midnightblue" points="2999.63,-162.821 3009.64,-159.36 2999.65,-155.821 2999.63,-162.821"/>
</g>
<!-- Node45 -->
<g id="node45" class="node"><title>Node45</title>
<g id="a_node45"><a xlink:href="_widget3_d_emitter_8cpp.html" target="_top" xlink:title="C:/dev/Igor/src/Tools\l/ModelViewer/src/Widget3DEmitter.cpp">
<polygon fill="white" stroke="black" points="1434,-73 1434,-103 1622,-103 1622,-73 1434,-73"/>
<text text-anchor="start" x="1442" y="-91" font-family="Helvetica,sans-Serif" font-size="10.00">C:/dev/Igor/src/Tools</text>
<text text-anchor="middle" x="1528" y="-80" font-family="Helvetica,sans-Serif" font-size="10.00">/ModelViewer/src/Widget3DEmitter.cpp</text>
</a>
</g>
</g>
<!-- Node16&#45;&gt;Node45 -->
<g id="edge52" class="edge"><title>Node16&#45;&gt;Node45</title>
<path fill="none" stroke="midnightblue" d="M2999.82,-158.643C2765.56,-155.058 1902.7,-139.99 1631,-109 1618.33,-107.555 1604.89,-105.405 1592.04,-103.043"/>
<polygon fill="midnightblue" stroke="midnightblue" points="2999.8,-162.143 3009.85,-158.795 2999.9,-155.143 2999.8,-162.143"/>
</g>
<!-- Node46 -->
<g id="node46" class="node"><title>Node46</title>
<g id="a_node46"><a xlink:href="_widget3_d_locator_8cpp.html" target="_top" xlink:title="C:/dev/Igor/src/Tools\l/ModelViewer/src/Widget3DLocator.cpp">
<polygon fill="white" stroke="black" points="1640,-73 1640,-103 1828,-103 1828,-73 1640,-73"/>
<text text-anchor="start" x="1648" y="-91" font-family="Helvetica,sans-Serif" font-size="10.00">C:/dev/Igor/src/Tools</text>
<text text-anchor="middle" x="1734" y="-80" font-family="Helvetica,sans-Serif" font-size="10.00">/ModelViewer/src/Widget3DLocator.cpp</text>
</a>
</g>
</g>
<!-- Node16&#45;&gt;Node46 -->
<g id="edge53" class="edge"><title>Node16&#45;&gt;Node46</title>
<path fill="none" stroke="midnightblue" d="M2999.78,-158.235C2787.66,-153.519 2066.28,-135.843 1837,-109 1824.43,-107.528 1811.09,-105.381 1798.33,-103.034"/>
<polygon fill="midnightblue" stroke="midnightblue" points="2999.71,-161.734 3009.79,-158.456 2999.87,-154.736 2999.71,-161.734"/>
</g>
<!-- Node47 -->
<g id="node47" class="node"><title>Node47</title>
<g id="a_node47"><a xlink:href="_o_b_j2_o_m_p_f_8cpp.html" target="_top" xlink:title="C:/dev/Igor/src/Tools\l/OBJ2OMPF/src/OBJ2OMPF.cpp">
<polygon fill="white" stroke="black" points="1846.5,-73 1846.5,-103 2009.5,-103 2009.5,-73 1846.5,-73"/>
<text text-anchor="start" x="1854.5" y="-91" font-family="Helvetica,sans-Serif" font-size="10.00">C:/dev/Igor/src/Tools</text>
<text text-anchor="middle" x="1928" y="-80" font-family="Helvetica,sans-Serif" font-size="10.00">/OBJ2OMPF/src/OBJ2OMPF.cpp</text>
</a>
</g>
</g>
<!-- Node16&#45;&gt;Node47 -->
<g id="edge54" class="edge"><title>Node16&#45;&gt;Node47</title>
<path fill="none" stroke="midnightblue" d="M2999.66,-160.09C2840.24,-160.929 2389.62,-158.37 2019,-109 2007.94,-107.526 1996.23,-105.394 1985.02,-103.065"/>
<polygon fill="midnightblue" stroke="midnightblue" points="2999.76,-163.59 3009.74,-160.031 2999.72,-156.59 2999.76,-163.59"/>
</g>
</g>
</svg>
