<?xml version="1.0" encoding="UTF-8" standalone="no"?>
<!DOCTYPE svg PUBLIC "-//W3C//DTD SVG 1.1//EN"
 "http://www.w3.org/Graphics/SVG/1.1/DTD/svg11.dtd">
<!-- Generated by graphviz version 2.38.0 (20140413.2041)
 -->
<!-- Title: C:/dev/Igor/Igor/src/Igor/src/iAACube.h Pages: 1 -->
<svg width="6028pt" height="251pt"
 viewBox="0.00 0.00 6027.50 251.00" xmlns="http://www.w3.org/2000/svg" xmlns:xlink="http://www.w3.org/1999/xlink">
<g id="graph0" class="graph" transform="scale(1 1) rotate(0) translate(4 247)">
<title>C:/dev/Igor/Igor/src/Igor/src/iAACube.h</title>
<polygon fill="white" stroke="none" points="-4,4 -4,-247 6023.5,-247 6023.5,4 -4,4"/>
<!-- Node8 -->
<g id="node1" class="node"><title>Node8</title>
<g id="a_node1"><a xlink:title=" ">
<polygon fill="#bfbfbf" stroke="black" points="555,-212.5 555,-242.5 656,-242.5 656,-212.5 555,-212.5"/>
<text text-anchor="start" x="563" y="-230.5" font-family="Helvetica,sans-Serif" font-size="10.00">C:/dev/Igor/Igor/src</text>
<text text-anchor="middle" x="605.5" y="-219.5" font-family="Helvetica,sans-Serif" font-size="10.00">/Igor/src/iAACube.h</text>
</a>
</g>
</g>
<!-- Node9 -->
<g id="node2" class="node"><title>Node9</title>
<g id="a_node2"><a xlink:href="i_intersection_8h.html" target="_top" xlink:title=" ">
<polygon fill="white" stroke="black" points="753.5,-145.5 753.5,-175.5 869.5,-175.5 869.5,-145.5 753.5,-145.5"/>
<text text-anchor="start" x="761.5" y="-163.5" font-family="Helvetica,sans-Serif" font-size="10.00">C:/dev/Igor/Igor/src</text>
<text text-anchor="middle" x="811.5" y="-152.5" font-family="Helvetica,sans-Serif" font-size="10.00">/Igor/src/iIntersection.h</text>
</a>
</g>
</g>
<!-- Node8&#45;&gt;Node9 -->
<g id="edge1" class="edge"><title>Node8&#45;&gt;Node9</title>
<path fill="none" stroke="midnightblue" d="M659.554,-209.444C692.946,-198.908 735.282,-185.549 766.779,-175.611"/>
<polygon fill="midnightblue" stroke="midnightblue" points="658.429,-206.129 649.945,-212.476 660.535,-212.805 658.429,-206.129"/>
</g>
<!-- Node10 -->
<g id="node3" class="node"><title>Node10</title>
<g id="a_node3"><a xlink:href="i_octree_8cpp.html" target="_top" xlink:title=" ">
<polygon fill="white" stroke="black" points="440,-73 440,-103 545,-103 545,-73 440,-73"/>
<text text-anchor="start" x="448" y="-91" font-family="Helvetica,sans-Serif" font-size="10.00">C:/dev/Igor/Igor/src</text>
<text text-anchor="middle" x="492.5" y="-80" font-family="Helvetica,sans-Serif" font-size="10.00">/Igor/src/iOctree.cpp</text>
</a>
</g>
</g>
<!-- Node8&#45;&gt;Node10 -->
<g id="edge7" class="edge"><title>Node8&#45;&gt;Node10</title>
<path fill="none" stroke="midnightblue" d="M587.438,-204.522C564.08,-176.099 524.054,-127.395 504.273,-103.326"/>
<polygon fill="midnightblue" stroke="midnightblue" points="584.779,-206.799 593.833,-212.303 590.187,-202.355 584.779,-206.799"/>
</g>
<!-- Node15 -->
<g id="node8" class="node"><title>Node15</title>
<g id="a_node8"><a xlink:href="i_octree_8h.html" target="_top" xlink:title=" ">
<polygon fill="white" stroke="black" points="380.5,-145.5 380.5,-175.5 478.5,-175.5 478.5,-145.5 380.5,-145.5"/>
<text text-anchor="start" x="388.5" y="-163.5" font-family="Helvetica,sans-Serif" font-size="10.00">C:/dev/Igor/Igor/src</text>
<text text-anchor="middle" x="429.5" y="-152.5" font-family="Helvetica,sans-Serif" font-size="10.00">/Igor/src/iOctree.h</text>
</a>
</g>
</g>
<!-- Node8&#45;&gt;Node15 -->
<g id="edge8" class="edge"><title>Node8&#45;&gt;Node15</title>
<path fill="none" stroke="midnightblue" d="M557.624,-208.819C529.334,-198.371 494.006,-185.323 467.615,-175.577"/>
<polygon fill="midnightblue" stroke="midnightblue" points="556.717,-212.215 567.311,-212.396 559.143,-205.648 556.717,-212.215"/>
</g>
<!-- Node22 -->
<g id="node15" class="node"><title>Node22</title>
<g id="a_node15"><a xlink:href="i_renderer_8h.html" target="_top" xlink:title=" ">
<polygon fill="white" stroke="black" points="3050.5,-145.5 3050.5,-175.5 3154.5,-175.5 3154.5,-145.5 3050.5,-145.5"/>
<text text-anchor="start" x="3058.5" y="-163.5" font-family="Helvetica,sans-Serif" font-size="10.00">C:/dev/Igor/Igor/src</text>
<text text-anchor="middle" x="3102.5" y="-152.5" font-family="Helvetica,sans-Serif" font-size="10.00">/Igor/src/iRenderer.h</text>
</a>
</g>
</g>
<!-- Node8&#45;&gt;Node22 -->
<g id="edge16" class="edge"><title>Node8&#45;&gt;Node22</title>
<path fill="none" stroke="midnightblue" d="M666.298,-224.917C1012.28,-215.911 2728.8,-171.228 3050.5,-162.854"/>
<polygon fill="midnightblue" stroke="midnightblue" points="666.132,-221.42 656.226,-225.18 666.314,-228.418 666.132,-221.42"/>
</g>
<!-- Node9&#45;&gt;Node10 -->
<g id="edge2" class="edge"><title>Node9&#45;&gt;Node10</title>
<path fill="none" stroke="midnightblue" d="M743.234,-148.508C690.925,-139.515 617.16,-125.598 553.5,-109 546.814,-107.257 539.788,-105.185 532.98,-103.045"/>
<polygon fill="midnightblue" stroke="midnightblue" points="742.954,-152.011 753.4,-150.24 744.13,-145.11 742.954,-152.011"/>
</g>
<!-- Node11 -->
<g id="node4" class="node"><title>Node11</title>
<g id="a_node4"><a xlink:href="i_physics_user_mesh_collision_handler_8cpp.html" target="_top" xlink:title=" ">
<polygon fill="white" stroke="black" points="563,-67.5 563,-108.5 736,-108.5 736,-67.5 563,-67.5"/>
<text text-anchor="start" x="571" y="-96.5" font-family="Helvetica,sans-Serif" font-size="10.00">C:/dev/Igor/Igor/src</text>
<text text-anchor="start" x="571" y="-85.5" font-family="Helvetica,sans-Serif" font-size="10.00">/Igor/src/iPhysicsUserMeshCollision</text>
<text text-anchor="middle" x="649.5" y="-74.5" font-family="Helvetica,sans-Serif" font-size="10.00">Handler.cpp</text>
</a>
</g>
</g>
<!-- Node9&#45;&gt;Node11 -->
<g id="edge3" class="edge"><title>Node9&#45;&gt;Node11</title>
<path fill="none" stroke="midnightblue" d="M769.906,-141.399C746.798,-131.343 718.034,-118.825 694.415,-108.546"/>
<polygon fill="midnightblue" stroke="midnightblue" points="768.54,-144.622 779.106,-145.403 771.334,-138.203 768.54,-144.622"/>
</g>
<!-- Node12 -->
<g id="node5" class="node"><title>Node12</title>
<g id="a_node5"><a xlink:href="i_voxel_terrain_8cpp.html" target="_top" xlink:title=" ">
<polygon fill="white" stroke="black" points="909.5,-73 909.5,-103 1039.5,-103 1039.5,-73 909.5,-73"/>
<text text-anchor="start" x="917.5" y="-91" font-family="Helvetica,sans-Serif" font-size="10.00">C:/dev/Igor/Igor/src</text>
<text text-anchor="middle" x="974.5" y="-80" font-family="Helvetica,sans-Serif" font-size="10.00">/Igor/src/iVoxelTerrain.cpp</text>
</a>
</g>
</g>
<!-- Node9&#45;&gt;Node12 -->
<g id="edge4" class="edge"><title>Node9&#45;&gt;Node12</title>
<path fill="none" stroke="midnightblue" d="M853.48,-141.343C881.037,-129.424 916.547,-114.066 941.963,-103.073"/>
<polygon fill="midnightblue" stroke="midnightblue" points="851.883,-138.22 844.094,-145.403 854.661,-144.645 851.883,-138.22"/>
</g>
<!-- Node13 -->
<g id="node6" class="node"><title>Node13</title>
<g id="a_node6"><a xlink:href="i_widget_color_gradient_8cpp.html" target="_top" xlink:title=" ">
<polygon fill="white" stroke="black" points="1057.5,-73 1057.5,-103 1223.5,-103 1223.5,-73 1057.5,-73"/>
<text text-anchor="start" x="1065.5" y="-91" font-family="Helvetica,sans-Serif" font-size="10.00">C:/dev/Igor/Igor/src</text>
<text text-anchor="middle" x="1140.5" y="-80" font-family="Helvetica,sans-Serif" font-size="10.00">/Igor/src/iWidgetColorGradient.cpp</text>
</a>
</g>
</g>
<!-- Node9&#45;&gt;Node13 -->
<g id="edge5" class="edge"><title>Node9&#45;&gt;Node13</title>
<path fill="none" stroke="midnightblue" d="M879.789,-145.027C927.148,-134.97 991.673,-121.231 1048.5,-109 1057.45,-107.074 1066.88,-105.034 1076.17,-103.021"/>
<polygon fill="midnightblue" stroke="midnightblue" points="879.008,-141.615 869.952,-147.115 880.461,-148.462 879.008,-141.615"/>
</g>
<!-- Node14 -->
<g id="node7" class="node"><title>Node14</title>
<g id="a_node7"><a xlink:href="i_widget_graph_8cpp.html" target="_top" xlink:title=" ">
<polygon fill="white" stroke="black" points="1242,-73 1242,-103 1375,-103 1375,-73 1242,-73"/>
<text text-anchor="start" x="1250" y="-91" font-family="Helvetica,sans-Serif" font-size="10.00">C:/dev/Igor/Igor/src</text>
<text text-anchor="middle" x="1308.5" y="-80" font-family="Helvetica,sans-Serif" font-size="10.00">/Igor/src/iWidgetGraph.cpp</text>
</a>
</g>
</g>
<!-- Node9&#45;&gt;Node14 -->
<g id="edge6" class="edge"><title>Node9&#45;&gt;Node14</title>
<path fill="none" stroke="midnightblue" d="M879.913,-154.214C963.582,-147.08 1109.28,-132.486 1232.5,-109 1241.21,-107.339 1250.4,-105.233 1259.26,-103.014"/>
<polygon fill="midnightblue" stroke="midnightblue" points="879.445,-150.741 869.774,-155.068 880.032,-157.717 879.445,-150.741"/>
</g>
<!-- Node15&#45;&gt;Node10 -->
<g id="edge12" class="edge"><title>Node15&#45;&gt;Node10</title>
<path fill="none" stroke="midnightblue" d="M449.125,-137.539C459.118,-126.356 470.979,-113.083 479.77,-103.246"/>
<polygon fill="midnightblue" stroke="midnightblue" points="446.303,-135.445 442.249,-145.233 451.522,-140.109 446.303,-135.445"/>
</g>
<!-- Node16 -->
<g id="node9" class="node"><title>Node16</title>
<g id="a_node9"><a xlink:href="i_entity_manager_8h.html" target="_top" xlink:title=" ">
<polygon fill="white" stroke="black" points="55.5,-73 55.5,-103 183.5,-103 183.5,-73 55.5,-73"/>
<text text-anchor="start" x="63.5" y="-91" font-family="Helvetica,sans-Serif" font-size="10.00">C:/dev/Igor/Igor/src</text>
<text text-anchor="middle" x="119.5" y="-80" font-family="Helvetica,sans-Serif" font-size="10.00">/Igor/src/iEntityManager.h</text>
</a>
</g>
</g>
<!-- Node15&#45;&gt;Node16 -->
<g id="edge9" class="edge"><title>Node15&#45;&gt;Node16</title>
<path fill="none" stroke="midnightblue" d="M370.369,-147.883C322.293,-138.202 252.797,-123.671 192.5,-109 184.967,-107.167 177.028,-105.117 169.272,-103.046"/>
<polygon fill="midnightblue" stroke="midnightblue" points="369.798,-151.338 380.291,-149.873 371.175,-144.475 369.798,-151.338"/>
</g>
<!-- Node19 -->
<g id="node12" class="node"><title>Node19</title>
<g id="a_node12"><a xlink:href="i_render_engine_8cpp.html" target="_top" xlink:title=" ">
<polygon fill="white" stroke="black" points="754,-73 754,-103 891,-103 891,-73 754,-73"/>
<text text-anchor="start" x="762" y="-91" font-family="Helvetica,sans-Serif" font-size="10.00">C:/dev/Igor/Igor/src</text>
<text text-anchor="middle" x="822.5" y="-80" font-family="Helvetica,sans-Serif" font-size="10.00">/Igor/src/iRenderEngine.cpp</text>
</a>
</g>
</g>
<!-- Node15&#45;&gt;Node19 -->
<g id="edge13" class="edge"><title>Node15&#45;&gt;Node19</title>
<path fill="none" stroke="midnightblue" d="M488.821,-151.651C552.364,-142.856 656.021,-127.395 744.5,-109 752.986,-107.236 761.937,-105.153 770.629,-103.009"/>
<polygon fill="midnightblue" stroke="midnightblue" points="488.021,-148.228 478.591,-153.057 488.974,-155.163 488.021,-148.228"/>
</g>
<!-- Node20 -->
<g id="node13" class="node"><title>Node20</title>
<g id="a_node13"><a xlink:href="i_scene_8cpp.html" target="_top" xlink:title=" ">
<polygon fill="white" stroke="black" points="201.5,-73 201.5,-103 305.5,-103 305.5,-73 201.5,-73"/>
<text text-anchor="start" x="209.5" y="-91" font-family="Helvetica,sans-Serif" font-size="10.00">C:/dev/Igor/Igor/src</text>
<text text-anchor="middle" x="253.5" y="-80" font-family="Helvetica,sans-Serif" font-size="10.00">/Igor/src/iScene.cpp</text>
</a>
</g>
</g>
<!-- Node15&#45;&gt;Node20 -->
<g id="edge14" class="edge"><title>Node15&#45;&gt;Node20</title>
<path fill="none" stroke="midnightblue" d="M384.95,-141.655C355.088,-129.693 316.315,-114.162 288.632,-103.073"/>
<polygon fill="midnightblue" stroke="midnightblue" points="383.722,-144.933 394.307,-145.403 386.325,-138.435 383.722,-144.933"/>
</g>
<!-- Node21 -->
<g id="node14" class="node"><title>Node21</title>
<g id="a_node14"><a xlink:href="i_view_8cpp.html" target="_top" xlink:title=" ">
<polygon fill="white" stroke="black" points="323.5,-73 323.5,-103 421.5,-103 421.5,-73 323.5,-73"/>
<text text-anchor="start" x="331.5" y="-91" font-family="Helvetica,sans-Serif" font-size="10.00">C:/dev/Igor/Igor/src</text>
<text text-anchor="middle" x="372.5" y="-80" font-family="Helvetica,sans-Serif" font-size="10.00">/Igor/src/iView.cpp</text>
</a>
</g>
</g>
<!-- Node15&#45;&gt;Node21 -->
<g id="edge15" class="edge"><title>Node15&#45;&gt;Node21</title>
<path fill="none" stroke="midnightblue" d="M411.48,-137.213C402.495,-126.099 391.894,-112.988 384.018,-103.246"/>
<polygon fill="midnightblue" stroke="midnightblue" points="408.956,-139.657 417.965,-145.233 414.4,-135.256 408.956,-139.657"/>
</g>
<!-- Node17 -->
<g id="node10" class="node"><title>Node17</title>
<g id="a_node10"><a xlink:href="i_entity_8cpp.html" target="_top" xlink:title=" ">
<polygon fill="white" stroke="black" points="0,-0.5 0,-30.5 101,-30.5 101,-0.5 0,-0.5"/>
<text text-anchor="start" x="8" y="-18.5" font-family="Helvetica,sans-Serif" font-size="10.00">C:/dev/Igor/Igor/src</text>
<text text-anchor="middle" x="50.5" y="-7.5" font-family="Helvetica,sans-Serif" font-size="10.00">/Igor/src/iEntity.cpp</text>
</a>
</g>
</g>
<!-- Node16&#45;&gt;Node17 -->
<g id="edge10" class="edge"><title>Node16&#45;&gt;Node17</title>
<path fill="none" stroke="midnightblue" d="M98.3244,-65.3641C87.3139,-54.1142 74.1641,-40.6786 64.4424,-30.7455"/>
<polygon fill="midnightblue" stroke="midnightblue" points="96.0408,-68.0347 105.537,-72.7333 101.044,-63.1384 96.0408,-68.0347"/>
</g>
<!-- Node18 -->
<g id="node11" class="node"><title>Node18</title>
<g id="a_node11"><a xlink:href="i_entity_manager_8cpp.html" target="_top" xlink:title=" ">
<polygon fill="white" stroke="black" points="119,-0.5 119,-30.5 258,-30.5 258,-0.5 119,-0.5"/>
<text text-anchor="start" x="127" y="-18.5" font-family="Helvetica,sans-Serif" font-size="10.00">C:/dev/Igor/Igor/src</text>
<text text-anchor="middle" x="188.5" y="-7.5" font-family="Helvetica,sans-Serif" font-size="10.00">/Igor/src/iEntityManager.cpp</text>
</a>
</g>
</g>
<!-- Node16&#45;&gt;Node18 -->
<g id="edge11" class="edge"><title>Node16&#45;&gt;Node18</title>
<path fill="none" stroke="midnightblue" d="M140.676,-65.3641C151.686,-54.1142 164.836,-40.6786 174.558,-30.7455"/>
<polygon fill="midnightblue" stroke="midnightblue" points="137.956,-63.1384 133.463,-72.7333 142.959,-68.0347 137.956,-63.1384"/>
</g>
<!-- Node22&#45;&gt;Node10 -->
<g id="edge32" class="edge"><title>Node22&#45;&gt;Node10</title>
<path fill="none" stroke="midnightblue" d="M3040.2,-159.371C2673.63,-158.466 805.196,-151.769 553.5,-109 545.589,-107.656 537.303,-105.486 529.478,-103.06"/>
<polygon fill="midnightblue" stroke="midnightblue" points="3040.34,-162.871 3050.35,-159.396 3040.36,-155.871 3040.34,-162.871"/>
</g>
<!-- Node22&#45;&gt;Node12 -->
<g id="edge42" class="edge"><title>Node22&#45;&gt;Node12</title>
<path fill="none" stroke="midnightblue" d="M3039.91,-158.853C2717.3,-155.399 1249.4,-138.188 1048.5,-109 1039.02,-107.622 1029.02,-105.438 1019.54,-103.009"/>
<polygon fill="midnightblue" stroke="midnightblue" points="3039.98,-162.354 3050.01,-158.961 3040.05,-155.354 3039.98,-162.354"/>
</g>
<!-- Node22&#45;&gt;Node13 -->
<g id="edge43" class="edge"><title>Node22&#45;&gt;Node13</title>
<path fill="none" stroke="midnightblue" d="M3040.41,-159.384C2758.15,-158.616 1594.17,-152.805 1232.5,-109 1220.98,-107.605 1208.77,-105.445 1197.15,-103.052"/>
<polygon fill="midnightblue" stroke="midnightblue" points="3040.46,-162.884 3050.47,-159.41 3040.48,-155.884 3040.46,-162.884"/>
</g>
<!-- Node22&#45;&gt;Node14 -->
<g id="edge45" class="edge"><title>Node22&#45;&gt;Node14</title>
<path fill="none" stroke="midnightblue" d="M3039.82,-159.568C2770.87,-159.568 1713.46,-156.484 1384.5,-109 1374.91,-107.616 1364.8,-105.461 1355.18,-103.07"/>
<polygon fill="midnightblue" stroke="midnightblue" points="3040.17,-163.068 3050.17,-159.567 3040.17,-156.068 3040.17,-163.068"/>
</g>
<!-- Node22&#45;&gt;Node19 -->
<g id="edge34" class="edge"><title>Node22&#45;&gt;Node19</title>
<path fill="none" stroke="midnightblue" d="M3040.35,-158.92C2704.85,-155.679 1117.14,-138.859 900.5,-109 890.529,-107.626 879.997,-105.442 870.007,-103.014"/>
<polygon fill="midnightblue" stroke="midnightblue" points="3040.34,-162.42 3050.37,-159.017 3040.4,-155.421 3040.34,-162.42"/>
</g>
<!-- Node22&#45;&gt;Node21 -->
<g id="edge41" class="edge"><title>Node22&#45;&gt;Node21</title>
<path fill="none" stroke="midnightblue" d="M3040.22,-159.489C2663.31,-159.264 694.71,-155.845 430.5,-109 422.949,-107.661 415.057,-105.493 407.614,-103.069"/>
<polygon fill="midnightblue" stroke="midnightblue" points="3040.38,-162.989 3050.39,-159.494 3040.39,-155.989 3040.38,-162.989"/>
</g>
<!-- Node23 -->
<g id="node16" class="node"><title>Node23</title>
<g id="a_node16"><a xlink:href="i_celestial_node_8cpp.html" target="_top" xlink:title=" ">
<polygon fill="white" stroke="black" points="2015.5,-73 2015.5,-103 2151.5,-103 2151.5,-73 2015.5,-73"/>
<text text-anchor="start" x="2023.5" y="-91" font-family="Helvetica,sans-Serif" font-size="10.00">C:/dev/Igor/Igor/src</text>
<text text-anchor="middle" x="2083.5" y="-80" font-family="Helvetica,sans-Serif" font-size="10.00">/Igor/src/iCelestialNode.cpp</text>
</a>
</g>
</g>
<!-- Node22&#45;&gt;Node23 -->
<g id="edge17" class="edge"><title>Node22&#45;&gt;Node23</title>
<path fill="none" stroke="midnightblue" d="M3040.05,-157.787C2858.15,-152.54 2330.87,-135.419 2160.5,-109 2151.08,-107.54 2141.15,-105.414 2131.66,-103.087"/>
<polygon fill="midnightblue" stroke="midnightblue" points="3040.15,-161.292 3050.24,-158.079 3040.35,-154.294 3040.15,-161.292"/>
</g>
<!-- Node24 -->
<g id="node17" class="node"><title>Node24</title>
<g id="a_node17"><a xlink:href="_igor_8cpp.html" target="_top" xlink:title=" ">
<polygon fill="white" stroke="black" points="2169.5,-73 2169.5,-103 2267.5,-103 2267.5,-73 2169.5,-73"/>
<text text-anchor="start" x="2177.5" y="-91" font-family="Helvetica,sans-Serif" font-size="10.00">C:/dev/Igor/Igor/src</text>
<text text-anchor="middle" x="2218.5" y="-80" font-family="Helvetica,sans-Serif" font-size="10.00">/Igor/src/Igor.cpp</text>
</a>
</g>
</g>
<!-- Node22&#45;&gt;Node24 -->
<g id="edge18" class="edge"><title>Node22&#45;&gt;Node24</title>
<path fill="none" stroke="midnightblue" d="M3040.31,-157.877C2874.16,-153.195 2422.62,-138.098 2276.5,-109 2269.19,-107.544 2261.54,-105.389 2254.28,-103.026"/>
<polygon fill="midnightblue" stroke="midnightblue" points="3040.27,-161.378 3050.37,-158.158 3040.47,-154.38 3040.27,-161.378"/>
</g>
<!-- Node25 -->
<g id="node18" class="node"><title>Node25</title>
<g id="a_node18"><a xlink:href="i_instancer_8cpp.html" target="_top" xlink:title=" ">
<polygon fill="white" stroke="black" points="2285.5,-73 2285.5,-103 2401.5,-103 2401.5,-73 2285.5,-73"/>
<text text-anchor="start" x="2293.5" y="-91" font-family="Helvetica,sans-Serif" font-size="10.00">C:/dev/Igor/Igor/src</text>
<text text-anchor="middle" x="2343.5" y="-80" font-family="Helvetica,sans-Serif" font-size="10.00">/Igor/src/iInstancer.cpp</text>
</a>
</g>
</g>
<!-- Node22&#45;&gt;Node25 -->
<g id="edge19" class="edge"><title>Node22&#45;&gt;Node25</title>
<path fill="none" stroke="midnightblue" d="M3040.1,-159.463C2918.11,-158.4 2639.89,-151.089 2410.5,-109 2402.26,-107.488 2393.6,-105.339 2385.33,-103.005"/>
<polygon fill="midnightblue" stroke="midnightblue" points="3040.34,-162.965 3050.36,-159.541 3040.39,-155.965 3040.34,-162.965"/>
</g>
<!-- Node26 -->
<g id="node19" class="node"><title>Node26</title>
<g id="a_node19"><a xlink:href="i_material_8cpp.html" target="_top" xlink:title=" ">
<polygon fill="white" stroke="black" points="2419.5,-73 2419.5,-103 2529.5,-103 2529.5,-73 2419.5,-73"/>
<text text-anchor="start" x="2427.5" y="-91" font-family="Helvetica,sans-Serif" font-size="10.00">C:/dev/Igor/Igor/src</text>
<text text-anchor="middle" x="2474.5" y="-80" font-family="Helvetica,sans-Serif" font-size="10.00">/Igor/src/iMaterial.cpp</text>
</a>
</g>
</g>
<!-- Node22&#45;&gt;Node26 -->
<g id="edge20" class="edge"><title>Node22&#45;&gt;Node26</title>
<path fill="none" stroke="midnightblue" d="M3040.32,-158.158C2935.9,-154.963 2719.13,-144.288 2539.5,-109 2531.62,-107.452 2523.34,-105.316 2515.43,-103.012"/>
<polygon fill="midnightblue" stroke="midnightblue" points="3040.27,-161.658 3050.37,-158.453 3040.48,-154.661 3040.27,-161.658"/>
</g>
<!-- Node27 -->
<g id="node20" class="node"><title>Node27</title>
<g id="a_node20"><a xlink:href="i_material_resource_factory_8cpp.html" target="_top" xlink:title=" ">
<polygon fill="white" stroke="black" points="2548,-67.5 2548,-108.5 2681,-108.5 2681,-67.5 2548,-67.5"/>
<text text-anchor="start" x="2556" y="-96.5" font-family="Helvetica,sans-Serif" font-size="10.00">C:/dev/Igor/Igor/src</text>
<text text-anchor="start" x="2556" y="-85.5" font-family="Helvetica,sans-Serif" font-size="10.00">/Igor/src/iMaterialResource</text>
<text text-anchor="middle" x="2614.5" y="-74.5" font-family="Helvetica,sans-Serif" font-size="10.00">Factory.cpp</text>
</a>
</g>
</g>
<!-- Node22&#45;&gt;Node27 -->
<g id="edge21" class="edge"><title>Node22&#45;&gt;Node27</title>
<path fill="none" stroke="midnightblue" d="M3040.41,-154.528C2959.41,-147.441 2813.51,-132.612 2690.5,-109 2687.42,-108.408 2684.28,-107.762 2681.11,-107.075"/>
<polygon fill="midnightblue" stroke="midnightblue" points="3040.18,-158.021 3050.44,-155.395 3040.78,-151.047 3040.18,-158.021"/>
</g>
<!-- Node28 -->
<g id="node21" class="node"><title>Node28</title>
<g id="a_node21"><a xlink:href="i_mesh_8cpp.html" target="_top" xlink:title=" ">
<polygon fill="white" stroke="black" points="2699.5,-73 2699.5,-103 2799.5,-103 2799.5,-73 2699.5,-73"/>
<text text-anchor="start" x="2707.5" y="-91" font-family="Helvetica,sans-Serif" font-size="10.00">C:/dev/Igor/Igor/src</text>
<text text-anchor="middle" x="2749.5" y="-80" font-family="Helvetica,sans-Serif" font-size="10.00">/Igor/src/iMesh.cpp</text>
</a>
</g>
</g>
<!-- Node22&#45;&gt;Node28 -->
<g id="edge22" class="edge"><title>Node22&#45;&gt;Node28</title>
<path fill="none" stroke="midnightblue" d="M3040.41,-151.717C2980.5,-143.532 2887.51,-129.046 2808.5,-109 2801.79,-107.298 2794.75,-105.197 2787.96,-103.002"/>
<polygon fill="midnightblue" stroke="midnightblue" points="3040.09,-155.205 3050.47,-153.074 3041.03,-148.268 3040.09,-155.205"/>
</g>
<!-- Node29 -->
<g id="node22" class="node"><title>Node29</title>
<g id="a_node22"><a xlink:href="i_mesh_buffers_8cpp.html" target="_top" xlink:title=" ">
<polygon fill="white" stroke="black" points="2817.5,-73 2817.5,-103 2947.5,-103 2947.5,-73 2817.5,-73"/>
<text text-anchor="start" x="2825.5" y="-91" font-family="Helvetica,sans-Serif" font-size="10.00">C:/dev/Igor/Igor/src</text>
<text text-anchor="middle" x="2882.5" y="-80" font-family="Helvetica,sans-Serif" font-size="10.00">/Igor/src/iMeshBuffers.cpp</text>
</a>
</g>
</g>
<!-- Node22&#45;&gt;Node29 -->
<g id="edge23" class="edge"><title>Node22&#45;&gt;Node29</title>
<path fill="none" stroke="midnightblue" d="M3049.01,-142.358C3011.44,-130.32 2961.8,-114.412 2926.52,-103.107"/>
<polygon fill="midnightblue" stroke="midnightblue" points="3048.18,-145.768 3058.77,-145.487 3050.32,-139.102 3048.18,-145.768"/>
</g>
<!-- Node30 -->
<g id="node23" class="node"><title>Node30</title>
<g id="a_node23"><a xlink:href="i_mesh_builder_8cpp.html" target="_top" xlink:title=" ">
<polygon fill="white" stroke="black" points="2965.5,-73 2965.5,-103 3095.5,-103 3095.5,-73 2965.5,-73"/>
<text text-anchor="start" x="2973.5" y="-91" font-family="Helvetica,sans-Serif" font-size="10.00">C:/dev/Igor/Igor/src</text>
<text text-anchor="middle" x="3030.5" y="-80" font-family="Helvetica,sans-Serif" font-size="10.00">/Igor/src/iMeshBuilder.cpp</text>
</a>
</g>
</g>
<!-- Node22&#45;&gt;Node30 -->
<g id="edge24" class="edge"><title>Node22&#45;&gt;Node30</title>
<path fill="none" stroke="midnightblue" d="M3080.73,-138.188C3069.18,-126.873 3055.29,-113.274 3045.05,-103.246"/>
<polygon fill="midnightblue" stroke="midnightblue" points="3078.34,-140.738 3087.93,-145.233 3083.23,-135.736 3078.34,-140.738"/>
</g>
<!-- Node31 -->
<g id="node24" class="node"><title>Node31</title>
<g id="a_node24"><a xlink:href="i_node_mesh_8cpp.html" target="_top" xlink:title=" ">
<polygon fill="white" stroke="black" points="3113.5,-73 3113.5,-103 3235.5,-103 3235.5,-73 3113.5,-73"/>
<text text-anchor="start" x="3121.5" y="-91" font-family="Helvetica,sans-Serif" font-size="10.00">C:/dev/Igor/Igor/src</text>
<text text-anchor="middle" x="3174.5" y="-80" font-family="Helvetica,sans-Serif" font-size="10.00">/Igor/src/iNodeMesh.cpp</text>
</a>
</g>
</g>
<!-- Node22&#45;&gt;Node31 -->
<g id="edge25" class="edge"><title>Node22&#45;&gt;Node31</title>
<path fill="none" stroke="midnightblue" d="M3124.27,-138.188C3135.82,-126.873 3149.71,-113.274 3159.95,-103.246"/>
<polygon fill="midnightblue" stroke="midnightblue" points="3121.77,-135.736 3117.07,-145.233 3126.66,-140.738 3121.77,-135.736"/>
</g>
<!-- Node32 -->
<g id="node25" class="node"><title>Node32</title>
<g id="a_node25"><a xlink:href="i_node_model_8cpp.html" target="_top" xlink:title=" ">
<polygon fill="white" stroke="black" points="3254,-73 3254,-103 3379,-103 3379,-73 3254,-73"/>
<text text-anchor="start" x="3262" y="-91" font-family="Helvetica,sans-Serif" font-size="10.00">C:/dev/Igor/Igor/src</text>
<text text-anchor="middle" x="3316.5" y="-80" font-family="Helvetica,sans-Serif" font-size="10.00">/Igor/src/iNodeModel.cpp</text>
</a>
</g>
</g>
<!-- Node22&#45;&gt;Node32 -->
<g id="edge26" class="edge"><title>Node22&#45;&gt;Node32</title>
<path fill="none" stroke="midnightblue" d="M3155,-142.205C3191.49,-130.184 3239.51,-114.364 3273.68,-103.107"/>
<polygon fill="midnightblue" stroke="midnightblue" points="3153.44,-139.034 3145.04,-145.487 3155.63,-145.682 3153.44,-139.034"/>
</g>
<!-- Node33 -->
<g id="node26" class="node"><title>Node33</title>
<g id="a_node26"><a xlink:href="i_node_particle_system_8cpp.html" target="_top" xlink:title=" ">
<polygon fill="white" stroke="black" points="3397,-73 3397,-103 3562,-103 3562,-73 3397,-73"/>
<text text-anchor="start" x="3405" y="-91" font-family="Helvetica,sans-Serif" font-size="10.00">C:/dev/Igor/Igor/src</text>
<text text-anchor="middle" x="3479.5" y="-80" font-family="Helvetica,sans-Serif" font-size="10.00">/Igor/src/iNodeParticleSystem.cpp</text>
</a>
</g>
</g>
<!-- Node22&#45;&gt;Node33 -->
<g id="edge27" class="edge"><title>Node22&#45;&gt;Node33</title>
<path fill="none" stroke="midnightblue" d="M3164.66,-149.291C3222.68,-139.578 3311.63,-124.227 3388.5,-109 3397.86,-107.146 3407.74,-105.084 3417.4,-103.008"/>
<polygon fill="midnightblue" stroke="midnightblue" points="3163.84,-145.879 3154.55,-150.978 3164.99,-152.784 3163.84,-145.879"/>
</g>
<!-- Node34 -->
<g id="node27" class="node"><title>Node34</title>
<g id="a_node27"><a xlink:href="i_node_sky_box_8cpp.html" target="_top" xlink:title=" ">
<polygon fill="white" stroke="black" points="3580,-73 3580,-103 3713,-103 3713,-73 3580,-73"/>
<text text-anchor="start" x="3588" y="-91" font-family="Helvetica,sans-Serif" font-size="10.00">C:/dev/Igor/Igor/src</text>
<text text-anchor="middle" x="3646.5" y="-80" font-family="Helvetica,sans-Serif" font-size="10.00">/Igor/src/iNodeSkyBox.cpp</text>
</a>
</g>
</g>
<!-- Node22&#45;&gt;Node34 -->
<g id="edge28" class="edge"><title>Node22&#45;&gt;Node34</title>
<path fill="none" stroke="midnightblue" d="M3164.64,-155.853C3254.86,-149.871 3427.11,-135.862 3571.5,-109 3580.24,-107.373 3589.46,-105.256 3598.33,-103.009"/>
<polygon fill="midnightblue" stroke="midnightblue" points="3164.33,-152.365 3154.58,-156.509 3164.79,-159.351 3164.33,-152.365"/>
</g>
<!-- Node35 -->
<g id="node28" class="node"><title>Node35</title>
<g id="a_node28"><a xlink:href="i_node_visitor_render_boundings_8cpp.html" target="_top" xlink:title=" ">
<polygon fill="white" stroke="black" points="3731.5,-67.5 3731.5,-108.5 3869.5,-108.5 3869.5,-67.5 3731.5,-67.5"/>
<text text-anchor="start" x="3739.5" y="-96.5" font-family="Helvetica,sans-Serif" font-size="10.00">C:/dev/Igor/Igor/src</text>
<text text-anchor="start" x="3739.5" y="-85.5" font-family="Helvetica,sans-Serif" font-size="10.00">/Igor/src/iNodeVisitorRender</text>
<text text-anchor="middle" x="3800.5" y="-74.5" font-family="Helvetica,sans-Serif" font-size="10.00">Boundings.cpp</text>
</a>
</g>
</g>
<!-- Node22&#45;&gt;Node35 -->
<g id="edge29" class="edge"><title>Node22&#45;&gt;Node35</title>
<path fill="none" stroke="midnightblue" d="M3164.84,-157.917C3277.08,-154.293 3520.32,-142.902 3722.5,-109 3725.4,-108.515 3728.34,-107.974 3731.31,-107.391"/>
<polygon fill="midnightblue" stroke="midnightblue" points="3164.6,-154.423 3154.72,-158.234 3164.82,-161.419 3164.6,-154.423"/>
</g>
<!-- Node36 -->
<g id="node29" class="node"><title>Node36</title>
<g id="a_node29"><a xlink:href="i_node_visitor_render_color_i_d_8cpp.html" target="_top" xlink:title=" ">
<polygon fill="white" stroke="black" points="3887.5,-67.5 3887.5,-108.5 4025.5,-108.5 4025.5,-67.5 3887.5,-67.5"/>
<text text-anchor="start" x="3895.5" y="-96.5" font-family="Helvetica,sans-Serif" font-size="10.00">C:/dev/Igor/Igor/src</text>
<text text-anchor="start" x="3895.5" y="-85.5" font-family="Helvetica,sans-Serif" font-size="10.00">/Igor/src/iNodeVisitorRender</text>
<text text-anchor="middle" x="3956.5" y="-74.5" font-family="Helvetica,sans-Serif" font-size="10.00">ColorID.cpp</text>
</a>
</g>
</g>
<!-- Node22&#45;&gt;Node36 -->
<g id="edge30" class="edge"><title>Node22&#45;&gt;Node36</title>
<path fill="none" stroke="midnightblue" d="M3164.98,-159.36C3297.39,-158.205 3615.63,-150.88 3878.5,-109 3881.4,-108.538 3884.35,-108.017 3887.32,-107.451"/>
<polygon fill="midnightblue" stroke="midnightblue" points="3164.61,-155.863 3154.63,-159.441 3164.66,-162.863 3164.61,-155.863"/>
</g>
<!-- Node37 -->
<g id="node30" class="node"><title>Node37</title>
<g id="a_node30"><a xlink:href="i_node_water_8cpp.html" target="_top" xlink:title=" ">
<polygon fill="white" stroke="black" points="4044,-73 4044,-103 4169,-103 4169,-73 4044,-73"/>
<text text-anchor="start" x="4052" y="-91" font-family="Helvetica,sans-Serif" font-size="10.00">C:/dev/Igor/Igor/src</text>
<text text-anchor="middle" x="4106.5" y="-80" font-family="Helvetica,sans-Serif" font-size="10.00">/Igor/src/iNodeWater.cpp</text>
</a>
</g>
</g>
<!-- Node22&#45;&gt;Node37 -->
<g id="edge31" class="edge"><title>Node22&#45;&gt;Node37</title>
<path fill="none" stroke="midnightblue" d="M3164.63,-157.891C3344.95,-152.942 3866.27,-136.588 4034.5,-109 4043.46,-107.53 4052.91,-105.369 4061.9,-103.004"/>
<polygon fill="midnightblue" stroke="midnightblue" points="3164.42,-154.395 3154.52,-158.166 3164.61,-161.393 3164.42,-154.395"/>
</g>
<!-- Node38 -->
<g id="node31" class="node"><title>Node38</title>
<g id="a_node31"><a xlink:href="i_physics_8cpp.html" target="_top" xlink:title=" ">
<polygon fill="white" stroke="black" points="4187,-73 4187,-103 4298,-103 4298,-73 4187,-73"/>
<text text-anchor="start" x="4195" y="-91" font-family="Helvetica,sans-Serif" font-size="10.00">C:/dev/Igor/Igor/src</text>
<text text-anchor="middle" x="4242.5" y="-80" font-family="Helvetica,sans-Serif" font-size="10.00">/Igor/src/iPhysics.cpp</text>
</a>
</g>
</g>
<!-- Node22&#45;&gt;Node38 -->
<g id="edge33" class="edge"><title>Node22&#45;&gt;Node38</title>
<path fill="none" stroke="midnightblue" d="M3164.87,-158.666C3363.81,-155.678 3981.75,-143.765 4178.5,-109 4186.52,-107.582 4194.95,-105.444 4202.95,-103.086"/>
<polygon fill="midnightblue" stroke="midnightblue" points="3164.55,-155.171 3154.6,-158.818 3164.65,-162.17 3164.55,-155.171"/>
</g>
<!-- Node39 -->
<g id="node32" class="node"><title>Node39</title>
<g id="a_node32"><a xlink:href="i_renderer_8cpp.html" target="_top" xlink:title=" ">
<polygon fill="white" stroke="black" points="4316,-73 4316,-103 4431,-103 4431,-73 4316,-73"/>
<text text-anchor="start" x="4324" y="-91" font-family="Helvetica,sans-Serif" font-size="10.00">C:/dev/Igor/Igor/src</text>
<text text-anchor="middle" x="4373.5" y="-80" font-family="Helvetica,sans-Serif" font-size="10.00">/Igor/src/iRenderer.cpp</text>
</a>
</g>
</g>
<!-- Node22&#45;&gt;Node39 -->
<g id="edge35" class="edge"><title>Node22&#45;&gt;Node39</title>
<path fill="none" stroke="midnightblue" d="M3164.98,-158.96C3379.41,-156.78 4084.46,-146.841 4307.5,-109 4315.88,-107.578 4324.69,-105.406 4333.04,-103.01"/>
<polygon fill="midnightblue" stroke="midnightblue" points="3164.81,-155.461 3154.84,-159.061 3164.88,-162.461 3164.81,-155.461"/>
</g>
<!-- Node40 -->
<g id="node33" class="node"><title>Node40</title>
<g id="a_node33"><a xlink:href="i_shader_8cpp.html" target="_top" xlink:title=" ">
<polygon fill="white" stroke="black" points="4449,-73 4449,-103 4556,-103 4556,-73 4449,-73"/>
<text text-anchor="start" x="4457" y="-91" font-family="Helvetica,sans-Serif" font-size="10.00">C:/dev/Igor/Igor/src</text>
<text text-anchor="middle" x="4502.5" y="-80" font-family="Helvetica,sans-Serif" font-size="10.00">/Igor/src/iShader.cpp</text>
</a>
</g>
</g>
<!-- Node22&#45;&gt;Node40 -->
<g id="edge36" class="edge"><title>Node22&#45;&gt;Node40</title>
<path fill="none" stroke="midnightblue" d="M3164.84,-159.409C3394.19,-158.722 4190.68,-153.141 4440.5,-109 4448.41,-107.603 4456.7,-105.442 4464.55,-103.049"/>
<polygon fill="midnightblue" stroke="midnightblue" points="3164.66,-155.909 3154.67,-159.437 3164.68,-162.909 3164.66,-155.909"/>
</g>
<!-- Node41 -->
<g id="node34" class="node"><title>Node41</title>
<g id="a_node34"><a xlink:href="i_sky_light_node_8cpp.html" target="_top" xlink:title=" ">
<polygon fill="white" stroke="black" points="4574,-73 4574,-103 4711,-103 4711,-73 4574,-73"/>
<text text-anchor="start" x="4582" y="-91" font-family="Helvetica,sans-Serif" font-size="10.00">C:/dev/Igor/Igor/src</text>
<text text-anchor="middle" x="4642.5" y="-80" font-family="Helvetica,sans-Serif" font-size="10.00">/Igor/src/iSkyLightNode.cpp</text>
</a>
</g>
</g>
<!-- Node22&#45;&gt;Node41 -->
<g id="edge37" class="edge"><title>Node22&#45;&gt;Node41</title>
<path fill="none" stroke="midnightblue" d="M3164.86,-159.169C3407.51,-157.6 4288.89,-149.198 4565.5,-109 4575.2,-107.59 4585.45,-105.423 4595.19,-103.029"/>
<polygon fill="midnightblue" stroke="midnightblue" points="3164.78,-155.67 3154.8,-159.233 3164.82,-162.67 3164.78,-155.67"/>
</g>
<!-- Node42 -->
<g id="node35" class="node"><title>Node42</title>
<g id="a_node35"><a xlink:href="i_sound_resource_factory_8cpp.html" target="_top" xlink:title=" ">
<polygon fill="white" stroke="black" points="4729.5,-73 4729.5,-103 4907.5,-103 4907.5,-73 4729.5,-73"/>
<text text-anchor="start" x="4737.5" y="-91" font-family="Helvetica,sans-Serif" font-size="10.00">C:/dev/Igor/Igor/src</text>
<text text-anchor="middle" x="4818.5" y="-80" font-family="Helvetica,sans-Serif" font-size="10.00">/Igor/src/iSoundResourceFactory.cpp</text>
</a>
</g>
</g>
<!-- Node22&#45;&gt;Node42 -->
<g id="edge38" class="edge"><title>Node22&#45;&gt;Node42</title>
<path fill="none" stroke="midnightblue" d="M3164.84,-158.973C3423.21,-156.568 4410.93,-145.153 4720.5,-109 4732.66,-107.58 4745.55,-105.425 4757.86,-103.048"/>
<polygon fill="midnightblue" stroke="midnightblue" points="3164.49,-155.476 3154.52,-159.068 3164.55,-162.475 3164.49,-155.476"/>
</g>
<!-- Node43 -->
<g id="node36" class="node"><title>Node43</title>
<g id="a_node36"><a xlink:href="i_statistics_visualizer_8cpp.html" target="_top" xlink:title=" ">
<polygon fill="white" stroke="black" points="4925.5,-73 4925.5,-103 5085.5,-103 5085.5,-73 4925.5,-73"/>
<text text-anchor="start" x="4933.5" y="-91" font-family="Helvetica,sans-Serif" font-size="10.00">C:/dev/Igor/Igor/src</text>
<text text-anchor="middle" x="5005.5" y="-80" font-family="Helvetica,sans-Serif" font-size="10.00">/Igor/src/iStatisticsVisualizer.cpp</text>
</a>
</g>
</g>
<!-- Node22&#45;&gt;Node43 -->
<g id="edge39" class="edge"><title>Node22&#45;&gt;Node43</title>
<path fill="none" stroke="midnightblue" d="M3164.97,-159.38C3442.66,-158.6 4566.76,-152.747 4916.5,-109 4927.66,-107.604 4939.47,-105.445 4950.72,-103.052"/>
<polygon fill="midnightblue" stroke="midnightblue" points="3164.67,-155.881 3154.68,-159.408 3164.69,-162.881 3164.67,-155.881"/>
</g>
<!-- Node44 -->
<g id="node37" class="node"><title>Node44</title>
<g id="a_node37"><a xlink:href="i_texture_resource_factory_8cpp.html" target="_top" xlink:title=" ">
<polygon fill="white" stroke="black" points="5103.5,-73 5103.5,-103 5285.5,-103 5285.5,-73 5103.5,-73"/>
<text text-anchor="start" x="5111.5" y="-91" font-family="Helvetica,sans-Serif" font-size="10.00">C:/dev/Igor/Igor/src</text>
<text text-anchor="middle" x="5194.5" y="-80" font-family="Helvetica,sans-Serif" font-size="10.00">/Igor/src/iTextureResourceFactory.cpp</text>
</a>
</g>
</g>
<!-- Node22&#45;&gt;Node44 -->
<g id="edge40" class="edge"><title>Node22&#45;&gt;Node44</title>
<path fill="none" stroke="midnightblue" d="M3164.75,-159.364C3458.42,-158.504 4707.16,-152.318 5094.5,-109 5106.99,-107.603 5120.25,-105.442 5132.88,-103.049"/>
<polygon fill="midnightblue" stroke="midnightblue" points="3164.7,-155.864 3154.71,-159.393 3164.72,-162.864 3164.7,-155.864"/>
</g>
<!-- Node45 -->
<g id="node38" class="node"><title>Node45</title>
<g id="a_node38"><a xlink:href="i_widget_default_theme_8cpp.html" target="_top" xlink:title=" ">
<polygon fill="white" stroke="black" points="5303.5,-73 5303.5,-103 5469.5,-103 5469.5,-73 5303.5,-73"/>
<text text-anchor="start" x="5311.5" y="-91" font-family="Helvetica,sans-Serif" font-size="10.00">C:/dev/Igor/Igor/src</text>
<text text-anchor="middle" x="5386.5" y="-80" font-family="Helvetica,sans-Serif" font-size="10.00">/Igor/src/iWidgetDefaultTheme.cpp</text>
</a>
</g>
</g>
<!-- Node22&#45;&gt;Node45 -->
<g id="edge44" class="edge"><title>Node22&#45;&gt;Node45</title>
<path fill="none" stroke="midnightblue" d="M3164.82,-159.671C3476.26,-160.283 4865.87,-160.053 5294.5,-109 5306.02,-107.627 5318.23,-105.478 5329.86,-103.088"/>
<polygon fill="midnightblue" stroke="midnightblue" points="3164.64,-156.171 3154.63,-159.65 3164.62,-163.171 3164.64,-156.171"/>
</g>
<!-- Node46 -->
<g id="node39" class="node"><title>Node46</title>
<g id="a_node39"><a xlink:href="i_widget_scroll_8cpp.html" target="_top" xlink:title=" ">
<polygon fill="white" stroke="black" points="5488,-73 5488,-103 5619,-103 5619,-73 5488,-73"/>
<text text-anchor="start" x="5496" y="-91" font-family="Helvetica,sans-Serif" font-size="10.00">C:/dev/Igor/Igor/src</text>
<text text-anchor="middle" x="5553.5" y="-80" font-family="Helvetica,sans-Serif" font-size="10.00">/Igor/src/iWidgetScroll.cpp</text>
</a>
</g>
</g>
<!-- Node22&#45;&gt;Node46 -->
<g id="edge46" class="edge"><title>Node22&#45;&gt;Node46</title>
<path fill="none" stroke="midnightblue" d="M3164.97,-159.066C3516.82,-156.5 5243.88,-142.285 5478.5,-109 5488.11,-107.637 5498.24,-105.459 5507.85,-103.032"/>
<polygon fill="midnightblue" stroke="midnightblue" points="3164.7,-155.567 3154.72,-159.14 3164.75,-162.567 3164.7,-155.567"/>
</g>
<!-- Node47 -->
<g id="node40" class="node"><title>Node47</title>
<g id="a_node40"><a xlink:href="i_window_8cpp.html" target="_top" xlink:title=" ">
<polygon fill="white" stroke="black" points="5637.5,-73 5637.5,-103 5747.5,-103 5747.5,-73 5637.5,-73"/>
<text text-anchor="start" x="5645.5" y="-91" font-family="Helvetica,sans-Serif" font-size="10.00">C:/dev/Igor/Igor/src</text>
<text text-anchor="middle" x="5692.5" y="-80" font-family="Helvetica,sans-Serif" font-size="10.00">/Igor/src/iWindow.cpp</text>
</a>
</g>
</g>
<!-- Node22&#45;&gt;Node47 -->
<g id="edge47" class="edge"><title>Node22&#45;&gt;Node47</title>
<path fill="none" stroke="midnightblue" d="M3164.82,-159.308C3529.43,-158.041 5378.92,-149.645 5628.5,-109 5636.77,-107.653 5645.45,-105.481 5653.66,-103.056"/>
<polygon fill="midnightblue" stroke="midnightblue" points="3164.7,-155.808 3154.71,-159.342 3164.73,-162.808 3164.7,-155.808"/>
</g>
<!-- Node48 -->
<g id="node41" class="node"><title>Node48</title>
<g id="a_node41"><a xlink:href="_manipulator_8cpp.html" target="_top" xlink:title=" ">
<polygon fill="white" stroke="black" points="5765.5,-67.5 5765.5,-108.5 5883.5,-108.5 5883.5,-67.5 5765.5,-67.5"/>
<text text-anchor="start" x="5773.5" y="-96.5" font-family="Helvetica,sans-Serif" font-size="10.00">C:/dev/Igor/Igor/src</text>
<text text-anchor="start" x="5773.5" y="-85.5" font-family="Helvetica,sans-Serif" font-size="10.00">/Tools/ModelViewer/src</text>
<text text-anchor="middle" x="5824.5" y="-74.5" font-family="Helvetica,sans-Serif" font-size="10.00">/Manipulator.cpp</text>
</a>
</g>
</g>
<!-- Node22&#45;&gt;Node48 -->
<g id="edge48" class="edge"><title>Node22&#45;&gt;Node48</title>
<path fill="none" stroke="midnightblue" d="M3164.63,-159.311C3539.58,-158.037 5493.14,-149.487 5756.5,-109 5759.42,-108.551 5762.39,-108.011 5765.37,-107.4"/>
<polygon fill="midnightblue" stroke="midnightblue" points="3164.51,-155.811 3154.52,-159.345 3164.53,-162.811 3164.51,-155.811"/>
</g>
<!-- Node49 -->
<g id="node42" class="node"><title>Node49</title>
<g id="a_node42"><a xlink:href="_model_viewer_8cpp.html" target="_top" xlink:title=" ">
<polygon fill="white" stroke="black" points="5901.5,-67.5 5901.5,-108.5 6019.5,-108.5 6019.5,-67.5 5901.5,-67.5"/>
<text text-anchor="start" x="5909.5" y="-96.5" font-family="Helvetica,sans-Serif" font-size="10.00">C:/dev/Igor/Igor/src</text>
<text text-anchor="start" x="5909.5" y="-85.5" font-family="Helvetica,sans-Serif" font-size="10.00">/Tools/ModelViewer/src</text>
<text text-anchor="middle" x="5960.5" y="-74.5" font-family="Helvetica,sans-Serif" font-size="10.00">/ModelViewer.cpp</text>
</a>
</g>
</g>
<!-- Node22&#45;&gt;Node49 -->
<g id="edge49" class="edge"><title>Node22&#45;&gt;Node49</title>
<path fill="none" stroke="midnightblue" d="M3164.71,-159.373C3551.05,-158.449 5614.9,-151.545 5892.5,-109 5895.42,-108.553 5898.39,-108.013 5901.37,-107.403"/>
<polygon fill="midnightblue" stroke="midnightblue" points="3164.56,-155.873 3154.57,-159.396 3164.57,-162.873 3164.56,-155.873"/>
</g>
<!-- Node50 -->
<g id="node43" class="node"><title>Node50</title>
<g id="a_node43"><a xlink:href="_user_control_material_8cpp.html" target="_top" xlink:title=" ">
<polygon fill="white" stroke="black" points="1393.5,-67.5 1393.5,-108.5 1517.5,-108.5 1517.5,-67.5 1393.5,-67.5"/>
<text text-anchor="start" x="1401.5" y="-96.5" font-family="Helvetica,sans-Serif" font-size="10.00">C:/dev/Igor/Igor/src</text>
<text text-anchor="start" x="1401.5" y="-85.5" font-family="Helvetica,sans-Serif" font-size="10.00">/Tools/ModelViewer/src</text>
<text text-anchor="middle" x="1455.5" y="-74.5" font-family="Helvetica,sans-Serif" font-size="10.00">/UserControlMaterial.cpp</text>
</a>
</g>
</g>
<!-- Node22&#45;&gt;Node50 -->
<g id="edge50" class="edge"><title>Node22&#45;&gt;Node50</title>
<path fill="none" stroke="midnightblue" d="M3040.01,-159.518C2785.43,-159.277 1825.86,-155.256 1526.5,-109 1523.59,-108.55 1520.63,-108.02 1517.65,-107.427"/>
<polygon fill="midnightblue" stroke="midnightblue" points="3040.18,-163.018 3050.18,-159.525 3040.19,-156.018 3040.18,-163.018"/>
</g>
<!-- Node51 -->
<g id="node44" class="node"><title>Node51</title>
<g id="a_node44"><a xlink:href="_widget3_d_emitter_8cpp.html" target="_top" xlink:title=" ">
<polygon fill="white" stroke="black" points="1535.5,-67.5 1535.5,-108.5 1653.5,-108.5 1653.5,-67.5 1535.5,-67.5"/>
<text text-anchor="start" x="1543.5" y="-96.5" font-family="Helvetica,sans-Serif" font-size="10.00">C:/dev/Igor/Igor/src</text>
<text text-anchor="start" x="1543.5" y="-85.5" font-family="Helvetica,sans-Serif" font-size="10.00">/Tools/ModelViewer/src</text>
<text text-anchor="middle" x="1594.5" y="-74.5" font-family="Helvetica,sans-Serif" font-size="10.00">/Widget3DEmitter.cpp</text>
</a>
</g>
</g>
<!-- Node22&#45;&gt;Node51 -->
<g id="edge51" class="edge"><title>Node22&#45;&gt;Node51</title>
<path fill="none" stroke="midnightblue" d="M3039.92,-159.391C2799.3,-158.647 1933.65,-152.912 1662.5,-109 1659.58,-108.528 1656.62,-107.968 1653.64,-107.342"/>
<polygon fill="midnightblue" stroke="midnightblue" points="3040.22,-162.892 3050.23,-159.421 3040.24,-155.892 3040.22,-162.892"/>
</g>
<!-- Node52 -->
<g id="node45" class="node"><title>Node52</title>
<g id="a_node45"><a xlink:href="_widget3_d_locator_8cpp.html" target="_top" xlink:title=" ">
<polygon fill="white" stroke="black" points="1671.5,-67.5 1671.5,-108.5 1789.5,-108.5 1789.5,-67.5 1671.5,-67.5"/>
<text text-anchor="start" x="1679.5" y="-96.5" font-family="Helvetica,sans-Serif" font-size="10.00">C:/dev/Igor/Igor/src</text>
<text text-anchor="start" x="1679.5" y="-85.5" font-family="Helvetica,sans-Serif" font-size="10.00">/Tools/ModelViewer/src</text>
<text text-anchor="middle" x="1730.5" y="-74.5" font-family="Helvetica,sans-Serif" font-size="10.00">/Widget3DLocator.cpp</text>
</a>
</g>
</g>
<!-- Node22&#45;&gt;Node52 -->
<g id="edge52" class="edge"><title>Node22&#45;&gt;Node52</title>
<path fill="none" stroke="midnightblue" d="M3040.25,-159.126C2814.88,-157.455 2041.95,-148.883 1798.5,-109 1795.59,-108.523 1792.62,-107.959 1789.64,-107.329"/>
<polygon fill="midnightblue" stroke="midnightblue" points="3040.23,-162.626 3050.25,-159.198 3040.28,-155.626 3040.23,-162.626"/>
</g>
<!-- Node53 -->
<g id="node46" class="node"><title>Node53</title>
<g id="a_node46"><a xlink:href="_o_b_j2_o_m_p_f_8cpp.html" target="_top" xlink:title=" ">
<polygon fill="white" stroke="black" points="1808,-73 1808,-103 1997,-103 1997,-73 1808,-73"/>
<text text-anchor="start" x="1816" y="-91" font-family="Helvetica,sans-Serif" font-size="10.00">C:/dev/Igor/Igor/src</text>
<text text-anchor="middle" x="1902.5" y="-80" font-family="Helvetica,sans-Serif" font-size="10.00">/Tools/OBJ2OMPF/src/OBJ2OMPF.cpp</text>
</a>
</g>
</g>
<!-- Node22&#45;&gt;Node53 -->
<g id="edge53" class="edge"><title>Node22&#45;&gt;Node53</title>
<path fill="none" stroke="midnightblue" d="M3040.25,-159.76C2872.6,-159.787 2397.89,-155.407 2006.5,-109 1993.9,-107.506 1980.54,-105.365 1967.74,-103.033"/>
<polygon fill="midnightblue" stroke="midnightblue" points="3040.37,-163.26 3050.37,-159.753 3040.37,-156.26 3040.37,-163.26"/>
</g>
</g>
</svg>
