<?xml version="1.0" encoding="UTF-8" standalone="no"?>
<!DOCTYPE svg PUBLIC "-//W3C//DTD SVG 1.1//EN"
 "http://www.w3.org/Graphics/SVG/1.1/DTD/svg11.dtd">
<!-- Generated by graphviz version 2.38.0 (20140413.2041)
 -->
<!-- Title: C:/dev/Igor/src/Igor/src/iApplication.h Pages: 1 -->
<svg width="1633pt" height="117pt"
 viewBox="0.00 0.00 1632.50 117.00" xmlns="http://www.w3.org/2000/svg" xmlns:xlink="http://www.w3.org/1999/xlink">
<g id="graph0" class="graph" transform="scale(1 1) rotate(0) translate(4 113)">
<title>C:/dev/Igor/src/Igor/src/iApplication.h</title>
<polygon fill="white" stroke="none" points="-4,4 -4,-113 1628.5,-113 1628.5,4 -4,4"/>
<!-- Node1 -->
<g id="node1" class="node"><title>Node1</title>
<polygon fill="#bfbfbf" stroke="black" points="722.5,-78.5 722.5,-108.5 820.5,-108.5 820.5,-78.5 722.5,-78.5"/>
<text text-anchor="start" x="730.5" y="-96.5" font-family="Helvetica,sans-Serif" font-size="10.00">C:/dev/Igor/src/Igor</text>
<text text-anchor="middle" x="771.5" y="-85.5" font-family="Helvetica,sans-Serif" font-size="10.00">/src/iApplication.h</text>
</g>
<!-- Node2 -->
<g id="node2" class="node"><title>Node2</title>
<g id="a_node2"><a xlink:href="i_application_8cpp.html" target="_top" xlink:title="C:/dev/Igor/src/Igor\l/src/iApplication.cpp">
<polygon fill="white" stroke="black" points="0,-6 0,-36 105,-36 105,-6 0,-6"/>
<text text-anchor="start" x="8" y="-24" font-family="Helvetica,sans-Serif" font-size="10.00">C:/dev/Igor/src/Igor</text>
<text text-anchor="middle" x="52.5" y="-13" font-family="Helvetica,sans-Serif" font-size="10.00">/src/iApplication.cpp</text>
</a>
</g>
</g>
<!-- Node1&#45;&gt;Node2 -->
<g id="edge1" class="edge"><title>Node1&#45;&gt;Node2</title>
<path fill="none" stroke="midnightblue" d="M712.257,-92.5873C596.335,-91.7407 331.868,-84.7917 114.5,-42 106.843,-40.4926 98.8095,-38.3449 91.1587,-36.0115"/>
<polygon fill="midnightblue" stroke="midnightblue" points="712.32,-96.0877 722.341,-92.6481 712.363,-89.0878 712.32,-96.0877"/>
</g>
<!-- Node3 -->
<g id="node3" class="node"><title>Node3</title>
<g id="a_node3"><a xlink:href="_igor_8cpp.html" target="_top" xlink:title="C:/dev/Igor/src/Igor\l/src/Igor.cpp">
<polygon fill="white" stroke="black" points="123.5,-6 123.5,-36 221.5,-36 221.5,-6 123.5,-6"/>
<text text-anchor="start" x="131.5" y="-24" font-family="Helvetica,sans-Serif" font-size="10.00">C:/dev/Igor/src/Igor</text>
<text text-anchor="middle" x="172.5" y="-13" font-family="Helvetica,sans-Serif" font-size="10.00">/src/Igor.cpp</text>
</a>
</g>
</g>
<!-- Node1&#45;&gt;Node3 -->
<g id="edge2" class="edge"><title>Node1&#45;&gt;Node3</title>
<path fill="none" stroke="midnightblue" d="M712.177,-91.5777C611.865,-88.9955 402.825,-79.1927 230.5,-42 223.42,-40.472 216.009,-38.3446 208.943,-36.044"/>
<polygon fill="midnightblue" stroke="midnightblue" points="712.33,-95.0823 722.412,-91.8256 712.499,-88.0844 712.33,-95.0823"/>
</g>
<!-- Node4 -->
<g id="node4" class="node"><title>Node4</title>
<g id="a_node4"><a xlink:href="i_node_factory_8cpp.html" target="_top" xlink:title="C:/dev/Igor/src/Igor\l/src/iNodeFactory.cpp">
<polygon fill="white" stroke="black" points="240,-6 240,-36 353,-36 353,-6 240,-6"/>
<text text-anchor="start" x="248" y="-24" font-family="Helvetica,sans-Serif" font-size="10.00">C:/dev/Igor/src/Igor</text>
<text text-anchor="middle" x="296.5" y="-13" font-family="Helvetica,sans-Serif" font-size="10.00">/src/iNodeFactory.cpp</text>
</a>
</g>
</g>
<!-- Node1&#45;&gt;Node4 -->
<g id="edge3" class="edge"><title>Node1&#45;&gt;Node4</title>
<path fill="none" stroke="midnightblue" d="M711.878,-88.3581C631.769,-82.0628 485.256,-67.9775 362.5,-42 354.886,-40.3888 346.884,-38.3064 339.181,-36.096"/>
<polygon fill="midnightblue" stroke="midnightblue" points="712.019,-91.8793 722.259,-89.1593 712.558,-84.9001 712.019,-91.8793"/>
</g>
<!-- Node5 -->
<g id="node5" class="node"><title>Node5</title>
<g id="a_node5"><a xlink:href="i_node_particle_system_8cpp.html" target="_top" xlink:title="C:/dev/Igor/src/Igor\l/src/iNodeParticleSystem.cpp">
<polygon fill="white" stroke="black" points="371.5,-6 371.5,-36 517.5,-36 517.5,-6 371.5,-6"/>
<text text-anchor="start" x="379.5" y="-24" font-family="Helvetica,sans-Serif" font-size="10.00">C:/dev/Igor/src/Igor</text>
<text text-anchor="middle" x="444.5" y="-13" font-family="Helvetica,sans-Serif" font-size="10.00">/src/iNodeParticleSystem.cpp</text>
</a>
</g>
</g>
<!-- Node1&#45;&gt;Node5 -->
<g id="edge4" class="edge"><title>Node1&#45;&gt;Node5</title>
<path fill="none" stroke="midnightblue" d="M712.183,-80.8942C662.485,-71.0218 589.725,-56.2215 526.5,-42 518.208,-40.1349 509.464,-38.0883 500.899,-36.0382"/>
<polygon fill="midnightblue" stroke="midnightblue" points="711.625,-84.3518 722.115,-82.8627 712.986,-77.4853 711.625,-84.3518"/>
</g>
<!-- Node6 -->
<g id="node6" class="node"><title>Node6</title>
<g id="a_node6"><a xlink:href="i_physics_8cpp.html" target="_top" xlink:title="C:/dev/Igor/src/Igor\l/src/iPhysics.cpp">
<polygon fill="white" stroke="black" points="535.5,-6 535.5,-36 633.5,-36 633.5,-6 535.5,-6"/>
<text text-anchor="start" x="543.5" y="-24" font-family="Helvetica,sans-Serif" font-size="10.00">C:/dev/Igor/src/Igor</text>
<text text-anchor="middle" x="584.5" y="-13" font-family="Helvetica,sans-Serif" font-size="10.00">/src/iPhysics.cpp</text>
</a>
</g>
</g>
<!-- Node1&#45;&gt;Node6 -->
<g id="edge5" class="edge"><title>Node1&#45;&gt;Node6</title>
<path fill="none" stroke="midnightblue" d="M724.577,-74.8098C692.794,-62.8275 651.368,-47.2096 621.828,-36.0729"/>
<polygon fill="midnightblue" stroke="midnightblue" points="723.515,-78.15 734.107,-78.4027 725.985,-71.6 723.515,-78.15"/>
</g>
<!-- Node7 -->
<g id="node7" class="node"><title>Node7</title>
<g id="a_node7"><a xlink:href="i_task_manager_8cpp.html" target="_top" xlink:title="C:/dev/Igor/src/Igor\l/src/iTaskManager.cpp">
<polygon fill="white" stroke="black" points="651.5,-6 651.5,-36 767.5,-36 767.5,-6 651.5,-6"/>
<text text-anchor="start" x="659.5" y="-24" font-family="Helvetica,sans-Serif" font-size="10.00">C:/dev/Igor/src/Igor</text>
<text text-anchor="middle" x="709.5" y="-13" font-family="Helvetica,sans-Serif" font-size="10.00">/src/iTaskManager.cpp</text>
</a>
</g>
</g>
<!-- Node1&#45;&gt;Node7 -->
<g id="edge6" class="edge"><title>Node1&#45;&gt;Node7</title>
<path fill="none" stroke="midnightblue" d="M752.187,-70.5389C742.352,-59.3562 730.679,-46.0831 722.028,-36.2455"/>
<polygon fill="midnightblue" stroke="midnightblue" points="749.721,-73.0354 758.953,-78.2333 754.978,-68.4126 749.721,-73.0354"/>
</g>
<!-- Node8 -->
<g id="node8" class="node"><title>Node8</title>
<g id="a_node8"><a xlink:href="i_timer_8cpp.html" target="_top" xlink:title="C:/dev/Igor/src/Igor\l/src/iTimer.cpp">
<polygon fill="white" stroke="black" points="785.5,-6 785.5,-36 883.5,-36 883.5,-6 785.5,-6"/>
<text text-anchor="start" x="793.5" y="-24" font-family="Helvetica,sans-Serif" font-size="10.00">C:/dev/Igor/src/Igor</text>
<text text-anchor="middle" x="834.5" y="-13" font-family="Helvetica,sans-Serif" font-size="10.00">/src/iTimer.cpp</text>
</a>
</g>
</g>
<!-- Node1&#45;&gt;Node8 -->
<g id="edge7" class="edge"><title>Node1&#45;&gt;Node8</title>
<path fill="none" stroke="midnightblue" d="M791.125,-70.5389C801.118,-59.3562 812.979,-46.0831 821.77,-36.2455"/>
<polygon fill="midnightblue" stroke="midnightblue" points="788.303,-68.4445 784.249,-78.2333 793.522,-73.1089 788.303,-68.4445"/>
</g>
<!-- Node9 -->
<g id="node9" class="node"><title>Node9</title>
<g id="a_node9"><a xlink:href="i_voxel_terrain_8cpp.html" target="_top" xlink:title="C:/dev/Igor/src/Igor\l/src/iVoxelTerrain.cpp">
<polygon fill="white" stroke="black" points="902,-6 902,-36 1013,-36 1013,-6 902,-6"/>
<text text-anchor="start" x="910" y="-24" font-family="Helvetica,sans-Serif" font-size="10.00">C:/dev/Igor/src/Igor</text>
<text text-anchor="middle" x="957.5" y="-13" font-family="Helvetica,sans-Serif" font-size="10.00">/src/iVoxelTerrain.cpp</text>
</a>
</g>
</g>
<!-- Node1&#45;&gt;Node9 -->
<g id="edge8" class="edge"><title>Node1&#45;&gt;Node9</title>
<path fill="none" stroke="midnightblue" d="M818.172,-74.8098C849.785,-62.8275 890.99,-47.2096 920.372,-36.0729"/>
<polygon fill="midnightblue" stroke="midnightblue" points="816.803,-71.5856 808.693,-78.4027 819.284,-78.1312 816.803,-71.5856"/>
</g>
<!-- Node10 -->
<g id="node10" class="node"><title>Node10</title>
<g id="a_node10"><a xlink:href="i_widget_manager_8cpp.html" target="_top" xlink:title="C:/dev/Igor/src/Igor\l/src/iWidgetManager.cpp">
<polygon fill="white" stroke="black" points="1031,-6 1031,-36 1156,-36 1156,-6 1031,-6"/>
<text text-anchor="start" x="1039" y="-24" font-family="Helvetica,sans-Serif" font-size="10.00">C:/dev/Igor/src/Igor</text>
<text text-anchor="middle" x="1093.5" y="-13" font-family="Helvetica,sans-Serif" font-size="10.00">/src/iWidgetManager.cpp</text>
</a>
</g>
</g>
<!-- Node1&#45;&gt;Node10 -->
<g id="edge9" class="edge"><title>Node1&#45;&gt;Node10</title>
<path fill="none" stroke="midnightblue" d="M830.671,-81.9094C881.711,-72.461 957.277,-57.7235 1022.5,-42 1029.97,-40.1993 1037.84,-38.144 1045.51,-36.0524"/>
<polygon fill="midnightblue" stroke="midnightblue" points="830.001,-78.4738 820.8,-83.7272 831.269,-85.358 830.001,-78.4738"/>
</g>
<!-- Node11 -->
<g id="node11" class="node"><title>Node11</title>
<g id="a_node11"><a xlink:href="i_window_8cpp.html" target="_top" xlink:title="C:/dev/Igor/src/Igor\l/src/iWindow.cpp">
<polygon fill="white" stroke="black" points="1174.5,-6 1174.5,-36 1272.5,-36 1272.5,-6 1174.5,-6"/>
<text text-anchor="start" x="1182.5" y="-24" font-family="Helvetica,sans-Serif" font-size="10.00">C:/dev/Igor/src/Igor</text>
<text text-anchor="middle" x="1223.5" y="-13" font-family="Helvetica,sans-Serif" font-size="10.00">/src/iWindow.cpp</text>
</a>
</g>
</g>
<!-- Node1&#45;&gt;Node11 -->
<g id="edge10" class="edge"><title>Node1&#45;&gt;Node11</title>
<path fill="none" stroke="midnightblue" d="M830.672,-88.7053C908.341,-82.8653 1048.54,-69.3572 1165.5,-42 1172.35,-40.3989 1179.52,-38.2941 1186.39,-36.0516"/>
<polygon fill="midnightblue" stroke="midnightblue" points="830.313,-85.2222 820.596,-89.4461 830.826,-92.2034 830.313,-85.2222"/>
</g>
<!-- Node12 -->
<g id="node12" class="node"><title>Node12</title>
<g id="a_node12"><a xlink:href="_model_viewer_8cpp.html" target="_top" xlink:title="C:/dev/Igor/src/Tools\l/ModelViewer/src/ModelViewer.cpp">
<polygon fill="white" stroke="black" points="1291,-6 1291,-36 1460,-36 1460,-6 1291,-6"/>
<text text-anchor="start" x="1299" y="-24" font-family="Helvetica,sans-Serif" font-size="10.00">C:/dev/Igor/src/Tools</text>
<text text-anchor="middle" x="1375.5" y="-13" font-family="Helvetica,sans-Serif" font-size="10.00">/ModelViewer/src/ModelViewer.cpp</text>
</a>
</g>
</g>
<!-- Node1&#45;&gt;Node12 -->
<g id="edge11" class="edge"><title>Node1&#45;&gt;Node12</title>
<path fill="none" stroke="midnightblue" d="M830.626,-88.7844C925.934,-82.3157 1119.27,-67.2116 1281.5,-42 1292.22,-40.3346 1303.55,-38.2256 1314.5,-36.0056"/>
<polygon fill="midnightblue" stroke="midnightblue" points="830.347,-85.2951 820.604,-89.4572 830.816,-92.2794 830.347,-85.2951"/>
</g>
<!-- Node13 -->
<g id="node13" class="node"><title>Node13</title>
<g id="a_node13"><a xlink:href="_user_control_particle_system_8cpp.html" target="_top" xlink:title="C:/dev/Igor/src/Tools\l/ModelViewer/src/UserControl\lParticleSystem.cpp">
<polygon fill="white" stroke="black" points="1478.5,-0.5 1478.5,-41.5 1624.5,-41.5 1624.5,-0.5 1478.5,-0.5"/>
<text text-anchor="start" x="1486.5" y="-29.5" font-family="Helvetica,sans-Serif" font-size="10.00">C:/dev/Igor/src/Tools</text>
<text text-anchor="start" x="1486.5" y="-18.5" font-family="Helvetica,sans-Serif" font-size="10.00">/ModelViewer/src/UserControl</text>
<text text-anchor="middle" x="1551.5" y="-7.5" font-family="Helvetica,sans-Serif" font-size="10.00">ParticleSystem.cpp</text>
</a>
</g>
</g>
<!-- Node1&#45;&gt;Node13 -->
<g id="edge12" class="edge"><title>Node1&#45;&gt;Node13</title>
<path fill="none" stroke="midnightblue" d="M831.066,-91.5364C952.077,-88.8443 1235.08,-78.804 1469.5,-42 1472.4,-41.5455 1475.34,-41.0399 1478.3,-40.494"/>
<polygon fill="midnightblue" stroke="midnightblue" points="830.826,-88.0407 820.903,-91.7536 830.976,-95.0391 830.826,-88.0407"/>
</g>
</g>
</svg>
