<?xml version="1.0" encoding="UTF-8" standalone="no"?>
<!DOCTYPE svg PUBLIC "-//W3C//DTD SVG 1.1//EN"
 "http://www.w3.org/Graphics/SVG/1.1/DTD/svg11.dtd">
<!-- Generated by graphviz version 2.38.0 (20140413.2041)
 -->
<!-- Title: C:/dev/Igor/Igor/src/Igor/src/iBone.cpp Pages: 1 -->
<svg width="603pt" height="319pt"
 viewBox="0.00 0.00 602.50 319.00" xmlns="http://www.w3.org/2000/svg" xmlns:xlink="http://www.w3.org/1999/xlink">
<g id="graph0" class="graph" transform="scale(1 1) rotate(0) translate(4 315)">
<title>C:/dev/Igor/Igor/src/Igor/src/iBone.cpp</title>
<polygon fill="white" stroke="none" points="-4,4 -4,-315 598.5,-315 598.5,4 -4,4"/>
<!-- Node0 -->
<g id="node1" class="node"><title>Node0</title>
<g id="a_node1"><a xlink:title=" ">
<polygon fill="#bfbfbf" stroke="black" points="378,-280.5 378,-310.5 476,-310.5 476,-280.5 378,-280.5"/>
<text text-anchor="start" x="386" y="-298.5" font-family="Helvetica,sans-Serif" font-size="10.00">C:/dev/Igor/Igor/src</text>
<text text-anchor="middle" x="427" y="-287.5" font-family="Helvetica,sans-Serif" font-size="10.00">/Igor/src/iBone.cpp</text>
</a>
</g>
</g>
<!-- Node1 -->
<g id="node2" class="node"><title>Node1</title>
<g id="a_node2"><a xlink:href="i_bone_8h.html" target="_top" xlink:title=" ">
<polygon fill="white" stroke="black" points="431,-224.5 431,-243.5 481,-243.5 481,-224.5 431,-224.5"/>
<text text-anchor="middle" x="456" y="-231.5" font-family="Helvetica,sans-Serif" font-size="10.00">iBone.h</text>
</a>
</g>
</g>
<!-- Node0&#45;&gt;Node1 -->
<g id="edge1" class="edge"><title>Node0&#45;&gt;Node1</title>
<path fill="none" stroke="midnightblue" d="M433.873,-280.399C437.913,-272.11 443.058,-261.554 447.369,-252.708"/>
<polygon fill="midnightblue" stroke="midnightblue" points="450.545,-254.18 451.78,-243.658 444.253,-251.113 450.545,-254.18"/>
</g>
<!-- Node15 -->
<g id="node16" class="node"><title>Node15</title>
<g id="a_node16"><a xlink:href="ia_console_8h.html" target="_top" xlink:title=" ">
<polygon fill="white" stroke="black" points="354,-168.5 354,-187.5 422,-187.5 422,-168.5 354,-168.5"/>
<text text-anchor="middle" x="388" y="-175.5" font-family="Helvetica,sans-Serif" font-size="10.00">iaConsole.h</text>
</a>
</g>
</g>
<!-- Node0&#45;&gt;Node15 -->
<g id="edge18" class="edge"><title>Node0&#45;&gt;Node15</title>
<path fill="none" stroke="midnightblue" d="M422.218,-280.337C415.159,-259.433 401.949,-220.31 394.169,-197.27"/>
<polygon fill="midnightblue" stroke="midnightblue" points="397.443,-196.024 390.927,-187.669 390.811,-198.264 397.443,-196.024"/>
</g>
<!-- Node2 -->
<g id="node3" class="node"><title>Node2</title>
<g id="a_node3"><a xlink:href="i_defines_8h.html" target="_top" xlink:title=" ">
<polygon fill="white" stroke="black" points="535.5,-56.5 535.5,-75.5 594.5,-75.5 594.5,-56.5 535.5,-56.5"/>
<text text-anchor="middle" x="565" y="-63.5" font-family="Helvetica,sans-Serif" font-size="10.00">iDefines.h</text>
</a>
</g>
</g>
<!-- Node1&#45;&gt;Node2 -->
<g id="edge2" class="edge"><title>Node1&#45;&gt;Node2</title>
<path fill="none" stroke="midnightblue" d="M472.953,-224.337C499.699,-209.587 550.728,-176.784 571,-132 577.638,-117.336 575.063,-98.9359 571.455,-85.4587"/>
<polygon fill="midnightblue" stroke="midnightblue" points="574.79,-84.3945 568.497,-75.8712 568.101,-86.4587 574.79,-84.3945"/>
</g>
<!-- Node4 -->
<g id="node5" class="node"><title>Node4</title>
<g id="a_node5"><a xlink:href="ia_matrix_8h.html" target="_top" xlink:title=" ">
<polygon fill="white" stroke="black" points="161.5,-168.5 161.5,-187.5 220.5,-187.5 220.5,-168.5 161.5,-168.5"/>
<text text-anchor="middle" x="191" y="-175.5" font-family="Helvetica,sans-Serif" font-size="10.00">iaMatrix.h</text>
</a>
</g>
</g>
<!-- Node1&#45;&gt;Node4 -->
<g id="edge4" class="edge"><title>Node1&#45;&gt;Node4</title>
<path fill="none" stroke="midnightblue" d="M430.591,-227.822C384.344,-218.398 286.109,-198.381 230.867,-187.124"/>
<polygon fill="midnightblue" stroke="midnightblue" points="231.245,-183.629 220.748,-185.062 229.847,-190.488 231.245,-183.629"/>
</g>
<!-- Node14 -->
<g id="node15" class="node"><title>Node14</title>
<g id="a_node15"><a xlink:title=" ">
<polygon fill="white" stroke="#bfbfbf" points="440,-168.5 440,-187.5 482,-187.5 482,-168.5 440,-168.5"/>
<text text-anchor="middle" x="461" y="-175.5" font-family="Helvetica,sans-Serif" font-size="10.00">vector</text>
</a>
</g>
</g>
<!-- Node1&#45;&gt;Node14 -->
<g id="edge17" class="edge"><title>Node1&#45;&gt;Node14</title>
<path fill="none" stroke="midnightblue" d="M456.826,-224.083C457.481,-217.006 458.42,-206.861 459.242,-197.986"/>
<polygon fill="midnightblue" stroke="midnightblue" points="462.753,-198.031 460.19,-187.751 455.783,-197.386 462.753,-198.031"/>
</g>
<!-- Node3 -->
<g id="node4" class="node"><title>Node3</title>
<g id="a_node4"><a xlink:href="ia_defines_8h.html" target="_top" xlink:title=" ">
<polygon fill="white" stroke="black" points="387.5,-0.5 387.5,-19.5 452.5,-19.5 452.5,-0.5 387.5,-0.5"/>
<text text-anchor="middle" x="420" y="-7.5" font-family="Helvetica,sans-Serif" font-size="10.00">iaDefines.h</text>
</a>
</g>
</g>
<!-- Node2&#45;&gt;Node3 -->
<g id="edge3" class="edge"><title>Node2&#45;&gt;Node3</title>
<path fill="none" stroke="midnightblue" d="M542.024,-56.4435C517.843,-47.4381 479.582,-33.1891 452.354,-23.049"/>
<polygon fill="midnightblue" stroke="midnightblue" points="453.461,-19.7265 442.868,-19.5164 451.018,-26.2864 453.461,-19.7265"/>
</g>
<!-- Node5 -->
<g id="node6" class="node"><title>Node5</title>
<g id="a_node6"><a xlink:href="ia_vector4_8h.html" target="_top" xlink:title=" ">
<polygon fill="white" stroke="black" points="158,-112.5 158,-131.5 224,-131.5 224,-112.5 158,-112.5"/>
<text text-anchor="middle" x="191" y="-119.5" font-family="Helvetica,sans-Serif" font-size="10.00">iaVector4.h</text>
</a>
</g>
</g>
<!-- Node4&#45;&gt;Node5 -->
<g id="edge5" class="edge"><title>Node4&#45;&gt;Node5</title>
<path fill="none" stroke="midnightblue" d="M191,-168.083C191,-161.006 191,-150.861 191,-141.986"/>
<polygon fill="midnightblue" stroke="midnightblue" points="194.5,-141.751 191,-131.751 187.5,-141.751 194.5,-141.751"/>
</g>
<!-- Node7 -->
<g id="node8" class="node"><title>Node7</title>
<g id="a_node8"><a xlink:title=" ">
<polygon fill="white" stroke="#bfbfbf" points="70,-0.5 70,-19.5 114,-19.5 114,-0.5 70,-0.5"/>
<text text-anchor="middle" x="92" y="-7.5" font-family="Helvetica,sans-Serif" font-size="10.00">cmath</text>
</a>
</g>
</g>
<!-- Node4&#45;&gt;Node7 -->
<g id="edge13" class="edge"><title>Node4&#45;&gt;Node7</title>
<path fill="none" stroke="midnightblue" d="M178.429,-168.275C167.32,-160.02 151.323,-146.727 141,-132 118.099,-99.3295 103.523,-54.3741 96.6524,-29.4781"/>
<polygon fill="midnightblue" stroke="midnightblue" points="99.9724,-28.3421 94.0353,-19.5671 93.2044,-30.1293 99.9724,-28.3421"/>
</g>
<!-- Node8 -->
<g id="node9" class="node"><title>Node8</title>
<g id="a_node9"><a xlink:title=" ">
<polygon fill="white" stroke="#bfbfbf" points="132,-0.5 132,-19.5 184,-19.5 184,-0.5 132,-0.5"/>
<text text-anchor="middle" x="158" y="-7.5" font-family="Helvetica,sans-Serif" font-size="10.00">ostream</text>
</a>
</g>
</g>
<!-- Node4&#45;&gt;Node8 -->
<g id="edge14" class="edge"><title>Node4&#45;&gt;Node8</title>
<path fill="none" stroke="midnightblue" d="M178.786,-168.236C168.646,-160.143 154.957,-147.112 149,-132 135.469,-97.6706 144.669,-53.6676 151.828,-29.3032"/>
<polygon fill="midnightblue" stroke="midnightblue" points="155.22,-30.1855 154.885,-19.596 148.543,-28.0831 155.22,-30.1855"/>
</g>
<!-- Node11 -->
<g id="node12" class="node"><title>Node11</title>
<g id="a_node12"><a xlink:title=" ">
<polygon fill="white" stroke="#bfbfbf" points="242.5,-112.5 242.5,-131.5 291.5,-131.5 291.5,-112.5 242.5,-112.5"/>
<text text-anchor="middle" x="267" y="-119.5" font-family="Helvetica,sans-Serif" font-size="10.00">fstream</text>
</a>
</g>
</g>
<!-- Node4&#45;&gt;Node11 -->
<g id="edge12" class="edge"><title>Node4&#45;&gt;Node11</title>
<path fill="none" stroke="midnightblue" d="M203.211,-168.324C214.776,-160.107 232.375,-147.602 246.161,-137.807"/>
<polygon fill="midnightblue" stroke="midnightblue" points="248.443,-140.479 254.567,-131.834 244.388,-134.773 248.443,-140.479"/>
</g>
<!-- Node12 -->
<g id="node13" class="node"><title>Node12</title>
<g id="a_node13"><a xlink:title=" ">
<polygon fill="white" stroke="#bfbfbf" points="310,-112.5 310,-131.5 360,-131.5 360,-112.5 310,-112.5"/>
<text text-anchor="middle" x="335" y="-119.5" font-family="Helvetica,sans-Serif" font-size="10.00">iomanip</text>
</a>
</g>
</g>
<!-- Node4&#45;&gt;Node12 -->
<g id="edge15" class="edge"><title>Node4&#45;&gt;Node12</title>
<path fill="none" stroke="midnightblue" d="M213.817,-168.444C237.832,-159.438 275.829,-145.189 302.869,-135.049"/>
<polygon fill="midnightblue" stroke="midnightblue" points="304.155,-138.305 312.29,-131.516 301.697,-131.751 304.155,-138.305"/>
</g>
<!-- Node13 -->
<g id="node14" class="node"><title>Node13</title>
<g id="a_node14"><a xlink:href="ia_matrix_8inl.html" target="_top" xlink:title=" ">
<polygon fill="white" stroke="black" points="0,-112.5 0,-131.5 64,-131.5 64,-112.5 0,-112.5"/>
<text text-anchor="middle" x="32" y="-119.5" font-family="Helvetica,sans-Serif" font-size="10.00">iaMatrix.inl</text>
</a>
</g>
</g>
<!-- Node4&#45;&gt;Node13 -->
<g id="edge16" class="edge"><title>Node4&#45;&gt;Node13</title>
<path fill="none" stroke="midnightblue" d="M165.806,-168.444C139.057,-159.359 96.5974,-144.939 66.6948,-134.783"/>
<polygon fill="midnightblue" stroke="midnightblue" points="67.6705,-131.418 57.0762,-131.516 65.4194,-138.046 67.6705,-131.418"/>
</g>
<!-- Node6 -->
<g id="node7" class="node"><title>Node6</title>
<g id="a_node7"><a xlink:href="ia_vector3_8h.html" target="_top" xlink:title=" ">
<polygon fill="white" stroke="black" points="158,-56.5 158,-75.5 224,-75.5 224,-56.5 158,-56.5"/>
<text text-anchor="middle" x="191" y="-63.5" font-family="Helvetica,sans-Serif" font-size="10.00">iaVector3.h</text>
</a>
</g>
</g>
<!-- Node5&#45;&gt;Node6 -->
<g id="edge6" class="edge"><title>Node5&#45;&gt;Node6</title>
<path fill="none" stroke="midnightblue" d="M191,-112.083C191,-105.006 191,-94.8611 191,-85.9865"/>
<polygon fill="midnightblue" stroke="midnightblue" points="194.5,-85.751 191,-75.7511 187.5,-85.7511 194.5,-85.751"/>
</g>
<!-- Node10 -->
<g id="node11" class="node"><title>Node10</title>
<g id="a_node11"><a xlink:href="ia_vector4_8inl.html" target="_top" xlink:title=" ">
<polygon fill="white" stroke="black" points="242.5,-56.5 242.5,-75.5 313.5,-75.5 313.5,-56.5 242.5,-56.5"/>
<text text-anchor="middle" x="278" y="-63.5" font-family="Helvetica,sans-Serif" font-size="10.00">iaVector4.inl</text>
</a>
</g>
</g>
<!-- Node5&#45;&gt;Node10 -->
<g id="edge11" class="edge"><title>Node5&#45;&gt;Node10</title>
<path fill="none" stroke="midnightblue" d="M204.978,-112.324C218.55,-103.9 239.38,-90.9709 255.325,-81.0741"/>
<polygon fill="midnightblue" stroke="midnightblue" points="257.406,-83.9019 264.057,-75.6545 253.714,-77.9544 257.406,-83.9019"/>
</g>
<!-- Node6&#45;&gt;Node3 -->
<g id="edge7" class="edge"><title>Node6&#45;&gt;Node3</title>
<path fill="none" stroke="midnightblue" d="M224.299,-57.1479C264.808,-47.5955 333.256,-31.455 377.523,-21.0164"/>
<polygon fill="midnightblue" stroke="midnightblue" points="378.473,-24.3885 387.403,-18.6867 376.866,-17.5753 378.473,-24.3885"/>
</g>
<!-- Node6&#45;&gt;Node7 -->
<g id="edge8" class="edge"><title>Node6&#45;&gt;Node7</title>
<path fill="none" stroke="midnightblue" d="M175.094,-56.324C159.362,-47.7428 135.058,-34.486 116.791,-24.5224"/>
<polygon fill="midnightblue" stroke="midnightblue" points="118.322,-21.3704 107.867,-19.6545 114.97,-27.5157 118.322,-21.3704"/>
</g>
<!-- Node6&#45;&gt;Node8 -->
<g id="edge9" class="edge"><title>Node6&#45;&gt;Node8</title>
<path fill="none" stroke="midnightblue" d="M185.551,-56.083C180.986,-48.6127 174.332,-37.7244 168.707,-28.5199"/>
<polygon fill="midnightblue" stroke="midnightblue" points="171.549,-26.4588 163.348,-19.7511 165.576,-30.109 171.549,-26.4588"/>
</g>
<!-- Node9 -->
<g id="node10" class="node"><title>Node9</title>
<g id="a_node10"><a xlink:href="ia_vector3_8inl.html" target="_top" xlink:title=" ">
<polygon fill="white" stroke="black" points="202.5,-0.5 202.5,-19.5 273.5,-19.5 273.5,-0.5 202.5,-0.5"/>
<text text-anchor="middle" x="238" y="-7.5" font-family="Helvetica,sans-Serif" font-size="10.00">iaVector3.inl</text>
</a>
</g>
</g>
<!-- Node6&#45;&gt;Node9 -->
<g id="edge10" class="edge"><title>Node6&#45;&gt;Node9</title>
<path fill="none" stroke="midnightblue" d="M198.761,-56.083C205.537,-48.2982 215.543,-36.8015 223.755,-27.3665"/>
<polygon fill="midnightblue" stroke="midnightblue" points="226.458,-29.592 230.383,-19.7511 221.178,-24.9963 226.458,-29.592"/>
</g>
<!-- Node15&#45;&gt;Node11 -->
<g id="edge24" class="edge"><title>Node15&#45;&gt;Node11</title>
<path fill="none" stroke="midnightblue" d="M368.827,-168.444C349.091,-159.636 318.115,-145.812 295.507,-135.722"/>
<polygon fill="midnightblue" stroke="midnightblue" points="296.641,-132.396 286.083,-131.516 293.789,-138.788 296.641,-132.396"/>
</g>
<!-- Node15&#45;&gt;Node12 -->
<g id="edge26" class="edge"><title>Node15&#45;&gt;Node12</title>
<path fill="none" stroke="midnightblue" d="M379.248,-168.083C371.53,-160.22 360.095,-148.569 350.783,-139.081"/>
<polygon fill="midnightblue" stroke="midnightblue" points="353.092,-136.436 343.589,-131.751 348.096,-141.34 353.092,-136.436"/>
</g>
<!-- Node16 -->
<g id="node17" class="node"><title>Node16</title>
<g id="a_node17"><a xlink:href="ia_singleton_8h.html" target="_top" xlink:title=" ">
<polygon fill="white" stroke="black" points="416.5,-112.5 416.5,-131.5 489.5,-131.5 489.5,-112.5 416.5,-112.5"/>
<text text-anchor="middle" x="453" y="-119.5" font-family="Helvetica,sans-Serif" font-size="10.00">iaSingleton.h</text>
</a>
</g>
</g>
<!-- Node15&#45;&gt;Node16 -->
<g id="edge19" class="edge"><title>Node15&#45;&gt;Node16</title>
<path fill="none" stroke="midnightblue" d="M398.443,-168.324C408.146,-160.263 422.815,-148.077 434.5,-138.369"/>
<polygon fill="midnightblue" stroke="midnightblue" points="436.911,-140.916 442.367,-131.834 432.438,-135.532 436.911,-140.916"/>
</g>
<!-- Node18 -->
<g id="node19" class="node"><title>Node18</title>
<g id="a_node19"><a xlink:href="ia_clock_8h.html" target="_top" xlink:title=" ">
<polygon fill="white" stroke="black" points="353.5,-56.5 353.5,-75.5 410.5,-75.5 410.5,-56.5 353.5,-56.5"/>
<text text-anchor="middle" x="382" y="-63.5" font-family="Helvetica,sans-Serif" font-size="10.00">iaClock.h</text>
</a>
</g>
</g>
<!-- Node15&#45;&gt;Node18 -->
<g id="edge22" class="edge"><title>Node15&#45;&gt;Node18</title>
<path fill="none" stroke="midnightblue" d="M387.529,-168.368C386.561,-150.617 384.327,-109.666 383.014,-85.5974"/>
<polygon fill="midnightblue" stroke="midnightblue" points="386.508,-85.3859 382.469,-75.5914 379.519,-85.7672 386.508,-85.3859"/>
</g>
<!-- Node19 -->
<g id="node20" class="node"><title>Node19</title>
<g id="a_node20"><a xlink:title=" ">
<polygon fill="white" stroke="#bfbfbf" points="508,-112.5 508,-131.5 562,-131.5 562,-112.5 508,-112.5"/>
<text text-anchor="middle" x="535" y="-119.5" font-family="Helvetica,sans-Serif" font-size="10.00">iostream</text>
</a>
</g>
</g>
<!-- Node15&#45;&gt;Node19 -->
<g id="edge25" class="edge"><title>Node15&#45;&gt;Node19</title>
<path fill="none" stroke="midnightblue" d="M411.293,-168.444C435.807,-159.438 474.596,-145.189 502.2,-135.049"/>
<polygon fill="midnightblue" stroke="midnightblue" points="503.637,-138.25 511.816,-131.516 501.223,-131.679 503.637,-138.25"/>
</g>
<!-- Node17 -->
<g id="node18" class="node"><title>Node17</title>
<g id="a_node18"><a xlink:href="ia_mutex_8h.html" target="_top" xlink:title=" ">
<polygon fill="white" stroke="black" points="428.5,-56.5 428.5,-75.5 487.5,-75.5 487.5,-56.5 428.5,-56.5"/>
<text text-anchor="middle" x="458" y="-63.5" font-family="Helvetica,sans-Serif" font-size="10.00">iaMutex.h</text>
</a>
</g>
</g>
<!-- Node16&#45;&gt;Node17 -->
<g id="edge20" class="edge"><title>Node16&#45;&gt;Node17</title>
<path fill="none" stroke="midnightblue" d="M453.826,-112.083C454.481,-105.006 455.42,-94.8611 456.242,-85.9865"/>
<polygon fill="midnightblue" stroke="midnightblue" points="459.753,-86.0312 457.19,-75.7511 452.783,-85.3858 459.753,-86.0312"/>
</g>
<!-- Node17&#45;&gt;Node3 -->
<g id="edge21" class="edge"><title>Node17&#45;&gt;Node3</title>
<path fill="none" stroke="midnightblue" d="M451.725,-56.083C446.358,-48.4554 438.482,-37.2645 431.921,-27.9408"/>
<polygon fill="midnightblue" stroke="midnightblue" points="434.775,-25.9149 426.158,-19.7511 429.051,-29.9434 434.775,-25.9149"/>
</g>
<!-- Node18&#45;&gt;Node3 -->
<g id="edge23" class="edge"><title>Node18&#45;&gt;Node3</title>
<path fill="none" stroke="midnightblue" d="M388.275,-56.083C393.642,-48.4554 401.518,-37.2645 408.079,-27.9408"/>
<polygon fill="midnightblue" stroke="midnightblue" points="410.949,-29.9434 413.842,-19.7511 405.225,-25.9149 410.949,-29.9434"/>
</g>
</g>
</svg>
