<?xml version="1.0" encoding="UTF-8" standalone="no"?>
<!DOCTYPE svg PUBLIC "-//W3C//DTD SVG 1.1//EN"
 "http://www.w3.org/Graphics/SVG/1.1/DTD/svg11.dtd">
<!-- Generated by graphviz version 2.38.0 (20140413.2041)
 -->
<!-- Title: C:/dev/Igor/src/Igor/src/iContouringCubes.h Pages: 1 -->
<svg width="1317pt" height="431pt"
 viewBox="0.00 0.00 1316.99 431.00" xmlns="http://www.w3.org/2000/svg" xmlns:xlink="http://www.w3.org/1999/xlink">
<g id="graph0" class="graph" transform="scale(1 1) rotate(0) translate(4 427)">
<title>C:/dev/Igor/src/Igor/src/iContouringCubes.h</title>
<polygon fill="white" stroke="none" points="-4,4 -4,-427 1312.99,-427 1312.99,4 -4,4"/>
<!-- Node1 -->
<g id="node1" class="node"><title>Node1</title>
<polygon fill="#bfbfbf" stroke="black" points="385.5,-392.5 385.5,-422.5 506.5,-422.5 506.5,-392.5 385.5,-392.5"/>
<text text-anchor="start" x="393.5" y="-410.5" font-family="Helvetica,sans-Serif" font-size="10.00">C:/dev/Igor/src/Igor</text>
<text text-anchor="middle" x="446" y="-399.5" font-family="Helvetica,sans-Serif" font-size="10.00">/src/iContouringCubes.h</text>
</g>
<!-- Node2 -->
<g id="node2" class="node"><title>Node2</title>
<g id="a_node2"><a xlink:href="i_voxel_data_8h.html" target="_top" xlink:title="iVoxelData.h">
<polygon fill="white" stroke="black" points="410,-280.5 410,-299.5 482,-299.5 482,-280.5 410,-280.5"/>
<text text-anchor="middle" x="446" y="-287.5" font-family="Helvetica,sans-Serif" font-size="10.00">iVoxelData.h</text>
</a>
</g>
</g>
<!-- Node1&#45;&gt;Node2 -->
<g id="edge1" class="edge"><title>Node1&#45;&gt;Node2</title>
<path fill="none" stroke="midnightblue" d="M446,-392.337C446,-371.622 446,-333.016 446,-309.899"/>
<polygon fill="midnightblue" stroke="midnightblue" points="449.5,-309.669 446,-299.669 442.5,-309.669 449.5,-309.669"/>
</g>
<!-- Node7 -->
<g id="node7" class="node"><title>Node7</title>
<polygon fill="white" stroke="#bfbfbf" points="280,-168.5 280,-187.5 322,-187.5 322,-168.5 280,-168.5"/>
<text text-anchor="middle" x="301" y="-175.5" font-family="Helvetica,sans-Serif" font-size="10.00">vector</text>
</g>
<!-- Node1&#45;&gt;Node7 -->
<g id="edge76" class="edge"><title>Node1&#45;&gt;Node7</title>
<path fill="none" stroke="midnightblue" d="M432.744,-392.365C408.087,-365.422 354.8,-304.032 323,-244 315.158,-229.195 309.293,-211.042 305.599,-197.686"/>
<polygon fill="midnightblue" stroke="midnightblue" points="308.924,-196.566 303.012,-187.774 302.151,-198.334 308.924,-196.566"/>
</g>
<!-- Node8 -->
<g id="node8" class="node"><title>Node8</title>
<g id="a_node8"><a xlink:href="ia_r_l_e_8h.html" target="_top" xlink:title="iaRLE.h">
<polygon fill="white" stroke="black" points="137.5,-224.5 137.5,-243.5 188.5,-243.5 188.5,-224.5 137.5,-224.5"/>
<text text-anchor="middle" x="163" y="-231.5" font-family="Helvetica,sans-Serif" font-size="10.00">iaRLE.h</text>
</a>
</g>
</g>
<!-- Node1&#45;&gt;Node8 -->
<g id="edge75" class="edge"><title>Node1&#45;&gt;Node8</title>
<path fill="none" stroke="midnightblue" d="M385.471,-394.108C354.833,-386.153 317.9,-373.893 288,-356 240.473,-327.559 196.896,-277.777 175.996,-251.821"/>
<polygon fill="midnightblue" stroke="midnightblue" points="178.529,-249.381 169.58,-243.708 173.038,-253.723 178.529,-249.381"/>
</g>
<!-- Node18 -->
<g id="node18" class="node"><title>Node18</title>
<g id="a_node18"><a xlink:href="ia_vector3_8h.html" target="_top" xlink:title="iaVector3.h">
<polygon fill="white" stroke="black" points="879,-56.5 879,-75.5 945,-75.5 945,-56.5 879,-56.5"/>
<text text-anchor="middle" x="912" y="-63.5" font-family="Helvetica,sans-Serif" font-size="10.00">iaVector3.h</text>
</a>
</g>
</g>
<!-- Node1&#45;&gt;Node18 -->
<g id="edge74" class="edge"><title>Node1&#45;&gt;Node18</title>
<path fill="none" stroke="midnightblue" d="M506.614,-404.762C702.824,-398.34 1308,-371.968 1308,-291 1308,-291 1308,-291 1308,-177 1308,-146.902 1311.97,-131.449 1289,-112 1276.37,-101.302 1051.32,-79.6756 955.08,-70.8662"/>
<polygon fill="midnightblue" stroke="midnightblue" points="955.365,-67.3778 945.089,-69.9554 954.73,-74.3489 955.365,-67.3778"/>
</g>
<!-- Node21 -->
<g id="node21" class="node"><title>Node21</title>
<g id="a_node21"><a xlink:href="i_mesh_builder_8h.html" target="_top" xlink:title="iMeshBuilder.h">
<polygon fill="white" stroke="black" points="672.5,-336.5 672.5,-355.5 753.5,-355.5 753.5,-336.5 672.5,-336.5"/>
<text text-anchor="middle" x="713" y="-343.5" font-family="Helvetica,sans-Serif" font-size="10.00">iMeshBuilder.h</text>
</a>
</g>
</g>
<!-- Node1&#45;&gt;Node21 -->
<g id="edge27" class="edge"><title>Node1&#45;&gt;Node21</title>
<path fill="none" stroke="midnightblue" d="M506.586,-392.999C554.405,-382.342 620.227,-367.674 664.576,-357.791"/>
<polygon fill="midnightblue" stroke="midnightblue" points="665.531,-361.164 674.53,-355.573 664.008,-354.332 665.531,-361.164"/>
</g>
<!-- Node3 -->
<g id="node3" class="node"><title>Node3</title>
<g id="a_node3"><a xlink:href="i_defines_8h.html" target="_top" xlink:title="iDefines.h">
<polygon fill="white" stroke="black" points="582.5,-112.5 582.5,-131.5 641.5,-131.5 641.5,-112.5 582.5,-112.5"/>
<text text-anchor="middle" x="612" y="-119.5" font-family="Helvetica,sans-Serif" font-size="10.00">iDefines.h</text>
</a>
</g>
</g>
<!-- Node2&#45;&gt;Node3 -->
<g id="edge2" class="edge"><title>Node2&#45;&gt;Node3</title>
<path fill="none" stroke="midnightblue" d="M458.774,-280.293C482.16,-263.968 532.696,-226.883 568,-188 581.415,-173.224 593.882,-154.081 602.094,-140.404"/>
<polygon fill="midnightblue" stroke="midnightblue" points="605.245,-141.949 607.275,-131.551 599.203,-138.414 605.245,-141.949"/>
</g>
<!-- Node5 -->
<g id="node5" class="node"><title>Node5</title>
<g id="a_node5"><a xlink:href="ia_string_8h.html" target="_top" xlink:title="iaString.h">
<polygon fill="white" stroke="black" points="417,-224.5 417,-243.5 475,-243.5 475,-224.5 417,-224.5"/>
<text text-anchor="middle" x="446" y="-231.5" font-family="Helvetica,sans-Serif" font-size="10.00">iaString.h</text>
</a>
</g>
</g>
<!-- Node2&#45;&gt;Node5 -->
<g id="edge4" class="edge"><title>Node2&#45;&gt;Node5</title>
<path fill="none" stroke="midnightblue" d="M446,-280.083C446,-273.006 446,-262.861 446,-253.986"/>
<polygon fill="midnightblue" stroke="midnightblue" points="449.5,-253.751 446,-243.751 442.5,-253.751 449.5,-253.751"/>
</g>
<!-- Node2&#45;&gt;Node7 -->
<g id="edge26" class="edge"><title>Node2&#45;&gt;Node7</title>
<path fill="none" stroke="midnightblue" d="M434.622,-280.368C409.952,-261.653 351.29,-217.151 320.552,-193.832"/>
<polygon fill="midnightblue" stroke="midnightblue" points="322.407,-190.847 312.325,-187.591 318.177,-196.424 322.407,-190.847"/>
</g>
<!-- Node2&#45;&gt;Node8 -->
<g id="edge8" class="edge"><title>Node2&#45;&gt;Node8</title>
<path fill="none" stroke="midnightblue" d="M409.87,-282.106C355.415,-271.715 252.926,-252.159 198.715,-241.815"/>
<polygon fill="midnightblue" stroke="midnightblue" points="199.34,-238.371 188.861,-239.935 198.028,-245.247 199.34,-238.371"/>
</g>
<!-- Node2&#45;&gt;Node18 -->
<g id="edge21" class="edge"><title>Node2&#45;&gt;Node18</title>
<path fill="none" stroke="midnightblue" d="M463.982,-280.433C535.412,-246.405 799.358,-120.662 884.987,-79.8689"/>
<polygon fill="midnightblue" stroke="midnightblue" points="886.549,-83.0018 894.071,-75.5411 883.538,-76.6822 886.549,-83.0018"/>
</g>
<!-- Node4 -->
<g id="node4" class="node"><title>Node4</title>
<g id="a_node4"><a xlink:href="ia_defines_8h.html" target="_top" xlink:title="iaDefines.h">
<polygon fill="white" stroke="black" points="388.5,-0.5 388.5,-19.5 453.5,-19.5 453.5,-0.5 388.5,-0.5"/>
<text text-anchor="middle" x="421" y="-7.5" font-family="Helvetica,sans-Serif" font-size="10.00">iaDefines.h</text>
</a>
</g>
</g>
<!-- Node3&#45;&gt;Node4 -->
<g id="edge3" class="edge"><title>Node3&#45;&gt;Node4</title>
<path fill="none" stroke="midnightblue" d="M603.03,-112.483C588.575,-99.0987 558.825,-72.9237 530,-56 506.882,-42.4268 478.895,-30.9654 457.069,-23.0067"/>
<polygon fill="midnightblue" stroke="midnightblue" points="458.109,-19.6617 447.514,-19.6015 455.759,-26.2555 458.109,-19.6617"/>
</g>
<!-- Node5&#45;&gt;Node4 -->
<g id="edge5" class="edge"><title>Node5&#45;&gt;Node4</title>
<path fill="none" stroke="midnightblue" d="M429.635,-224.48C394.18,-205.626 312.38,-159.838 299,-132 291.004,-115.363 293.872,-71.5918 306,-56 323.354,-33.6898 353.333,-22.424 378.331,-16.7441"/>
<polygon fill="midnightblue" stroke="midnightblue" points="379.237,-20.1313 388.334,-14.7002 377.836,-13.273 379.237,-20.1313"/>
</g>
<!-- Node6 -->
<g id="node6" class="node"><title>Node6</title>
<polygon fill="white" stroke="#bfbfbf" points="814,-0.5 814,-19.5 866,-19.5 866,-0.5 814,-0.5"/>
<text text-anchor="middle" x="840" y="-7.5" font-family="Helvetica,sans-Serif" font-size="10.00">ostream</text>
</g>
<!-- Node5&#45;&gt;Node6 -->
<g id="edge6" class="edge"><title>Node5&#45;&gt;Node6</title>
<path fill="none" stroke="midnightblue" d="M473.317,-224.39C492.526,-217.195 517.776,-205.301 535,-188 561.644,-161.237 545.273,-137.64 573,-112 621.597,-67.0602 649.065,-79.3524 711,-56 742.349,-44.1798 778.376,-31.7037 804.376,-22.894"/>
<polygon fill="midnightblue" stroke="midnightblue" points="805.809,-26.1042 814.165,-19.5897 803.57,-19.4718 805.809,-26.1042"/>
</g>
<!-- Node5&#45;&gt;Node7 -->
<g id="edge7" class="edge"><title>Node5&#45;&gt;Node7</title>
<path fill="none" stroke="midnightblue" d="M423.024,-224.444C398.416,-215.279 359.227,-200.685 331.923,-190.516"/>
<polygon fill="midnightblue" stroke="midnightblue" points="333.043,-187.198 322.45,-186.988 330.6,-193.758 333.043,-187.198"/>
</g>
<!-- Node8&#45;&gt;Node4 -->
<g id="edge9" class="edge"><title>Node8&#45;&gt;Node4</title>
<path fill="none" stroke="midnightblue" d="M162.287,-224.406C160.374,-194.894 158.58,-97.2314 214,-56 262.179,-20.156 333.109,-11.7294 378.168,-10.3273"/>
<polygon fill="midnightblue" stroke="midnightblue" points="378.279,-13.8258 388.204,-10.1179 378.133,-6.82734 378.279,-13.8258"/>
</g>
<!-- Node9 -->
<g id="node9" class="node"><title>Node9</title>
<g id="a_node9"><a xlink:href="ia_console_8h.html" target="_top" xlink:title="iaConsole.h">
<polygon fill="white" stroke="black" points="378,-168.5 378,-187.5 446,-187.5 446,-168.5 378,-168.5"/>
<text text-anchor="middle" x="412" y="-175.5" font-family="Helvetica,sans-Serif" font-size="10.00">iaConsole.h</text>
</a>
</g>
</g>
<!-- Node8&#45;&gt;Node9 -->
<g id="edge10" class="edge"><title>Node8&#45;&gt;Node9</title>
<path fill="none" stroke="midnightblue" d="M188.71,-227.424C230.995,-218.254 315.716,-199.881 367.78,-188.59"/>
<polygon fill="midnightblue" stroke="midnightblue" points="368.704,-191.971 377.735,-186.431 367.22,-185.13 368.704,-191.971"/>
</g>
<!-- Node16 -->
<g id="node16" class="node"><title>Node16</title>
<polygon fill="white" stroke="#bfbfbf" points="74.5,-168.5 74.5,-187.5 103.5,-187.5 103.5,-168.5 74.5,-168.5"/>
<text text-anchor="middle" x="89" y="-175.5" font-family="Helvetica,sans-Serif" font-size="10.00">list</text>
</g>
<!-- Node8&#45;&gt;Node16 -->
<g id="edge19" class="edge"><title>Node8&#45;&gt;Node16</title>
<path fill="none" stroke="midnightblue" d="M151.111,-224.324C139.85,-216.107 122.713,-203.602 109.291,-193.807"/>
<polygon fill="midnightblue" stroke="midnightblue" points="111.247,-190.901 101.106,-187.834 107.12,-196.556 111.247,-190.901"/>
</g>
<!-- Node17 -->
<g id="node17" class="node"><title>Node17</title>
<g id="a_node17"><a xlink:href="ia_r_l_e_8inl.html" target="_top" xlink:title="iaRLE.inl">
<polygon fill="white" stroke="black" points="0,-168.5 0,-187.5 56,-187.5 56,-168.5 0,-168.5"/>
<text text-anchor="middle" x="28" y="-175.5" font-family="Helvetica,sans-Serif" font-size="10.00">iaRLE.inl</text>
</a>
</g>
</g>
<!-- Node8&#45;&gt;Node17 -->
<g id="edge20" class="edge"><title>Node8&#45;&gt;Node17</title>
<path fill="none" stroke="midnightblue" d="M141.609,-224.444C119.293,-215.517 84.0968,-201.439 58.792,-191.317"/>
<polygon fill="midnightblue" stroke="midnightblue" points="59.8757,-187.981 49.2911,-187.516 57.276,-194.48 59.8757,-187.981"/>
</g>
<!-- Node10 -->
<g id="node10" class="node"><title>Node10</title>
<g id="a_node10"><a xlink:href="ia_singleton_8h.html" target="_top" xlink:title="iaSingleton.h">
<polygon fill="white" stroke="black" points="308.5,-112.5 308.5,-131.5 381.5,-131.5 381.5,-112.5 308.5,-112.5"/>
<text text-anchor="middle" x="345" y="-119.5" font-family="Helvetica,sans-Serif" font-size="10.00">iaSingleton.h</text>
</a>
</g>
</g>
<!-- Node9&#45;&gt;Node10 -->
<g id="edge11" class="edge"><title>Node9&#45;&gt;Node10</title>
<path fill="none" stroke="midnightblue" d="M401.235,-168.324C391.234,-160.263 376.113,-148.077 364.07,-138.369"/>
<polygon fill="midnightblue" stroke="midnightblue" points="365.943,-135.384 355.961,-131.834 361.55,-140.834 365.943,-135.384"/>
</g>
<!-- Node12 -->
<g id="node12" class="node"><title>Node12</title>
<g id="a_node12"><a xlink:href="ia_clock_8h.html" target="_top" xlink:title="iaClock.h">
<polygon fill="white" stroke="black" points="392.5,-56.5 392.5,-75.5 449.5,-75.5 449.5,-56.5 392.5,-56.5"/>
<text text-anchor="middle" x="421" y="-63.5" font-family="Helvetica,sans-Serif" font-size="10.00">iaClock.h</text>
</a>
</g>
</g>
<!-- Node9&#45;&gt;Node12 -->
<g id="edge14" class="edge"><title>Node9&#45;&gt;Node12</title>
<path fill="none" stroke="midnightblue" d="M412.706,-168.368C414.159,-150.617 417.509,-109.666 419.478,-85.5974"/>
<polygon fill="midnightblue" stroke="midnightblue" points="422.97,-85.8436 420.297,-75.5914 415.993,-85.2727 422.97,-85.8436"/>
</g>
<!-- Node13 -->
<g id="node13" class="node"><title>Node13</title>
<polygon fill="white" stroke="#bfbfbf" points="438.5,-112.5 438.5,-131.5 487.5,-131.5 487.5,-112.5 438.5,-112.5"/>
<text text-anchor="middle" x="463" y="-119.5" font-family="Helvetica,sans-Serif" font-size="10.00">fstream</text>
</g>
<!-- Node9&#45;&gt;Node13 -->
<g id="edge16" class="edge"><title>Node9&#45;&gt;Node13</title>
<path fill="none" stroke="midnightblue" d="M420.422,-168.083C427.848,-160.22 438.852,-148.569 447.812,-139.081"/>
<polygon fill="midnightblue" stroke="midnightblue" points="450.413,-141.424 454.735,-131.751 445.324,-136.618 450.413,-141.424"/>
</g>
<!-- Node14 -->
<g id="node14" class="node"><title>Node14</title>
<polygon fill="white" stroke="#bfbfbf" points="198,-112.5 198,-131.5 252,-131.5 252,-112.5 198,-112.5"/>
<text text-anchor="middle" x="225" y="-119.5" font-family="Helvetica,sans-Serif" font-size="10.00">iostream</text>
</g>
<!-- Node9&#45;&gt;Node14 -->
<g id="edge17" class="edge"><title>Node9&#45;&gt;Node14</title>
<path fill="none" stroke="midnightblue" d="M382.369,-168.444C349.75,-159.024 297.265,-143.868 261.975,-133.677"/>
<polygon fill="midnightblue" stroke="midnightblue" points="262.642,-130.227 252.063,-130.815 260.7,-136.952 262.642,-130.227"/>
</g>
<!-- Node15 -->
<g id="node15" class="node"><title>Node15</title>
<polygon fill="white" stroke="#bfbfbf" points="660,-112.5 660,-131.5 710,-131.5 710,-112.5 660,-112.5"/>
<text text-anchor="middle" x="685" y="-119.5" font-family="Helvetica,sans-Serif" font-size="10.00">iomanip</text>
</g>
<!-- Node9&#45;&gt;Node15 -->
<g id="edge18" class="edge"><title>Node9&#45;&gt;Node15</title>
<path fill="none" stroke="midnightblue" d="M446.388,-170.075C449.97,-169.368 453.558,-168.665 457,-168 542.672,-151.443 564.809,-150.876 650,-132 650.1,-131.978 650.199,-131.956 650.299,-131.934"/>
<polygon fill="midnightblue" stroke="midnightblue" points="650.883,-135.392 659.814,-129.692 649.278,-128.578 650.883,-135.392"/>
</g>
<!-- Node11 -->
<g id="node11" class="node"><title>Node11</title>
<g id="a_node11"><a xlink:href="ia_mutex_8h.html" target="_top" xlink:title="iaMutex.h">
<polygon fill="white" stroke="black" points="315.5,-56.5 315.5,-75.5 374.5,-75.5 374.5,-56.5 315.5,-56.5"/>
<text text-anchor="middle" x="345" y="-63.5" font-family="Helvetica,sans-Serif" font-size="10.00">iaMutex.h</text>
</a>
</g>
</g>
<!-- Node10&#45;&gt;Node11 -->
<g id="edge12" class="edge"><title>Node10&#45;&gt;Node11</title>
<path fill="none" stroke="midnightblue" d="M345,-112.083C345,-105.006 345,-94.8611 345,-85.9865"/>
<polygon fill="midnightblue" stroke="midnightblue" points="348.5,-85.751 345,-75.7511 341.5,-85.7511 348.5,-85.751"/>
</g>
<!-- Node11&#45;&gt;Node4 -->
<g id="edge13" class="edge"><title>Node11&#45;&gt;Node4</title>
<path fill="none" stroke="midnightblue" d="M357.211,-56.324C368.776,-48.1066 386.375,-35.6017 400.161,-25.8069"/>
<polygon fill="midnightblue" stroke="midnightblue" points="402.443,-28.4791 408.567,-19.8339 398.388,-22.7729 402.443,-28.4791"/>
</g>
<!-- Node12&#45;&gt;Node4 -->
<g id="edge15" class="edge"><title>Node12&#45;&gt;Node4</title>
<path fill="none" stroke="midnightblue" d="M421,-56.083C421,-49.0059 421,-38.8611 421,-29.9865"/>
<polygon fill="midnightblue" stroke="midnightblue" points="424.5,-29.751 421,-19.7511 417.5,-29.7511 424.5,-29.751"/>
</g>
<!-- Node18&#45;&gt;Node4 -->
<g id="edge22" class="edge"><title>Node18&#45;&gt;Node4</title>
<path fill="none" stroke="midnightblue" d="M878.638,-61.3308C792.004,-51.8029 559.957,-26.2825 463.728,-15.6992"/>
<polygon fill="midnightblue" stroke="midnightblue" points="464.086,-12.2175 453.763,-14.6033 463.321,-19.1756 464.086,-12.2175"/>
</g>
<!-- Node18&#45;&gt;Node6 -->
<g id="edge24" class="edge"><title>Node18&#45;&gt;Node6</title>
<path fill="none" stroke="midnightblue" d="M900.432,-56.324C889.58,-48.1849 873.119,-35.8395 860.117,-26.0874"/>
<polygon fill="midnightblue" stroke="midnightblue" points="861.879,-23.0339 851.779,-19.8339 857.679,-28.6339 861.879,-23.0339"/>
</g>
<!-- Node19 -->
<g id="node19" class="node"><title>Node19</title>
<polygon fill="white" stroke="#bfbfbf" points="888,-0.5 888,-19.5 932,-19.5 932,-0.5 888,-0.5"/>
<text text-anchor="middle" x="910" y="-7.5" font-family="Helvetica,sans-Serif" font-size="10.00">cmath</text>
</g>
<!-- Node18&#45;&gt;Node19 -->
<g id="edge23" class="edge"><title>Node18&#45;&gt;Node19</title>
<path fill="none" stroke="midnightblue" d="M911.67,-56.083C911.408,-49.0059 911.032,-38.8611 910.703,-29.9865"/>
<polygon fill="midnightblue" stroke="midnightblue" points="914.192,-29.6147 910.324,-19.7511 907.197,-29.8738 914.192,-29.6147"/>
</g>
<!-- Node20 -->
<g id="node20" class="node"><title>Node20</title>
<g id="a_node20"><a xlink:href="ia_vector3_8inl.html" target="_top" xlink:title="iaVector3.inl">
<polygon fill="white" stroke="black" points="950.5,-0.5 950.5,-19.5 1021.5,-19.5 1021.5,-0.5 950.5,-0.5"/>
<text text-anchor="middle" x="986" y="-7.5" font-family="Helvetica,sans-Serif" font-size="10.00">iaVector3.inl</text>
</a>
</g>
</g>
<!-- Node18&#45;&gt;Node20 -->
<g id="edge25" class="edge"><title>Node18&#45;&gt;Node20</title>
<path fill="none" stroke="midnightblue" d="M923.889,-56.324C935.15,-48.1066 952.287,-35.6017 965.709,-25.8069"/>
<polygon fill="midnightblue" stroke="midnightblue" points="967.88,-28.5559 973.894,-19.8339 963.753,-22.9014 967.88,-28.5559"/>
</g>
<!-- Node21&#45;&gt;Node7 -->
<g id="edge72" class="edge"><title>Node21&#45;&gt;Node7</title>
<path fill="none" stroke="midnightblue" d="M672.264,-342.756C598.61,-338.11 446.69,-325.658 401,-300 357.385,-275.507 324.905,-223.933 310.015,-196.703"/>
<polygon fill="midnightblue" stroke="midnightblue" points="312.951,-194.77 305.182,-187.566 306.764,-198.042 312.951,-194.77"/>
</g>
<!-- Node22 -->
<g id="node22" class="node"><title>Node22</title>
<g id="a_node22"><a xlink:href="i_sphere_8h.html" target="_top" xlink:title="iSphere.h">
<polygon fill="white" stroke="black" points="953,-280.5 953,-299.5 1011,-299.5 1011,-280.5 953,-280.5"/>
<text text-anchor="middle" x="982" y="-287.5" font-family="Helvetica,sans-Serif" font-size="10.00">iSphere.h</text>
</a>
</g>
</g>
<!-- Node21&#45;&gt;Node22 -->
<g id="edge28" class="edge"><title>Node21&#45;&gt;Node22</title>
<path fill="none" stroke="midnightblue" d="M753.852,-336.991C799.135,-328.083 874.324,-313.207 939,-300 940.261,-299.742 941.543,-299.48 942.837,-299.214"/>
<polygon fill="midnightblue" stroke="midnightblue" points="943.781,-302.593 952.864,-297.138 942.362,-295.738 943.781,-302.593"/>
</g>
<!-- Node26 -->
<g id="node26" class="node"><title>Node26</title>
<g id="a_node26"><a xlink:href="ia_matrix_8h.html" target="_top" xlink:title="iaMatrix.h">
<polygon fill="white" stroke="black" points="1093.5,-168.5 1093.5,-187.5 1152.5,-187.5 1152.5,-168.5 1093.5,-168.5"/>
<text text-anchor="middle" x="1123" y="-175.5" font-family="Helvetica,sans-Serif" font-size="10.00">iaMatrix.h</text>
</a>
</g>
</g>
<!-- Node21&#45;&gt;Node26 -->
<g id="edge62" class="edge"><title>Node21&#45;&gt;Node26</title>
<path fill="none" stroke="midnightblue" d="M753.699,-344.73C813.899,-343.086 929.332,-335.119 1020,-300 1061.5,-283.927 1076.5,-279.75 1103,-244 1113,-230.513 1118.06,-211.956 1120.58,-198.122"/>
<polygon fill="midnightblue" stroke="midnightblue" points="1124.11,-198.241 1122.16,-187.826 1117.19,-197.181 1124.11,-198.241"/>
</g>
<!-- Node34 -->
<g id="node34" class="node"><title>Node34</title>
<g id="a_node34"><a xlink:href="i_a_a_box_8h.html" target="_top" xlink:title="iAABox.h">
<polygon fill="white" stroke="black" points="823,-168.5 823,-187.5 881,-187.5 881,-168.5 823,-168.5"/>
<text text-anchor="middle" x="852" y="-175.5" font-family="Helvetica,sans-Serif" font-size="10.00">iAABox.h</text>
</a>
</g>
</g>
<!-- Node21&#45;&gt;Node34 -->
<g id="edge49" class="edge"><title>Node21&#45;&gt;Node34</title>
<path fill="none" stroke="midnightblue" d="M753.783,-341.291C804.447,-335.742 886.497,-323.341 905,-300 931.097,-267.08 892.712,-219.32 868.762,-194.812"/>
<polygon fill="midnightblue" stroke="midnightblue" points="871.164,-192.265 861.593,-187.72 866.241,-197.241 871.164,-192.265"/>
</g>
<!-- Node36 -->
<g id="node36" class="node"><title>Node36</title>
<g id="a_node36"><a xlink:href="i_texture_8h.html" target="_top" xlink:title="iTexture.h">
<polygon fill="white" stroke="black" points="606.5,-280.5 606.5,-299.5 665.5,-299.5 665.5,-280.5 606.5,-280.5"/>
<text text-anchor="middle" x="636" y="-287.5" font-family="Helvetica,sans-Serif" font-size="10.00">iTexture.h</text>
</a>
</g>
</g>
<!-- Node21&#45;&gt;Node36 -->
<g id="edge53" class="edge"><title>Node21&#45;&gt;Node36</title>
<path fill="none" stroke="midnightblue" d="M700.629,-336.324C688.842,-328.058 670.868,-315.453 656.864,-305.632"/>
<polygon fill="midnightblue" stroke="midnightblue" points="658.538,-302.531 648.341,-299.655 654.518,-308.262 658.538,-302.531"/>
</g>
<!-- Node37 -->
<g id="node37" class="node"><title>Node37</title>
<polygon fill="white" stroke="#bfbfbf" points="658,-224.5 658,-243.5 710,-243.5 710,-224.5 658,-224.5"/>
<text text-anchor="middle" x="684" y="-231.5" font-family="Helvetica,sans-Serif" font-size="10.00">memory</text>
</g>
<!-- Node21&#45;&gt;Node37 -->
<g id="edge71" class="edge"><title>Node21&#45;&gt;Node37</title>
<path fill="none" stroke="midnightblue" d="M710.724,-336.368C706.023,-318.537 695.151,-277.295 688.817,-253.272"/>
<polygon fill="midnightblue" stroke="midnightblue" points="692.199,-252.369 686.265,-243.591 685.43,-254.153 692.199,-252.369"/>
</g>
<!-- Node38 -->
<g id="node38" class="node"><title>Node38</title>
<g id="a_node38"><a xlink:href="ia_vector2_8h.html" target="_top" xlink:title="iaVector2.h">
<polygon fill="white" stroke="black" points="720,-56.5 720,-75.5 786,-75.5 786,-56.5 720,-56.5"/>
<text text-anchor="middle" x="753" y="-63.5" font-family="Helvetica,sans-Serif" font-size="10.00">iaVector2.h</text>
</a>
</g>
</g>
<!-- Node21&#45;&gt;Node38 -->
<g id="edge57" class="edge"><title>Node21&#45;&gt;Node38</title>
<path fill="none" stroke="midnightblue" d="M714.241,-336.375C719.806,-297.701 742.526,-139.794 750.343,-85.4651"/>
<polygon fill="midnightblue" stroke="midnightblue" points="753.814,-85.9208 751.773,-75.5243 746.885,-84.9238 753.814,-85.9208"/>
</g>
<!-- Node40 -->
<g id="node40" class="node"><title>Node40</title>
<g id="a_node40"><a xlink:href="ia_color3_8h.html" target="_top" xlink:title="iaColor3.h">
<polygon fill="white" stroke="black" points="200,-168.5 200,-187.5 260,-187.5 260,-168.5 200,-168.5"/>
<text text-anchor="middle" x="230" y="-175.5" font-family="Helvetica,sans-Serif" font-size="10.00">iaColor3.h</text>
</a>
</g>
</g>
<!-- Node21&#45;&gt;Node40 -->
<g id="edge63" class="edge"><title>Node21&#45;&gt;Node40</title>
<path fill="none" stroke="midnightblue" d="M672.352,-342.595C593.6,-337.46 423.293,-323.901 370,-300 315.248,-275.445 265.863,-222.307 243.161,-195.368"/>
<polygon fill="midnightblue" stroke="midnightblue" points="245.822,-193.092 236.755,-187.611 240.424,-197.55 245.822,-193.092"/>
</g>
<!-- Node41 -->
<g id="node41" class="node"><title>Node41</title>
<g id="a_node41"><a xlink:href="ia_color4_8h.html" target="_top" xlink:title="iaColor4.h">
<polygon fill="white" stroke="black" points="466,-168.5 466,-187.5 526,-187.5 526,-168.5 466,-168.5"/>
<text text-anchor="middle" x="496" y="-175.5" font-family="Helvetica,sans-Serif" font-size="10.00">iaColor4.h</text>
</a>
</g>
</g>
<!-- Node21&#45;&gt;Node41 -->
<g id="edge67" class="edge"><title>Node21&#45;&gt;Node41</title>
<path fill="none" stroke="midnightblue" d="M678.004,-336.442C653.724,-329.357 621.479,-317.574 597,-300 556.594,-270.992 522.646,-222.171 506.358,-196.301"/>
<polygon fill="midnightblue" stroke="midnightblue" points="509.224,-194.281 501.003,-187.598 503.263,-197.949 509.224,-194.281"/>
</g>
<!-- Node42 -->
<g id="node42" class="node"><title>Node42</title>
<polygon fill="white" stroke="#bfbfbf" points="760.5,-280.5 760.5,-299.5 795.5,-299.5 795.5,-280.5 760.5,-280.5"/>
<text text-anchor="middle" x="778" y="-287.5" font-family="Helvetica,sans-Serif" font-size="10.00">map</text>
</g>
<!-- Node21&#45;&gt;Node42 -->
<g id="edge70" class="edge"><title>Node21&#45;&gt;Node42</title>
<path fill="none" stroke="midnightblue" d="M723.443,-336.324C733.146,-328.263 747.815,-316.077 759.5,-306.369"/>
<polygon fill="midnightblue" stroke="midnightblue" points="761.911,-308.916 767.367,-299.834 757.438,-303.532 761.911,-308.916"/>
</g>
<!-- Node43 -->
<g id="node43" class="node"><title>Node43</title>
<polygon fill="white" stroke="#bfbfbf" points="813.5,-280.5 813.5,-299.5 896.5,-299.5 896.5,-280.5 813.5,-280.5"/>
<text text-anchor="middle" x="855" y="-287.5" font-family="Helvetica,sans-Serif" font-size="10.00">unordered_map</text>
</g>
<!-- Node21&#45;&gt;Node43 -->
<g id="edge73" class="edge"><title>Node21&#45;&gt;Node43</title>
<path fill="none" stroke="midnightblue" d="M735.5,-336.444C759.077,-327.478 796.322,-313.314 822.964,-303.183"/>
<polygon fill="midnightblue" stroke="midnightblue" points="824.502,-306.342 832.605,-299.516 822.014,-299.8 824.502,-306.342"/>
</g>
<!-- Node22&#45;&gt;Node9 -->
<g id="edge47" class="edge"><title>Node22&#45;&gt;Node9</title>
<path fill="none" stroke="midnightblue" d="M952.644,-280.664C904.285,-267.177 804.687,-240.428 719,-224 603.564,-201.869 572.904,-207.535 457,-188 456.784,-187.964 456.567,-187.927 456.35,-187.89"/>
<polygon fill="midnightblue" stroke="midnightblue" points="456.818,-184.418 446.357,-186.095 455.581,-191.308 456.818,-184.418"/>
</g>
<!-- Node23 -->
<g id="node23" class="node"><title>Node23</title>
<g id="a_node23"><a xlink:href="i_frustum_8h.html" target="_top" xlink:title="iFrustum.h">
<polygon fill="white" stroke="black" points="1031.5,-224.5 1031.5,-243.5 1094.5,-243.5 1094.5,-224.5 1031.5,-224.5"/>
<text text-anchor="middle" x="1063" y="-231.5" font-family="Helvetica,sans-Serif" font-size="10.00">iFrustum.h</text>
</a>
</g>
</g>
<!-- Node22&#45;&gt;Node23 -->
<g id="edge29" class="edge"><title>Node22&#45;&gt;Node23</title>
<path fill="none" stroke="midnightblue" d="M995.014,-280.324C1007.53,-271.979 1026.68,-259.212 1041.47,-249.352"/>
<polygon fill="midnightblue" stroke="midnightblue" points="1043.64,-252.114 1050.02,-243.655 1039.76,-246.289 1043.64,-252.114"/>
</g>
<!-- Node33 -->
<g id="node33" class="node"><title>Node33</title>
<g id="a_node33"><a xlink:href="i_sphere_8inl.html" target="_top" xlink:title="iSphere.inl">
<polygon fill="white" stroke="black" points="951,-224.5 951,-243.5 1013,-243.5 1013,-224.5 951,-224.5"/>
<text text-anchor="middle" x="982" y="-231.5" font-family="Helvetica,sans-Serif" font-size="10.00">iSphere.inl</text>
</a>
</g>
</g>
<!-- Node22&#45;&gt;Node33 -->
<g id="edge48" class="edge"><title>Node22&#45;&gt;Node33</title>
<path fill="none" stroke="midnightblue" d="M982,-280.083C982,-273.006 982,-262.861 982,-253.986"/>
<polygon fill="midnightblue" stroke="midnightblue" points="985.5,-253.751 982,-243.751 978.5,-253.751 985.5,-253.751"/>
</g>
<!-- Node24 -->
<g id="node24" class="node"><title>Node24</title>
<g id="a_node24"><a xlink:href="i_plane_8h.html" target="_top" xlink:title="iPlane.h">
<polygon fill="white" stroke="black" points="921,-168.5 921,-187.5 973,-187.5 973,-168.5 921,-168.5"/>
<text text-anchor="middle" x="947" y="-175.5" font-family="Helvetica,sans-Serif" font-size="10.00">iPlane.h</text>
</a>
</g>
</g>
<!-- Node23&#45;&gt;Node24 -->
<g id="edge30" class="edge"><title>Node23&#45;&gt;Node24</title>
<path fill="none" stroke="midnightblue" d="M1044.62,-224.444C1025.78,-215.675 996.269,-201.935 974.621,-191.858"/>
<polygon fill="midnightblue" stroke="midnightblue" points="975.838,-188.564 965.295,-187.516 972.883,-194.91 975.838,-188.564"/>
</g>
<!-- Node23&#45;&gt;Node26 -->
<g id="edge34" class="edge"><title>Node23&#45;&gt;Node26</title>
<path fill="none" stroke="midnightblue" d="M1072.64,-224.324C1081.51,-216.341 1094.87,-204.313 1105.61,-194.653"/>
<polygon fill="midnightblue" stroke="midnightblue" points="1108.09,-197.125 1113.18,-187.834 1103.41,-191.922 1108.09,-197.125"/>
</g>
<!-- Node32 -->
<g id="node32" class="node"><title>Node32</title>
<g id="a_node32"><a xlink:href="i_frustum_8inl.html" target="_top" xlink:title="iFrustum.inl">
<polygon fill="white" stroke="black" points="1007,-168.5 1007,-187.5 1075,-187.5 1075,-168.5 1007,-168.5"/>
<text text-anchor="middle" x="1041" y="-175.5" font-family="Helvetica,sans-Serif" font-size="10.00">iFrustum.inl</text>
</a>
</g>
</g>
<!-- Node23&#45;&gt;Node32 -->
<g id="edge46" class="edge"><title>Node23&#45;&gt;Node32</title>
<path fill="none" stroke="midnightblue" d="M1059.37,-224.083C1056.39,-216.77 1052.07,-206.181 1048.38,-197.103"/>
<polygon fill="midnightblue" stroke="midnightblue" points="1051.58,-195.691 1044.57,-187.751 1045.1,-198.333 1051.58,-195.691"/>
</g>
<!-- Node24&#45;&gt;Node3 -->
<g id="edge31" class="edge"><title>Node24&#45;&gt;Node3</title>
<path fill="none" stroke="midnightblue" d="M920.9,-172.839C911.2,-171.303 900.099,-169.558 890,-168 786.946,-152.103 758.193,-152.079 651.626,-131.992"/>
<polygon fill="midnightblue" stroke="midnightblue" points="652.238,-128.546 641.76,-130.117 650.931,-135.422 652.238,-128.546"/>
</g>
<!-- Node24&#45;&gt;Node18 -->
<g id="edge32" class="edge"><title>Node24&#45;&gt;Node18</title>
<path fill="none" stroke="midnightblue" d="M944.254,-168.368C938.58,-150.537 925.458,-109.295 917.814,-85.2717"/>
<polygon fill="midnightblue" stroke="midnightblue" points="921.101,-84.0594 914.734,-75.5914 914.43,-86.1819 921.101,-84.0594"/>
</g>
<!-- Node25 -->
<g id="node25" class="node"><title>Node25</title>
<g id="a_node25"><a xlink:href="i_plane_8inl.html" target="_top" xlink:title="iPlane.inl">
<polygon fill="white" stroke="black" points="960,-112.5 960,-131.5 1016,-131.5 1016,-112.5 960,-112.5"/>
<text text-anchor="middle" x="988" y="-119.5" font-family="Helvetica,sans-Serif" font-size="10.00">iPlane.inl</text>
</a>
</g>
</g>
<!-- Node24&#45;&gt;Node25 -->
<g id="edge33" class="edge"><title>Node24&#45;&gt;Node25</title>
<path fill="none" stroke="midnightblue" d="M953.77,-168.083C959.562,-160.455 968.058,-149.264 975.138,-139.941"/>
<polygon fill="midnightblue" stroke="midnightblue" points="978.096,-141.832 981.356,-131.751 972.521,-137.599 978.096,-141.832"/>
</g>
<!-- Node26&#45;&gt;Node13 -->
<g id="edge42" class="edge"><title>Node26&#45;&gt;Node13</title>
<path fill="none" stroke="midnightblue" d="M1093.28,-169.637C1090.16,-169.015 1087.02,-168.453 1084,-168 858.834,-134.3 800.017,-149.283 573,-132 547.879,-130.087 519.545,-127.765 497.926,-125.959"/>
<polygon fill="midnightblue" stroke="midnightblue" points="498.153,-122.466 487.895,-125.118 497.568,-129.441 498.153,-122.466"/>
</g>
<!-- Node26&#45;&gt;Node15 -->
<g id="edge44" class="edge"><title>Node26&#45;&gt;Node15</title>
<path fill="none" stroke="midnightblue" d="M1093.26,-169.768C1090.14,-169.12 1087.01,-168.516 1084,-168 950.675,-145.175 790.231,-131.098 720.376,-125.621"/>
<polygon fill="midnightblue" stroke="midnightblue" points="720.59,-122.127 710.35,-124.846 720.05,-129.106 720.59,-122.127"/>
</g>
<!-- Node26&#45;&gt;Node19 -->
<g id="edge43" class="edge"><title>Node26&#45;&gt;Node19</title>
<path fill="none" stroke="midnightblue" d="M1152.67,-173.139C1195.64,-166.885 1271.97,-153.074 1289,-132 1310.25,-105.711 1314.65,-81.0929 1292,-56 1241.41,0.0435162 1034.17,-32.3624 942.323,-19.6535"/>
<polygon fill="midnightblue" stroke="midnightblue" points="942.672,-16.1636 932.233,-17.9754 941.524,-23.0687 942.672,-16.1636"/>
</g>
<!-- Node27 -->
<g id="node27" class="node"><title>Node27</title>
<g id="a_node27"><a xlink:href="ia_vector4_8h.html" target="_top" xlink:title="iaVector4.h">
<polygon fill="white" stroke="black" points="1214,-112.5 1214,-131.5 1280,-131.5 1280,-112.5 1214,-112.5"/>
<text text-anchor="middle" x="1247" y="-119.5" font-family="Helvetica,sans-Serif" font-size="10.00">iaVector4.h</text>
</a>
</g>
</g>
<!-- Node26&#45;&gt;Node27 -->
<g id="edge35" class="edge"><title>Node26&#45;&gt;Node27</title>
<path fill="none" stroke="midnightblue" d="M1142.65,-168.444C1162.96,-159.596 1194.9,-145.687 1218.1,-135.586"/>
<polygon fill="midnightblue" stroke="midnightblue" points="1219.67,-138.718 1227.44,-131.516 1216.88,-132.3 1219.67,-138.718"/>
</g>
<!-- Node29 -->
<g id="node29" class="node"><title>Node29</title>
<g id="a_node29"><a xlink:href="ia_quaternion_8h.html" target="_top" xlink:title="iaQuaternion.h">
<polygon fill="white" stroke="black" points="1034,-112.5 1034,-131.5 1114,-131.5 1114,-112.5 1034,-112.5"/>
<text text-anchor="middle" x="1074" y="-119.5" font-family="Helvetica,sans-Serif" font-size="10.00">iaQuaternion.h</text>
</a>
</g>
</g>
<!-- Node26&#45;&gt;Node29 -->
<g id="edge38" class="edge"><title>Node26&#45;&gt;Node29</title>
<path fill="none" stroke="midnightblue" d="M1114.91,-168.083C1107.84,-160.298 1097.41,-148.801 1088.85,-139.367"/>
<polygon fill="midnightblue" stroke="midnightblue" points="1091.25,-136.805 1081.94,-131.751 1086.07,-141.509 1091.25,-136.805"/>
</g>
<!-- Node31 -->
<g id="node31" class="node"><title>Node31</title>
<g id="a_node31"><a xlink:href="ia_matrix_8inl.html" target="_top" xlink:title="iaMatrix.inl">
<polygon fill="white" stroke="black" points="1132,-112.5 1132,-131.5 1196,-131.5 1196,-112.5 1132,-112.5"/>
<text text-anchor="middle" x="1164" y="-119.5" font-family="Helvetica,sans-Serif" font-size="10.00">iaMatrix.inl</text>
</a>
</g>
</g>
<!-- Node26&#45;&gt;Node31 -->
<g id="edge45" class="edge"><title>Node26&#45;&gt;Node31</title>
<path fill="none" stroke="midnightblue" d="M1129.77,-168.083C1135.56,-160.455 1144.06,-149.264 1151.14,-139.941"/>
<polygon fill="midnightblue" stroke="midnightblue" points="1154.1,-141.832 1157.36,-131.751 1148.52,-137.599 1154.1,-141.832"/>
</g>
<!-- Node27&#45;&gt;Node18 -->
<g id="edge36" class="edge"><title>Node27&#45;&gt;Node18</title>
<path fill="none" stroke="midnightblue" d="M1213.56,-113.65C1210.67,-113.071 1207.79,-112.512 1205,-112 1116.61,-95.756 1012.47,-80.7338 955.196,-72.8254"/>
<polygon fill="midnightblue" stroke="midnightblue" points="955.445,-69.3269 945.062,-71.4328 954.492,-76.2617 955.445,-69.3269"/>
</g>
<!-- Node28 -->
<g id="node28" class="node"><title>Node28</title>
<g id="a_node28"><a xlink:href="ia_vector4_8inl.html" target="_top" xlink:title="iaVector4.inl">
<polygon fill="white" stroke="black" points="1211.5,-56.5 1211.5,-75.5 1282.5,-75.5 1282.5,-56.5 1211.5,-56.5"/>
<text text-anchor="middle" x="1247" y="-63.5" font-family="Helvetica,sans-Serif" font-size="10.00">iaVector4.inl</text>
</a>
</g>
</g>
<!-- Node27&#45;&gt;Node28 -->
<g id="edge37" class="edge"><title>Node27&#45;&gt;Node28</title>
<path fill="none" stroke="midnightblue" d="M1247,-112.083C1247,-105.006 1247,-94.8611 1247,-85.9865"/>
<polygon fill="midnightblue" stroke="midnightblue" points="1250.5,-85.751 1247,-75.7511 1243.5,-85.7511 1250.5,-85.751"/>
</g>
<!-- Node29&#45;&gt;Node6 -->
<g id="edge40" class="edge"><title>Node29&#45;&gt;Node6</title>
<path fill="none" stroke="midnightblue" d="M1059.51,-112.413C1037.25,-99.3857 993.084,-74.2186 954,-56 927.625,-43.7056 896.895,-31.7043 873.991,-23.1917"/>
<polygon fill="midnightblue" stroke="midnightblue" points="874.969,-19.8224 864.376,-19.6521 872.551,-26.3914 874.969,-19.8224"/>
</g>
<!-- Node29&#45;&gt;Node18 -->
<g id="edge39" class="edge"><title>Node29&#45;&gt;Node18</title>
<path fill="none" stroke="midnightblue" d="M1048.33,-112.444C1021.08,-103.359 977.816,-88.9388 947.349,-78.7831"/>
<polygon fill="midnightblue" stroke="midnightblue" points="948.143,-75.3584 937.549,-75.5164 945.929,-81.9992 948.143,-75.3584"/>
</g>
<!-- Node30 -->
<g id="node30" class="node"><title>Node30</title>
<g id="a_node30"><a xlink:href="ia_quaternion_8inl.html" target="_top" xlink:title="iaQuaternion.inl">
<polygon fill="white" stroke="black" points="1032,-56.5 1032,-75.5 1116,-75.5 1116,-56.5 1032,-56.5"/>
<text text-anchor="middle" x="1074" y="-63.5" font-family="Helvetica,sans-Serif" font-size="10.00">iaQuaternion.inl</text>
</a>
</g>
</g>
<!-- Node29&#45;&gt;Node30 -->
<g id="edge41" class="edge"><title>Node29&#45;&gt;Node30</title>
<path fill="none" stroke="midnightblue" d="M1074,-112.083C1074,-105.006 1074,-94.8611 1074,-85.9865"/>
<polygon fill="midnightblue" stroke="midnightblue" points="1077.5,-85.751 1074,-75.7511 1070.5,-85.7511 1077.5,-85.751"/>
</g>
<!-- Node34&#45;&gt;Node3 -->
<g id="edge50" class="edge"><title>Node34&#45;&gt;Node3</title>
<path fill="none" stroke="midnightblue" d="M822.693,-170.502C785.378,-162.214 718.657,-147.35 651.685,-132.145"/>
<polygon fill="midnightblue" stroke="midnightblue" points="652.333,-128.703 641.806,-129.899 650.782,-135.529 652.333,-128.703"/>
</g>
<!-- Node34&#45;&gt;Node18 -->
<g id="edge51" class="edge"><title>Node34&#45;&gt;Node18</title>
<path fill="none" stroke="midnightblue" d="M845.46,-168.484C836.387,-155.548 822.247,-130.5 833,-112 841.736,-96.9696 857.578,-86.5428 872.795,-79.5405"/>
<polygon fill="midnightblue" stroke="midnightblue" points="874.262,-82.7202 882.119,-75.6125 871.545,-76.2692 874.262,-82.7202"/>
</g>
<!-- Node35 -->
<g id="node35" class="node"><title>Node35</title>
<g id="a_node35"><a xlink:href="i_a_a_box_8inl.html" target="_top" xlink:title="iAABox.inl">
<polygon fill="white" stroke="black" points="842,-112.5 842,-131.5 904,-131.5 904,-112.5 842,-112.5"/>
<text text-anchor="middle" x="873" y="-119.5" font-family="Helvetica,sans-Serif" font-size="10.00">iAABox.inl</text>
</a>
</g>
</g>
<!-- Node34&#45;&gt;Node35 -->
<g id="edge52" class="edge"><title>Node34&#45;&gt;Node35</title>
<path fill="none" stroke="midnightblue" d="M855.468,-168.083C858.312,-160.77 862.429,-150.181 865.96,-141.103"/>
<polygon fill="midnightblue" stroke="midnightblue" points="869.234,-142.34 869.597,-131.751 862.71,-139.803 869.234,-142.34"/>
</g>
<!-- Node36&#45;&gt;Node3 -->
<g id="edge55" class="edge"><title>Node36&#45;&gt;Node3</title>
<path fill="none" stroke="midnightblue" d="M634.71,-280.075C630.932,-253.945 619.838,-177.211 614.686,-141.577"/>
<polygon fill="midnightblue" stroke="midnightblue" points="618.134,-140.964 613.239,-131.568 611.206,-141.966 618.134,-140.964"/>
</g>
<!-- Node36&#45;&gt;Node5 -->
<g id="edge54" class="edge"><title>Node36&#45;&gt;Node5</title>
<path fill="none" stroke="midnightblue" d="M606.313,-280.563C573.59,-271.262 520.83,-256.267 484.842,-246.039"/>
<polygon fill="midnightblue" stroke="midnightblue" points="485.743,-242.657 475.167,-243.29 483.83,-249.39 485.743,-242.657"/>
</g>
<!-- Node36&#45;&gt;Node37 -->
<g id="edge56" class="edge"><title>Node36&#45;&gt;Node37</title>
<path fill="none" stroke="midnightblue" d="M643.926,-280.083C650.846,-272.298 661.065,-260.801 669.452,-251.367"/>
<polygon fill="midnightblue" stroke="midnightblue" points="672.194,-253.55 676.221,-243.751 666.962,-248.9 672.194,-253.55"/>
</g>
<!-- Node38&#45;&gt;Node4 -->
<g id="edge58" class="edge"><title>Node38&#45;&gt;Node4</title>
<path fill="none" stroke="midnightblue" d="M719.953,-59.6249C659.547,-49.7998 531.356,-28.9494 464.155,-18.0193"/>
<polygon fill="midnightblue" stroke="midnightblue" points="464.346,-14.5043 453.914,-16.3534 463.222,-21.4135 464.346,-14.5043"/>
</g>
<!-- Node38&#45;&gt;Node6 -->
<g id="edge60" class="edge"><title>Node38&#45;&gt;Node6</title>
<path fill="none" stroke="midnightblue" d="M766.978,-56.324C780.55,-47.9002 801.38,-34.9709 817.325,-25.0741"/>
<polygon fill="midnightblue" stroke="midnightblue" points="819.406,-27.9019 826.057,-19.6545 815.714,-21.9544 819.406,-27.9019"/>
</g>
<!-- Node38&#45;&gt;Node19 -->
<g id="edge59" class="edge"><title>Node38&#45;&gt;Node19</title>
<path fill="none" stroke="midnightblue" d="M777.877,-56.4435C805.066,-47.0919 848.695,-32.0859 878.314,-21.8984"/>
<polygon fill="midnightblue" stroke="midnightblue" points="879.46,-25.2056 887.778,-18.6433 877.183,-18.5862 879.46,-25.2056"/>
</g>
<!-- Node39 -->
<g id="node39" class="node"><title>Node39</title>
<g id="a_node39"><a xlink:href="ia_vector2_8inl.html" target="_top" xlink:title="iaVector2.inl">
<polygon fill="white" stroke="black" points="717.5,-0.5 717.5,-19.5 788.5,-19.5 788.5,-0.5 717.5,-0.5"/>
<text text-anchor="middle" x="753" y="-7.5" font-family="Helvetica,sans-Serif" font-size="10.00">iaVector2.inl</text>
</a>
</g>
</g>
<!-- Node38&#45;&gt;Node39 -->
<g id="edge61" class="edge"><title>Node38&#45;&gt;Node39</title>
<path fill="none" stroke="midnightblue" d="M753,-56.083C753,-49.0059 753,-38.8611 753,-29.9865"/>
<polygon fill="midnightblue" stroke="midnightblue" points="756.5,-29.751 753,-19.7511 749.5,-29.7511 756.5,-29.751"/>
</g>
<!-- Node40&#45;&gt;Node4 -->
<g id="edge64" class="edge"><title>Node40&#45;&gt;Node4</title>
<path fill="none" stroke="midnightblue" d="M217.899,-168.468C202.255,-156.321 178.223,-133.163 189,-112 224.186,-42.9022 321.148,-21.0738 377.967,-14.1801"/>
<polygon fill="midnightblue" stroke="midnightblue" points="378.532,-17.6391 388.085,-13.0587 377.761,-10.6817 378.532,-17.6391"/>
</g>
<!-- Node40&#45;&gt;Node13 -->
<g id="edge65" class="edge"><title>Node40&#45;&gt;Node13</title>
<path fill="none" stroke="midnightblue" d="M260.461,-169.94C303.719,-159.915 382.736,-141.602 428.234,-131.057"/>
<polygon fill="midnightblue" stroke="midnightblue" points="429.272,-134.41 438.224,-128.742 427.692,-127.59 429.272,-134.41"/>
</g>
<!-- Node40&#45;&gt;Node14 -->
<g id="edge66" class="edge"><title>Node40&#45;&gt;Node14</title>
<path fill="none" stroke="midnightblue" d="M229.174,-168.083C228.519,-161.006 227.58,-150.861 226.758,-141.986"/>
<polygon fill="midnightblue" stroke="midnightblue" points="230.217,-141.386 225.81,-131.751 223.247,-142.031 230.217,-141.386"/>
</g>
<!-- Node41&#45;&gt;Node4 -->
<g id="edge68" class="edge"><title>Node41&#45;&gt;Node4</title>
<path fill="none" stroke="midnightblue" d="M497.577,-168.349C499.542,-155.664 501.966,-131.417 496,-112 485.28,-77.1088 456.592,-44.7287 437.966,-26.4512"/>
<polygon fill="midnightblue" stroke="midnightblue" points="440.336,-23.8758 430.68,-19.5152 435.51,-28.9455 440.336,-23.8758"/>
</g>
<!-- Node41&#45;&gt;Node13 -->
<g id="edge69" class="edge"><title>Node41&#45;&gt;Node13</title>
<path fill="none" stroke="midnightblue" d="M490.551,-168.083C485.986,-160.613 479.332,-149.724 473.707,-140.52"/>
<polygon fill="midnightblue" stroke="midnightblue" points="476.549,-138.459 468.348,-131.751 470.576,-142.109 476.549,-138.459"/>
</g>
</g>
</svg>
