<?xml version="1.0" encoding="UTF-8" standalone="no"?>
<!DOCTYPE svg PUBLIC "-//W3C//DTD SVG 1.1//EN"
 "http://www.w3.org/Graphics/SVG/1.1/DTD/svg11.dtd">
<!-- Generated by graphviz version 2.38.0 (20140413.2041)
 -->
<!-- Title: C:/dev/Igor/src/Igor/src/iEntityLocatable.cpp Pages: 1 -->
<svg width="797pt" height="431pt"
 viewBox="0.00 0.00 796.50 431.00" xmlns="http://www.w3.org/2000/svg" xmlns:xlink="http://www.w3.org/1999/xlink">
<g id="graph0" class="graph" transform="scale(1 1) rotate(0) translate(4 427)">
<title>C:/dev/Igor/src/Igor/src/iEntityLocatable.cpp</title>
<polygon fill="white" stroke="none" points="-4,4 -4,-427 792.5,-427 792.5,4 -4,4"/>
<!-- Node1 -->
<g id="node1" class="node"><title>Node1</title>
<polygon fill="#bfbfbf" stroke="black" points="435.5,-392.5 435.5,-422.5 560.5,-422.5 560.5,-392.5 435.5,-392.5"/>
<text text-anchor="start" x="443.5" y="-410.5" font-family="Helvetica,sans-Serif" font-size="10.00">C:/dev/Igor/src/Igor</text>
<text text-anchor="middle" x="498" y="-399.5" font-family="Helvetica,sans-Serif" font-size="10.00">/src/iEntityLocatable.cpp</text>
</g>
<!-- Node2 -->
<g id="node2" class="node"><title>Node2</title>
<g id="a_node2"><a xlink:href="i_entity_locatable_8h.html" target="_top" xlink:title="iEntityLocatable.h">
<polygon fill="white" stroke="black" points="450.5,-336.5 450.5,-355.5 545.5,-355.5 545.5,-336.5 450.5,-336.5"/>
<text text-anchor="middle" x="498" y="-343.5" font-family="Helvetica,sans-Serif" font-size="10.00">iEntityLocatable.h</text>
</a>
</g>
</g>
<!-- Node1&#45;&gt;Node2 -->
<g id="edge1" class="edge"><title>Node1&#45;&gt;Node2</title>
<path fill="none" stroke="midnightblue" d="M498,-392.399C498,-384.466 498,-374.458 498,-365.858"/>
<polygon fill="midnightblue" stroke="midnightblue" points="501.5,-365.658 498,-355.658 494.5,-365.658 501.5,-365.658"/>
</g>
<!-- Node3 -->
<g id="node3" class="node"><title>Node3</title>
<g id="a_node3"><a xlink:href="i_entity_8h.html" target="_top" xlink:title="iEntity.h">
<polygon fill="white" stroke="black" points="693.5,-112.5 693.5,-131.5 746.5,-131.5 746.5,-112.5 693.5,-112.5"/>
<text text-anchor="middle" x="720" y="-119.5" font-family="Helvetica,sans-Serif" font-size="10.00">iEntity.h</text>
</a>
</g>
</g>
<!-- Node2&#45;&gt;Node3 -->
<g id="edge2" class="edge"><title>Node2&#45;&gt;Node3</title>
<path fill="none" stroke="midnightblue" d="M506.703,-336.297C540.06,-302.94 660.077,-182.923 703.865,-139.135"/>
<polygon fill="midnightblue" stroke="midnightblue" points="706.52,-141.43 711.116,-131.884 701.57,-136.48 706.52,-141.43"/>
</g>
<!-- Node7 -->
<g id="node7" class="node"><title>Node7</title>
<g id="a_node7"><a xlink:href="i_sphere_8h.html" target="_top" xlink:title="iSphere.h">
<polygon fill="white" stroke="black" points="469,-280.5 469,-299.5 527,-299.5 527,-280.5 469,-280.5"/>
<text text-anchor="middle" x="498" y="-287.5" font-family="Helvetica,sans-Serif" font-size="10.00">iSphere.h</text>
</a>
</g>
</g>
<!-- Node2&#45;&gt;Node7 -->
<g id="edge7" class="edge"><title>Node2&#45;&gt;Node7</title>
<path fill="none" stroke="midnightblue" d="M498,-336.083C498,-329.006 498,-318.861 498,-309.986"/>
<polygon fill="midnightblue" stroke="midnightblue" points="501.5,-309.751 498,-299.751 494.5,-309.751 501.5,-309.751"/>
</g>
<!-- Node10 -->
<g id="node10" class="node"><title>Node10</title>
<g id="a_node10"><a xlink:href="ia_vector3_8h.html" target="_top" xlink:title="iaVector3.h">
<polygon fill="white" stroke="black" points="112,-56.5 112,-75.5 178,-75.5 178,-56.5 112,-56.5"/>
<text text-anchor="middle" x="145" y="-63.5" font-family="Helvetica,sans-Serif" font-size="10.00">iaVector3.h</text>
</a>
</g>
</g>
<!-- Node2&#45;&gt;Node10 -->
<g id="edge39" class="edge"><title>Node2&#45;&gt;Node10</title>
<path fill="none" stroke="midnightblue" d="M450.32,-343.803C331.552,-339.533 32,-320.308 32,-235 32,-235 32,-235 32,-177 32,-146.902 31.5105,-134.936 51,-112 64.3077,-96.3393 84.3116,-85.7168 102.45,-78.7447"/>
<polygon fill="midnightblue" stroke="midnightblue" points="103.761,-81.9932 111.999,-75.3313 101.404,-75.4016 103.761,-81.9932"/>
</g>
<!-- Node4 -->
<g id="node4" class="node"><title>Node4</title>
<g id="a_node4"><a xlink:href="i_defines_8h.html" target="_top" xlink:title="iDefines.h">
<polygon fill="white" stroke="black" points="547.5,-56.5 547.5,-75.5 606.5,-75.5 606.5,-56.5 547.5,-56.5"/>
<text text-anchor="middle" x="577" y="-63.5" font-family="Helvetica,sans-Serif" font-size="10.00">iDefines.h</text>
</a>
</g>
</g>
<!-- Node3&#45;&gt;Node4 -->
<g id="edge3" class="edge"><title>Node3&#45;&gt;Node4</title>
<path fill="none" stroke="midnightblue" d="M697.341,-112.444C673.598,-103.478 636.091,-89.314 609.262,-79.1827"/>
<polygon fill="midnightblue" stroke="midnightblue" points="610.144,-75.7749 599.553,-75.5164 607.671,-82.3235 610.144,-75.7749"/>
</g>
<!-- Node6 -->
<g id="node6" class="node"><title>Node6</title>
<g id="a_node6"><a xlink:href="ia_mutex_8h.html" target="_top" xlink:title="iaMutex.h">
<polygon fill="white" stroke="black" points="624.5,-56.5 624.5,-75.5 683.5,-75.5 683.5,-56.5 624.5,-56.5"/>
<text text-anchor="middle" x="654" y="-63.5" font-family="Helvetica,sans-Serif" font-size="10.00">iaMutex.h</text>
</a>
</g>
</g>
<!-- Node3&#45;&gt;Node6 -->
<g id="edge5" class="edge"><title>Node3&#45;&gt;Node6</title>
<path fill="none" stroke="midnightblue" d="M709.396,-112.324C699.544,-104.263 684.649,-92.0765 672.785,-82.3695"/>
<polygon fill="midnightblue" stroke="midnightblue" points="674.753,-79.4575 664.797,-75.8339 670.32,-84.8752 674.753,-79.4575"/>
</g>
<!-- Node5 -->
<g id="node5" class="node"><title>Node5</title>
<g id="a_node5"><a xlink:href="ia_defines_8h.html" target="_top" xlink:title="iaDefines.h">
<polygon fill="white" stroke="black" points="582.5,-0.5 582.5,-19.5 647.5,-19.5 647.5,-0.5 582.5,-0.5"/>
<text text-anchor="middle" x="615" y="-7.5" font-family="Helvetica,sans-Serif" font-size="10.00">iaDefines.h</text>
</a>
</g>
</g>
<!-- Node4&#45;&gt;Node5 -->
<g id="edge4" class="edge"><title>Node4&#45;&gt;Node5</title>
<path fill="none" stroke="midnightblue" d="M583.275,-56.083C588.642,-48.4554 596.518,-37.2645 603.079,-27.9408"/>
<polygon fill="midnightblue" stroke="midnightblue" points="605.949,-29.9434 608.842,-19.7511 600.225,-25.9149 605.949,-29.9434"/>
</g>
<!-- Node6&#45;&gt;Node5 -->
<g id="edge6" class="edge"><title>Node6&#45;&gt;Node5</title>
<path fill="none" stroke="midnightblue" d="M647.56,-56.083C642.051,-48.4554 633.969,-37.2645 627.235,-27.9408"/>
<polygon fill="midnightblue" stroke="midnightblue" points="630.013,-25.8087 621.32,-19.7511 624.338,-29.9071 630.013,-25.8087"/>
</g>
<!-- Node8 -->
<g id="node8" class="node"><title>Node8</title>
<g id="a_node8"><a xlink:href="i_frustum_8h.html" target="_top" xlink:title="iFrustum.h">
<polygon fill="white" stroke="black" points="385.5,-224.5 385.5,-243.5 448.5,-243.5 448.5,-224.5 385.5,-224.5"/>
<text text-anchor="middle" x="417" y="-231.5" font-family="Helvetica,sans-Serif" font-size="10.00">iFrustum.h</text>
</a>
</g>
</g>
<!-- Node7&#45;&gt;Node8 -->
<g id="edge8" class="edge"><title>Node7&#45;&gt;Node8</title>
<path fill="none" stroke="midnightblue" d="M484.986,-280.324C472.468,-271.979 453.318,-259.212 438.529,-249.352"/>
<polygon fill="midnightblue" stroke="midnightblue" points="440.244,-246.289 429.982,-243.655 436.361,-252.114 440.244,-246.289"/>
</g>
<!-- Node24 -->
<g id="node24" class="node"><title>Node24</title>
<g id="a_node24"><a xlink:href="ia_console_8h.html" target="_top" xlink:title="iaConsole.h">
<polygon fill="white" stroke="black" points="523,-168.5 523,-187.5 591,-187.5 591,-168.5 523,-168.5"/>
<text text-anchor="middle" x="557" y="-175.5" font-family="Helvetica,sans-Serif" font-size="10.00">iaConsole.h</text>
</a>
</g>
</g>
<!-- Node7&#45;&gt;Node24 -->
<g id="edge30" class="edge"><title>Node7&#45;&gt;Node24</title>
<path fill="none" stroke="midnightblue" d="M507.927,-280.296C516.977,-271.856 530.104,-258.267 538,-244 546.006,-229.535 550.95,-211.348 553.78,-197.893"/>
<polygon fill="midnightblue" stroke="midnightblue" points="557.252,-198.367 555.68,-187.889 550.375,-197.06 557.252,-198.367"/>
</g>
<!-- Node28 -->
<g id="node28" class="node"><title>Node28</title>
<g id="a_node28"><a xlink:href="i_sphere_8inl.html" target="_top" xlink:title="iSphere.inl">
<polygon fill="white" stroke="black" points="467,-224.5 467,-243.5 529,-243.5 529,-224.5 467,-224.5"/>
<text text-anchor="middle" x="498" y="-231.5" font-family="Helvetica,sans-Serif" font-size="10.00">iSphere.inl</text>
</a>
</g>
</g>
<!-- Node7&#45;&gt;Node28 -->
<g id="edge38" class="edge"><title>Node7&#45;&gt;Node28</title>
<path fill="none" stroke="midnightblue" d="M498,-280.083C498,-273.006 498,-262.861 498,-253.986"/>
<polygon fill="midnightblue" stroke="midnightblue" points="501.5,-253.751 498,-243.751 494.5,-253.751 501.5,-253.751"/>
</g>
<!-- Node9 -->
<g id="node9" class="node"><title>Node9</title>
<g id="a_node9"><a xlink:href="i_plane_8h.html" target="_top" xlink:title="iPlane.h">
<polygon fill="white" stroke="black" points="460,-112.5 460,-131.5 512,-131.5 512,-112.5 460,-112.5"/>
<text text-anchor="middle" x="486" y="-119.5" font-family="Helvetica,sans-Serif" font-size="10.00">iPlane.h</text>
</a>
</g>
</g>
<!-- Node8&#45;&gt;Node9 -->
<g id="edge9" class="edge"><title>Node8&#45;&gt;Node9</title>
<path fill="none" stroke="midnightblue" d="M427.383,-224.255C436.908,-215.786 450.881,-202.177 460,-188 469.339,-173.482 476.318,-155.065 480.682,-141.545"/>
<polygon fill="midnightblue" stroke="midnightblue" points="484.048,-142.506 483.615,-131.92 477.352,-140.465 484.048,-142.506"/>
</g>
<!-- Node15 -->
<g id="node15" class="node"><title>Node15</title>
<g id="a_node15"><a xlink:href="ia_matrix_8h.html" target="_top" xlink:title="iaMatrix.h">
<polygon fill="white" stroke="black" points="244.5,-168.5 244.5,-187.5 303.5,-187.5 303.5,-168.5 244.5,-168.5"/>
<text text-anchor="middle" x="274" y="-175.5" font-family="Helvetica,sans-Serif" font-size="10.00">iaMatrix.h</text>
</a>
</g>
</g>
<!-- Node8&#45;&gt;Node15 -->
<g id="edge17" class="edge"><title>Node8&#45;&gt;Node15</title>
<path fill="none" stroke="midnightblue" d="M394.341,-224.444C370.598,-215.478 333.091,-201.314 306.262,-191.183"/>
<polygon fill="midnightblue" stroke="midnightblue" points="307.144,-187.775 296.553,-187.516 304.671,-194.324 307.144,-187.775"/>
</g>
<!-- Node23 -->
<g id="node23" class="node"><title>Node23</title>
<g id="a_node23"><a xlink:href="i_frustum_8inl.html" target="_top" xlink:title="iFrustum.inl">
<polygon fill="white" stroke="black" points="383,-168.5 383,-187.5 451,-187.5 451,-168.5 383,-168.5"/>
<text text-anchor="middle" x="417" y="-175.5" font-family="Helvetica,sans-Serif" font-size="10.00">iFrustum.inl</text>
</a>
</g>
</g>
<!-- Node8&#45;&gt;Node23 -->
<g id="edge29" class="edge"><title>Node8&#45;&gt;Node23</title>
<path fill="none" stroke="midnightblue" d="M417,-224.083C417,-217.006 417,-206.861 417,-197.986"/>
<polygon fill="midnightblue" stroke="midnightblue" points="420.5,-197.751 417,-187.751 413.5,-197.751 420.5,-197.751"/>
</g>
<!-- Node9&#45;&gt;Node4 -->
<g id="edge10" class="edge"><title>Node9&#45;&gt;Node4</title>
<path fill="none" stroke="midnightblue" d="M500.621,-112.324C514.949,-103.822 537.013,-90.7288 553.749,-80.7975"/>
<polygon fill="midnightblue" stroke="midnightblue" points="555.602,-83.7677 562.416,-75.6545 552.03,-77.7478 555.602,-83.7677"/>
</g>
<!-- Node9&#45;&gt;Node10 -->
<g id="edge11" class="edge"><title>Node9&#45;&gt;Node10</title>
<path fill="none" stroke="midnightblue" d="M459.721,-114.113C456.458,-113.352 453.16,-112.626 450,-112 357.381,-93.6365 247.579,-79.213 188.255,-72.0195"/>
<polygon fill="midnightblue" stroke="midnightblue" points="188.477,-68.5209 178.13,-70.8026 187.641,-75.4709 188.477,-68.5209"/>
</g>
<!-- Node14 -->
<g id="node14" class="node"><title>Node14</title>
<g id="a_node14"><a xlink:href="i_plane_8inl.html" target="_top" xlink:title="iPlane.inl">
<polygon fill="white" stroke="black" points="458,-56.5 458,-75.5 514,-75.5 514,-56.5 458,-56.5"/>
<text text-anchor="middle" x="486" y="-63.5" font-family="Helvetica,sans-Serif" font-size="10.00">iPlane.inl</text>
</a>
</g>
</g>
<!-- Node9&#45;&gt;Node14 -->
<g id="edge16" class="edge"><title>Node9&#45;&gt;Node14</title>
<path fill="none" stroke="midnightblue" d="M486,-112.083C486,-105.006 486,-94.8611 486,-85.9865"/>
<polygon fill="midnightblue" stroke="midnightblue" points="489.5,-85.751 486,-75.7511 482.5,-85.7511 489.5,-85.751"/>
</g>
<!-- Node10&#45;&gt;Node5 -->
<g id="edge12" class="edge"><title>Node10&#45;&gt;Node5</title>
<path fill="none" stroke="midnightblue" d="M178.049,-61.2028C261.244,-51.6443 479.286,-26.5927 572.137,-15.9247"/>
<polygon fill="midnightblue" stroke="midnightblue" points="572.765,-19.3757 582.3,-14.7571 571.965,-12.4214 572.765,-19.3757"/>
</g>
<!-- Node11 -->
<g id="node11" class="node"><title>Node11</title>
<polygon fill="white" stroke="#bfbfbf" points="0,-0.5 0,-19.5 44,-19.5 44,-0.5 0,-0.5"/>
<text text-anchor="middle" x="22" y="-7.5" font-family="Helvetica,sans-Serif" font-size="10.00">cmath</text>
</g>
<!-- Node10&#45;&gt;Node11 -->
<g id="edge13" class="edge"><title>Node10&#45;&gt;Node11</title>
<path fill="none" stroke="midnightblue" d="M125.51,-56.4435C105.358,-47.5961 73.6771,-33.6875 50.6692,-23.5865"/>
<polygon fill="midnightblue" stroke="midnightblue" points="51.962,-20.3316 41.3985,-19.5164 49.148,-26.7411 51.962,-20.3316"/>
</g>
<!-- Node12 -->
<g id="node12" class="node"><title>Node12</title>
<polygon fill="white" stroke="#bfbfbf" points="180,-0.5 180,-19.5 232,-19.5 232,-0.5 180,-0.5"/>
<text text-anchor="middle" x="206" y="-7.5" font-family="Helvetica,sans-Serif" font-size="10.00">ostream</text>
</g>
<!-- Node10&#45;&gt;Node12 -->
<g id="edge14" class="edge"><title>Node10&#45;&gt;Node12</title>
<path fill="none" stroke="midnightblue" d="M154.801,-56.324C163.818,-48.3414 177.406,-36.3128 188.318,-26.6529"/>
<polygon fill="midnightblue" stroke="midnightblue" points="190.853,-29.083 196.021,-19.8339 186.213,-23.8416 190.853,-29.083"/>
</g>
<!-- Node13 -->
<g id="node13" class="node"><title>Node13</title>
<g id="a_node13"><a xlink:href="ia_vector3_8inl.html" target="_top" xlink:title="iaVector3.inl">
<polygon fill="white" stroke="black" points="90.5,-0.5 90.5,-19.5 161.5,-19.5 161.5,-0.5 90.5,-0.5"/>
<text text-anchor="middle" x="126" y="-7.5" font-family="Helvetica,sans-Serif" font-size="10.00">iaVector3.inl</text>
</a>
</g>
</g>
<!-- Node10&#45;&gt;Node13 -->
<g id="edge15" class="edge"><title>Node10&#45;&gt;Node13</title>
<path fill="none" stroke="midnightblue" d="M141.863,-56.083C139.317,-48.8486 135.644,-38.4087 132.473,-29.3968"/>
<polygon fill="midnightblue" stroke="midnightblue" points="135.7,-28.0225 129.079,-19.7511 129.097,-30.3459 135.7,-28.0225"/>
</g>
<!-- Node15&#45;&gt;Node11 -->
<g id="edge26" class="edge"><title>Node15&#45;&gt;Node11</title>
<path fill="none" stroke="midnightblue" d="M244.251,-177.872C198.796,-177.789 111.02,-171.914 51,-132 25.9544,-115.344 21.8341,-104.752 13,-76 8.2947,-60.686 11.4745,-42.5828 15.2965,-29.3757"/>
<polygon fill="midnightblue" stroke="midnightblue" points="18.7111,-30.1947 18.4989,-19.602 12.0591,-28.0151 18.7111,-30.1947"/>
</g>
<!-- Node16 -->
<g id="node16" class="node"><title>Node16</title>
<g id="a_node16"><a xlink:href="ia_vector4_8h.html" target="_top" xlink:title="iaVector4.h">
<polygon fill="white" stroke="black" points="60,-112.5 60,-131.5 126,-131.5 126,-112.5 60,-112.5"/>
<text text-anchor="middle" x="93" y="-119.5" font-family="Helvetica,sans-Serif" font-size="10.00">iaVector4.h</text>
</a>
</g>
</g>
<!-- Node15&#45;&gt;Node16 -->
<g id="edge18" class="edge"><title>Node15&#45;&gt;Node16</title>
<path fill="none" stroke="midnightblue" d="M245.32,-168.444C214.473,-159.241 165.272,-144.562 131.171,-134.388"/>
<polygon fill="midnightblue" stroke="midnightblue" points="132.129,-131.021 121.546,-131.516 130.128,-137.729 132.129,-131.021"/>
</g>
<!-- Node18 -->
<g id="node18" class="node"><title>Node18</title>
<g id="a_node18"><a xlink:href="ia_quaternion_8h.html" target="_top" xlink:title="iaQuaternion.h">
<polygon fill="white" stroke="black" points="144,-112.5 144,-131.5 224,-131.5 224,-112.5 144,-112.5"/>
<text text-anchor="middle" x="184" y="-119.5" font-family="Helvetica,sans-Serif" font-size="10.00">iaQuaternion.h</text>
</a>
</g>
</g>
<!-- Node15&#45;&gt;Node18 -->
<g id="edge21" class="edge"><title>Node15&#45;&gt;Node18</title>
<path fill="none" stroke="midnightblue" d="M259.54,-168.324C245.5,-159.9 223.952,-146.971 207.457,-137.074"/>
<polygon fill="midnightblue" stroke="midnightblue" points="208.8,-133.798 198.424,-131.655 205.198,-139.801 208.8,-133.798"/>
</g>
<!-- Node20 -->
<g id="node20" class="node"><title>Node20</title>
<polygon fill="white" stroke="#bfbfbf" points="392.5,-112.5 392.5,-131.5 441.5,-131.5 441.5,-112.5 392.5,-112.5"/>
<text text-anchor="middle" x="417" y="-119.5" font-family="Helvetica,sans-Serif" font-size="10.00">fstream</text>
</g>
<!-- Node15&#45;&gt;Node20 -->
<g id="edge25" class="edge"><title>Node15&#45;&gt;Node20</title>
<path fill="none" stroke="midnightblue" d="M296.659,-168.444C320.402,-159.478 357.909,-145.314 384.738,-135.183"/>
<polygon fill="midnightblue" stroke="midnightblue" points="386.329,-138.324 394.447,-131.516 383.856,-131.775 386.329,-138.324"/>
</g>
<!-- Node21 -->
<g id="node21" class="node"><title>Node21</title>
<polygon fill="white" stroke="#bfbfbf" points="324,-112.5 324,-131.5 374,-131.5 374,-112.5 324,-112.5"/>
<text text-anchor="middle" x="349" y="-119.5" font-family="Helvetica,sans-Serif" font-size="10.00">iomanip</text>
</g>
<!-- Node15&#45;&gt;Node21 -->
<g id="edge27" class="edge"><title>Node15&#45;&gt;Node21</title>
<path fill="none" stroke="midnightblue" d="M286.05,-168.324C297.463,-160.107 314.831,-147.602 328.435,-137.807"/>
<polygon fill="midnightblue" stroke="midnightblue" points="330.66,-140.517 336.731,-131.834 326.57,-134.837 330.66,-140.517"/>
</g>
<!-- Node22 -->
<g id="node22" class="node"><title>Node22</title>
<g id="a_node22"><a xlink:href="ia_matrix_8inl.html" target="_top" xlink:title="iaMatrix.inl">
<polygon fill="white" stroke="black" points="242,-112.5 242,-131.5 306,-131.5 306,-112.5 242,-112.5"/>
<text text-anchor="middle" x="274" y="-119.5" font-family="Helvetica,sans-Serif" font-size="10.00">iaMatrix.inl</text>
</a>
</g>
</g>
<!-- Node15&#45;&gt;Node22 -->
<g id="edge28" class="edge"><title>Node15&#45;&gt;Node22</title>
<path fill="none" stroke="midnightblue" d="M274,-168.083C274,-161.006 274,-150.861 274,-141.986"/>
<polygon fill="midnightblue" stroke="midnightblue" points="277.5,-141.751 274,-131.751 270.5,-141.751 277.5,-141.751"/>
</g>
<!-- Node16&#45;&gt;Node10 -->
<g id="edge19" class="edge"><title>Node16&#45;&gt;Node10</title>
<path fill="none" stroke="midnightblue" d="M101.587,-112.083C109.159,-104.22 120.378,-92.5688 129.514,-83.0813"/>
<polygon fill="midnightblue" stroke="midnightblue" points="132.158,-85.3821 136.573,-75.7511 127.115,-80.5266 132.158,-85.3821"/>
</g>
<!-- Node17 -->
<g id="node17" class="node"><title>Node17</title>
<g id="a_node17"><a xlink:href="ia_vector4_8inl.html" target="_top" xlink:title="iaVector4.inl">
<polygon fill="white" stroke="black" points="22.5,-56.5 22.5,-75.5 93.5,-75.5 93.5,-56.5 22.5,-56.5"/>
<text text-anchor="middle" x="58" y="-63.5" font-family="Helvetica,sans-Serif" font-size="10.00">iaVector4.inl</text>
</a>
</g>
</g>
<!-- Node16&#45;&gt;Node17 -->
<g id="edge20" class="edge"><title>Node16&#45;&gt;Node17</title>
<path fill="none" stroke="midnightblue" d="M87.2205,-112.083C82.3276,-104.534 75.1726,-93.4948 69.1674,-84.2298"/>
<polygon fill="midnightblue" stroke="midnightblue" points="72.048,-82.239 63.672,-75.7511 66.174,-86.0463 72.048,-82.239"/>
</g>
<!-- Node18&#45;&gt;Node10 -->
<g id="edge22" class="edge"><title>Node18&#45;&gt;Node10</title>
<path fill="none" stroke="midnightblue" d="M177.56,-112.083C172.051,-104.455 163.969,-93.2645 157.235,-83.9408"/>
<polygon fill="midnightblue" stroke="midnightblue" points="160.013,-81.8087 151.32,-75.7511 154.338,-85.9071 160.013,-81.8087"/>
</g>
<!-- Node18&#45;&gt;Node12 -->
<g id="edge23" class="edge"><title>Node18&#45;&gt;Node12</title>
<path fill="none" stroke="midnightblue" d="M185.726,-112.368C189.277,-94.617 197.467,-53.6664 202.281,-29.5974"/>
<polygon fill="midnightblue" stroke="midnightblue" points="205.753,-30.0837 204.282,-19.5914 198.888,-28.7108 205.753,-30.0837"/>
</g>
<!-- Node19 -->
<g id="node19" class="node"><title>Node19</title>
<g id="a_node19"><a xlink:href="ia_quaternion_8inl.html" target="_top" xlink:title="iaQuaternion.inl">
<polygon fill="white" stroke="black" points="234,-56.5 234,-75.5 318,-75.5 318,-56.5 234,-56.5"/>
<text text-anchor="middle" x="276" y="-63.5" font-family="Helvetica,sans-Serif" font-size="10.00">iaQuaternion.inl</text>
</a>
</g>
</g>
<!-- Node18&#45;&gt;Node19 -->
<g id="edge24" class="edge"><title>Node18&#45;&gt;Node19</title>
<path fill="none" stroke="midnightblue" d="M198.781,-112.324C213.267,-103.822 235.573,-90.7288 252.493,-80.7975"/>
<polygon fill="midnightblue" stroke="midnightblue" points="254.403,-83.735 261.255,-75.6545 250.859,-77.6981 254.403,-83.735"/>
</g>
<!-- Node24&#45;&gt;Node20 -->
<g id="edge35" class="edge"><title>Node24&#45;&gt;Node20</title>
<path fill="none" stroke="midnightblue" d="M534.817,-168.444C511.572,-159.478 474.851,-145.314 448.585,-135.183"/>
<polygon fill="midnightblue" stroke="midnightblue" points="449.669,-131.85 439.08,-131.516 447.15,-138.381 449.669,-131.85"/>
</g>
<!-- Node24&#45;&gt;Node21 -->
<g id="edge37" class="edge"><title>Node24&#45;&gt;Node21</title>
<path fill="none" stroke="midnightblue" d="M523.628,-168.43C490.575,-159.928 438.254,-146.434 384.03,-132.26"/>
<polygon fill="midnightblue" stroke="midnightblue" points="384.807,-128.845 374.247,-129.7 383.035,-135.617 384.807,-128.845"/>
</g>
<!-- Node25 -->
<g id="node25" class="node"><title>Node25</title>
<g id="a_node25"><a xlink:href="ia_singleton_8h.html" target="_top" xlink:title="iaSingleton.h">
<polygon fill="white" stroke="black" points="602.5,-112.5 602.5,-131.5 675.5,-131.5 675.5,-112.5 602.5,-112.5"/>
<text text-anchor="middle" x="639" y="-119.5" font-family="Helvetica,sans-Serif" font-size="10.00">iaSingleton.h</text>
</a>
</g>
</g>
<!-- Node24&#45;&gt;Node25 -->
<g id="edge31" class="edge"><title>Node24&#45;&gt;Node25</title>
<path fill="none" stroke="midnightblue" d="M570.175,-168.324C582.847,-159.979 602.233,-147.212 617.206,-137.352"/>
<polygon fill="midnightblue" stroke="midnightblue" points="619.431,-140.078 625.858,-131.655 615.581,-134.231 619.431,-140.078"/>
</g>
<!-- Node26 -->
<g id="node26" class="node"><title>Node26</title>
<g id="a_node26"><a xlink:href="ia_clock_8h.html" target="_top" xlink:title="iaClock.h">
<polygon fill="white" stroke="black" points="731.5,-56.5 731.5,-75.5 788.5,-75.5 788.5,-56.5 731.5,-56.5"/>
<text text-anchor="middle" x="760" y="-63.5" font-family="Helvetica,sans-Serif" font-size="10.00">iaClock.h</text>
</a>
</g>
</g>
<!-- Node24&#45;&gt;Node26 -->
<g id="edge33" class="edge"><title>Node24&#45;&gt;Node26</title>
<path fill="none" stroke="midnightblue" d="M591.395,-174.024C642.305,-168.853 733.983,-156.351 755,-132 765.737,-119.56 765.903,-100.324 764.036,-86.0008"/>
<polygon fill="midnightblue" stroke="midnightblue" points="767.422,-85.0462 762.265,-75.7915 760.525,-86.2425 767.422,-85.0462"/>
</g>
<!-- Node27 -->
<g id="node27" class="node"><title>Node27</title>
<polygon fill="white" stroke="#bfbfbf" points="530,-112.5 530,-131.5 584,-131.5 584,-112.5 530,-112.5"/>
<text text-anchor="middle" x="557" y="-119.5" font-family="Helvetica,sans-Serif" font-size="10.00">iostream</text>
</g>
<!-- Node24&#45;&gt;Node27 -->
<g id="edge36" class="edge"><title>Node24&#45;&gt;Node27</title>
<path fill="none" stroke="midnightblue" d="M557,-168.083C557,-161.006 557,-150.861 557,-141.986"/>
<polygon fill="midnightblue" stroke="midnightblue" points="560.5,-141.751 557,-131.751 553.5,-141.751 560.5,-141.751"/>
</g>
<!-- Node25&#45;&gt;Node6 -->
<g id="edge32" class="edge"><title>Node25&#45;&gt;Node6</title>
<path fill="none" stroke="midnightblue" d="M641.477,-112.083C643.486,-104.849 646.386,-94.4087 648.89,-85.3968"/>
<polygon fill="midnightblue" stroke="midnightblue" points="652.265,-86.323 651.569,-75.7511 645.52,-84.4495 652.265,-86.323"/>
</g>
<!-- Node26&#45;&gt;Node5 -->
<g id="edge34" class="edge"><title>Node26&#45;&gt;Node5</title>
<path fill="none" stroke="midnightblue" d="M737.024,-56.4435C712.843,-47.4381 674.582,-33.1891 647.354,-23.049"/>
<polygon fill="midnightblue" stroke="midnightblue" points="648.461,-19.7265 637.868,-19.5164 646.018,-26.2864 648.461,-19.7265"/>
</g>
</g>
</svg>
