<?xml version="1.0" encoding="UTF-8" standalone="no"?>
<!DOCTYPE svg PUBLIC "-//W3C//DTD SVG 1.1//EN"
 "http://www.w3.org/Graphics/SVG/1.1/DTD/svg11.dtd">
<!-- Generated by graphviz version 2.38.0 (20140413.2041)
 -->
<!-- Title: C:/dev/Igor/Igor/src/Igor/src/iFrustum.h Pages: 1 -->
<svg width="487pt" height="263pt"
 viewBox="0.00 0.00 486.50 263.00" xmlns="http://www.w3.org/2000/svg" xmlns:xlink="http://www.w3.org/1999/xlink">
<g id="graph0" class="graph" transform="scale(1 1) rotate(0) translate(4 259)">
<title>C:/dev/Igor/Igor/src/Igor/src/iFrustum.h</title>
<polygon fill="white" stroke="none" points="-4,4 -4,-259 482.5,-259 482.5,4 -4,4"/>
<!-- Node0 -->
<g id="node1" class="node"><title>Node0</title>
<g id="a_node1"><a xlink:title=" ">
<polygon fill="#bfbfbf" stroke="black" points="276,-224.5 276,-254.5 377,-254.5 377,-224.5 276,-224.5"/>
<text text-anchor="start" x="284" y="-242.5" font-family="Helvetica,sans-Serif" font-size="10.00">C:/dev/Igor/Igor/src</text>
<text text-anchor="middle" x="326.5" y="-231.5" font-family="Helvetica,sans-Serif" font-size="10.00">/Igor/src/iFrustum.h</text>
</a>
</g>
</g>
<!-- Node1 -->
<g id="node2" class="node"><title>Node1</title>
<g id="a_node2"><a xlink:href="i_plane_8h.html" target="_top" xlink:title=" ">
<polygon fill="white" stroke="black" points="79.5,-112.5 79.5,-131.5 131.5,-131.5 131.5,-112.5 79.5,-112.5"/>
<text text-anchor="middle" x="105.5" y="-119.5" font-family="Helvetica,sans-Serif" font-size="10.00">iPlane.h</text>
</a>
</g>
</g>
<!-- Node0&#45;&gt;Node1 -->
<g id="edge1" class="edge"><title>Node0&#45;&gt;Node1</title>
<path fill="none" stroke="midnightblue" d="M299.401,-224.337C256.308,-201.816 172.756,-158.15 130.812,-136.229"/>
<polygon fill="midnightblue" stroke="midnightblue" points="132.291,-133.052 121.807,-131.522 129.048,-139.256 132.291,-133.052"/>
</g>
<!-- Node9 -->
<g id="node10" class="node"><title>Node9</title>
<g id="a_node10"><a xlink:href="ia_matrix_8h.html" target="_top" xlink:title=" ">
<polygon fill="white" stroke="black" points="297,-168.5 297,-187.5 356,-187.5 356,-168.5 297,-168.5"/>
<text text-anchor="middle" x="326.5" y="-175.5" font-family="Helvetica,sans-Serif" font-size="10.00">iaMatrix.h</text>
</a>
</g>
</g>
<!-- Node0&#45;&gt;Node9 -->
<g id="edge10" class="edge"><title>Node0&#45;&gt;Node9</title>
<path fill="none" stroke="midnightblue" d="M326.5,-224.399C326.5,-216.466 326.5,-206.458 326.5,-197.858"/>
<polygon fill="midnightblue" stroke="midnightblue" points="330,-197.658 326.5,-187.658 323,-197.658 330,-197.658"/>
</g>
<!-- Node15 -->
<g id="node16" class="node"><title>Node15</title>
<g id="a_node16"><a xlink:href="i_frustum_8inl.html" target="_top" xlink:title=" ">
<polygon fill="white" stroke="black" points="374.5,-168.5 374.5,-187.5 442.5,-187.5 442.5,-168.5 374.5,-168.5"/>
<text text-anchor="middle" x="408.5" y="-175.5" font-family="Helvetica,sans-Serif" font-size="10.00">iFrustum.inl</text>
</a>
</g>
</g>
<!-- Node0&#45;&gt;Node15 -->
<g id="edge19" class="edge"><title>Node0&#45;&gt;Node15</title>
<path fill="none" stroke="midnightblue" d="M345.933,-224.399C358.708,-215.129 375.389,-203.025 388.314,-193.647"/>
<polygon fill="midnightblue" stroke="midnightblue" points="390.53,-196.364 396.568,-187.658 386.419,-190.698 390.53,-196.364"/>
</g>
<!-- Node2 -->
<g id="node3" class="node"><title>Node2</title>
<g id="a_node3"><a xlink:href="i_defines_8h.html" target="_top" xlink:title=" ">
<polygon fill="white" stroke="black" points="0,-56.5 0,-75.5 59,-75.5 59,-56.5 0,-56.5"/>
<text text-anchor="middle" x="29.5" y="-63.5" font-family="Helvetica,sans-Serif" font-size="10.00">iDefines.h</text>
</a>
</g>
</g>
<!-- Node1&#45;&gt;Node2 -->
<g id="edge2" class="edge"><title>Node1&#45;&gt;Node2</title>
<path fill="none" stroke="midnightblue" d="M93.2893,-112.324C81.7241,-104.107 64.1246,-91.6017 50.3393,-81.8069"/>
<polygon fill="midnightblue" stroke="midnightblue" points="52.112,-78.7729 41.9329,-75.8339 48.0575,-84.4791 52.112,-78.7729"/>
</g>
<!-- Node4 -->
<g id="node5" class="node"><title>Node4</title>
<g id="a_node5"><a xlink:href="ia_vector3_8h.html" target="_top" xlink:title=" ">
<polygon fill="white" stroke="black" points="151.5,-56.5 151.5,-75.5 217.5,-75.5 217.5,-56.5 151.5,-56.5"/>
<text text-anchor="middle" x="184.5" y="-63.5" font-family="Helvetica,sans-Serif" font-size="10.00">iaVector3.h</text>
</a>
</g>
</g>
<!-- Node1&#45;&gt;Node4 -->
<g id="edge4" class="edge"><title>Node1&#45;&gt;Node4</title>
<path fill="none" stroke="midnightblue" d="M118.193,-112.324C130.401,-103.979 149.078,-91.2122 163.503,-81.3524"/>
<polygon fill="midnightblue" stroke="midnightblue" points="165.558,-84.1871 171.839,-75.6545 161.608,-78.4082 165.558,-84.1871"/>
</g>
<!-- Node8 -->
<g id="node9" class="node"><title>Node8</title>
<g id="a_node9"><a xlink:href="i_plane_8inl.html" target="_top" xlink:title=" ">
<polygon fill="white" stroke="black" points="77.5,-56.5 77.5,-75.5 133.5,-75.5 133.5,-56.5 77.5,-56.5"/>
<text text-anchor="middle" x="105.5" y="-63.5" font-family="Helvetica,sans-Serif" font-size="10.00">iPlane.inl</text>
</a>
</g>
</g>
<!-- Node1&#45;&gt;Node8 -->
<g id="edge9" class="edge"><title>Node1&#45;&gt;Node8</title>
<path fill="none" stroke="midnightblue" d="M105.5,-112.083C105.5,-105.006 105.5,-94.8611 105.5,-85.9865"/>
<polygon fill="midnightblue" stroke="midnightblue" points="109,-85.751 105.5,-75.7511 102,-85.7511 109,-85.751"/>
</g>
<!-- Node3 -->
<g id="node4" class="node"><title>Node3</title>
<g id="a_node4"><a xlink:href="ia_defines_8h.html" target="_top" xlink:title=" ">
<polygon fill="white" stroke="black" points="32,-0.5 32,-19.5 97,-19.5 97,-0.5 32,-0.5"/>
<text text-anchor="middle" x="64.5" y="-7.5" font-family="Helvetica,sans-Serif" font-size="10.00">iaDefines.h</text>
</a>
</g>
</g>
<!-- Node2&#45;&gt;Node3 -->
<g id="edge3" class="edge"><title>Node2&#45;&gt;Node3</title>
<path fill="none" stroke="midnightblue" d="M35.2795,-56.083C40.1724,-48.5341 47.3274,-37.4948 53.3326,-28.2298"/>
<polygon fill="midnightblue" stroke="midnightblue" points="56.326,-30.0463 58.828,-19.7511 50.452,-26.239 56.326,-30.0463"/>
</g>
<!-- Node4&#45;&gt;Node3 -->
<g id="edge5" class="edge"><title>Node4&#45;&gt;Node3</title>
<path fill="none" stroke="midnightblue" d="M165.486,-56.4435C145.912,-47.6356 115.192,-33.8116 92.7711,-23.722"/>
<polygon fill="midnightblue" stroke="midnightblue" points="93.9809,-20.4284 83.4254,-19.5164 91.1083,-26.8119 93.9809,-20.4284"/>
</g>
<!-- Node5 -->
<g id="node6" class="node"><title>Node5</title>
<g id="a_node6"><a xlink:title=" ">
<polygon fill="white" stroke="#bfbfbf" points="434.5,-0.5 434.5,-19.5 478.5,-19.5 478.5,-0.5 434.5,-0.5"/>
<text text-anchor="middle" x="456.5" y="-7.5" font-family="Helvetica,sans-Serif" font-size="10.00">cmath</text>
</a>
</g>
</g>
<!-- Node4&#45;&gt;Node5 -->
<g id="edge6" class="edge"><title>Node4&#45;&gt;Node5</title>
<path fill="none" stroke="midnightblue" d="M217.503,-57.8696C220.544,-57.2304 223.578,-56.5989 226.5,-56 296.981,-41.5549 379.828,-25.5956 424.332,-17.1056"/>
<polygon fill="midnightblue" stroke="midnightblue" points="425.102,-20.5219 434.271,-15.2123 423.792,-13.6456 425.102,-20.5219"/>
</g>
<!-- Node6 -->
<g id="node7" class="node"><title>Node6</title>
<g id="a_node7"><a xlink:title=" ">
<polygon fill="white" stroke="#bfbfbf" points="322.5,-0.5 322.5,-19.5 374.5,-19.5 374.5,-0.5 322.5,-0.5"/>
<text text-anchor="middle" x="348.5" y="-7.5" font-family="Helvetica,sans-Serif" font-size="10.00">ostream</text>
</a>
</g>
</g>
<!-- Node4&#45;&gt;Node6 -->
<g id="edge7" class="edge"><title>Node4&#45;&gt;Node6</title>
<path fill="none" stroke="midnightblue" d="M210.486,-56.4435C238.196,-47.3196 282.252,-32.8133 313.116,-22.6509"/>
<polygon fill="midnightblue" stroke="midnightblue" points="314.232,-25.9684 322.635,-19.5164 312.042,-19.3196 314.232,-25.9684"/>
</g>
<!-- Node7 -->
<g id="node8" class="node"><title>Node7</title>
<g id="a_node8"><a xlink:href="ia_vector3_8inl.html" target="_top" xlink:title=" ">
<polygon fill="white" stroke="black" points="149,-0.5 149,-19.5 220,-19.5 220,-0.5 149,-0.5"/>
<text text-anchor="middle" x="184.5" y="-7.5" font-family="Helvetica,sans-Serif" font-size="10.00">iaVector3.inl</text>
</a>
</g>
</g>
<!-- Node4&#45;&gt;Node7 -->
<g id="edge8" class="edge"><title>Node4&#45;&gt;Node7</title>
<path fill="none" stroke="midnightblue" d="M184.5,-56.083C184.5,-49.0059 184.5,-38.8611 184.5,-29.9865"/>
<polygon fill="midnightblue" stroke="midnightblue" points="188,-29.751 184.5,-19.7511 181,-29.7511 188,-29.751"/>
</g>
<!-- Node9&#45;&gt;Node5 -->
<g id="edge15" class="edge"><title>Node9&#45;&gt;Node5</title>
<path fill="none" stroke="midnightblue" d="M356.052,-169.043C393.57,-158.647 454.214,-140.742 460.5,-132 482.403,-101.539 471.817,-54.7294 463.4,-29.179"/>
<polygon fill="midnightblue" stroke="midnightblue" points="466.66,-27.9009 460.027,-19.6401 460.061,-30.2349 466.66,-27.9009"/>
</g>
<!-- Node9&#45;&gt;Node6 -->
<g id="edge16" class="edge"><title>Node9&#45;&gt;Node6</title>
<path fill="none" stroke="midnightblue" d="M356.236,-169.558C387.154,-161.148 432.432,-146.705 442.5,-132 470.208,-91.5311 409.246,-46.5909 372.964,-24.6117"/>
<polygon fill="midnightblue" stroke="midnightblue" points="374.734,-21.5922 364.341,-19.5351 371.183,-27.6245 374.734,-21.5922"/>
</g>
<!-- Node10 -->
<g id="node11" class="node"><title>Node10</title>
<g id="a_node11"><a xlink:href="ia_vector4_8h.html" target="_top" xlink:title=" ">
<polygon fill="white" stroke="black" points="149.5,-112.5 149.5,-131.5 215.5,-131.5 215.5,-112.5 149.5,-112.5"/>
<text text-anchor="middle" x="182.5" y="-119.5" font-family="Helvetica,sans-Serif" font-size="10.00">iaVector4.h</text>
</a>
</g>
</g>
<!-- Node9&#45;&gt;Node10 -->
<g id="edge11" class="edge"><title>Node9&#45;&gt;Node10</title>
<path fill="none" stroke="midnightblue" d="M303.683,-168.444C279.668,-159.438 241.671,-145.189 214.631,-135.049"/>
<polygon fill="midnightblue" stroke="midnightblue" points="215.803,-131.751 205.21,-131.516 213.345,-138.305 215.803,-131.751"/>
</g>
<!-- Node12 -->
<g id="node13" class="node"><title>Node12</title>
<g id="a_node13"><a xlink:title=" ">
<polygon fill="white" stroke="#bfbfbf" points="234,-112.5 234,-131.5 283,-131.5 283,-112.5 234,-112.5"/>
<text text-anchor="middle" x="258.5" y="-119.5" font-family="Helvetica,sans-Serif" font-size="10.00">fstream</text>
</a>
</g>
</g>
<!-- Node9&#45;&gt;Node12 -->
<g id="edge14" class="edge"><title>Node9&#45;&gt;Node12</title>
<path fill="none" stroke="midnightblue" d="M315.575,-168.324C305.325,-160.185 289.779,-147.839 277.499,-138.087"/>
<polygon fill="midnightblue" stroke="midnightblue" points="279.632,-135.312 269.624,-131.834 275.279,-140.794 279.632,-135.312"/>
</g>
<!-- Node13 -->
<g id="node14" class="node"><title>Node13</title>
<g id="a_node14"><a xlink:title=" ">
<polygon fill="white" stroke="#bfbfbf" points="301.5,-112.5 301.5,-131.5 351.5,-131.5 351.5,-112.5 301.5,-112.5"/>
<text text-anchor="middle" x="326.5" y="-119.5" font-family="Helvetica,sans-Serif" font-size="10.00">iomanip</text>
</a>
</g>
</g>
<!-- Node9&#45;&gt;Node13 -->
<g id="edge17" class="edge"><title>Node9&#45;&gt;Node13</title>
<path fill="none" stroke="midnightblue" d="M326.5,-168.083C326.5,-161.006 326.5,-150.861 326.5,-141.986"/>
<polygon fill="midnightblue" stroke="midnightblue" points="330,-141.751 326.5,-131.751 323,-141.751 330,-141.751"/>
</g>
<!-- Node14 -->
<g id="node15" class="node"><title>Node14</title>
<g id="a_node15"><a xlink:href="ia_matrix_8inl.html" target="_top" xlink:title=" ">
<polygon fill="white" stroke="black" points="369.5,-112.5 369.5,-131.5 433.5,-131.5 433.5,-112.5 369.5,-112.5"/>
<text text-anchor="middle" x="401.5" y="-119.5" font-family="Helvetica,sans-Serif" font-size="10.00">iaMatrix.inl</text>
</a>
</g>
</g>
<!-- Node9&#45;&gt;Node14 -->
<g id="edge18" class="edge"><title>Node9&#45;&gt;Node14</title>
<path fill="none" stroke="midnightblue" d="M338.55,-168.324C349.963,-160.107 367.331,-147.602 380.935,-137.807"/>
<polygon fill="midnightblue" stroke="midnightblue" points="383.16,-140.517 389.231,-131.834 379.07,-134.837 383.16,-140.517"/>
</g>
<!-- Node10&#45;&gt;Node4 -->
<g id="edge12" class="edge"><title>Node10&#45;&gt;Node4</title>
<path fill="none" stroke="midnightblue" d="M182.83,-112.083C183.092,-105.006 183.468,-94.8611 183.797,-85.9865"/>
<polygon fill="midnightblue" stroke="midnightblue" points="187.303,-85.8738 184.176,-75.7511 180.308,-85.6147 187.303,-85.8738"/>
</g>
<!-- Node11 -->
<g id="node12" class="node"><title>Node11</title>
<g id="a_node12"><a xlink:href="ia_vector4_8inl.html" target="_top" xlink:title=" ">
<polygon fill="white" stroke="black" points="236,-56.5 236,-75.5 307,-75.5 307,-56.5 236,-56.5"/>
<text text-anchor="middle" x="271.5" y="-63.5" font-family="Helvetica,sans-Serif" font-size="10.00">iaVector4.inl</text>
</a>
</g>
</g>
<!-- Node10&#45;&gt;Node11 -->
<g id="edge13" class="edge"><title>Node10&#45;&gt;Node11</title>
<path fill="none" stroke="midnightblue" d="M196.799,-112.324C210.683,-103.9 231.992,-90.9709 248.304,-81.0741"/>
<polygon fill="midnightblue" stroke="midnightblue" points="250.502,-83.8341 257.236,-75.6545 246.871,-77.8495 250.502,-83.8341"/>
</g>
</g>
</svg>
