<?xml version="1.0" encoding="UTF-8" standalone="no"?>
<!DOCTYPE svg PUBLIC "-//W3C//DTD SVG 1.1//EN"
 "http://www.w3.org/Graphics/SVG/1.1/DTD/svg11.dtd">
<!-- Generated by graphviz version 2.38.0 (20140413.2041)
 -->
<!-- Title: C:/dev/Igor/src/Igor/src/iJoint.h Pages: 1 -->
<svg width="443pt" height="263pt"
 viewBox="0.00 0.00 443.17 263.00" xmlns="http://www.w3.org/2000/svg" xmlns:xlink="http://www.w3.org/1999/xlink">
<g id="graph0" class="graph" transform="scale(1 1) rotate(0) translate(4 259)">
<title>C:/dev/Igor/src/Igor/src/iJoint.h</title>
<polygon fill="white" stroke="none" points="-4,4 -4,-259 439.172,-259 439.172,4 -4,4"/>
<!-- Node1 -->
<g id="node1" class="node"><title>Node1</title>
<polygon fill="#bfbfbf" stroke="black" points="172.5,-224.5 172.5,-254.5 270.5,-254.5 270.5,-224.5 172.5,-224.5"/>
<text text-anchor="start" x="180.5" y="-242.5" font-family="Helvetica,sans-Serif" font-size="10.00">C:/dev/Igor/src/Igor</text>
<text text-anchor="middle" x="221.5" y="-231.5" font-family="Helvetica,sans-Serif" font-size="10.00">/src/iJoint.h</text>
</g>
<!-- Node2 -->
<g id="node2" class="node"><title>Node2</title>
<g id="a_node2"><a xlink:href="i_defines_8h.html" target="_top" xlink:title="iDefines.h">
<polygon fill="white" stroke="black" points="44,-168.5 44,-187.5 103,-187.5 103,-168.5 44,-168.5"/>
<text text-anchor="middle" x="73.5" y="-175.5" font-family="Helvetica,sans-Serif" font-size="10.00">iDefines.h</text>
</a>
</g>
</g>
<!-- Node1&#45;&gt;Node2 -->
<g id="edge1" class="edge"><title>Node1&#45;&gt;Node2</title>
<path fill="none" stroke="midnightblue" d="M186.426,-224.399C161.483,-214.372 128.292,-201.028 104.356,-191.405"/>
<polygon fill="midnightblue" stroke="midnightblue" points="105.619,-188.141 95.0353,-187.658 103.008,-194.635 105.619,-188.141"/>
</g>
<!-- Node4 -->
<g id="node4" class="node"><title>Node4</title>
<g id="a_node4"><a xlink:href="ia_matrix_8h.html" target="_top" xlink:title="iaMatrix.h">
<polygon fill="white" stroke="black" points="192,-168.5 192,-187.5 251,-187.5 251,-168.5 192,-168.5"/>
<text text-anchor="middle" x="221.5" y="-175.5" font-family="Helvetica,sans-Serif" font-size="10.00">iaMatrix.h</text>
</a>
</g>
</g>
<!-- Node1&#45;&gt;Node4 -->
<g id="edge3" class="edge"><title>Node1&#45;&gt;Node4</title>
<path fill="none" stroke="midnightblue" d="M221.5,-224.399C221.5,-216.466 221.5,-206.458 221.5,-197.858"/>
<polygon fill="midnightblue" stroke="midnightblue" points="225,-197.658 221.5,-187.658 218,-197.658 225,-197.658"/>
</g>
<!-- Node16 -->
<g id="node16" class="node"><title>Node16</title>
<polygon fill="white" stroke="#bfbfbf" points="269.5,-168.5 269.5,-187.5 311.5,-187.5 311.5,-168.5 269.5,-168.5"/>
<text text-anchor="middle" x="290.5" y="-175.5" font-family="Helvetica,sans-Serif" font-size="10.00">vector</text>
</g>
<!-- Node1&#45;&gt;Node16 -->
<g id="edge19" class="edge"><title>Node1&#45;&gt;Node16</title>
<path fill="none" stroke="midnightblue" d="M237.852,-224.399C248.395,-215.308 262.1,-203.49 272.884,-194.191"/>
<polygon fill="midnightblue" stroke="midnightblue" points="275.172,-196.839 280.46,-187.658 270.601,-191.538 275.172,-196.839"/>
</g>
<!-- Node3 -->
<g id="node3" class="node"><title>Node3</title>
<g id="a_node3"><a xlink:href="ia_defines_8h.html" target="_top" xlink:title="iaDefines.h">
<polygon fill="white" stroke="black" points="0,-0.5 0,-19.5 65,-19.5 65,-0.5 0,-0.5"/>
<text text-anchor="middle" x="32.5" y="-7.5" font-family="Helvetica,sans-Serif" font-size="10.00">iaDefines.h</text>
</a>
</g>
</g>
<!-- Node2&#45;&gt;Node3 -->
<g id="edge2" class="edge"><title>Node2&#45;&gt;Node3</title>
<path fill="none" stroke="midnightblue" d="M57.5425,-168.276C45.1983,-160.544 28.9885,-148.004 21.5,-132 5.76971,-98.3817 16.8607,-53.8123 25.3336,-29.229"/>
<polygon fill="midnightblue" stroke="midnightblue" points="28.6607,-30.3222 28.8277,-19.7287 22.0909,-27.9059 28.6607,-30.3222"/>
</g>
<!-- Node5 -->
<g id="node5" class="node"><title>Node5</title>
<g id="a_node5"><a xlink:href="ia_vector4_8h.html" target="_top" xlink:title="iaVector4.h">
<polygon fill="white" stroke="black" points="346.5,-112.5 346.5,-131.5 412.5,-131.5 412.5,-112.5 346.5,-112.5"/>
<text text-anchor="middle" x="379.5" y="-119.5" font-family="Helvetica,sans-Serif" font-size="10.00">iaVector4.h</text>
</a>
</g>
</g>
<!-- Node4&#45;&gt;Node5 -->
<g id="edge4" class="edge"><title>Node4&#45;&gt;Node5</title>
<path fill="none" stroke="midnightblue" d="M246.536,-168.444C273.116,-159.359 315.309,-144.939 345.023,-134.783"/>
<polygon fill="midnightblue" stroke="midnightblue" points="346.251,-138.062 354.582,-131.516 343.987,-131.439 346.251,-138.062"/>
</g>
<!-- Node7 -->
<g id="node7" class="node"><title>Node7</title>
<polygon fill="white" stroke="#bfbfbf" points="346.5,-0.5 346.5,-19.5 390.5,-19.5 390.5,-0.5 346.5,-0.5"/>
<text text-anchor="middle" x="368.5" y="-7.5" font-family="Helvetica,sans-Serif" font-size="10.00">cmath</text>
</g>
<!-- Node4&#45;&gt;Node7 -->
<g id="edge16" class="edge"><title>Node4&#45;&gt;Node7</title>
<path fill="none" stroke="midnightblue" d="M251.306,-170.1C254.41,-169.388 257.519,-168.677 260.5,-168 332.001,-151.756 375.658,-189.225 421.5,-132 442.618,-105.638 435.686,-86.6544 421.5,-56 415.58,-43.2072 404.032,-32.7216 393.222,-25.1003"/>
<polygon fill="midnightblue" stroke="midnightblue" points="395.118,-22.1581 384.834,-19.613 391.286,-28.0161 395.118,-22.1581"/>
</g>
<!-- Node11 -->
<g id="node11" class="node"><title>Node11</title>
<g id="a_node11"><a xlink:href="ia_quaternion_8h.html" target="_top" xlink:title="iaQuaternion.h">
<polygon fill="white" stroke="black" points="30.5,-112.5 30.5,-131.5 110.5,-131.5 110.5,-112.5 30.5,-112.5"/>
<text text-anchor="middle" x="70.5" y="-119.5" font-family="Helvetica,sans-Serif" font-size="10.00">iaQuaternion.h</text>
</a>
</g>
</g>
<!-- Node4&#45;&gt;Node11 -->
<g id="edge11" class="edge"><title>Node4&#45;&gt;Node11</title>
<path fill="none" stroke="midnightblue" d="M197.574,-168.444C172.281,-159.399 132.198,-145.064 103.82,-134.916"/>
<polygon fill="midnightblue" stroke="midnightblue" points="104.909,-131.588 94.3145,-131.516 102.552,-138.179 104.909,-131.588"/>
</g>
<!-- Node13 -->
<g id="node13" class="node"><title>Node13</title>
<polygon fill="white" stroke="#bfbfbf" points="129,-112.5 129,-131.5 178,-131.5 178,-112.5 129,-112.5"/>
<text text-anchor="middle" x="153.5" y="-119.5" font-family="Helvetica,sans-Serif" font-size="10.00">fstream</text>
</g>
<!-- Node4&#45;&gt;Node13 -->
<g id="edge15" class="edge"><title>Node4&#45;&gt;Node13</title>
<path fill="none" stroke="midnightblue" d="M210.575,-168.324C200.325,-160.185 184.779,-147.839 172.499,-138.087"/>
<polygon fill="midnightblue" stroke="midnightblue" points="174.632,-135.312 164.624,-131.834 170.279,-140.794 174.632,-135.312"/>
</g>
<!-- Node14 -->
<g id="node14" class="node"><title>Node14</title>
<polygon fill="white" stroke="#bfbfbf" points="196.5,-112.5 196.5,-131.5 246.5,-131.5 246.5,-112.5 196.5,-112.5"/>
<text text-anchor="middle" x="221.5" y="-119.5" font-family="Helvetica,sans-Serif" font-size="10.00">iomanip</text>
</g>
<!-- Node4&#45;&gt;Node14 -->
<g id="edge17" class="edge"><title>Node4&#45;&gt;Node14</title>
<path fill="none" stroke="midnightblue" d="M221.5,-168.083C221.5,-161.006 221.5,-150.861 221.5,-141.986"/>
<polygon fill="midnightblue" stroke="midnightblue" points="225,-141.751 221.5,-131.751 218,-141.751 225,-141.751"/>
</g>
<!-- Node15 -->
<g id="node15" class="node"><title>Node15</title>
<g id="a_node15"><a xlink:href="ia_matrix_8inl.html" target="_top" xlink:title="iaMatrix.inl">
<polygon fill="white" stroke="black" points="264.5,-112.5 264.5,-131.5 328.5,-131.5 328.5,-112.5 264.5,-112.5"/>
<text text-anchor="middle" x="296.5" y="-119.5" font-family="Helvetica,sans-Serif" font-size="10.00">iaMatrix.inl</text>
</a>
</g>
</g>
<!-- Node4&#45;&gt;Node15 -->
<g id="edge18" class="edge"><title>Node4&#45;&gt;Node15</title>
<path fill="none" stroke="midnightblue" d="M233.55,-168.324C244.963,-160.107 262.331,-147.602 275.935,-137.807"/>
<polygon fill="midnightblue" stroke="midnightblue" points="278.16,-140.517 284.231,-131.834 274.07,-134.837 278.16,-140.517"/>
</g>
<!-- Node6 -->
<g id="node6" class="node"><title>Node6</title>
<g id="a_node6"><a xlink:href="ia_vector3_8h.html" target="_top" xlink:title="iaVector3.h">
<polygon fill="white" stroke="black" points="178.5,-56.5 178.5,-75.5 244.5,-75.5 244.5,-56.5 178.5,-56.5"/>
<text text-anchor="middle" x="211.5" y="-63.5" font-family="Helvetica,sans-Serif" font-size="10.00">iaVector3.h</text>
</a>
</g>
</g>
<!-- Node5&#45;&gt;Node6 -->
<g id="edge5" class="edge"><title>Node5&#45;&gt;Node6</title>
<path fill="none" stroke="midnightblue" d="M352.88,-112.444C324.494,-103.32 279.363,-88.8133 247.747,-78.6509"/>
<polygon fill="midnightblue" stroke="midnightblue" points="248.587,-75.2445 237.996,-75.5164 246.445,-81.9087 248.587,-75.2445"/>
</g>
<!-- Node10 -->
<g id="node10" class="node"><title>Node10</title>
<g id="a_node10"><a xlink:href="ia_vector4_8inl.html" target="_top" xlink:title="iaVector4.inl">
<polygon fill="white" stroke="black" points="341,-56.5 341,-75.5 412,-75.5 412,-56.5 341,-56.5"/>
<text text-anchor="middle" x="376.5" y="-63.5" font-family="Helvetica,sans-Serif" font-size="10.00">iaVector4.inl</text>
</a>
</g>
</g>
<!-- Node5&#45;&gt;Node10 -->
<g id="edge10" class="edge"><title>Node5&#45;&gt;Node10</title>
<path fill="none" stroke="midnightblue" d="M379.005,-112.083C378.611,-105.006 378.048,-94.8611 377.555,-85.9865"/>
<polygon fill="midnightblue" stroke="midnightblue" points="381.036,-85.5415 376.986,-75.7511 374.046,-85.9299 381.036,-85.5415"/>
</g>
<!-- Node6&#45;&gt;Node3 -->
<g id="edge6" class="edge"><title>Node6&#45;&gt;Node3</title>
<path fill="none" stroke="midnightblue" d="M183.137,-56.4435C152.762,-47.2801 104.39,-32.6876 70.684,-22.5192"/>
<polygon fill="midnightblue" stroke="midnightblue" points="71.3151,-19.0538 60.7304,-19.5164 69.2933,-25.7555 71.3151,-19.0538"/>
</g>
<!-- Node6&#45;&gt;Node7 -->
<g id="edge7" class="edge"><title>Node6&#45;&gt;Node7</title>
<path fill="none" stroke="midnightblue" d="M236.377,-56.4435C263.566,-47.0919 307.195,-32.0859 336.814,-21.8984"/>
<polygon fill="midnightblue" stroke="midnightblue" points="337.96,-25.2056 346.278,-18.6433 335.683,-18.5862 337.96,-25.2056"/>
</g>
<!-- Node8 -->
<g id="node8" class="node"><title>Node8</title>
<polygon fill="white" stroke="#bfbfbf" points="115.5,-0.5 115.5,-19.5 167.5,-19.5 167.5,-0.5 115.5,-0.5"/>
<text text-anchor="middle" x="141.5" y="-7.5" font-family="Helvetica,sans-Serif" font-size="10.00">ostream</text>
</g>
<!-- Node6&#45;&gt;Node8 -->
<g id="edge8" class="edge"><title>Node6&#45;&gt;Node8</title>
<path fill="none" stroke="midnightblue" d="M200.253,-56.324C189.703,-48.1849 173.699,-35.8395 161.058,-26.0874"/>
<polygon fill="midnightblue" stroke="midnightblue" points="163.007,-23.1707 152.951,-19.8339 158.731,-28.7132 163.007,-23.1707"/>
</g>
<!-- Node9 -->
<g id="node9" class="node"><title>Node9</title>
<g id="a_node9"><a xlink:href="ia_vector3_8inl.html" target="_top" xlink:title="iaVector3.inl">
<polygon fill="white" stroke="black" points="186,-0.5 186,-19.5 257,-19.5 257,-0.5 186,-0.5"/>
<text text-anchor="middle" x="221.5" y="-7.5" font-family="Helvetica,sans-Serif" font-size="10.00">iaVector3.inl</text>
</a>
</g>
</g>
<!-- Node6&#45;&gt;Node9 -->
<g id="edge9" class="edge"><title>Node6&#45;&gt;Node9</title>
<path fill="none" stroke="midnightblue" d="M213.151,-56.083C214.476,-48.9272 216.382,-38.6353 218.039,-29.6911"/>
<polygon fill="midnightblue" stroke="midnightblue" points="221.5,-30.2212 219.879,-19.7511 214.617,-28.9466 221.5,-30.2212"/>
</g>
<!-- Node11&#45;&gt;Node6 -->
<g id="edge12" class="edge"><title>Node11&#45;&gt;Node6</title>
<path fill="none" stroke="midnightblue" d="M92.8419,-112.444C116.253,-103.478 153.236,-89.314 179.69,-79.1827"/>
<polygon fill="midnightblue" stroke="midnightblue" points="181.176,-82.3615 189.263,-75.5164 178.672,-75.8245 181.176,-82.3615"/>
</g>
<!-- Node11&#45;&gt;Node8 -->
<g id="edge13" class="edge"><title>Node11&#45;&gt;Node8</title>
<path fill="none" stroke="midnightblue" d="M84.4178,-112.314C96.2001,-104.27 112.693,-91.2691 122.5,-76 131.534,-61.9342 136.394,-43.4414 138.93,-29.7783"/>
<polygon fill="midnightblue" stroke="midnightblue" points="142.428,-30.0684 140.554,-19.6406 135.516,-28.961 142.428,-30.0684"/>
</g>
<!-- Node12 -->
<g id="node12" class="node"><title>Node12</title>
<g id="a_node12"><a xlink:href="ia_quaternion_8inl.html" target="_top" xlink:title="iaQuaternion.inl">
<polygon fill="white" stroke="black" points="29.5,-56.5 29.5,-75.5 113.5,-75.5 113.5,-56.5 29.5,-56.5"/>
<text text-anchor="middle" x="71.5" y="-63.5" font-family="Helvetica,sans-Serif" font-size="10.00">iaQuaternion.inl</text>
</a>
</g>
</g>
<!-- Node11&#45;&gt;Node12 -->
<g id="edge14" class="edge"><title>Node11&#45;&gt;Node12</title>
<path fill="none" stroke="midnightblue" d="M70.6651,-112.083C70.7962,-105.006 70.9841,-94.8611 71.1484,-85.9865"/>
<polygon fill="midnightblue" stroke="midnightblue" points="74.6521,-85.8142 71.3379,-75.7511 67.6533,-85.6845 74.6521,-85.8142"/>
</g>
</g>
</svg>
