<?xml version="1.0" encoding="UTF-8" standalone="no"?>
<!DOCTYPE svg PUBLIC "-//W3C//DTD SVG 1.1//EN"
 "http://www.w3.org/Graphics/SVG/1.1/DTD/svg11.dtd">
<!-- Generated by graphviz version 2.38.0 (20140413.2041)
 -->
<!-- Title: C:/dev/Igor/Igor/src/Igor/src/iKeyboard.cpp Pages: 1 -->
<svg width="606pt" height="431pt"
 viewBox="0.00 0.00 606.39 431.00" xmlns="http://www.w3.org/2000/svg" xmlns:xlink="http://www.w3.org/1999/xlink">
<g id="graph0" class="graph" transform="scale(1 1) rotate(0) translate(4 427)">
<title>C:/dev/Igor/Igor/src/Igor/src/iKeyboard.cpp</title>
<polygon fill="white" stroke="none" points="-4,4 -4,-427 602.385,-427 602.385,4 -4,4"/>
<!-- Node0 -->
<g id="node1" class="node"><title>Node0</title>
<g id="a_node1"><a xlink:title=" ">
<polygon fill="#bfbfbf" stroke="black" points="150.385,-392.5 150.385,-422.5 267.385,-422.5 267.385,-392.5 150.385,-392.5"/>
<text text-anchor="start" x="158.385" y="-410.5" font-family="Helvetica,sans-Serif" font-size="10.00">C:/dev/Igor/Igor/src</text>
<text text-anchor="middle" x="208.885" y="-399.5" font-family="Helvetica,sans-Serif" font-size="10.00">/Igor/src/iKeyboard.cpp</text>
</a>
</g>
</g>
<!-- Node1 -->
<g id="node2" class="node"><title>Node1</title>
<g id="a_node2"><a xlink:href="i_keyboard_8h.html" target="_top" xlink:title=" ">
<polygon fill="white" stroke="black" points="304.885,-336.5 304.885,-355.5 372.885,-355.5 372.885,-336.5 304.885,-336.5"/>
<text text-anchor="middle" x="338.885" y="-343.5" font-family="Helvetica,sans-Serif" font-size="10.00">iKeyboard.h</text>
</a>
</g>
</g>
<!-- Node0&#45;&gt;Node1 -->
<g id="edge1" class="edge"><title>Node0&#45;&gt;Node1</title>
<path fill="none" stroke="midnightblue" d="M239.694,-392.399C261.213,-382.55 289.723,-369.501 310.653,-359.922"/>
<polygon fill="midnightblue" stroke="midnightblue" points="312.333,-363.002 319.969,-355.658 309.42,-356.637 312.333,-363.002"/>
</g>
<!-- Node2 -->
<g id="node3" class="node"><title>Node2</title>
<g id="a_node3"><a xlink:href="i_window_8h.html" target="_top" xlink:title=" ">
<polygon fill="white" stroke="black" points="207.885,-280.5 207.885,-299.5 269.885,-299.5 269.885,-280.5 207.885,-280.5"/>
<text text-anchor="middle" x="238.885" y="-287.5" font-family="Helvetica,sans-Serif" font-size="10.00">iWindow.h</text>
</a>
</g>
</g>
<!-- Node0&#45;&gt;Node2 -->
<g id="edge33" class="edge"><title>Node0&#45;&gt;Node2</title>
<path fill="none" stroke="midnightblue" d="M212.564,-392.337C217.969,-371.527 228.064,-332.663 234.059,-309.583"/>
<polygon fill="midnightblue" stroke="midnightblue" points="237.507,-310.228 236.634,-299.669 230.732,-308.468 237.507,-310.228"/>
</g>
<!-- Node9 -->
<g id="node10" class="node"><title>Node9</title>
<g id="a_node10"><a xlink:href="ia_console_8h.html" target="_top" xlink:title=" ">
<polygon fill="white" stroke="black" points="79.8854,-168.5 79.8854,-187.5 147.885,-187.5 147.885,-168.5 79.8854,-168.5"/>
<text text-anchor="middle" x="113.885" y="-175.5" font-family="Helvetica,sans-Serif" font-size="10.00">iaConsole.h</text>
</a>
</g>
</g>
<!-- Node0&#45;&gt;Node9 -->
<g id="edge34" class="edge"><title>Node0&#45;&gt;Node9</title>
<path fill="none" stroke="midnightblue" d="M184.157,-392.362C169.401,-383.184 150.875,-370.295 136.885,-356 94.9841,-313.184 79.3047,-301.319 61.8854,-244 59.3008,-235.495 58.1902,-232.084 61.8854,-224 67.6627,-211.36 78.9376,-200.911 89.516,-193.274"/>
<polygon fill="midnightblue" stroke="midnightblue" points="91.7342,-196.001 98.1021,-187.533 87.8436,-190.182 91.7342,-196.001"/>
</g>
<!-- Node22 -->
<g id="node23" class="node"><title>Node22</title>
<g id="a_node23"><a xlink:href="i_o_s_event_8h.html" target="_top" xlink:title=" ">
<polygon fill="white" stroke="black" points="146.385,-336.5 146.385,-355.5 211.385,-355.5 211.385,-336.5 146.385,-336.5"/>
<text text-anchor="middle" x="178.885" y="-343.5" font-family="Helvetica,sans-Serif" font-size="10.00">iOSEvent.h</text>
</a>
</g>
</g>
<!-- Node0&#45;&gt;Node22 -->
<g id="edge35" class="edge"><title>Node0&#45;&gt;Node22</title>
<path fill="none" stroke="midnightblue" d="M201.776,-392.399C197.596,-384.11 192.274,-373.554 187.814,-364.708"/>
<polygon fill="midnightblue" stroke="midnightblue" points="190.878,-363.011 183.251,-355.658 184.628,-366.163 190.878,-363.011"/>
</g>
<!-- Node1&#45;&gt;Node2 -->
<g id="edge2" class="edge"><title>Node1&#45;&gt;Node2</title>
<path fill="none" stroke="midnightblue" d="M322.819,-336.324C306.928,-327.743 282.378,-314.486 263.927,-304.522"/>
<polygon fill="midnightblue" stroke="midnightblue" points="265.374,-301.326 254.912,-299.655 262.048,-307.486 265.374,-301.326"/>
</g>
<!-- Node6 -->
<g id="node7" class="node"><title>Node6</title>
<g id="a_node7"><a xlink:href="ia_event_8h.html" target="_top" xlink:title=" ">
<polygon fill="white" stroke="black" points="267.885,-224.5 267.885,-243.5 323.885,-243.5 323.885,-224.5 267.885,-224.5"/>
<text text-anchor="middle" x="295.885" y="-231.5" font-family="Helvetica,sans-Serif" font-size="10.00">iaEvent.h</text>
</a>
</g>
</g>
<!-- Node1&#45;&gt;Node6 -->
<g id="edge30" class="edge"><title>Node1&#45;&gt;Node6</title>
<path fill="none" stroke="midnightblue" d="M334.121,-336.205C329.385,-327.255 322.093,-312.903 316.885,-300 310.644,-284.535 304.923,-266.447 301.034,-253.284"/>
<polygon fill="midnightblue" stroke="midnightblue" points="304.361,-252.189 298.227,-243.551 297.635,-254.129 304.361,-252.189"/>
</g>
<!-- Node18 -->
<g id="node19" class="node"><title>Node18</title>
<g id="a_node19"><a xlink:href="i_key_code_map_8h.html" target="_top" xlink:title=" ">
<polygon fill="white" stroke="black" points="491.885,-280.5 491.885,-299.5 577.885,-299.5 577.885,-280.5 491.885,-280.5"/>
<text text-anchor="middle" x="534.885" y="-287.5" font-family="Helvetica,sans-Serif" font-size="10.00">iKeyCodeMap.h</text>
</a>
</g>
</g>
<!-- Node1&#45;&gt;Node18 -->
<g id="edge25" class="edge"><title>Node1&#45;&gt;Node18</title>
<path fill="none" stroke="midnightblue" d="M369.942,-336.444C403.489,-327.201 457.082,-312.436 494.026,-302.257"/>
<polygon fill="midnightblue" stroke="midnightblue" points="495.263,-305.547 503.974,-299.516 493.403,-298.798 495.263,-305.547"/>
</g>
<!-- Node20 -->
<g id="node21" class="node"><title>Node20</title>
<g id="a_node21"><a xlink:href="i_o_s_event_listener_8h.html" target="_top" xlink:title=" ">
<polygon fill="white" stroke="black" points="325.885,-280.5 325.885,-299.5 425.885,-299.5 425.885,-280.5 325.885,-280.5"/>
<text text-anchor="middle" x="375.885" y="-287.5" font-family="Helvetica,sans-Serif" font-size="10.00">iOSEventListener.h</text>
</a>
</g>
</g>
<!-- Node1&#45;&gt;Node20 -->
<g id="edge31" class="edge"><title>Node1&#45;&gt;Node20</title>
<path fill="none" stroke="midnightblue" d="M344.995,-336.083C350.168,-328.534 357.732,-317.495 364.08,-308.23"/>
<polygon fill="midnightblue" stroke="midnightblue" points="367.124,-309.979 369.889,-299.751 361.35,-306.022 367.124,-309.979"/>
</g>
<!-- Node21 -->
<g id="node22" class="node"><title>Node21</title>
<g id="a_node22"><a xlink:title=" ">
<polygon fill="white" stroke="#bfbfbf" points="444.385,-280.5 444.385,-299.5 473.385,-299.5 473.385,-280.5 444.385,-280.5"/>
<text text-anchor="middle" x="458.885" y="-287.5" font-family="Helvetica,sans-Serif" font-size="10.00">list</text>
</a>
</g>
</g>
<!-- Node1&#45;&gt;Node21 -->
<g id="edge32" class="edge"><title>Node1&#45;&gt;Node21</title>
<path fill="none" stroke="midnightblue" d="M357.9,-336.444C378.739,-327.066 412.215,-312.002 434.857,-301.813"/>
<polygon fill="midnightblue" stroke="midnightblue" points="436.438,-304.939 444.121,-297.644 433.566,-298.556 436.438,-304.939"/>
</g>
<!-- Node3 -->
<g id="node4" class="node"><title>Node3</title>
<g id="a_node4"><a xlink:title=" ">
<polygon fill="white" stroke="#bfbfbf" points="70.8854,-224.5 70.8854,-243.5 132.885,-243.5 132.885,-224.5 70.8854,-224.5"/>
<text text-anchor="middle" x="101.885" y="-231.5" font-family="Helvetica,sans-Serif" font-size="10.00">windows.h</text>
</a>
</g>
</g>
<!-- Node2&#45;&gt;Node3 -->
<g id="edge3" class="edge"><title>Node2&#45;&gt;Node3</title>
<path fill="none" stroke="midnightblue" d="M217.177,-280.444C194.531,-271.517 158.813,-257.439 133.134,-247.317"/>
<polygon fill="midnightblue" stroke="midnightblue" points="134.079,-243.927 123.492,-243.516 131.512,-250.44 134.079,-243.927"/>
</g>
<!-- Node4 -->
<g id="node5" class="node"><title>Node4</title>
<g id="a_node5"><a xlink:href="i_defines_8h.html" target="_top" xlink:title=" ">
<polygon fill="white" stroke="black" points="151.385,-224.5 151.385,-243.5 210.385,-243.5 210.385,-224.5 151.385,-224.5"/>
<text text-anchor="middle" x="180.885" y="-231.5" font-family="Helvetica,sans-Serif" font-size="10.00">iDefines.h</text>
</a>
</g>
</g>
<!-- Node2&#45;&gt;Node4 -->
<g id="edge4" class="edge"><title>Node2&#45;&gt;Node4</title>
<path fill="none" stroke="midnightblue" d="M229.567,-280.324C220.993,-272.341 208.073,-260.313 197.698,-250.653"/>
<polygon fill="midnightblue" stroke="midnightblue" points="200.078,-248.086 190.374,-243.834 195.308,-253.21 200.078,-248.086"/>
</g>
<!-- Node2&#45;&gt;Node6 -->
<g id="edge6" class="edge"><title>Node2&#45;&gt;Node6</title>
<path fill="none" stroke="midnightblue" d="M248.043,-280.324C256.387,-272.42 268.918,-260.548 279.062,-250.938"/>
<polygon fill="midnightblue" stroke="midnightblue" points="281.708,-253.252 286.561,-243.834 276.894,-248.171 281.708,-253.252"/>
</g>
<!-- Node7 -->
<g id="node8" class="node"><title>Node7</title>
<g id="a_node8"><a xlink:href="ia_mutex_8h.html" target="_top" xlink:title=" ">
<polygon fill="white" stroke="black" points="228.385,-56.5 228.385,-75.5 287.385,-75.5 287.385,-56.5 228.385,-56.5"/>
<text text-anchor="middle" x="257.885" y="-63.5" font-family="Helvetica,sans-Serif" font-size="10.00">iaMutex.h</text>
</a>
</g>
</g>
<!-- Node2&#45;&gt;Node7 -->
<g id="edge23" class="edge"><title>Node2&#45;&gt;Node7</title>
<path fill="none" stroke="midnightblue" d="M239.63,-280.297C242.426,-247.633 252.334,-131.866 256.263,-85.9573"/>
<polygon fill="midnightblue" stroke="midnightblue" points="259.759,-86.1458 257.125,-75.8837 252.785,-85.5488 259.759,-86.1458"/>
</g>
<!-- Node15 -->
<g id="node16" class="node"><title>Node15</title>
<g id="a_node16"><a xlink:title=" ">
<polygon fill="white" stroke="#bfbfbf" points="394.885,-168.5 394.885,-187.5 436.885,-187.5 436.885,-168.5 394.885,-168.5"/>
<text text-anchor="middle" x="415.885" y="-175.5" font-family="Helvetica,sans-Serif" font-size="10.00">vector</text>
</a>
</g>
</g>
<!-- Node2&#45;&gt;Node15 -->
<g id="edge24" class="edge"><title>Node2&#45;&gt;Node15</title>
<path fill="none" stroke="midnightblue" d="M260.108,-280.419C279.624,-272.165 309.057,-258.788 332.885,-244 356.987,-229.042 382.327,-208.372 398.573,-194.388"/>
<polygon fill="midnightblue" stroke="midnightblue" points="400.947,-196.961 406.184,-187.751 396.347,-191.685 400.947,-196.961"/>
</g>
<!-- Node16 -->
<g id="node17" class="node"><title>Node16</title>
<g id="a_node17"><a xlink:href="ia_string_8h.html" target="_top" xlink:title=" ">
<polygon fill="white" stroke="black" points="448.885,-224.5 448.885,-243.5 506.885,-243.5 506.885,-224.5 448.885,-224.5"/>
<text text-anchor="middle" x="477.885" y="-231.5" font-family="Helvetica,sans-Serif" font-size="10.00">iaString.h</text>
</a>
</g>
</g>
<!-- Node2&#45;&gt;Node16 -->
<g id="edge19" class="edge"><title>Node2&#45;&gt;Node16</title>
<path fill="none" stroke="midnightblue" d="M270.13,-281.94C313.511,-272.139 391.949,-254.417 439.044,-243.776"/>
<polygon fill="midnightblue" stroke="midnightblue" points="439.895,-247.172 448.878,-241.554 438.352,-240.344 439.895,-247.172"/>
</g>
<!-- Node5 -->
<g id="node6" class="node"><title>Node5</title>
<g id="a_node6"><a xlink:href="ia_defines_8h.html" target="_top" xlink:title=" ">
<polygon fill="white" stroke="black" points="139.385,-0.5 139.385,-19.5 204.385,-19.5 204.385,-0.5 139.385,-0.5"/>
<text text-anchor="middle" x="171.885" y="-7.5" font-family="Helvetica,sans-Serif" font-size="10.00">iaDefines.h</text>
</a>
</g>
</g>
<!-- Node4&#45;&gt;Node5 -->
<g id="edge5" class="edge"><title>Node4&#45;&gt;Node5</title>
<path fill="none" stroke="midnightblue" d="M153.069,-224.354C130.113,-216.589 97.1599,-203.964 70.8854,-188 38.0084,-168.025 21.0477,-166.91 4.88539,-132 -22.2029,-73.4908 71.4566,-37.4225 129.389,-21.1757"/>
<polygon fill="midnightblue" stroke="midnightblue" points="130.319,-24.55 139.055,-18.5545 128.487,-17.794 130.319,-24.55"/>
</g>
<!-- Node6&#45;&gt;Node7 -->
<g id="edge7" class="edge"><title>Node6&#45;&gt;Node7</title>
<path fill="none" stroke="midnightblue" d="M293.842,-224.075C287.861,-197.945 270.295,-121.211 262.138,-85.577"/>
<polygon fill="midnightblue" stroke="midnightblue" points="265.49,-84.5349 259.847,-75.5681 258.667,-86.097 265.49,-84.5349"/>
</g>
<!-- Node8 -->
<g id="node9" class="node"><title>Node8</title>
<g id="a_node9"><a xlink:href="ia_delegate_8h.html" target="_top" xlink:title=" ">
<polygon fill="white" stroke="black" points="305.385,-168.5 305.385,-187.5 376.385,-187.5 376.385,-168.5 305.385,-168.5"/>
<text text-anchor="middle" x="340.885" y="-175.5" font-family="Helvetica,sans-Serif" font-size="10.00">iaDelegate.h</text>
</a>
</g>
</g>
<!-- Node6&#45;&gt;Node8 -->
<g id="edge9" class="edge"><title>Node6&#45;&gt;Node8</title>
<path fill="none" stroke="midnightblue" d="M303.316,-224.083C309.738,-216.377 319.191,-205.033 327.008,-195.653"/>
<polygon fill="midnightblue" stroke="midnightblue" points="329.88,-197.674 333.593,-187.751 324.502,-193.193 329.88,-197.674"/>
</g>
<!-- Node6&#45;&gt;Node9 -->
<g id="edge10" class="edge"><title>Node6&#45;&gt;Node9</title>
<path fill="none" stroke="midnightblue" d="M267.847,-224.681C236.9,-215.499 186.898,-200.663 152.314,-190.402"/>
<polygon fill="midnightblue" stroke="midnightblue" points="153.139,-186.996 142.557,-187.507 151.148,-193.707 153.139,-186.996"/>
</g>
<!-- Node6&#45;&gt;Node15 -->
<g id="edge18" class="edge"><title>Node6&#45;&gt;Node15</title>
<path fill="none" stroke="midnightblue" d="M314.9,-224.444C334.473,-215.636 365.193,-201.812 387.614,-191.722"/>
<polygon fill="midnightblue" stroke="midnightblue" points="389.277,-194.812 396.96,-187.516 386.404,-188.428 389.277,-194.812"/>
</g>
<!-- Node7&#45;&gt;Node5 -->
<g id="edge8" class="edge"><title>Node7&#45;&gt;Node5</title>
<path fill="none" stroke="midnightblue" d="M244.068,-56.324C230.652,-47.9002 210.061,-34.9709 194.3,-25.0741"/>
<polygon fill="midnightblue" stroke="midnightblue" points="195.999,-22.0081 185.668,-19.6545 192.276,-27.9364 195.999,-22.0081"/>
</g>
<!-- Node10 -->
<g id="node11" class="node"><title>Node10</title>
<g id="a_node11"><a xlink:href="ia_singleton_8h.html" target="_top" xlink:title=" ">
<polygon fill="white" stroke="black" points="305.385,-112.5 305.385,-131.5 378.385,-131.5 378.385,-112.5 305.385,-112.5"/>
<text text-anchor="middle" x="341.885" y="-119.5" font-family="Helvetica,sans-Serif" font-size="10.00">iaSingleton.h</text>
</a>
</g>
</g>
<!-- Node9&#45;&gt;Node10 -->
<g id="edge11" class="edge"><title>Node9&#45;&gt;Node10</title>
<path fill="none" stroke="midnightblue" d="M148.019,-168.916C187.32,-159.608 252.068,-144.272 295.813,-133.912"/>
<polygon fill="midnightblue" stroke="midnightblue" points="296.707,-137.297 305.631,-131.587 295.094,-130.485 296.707,-137.297"/>
</g>
<!-- Node11 -->
<g id="node12" class="node"><title>Node11</title>
<g id="a_node12"><a xlink:href="ia_clock_8h.html" target="_top" xlink:title=" ">
<polygon fill="white" stroke="black" points="58.3854,-56.5 58.3854,-75.5 115.385,-75.5 115.385,-56.5 58.3854,-56.5"/>
<text text-anchor="middle" x="86.8854" y="-63.5" font-family="Helvetica,sans-Serif" font-size="10.00">iaClock.h</text>
</a>
</g>
</g>
<!-- Node9&#45;&gt;Node11 -->
<g id="edge13" class="edge"><title>Node9&#45;&gt;Node11</title>
<path fill="none" stroke="midnightblue" d="M79.65,-171.757C56.2169,-166.192 26.7877,-154.863 11.8854,-132 -2.44394,-110.016 26.8199,-91.1846 52.8802,-79.535"/>
<polygon fill="midnightblue" stroke="midnightblue" points="54.401,-82.6921 62.2498,-75.5755 51.6761,-76.2442 54.401,-82.6921"/>
</g>
<!-- Node12 -->
<g id="node13" class="node"><title>Node12</title>
<g id="a_node13"><a xlink:title=" ">
<polygon fill="white" stroke="#bfbfbf" points="89.3854,-112.5 89.3854,-131.5 138.385,-131.5 138.385,-112.5 89.3854,-112.5"/>
<text text-anchor="middle" x="113.885" y="-119.5" font-family="Helvetica,sans-Serif" font-size="10.00">fstream</text>
</a>
</g>
</g>
<!-- Node9&#45;&gt;Node12 -->
<g id="edge15" class="edge"><title>Node9&#45;&gt;Node12</title>
<path fill="none" stroke="midnightblue" d="M113.885,-168.083C113.885,-161.006 113.885,-150.861 113.885,-141.986"/>
<polygon fill="midnightblue" stroke="midnightblue" points="117.385,-141.751 113.885,-131.751 110.385,-141.751 117.385,-141.751"/>
</g>
<!-- Node13 -->
<g id="node14" class="node"><title>Node13</title>
<g id="a_node14"><a xlink:title=" ">
<polygon fill="white" stroke="#bfbfbf" points="156.885,-112.5 156.885,-131.5 210.885,-131.5 210.885,-112.5 156.885,-112.5"/>
<text text-anchor="middle" x="183.885" y="-119.5" font-family="Helvetica,sans-Serif" font-size="10.00">iostream</text>
</a>
</g>
</g>
<!-- Node9&#45;&gt;Node13 -->
<g id="edge16" class="edge"><title>Node9&#45;&gt;Node13</title>
<path fill="none" stroke="midnightblue" d="M125.132,-168.324C135.683,-160.185 151.686,-147.839 164.328,-138.087"/>
<polygon fill="midnightblue" stroke="midnightblue" points="166.654,-140.713 172.434,-131.834 162.378,-135.171 166.654,-140.713"/>
</g>
<!-- Node14 -->
<g id="node15" class="node"><title>Node14</title>
<g id="a_node15"><a xlink:title=" ">
<polygon fill="white" stroke="#bfbfbf" points="20.8854,-112.5 20.8854,-131.5 70.8854,-131.5 70.8854,-112.5 20.8854,-112.5"/>
<text text-anchor="middle" x="45.8854" y="-119.5" font-family="Helvetica,sans-Serif" font-size="10.00">iomanip</text>
</a>
</g>
</g>
<!-- Node9&#45;&gt;Node14 -->
<g id="edge17" class="edge"><title>Node9&#45;&gt;Node14</title>
<path fill="none" stroke="midnightblue" d="M102.96,-168.324C92.7108,-160.185 77.1648,-147.839 64.8844,-138.087"/>
<polygon fill="midnightblue" stroke="midnightblue" points="67.0173,-135.312 57.0096,-131.834 62.6641,-140.794 67.0173,-135.312"/>
</g>
<!-- Node10&#45;&gt;Node7 -->
<g id="edge12" class="edge"><title>Node10&#45;&gt;Node7</title>
<path fill="none" stroke="midnightblue" d="M328.389,-112.324C315.286,-103.9 295.173,-90.9709 279.779,-81.0741"/>
<polygon fill="midnightblue" stroke="midnightblue" points="281.652,-78.118 271.348,-75.6545 277.867,-84.0063 281.652,-78.118"/>
</g>
<!-- Node11&#45;&gt;Node5 -->
<g id="edge14" class="edge"><title>Node11&#45;&gt;Node5</title>
<path fill="none" stroke="midnightblue" d="M100.542,-56.324C113.802,-47.9002 134.153,-34.9709 149.732,-25.0741"/>
<polygon fill="midnightblue" stroke="midnightblue" points="151.699,-27.9711 158.263,-19.6545 147.945,-22.0626 151.699,-27.9711"/>
</g>
<!-- Node16&#45;&gt;Node5 -->
<g id="edge20" class="edge"><title>Node16&#45;&gt;Node5</title>
<path fill="none" stroke="midnightblue" d="M489.45,-224.31C504.663,-211.779 528.114,-187.948 515.885,-168 450.428,-61.2253 291.489,-26.4015 214.749,-15.5877"/>
<polygon fill="midnightblue" stroke="midnightblue" points="214.86,-12.0715 204.485,-14.2162 213.933,-19.0098 214.86,-12.0715"/>
</g>
<!-- Node16&#45;&gt;Node15 -->
<g id="edge22" class="edge"><title>Node16&#45;&gt;Node15</title>
<path fill="none" stroke="midnightblue" d="M467.924,-224.324C458.759,-216.341 444.948,-204.313 433.857,-194.653"/>
<polygon fill="midnightblue" stroke="midnightblue" points="435.868,-191.762 426.028,-187.834 431.27,-197.041 435.868,-191.762"/>
</g>
<!-- Node17 -->
<g id="node18" class="node"><title>Node17</title>
<g id="a_node18"><a xlink:title=" ">
<polygon fill="white" stroke="#bfbfbf" points="454.885,-168.5 454.885,-187.5 506.885,-187.5 506.885,-168.5 454.885,-168.5"/>
<text text-anchor="middle" x="480.885" y="-175.5" font-family="Helvetica,sans-Serif" font-size="10.00">ostream</text>
</a>
</g>
</g>
<!-- Node16&#45;&gt;Node17 -->
<g id="edge21" class="edge"><title>Node16&#45;&gt;Node17</title>
<path fill="none" stroke="midnightblue" d="M478.381,-224.083C478.774,-217.006 479.338,-206.861 479.831,-197.986"/>
<polygon fill="midnightblue" stroke="midnightblue" points="483.339,-197.93 480.399,-187.751 476.35,-197.542 483.339,-197.93"/>
</g>
<!-- Node18&#45;&gt;Node4 -->
<g id="edge28" class="edge"><title>Node18&#45;&gt;Node4</title>
<path fill="none" stroke="midnightblue" d="M491.799,-281.61C488.446,-281.057 485.111,-280.515 481.885,-280 388.312,-265.062 278.125,-248.969 220.523,-240.671"/>
<polygon fill="midnightblue" stroke="midnightblue" points="220.792,-237.173 210.395,-239.214 219.795,-244.102 220.792,-237.173"/>
</g>
<!-- Node18&#45;&gt;Node10 -->
<g id="edge26" class="edge"><title>Node18&#45;&gt;Node10</title>
<path fill="none" stroke="midnightblue" d="M536.411,-280.351C539.739,-258.456 545.174,-200.287 515.885,-168 498.929,-149.308 433.925,-136.27 388.366,-129.205"/>
<polygon fill="midnightblue" stroke="midnightblue" points="388.801,-125.731 378.392,-127.705 387.76,-132.653 388.801,-125.731"/>
</g>
<!-- Node18&#45;&gt;Node16 -->
<g id="edge27" class="edge"><title>Node18&#45;&gt;Node16</title>
<path fill="none" stroke="midnightblue" d="M525.727,-280.324C517.384,-272.42 504.853,-260.548 494.708,-250.938"/>
<polygon fill="midnightblue" stroke="midnightblue" points="496.877,-248.171 487.21,-243.834 492.062,-253.252 496.877,-248.171"/>
</g>
<!-- Node19 -->
<g id="node20" class="node"><title>Node19</title>
<g id="a_node20"><a xlink:title=" ">
<polygon fill="white" stroke="#bfbfbf" points="563.385,-224.5 563.385,-243.5 598.385,-243.5 598.385,-224.5 563.385,-224.5"/>
<text text-anchor="middle" x="580.885" y="-231.5" font-family="Helvetica,sans-Serif" font-size="10.00">map</text>
</a>
</g>
</g>
<!-- Node18&#45;&gt;Node19 -->
<g id="edge29" class="edge"><title>Node18&#45;&gt;Node19</title>
<path fill="none" stroke="midnightblue" d="M542.481,-280.083C549.113,-272.298 558.906,-260.801 566.944,-251.367"/>
<polygon fill="midnightblue" stroke="midnightblue" points="569.61,-253.633 573.431,-243.751 564.282,-249.094 569.61,-253.633"/>
</g>
<!-- Node22&#45;&gt;Node4 -->
<g id="edge36" class="edge"><title>Node22&#45;&gt;Node4</title>
<path fill="none" stroke="midnightblue" d="M179.042,-336.368C179.365,-318.617 180.11,-277.666 180.547,-253.597"/>
<polygon fill="midnightblue" stroke="midnightblue" points="184.047,-253.653 180.729,-243.591 177.048,-253.526 184.047,-253.653"/>
</g>
</g>
</svg>
