<?xml version="1.0" encoding="UTF-8" standalone="no"?>
<!DOCTYPE svg PUBLIC "-//W3C//DTD SVG 1.1//EN"
 "http://www.w3.org/Graphics/SVG/1.1/DTD/svg11.dtd">
<!-- Generated by graphviz version 2.38.0 (20140413.2041)
 -->
<!-- Title: C:/dev/Igor/Igor/src/Igor/src/iMaterial.h Pages: 1 -->
<svg width="975pt" height="319pt"
 viewBox="0.00 0.00 974.50 319.00" xmlns="http://www.w3.org/2000/svg" xmlns:xlink="http://www.w3.org/1999/xlink">
<g id="graph0" class="graph" transform="scale(1 1) rotate(0) translate(4 315)">
<title>C:/dev/Igor/Igor/src/Igor/src/iMaterial.h</title>
<polygon fill="white" stroke="none" points="-4,4 -4,-315 970.5,-315 970.5,4 -4,4"/>
<!-- Node0 -->
<g id="node1" class="node"><title>Node0</title>
<g id="a_node1"><a xlink:title=" ">
<polygon fill="#bfbfbf" stroke="black" points="195,-280.5 195,-310.5 295,-310.5 295,-280.5 195,-280.5"/>
<text text-anchor="start" x="203" y="-298.5" font-family="Helvetica,sans-Serif" font-size="10.00">C:/dev/Igor/Igor/src</text>
<text text-anchor="middle" x="245" y="-287.5" font-family="Helvetica,sans-Serif" font-size="10.00">/Igor/src/iMaterial.h</text>
</a>
</g>
</g>
<!-- Node1 -->
<g id="node2" class="node"><title>Node1</title>
<g id="a_node2"><a xlink:href="ia_string_8h.html" target="_top" xlink:title=" ">
<polygon fill="white" stroke="black" points="178,-168.5 178,-187.5 236,-187.5 236,-168.5 178,-168.5"/>
<text text-anchor="middle" x="207" y="-175.5" font-family="Helvetica,sans-Serif" font-size="10.00">iaString.h</text>
</a>
</g>
</g>
<!-- Node0&#45;&gt;Node1 -->
<g id="edge1" class="edge"><title>Node0&#45;&gt;Node1</title>
<path fill="none" stroke="midnightblue" d="M239.389,-280.453C235.445,-270.377 230.152,-256.44 226,-244 220.824,-228.491 215.665,-210.652 212.032,-197.589"/>
<polygon fill="midnightblue" stroke="midnightblue" points="215.393,-196.614 209.372,-187.897 208.643,-198.467 215.393,-196.614"/>
</g>
<!-- Node4 -->
<g id="node5" class="node"><title>Node4</title>
<g id="a_node5"><a xlink:title=" ">
<polygon fill="white" stroke="#bfbfbf" points="26,-112.5 26,-131.5 68,-131.5 68,-112.5 26,-112.5"/>
<text text-anchor="middle" x="47" y="-119.5" font-family="Helvetica,sans-Serif" font-size="10.00">vector</text>
</a>
</g>
</g>
<!-- Node0&#45;&gt;Node4 -->
<g id="edge49" class="edge"><title>Node0&#45;&gt;Node4</title>
<path fill="none" stroke="midnightblue" d="M228.797,-280.465C192.046,-248.634 102.616,-171.173 64.5845,-138.231"/>
<polygon fill="midnightblue" stroke="midnightblue" points="66.7327,-135.461 56.8824,-131.56 62.1497,-140.752 66.7327,-135.461"/>
</g>
<!-- Node5 -->
<g id="node6" class="node"><title>Node5</title>
<g id="a_node6"><a xlink:href="ia_i_d_generator_8h.html" target="_top" xlink:title=" ">
<polygon fill="white" stroke="black" points="0,-168.5 0,-187.5 84,-187.5 84,-168.5 0,-168.5"/>
<text text-anchor="middle" x="42" y="-175.5" font-family="Helvetica,sans-Serif" font-size="10.00">iaIDGenerator.h</text>
</a>
</g>
</g>
<!-- Node0&#45;&gt;Node5 -->
<g id="edge5" class="edge"><title>Node0&#45;&gt;Node5</title>
<path fill="none" stroke="midnightblue" d="M194.676,-284.227C164.788,-276.484 127.158,-263.746 98,-244 79.3847,-231.393 63.2534,-211.057 53.1481,-196.488"/>
<polygon fill="midnightblue" stroke="midnightblue" points="55.8721,-194.264 47.4122,-187.886 50.0482,-198.147 55.8721,-194.264"/>
</g>
<!-- Node7 -->
<g id="node8" class="node"><title>Node7</title>
<g id="a_node8"><a xlink:href="i_render_state_set_8h.html" target="_top" xlink:title=" ">
<polygon fill="white" stroke="black" points="235,-224.5 235,-243.5 331,-243.5 331,-224.5 235,-224.5"/>
<text text-anchor="middle" x="283" y="-231.5" font-family="Helvetica,sans-Serif" font-size="10.00">iRenderStateSet.h</text>
</a>
</g>
</g>
<!-- Node0&#45;&gt;Node7 -->
<g id="edge9" class="edge"><title>Node0&#45;&gt;Node7</title>
<path fill="none" stroke="midnightblue" d="M254.005,-280.399C259.413,-271.932 266.332,-261.099 272.054,-252.139"/>
<polygon fill="midnightblue" stroke="midnightblue" points="275.038,-253.97 277.471,-243.658 269.138,-250.202 275.038,-253.97"/>
</g>
<!-- Node15 -->
<g id="node16" class="node"><title>Node15</title>
<g id="a_node16"><a xlink:href="i_shader_8h.html" target="_top" xlink:title=" ">
<polygon fill="white" stroke="black" points="382,-224.5 382,-243.5 440,-243.5 440,-224.5 382,-224.5"/>
<text text-anchor="middle" x="411" y="-231.5" font-family="Helvetica,sans-Serif" font-size="10.00">iShader.h</text>
</a>
</g>
</g>
<!-- Node0&#45;&gt;Node15 -->
<g id="edge20" class="edge"><title>Node0&#45;&gt;Node15</title>
<path fill="none" stroke="midnightblue" d="M284.34,-280.399C312.565,-270.283 350.206,-256.791 377.105,-247.149"/>
<polygon fill="midnightblue" stroke="midnightblue" points="378.613,-250.327 386.846,-243.658 376.251,-243.737 378.613,-250.327"/>
</g>
<!-- Node27 -->
<g id="node28" class="node"><title>Node27</title>
<g id="a_node28"><a xlink:title=" ">
<polygon fill="white" stroke="#bfbfbf" points="458,-224.5 458,-243.5 510,-243.5 510,-224.5 458,-224.5"/>
<text text-anchor="middle" x="484" y="-231.5" font-family="Helvetica,sans-Serif" font-size="10.00">memory</text>
</a>
</g>
</g>
<!-- Node0&#45;&gt;Node27 -->
<g id="edge50" class="edge"><title>Node0&#45;&gt;Node27</title>
<path fill="none" stroke="midnightblue" d="M295.333,-282.174C334.382,-272.581 390.136,-258.818 447.639,-244.329"/>
<polygon fill="midnightblue" stroke="midnightblue" points="448.793,-247.647 457.633,-241.807 447.081,-240.86 448.793,-247.647"/>
</g>
<!-- Node2 -->
<g id="node3" class="node"><title>Node2</title>
<g id="a_node3"><a xlink:href="ia_defines_8h.html" target="_top" xlink:title=" ">
<polygon fill="white" stroke="black" points="350.5,-0.5 350.5,-19.5 415.5,-19.5 415.5,-0.5 350.5,-0.5"/>
<text text-anchor="middle" x="383" y="-7.5" font-family="Helvetica,sans-Serif" font-size="10.00">iaDefines.h</text>
</a>
</g>
</g>
<!-- Node1&#45;&gt;Node2 -->
<g id="edge2" class="edge"><title>Node1&#45;&gt;Node2</title>
<path fill="none" stroke="midnightblue" d="M177.809,-171.292C156.352,-165.404 128.65,-153.872 115,-132 106.052,-117.661 99.8471,-77.1182 119,-56 147.908,-24.1263 273.027,-14.8191 340.117,-12.1086"/>
<polygon fill="midnightblue" stroke="midnightblue" points="340.5,-15.5969 350.363,-11.7278 340.239,-8.60172 340.5,-15.5969"/>
</g>
<!-- Node3 -->
<g id="node4" class="node"><title>Node3</title>
<g id="a_node4"><a xlink:title=" ">
<polygon fill="white" stroke="#bfbfbf" points="634,-0.5 634,-19.5 686,-19.5 686,-0.5 634,-0.5"/>
<text text-anchor="middle" x="660" y="-7.5" font-family="Helvetica,sans-Serif" font-size="10.00">ostream</text>
</a>
</g>
</g>
<!-- Node1&#45;&gt;Node3 -->
<g id="edge3" class="edge"><title>Node1&#45;&gt;Node3</title>
<path fill="none" stroke="midnightblue" d="M211.691,-168.39C224.657,-145.533 263.46,-83.2202 315,-56 367.989,-28.0144 546.09,-16.3774 623.53,-12.5583"/>
<polygon fill="midnightblue" stroke="midnightblue" points="623.944,-16.0426 633.766,-12.0704 623.61,-9.05057 623.944,-16.0426"/>
</g>
<!-- Node1&#45;&gt;Node4 -->
<g id="edge4" class="edge"><title>Node1&#45;&gt;Node4</title>
<path fill="none" stroke="midnightblue" d="M181.648,-168.444C153.464,-158.932 107.947,-143.57 77.7518,-133.379"/>
<polygon fill="midnightblue" stroke="midnightblue" points="78.7403,-130.018 68.1461,-130.137 76.5018,-136.651 78.7403,-130.018"/>
</g>
<!-- Node5&#45;&gt;Node4 -->
<g id="edge8" class="edge"><title>Node5&#45;&gt;Node4</title>
<path fill="none" stroke="midnightblue" d="M42.8256,-168.083C43.4809,-161.006 44.4203,-150.861 45.242,-141.986"/>
<polygon fill="midnightblue" stroke="midnightblue" points="48.7527,-142.031 46.1897,-131.751 41.7826,-141.386 48.7527,-142.031"/>
</g>
<!-- Node6 -->
<g id="node7" class="node"><title>Node6</title>
<g id="a_node7"><a xlink:href="ia_mutex_8h.html" target="_top" xlink:title=" ">
<polygon fill="white" stroke="black" points="128.5,-56.5 128.5,-75.5 187.5,-75.5 187.5,-56.5 128.5,-56.5"/>
<text text-anchor="middle" x="158" y="-63.5" font-family="Helvetica,sans-Serif" font-size="10.00">iaMutex.h</text>
</a>
</g>
</g>
<!-- Node5&#45;&gt;Node6 -->
<g id="edge6" class="edge"><title>Node5&#45;&gt;Node6</title>
<path fill="none" stroke="midnightblue" d="M33.687,-168.3C22.1314,-155.125 4.01934,-129.768 17,-112 39.9783,-80.5464 85.1854,-70.5645 118.238,-67.6543"/>
<polygon fill="midnightblue" stroke="midnightblue" points="118.766,-71.1261 128.498,-66.9397 118.279,-64.143 118.766,-71.1261"/>
</g>
<!-- Node6&#45;&gt;Node2 -->
<g id="edge7" class="edge"><title>Node6&#45;&gt;Node2</title>
<path fill="none" stroke="midnightblue" d="M187.878,-57.8292C227.026,-48.4337 295.923,-31.8984 340.496,-21.201"/>
<polygon fill="midnightblue" stroke="midnightblue" points="341.537,-24.5507 350.444,-18.8135 339.903,-17.744 341.537,-24.5507"/>
</g>
<!-- Node8 -->
<g id="node9" class="node"><title>Node8</title>
<g id="a_node9"><a xlink:href="i_defines_8h.html" target="_top" xlink:title=" ">
<polygon fill="white" stroke="black" points="205.5,-56.5 205.5,-75.5 264.5,-75.5 264.5,-56.5 205.5,-56.5"/>
<text text-anchor="middle" x="235" y="-63.5" font-family="Helvetica,sans-Serif" font-size="10.00">iDefines.h</text>
</a>
</g>
</g>
<!-- Node7&#45;&gt;Node8 -->
<g id="edge10" class="edge"><title>Node7&#45;&gt;Node8</title>
<path fill="none" stroke="midnightblue" d="M280.419,-224.075C272.864,-197.945 250.675,-121.211 240.372,-85.577"/>
<polygon fill="midnightblue" stroke="midnightblue" points="243.618,-84.2023 237.478,-75.5681 236.893,-86.1468 243.618,-84.2023"/>
</g>
<!-- Node9 -->
<g id="node10" class="node"><title>Node9</title>
<g id="a_node10"><a xlink:href="ia_console_8h.html" target="_top" xlink:title=" ">
<polygon fill="white" stroke="black" points="294,-168.5 294,-187.5 362,-187.5 362,-168.5 294,-168.5"/>
<text text-anchor="middle" x="328" y="-175.5" font-family="Helvetica,sans-Serif" font-size="10.00">iaConsole.h</text>
</a>
</g>
</g>
<!-- Node7&#45;&gt;Node9 -->
<g id="edge12" class="edge"><title>Node7&#45;&gt;Node9</title>
<path fill="none" stroke="midnightblue" d="M290.431,-224.083C296.853,-216.377 306.306,-205.033 314.122,-195.653"/>
<polygon fill="midnightblue" stroke="midnightblue" points="316.994,-197.674 320.707,-187.751 311.617,-193.193 316.994,-197.674"/>
</g>
<!-- Node8&#45;&gt;Node2 -->
<g id="edge11" class="edge"><title>Node8&#45;&gt;Node2</title>
<path fill="none" stroke="midnightblue" d="M258.451,-56.4435C283.133,-47.4381 322.185,-33.1891 349.977,-23.049"/>
<polygon fill="midnightblue" stroke="midnightblue" points="351.464,-26.2321 359.659,-19.5164 349.065,-19.6561 351.464,-26.2321"/>
</g>
<!-- Node10 -->
<g id="node11" class="node"><title>Node10</title>
<g id="a_node11"><a xlink:href="ia_singleton_8h.html" target="_top" xlink:title=" ">
<polygon fill="white" stroke="black" points="124.5,-112.5 124.5,-131.5 197.5,-131.5 197.5,-112.5 124.5,-112.5"/>
<text text-anchor="middle" x="161" y="-119.5" font-family="Helvetica,sans-Serif" font-size="10.00">iaSingleton.h</text>
</a>
</g>
</g>
<!-- Node9&#45;&gt;Node10 -->
<g id="edge13" class="edge"><title>Node9&#45;&gt;Node10</title>
<path fill="none" stroke="midnightblue" d="M301.538,-168.444C273.322,-159.32 228.46,-144.813 197.032,-134.651"/>
<polygon fill="midnightblue" stroke="midnightblue" points="197.93,-131.263 187.338,-131.516 195.776,-137.923 197.93,-131.263"/>
</g>
<!-- Node11 -->
<g id="node12" class="node"><title>Node11</title>
<g id="a_node12"><a xlink:href="ia_clock_8h.html" target="_top" xlink:title=" ">
<polygon fill="white" stroke="black" points="324.5,-56.5 324.5,-75.5 381.5,-75.5 381.5,-56.5 324.5,-56.5"/>
<text text-anchor="middle" x="353" y="-63.5" font-family="Helvetica,sans-Serif" font-size="10.00">iaClock.h</text>
</a>
</g>
</g>
<!-- Node9&#45;&gt;Node11 -->
<g id="edge15" class="edge"><title>Node9&#45;&gt;Node11</title>
<path fill="none" stroke="midnightblue" d="M324.872,-168.361C320.771,-155.691 314.786,-131.462 321,-112 324.341,-101.538 331.1,-91.4277 337.549,-83.4496"/>
<polygon fill="midnightblue" stroke="midnightblue" points="340.348,-85.5641 344.249,-75.7136 335.056,-80.9815 340.348,-85.5641"/>
</g>
<!-- Node12 -->
<g id="node13" class="node"><title>Node12</title>
<g id="a_node13"><a xlink:title=" ">
<polygon fill="white" stroke="#bfbfbf" points="440.5,-112.5 440.5,-131.5 489.5,-131.5 489.5,-112.5 440.5,-112.5"/>
<text text-anchor="middle" x="465" y="-119.5" font-family="Helvetica,sans-Serif" font-size="10.00">fstream</text>
</a>
</g>
</g>
<!-- Node9&#45;&gt;Node12 -->
<g id="edge17" class="edge"><title>Node9&#45;&gt;Node12</title>
<path fill="none" stroke="midnightblue" d="M349.708,-168.444C372.355,-159.517 408.072,-145.439 433.752,-135.317"/>
<polygon fill="midnightblue" stroke="midnightblue" points="435.374,-138.44 443.394,-131.516 432.807,-131.927 435.374,-138.44"/>
</g>
<!-- Node13 -->
<g id="node14" class="node"><title>Node13</title>
<g id="a_node14"><a xlink:title=" ">
<polygon fill="white" stroke="#bfbfbf" points="330,-112.5 330,-131.5 384,-131.5 384,-112.5 330,-112.5"/>
<text text-anchor="middle" x="357" y="-119.5" font-family="Helvetica,sans-Serif" font-size="10.00">iostream</text>
</a>
</g>
</g>
<!-- Node9&#45;&gt;Node13 -->
<g id="edge18" class="edge"><title>Node9&#45;&gt;Node13</title>
<path fill="none" stroke="midnightblue" d="M332.789,-168.083C336.758,-160.691 342.525,-149.953 347.435,-140.811"/>
<polygon fill="midnightblue" stroke="midnightblue" points="350.653,-142.217 352.3,-131.751 344.486,-138.905 350.653,-142.217"/>
</g>
<!-- Node14 -->
<g id="node15" class="node"><title>Node14</title>
<g id="a_node15"><a xlink:title=" ">
<polygon fill="white" stroke="#bfbfbf" points="508,-112.5 508,-131.5 558,-131.5 558,-112.5 508,-112.5"/>
<text text-anchor="middle" x="533" y="-119.5" font-family="Helvetica,sans-Serif" font-size="10.00">iomanip</text>
</a>
</g>
</g>
<!-- Node9&#45;&gt;Node14 -->
<g id="edge19" class="edge"><title>Node9&#45;&gt;Node14</title>
<path fill="none" stroke="midnightblue" d="M360.483,-168.444C398,-158.561 459.489,-142.364 498.029,-132.212"/>
<polygon fill="midnightblue" stroke="midnightblue" points="498.999,-135.576 507.778,-129.644 497.216,-128.807 498.999,-135.576"/>
</g>
<!-- Node10&#45;&gt;Node6 -->
<g id="edge14" class="edge"><title>Node10&#45;&gt;Node6</title>
<path fill="none" stroke="midnightblue" d="M160.505,-112.083C160.111,-105.006 159.548,-94.8611 159.055,-85.9865"/>
<polygon fill="midnightblue" stroke="midnightblue" points="162.536,-85.5415 158.486,-75.7511 155.546,-85.9299 162.536,-85.5415"/>
</g>
<!-- Node11&#45;&gt;Node2 -->
<g id="edge16" class="edge"><title>Node11&#45;&gt;Node2</title>
<path fill="none" stroke="midnightblue" d="M357.954,-56.083C362.104,-48.6127 368.153,-37.7244 373.267,-28.5199"/>
<polygon fill="midnightblue" stroke="midnightblue" points="376.341,-30.1924 378.138,-19.7511 370.222,-26.7929 376.341,-30.1924"/>
</g>
<!-- Node15&#45;&gt;Node1 -->
<g id="edge47" class="edge"><title>Node15&#45;&gt;Node1</title>
<path fill="none" stroke="midnightblue" d="M381.772,-225.263C346.097,-215.82 285.64,-199.817 246.018,-189.328"/>
<polygon fill="midnightblue" stroke="midnightblue" points="246.737,-185.898 236.174,-186.723 244.945,-192.665 246.737,-185.898"/>
</g>
<!-- Node15&#45;&gt;Node4 -->
<g id="edge48" class="edge"><title>Node15&#45;&gt;Node4</title>
<path fill="none" stroke="midnightblue" d="M381.748,-228.705C326.315,-220.379 208.024,-201.659 169,-188 149.378,-181.132 100.439,-153.79 70.8502,-136.831"/>
<polygon fill="midnightblue" stroke="midnightblue" points="72.3982,-133.684 61.9852,-131.729 68.9064,-139.751 72.3982,-133.684"/>
</g>
<!-- Node16 -->
<g id="node17" class="node"><title>Node16</title>
<g id="a_node17"><a xlink:href="ia_matrix_8h.html" target="_top" xlink:title=" ">
<polygon fill="white" stroke="black" points="594.5,-168.5 594.5,-187.5 653.5,-187.5 653.5,-168.5 594.5,-168.5"/>
<text text-anchor="middle" x="624" y="-175.5" font-family="Helvetica,sans-Serif" font-size="10.00">iaMatrix.h</text>
</a>
</g>
</g>
<!-- Node15&#45;&gt;Node16 -->
<g id="edge21" class="edge"><title>Node15&#45;&gt;Node16</title>
<path fill="none" stroke="midnightblue" d="M440.17,-225.605C477.642,-216.105 542.824,-199.58 584.656,-188.975"/>
<polygon fill="midnightblue" stroke="midnightblue" points="585.665,-192.329 594.499,-186.479 583.945,-185.544 585.665,-192.329"/>
</g>
<!-- Node18 -->
<g id="node19" class="node"><title>Node18</title>
<g id="a_node19"><a xlink:href="ia_vector3_8h.html" target="_top" xlink:title=" ">
<polygon fill="white" stroke="black" points="742,-56.5 742,-75.5 808,-75.5 808,-56.5 742,-56.5"/>
<text text-anchor="middle" x="775" y="-63.5" font-family="Helvetica,sans-Serif" font-size="10.00">iaVector3.h</text>
</a>
</g>
</g>
<!-- Node15&#45;&gt;Node18 -->
<g id="edge39" class="edge"><title>Node15&#45;&gt;Node18</title>
<path fill="none" stroke="midnightblue" d="M440.003,-225.925C443.035,-225.247 446.076,-224.593 449,-224 610.85,-191.192 715.29,-267.979 809,-132 819.874,-116.221 806.219,-96.5354 793.113,-82.9864"/>
<polygon fill="midnightblue" stroke="midnightblue" points="795.279,-80.213 785.65,-75.7941 790.422,-85.2534 795.279,-80.213"/>
</g>
<!-- Node23 -->
<g id="node24" class="node"><title>Node23</title>
<g id="a_node24"><a xlink:href="ia_vector2_8h.html" target="_top" xlink:title=" ">
<polygon fill="white" stroke="black" points="826,-56.5 826,-75.5 892,-75.5 892,-56.5 826,-56.5"/>
<text text-anchor="middle" x="859" y="-63.5" font-family="Helvetica,sans-Serif" font-size="10.00">iaVector2.h</text>
</a>
</g>
</g>
<!-- Node15&#45;&gt;Node23 -->
<g id="edge34" class="edge"><title>Node15&#45;&gt;Node23</title>
<path fill="none" stroke="midnightblue" d="M440.384,-225.66C443.286,-225.05 446.194,-224.483 449,-224 521.917,-211.45 715.108,-223.544 780,-188 820.404,-165.869 843.491,-113.232 853.316,-85.2388"/>
<polygon fill="midnightblue" stroke="midnightblue" points="856.712,-86.1159 856.536,-75.5226 850.068,-83.9133 856.712,-86.1159"/>
</g>
<!-- Node25 -->
<g id="node26" class="node"><title>Node25</title>
<g id="a_node26"><a xlink:href="ia_color3_8h.html" target="_top" xlink:title=" ">
<polygon fill="white" stroke="black" points="381,-168.5 381,-187.5 441,-187.5 441,-168.5 381,-168.5"/>
<text text-anchor="middle" x="411" y="-175.5" font-family="Helvetica,sans-Serif" font-size="10.00">iaColor3.h</text>
</a>
</g>
</g>
<!-- Node15&#45;&gt;Node25 -->
<g id="edge40" class="edge"><title>Node15&#45;&gt;Node25</title>
<path fill="none" stroke="midnightblue" d="M411,-224.083C411,-217.006 411,-206.861 411,-197.986"/>
<polygon fill="midnightblue" stroke="midnightblue" points="414.5,-197.751 411,-187.751 407.5,-197.751 414.5,-197.751"/>
</g>
<!-- Node26 -->
<g id="node27" class="node"><title>Node26</title>
<g id="a_node27"><a xlink:href="ia_color4_8h.html" target="_top" xlink:title=" ">
<polygon fill="white" stroke="black" points="459,-168.5 459,-187.5 519,-187.5 519,-168.5 459,-168.5"/>
<text text-anchor="middle" x="489" y="-175.5" font-family="Helvetica,sans-Serif" font-size="10.00">iaColor4.h</text>
</a>
</g>
</g>
<!-- Node15&#45;&gt;Node26 -->
<g id="edge44" class="edge"><title>Node15&#45;&gt;Node26</title>
<path fill="none" stroke="midnightblue" d="M423.532,-224.324C435.586,-215.979 454.027,-203.212 468.269,-193.352"/>
<polygon fill="midnightblue" stroke="midnightblue" points="470.269,-196.224 476.499,-187.655 466.285,-190.469 470.269,-196.224"/>
</g>
<!-- Node16&#45;&gt;Node3 -->
<g id="edge31" class="edge"><title>Node16&#45;&gt;Node3</title>
<path fill="none" stroke="midnightblue" d="M624.741,-168.366C626.593,-148.348 632.075,-97.3215 643,-56 645.375,-47.0177 648.896,-37.344 652.119,-29.2761"/>
<polygon fill="midnightblue" stroke="midnightblue" points="655.456,-30.3659 656.062,-19.7884 648.992,-27.6794 655.456,-30.3659"/>
</g>
<!-- Node16&#45;&gt;Node12 -->
<g id="edge29" class="edge"><title>Node16&#45;&gt;Node12</title>
<path fill="none" stroke="midnightblue" d="M598.806,-168.444C571.9,-159.306 529.097,-144.769 499.168,-134.604"/>
<polygon fill="midnightblue" stroke="midnightblue" points="500.148,-131.241 489.554,-131.339 497.897,-137.869 500.148,-131.241"/>
</g>
<!-- Node16&#45;&gt;Node14 -->
<g id="edge32" class="edge"><title>Node16&#45;&gt;Node14</title>
<path fill="none" stroke="midnightblue" d="M609.379,-168.324C595.051,-159.822 572.987,-146.729 556.251,-136.797"/>
<polygon fill="midnightblue" stroke="midnightblue" points="557.97,-133.748 547.584,-131.655 554.398,-139.768 557.97,-133.748"/>
</g>
<!-- Node17 -->
<g id="node18" class="node"><title>Node17</title>
<g id="a_node18"><a xlink:href="ia_vector4_8h.html" target="_top" xlink:title=" ">
<polygon fill="white" stroke="black" points="734,-112.5 734,-131.5 800,-131.5 800,-112.5 734,-112.5"/>
<text text-anchor="middle" x="767" y="-119.5" font-family="Helvetica,sans-Serif" font-size="10.00">iaVector4.h</text>
</a>
</g>
</g>
<!-- Node16&#45;&gt;Node17 -->
<g id="edge22" class="edge"><title>Node16&#45;&gt;Node17</title>
<path fill="none" stroke="midnightblue" d="M646.659,-168.444C670.402,-159.478 707.909,-145.314 734.738,-135.183"/>
<polygon fill="midnightblue" stroke="midnightblue" points="736.329,-138.324 744.447,-131.516 733.856,-131.775 736.329,-138.324"/>
</g>
<!-- Node19 -->
<g id="node20" class="node"><title>Node19</title>
<g id="a_node20"><a xlink:title=" ">
<polygon fill="white" stroke="#bfbfbf" points="833,-0.5 833,-19.5 877,-19.5 877,-0.5 833,-0.5"/>
<text text-anchor="middle" x="855" y="-7.5" font-family="Helvetica,sans-Serif" font-size="10.00">cmath</text>
</a>
</g>
</g>
<!-- Node16&#45;&gt;Node19 -->
<g id="edge30" class="edge"><title>Node16&#45;&gt;Node19</title>
<path fill="none" stroke="midnightblue" d="M653.949,-177.378C714.892,-176.267 851.722,-163.685 901,-76 911.209,-57.8346 893.45,-38.5272 877.118,-25.7197"/>
<polygon fill="midnightblue" stroke="midnightblue" points="878.994,-22.7552 868.863,-19.6552 874.85,-28.3965 878.994,-22.7552"/>
</g>
<!-- Node22 -->
<g id="node23" class="node"><title>Node22</title>
<g id="a_node23"><a xlink:href="ia_matrix_8inl.html" target="_top" xlink:title=" ">
<polygon fill="white" stroke="black" points="652,-112.5 652,-131.5 716,-131.5 716,-112.5 652,-112.5"/>
<text text-anchor="middle" x="684" y="-119.5" font-family="Helvetica,sans-Serif" font-size="10.00">iaMatrix.inl</text>
</a>
</g>
</g>
<!-- Node16&#45;&gt;Node22 -->
<g id="edge33" class="edge"><title>Node16&#45;&gt;Node22</title>
<path fill="none" stroke="midnightblue" d="M633.64,-168.324C642.51,-160.341 655.875,-148.313 666.608,-138.653"/>
<polygon fill="midnightblue" stroke="midnightblue" points="669.093,-141.125 674.185,-131.834 664.41,-135.922 669.093,-141.125"/>
</g>
<!-- Node17&#45;&gt;Node18 -->
<g id="edge23" class="edge"><title>Node17&#45;&gt;Node18</title>
<path fill="none" stroke="midnightblue" d="M768.321,-112.083C769.381,-104.927 770.906,-94.6353 772.231,-85.6911"/>
<polygon fill="midnightblue" stroke="midnightblue" points="775.7,-86.1561 773.704,-75.7511 768.776,-85.1302 775.7,-86.1561"/>
</g>
<!-- Node21 -->
<g id="node22" class="node"><title>Node21</title>
<g id="a_node22"><a xlink:href="ia_vector4_8inl.html" target="_top" xlink:title=" ">
<polygon fill="white" stroke="black" points="652.5,-56.5 652.5,-75.5 723.5,-75.5 723.5,-56.5 652.5,-56.5"/>
<text text-anchor="middle" x="688" y="-63.5" font-family="Helvetica,sans-Serif" font-size="10.00">iaVector4.inl</text>
</a>
</g>
</g>
<!-- Node17&#45;&gt;Node21 -->
<g id="edge28" class="edge"><title>Node17&#45;&gt;Node21</title>
<path fill="none" stroke="midnightblue" d="M754.307,-112.324C742.099,-103.979 723.422,-91.2122 708.997,-81.3524"/>
<polygon fill="midnightblue" stroke="midnightblue" points="710.892,-78.4082 700.661,-75.6545 706.942,-84.1871 710.892,-78.4082"/>
</g>
<!-- Node18&#45;&gt;Node2 -->
<g id="edge24" class="edge"><title>Node18&#45;&gt;Node2</title>
<path fill="none" stroke="midnightblue" d="M741.714,-57.7654C738.438,-57.134 735.159,-56.5334 732,-56 622.214,-37.462 491.864,-22.512 425.871,-15.4367"/>
<polygon fill="midnightblue" stroke="midnightblue" points="426.159,-11.9477 415.845,-14.3694 425.418,-18.9084 426.159,-11.9477"/>
</g>
<!-- Node18&#45;&gt;Node3 -->
<g id="edge26" class="edge"><title>Node18&#45;&gt;Node3</title>
<path fill="none" stroke="midnightblue" d="M756.778,-56.4435C738.104,-47.6751 708.844,-33.9355 687.383,-23.8579"/>
<polygon fill="midnightblue" stroke="midnightblue" points="688.676,-20.5988 678.137,-19.5164 685.701,-26.935 688.676,-20.5988"/>
</g>
<!-- Node18&#45;&gt;Node19 -->
<g id="edge25" class="edge"><title>Node18&#45;&gt;Node19</title>
<path fill="none" stroke="midnightblue" d="M787.853,-56.324C800.216,-47.979 819.13,-35.2122 833.737,-25.3524"/>
<polygon fill="midnightblue" stroke="midnightblue" points="835.848,-28.1503 842.179,-19.6545 831.932,-22.3483 835.848,-28.1503"/>
</g>
<!-- Node20 -->
<g id="node21" class="node"><title>Node20</title>
<g id="a_node21"><a xlink:href="ia_vector3_8inl.html" target="_top" xlink:title=" ">
<polygon fill="white" stroke="black" points="739.5,-0.5 739.5,-19.5 810.5,-19.5 810.5,-0.5 739.5,-0.5"/>
<text text-anchor="middle" x="775" y="-7.5" font-family="Helvetica,sans-Serif" font-size="10.00">iaVector3.inl</text>
</a>
</g>
</g>
<!-- Node18&#45;&gt;Node20 -->
<g id="edge27" class="edge"><title>Node18&#45;&gt;Node20</title>
<path fill="none" stroke="midnightblue" d="M775,-56.083C775,-49.0059 775,-38.8611 775,-29.9865"/>
<polygon fill="midnightblue" stroke="midnightblue" points="778.5,-29.751 775,-19.7511 771.5,-29.7511 778.5,-29.751"/>
</g>
<!-- Node23&#45;&gt;Node2 -->
<g id="edge35" class="edge"><title>Node23&#45;&gt;Node2</title>
<path fill="none" stroke="midnightblue" d="M825.59,-57.5012C822.692,-56.9539 819.799,-56.4436 817,-56 674.624,-33.4314 504.101,-19.5498 425.951,-13.911"/>
<polygon fill="midnightblue" stroke="midnightblue" points="425.773,-10.3896 415.55,-13.17 425.276,-17.3719 425.773,-10.3896"/>
</g>
<!-- Node23&#45;&gt;Node3 -->
<g id="edge37" class="edge"><title>Node23&#45;&gt;Node3</title>
<path fill="none" stroke="midnightblue" d="M827.468,-56.4435C791.805,-46.7662 733.828,-31.0336 696.306,-20.8518"/>
<polygon fill="midnightblue" stroke="midnightblue" points="696.868,-17.3779 686.301,-18.1368 695.035,-24.1336 696.868,-17.3779"/>
</g>
<!-- Node23&#45;&gt;Node19 -->
<g id="edge36" class="edge"><title>Node23&#45;&gt;Node19</title>
<path fill="none" stroke="midnightblue" d="M858.339,-56.083C857.815,-49.0059 857.064,-38.8611 856.406,-29.9865"/>
<polygon fill="midnightblue" stroke="midnightblue" points="859.877,-29.4652 855.648,-19.7511 852.897,-29.9823 859.877,-29.4652"/>
</g>
<!-- Node24 -->
<g id="node25" class="node"><title>Node24</title>
<g id="a_node25"><a xlink:href="ia_vector2_8inl.html" target="_top" xlink:title=" ">
<polygon fill="white" stroke="black" points="895.5,-0.5 895.5,-19.5 966.5,-19.5 966.5,-0.5 895.5,-0.5"/>
<text text-anchor="middle" x="931" y="-7.5" font-family="Helvetica,sans-Serif" font-size="10.00">iaVector2.inl</text>
</a>
</g>
</g>
<!-- Node23&#45;&gt;Node24 -->
<g id="edge38" class="edge"><title>Node23&#45;&gt;Node24</title>
<path fill="none" stroke="midnightblue" d="M870.568,-56.324C881.42,-48.1849 897.881,-35.8395 910.883,-26.0874"/>
<polygon fill="midnightblue" stroke="midnightblue" points="913.321,-28.6339 919.221,-19.8339 909.121,-23.0339 913.321,-28.6339"/>
</g>
<!-- Node25&#45;&gt;Node2 -->
<g id="edge41" class="edge"><title>Node25&#45;&gt;Node2</title>
<path fill="none" stroke="midnightblue" d="M409.495,-168.075C405.087,-141.945 392.144,-65.2106 386.133,-29.577"/>
<polygon fill="midnightblue" stroke="midnightblue" points="389.56,-28.8467 384.445,-19.5681 382.657,-30.011 389.56,-28.8467"/>
</g>
<!-- Node25&#45;&gt;Node12 -->
<g id="edge42" class="edge"><title>Node25&#45;&gt;Node12</title>
<path fill="none" stroke="midnightblue" d="M419.917,-168.083C427.78,-160.22 439.431,-148.569 448.919,-139.081"/>
<polygon fill="midnightblue" stroke="midnightblue" points="451.653,-141.297 456.249,-131.751 446.703,-136.347 451.653,-141.297"/>
</g>
<!-- Node25&#45;&gt;Node13 -->
<g id="edge43" class="edge"><title>Node25&#45;&gt;Node13</title>
<path fill="none" stroke="midnightblue" d="M402.083,-168.083C394.22,-160.22 382.569,-148.569 373.081,-139.081"/>
<polygon fill="midnightblue" stroke="midnightblue" points="375.297,-136.347 365.751,-131.751 370.347,-141.297 375.297,-136.347"/>
</g>
<!-- Node26&#45;&gt;Node2 -->
<g id="edge45" class="edge"><title>Node26&#45;&gt;Node2</title>
<path fill="none" stroke="midnightblue" d="M515.16,-168.464C543.32,-157.752 582.173,-137.637 567,-112 536.609,-60.6497 469.817,-33.668 425.624,-20.8899"/>
<polygon fill="midnightblue" stroke="midnightblue" points="426.307,-17.4475 415.736,-18.1576 424.442,-24.1947 426.307,-17.4475"/>
</g>
<!-- Node26&#45;&gt;Node12 -->
<g id="edge46" class="edge"><title>Node26&#45;&gt;Node12</title>
<path fill="none" stroke="midnightblue" d="M485.037,-168.083C481.787,-160.77 477.081,-150.181 473.046,-141.103"/>
<polygon fill="midnightblue" stroke="midnightblue" points="476.149,-139.468 468.889,-131.751 469.752,-142.311 476.149,-139.468"/>
</g>
</g>
</svg>
