<?xml version="1.0" encoding="UTF-8" standalone="no"?>
<!DOCTYPE svg PUBLIC "-//W3C//DTD SVG 1.1//EN"
 "http://www.w3.org/Graphics/SVG/1.1/DTD/svg11.dtd">
<!-- Generated by graphviz version 2.38.0 (20140413.2041)
 -->
<!-- Title: C:/dev/Igor/src/Igor/src/iMaterialResourceFactory.h Pages: 1 -->
<svg width="4894pt" height="117pt"
 viewBox="0.00 0.00 4893.50 117.00" xmlns="http://www.w3.org/2000/svg" xmlns:xlink="http://www.w3.org/1999/xlink">
<g id="graph0" class="graph" transform="scale(1 1) rotate(0) translate(4 113)">
<title>C:/dev/Igor/src/Igor/src/iMaterialResourceFactory.h</title>
<polygon fill="white" stroke="none" points="-4,4 -4,-113 4889.5,-113 4889.5,4 -4,4"/>
<!-- Node1 -->
<g id="node1" class="node"><title>Node1</title>
<polygon fill="#bfbfbf" stroke="black" points="2150.5,-78.5 2150.5,-108.5 2305.5,-108.5 2305.5,-78.5 2150.5,-78.5"/>
<text text-anchor="start" x="2158.5" y="-96.5" font-family="Helvetica,sans-Serif" font-size="10.00">C:/dev/Igor/src/Igor</text>
<text text-anchor="middle" x="2228" y="-85.5" font-family="Helvetica,sans-Serif" font-size="10.00">/src/iMaterialResourceFactory.h</text>
</g>
<!-- Node2 -->
<g id="node2" class="node"><title>Node2</title>
<g id="a_node2"><a xlink:href="_igor_8cpp.html" target="_top" xlink:title="C:/dev/Igor/src/Igor\l/src/Igor.cpp">
<polygon fill="white" stroke="black" points="0,-6 0,-36 98,-36 98,-6 0,-6"/>
<text text-anchor="start" x="8" y="-24" font-family="Helvetica,sans-Serif" font-size="10.00">C:/dev/Igor/src/Igor</text>
<text text-anchor="middle" x="49" y="-13" font-family="Helvetica,sans-Serif" font-size="10.00">/src/Igor.cpp</text>
</a>
</g>
</g>
<!-- Node1&#45;&gt;Node2 -->
<g id="edge1" class="edge"><title>Node1&#45;&gt;Node2</title>
<path fill="none" stroke="midnightblue" d="M2140.05,-92.0021C1764.96,-89.662 308.856,-78.3007 107,-42 99.4521,-40.6426 91.5621,-38.4668 84.1193,-36.0402"/>
<polygon fill="midnightblue" stroke="midnightblue" points="2140.28,-95.5035 2150.3,-92.0655 2140.33,-88.5037 2140.28,-95.5035"/>
</g>
<!-- Node3 -->
<g id="node3" class="node"><title>Node3</title>
<g id="a_node3"><a xlink:href="i_material_group_8cpp.html" target="_top" xlink:title="C:/dev/Igor/src/Igor\l/src/iMaterialGroup.cpp">
<polygon fill="white" stroke="black" points="116,-6 116,-36 234,-36 234,-6 116,-6"/>
<text text-anchor="start" x="124" y="-24" font-family="Helvetica,sans-Serif" font-size="10.00">C:/dev/Igor/src/Igor</text>
<text text-anchor="middle" x="175" y="-13" font-family="Helvetica,sans-Serif" font-size="10.00">/src/iMaterialGroup.cpp</text>
</a>
</g>
</g>
<!-- Node1&#45;&gt;Node3 -->
<g id="edge2" class="edge"><title>Node1&#45;&gt;Node3</title>
<path fill="none" stroke="midnightblue" d="M2140.12,-91.612C1780.56,-87.7952 431.633,-71.6181 243,-42 234.247,-40.6257 225.039,-38.4424 216.324,-36.0139"/>
<polygon fill="midnightblue" stroke="midnightblue" points="2140.18,-95.1127 2150.21,-91.7187 2140.25,-88.1131 2140.18,-95.1127"/>
</g>
<!-- Node4 -->
<g id="node4" class="node"><title>Node4</title>
<g id="a_node4"><a xlink:href="i_material_resource_factory_8cpp.html" target="_top" xlink:title="C:/dev/Igor/src/Igor\l/src/iMaterialResourceFactory.cpp">
<polygon fill="white" stroke="black" points="252,-6 252,-36 418,-36 418,-6 252,-6"/>
<text text-anchor="start" x="260" y="-24" font-family="Helvetica,sans-Serif" font-size="10.00">C:/dev/Igor/src/Igor</text>
<text text-anchor="middle" x="335" y="-13" font-family="Helvetica,sans-Serif" font-size="10.00">/src/iMaterialResourceFactory.cpp</text>
</a>
</g>
</g>
<!-- Node1&#45;&gt;Node4 -->
<g id="edge3" class="edge"><title>Node1&#45;&gt;Node4</title>
<path fill="none" stroke="midnightblue" d="M2140.02,-92.1999C1826.46,-90.7919 764.339,-83.0344 427,-42 415.48,-40.5987 403.273,-38.4362 391.647,-36.0427"/>
<polygon fill="midnightblue" stroke="midnightblue" points="2140.4,-95.7014 2150.41,-92.2454 2140.43,-88.7015 2140.4,-95.7014"/>
</g>
<!-- Node5 -->
<g id="node5" class="node"><title>Node5</title>
<g id="a_node5"><a xlink:href="i_model_data_i_o_o_m_p_f_8cpp.html" target="_top" xlink:title="C:/dev/Igor/src/Igor\l/src/iModelDataIOOMPF.cpp">
<polygon fill="white" stroke="black" points="436,-6 436,-36 578,-36 578,-6 436,-6"/>
<text text-anchor="start" x="444" y="-24" font-family="Helvetica,sans-Serif" font-size="10.00">C:/dev/Igor/src/Igor</text>
<text text-anchor="middle" x="507" y="-13" font-family="Helvetica,sans-Serif" font-size="10.00">/src/iModelDataIOOMPF.cpp</text>
</a>
</g>
</g>
<!-- Node1&#45;&gt;Node5 -->
<g id="edge4" class="edge"><title>Node1&#45;&gt;Node5</title>
<path fill="none" stroke="midnightblue" d="M2139.89,-92.2746C1844.52,-91.1292 890.955,-84.1742 587,-42 576.932,-40.603 566.295,-38.4425 556.179,-36.0495"/>
<polygon fill="midnightblue" stroke="midnightblue" points="2140.1,-95.7753 2150.12,-92.3129 2140.13,-88.7753 2140.1,-95.7753"/>
</g>
<!-- Node6 -->
<g id="node6" class="node"><title>Node6</title>
<g id="a_node6"><a xlink:href="i_node_mesh_8cpp.html" target="_top" xlink:title="C:/dev/Igor/src/Igor\l/src/iNodeMesh.cpp">
<polygon fill="white" stroke="black" points="596,-6 596,-36 700,-36 700,-6 596,-6"/>
<text text-anchor="start" x="604" y="-24" font-family="Helvetica,sans-Serif" font-size="10.00">C:/dev/Igor/src/Igor</text>
<text text-anchor="middle" x="648" y="-13" font-family="Helvetica,sans-Serif" font-size="10.00">/src/iNodeMesh.cpp</text>
</a>
</g>
</g>
<!-- Node1&#45;&gt;Node6 -->
<g id="edge5" class="edge"><title>Node1&#45;&gt;Node6</title>
<path fill="none" stroke="midnightblue" d="M2140.16,-92.8403C1859.51,-93.4153 986.672,-91.103 709,-42 701.208,-40.6221 693.046,-38.4701 685.319,-36.0794"/>
<polygon fill="midnightblue" stroke="midnightblue" points="2140.3,-96.3401 2150.29,-92.8178 2140.28,-89.3401 2140.3,-96.3401"/>
</g>
<!-- Node7 -->
<g id="node7" class="node"><title>Node7</title>
<g id="a_node7"><a xlink:href="i_node_model_8cpp.html" target="_top" xlink:title="C:/dev/Igor/src/Igor\l/src/iNodeModel.cpp">
<polygon fill="white" stroke="black" points="718,-6 718,-36 824,-36 824,-6 718,-6"/>
<text text-anchor="start" x="726" y="-24" font-family="Helvetica,sans-Serif" font-size="10.00">C:/dev/Igor/src/Igor</text>
<text text-anchor="middle" x="771" y="-13" font-family="Helvetica,sans-Serif" font-size="10.00">/src/iNodeModel.cpp</text>
</a>
</g>
</g>
<!-- Node1&#45;&gt;Node7 -->
<g id="edge6" class="edge"><title>Node1&#45;&gt;Node7</title>
<path fill="none" stroke="midnightblue" d="M2139.73,-92.4786C1874.2,-91.9131 1085.61,-86.433 833,-42 825.091,-40.6089 816.8,-38.451 808.948,-36.0587"/>
<polygon fill="midnightblue" stroke="midnightblue" points="2140.08,-95.9792 2150.09,-92.4988 2140.09,-88.9793 2140.08,-95.9792"/>
</g>
<!-- Node8 -->
<g id="node8" class="node"><title>Node8</title>
<g id="a_node8"><a xlink:href="i_node_render_8cpp.html" target="_top" xlink:title="C:/dev/Igor/src/Igor\l/src/iNodeRender.cpp">
<polygon fill="white" stroke="black" points="842,-6 842,-36 952,-36 952,-6 842,-6"/>
<text text-anchor="start" x="850" y="-24" font-family="Helvetica,sans-Serif" font-size="10.00">C:/dev/Igor/src/Igor</text>
<text text-anchor="middle" x="897" y="-13" font-family="Helvetica,sans-Serif" font-size="10.00">/src/iNodeRender.cpp</text>
</a>
</g>
</g>
<!-- Node1&#45;&gt;Node8 -->
<g id="edge7" class="edge"><title>Node1&#45;&gt;Node8</title>
<path fill="none" stroke="midnightblue" d="M2140.17,-91.9981C1891.88,-90.1031 1188.19,-81.3168 961,-42 952.856,-40.5906 944.306,-38.4246 936.203,-36.0301"/>
<polygon fill="midnightblue" stroke="midnightblue" points="2140.2,-95.4984 2150.23,-92.073 2140.25,-88.4986 2140.2,-95.4984"/>
</g>
<!-- Node9 -->
<g id="node9" class="node"><title>Node9</title>
<g id="a_node9"><a xlink:href="i_node_sky_box_8cpp.html" target="_top" xlink:title="C:/dev/Igor/src/Igor\l/src/iNodeSkyBox.cpp">
<polygon fill="white" stroke="black" points="970,-6 970,-36 1084,-36 1084,-6 970,-6"/>
<text text-anchor="start" x="978" y="-24" font-family="Helvetica,sans-Serif" font-size="10.00">C:/dev/Igor/src/Igor</text>
<text text-anchor="middle" x="1027" y="-13" font-family="Helvetica,sans-Serif" font-size="10.00">/src/iNodeSkyBox.cpp</text>
</a>
</g>
</g>
<!-- Node1&#45;&gt;Node9 -->
<g id="edge8" class="edge"><title>Node1&#45;&gt;Node9</title>
<path fill="none" stroke="midnightblue" d="M2140.21,-91.4243C1910.2,-88.1528 1293.91,-76.3535 1093,-42 1084.74,-40.5875 1076.06,-38.452 1067.81,-36.0947"/>
<polygon fill="midnightblue" stroke="midnightblue" points="2140.17,-94.9238 2150.21,-91.5645 2140.26,-87.9245 2140.17,-94.9238"/>
</g>
<!-- Node10 -->
<g id="node10" class="node"><title>Node10</title>
<g id="a_node10"><a xlink:href="i_node_visitor_render_boundings_8cpp.html" target="_top" xlink:title="C:/dev/Igor/src/Igor\l/src/iNodeVisitorRenderBoundings.cpp">
<polygon fill="white" stroke="black" points="1102,-6 1102,-36 1286,-36 1286,-6 1102,-6"/>
<text text-anchor="start" x="1110" y="-24" font-family="Helvetica,sans-Serif" font-size="10.00">C:/dev/Igor/src/Igor</text>
<text text-anchor="middle" x="1194" y="-13" font-family="Helvetica,sans-Serif" font-size="10.00">/src/iNodeVisitorRenderBoundings.cpp</text>
</a>
</g>
</g>
<!-- Node1&#45;&gt;Node10 -->
<g id="edge9" class="edge"><title>Node1&#45;&gt;Node10</title>
<path fill="none" stroke="midnightblue" d="M2140.11,-91.8769C1974.25,-89.7861 1604,-80.7594 1295,-42 1282.85,-40.4761 1269.97,-38.3357 1257.62,-36.0179"/>
<polygon fill="midnightblue" stroke="midnightblue" points="2140.22,-95.3783 2150.26,-91.9993 2140.3,-88.3788 2140.22,-95.3783"/>
</g>
<!-- Node11 -->
<g id="node11" class="node"><title>Node11</title>
<g id="a_node11"><a xlink:href="i_node_visitor_render_color_i_d_8cpp.html" target="_top" xlink:title="C:/dev/Igor/src/Igor\l/src/iNodeVisitorRenderColor\lID.cpp">
<polygon fill="white" stroke="black" points="1304,-0.5 1304,-41.5 1446,-41.5 1446,-0.5 1304,-0.5"/>
<text text-anchor="start" x="1312" y="-29.5" font-family="Helvetica,sans-Serif" font-size="10.00">C:/dev/Igor/src/Igor</text>
<text text-anchor="start" x="1312" y="-18.5" font-family="Helvetica,sans-Serif" font-size="10.00">/src/iNodeVisitorRenderColor</text>
<text text-anchor="middle" x="1375" y="-7.5" font-family="Helvetica,sans-Serif" font-size="10.00">ID.cpp</text>
</a>
</g>
</g>
<!-- Node1&#45;&gt;Node11 -->
<g id="edge10" class="edge"><title>Node1&#45;&gt;Node11</title>
<path fill="none" stroke="midnightblue" d="M2140.32,-91.8858C1996.39,-89.7354 1701.38,-80.5248 1455,-42 1452.17,-41.5577 1449.3,-41.0624 1446.4,-40.5251"/>
<polygon fill="midnightblue" stroke="midnightblue" points="2140.37,-95.3868 2150.42,-92.0287 2140.47,-88.3875 2140.37,-95.3868"/>
</g>
<!-- Node12 -->
<g id="node12" class="node"><title>Node12</title>
<g id="a_node12"><a xlink:href="i_node_water_8cpp.html" target="_top" xlink:title="C:/dev/Igor/src/Igor\l/src/iNodeWater.cpp">
<polygon fill="white" stroke="black" points="1464,-6 1464,-36 1570,-36 1570,-6 1464,-6"/>
<text text-anchor="start" x="1472" y="-24" font-family="Helvetica,sans-Serif" font-size="10.00">C:/dev/Igor/src/Igor</text>
<text text-anchor="middle" x="1517" y="-13" font-family="Helvetica,sans-Serif" font-size="10.00">/src/iNodeWater.cpp</text>
</a>
</g>
</g>
<!-- Node1&#45;&gt;Node12 -->
<g id="edge11" class="edge"><title>Node1&#45;&gt;Node12</title>
<path fill="none" stroke="midnightblue" d="M2139.95,-92.1559C2014.31,-90.1991 1776.89,-81.0548 1579,-42 1571.34,-40.489 1563.31,-38.3396 1555.66,-36.0057"/>
<polygon fill="midnightblue" stroke="midnightblue" points="2140.23,-95.6602 2150.28,-92.3044 2140.33,-88.6609 2140.23,-95.6602"/>
</g>
<!-- Node13 -->
<g id="node13" class="node"><title>Node13</title>
<g id="a_node13"><a xlink:href="i_octree_8cpp.html" target="_top" xlink:title="C:/dev/Igor/src/Igor\l/src/iOctree.cpp">
<polygon fill="white" stroke="black" points="1588,-6 1588,-36 1686,-36 1686,-6 1588,-6"/>
<text text-anchor="start" x="1596" y="-24" font-family="Helvetica,sans-Serif" font-size="10.00">C:/dev/Igor/src/Igor</text>
<text text-anchor="middle" x="1637" y="-13" font-family="Helvetica,sans-Serif" font-size="10.00">/src/iOctree.cpp</text>
</a>
</g>
</g>
<!-- Node1&#45;&gt;Node13 -->
<g id="edge12" class="edge"><title>Node1&#45;&gt;Node13</title>
<path fill="none" stroke="midnightblue" d="M2140.28,-90.5554C2033.84,-86.7413 1849.45,-75.4465 1695,-42 1687.92,-40.4671 1680.51,-38.3373 1673.44,-36.0361"/>
<polygon fill="midnightblue" stroke="midnightblue" points="2140.21,-94.0553 2150.33,-90.9017 2140.46,-87.0595 2140.21,-94.0553"/>
</g>
<!-- Node14 -->
<g id="node14" class="node"><title>Node14</title>
<g id="a_node14"><a xlink:href="i_particle_system3_d_8cpp.html" target="_top" xlink:title="C:/dev/Igor/src/Igor\l/src/iParticleSystem3D.cpp">
<polygon fill="white" stroke="black" points="1704,-6 1704,-36 1840,-36 1840,-6 1704,-6"/>
<text text-anchor="start" x="1712" y="-24" font-family="Helvetica,sans-Serif" font-size="10.00">C:/dev/Igor/src/Igor</text>
<text text-anchor="middle" x="1772" y="-13" font-family="Helvetica,sans-Serif" font-size="10.00">/src/iParticleSystem3D.cpp</text>
</a>
</g>
</g>
<!-- Node1&#45;&gt;Node14 -->
<g id="edge13" class="edge"><title>Node1&#45;&gt;Node14</title>
<path fill="none" stroke="midnightblue" d="M2140.09,-83.8529C2062.96,-75.5377 1947.97,-61.3727 1849,-42 1840.33,-40.302 1831.18,-38.203 1822.33,-36.0096"/>
<polygon fill="midnightblue" stroke="midnightblue" points="2139.93,-87.3557 2150.25,-84.9375 2140.67,-80.3953 2139.93,-87.3557"/>
</g>
<!-- Node15 -->
<g id="node15" class="node"><title>Node15</title>
<g id="a_node15"><a xlink:href="i_render_engine_8cpp.html" target="_top" xlink:title="C:/dev/Igor/src/Igor\l/src/iRenderEngine.cpp">
<polygon fill="white" stroke="black" points="1858,-6 1858,-36 1976,-36 1976,-6 1858,-6"/>
<text text-anchor="start" x="1866" y="-24" font-family="Helvetica,sans-Serif" font-size="10.00">C:/dev/Igor/src/Igor</text>
<text text-anchor="middle" x="1917" y="-13" font-family="Helvetica,sans-Serif" font-size="10.00">/src/iRenderEngine.cpp</text>
</a>
</g>
</g>
<!-- Node1&#45;&gt;Node15 -->
<g id="edge14" class="edge"><title>Node1&#45;&gt;Node15</title>
<path fill="none" stroke="midnightblue" d="M2142.57,-76.5064C2095.81,-67.3125 2036.98,-55.0237 1985,-42 1977.84,-40.2057 1970.3,-38.1539 1962.95,-36.0637"/>
<polygon fill="midnightblue" stroke="midnightblue" points="2142.17,-79.995 2152.66,-78.4793 2143.51,-73.1251 2142.17,-79.995"/>
</g>
<!-- Node16 -->
<g id="node16" class="node"><title>Node16</title>
<g id="a_node16"><a xlink:href="i_renderer_8cpp.html" target="_top" xlink:title="C:/dev/Igor/src/Igor\l/src/iRenderer.cpp">
<polygon fill="white" stroke="black" points="1994,-6 1994,-36 2092,-36 2092,-6 1994,-6"/>
<text text-anchor="start" x="2002" y="-24" font-family="Helvetica,sans-Serif" font-size="10.00">C:/dev/Igor/src/Igor</text>
<text text-anchor="middle" x="2043" y="-13" font-family="Helvetica,sans-Serif" font-size="10.00">/src/iRenderer.cpp</text>
</a>
</g>
</g>
<!-- Node1&#45;&gt;Node16 -->
<g id="edge15" class="edge"><title>Node1&#45;&gt;Node16</title>
<path fill="none" stroke="midnightblue" d="M2181.58,-74.8098C2150.14,-62.8275 2109.15,-47.2096 2079.93,-36.0729"/>
<polygon fill="midnightblue" stroke="midnightblue" points="2180.42,-78.1122 2191.01,-78.4027 2182.91,-71.5711 2180.42,-78.1122"/>
</g>
<!-- Node17 -->
<g id="node17" class="node"><title>Node17</title>
<g id="a_node17"><a xlink:href="i_statistics_8cpp.html" target="_top" xlink:title="C:/dev/Igor/src/Igor\l/src/iStatistics.cpp">
<polygon fill="white" stroke="black" points="2110,-6 2110,-36 2208,-36 2208,-6 2110,-6"/>
<text text-anchor="start" x="2118" y="-24" font-family="Helvetica,sans-Serif" font-size="10.00">C:/dev/Igor/src/Igor</text>
<text text-anchor="middle" x="2159" y="-13" font-family="Helvetica,sans-Serif" font-size="10.00">/src/iStatistics.cpp</text>
</a>
</g>
</g>
<!-- Node1&#45;&gt;Node17 -->
<g id="edge16" class="edge"><title>Node1&#45;&gt;Node17</title>
<path fill="none" stroke="midnightblue" d="M2206.82,-70.8641C2195.81,-59.6142 2182.66,-46.1786 2172.94,-36.2455"/>
<polygon fill="midnightblue" stroke="midnightblue" points="2204.54,-73.5347 2214.04,-78.2333 2209.54,-68.6384 2204.54,-73.5347"/>
</g>
<!-- Node18 -->
<g id="node18" class="node"><title>Node18</title>
<g id="a_node18"><a xlink:href="i_statistics_visualizer_8cpp.html" target="_top" xlink:title="C:/dev/Igor/src/Igor\l/src/iStatisticsVisualizer.cpp">
<polygon fill="white" stroke="black" points="2226.5,-6 2226.5,-36 2367.5,-36 2367.5,-6 2226.5,-6"/>
<text text-anchor="start" x="2234.5" y="-24" font-family="Helvetica,sans-Serif" font-size="10.00">C:/dev/Igor/src/Igor</text>
<text text-anchor="middle" x="2297" y="-13" font-family="Helvetica,sans-Serif" font-size="10.00">/src/iStatisticsVisualizer.cpp</text>
</a>
</g>
</g>
<!-- Node1&#45;&gt;Node18 -->
<g id="edge17" class="edge"><title>Node1&#45;&gt;Node18</title>
<path fill="none" stroke="midnightblue" d="M2249.18,-70.8641C2260.19,-59.6142 2273.34,-46.1786 2283.06,-36.2455"/>
<polygon fill="midnightblue" stroke="midnightblue" points="2246.46,-68.6384 2241.96,-78.2333 2251.46,-73.5347 2246.46,-68.6384"/>
</g>
<!-- Node19 -->
<g id="node19" class="node"><title>Node19</title>
<g id="a_node19"><a xlink:href="i_voxel_terrain_8cpp.html" target="_top" xlink:title="C:/dev/Igor/src/Igor\l/src/iVoxelTerrain.cpp">
<polygon fill="white" stroke="black" points="2385.5,-6 2385.5,-36 2496.5,-36 2496.5,-6 2385.5,-6"/>
<text text-anchor="start" x="2393.5" y="-24" font-family="Helvetica,sans-Serif" font-size="10.00">C:/dev/Igor/src/Igor</text>
<text text-anchor="middle" x="2441" y="-13" font-family="Helvetica,sans-Serif" font-size="10.00">/src/iVoxelTerrain.cpp</text>
</a>
</g>
</g>
<!-- Node1&#45;&gt;Node19 -->
<g id="edge18" class="edge"><title>Node1&#45;&gt;Node19</title>
<path fill="none" stroke="midnightblue" d="M2280.25,-75.2046C2316.57,-63.1843 2364.37,-47.3642 2398.38,-36.1069"/>
<polygon fill="midnightblue" stroke="midnightblue" points="2278.73,-72.0222 2270.34,-78.4872 2280.93,-78.6676 2278.73,-72.0222"/>
</g>
<!-- Node20 -->
<g id="node20" class="node"><title>Node20</title>
<g id="a_node20"><a xlink:href="i_voxel_terrain_mesh_generator_8cpp.html" target="_top" xlink:title="C:/dev/Igor/src/Igor\l/src/iVoxelTerrainMeshGenerator.cpp">
<polygon fill="white" stroke="black" points="2515,-6 2515,-36 2693,-36 2693,-6 2515,-6"/>
<text text-anchor="start" x="2523" y="-24" font-family="Helvetica,sans-Serif" font-size="10.00">C:/dev/Igor/src/Igor</text>
<text text-anchor="middle" x="2604" y="-13" font-family="Helvetica,sans-Serif" font-size="10.00">/src/iVoxelTerrainMeshGenerator.cpp</text>
</a>
</g>
</g>
<!-- Node1&#45;&gt;Node20 -->
<g id="edge19" class="edge"><title>Node1&#45;&gt;Node20</title>
<path fill="none" stroke="midnightblue" d="M2315.7,-77.0703C2370.46,-67.3106 2442.4,-54.264 2506,-42 2515.8,-40.1094 2526.15,-38.059 2536.29,-36.0161"/>
<polygon fill="midnightblue" stroke="midnightblue" points="2314.91,-73.6555 2305.68,-78.8535 2316.13,-80.5472 2314.91,-73.6555"/>
</g>
<!-- Node21 -->
<g id="node21" class="node"><title>Node21</title>
<g id="a_node21"><a xlink:href="i_widget_default_theme_8cpp.html" target="_top" xlink:title="C:/dev/Igor/src/Igor\l/src/iWidgetDefaultTheme.cpp">
<polygon fill="white" stroke="black" points="2711.5,-6 2711.5,-36 2858.5,-36 2858.5,-6 2711.5,-6"/>
<text text-anchor="start" x="2719.5" y="-24" font-family="Helvetica,sans-Serif" font-size="10.00">C:/dev/Igor/src/Igor</text>
<text text-anchor="middle" x="2785" y="-13" font-family="Helvetica,sans-Serif" font-size="10.00">/src/iWidgetDefaultTheme.cpp</text>
</a>
</g>
</g>
<!-- Node1&#45;&gt;Node21 -->
<g id="edge20" class="edge"><title>Node1&#45;&gt;Node21</title>
<path fill="none" stroke="midnightblue" d="M2315.79,-86.5884C2411.3,-79.3578 2568.25,-65.1387 2702,-42 2711.49,-40.3577 2721.52,-38.26 2731.19,-36.0441"/>
<polygon fill="midnightblue" stroke="midnightblue" points="2315.31,-83.1145 2305.6,-87.351 2315.84,-90.095 2315.31,-83.1145"/>
</g>
<!-- Node22 -->
<g id="node22" class="node"><title>Node22</title>
<g id="a_node22"><a xlink:href="i_widget_graph_8cpp.html" target="_top" xlink:title="C:/dev/Igor/src/Igor\l/src/iWidgetGraph.cpp">
<polygon fill="white" stroke="black" points="2877,-6 2877,-36 2991,-36 2991,-6 2877,-6"/>
<text text-anchor="start" x="2885" y="-24" font-family="Helvetica,sans-Serif" font-size="10.00">C:/dev/Igor/src/Igor</text>
<text text-anchor="middle" x="2934" y="-13" font-family="Helvetica,sans-Serif" font-size="10.00">/src/iWidgetGraph.cpp</text>
</a>
</g>
</g>
<!-- Node1&#45;&gt;Node22 -->
<g id="edge21" class="edge"><title>Node1&#45;&gt;Node22</title>
<path fill="none" stroke="midnightblue" d="M2315.75,-91.5367C2439.8,-88.8295 2673.05,-78.7831 2868,-42 2876,-40.4905 2884.41,-38.3718 2892.44,-36.074"/>
<polygon fill="midnightblue" stroke="midnightblue" points="2315.48,-88.0415 2305.55,-91.748 2315.62,-95.04 2315.48,-88.0415"/>
</g>
<!-- Node23 -->
<g id="node23" class="node"><title>Node23</title>
<g id="a_node23"><a xlink:href="i_widget_manager_8cpp.html" target="_top" xlink:title="C:/dev/Igor/src/Igor\l/src/iWidgetManager.cpp">
<polygon fill="white" stroke="black" points="3009.5,-6 3009.5,-36 3134.5,-36 3134.5,-6 3009.5,-6"/>
<text text-anchor="start" x="3017.5" y="-24" font-family="Helvetica,sans-Serif" font-size="10.00">C:/dev/Igor/src/Igor</text>
<text text-anchor="middle" x="3072" y="-13" font-family="Helvetica,sans-Serif" font-size="10.00">/src/iWidgetManager.cpp</text>
</a>
</g>
</g>
<!-- Node1&#45;&gt;Node23 -->
<g id="edge22" class="edge"><title>Node1&#45;&gt;Node23</title>
<path fill="none" stroke="midnightblue" d="M2315.69,-92.6045C2459.6,-91.4734 2754.46,-83.6771 3000,-42 3008.83,-40.502 3018.12,-38.3586 3027,-36.0265"/>
<polygon fill="midnightblue" stroke="midnightblue" points="2315.56,-89.1052 2305.59,-92.6748 2315.61,-96.105 2315.56,-89.1052"/>
</g>
<!-- Node24 -->
<g id="node24" class="node"><title>Node24</title>
<g id="a_node24"><a xlink:href="i_widget_scroll_8cpp.html" target="_top" xlink:title="C:/dev/Igor/src/Igor\l/src/iWidgetScroll.cpp">
<polygon fill="white" stroke="black" points="3152.5,-6 3152.5,-36 3265.5,-36 3265.5,-6 3152.5,-6"/>
<text text-anchor="start" x="3160.5" y="-24" font-family="Helvetica,sans-Serif" font-size="10.00">C:/dev/Igor/src/Igor</text>
<text text-anchor="middle" x="3209" y="-13" font-family="Helvetica,sans-Serif" font-size="10.00">/src/iWidgetScroll.cpp</text>
</a>
</g>
</g>
<!-- Node1&#45;&gt;Node24 -->
<g id="edge23" class="edge"><title>Node1&#45;&gt;Node24</title>
<path fill="none" stroke="midnightblue" d="M2315.56,-90.3881C2512.74,-85.1915 2986.62,-70.1167 3144,-42 3152.14,-40.5465 3160.68,-38.3925 3168.81,-36.0298"/>
<polygon fill="midnightblue" stroke="midnightblue" points="2315.44,-86.8901 2305.53,-90.6502 2315.62,-93.8877 2315.44,-86.8901"/>
</g>
<!-- Node25 -->
<g id="node25" class="node"><title>Node25</title>
<g id="a_node25"><a xlink:href="_manipulator_8cpp.html" target="_top" xlink:title="C:/dev/Igor/src/Tools\l/ModelViewer/src/Manipulator.cpp">
<polygon fill="white" stroke="black" points="3284,-6 3284,-36 3448,-36 3448,-6 3284,-6"/>
<text text-anchor="start" x="3292" y="-24" font-family="Helvetica,sans-Serif" font-size="10.00">C:/dev/Igor/src/Tools</text>
<text text-anchor="middle" x="3366" y="-13" font-family="Helvetica,sans-Serif" font-size="10.00">/ModelViewer/src/Manipulator.cpp</text>
</a>
</g>
</g>
<!-- Node1&#45;&gt;Node25 -->
<g id="edge24" class="edge"><title>Node1&#45;&gt;Node25</title>
<path fill="none" stroke="midnightblue" d="M2315.8,-93.2314C2496.3,-93.6441 2921.75,-88.9983 3275,-42 3286.06,-40.528 3297.77,-38.3966 3308.98,-36.0681"/>
<polygon fill="midnightblue" stroke="midnightblue" points="2315.58,-89.7308 2305.57,-93.2019 2315.56,-96.7308 2315.58,-89.7308"/>
</g>
<!-- Node26 -->
<g id="node26" class="node"><title>Node26</title>
<g id="a_node26"><a xlink:href="_model_viewer_8cpp.html" target="_top" xlink:title="C:/dev/Igor/src/Tools\l/ModelViewer/src/ModelViewer.cpp">
<polygon fill="white" stroke="black" points="3466.5,-6 3466.5,-36 3635.5,-36 3635.5,-6 3466.5,-6"/>
<text text-anchor="start" x="3474.5" y="-24" font-family="Helvetica,sans-Serif" font-size="10.00">C:/dev/Igor/src/Tools</text>
<text text-anchor="middle" x="3551" y="-13" font-family="Helvetica,sans-Serif" font-size="10.00">/ModelViewer/src/ModelViewer.cpp</text>
</a>
</g>
</g>
<!-- Node1&#45;&gt;Node26 -->
<g id="edge25" class="edge"><title>Node1&#45;&gt;Node26</title>
<path fill="none" stroke="midnightblue" d="M2315.97,-90.8133C2558.96,-85.8469 3235.99,-69.8508 3457,-42 3468.59,-40.5398 3480.87,-38.3828 3492.59,-36.0192"/>
<polygon fill="midnightblue" stroke="midnightblue" points="2315.7,-87.318 2305.77,-91.0205 2315.84,-94.3166 2315.7,-87.318"/>
</g>
<!-- Node27 -->
<g id="node27" class="node"><title>Node27</title>
<g id="a_node27"><a xlink:href="_user_control_material_8cpp.html" target="_top" xlink:title="C:/dev/Igor/src/Tools\l/ModelViewer/src/UserControl\lMaterial.cpp">
<polygon fill="white" stroke="black" points="3654,-0.5 3654,-41.5 3800,-41.5 3800,-0.5 3654,-0.5"/>
<text text-anchor="start" x="3662" y="-29.5" font-family="Helvetica,sans-Serif" font-size="10.00">C:/dev/Igor/src/Tools</text>
<text text-anchor="start" x="3662" y="-18.5" font-family="Helvetica,sans-Serif" font-size="10.00">/ModelViewer/src/UserControl</text>
<text text-anchor="middle" x="3727" y="-7.5" font-family="Helvetica,sans-Serif" font-size="10.00">Material.cpp</text>
</a>
</g>
</g>
<!-- Node1&#45;&gt;Node27 -->
<g id="edge26" class="edge"><title>Node1&#45;&gt;Node27</title>
<path fill="none" stroke="midnightblue" d="M2315.73,-91.7111C2583.27,-88.9358 3386.35,-77.7714 3645,-42 3647.9,-41.5985 3650.85,-41.1377 3653.82,-40.6292"/>
<polygon fill="midnightblue" stroke="midnightblue" points="2315.64,-88.2117 2305.67,-91.814 2315.71,-95.2114 2315.64,-88.2117"/>
</g>
<!-- Node28 -->
<g id="node28" class="node"><title>Node28</title>
<g id="a_node28"><a xlink:href="_user_control_material_view_8cpp.html" target="_top" xlink:title="C:/dev/Igor/src/Tools\l/ModelViewer/src/UserControl\lMaterialView.cpp">
<polygon fill="white" stroke="black" points="3818,-0.5 3818,-41.5 3964,-41.5 3964,-0.5 3818,-0.5"/>
<text text-anchor="start" x="3826" y="-29.5" font-family="Helvetica,sans-Serif" font-size="10.00">C:/dev/Igor/src/Tools</text>
<text text-anchor="start" x="3826" y="-18.5" font-family="Helvetica,sans-Serif" font-size="10.00">/ModelViewer/src/UserControl</text>
<text text-anchor="middle" x="3891" y="-7.5" font-family="Helvetica,sans-Serif" font-size="10.00">MaterialView.cpp</text>
</a>
</g>
</g>
<!-- Node1&#45;&gt;Node28 -->
<g id="edge27" class="edge"><title>Node1&#45;&gt;Node28</title>
<path fill="none" stroke="midnightblue" d="M2316.27,-92.0869C2604.64,-90.3593 3517.21,-81.8057 3809,-42 3811.9,-41.6039 3814.85,-41.1476 3817.83,-40.6429"/>
<polygon fill="midnightblue" stroke="midnightblue" points="2315.84,-88.5892 2305.87,-92.1479 2315.89,-95.5891 2315.84,-88.5892"/>
</g>
<!-- Node29 -->
<g id="node29" class="node"><title>Node29</title>
<g id="a_node29"><a xlink:href="_user_control_mesh_8cpp.html" target="_top" xlink:title="C:/dev/Igor/src/Tools\l/ModelViewer/src/UserControl\lMesh.cpp">
<polygon fill="white" stroke="black" points="3982,-0.5 3982,-41.5 4128,-41.5 4128,-0.5 3982,-0.5"/>
<text text-anchor="start" x="3990" y="-29.5" font-family="Helvetica,sans-Serif" font-size="10.00">C:/dev/Igor/src/Tools</text>
<text text-anchor="start" x="3990" y="-18.5" font-family="Helvetica,sans-Serif" font-size="10.00">/ModelViewer/src/UserControl</text>
<text text-anchor="middle" x="4055" y="-7.5" font-family="Helvetica,sans-Serif" font-size="10.00">Mesh.cpp</text>
</a>
</g>
</g>
<!-- Node1&#45;&gt;Node29 -->
<g id="edge28" class="edge"><title>Node1&#45;&gt;Node29</title>
<path fill="none" stroke="midnightblue" d="M2315.89,-92.3983C2623.06,-91.6614 3647.62,-85.8914 3973,-42 3975.9,-41.6082 3978.86,-41.1556 3981.83,-40.654"/>
<polygon fill="midnightblue" stroke="midnightblue" points="2315.7,-88.8987 2305.7,-92.4215 2315.71,-95.8986 2315.7,-88.8987"/>
</g>
<!-- Node30 -->
<g id="node30" class="node"><title>Node30</title>
<g id="a_node30"><a xlink:href="_user_control_particle_system_8cpp.html" target="_top" xlink:title="C:/dev/Igor/src/Tools\l/ModelViewer/src/UserControl\lParticleSystem.cpp">
<polygon fill="white" stroke="black" points="4146,-0.5 4146,-41.5 4292,-41.5 4292,-0.5 4146,-0.5"/>
<text text-anchor="start" x="4154" y="-29.5" font-family="Helvetica,sans-Serif" font-size="10.00">C:/dev/Igor/src/Tools</text>
<text text-anchor="start" x="4154" y="-18.5" font-family="Helvetica,sans-Serif" font-size="10.00">/ModelViewer/src/UserControl</text>
<text text-anchor="middle" x="4219" y="-7.5" font-family="Helvetica,sans-Serif" font-size="10.00">ParticleSystem.cpp</text>
</a>
</g>
</g>
<!-- Node1&#45;&gt;Node30 -->
<g id="edge29" class="edge"><title>Node1&#45;&gt;Node30</title>
<path fill="none" stroke="midnightblue" d="M2316.04,-92.655C2641.75,-92.842 3778.08,-89.961 4137,-42 4139.9,-41.6118 4142.86,-41.1622 4145.83,-40.6632"/>
<polygon fill="midnightblue" stroke="midnightblue" points="2315.72,-89.1549 2305.72,-92.6479 2315.72,-96.1549 2315.72,-89.1549"/>
</g>
<!-- Node31 -->
<g id="node31" class="node"><title>Node31</title>
<g id="a_node31"><a xlink:href="_widget3_d_emitter_8cpp.html" target="_top" xlink:title="C:/dev/Igor/src/Tools\l/ModelViewer/src/Widget3DEmitter.cpp">
<polygon fill="white" stroke="black" points="4310,-6 4310,-36 4498,-36 4498,-6 4310,-6"/>
<text text-anchor="start" x="4318" y="-24" font-family="Helvetica,sans-Serif" font-size="10.00">C:/dev/Igor/src/Tools</text>
<text text-anchor="middle" x="4404" y="-13" font-family="Helvetica,sans-Serif" font-size="10.00">/ModelViewer/src/Widget3DEmitter.cpp</text>
</a>
</g>
</g>
<!-- Node1&#45;&gt;Node31 -->
<g id="edge30" class="edge"><title>Node1&#45;&gt;Node31</title>
<path fill="none" stroke="midnightblue" d="M2315.69,-92.3201C2658.32,-91.314 3907.15,-84.7305 4301,-42 4313.95,-40.5952 4327.7,-38.4149 4340.79,-36.002"/>
<polygon fill="midnightblue" stroke="midnightblue" points="2315.57,-88.8204 2305.58,-92.349 2315.59,-95.8203 2315.57,-88.8204"/>
</g>
<!-- Node32 -->
<g id="node32" class="node"><title>Node32</title>
<g id="a_node32"><a xlink:href="_widget3_d_locator_8cpp.html" target="_top" xlink:title="C:/dev/Igor/src/Tools\l/ModelViewer/src/Widget3DLocator.cpp">
<polygon fill="white" stroke="black" points="4516,-6 4516,-36 4704,-36 4704,-6 4516,-6"/>
<text text-anchor="start" x="4524" y="-24" font-family="Helvetica,sans-Serif" font-size="10.00">C:/dev/Igor/src/Tools</text>
<text text-anchor="middle" x="4610" y="-13" font-family="Helvetica,sans-Serif" font-size="10.00">/ModelViewer/src/Widget3DLocator.cpp</text>
</a>
</g>
</g>
<!-- Node1&#45;&gt;Node32 -->
<g id="edge31" class="edge"><title>Node1&#45;&gt;Node32</title>
<path fill="none" stroke="midnightblue" d="M2315.76,-92.5459C2679.58,-92.4288 4070.6,-88.8609 4507,-42 4519.95,-40.6094 4533.7,-38.4355 4546.8,-36.0242"/>
<polygon fill="midnightblue" stroke="midnightblue" points="2315.56,-89.0459 2305.56,-92.5484 2315.56,-96.0459 2315.56,-89.0459"/>
</g>
<!-- Node33 -->
<g id="node33" class="node"><title>Node33</title>
<g id="a_node33"><a xlink:href="_o_b_j2_o_m_p_f_8cpp.html" target="_top" xlink:title="C:/dev/Igor/src/Tools\l/OBJ2OMPF/src/OBJ2OMPF.cpp">
<polygon fill="white" stroke="black" points="4722.5,-6 4722.5,-36 4885.5,-36 4885.5,-6 4722.5,-6"/>
<text text-anchor="start" x="4730.5" y="-24" font-family="Helvetica,sans-Serif" font-size="10.00">C:/dev/Igor/src/Tools</text>
<text text-anchor="middle" x="4804" y="-13" font-family="Helvetica,sans-Serif" font-size="10.00">/OBJ2OMPF/src/OBJ2OMPF.cpp</text>
</a>
</g>
</g>
<!-- Node1&#45;&gt;Node33 -->
<g id="edge32" class="edge"><title>Node1&#45;&gt;Node33</title>
<path fill="none" stroke="midnightblue" d="M2315.88,-91.7365C2729.4,-88.0057 4471.58,-70.7011 4713,-42 4724.57,-40.6251 4736.82,-38.4415 4748.47,-36.013"/>
<polygon fill="midnightblue" stroke="midnightblue" points="2315.74,-88.2375 2305.77,-91.8273 2315.81,-95.2372 2315.74,-88.2375"/>
</g>
</g>
</svg>
