<?xml version="1.0" encoding="UTF-8" standalone="no"?>
<!DOCTYPE svg PUBLIC "-//W3C//DTD SVG 1.1//EN"
 "http://www.w3.org/Graphics/SVG/1.1/DTD/svg11.dtd">
<!-- Generated by graphviz version 2.38.0 (20140413.2041)
 -->
<!-- Title: C:/dev/Igor/Igor/src/Igor/src/iMaterialGroup.h Pages: 1 -->
<svg width="700pt" height="407pt"
 viewBox="0.00 0.00 700.20 407.00" xmlns="http://www.w3.org/2000/svg" xmlns:xlink="http://www.w3.org/1999/xlink">
<g id="graph0" class="graph" transform="scale(1 1) rotate(0) translate(4 403)">
<title>C:/dev/Igor/Igor/src/Igor/src/iMaterialGroup.h</title>
<polygon fill="white" stroke="none" points="-4,4 -4,-403 696.196,-403 696.196,4 -4,4"/>
<!-- Node20 -->
<g id="node1" class="node"><title>Node20</title>
<g id="a_node1"><a xlink:title=" ">
<polygon fill="#bfbfbf" stroke="black" points="164,-368.5 164,-398.5 290,-398.5 290,-368.5 164,-368.5"/>
<text text-anchor="start" x="172" y="-386.5" font-family="Helvetica,sans-Serif" font-size="10.00">C:/dev/Igor/Igor/src</text>
<text text-anchor="middle" x="227" y="-375.5" font-family="Helvetica,sans-Serif" font-size="10.00">/Igor/src/iMaterialGroup.h</text>
</a>
</g>
</g>
<!-- Node21 -->
<g id="node2" class="node"><title>Node21</title>
<g id="a_node2"><a xlink:href="i_material_group_8cpp.html" target="_top" xlink:title=" ">
<polygon fill="white" stroke="black" points="61.5,-301.5 61.5,-331.5 198.5,-331.5 198.5,-301.5 61.5,-301.5"/>
<text text-anchor="start" x="69.5" y="-319.5" font-family="Helvetica,sans-Serif" font-size="10.00">C:/dev/Igor/Igor/src</text>
<text text-anchor="middle" x="130" y="-308.5" font-family="Helvetica,sans-Serif" font-size="10.00">/Igor/src/iMaterialGroup.cpp</text>
</a>
</g>
</g>
<!-- Node20&#45;&gt;Node21 -->
<g id="edge1" class="edge"><title>Node20&#45;&gt;Node21</title>
<path fill="none" stroke="midnightblue" d="M197.503,-362.734C182.493,-352.676 164.599,-340.685 151.006,-331.577"/>
<polygon fill="midnightblue" stroke="midnightblue" points="195.697,-365.737 205.952,-368.396 199.594,-359.922 195.697,-365.737"/>
</g>
<!-- Node22 -->
<g id="node3" class="node"><title>Node22</title>
<g id="a_node3"><a xlink:href="i_render_engine_8cpp.html" target="_top" xlink:title=" ">
<polygon fill="white" stroke="black" points="136.5,-234.5 136.5,-264.5 273.5,-264.5 273.5,-234.5 136.5,-234.5"/>
<text text-anchor="start" x="144.5" y="-252.5" font-family="Helvetica,sans-Serif" font-size="10.00">C:/dev/Igor/Igor/src</text>
<text text-anchor="middle" x="205" y="-241.5" font-family="Helvetica,sans-Serif" font-size="10.00">/Igor/src/iRenderEngine.cpp</text>
</a>
</g>
</g>
<!-- Node20&#45;&gt;Node22 -->
<g id="edge2" class="edge"><title>Node20&#45;&gt;Node22</title>
<path fill="none" stroke="midnightblue" d="M222.982,-358.39C218.4,-330.901 211.065,-286.888 207.337,-264.525"/>
<polygon fill="midnightblue" stroke="midnightblue" points="219.549,-359.085 224.646,-368.374 226.454,-357.934 219.549,-359.085"/>
</g>
<!-- Node23 -->
<g id="node4" class="node"><title>Node23</title>
<g id="a_node4"><a xlink:href="i_render_engine_8h.html" target="_top" xlink:title=" ">
<polygon fill="white" stroke="black" points="266,-301.5 266,-331.5 392,-331.5 392,-301.5 266,-301.5"/>
<text text-anchor="start" x="274" y="-319.5" font-family="Helvetica,sans-Serif" font-size="10.00">C:/dev/Igor/Igor/src</text>
<text text-anchor="middle" x="329" y="-308.5" font-family="Helvetica,sans-Serif" font-size="10.00">/Igor/src/iRenderEngine.h</text>
</a>
</g>
</g>
<!-- Node20&#45;&gt;Node23 -->
<g id="edge3" class="edge"><title>Node20&#45;&gt;Node23</title>
<path fill="none" stroke="midnightblue" d="M257.576,-363.015C273.449,-352.9 292.484,-340.77 306.911,-331.577"/>
<polygon fill="midnightblue" stroke="midnightblue" points="255.685,-360.07 249.132,-368.396 259.447,-365.973 255.685,-360.07"/>
</g>
<!-- Node23&#45;&gt;Node22 -->
<g id="edge4" class="edge"><title>Node23&#45;&gt;Node22</title>
<path fill="none" stroke="midnightblue" d="M293.163,-296.714C273.606,-286.463 249.798,-273.983 231.854,-264.577"/>
<polygon fill="midnightblue" stroke="midnightblue" points="291.612,-299.853 302.094,-301.396 294.862,-293.653 291.612,-299.853"/>
</g>
<!-- Node24 -->
<g id="node5" class="node"><title>Node24</title>
<g id="a_node5"><a xlink:href="i_view_8h.html" target="_top" xlink:title=" ">
<polygon fill="white" stroke="black" points="292,-234.5 292,-264.5 390,-264.5 390,-234.5 292,-234.5"/>
<text text-anchor="start" x="300" y="-252.5" font-family="Helvetica,sans-Serif" font-size="10.00">C:/dev/Igor/Igor/src</text>
<text text-anchor="middle" x="341" y="-241.5" font-family="Helvetica,sans-Serif" font-size="10.00">/Igor/src/iView.h</text>
</a>
</g>
</g>
<!-- Node23&#45;&gt;Node24 -->
<g id="edge5" class="edge"><title>Node23&#45;&gt;Node24</title>
<path fill="none" stroke="midnightblue" d="M333.449,-291.403C335.116,-282.37 336.955,-272.408 338.401,-264.577"/>
<polygon fill="midnightblue" stroke="midnightblue" points="329.978,-290.927 331.604,-301.396 336.861,-292.198 329.978,-290.927"/>
</g>
<!-- Node30 -->
<g id="node11" class="node"><title>Node30</title>
<g id="a_node11"><a xlink:href="_model_viewer_8cpp.html" target="_top" xlink:title=" ">
<polygon fill="white" stroke="black" points="508,-0.5 508,-41.5 626,-41.5 626,-0.5 508,-0.5"/>
<text text-anchor="start" x="516" y="-29.5" font-family="Helvetica,sans-Serif" font-size="10.00">C:/dev/Igor/Igor/src</text>
<text text-anchor="start" x="516" y="-18.5" font-family="Helvetica,sans-Serif" font-size="10.00">/Tools/ModelViewer/src</text>
<text text-anchor="middle" x="567" y="-7.5" font-family="Helvetica,sans-Serif" font-size="10.00">/ModelViewer.cpp</text>
</a>
</g>
</g>
<!-- Node23&#45;&gt;Node30 -->
<g id="edge16" class="edge"><title>Node23&#45;&gt;Node30</title>
<path fill="none" stroke="midnightblue" d="M402.412,-314.547C485.544,-309.043 617.644,-285.941 681,-198 720.688,-142.911 642.045,-74.6793 596.42,-41.6916"/>
<polygon fill="midnightblue" stroke="midnightblue" points="402.049,-311.062 392.274,-315.147 402.463,-318.05 402.049,-311.062"/>
</g>
<!-- Node25 -->
<g id="node6" class="node"><title>Node25</title>
<g id="a_node6"><a xlink:href="i_view_8cpp.html" target="_top" xlink:title=" ">
<polygon fill="white" stroke="black" points="0,-162 0,-192 98,-192 98,-162 0,-162"/>
<text text-anchor="start" x="8" y="-180" font-family="Helvetica,sans-Serif" font-size="10.00">C:/dev/Igor/Igor/src</text>
<text text-anchor="middle" x="49" y="-169" font-family="Helvetica,sans-Serif" font-size="10.00">/Igor/src/iView.cpp</text>
</a>
</g>
</g>
<!-- Node24&#45;&gt;Node25 -->
<g id="edge6" class="edge"><title>Node24&#45;&gt;Node25</title>
<path fill="none" stroke="midnightblue" d="M282.299,-234.068C282.199,-234.045 282.1,-234.022 282,-234 204.541,-216.521 183.583,-218.987 107,-198 100.631,-196.255 93.945,-194.182 87.4692,-192.042"/>
<polygon fill="midnightblue" stroke="midnightblue" points="281.247,-237.417 291.778,-236.254 282.821,-230.596 281.247,-237.417"/>
</g>
<!-- Node26 -->
<g id="node7" class="node"><title>Node26</title>
<g id="a_node7"><a xlink:href="i_window_8cpp.html" target="_top" xlink:title=" ">
<polygon fill="white" stroke="black" points="116,-162 116,-192 226,-192 226,-162 116,-162"/>
<text text-anchor="start" x="124" y="-180" font-family="Helvetica,sans-Serif" font-size="10.00">C:/dev/Igor/Igor/src</text>
<text text-anchor="middle" x="171" y="-169" font-family="Helvetica,sans-Serif" font-size="10.00">/Igor/src/iWindow.cpp</text>
</a>
</g>
</g>
<!-- Node24&#45;&gt;Node26 -->
<g id="edge7" class="edge"><title>Node24&#45;&gt;Node26</title>
<path fill="none" stroke="midnightblue" d="M297.594,-230.499C268.801,-218.559 231.557,-203.114 204.935,-192.073"/>
<polygon fill="midnightblue" stroke="midnightblue" points="296.429,-233.805 307.007,-234.403 299.11,-227.339 296.429,-233.805"/>
</g>
<!-- Node27 -->
<g id="node8" class="node"><title>Node27</title>
<g id="a_node8"><a xlink:href="_manipulator_8h.html" target="_top" xlink:title=" ">
<polygon fill="white" stroke="black" points="282,-156.5 282,-197.5 400,-197.5 400,-156.5 282,-156.5"/>
<text text-anchor="start" x="290" y="-185.5" font-family="Helvetica,sans-Serif" font-size="10.00">C:/dev/Igor/Igor/src</text>
<text text-anchor="start" x="290" y="-174.5" font-family="Helvetica,sans-Serif" font-size="10.00">/Tools/ModelViewer/src</text>
<text text-anchor="middle" x="341" y="-163.5" font-family="Helvetica,sans-Serif" font-size="10.00">/Manipulator.h</text>
</a>
</g>
</g>
<!-- Node24&#45;&gt;Node27 -->
<g id="edge8" class="edge"><title>Node24&#45;&gt;Node27</title>
<path fill="none" stroke="midnightblue" d="M341,-223.982C341,-215.347 341,-205.762 341,-197.588"/>
<polygon fill="midnightblue" stroke="midnightblue" points="337.5,-224.233 341,-234.233 344.5,-224.233 337.5,-224.233"/>
</g>
<!-- Node28 -->
<g id="node9" class="node"><title>Node28</title>
<g id="a_node9"><a xlink:href="_model_viewer_8h.html" target="_top" xlink:title=" ">
<polygon fill="white" stroke="black" points="239,-78.5 239,-119.5 357,-119.5 357,-78.5 239,-78.5"/>
<text text-anchor="start" x="247" y="-107.5" font-family="Helvetica,sans-Serif" font-size="10.00">C:/dev/Igor/Igor/src</text>
<text text-anchor="start" x="247" y="-96.5" font-family="Helvetica,sans-Serif" font-size="10.00">/Tools/ModelViewer/src</text>
<text text-anchor="middle" x="298" y="-85.5" font-family="Helvetica,sans-Serif" font-size="10.00">/ModelViewer.h</text>
</a>
</g>
</g>
<!-- Node24&#45;&gt;Node28 -->
<g id="edge13" class="edge"><title>Node24&#45;&gt;Node28</title>
<path fill="none" stroke="midnightblue" d="M302.1,-228.862C290.589,-220.956 279.371,-210.667 273,-198 260.219,-172.588 273.625,-140.094 285.194,-119.657"/>
<polygon fill="midnightblue" stroke="midnightblue" points="300.566,-232.034 310.884,-234.442 304.32,-226.125 300.566,-232.034"/>
</g>
<!-- Node32 -->
<g id="node13" class="node"><title>Node32</title>
<g id="a_node13"><a xlink:href="_widget3_d_emitter_8cpp.html" target="_top" xlink:title=" ">
<polygon fill="white" stroke="black" points="418,-156.5 418,-197.5 536,-197.5 536,-156.5 418,-156.5"/>
<text text-anchor="start" x="426" y="-185.5" font-family="Helvetica,sans-Serif" font-size="10.00">C:/dev/Igor/Igor/src</text>
<text text-anchor="start" x="426" y="-174.5" font-family="Helvetica,sans-Serif" font-size="10.00">/Tools/ModelViewer/src</text>
<text text-anchor="middle" x="477" y="-163.5" font-family="Helvetica,sans-Serif" font-size="10.00">/Widget3DEmitter.cpp</text>
</a>
</g>
</g>
<!-- Node24&#45;&gt;Node32 -->
<g id="edge14" class="edge"><title>Node24&#45;&gt;Node32</title>
<path fill="none" stroke="midnightblue" d="M377.219,-229.725C396.389,-219.788 419.906,-207.597 439.293,-197.546"/>
<polygon fill="midnightblue" stroke="midnightblue" points="375.462,-226.693 368.195,-234.403 378.684,-232.908 375.462,-226.693"/>
</g>
<!-- Node33 -->
<g id="node14" class="node"><title>Node33</title>
<g id="a_node14"><a xlink:href="_widget3_d_locator_8cpp.html" target="_top" xlink:title=" ">
<polygon fill="white" stroke="black" points="554,-156.5 554,-197.5 672,-197.5 672,-156.5 554,-156.5"/>
<text text-anchor="start" x="562" y="-185.5" font-family="Helvetica,sans-Serif" font-size="10.00">C:/dev/Igor/Igor/src</text>
<text text-anchor="start" x="562" y="-174.5" font-family="Helvetica,sans-Serif" font-size="10.00">/Tools/ModelViewer/src</text>
<text text-anchor="middle" x="613" y="-163.5" font-family="Helvetica,sans-Serif" font-size="10.00">/Widget3DLocator.cpp</text>
</a>
</g>
</g>
<!-- Node24&#45;&gt;Node33 -->
<g id="edge15" class="edge"><title>Node24&#45;&gt;Node33</title>
<path fill="none" stroke="midnightblue" d="M399.994,-234.612C440.826,-224.825 496.359,-211.167 545,-198 547.851,-197.228 550.765,-196.426 553.705,-195.604"/>
<polygon fill="midnightblue" stroke="midnightblue" points="399.118,-231.223 390.206,-236.952 400.745,-238.031 399.118,-231.223"/>
</g>
<!-- Node27&#45;&gt;Node28 -->
<g id="edge9" class="edge"><title>Node27&#45;&gt;Node28</title>
<path fill="none" stroke="midnightblue" d="M324.856,-147.466C319.581,-138.143 313.846,-128.007 309.036,-119.506"/>
<polygon fill="midnightblue" stroke="midnightblue" points="321.956,-149.448 329.926,-156.428 328.048,-146.001 321.956,-149.448"/>
</g>
<!-- Node31 -->
<g id="node12" class="node"><title>Node31</title>
<g id="a_node12"><a xlink:href="_manipulator_8cpp.html" target="_top" xlink:title=" ">
<polygon fill="white" stroke="black" points="375,-78.5 375,-119.5 493,-119.5 493,-78.5 375,-78.5"/>
<text text-anchor="start" x="383" y="-107.5" font-family="Helvetica,sans-Serif" font-size="10.00">C:/dev/Igor/Igor/src</text>
<text text-anchor="start" x="383" y="-96.5" font-family="Helvetica,sans-Serif" font-size="10.00">/Tools/ModelViewer/src</text>
<text text-anchor="middle" x="434" y="-85.5" font-family="Helvetica,sans-Serif" font-size="10.00">/Manipulator.cpp</text>
</a>
</g>
</g>
<!-- Node27&#45;&gt;Node31 -->
<g id="edge12" class="edge"><title>Node27&#45;&gt;Node31</title>
<path fill="none" stroke="midnightblue" d="M372.737,-150.065C384.982,-140.057 398.752,-128.804 410.131,-119.506"/>
<polygon fill="midnightblue" stroke="midnightblue" points="370.478,-147.39 364.95,-156.428 374.908,-152.81 370.478,-147.39"/>
</g>
<!-- Node29 -->
<g id="node10" class="node"><title>Node29</title>
<g id="a_node10"><a xlink:href="_model_viewer_2src_2main_8cpp.html" target="_top" xlink:title=" ">
<polygon fill="white" stroke="black" points="239,-0.5 239,-41.5 357,-41.5 357,-0.5 239,-0.5"/>
<text text-anchor="start" x="247" y="-29.5" font-family="Helvetica,sans-Serif" font-size="10.00">C:/dev/Igor/Igor/src</text>
<text text-anchor="start" x="247" y="-18.5" font-family="Helvetica,sans-Serif" font-size="10.00">/Tools/ModelViewer/src</text>
<text text-anchor="middle" x="298" y="-7.5" font-family="Helvetica,sans-Serif" font-size="10.00">/main.cpp</text>
</a>
</g>
</g>
<!-- Node28&#45;&gt;Node29 -->
<g id="edge10" class="edge"><title>Node28&#45;&gt;Node29</title>
<path fill="none" stroke="midnightblue" d="M298,-68.2965C298,-59.3009 298,-49.6532 298,-41.5056"/>
<polygon fill="midnightblue" stroke="midnightblue" points="294.5,-68.4281 298,-78.4281 301.5,-68.4281 294.5,-68.4281"/>
</g>
<!-- Node28&#45;&gt;Node30 -->
<g id="edge11" class="edge"><title>Node28&#45;&gt;Node30</title>
<path fill="none" stroke="midnightblue" d="M367.18,-77.6776C419.815,-62.6419 469.872,-48.7232 507.571,-38.317"/>
<polygon fill="midnightblue" stroke="midnightblue" points="365.975,-74.3817 357.324,-80.4975 367.901,-81.1117 365.975,-74.3817"/>
</g>
</g>
</svg>
