<?xml version="1.0" encoding="UTF-8" standalone="no"?>
<!DOCTYPE svg PUBLIC "-//W3C//DTD SVG 1.1//EN"
 "http://www.w3.org/Graphics/SVG/1.1/DTD/svg11.dtd">
<!-- Generated by graphviz version 2.38.0 (20140413.2041)
 -->
<!-- Title: C:/dev/Igor/Igor/src/Igor/src/iMesh.h Pages: 1 -->
<svg width="925pt" height="375pt"
 viewBox="0.00 0.00 925.49 375.00" xmlns="http://www.w3.org/2000/svg" xmlns:xlink="http://www.w3.org/1999/xlink">
<g id="graph0" class="graph" transform="scale(1 1) rotate(0) translate(4 371)">
<title>C:/dev/Igor/Igor/src/Igor/src/iMesh.h</title>
<polygon fill="white" stroke="none" points="-4,4 -4,-371 921.491,-371 921.491,4 -4,4"/>
<!-- Node0 -->
<g id="node1" class="node"><title>Node0</title>
<g id="a_node1"><a xlink:title=" ">
<polygon fill="#bfbfbf" stroke="black" points="431.801,-336.5 431.801,-366.5 529.801,-366.5 529.801,-336.5 431.801,-336.5"/>
<text text-anchor="start" x="439.801" y="-354.5" font-family="Helvetica,sans-Serif" font-size="10.00">C:/dev/Igor/Igor/src</text>
<text text-anchor="middle" x="480.801" y="-343.5" font-family="Helvetica,sans-Serif" font-size="10.00">/Igor/src/iMesh.h</text>
</a>
</g>
</g>
<!-- Node1 -->
<g id="node2" class="node"><title>Node1</title>
<g id="a_node2"><a xlink:href="i_defines_8h.html" target="_top" xlink:title=" ">
<polygon fill="white" stroke="black" points="94.3005,-112.5 94.3005,-131.5 153.301,-131.5 153.301,-112.5 94.3005,-112.5"/>
<text text-anchor="middle" x="123.801" y="-119.5" font-family="Helvetica,sans-Serif" font-size="10.00">iDefines.h</text>
</a>
</g>
</g>
<!-- Node0&#45;&gt;Node1 -->
<g id="edge1" class="edge"><title>Node0&#45;&gt;Node1</title>
<path fill="none" stroke="midnightblue" d="M447.85,-336.392C391.164,-311.269 272.893,-255.072 185.801,-188 167.178,-173.659 148.993,-153.674 137.185,-139.661"/>
<polygon fill="midnightblue" stroke="midnightblue" points="139.774,-137.299 130.71,-131.813 134.374,-141.754 139.774,-137.299"/>
</g>
<!-- Node3 -->
<g id="node4" class="node"><title>Node3</title>
<g id="a_node4"><a xlink:href="i_sphere_8h.html" target="_top" xlink:title=" ">
<polygon fill="white" stroke="black" points="413.801,-280.5 413.801,-299.5 471.801,-299.5 471.801,-280.5 413.801,-280.5"/>
<text text-anchor="middle" x="442.801" y="-287.5" font-family="Helvetica,sans-Serif" font-size="10.00">iSphere.h</text>
</a>
</g>
</g>
<!-- Node0&#45;&gt;Node3 -->
<g id="edge3" class="edge"><title>Node0&#45;&gt;Node3</title>
<path fill="none" stroke="midnightblue" d="M471.795,-336.399C466.387,-327.932 459.469,-317.099 453.747,-308.139"/>
<polygon fill="midnightblue" stroke="midnightblue" points="456.662,-306.202 448.33,-299.658 450.763,-309.97 456.662,-306.202"/>
</g>
<!-- Node26 -->
<g id="node27" class="node"><title>Node26</title>
<g id="a_node27"><a xlink:href="i_a_a_box_8h.html" target="_top" xlink:title=" ">
<polygon fill="white" stroke="black" points="47.8005,-168.5 47.8005,-187.5 105.801,-187.5 105.801,-168.5 47.8005,-168.5"/>
<text text-anchor="middle" x="76.8005" y="-175.5" font-family="Helvetica,sans-Serif" font-size="10.00">iAABox.h</text>
</a>
</g>
</g>
<!-- Node0&#45;&gt;Node26 -->
<g id="edge36" class="edge"><title>Node0&#45;&gt;Node26</title>
<path fill="none" stroke="midnightblue" d="M431.765,-348.53C349.362,-344.359 187.615,-332.216 141.801,-300 106.484,-275.166 88.6094,-224.936 81.1707,-197.654"/>
<polygon fill="midnightblue" stroke="midnightblue" points="84.525,-196.642 78.6721,-187.811 77.7402,-198.364 84.525,-196.642"/>
</g>
<!-- Node28 -->
<g id="node29" class="node"><title>Node28</title>
<g id="a_node29"><a xlink:href="ia_color3_8h.html" target="_top" xlink:title=" ">
<polygon fill="white" stroke="black" points="807.801,-168.5 807.801,-187.5 867.801,-187.5 867.801,-168.5 807.801,-168.5"/>
<text text-anchor="middle" x="837.801" y="-175.5" font-family="Helvetica,sans-Serif" font-size="10.00">iaColor3.h</text>
</a>
</g>
</g>
<!-- Node0&#45;&gt;Node28 -->
<g id="edge40" class="edge"><title>Node0&#45;&gt;Node28</title>
<path fill="none" stroke="midnightblue" d="M489.058,-336.313C498.972,-320.455 517.016,-295.034 538.801,-280 620.861,-223.368 737.338,-196.214 797.84,-185.246"/>
<polygon fill="midnightblue" stroke="midnightblue" points="798.517,-188.68 807.76,-183.502 797.305,-181.786 798.517,-188.68"/>
</g>
<!-- Node29 -->
<g id="node30" class="node"><title>Node29</title>
<g id="a_node30"><a xlink:title=" ">
<polygon fill="white" stroke="#bfbfbf" points="548.301,-280.5 548.301,-299.5 583.301,-299.5 583.301,-280.5 548.301,-280.5"/>
<text text-anchor="middle" x="565.801" y="-287.5" font-family="Helvetica,sans-Serif" font-size="10.00">map</text>
</a>
</g>
</g>
<!-- Node0&#45;&gt;Node29 -->
<g id="edge44" class="edge"><title>Node0&#45;&gt;Node29</title>
<path fill="none" stroke="midnightblue" d="M500.944,-336.399C514.187,-327.129 531.478,-315.025 544.876,-305.647"/>
<polygon fill="midnightblue" stroke="midnightblue" points="547.247,-308.26 553.432,-299.658 543.233,-302.525 547.247,-308.26"/>
</g>
<!-- Node30 -->
<g id="node31" class="node"><title>Node30</title>
<g id="a_node31"><a xlink:href="i_mesh_8inl.html" target="_top" xlink:title=" ">
<polygon fill="white" stroke="black" points="601.801,-280.5 601.801,-299.5 657.801,-299.5 657.801,-280.5 601.801,-280.5"/>
<text text-anchor="middle" x="629.801" y="-287.5" font-family="Helvetica,sans-Serif" font-size="10.00">iMesh.inl</text>
</a>
</g>
</g>
<!-- Node0&#45;&gt;Node30 -->
<g id="edge45" class="edge"><title>Node0&#45;&gt;Node30</title>
<path fill="none" stroke="midnightblue" d="M516.111,-336.399C541.223,-326.372 574.638,-313.028 598.736,-303.405"/>
<polygon fill="midnightblue" stroke="midnightblue" points="600.131,-306.617 608.12,-299.658 597.535,-300.116 600.131,-306.617"/>
</g>
<!-- Node2 -->
<g id="node3" class="node"><title>Node2</title>
<g id="a_node3"><a xlink:href="ia_defines_8h.html" target="_top" xlink:title=" ">
<polygon fill="white" stroke="black" points="631.301,-0.5 631.301,-19.5 696.301,-19.5 696.301,-0.5 631.301,-0.5"/>
<text text-anchor="middle" x="663.801" y="-7.5" font-family="Helvetica,sans-Serif" font-size="10.00">iaDefines.h</text>
</a>
</g>
</g>
<!-- Node1&#45;&gt;Node2 -->
<g id="edge2" class="edge"><title>Node1&#45;&gt;Node2</title>
<path fill="none" stroke="midnightblue" d="M145.766,-112.408C167.569,-103.73 201.828,-89.6855 230.801,-76 248.057,-67.8485 250.562,-61.621 268.801,-56 333.767,-35.9777 532.642,-20.1239 620.871,-13.879"/>
<polygon fill="midnightblue" stroke="midnightblue" points="621.335,-17.3552 631.066,-13.1655 620.846,-10.3723 621.335,-17.3552"/>
</g>
<!-- Node4 -->
<g id="node5" class="node"><title>Node4</title>
<g id="a_node5"><a xlink:href="i_frustum_8h.html" target="_top" xlink:title=" ">
<polygon fill="white" stroke="black" points="310.301,-224.5 310.301,-243.5 373.301,-243.5 373.301,-224.5 310.301,-224.5"/>
<text text-anchor="middle" x="341.801" y="-231.5" font-family="Helvetica,sans-Serif" font-size="10.00">iFrustum.h</text>
</a>
</g>
</g>
<!-- Node3&#45;&gt;Node4 -->
<g id="edge4" class="edge"><title>Node3&#45;&gt;Node4</title>
<path fill="none" stroke="midnightblue" d="M426.573,-280.324C410.45,-271.703 385.5,-258.364 366.836,-248.386"/>
<polygon fill="midnightblue" stroke="midnightblue" points="368.457,-245.283 357.988,-243.655 365.156,-251.456 368.457,-245.283"/>
</g>
<!-- Node20 -->
<g id="node21" class="node"><title>Node20</title>
<g id="a_node21"><a xlink:href="ia_console_8h.html" target="_top" xlink:title=" ">
<polygon fill="white" stroke="black" points="655.801,-168.5 655.801,-187.5 723.801,-187.5 723.801,-168.5 655.801,-168.5"/>
<text text-anchor="middle" x="689.801" y="-175.5" font-family="Helvetica,sans-Serif" font-size="10.00">iaConsole.h</text>
</a>
</g>
</g>
<!-- Node3&#45;&gt;Node20 -->
<g id="edge26" class="edge"><title>Node3&#45;&gt;Node20</title>
<path fill="none" stroke="midnightblue" d="M448.667,-280.338C458.674,-266.262 480.44,-238.535 505.801,-224 549.409,-199.006 606.533,-187.816 645.49,-182.857"/>
<polygon fill="midnightblue" stroke="midnightblue" points="645.958,-186.326 655.476,-181.671 645.133,-179.375 645.958,-186.326"/>
</g>
<!-- Node25 -->
<g id="node26" class="node"><title>Node25</title>
<g id="a_node26"><a xlink:href="i_sphere_8inl.html" target="_top" xlink:title=" ">
<polygon fill="white" stroke="black" points="391.801,-224.5 391.801,-243.5 453.801,-243.5 453.801,-224.5 391.801,-224.5"/>
<text text-anchor="middle" x="422.801" y="-231.5" font-family="Helvetica,sans-Serif" font-size="10.00">iSphere.inl</text>
</a>
</g>
</g>
<!-- Node3&#45;&gt;Node25 -->
<g id="edge35" class="edge"><title>Node3&#45;&gt;Node25</title>
<path fill="none" stroke="midnightblue" d="M439.498,-280.083C436.819,-272.849 432.952,-262.409 429.614,-253.397"/>
<polygon fill="midnightblue" stroke="midnightblue" points="432.797,-251.913 426.042,-243.751 426.233,-254.344 432.797,-251.913"/>
</g>
<!-- Node5 -->
<g id="node6" class="node"><title>Node5</title>
<g id="a_node6"><a xlink:href="i_plane_8h.html" target="_top" xlink:title=" ">
<polygon fill="white" stroke="black" points="194.801,-168.5 194.801,-187.5 246.801,-187.5 246.801,-168.5 194.801,-168.5"/>
<text text-anchor="middle" x="220.801" y="-175.5" font-family="Helvetica,sans-Serif" font-size="10.00">iPlane.h</text>
</a>
</g>
</g>
<!-- Node4&#45;&gt;Node5 -->
<g id="edge5" class="edge"><title>Node4&#45;&gt;Node5</title>
<path fill="none" stroke="midnightblue" d="M322.628,-224.444C302.891,-215.636 271.915,-201.812 249.307,-191.722"/>
<polygon fill="midnightblue" stroke="midnightblue" points="250.442,-188.396 239.884,-187.516 247.589,-194.788 250.442,-188.396"/>
</g>
<!-- Node11 -->
<g id="node12" class="node"><title>Node11</title>
<g id="a_node12"><a xlink:href="ia_matrix_8h.html" target="_top" xlink:title=" ">
<polygon fill="white" stroke="black" points="416.301,-168.5 416.301,-187.5 475.301,-187.5 475.301,-168.5 416.301,-168.5"/>
<text text-anchor="middle" x="445.801" y="-175.5" font-family="Helvetica,sans-Serif" font-size="10.00">iaMatrix.h</text>
</a>
</g>
</g>
<!-- Node4&#45;&gt;Node11 -->
<g id="edge13" class="edge"><title>Node4&#45;&gt;Node11</title>
<path fill="none" stroke="midnightblue" d="M358.51,-224.324C375.112,-215.703 400.803,-202.364 420.021,-192.386"/>
<polygon fill="midnightblue" stroke="midnightblue" points="421.871,-195.369 429.133,-187.655 418.645,-189.156 421.871,-195.369"/>
</g>
<!-- Node19 -->
<g id="node20" class="node"><title>Node19</title>
<g id="a_node20"><a xlink:href="i_frustum_8inl.html" target="_top" xlink:title=" ">
<polygon fill="white" stroke="black" points="307.801,-168.5 307.801,-187.5 375.801,-187.5 375.801,-168.5 307.801,-168.5"/>
<text text-anchor="middle" x="341.801" y="-175.5" font-family="Helvetica,sans-Serif" font-size="10.00">iFrustum.inl</text>
</a>
</g>
</g>
<!-- Node4&#45;&gt;Node19 -->
<g id="edge25" class="edge"><title>Node4&#45;&gt;Node19</title>
<path fill="none" stroke="midnightblue" d="M341.801,-224.083C341.801,-217.006 341.801,-206.861 341.801,-197.986"/>
<polygon fill="midnightblue" stroke="midnightblue" points="345.301,-197.751 341.801,-187.751 338.301,-197.751 345.301,-197.751"/>
</g>
<!-- Node5&#45;&gt;Node1 -->
<g id="edge6" class="edge"><title>Node5&#45;&gt;Node1</title>
<path fill="none" stroke="midnightblue" d="M205.216,-168.324C189.801,-159.743 165.988,-146.486 148.091,-136.522"/>
<polygon fill="midnightblue" stroke="midnightblue" points="149.786,-133.461 139.347,-131.655 146.381,-139.577 149.786,-133.461"/>
</g>
<!-- Node6 -->
<g id="node7" class="node"><title>Node6</title>
<g id="a_node7"><a xlink:href="ia_vector3_8h.html" target="_top" xlink:title=" ">
<polygon fill="white" stroke="black" points="155.801,-56.5 155.801,-75.5 221.801,-75.5 221.801,-56.5 155.801,-56.5"/>
<text text-anchor="middle" x="188.801" y="-63.5" font-family="Helvetica,sans-Serif" font-size="10.00">iaVector3.h</text>
</a>
</g>
</g>
<!-- Node5&#45;&gt;Node6 -->
<g id="edge7" class="edge"><title>Node5&#45;&gt;Node6</title>
<path fill="none" stroke="midnightblue" d="M226.392,-168.29C233.828,-155.532 245.116,-131.195 236.801,-112 231.532,-99.8399 221.181,-89.4594 211.436,-81.7429"/>
<polygon fill="midnightblue" stroke="midnightblue" points="213.302,-78.7707 203.171,-75.6698 209.157,-84.4116 213.302,-78.7707"/>
</g>
<!-- Node10 -->
<g id="node11" class="node"><title>Node10</title>
<g id="a_node11"><a xlink:href="i_plane_8inl.html" target="_top" xlink:title=" ">
<polygon fill="white" stroke="black" points="171.801,-112.5 171.801,-131.5 227.801,-131.5 227.801,-112.5 171.801,-112.5"/>
<text text-anchor="middle" x="199.801" y="-119.5" font-family="Helvetica,sans-Serif" font-size="10.00">iPlane.inl</text>
</a>
</g>
</g>
<!-- Node5&#45;&gt;Node10 -->
<g id="edge12" class="edge"><title>Node5&#45;&gt;Node10</title>
<path fill="none" stroke="midnightblue" d="M217.333,-168.083C214.489,-160.77 210.371,-150.181 206.841,-141.103"/>
<polygon fill="midnightblue" stroke="midnightblue" points="210.09,-139.803 203.204,-131.751 203.566,-142.34 210.09,-139.803"/>
</g>
<!-- Node6&#45;&gt;Node2 -->
<g id="edge8" class="edge"><title>Node6&#45;&gt;Node2</title>
<path fill="none" stroke="midnightblue" d="M221.865,-58.3053C226.533,-57.4662 231.28,-56.6692 235.801,-56 376.097,-35.2298 543.655,-20.52 620.909,-14.3028"/>
<polygon fill="midnightblue" stroke="midnightblue" points="621.509,-17.7662 631.199,-13.4822 620.952,-10.7884 621.509,-17.7662"/>
</g>
<!-- Node7 -->
<g id="node8" class="node"><title>Node7</title>
<g id="a_node8"><a xlink:title=" ">
<polygon fill="white" stroke="#bfbfbf" points="299.801,-0.5 299.801,-19.5 343.801,-19.5 343.801,-0.5 299.801,-0.5"/>
<text text-anchor="middle" x="321.801" y="-7.5" font-family="Helvetica,sans-Serif" font-size="10.00">cmath</text>
</a>
</g>
</g>
<!-- Node6&#45;&gt;Node7 -->
<g id="edge9" class="edge"><title>Node6&#45;&gt;Node7</title>
<path fill="none" stroke="midnightblue" d="M209.875,-56.4435C231.86,-47.5171 266.535,-33.4387 291.465,-23.3168"/>
<polygon fill="midnightblue" stroke="midnightblue" points="292.876,-26.5213 300.825,-19.5164 290.243,-20.0355 292.876,-26.5213"/>
</g>
<!-- Node8 -->
<g id="node9" class="node"><title>Node8</title>
<g id="a_node9"><a xlink:title=" ">
<polygon fill="white" stroke="#bfbfbf" points="426.801,-0.5 426.801,-19.5 478.801,-19.5 478.801,-0.5 426.801,-0.5"/>
<text text-anchor="middle" x="452.801" y="-7.5" font-family="Helvetica,sans-Serif" font-size="10.00">ostream</text>
</a>
</g>
</g>
<!-- Node6&#45;&gt;Node8 -->
<g id="edge10" class="edge"><title>Node6&#45;&gt;Node8</title>
<path fill="none" stroke="midnightblue" d="M221.969,-58.2155C271.72,-48.0392 365.299,-28.898 416.708,-18.3827"/>
<polygon fill="midnightblue" stroke="midnightblue" points="417.608,-21.7709 426.704,-16.3379 416.206,-14.9129 417.608,-21.7709"/>
</g>
<!-- Node9 -->
<g id="node10" class="node"><title>Node9</title>
<g id="a_node10"><a xlink:href="ia_vector3_8inl.html" target="_top" xlink:title=" ">
<polygon fill="white" stroke="black" points="153.301,-0.5 153.301,-19.5 224.301,-19.5 224.301,-0.5 153.301,-0.5"/>
<text text-anchor="middle" x="188.801" y="-7.5" font-family="Helvetica,sans-Serif" font-size="10.00">iaVector3.inl</text>
</a>
</g>
</g>
<!-- Node6&#45;&gt;Node9 -->
<g id="edge11" class="edge"><title>Node6&#45;&gt;Node9</title>
<path fill="none" stroke="midnightblue" d="M188.801,-56.083C188.801,-49.0059 188.801,-38.8611 188.801,-29.9865"/>
<polygon fill="midnightblue" stroke="midnightblue" points="192.301,-29.751 188.801,-19.7511 185.301,-29.7511 192.301,-29.751"/>
</g>
<!-- Node11&#45;&gt;Node7 -->
<g id="edge22" class="edge"><title>Node11&#45;&gt;Node7</title>
<path fill="none" stroke="midnightblue" d="M434.21,-168.326C423.527,-159.908 407.719,-146.333 396.801,-132 373.793,-101.8 378.429,-87.8722 357.801,-56 351.345,-46.026 343.132,-35.6225 336.182,-27.334"/>
<polygon fill="midnightblue" stroke="midnightblue" points="338.689,-24.8809 329.522,-19.5689 333.375,-29.4381 338.689,-24.8809"/>
</g>
<!-- Node12 -->
<g id="node13" class="node"><title>Node12</title>
<g id="a_node13"><a xlink:href="ia_vector4_8h.html" target="_top" xlink:title=" ">
<polygon fill="white" stroke="black" points="283.801,-112.5 283.801,-131.5 349.801,-131.5 349.801,-112.5 283.801,-112.5"/>
<text text-anchor="middle" x="316.801" y="-119.5" font-family="Helvetica,sans-Serif" font-size="10.00">iaVector4.h</text>
</a>
</g>
</g>
<!-- Node11&#45;&gt;Node12 -->
<g id="edge14" class="edge"><title>Node11&#45;&gt;Node12</title>
<path fill="none" stroke="midnightblue" d="M425.36,-168.444C404.13,-159.557 370.702,-145.563 346.546,-135.451"/>
<polygon fill="midnightblue" stroke="midnightblue" points="347.721,-132.149 337.145,-131.516 345.018,-138.606 347.721,-132.149"/>
</g>
<!-- Node14 -->
<g id="node15" class="node"><title>Node14</title>
<g id="a_node15"><a xlink:href="ia_quaternion_8h.html" target="_top" xlink:title=" ">
<polygon fill="white" stroke="black" points="405.801,-112.5 405.801,-131.5 485.801,-131.5 485.801,-112.5 405.801,-112.5"/>
<text text-anchor="middle" x="445.801" y="-119.5" font-family="Helvetica,sans-Serif" font-size="10.00">iaQuaternion.h</text>
</a>
</g>
</g>
<!-- Node11&#45;&gt;Node14 -->
<g id="edge17" class="edge"><title>Node11&#45;&gt;Node14</title>
<path fill="none" stroke="midnightblue" d="M445.801,-168.083C445.801,-161.006 445.801,-150.861 445.801,-141.986"/>
<polygon fill="midnightblue" stroke="midnightblue" points="449.301,-141.751 445.801,-131.751 442.301,-141.751 449.301,-141.751"/>
</g>
<!-- Node16 -->
<g id="node17" class="node"><title>Node16</title>
<g id="a_node17"><a xlink:title=" ">
<polygon fill="white" stroke="#bfbfbf" points="692.301,-112.5 692.301,-131.5 741.301,-131.5 741.301,-112.5 692.301,-112.5"/>
<text text-anchor="middle" x="716.801" y="-119.5" font-family="Helvetica,sans-Serif" font-size="10.00">fstream</text>
</a>
</g>
</g>
<!-- Node11&#45;&gt;Node16 -->
<g id="edge21" class="edge"><title>Node11&#45;&gt;Node16</title>
<path fill="none" stroke="midnightblue" d="M475.318,-171.118C525.733,-161.073 628.186,-140.657 682.001,-129.934"/>
<polygon fill="midnightblue" stroke="midnightblue" points="682.962,-133.312 692.085,-127.925 681.594,-126.447 682.962,-133.312"/>
</g>
<!-- Node17 -->
<g id="node18" class="node"><title>Node17</title>
<g id="a_node18"><a xlink:title=" ">
<polygon fill="white" stroke="#bfbfbf" points="585.801,-112.5 585.801,-131.5 635.801,-131.5 635.801,-112.5 585.801,-112.5"/>
<text text-anchor="middle" x="610.801" y="-119.5" font-family="Helvetica,sans-Serif" font-size="10.00">iomanip</text>
</a>
</g>
</g>
<!-- Node11&#45;&gt;Node17 -->
<g id="edge23" class="edge"><title>Node11&#45;&gt;Node17</title>
<path fill="none" stroke="midnightblue" d="M471.945,-168.444C500.07,-159.239 544.932,-144.557 576.019,-134.383"/>
<polygon fill="midnightblue" stroke="midnightblue" points="577.174,-137.688 585.59,-131.251 574.997,-131.035 577.174,-137.688"/>
</g>
<!-- Node18 -->
<g id="node19" class="node"><title>Node18</title>
<g id="a_node19"><a xlink:href="ia_matrix_8inl.html" target="_top" xlink:title=" ">
<polygon fill="white" stroke="black" points="503.801,-112.5 503.801,-131.5 567.801,-131.5 567.801,-112.5 503.801,-112.5"/>
<text text-anchor="middle" x="535.801" y="-119.5" font-family="Helvetica,sans-Serif" font-size="10.00">iaMatrix.inl</text>
</a>
</g>
</g>
<!-- Node11&#45;&gt;Node18 -->
<g id="edge24" class="edge"><title>Node11&#45;&gt;Node18</title>
<path fill="none" stroke="midnightblue" d="M460.261,-168.324C474.3,-159.9 495.849,-146.971 512.344,-137.074"/>
<polygon fill="midnightblue" stroke="midnightblue" points="514.602,-139.801 521.376,-131.655 511.001,-133.798 514.602,-139.801"/>
</g>
<!-- Node12&#45;&gt;Node6 -->
<g id="edge15" class="edge"><title>Node12&#45;&gt;Node6</title>
<path fill="none" stroke="midnightblue" d="M296.519,-112.444C275.453,-103.557 242.284,-89.5632 218.315,-79.4514"/>
<polygon fill="midnightblue" stroke="midnightblue" points="219.562,-76.1787 208.988,-75.5164 216.841,-82.6283 219.562,-76.1787"/>
</g>
<!-- Node13 -->
<g id="node14" class="node"><title>Node13</title>
<g id="a_node14"><a xlink:href="ia_vector4_8inl.html" target="_top" xlink:title=" ">
<polygon fill="white" stroke="black" points="278.301,-56.5 278.301,-75.5 349.301,-75.5 349.301,-56.5 278.301,-56.5"/>
<text text-anchor="middle" x="313.801" y="-63.5" font-family="Helvetica,sans-Serif" font-size="10.00">iaVector4.inl</text>
</a>
</g>
</g>
<!-- Node12&#45;&gt;Node13 -->
<g id="edge16" class="edge"><title>Node12&#45;&gt;Node13</title>
<path fill="none" stroke="midnightblue" d="M316.305,-112.083C315.912,-105.006 315.348,-94.8611 314.855,-85.9865"/>
<polygon fill="midnightblue" stroke="midnightblue" points="318.336,-85.5415 314.287,-75.7511 311.347,-85.9299 318.336,-85.5415"/>
</g>
<!-- Node14&#45;&gt;Node6 -->
<g id="edge18" class="edge"><title>Node14&#45;&gt;Node6</title>
<path fill="none" stroke="midnightblue" d="M405.644,-112.563C358.46,-102.648 280.475,-86.2623 232.008,-76.0786"/>
<polygon fill="midnightblue" stroke="midnightblue" points="232.641,-72.6353 222.135,-74.0042 231.202,-79.4857 232.641,-72.6353"/>
</g>
<!-- Node14&#45;&gt;Node8 -->
<g id="edge19" class="edge"><title>Node14&#45;&gt;Node8</title>
<path fill="none" stroke="midnightblue" d="M462.134,-112.387C474.756,-104.72 491.298,-92.2127 498.801,-76 507.423,-57.3686 490.563,-38.4807 474.884,-25.9031"/>
<polygon fill="midnightblue" stroke="midnightblue" points="476.568,-22.7922 466.463,-19.6065 472.376,-28.3982 476.568,-22.7922"/>
</g>
<!-- Node15 -->
<g id="node16" class="node"><title>Node15</title>
<g id="a_node16"><a xlink:href="ia_quaternion_8inl.html" target="_top" xlink:title=" ">
<polygon fill="white" stroke="black" points="405.801,-56.5 405.801,-75.5 489.801,-75.5 489.801,-56.5 405.801,-56.5"/>
<text text-anchor="middle" x="447.801" y="-63.5" font-family="Helvetica,sans-Serif" font-size="10.00">iaQuaternion.inl</text>
</a>
</g>
</g>
<!-- Node14&#45;&gt;Node15 -->
<g id="edge20" class="edge"><title>Node14&#45;&gt;Node15</title>
<path fill="none" stroke="midnightblue" d="M446.131,-112.083C446.393,-105.006 446.769,-94.8611 447.097,-85.9865"/>
<polygon fill="midnightblue" stroke="midnightblue" points="450.604,-85.8738 447.476,-75.7511 443.609,-85.6147 450.604,-85.8738"/>
</g>
<!-- Node20&#45;&gt;Node16 -->
<g id="edge32" class="edge"><title>Node20&#45;&gt;Node16</title>
<path fill="none" stroke="midnightblue" d="M694.259,-168.083C697.955,-160.691 703.324,-149.953 707.895,-140.811"/>
<polygon fill="midnightblue" stroke="midnightblue" points="711.083,-142.261 712.425,-131.751 704.822,-139.13 711.083,-142.261"/>
</g>
<!-- Node20&#45;&gt;Node17 -->
<g id="edge34" class="edge"><title>Node20&#45;&gt;Node17</title>
<path fill="none" stroke="midnightblue" d="M677.108,-168.324C664.899,-159.979 646.222,-147.212 631.798,-137.352"/>
<polygon fill="midnightblue" stroke="midnightblue" points="633.693,-134.408 623.462,-131.655 629.742,-140.187 633.693,-134.408"/>
</g>
<!-- Node21 -->
<g id="node22" class="node"><title>Node21</title>
<g id="a_node22"><a xlink:href="ia_singleton_8h.html" target="_top" xlink:title=" ">
<polygon fill="white" stroke="black" points="759.301,-112.5 759.301,-131.5 832.301,-131.5 832.301,-112.5 759.301,-112.5"/>
<text text-anchor="middle" x="795.801" y="-119.5" font-family="Helvetica,sans-Serif" font-size="10.00">iaSingleton.h</text>
</a>
</g>
</g>
<!-- Node20&#45;&gt;Node21 -->
<g id="edge27" class="edge"><title>Node20&#45;&gt;Node21</title>
<path fill="none" stroke="midnightblue" d="M706.831,-168.324C723.83,-159.664 750.177,-146.242 769.793,-136.249"/>
<polygon fill="midnightblue" stroke="midnightblue" points="771.49,-139.312 778.812,-131.655 768.313,-133.075 771.49,-139.312"/>
</g>
<!-- Node23 -->
<g id="node24" class="node"><title>Node23</title>
<g id="a_node24"><a xlink:href="ia_clock_8h.html" target="_top" xlink:title=" ">
<polygon fill="white" stroke="black" points="635.301,-56.5 635.301,-75.5 692.301,-75.5 692.301,-56.5 635.301,-56.5"/>
<text text-anchor="middle" x="663.801" y="-63.5" font-family="Helvetica,sans-Serif" font-size="10.00">iaClock.h</text>
</a>
</g>
</g>
<!-- Node20&#45;&gt;Node23 -->
<g id="edge30" class="edge"><title>Node20&#45;&gt;Node23</title>
<path fill="none" stroke="midnightblue" d="M687.76,-168.368C683.565,-150.617 673.885,-109.666 668.196,-85.5974"/>
<polygon fill="midnightblue" stroke="midnightblue" points="671.538,-84.5182 665.831,-75.5914 664.725,-86.1284 671.538,-84.5182"/>
</g>
<!-- Node24 -->
<g id="node25" class="node"><title>Node24</title>
<g id="a_node25"><a xlink:title=" ">
<polygon fill="white" stroke="#bfbfbf" points="850.801,-112.5 850.801,-131.5 904.801,-131.5 904.801,-112.5 850.801,-112.5"/>
<text text-anchor="middle" x="877.801" y="-119.5" font-family="Helvetica,sans-Serif" font-size="10.00">iostream</text>
</a>
</g>
</g>
<!-- Node20&#45;&gt;Node24 -->
<g id="edge33" class="edge"><title>Node20&#45;&gt;Node24</title>
<path fill="none" stroke="midnightblue" d="M719.59,-168.444C752.383,-159.024 805.149,-143.868 840.627,-133.677"/>
<polygon fill="midnightblue" stroke="midnightblue" points="841.947,-136.94 850.592,-130.815 840.015,-130.212 841.947,-136.94"/>
</g>
<!-- Node22 -->
<g id="node23" class="node"><title>Node22</title>
<g id="a_node23"><a xlink:href="ia_mutex_8h.html" target="_top" xlink:title=" ">
<polygon fill="white" stroke="black" points="738.301,-56.5 738.301,-75.5 797.301,-75.5 797.301,-56.5 738.301,-56.5"/>
<text text-anchor="middle" x="767.801" y="-63.5" font-family="Helvetica,sans-Serif" font-size="10.00">iaMutex.h</text>
</a>
</g>
</g>
<!-- Node21&#45;&gt;Node22 -->
<g id="edge28" class="edge"><title>Node21&#45;&gt;Node22</title>
<path fill="none" stroke="midnightblue" d="M791.177,-112.083C787.344,-104.691 781.776,-93.9533 777.036,-84.8111"/>
<polygon fill="midnightblue" stroke="midnightblue" points="780.049,-83.0175 772.338,-75.7511 773.834,-86.2398 780.049,-83.0175"/>
</g>
<!-- Node22&#45;&gt;Node2 -->
<g id="edge29" class="edge"><title>Node22&#45;&gt;Node2</title>
<path fill="none" stroke="midnightblue" d="M751.091,-56.324C734.489,-47.7034 708.798,-34.3643 689.58,-24.3855"/>
<polygon fill="midnightblue" stroke="midnightblue" points="690.956,-21.1565 680.468,-19.6545 687.731,-27.3689 690.956,-21.1565"/>
</g>
<!-- Node23&#45;&gt;Node2 -->
<g id="edge31" class="edge"><title>Node23&#45;&gt;Node2</title>
<path fill="none" stroke="midnightblue" d="M663.801,-56.083C663.801,-49.0059 663.801,-38.8611 663.801,-29.9865"/>
<polygon fill="midnightblue" stroke="midnightblue" points="667.301,-29.751 663.801,-19.7511 660.301,-29.7511 667.301,-29.751"/>
</g>
<!-- Node26&#45;&gt;Node1 -->
<g id="edge37" class="edge"><title>Node26&#45;&gt;Node1</title>
<path fill="none" stroke="midnightblue" d="M84.5616,-168.083C91.3373,-160.298 101.344,-148.801 109.556,-139.367"/>
<polygon fill="midnightblue" stroke="midnightblue" points="112.259,-141.592 116.184,-131.751 106.979,-136.996 112.259,-141.592"/>
</g>
<!-- Node26&#45;&gt;Node6 -->
<g id="edge38" class="edge"><title>Node26&#45;&gt;Node6</title>
<path fill="none" stroke="midnightblue" d="M53.8026,-168.36C26.4726,-156.795 -13.2914,-135.05 4.80055,-112 21.956,-90.1433 96.6334,-77.5342 145.42,-71.4874"/>
<polygon fill="midnightblue" stroke="midnightblue" points="145.892,-74.956 155.407,-70.2958 145.063,-68.0053 145.892,-74.956"/>
</g>
<!-- Node27 -->
<g id="node28" class="node"><title>Node27</title>
<g id="a_node28"><a xlink:href="i_a_a_box_8inl.html" target="_top" xlink:title=" ">
<polygon fill="white" stroke="black" points="13.8005,-112.5 13.8005,-131.5 75.8005,-131.5 75.8005,-112.5 13.8005,-112.5"/>
<text text-anchor="middle" x="44.8005" y="-119.5" font-family="Helvetica,sans-Serif" font-size="10.00">iAABox.inl</text>
</a>
</g>
</g>
<!-- Node26&#45;&gt;Node27 -->
<g id="edge39" class="edge"><title>Node26&#45;&gt;Node27</title>
<path fill="none" stroke="midnightblue" d="M71.5164,-168.083C67.0896,-160.613 60.6372,-149.724 55.1827,-140.52"/>
<polygon fill="midnightblue" stroke="midnightblue" points="58.0955,-138.57 49.9864,-131.751 52.0734,-142.138 58.0955,-138.57"/>
</g>
<!-- Node28&#45;&gt;Node2 -->
<g id="edge41" class="edge"><title>Node28&#45;&gt;Node2</title>
<path fill="none" stroke="midnightblue" d="M862.943,-168.471C890.555,-157.628 929.085,-137.25 913.801,-112 870.467,-40.4113 765.746,-19.5535 706.502,-13.4841"/>
<polygon fill="midnightblue" stroke="midnightblue" points="706.626,-9.98065 696.346,-12.543 705.98,-16.9508 706.626,-9.98065"/>
</g>
<!-- Node28&#45;&gt;Node16 -->
<g id="edge42" class="edge"><title>Node28&#45;&gt;Node16</title>
<path fill="none" stroke="midnightblue" d="M818.628,-168.444C798.891,-159.636 767.915,-145.812 745.307,-135.722"/>
<polygon fill="midnightblue" stroke="midnightblue" points="746.442,-132.396 735.884,-131.516 743.589,-138.788 746.442,-132.396"/>
</g>
<!-- Node28&#45;&gt;Node24 -->
<g id="edge43" class="edge"><title>Node28&#45;&gt;Node24</title>
<path fill="none" stroke="midnightblue" d="M844.406,-168.083C850.056,-160.455 858.345,-149.264 865.252,-139.941"/>
<polygon fill="midnightblue" stroke="midnightblue" points="868.178,-141.87 871.318,-131.751 862.553,-137.703 868.178,-141.87"/>
</g>
</g>
</svg>
