<?xml version="1.0" encoding="UTF-8" standalone="no"?>
<!DOCTYPE svg PUBLIC "-//W3C//DTD SVG 1.1//EN"
 "http://www.w3.org/Graphics/SVG/1.1/DTD/svg11.dtd">
<!-- Generated by graphviz version 2.38.0 (20140413.2041)
 -->
<!-- Title: C:/dev/Igor/src/Igor/src/iMeshBuilder.h Pages: 1 -->
<svg width="2115pt" height="307pt"
 viewBox="0.00 0.00 2114.50 307.00" xmlns="http://www.w3.org/2000/svg" xmlns:xlink="http://www.w3.org/1999/xlink">
<g id="graph0" class="graph" transform="scale(1 1) rotate(0) translate(4 303)">
<title>C:/dev/Igor/src/Igor/src/iMeshBuilder.h</title>
<polygon fill="white" stroke="none" points="-4,4 -4,-303 2110.5,-303 2110.5,4 -4,4"/>
<!-- Node1 -->
<g id="node1" class="node"><title>Node1</title>
<polygon fill="#bfbfbf" stroke="black" points="1084,-268.5 1084,-298.5 1185,-298.5 1185,-268.5 1084,-268.5"/>
<text text-anchor="start" x="1092" y="-286.5" font-family="Helvetica,sans-Serif" font-size="10.00">C:/dev/Igor/src/Igor</text>
<text text-anchor="middle" x="1134.5" y="-275.5" font-family="Helvetica,sans-Serif" font-size="10.00">/src/iMeshBuilder.h</text>
</g>
<!-- Node2 -->
<g id="node2" class="node"><title>Node2</title>
<g id="a_node2"><a xlink:href="i_contouring_cubes_8h.html" target="_top" xlink:title="C:/dev/Igor/src/Igor\l/src/iContouringCubes.h">
<polygon fill="white" stroke="black" points="272,-201.5 272,-231.5 393,-231.5 393,-201.5 272,-201.5"/>
<text text-anchor="start" x="280" y="-219.5" font-family="Helvetica,sans-Serif" font-size="10.00">C:/dev/Igor/src/Igor</text>
<text text-anchor="middle" x="332.5" y="-208.5" font-family="Helvetica,sans-Serif" font-size="10.00">/src/iContouringCubes.h</text>
</a>
</g>
</g>
<!-- Node1&#45;&gt;Node2 -->
<g id="edge1" class="edge"><title>Node1&#45;&gt;Node2</title>
<path fill="none" stroke="midnightblue" d="M1073.38,-277.547C924.083,-265.446 542.177,-234.494 393.256,-222.424"/>
<polygon fill="midnightblue" stroke="midnightblue" points="1073.47,-281.065 1083.72,-278.385 1074.04,-274.088 1073.47,-281.065"/>
</g>
<!-- Node5 -->
<g id="node5" class="node"><title>Node5</title>
<g id="a_node5"><a xlink:href="i_voxel_terrain_mesh_generator_8cpp.html" target="_top" xlink:title="C:/dev/Igor/src/Igor\l/src/iVoxelTerrainMeshGenerator.cpp">
<polygon fill="white" stroke="black" points="329.5,-134.5 329.5,-164.5 507.5,-164.5 507.5,-134.5 329.5,-134.5"/>
<text text-anchor="start" x="337.5" y="-152.5" font-family="Helvetica,sans-Serif" font-size="10.00">C:/dev/Igor/src/Igor</text>
<text text-anchor="middle" x="418.5" y="-141.5" font-family="Helvetica,sans-Serif" font-size="10.00">/src/iVoxelTerrainMeshGenerator.cpp</text>
</a>
</g>
</g>
<!-- Node1&#45;&gt;Node5 -->
<g id="edge34" class="edge"><title>Node1&#45;&gt;Node5</title>
<path fill="none" stroke="midnightblue" d="M1073.79,-279.477C986.006,-274.268 818.862,-261.209 679.5,-232 597.961,-214.91 505.557,-182.949 455.505,-164.539"/>
<polygon fill="midnightblue" stroke="midnightblue" points="1073.65,-282.974 1083.84,-280.059 1074.06,-275.986 1073.65,-282.974"/>
</g>
<!-- Node6 -->
<g id="node6" class="node"><title>Node6</title>
<g id="a_node6"><a xlink:href="i_mesh_builder_8cpp.html" target="_top" xlink:title="C:/dev/Igor/src/Igor\l/src/iMeshBuilder.cpp">
<polygon fill="white" stroke="black" points="907,-201.5 907,-231.5 1018,-231.5 1018,-201.5 907,-201.5"/>
<text text-anchor="start" x="915" y="-219.5" font-family="Helvetica,sans-Serif" font-size="10.00">C:/dev/Igor/src/Igor</text>
<text text-anchor="middle" x="962.5" y="-208.5" font-family="Helvetica,sans-Serif" font-size="10.00">/src/iMeshBuilder.cpp</text>
</a>
</g>
</g>
<!-- Node1&#45;&gt;Node6 -->
<g id="edge5" class="edge"><title>Node1&#45;&gt;Node6</title>
<path fill="none" stroke="midnightblue" d="M1087.71,-264.819C1060.07,-254.371 1025.54,-241.323 999.749,-231.577"/>
<polygon fill="midnightblue" stroke="midnightblue" points="1086.59,-268.135 1097.18,-268.396 1089.06,-261.587 1086.59,-268.135"/>
</g>
<!-- Node7 -->
<g id="node7" class="node"><title>Node7</title>
<g id="a_node7"><a xlink:href="i_mesh_builder_utils_8h.html" target="_top" xlink:title="C:/dev/Igor/src/Igor\l/src/iMeshBuilderUtils.h">
<polygon fill="white" stroke="black" points="1074.5,-201.5 1074.5,-231.5 1194.5,-231.5 1194.5,-201.5 1074.5,-201.5"/>
<text text-anchor="start" x="1082.5" y="-219.5" font-family="Helvetica,sans-Serif" font-size="10.00">C:/dev/Igor/src/Igor</text>
<text text-anchor="middle" x="1134.5" y="-208.5" font-family="Helvetica,sans-Serif" font-size="10.00">/src/iMeshBuilderUtils.h</text>
</a>
</g>
</g>
<!-- Node1&#45;&gt;Node7 -->
<g id="edge6" class="edge"><title>Node1&#45;&gt;Node7</title>
<path fill="none" stroke="midnightblue" d="M1134.5,-258.108C1134.5,-249.154 1134.5,-239.323 1134.5,-231.577"/>
<polygon fill="midnightblue" stroke="midnightblue" points="1131,-258.396 1134.5,-268.396 1138,-258.396 1131,-258.396"/>
</g>
<!-- Node9 -->
<g id="node9" class="node"><title>Node9</title>
<g id="a_node9"><a xlink:href="_manipulator_8cpp.html" target="_top" xlink:title="C:/dev/Igor/src/Tools\l/ModelViewer/src/Manipulator.cpp">
<polygon fill="white" stroke="black" points="841.5,-134.5 841.5,-164.5 1005.5,-164.5 1005.5,-134.5 841.5,-134.5"/>
<text text-anchor="start" x="849.5" y="-152.5" font-family="Helvetica,sans-Serif" font-size="10.00">C:/dev/Igor/src/Tools</text>
<text text-anchor="middle" x="923.5" y="-141.5" font-family="Helvetica,sans-Serif" font-size="10.00">/ModelViewer/src/Manipulator.cpp</text>
</a>
</g>
</g>
<!-- Node1&#45;&gt;Node9 -->
<g id="edge35" class="edge"><title>Node1&#45;&gt;Node9</title>
<path fill="none" stroke="midnightblue" d="M1106.43,-262.341C1093.83,-253.194 1078.83,-242.169 1065.5,-232 1047.9,-218.57 1045.22,-212.831 1026.5,-201 1004.28,-186.953 977.589,-173.966 956.946,-164.68"/>
<polygon fill="midnightblue" stroke="midnightblue" points="1104.56,-265.313 1114.72,-268.34 1108.67,-259.642 1104.56,-265.313"/>
</g>
<!-- Node10 -->
<g id="node10" class="node"><title>Node10</title>
<g id="a_node10"><a xlink:href="_widget3_d_emitter_8cpp.html" target="_top" xlink:title="C:/dev/Igor/src/Tools\l/ModelViewer/src/Widget3DEmitter.cpp">
<polygon fill="white" stroke="black" points="1173.5,-134.5 1173.5,-164.5 1361.5,-164.5 1361.5,-134.5 1173.5,-134.5"/>
<text text-anchor="start" x="1181.5" y="-152.5" font-family="Helvetica,sans-Serif" font-size="10.00">C:/dev/Igor/src/Tools</text>
<text text-anchor="middle" x="1267.5" y="-141.5" font-family="Helvetica,sans-Serif" font-size="10.00">/ModelViewer/src/Widget3DEmitter.cpp</text>
</a>
</g>
</g>
<!-- Node1&#45;&gt;Node10 -->
<g id="edge36" class="edge"><title>Node1&#45;&gt;Node10</title>
<path fill="none" stroke="midnightblue" d="M1165.16,-262.764C1177.66,-254.046 1191.88,-243.233 1203.5,-232 1225.49,-210.743 1246.5,-181.778 1258.13,-164.717"/>
<polygon fill="midnightblue" stroke="midnightblue" points="1163.12,-259.918 1156.83,-268.444 1167.07,-265.701 1163.12,-259.918"/>
</g>
<!-- Node11 -->
<g id="node11" class="node"><title>Node11</title>
<g id="a_node11"><a xlink:href="_widget3_d_locator_8cpp.html" target="_top" xlink:title="C:/dev/Igor/src/Tools\l/ModelViewer/src/Widget3DLocator.cpp">
<polygon fill="white" stroke="black" points="1379.5,-134.5 1379.5,-164.5 1567.5,-164.5 1567.5,-134.5 1379.5,-134.5"/>
<text text-anchor="start" x="1387.5" y="-152.5" font-family="Helvetica,sans-Serif" font-size="10.00">C:/dev/Igor/src/Tools</text>
<text text-anchor="middle" x="1473.5" y="-141.5" font-family="Helvetica,sans-Serif" font-size="10.00">/ModelViewer/src/Widget3DLocator.cpp</text>
</a>
</g>
</g>
<!-- Node1&#45;&gt;Node11 -->
<g id="edge37" class="edge"><title>Node1&#45;&gt;Node11</title>
<path fill="none" stroke="midnightblue" d="M1172.41,-263.8C1190.51,-254.609 1212.35,-243.135 1231.5,-232 1253.45,-219.234 1256.25,-211.217 1279.5,-201 1316.78,-184.618 1360.5,-172.662 1397,-164.508"/>
<polygon fill="midnightblue" stroke="midnightblue" points="1170.67,-260.757 1163.32,-268.385 1173.82,-267.007 1170.67,-260.757"/>
</g>
<!-- Node12 -->
<g id="node12" class="node"><title>Node12</title>
<g id="a_node12"><a xlink:href="i_model_data_i_o_o_b_j_8h.html" target="_top" xlink:title="C:/dev/Igor/src/Igor\l/src/iModelDataIOOBJ.h">
<polygon fill="white" stroke="black" points="688.5,-201.5 688.5,-231.5 810.5,-231.5 810.5,-201.5 688.5,-201.5"/>
<text text-anchor="start" x="696.5" y="-219.5" font-family="Helvetica,sans-Serif" font-size="10.00">C:/dev/Igor/src/Igor</text>
<text text-anchor="middle" x="749.5" y="-208.5" font-family="Helvetica,sans-Serif" font-size="10.00">/src/iModelDataIOOBJ.h</text>
</a>
</g>
</g>
<!-- Node1&#45;&gt;Node12 -->
<g id="edge11" class="edge"><title>Node1&#45;&gt;Node12</title>
<path fill="none" stroke="midnightblue" d="M1073.5,-272.202C1001.51,-260.047 882.503,-239.955 810.505,-227.8"/>
<polygon fill="midnightblue" stroke="midnightblue" points="1073.33,-275.722 1083.77,-273.936 1074.49,-268.82 1073.33,-275.722"/>
</g>
<!-- Node26 -->
<g id="node26" class="node"><title>Node26</title>
<g id="a_node26"><a xlink:href="i_model_data_i_o_o_m_p_f_8cpp.html" target="_top" xlink:title="C:/dev/Igor/src/Igor\l/src/iModelDataIOOMPF.cpp">
<polygon fill="white" stroke="black" points="1288.5,-201.5 1288.5,-231.5 1430.5,-231.5 1430.5,-201.5 1288.5,-201.5"/>
<text text-anchor="start" x="1296.5" y="-219.5" font-family="Helvetica,sans-Serif" font-size="10.00">C:/dev/Igor/src/Igor</text>
<text text-anchor="middle" x="1359.5" y="-208.5" font-family="Helvetica,sans-Serif" font-size="10.00">/src/iModelDataIOOMPF.cpp</text>
</a>
</g>
</g>
<!-- Node1&#45;&gt;Node26 -->
<g id="edge27" class="edge"><title>Node1&#45;&gt;Node26</title>
<path fill="none" stroke="midnightblue" d="M1193.07,-265.58C1229.61,-255.022 1276.1,-241.592 1310.65,-231.611"/>
<polygon fill="midnightblue" stroke="midnightblue" points="1191.68,-262.338 1183.04,-268.476 1193.62,-269.063 1191.68,-262.338"/>
</g>
<!-- Node27 -->
<g id="node27" class="node"><title>Node27</title>
<g id="a_node27"><a xlink:href="i_simple_cubes_8h.html" target="_top" xlink:title="C:/dev/Igor/src/Igor\l/src/iSimpleCubes.h">
<polygon fill="white" stroke="black" points="1542.5,-201.5 1542.5,-231.5 1646.5,-231.5 1646.5,-201.5 1542.5,-201.5"/>
<text text-anchor="start" x="1550.5" y="-219.5" font-family="Helvetica,sans-Serif" font-size="10.00">C:/dev/Igor/src/Igor</text>
<text text-anchor="middle" x="1594.5" y="-208.5" font-family="Helvetica,sans-Serif" font-size="10.00">/src/iSimpleCubes.h</text>
</a>
</g>
</g>
<!-- Node1&#45;&gt;Node27 -->
<g id="edge28" class="edge"><title>Node1&#45;&gt;Node27</title>
<path fill="none" stroke="midnightblue" d="M1195.21,-273.921C1286.3,-261.051 1456.75,-236.965 1542.46,-224.853"/>
<polygon fill="midnightblue" stroke="midnightblue" points="1194.46,-270.493 1185.04,-275.358 1195.44,-277.424 1194.46,-270.493"/>
</g>
<!-- Node29 -->
<g id="node29" class="node"><title>Node29</title>
<g id="a_node29"><a xlink:href="i_sky_light_node_8h.html" target="_top" xlink:title="C:/dev/Igor/src/Igor\l/src/iSkyLightNode.h">
<polygon fill="white" stroke="black" points="1789,-201.5 1789,-231.5 1896,-231.5 1896,-201.5 1789,-201.5"/>
<text text-anchor="start" x="1797" y="-219.5" font-family="Helvetica,sans-Serif" font-size="10.00">C:/dev/Igor/src/Igor</text>
<text text-anchor="middle" x="1842.5" y="-208.5" font-family="Helvetica,sans-Serif" font-size="10.00">/src/iSkyLightNode.h</text>
</a>
</g>
</g>
<!-- Node1&#45;&gt;Node29 -->
<g id="edge30" class="edge"><title>Node1&#45;&gt;Node29</title>
<path fill="none" stroke="midnightblue" d="M1195.38,-276.91C1331.62,-264.402 1659.23,-234.325 1788.62,-222.446"/>
<polygon fill="midnightblue" stroke="midnightblue" points="1194.77,-273.452 1185.13,-277.851 1195.41,-280.422 1194.77,-273.452"/>
</g>
<!-- Node3 -->
<g id="node3" class="node"><title>Node3</title>
<g id="a_node3"><a xlink:href="i_contouring_cubes_8cpp.html" target="_top" xlink:title="C:/dev/Igor/src/Igor\l/src/iContouringCubes.cpp">
<polygon fill="white" stroke="black" points="180,-134.5 180,-164.5 311,-164.5 311,-134.5 180,-134.5"/>
<text text-anchor="start" x="188" y="-152.5" font-family="Helvetica,sans-Serif" font-size="10.00">C:/dev/Igor/src/Igor</text>
<text text-anchor="middle" x="245.5" y="-141.5" font-family="Helvetica,sans-Serif" font-size="10.00">/src/iContouringCubes.cpp</text>
</a>
</g>
</g>
<!-- Node2&#45;&gt;Node3 -->
<g id="edge2" class="edge"><title>Node2&#45;&gt;Node3</title>
<path fill="none" stroke="midnightblue" d="M305.286,-195.168C291.982,-185.228 276.304,-173.514 264.341,-164.577"/>
<polygon fill="midnightblue" stroke="midnightblue" points="303.516,-198.215 313.622,-201.396 307.706,-192.607 303.516,-198.215"/>
</g>
<!-- Node4 -->
<g id="node4" class="node"><title>Node4</title>
<g id="a_node4"><a xlink:href="i_voxel_terrain_8cpp.html" target="_top" xlink:title="C:/dev/Igor/src/Igor\l/src/iVoxelTerrain.cpp">
<polygon fill="white" stroke="black" points="0,-67.5 0,-97.5 111,-97.5 111,-67.5 0,-67.5"/>
<text text-anchor="start" x="8" y="-85.5" font-family="Helvetica,sans-Serif" font-size="10.00">C:/dev/Igor/src/Igor</text>
<text text-anchor="middle" x="55.5" y="-74.5" font-family="Helvetica,sans-Serif" font-size="10.00">/src/iVoxelTerrain.cpp</text>
</a>
</g>
</g>
<!-- Node2&#45;&gt;Node4 -->
<g id="edge3" class="edge"><title>Node2&#45;&gt;Node4</title>
<path fill="none" stroke="midnightblue" d="M262.197,-198.789C233.023,-190.539 199.325,-179.258 170.5,-165 132.554,-146.23 93.3763,-115.609 71.9606,-97.7269"/>
<polygon fill="midnightblue" stroke="midnightblue" points="261.333,-202.181 271.904,-201.47 263.197,-195.434 261.333,-202.181"/>
</g>
<!-- Node2&#45;&gt;Node5 -->
<g id="edge4" class="edge"><title>Node2&#45;&gt;Node5</title>
<path fill="none" stroke="midnightblue" d="M359.401,-195.168C372.552,-185.228 388.05,-173.514 399.876,-164.577"/>
<polygon fill="midnightblue" stroke="midnightblue" points="357.028,-192.574 351.161,-201.396 361.249,-198.158 357.028,-192.574"/>
</g>
<!-- Node8 -->
<g id="node8" class="node"><title>Node8</title>
<g id="a_node8"><a xlink:href="i_mesh_builder_utils_8cpp.html" target="_top" xlink:title="C:/dev/Igor/src/Igor\l/src/iMeshBuilderUtils.cpp">
<polygon fill="white" stroke="black" points="1024,-134.5 1024,-164.5 1155,-164.5 1155,-134.5 1024,-134.5"/>
<text text-anchor="start" x="1032" y="-152.5" font-family="Helvetica,sans-Serif" font-size="10.00">C:/dev/Igor/src/Igor</text>
<text text-anchor="middle" x="1089.5" y="-141.5" font-family="Helvetica,sans-Serif" font-size="10.00">/src/iMeshBuilderUtils.cpp</text>
</a>
</g>
</g>
<!-- Node7&#45;&gt;Node8 -->
<g id="edge7" class="edge"><title>Node7&#45;&gt;Node8</title>
<path fill="none" stroke="midnightblue" d="M1119.03,-193.157C1112.47,-183.679 1105.02,-172.919 1099.25,-164.577"/>
<polygon fill="midnightblue" stroke="midnightblue" points="1116.17,-195.166 1124.74,-201.396 1121.92,-191.182 1116.17,-195.166"/>
</g>
<!-- Node7&#45;&gt;Node9 -->
<g id="edge8" class="edge"><title>Node7&#45;&gt;Node9</title>
<path fill="none" stroke="midnightblue" d="M1079.13,-198.444C1044.93,-187.908 1001.57,-174.549 969.306,-164.611"/>
<polygon fill="midnightblue" stroke="midnightblue" points="1078.39,-201.877 1088.98,-201.476 1080.45,-195.187 1078.39,-201.877"/>
</g>
<!-- Node7&#45;&gt;Node10 -->
<g id="edge9" class="edge"><title>Node7&#45;&gt;Node10</title>
<path fill="none" stroke="midnightblue" d="M1172.37,-196.992C1193.45,-186.689 1219.28,-174.068 1238.7,-164.577"/>
<polygon fill="midnightblue" stroke="midnightblue" points="1170.81,-193.86 1163.36,-201.396 1173.88,-200.15 1170.81,-193.86"/>
</g>
<!-- Node7&#45;&gt;Node11 -->
<g id="edge10" class="edge"><title>Node7&#45;&gt;Node11</title>
<path fill="none" stroke="midnightblue" d="M1204.75,-202.03C1261.91,-191.07 1342.32,-175.652 1400.27,-164.541"/>
<polygon fill="midnightblue" stroke="midnightblue" points="1203.88,-198.634 1194.72,-203.954 1205.2,-205.508 1203.88,-198.634"/>
</g>
<!-- Node13 -->
<g id="node13" class="node"><title>Node13</title>
<g id="a_node13"><a xlink:href="i_model_data_i_o_o_b_j_8cpp.html" target="_top" xlink:title="C:/dev/Igor/src/Igor\l/src/iModelDataIOOBJ.cpp">
<polygon fill="white" stroke="black" points="525.5,-134.5 525.5,-164.5 657.5,-164.5 657.5,-134.5 525.5,-134.5"/>
<text text-anchor="start" x="533.5" y="-152.5" font-family="Helvetica,sans-Serif" font-size="10.00">C:/dev/Igor/src/Igor</text>
<text text-anchor="middle" x="591.5" y="-141.5" font-family="Helvetica,sans-Serif" font-size="10.00">/src/iModelDataIOOBJ.cpp</text>
</a>
</g>
</g>
<!-- Node12&#45;&gt;Node13 -->
<g id="edge12" class="edge"><title>Node12&#45;&gt;Node13</title>
<path fill="none" stroke="midnightblue" d="M705.854,-197.544C680.571,-187.143 649.202,-174.238 625.717,-164.577"/>
<polygon fill="midnightblue" stroke="midnightblue" points="704.637,-200.828 715.216,-201.396 707.3,-194.355 704.637,-200.828"/>
</g>
<!-- Node14 -->
<g id="node14" class="node"><title>Node14</title>
<g id="a_node14"><a xlink:href="i_model_resource_factory_8h.html" target="_top" xlink:title="C:/dev/Igor/src/Igor\l/src/iModelResourceFactory.h">
<polygon fill="white" stroke="black" points="676,-134.5 676,-164.5 823,-164.5 823,-134.5 676,-134.5"/>
<text text-anchor="start" x="684" y="-152.5" font-family="Helvetica,sans-Serif" font-size="10.00">C:/dev/Igor/src/Igor</text>
<text text-anchor="middle" x="749.5" y="-141.5" font-family="Helvetica,sans-Serif" font-size="10.00">/src/iModelResourceFactory.h</text>
</a>
</g>
</g>
<!-- Node12&#45;&gt;Node14 -->
<g id="edge13" class="edge"><title>Node12&#45;&gt;Node14</title>
<path fill="none" stroke="midnightblue" d="M749.5,-191.108C749.5,-182.154 749.5,-172.323 749.5,-164.577"/>
<polygon fill="midnightblue" stroke="midnightblue" points="746,-191.396 749.5,-201.396 753,-191.396 746,-191.396"/>
</g>
<!-- Node14&#45;&gt;Node4 -->
<g id="edge21" class="edge"><title>Node14&#45;&gt;Node4</title>
<path fill="none" stroke="midnightblue" d="M665.613,-133.996C423.26,-105.774 357.932,-132.104 120.5,-98 117.41,-97.5562 114.249,-97.0446 111.066,-96.4847"/>
<polygon fill="midnightblue" stroke="midnightblue" points="665.452,-137.502 675.794,-135.202 666.275,-130.55 665.452,-137.502"/>
</g>
<!-- Node15 -->
<g id="node15" class="node"><title>Node15</title>
<g id="a_node15"><a xlink:href="_igor_8cpp.html" target="_top" xlink:title="C:/dev/Igor/src/Igor\l/src/Igor.cpp">
<polygon fill="white" stroke="black" points="1099.5,-67.5 1099.5,-97.5 1197.5,-97.5 1197.5,-67.5 1099.5,-67.5"/>
<text text-anchor="start" x="1107.5" y="-85.5" font-family="Helvetica,sans-Serif" font-size="10.00">C:/dev/Igor/src/Igor</text>
<text text-anchor="middle" x="1148.5" y="-74.5" font-family="Helvetica,sans-Serif" font-size="10.00">/src/Igor.cpp</text>
</a>
</g>
</g>
<!-- Node14&#45;&gt;Node15 -->
<g id="edge14" class="edge"><title>Node14&#45;&gt;Node15</title>
<path fill="none" stroke="midnightblue" d="M833.144,-133.942C948.128,-116.257 979.337,-119.196 1089.5,-98 1092.71,-97.3822 1096.01,-96.7014 1099.33,-95.9819"/>
<polygon fill="midnightblue" stroke="midnightblue" points="832.587,-130.487 823.245,-135.484 833.664,-137.403 832.587,-130.487"/>
</g>
<!-- Node16 -->
<g id="node16" class="node"><title>Node16</title>
<g id="a_node16"><a xlink:href="i_model_resource_factory_8cpp.html" target="_top" xlink:title="C:/dev/Igor/src/Igor\l/src/iModelResourceFactory.cpp">
<polygon fill="white" stroke="black" points="1215.5,-67.5 1215.5,-97.5 1373.5,-97.5 1373.5,-67.5 1215.5,-67.5"/>
<text text-anchor="start" x="1223.5" y="-85.5" font-family="Helvetica,sans-Serif" font-size="10.00">C:/dev/Igor/src/Igor</text>
<text text-anchor="middle" x="1294.5" y="-74.5" font-family="Helvetica,sans-Serif" font-size="10.00">/src/iModelResourceFactory.cpp</text>
</a>
</g>
</g>
<!-- Node14&#45;&gt;Node16 -->
<g id="edge15" class="edge"><title>Node14&#45;&gt;Node16</title>
<path fill="none" stroke="midnightblue" d="M833.312,-133.965C999.707,-111.915 1044.14,-119.165 1206.5,-98 1209.42,-97.6197 1212.39,-97.216 1215.38,-96.7944"/>
<polygon fill="midnightblue" stroke="midnightblue" points="832.667,-130.52 823.22,-135.318 833.597,-137.458 832.667,-130.52"/>
</g>
<!-- Node17 -->
<g id="node17" class="node"><title>Node17</title>
<g id="a_node17"><a xlink:href="i_node_mesh_8cpp.html" target="_top" xlink:title="C:/dev/Igor/src/Igor\l/src/iNodeMesh.cpp">
<polygon fill="white" stroke="black" points="1391.5,-67.5 1391.5,-97.5 1495.5,-97.5 1495.5,-67.5 1391.5,-67.5"/>
<text text-anchor="start" x="1399.5" y="-85.5" font-family="Helvetica,sans-Serif" font-size="10.00">C:/dev/Igor/src/Igor</text>
<text text-anchor="middle" x="1443.5" y="-74.5" font-family="Helvetica,sans-Serif" font-size="10.00">/src/iNodeMesh.cpp</text>
</a>
</g>
</g>
<!-- Node14&#45;&gt;Node17 -->
<g id="edge16" class="edge"><title>Node14&#45;&gt;Node17</title>
<path fill="none" stroke="midnightblue" d="M833.458,-133.99C1077.53,-105.676 1143.57,-133.956 1382.5,-98 1385.41,-97.5626 1388.38,-97.0562 1391.37,-96.5002"/>
<polygon fill="midnightblue" stroke="midnightblue" points="832.726,-130.552 823.205,-135.2 833.547,-137.503 832.726,-130.552"/>
</g>
<!-- Node18 -->
<g id="node18" class="node"><title>Node18</title>
<g id="a_node18"><a xlink:href="i_node_model_8cpp.html" target="_top" xlink:title="C:/dev/Igor/src/Igor\l/src/iNodeModel.cpp">
<polygon fill="white" stroke="black" points="129.5,-67.5 129.5,-97.5 235.5,-97.5 235.5,-67.5 129.5,-67.5"/>
<text text-anchor="start" x="137.5" y="-85.5" font-family="Helvetica,sans-Serif" font-size="10.00">C:/dev/Igor/src/Igor</text>
<text text-anchor="middle" x="182.5" y="-74.5" font-family="Helvetica,sans-Serif" font-size="10.00">/src/iNodeModel.cpp</text>
</a>
</g>
</g>
<!-- Node14&#45;&gt;Node18 -->
<g id="edge17" class="edge"><title>Node14&#45;&gt;Node18</title>
<path fill="none" stroke="midnightblue" d="M665.865,-134.006C478.099,-110.372 427.232,-127.006 244.5,-98 241.552,-97.5321 238.537,-97.0016 235.5,-96.4269"/>
<polygon fill="midnightblue" stroke="midnightblue" points="665.422,-137.478 675.785,-135.276 666.31,-130.534 665.422,-137.478"/>
</g>
<!-- Node19 -->
<g id="node19" class="node"><title>Node19</title>
<g id="a_node19"><a xlink:href="i_resource_manager_8cpp.html" target="_top" xlink:title="C:/dev/Igor/src/Igor\l/src/iResourceManager.cpp">
<polygon fill="white" stroke="black" points="253.5,-67.5 253.5,-97.5 389.5,-97.5 389.5,-67.5 253.5,-67.5"/>
<text text-anchor="start" x="261.5" y="-85.5" font-family="Helvetica,sans-Serif" font-size="10.00">C:/dev/Igor/src/Igor</text>
<text text-anchor="middle" x="321.5" y="-74.5" font-family="Helvetica,sans-Serif" font-size="10.00">/src/iResourceManager.cpp</text>
</a>
</g>
</g>
<!-- Node14&#45;&gt;Node19 -->
<g id="edge18" class="edge"><title>Node14&#45;&gt;Node19</title>
<path fill="none" stroke="midnightblue" d="M665.831,-133.939C546.054,-115.719 514.021,-116.623 398.5,-98 395.68,-97.5454 392.804,-97.0677 389.901,-96.574"/>
<polygon fill="midnightblue" stroke="midnightblue" points="665.343,-137.405 675.759,-135.462 666.405,-130.486 665.343,-137.405"/>
</g>
<!-- Node20 -->
<g id="node20" class="node"><title>Node20</title>
<g id="a_node20"><a xlink:href="i_task_flush_models_8cpp.html" target="_top" xlink:title="C:/dev/Igor/src/Igor\l/src/iTaskFlushModels.cpp">
<polygon fill="white" stroke="black" points="407.5,-67.5 407.5,-97.5 541.5,-97.5 541.5,-67.5 407.5,-67.5"/>
<text text-anchor="start" x="415.5" y="-85.5" font-family="Helvetica,sans-Serif" font-size="10.00">C:/dev/Igor/src/Igor</text>
<text text-anchor="middle" x="474.5" y="-74.5" font-family="Helvetica,sans-Serif" font-size="10.00">/src/iTaskFlushModels.cpp</text>
</a>
</g>
</g>
<!-- Node14&#45;&gt;Node20 -->
<g id="edge19" class="edge"><title>Node14&#45;&gt;Node20</title>
<path fill="none" stroke="midnightblue" d="M680.194,-132.119C635.196,-121.483 577.15,-107.763 534.2,-97.6109"/>
<polygon fill="midnightblue" stroke="midnightblue" points="679.631,-135.582 690.168,-134.476 681.241,-128.77 679.631,-135.582"/>
</g>
<!-- Node21 -->
<g id="node21" class="node"><title>Node21</title>
<g id="a_node21"><a xlink:href="i_task_load_model_8cpp.html" target="_top" xlink:title="C:/dev/Igor/src/Igor\l/src/iTaskLoadModel.cpp">
<polygon fill="white" stroke="black" points="560,-67.5 560,-97.5 685,-97.5 685,-67.5 560,-67.5"/>
<text text-anchor="start" x="568" y="-85.5" font-family="Helvetica,sans-Serif" font-size="10.00">C:/dev/Igor/src/Igor</text>
<text text-anchor="middle" x="622.5" y="-74.5" font-family="Helvetica,sans-Serif" font-size="10.00">/src/iTaskLoadModel.cpp</text>
</a>
</g>
</g>
<!-- Node14&#45;&gt;Node21 -->
<g id="edge20" class="edge"><title>Node14&#45;&gt;Node21</title>
<path fill="none" stroke="midnightblue" d="M712.796,-129.714C692.766,-119.463 668.381,-106.983 650.003,-97.5765"/>
<polygon fill="midnightblue" stroke="midnightblue" points="711.446,-132.956 721.943,-134.396 714.636,-126.724 711.446,-132.956"/>
</g>
<!-- Node22 -->
<g id="node22" class="node"><title>Node22</title>
<g id="a_node22"><a xlink:href="_model_viewer_8h.html" target="_top" xlink:title="C:/dev/Igor/src/Tools\l/ModelViewer/src/ModelViewer.h">
<polygon fill="white" stroke="black" points="703.5,-67.5 703.5,-97.5 861.5,-97.5 861.5,-67.5 703.5,-67.5"/>
<text text-anchor="start" x="711.5" y="-85.5" font-family="Helvetica,sans-Serif" font-size="10.00">C:/dev/Igor/src/Tools</text>
<text text-anchor="middle" x="782.5" y="-74.5" font-family="Helvetica,sans-Serif" font-size="10.00">/ModelViewer/src/ModelViewer.h</text>
</a>
</g>
</g>
<!-- Node14&#45;&gt;Node22 -->
<g id="edge22" class="edge"><title>Node14&#45;&gt;Node22</title>
<path fill="none" stroke="midnightblue" d="M761.287,-125.283C765.989,-116.022 771.248,-105.663 775.353,-97.5765"/>
<polygon fill="midnightblue" stroke="midnightblue" points="758.067,-123.895 756.661,-134.396 764.308,-127.064 758.067,-123.895"/>
</g>
<!-- Node24 -->
<g id="node24" class="node"><title>Node24</title>
<g id="a_node24"><a xlink:href="_model_viewer_8cpp.html" target="_top" xlink:title="C:/dev/Igor/src/Tools\l/ModelViewer/src/ModelViewer.cpp">
<polygon fill="white" stroke="black" points="805,-0.5 805,-30.5 974,-30.5 974,-0.5 805,-0.5"/>
<text text-anchor="start" x="813" y="-18.5" font-family="Helvetica,sans-Serif" font-size="10.00">C:/dev/Igor/src/Tools</text>
<text text-anchor="middle" x="889.5" y="-7.5" font-family="Helvetica,sans-Serif" font-size="10.00">/ModelViewer/src/ModelViewer.cpp</text>
</a>
</g>
</g>
<!-- Node14&#45;&gt;Node24 -->
<g id="edge25" class="edge"><title>Node14&#45;&gt;Node24</title>
<path fill="none" stroke="midnightblue" d="M822.512,-130.818C840.4,-123.339 857.979,-112.798 870.5,-98 886.735,-78.8121 889.704,-48.3384 889.923,-30.5951"/>
<polygon fill="midnightblue" stroke="midnightblue" points="821.207,-127.57 813.155,-134.456 823.744,-134.094 821.207,-127.57"/>
</g>
<!-- Node25 -->
<g id="node25" class="node"><title>Node25</title>
<g id="a_node25"><a xlink:href="_o_b_j2_o_m_p_f_8cpp.html" target="_top" xlink:title="C:/dev/Igor/src/Tools\l/OBJ2OMPF/src/OBJ2OMPF.cpp">
<polygon fill="white" stroke="black" points="918,-67.5 918,-97.5 1081,-97.5 1081,-67.5 918,-67.5"/>
<text text-anchor="start" x="926" y="-85.5" font-family="Helvetica,sans-Serif" font-size="10.00">C:/dev/Igor/src/Tools</text>
<text text-anchor="middle" x="999.5" y="-74.5" font-family="Helvetica,sans-Serif" font-size="10.00">/OBJ2OMPF/src/OBJ2OMPF.cpp</text>
</a>
</g>
</g>
<!-- Node14&#45;&gt;Node25 -->
<g id="edge26" class="edge"><title>Node14&#45;&gt;Node25</title>
<path fill="none" stroke="midnightblue" d="M813.28,-131.917C854.077,-121.31 906.428,-107.699 945.227,-97.6109"/>
<polygon fill="midnightblue" stroke="midnightblue" points="812.236,-128.572 803.438,-134.476 813.997,-135.347 812.236,-128.572"/>
</g>
<!-- Node23 -->
<g id="node23" class="node"><title>Node23</title>
<g id="a_node23"><a xlink:href="_model_viewer_2src_2main_8cpp.html" target="_top" xlink:title="C:/dev/Igor/src/Tools\l/ModelViewer/src/main.cpp">
<polygon fill="white" stroke="black" points="652.5,-0.5 652.5,-30.5 786.5,-30.5 786.5,-0.5 652.5,-0.5"/>
<text text-anchor="start" x="660.5" y="-18.5" font-family="Helvetica,sans-Serif" font-size="10.00">C:/dev/Igor/src/Tools</text>
<text text-anchor="middle" x="719.5" y="-7.5" font-family="Helvetica,sans-Serif" font-size="10.00">/ModelViewer/src/main.cpp</text>
</a>
</g>
</g>
<!-- Node22&#45;&gt;Node23 -->
<g id="edge23" class="edge"><title>Node22&#45;&gt;Node23</title>
<path fill="none" stroke="midnightblue" d="M761.685,-60.0243C752.299,-50.3398 741.476,-39.1739 733.143,-30.5765"/>
<polygon fill="midnightblue" stroke="midnightblue" points="759.357,-62.6512 768.83,-67.396 764.383,-57.7793 759.357,-62.6512"/>
</g>
<!-- Node22&#45;&gt;Node24 -->
<g id="edge24" class="edge"><title>Node22&#45;&gt;Node24</title>
<path fill="none" stroke="midnightblue" d="M814.575,-62.0151C831.226,-51.8999 851.194,-39.7698 866.328,-30.5765"/>
<polygon fill="midnightblue" stroke="midnightblue" points="812.447,-59.2127 805.717,-67.396 816.081,-65.1954 812.447,-59.2127"/>
</g>
<!-- Node28 -->
<g id="node28" class="node"><title>Node28</title>
<g id="a_node28"><a xlink:href="i_simple_cubes_8cpp.html" target="_top" xlink:title="C:/dev/Igor/src/Igor\l/src/iSimpleCubes.cpp">
<polygon fill="white" stroke="black" points="1586,-134.5 1586,-164.5 1701,-164.5 1701,-134.5 1586,-134.5"/>
<text text-anchor="start" x="1594" y="-152.5" font-family="Helvetica,sans-Serif" font-size="10.00">C:/dev/Igor/src/Igor</text>
<text text-anchor="middle" x="1643.5" y="-141.5" font-family="Helvetica,sans-Serif" font-size="10.00">/src/iSimpleCubes.cpp</text>
</a>
</g>
</g>
<!-- Node27&#45;&gt;Node28 -->
<g id="edge29" class="edge"><title>Node27&#45;&gt;Node28</title>
<path fill="none" stroke="midnightblue" d="M1611.34,-193.157C1618.49,-183.679 1626.6,-172.919 1632.89,-164.577"/>
<polygon fill="midnightblue" stroke="midnightblue" points="1608.36,-191.304 1605.13,-201.396 1613.95,-195.518 1608.36,-191.304"/>
</g>
<!-- Node30 -->
<g id="node30" class="node"><title>Node30</title>
<g id="a_node30"><a xlink:href="i_node_factory_8cpp.html" target="_top" xlink:title="C:/dev/Igor/src/Igor\l/src/iNodeFactory.cpp">
<polygon fill="white" stroke="black" points="1719,-134.5 1719,-164.5 1832,-164.5 1832,-134.5 1719,-134.5"/>
<text text-anchor="start" x="1727" y="-152.5" font-family="Helvetica,sans-Serif" font-size="10.00">C:/dev/Igor/src/Igor</text>
<text text-anchor="middle" x="1775.5" y="-141.5" font-family="Helvetica,sans-Serif" font-size="10.00">/src/iNodeFactory.cpp</text>
</a>
</g>
</g>
<!-- Node29&#45;&gt;Node30 -->
<g id="edge31" class="edge"><title>Node29&#45;&gt;Node30</title>
<path fill="none" stroke="midnightblue" d="M1820.66,-194.311C1810.61,-184.561 1798.96,-173.259 1790.01,-164.577"/>
<polygon fill="midnightblue" stroke="midnightblue" points="1818.35,-196.945 1827.96,-201.396 1823.22,-191.921 1818.35,-196.945"/>
</g>
<!-- Node31 -->
<g id="node31" class="node"><title>Node31</title>
<g id="a_node31"><a xlink:href="i_sky_light_node_8cpp.html" target="_top" xlink:title="C:/dev/Igor/src/Igor\l/src/iSkyLightNode.cpp">
<polygon fill="white" stroke="black" points="1850.5,-134.5 1850.5,-164.5 1968.5,-164.5 1968.5,-134.5 1850.5,-134.5"/>
<text text-anchor="start" x="1858.5" y="-152.5" font-family="Helvetica,sans-Serif" font-size="10.00">C:/dev/Igor/src/Igor</text>
<text text-anchor="middle" x="1909.5" y="-141.5" font-family="Helvetica,sans-Serif" font-size="10.00">/src/iSkyLightNode.cpp</text>
</a>
</g>
</g>
<!-- Node29&#45;&gt;Node31 -->
<g id="edge32" class="edge"><title>Node29&#45;&gt;Node31</title>
<path fill="none" stroke="midnightblue" d="M1864.34,-194.311C1874.39,-184.561 1886.04,-173.259 1894.99,-164.577"/>
<polygon fill="midnightblue" stroke="midnightblue" points="1861.78,-191.921 1857.04,-201.396 1866.65,-196.945 1861.78,-191.921"/>
</g>
<!-- Node32 -->
<g id="node32" class="node"><title>Node32</title>
<g id="a_node32"><a xlink:href="i_sky_simulation_8cpp.html" target="_top" xlink:title="C:/dev/Igor/src/Igor\l/src/iSkySimulation.cpp">
<polygon fill="white" stroke="black" points="1986.5,-134.5 1986.5,-164.5 2106.5,-164.5 2106.5,-134.5 1986.5,-134.5"/>
<text text-anchor="start" x="1994.5" y="-152.5" font-family="Helvetica,sans-Serif" font-size="10.00">C:/dev/Igor/src/Igor</text>
<text text-anchor="middle" x="2046.5" y="-141.5" font-family="Helvetica,sans-Serif" font-size="10.00">/src/iSkySimulation.cpp</text>
</a>
</g>
</g>
<!-- Node29&#45;&gt;Node32 -->
<g id="edge33" class="edge"><title>Node29&#45;&gt;Node32</title>
<path fill="none" stroke="midnightblue" d="M1896.46,-198.308C1929.46,-187.793 1971.16,-174.507 2002.21,-164.611"/>
<polygon fill="midnightblue" stroke="midnightblue" points="1894.98,-195.105 1886.51,-201.476 1897.1,-201.775 1894.98,-195.105"/>
</g>
</g>
</svg>
