<?xml version="1.0" encoding="UTF-8" standalone="no"?>
<!DOCTYPE svg PUBLIC "-//W3C//DTD SVG 1.1//EN"
 "http://www.w3.org/Graphics/SVG/1.1/DTD/svg11.dtd">
<!-- Generated by graphviz version 2.38.0 (20140413.2041)
 -->
<!-- Title: C:/dev/Igor/src/Igor/src/iModelDataIOOMPF.h Pages: 1 -->
<svg width="1503pt" height="240pt"
 viewBox="0.00 0.00 1502.50 240.00" xmlns="http://www.w3.org/2000/svg" xmlns:xlink="http://www.w3.org/1999/xlink">
<g id="graph0" class="graph" transform="scale(1 1) rotate(0) translate(4 236)">
<title>C:/dev/Igor/src/Igor/src/iModelDataIOOMPF.h</title>
<polygon fill="white" stroke="none" points="-4,4 -4,-236 1498.5,-236 1498.5,4 -4,4"/>
<!-- Node1 -->
<g id="node1" class="node"><title>Node1</title>
<polygon fill="#bfbfbf" stroke="black" points="611.5,-201.5 611.5,-231.5 742.5,-231.5 742.5,-201.5 611.5,-201.5"/>
<text text-anchor="start" x="619.5" y="-219.5" font-family="Helvetica,sans-Serif" font-size="10.00">C:/dev/Igor/src/Igor</text>
<text text-anchor="middle" x="677" y="-208.5" font-family="Helvetica,sans-Serif" font-size="10.00">/src/iModelDataIOOMPF.h</text>
</g>
<!-- Node2 -->
<g id="node2" class="node"><title>Node2</title>
<g id="a_node2"><a xlink:href="i_model_data_i_o_o_m_p_f_8cpp.html" target="_top" xlink:title="C:/dev/Igor/src/Igor\l/src/iModelDataIOOMPF.cpp">
<polygon fill="white" stroke="black" points="525,-134.5 525,-164.5 667,-164.5 667,-134.5 525,-134.5"/>
<text text-anchor="start" x="533" y="-152.5" font-family="Helvetica,sans-Serif" font-size="10.00">C:/dev/Igor/src/Igor</text>
<text text-anchor="middle" x="596" y="-141.5" font-family="Helvetica,sans-Serif" font-size="10.00">/src/iModelDataIOOMPF.cpp</text>
</a>
</g>
</g>
<!-- Node1&#45;&gt;Node2 -->
<g id="edge1" class="edge"><title>Node1&#45;&gt;Node2</title>
<path fill="none" stroke="midnightblue" d="M651.308,-194.883C638.999,-185.005 624.573,-173.429 613.541,-164.577"/>
<polygon fill="midnightblue" stroke="midnightblue" points="649.434,-197.867 659.424,-201.396 653.815,-192.407 649.434,-197.867"/>
</g>
<!-- Node3 -->
<g id="node3" class="node"><title>Node3</title>
<g id="a_node3"><a xlink:href="i_model_resource_factory_8h.html" target="_top" xlink:title="C:/dev/Igor/src/Igor\l/src/iModelResourceFactory.h">
<polygon fill="white" stroke="black" points="685.5,-134.5 685.5,-164.5 832.5,-164.5 832.5,-134.5 685.5,-134.5"/>
<text text-anchor="start" x="693.5" y="-152.5" font-family="Helvetica,sans-Serif" font-size="10.00">C:/dev/Igor/src/Igor</text>
<text text-anchor="middle" x="759" y="-141.5" font-family="Helvetica,sans-Serif" font-size="10.00">/src/iModelResourceFactory.h</text>
</a>
</g>
</g>
<!-- Node1&#45;&gt;Node3 -->
<g id="edge2" class="edge"><title>Node1&#45;&gt;Node3</title>
<path fill="none" stroke="midnightblue" d="M702.65,-195.168C715.189,-185.228 729.966,-173.514 741.242,-164.577"/>
<polygon fill="midnightblue" stroke="midnightblue" points="700.455,-192.441 694.793,-201.396 704.804,-197.927 700.455,-192.441"/>
</g>
<!-- Node4 -->
<g id="node4" class="node"><title>Node4</title>
<g id="a_node4"><a xlink:href="_igor_8cpp.html" target="_top" xlink:title="C:/dev/Igor/src/Igor\l/src/Igor.cpp">
<polygon fill="white" stroke="black" points="0,-67.5 0,-97.5 98,-97.5 98,-67.5 0,-67.5"/>
<text text-anchor="start" x="8" y="-85.5" font-family="Helvetica,sans-Serif" font-size="10.00">C:/dev/Igor/src/Igor</text>
<text text-anchor="middle" x="49" y="-74.5" font-family="Helvetica,sans-Serif" font-size="10.00">/src/Igor.cpp</text>
</a>
</g>
</g>
<!-- Node3&#45;&gt;Node4 -->
<g id="edge3" class="edge"><title>Node3&#45;&gt;Node4</title>
<path fill="none" stroke="midnightblue" d="M675.076,-133.997C422.572,-105.002 354.091,-136.376 107,-98 104.128,-97.554 101.191,-97.0321 98.2364,-96.4562"/>
<polygon fill="midnightblue" stroke="midnightblue" points="674.957,-137.507 685.296,-135.191 675.77,-130.554 674.957,-137.507"/>
</g>
<!-- Node5 -->
<g id="node5" class="node"><title>Node5</title>
<g id="a_node5"><a xlink:href="i_model_resource_factory_8cpp.html" target="_top" xlink:title="C:/dev/Igor/src/Igor\l/src/iModelResourceFactory.cpp">
<polygon fill="white" stroke="black" points="116,-67.5 116,-97.5 274,-97.5 274,-67.5 116,-67.5"/>
<text text-anchor="start" x="124" y="-85.5" font-family="Helvetica,sans-Serif" font-size="10.00">C:/dev/Igor/src/Igor</text>
<text text-anchor="middle" x="195" y="-74.5" font-family="Helvetica,sans-Serif" font-size="10.00">/src/iModelResourceFactory.cpp</text>
</a>
</g>
</g>
<!-- Node3&#45;&gt;Node5 -->
<g id="edge4" class="edge"><title>Node3&#45;&gt;Node5</title>
<path fill="none" stroke="midnightblue" d="M675.228,-133.976C500.411,-111.226 453.75,-119.859 283,-98 280.082,-97.6264 277.112,-97.2284 274.115,-96.8117"/>
<polygon fill="midnightblue" stroke="midnightblue" points="674.91,-137.464 685.282,-135.3 675.825,-130.524 674.91,-137.464"/>
</g>
<!-- Node6 -->
<g id="node6" class="node"><title>Node6</title>
<g id="a_node6"><a xlink:href="i_node_mesh_8cpp.html" target="_top" xlink:title="C:/dev/Igor/src/Igor\l/src/iNodeMesh.cpp">
<polygon fill="white" stroke="black" points="292,-67.5 292,-97.5 396,-97.5 396,-67.5 292,-67.5"/>
<text text-anchor="start" x="300" y="-85.5" font-family="Helvetica,sans-Serif" font-size="10.00">C:/dev/Igor/src/Igor</text>
<text text-anchor="middle" x="344" y="-74.5" font-family="Helvetica,sans-Serif" font-size="10.00">/src/iNodeMesh.cpp</text>
</a>
</g>
</g>
<!-- Node3&#45;&gt;Node6 -->
<g id="edge5" class="edge"><title>Node3&#45;&gt;Node6</title>
<path fill="none" stroke="midnightblue" d="M675.228,-133.931C554.189,-115.762 521.33,-119.496 405,-98 402.11,-97.466 399.151,-96.8833 396.17,-96.2681"/>
<polygon fill="midnightblue" stroke="midnightblue" points="674.847,-137.413 685.259,-135.456 675.899,-130.493 674.847,-137.413"/>
</g>
<!-- Node7 -->
<g id="node7" class="node"><title>Node7</title>
<g id="a_node7"><a xlink:href="i_node_model_8cpp.html" target="_top" xlink:title="C:/dev/Igor/src/Igor\l/src/iNodeModel.cpp">
<polygon fill="white" stroke="black" points="414,-67.5 414,-97.5 520,-97.5 520,-67.5 414,-67.5"/>
<text text-anchor="start" x="422" y="-85.5" font-family="Helvetica,sans-Serif" font-size="10.00">C:/dev/Igor/src/Igor</text>
<text text-anchor="middle" x="467" y="-74.5" font-family="Helvetica,sans-Serif" font-size="10.00">/src/iNodeModel.cpp</text>
</a>
</g>
</g>
<!-- Node3&#45;&gt;Node7 -->
<g id="edge6" class="edge"><title>Node3&#45;&gt;Node7</title>
<path fill="none" stroke="midnightblue" d="M684.042,-132.312C639.054,-122.529 580.708,-109.723 529,-98 526.089,-97.3401 523.103,-96.6581 520.089,-95.966"/>
<polygon fill="midnightblue" stroke="midnightblue" points="683.496,-135.775 694.012,-134.478 684.983,-128.934 683.496,-135.775"/>
</g>
<!-- Node8 -->
<g id="node8" class="node"><title>Node8</title>
<g id="a_node8"><a xlink:href="i_resource_manager_8cpp.html" target="_top" xlink:title="C:/dev/Igor/src/Igor\l/src/iResourceManager.cpp">
<polygon fill="white" stroke="black" points="538,-67.5 538,-97.5 674,-97.5 674,-67.5 538,-67.5"/>
<text text-anchor="start" x="546" y="-85.5" font-family="Helvetica,sans-Serif" font-size="10.00">C:/dev/Igor/src/Igor</text>
<text text-anchor="middle" x="606" y="-74.5" font-family="Helvetica,sans-Serif" font-size="10.00">/src/iResourceManager.cpp</text>
</a>
</g>
</g>
<!-- Node3&#45;&gt;Node8 -->
<g id="edge7" class="edge"><title>Node3&#45;&gt;Node8</title>
<path fill="none" stroke="midnightblue" d="M716.411,-130.407C691.985,-120.029 661.775,-107.195 639.134,-97.5765"/>
<polygon fill="midnightblue" stroke="midnightblue" points="715.229,-133.707 725.801,-134.396 717.966,-127.264 715.229,-133.707"/>
</g>
<!-- Node9 -->
<g id="node9" class="node"><title>Node9</title>
<g id="a_node9"><a xlink:href="i_task_flush_models_8cpp.html" target="_top" xlink:title="C:/dev/Igor/src/Igor\l/src/iTaskFlushModels.cpp">
<polygon fill="white" stroke="black" points="692,-67.5 692,-97.5 826,-97.5 826,-67.5 692,-67.5"/>
<text text-anchor="start" x="700" y="-85.5" font-family="Helvetica,sans-Serif" font-size="10.00">C:/dev/Igor/src/Igor</text>
<text text-anchor="middle" x="759" y="-74.5" font-family="Helvetica,sans-Serif" font-size="10.00">/src/iTaskFlushModels.cpp</text>
</a>
</g>
</g>
<!-- Node3&#45;&gt;Node9 -->
<g id="edge8" class="edge"><title>Node3&#45;&gt;Node9</title>
<path fill="none" stroke="midnightblue" d="M759,-124.108C759,-115.154 759,-105.323 759,-97.5765"/>
<polygon fill="midnightblue" stroke="midnightblue" points="755.5,-124.396 759,-134.396 762.5,-124.396 755.5,-124.396"/>
</g>
<!-- Node10 -->
<g id="node10" class="node"><title>Node10</title>
<g id="a_node10"><a xlink:href="i_task_load_model_8cpp.html" target="_top" xlink:title="C:/dev/Igor/src/Igor\l/src/iTaskLoadModel.cpp">
<polygon fill="white" stroke="black" points="844.5,-67.5 844.5,-97.5 969.5,-97.5 969.5,-67.5 844.5,-67.5"/>
<text text-anchor="start" x="852.5" y="-85.5" font-family="Helvetica,sans-Serif" font-size="10.00">C:/dev/Igor/src/Igor</text>
<text text-anchor="middle" x="907" y="-74.5" font-family="Helvetica,sans-Serif" font-size="10.00">/src/iTaskLoadModel.cpp</text>
</a>
</g>
</g>
<!-- Node3&#45;&gt;Node10 -->
<g id="edge9" class="edge"><title>Node3&#45;&gt;Node10</title>
<path fill="none" stroke="midnightblue" d="M800.511,-130.269C824.084,-119.916 853.144,-107.153 874.949,-97.5765"/>
<polygon fill="midnightblue" stroke="midnightblue" points="798.862,-127.17 791.114,-134.396 801.677,-133.579 798.862,-127.17"/>
</g>
<!-- Node11 -->
<g id="node11" class="node"><title>Node11</title>
<g id="a_node11"><a xlink:href="i_voxel_terrain_8cpp.html" target="_top" xlink:title="C:/dev/Igor/src/Igor\l/src/iVoxelTerrain.cpp">
<polygon fill="white" stroke="black" points="987.5,-67.5 987.5,-97.5 1098.5,-97.5 1098.5,-67.5 987.5,-67.5"/>
<text text-anchor="start" x="995.5" y="-85.5" font-family="Helvetica,sans-Serif" font-size="10.00">C:/dev/Igor/src/Igor</text>
<text text-anchor="middle" x="1043" y="-74.5" font-family="Helvetica,sans-Serif" font-size="10.00">/src/iVoxelTerrain.cpp</text>
</a>
</g>
</g>
<!-- Node3&#45;&gt;Node11 -->
<g id="edge10" class="edge"><title>Node3&#45;&gt;Node11</title>
<path fill="none" stroke="midnightblue" d="M830.093,-132.229C878.681,-121.108 942.168,-106.578 987.134,-96.2861"/>
<polygon fill="midnightblue" stroke="midnightblue" points="829.241,-128.833 820.274,-134.476 830.803,-135.657 829.241,-128.833"/>
</g>
<!-- Node12 -->
<g id="node12" class="node"><title>Node12</title>
<g id="a_node12"><a xlink:href="_model_viewer_8h.html" target="_top" xlink:title="C:/dev/Igor/src/Tools\l/ModelViewer/src/ModelViewer.h">
<polygon fill="white" stroke="black" points="1117,-67.5 1117,-97.5 1275,-97.5 1275,-67.5 1117,-67.5"/>
<text text-anchor="start" x="1125" y="-85.5" font-family="Helvetica,sans-Serif" font-size="10.00">C:/dev/Igor/src/Tools</text>
<text text-anchor="middle" x="1196" y="-74.5" font-family="Helvetica,sans-Serif" font-size="10.00">/ModelViewer/src/ModelViewer.h</text>
</a>
</g>
</g>
<!-- Node3&#45;&gt;Node12 -->
<g id="edge11" class="edge"><title>Node3&#45;&gt;Node12</title>
<path fill="none" stroke="midnightblue" d="M842.875,-136.745C913.4,-126.762 1016.85,-111.883 1107,-98 1110.25,-97.4996 1113.56,-96.9837 1116.91,-96.4583"/>
<polygon fill="midnightblue" stroke="midnightblue" points="842.126,-133.316 832.714,-138.182 843.106,-140.247 842.126,-133.316"/>
</g>
<!-- Node14 -->
<g id="node14" class="node"><title>Node14</title>
<g id="a_node14"><a xlink:href="_model_viewer_8cpp.html" target="_top" xlink:title="C:/dev/Igor/src/Tools\l/ModelViewer/src/ModelViewer.cpp">
<polygon fill="white" stroke="black" points="1218.5,-0.5 1218.5,-30.5 1387.5,-30.5 1387.5,-0.5 1218.5,-0.5"/>
<text text-anchor="start" x="1226.5" y="-18.5" font-family="Helvetica,sans-Serif" font-size="10.00">C:/dev/Igor/src/Tools</text>
<text text-anchor="middle" x="1303" y="-7.5" font-family="Helvetica,sans-Serif" font-size="10.00">/ModelViewer/src/ModelViewer.cpp</text>
</a>
</g>
</g>
<!-- Node3&#45;&gt;Node14 -->
<g id="edge14" class="edge"><title>Node3&#45;&gt;Node14</title>
<path fill="none" stroke="midnightblue" d="M842.949,-145.727C982.836,-140.333 1251.56,-126.383 1284,-98 1303.13,-81.2574 1304.99,-49.3201 1304.24,-30.7859"/>
<polygon fill="midnightblue" stroke="midnightblue" points="842.555,-142.239 832.695,-146.116 842.821,-149.234 842.555,-142.239"/>
</g>
<!-- Node15 -->
<g id="node15" class="node"><title>Node15</title>
<g id="a_node15"><a xlink:href="_o_b_j2_o_m_p_f_8cpp.html" target="_top" xlink:title="C:/dev/Igor/src/Tools\l/OBJ2OMPF/src/OBJ2OMPF.cpp">
<polygon fill="white" stroke="black" points="1331.5,-67.5 1331.5,-97.5 1494.5,-97.5 1494.5,-67.5 1331.5,-67.5"/>
<text text-anchor="start" x="1339.5" y="-85.5" font-family="Helvetica,sans-Serif" font-size="10.00">C:/dev/Igor/src/Tools</text>
<text text-anchor="middle" x="1413" y="-74.5" font-family="Helvetica,sans-Serif" font-size="10.00">/OBJ2OMPF/src/OBJ2OMPF.cpp</text>
</a>
</g>
</g>
<!-- Node3&#45;&gt;Node15 -->
<g id="edge15" class="edge"><title>Node3&#45;&gt;Node15</title>
<path fill="none" stroke="midnightblue" d="M842.688,-142.491C951.972,-134.286 1149.14,-118.255 1317,-98 1321.69,-97.4346 1326.49,-96.8195 1331.34,-96.1722"/>
<polygon fill="midnightblue" stroke="midnightblue" points="842.425,-139.001 832.714,-143.237 842.947,-145.981 842.425,-139.001"/>
</g>
<!-- Node13 -->
<g id="node13" class="node"><title>Node13</title>
<g id="a_node13"><a xlink:href="_model_viewer_2src_2main_8cpp.html" target="_top" xlink:title="C:/dev/Igor/src/Tools\l/ModelViewer/src/main.cpp">
<polygon fill="white" stroke="black" points="1066,-0.5 1066,-30.5 1200,-30.5 1200,-0.5 1066,-0.5"/>
<text text-anchor="start" x="1074" y="-18.5" font-family="Helvetica,sans-Serif" font-size="10.00">C:/dev/Igor/src/Tools</text>
<text text-anchor="middle" x="1133" y="-7.5" font-family="Helvetica,sans-Serif" font-size="10.00">/ModelViewer/src/main.cpp</text>
</a>
</g>
</g>
<!-- Node12&#45;&gt;Node13 -->
<g id="edge12" class="edge"><title>Node12&#45;&gt;Node13</title>
<path fill="none" stroke="midnightblue" d="M1175.19,-60.0243C1165.8,-50.3398 1154.98,-39.1739 1146.64,-30.5765"/>
<polygon fill="midnightblue" stroke="midnightblue" points="1172.86,-62.6512 1182.33,-67.396 1177.88,-57.7793 1172.86,-62.6512"/>
</g>
<!-- Node12&#45;&gt;Node14 -->
<g id="edge13" class="edge"><title>Node12&#45;&gt;Node14</title>
<path fill="none" stroke="midnightblue" d="M1228.08,-62.0151C1244.73,-51.8999 1264.69,-39.7698 1279.83,-30.5765"/>
<polygon fill="midnightblue" stroke="midnightblue" points="1225.95,-59.2127 1219.22,-67.396 1229.58,-65.1954 1225.95,-59.2127"/>
</g>
</g>
</svg>
