<?xml version="1.0" encoding="UTF-8" standalone="no"?>
<!DOCTYPE svg PUBLIC "-//W3C//DTD SVG 1.1//EN"
 "http://www.w3.org/Graphics/SVG/1.1/DTD/svg11.dtd">
<!-- Generated by graphviz version 2.38.0 (20140413.2041)
 -->
<!-- Title: C:/dev/Igor/Igor/src/Igor/src/iMouse.cpp Pages: 1 -->
<svg width="831pt" height="375pt"
 viewBox="0.00 0.00 831.17 375.00" xmlns="http://www.w3.org/2000/svg" xmlns:xlink="http://www.w3.org/1999/xlink">
<g id="graph0" class="graph" transform="scale(1 1) rotate(0) translate(4 371)">
<title>C:/dev/Igor/Igor/src/Igor/src/iMouse.cpp</title>
<polygon fill="white" stroke="none" points="-4,4 -4,-371 827.168,-371 827.168,4 -4,4"/>
<!-- Node0 -->
<g id="node1" class="node"><title>Node0</title>
<g id="a_node1"><a xlink:title=" ">
<polygon fill="#bfbfbf" stroke="black" points="539.668,-336.5 539.668,-366.5 644.668,-366.5 644.668,-336.5 539.668,-336.5"/>
<text text-anchor="start" x="547.668" y="-354.5" font-family="Helvetica,sans-Serif" font-size="10.00">C:/dev/Igor/Igor/src</text>
<text text-anchor="middle" x="592.168" y="-343.5" font-family="Helvetica,sans-Serif" font-size="10.00">/Igor/src/iMouse.cpp</text>
</a>
</g>
</g>
<!-- Node1 -->
<g id="node2" class="node"><title>Node1</title>
<g id="a_node2"><a xlink:href="i_mouse_8h.html" target="_top" xlink:title=" ">
<polygon fill="white" stroke="black" points="258.168,-280.5 258.168,-299.5 314.168,-299.5 314.168,-280.5 258.168,-280.5"/>
<text text-anchor="middle" x="286.168" y="-287.5" font-family="Helvetica,sans-Serif" font-size="10.00">iMouse.h</text>
</a>
</g>
</g>
<!-- Node0&#45;&gt;Node1 -->
<g id="edge1" class="edge"><title>Node0&#45;&gt;Node1</title>
<path fill="none" stroke="midnightblue" d="M539.565,-340.272C478.241,-328.348 378.392,-308.933 324.152,-298.386"/>
<polygon fill="midnightblue" stroke="midnightblue" points="324.74,-294.935 314.256,-296.462 323.404,-301.806 324.74,-294.935"/>
</g>
<!-- Node6 -->
<g id="node7" class="node"><title>Node6</title>
<g id="a_node7"><a xlink:href="ia_console_8h.html" target="_top" xlink:title=" ">
<polygon fill="white" stroke="black" points="631.168,-168.5 631.168,-187.5 699.168,-187.5 699.168,-168.5 631.168,-168.5"/>
<text text-anchor="middle" x="665.168" y="-175.5" font-family="Helvetica,sans-Serif" font-size="10.00">iaConsole.h</text>
</a>
</g>
</g>
<!-- Node0&#45;&gt;Node6 -->
<g id="edge42" class="edge"><title>Node0&#45;&gt;Node6</title>
<path fill="none" stroke="midnightblue" d="M598.142,-336.465C611.35,-305.436 643.013,-231.049 657.589,-196.806"/>
<polygon fill="midnightblue" stroke="midnightblue" points="660.828,-198.132 661.524,-187.56 654.387,-195.39 660.828,-198.132"/>
</g>
<!-- Node24 -->
<g id="node25" class="node"><title>Node24</title>
<g id="a_node25"><a xlink:title=" ">
<polygon fill="white" stroke="#bfbfbf" points="669.668,-280.5 669.668,-299.5 734.668,-299.5 734.668,-280.5 669.668,-280.5"/>
<text text-anchor="middle" x="702.168" y="-287.5" font-family="Helvetica,sans-Serif" font-size="10.00">Windows.h</text>
</a>
</g>
</g>
<!-- Node0&#45;&gt;Node24 -->
<g id="edge33" class="edge"><title>Node0&#45;&gt;Node24</title>
<path fill="none" stroke="midnightblue" d="M618.236,-336.399C636.033,-326.773 659.48,-314.09 677.067,-304.577"/>
<polygon fill="midnightblue" stroke="midnightblue" points="679.031,-307.494 686.162,-299.658 675.701,-301.337 679.031,-307.494"/>
</g>
<!-- Node25 -->
<g id="node26" class="node"><title>Node25</title>
<g id="a_node26"><a xlink:title=" ">
<polygon fill="white" stroke="#bfbfbf" points="753.168,-280.5 753.168,-299.5 823.168,-299.5 823.168,-280.5 753.168,-280.5"/>
<text text-anchor="middle" x="788.168" y="-287.5" font-family="Helvetica,sans-Serif" font-size="10.00">Windowsx.h</text>
</a>
</g>
</g>
<!-- Node0&#45;&gt;Node25 -->
<g id="edge34" class="edge"><title>Node0&#45;&gt;Node25</title>
<path fill="none" stroke="midnightblue" d="M638.617,-336.399C672.632,-326.073 718.231,-312.231 750.101,-302.556"/>
<polygon fill="midnightblue" stroke="midnightblue" points="751.382,-305.825 759.934,-299.571 749.349,-299.127 751.382,-305.825"/>
</g>
<!-- Node26 -->
<g id="node27" class="node"><title>Node26</title>
<g id="a_node27"><a xlink:href="i_window_8h.html" target="_top" xlink:title=" ">
<polygon fill="white" stroke="black" points="513.168,-280.5 513.168,-299.5 575.168,-299.5 575.168,-280.5 513.168,-280.5"/>
<text text-anchor="middle" x="544.168" y="-287.5" font-family="Helvetica,sans-Serif" font-size="10.00">iWindow.h</text>
</a>
</g>
</g>
<!-- Node0&#45;&gt;Node26 -->
<g id="edge35" class="edge"><title>Node0&#45;&gt;Node26</title>
<path fill="none" stroke="midnightblue" d="M580.793,-336.399C573.818,-327.753 564.854,-316.642 557.54,-307.576"/>
<polygon fill="midnightblue" stroke="midnightblue" points="560.155,-305.243 551.152,-299.658 554.707,-309.638 560.155,-305.243"/>
</g>
<!-- Node28 -->
<g id="node29" class="node"><title>Node28</title>
<g id="a_node29"><a xlink:href="i_o_s_event_8h.html" target="_top" xlink:title=" ">
<polygon fill="white" stroke="black" points="36.6678,-280.5 36.6678,-299.5 101.668,-299.5 101.668,-280.5 36.6678,-280.5"/>
<text text-anchor="middle" x="69.1678" y="-287.5" font-family="Helvetica,sans-Serif" font-size="10.00">iOSEvent.h</text>
</a>
</g>
</g>
<!-- Node0&#45;&gt;Node28 -->
<g id="edge43" class="edge"><title>Node0&#45;&gt;Node28</title>
<path fill="none" stroke="midnightblue" d="M539.626,-344.522C436.011,-332.735 207.145,-306.697 111.978,-295.87"/>
<polygon fill="midnightblue" stroke="midnightblue" points="112.184,-292.371 101.852,-294.718 111.392,-299.326 112.184,-292.371"/>
</g>
<!-- Node2 -->
<g id="node3" class="node"><title>Node2</title>
<g id="a_node3"><a xlink:href="ia_event_8h.html" target="_top" xlink:title=" ">
<polygon fill="white" stroke="black" points="439.168,-224.5 439.168,-243.5 495.168,-243.5 495.168,-224.5 439.168,-224.5"/>
<text text-anchor="middle" x="467.168" y="-231.5" font-family="Helvetica,sans-Serif" font-size="10.00">iaEvent.h</text>
</a>
</g>
</g>
<!-- Node1&#45;&gt;Node2 -->
<g id="edge2" class="edge"><title>Node1&#45;&gt;Node2</title>
<path fill="none" stroke="midnightblue" d="M314.449,-280.563C345.398,-271.329 395.162,-256.482 429.425,-246.26"/>
<polygon fill="midnightblue" stroke="midnightblue" points="430.503,-249.591 439.085,-243.378 428.502,-242.883 430.503,-249.591"/>
</g>
<!-- Node13 -->
<g id="node14" class="node"><title>Node13</title>
<g id="a_node14"><a xlink:href="i_key_code_map_8h.html" target="_top" xlink:title=" ">
<polygon fill="white" stroke="black" points="297.168,-224.5 297.168,-243.5 383.168,-243.5 383.168,-224.5 297.168,-224.5"/>
<text text-anchor="middle" x="340.168" y="-231.5" font-family="Helvetica,sans-Serif" font-size="10.00">iKeyCodeMap.h</text>
</a>
</g>
</g>
<!-- Node1&#45;&gt;Node13 -->
<g id="edge15" class="edge"><title>Node1&#45;&gt;Node13</title>
<path fill="none" stroke="midnightblue" d="M295.085,-280.083C302.948,-272.22 314.599,-260.569 324.087,-251.081"/>
<polygon fill="midnightblue" stroke="midnightblue" points="326.821,-253.297 331.417,-243.751 321.871,-248.347 326.821,-253.297"/>
</g>
<!-- Node18 -->
<g id="node19" class="node"><title>Node18</title>
<g id="a_node19"><a xlink:href="i_rectangle_8h.html" target="_top" xlink:title=" ">
<polygon fill="white" stroke="black" points="131.668,-224.5 131.668,-243.5 202.668,-243.5 202.668,-224.5 131.668,-224.5"/>
<text text-anchor="middle" x="167.168" y="-231.5" font-family="Helvetica,sans-Serif" font-size="10.00">iRectangle.h</text>
</a>
</g>
</g>
<!-- Node1&#45;&gt;Node18 -->
<g id="edge24" class="edge"><title>Node1&#45;&gt;Node18</title>
<path fill="none" stroke="midnightblue" d="M267.312,-280.444C247.902,-271.636 217.438,-257.812 195.203,-247.722"/>
<polygon fill="midnightblue" stroke="midnightblue" points="196.488,-244.462 185.936,-243.516 193.595,-250.836 196.488,-244.462"/>
</g>
<!-- Node20 -->
<g id="node21" class="node"><title>Node20</title>
<g id="a_node21"><a xlink:href="ia_vector2_8h.html" target="_top" xlink:title=" ">
<polygon fill="white" stroke="black" points="175.168,-168.5 175.168,-187.5 241.168,-187.5 241.168,-168.5 175.168,-168.5"/>
<text text-anchor="middle" x="208.168" y="-175.5" font-family="Helvetica,sans-Serif" font-size="10.00">iaVector2.h</text>
</a>
</g>
</g>
<!-- Node1&#45;&gt;Node20 -->
<g id="edge27" class="edge"><title>Node1&#45;&gt;Node20</title>
<path fill="none" stroke="midnightblue" d="M280.047,-280.368C267.175,-262.215 237.1,-219.802 220.215,-195.99"/>
<polygon fill="midnightblue" stroke="midnightblue" points="222.899,-193.724 214.26,-187.591 217.189,-197.773 222.899,-193.724"/>
</g>
<!-- Node23 -->
<g id="node24" class="node"><title>Node23</title>
<g id="a_node24"><a xlink:href="i_o_s_event_listener_8h.html" target="_top" xlink:title=" ">
<polygon fill="white" stroke="black" points="13.1678,-224.5 13.1678,-243.5 113.168,-243.5 113.168,-224.5 13.1678,-224.5"/>
<text text-anchor="middle" x="63.1678" y="-231.5" font-family="Helvetica,sans-Serif" font-size="10.00">iOSEventListener.h</text>
</a>
</g>
</g>
<!-- Node1&#45;&gt;Node23 -->
<g id="edge32" class="edge"><title>Node1&#45;&gt;Node23</title>
<path fill="none" stroke="midnightblue" d="M257.925,-282.161C220.225,-273.032 153.022,-256.758 108.269,-245.921"/>
<polygon fill="midnightblue" stroke="midnightblue" points="109.065,-242.513 98.5221,-243.561 107.417,-249.316 109.065,-242.513"/>
</g>
<!-- Node3 -->
<g id="node4" class="node"><title>Node3</title>
<g id="a_node4"><a xlink:href="ia_mutex_8h.html" target="_top" xlink:title=" ">
<polygon fill="white" stroke="black" points="502.668,-56.5 502.668,-75.5 561.668,-75.5 561.668,-56.5 502.668,-56.5"/>
<text text-anchor="middle" x="532.168" y="-63.5" font-family="Helvetica,sans-Serif" font-size="10.00">iaMutex.h</text>
</a>
</g>
</g>
<!-- Node2&#45;&gt;Node3 -->
<g id="edge3" class="edge"><title>Node2&#45;&gt;Node3</title>
<path fill="none" stroke="midnightblue" d="M481.824,-224.316C494.3,-216.273 511.936,-203.272 523.168,-188 544.001,-159.671 550.096,-146.817 545.168,-112 543.9,-103.042 541.279,-93.372 538.72,-85.2998"/>
<polygon fill="midnightblue" stroke="midnightblue" points="542.029,-84.1569 535.512,-75.8034 535.397,-86.3976 542.029,-84.1569"/>
</g>
<!-- Node5 -->
<g id="node6" class="node"><title>Node5</title>
<g id="a_node6"><a xlink:href="ia_delegate_8h.html" target="_top" xlink:title=" ">
<polygon fill="white" stroke="black" points="427.668,-168.5 427.668,-187.5 498.668,-187.5 498.668,-168.5 427.668,-168.5"/>
<text text-anchor="middle" x="463.168" y="-175.5" font-family="Helvetica,sans-Serif" font-size="10.00">iaDelegate.h</text>
</a>
</g>
</g>
<!-- Node2&#45;&gt;Node5 -->
<g id="edge5" class="edge"><title>Node2&#45;&gt;Node5</title>
<path fill="none" stroke="midnightblue" d="M466.507,-224.083C465.983,-217.006 465.232,-206.861 464.574,-197.986"/>
<polygon fill="midnightblue" stroke="midnightblue" points="468.045,-197.465 463.816,-187.751 461.064,-197.982 468.045,-197.465"/>
</g>
<!-- Node2&#45;&gt;Node6 -->
<g id="edge6" class="edge"><title>Node2&#45;&gt;Node6</title>
<path fill="none" stroke="midnightblue" d="M495.536,-225.263C529.205,-216.081 585.616,-200.696 624.064,-190.21"/>
<polygon fill="midnightblue" stroke="midnightblue" points="625.185,-193.532 633.912,-187.524 623.343,-186.779 625.185,-193.532"/>
</g>
<!-- Node12 -->
<g id="node13" class="node"><title>Node12</title>
<g id="a_node13"><a xlink:title=" ">
<polygon fill="white" stroke="#bfbfbf" points="403.168,-112.5 403.168,-131.5 445.168,-131.5 445.168,-112.5 403.168,-112.5"/>
<text text-anchor="middle" x="424.168" y="-119.5" font-family="Helvetica,sans-Serif" font-size="10.00">vector</text>
</a>
</g>
</g>
<!-- Node2&#45;&gt;Node12 -->
<g id="edge14" class="edge"><title>Node2&#45;&gt;Node12</title>
<path fill="none" stroke="midnightblue" d="M479.14,-224.427C494.91,-212.039 519.301,-188.38 507.168,-168 501.169,-157.924 475.947,-145.053 454.864,-135.66"/>
<polygon fill="midnightblue" stroke="midnightblue" points="456.119,-132.389 445.553,-131.611 453.328,-138.808 456.119,-132.389"/>
</g>
<!-- Node4 -->
<g id="node5" class="node"><title>Node4</title>
<g id="a_node5"><a xlink:href="ia_defines_8h.html" target="_top" xlink:title=" ">
<polygon fill="white" stroke="black" points="342.668,-0.5 342.668,-19.5 407.668,-19.5 407.668,-0.5 342.668,-0.5"/>
<text text-anchor="middle" x="375.168" y="-7.5" font-family="Helvetica,sans-Serif" font-size="10.00">iaDefines.h</text>
</a>
</g>
</g>
<!-- Node3&#45;&gt;Node4 -->
<g id="edge4" class="edge"><title>Node3&#45;&gt;Node4</title>
<path fill="none" stroke="midnightblue" d="M507.291,-56.4435C480.879,-47.3591 438.953,-32.9388 409.426,-22.7831"/>
<polygon fill="midnightblue" stroke="midnightblue" points="410.523,-19.4593 399.929,-19.5164 408.246,-26.0787 410.523,-19.4593"/>
</g>
<!-- Node7 -->
<g id="node8" class="node"><title>Node7</title>
<g id="a_node8"><a xlink:href="ia_singleton_8h.html" target="_top" xlink:title=" ">
<polygon fill="white" stroke="black" points="463.668,-112.5 463.668,-131.5 536.668,-131.5 536.668,-112.5 463.668,-112.5"/>
<text text-anchor="middle" x="500.168" y="-119.5" font-family="Helvetica,sans-Serif" font-size="10.00">iaSingleton.h</text>
</a>
</g>
</g>
<!-- Node6&#45;&gt;Node7 -->
<g id="edge7" class="edge"><title>Node6&#45;&gt;Node7</title>
<path fill="none" stroke="midnightblue" d="M639.023,-168.444C611.144,-159.32 566.819,-144.813 535.768,-134.651"/>
<polygon fill="midnightblue" stroke="midnightblue" points="536.783,-131.3 526.19,-131.516 534.606,-137.953 536.783,-131.3"/>
</g>
<!-- Node8 -->
<g id="node9" class="node"><title>Node8</title>
<g id="a_node9"><a xlink:href="ia_clock_8h.html" target="_top" xlink:title=" ">
<polygon fill="white" stroke="black" points="696.668,-56.5 696.668,-75.5 753.668,-75.5 753.668,-56.5 696.668,-56.5"/>
<text text-anchor="middle" x="725.168" y="-63.5" font-family="Helvetica,sans-Serif" font-size="10.00">iaClock.h</text>
</a>
</g>
</g>
<!-- Node6&#45;&gt;Node8 -->
<g id="edge9" class="edge"><title>Node6&#45;&gt;Node8</title>
<path fill="none" stroke="midnightblue" d="M699.394,-175.307C729.373,-171.795 771.312,-161.516 792.168,-132 806.534,-111.669 779.537,-92.3336 755.643,-80.1194"/>
<polygon fill="midnightblue" stroke="midnightblue" points="756.922,-76.8501 746.395,-75.646 753.873,-83.1515 756.922,-76.8501"/>
</g>
<!-- Node9 -->
<g id="node10" class="node"><title>Node9</title>
<g id="a_node10"><a xlink:title=" ">
<polygon fill="white" stroke="#bfbfbf" points="593.668,-112.5 593.668,-131.5 642.668,-131.5 642.668,-112.5 593.668,-112.5"/>
<text text-anchor="middle" x="618.168" y="-119.5" font-family="Helvetica,sans-Serif" font-size="10.00">fstream</text>
</a>
</g>
</g>
<!-- Node6&#45;&gt;Node9 -->
<g id="edge11" class="edge"><title>Node6&#45;&gt;Node9</title>
<path fill="none" stroke="midnightblue" d="M657.407,-168.083C650.631,-160.298 640.625,-148.801 632.413,-139.367"/>
<polygon fill="midnightblue" stroke="midnightblue" points="634.99,-136.996 625.785,-131.751 629.71,-141.592 634.99,-136.996"/>
</g>
<!-- Node10 -->
<g id="node11" class="node"><title>Node10</title>
<g id="a_node11"><a xlink:title=" ">
<polygon fill="white" stroke="#bfbfbf" points="661.168,-112.5 661.168,-131.5 715.168,-131.5 715.168,-112.5 661.168,-112.5"/>
<text text-anchor="middle" x="688.168" y="-119.5" font-family="Helvetica,sans-Serif" font-size="10.00">iostream</text>
</a>
</g>
</g>
<!-- Node6&#45;&gt;Node10 -->
<g id="edge12" class="edge"><title>Node6&#45;&gt;Node10</title>
<path fill="none" stroke="midnightblue" d="M668.966,-168.083C672.081,-160.77 676.591,-150.181 680.457,-141.103"/>
<polygon fill="midnightblue" stroke="midnightblue" points="683.742,-142.323 684.441,-131.751 677.302,-139.58 683.742,-142.323"/>
</g>
<!-- Node11 -->
<g id="node12" class="node"><title>Node11</title>
<g id="a_node12"><a xlink:title=" ">
<polygon fill="white" stroke="#bfbfbf" points="733.168,-112.5 733.168,-131.5 783.168,-131.5 783.168,-112.5 733.168,-112.5"/>
<text text-anchor="middle" x="758.168" y="-119.5" font-family="Helvetica,sans-Serif" font-size="10.00">iomanip</text>
</a>
</g>
</g>
<!-- Node6&#45;&gt;Node11 -->
<g id="edge13" class="edge"><title>Node6&#45;&gt;Node11</title>
<path fill="none" stroke="midnightblue" d="M680.11,-168.324C694.753,-159.822 717.301,-146.729 734.406,-136.797"/>
<polygon fill="midnightblue" stroke="midnightblue" points="736.372,-139.703 743.263,-131.655 732.857,-133.649 736.372,-139.703"/>
</g>
<!-- Node7&#45;&gt;Node3 -->
<g id="edge8" class="edge"><title>Node7&#45;&gt;Node3</title>
<path fill="none" stroke="midnightblue" d="M505.452,-112.083C509.879,-104.613 516.331,-93.7244 521.786,-84.5199"/>
<polygon fill="midnightblue" stroke="midnightblue" points="524.895,-86.1383 526.982,-75.7511 518.873,-82.5697 524.895,-86.1383"/>
</g>
<!-- Node8&#45;&gt;Node4 -->
<g id="edge10" class="edge"><title>Node8&#45;&gt;Node4</title>
<path fill="none" stroke="midnightblue" d="M696.526,-60.581C635.06,-51.0977 490.231,-28.7526 417.871,-17.5885"/>
<polygon fill="midnightblue" stroke="midnightblue" points="418.156,-14.0911 407.739,-16.0253 417.088,-21.0092 418.156,-14.0911"/>
</g>
<!-- Node13&#45;&gt;Node7 -->
<g id="edge16" class="edge"><title>Node13&#45;&gt;Node7</title>
<path fill="none" stroke="midnightblue" d="M349.307,-224.376C363.419,-211.3 391.659,-186.07 418.168,-168 435.778,-155.996 456.883,-144.473 473.272,-136.092"/>
<polygon fill="midnightblue" stroke="midnightblue" points="474.955,-139.164 482.314,-131.542 471.808,-132.911 474.955,-139.164"/>
</g>
<!-- Node14 -->
<g id="node15" class="node"><title>Node14</title>
<g id="a_node15"><a xlink:href="ia_string_8h.html" target="_top" xlink:title=" ">
<polygon fill="white" stroke="black" points="313.168,-168.5 313.168,-187.5 371.168,-187.5 371.168,-168.5 313.168,-168.5"/>
<text text-anchor="middle" x="342.168" y="-175.5" font-family="Helvetica,sans-Serif" font-size="10.00">iaString.h</text>
</a>
</g>
</g>
<!-- Node13&#45;&gt;Node14 -->
<g id="edge17" class="edge"><title>Node13&#45;&gt;Node14</title>
<path fill="none" stroke="midnightblue" d="M340.498,-224.083C340.76,-217.006 341.136,-206.861 341.465,-197.986"/>
<polygon fill="midnightblue" stroke="midnightblue" points="344.971,-197.874 341.844,-187.751 337.976,-197.615 344.971,-197.874"/>
</g>
<!-- Node16 -->
<g id="node17" class="node"><title>Node16</title>
<g id="a_node17"><a xlink:href="i_defines_8h.html" target="_top" xlink:title=" ">
<polygon fill="white" stroke="black" points="97.6678,-168.5 97.6678,-187.5 156.668,-187.5 156.668,-168.5 97.6678,-168.5"/>
<text text-anchor="middle" x="127.168" y="-175.5" font-family="Helvetica,sans-Serif" font-size="10.00">iDefines.h</text>
</a>
</g>
</g>
<!-- Node13&#45;&gt;Node16 -->
<g id="edge21" class="edge"><title>Node13&#45;&gt;Node16</title>
<path fill="none" stroke="midnightblue" d="M306.417,-224.444C268.46,-214.821 206.886,-199.21 166.707,-189.024"/>
<polygon fill="midnightblue" stroke="midnightblue" points="167.533,-185.623 156.98,-186.558 165.813,-192.408 167.533,-185.623"/>
</g>
<!-- Node17 -->
<g id="node18" class="node"><title>Node17</title>
<g id="a_node18"><a xlink:title=" ">
<polygon fill="white" stroke="#bfbfbf" points="259.668,-168.5 259.668,-187.5 294.668,-187.5 294.668,-168.5 259.668,-168.5"/>
<text text-anchor="middle" x="277.168" y="-175.5" font-family="Helvetica,sans-Serif" font-size="10.00">map</text>
</a>
</g>
</g>
<!-- Node13&#45;&gt;Node17 -->
<g id="edge23" class="edge"><title>Node13&#45;&gt;Node17</title>
<path fill="none" stroke="midnightblue" d="M330.046,-224.324C320.641,-216.263 306.424,-204.077 295.099,-194.369"/>
<polygon fill="midnightblue" stroke="midnightblue" points="297.344,-191.684 287.474,-187.834 292.789,-196.999 297.344,-191.684"/>
</g>
<!-- Node14&#45;&gt;Node4 -->
<g id="edge18" class="edge"><title>Node14&#45;&gt;Node4</title>
<path fill="none" stroke="midnightblue" d="M345.229,-168.476C348.355,-159.501 353.163,-144.91 356.168,-132 364.495,-96.2254 370.235,-53.6394 373.088,-29.7214"/>
<polygon fill="midnightblue" stroke="midnightblue" points="376.587,-29.926 374.255,-19.591 369.634,-29.1245 376.587,-29.926"/>
</g>
<!-- Node14&#45;&gt;Node12 -->
<g id="edge20" class="edge"><title>Node14&#45;&gt;Node12</title>
<path fill="none" stroke="midnightblue" d="M355.343,-168.324C368.015,-159.979 387.401,-147.212 402.373,-137.352"/>
<polygon fill="midnightblue" stroke="midnightblue" points="404.599,-140.078 411.026,-131.655 400.749,-134.231 404.599,-140.078"/>
</g>
<!-- Node15 -->
<g id="node16" class="node"><title>Node15</title>
<g id="a_node16"><a xlink:title=" ">
<polygon fill="white" stroke="#bfbfbf" points="295.168,-112.5 295.168,-131.5 347.168,-131.5 347.168,-112.5 295.168,-112.5"/>
<text text-anchor="middle" x="321.168" y="-119.5" font-family="Helvetica,sans-Serif" font-size="10.00">ostream</text>
</a>
</g>
</g>
<!-- Node14&#45;&gt;Node15 -->
<g id="edge19" class="edge"><title>Node14&#45;&gt;Node15</title>
<path fill="none" stroke="midnightblue" d="M338.7,-168.083C335.856,-160.77 331.738,-150.181 328.208,-141.103"/>
<polygon fill="midnightblue" stroke="midnightblue" points="331.458,-139.803 324.571,-131.751 324.934,-142.34 331.458,-139.803"/>
</g>
<!-- Node16&#45;&gt;Node4 -->
<g id="edge22" class="edge"><title>Node16&#45;&gt;Node4</title>
<path fill="none" stroke="midnightblue" d="M125.622,-168.359C123.697,-155.685 121.322,-131.453 127.168,-112 135.753,-83.4314 139.523,-72.8074 164.168,-56 214.838,-21.4441 287.014,-12.6835 332.453,-10.857"/>
<polygon fill="midnightblue" stroke="midnightblue" points="332.674,-14.352 342.562,-10.5475 332.46,-7.35527 332.674,-14.352"/>
</g>
<!-- Node18&#45;&gt;Node16 -->
<g id="edge25" class="edge"><title>Node18&#45;&gt;Node16</title>
<path fill="none" stroke="midnightblue" d="M160.563,-224.083C154.913,-216.455 146.623,-205.264 139.717,-195.941"/>
<polygon fill="midnightblue" stroke="midnightblue" points="142.415,-193.703 133.65,-187.751 136.79,-197.87 142.415,-193.703"/>
</g>
<!-- Node19 -->
<g id="node20" class="node"><title>Node19</title>
<g id="a_node20"><a xlink:href="i_rectangle_8inl.html" target="_top" xlink:title=" ">
<polygon fill="white" stroke="black" points="4.66783,-168.5 4.66783,-187.5 79.6678,-187.5 79.6678,-168.5 4.66783,-168.5"/>
<text text-anchor="middle" x="42.1678" y="-175.5" font-family="Helvetica,sans-Serif" font-size="10.00">iRectangle.inl</text>
</a>
</g>
</g>
<!-- Node18&#45;&gt;Node19 -->
<g id="edge26" class="edge"><title>Node18&#45;&gt;Node19</title>
<path fill="none" stroke="midnightblue" d="M147.361,-224.444C126.881,-215.596 94.6852,-201.687 71.3032,-191.586"/>
<polygon fill="midnightblue" stroke="midnightblue" points="72.4499,-188.269 61.8818,-187.516 69.6738,-194.695 72.4499,-188.269"/>
</g>
<!-- Node20&#45;&gt;Node4 -->
<g id="edge28" class="edge"><title>Node20&#45;&gt;Node4</title>
<path fill="none" stroke="midnightblue" d="M183.755,-168.313C156.431,-157.169 117.973,-136.346 134.168,-112 178.4,-45.5038 275.764,-22.7006 332.269,-14.9431"/>
<polygon fill="midnightblue" stroke="midnightblue" points="332.844,-18.3981 342.322,-13.6625 331.96,-11.4542 332.844,-18.3981"/>
</g>
<!-- Node20&#45;&gt;Node15 -->
<g id="edge30" class="edge"><title>Node20&#45;&gt;Node15</title>
<path fill="none" stroke="midnightblue" d="M226.073,-168.444C244.422,-159.675 273.173,-145.935 294.261,-135.858"/>
<polygon fill="midnightblue" stroke="midnightblue" points="295.833,-138.986 303.346,-131.516 292.815,-132.67 295.833,-138.986"/>
</g>
<!-- Node21 -->
<g id="node22" class="node"><title>Node21</title>
<g id="a_node22"><a xlink:title=" ">
<polygon fill="white" stroke="#bfbfbf" points="143.168,-112.5 143.168,-131.5 187.168,-131.5 187.168,-112.5 143.168,-112.5"/>
<text text-anchor="middle" x="165.168" y="-119.5" font-family="Helvetica,sans-Serif" font-size="10.00">cmath</text>
</a>
</g>
</g>
<!-- Node20&#45;&gt;Node21 -->
<g id="edge29" class="edge"><title>Node20&#45;&gt;Node21</title>
<path fill="none" stroke="midnightblue" d="M201.067,-168.083C194.931,-160.377 185.898,-149.033 178.429,-139.653"/>
<polygon fill="midnightblue" stroke="midnightblue" points="181.104,-137.394 172.136,-131.751 175.628,-141.754 181.104,-137.394"/>
</g>
<!-- Node22 -->
<g id="node23" class="node"><title>Node22</title>
<g id="a_node23"><a xlink:href="ia_vector2_8inl.html" target="_top" xlink:title=" ">
<polygon fill="white" stroke="black" points="205.668,-112.5 205.668,-131.5 276.668,-131.5 276.668,-112.5 205.668,-112.5"/>
<text text-anchor="middle" x="241.168" y="-119.5" font-family="Helvetica,sans-Serif" font-size="10.00">iaVector2.inl</text>
</a>
</g>
</g>
<!-- Node20&#45;&gt;Node22 -->
<g id="edge31" class="edge"><title>Node20&#45;&gt;Node22</title>
<path fill="none" stroke="midnightblue" d="M213.617,-168.083C218.182,-160.613 224.836,-149.724 230.461,-140.52"/>
<polygon fill="midnightblue" stroke="midnightblue" points="233.592,-142.109 235.82,-131.751 227.619,-138.459 233.592,-142.109"/>
</g>
<!-- Node26&#45;&gt;Node2 -->
<g id="edge38" class="edge"><title>Node26&#45;&gt;Node2</title>
<path fill="none" stroke="midnightblue" d="M531.796,-280.324C520.009,-272.058 502.036,-259.453 488.032,-249.632"/>
<polygon fill="midnightblue" stroke="midnightblue" points="489.705,-246.531 479.509,-243.655 485.686,-252.262 489.705,-246.531"/>
</g>
<!-- Node26&#45;&gt;Node3 -->
<g id="edge40" class="edge"><title>Node26&#45;&gt;Node3</title>
<path fill="none" stroke="midnightblue" d="M575.403,-281.313C656.516,-259.949 862.768,-195.869 792.168,-112 764.515,-79.1495 637.931,-70.28 572.142,-67.8854"/>
<polygon fill="midnightblue" stroke="midnightblue" points="572.24,-64.3869 562.13,-67.554 572.009,-71.383 572.24,-64.3869"/>
</g>
<!-- Node26&#45;&gt;Node12 -->
<g id="edge41" class="edge"><title>Node26&#45;&gt;Node12</title>
<path fill="none" stroke="midnightblue" d="M556.194,-280.179C571.126,-268.066 593.55,-245.35 584.168,-224 569.361,-190.307 553.858,-188.312 523.168,-168 501.655,-153.762 474.903,-141.903 454.634,-133.94"/>
<polygon fill="midnightblue" stroke="midnightblue" points="455.846,-130.656 445.255,-130.35 453.343,-137.194 455.846,-130.656"/>
</g>
<!-- Node26&#45;&gt;Node14 -->
<g id="edge39" class="edge"><title>Node26&#45;&gt;Node14</title>
<path fill="none" stroke="midnightblue" d="M516.549,-280.359C492.883,-272.432 458.27,-259.575 430.168,-244 404.138,-229.574 377.005,-208.457 359.871,-194.244"/>
<polygon fill="midnightblue" stroke="midnightblue" points="361.784,-191.279 351.881,-187.512 357.274,-196.632 361.784,-191.279"/>
</g>
<!-- Node26&#45;&gt;Node16 -->
<g id="edge37" class="edge"><title>Node26&#45;&gt;Node16</title>
<path fill="none" stroke="midnightblue" d="M512.957,-285.654C464.261,-279.959 367.558,-266.731 288.168,-244 239.792,-230.149 186.047,-206.723 154.505,-192.099"/>
<polygon fill="midnightblue" stroke="midnightblue" points="155.62,-188.757 145.079,-187.684 152.65,-195.095 155.62,-188.757"/>
</g>
<!-- Node27 -->
<g id="node28" class="node"><title>Node27</title>
<g id="a_node28"><a xlink:title=" ">
<polygon fill="white" stroke="#bfbfbf" points="513.168,-224.5 513.168,-243.5 575.168,-243.5 575.168,-224.5 513.168,-224.5"/>
<text text-anchor="middle" x="544.168" y="-231.5" font-family="Helvetica,sans-Serif" font-size="10.00">windows.h</text>
</a>
</g>
</g>
<!-- Node26&#45;&gt;Node27 -->
<g id="edge36" class="edge"><title>Node26&#45;&gt;Node27</title>
<path fill="none" stroke="midnightblue" d="M544.168,-280.083C544.168,-273.006 544.168,-262.861 544.168,-253.986"/>
<polygon fill="midnightblue" stroke="midnightblue" points="547.668,-253.751 544.168,-243.751 540.668,-253.751 547.668,-253.751"/>
</g>
<!-- Node28&#45;&gt;Node16 -->
<g id="edge44" class="edge"><title>Node28&#45;&gt;Node16</title>
<path fill="none" stroke="midnightblue" d="M48.9583,-280.471C24.4174,-268.86 -11.8321,-246.891 4.16783,-224 14.0417,-209.874 55.3525,-196.698 87.4063,-188.301"/>
<polygon fill="midnightblue" stroke="midnightblue" points="88.6093,-191.606 97.4366,-185.747 86.8821,-184.822 88.6093,-191.606"/>
</g>
</g>
</svg>
