<?xml version="1.0" encoding="UTF-8" standalone="no"?>
<!DOCTYPE svg PUBLIC "-//W3C//DTD SVG 1.1//EN"
 "http://www.w3.org/Graphics/SVG/1.1/DTD/svg11.dtd">
<!-- Generated by graphviz version 2.38.0 (20140413.2041)
 -->
<!-- Title: C:/dev/Igor/src/Igor/src/iModelDataIO3DS.cpp Pages: 1 -->
<svg width="1180pt" height="431pt"
 viewBox="0.00 0.00 1179.96 431.00" xmlns="http://www.w3.org/2000/svg" xmlns:xlink="http://www.w3.org/1999/xlink">
<g id="graph0" class="graph" transform="scale(1 1) rotate(0) translate(4 427)">
<title>C:/dev/Igor/src/Igor/src/iModelDataIO3DS.cpp</title>
<polygon fill="white" stroke="none" points="-4,4 -4,-427 1175.96,-427 1175.96,4 -4,4"/>
<!-- Node1 -->
<g id="node1" class="node"><title>Node1</title>
<polygon fill="#bfbfbf" stroke="black" points="426,-392.5 426,-422.5 558,-422.5 558,-392.5 426,-392.5"/>
<text text-anchor="start" x="434" y="-410.5" font-family="Helvetica,sans-Serif" font-size="10.00">C:/dev/Igor/src/Igor</text>
<text text-anchor="middle" x="492" y="-399.5" font-family="Helvetica,sans-Serif" font-size="10.00">/src/iModelDataIO3DS.cpp</text>
</g>
<!-- Node2 -->
<g id="node2" class="node"><title>Node2</title>
<polygon fill="white" stroke="#bfbfbf" points="238.5,-336.5 238.5,-355.5 313.5,-355.5 313.5,-336.5 238.5,-336.5"/>
<text text-anchor="middle" x="276" y="-343.5" font-family="Helvetica,sans-Serif" font-size="10.00">iLoader3DS.h</text>
</g>
<!-- Node1&#45;&gt;Node2 -->
<g id="edge1" class="edge"><title>Node1&#45;&gt;Node2</title>
<path fill="none" stroke="midnightblue" d="M441.085,-392.475C403.169,-382.03 352.081,-367.958 316.829,-358.247"/>
<polygon fill="midnightblue" stroke="midnightblue" points="317.451,-354.788 306.88,-355.506 315.592,-361.536 317.451,-354.788"/>
</g>
<!-- Node3 -->
<g id="node3" class="node"><title>Node3</title>
<polygon fill="white" stroke="#bfbfbf" points="331.5,-336.5 331.5,-355.5 428.5,-355.5 428.5,-336.5 331.5,-336.5"/>
<text text-anchor="middle" x="380" y="-343.5" font-family="Helvetica,sans-Serif" font-size="10.00">iTextureManager.h</text>
</g>
<!-- Node1&#45;&gt;Node3 -->
<g id="edge2" class="edge"><title>Node1&#45;&gt;Node3</title>
<path fill="none" stroke="midnightblue" d="M465.458,-392.399C447.337,-382.773 423.464,-370.09 405.557,-360.577"/>
<polygon fill="midnightblue" stroke="midnightblue" points="406.77,-357.258 396.297,-355.658 403.486,-363.44 406.77,-357.258"/>
</g>
<!-- Node4 -->
<g id="node4" class="node"><title>Node4</title>
<polygon fill="white" stroke="#bfbfbf" points="446.5,-336.5 446.5,-355.5 537.5,-355.5 537.5,-336.5 446.5,-336.5"/>
<text text-anchor="middle" x="492" y="-343.5" font-family="Helvetica,sans-Serif" font-size="10.00">iModelManager.h</text>
</g>
<!-- Node1&#45;&gt;Node4 -->
<g id="edge3" class="edge"><title>Node1&#45;&gt;Node4</title>
<path fill="none" stroke="midnightblue" d="M492,-392.399C492,-384.466 492,-374.458 492,-365.858"/>
<polygon fill="midnightblue" stroke="midnightblue" points="495.5,-365.658 492,-355.658 488.5,-365.658 495.5,-365.658"/>
</g>
<!-- Node5 -->
<g id="node5" class="node"><title>Node5</title>
<g id="a_node5"><a xlink:href="i_model_8h.html" target="_top" xlink:title="iModel.h">
<polygon fill="white" stroke="black" points="555.5,-336.5 555.5,-355.5 608.5,-355.5 608.5,-336.5 555.5,-336.5"/>
<text text-anchor="middle" x="582" y="-343.5" font-family="Helvetica,sans-Serif" font-size="10.00">iModel.h</text>
</a>
</g>
</g>
<!-- Node1&#45;&gt;Node5 -->
<g id="edge4" class="edge"><title>Node1&#45;&gt;Node5</title>
<path fill="none" stroke="midnightblue" d="M513.329,-392.399C527.485,-383.04 546.011,-370.792 560.253,-361.377"/>
<polygon fill="midnightblue" stroke="midnightblue" points="562.493,-364.092 568.904,-355.658 558.632,-358.253 562.493,-364.092"/>
</g>
<!-- Node37 -->
<g id="node37" class="node"><title>Node37</title>
<polygon fill="white" stroke="#bfbfbf" points="626.5,-336.5 626.5,-355.5 675.5,-355.5 675.5,-336.5 626.5,-336.5"/>
<text text-anchor="middle" x="651" y="-343.5" font-family="Helvetica,sans-Serif" font-size="10.00">string.h</text>
</g>
<!-- Node1&#45;&gt;Node37 -->
<g id="edge64" class="edge"><title>Node1&#45;&gt;Node37</title>
<path fill="none" stroke="midnightblue" d="M529.681,-392.399C556.596,-382.327 592.452,-368.909 618.193,-359.277"/>
<polygon fill="midnightblue" stroke="midnightblue" points="619.725,-362.441 627.864,-355.658 617.272,-355.885 619.725,-362.441"/>
</g>
<!-- Node6 -->
<g id="node6" class="node"><title>Node6</title>
<g id="a_node6"><a xlink:href="i_defines_8h.html" target="_top" xlink:title="iDefines.h">
<polygon fill="white" stroke="black" points="1096.5,-168.5 1096.5,-187.5 1155.5,-187.5 1155.5,-168.5 1096.5,-168.5"/>
<text text-anchor="middle" x="1126" y="-175.5" font-family="Helvetica,sans-Serif" font-size="10.00">iDefines.h</text>
</a>
</g>
</g>
<!-- Node5&#45;&gt;Node6 -->
<g id="edge5" class="edge"><title>Node5&#45;&gt;Node6</title>
<path fill="none" stroke="midnightblue" d="M608.638,-337.845C611.779,-337.149 614.95,-336.512 618,-336 797.96,-305.778 849.447,-342.121 1027,-300 1092.61,-284.436 1130.13,-299.789 1168,-244 1179.5,-227.055 1162.42,-207.245 1146.71,-193.988"/>
<polygon fill="midnightblue" stroke="midnightblue" points="1148.79,-191.172 1138.78,-187.704 1144.44,-196.658 1148.79,-191.172"/>
</g>
<!-- Node8 -->
<g id="node8" class="node"><title>Node8</title>
<g id="a_node8"><a xlink:href="i_task_8h.html" target="_top" xlink:title="iTask.h">
<polygon fill="white" stroke="black" points="970,-280.5 970,-299.5 1018,-299.5 1018,-280.5 970,-280.5"/>
<text text-anchor="middle" x="994" y="-287.5" font-family="Helvetica,sans-Serif" font-size="10.00">iTask.h</text>
</a>
</g>
</g>
<!-- Node5&#45;&gt;Node8 -->
<g id="edge7" class="edge"><title>Node5&#45;&gt;Node8</title>
<path fill="none" stroke="midnightblue" d="M608.655,-337.939C611.792,-337.226 614.959,-336.56 618,-336 742.639,-313.056 892.768,-299.15 959.327,-293.681"/>
<polygon fill="midnightblue" stroke="midnightblue" points="959.962,-297.141 969.647,-292.845 959.397,-290.164 959.962,-297.141"/>
</g>
<!-- Node12 -->
<g id="node12" class="node"><title>Node12</title>
<g id="a_node12"><a xlink:href="i_node_8h.html" target="_top" xlink:title="iNode.h">
<polygon fill="white" stroke="black" points="557,-280.5 557,-299.5 607,-299.5 607,-280.5 557,-280.5"/>
<text text-anchor="middle" x="582" y="-287.5" font-family="Helvetica,sans-Serif" font-size="10.00">iNode.h</text>
</a>
</g>
</g>
<!-- Node5&#45;&gt;Node12 -->
<g id="edge15" class="edge"><title>Node5&#45;&gt;Node12</title>
<path fill="none" stroke="midnightblue" d="M582,-336.083C582,-329.006 582,-318.861 582,-309.986"/>
<polygon fill="midnightblue" stroke="midnightblue" points="585.5,-309.751 582,-299.751 578.5,-309.751 585.5,-309.751"/>
</g>
<!-- Node22 -->
<g id="node22" class="node"><title>Node22</title>
<g id="a_node22"><a xlink:href="ia_string_8h.html" target="_top" xlink:title="iaString.h">
<polygon fill="white" stroke="black" points="42,-224.5 42,-243.5 100,-243.5 100,-224.5 42,-224.5"/>
<text text-anchor="middle" x="71" y="-231.5" font-family="Helvetica,sans-Serif" font-size="10.00">iaString.h</text>
</a>
</g>
</g>
<!-- Node5&#45;&gt;Node22 -->
<g id="edge61" class="edge"><title>Node5&#45;&gt;Node22</title>
<path fill="none" stroke="midnightblue" d="M555.276,-338.003C552.485,-337.31 549.688,-336.63 547,-336 504.217,-325.965 216.53,-265.521 110.308,-243.24"/>
<polygon fill="midnightblue" stroke="midnightblue" points="110.821,-239.771 100.316,-241.144 109.384,-246.622 110.821,-239.771"/>
</g>
<!-- Node36 -->
<g id="node36" class="node"><title>Node36</title>
<g id="a_node36"><a xlink:href="ia_mem_block_8h.html" target="_top" xlink:title="iaMemBlock.h">
<polygon fill="white" stroke="black" points="76.5,-280.5 76.5,-299.5 155.5,-299.5 155.5,-280.5 76.5,-280.5"/>
<text text-anchor="middle" x="116" y="-287.5" font-family="Helvetica,sans-Serif" font-size="10.00">iaMemBlock.h</text>
</a>
</g>
</g>
<!-- Node5&#45;&gt;Node36 -->
<g id="edge62" class="edge"><title>Node5&#45;&gt;Node36</title>
<path fill="none" stroke="midnightblue" d="M555.336,-337.711C552.534,-337.075 549.717,-336.488 547,-336 410.408,-311.446 246.878,-298.913 166.154,-293.826"/>
<polygon fill="midnightblue" stroke="midnightblue" points="165.988,-290.309 155.792,-293.185 165.556,-297.296 165.988,-290.309"/>
</g>
<!-- Node7 -->
<g id="node7" class="node"><title>Node7</title>
<g id="a_node7"><a xlink:href="ia_defines_8h.html" target="_top" xlink:title="iaDefines.h">
<polygon fill="white" stroke="black" points="457.5,-0.5 457.5,-19.5 522.5,-19.5 522.5,-0.5 457.5,-0.5"/>
<text text-anchor="middle" x="490" y="-7.5" font-family="Helvetica,sans-Serif" font-size="10.00">iaDefines.h</text>
</a>
</g>
</g>
<!-- Node6&#45;&gt;Node7 -->
<g id="edge6" class="edge"><title>Node6&#45;&gt;Node7</title>
<path fill="none" stroke="midnightblue" d="M1116.35,-168.205C1090.08,-144.889 1014.18,-81.5373 938,-56 863.451,-31.0094 629.42,-17.507 532.591,-12.8694"/>
<polygon fill="midnightblue" stroke="midnightblue" points="532.72,-9.37175 522.567,-12.3977 532.391,-16.364 532.72,-9.37175"/>
</g>
<!-- Node8&#45;&gt;Node6 -->
<g id="edge8" class="edge"><title>Node8&#45;&gt;Node6</title>
<path fill="none" stroke="midnightblue" d="M1018.1,-285.691C1058.21,-279.636 1135.85,-265.397 1152,-244 1163.04,-229.38 1152.07,-209.445 1141.18,-195.52"/>
<polygon fill="midnightblue" stroke="midnightblue" points="1143.73,-193.115 1134.6,-187.728 1138.38,-197.629 1143.73,-193.115"/>
</g>
<!-- Node9 -->
<g id="node9" class="node"><title>Node9</title>
<g id="a_node9"><a xlink:href="i_physics_world_8h.html" target="_top" xlink:title="iPhysicsWorld.h">
<polygon fill="white" stroke="black" points="1022,-224.5 1022,-243.5 1110,-243.5 1110,-224.5 1022,-224.5"/>
<text text-anchor="middle" x="1066" y="-231.5" font-family="Helvetica,sans-Serif" font-size="10.00">iPhysicsWorld.h</text>
</a>
</g>
</g>
<!-- Node8&#45;&gt;Node9 -->
<g id="edge9" class="edge"><title>Node8&#45;&gt;Node9</title>
<path fill="none" stroke="midnightblue" d="M1005.57,-280.324C1016.42,-272.185 1032.88,-259.839 1045.88,-250.087"/>
<polygon fill="midnightblue" stroke="midnightblue" points="1048.32,-252.634 1054.22,-243.834 1044.12,-247.034 1048.32,-252.634"/>
</g>
<!-- Node10 -->
<g id="node10" class="node"><title>Node10</title>
<g id="a_node10"><a xlink:href="ia_mutex_8h.html" target="_top" xlink:title="iaMutex.h">
<polygon fill="white" stroke="black" points="869.5,-56.5 869.5,-75.5 928.5,-75.5 928.5,-56.5 869.5,-56.5"/>
<text text-anchor="middle" x="899" y="-63.5" font-family="Helvetica,sans-Serif" font-size="10.00">iaMutex.h</text>
</a>
</g>
</g>
<!-- Node8&#45;&gt;Node10 -->
<g id="edge14" class="edge"><title>Node8&#45;&gt;Node10</title>
<path fill="none" stroke="midnightblue" d="M995.215,-280.402C998.595,-253.21 1005.66,-167.597 970,-112 960.887,-97.792 945.515,-87.2367 931.4,-79.9337"/>
<polygon fill="midnightblue" stroke="midnightblue" points="932.914,-76.778 922.385,-75.5986 929.88,-83.0865 932.914,-76.778"/>
</g>
<!-- Node11 -->
<g id="node11" class="node"><title>Node11</title>
<g id="a_node11"><a xlink:href="ia_delegate_8h.html" target="_top" xlink:title="iaDelegate.h">
<polygon fill="white" stroke="black" points="818.5,-168.5 818.5,-187.5 889.5,-187.5 889.5,-168.5 818.5,-168.5"/>
<text text-anchor="middle" x="854" y="-175.5" font-family="Helvetica,sans-Serif" font-size="10.00">iaDelegate.h</text>
</a>
</g>
</g>
<!-- Node8&#45;&gt;Node11 -->
<g id="edge13" class="edge"><title>Node8&#45;&gt;Node11</title>
<path fill="none" stroke="midnightblue" d="M983.014,-280.368C959.195,-261.653 902.556,-217.151 872.878,-193.832"/>
<polygon fill="midnightblue" stroke="midnightblue" points="874.96,-191.018 864.935,-187.591 870.635,-196.522 874.96,-191.018"/>
</g>
<!-- Node9&#45;&gt;Node6 -->
<g id="edge10" class="edge"><title>Node9&#45;&gt;Node6</title>
<path fill="none" stroke="midnightblue" d="M1075.64,-224.324C1084.51,-216.341 1097.87,-204.313 1108.61,-194.653"/>
<polygon fill="midnightblue" stroke="midnightblue" points="1111.09,-197.125 1116.18,-187.834 1106.41,-191.922 1111.09,-197.125"/>
</g>
<!-- Node9&#45;&gt;Node10 -->
<g id="edge11" class="edge"><title>Node9&#45;&gt;Node10</title>
<path fill="none" stroke="midnightblue" d="M1064.14,-224.414C1059.02,-202.668 1042.69,-144.819 1008,-112 988.697,-93.7386 960.948,-82.4271 938.28,-75.7123"/>
<polygon fill="midnightblue" stroke="midnightblue" points="939.166,-72.3259 928.594,-73.0256 937.295,-79.0712 939.166,-72.3259"/>
</g>
<!-- Node10&#45;&gt;Node7 -->
<g id="edge12" class="edge"><title>Node10&#45;&gt;Node7</title>
<path fill="none" stroke="midnightblue" d="M869.256,-61.073C797.773,-51.6351 616.099,-27.6488 532.851,-16.6576"/>
<polygon fill="midnightblue" stroke="midnightblue" points="533.098,-13.1599 522.726,-15.3208 532.182,-20.0997 533.098,-13.1599"/>
</g>
<!-- Node12&#45;&gt;Node6 -->
<g id="edge20" class="edge"><title>Node12&#45;&gt;Node6</title>
<path fill="none" stroke="midnightblue" d="M607.294,-288.732C708.687,-287.412 1082.02,-280.115 1119,-244 1131.04,-232.246 1131.48,-212.314 1129.72,-197.613"/>
<polygon fill="midnightblue" stroke="midnightblue" points="1133.16,-196.926 1128.1,-187.614 1126.25,-198.044 1133.16,-196.926"/>
</g>
<!-- Node12&#45;&gt;Node10 -->
<g id="edge53" class="edge"><title>Node12&#45;&gt;Node10</title>
<path fill="none" stroke="midnightblue" d="M607.107,-288.807C674.143,-287.784 855.21,-281.528 899,-244 944.277,-205.198 937.462,-169.848 923,-112 920.561,-102.245 915.563,-92.2896 910.757,-84.231"/>
<polygon fill="midnightblue" stroke="midnightblue" points="913.691,-82.3225 905.367,-75.768 907.787,-86.0828 913.691,-82.3225"/>
</g>
<!-- Node13 -->
<g id="node13" class="node"><title>Node13</title>
<g id="a_node13"><a xlink:href="i_data_update_queue_8h.html" target="_top" xlink:title="iDataUpdateQueue.h">
<polygon fill="white" stroke="black" points="782.5,-224.5 782.5,-243.5 889.5,-243.5 889.5,-224.5 782.5,-224.5"/>
<text text-anchor="middle" x="836" y="-231.5" font-family="Helvetica,sans-Serif" font-size="10.00">iDataUpdateQueue.h</text>
</a>
</g>
</g>
<!-- Node12&#45;&gt;Node13 -->
<g id="edge16" class="edge"><title>Node12&#45;&gt;Node13</title>
<path fill="none" stroke="midnightblue" d="M607.283,-283.625C648.778,-274.803 732.082,-257.093 785.878,-245.656"/>
<polygon fill="midnightblue" stroke="midnightblue" points="786.84,-249.03 795.893,-243.527 785.384,-242.183 786.84,-249.03"/>
</g>
<!-- Node14 -->
<g id="node14" class="node"><title>Node14</title>
<polygon fill="white" stroke="#bfbfbf" points="710,-168.5 710,-187.5 752,-187.5 752,-168.5 710,-168.5"/>
<text text-anchor="middle" x="731" y="-175.5" font-family="Helvetica,sans-Serif" font-size="10.00">vector</text>
</g>
<!-- Node12&#45;&gt;Node14 -->
<g id="edge58" class="edge"><title>Node12&#45;&gt;Node14</title>
<path fill="none" stroke="midnightblue" d="M571.301,-280.441C556.349,-267.45 532.572,-242.329 547,-224 589.139,-170.468 629.897,-204.484 696,-188 697.267,-187.684 698.559,-187.36 699.864,-187.031"/>
<polygon fill="midnightblue" stroke="midnightblue" points="701.085,-190.332 709.913,-184.475 699.359,-183.548 701.085,-190.332"/>
</g>
<!-- Node15 -->
<g id="node15" class="node"><title>Node15</title>
<g id="a_node15"><a xlink:href="ia_event_8h.html" target="_top" xlink:title="iaEvent.h">
<polygon fill="white" stroke="black" points="444,-224.5 444,-243.5 500,-243.5 500,-224.5 444,-224.5"/>
<text text-anchor="middle" x="472" y="-231.5" font-family="Helvetica,sans-Serif" font-size="10.00">iaEvent.h</text>
</a>
</g>
</g>
<!-- Node12&#45;&gt;Node15 -->
<g id="edge21" class="edge"><title>Node12&#45;&gt;Node15</title>
<path fill="none" stroke="midnightblue" d="M564.327,-280.324C546.606,-271.625 519.097,-258.12 498.712,-248.113"/>
<polygon fill="midnightblue" stroke="midnightblue" points="500.149,-244.919 489.63,-243.655 497.064,-251.203 500.149,-244.919"/>
</g>
<!-- Node12&#45;&gt;Node22 -->
<g id="edge33" class="edge"><title>Node12&#45;&gt;Node22</title>
<path fill="none" stroke="midnightblue" d="M556.767,-287.558C486.386,-283.323 282.047,-269.585 114,-244 112.728,-243.806 111.436,-243.599 110.134,-243.381"/>
<polygon fill="midnightblue" stroke="midnightblue" points="110.532,-239.896 100.065,-241.537 109.271,-246.781 110.532,-239.896"/>
</g>
<!-- Node23 -->
<g id="node23" class="node"><title>Node23</title>
<polygon fill="white" stroke="#bfbfbf" points="107,-56.5 107,-75.5 159,-75.5 159,-56.5 107,-56.5"/>
<text text-anchor="middle" x="133" y="-63.5" font-family="Helvetica,sans-Serif" font-size="10.00">ostream</text>
</g>
<!-- Node12&#45;&gt;Node23 -->
<g id="edge57" class="edge"><title>Node12&#45;&gt;Node23</title>
<path fill="none" stroke="midnightblue" d="M556.882,-286.059C476.825,-276.204 229.613,-241.9 173,-188 144.385,-160.757 136.228,-112.644 133.911,-86.0335"/>
<polygon fill="midnightblue" stroke="midnightblue" points="137.384,-85.5114 133.219,-75.7696 130.4,-85.9825 137.384,-85.5114"/>
</g>
<!-- Node24 -->
<g id="node24" class="node"><title>Node24</title>
<g id="a_node24"><a xlink:href="ia_matrix_8h.html" target="_top" xlink:title="iaMatrix.h">
<polygon fill="white" stroke="black" points="366.5,-224.5 366.5,-243.5 425.5,-243.5 425.5,-224.5 366.5,-224.5"/>
<text text-anchor="middle" x="396" y="-231.5" font-family="Helvetica,sans-Serif" font-size="10.00">iaMatrix.h</text>
</a>
</g>
</g>
<!-- Node12&#45;&gt;Node24 -->
<g id="edge37" class="edge"><title>Node12&#45;&gt;Node24</title>
<path fill="none" stroke="midnightblue" d="M556.915,-281.717C525.736,-272.665 472.162,-257.111 435.46,-246.456"/>
<polygon fill="midnightblue" stroke="midnightblue" points="436.167,-243.017 425.588,-243.59 434.215,-249.739 436.167,-243.017"/>
</g>
<!-- Node33 -->
<g id="node33" class="node"><title>Node33</title>
<g id="a_node33"><a xlink:href="ia_i_d_generator_8h.html" target="_top" xlink:title="iaIDGenerator.h">
<polygon fill="white" stroke="black" points="680,-224.5 680,-243.5 764,-243.5 764,-224.5 680,-224.5"/>
<text text-anchor="middle" x="722" y="-231.5" font-family="Helvetica,sans-Serif" font-size="10.00">iaIDGenerator.h</text>
</a>
</g>
</g>
<!-- Node12&#45;&gt;Node33 -->
<g id="edge54" class="edge"><title>Node12&#45;&gt;Node33</title>
<path fill="none" stroke="midnightblue" d="M604.183,-280.444C627.428,-271.478 664.149,-257.314 690.415,-247.183"/>
<polygon fill="midnightblue" stroke="midnightblue" points="691.85,-250.381 699.92,-243.516 689.331,-243.85 691.85,-250.381"/>
</g>
<!-- Node34 -->
<g id="node34" class="node"><title>Node34</title>
<polygon fill="white" stroke="#bfbfbf" points="556,-224.5 556,-243.5 608,-243.5 608,-224.5 556,-224.5"/>
<text text-anchor="middle" x="582" y="-231.5" font-family="Helvetica,sans-Serif" font-size="10.00">memory</text>
</g>
<!-- Node12&#45;&gt;Node34 -->
<g id="edge59" class="edge"><title>Node12&#45;&gt;Node34</title>
<path fill="none" stroke="midnightblue" d="M582,-280.083C582,-273.006 582,-262.861 582,-253.986"/>
<polygon fill="midnightblue" stroke="midnightblue" points="585.5,-253.751 582,-243.751 578.5,-253.751 585.5,-253.751"/>
</g>
<!-- Node35 -->
<g id="node35" class="node"><title>Node35</title>
<polygon fill="white" stroke="#bfbfbf" points="626.5,-224.5 626.5,-243.5 661.5,-243.5 661.5,-224.5 626.5,-224.5"/>
<text text-anchor="middle" x="644" y="-231.5" font-family="Helvetica,sans-Serif" font-size="10.00">map</text>
</g>
<!-- Node12&#45;&gt;Node35 -->
<g id="edge60" class="edge"><title>Node12&#45;&gt;Node35</title>
<path fill="none" stroke="midnightblue" d="M591.961,-280.324C601.127,-272.341 614.937,-260.313 626.028,-250.653"/>
<polygon fill="midnightblue" stroke="midnightblue" points="628.615,-253.041 633.857,-243.834 624.018,-247.762 628.615,-253.041"/>
</g>
<!-- Node13&#45;&gt;Node6 -->
<g id="edge17" class="edge"><title>Node13&#45;&gt;Node6</title>
<path fill="none" stroke="midnightblue" d="M881.951,-224.444C938.25,-213.96 1032.71,-196.372 1086.09,-186.431"/>
<polygon fill="midnightblue" stroke="midnightblue" points="1087.01,-189.82 1096.2,-184.549 1085.73,-182.939 1087.01,-189.82"/>
</g>
<!-- Node13&#45;&gt;Node10 -->
<g id="edge18" class="edge"><title>Node13&#45;&gt;Node10</title>
<path fill="none" stroke="midnightblue" d="M856.847,-224.427C871.578,-217.129 890.205,-205.091 899,-188 915.922,-155.118 909.571,-110.242 903.953,-85.4162"/>
<polygon fill="midnightblue" stroke="midnightblue" points="907.308,-84.403 901.509,-75.5357 900.512,-86.0836 907.308,-84.403"/>
</g>
<!-- Node13&#45;&gt;Node14 -->
<g id="edge19" class="edge"><title>Node13&#45;&gt;Node14</title>
<path fill="none" stroke="midnightblue" d="M819.13,-224.324C802.291,-215.664 776.193,-202.242 756.762,-192.249"/>
<polygon fill="midnightblue" stroke="midnightblue" points="758.322,-189.116 747.828,-187.655 755.12,-195.341 758.322,-189.116"/>
</g>
<!-- Node15&#45;&gt;Node10 -->
<g id="edge22" class="edge"><title>Node15&#45;&gt;Node10</title>
<path fill="none" stroke="midnightblue" d="M500.188,-227.736C536.682,-220.553 602.004,-206.437 656,-188 676.712,-180.928 680.46,-175.558 701,-168 754.056,-148.478 773.312,-158.967 823,-132 846.69,-119.143 869.598,-97.9744 883.959,-83.3041"/>
<polygon fill="midnightblue" stroke="midnightblue" points="886.638,-85.5673 891.009,-75.9165 881.573,-80.7346 886.638,-85.5673"/>
</g>
<!-- Node15&#45;&gt;Node11 -->
<g id="edge23" class="edge"><title>Node15&#45;&gt;Node11</title>
<path fill="none" stroke="midnightblue" d="M500.089,-229.029C565.389,-219.798 727.927,-196.822 807.973,-185.506"/>
<polygon fill="midnightblue" stroke="midnightblue" points="808.828,-188.92 818.239,-184.055 807.848,-181.989 808.828,-188.92"/>
</g>
<!-- Node15&#45;&gt;Node14 -->
<g id="edge32" class="edge"><title>Node15&#45;&gt;Node14</title>
<path fill="none" stroke="midnightblue" d="M500.001,-226.935C504.673,-225.942 509.472,-224.933 514,-224 594.76,-207.361 615.594,-206.275 696,-188 697.273,-187.711 698.571,-187.409 699.88,-187.098"/>
<polygon fill="midnightblue" stroke="midnightblue" points="701.075,-190.409 709.948,-184.618 699.401,-183.612 701.075,-190.409"/>
</g>
<!-- Node16 -->
<g id="node16" class="node"><title>Node16</title>
<g id="a_node16"><a xlink:href="ia_console_8h.html" target="_top" xlink:title="iaConsole.h">
<polygon fill="white" stroke="black" points="579,-168.5 579,-187.5 647,-187.5 647,-168.5 579,-168.5"/>
<text text-anchor="middle" x="613" y="-175.5" font-family="Helvetica,sans-Serif" font-size="10.00">iaConsole.h</text>
</a>
</g>
</g>
<!-- Node15&#45;&gt;Node16 -->
<g id="edge24" class="edge"><title>Node15&#45;&gt;Node16</title>
<path fill="none" stroke="midnightblue" d="M494.342,-224.444C517.753,-215.478 554.736,-201.314 581.19,-191.183"/>
<polygon fill="midnightblue" stroke="midnightblue" points="582.676,-194.361 590.763,-187.516 580.172,-187.824 582.676,-194.361"/>
</g>
<!-- Node17 -->
<g id="node17" class="node"><title>Node17</title>
<g id="a_node17"><a xlink:href="ia_singleton_8h.html" target="_top" xlink:title="iaSingleton.h">
<polygon fill="white" stroke="black" points="740.5,-112.5 740.5,-131.5 813.5,-131.5 813.5,-112.5 740.5,-112.5"/>
<text text-anchor="middle" x="777" y="-119.5" font-family="Helvetica,sans-Serif" font-size="10.00">iaSingleton.h</text>
</a>
</g>
</g>
<!-- Node16&#45;&gt;Node17 -->
<g id="edge25" class="edge"><title>Node16&#45;&gt;Node17</title>
<path fill="none" stroke="midnightblue" d="M638.986,-168.444C666.696,-159.32 710.752,-144.813 741.616,-134.651"/>
<polygon fill="midnightblue" stroke="midnightblue" points="742.732,-137.968 751.135,-131.516 740.542,-131.32 742.732,-137.968"/>
</g>
<!-- Node18 -->
<g id="node18" class="node"><title>Node18</title>
<g id="a_node18"><a xlink:href="ia_clock_8h.html" target="_top" xlink:title="iaClock.h">
<polygon fill="white" stroke="black" points="554.5,-56.5 554.5,-75.5 611.5,-75.5 611.5,-56.5 554.5,-56.5"/>
<text text-anchor="middle" x="583" y="-63.5" font-family="Helvetica,sans-Serif" font-size="10.00">iaClock.h</text>
</a>
</g>
</g>
<!-- Node16&#45;&gt;Node18 -->
<g id="edge27" class="edge"><title>Node16&#45;&gt;Node18</title>
<path fill="none" stroke="midnightblue" d="M616.555,-168.297C621.219,-155.547 628.03,-131.221 621,-112 616.943,-100.908 608.812,-90.6651 601.109,-82.7625"/>
<polygon fill="midnightblue" stroke="midnightblue" points="603.362,-80.0747 593.714,-75.6955 598.525,-85.1351 603.362,-80.0747"/>
</g>
<!-- Node19 -->
<g id="node19" class="node"><title>Node19</title>
<polygon fill="white" stroke="#bfbfbf" points="494.5,-112.5 494.5,-131.5 543.5,-131.5 543.5,-112.5 494.5,-112.5"/>
<text text-anchor="middle" x="519" y="-119.5" font-family="Helvetica,sans-Serif" font-size="10.00">fstream</text>
</g>
<!-- Node16&#45;&gt;Node19 -->
<g id="edge29" class="edge"><title>Node16&#45;&gt;Node19</title>
<path fill="none" stroke="midnightblue" d="M597.897,-168.324C583.097,-159.822 560.306,-146.729 543.018,-136.797"/>
<polygon fill="midnightblue" stroke="midnightblue" points="544.48,-133.601 534.065,-131.655 540.993,-139.671 544.48,-133.601"/>
</g>
<!-- Node20 -->
<g id="node20" class="node"><title>Node20</title>
<polygon fill="white" stroke="#bfbfbf" points="668,-112.5 668,-131.5 722,-131.5 722,-112.5 668,-112.5"/>
<text text-anchor="middle" x="695" y="-119.5" font-family="Helvetica,sans-Serif" font-size="10.00">iostream</text>
</g>
<!-- Node16&#45;&gt;Node20 -->
<g id="edge30" class="edge"><title>Node16&#45;&gt;Node20</title>
<path fill="none" stroke="midnightblue" d="M626.175,-168.324C638.847,-159.979 658.233,-147.212 673.206,-137.352"/>
<polygon fill="midnightblue" stroke="midnightblue" points="675.431,-140.078 681.858,-131.655 671.581,-134.231 675.431,-140.078"/>
</g>
<!-- Node21 -->
<g id="node21" class="node"><title>Node21</title>
<polygon fill="white" stroke="#bfbfbf" points="562,-112.5 562,-131.5 612,-131.5 612,-112.5 562,-112.5"/>
<text text-anchor="middle" x="587" y="-119.5" font-family="Helvetica,sans-Serif" font-size="10.00">iomanip</text>
</g>
<!-- Node16&#45;&gt;Node21 -->
<g id="edge31" class="edge"><title>Node16&#45;&gt;Node21</title>
<path fill="none" stroke="midnightblue" d="M608.707,-168.083C605.148,-160.691 599.978,-149.953 595.576,-140.811"/>
<polygon fill="midnightblue" stroke="midnightblue" points="598.705,-139.243 591.213,-131.751 592.398,-142.279 598.705,-139.243"/>
</g>
<!-- Node17&#45;&gt;Node10 -->
<g id="edge26" class="edge"><title>Node17&#45;&gt;Node10</title>
<path fill="none" stroke="midnightblue" d="M796.331,-112.444C816.32,-103.596 847.743,-89.6875 870.564,-79.5865"/>
<polygon fill="midnightblue" stroke="midnightblue" points="872.032,-82.7645 879.759,-75.5164 869.198,-76.3635 872.032,-82.7645"/>
</g>
<!-- Node18&#45;&gt;Node7 -->
<g id="edge28" class="edge"><title>Node18&#45;&gt;Node7</title>
<path fill="none" stroke="midnightblue" d="M568.058,-56.324C553.415,-47.8215 530.866,-34.7288 513.762,-24.7975"/>
<polygon fill="midnightblue" stroke="midnightblue" points="515.31,-21.6491 504.905,-19.6545 511.795,-27.7027 515.31,-21.6491"/>
</g>
<!-- Node22&#45;&gt;Node7 -->
<g id="edge34" class="edge"><title>Node22&#45;&gt;Node7</title>
<path fill="none" stroke="midnightblue" d="M69.033,-224.274C63.043,-195.164 48.3208,-100.704 98,-56 123.584,-32.9784 350.575,-18.37 446.988,-13.153"/>
<polygon fill="midnightblue" stroke="midnightblue" points="447.463,-16.6328 457.263,-12.6059 447.091,-9.64266 447.463,-16.6328"/>
</g>
<!-- Node22&#45;&gt;Node14 -->
<g id="edge36" class="edge"><title>Node22&#45;&gt;Node14</title>
<path fill="none" stroke="midnightblue" d="M100.256,-231.193C185.841,-225.81 443.117,-208.951 656,-188 670.315,-186.591 686.13,-184.738 699.533,-183.079"/>
<polygon fill="midnightblue" stroke="midnightblue" points="700.204,-186.522 709.69,-181.803 699.332,-179.577 700.204,-186.522"/>
</g>
<!-- Node22&#45;&gt;Node23 -->
<g id="edge35" class="edge"><title>Node22&#45;&gt;Node23</title>
<path fill="none" stroke="midnightblue" d="M71.8774,-224.404C74.2032,-204.039 81.6514,-151.59 100,-112 104.727,-101.801 111.948,-91.6028 118.432,-83.4999"/>
<polygon fill="midnightblue" stroke="midnightblue" points="121.286,-85.5425 125.024,-75.629 115.92,-81.0477 121.286,-85.5425"/>
</g>
<!-- Node24&#45;&gt;Node19 -->
<g id="edge49" class="edge"><title>Node24&#45;&gt;Node19</title>
<path fill="none" stroke="midnightblue" d="M392.58,-224.499C387.815,-211.136 381.026,-184.991 393,-168 413.527,-138.871 454.701,-128.494 484.404,-124.855"/>
<polygon fill="midnightblue" stroke="midnightblue" points="484.79,-128.333 494.379,-123.828 484.074,-121.37 484.79,-128.333"/>
</g>
<!-- Node24&#45;&gt;Node21 -->
<g id="edge51" class="edge"><title>Node24&#45;&gt;Node21</title>
<path fill="none" stroke="midnightblue" d="M423.799,-224.49C447.158,-216.727 480.964,-204.033 508,-188 531.717,-173.935 555.722,-153.024 570.944,-138.743"/>
<polygon fill="midnightblue" stroke="midnightblue" points="573.629,-141.018 578.439,-131.577 568.792,-135.958 573.629,-141.018"/>
</g>
<!-- Node25 -->
<g id="node25" class="node"><title>Node25</title>
<g id="a_node25"><a xlink:href="ia_vector4_8h.html" target="_top" xlink:title="iaVector4.h">
<polygon fill="white" stroke="black" points="280,-168.5 280,-187.5 346,-187.5 346,-168.5 280,-168.5"/>
<text text-anchor="middle" x="313" y="-175.5" font-family="Helvetica,sans-Serif" font-size="10.00">iaVector4.h</text>
</a>
</g>
</g>
<!-- Node24&#45;&gt;Node25 -->
<g id="edge38" class="edge"><title>Node24&#45;&gt;Node25</title>
<path fill="none" stroke="midnightblue" d="M382.665,-224.324C369.838,-215.979 350.215,-203.212 335.06,-193.352"/>
<polygon fill="midnightblue" stroke="midnightblue" points="336.593,-190.174 326.302,-187.655 332.776,-196.042 336.593,-190.174"/>
</g>
<!-- Node27 -->
<g id="node27" class="node"><title>Node27</title>
<polygon fill="white" stroke="#bfbfbf" points="435,-56.5 435,-75.5 479,-75.5 479,-56.5 435,-56.5"/>
<text text-anchor="middle" x="457" y="-63.5" font-family="Helvetica,sans-Serif" font-size="10.00">cmath</text>
</g>
<!-- Node24&#45;&gt;Node27 -->
<g id="edge50" class="edge"><title>Node24&#45;&gt;Node27</title>
<path fill="none" stroke="midnightblue" d="M425.881,-224.387C443.54,-217.587 464.451,-206.15 475,-188 493.957,-155.385 477.942,-109.777 466.359,-84.9085"/>
<polygon fill="midnightblue" stroke="midnightblue" points="469.341,-83.0414 461.781,-75.6185 463.062,-86.1356 469.341,-83.0414"/>
</g>
<!-- Node30 -->
<g id="node30" class="node"><title>Node30</title>
<g id="a_node30"><a xlink:href="ia_quaternion_8h.html" target="_top" xlink:title="iaQuaternion.h">
<polygon fill="white" stroke="black" points="182,-168.5 182,-187.5 262,-187.5 262,-168.5 182,-168.5"/>
<text text-anchor="middle" x="222" y="-175.5" font-family="Helvetica,sans-Serif" font-size="10.00">iaQuaternion.h</text>
</a>
</g>
</g>
<!-- Node24&#45;&gt;Node30 -->
<g id="edge45" class="edge"><title>Node24&#45;&gt;Node30</title>
<path fill="none" stroke="midnightblue" d="M368.429,-224.444C338.903,-215.28 291.882,-200.688 259.117,-190.519"/>
<polygon fill="midnightblue" stroke="midnightblue" points="260.03,-187.138 249.442,-187.516 257.955,-193.823 260.03,-187.138"/>
</g>
<!-- Node32 -->
<g id="node32" class="node"><title>Node32</title>
<g id="a_node32"><a xlink:href="ia_matrix_8inl.html" target="_top" xlink:title="iaMatrix.inl">
<polygon fill="white" stroke="black" points="402,-168.5 402,-187.5 466,-187.5 466,-168.5 402,-168.5"/>
<text text-anchor="middle" x="434" y="-175.5" font-family="Helvetica,sans-Serif" font-size="10.00">iaMatrix.inl</text>
</a>
</g>
</g>
<!-- Node24&#45;&gt;Node32 -->
<g id="edge52" class="edge"><title>Node24&#45;&gt;Node32</title>
<path fill="none" stroke="midnightblue" d="M402.275,-224.083C407.642,-216.455 415.518,-205.264 422.079,-195.941"/>
<polygon fill="midnightblue" stroke="midnightblue" points="424.949,-197.943 427.842,-187.751 419.225,-193.915 424.949,-197.943"/>
</g>
<!-- Node26 -->
<g id="node26" class="node"><title>Node26</title>
<g id="a_node26"><a xlink:href="ia_vector3_8h.html" target="_top" xlink:title="iaVector3.h">
<polygon fill="white" stroke="black" points="282,-112.5 282,-131.5 348,-131.5 348,-112.5 282,-112.5"/>
<text text-anchor="middle" x="315" y="-119.5" font-family="Helvetica,sans-Serif" font-size="10.00">iaVector3.h</text>
</a>
</g>
</g>
<!-- Node25&#45;&gt;Node26 -->
<g id="edge39" class="edge"><title>Node25&#45;&gt;Node26</title>
<path fill="none" stroke="midnightblue" d="M313.33,-168.083C313.592,-161.006 313.968,-150.861 314.297,-141.986"/>
<polygon fill="midnightblue" stroke="midnightblue" points="317.803,-141.874 314.676,-131.751 310.808,-141.615 317.803,-141.874"/>
</g>
<!-- Node29 -->
<g id="node29" class="node"><title>Node29</title>
<g id="a_node29"><a xlink:href="ia_vector4_8inl.html" target="_top" xlink:title="iaVector4.inl">
<polygon fill="white" stroke="black" points="366.5,-112.5 366.5,-131.5 437.5,-131.5 437.5,-112.5 366.5,-112.5"/>
<text text-anchor="middle" x="402" y="-119.5" font-family="Helvetica,sans-Serif" font-size="10.00">iaVector4.inl</text>
</a>
</g>
</g>
<!-- Node25&#45;&gt;Node29 -->
<g id="edge44" class="edge"><title>Node25&#45;&gt;Node29</title>
<path fill="none" stroke="midnightblue" d="M327.299,-168.324C341.183,-159.9 362.492,-146.971 378.804,-137.074"/>
<polygon fill="midnightblue" stroke="midnightblue" points="381.002,-139.834 387.736,-131.655 377.371,-133.85 381.002,-139.834"/>
</g>
<!-- Node26&#45;&gt;Node7 -->
<g id="edge40" class="edge"><title>Node26&#45;&gt;Node7</title>
<path fill="none" stroke="midnightblue" d="M328.732,-112.368C358.89,-93.4121 431.135,-48.0006 467.819,-24.9424"/>
<polygon fill="midnightblue" stroke="midnightblue" points="469.728,-27.8764 476.332,-19.5914 466.003,-21.9499 469.728,-27.8764"/>
</g>
<!-- Node26&#45;&gt;Node23 -->
<g id="edge42" class="edge"><title>Node26&#45;&gt;Node23</title>
<path fill="none" stroke="midnightblue" d="M286.162,-112.444C254.323,-102.997 203.039,-87.7807 168.691,-77.5897"/>
<polygon fill="midnightblue" stroke="midnightblue" points="169.632,-74.2182 159.05,-74.729 167.641,-80.929 169.632,-74.2182"/>
</g>
<!-- Node26&#45;&gt;Node27 -->
<g id="edge41" class="edge"><title>Node26&#45;&gt;Node27</title>
<path fill="none" stroke="midnightblue" d="M337.5,-112.444C361.077,-103.478 398.322,-89.314 424.964,-79.1827"/>
<polygon fill="midnightblue" stroke="midnightblue" points="426.502,-82.3424 434.605,-75.5164 424.014,-75.7995 426.502,-82.3424"/>
</g>
<!-- Node28 -->
<g id="node28" class="node"><title>Node28</title>
<g id="a_node28"><a xlink:href="ia_vector3_8inl.html" target="_top" xlink:title="iaVector3.inl">
<polygon fill="white" stroke="black" points="279.5,-56.5 279.5,-75.5 350.5,-75.5 350.5,-56.5 279.5,-56.5"/>
<text text-anchor="middle" x="315" y="-63.5" font-family="Helvetica,sans-Serif" font-size="10.00">iaVector3.inl</text>
</a>
</g>
</g>
<!-- Node26&#45;&gt;Node28 -->
<g id="edge43" class="edge"><title>Node26&#45;&gt;Node28</title>
<path fill="none" stroke="midnightblue" d="M315,-112.083C315,-105.006 315,-94.8611 315,-85.9865"/>
<polygon fill="midnightblue" stroke="midnightblue" points="318.5,-85.751 315,-75.7511 311.5,-85.7511 318.5,-85.751"/>
</g>
<!-- Node30&#45;&gt;Node23 -->
<g id="edge47" class="edge"><title>Node30&#45;&gt;Node23</title>
<path fill="none" stroke="midnightblue" d="M210.091,-168.277C199.081,-159.824 182.703,-146.225 171,-132 158.956,-117.36 148.362,-98.4457 141.441,-84.7991"/>
<polygon fill="midnightblue" stroke="midnightblue" points="144.449,-82.9836 136.901,-75.5484 138.165,-86.0676 144.449,-82.9836"/>
</g>
<!-- Node30&#45;&gt;Node26 -->
<g id="edge46" class="edge"><title>Node30&#45;&gt;Node26</title>
<path fill="none" stroke="midnightblue" d="M236.942,-168.324C251.585,-159.822 274.134,-146.729 291.238,-136.797"/>
<polygon fill="midnightblue" stroke="midnightblue" points="293.205,-139.703 300.095,-131.655 289.69,-133.649 293.205,-139.703"/>
</g>
<!-- Node31 -->
<g id="node31" class="node"><title>Node31</title>
<g id="a_node31"><a xlink:href="ia_quaternion_8inl.html" target="_top" xlink:title="iaQuaternion.inl">
<polygon fill="white" stroke="black" points="180,-112.5 180,-131.5 264,-131.5 264,-112.5 180,-112.5"/>
<text text-anchor="middle" x="222" y="-119.5" font-family="Helvetica,sans-Serif" font-size="10.00">iaQuaternion.inl</text>
</a>
</g>
</g>
<!-- Node30&#45;&gt;Node31 -->
<g id="edge48" class="edge"><title>Node30&#45;&gt;Node31</title>
<path fill="none" stroke="midnightblue" d="M222,-168.083C222,-161.006 222,-150.861 222,-141.986"/>
<polygon fill="midnightblue" stroke="midnightblue" points="225.5,-141.751 222,-131.751 218.5,-141.751 225.5,-141.751"/>
</g>
<!-- Node33&#45;&gt;Node10 -->
<g id="edge55" class="edge"><title>Node33&#45;&gt;Node10</title>
<path fill="none" stroke="midnightblue" d="M733.819,-224.261C765.593,-200.745 850.811,-137.518 856,-132 869.575,-117.564 881.691,-98.3723 889.574,-84.5905"/>
<polygon fill="midnightblue" stroke="midnightblue" points="892.74,-86.0997 894.527,-75.6568 886.617,-82.7057 892.74,-86.0997"/>
</g>
<!-- Node33&#45;&gt;Node14 -->
<g id="edge56" class="edge"><title>Node33&#45;&gt;Node14</title>
<path fill="none" stroke="midnightblue" d="M723.486,-224.083C724.679,-216.927 726.394,-206.635 727.885,-197.691"/>
<polygon fill="midnightblue" stroke="midnightblue" points="731.35,-198.19 729.541,-187.751 724.445,-197.04 731.35,-198.19"/>
</g>
<!-- Node36&#45;&gt;Node7 -->
<g id="edge63" class="edge"><title>Node36&#45;&gt;Node7</title>
<path fill="none" stroke="midnightblue" d="M91.6942,-280.409C73.6669,-273.038 49.4631,-260.914 33,-244 10.4023,-220.783 0,-211.399 0,-179 0,-179 0,-179 0,-121 0,-75.8741 36.4674,-73.6462 78,-56 143.839,-28.0268 355.951,-16.3602 447.395,-12.5449"/>
<polygon fill="midnightblue" stroke="midnightblue" points="447.565,-16.0409 457.415,-12.1382 447.281,-9.0467 447.565,-16.0409"/>
</g>
</g>
</svg>
