<?xml version="1.0" encoding="UTF-8" standalone="no"?>
<!DOCTYPE svg PUBLIC "-//W3C//DTD SVG 1.1//EN"
 "http://www.w3.org/Graphics/SVG/1.1/DTD/svg11.dtd">
<!-- Generated by graphviz version 2.38.0 (20140413.2041)
 -->
<!-- Title: C:/dev/Igor/Igor/src/Igor/src/iModelDataIO.cpp Pages: 1 -->
<svg width="1125pt" height="487pt"
 viewBox="0.00 0.00 1124.50 487.00" xmlns="http://www.w3.org/2000/svg" xmlns:xlink="http://www.w3.org/1999/xlink">
<g id="graph0" class="graph" transform="scale(1 1) rotate(0) translate(4 483)">
<title>C:/dev/Igor/Igor/src/Igor/src/iModelDataIO.cpp</title>
<polygon fill="white" stroke="none" points="-4,4 -4,-483 1120.5,-483 1120.5,4 -4,4"/>
<!-- Node0 -->
<g id="node1" class="node"><title>Node0</title>
<g id="a_node1"><a xlink:title=" ">
<polygon fill="#bfbfbf" stroke="black" points="581.5,-448.5 581.5,-478.5 713.5,-478.5 713.5,-448.5 581.5,-448.5"/>
<text text-anchor="start" x="589.5" y="-466.5" font-family="Helvetica,sans-Serif" font-size="10.00">C:/dev/Igor/Igor/src</text>
<text text-anchor="middle" x="647.5" y="-455.5" font-family="Helvetica,sans-Serif" font-size="10.00">/Igor/src/iModelDataIO.cpp</text>
</a>
</g>
</g>
<!-- Node1 -->
<g id="node2" class="node"><title>Node1</title>
<g id="a_node2"><a xlink:href="i_model_data_i_o_8h.html" target="_top" xlink:title=" ">
<polygon fill="white" stroke="black" points="142,-392.5 142,-411.5 225,-411.5 225,-392.5 142,-392.5"/>
<text text-anchor="middle" x="183.5" y="-399.5" font-family="Helvetica,sans-Serif" font-size="10.00">iModelDataIO.h</text>
</a>
</g>
</g>
<!-- Node0&#45;&gt;Node1 -->
<g id="edge1" class="edge"><title>Node0&#45;&gt;Node1</title>
<path fill="none" stroke="midnightblue" d="M581.02,-453.975C487.686,-442.007 319.774,-420.475 235.185,-409.628"/>
<polygon fill="midnightblue" stroke="midnightblue" points="235.411,-406.128 225.047,-408.328 234.52,-413.071 235.411,-406.128"/>
</g>
<!-- Node13 -->
<g id="node14" class="node"><title>Node13</title>
<g id="a_node14"><a xlink:href="ia_console_8h.html" target="_top" xlink:title=" ">
<polygon fill="white" stroke="black" points="944.5,-168.5 944.5,-187.5 1012.5,-187.5 1012.5,-168.5 944.5,-168.5"/>
<text text-anchor="middle" x="978.5" y="-175.5" font-family="Helvetica,sans-Serif" font-size="10.00">iaConsole.h</text>
</a>
</g>
</g>
<!-- Node0&#45;&gt;Node13 -->
<g id="edge65" class="edge"><title>Node0&#45;&gt;Node13</title>
<path fill="none" stroke="midnightblue" d="M713.702,-459.931C842.982,-453.102 1116.5,-428.97 1116.5,-347 1116.5,-347 1116.5,-347 1116.5,-289 1116.5,-237.66 1057.37,-206.401 1016.53,-190.931"/>
<polygon fill="midnightblue" stroke="midnightblue" points="1017.69,-187.63 1007.09,-187.513 1015.3,-194.211 1017.69,-187.63"/>
</g>
<!-- Node2 -->
<g id="node3" class="node"><title>Node2</title>
<g id="a_node3"><a xlink:href="ia_string_8h.html" target="_top" xlink:title=" ">
<polygon fill="white" stroke="black" points="86.5,-224.5 86.5,-243.5 144.5,-243.5 144.5,-224.5 86.5,-224.5"/>
<text text-anchor="middle" x="115.5" y="-231.5" font-family="Helvetica,sans-Serif" font-size="10.00">iaString.h</text>
</a>
</g>
</g>
<!-- Node1&#45;&gt;Node2 -->
<g id="edge2" class="edge"><title>Node1&#45;&gt;Node2</title>
<path fill="none" stroke="midnightblue" d="M174.839,-392.472C166.658,-383.95 154.612,-370.118 147.5,-356 130.453,-322.159 121.782,-278.277 117.986,-253.736"/>
<polygon fill="midnightblue" stroke="midnightblue" points="121.423,-253.048 116.535,-243.648 114.494,-254.044 121.423,-253.048"/>
</g>
<!-- Node6 -->
<g id="node7" class="node"><title>Node6</title>
<g id="a_node7"><a xlink:href="ia_mem_block_8h.html" target="_top" xlink:title=" ">
<polygon fill="white" stroke="black" points="0,-280.5 0,-299.5 79,-299.5 79,-280.5 0,-280.5"/>
<text text-anchor="middle" x="39.5" y="-287.5" font-family="Helvetica,sans-Serif" font-size="10.00">iaMemBlock.h</text>
</a>
</g>
</g>
<!-- Node1&#45;&gt;Node6 -->
<g id="edge6" class="edge"><title>Node1&#45;&gt;Node6</title>
<path fill="none" stroke="midnightblue" d="M160.162,-392.465C141.035,-384.767 113.892,-372.176 93.5,-356 76.1515,-342.238 60.4885,-322.109 50.5542,-307.904"/>
<polygon fill="midnightblue" stroke="midnightblue" points="53.4009,-305.866 44.8931,-299.552 47.6064,-309.793 53.4009,-305.866"/>
</g>
<!-- Node7 -->
<g id="node8" class="node"><title>Node7</title>
<g id="a_node8"><a xlink:href="i_node_8h.html" target="_top" xlink:title=" ">
<polygon fill="white" stroke="black" points="543.5,-280.5 543.5,-299.5 593.5,-299.5 593.5,-280.5 543.5,-280.5"/>
<text text-anchor="middle" x="568.5" y="-287.5" font-family="Helvetica,sans-Serif" font-size="10.00">iNode.h</text>
</a>
</g>
</g>
<!-- Node1&#45;&gt;Node7 -->
<g id="edge8" class="edge"><title>Node1&#45;&gt;Node7</title>
<path fill="none" stroke="midnightblue" d="M213.39,-392.46C283.585,-372.404 458.676,-322.378 533.595,-300.973"/>
<polygon fill="midnightblue" stroke="midnightblue" points="534.827,-304.261 543.48,-298.149 532.903,-297.53 534.827,-304.261"/>
</g>
<!-- Node31 -->
<g id="node32" class="node"><title>Node31</title>
<g id="a_node32"><a xlink:href="i_model_8h.html" target="_top" xlink:title=" ">
<polygon fill="white" stroke="black" points="157,-336.5 157,-355.5 210,-355.5 210,-336.5 157,-336.5"/>
<text text-anchor="middle" x="183.5" y="-343.5" font-family="Helvetica,sans-Serif" font-size="10.00">iModel.h</text>
</a>
</g>
</g>
<!-- Node1&#45;&gt;Node31 -->
<g id="edge53" class="edge"><title>Node1&#45;&gt;Node31</title>
<path fill="none" stroke="midnightblue" d="M183.5,-392.083C183.5,-385.006 183.5,-374.861 183.5,-365.986"/>
<polygon fill="midnightblue" stroke="midnightblue" points="187,-365.751 183.5,-355.751 180,-365.751 187,-365.751"/>
</g>
<!-- Node3 -->
<g id="node4" class="node"><title>Node3</title>
<g id="a_node4"><a xlink:href="ia_defines_8h.html" target="_top" xlink:title=" ">
<polygon fill="white" stroke="black" points="194,-0.5 194,-19.5 259,-19.5 259,-0.5 194,-0.5"/>
<text text-anchor="middle" x="226.5" y="-7.5" font-family="Helvetica,sans-Serif" font-size="10.00">iaDefines.h</text>
</a>
</g>
</g>
<!-- Node2&#45;&gt;Node3 -->
<g id="edge3" class="edge"><title>Node2&#45;&gt;Node3</title>
<path fill="none" stroke="midnightblue" d="M116.433,-224.413C119.748,-197.253 133.017,-111.725 173.5,-56 182.036,-44.2507 194.255,-33.6058 204.809,-25.6223"/>
<polygon fill="midnightblue" stroke="midnightblue" points="207.116,-28.2735 213.167,-19.5763 203.013,-22.602 207.116,-28.2735"/>
</g>
<!-- Node4 -->
<g id="node5" class="node"><title>Node4</title>
<g id="a_node5"><a xlink:title=" ">
<polygon fill="white" stroke="#bfbfbf" points="192.5,-56.5 192.5,-75.5 244.5,-75.5 244.5,-56.5 192.5,-56.5"/>
<text text-anchor="middle" x="218.5" y="-63.5" font-family="Helvetica,sans-Serif" font-size="10.00">ostream</text>
</a>
</g>
</g>
<!-- Node2&#45;&gt;Node4 -->
<g id="edge4" class="edge"><title>Node2&#45;&gt;Node4</title>
<path fill="none" stroke="midnightblue" d="M117.972,-224.307C121.756,-211.568 129.598,-187.256 139.5,-168 153.255,-141.251 158.88,-135.621 177.5,-112 185.433,-101.936 195.049,-91.3106 202.974,-82.9131"/>
<polygon fill="midnightblue" stroke="midnightblue" points="205.555,-85.2787 209.944,-75.6357 200.499,-80.4369 205.555,-85.2787"/>
</g>
<!-- Node5 -->
<g id="node6" class="node"><title>Node5</title>
<g id="a_node6"><a xlink:title=" ">
<polygon fill="white" stroke="#bfbfbf" points="756.5,-168.5 756.5,-187.5 798.5,-187.5 798.5,-168.5 756.5,-168.5"/>
<text text-anchor="middle" x="777.5" y="-175.5" font-family="Helvetica,sans-Serif" font-size="10.00">vector</text>
</a>
</g>
</g>
<!-- Node2&#45;&gt;Node5 -->
<g id="edge5" class="edge"><title>Node2&#45;&gt;Node5</title>
<path fill="none" stroke="midnightblue" d="M144.799,-230.61C253.641,-221.732 634.191,-190.69 746.236,-181.55"/>
<polygon fill="midnightblue" stroke="midnightblue" points="746.54,-185.037 756.222,-180.736 745.971,-178.06 746.54,-185.037"/>
</g>
<!-- Node6&#45;&gt;Node3 -->
<g id="edge7" class="edge"><title>Node6&#45;&gt;Node3</title>
<path fill="none" stroke="midnightblue" d="M39.5,-280.442C39.5,-261.936 39.5,-216.813 39.5,-179 39.5,-179 39.5,-179 39.5,-121 39.5,-54.3378 128.878,-27.2734 184.052,-16.917"/>
<polygon fill="midnightblue" stroke="midnightblue" points="184.689,-20.3588 193.927,-15.1719 183.471,-13.4656 184.689,-20.3588"/>
</g>
<!-- Node7&#45;&gt;Node2 -->
<g id="edge28" class="edge"><title>Node7&#45;&gt;Node2</title>
<path fill="none" stroke="midnightblue" d="M543.499,-286.02C468.654,-277.098 245.932,-250.548 154.917,-239.699"/>
<polygon fill="midnightblue" stroke="midnightblue" points="155.086,-236.194 144.742,-238.486 154.258,-243.145 155.086,-236.194"/>
</g>
<!-- Node7&#45;&gt;Node4 -->
<g id="edge49" class="edge"><title>Node7&#45;&gt;Node4</title>
<path fill="none" stroke="midnightblue" d="M544.755,-280.418C509.06,-267.61 439.37,-242.974 379.5,-224 324.795,-206.663 298.193,-226.347 255.5,-188 226.174,-161.659 219.781,-112.794 218.58,-85.9234"/>
<polygon fill="midnightblue" stroke="midnightblue" points="222.071,-85.4963 218.33,-75.5838 215.073,-85.6653 222.071,-85.4963"/>
</g>
<!-- Node7&#45;&gt;Node5 -->
<g id="edge50" class="edge"><title>Node7&#45;&gt;Node5</title>
<path fill="none" stroke="midnightblue" d="M593.561,-288.432C651.444,-286.537 791.685,-278.416 820.5,-244 834.011,-227.863 815.228,-207.339 798.408,-193.716"/>
<polygon fill="midnightblue" stroke="midnightblue" points="800.526,-190.931 790.458,-187.633 796.272,-196.49 800.526,-190.931"/>
</g>
<!-- Node8 -->
<g id="node9" class="node"><title>Node8</title>
<g id="a_node9"><a xlink:href="i_data_update_queue_8h.html" target="_top" xlink:title=" ">
<polygon fill="white" stroke="black" points="613,-224.5 613,-243.5 720,-243.5 720,-224.5 613,-224.5"/>
<text text-anchor="middle" x="666.5" y="-231.5" font-family="Helvetica,sans-Serif" font-size="10.00">iDataUpdateQueue.h</text>
</a>
</g>
</g>
<!-- Node7&#45;&gt;Node8 -->
<g id="edge9" class="edge"><title>Node7&#45;&gt;Node8</title>
<path fill="none" stroke="midnightblue" d="M584.245,-280.324C599.819,-271.743 623.877,-258.486 641.959,-248.522"/>
<polygon fill="midnightblue" stroke="midnightblue" points="643.724,-251.546 650.794,-243.655 640.346,-245.415 643.724,-251.546"/>
</g>
<!-- Node9 -->
<g id="node10" class="node"><title>Node9</title>
<g id="a_node10"><a xlink:href="i_defines_8h.html" target="_top" xlink:title=" ">
<polygon fill="white" stroke="black" points="149,-168.5 149,-187.5 208,-187.5 208,-168.5 149,-168.5"/>
<text text-anchor="middle" x="178.5" y="-175.5" font-family="Helvetica,sans-Serif" font-size="10.00">iDefines.h</text>
</a>
</g>
</g>
<!-- Node7&#45;&gt;Node9 -->
<g id="edge15" class="edge"><title>Node7&#45;&gt;Node9</title>
<path fill="none" stroke="midnightblue" d="M543.447,-288.891C491.328,-287.877 368.201,-281.355 273.5,-244 265.393,-240.802 224.227,-211.784 198.818,-193.617"/>
<polygon fill="midnightblue" stroke="midnightblue" points="200.734,-190.685 190.567,-187.704 196.657,-196.374 200.734,-190.685"/>
</g>
<!-- Node10 -->
<g id="node11" class="node"><title>Node10</title>
<g id="a_node11"><a xlink:href="ia_mutex_8h.html" target="_top" xlink:title=" ">
<polygon fill="white" stroke="black" points="655,-56.5 655,-75.5 714,-75.5 714,-56.5 655,-56.5"/>
<text text-anchor="middle" x="684.5" y="-63.5" font-family="Helvetica,sans-Serif" font-size="10.00">iaMutex.h</text>
</a>
</g>
</g>
<!-- Node7&#45;&gt;Node10 -->
<g id="edge45" class="edge"><title>Node7&#45;&gt;Node10</title>
<path fill="none" stroke="midnightblue" d="M593.626,-288.436C686.193,-286.113 1004.43,-275.848 1035.5,-244 1076.51,-201.963 1080.34,-156.047 1041.5,-112 1020.78,-88.5035 813.336,-74.1999 724.515,-69.1093"/>
<polygon fill="midnightblue" stroke="midnightblue" points="724.473,-65.6014 714.292,-68.5341 724.079,-72.5904 724.473,-65.6014"/>
</g>
<!-- Node11 -->
<g id="node12" class="node"><title>Node11</title>
<g id="a_node12"><a xlink:href="ia_event_8h.html" target="_top" xlink:title=" ">
<polygon fill="white" stroke="black" points="868.5,-224.5 868.5,-243.5 924.5,-243.5 924.5,-224.5 868.5,-224.5"/>
<text text-anchor="middle" x="896.5" y="-231.5" font-family="Helvetica,sans-Serif" font-size="10.00">iaEvent.h</text>
</a>
</g>
</g>
<!-- Node7&#45;&gt;Node11 -->
<g id="edge16" class="edge"><title>Node7&#45;&gt;Node11</title>
<path fill="none" stroke="midnightblue" d="M593.83,-285.492C643.818,-278.465 758.627,-261.801 854.5,-244 855.737,-243.77 856.994,-243.532 858.262,-243.287"/>
<polygon fill="midnightblue" stroke="midnightblue" points="858.963,-246.716 868.076,-241.312 857.582,-239.853 858.963,-246.716"/>
</g>
<!-- Node19 -->
<g id="node20" class="node"><title>Node19</title>
<g id="a_node20"><a xlink:href="ia_matrix_8h.html" target="_top" xlink:title=" ">
<polygon fill="white" stroke="black" points="465,-224.5 465,-243.5 524,-243.5 524,-224.5 465,-224.5"/>
<text text-anchor="middle" x="494.5" y="-231.5" font-family="Helvetica,sans-Serif" font-size="10.00">iaMatrix.h</text>
</a>
</g>
</g>
<!-- Node7&#45;&gt;Node19 -->
<g id="edge29" class="edge"><title>Node7&#45;&gt;Node19</title>
<path fill="none" stroke="midnightblue" d="M556.611,-280.324C545.35,-272.107 528.213,-259.602 514.791,-249.807"/>
<polygon fill="midnightblue" stroke="midnightblue" points="516.747,-246.901 506.606,-243.834 512.62,-252.556 516.747,-246.901"/>
</g>
<!-- Node28 -->
<g id="node29" class="node"><title>Node28</title>
<g id="a_node29"><a xlink:href="ia_i_d_generator_8h.html" target="_top" xlink:title=" ">
<polygon fill="white" stroke="black" points="942.5,-224.5 942.5,-243.5 1026.5,-243.5 1026.5,-224.5 942.5,-224.5"/>
<text text-anchor="middle" x="984.5" y="-231.5" font-family="Helvetica,sans-Serif" font-size="10.00">iaIDGenerator.h</text>
</a>
</g>
</g>
<!-- Node7&#45;&gt;Node28 -->
<g id="edge46" class="edge"><title>Node7&#45;&gt;Node28</title>
<path fill="none" stroke="midnightblue" d="M593.785,-286.341C651.743,-280.148 798.847,-263.877 932.24,-244.124"/>
<polygon fill="midnightblue" stroke="midnightblue" points="932.853,-247.571 942.227,-242.634 931.82,-240.648 932.853,-247.571"/>
</g>
<!-- Node29 -->
<g id="node30" class="node"><title>Node29</title>
<g id="a_node30"><a xlink:title=" ">
<polygon fill="white" stroke="#bfbfbf" points="542.5,-224.5 542.5,-243.5 594.5,-243.5 594.5,-224.5 542.5,-224.5"/>
<text text-anchor="middle" x="568.5" y="-231.5" font-family="Helvetica,sans-Serif" font-size="10.00">memory</text>
</a>
</g>
</g>
<!-- Node7&#45;&gt;Node29 -->
<g id="edge51" class="edge"><title>Node7&#45;&gt;Node29</title>
<path fill="none" stroke="midnightblue" d="M568.5,-280.083C568.5,-273.006 568.5,-262.861 568.5,-253.986"/>
<polygon fill="midnightblue" stroke="midnightblue" points="572,-253.751 568.5,-243.751 565,-253.751 572,-253.751"/>
</g>
<!-- Node30 -->
<g id="node31" class="node"><title>Node30</title>
<g id="a_node31"><a xlink:title=" ">
<polygon fill="white" stroke="#bfbfbf" points="777,-224.5 777,-243.5 812,-243.5 812,-224.5 777,-224.5"/>
<text text-anchor="middle" x="794.5" y="-231.5" font-family="Helvetica,sans-Serif" font-size="10.00">map</text>
</a>
</g>
</g>
<!-- Node7&#45;&gt;Node30 -->
<g id="edge52" class="edge"><title>Node7&#45;&gt;Node30</title>
<path fill="none" stroke="midnightblue" d="M593.703,-283.544C630.796,-275.427 702.216,-259.46 762.5,-244 763.967,-243.624 765.47,-243.23 766.986,-242.826"/>
<polygon fill="midnightblue" stroke="midnightblue" points="768.216,-246.118 776.934,-240.098 766.365,-239.367 768.216,-246.118"/>
</g>
<!-- Node8&#45;&gt;Node5 -->
<g id="edge14" class="edge"><title>Node8&#45;&gt;Node5</title>
<path fill="none" stroke="midnightblue" d="M684.334,-224.324C702.216,-215.625 729.975,-202.12 750.546,-192.113"/>
<polygon fill="midnightblue" stroke="midnightblue" points="752.249,-195.177 759.71,-187.655 749.187,-188.882 752.249,-195.177"/>
</g>
<!-- Node8&#45;&gt;Node9 -->
<g id="edge10" class="edge"><title>Node8&#45;&gt;Node9</title>
<path fill="none" stroke="midnightblue" d="M612.903,-225.199C609.723,-224.781 606.57,-224.378 603.5,-224 449.173,-205.001 410.057,-205.026 255.5,-188 243.394,-186.666 230.225,-185.151 218.258,-183.749"/>
<polygon fill="midnightblue" stroke="midnightblue" points="218.448,-180.247 208.107,-182.554 217.629,-187.199 218.448,-180.247"/>
</g>
<!-- Node8&#45;&gt;Node10 -->
<g id="edge12" class="edge"><title>Node8&#45;&gt;Node10</title>
<path fill="none" stroke="midnightblue" d="M667.468,-224.075C670.301,-197.945 678.622,-121.211 682.486,-85.577"/>
<polygon fill="midnightblue" stroke="midnightblue" points="685.972,-85.8872 683.571,-75.5681 679.013,-85.1325 685.972,-85.8872"/>
</g>
<!-- Node9&#45;&gt;Node3 -->
<g id="edge11" class="edge"><title>Node9&#45;&gt;Node3</title>
<path fill="none" stroke="midnightblue" d="M176.686,-168.262C172.841,-147.588 165.614,-94.5203 183.5,-56 188.866,-44.4442 198.41,-33.9873 207.146,-26.0683"/>
<polygon fill="midnightblue" stroke="midnightblue" points="209.455,-28.6993 214.798,-19.5505 204.916,-23.3702 209.455,-28.6993"/>
</g>
<!-- Node10&#45;&gt;Node3 -->
<g id="edge13" class="edge"><title>Node10&#45;&gt;Node3</title>
<path fill="none" stroke="midnightblue" d="M654.802,-61.4985C575.974,-52.2044 361.215,-26.8835 269.237,-16.0389"/>
<polygon fill="midnightblue" stroke="midnightblue" points="269.506,-12.5464 259.165,-14.8513 268.686,-19.4983 269.506,-12.5464"/>
</g>
<!-- Node11&#45;&gt;Node5 -->
<g id="edge27" class="edge"><title>Node11&#45;&gt;Node5</title>
<path fill="none" stroke="midnightblue" d="M877.644,-224.444C858.234,-215.636 827.77,-201.812 805.535,-191.722"/>
<polygon fill="midnightblue" stroke="midnightblue" points="806.82,-188.462 796.268,-187.516 803.928,-194.836 806.82,-188.462"/>
</g>
<!-- Node11&#45;&gt;Node10 -->
<g id="edge17" class="edge"><title>Node11&#45;&gt;Node10</title>
<path fill="none" stroke="midnightblue" d="M899.611,-224.288C903.875,-210.636 909.611,-184.101 896.5,-168 846.636,-106.763 786.64,-178.071 722.5,-132 706.61,-120.586 696.311,-100.3 690.497,-85.418"/>
<polygon fill="midnightblue" stroke="midnightblue" points="693.7,-83.9805 687.04,-75.7405 687.108,-86.3351 693.7,-83.9805"/>
</g>
<!-- Node12 -->
<g id="node13" class="node"><title>Node12</title>
<g id="a_node13"><a xlink:href="ia_delegate_8h.html" target="_top" xlink:title=" ">
<polygon fill="white" stroke="black" points="817,-168.5 817,-187.5 888,-187.5 888,-168.5 817,-168.5"/>
<text text-anchor="middle" x="852.5" y="-175.5" font-family="Helvetica,sans-Serif" font-size="10.00">iaDelegate.h</text>
</a>
</g>
</g>
<!-- Node11&#45;&gt;Node12 -->
<g id="edge18" class="edge"><title>Node11&#45;&gt;Node12</title>
<path fill="none" stroke="midnightblue" d="M889.234,-224.083C882.955,-216.377 873.712,-205.033 866.069,-195.653"/>
<polygon fill="midnightblue" stroke="midnightblue" points="868.661,-193.293 859.631,-187.751 863.234,-197.714 868.661,-193.293"/>
</g>
<!-- Node11&#45;&gt;Node13 -->
<g id="edge19" class="edge"><title>Node11&#45;&gt;Node13</title>
<path fill="none" stroke="midnightblue" d="M909.675,-224.324C922.347,-215.979 941.733,-203.212 956.706,-193.352"/>
<polygon fill="midnightblue" stroke="midnightblue" points="958.931,-196.078 965.358,-187.655 955.081,-190.231 958.931,-196.078"/>
</g>
<!-- Node14 -->
<g id="node15" class="node"><title>Node14</title>
<g id="a_node15"><a xlink:href="ia_singleton_8h.html" target="_top" xlink:title=" ">
<polygon fill="white" stroke="black" points="867,-112.5 867,-131.5 940,-131.5 940,-112.5 867,-112.5"/>
<text text-anchor="middle" x="903.5" y="-119.5" font-family="Helvetica,sans-Serif" font-size="10.00">iaSingleton.h</text>
</a>
</g>
</g>
<!-- Node13&#45;&gt;Node14 -->
<g id="edge20" class="edge"><title>Node13&#45;&gt;Node14</title>
<path fill="none" stroke="midnightblue" d="M966.45,-168.324C955.037,-160.107 937.669,-147.602 924.065,-137.807"/>
<polygon fill="midnightblue" stroke="midnightblue" points="925.93,-134.837 915.769,-131.834 921.84,-140.517 925.93,-134.837"/>
</g>
<!-- Node15 -->
<g id="node16" class="node"><title>Node15</title>
<g id="a_node16"><a xlink:href="ia_clock_8h.html" target="_top" xlink:title=" ">
<polygon fill="white" stroke="black" points="919,-56.5 919,-75.5 976,-75.5 976,-56.5 919,-56.5"/>
<text text-anchor="middle" x="947.5" y="-63.5" font-family="Helvetica,sans-Serif" font-size="10.00">iaClock.h</text>
</a>
</g>
</g>
<!-- Node13&#45;&gt;Node15 -->
<g id="edge22" class="edge"><title>Node13&#45;&gt;Node15</title>
<path fill="none" stroke="midnightblue" d="M991.331,-168.421C1007.9,-156.218 1033.3,-132.993 1021.5,-112 1013.28,-97.3782 998.169,-86.9543 983.737,-79.8465"/>
<polygon fill="midnightblue" stroke="midnightblue" points="984.984,-76.5693 974.429,-75.6437 982.103,-82.9491 984.984,-76.5693"/>
</g>
<!-- Node16 -->
<g id="node17" class="node"><title>Node16</title>
<g id="a_node17"><a xlink:title=" ">
<polygon fill="white" stroke="#bfbfbf" points="800,-112.5 800,-131.5 849,-131.5 849,-112.5 800,-112.5"/>
<text text-anchor="middle" x="824.5" y="-119.5" font-family="Helvetica,sans-Serif" font-size="10.00">fstream</text>
</a>
</g>
</g>
<!-- Node13&#45;&gt;Node16 -->
<g id="edge24" class="edge"><title>Node13&#45;&gt;Node16</title>
<path fill="none" stroke="midnightblue" d="M954.098,-168.444C928.303,-159.399 887.423,-145.064 858.482,-134.916"/>
<polygon fill="midnightblue" stroke="midnightblue" points="859.382,-131.523 848.788,-131.516 857.066,-138.128 859.382,-131.523"/>
</g>
<!-- Node17 -->
<g id="node18" class="node"><title>Node17</title>
<g id="a_node18"><a xlink:title=" ">
<polygon fill="white" stroke="#bfbfbf" points="958.5,-112.5 958.5,-131.5 1012.5,-131.5 1012.5,-112.5 958.5,-112.5"/>
<text text-anchor="middle" x="985.5" y="-119.5" font-family="Helvetica,sans-Serif" font-size="10.00">iostream</text>
</a>
</g>
</g>
<!-- Node13&#45;&gt;Node17 -->
<g id="edge25" class="edge"><title>Node13&#45;&gt;Node17</title>
<path fill="none" stroke="midnightblue" d="M979.656,-168.083C980.584,-160.927 981.918,-150.635 983.077,-141.691"/>
<polygon fill="midnightblue" stroke="midnightblue" points="986.551,-142.118 984.366,-131.751 979.609,-141.218 986.551,-142.118"/>
</g>
<!-- Node18 -->
<g id="node19" class="node"><title>Node18</title>
<g id="a_node19"><a xlink:title=" ">
<polygon fill="white" stroke="#bfbfbf" points="731.5,-112.5 731.5,-131.5 781.5,-131.5 781.5,-112.5 731.5,-112.5"/>
<text text-anchor="middle" x="756.5" y="-119.5" font-family="Helvetica,sans-Serif" font-size="10.00">iomanip</text>
</a>
</g>
</g>
<!-- Node13&#45;&gt;Node18 -->
<g id="edge26" class="edge"><title>Node13&#45;&gt;Node18</title>
<path fill="none" stroke="midnightblue" d="M944.478,-169.114C908.762,-160.778 850.728,-147.074 791.613,-132.238"/>
<polygon fill="midnightblue" stroke="midnightblue" points="792.286,-128.799 781.734,-129.751 790.576,-135.587 792.286,-128.799"/>
</g>
<!-- Node14&#45;&gt;Node10 -->
<g id="edge21" class="edge"><title>Node14&#45;&gt;Node10</title>
<path fill="none" stroke="midnightblue" d="M868.799,-112.444C829.355,-102.718 765.108,-86.876 723.836,-76.6993"/>
<polygon fill="midnightblue" stroke="midnightblue" points="724.67,-73.3001 714.122,-74.3042 722.994,-80.0965 724.67,-73.3001"/>
</g>
<!-- Node15&#45;&gt;Node3 -->
<g id="edge23" class="edge"><title>Node15&#45;&gt;Node3</title>
<path fill="none" stroke="midnightblue" d="M918.791,-62.8498C807.355,-54.5037 403.046,-24.2226 269.581,-14.2266"/>
<polygon fill="midnightblue" stroke="midnightblue" points="269.579,-10.7167 259.345,-13.46 269.056,-17.6971 269.579,-10.7167"/>
</g>
<!-- Node19&#45;&gt;Node16 -->
<g id="edge41" class="edge"><title>Node19&#45;&gt;Node16</title>
<path fill="none" stroke="midnightblue" d="M524.01,-225.905C566.252,-215.658 641.805,-196.963 668.5,-188 714.429,-172.579 766.014,-150.007 796.848,-135.926"/>
<polygon fill="midnightblue" stroke="midnightblue" points="798.473,-139.031 806.096,-131.673 795.548,-132.672 798.473,-139.031"/>
</g>
<!-- Node19&#45;&gt;Node18 -->
<g id="edge43" class="edge"><title>Node19&#45;&gt;Node18</title>
<path fill="none" stroke="midnightblue" d="M524.054,-225.044C552.566,-216.994 596.698,-203.543 633.5,-188 669.445,-172.819 709.007,-150.912 733.306,-136.814"/>
<polygon fill="midnightblue" stroke="midnightblue" points="735.27,-139.72 742.132,-131.647 731.734,-133.679 735.27,-139.72"/>
</g>
<!-- Node20 -->
<g id="node21" class="node"><title>Node20</title>
<g id="a_node21"><a xlink:href="ia_vector4_8h.html" target="_top" xlink:title=" ">
<polygon fill="white" stroke="black" points="400.5,-168.5 400.5,-187.5 466.5,-187.5 466.5,-168.5 400.5,-168.5"/>
<text text-anchor="middle" x="433.5" y="-175.5" font-family="Helvetica,sans-Serif" font-size="10.00">iaVector4.h</text>
</a>
</g>
</g>
<!-- Node19&#45;&gt;Node20 -->
<g id="edge30" class="edge"><title>Node19&#45;&gt;Node20</title>
<path fill="none" stroke="midnightblue" d="M484.699,-224.324C475.682,-216.341 462.094,-204.313 451.182,-194.653"/>
<polygon fill="midnightblue" stroke="midnightblue" points="453.287,-191.842 443.479,-187.834 448.647,-197.083 453.287,-191.842"/>
</g>
<!-- Node22 -->
<g id="node23" class="node"><title>Node22</title>
<g id="a_node23"><a xlink:title=" ">
<polygon fill="white" stroke="#bfbfbf" points="503.5,-56.5 503.5,-75.5 547.5,-75.5 547.5,-56.5 503.5,-56.5"/>
<text text-anchor="middle" x="525.5" y="-63.5" font-family="Helvetica,sans-Serif" font-size="10.00">cmath</text>
</a>
</g>
</g>
<!-- Node19&#45;&gt;Node22 -->
<g id="edge42" class="edge"><title>Node19&#45;&gt;Node22</title>
<path fill="none" stroke="midnightblue" d="M502.782,-224.471C517.981,-208.153 549.837,-170.681 561.5,-132 564.066,-123.49 564.442,-120.388 561.5,-112 557.715,-101.209 550.133,-91.084 542.9,-83.1808"/>
<polygon fill="midnightblue" stroke="midnightblue" points="545.167,-80.4943 535.662,-75.8145 540.174,-85.4005 545.167,-80.4943"/>
</g>
<!-- Node25 -->
<g id="node26" class="node"><title>Node25</title>
<g id="a_node26"><a xlink:href="ia_quaternion_8h.html" target="_top" xlink:title=" ">
<polygon fill="white" stroke="black" points="264.5,-168.5 264.5,-187.5 344.5,-187.5 344.5,-168.5 264.5,-168.5"/>
<text text-anchor="middle" x="304.5" y="-175.5" font-family="Helvetica,sans-Serif" font-size="10.00">iaQuaternion.h</text>
</a>
</g>
</g>
<!-- Node19&#45;&gt;Node25 -->
<g id="edge37" class="edge"><title>Node19&#45;&gt;Node25</title>
<path fill="none" stroke="midnightblue" d="M464.813,-224.563C432.376,-215.344 380.251,-200.529 344.29,-190.309"/>
<polygon fill="midnightblue" stroke="midnightblue" points="345.182,-186.924 334.606,-187.556 343.268,-193.657 345.182,-186.924"/>
</g>
<!-- Node27 -->
<g id="node28" class="node"><title>Node27</title>
<g id="a_node28"><a xlink:href="ia_matrix_8inl.html" target="_top" xlink:title=" ">
<polygon fill="white" stroke="black" points="560.5,-168.5 560.5,-187.5 624.5,-187.5 624.5,-168.5 560.5,-168.5"/>
<text text-anchor="middle" x="592.5" y="-175.5" font-family="Helvetica,sans-Serif" font-size="10.00">iaMatrix.inl</text>
</a>
</g>
</g>
<!-- Node19&#45;&gt;Node27 -->
<g id="edge44" class="edge"><title>Node19&#45;&gt;Node27</title>
<path fill="none" stroke="midnightblue" d="M510.245,-224.324C525.819,-215.743 549.877,-202.486 567.959,-192.522"/>
<polygon fill="midnightblue" stroke="midnightblue" points="569.724,-195.546 576.794,-187.655 566.346,-189.415 569.724,-195.546"/>
</g>
<!-- Node21 -->
<g id="node22" class="node"><title>Node21</title>
<g id="a_node22"><a xlink:href="ia_vector3_8h.html" target="_top" xlink:title=" ">
<polygon fill="white" stroke="black" points="359.5,-112.5 359.5,-131.5 425.5,-131.5 425.5,-112.5 359.5,-112.5"/>
<text text-anchor="middle" x="392.5" y="-119.5" font-family="Helvetica,sans-Serif" font-size="10.00">iaVector3.h</text>
</a>
</g>
</g>
<!-- Node20&#45;&gt;Node21 -->
<g id="edge31" class="edge"><title>Node20&#45;&gt;Node21</title>
<path fill="none" stroke="midnightblue" d="M426.73,-168.083C420.938,-160.455 412.442,-149.264 405.362,-139.941"/>
<polygon fill="midnightblue" stroke="midnightblue" points="407.979,-137.599 399.144,-131.751 402.404,-141.832 407.979,-137.599"/>
</g>
<!-- Node24 -->
<g id="node25" class="node"><title>Node24</title>
<g id="a_node25"><a xlink:href="ia_vector4_8inl.html" target="_top" xlink:title=" ">
<polygon fill="white" stroke="black" points="482,-112.5 482,-131.5 553,-131.5 553,-112.5 482,-112.5"/>
<text text-anchor="middle" x="517.5" y="-119.5" font-family="Helvetica,sans-Serif" font-size="10.00">iaVector4.inl</text>
</a>
</g>
</g>
<!-- Node20&#45;&gt;Node24 -->
<g id="edge36" class="edge"><title>Node20&#45;&gt;Node24</title>
<path fill="none" stroke="midnightblue" d="M446.996,-168.324C460.1,-159.9 480.212,-146.971 495.607,-137.074"/>
<polygon fill="midnightblue" stroke="midnightblue" points="497.518,-140.006 504.037,-131.655 493.733,-134.118 497.518,-140.006"/>
</g>
<!-- Node21&#45;&gt;Node3 -->
<g id="edge32" class="edge"><title>Node21&#45;&gt;Node3</title>
<path fill="none" stroke="midnightblue" d="M379.474,-112.368C350.989,-93.4924 282.917,-48.385 247.984,-25.2367"/>
<polygon fill="midnightblue" stroke="midnightblue" points="249.735,-22.1977 239.465,-19.5914 245.868,-28.0328 249.735,-22.1977"/>
</g>
<!-- Node21&#45;&gt;Node4 -->
<g id="edge34" class="edge"><title>Node21&#45;&gt;Node4</title>
<path fill="none" stroke="midnightblue" d="M364.929,-112.444C334.968,-103.145 286.995,-88.2572 254.181,-78.0735"/>
<polygon fill="midnightblue" stroke="midnightblue" points="255.109,-74.6968 244.521,-75.0755 253.034,-81.3822 255.109,-74.6968"/>
</g>
<!-- Node21&#45;&gt;Node22 -->
<g id="edge33" class="edge"><title>Node21&#45;&gt;Node22</title>
<path fill="none" stroke="midnightblue" d="M413.574,-112.444C435.56,-103.517 470.234,-89.4387 495.164,-79.3168"/>
<polygon fill="midnightblue" stroke="midnightblue" points="496.576,-82.5213 504.524,-75.5164 493.942,-76.0355 496.576,-82.5213"/>
</g>
<!-- Node23 -->
<g id="node24" class="node"><title>Node23</title>
<g id="a_node24"><a xlink:href="ia_vector3_8inl.html" target="_top" xlink:title=" ">
<polygon fill="white" stroke="black" points="357,-56.5 357,-75.5 428,-75.5 428,-56.5 357,-56.5"/>
<text text-anchor="middle" x="392.5" y="-63.5" font-family="Helvetica,sans-Serif" font-size="10.00">iaVector3.inl</text>
</a>
</g>
</g>
<!-- Node21&#45;&gt;Node23 -->
<g id="edge35" class="edge"><title>Node21&#45;&gt;Node23</title>
<path fill="none" stroke="midnightblue" d="M392.5,-112.083C392.5,-105.006 392.5,-94.8611 392.5,-85.9865"/>
<polygon fill="midnightblue" stroke="midnightblue" points="396,-85.751 392.5,-75.7511 389,-85.7511 396,-85.751"/>
</g>
<!-- Node25&#45;&gt;Node4 -->
<g id="edge39" class="edge"><title>Node25&#45;&gt;Node4</title>
<path fill="none" stroke="midnightblue" d="M290.545,-168.47C278.187,-160.346 260.324,-147.136 248.5,-132 237.512,-117.934 229.412,-99.1945 224.416,-85.4512"/>
<polygon fill="midnightblue" stroke="midnightblue" points="227.625,-84.0169 221.08,-75.6852 221.001,-86.2798 227.625,-84.0169"/>
</g>
<!-- Node25&#45;&gt;Node21 -->
<g id="edge38" class="edge"><title>Node25&#45;&gt;Node21</title>
<path fill="none" stroke="midnightblue" d="M318.639,-168.324C332.366,-159.9 353.436,-146.971 369.564,-137.074"/>
<polygon fill="midnightblue" stroke="midnightblue" points="371.704,-139.868 378.396,-131.655 368.043,-133.902 371.704,-139.868"/>
</g>
<!-- Node26 -->
<g id="node27" class="node"><title>Node26</title>
<g id="a_node27"><a xlink:href="ia_quaternion_8inl.html" target="_top" xlink:title=" ">
<polygon fill="white" stroke="black" points="257.5,-112.5 257.5,-131.5 341.5,-131.5 341.5,-112.5 257.5,-112.5"/>
<text text-anchor="middle" x="299.5" y="-119.5" font-family="Helvetica,sans-Serif" font-size="10.00">iaQuaternion.inl</text>
</a>
</g>
</g>
<!-- Node25&#45;&gt;Node26 -->
<g id="edge40" class="edge"><title>Node25&#45;&gt;Node26</title>
<path fill="none" stroke="midnightblue" d="M303.674,-168.083C303.019,-161.006 302.08,-150.861 301.258,-141.986"/>
<polygon fill="midnightblue" stroke="midnightblue" points="304.717,-141.386 300.31,-131.751 297.747,-142.031 304.717,-141.386"/>
</g>
<!-- Node28&#45;&gt;Node5 -->
<g id="edge48" class="edge"><title>Node28&#45;&gt;Node5</title>
<path fill="none" stroke="midnightblue" d="M949.122,-224.475C915.337,-216.229 862.77,-203.132 808.553,-188.21"/>
<polygon fill="midnightblue" stroke="midnightblue" points="809.344,-184.798 798.773,-185.504 807.477,-191.544 809.344,-184.798"/>
</g>
<!-- Node28&#45;&gt;Node10 -->
<g id="edge47" class="edge"><title>Node28&#45;&gt;Node10</title>
<path fill="none" stroke="midnightblue" d="M994.938,-224.245C1003.92,-215.969 1016.25,-202.663 1021.5,-188 1032.89,-156.202 1043.75,-137.416 1021.5,-112 1002.14,-89.8826 808.878,-74.9397 724.059,-69.3969"/>
<polygon fill="midnightblue" stroke="midnightblue" points="724.236,-65.9012 714.033,-68.7526 723.787,-72.8868 724.236,-65.9012"/>
</g>
<!-- Node31&#45;&gt;Node2 -->
<g id="edge63" class="edge"><title>Node31&#45;&gt;Node2</title>
<path fill="none" stroke="midnightblue" d="M178.164,-336.368C166.992,-318.296 140.955,-276.176 126.199,-252.307"/>
<polygon fill="midnightblue" stroke="midnightblue" points="129.046,-250.257 120.811,-243.591 123.092,-253.938 129.046,-250.257"/>
</g>
<!-- Node31&#45;&gt;Node6 -->
<g id="edge64" class="edge"><title>Node31&#45;&gt;Node6</title>
<path fill="none" stroke="midnightblue" d="M160.683,-336.444C136.668,-327.438 98.671,-313.189 71.6308,-303.049"/>
<polygon fill="midnightblue" stroke="midnightblue" points="72.8027,-299.751 62.2105,-299.516 70.3448,-306.305 72.8027,-299.751"/>
</g>
<!-- Node31&#45;&gt;Node7 -->
<g id="edge62" class="edge"><title>Node31&#45;&gt;Node7</title>
<path fill="none" stroke="midnightblue" d="M210.267,-341.246C278.182,-331.72 457.198,-306.611 533.377,-295.926"/>
<polygon fill="midnightblue" stroke="midnightblue" points="534.005,-299.373 543.422,-294.517 533.033,-292.44 534.005,-299.373"/>
</g>
<!-- Node31&#45;&gt;Node9 -->
<g id="edge54" class="edge"><title>Node31&#45;&gt;Node9</title>
<path fill="none" stroke="midnightblue" d="M183.231,-336.075C182.444,-309.945 180.133,-233.211 179.06,-197.577"/>
<polygon fill="midnightblue" stroke="midnightblue" points="182.558,-197.458 178.758,-187.568 175.561,-197.669 182.558,-197.458"/>
</g>
<!-- Node32 -->
<g id="node33" class="node"><title>Node32</title>
<g id="a_node33"><a xlink:href="i_task_8h.html" target="_top" xlink:title=" ">
<polygon fill="white" stroke="black" points="302.5,-280.5 302.5,-299.5 350.5,-299.5 350.5,-280.5 302.5,-280.5"/>
<text text-anchor="middle" x="326.5" y="-287.5" font-family="Helvetica,sans-Serif" font-size="10.00">iTask.h</text>
</a>
</g>
</g>
<!-- Node31&#45;&gt;Node32 -->
<g id="edge55" class="edge"><title>Node31&#45;&gt;Node32</title>
<path fill="none" stroke="midnightblue" d="M206.159,-336.444C229.902,-327.478 267.409,-313.314 294.238,-303.183"/>
<polygon fill="midnightblue" stroke="midnightblue" points="295.829,-306.324 303.947,-299.516 293.356,-299.775 295.829,-306.324"/>
</g>
<!-- Node32&#45;&gt;Node9 -->
<g id="edge56" class="edge"><title>Node32&#45;&gt;Node9</title>
<path fill="none" stroke="midnightblue" d="M305.582,-280.384C287.442,-272.385 260.959,-259.41 240.5,-244 221.725,-229.859 203.567,-209.838 191.807,-195.763"/>
<polygon fill="midnightblue" stroke="midnightblue" points="194.4,-193.404 185.364,-187.873 188.978,-197.832 194.4,-193.404"/>
</g>
<!-- Node32&#45;&gt;Node10 -->
<g id="edge61" class="edge"><title>Node32&#45;&gt;Node10</title>
<path fill="none" stroke="midnightblue" d="M340.534,-280.297C395.23,-246.379 594.416,-122.862 661.938,-80.991"/>
<polygon fill="midnightblue" stroke="midnightblue" points="663.909,-83.8871 670.563,-75.6425 660.22,-77.9381 663.909,-83.8871"/>
</g>
<!-- Node32&#45;&gt;Node12 -->
<g id="edge60" class="edge"><title>Node32&#45;&gt;Node12</title>
<path fill="none" stroke="midnightblue" d="M350.662,-287.471C426.181,-282.509 656.985,-265.899 728.5,-244 731.127,-243.196 791.92,-211.092 827.39,-192.311"/>
<polygon fill="midnightblue" stroke="midnightblue" points="829.034,-195.4 836.233,-187.627 825.758,-189.215 829.034,-195.4"/>
</g>
<!-- Node33 -->
<g id="node34" class="node"><title>Node33</title>
<g id="a_node34"><a xlink:href="i_physics_world_8h.html" target="_top" xlink:title=" ">
<polygon fill="white" stroke="black" points="282.5,-224.5 282.5,-243.5 370.5,-243.5 370.5,-224.5 282.5,-224.5"/>
<text text-anchor="middle" x="326.5" y="-231.5" font-family="Helvetica,sans-Serif" font-size="10.00">iPhysicsWorld.h</text>
</a>
</g>
</g>
<!-- Node32&#45;&gt;Node33 -->
<g id="edge57" class="edge"><title>Node32&#45;&gt;Node33</title>
<path fill="none" stroke="midnightblue" d="M326.5,-280.083C326.5,-273.006 326.5,-262.861 326.5,-253.986"/>
<polygon fill="midnightblue" stroke="midnightblue" points="330,-253.751 326.5,-243.751 323,-253.751 330,-253.751"/>
</g>
<!-- Node33&#45;&gt;Node9 -->
<g id="edge58" class="edge"><title>Node33&#45;&gt;Node9</title>
<path fill="none" stroke="midnightblue" d="M303.049,-224.444C278.367,-215.438 239.315,-201.189 211.523,-191.049"/>
<polygon fill="midnightblue" stroke="midnightblue" points="212.435,-187.656 201.841,-187.516 210.036,-194.232 212.435,-187.656"/>
</g>
<!-- Node33&#45;&gt;Node10 -->
<g id="edge59" class="edge"><title>Node33&#45;&gt;Node10</title>
<path fill="none" stroke="midnightblue" d="M333.621,-224.363C353.086,-201.44 409.922,-138.978 472.5,-112 529.597,-87.3851 601.318,-75.7977 644.992,-70.6757"/>
<polygon fill="midnightblue" stroke="midnightblue" points="645.383,-74.1539 654.933,-69.5651 644.606,-67.1972 645.383,-74.1539"/>
</g>
</g>
</svg>
