<?xml version="1.0" encoding="UTF-8" standalone="no"?>
<!DOCTYPE svg PUBLIC "-//W3C//DTD SVG 1.1//EN"
 "http://www.w3.org/Graphics/SVG/1.1/DTD/svg11.dtd">
<!-- Generated by graphviz version 2.38.0 (20140413.2041)
 -->
<!-- Title: C:/dev/Igor/Igor/src/Igor/src/iNodeLight.cpp Pages: 1 -->
<svg width="1376pt" height="543pt"
 viewBox="0.00 0.00 1376.27 543.00" xmlns="http://www.w3.org/2000/svg" xmlns:xlink="http://www.w3.org/1999/xlink">
<g id="graph0" class="graph" transform="scale(1 1) rotate(0) translate(4 539)">
<title>C:/dev/Igor/Igor/src/Igor/src/iNodeLight.cpp</title>
<polygon fill="white" stroke="none" points="-4,4 -4,-539 1372.27,-539 1372.27,4 -4,4"/>
<!-- Node0 -->
<g id="node1" class="node"><title>Node0</title>
<g id="a_node1"><a xlink:title=" ">
<polygon fill="#bfbfbf" stroke="black" points="336.768,-504.5 336.768,-534.5 455.768,-534.5 455.768,-504.5 336.768,-504.5"/>
<text text-anchor="start" x="344.768" y="-522.5" font-family="Helvetica,sans-Serif" font-size="10.00">C:/dev/Igor/Igor/src</text>
<text text-anchor="middle" x="396.268" y="-511.5" font-family="Helvetica,sans-Serif" font-size="10.00">/Igor/src/iNodeLight.cpp</text>
</a>
</g>
</g>
<!-- Node1 -->
<g id="node2" class="node"><title>Node1</title>
<g id="a_node2"><a xlink:href="i_node_light_8h.html" target="_top" xlink:title=" ">
<polygon fill="white" stroke="black" points="360.768,-336.5 360.768,-355.5 431.768,-355.5 431.768,-336.5 360.768,-336.5"/>
<text text-anchor="middle" x="396.268" y="-343.5" font-family="Helvetica,sans-Serif" font-size="10.00">iNodeLight.h</text>
</a>
</g>
</g>
<!-- Node0&#45;&gt;Node1 -->
<g id="edge1" class="edge"><title>Node0&#45;&gt;Node1</title>
<path fill="none" stroke="midnightblue" d="M396.268,-504.465C396.268,-473.704 396.268,-400.329 396.268,-365.7"/>
<polygon fill="midnightblue" stroke="midnightblue" points="399.768,-365.56 396.268,-355.56 392.768,-365.56 399.768,-365.56"/>
</g>
<!-- Node10 -->
<g id="node11" class="node"><title>Node10</title>
<g id="a_node11"><a xlink:href="ia_console_8h.html" target="_top" xlink:title=" ">
<polygon fill="white" stroke="black" points="149.268,-168.5 149.268,-187.5 217.268,-187.5 217.268,-168.5 149.268,-168.5"/>
<text text-anchor="middle" x="183.268" y="-175.5" font-family="Helvetica,sans-Serif" font-size="10.00">iaConsole.h</text>
</a>
</g>
</g>
<!-- Node0&#45;&gt;Node10 -->
<g id="edge54" class="edge"><title>Node0&#45;&gt;Node10</title>
<path fill="none" stroke="midnightblue" d="M357.22,-504.385C317.349,-487.163 261.268,-453.894 261.268,-403 261.268,-403 261.268,-403 261.268,-289 261.268,-248.967 226.465,-213.336 203.355,-194.087"/>
<polygon fill="midnightblue" stroke="midnightblue" points="205.448,-191.28 195.455,-187.759 201.072,-196.743 205.448,-191.28"/>
</g>
<!-- Node31 -->
<g id="node32" class="node"><title>Node31</title>
<g id="a_node32"><a xlink:href="i_scene_8h.html" target="_top" xlink:title=" ">
<polygon fill="white" stroke="black" points="946.768,-448.5 946.768,-467.5 1001.77,-467.5 1001.77,-448.5 946.768,-448.5"/>
<text text-anchor="middle" x="974.268" y="-455.5" font-family="Helvetica,sans-Serif" font-size="10.00">iScene.h</text>
</a>
</g>
</g>
<!-- Node0&#45;&gt;Node31 -->
<g id="edge55" class="edge"><title>Node0&#45;&gt;Node31</title>
<path fill="none" stroke="midnightblue" d="M455.947,-512.357C574.917,-500.11 838.592,-472.967 936.61,-462.877"/>
<polygon fill="midnightblue" stroke="midnightblue" points="937.06,-466.349 946.649,-461.843 936.344,-459.386 937.06,-466.349"/>
</g>
<!-- Node2 -->
<g id="node3" class="node"><title>Node2</title>
<g id="a_node3"><a xlink:href="i_node_8h.html" target="_top" xlink:title=" ">
<polygon fill="white" stroke="black" points="792.268,-280.5 792.268,-299.5 842.268,-299.5 842.268,-280.5 792.268,-280.5"/>
<text text-anchor="middle" x="817.268" y="-287.5" font-family="Helvetica,sans-Serif" font-size="10.00">iNode.h</text>
</a>
</g>
</g>
<!-- Node1&#45;&gt;Node2 -->
<g id="edge2" class="edge"><title>Node1&#45;&gt;Node2</title>
<path fill="none" stroke="midnightblue" d="M431.799,-340.443C511.386,-330.234 703.169,-305.635 782.261,-295.49"/>
<polygon fill="midnightblue" stroke="midnightblue" points="782.739,-298.958 792.212,-294.214 781.848,-292.015 782.739,-298.958"/>
</g>
<!-- Node18 -->
<g id="node19" class="node"><title>Node18</title>
<g id="a_node19"><a xlink:href="ia_matrix_8h.html" target="_top" xlink:title=" ">
<polygon fill="white" stroke="black" points="366.768,-224.5 366.768,-243.5 425.768,-243.5 425.768,-224.5 366.768,-224.5"/>
<text text-anchor="middle" x="396.268" y="-231.5" font-family="Helvetica,sans-Serif" font-size="10.00">iaMatrix.h</text>
</a>
</g>
</g>
<!-- Node1&#45;&gt;Node18 -->
<g id="edge50" class="edge"><title>Node1&#45;&gt;Node18</title>
<path fill="none" stroke="midnightblue" d="M396.268,-336.368C396.268,-318.617 396.268,-277.666 396.268,-253.597"/>
<polygon fill="midnightblue" stroke="midnightblue" points="399.768,-253.591 396.268,-243.591 392.768,-253.591 399.768,-253.591"/>
</g>
<!-- Node30 -->
<g id="node31" class="node"><title>Node30</title>
<g id="a_node31"><a xlink:href="ia_color4_8h.html" target="_top" xlink:title=" ">
<polygon fill="white" stroke="black" points="8.26761,-168.5 8.26761,-187.5 68.2676,-187.5 68.2676,-168.5 8.26761,-168.5"/>
<text text-anchor="middle" x="38.2676" y="-175.5" font-family="Helvetica,sans-Serif" font-size="10.00">iaColor4.h</text>
</a>
</g>
</g>
<!-- Node1&#45;&gt;Node30 -->
<g id="edge51" class="edge"><title>Node1&#45;&gt;Node30</title>
<path fill="none" stroke="midnightblue" d="M377.524,-336.309C318.439,-308.912 135.866,-224.255 65.9228,-191.823"/>
<polygon fill="midnightblue" stroke="midnightblue" points="67.3702,-188.637 56.8256,-187.605 64.4255,-194.987 67.3702,-188.637"/>
</g>
<!-- Node3 -->
<g id="node4" class="node"><title>Node3</title>
<g id="a_node4"><a xlink:href="i_data_update_queue_8h.html" target="_top" xlink:title=" ">
<polygon fill="white" stroke="black" points="1010.77,-224.5 1010.77,-243.5 1117.77,-243.5 1117.77,-224.5 1010.77,-224.5"/>
<text text-anchor="middle" x="1064.27" y="-231.5" font-family="Helvetica,sans-Serif" font-size="10.00">iDataUpdateQueue.h</text>
</a>
</g>
</g>
<!-- Node2&#45;&gt;Node3 -->
<g id="edge3" class="edge"><title>Node2&#45;&gt;Node3</title>
<path fill="none" stroke="midnightblue" d="M842.431,-283.14C847.032,-282.083 851.792,-281.001 856.268,-280 910.063,-267.974 971.804,-254.681 1013.96,-245.682"/>
<polygon fill="midnightblue" stroke="midnightblue" points="1014.92,-249.056 1023.97,-243.547 1013.46,-242.21 1014.92,-249.056"/>
</g>
<!-- Node4 -->
<g id="node5" class="node"><title>Node4</title>
<g id="a_node5"><a xlink:href="i_defines_8h.html" target="_top" xlink:title=" ">
<polygon fill="white" stroke="black" points="1192.77,-168.5 1192.77,-187.5 1251.77,-187.5 1251.77,-168.5 1192.77,-168.5"/>
<text text-anchor="middle" x="1222.27" y="-175.5" font-family="Helvetica,sans-Serif" font-size="10.00">iDefines.h</text>
</a>
</g>
</g>
<!-- Node2&#45;&gt;Node4 -->
<g id="edge9" class="edge"><title>Node2&#45;&gt;Node4</title>
<path fill="none" stroke="midnightblue" d="M842.442,-289.554C919.229,-290.722 1148.56,-290.194 1203.27,-244 1216.58,-232.757 1220.85,-212.744 1222.08,-197.885"/>
<polygon fill="midnightblue" stroke="midnightblue" points="1225.58,-197.903 1222.53,-187.757 1218.59,-197.592 1225.58,-197.903"/>
</g>
<!-- Node6 -->
<g id="node7" class="node"><title>Node6</title>
<g id="a_node7"><a xlink:href="ia_mutex_8h.html" target="_top" xlink:title=" ">
<polygon fill="white" stroke="black" points="664.768,-56.5 664.768,-75.5 723.768,-75.5 723.768,-56.5 664.768,-56.5"/>
<text text-anchor="middle" x="694.268" y="-63.5" font-family="Helvetica,sans-Serif" font-size="10.00">iaMutex.h</text>
</a>
</g>
</g>
<!-- Node2&#45;&gt;Node6 -->
<g id="edge42" class="edge"><title>Node2&#45;&gt;Node6</title>
<path fill="none" stroke="midnightblue" d="M792.063,-283.976C770.068,-278.213 739.111,-266.498 722.268,-244 703.73,-219.24 697.097,-126.16 695.059,-85.829"/>
<polygon fill="midnightblue" stroke="midnightblue" points="698.552,-85.5747 694.592,-75.7477 691.559,-85.8992 698.552,-85.5747"/>
</g>
<!-- Node7 -->
<g id="node8" class="node"><title>Node7</title>
<g id="a_node8"><a xlink:title=" ">
<polygon fill="white" stroke="#bfbfbf" points="923.268,-168.5 923.268,-187.5 965.268,-187.5 965.268,-168.5 923.268,-168.5"/>
<text text-anchor="middle" x="944.268" y="-175.5" font-family="Helvetica,sans-Serif" font-size="10.00">vector</text>
</a>
</g>
</g>
<!-- Node2&#45;&gt;Node7 -->
<g id="edge47" class="edge"><title>Node2&#45;&gt;Node7</title>
<path fill="none" stroke="midnightblue" d="M832.883,-280.423C847.428,-272.073 869.349,-258.544 886.268,-244 903.39,-229.28 920.268,-209.622 931.363,-195.792"/>
<polygon fill="midnightblue" stroke="midnightblue" points="934.331,-197.679 937.763,-187.656 928.829,-193.352 934.331,-197.679"/>
</g>
<!-- Node8 -->
<g id="node9" class="node"><title>Node8</title>
<g id="a_node9"><a xlink:href="ia_event_8h.html" target="_top" xlink:title=" ">
<polygon fill="white" stroke="black" points="590.268,-224.5 590.268,-243.5 646.268,-243.5 646.268,-224.5 590.268,-224.5"/>
<text text-anchor="middle" x="618.268" y="-231.5" font-family="Helvetica,sans-Serif" font-size="10.00">iaEvent.h</text>
</a>
</g>
</g>
<!-- Node2&#45;&gt;Node8 -->
<g id="edge10" class="edge"><title>Node2&#45;&gt;Node8</title>
<path fill="none" stroke="midnightblue" d="M792.064,-282.161C757.813,-272.867 696.273,-256.167 656.367,-245.338"/>
<polygon fill="midnightblue" stroke="midnightblue" points="657.037,-241.894 646.469,-242.653 655.204,-248.649 657.037,-241.894"/>
</g>
<!-- Node16 -->
<g id="node17" class="node"><title>Node16</title>
<g id="a_node17"><a xlink:href="ia_string_8h.html" target="_top" xlink:title=" ">
<polygon fill="white" stroke="black" points="1136.27,-224.5 1136.27,-243.5 1194.27,-243.5 1194.27,-224.5 1136.27,-224.5"/>
<text text-anchor="middle" x="1165.27" y="-231.5" font-family="Helvetica,sans-Serif" font-size="10.00">iaString.h</text>
</a>
</g>
</g>
<!-- Node2&#45;&gt;Node16 -->
<g id="edge22" class="edge"><title>Node2&#45;&gt;Node16</title>
<path fill="none" stroke="midnightblue" d="M842.618,-286.025C893.995,-279.843 1014.25,-264.598 1125.86,-243.927"/>
<polygon fill="midnightblue" stroke="midnightblue" points="1126.75,-247.321 1135.93,-242.041 1125.46,-240.441 1126.75,-247.321"/>
</g>
<!-- Node17 -->
<g id="node18" class="node"><title>Node17</title>
<g id="a_node18"><a xlink:title=" ">
<polygon fill="white" stroke="#bfbfbf" points="762.268,-56.5 762.268,-75.5 814.268,-75.5 814.268,-56.5 762.268,-56.5"/>
<text text-anchor="middle" x="788.268" y="-63.5" font-family="Helvetica,sans-Serif" font-size="10.00">ostream</text>
</a>
</g>
</g>
<!-- Node2&#45;&gt;Node17 -->
<g id="edge46" class="edge"><title>Node2&#45;&gt;Node17</title>
<path fill="none" stroke="midnightblue" d="M791.977,-283.365C771.633,-277.356 744.358,-265.623 731.268,-244 715.228,-217.505 735.025,-215.616 765.268,-132 770.929,-116.346 777.227,-98.5188 781.799,-85.4985"/>
<polygon fill="midnightblue" stroke="midnightblue" points="785.177,-86.4401 785.182,-75.8453 778.571,-84.1251 785.177,-86.4401"/>
</g>
<!-- Node2&#45;&gt;Node18 -->
<g id="edge26" class="edge"><title>Node2&#45;&gt;Node18</title>
<path fill="none" stroke="midnightblue" d="M792.203,-285.525C779.877,-283.831 764.797,-281.78 751.268,-280 636.966,-264.963 501.836,-248.08 436.136,-239.929"/>
<polygon fill="midnightblue" stroke="midnightblue" points="436.556,-236.455 426.201,-238.698 435.695,-243.401 436.556,-236.455"/>
</g>
<!-- Node27 -->
<g id="node28" class="node"><title>Node27</title>
<g id="a_node28"><a xlink:href="ia_i_d_generator_8h.html" target="_top" xlink:title=" ">
<polygon fill="white" stroke="black" points="740.268,-224.5 740.268,-243.5 824.268,-243.5 824.268,-224.5 740.268,-224.5"/>
<text text-anchor="middle" x="782.268" y="-231.5" font-family="Helvetica,sans-Serif" font-size="10.00">iaIDGenerator.h</text>
</a>
</g>
</g>
<!-- Node2&#45;&gt;Node27 -->
<g id="edge43" class="edge"><title>Node2&#45;&gt;Node27</title>
<path fill="none" stroke="midnightblue" d="M811.488,-280.083C806.595,-272.534 799.44,-261.495 793.435,-252.23"/>
<polygon fill="midnightblue" stroke="midnightblue" points="796.316,-250.239 787.94,-243.751 790.442,-254.046 796.316,-250.239"/>
</g>
<!-- Node28 -->
<g id="node29" class="node"><title>Node28</title>
<g id="a_node29"><a xlink:title=" ">
<polygon fill="white" stroke="#bfbfbf" points="1250.27,-224.5 1250.27,-243.5 1302.27,-243.5 1302.27,-224.5 1250.27,-224.5"/>
<text text-anchor="middle" x="1276.27" y="-231.5" font-family="Helvetica,sans-Serif" font-size="10.00">memory</text>
</a>
</g>
</g>
<!-- Node2&#45;&gt;Node28 -->
<g id="edge48" class="edge"><title>Node2&#45;&gt;Node28</title>
<path fill="none" stroke="midnightblue" d="M842.434,-287.306C907.752,-282.69 1087.94,-268.569 1236.27,-244 1237.53,-243.791 1238.82,-243.566 1240.11,-243.33"/>
<polygon fill="midnightblue" stroke="midnightblue" points="1240.98,-246.726 1250.1,-241.337 1239.61,-239.861 1240.98,-246.726"/>
</g>
<!-- Node29 -->
<g id="node30" class="node"><title>Node29</title>
<g id="a_node30"><a xlink:title=" ">
<polygon fill="white" stroke="#bfbfbf" points="842.768,-224.5 842.768,-243.5 877.768,-243.5 877.768,-224.5 842.768,-224.5"/>
<text text-anchor="middle" x="860.268" y="-231.5" font-family="Helvetica,sans-Serif" font-size="10.00">map</text>
</a>
</g>
</g>
<!-- Node2&#45;&gt;Node29 -->
<g id="edge49" class="edge"><title>Node2&#45;&gt;Node29</title>
<path fill="none" stroke="midnightblue" d="M824.368,-280.083C830.505,-272.377 839.537,-261.033 847.007,-251.653"/>
<polygon fill="midnightblue" stroke="midnightblue" points="849.808,-253.754 853.299,-243.751 844.332,-249.394 849.808,-253.754"/>
</g>
<!-- Node3&#45;&gt;Node4 -->
<g id="edge4" class="edge"><title>Node3&#45;&gt;Node4</title>
<path fill="none" stroke="midnightblue" d="M1089.3,-224.444C1115.88,-215.359 1158.08,-200.939 1187.79,-190.783"/>
<polygon fill="midnightblue" stroke="midnightblue" points="1189.02,-194.062 1197.35,-187.516 1186.75,-187.439 1189.02,-194.062"/>
</g>
<!-- Node3&#45;&gt;Node6 -->
<g id="edge6" class="edge"><title>Node3&#45;&gt;Node6</title>
<path fill="none" stroke="midnightblue" d="M1054.36,-224.397C1038.4,-210.894 1005.63,-184.56 974.268,-168 892.961,-125.066 789.418,-93.0233 733.825,-77.4723"/>
<polygon fill="midnightblue" stroke="midnightblue" points="734.589,-74.0525 724.018,-74.7616 732.724,-80.7994 734.589,-74.0525"/>
</g>
<!-- Node3&#45;&gt;Node7 -->
<g id="edge8" class="edge"><title>Node3&#45;&gt;Node7</title>
<path fill="none" stroke="midnightblue" d="M1045.25,-224.444C1025.68,-215.636 994.96,-201.812 972.539,-191.722"/>
<polygon fill="midnightblue" stroke="midnightblue" points="973.749,-188.428 963.193,-187.516 970.876,-194.812 973.749,-188.428"/>
</g>
<!-- Node5 -->
<g id="node6" class="node"><title>Node5</title>
<g id="a_node6"><a xlink:href="ia_defines_8h.html" target="_top" xlink:title=" ">
<polygon fill="white" stroke="black" points="612.768,-0.5 612.768,-19.5 677.768,-19.5 677.768,-0.5 612.768,-0.5"/>
<text text-anchor="middle" x="645.268" y="-7.5" font-family="Helvetica,sans-Serif" font-size="10.00">iaDefines.h</text>
</a>
</g>
</g>
<!-- Node4&#45;&gt;Node5 -->
<g id="edge5" class="edge"><title>Node4&#45;&gt;Node5</title>
<path fill="none" stroke="midnightblue" d="M1220.99,-168.409C1217.11,-145.599 1203.14,-83.3917 1163.27,-56 1124.45,-29.3331 804.652,-16.2383 687.806,-12.3099"/>
<polygon fill="midnightblue" stroke="midnightblue" points="687.905,-8.81129 677.794,-11.9791 687.673,-15.8075 687.905,-8.81129"/>
</g>
<!-- Node6&#45;&gt;Node5 -->
<g id="edge7" class="edge"><title>Node6&#45;&gt;Node5</title>
<path fill="none" stroke="midnightblue" d="M686.176,-56.083C679.112,-48.2982 668.68,-36.8015 660.119,-27.3665"/>
<polygon fill="midnightblue" stroke="midnightblue" points="662.52,-24.8047 653.208,-19.7511 657.336,-29.5087 662.52,-24.8047"/>
</g>
<!-- Node8&#45;&gt;Node6 -->
<g id="edge11" class="edge"><title>Node8&#45;&gt;Node6</title>
<path fill="none" stroke="midnightblue" d="M627.015,-224.431C635.308,-215.879 647.607,-202.024 655.268,-188 673.719,-154.223 685.129,-110.317 690.529,-85.7549"/>
<polygon fill="midnightblue" stroke="midnightblue" points="694.02,-86.163 692.647,-75.6575 687.169,-84.7262 694.02,-86.163"/>
</g>
<!-- Node8&#45;&gt;Node7 -->
<g id="edge21" class="edge"><title>Node8&#45;&gt;Node7</title>
<path fill="none" stroke="midnightblue" d="M646.344,-228.349C706.934,-218.313 849.582,-194.684 912.968,-184.185"/>
<polygon fill="midnightblue" stroke="midnightblue" points="913.848,-187.587 923.141,-182.499 912.704,-180.681 913.848,-187.587"/>
</g>
<!-- Node9 -->
<g id="node10" class="node"><title>Node9</title>
<g id="a_node10"><a xlink:href="ia_delegate_8h.html" target="_top" xlink:title=" ">
<polygon fill="white" stroke="black" points="575.768,-168.5 575.768,-187.5 646.768,-187.5 646.768,-168.5 575.768,-168.5"/>
<text text-anchor="middle" x="611.268" y="-175.5" font-family="Helvetica,sans-Serif" font-size="10.00">iaDelegate.h</text>
</a>
</g>
</g>
<!-- Node8&#45;&gt;Node9 -->
<g id="edge12" class="edge"><title>Node8&#45;&gt;Node9</title>
<path fill="none" stroke="midnightblue" d="M617.112,-224.083C616.184,-216.927 614.85,-206.635 613.691,-197.691"/>
<polygon fill="midnightblue" stroke="midnightblue" points="617.159,-197.218 612.402,-187.751 610.217,-198.118 617.159,-197.218"/>
</g>
<!-- Node8&#45;&gt;Node10 -->
<g id="edge13" class="edge"><title>Node8&#45;&gt;Node10</title>
<path fill="none" stroke="midnightblue" d="M590.061,-229.499C516.173,-220.326 316.543,-195.545 227.354,-184.473"/>
<polygon fill="midnightblue" stroke="midnightblue" points="227.649,-180.983 217.294,-183.224 226.786,-187.929 227.649,-180.983"/>
</g>
<!-- Node11 -->
<g id="node12" class="node"><title>Node11</title>
<g id="a_node12"><a xlink:href="ia_singleton_8h.html" target="_top" xlink:title=" ">
<polygon fill="white" stroke="black" points="191.768,-112.5 191.768,-131.5 264.768,-131.5 264.768,-112.5 191.768,-112.5"/>
<text text-anchor="middle" x="228.268" y="-119.5" font-family="Helvetica,sans-Serif" font-size="10.00">iaSingleton.h</text>
</a>
</g>
</g>
<!-- Node10&#45;&gt;Node11 -->
<g id="edge14" class="edge"><title>Node10&#45;&gt;Node11</title>
<path fill="none" stroke="midnightblue" d="M190.698,-168.083C197.12,-160.377 206.573,-149.033 214.39,-139.653"/>
<polygon fill="midnightblue" stroke="midnightblue" points="217.262,-141.674 220.975,-131.751 211.884,-137.193 217.262,-141.674"/>
</g>
<!-- Node12 -->
<g id="node13" class="node"><title>Node12</title>
<g id="a_node13"><a xlink:href="ia_clock_8h.html" target="_top" xlink:title=" ">
<polygon fill="white" stroke="black" points="182.768,-56.5 182.768,-75.5 239.768,-75.5 239.768,-56.5 182.768,-56.5"/>
<text text-anchor="middle" x="211.268" y="-63.5" font-family="Helvetica,sans-Serif" font-size="10.00">iaClock.h</text>
</a>
</g>
</g>
<!-- Node10&#45;&gt;Node12 -->
<g id="edge16" class="edge"><title>Node10&#45;&gt;Node12</title>
<path fill="none" stroke="midnightblue" d="M159.242,-168.31C132.346,-157.164 94.4665,-136.339 110.268,-112 124.046,-90.7771 150.412,-79.4791 172.751,-73.5119"/>
<polygon fill="midnightblue" stroke="midnightblue" points="173.765,-76.8679 182.671,-71.1289 172.13,-70.0615 173.765,-76.8679"/>
</g>
<!-- Node13 -->
<g id="node14" class="node"><title>Node13</title>
<g id="a_node14"><a xlink:title=" ">
<polygon fill="white" stroke="#bfbfbf" points="13.7676,-112.5 13.7676,-131.5 62.7676,-131.5 62.7676,-112.5 13.7676,-112.5"/>
<text text-anchor="middle" x="38.2676" y="-119.5" font-family="Helvetica,sans-Serif" font-size="10.00">fstream</text>
</a>
</g>
</g>
<!-- Node10&#45;&gt;Node13 -->
<g id="edge18" class="edge"><title>Node10&#45;&gt;Node13</title>
<path fill="none" stroke="midnightblue" d="M160.292,-168.444C136.111,-159.438 97.8496,-145.189 70.6215,-135.049"/>
<polygon fill="midnightblue" stroke="midnightblue" points="71.7286,-131.727 61.1358,-131.516 69.2855,-138.286 71.7286,-131.727"/>
</g>
<!-- Node14 -->
<g id="node15" class="node"><title>Node14</title>
<g id="a_node15"><a xlink:title=" ">
<polygon fill="white" stroke="#bfbfbf" points="119.268,-112.5 119.268,-131.5 173.268,-131.5 173.268,-112.5 119.268,-112.5"/>
<text text-anchor="middle" x="146.268" y="-119.5" font-family="Helvetica,sans-Serif" font-size="10.00">iostream</text>
</a>
</g>
</g>
<!-- Node10&#45;&gt;Node14 -->
<g id="edge19" class="edge"><title>Node10&#45;&gt;Node14</title>
<path fill="none" stroke="midnightblue" d="M177.158,-168.083C171.985,-160.534 164.421,-149.495 158.073,-140.23"/>
<polygon fill="midnightblue" stroke="midnightblue" points="160.803,-138.022 152.264,-131.751 155.029,-141.979 160.803,-138.022"/>
</g>
<!-- Node15 -->
<g id="node16" class="node"><title>Node15</title>
<g id="a_node16"><a xlink:title=" ">
<polygon fill="white" stroke="#bfbfbf" points="283.268,-112.5 283.268,-131.5 333.268,-131.5 333.268,-112.5 283.268,-112.5"/>
<text text-anchor="middle" x="308.268" y="-119.5" font-family="Helvetica,sans-Serif" font-size="10.00">iomanip</text>
</a>
</g>
</g>
<!-- Node10&#45;&gt;Node15 -->
<g id="edge20" class="edge"><title>Node10&#45;&gt;Node15</title>
<path fill="none" stroke="midnightblue" d="M203.074,-168.444C223.554,-159.596 255.75,-145.687 279.132,-135.586"/>
<polygon fill="midnightblue" stroke="midnightblue" points="280.762,-138.695 288.554,-131.516 277.986,-132.269 280.762,-138.695"/>
</g>
<!-- Node11&#45;&gt;Node6 -->
<g id="edge15" class="edge"><title>Node11&#45;&gt;Node6</title>
<path fill="none" stroke="midnightblue" d="M264.876,-113.541C268.047,-112.985 271.21,-112.462 274.268,-112 413.182,-91.0088 579.396,-76.2338 654.253,-70.127"/>
<polygon fill="midnightblue" stroke="midnightblue" points="654.935,-73.5833 664.621,-69.2891 654.371,-66.6061 654.935,-73.5833"/>
</g>
<!-- Node12&#45;&gt;Node5 -->
<g id="edge17" class="edge"><title>Node12&#45;&gt;Node5</title>
<path fill="none" stroke="midnightblue" d="M240.08,-61.4151C314.669,-52.1344 514.39,-27.2843 602.498,-16.3216"/>
<polygon fill="midnightblue" stroke="midnightblue" points="603.182,-19.7635 612.673,-15.0555 602.318,-12.8171 603.182,-19.7635"/>
</g>
<!-- Node16&#45;&gt;Node5 -->
<g id="edge23" class="edge"><title>Node16&#45;&gt;Node5</title>
<path fill="none" stroke="midnightblue" d="M1152.01,-224.347C1132.04,-211.45 1092.88,-186.699 1058.27,-168 956.473,-113.006 932.104,-95.2583 823.268,-56 778.046,-39.6879 724.326,-26.9771 687.818,-19.286"/>
<polygon fill="midnightblue" stroke="midnightblue" points="688.501,-15.8532 677.998,-17.251 687.08,-22.7076 688.501,-15.8532"/>
</g>
<!-- Node16&#45;&gt;Node7 -->
<g id="edge25" class="edge"><title>Node16&#45;&gt;Node7</title>
<path fill="none" stroke="midnightblue" d="M1135.92,-225.829C1094.16,-215.625 1017.93,-197 975.278,-186.577"/>
<polygon fill="midnightblue" stroke="midnightblue" points="975.994,-183.149 965.449,-184.176 974.333,-189.949 975.994,-183.149"/>
</g>
<!-- Node16&#45;&gt;Node17 -->
<g id="edge24" class="edge"><title>Node16&#45;&gt;Node17</title>
<path fill="none" stroke="midnightblue" d="M1145.79,-224.425C1083.87,-197.159 891.257,-112.348 817.452,-79.8506"/>
<polygon fill="midnightblue" stroke="midnightblue" points="818.415,-76.4503 807.853,-75.6237 815.594,-82.8568 818.415,-76.4503"/>
</g>
<!-- Node18&#45;&gt;Node13 -->
<g id="edge38" class="edge"><title>Node18&#45;&gt;Node13</title>
<path fill="none" stroke="midnightblue" d="M366.468,-231.541C317.656,-228.329 218.291,-218.324 140.268,-188 108.529,-175.665 76.0712,-152.875 56.5411,-137.825"/>
<polygon fill="midnightblue" stroke="midnightblue" points="58.5501,-134.953 48.5265,-131.521 54.2222,-140.454 58.5501,-134.953"/>
</g>
<!-- Node18&#45;&gt;Node15 -->
<g id="edge40" class="edge"><title>Node18&#45;&gt;Node15</title>
<path fill="none" stroke="midnightblue" d="M389.916,-224.49C380.537,-211.981 362.351,-187.951 346.268,-168 338.47,-158.328 329.515,-147.7 322.257,-139.203"/>
<polygon fill="midnightblue" stroke="midnightblue" points="324.839,-136.838 315.67,-131.53 319.528,-141.397 324.839,-136.838"/>
</g>
<!-- Node19 -->
<g id="node20" class="node"><title>Node19</title>
<g id="a_node20"><a xlink:href="ia_vector4_8h.html" target="_top" xlink:title=" ">
<polygon fill="white" stroke="black" points="393.268,-168.5 393.268,-187.5 459.268,-187.5 459.268,-168.5 393.268,-168.5"/>
<text text-anchor="middle" x="426.268" y="-175.5" font-family="Helvetica,sans-Serif" font-size="10.00">iaVector4.h</text>
</a>
</g>
</g>
<!-- Node18&#45;&gt;Node19 -->
<g id="edge27" class="edge"><title>Node18&#45;&gt;Node19</title>
<path fill="none" stroke="midnightblue" d="M401.222,-224.083C405.372,-216.613 411.421,-205.724 416.534,-196.52"/>
<polygon fill="midnightblue" stroke="midnightblue" points="419.609,-198.192 421.406,-187.751 413.49,-194.793 419.609,-198.192"/>
</g>
<!-- Node21 -->
<g id="node22" class="node"><title>Node21</title>
<g id="a_node22"><a xlink:title=" ">
<polygon fill="white" stroke="#bfbfbf" points="377.268,-56.5 377.268,-75.5 421.268,-75.5 421.268,-56.5 377.268,-56.5"/>
<text text-anchor="middle" x="399.268" y="-63.5" font-family="Helvetica,sans-Serif" font-size="10.00">cmath</text>
</a>
</g>
</g>
<!-- Node18&#45;&gt;Node21 -->
<g id="edge39" class="edge"><title>Node18&#45;&gt;Node21</title>
<path fill="none" stroke="midnightblue" d="M366.616,-232.276C335.34,-229.734 287.446,-220.389 264.268,-188 230.555,-140.889 309.53,-156.459 342.268,-132 360.416,-118.441 376.979,-98.275 387.517,-84.0064"/>
<polygon fill="midnightblue" stroke="midnightblue" points="390.552,-85.7788 393.528,-75.6103 384.861,-81.7039 390.552,-85.7788"/>
</g>
<!-- Node24 -->
<g id="node25" class="node"><title>Node24</title>
<g id="a_node25"><a xlink:href="ia_quaternion_8h.html" target="_top" xlink:title=" ">
<polygon fill="white" stroke="black" points="477.268,-168.5 477.268,-187.5 557.268,-187.5 557.268,-168.5 477.268,-168.5"/>
<text text-anchor="middle" x="517.268" y="-175.5" font-family="Helvetica,sans-Serif" font-size="10.00">iaQuaternion.h</text>
</a>
</g>
</g>
<!-- Node18&#45;&gt;Node24 -->
<g id="edge34" class="edge"><title>Node18&#45;&gt;Node24</title>
<path fill="none" stroke="midnightblue" d="M415.44,-224.444C435.177,-215.636 466.153,-201.812 488.761,-191.722"/>
<polygon fill="midnightblue" stroke="midnightblue" points="490.479,-194.788 498.185,-187.516 487.626,-188.396 490.479,-194.788"/>
</g>
<!-- Node26 -->
<g id="node27" class="node"><title>Node26</title>
<g id="a_node27"><a xlink:href="ia_matrix_8inl.html" target="_top" xlink:title=" ">
<polygon fill="white" stroke="black" points="273.268,-168.5 273.268,-187.5 337.268,-187.5 337.268,-168.5 273.268,-168.5"/>
<text text-anchor="middle" x="305.268" y="-175.5" font-family="Helvetica,sans-Serif" font-size="10.00">iaMatrix.inl</text>
</a>
</g>
</g>
<!-- Node18&#45;&gt;Node26 -->
<g id="edge41" class="edge"><title>Node18&#45;&gt;Node26</title>
<path fill="none" stroke="midnightblue" d="M381.647,-224.324C367.319,-215.822 345.255,-202.729 328.519,-192.797"/>
<polygon fill="midnightblue" stroke="midnightblue" points="330.238,-189.748 319.852,-187.655 326.666,-195.768 330.238,-189.748"/>
</g>
<!-- Node20 -->
<g id="node21" class="node"><title>Node20</title>
<g id="a_node21"><a xlink:href="ia_vector3_8h.html" target="_top" xlink:title=" ">
<polygon fill="white" stroke="black" points="479.268,-112.5 479.268,-131.5 545.268,-131.5 545.268,-112.5 479.268,-112.5"/>
<text text-anchor="middle" x="512.268" y="-119.5" font-family="Helvetica,sans-Serif" font-size="10.00">iaVector3.h</text>
</a>
</g>
</g>
<!-- Node19&#45;&gt;Node20 -->
<g id="edge28" class="edge"><title>Node19&#45;&gt;Node20</title>
<path fill="none" stroke="midnightblue" d="M440.085,-168.324C453.501,-159.9 474.092,-146.971 489.853,-137.074"/>
<polygon fill="midnightblue" stroke="midnightblue" points="491.877,-139.936 498.485,-131.655 488.154,-134.008 491.877,-139.936"/>
</g>
<!-- Node23 -->
<g id="node24" class="node"><title>Node23</title>
<g id="a_node24"><a xlink:href="ia_vector4_8inl.html" target="_top" xlink:title=" ">
<polygon fill="white" stroke="black" points="389.768,-112.5 389.768,-131.5 460.768,-131.5 460.768,-112.5 389.768,-112.5"/>
<text text-anchor="middle" x="425.268" y="-119.5" font-family="Helvetica,sans-Serif" font-size="10.00">iaVector4.inl</text>
</a>
</g>
</g>
<!-- Node19&#45;&gt;Node23 -->
<g id="edge33" class="edge"><title>Node19&#45;&gt;Node23</title>
<path fill="none" stroke="midnightblue" d="M426.102,-168.083C425.971,-161.006 425.784,-150.861 425.619,-141.986"/>
<polygon fill="midnightblue" stroke="midnightblue" points="429.114,-141.685 425.43,-131.751 422.116,-141.814 429.114,-141.685"/>
</g>
<!-- Node20&#45;&gt;Node5 -->
<g id="edge29" class="edge"><title>Node20&#45;&gt;Node5</title>
<path fill="none" stroke="midnightblue" d="M522.704,-112.368C545.235,-93.7334 598.678,-49.5324 626.969,-26.1338"/>
<polygon fill="midnightblue" stroke="midnightblue" points="629.405,-28.6618 634.88,-19.5914 624.943,-23.2677 629.405,-28.6618"/>
</g>
<!-- Node20&#45;&gt;Node17 -->
<g id="edge31" class="edge"><title>Node20&#45;&gt;Node17</title>
<path fill="none" stroke="midnightblue" d="M545.269,-113.86C548.309,-113.222 551.345,-112.594 554.268,-112 624.223,-97.7799 706.189,-82.2842 752.19,-73.6936"/>
<polygon fill="midnightblue" stroke="midnightblue" points="753.073,-77.0893 762.262,-71.8156 751.79,-70.2079 753.073,-77.0893"/>
</g>
<!-- Node20&#45;&gt;Node21 -->
<g id="edge30" class="edge"><title>Node20&#45;&gt;Node21</title>
<path fill="none" stroke="midnightblue" d="M494.362,-112.444C476.014,-103.675 447.262,-89.9355 426.174,-79.8579"/>
<polygon fill="midnightblue" stroke="midnightblue" points="427.621,-76.6703 417.089,-75.5164 424.603,-82.9862 427.621,-76.6703"/>
</g>
<!-- Node22 -->
<g id="node23" class="node"><title>Node22</title>
<g id="a_node23"><a xlink:href="ia_vector3_8inl.html" target="_top" xlink:title=" ">
<polygon fill="white" stroke="black" points="476.768,-56.5 476.768,-75.5 547.768,-75.5 547.768,-56.5 476.768,-56.5"/>
<text text-anchor="middle" x="512.268" y="-63.5" font-family="Helvetica,sans-Serif" font-size="10.00">iaVector3.inl</text>
</a>
</g>
</g>
<!-- Node20&#45;&gt;Node22 -->
<g id="edge32" class="edge"><title>Node20&#45;&gt;Node22</title>
<path fill="none" stroke="midnightblue" d="M512.268,-112.083C512.268,-105.006 512.268,-94.8611 512.268,-85.9865"/>
<polygon fill="midnightblue" stroke="midnightblue" points="515.768,-85.751 512.268,-75.7511 508.768,-85.7511 515.768,-85.751"/>
</g>
<!-- Node24&#45;&gt;Node17 -->
<g id="edge36" class="edge"><title>Node24&#45;&gt;Node17</title>
<path fill="none" stroke="midnightblue" d="M547.816,-168.494C576.284,-160.243 619.717,-146.825 656.268,-132 694.848,-116.351 737.808,-94.2818 763.932,-80.31"/>
<polygon fill="midnightblue" stroke="midnightblue" points="765.613,-83.3803 772.756,-75.5558 762.292,-77.2178 765.613,-83.3803"/>
</g>
<!-- Node24&#45;&gt;Node20 -->
<g id="edge35" class="edge"><title>Node24&#45;&gt;Node20</title>
<path fill="none" stroke="midnightblue" d="M516.442,-168.083C515.787,-161.006 514.847,-150.861 514.026,-141.986"/>
<polygon fill="midnightblue" stroke="midnightblue" points="517.485,-141.386 513.078,-131.751 510.515,-142.031 517.485,-141.386"/>
</g>
<!-- Node25 -->
<g id="node26" class="node"><title>Node25</title>
<g id="a_node26"><a xlink:href="ia_quaternion_8inl.html" target="_top" xlink:title=" ">
<polygon fill="white" stroke="black" points="563.268,-112.5 563.268,-131.5 647.268,-131.5 647.268,-112.5 563.268,-112.5"/>
<text text-anchor="middle" x="605.268" y="-119.5" font-family="Helvetica,sans-Serif" font-size="10.00">iaQuaternion.inl</text>
</a>
</g>
</g>
<!-- Node24&#45;&gt;Node25 -->
<g id="edge37" class="edge"><title>Node24&#45;&gt;Node25</title>
<path fill="none" stroke="midnightblue" d="M531.406,-168.324C545.134,-159.9 566.204,-146.971 582.332,-137.074"/>
<polygon fill="midnightblue" stroke="midnightblue" points="584.471,-139.868 591.164,-131.655 580.81,-133.902 584.471,-139.868"/>
</g>
<!-- Node27&#45;&gt;Node6 -->
<g id="edge44" class="edge"><title>Node27&#45;&gt;Node6</title>
<path fill="none" stroke="midnightblue" d="M783.384,-224.242C785.62,-203.07 788.605,-148.191 765.268,-112 756.12,-97.814 740.745,-87.2608 726.637,-79.9535"/>
<polygon fill="midnightblue" stroke="midnightblue" points="728.155,-76.8001 717.627,-75.6148 725.118,-83.107 728.155,-76.8001"/>
</g>
<!-- Node27&#45;&gt;Node7 -->
<g id="edge45" class="edge"><title>Node27&#45;&gt;Node7</title>
<path fill="none" stroke="midnightblue" d="M807.937,-224.444C836.473,-214.932 882.558,-199.57 913.131,-189.379"/>
<polygon fill="midnightblue" stroke="midnightblue" points="914.477,-192.62 922.857,-186.137 912.263,-185.979 914.477,-192.62"/>
</g>
<!-- Node30&#45;&gt;Node5 -->
<g id="edge52" class="edge"><title>Node30&#45;&gt;Node5</title>
<path fill="none" stroke="midnightblue" d="M27.5087,-168.129C13.1085,-155.17 -9.15252,-130.585 4.26761,-112 50.5912,-47.8497 95.8378,-72.3024 173.268,-56 329.112,-23.1879 518.989,-14.2692 602.443,-11.8699"/>
<polygon fill="midnightblue" stroke="midnightblue" points="602.654,-15.3655 612.556,-11.5964 602.465,-8.3681 602.654,-15.3655"/>
</g>
<!-- Node30&#45;&gt;Node13 -->
<g id="edge53" class="edge"><title>Node30&#45;&gt;Node13</title>
<path fill="none" stroke="midnightblue" d="M38.2676,-168.083C38.2676,-161.006 38.2676,-150.861 38.2676,-141.986"/>
<polygon fill="midnightblue" stroke="midnightblue" points="41.7677,-141.751 38.2676,-131.751 34.7677,-141.751 41.7677,-141.751"/>
</g>
<!-- Node31&#45;&gt;Node2 -->
<g id="edge59" class="edge"><title>Node31&#45;&gt;Node2</title>
<path fill="none" stroke="midnightblue" d="M946.617,-453.406C919.97,-448.524 880.262,-437.289 856.268,-412 829.14,-383.408 820.881,-335.829 818.368,-309.663"/>
<polygon fill="midnightblue" stroke="midnightblue" points="821.849,-309.285 817.586,-299.585 814.87,-309.826 821.849,-309.285"/>
</g>
<!-- Node31&#45;&gt;Node3 -->
<g id="edge67" class="edge"><title>Node31&#45;&gt;Node3</title>
<path fill="none" stroke="midnightblue" d="M946.532,-449.341C917.129,-439.587 876.548,-420.5 889.268,-392 920.134,-322.841 998.189,-271.458 1038.81,-248.414"/>
<polygon fill="midnightblue" stroke="midnightblue" points="1040.54,-251.46 1047.59,-243.55 1037.14,-245.338 1040.54,-251.46"/>
</g>
<!-- Node31&#45;&gt;Node4 -->
<g id="edge58" class="edge"><title>Node31&#45;&gt;Node4</title>
<path fill="none" stroke="midnightblue" d="M1001.97,-455.27C1091.66,-448.922 1368.27,-423.167 1368.27,-347 1368.27,-347 1368.27,-347 1368.27,-289 1368.27,-235.414 1304.75,-204.662 1261.51,-189.935"/>
<polygon fill="midnightblue" stroke="midnightblue" points="1262.41,-186.545 1251.81,-186.781 1260.24,-193.202 1262.41,-186.545"/>
</g>
<!-- Node31&#45;&gt;Node7 -->
<g id="edge69" class="edge"><title>Node31&#45;&gt;Node7</title>
<path fill="none" stroke="midnightblue" d="M1002.04,-453.84C1027.48,-449.309 1063.76,-438.354 1081.27,-412 1086.19,-404.596 1082.99,-400.721 1081.27,-392 1076.06,-365.603 1071.38,-359.497 1058.27,-336 1027.76,-281.32 981.453,-223.272 958.374,-195.576"/>
<polygon fill="midnightblue" stroke="midnightblue" points="960.861,-193.095 951.746,-187.693 955.503,-197.599 960.861,-193.095"/>
</g>
<!-- Node31&#45;&gt;Node8 -->
<g id="edge57" class="edge"><title>Node31&#45;&gt;Node8</title>
<path fill="none" stroke="midnightblue" d="M946.511,-450.918C918.16,-444.008 873.435,-431.145 838.268,-412 752.968,-365.564 667.933,-284.993 633.841,-250.933"/>
<polygon fill="midnightblue" stroke="midnightblue" points="636.175,-248.316 626.649,-243.679 631.204,-253.245 636.175,-248.316"/>
</g>
<!-- Node31&#45;&gt;Node16 -->
<g id="edge56" class="edge"><title>Node31&#45;&gt;Node16</title>
<path fill="none" stroke="midnightblue" d="M997.764,-448.426C1015.89,-440.928 1040.75,-428.631 1058.27,-412 1108.54,-364.277 1143.83,-287.888 1158.16,-253.196"/>
<polygon fill="midnightblue" stroke="midnightblue" points="1161.43,-254.43 1161.92,-243.847 1154.94,-251.815 1161.43,-254.43"/>
</g>
<!-- Node31&#45;&gt;Node28 -->
<g id="edge68" class="edge"><title>Node31&#45;&gt;Node28</title>
<path fill="none" stroke="midnightblue" d="M1001.98,-454.04C1034.89,-449.448 1090.33,-438.222 1130.27,-412 1195.43,-369.22 1246.28,-288.421 1266.62,-252.723"/>
<polygon fill="midnightblue" stroke="midnightblue" points="1269.93,-253.987 1271.74,-243.549 1263.81,-250.577 1269.93,-253.987"/>
</g>
<!-- Node32 -->
<g id="node33" class="node"><title>Node32</title>
<g id="a_node33"><a xlink:href="i_node_visitor_update_transform_8h.html" target="_top" xlink:title=" ">
<polygon fill="white" stroke="black" points="898.768,-392.5 898.768,-411.5 1049.77,-411.5 1049.77,-392.5 898.768,-392.5"/>
<text text-anchor="middle" x="974.268" y="-399.5" font-family="Helvetica,sans-Serif" font-size="10.00">iNodeVisitorUpdateTransform.h</text>
</a>
</g>
</g>
<!-- Node31&#45;&gt;Node32 -->
<g id="edge60" class="edge"><title>Node31&#45;&gt;Node32</title>
<path fill="none" stroke="midnightblue" d="M974.268,-448.083C974.268,-441.006 974.268,-430.861 974.268,-421.986"/>
<polygon fill="midnightblue" stroke="midnightblue" points="977.768,-421.751 974.268,-411.751 970.768,-421.751 977.768,-421.751"/>
</g>
<!-- Node32&#45;&gt;Node7 -->
<g id="edge66" class="edge"><title>Node32&#45;&gt;Node7</title>
<path fill="none" stroke="midnightblue" d="M971.816,-392.445C969.323,-383.445 965.515,-368.834 963.268,-356 953.251,-298.792 947.702,-230.195 945.459,-197.757"/>
<polygon fill="midnightblue" stroke="midnightblue" points="948.935,-197.277 944.78,-187.53 941.95,-197.74 948.935,-197.277"/>
</g>
<!-- Node32&#45;&gt;Node18 -->
<g id="edge65" class="edge"><title>Node32&#45;&gt;Node18</title>
<path fill="none" stroke="midnightblue" d="M944.409,-392.425C848.001,-364.737 544.968,-277.706 435.885,-246.378"/>
<polygon fill="midnightblue" stroke="midnightblue" points="436.525,-242.921 425.948,-243.524 434.593,-249.649 436.525,-242.921"/>
</g>
<!-- Node33 -->
<g id="node34" class="node"><title>Node33</title>
<g id="a_node34"><a xlink:href="i_node_visitor_8h.html" target="_top" xlink:title=" ">
<polygon fill="white" stroke="black" points="972.768,-336.5 972.768,-355.5 1049.77,-355.5 1049.77,-336.5 972.768,-336.5"/>
<text text-anchor="middle" x="1011.27" y="-343.5" font-family="Helvetica,sans-Serif" font-size="10.00">iNodeVisitor.h</text>
</a>
</g>
</g>
<!-- Node32&#45;&gt;Node33 -->
<g id="edge61" class="edge"><title>Node32&#45;&gt;Node33</title>
<path fill="none" stroke="midnightblue" d="M980.377,-392.083C985.55,-384.534 993.114,-373.495 999.462,-364.23"/>
<polygon fill="midnightblue" stroke="midnightblue" points="1002.51,-365.979 1005.27,-355.751 996.732,-362.022 1002.51,-365.979"/>
</g>
<!-- Node33&#45;&gt;Node2 -->
<g id="edge63" class="edge"><title>Node33&#45;&gt;Node2</title>
<path fill="none" stroke="midnightblue" d="M980.528,-336.444C945.566,-326.712 888.605,-310.857 852.046,-300.681"/>
<polygon fill="midnightblue" stroke="midnightblue" points="852.884,-297.281 842.311,-297.971 851.007,-304.024 852.884,-297.281"/>
</g>
<!-- Node33&#45;&gt;Node4 -->
<g id="edge62" class="edge"><title>Node33&#45;&gt;Node4</title>
<path fill="none" stroke="midnightblue" d="M1049.93,-345.361C1116.61,-343.614 1251.77,-329.136 1311.27,-244 1328.08,-219.942 1292.79,-201.377 1261.8,-190.361"/>
<polygon fill="midnightblue" stroke="midnightblue" points="1262.55,-186.922 1251.96,-187.051 1260.32,-193.557 1262.55,-186.922"/>
</g>
<!-- Node33&#45;&gt;Node28 -->
<g id="edge64" class="edge"><title>Node33&#45;&gt;Node28</title>
<path fill="none" stroke="midnightblue" d="M1032.06,-336.368C1078.7,-317.01 1191.79,-270.065 1246.14,-247.507"/>
<polygon fill="midnightblue" stroke="midnightblue" points="1247.68,-250.658 1255.57,-243.591 1244.99,-244.193 1247.68,-250.658"/>
</g>
</g>
</svg>
