<?xml version="1.0" encoding="UTF-8" standalone="no"?>
<!DOCTYPE svg PUBLIC "-//W3C//DTD SVG 1.1//EN"
 "http://www.w3.org/Graphics/SVG/1.1/DTD/svg11.dtd">
<!-- Generated by graphviz version 2.38.0 (20140413.2041)
 -->
<!-- Title: C:/dev/Igor/Igor/src/Igor/src/iNodeSkyBox.h Pages: 1 -->
<svg width="1235pt" height="431pt"
 viewBox="0.00 0.00 1234.64 431.00" xmlns="http://www.w3.org/2000/svg" xmlns:xlink="http://www.w3.org/1999/xlink">
<g id="graph0" class="graph" transform="scale(1 1) rotate(0) translate(4 427)">
<title>C:/dev/Igor/Igor/src/Igor/src/iNodeSkyBox.h</title>
<polygon fill="white" stroke="none" points="-4,4 -4,-427 1230.64,-427 1230.64,4 -4,4"/>
<!-- Node0 -->
<g id="node1" class="node"><title>Node0</title>
<g id="a_node1"><a xlink:title=" ">
<polygon fill="#bfbfbf" stroke="black" points="716,-392.5 716,-422.5 838,-422.5 838,-392.5 716,-392.5"/>
<text text-anchor="start" x="724" y="-410.5" font-family="Helvetica,sans-Serif" font-size="10.00">C:/dev/Igor/Igor/src</text>
<text text-anchor="middle" x="777" y="-399.5" font-family="Helvetica,sans-Serif" font-size="10.00">/Igor/src/iNodeSkyBox.h</text>
</a>
</g>
</g>
<!-- Node1 -->
<g id="node2" class="node"><title>Node1</title>
<g id="a_node2"><a xlink:href="i_node_render_8h.html" target="_top" xlink:title=" ">
<polygon fill="white" stroke="black" points="654,-336.5 654,-355.5 734,-355.5 734,-336.5 654,-336.5"/>
<text text-anchor="middle" x="694" y="-343.5" font-family="Helvetica,sans-Serif" font-size="10.00">iNodeRender.h</text>
</a>
</g>
</g>
<!-- Node0&#45;&gt;Node1 -->
<g id="edge1" class="edge"><title>Node0&#45;&gt;Node1</title>
<path fill="none" stroke="midnightblue" d="M757.33,-392.399C744.399,-383.129 727.514,-371.025 714.432,-361.647"/>
<polygon fill="midnightblue" stroke="midnightblue" points="716.244,-358.639 706.077,-355.658 712.165,-364.329 716.244,-358.639"/>
</g>
<!-- Node33 -->
<g id="node34" class="node"><title>Node33</title>
<g id="a_node34"><a xlink:href="i_texture_resource_factory_8h.html" target="_top" xlink:title=" ">
<polygon fill="white" stroke="black" points="894,-280.5 894,-299.5 1028,-299.5 1028,-280.5 894,-280.5"/>
<text text-anchor="middle" x="961" y="-287.5" font-family="Helvetica,sans-Serif" font-size="10.00">iTextureResourceFactory.h</text>
</a>
</g>
</g>
<!-- Node0&#45;&gt;Node33 -->
<g id="edge69" class="edge"><title>Node0&#45;&gt;Node33</title>
<path fill="none" stroke="midnightblue" d="M799.562,-392.337C834.975,-370.108 903.204,-327.28 938.548,-305.093"/>
<polygon fill="midnightblue" stroke="midnightblue" points="940.58,-307.95 947.189,-299.669 936.858,-302.022 940.58,-307.95"/>
</g>
<!-- Node2 -->
<g id="node3" class="node"><title>Node2</title>
<g id="a_node3"><a xlink:href="i_node_8h.html" target="_top" xlink:title=" ">
<polygon fill="white" stroke="black" points="838,-224.5 838,-243.5 888,-243.5 888,-224.5 838,-224.5"/>
<text text-anchor="middle" x="863" y="-231.5" font-family="Helvetica,sans-Serif" font-size="10.00">iNode.h</text>
</a>
</g>
</g>
<!-- Node1&#45;&gt;Node2 -->
<g id="edge2" class="edge"><title>Node1&#45;&gt;Node2</title>
<path fill="none" stroke="midnightblue" d="M707.261,-336.368C736.262,-317.492 805.563,-272.385 841.127,-249.237"/>
<polygon fill="midnightblue" stroke="midnightblue" points="843.329,-251.98 849.8,-243.591 839.51,-246.113 843.329,-251.98"/>
</g>
<!-- Node10 -->
<g id="node11" class="node"><title>Node10</title>
<g id="a_node11"><a xlink:href="ia_matrix_8h.html" target="_top" xlink:title=" ">
<polygon fill="white" stroke="black" points="136.5,-168.5 136.5,-187.5 195.5,-187.5 195.5,-168.5 136.5,-168.5"/>
<text text-anchor="middle" x="166" y="-175.5" font-family="Helvetica,sans-Serif" font-size="10.00">iaMatrix.h</text>
</a>
</g>
</g>
<!-- Node1&#45;&gt;Node10 -->
<g id="edge35" class="edge"><title>Node1&#45;&gt;Node10</title>
<path fill="none" stroke="midnightblue" d="M653.821,-342.216C572.697,-335.282 385.14,-312.539 245,-244 219.961,-231.754 195.932,-210.094 181.085,-195.165"/>
<polygon fill="midnightblue" stroke="midnightblue" points="183.301,-192.422 173.833,-187.666 178.269,-197.288 183.301,-192.422"/>
</g>
<!-- Node20 -->
<g id="node21" class="node"><title>Node20</title>
<g id="a_node21"><a xlink:title=" ">
<polygon fill="white" stroke="#bfbfbf" points="608,-168.5 608,-187.5 660,-187.5 660,-168.5 608,-168.5"/>
<text text-anchor="middle" x="634" y="-175.5" font-family="Helvetica,sans-Serif" font-size="10.00">memory</text>
</a>
</g>
</g>
<!-- Node1&#45;&gt;Node20 -->
<g id="edge68" class="edge"><title>Node1&#45;&gt;Node20</title>
<path fill="none" stroke="midnightblue" d="M690.774,-336.075C681.289,-309.832 653.354,-232.545 640.548,-197.117"/>
<polygon fill="midnightblue" stroke="midnightblue" points="643.788,-195.783 637.097,-187.568 637.205,-198.162 643.788,-195.783"/>
</g>
<!-- Node22 -->
<g id="node23" class="node"><title>Node22</title>
<g id="a_node23"><a xlink:href="i_material_8h.html" target="_top" xlink:title=" ">
<polygon fill="white" stroke="black" points="511,-280.5 511,-299.5 573,-299.5 573,-280.5 511,-280.5"/>
<text text-anchor="middle" x="542" y="-287.5" font-family="Helvetica,sans-Serif" font-size="10.00">iMaterial.h</text>
</a>
</g>
</g>
<!-- Node1&#45;&gt;Node22 -->
<g id="edge36" class="edge"><title>Node1&#45;&gt;Node22</title>
<path fill="none" stroke="midnightblue" d="M669.915,-336.444C644.455,-327.399 604.106,-313.064 575.541,-302.916"/>
<polygon fill="midnightblue" stroke="midnightblue" points="576.567,-299.566 565.972,-299.516 574.223,-306.162 576.567,-299.566"/>
</g>
<!-- Node3 -->
<g id="node4" class="node"><title>Node3</title>
<g id="a_node4"><a xlink:href="i_data_update_queue_8h.html" target="_top" xlink:title=" ">
<polygon fill="white" stroke="black" points="856.5,-168.5 856.5,-187.5 963.5,-187.5 963.5,-168.5 856.5,-168.5"/>
<text text-anchor="middle" x="910" y="-175.5" font-family="Helvetica,sans-Serif" font-size="10.00">iDataUpdateQueue.h</text>
</a>
</g>
</g>
<!-- Node2&#45;&gt;Node3 -->
<g id="edge3" class="edge"><title>Node2&#45;&gt;Node3</title>
<path fill="none" stroke="midnightblue" d="M870.761,-224.083C877.537,-216.298 887.543,-204.801 895.755,-195.367"/>
<polygon fill="midnightblue" stroke="midnightblue" points="898.458,-197.592 902.383,-187.751 893.178,-192.996 898.458,-197.592"/>
</g>
<!-- Node4 -->
<g id="node5" class="node"><title>Node4</title>
<g id="a_node5"><a xlink:href="i_defines_8h.html" target="_top" xlink:title=" ">
<polygon fill="white" stroke="black" points="975.5,-112.5 975.5,-131.5 1034.5,-131.5 1034.5,-112.5 975.5,-112.5"/>
<text text-anchor="middle" x="1005" y="-119.5" font-family="Helvetica,sans-Serif" font-size="10.00">iDefines.h</text>
</a>
</g>
</g>
<!-- Node2&#45;&gt;Node4 -->
<g id="edge9" class="edge"><title>Node2&#45;&gt;Node4</title>
<path fill="none" stroke="midnightblue" d="M888.287,-231.678C940.583,-228.36 1057.78,-217.706 1082,-188 1099.16,-166.958 1067.21,-147.539 1039.39,-135.509"/>
<polygon fill="midnightblue" stroke="midnightblue" points="1040.39,-132.136 1029.81,-131.572 1037.73,-138.61 1040.39,-132.136"/>
</g>
<!-- Node6 -->
<g id="node7" class="node"><title>Node6</title>
<g id="a_node7"><a xlink:href="ia_mutex_8h.html" target="_top" xlink:title=" ">
<polygon fill="white" stroke="black" points="849.5,-56.5 849.5,-75.5 908.5,-75.5 908.5,-56.5 849.5,-56.5"/>
<text text-anchor="middle" x="879" y="-63.5" font-family="Helvetica,sans-Serif" font-size="10.00">iaMutex.h</text>
</a>
</g>
</g>
<!-- Node2&#45;&gt;Node6 -->
<g id="edge27" class="edge"><title>Node2&#45;&gt;Node6</title>
<path fill="none" stroke="midnightblue" d="M888.121,-232.096C943.325,-229.526 1072.41,-220.137 1099,-188 1153.34,-122.322 996.289,-86.3796 919.094,-73.0675"/>
<polygon fill="midnightblue" stroke="midnightblue" points="919.202,-69.537 908.762,-71.3386 918.047,-76.441 919.202,-69.537"/>
</g>
<!-- Node7 -->
<g id="node8" class="node"><title>Node7</title>
<g id="a_node8"><a xlink:title=" ">
<polygon fill="white" stroke="#bfbfbf" points="660,-112.5 660,-131.5 702,-131.5 702,-112.5 660,-112.5"/>
<text text-anchor="middle" x="681" y="-119.5" font-family="Helvetica,sans-Serif" font-size="10.00">vector</text>
</a>
</g>
</g>
<!-- Node2&#45;&gt;Node7 -->
<g id="edge32" class="edge"><title>Node2&#45;&gt;Node7</title>
<path fill="none" stroke="midnightblue" d="M837.906,-227.043C796.35,-216.991 716.823,-196.89 707,-188 693.643,-175.912 687.037,-156.032 683.843,-141.436"/>
<polygon fill="midnightblue" stroke="midnightblue" points="687.269,-140.716 682.009,-131.52 680.386,-141.989 687.269,-140.716"/>
</g>
<!-- Node8 -->
<g id="node9" class="node"><title>Node8</title>
<g id="a_node9"><a xlink:href="ia_string_8h.html" target="_top" xlink:title=" ">
<polygon fill="white" stroke="black" points="532,-168.5 532,-187.5 590,-187.5 590,-168.5 532,-168.5"/>
<text text-anchor="middle" x="561" y="-175.5" font-family="Helvetica,sans-Serif" font-size="10.00">iaString.h</text>
</a>
</g>
</g>
<!-- Node2&#45;&gt;Node8 -->
<g id="edge10" class="edge"><title>Node2&#45;&gt;Node8</title>
<path fill="none" stroke="midnightblue" d="M837.784,-229.25C792.303,-222.368 693.322,-206.858 599.899,-188.076"/>
<polygon fill="midnightblue" stroke="midnightblue" points="600.5,-184.627 590.004,-186.07 599.109,-191.488 600.5,-184.627"/>
</g>
<!-- Node9 -->
<g id="node10" class="node"><title>Node9</title>
<g id="a_node10"><a xlink:title=" ">
<polygon fill="white" stroke="#bfbfbf" points="292,-0.5 292,-19.5 344,-19.5 344,-0.5 292,-0.5"/>
<text text-anchor="middle" x="318" y="-7.5" font-family="Helvetica,sans-Serif" font-size="10.00">ostream</text>
</a>
</g>
</g>
<!-- Node2&#45;&gt;Node9 -->
<g id="edge31" class="edge"><title>Node2&#45;&gt;Node9</title>
<path fill="none" stroke="midnightblue" d="M857.199,-224.15C848.116,-210.778 829.45,-185.168 809,-168 770.579,-135.746 758.17,-129.076 711,-112 624.842,-80.8102 596.723,-98.8977 508,-76 450.917,-61.2678 386.344,-37.637 349.083,-23.2916"/>
<polygon fill="midnightblue" stroke="midnightblue" points="349.916,-19.8605 339.327,-19.5068 347.384,-26.3867 349.916,-19.8605"/>
</g>
<!-- Node2&#45;&gt;Node10 -->
<g id="edge14" class="edge"><title>Node2&#45;&gt;Node10</title>
<path fill="none" stroke="midnightblue" d="M837.703,-229.495C823.671,-227.648 805.894,-225.467 790,-224 533.904,-200.356 464.544,-224.779 205.791,-187.846"/>
<polygon fill="midnightblue" stroke="midnightblue" points="206.112,-184.356 195.715,-186.39 205.112,-191.284 206.112,-184.356"/>
</g>
<!-- Node19 -->
<g id="node20" class="node"><title>Node19</title>
<g id="a_node20"><a xlink:href="ia_i_d_generator_8h.html" target="_top" xlink:title=" ">
<polygon fill="white" stroke="black" points="716,-168.5 716,-187.5 800,-187.5 800,-168.5 716,-168.5"/>
<text text-anchor="middle" x="758" y="-175.5" font-family="Helvetica,sans-Serif" font-size="10.00">iaIDGenerator.h</text>
</a>
</g>
</g>
<!-- Node2&#45;&gt;Node19 -->
<g id="edge28" class="edge"><title>Node2&#45;&gt;Node19</title>
<path fill="none" stroke="midnightblue" d="M846.13,-224.324C829.291,-215.664 803.193,-202.242 783.762,-192.249"/>
<polygon fill="midnightblue" stroke="midnightblue" points="785.322,-189.116 774.828,-187.655 782.12,-195.341 785.322,-189.116"/>
</g>
<!-- Node2&#45;&gt;Node20 -->
<g id="edge33" class="edge"><title>Node2&#45;&gt;Node20</title>
<path fill="none" stroke="midnightblue" d="M837.618,-227.015C796.911,-217.416 716.876,-198.543 670.189,-187.534"/>
<polygon fill="midnightblue" stroke="midnightblue" points="670.736,-184.067 660.199,-185.178 669.129,-190.88 670.736,-184.067"/>
</g>
<!-- Node21 -->
<g id="node22" class="node"><title>Node21</title>
<g id="a_node22"><a xlink:title=" ">
<polygon fill="white" stroke="#bfbfbf" points="1172.5,-168.5 1172.5,-187.5 1207.5,-187.5 1207.5,-168.5 1172.5,-168.5"/>
<text text-anchor="middle" x="1190" y="-175.5" font-family="Helvetica,sans-Serif" font-size="10.00">map</text>
</a>
</g>
</g>
<!-- Node2&#45;&gt;Node21 -->
<g id="edge34" class="edge"><title>Node2&#45;&gt;Node21</title>
<path fill="none" stroke="midnightblue" d="M888.053,-230.232C939.165,-224.353 1059,-209.388 1158,-188 1159.48,-187.68 1160.99,-187.331 1162.52,-186.963"/>
<polygon fill="midnightblue" stroke="midnightblue" points="1163.71,-190.268 1172.49,-184.343 1161.93,-183.498 1163.71,-190.268"/>
</g>
<!-- Node3&#45;&gt;Node4 -->
<g id="edge4" class="edge"><title>Node3&#45;&gt;Node4</title>
<path fill="none" stroke="midnightblue" d="M925.263,-168.324C940.221,-159.822 963.255,-146.729 980.727,-136.797"/>
<polygon fill="midnightblue" stroke="midnightblue" points="982.81,-139.639 989.774,-131.655 979.351,-133.553 982.81,-139.639"/>
</g>
<!-- Node3&#45;&gt;Node6 -->
<g id="edge6" class="edge"><title>Node3&#45;&gt;Node6</title>
<path fill="none" stroke="midnightblue" d="M900.444,-168.45C891.912,-160.12 880.011,-146.604 875,-132 869.84,-116.961 871.556,-98.8311 874.151,-85.5435"/>
<polygon fill="midnightblue" stroke="midnightblue" points="877.585,-86.2241 876.405,-75.6952 870.762,-84.6619 877.585,-86.2241"/>
</g>
<!-- Node3&#45;&gt;Node7 -->
<g id="edge8" class="edge"><title>Node3&#45;&gt;Node7</title>
<path fill="none" stroke="midnightblue" d="M873.714,-168.444C829.069,-157.916 754.034,-140.222 711.975,-130.304"/>
<polygon fill="midnightblue" stroke="midnightblue" points="712.568,-126.848 702.031,-127.959 710.961,-133.661 712.568,-126.848"/>
</g>
<!-- Node5 -->
<g id="node6" class="node"><title>Node5</title>
<g id="a_node6"><a xlink:href="ia_defines_8h.html" target="_top" xlink:title=" ">
<polygon fill="white" stroke="black" points="483.5,-0.5 483.5,-19.5 548.5,-19.5 548.5,-0.5 483.5,-0.5"/>
<text text-anchor="middle" x="516" y="-7.5" font-family="Helvetica,sans-Serif" font-size="10.00">iaDefines.h</text>
</a>
</g>
</g>
<!-- Node4&#45;&gt;Node5 -->
<g id="edge5" class="edge"><title>Node4&#45;&gt;Node5</title>
<path fill="none" stroke="midnightblue" d="M996.707,-112.439C982.118,-97.9849 950.24,-69.0446 917,-56 852.467,-30.6749 648.043,-17.6117 558.599,-12.9874"/>
<polygon fill="midnightblue" stroke="midnightblue" points="558.695,-9.48793 548.531,-12.4776 558.341,-16.479 558.695,-9.48793"/>
</g>
<!-- Node6&#45;&gt;Node5 -->
<g id="edge7" class="edge"><title>Node6&#45;&gt;Node5</title>
<path fill="none" stroke="midnightblue" d="M849.294,-60.581C785.091,-51.0301 633.193,-28.4337 558.697,-17.3516"/>
<polygon fill="midnightblue" stroke="midnightblue" points="559.122,-13.8764 548.716,-15.8669 558.092,-20.8003 559.122,-13.8764"/>
</g>
<!-- Node8&#45;&gt;Node5 -->
<g id="edge11" class="edge"><title>Node8&#45;&gt;Node5</title>
<path fill="none" stroke="midnightblue" d="M572.266,-168.427C581.966,-160.275 595.279,-147.046 601,-132 604.159,-123.691 602.377,-120.782 601,-112 596.951,-86.1724 598.721,-76.8881 583,-56 572.936,-42.6284 557.679,-31.9386 544.265,-24.339"/>
<polygon fill="midnightblue" stroke="midnightblue" points="545.828,-21.2059 535.359,-19.5764 542.527,-27.3786 545.828,-21.2059"/>
</g>
<!-- Node8&#45;&gt;Node7 -->
<g id="edge13" class="edge"><title>Node8&#45;&gt;Node7</title>
<path fill="none" stroke="midnightblue" d="M580.014,-168.444C599.588,-159.636 630.308,-145.812 652.729,-135.722"/>
<polygon fill="midnightblue" stroke="midnightblue" points="654.392,-138.812 662.075,-131.516 651.519,-132.428 654.392,-138.812"/>
</g>
<!-- Node8&#45;&gt;Node9 -->
<g id="edge12" class="edge"><title>Node8&#45;&gt;Node9</title>
<path fill="none" stroke="midnightblue" d="M559.046,-168.157C555.551,-154.326 546.953,-127.55 530,-112 496.419,-81.1975 475.329,-95.1929 434,-76 400.324,-60.3611 363.175,-38.7156 340.209,-24.7843"/>
<polygon fill="midnightblue" stroke="midnightblue" points="341.928,-21.7329 331.571,-19.5013 338.276,-27.7046 341.928,-21.7329"/>
</g>
<!-- Node10&#45;&gt;Node9 -->
<g id="edge24" class="edge"><title>Node10&#45;&gt;Node9</title>
<path fill="none" stroke="midnightblue" d="M177.241,-168.408C209.127,-144.034 297.865,-76.1943 298,-76 307.591,-62.2215 312.698,-43.6968 315.343,-29.9487"/>
<polygon fill="midnightblue" stroke="midnightblue" points="318.854,-30.1695 317.03,-19.7328 311.947,-29.0287 318.854,-30.1695"/>
</g>
<!-- Node11 -->
<g id="node12" class="node"><title>Node11</title>
<g id="a_node12"><a xlink:href="ia_vector4_8h.html" target="_top" xlink:title=" ">
<polygon fill="white" stroke="black" points="133,-112.5 133,-131.5 199,-131.5 199,-112.5 133,-112.5"/>
<text text-anchor="middle" x="166" y="-119.5" font-family="Helvetica,sans-Serif" font-size="10.00">iaVector4.h</text>
</a>
</g>
</g>
<!-- Node10&#45;&gt;Node11 -->
<g id="edge15" class="edge"><title>Node10&#45;&gt;Node11</title>
<path fill="none" stroke="midnightblue" d="M166,-168.083C166,-161.006 166,-150.861 166,-141.986"/>
<polygon fill="midnightblue" stroke="midnightblue" points="169.5,-141.751 166,-131.751 162.5,-141.751 169.5,-141.751"/>
</g>
<!-- Node13 -->
<g id="node14" class="node"><title>Node13</title>
<g id="a_node14"><a xlink:title=" ">
<polygon fill="white" stroke="#bfbfbf" points="0,-0.5 0,-19.5 44,-19.5 44,-0.5 0,-0.5"/>
<text text-anchor="middle" x="22" y="-7.5" font-family="Helvetica,sans-Serif" font-size="10.00">cmath</text>
</a>
</g>
</g>
<!-- Node10&#45;&gt;Node13 -->
<g id="edge23" class="edge"><title>Node10&#45;&gt;Node13</title>
<path fill="none" stroke="midnightblue" d="M136.375,-174.615C107.733,-170.651 65.3426,-160.097 42,-132 17.8212,-102.897 17.573,-55.8942 19.6829,-29.8653"/>
<polygon fill="midnightblue" stroke="midnightblue" points="23.1754,-30.1164 20.7046,-19.8137 16.2112,-29.4085 23.1754,-30.1164"/>
</g>
<!-- Node16 -->
<g id="node17" class="node"><title>Node16</title>
<g id="a_node17"><a xlink:title=" ">
<polygon fill="white" stroke="#bfbfbf" points="293.5,-112.5 293.5,-131.5 342.5,-131.5 342.5,-112.5 293.5,-112.5"/>
<text text-anchor="middle" x="318" y="-119.5" font-family="Helvetica,sans-Serif" font-size="10.00">fstream</text>
</a>
</g>
</g>
<!-- Node10&#45;&gt;Node16 -->
<g id="edge22" class="edge"><title>Node10&#45;&gt;Node16</title>
<path fill="none" stroke="midnightblue" d="M190.085,-168.444C215.545,-159.399 255.894,-145.064 284.459,-134.916"/>
<polygon fill="midnightblue" stroke="midnightblue" points="285.777,-138.162 294.028,-131.516 283.433,-131.566 285.777,-138.162"/>
</g>
<!-- Node17 -->
<g id="node18" class="node"><title>Node17</title>
<g id="a_node18"><a xlink:title=" ">
<polygon fill="white" stroke="#bfbfbf" points="399,-112.5 399,-131.5 449,-131.5 449,-112.5 399,-112.5"/>
<text text-anchor="middle" x="424" y="-119.5" font-family="Helvetica,sans-Serif" font-size="10.00">iomanip</text>
</a>
</g>
</g>
<!-- Node10&#45;&gt;Node17 -->
<g id="edge25" class="edge"><title>Node10&#45;&gt;Node17</title>
<path fill="none" stroke="midnightblue" d="M195.794,-170.047C198.9,-169.345 202.013,-168.651 205,-168 269.815,-153.864 345.697,-138.546 388.98,-129.925"/>
<polygon fill="midnightblue" stroke="midnightblue" points="389.872,-133.316 398.998,-127.933 388.507,-126.451 389.872,-133.316"/>
</g>
<!-- Node18 -->
<g id="node19" class="node"><title>Node18</title>
<g id="a_node19"><a xlink:href="ia_matrix_8inl.html" target="_top" xlink:title=" ">
<polygon fill="white" stroke="black" points="51,-112.5 51,-131.5 115,-131.5 115,-112.5 51,-112.5"/>
<text text-anchor="middle" x="83" y="-119.5" font-family="Helvetica,sans-Serif" font-size="10.00">iaMatrix.inl</text>
</a>
</g>
</g>
<!-- Node10&#45;&gt;Node18 -->
<g id="edge26" class="edge"><title>Node10&#45;&gt;Node18</title>
<path fill="none" stroke="midnightblue" d="M152.665,-168.324C139.838,-159.979 120.215,-147.212 105.06,-137.352"/>
<polygon fill="midnightblue" stroke="midnightblue" points="106.593,-134.174 96.3023,-131.655 102.776,-140.042 106.593,-134.174"/>
</g>
<!-- Node12 -->
<g id="node13" class="node"><title>Node12</title>
<g id="a_node13"><a xlink:href="ia_vector3_8h.html" target="_top" xlink:title=" ">
<polygon fill="white" stroke="black" points="134,-56.5 134,-75.5 200,-75.5 200,-56.5 134,-56.5"/>
<text text-anchor="middle" x="167" y="-63.5" font-family="Helvetica,sans-Serif" font-size="10.00">iaVector3.h</text>
</a>
</g>
</g>
<!-- Node11&#45;&gt;Node12 -->
<g id="edge16" class="edge"><title>Node11&#45;&gt;Node12</title>
<path fill="none" stroke="midnightblue" d="M166.165,-112.083C166.296,-105.006 166.484,-94.8611 166.648,-85.9865"/>
<polygon fill="midnightblue" stroke="midnightblue" points="170.152,-85.8142 166.838,-75.7511 163.153,-85.6845 170.152,-85.8142"/>
</g>
<!-- Node15 -->
<g id="node16" class="node"><title>Node15</title>
<g id="a_node16"><a xlink:href="ia_vector4_8inl.html" target="_top" xlink:title=" ">
<polygon fill="white" stroke="black" points="218.5,-56.5 218.5,-75.5 289.5,-75.5 289.5,-56.5 218.5,-56.5"/>
<text text-anchor="middle" x="254" y="-63.5" font-family="Helvetica,sans-Serif" font-size="10.00">iaVector4.inl</text>
</a>
</g>
</g>
<!-- Node11&#45;&gt;Node15 -->
<g id="edge21" class="edge"><title>Node11&#45;&gt;Node15</title>
<path fill="none" stroke="midnightblue" d="M180.139,-112.324C193.866,-103.9 214.936,-90.9709 231.064,-81.0741"/>
<polygon fill="midnightblue" stroke="midnightblue" points="233.204,-83.8678 239.896,-75.6545 229.543,-77.9016 233.204,-83.8678"/>
</g>
<!-- Node12&#45;&gt;Node5 -->
<g id="edge17" class="edge"><title>Node12&#45;&gt;Node5</title>
<path fill="none" stroke="midnightblue" d="M200.432,-57.6295C203.325,-57.0544 206.211,-56.5026 209,-56 302.771,-39.0994 413.522,-24.0706 473.023,-16.3952"/>
<polygon fill="midnightblue" stroke="midnightblue" points="473.699,-19.8374 483.172,-15.0934 472.808,-12.8942 473.699,-19.8374"/>
</g>
<!-- Node12&#45;&gt;Node9 -->
<g id="edge19" class="edge"><title>Node12&#45;&gt;Node9</title>
<path fill="none" stroke="midnightblue" d="M190.926,-56.4435C216.219,-47.3986 256.302,-33.064 284.68,-22.9158"/>
<polygon fill="midnightblue" stroke="midnightblue" points="285.948,-26.1794 294.186,-19.5164 283.591,-19.5882 285.948,-26.1794"/>
</g>
<!-- Node12&#45;&gt;Node13 -->
<g id="edge18" class="edge"><title>Node12&#45;&gt;Node13</title>
<path fill="none" stroke="midnightblue" d="M144.024,-56.4435C119.701,-47.3851 81.1313,-33.0213 53.8745,-22.8705"/>
<polygon fill="midnightblue" stroke="midnightblue" points="54.9845,-19.5491 44.3917,-19.339 52.5415,-26.109 54.9845,-19.5491"/>
</g>
<!-- Node14 -->
<g id="node15" class="node"><title>Node14</title>
<g id="a_node15"><a xlink:href="ia_vector3_8inl.html" target="_top" xlink:title=" ">
<polygon fill="white" stroke="black" points="151.5,-0.5 151.5,-19.5 222.5,-19.5 222.5,-0.5 151.5,-0.5"/>
<text text-anchor="middle" x="187" y="-7.5" font-family="Helvetica,sans-Serif" font-size="10.00">iaVector3.inl</text>
</a>
</g>
</g>
<!-- Node12&#45;&gt;Node14 -->
<g id="edge20" class="edge"><title>Node12&#45;&gt;Node14</title>
<path fill="none" stroke="midnightblue" d="M170.303,-56.083C172.982,-48.8486 176.849,-38.4087 180.186,-29.3968"/>
<polygon fill="midnightblue" stroke="midnightblue" points="183.568,-30.3442 183.759,-19.7511 177.004,-27.9129 183.568,-30.3442"/>
</g>
<!-- Node19&#45;&gt;Node6 -->
<g id="edge29" class="edge"><title>Node19&#45;&gt;Node6</title>
<path fill="none" stroke="midnightblue" d="M767.495,-168.368C787.905,-149.814 836.196,-105.913 862.019,-82.4376"/>
<polygon fill="midnightblue" stroke="midnightblue" points="864.504,-84.908 869.549,-75.5914 859.796,-79.7284 864.504,-84.908"/>
</g>
<!-- Node19&#45;&gt;Node7 -->
<g id="edge30" class="edge"><title>Node19&#45;&gt;Node7</title>
<path fill="none" stroke="midnightblue" d="M745.629,-168.324C733.842,-160.058 715.868,-147.453 701.864,-137.632"/>
<polygon fill="midnightblue" stroke="midnightblue" points="703.538,-134.531 693.341,-131.655 699.518,-140.262 703.538,-134.531"/>
</g>
<!-- Node22&#45;&gt;Node7 -->
<g id="edge66" class="edge"><title>Node22&#45;&gt;Node7</title>
<path fill="none" stroke="midnightblue" d="M536.731,-280.336C524.447,-258.901 496.863,-202.621 523,-168 538.248,-147.802 608.281,-133.983 649.817,-127.405"/>
<polygon fill="midnightblue" stroke="midnightblue" points="650.357,-130.863 659.712,-125.889 649.297,-123.943 650.357,-130.863"/>
</g>
<!-- Node22&#45;&gt;Node8 -->
<g id="edge37" class="edge"><title>Node22&#45;&gt;Node8</title>
<path fill="none" stroke="midnightblue" d="M543.491,-280.368C546.557,-262.617 553.63,-221.666 557.788,-197.597"/>
<polygon fill="midnightblue" stroke="midnightblue" points="561.263,-198.041 559.516,-187.591 554.365,-196.85 561.263,-198.041"/>
</g>
<!-- Node22&#45;&gt;Node19 -->
<g id="edge38" class="edge"><title>Node22&#45;&gt;Node19</title>
<path fill="none" stroke="midnightblue" d="M558.949,-280.368C596.567,-261.211 687.239,-215.036 732.046,-192.217"/>
<polygon fill="midnightblue" stroke="midnightblue" points="733.807,-195.248 741.13,-187.591 730.63,-189.011 733.807,-195.248"/>
</g>
<!-- Node22&#45;&gt;Node20 -->
<g id="edge67" class="edge"><title>Node22&#45;&gt;Node20</title>
<path fill="none" stroke="midnightblue" d="M549.219,-280.368C564.536,-262.055 600.505,-219.049 620.315,-195.362"/>
<polygon fill="midnightblue" stroke="midnightblue" points="623.084,-197.508 626.814,-187.591 617.714,-193.017 623.084,-197.508"/>
</g>
<!-- Node23 -->
<g id="node24" class="node"><title>Node23</title>
<g id="a_node24"><a xlink:href="i_render_state_set_8h.html" target="_top" xlink:title=" ">
<polygon fill="white" stroke="black" points="380,-224.5 380,-243.5 476,-243.5 476,-224.5 380,-224.5"/>
<text text-anchor="middle" x="428" y="-231.5" font-family="Helvetica,sans-Serif" font-size="10.00">iRenderStateSet.h</text>
</a>
</g>
</g>
<!-- Node22&#45;&gt;Node23 -->
<g id="edge39" class="edge"><title>Node22&#45;&gt;Node23</title>
<path fill="none" stroke="midnightblue" d="M523.936,-280.444C505.425,-271.675 476.419,-257.935 455.145,-247.858"/>
<polygon fill="midnightblue" stroke="midnightblue" points="456.515,-244.634 445.979,-243.516 453.518,-250.96 456.515,-244.634"/>
</g>
<!-- Node28 -->
<g id="node29" class="node"><title>Node28</title>
<g id="a_node29"><a xlink:href="i_shader_8h.html" target="_top" xlink:title=" ">
<polygon fill="white" stroke="black" points="254,-224.5 254,-243.5 312,-243.5 312,-224.5 254,-224.5"/>
<text text-anchor="middle" x="283" y="-231.5" font-family="Helvetica,sans-Serif" font-size="10.00">iShader.h</text>
</a>
</g>
</g>
<!-- Node22&#45;&gt;Node28 -->
<g id="edge49" class="edge"><title>Node22&#45;&gt;Node28</title>
<path fill="none" stroke="midnightblue" d="M510.759,-282.486C463.557,-272.645 374.105,-253.995 322.465,-243.228"/>
<polygon fill="midnightblue" stroke="midnightblue" points="322.861,-239.736 312.357,-241.121 321.432,-246.588 322.861,-239.736"/>
</g>
<!-- Node23&#45;&gt;Node4 -->
<g id="edge40" class="edge"><title>Node23&#45;&gt;Node4</title>
<path fill="none" stroke="midnightblue" d="M476.141,-231.678C601.536,-227.864 931.347,-215.324 972,-188 987.89,-177.32 996.524,-156.564 1000.93,-141.37"/>
<polygon fill="midnightblue" stroke="midnightblue" points="1004.36,-142.067 1003.43,-131.513 997.578,-140.344 1004.36,-142.067"/>
</g>
<!-- Node24 -->
<g id="node25" class="node"><title>Node24</title>
<g id="a_node25"><a xlink:href="ia_console_8h.html" target="_top" xlink:title=" ">
<polygon fill="white" stroke="black" points="370,-168.5 370,-187.5 438,-187.5 438,-168.5 370,-168.5"/>
<text text-anchor="middle" x="404" y="-175.5" font-family="Helvetica,sans-Serif" font-size="10.00">iaConsole.h</text>
</a>
</g>
</g>
<!-- Node23&#45;&gt;Node24 -->
<g id="edge41" class="edge"><title>Node23&#45;&gt;Node24</title>
<path fill="none" stroke="midnightblue" d="M424.037,-224.083C420.787,-216.77 416.081,-206.181 412.046,-197.103"/>
<polygon fill="midnightblue" stroke="midnightblue" points="415.149,-195.468 407.889,-187.751 408.752,-198.311 415.149,-195.468"/>
</g>
<!-- Node24&#45;&gt;Node16 -->
<g id="edge46" class="edge"><title>Node24&#45;&gt;Node16</title>
<path fill="none" stroke="midnightblue" d="M390.183,-168.324C376.767,-159.9 356.176,-146.971 340.414,-137.074"/>
<polygon fill="midnightblue" stroke="midnightblue" points="342.113,-134.008 331.783,-131.655 338.391,-139.936 342.113,-134.008"/>
</g>
<!-- Node24&#45;&gt;Node17 -->
<g id="edge48" class="edge"><title>Node24&#45;&gt;Node17</title>
<path fill="none" stroke="midnightblue" d="M407.303,-168.083C409.982,-160.849 413.849,-150.409 417.186,-141.397"/>
<polygon fill="midnightblue" stroke="midnightblue" points="420.568,-142.344 420.759,-131.751 414.004,-139.913 420.568,-142.344"/>
</g>
<!-- Node25 -->
<g id="node26" class="node"><title>Node25</title>
<g id="a_node26"><a xlink:href="ia_singleton_8h.html" target="_top" xlink:title=" ">
<polygon fill="white" stroke="black" points="884.5,-112.5 884.5,-131.5 957.5,-131.5 957.5,-112.5 884.5,-112.5"/>
<text text-anchor="middle" x="921" y="-119.5" font-family="Helvetica,sans-Serif" font-size="10.00">iaSingleton.h</text>
</a>
</g>
</g>
<!-- Node24&#45;&gt;Node25 -->
<g id="edge42" class="edge"><title>Node24&#45;&gt;Node25</title>
<path fill="none" stroke="midnightblue" d="M438.322,-173.415C528.372,-164.009 771.524,-138.613 874.216,-127.887"/>
<polygon fill="midnightblue" stroke="midnightblue" points="874.705,-131.355 884.287,-126.835 873.978,-124.392 874.705,-131.355"/>
</g>
<!-- Node26 -->
<g id="node27" class="node"><title>Node26</title>
<g id="a_node27"><a xlink:href="ia_clock_8h.html" target="_top" xlink:title=" ">
<polygon fill="white" stroke="black" points="517.5,-56.5 517.5,-75.5 574.5,-75.5 574.5,-56.5 517.5,-56.5"/>
<text text-anchor="middle" x="546" y="-63.5" font-family="Helvetica,sans-Serif" font-size="10.00">iaClock.h</text>
</a>
</g>
</g>
<!-- Node24&#45;&gt;Node26 -->
<g id="edge44" class="edge"><title>Node24&#45;&gt;Node26</title>
<path fill="none" stroke="midnightblue" d="M438.305,-168.661C471.151,-160.009 517.506,-145.834 530,-132 541.309,-119.478 544.937,-100.253 545.959,-85.9547"/>
<polygon fill="midnightblue" stroke="midnightblue" points="549.463,-85.8834 546.316,-75.7668 542.468,-85.6379 549.463,-85.8834"/>
</g>
<!-- Node27 -->
<g id="node28" class="node"><title>Node27</title>
<g id="a_node28"><a xlink:title=" ">
<polygon fill="white" stroke="#bfbfbf" points="467,-112.5 467,-131.5 521,-131.5 521,-112.5 467,-112.5"/>
<text text-anchor="middle" x="494" y="-119.5" font-family="Helvetica,sans-Serif" font-size="10.00">iostream</text>
</a>
</g>
</g>
<!-- Node24&#45;&gt;Node27 -->
<g id="edge47" class="edge"><title>Node24&#45;&gt;Node27</title>
<path fill="none" stroke="midnightblue" d="M418.46,-168.324C432.5,-159.9 454.048,-146.971 470.543,-137.074"/>
<polygon fill="midnightblue" stroke="midnightblue" points="472.802,-139.801 479.576,-131.655 469.2,-133.798 472.802,-139.801"/>
</g>
<!-- Node25&#45;&gt;Node6 -->
<g id="edge43" class="edge"><title>Node25&#45;&gt;Node6</title>
<path fill="none" stroke="midnightblue" d="M914.065,-112.083C908.071,-104.377 899.248,-93.0333 891.952,-83.6531"/>
<polygon fill="midnightblue" stroke="midnightblue" points="894.709,-81.4958 885.806,-75.7511 889.183,-85.7934 894.709,-81.4958"/>
</g>
<!-- Node26&#45;&gt;Node5 -->
<g id="edge45" class="edge"><title>Node26&#45;&gt;Node5</title>
<path fill="none" stroke="midnightblue" d="M541.046,-56.083C536.896,-48.6127 530.847,-37.7244 525.733,-28.5199"/>
<polygon fill="midnightblue" stroke="midnightblue" points="528.778,-26.7929 520.862,-19.7511 522.659,-30.1924 528.778,-26.7929"/>
</g>
<!-- Node28&#45;&gt;Node7 -->
<g id="edge65" class="edge"><title>Node28&#45;&gt;Node7</title>
<path fill="none" stroke="midnightblue" d="M312.197,-226.553C345.357,-218.873 400.848,-204.929 447,-188 466.788,-180.741 470.083,-174.897 490,-168 545.026,-148.945 611.722,-135.274 649.972,-128.292"/>
<polygon fill="midnightblue" stroke="midnightblue" points="650.746,-131.71 659.973,-126.502 649.513,-124.819 650.746,-131.71"/>
</g>
<!-- Node28&#45;&gt;Node8 -->
<g id="edge64" class="edge"><title>Node28&#45;&gt;Node8</title>
<path fill="none" stroke="midnightblue" d="M312.225,-227.323C362.489,-217.56 465.332,-197.583 521.773,-186.62"/>
<polygon fill="midnightblue" stroke="midnightblue" points="522.6,-190.025 531.749,-184.682 521.265,-183.153 522.6,-190.025"/>
</g>
<!-- Node28&#45;&gt;Node10 -->
<g id="edge50" class="edge"><title>Node28&#45;&gt;Node10</title>
<path fill="none" stroke="midnightblue" d="M264.461,-224.444C245.377,-215.636 215.425,-201.812 193.564,-191.722"/>
<polygon fill="midnightblue" stroke="midnightblue" points="194.999,-188.529 184.452,-187.516 192.065,-194.885 194.999,-188.529"/>
</g>
<!-- Node28&#45;&gt;Node12 -->
<g id="edge56" class="edge"><title>Node28&#45;&gt;Node12</title>
<path fill="none" stroke="midnightblue" d="M253.942,-231.665C199.416,-227.345 83.5244,-209.083 42,-132 37.7844,-124.174 36.8888,-119.272 42,-112 51.7534,-98.1226 91.5613,-85.3371 123.669,-76.9697"/>
<polygon fill="midnightblue" stroke="midnightblue" points="124.939,-80.2587 133.775,-74.4125 123.222,-73.4725 124.939,-80.2587"/>
</g>
<!-- Node29 -->
<g id="node30" class="node"><title>Node29</title>
<g id="a_node30"><a xlink:href="ia_vector2_8h.html" target="_top" xlink:title=" ">
<polygon fill="white" stroke="black" points="50,-56.5 50,-75.5 116,-75.5 116,-56.5 50,-56.5"/>
<text text-anchor="middle" x="83" y="-63.5" font-family="Helvetica,sans-Serif" font-size="10.00">iaVector2.h</text>
</a>
</g>
</g>
<!-- Node28&#45;&gt;Node29 -->
<g id="edge51" class="edge"><title>Node28&#45;&gt;Node29</title>
<path fill="none" stroke="midnightblue" d="M253.829,-233.904C209.762,-233.831 125.389,-227.934 69,-188 38.8019,-166.614 20.2899,-145.954 35,-112 40.2681,-99.8399 50.6195,-89.4594 60.3648,-81.7429"/>
<polygon fill="midnightblue" stroke="midnightblue" points="62.644,-84.4116 68.6299,-75.6698 58.499,-78.7707 62.644,-84.4116"/>
</g>
<!-- Node31 -->
<g id="node32" class="node"><title>Node31</title>
<g id="a_node32"><a xlink:href="ia_color3_8h.html" target="_top" xlink:title=" ">
<polygon fill="white" stroke="black" points="292,-168.5 292,-187.5 352,-187.5 352,-168.5 292,-168.5"/>
<text text-anchor="middle" x="322" y="-175.5" font-family="Helvetica,sans-Serif" font-size="10.00">iaColor3.h</text>
</a>
</g>
</g>
<!-- Node28&#45;&gt;Node31 -->
<g id="edge57" class="edge"><title>Node28&#45;&gt;Node31</title>
<path fill="none" stroke="midnightblue" d="M289.44,-224.083C294.949,-216.455 303.031,-205.264 309.765,-195.941"/>
<polygon fill="midnightblue" stroke="midnightblue" points="312.662,-197.907 315.68,-187.751 306.987,-193.809 312.662,-197.907"/>
</g>
<!-- Node32 -->
<g id="node33" class="node"><title>Node32</title>
<g id="a_node33"><a xlink:href="ia_color4_8h.html" target="_top" xlink:title=" ">
<polygon fill="white" stroke="black" points="214,-168.5 214,-187.5 274,-187.5 274,-168.5 214,-168.5"/>
<text text-anchor="middle" x="244" y="-175.5" font-family="Helvetica,sans-Serif" font-size="10.00">iaColor4.h</text>
</a>
</g>
</g>
<!-- Node28&#45;&gt;Node32 -->
<g id="edge61" class="edge"><title>Node28&#45;&gt;Node32</title>
<path fill="none" stroke="midnightblue" d="M276.56,-224.083C271.051,-216.455 262.969,-205.264 256.235,-195.941"/>
<polygon fill="midnightblue" stroke="midnightblue" points="259.013,-193.809 250.32,-187.751 253.338,-197.907 259.013,-193.809"/>
</g>
<!-- Node29&#45;&gt;Node5 -->
<g id="edge52" class="edge"><title>Node29&#45;&gt;Node5</title>
<path fill="none" stroke="midnightblue" d="M116.415,-57.5355C119.312,-56.9807 122.204,-56.4594 125,-56 250.96,-35.3055 401.298,-20.8509 473.36,-14.5493"/>
<polygon fill="midnightblue" stroke="midnightblue" points="473.751,-18.0287 483.412,-13.679 473.147,-11.0547 473.751,-18.0287"/>
</g>
<!-- Node29&#45;&gt;Node9 -->
<g id="edge54" class="edge"><title>Node29&#45;&gt;Node9</title>
<path fill="none" stroke="midnightblue" d="M116.171,-57.3776C159.953,-47.3172 236.748,-29.6706 281.932,-19.2879"/>
<polygon fill="midnightblue" stroke="midnightblue" points="282.923,-22.6516 291.885,-17.0009 281.355,-15.8294 282.923,-22.6516"/>
</g>
<!-- Node29&#45;&gt;Node13 -->
<g id="edge53" class="edge"><title>Node29&#45;&gt;Node13</title>
<path fill="none" stroke="midnightblue" d="M73.1993,-56.324C64.1819,-48.3414 50.594,-36.3128 39.682,-26.6529"/>
<polygon fill="midnightblue" stroke="midnightblue" points="41.7866,-23.8416 31.979,-19.8339 37.1467,-29.083 41.7866,-23.8416"/>
</g>
<!-- Node30 -->
<g id="node31" class="node"><title>Node30</title>
<g id="a_node31"><a xlink:href="ia_vector2_8inl.html" target="_top" xlink:title=" ">
<polygon fill="white" stroke="black" points="62.5,-0.5 62.5,-19.5 133.5,-19.5 133.5,-0.5 62.5,-0.5"/>
<text text-anchor="middle" x="98" y="-7.5" font-family="Helvetica,sans-Serif" font-size="10.00">iaVector2.inl</text>
</a>
</g>
</g>
<!-- Node29&#45;&gt;Node30 -->
<g id="edge55" class="edge"><title>Node29&#45;&gt;Node30</title>
<path fill="none" stroke="midnightblue" d="M85.4769,-56.083C87.4865,-48.8486 90.3865,-38.4087 92.8898,-29.3968"/>
<polygon fill="midnightblue" stroke="midnightblue" points="96.2649,-30.323 95.5691,-19.7511 89.5203,-28.4495 96.2649,-30.323"/>
</g>
<!-- Node31&#45;&gt;Node5 -->
<g id="edge58" class="edge"><title>Node31&#45;&gt;Node5</title>
<path fill="none" stroke="midnightblue" d="M330.574,-168.336C343.251,-155.635 367.885,-131.368 390,-112 426.6,-79.9459 471.48,-44.9373 496.595,-25.7097"/>
<polygon fill="midnightblue" stroke="midnightblue" points="498.78,-28.4451 504.608,-19.5975 494.534,-22.8794 498.78,-28.4451"/>
</g>
<!-- Node31&#45;&gt;Node16 -->
<g id="edge59" class="edge"><title>Node31&#45;&gt;Node16</title>
<path fill="none" stroke="midnightblue" d="M321.339,-168.083C320.815,-161.006 320.064,-150.861 319.406,-141.986"/>
<polygon fill="midnightblue" stroke="midnightblue" points="322.877,-141.465 318.648,-131.751 315.897,-141.982 322.877,-141.465"/>
</g>
<!-- Node31&#45;&gt;Node27 -->
<g id="edge60" class="edge"><title>Node31&#45;&gt;Node27</title>
<path fill="none" stroke="midnightblue" d="M349.254,-168.444C378.441,-159.28 424.921,-144.688 457.309,-134.519"/>
<polygon fill="midnightblue" stroke="midnightblue" points="458.381,-137.851 466.874,-131.516 456.284,-131.173 458.381,-137.851"/>
</g>
<!-- Node32&#45;&gt;Node5 -->
<g id="edge62" class="edge"><title>Node32&#45;&gt;Node5</title>
<path fill="none" stroke="midnightblue" d="M247.343,-168.26C252.979,-154.569 265.588,-127.982 284,-112 340.175,-63.2379 423.542,-34.7937 473.55,-21.1233"/>
<polygon fill="midnightblue" stroke="midnightblue" points="474.626,-24.4588 483.391,-18.5064 472.827,-17.6939 474.626,-24.4588"/>
</g>
<!-- Node32&#45;&gt;Node16 -->
<g id="edge63" class="edge"><title>Node32&#45;&gt;Node16</title>
<path fill="none" stroke="midnightblue" d="M255.889,-168.324C267.15,-160.107 284.287,-147.602 297.709,-137.807"/>
<polygon fill="midnightblue" stroke="midnightblue" points="299.88,-140.556 305.894,-131.834 295.753,-134.901 299.88,-140.556"/>
</g>
<!-- Node33&#45;&gt;Node6 -->
<g id="edge76" class="edge"><title>Node33&#45;&gt;Node6</title>
<path fill="none" stroke="midnightblue" d="M1028.01,-282.975C1119,-271.916 1265.11,-242.266 1217,-168 1184.11,-117.227 1000.7,-84.6704 918.67,-72.4507"/>
<polygon fill="midnightblue" stroke="midnightblue" points="919.121,-68.9795 908.72,-70.9945 918.107,-75.9058 919.121,-68.9795"/>
</g>
<!-- Node33&#45;&gt;Node8 -->
<g id="edge75" class="edge"><title>Node33&#45;&gt;Node8</title>
<path fill="none" stroke="midnightblue" d="M893.991,-280.996C843.535,-273.975 773.034,-262.033 713,-244 667.313,-230.277 616.878,-206.973 587.118,-192.315"/>
<polygon fill="midnightblue" stroke="midnightblue" points="588.367,-189.027 577.856,-187.701 585.246,-195.293 588.367,-189.027"/>
</g>
<!-- Node33&#45;&gt;Node20 -->
<g id="edge79" class="edge"><title>Node33&#45;&gt;Node20</title>
<path fill="none" stroke="midnightblue" d="M931.967,-280.437C904.916,-272.147 863.66,-258.703 829,-244 811.067,-236.393 808.109,-231.177 790,-224 749.921,-208.115 702.049,-195.149 670.001,-187.283"/>
<polygon fill="midnightblue" stroke="midnightblue" points="670.725,-183.857 660.182,-184.911 669.081,-190.662 670.725,-183.857"/>
</g>
<!-- Node33&#45;&gt;Node21 -->
<g id="edge78" class="edge"><title>Node33&#45;&gt;Node21</title>
<path fill="none" stroke="midnightblue" d="M995.344,-280.457C1023.28,-272.83 1063.29,-260.343 1096,-244 1124.07,-229.977 1153.32,-208.478 1171.59,-194.089"/>
<polygon fill="midnightblue" stroke="midnightblue" points="1174.01,-196.642 1179.63,-187.66 1169.63,-191.176 1174.01,-196.642"/>
</g>
<!-- Node33&#45;&gt;Node25 -->
<g id="edge74" class="edge"><title>Node33&#45;&gt;Node25</title>
<path fill="none" stroke="midnightblue" d="M964.601,-280.304C972.545,-259.722 989.526,-206.838 972,-168 966.384,-155.555 955.437,-145.172 945.121,-137.527"/>
<polygon fill="midnightblue" stroke="midnightblue" points="946.958,-134.543 936.734,-131.764 942.994,-140.312 946.958,-134.543"/>
</g>
<!-- Node34 -->
<g id="node35" class="node"><title>Node34</title>
<g id="a_node35"><a xlink:href="i_texture_8h.html" target="_top" xlink:title=" ">
<polygon fill="white" stroke="black" points="722.5,-224.5 722.5,-243.5 781.5,-243.5 781.5,-224.5 722.5,-224.5"/>
<text text-anchor="middle" x="752" y="-231.5" font-family="Helvetica,sans-Serif" font-size="10.00">iTexture.h</text>
</a>
</g>
</g>
<!-- Node33&#45;&gt;Node34 -->
<g id="edge70" class="edge"><title>Node33&#45;&gt;Node34</title>
<path fill="none" stroke="midnightblue" d="M927.883,-280.444C890.824,-270.868 830.82,-255.365 791.385,-245.176"/>
<polygon fill="midnightblue" stroke="midnightblue" points="792.14,-241.756 781.583,-242.643 790.389,-248.534 792.14,-241.756"/>
</g>
<!-- Node35 -->
<g id="node36" class="node"><title>Node35</title>
<g id="a_node36"><a xlink:title=" ">
<polygon fill="white" stroke="#bfbfbf" points="1058.5,-224.5 1058.5,-243.5 1087.5,-243.5 1087.5,-224.5 1058.5,-224.5"/>
<text text-anchor="middle" x="1073" y="-231.5" font-family="Helvetica,sans-Serif" font-size="10.00">list</text>
</a>
</g>
</g>
<!-- Node33&#45;&gt;Node35 -->
<g id="edge77" class="edge"><title>Node33&#45;&gt;Node35</title>
<path fill="none" stroke="midnightblue" d="M978.995,-280.324C997.999,-271.161 1028.06,-256.668 1049.05,-246.545"/>
<polygon fill="midnightblue" stroke="midnightblue" points="1050.78,-249.599 1058.27,-242.103 1047.74,-243.293 1050.78,-249.599"/>
</g>
<!-- Node34&#45;&gt;Node4 -->
<g id="edge72" class="edge"><title>Node34&#45;&gt;Node4</title>
<path fill="none" stroke="midnightblue" d="M781.622,-228.785C847.068,-219.333 998.789,-196.601 1006,-188 1016.63,-175.319 1014.76,-155.841 1011.21,-141.512"/>
<polygon fill="midnightblue" stroke="midnightblue" points="1014.53,-140.371 1008.36,-131.756 1007.81,-142.337 1014.53,-140.371"/>
</g>
<!-- Node34&#45;&gt;Node8 -->
<g id="edge71" class="edge"><title>Node34&#45;&gt;Node8</title>
<path fill="none" stroke="midnightblue" d="M722.156,-224.563C689.166,-215.235 635.914,-200.18 599.731,-189.95"/>
<polygon fill="midnightblue" stroke="midnightblue" points="600.584,-186.554 590.009,-187.201 598.679,-193.29 600.584,-186.554"/>
</g>
<!-- Node34&#45;&gt;Node20 -->
<g id="edge73" class="edge"><title>Node34&#45;&gt;Node20</title>
<path fill="none" stroke="midnightblue" d="M733.303,-224.444C714.056,-215.636 683.848,-201.812 661.8,-191.722"/>
<polygon fill="midnightblue" stroke="midnightblue" points="663.16,-188.495 652.61,-187.516 660.247,-194.86 663.16,-188.495"/>
</g>
</g>
</svg>
