<?xml version="1.0" encoding="UTF-8" standalone="no"?>
<!DOCTYPE svg PUBLIC "-//W3C//DTD SVG 1.1//EN"
 "http://www.w3.org/Graphics/SVG/1.1/DTD/svg11.dtd">
<!-- Generated by graphviz version 2.38.0 (20140413.2041)
 -->
<!-- Title: C:/dev/Igor/Igor/src/Igor/src/iNodeSwitch.h Pages: 1 -->
<svg width="1020pt" height="375pt"
 viewBox="0.00 0.00 1020.11 375.00" xmlns="http://www.w3.org/2000/svg" xmlns:xlink="http://www.w3.org/1999/xlink">
<g id="graph0" class="graph" transform="scale(1 1) rotate(0) translate(4 371)">
<title>C:/dev/Igor/Igor/src/Igor/src/iNodeSwitch.h</title>
<polygon fill="white" stroke="none" points="-4,4 -4,-371 1016.11,-371 1016.11,4 -4,4"/>
<!-- Node0 -->
<g id="node1" class="node"><title>Node0</title>
<g id="a_node1"><a xlink:title=" ">
<polygon fill="#bfbfbf" stroke="black" points="871.108,-336.5 871.108,-366.5 988.108,-366.5 988.108,-336.5 871.108,-336.5"/>
<text text-anchor="start" x="879.108" y="-354.5" font-family="Helvetica,sans-Serif" font-size="10.00">C:/dev/Igor/Igor/src</text>
<text text-anchor="middle" x="929.608" y="-343.5" font-family="Helvetica,sans-Serif" font-size="10.00">/Igor/src/iNodeSwitch.h</text>
</a>
</g>
</g>
<!-- Node1 -->
<g id="node2" class="node"><title>Node1</title>
<g id="a_node2"><a xlink:href="i_node_8h.html" target="_top" xlink:title=" ">
<polygon fill="white" stroke="black" points="450.608,-280.5 450.608,-299.5 500.608,-299.5 500.608,-280.5 450.608,-280.5"/>
<text text-anchor="middle" x="475.608" y="-287.5" font-family="Helvetica,sans-Serif" font-size="10.00">iNode.h</text>
</a>
</g>
</g>
<!-- Node0&#45;&gt;Node1 -->
<g id="edge1" class="edge"><title>Node0&#45;&gt;Node1</title>
<path fill="none" stroke="midnightblue" d="M870.721,-342.782C775.052,-330.244 588.75,-305.828 511.01,-295.64"/>
<polygon fill="midnightblue" stroke="midnightblue" points="511.152,-292.128 500.782,-294.299 510.242,-299.069 511.152,-292.128"/>
</g>
<!-- Node15 -->
<g id="node16" class="node"><title>Node15</title>
<g id="a_node16"><a xlink:href="ia_string_8h.html" target="_top" xlink:title=" ">
<polygon fill="white" stroke="black" points="900.608,-224.5 900.608,-243.5 958.608,-243.5 958.608,-224.5 900.608,-224.5"/>
<text text-anchor="middle" x="929.608" y="-231.5" font-family="Helvetica,sans-Serif" font-size="10.00">iaString.h</text>
</a>
</g>
</g>
<!-- Node0&#45;&gt;Node15 -->
<g id="edge49" class="edge"><title>Node0&#45;&gt;Node15</title>
<path fill="none" stroke="midnightblue" d="M929.608,-336.337C929.608,-315.622 929.608,-277.016 929.608,-253.899"/>
<polygon fill="midnightblue" stroke="midnightblue" points="933.108,-253.669 929.608,-243.669 926.108,-253.669 933.108,-253.669"/>
</g>
<!-- Node28 -->
<g id="node29" class="node"><title>Node28</title>
<g id="a_node29"><a xlink:title=" ">
<polygon fill="white" stroke="#bfbfbf" points="977.108,-224.5 977.108,-243.5 1012.11,-243.5 1012.11,-224.5 977.108,-224.5"/>
<text text-anchor="middle" x="994.608" y="-231.5" font-family="Helvetica,sans-Serif" font-size="10.00">map</text>
</a>
</g>
</g>
<!-- Node0&#45;&gt;Node28 -->
<g id="edge50" class="edge"><title>Node0&#45;&gt;Node28</title>
<path fill="none" stroke="midnightblue" d="M937.578,-336.337C949.449,-315.243 971.759,-275.6 984.676,-252.648"/>
<polygon fill="midnightblue" stroke="midnightblue" points="987.875,-254.101 989.729,-243.669 981.774,-250.668 987.875,-254.101"/>
</g>
<!-- Node2 -->
<g id="node3" class="node"><title>Node2</title>
<g id="a_node3"><a xlink:href="i_data_update_queue_8h.html" target="_top" xlink:title=" ">
<polygon fill="white" stroke="black" points="297.108,-224.5 297.108,-243.5 404.108,-243.5 404.108,-224.5 297.108,-224.5"/>
<text text-anchor="middle" x="350.608" y="-231.5" font-family="Helvetica,sans-Serif" font-size="10.00">iDataUpdateQueue.h</text>
</a>
</g>
</g>
<!-- Node1&#45;&gt;Node2 -->
<g id="edge2" class="edge"><title>Node1&#45;&gt;Node2</title>
<path fill="none" stroke="midnightblue" d="M455.801,-280.444C435.321,-271.596 403.125,-257.687 379.743,-247.586"/>
<polygon fill="midnightblue" stroke="midnightblue" points="380.89,-244.269 370.322,-243.516 378.114,-250.695 380.89,-244.269"/>
</g>
<!-- Node3 -->
<g id="node4" class="node"><title>Node3</title>
<g id="a_node4"><a xlink:href="i_defines_8h.html" target="_top" xlink:title=" ">
<polygon fill="white" stroke="black" points="334.108,-168.5 334.108,-187.5 393.108,-187.5 393.108,-168.5 334.108,-168.5"/>
<text text-anchor="middle" x="363.608" y="-175.5" font-family="Helvetica,sans-Serif" font-size="10.00">iDefines.h</text>
</a>
</g>
</g>
<!-- Node1&#45;&gt;Node3 -->
<g id="edge8" class="edge"><title>Node1&#45;&gt;Node3</title>
<path fill="none" stroke="midnightblue" d="M480.181,-280.11C486.379,-266.686 495.395,-241.008 483.608,-224 474.059,-210.221 434.172,-197.071 402.972,-188.585"/>
<polygon fill="midnightblue" stroke="midnightblue" points="403.76,-185.173 393.197,-185.998 401.969,-191.94 403.76,-185.173"/>
</g>
<!-- Node5 -->
<g id="node6" class="node"><title>Node5</title>
<g id="a_node6"><a xlink:href="ia_mutex_8h.html" target="_top" xlink:title=" ">
<polygon fill="white" stroke="black" points="127.108,-56.5 127.108,-75.5 186.108,-75.5 186.108,-56.5 127.108,-56.5"/>
<text text-anchor="middle" x="156.608" y="-63.5" font-family="Helvetica,sans-Serif" font-size="10.00">iaMutex.h</text>
</a>
</g>
</g>
<!-- Node1&#45;&gt;Node5 -->
<g id="edge41" class="edge"><title>Node1&#45;&gt;Node5</title>
<path fill="none" stroke="midnightblue" d="M450.412,-288.051C373.407,-284.858 142.248,-273.037 73.6078,-244 37.5499,-228.746 22.3171,-223.407 5.60781,-188 -10.0338,-154.856 9.73268,-135.795 37.6078,-112 60.2722,-92.6533 92.0981,-81.2002 117.135,-74.694"/>
<polygon fill="midnightblue" stroke="midnightblue" points="118.167,-78.0451 127.055,-72.2788 116.511,-71.2438 118.167,-78.0451"/>
</g>
<!-- Node6 -->
<g id="node7" class="node"><title>Node6</title>
<g id="a_node7"><a xlink:title=" ">
<polygon fill="white" stroke="#bfbfbf" points="235.608,-168.5 235.608,-187.5 277.608,-187.5 277.608,-168.5 235.608,-168.5"/>
<text text-anchor="middle" x="256.608" y="-175.5" font-family="Helvetica,sans-Serif" font-size="10.00">vector</text>
</a>
</g>
</g>
<!-- Node1&#45;&gt;Node6 -->
<g id="edge46" class="edge"><title>Node1&#45;&gt;Node6</title>
<path fill="none" stroke="midnightblue" d="M450.432,-289.538C411.317,-289.064 335.48,-282.741 287.608,-244 273.203,-232.343 265.087,-212.395 260.806,-197.664"/>
<polygon fill="midnightblue" stroke="midnightblue" points="264.11,-196.46 258.239,-187.641 257.329,-198.196 264.11,-196.46"/>
</g>
<!-- Node7 -->
<g id="node8" class="node"><title>Node7</title>
<g id="a_node8"><a xlink:href="ia_event_8h.html" target="_top" xlink:title=" ">
<polygon fill="white" stroke="black" points="82.6078,-224.5 82.6078,-243.5 138.608,-243.5 138.608,-224.5 82.6078,-224.5"/>
<text text-anchor="middle" x="110.608" y="-231.5" font-family="Helvetica,sans-Serif" font-size="10.00">iaEvent.h</text>
</a>
</g>
</g>
<!-- Node1&#45;&gt;Node7 -->
<g id="edge9" class="edge"><title>Node1&#45;&gt;Node7</title>
<path fill="none" stroke="midnightblue" d="M450.364,-286.428C396.676,-280.767 267.05,-266.097 148.771,-244.055"/>
<polygon fill="midnightblue" stroke="midnightblue" points="149.3,-240.593 138.825,-242.178 148.003,-247.472 149.3,-240.593"/>
</g>
<!-- Node1&#45;&gt;Node15 -->
<g id="edge21" class="edge"><title>Node1&#45;&gt;Node15</title>
<path fill="none" stroke="midnightblue" d="M500.741,-287.105C565.151,-282.063 741.283,-267.108 886.608,-244 887.879,-243.798 889.169,-243.583 890.471,-243.359"/>
<polygon fill="midnightblue" stroke="midnightblue" points="891.344,-246.756 900.534,-241.485 890.063,-239.875 891.344,-246.756"/>
</g>
<!-- Node16 -->
<g id="node17" class="node"><title>Node16</title>
<g id="a_node17"><a xlink:title=" ">
<polygon fill="white" stroke="#bfbfbf" points="805.608,-56.5 805.608,-75.5 857.608,-75.5 857.608,-56.5 805.608,-56.5"/>
<text text-anchor="middle" x="831.608" y="-63.5" font-family="Helvetica,sans-Serif" font-size="10.00">ostream</text>
</a>
</g>
</g>
<!-- Node1&#45;&gt;Node16 -->
<g id="edge45" class="edge"><title>Node1&#45;&gt;Node16</title>
<path fill="none" stroke="midnightblue" d="M500.746,-283.64C555.535,-271.392 689.02,-238.461 791.608,-188 830.88,-168.683 852.283,-170.76 872.608,-132 881.913,-114.254 866.189,-94.9579 851.6,-82.0388"/>
<polygon fill="midnightblue" stroke="midnightblue" points="853.715,-79.2456 843.779,-75.5679 849.253,-84.6391 853.715,-79.2456"/>
</g>
<!-- Node17 -->
<g id="node18" class="node"><title>Node17</title>
<g id="a_node18"><a xlink:href="ia_matrix_8h.html" target="_top" xlink:title=" ">
<polygon fill="white" stroke="black" points="531.108,-224.5 531.108,-243.5 590.108,-243.5 590.108,-224.5 531.108,-224.5"/>
<text text-anchor="middle" x="560.608" y="-231.5" font-family="Helvetica,sans-Serif" font-size="10.00">iaMatrix.h</text>
</a>
</g>
</g>
<!-- Node1&#45;&gt;Node17 -->
<g id="edge25" class="edge"><title>Node1&#45;&gt;Node17</title>
<path fill="none" stroke="midnightblue" d="M489.265,-280.324C502.524,-271.9 522.876,-258.971 538.454,-249.074"/>
<polygon fill="midnightblue" stroke="midnightblue" points="540.421,-251.971 546.985,-243.655 536.667,-246.063 540.421,-251.971"/>
</g>
<!-- Node26 -->
<g id="node27" class="node"><title>Node26</title>
<g id="a_node27"><a xlink:href="ia_i_d_generator_8h.html" target="_top" xlink:title=" ">
<polygon fill="white" stroke="black" points="156.608,-224.5 156.608,-243.5 240.608,-243.5 240.608,-224.5 156.608,-224.5"/>
<text text-anchor="middle" x="198.608" y="-231.5" font-family="Helvetica,sans-Serif" font-size="10.00">iaIDGenerator.h</text>
</a>
</g>
</g>
<!-- Node1&#45;&gt;Node26 -->
<g id="edge42" class="edge"><title>Node1&#45;&gt;Node26</title>
<path fill="none" stroke="midnightblue" d="M450.537,-284.113C405.594,-275.351 310.445,-256.802 250.801,-245.175"/>
<polygon fill="midnightblue" stroke="midnightblue" points="251.308,-241.708 240.823,-243.23 249.968,-248.579 251.308,-241.708"/>
</g>
<!-- Node27 -->
<g id="node28" class="node"><title>Node27</title>
<g id="a_node28"><a xlink:title=" ">
<polygon fill="white" stroke="#bfbfbf" points="422.608,-224.5 422.608,-243.5 474.608,-243.5 474.608,-224.5 422.608,-224.5"/>
<text text-anchor="middle" x="448.608" y="-231.5" font-family="Helvetica,sans-Serif" font-size="10.00">memory</text>
</a>
</g>
</g>
<!-- Node1&#45;&gt;Node27 -->
<g id="edge47" class="edge"><title>Node1&#45;&gt;Node27</title>
<path fill="none" stroke="midnightblue" d="M471.149,-280.083C467.453,-272.691 462.084,-261.953 457.513,-252.811"/>
<polygon fill="midnightblue" stroke="midnightblue" points="460.586,-251.13 452.983,-243.751 454.325,-254.261 460.586,-251.13"/>
</g>
<!-- Node1&#45;&gt;Node28 -->
<g id="edge48" class="edge"><title>Node1&#45;&gt;Node28</title>
<path fill="none" stroke="midnightblue" d="M500.739,-288.736C572.415,-287.557 783.907,-281.116 967.237,-243.546"/>
<polygon fill="midnightblue" stroke="midnightblue" points="967.975,-246.968 977.05,-241.5 966.546,-240.115 967.975,-246.968"/>
</g>
<!-- Node2&#45;&gt;Node3 -->
<g id="edge3" class="edge"><title>Node2&#45;&gt;Node3</title>
<path fill="none" stroke="midnightblue" d="M352.754,-224.083C354.477,-216.927 356.955,-206.635 359.108,-197.691"/>
<polygon fill="midnightblue" stroke="midnightblue" points="362.563,-198.293 361.501,-187.751 355.758,-196.654 362.563,-198.293"/>
</g>
<!-- Node2&#45;&gt;Node5 -->
<g id="edge5" class="edge"><title>Node2&#45;&gt;Node5</title>
<path fill="none" stroke="midnightblue" d="M345.701,-224.3C331.531,-199.42 290.248,-128.689 269.608,-112 248.295,-94.7677 219.547,-83.4417 196.381,-76.4626"/>
<polygon fill="midnightblue" stroke="midnightblue" points="197.082,-73.023 186.506,-73.6447 195.161,-79.7543 197.082,-73.023"/>
</g>
<!-- Node2&#45;&gt;Node6 -->
<g id="edge7" class="edge"><title>Node2&#45;&gt;Node6</title>
<path fill="none" stroke="midnightblue" d="M335.505,-224.324C320.705,-215.822 297.914,-202.729 280.626,-192.797"/>
<polygon fill="midnightblue" stroke="midnightblue" points="282.088,-189.601 271.673,-187.655 278.601,-195.671 282.088,-189.601"/>
</g>
<!-- Node4 -->
<g id="node5" class="node"><title>Node4</title>
<g id="a_node5"><a xlink:href="ia_defines_8h.html" target="_top" xlink:title=" ">
<polygon fill="white" stroke="black" points="333.108,-0.5 333.108,-19.5 398.108,-19.5 398.108,-0.5 333.108,-0.5"/>
<text text-anchor="middle" x="365.608" y="-7.5" font-family="Helvetica,sans-Serif" font-size="10.00">iaDefines.h</text>
</a>
</g>
</g>
<!-- Node3&#45;&gt;Node4 -->
<g id="edge4" class="edge"><title>Node3&#45;&gt;Node4</title>
<path fill="none" stroke="midnightblue" d="M363.715,-168.075C364.03,-141.945 364.955,-65.2106 365.384,-29.577"/>
<polygon fill="midnightblue" stroke="midnightblue" points="368.884,-29.6096 365.505,-19.5681 361.884,-29.5252 368.884,-29.6096"/>
</g>
<!-- Node5&#45;&gt;Node4 -->
<g id="edge6" class="edge"><title>Node5&#45;&gt;Node4</title>
<path fill="none" stroke="midnightblue" d="M186.109,-57.3776C221.792,-48.158 282.135,-32.5672 322.9,-22.0346"/>
<polygon fill="midnightblue" stroke="midnightblue" points="324.009,-25.3631 332.815,-19.4728 322.257,-18.5857 324.009,-25.3631"/>
</g>
<!-- Node7&#45;&gt;Node5 -->
<g id="edge10" class="edge"><title>Node7&#45;&gt;Node5</title>
<path fill="none" stroke="midnightblue" d="M82.4321,-227.116C47.9714,-218.433 -3.87708,-199.698 12.6078,-168 35.7892,-123.426 88.6544,-94.4279 123.472,-79.3965"/>
<polygon fill="midnightblue" stroke="midnightblue" points="124.887,-82.599 132.775,-75.5258 122.197,-76.1361 124.887,-82.599"/>
</g>
<!-- Node7&#45;&gt;Node6 -->
<g id="edge20" class="edge"><title>Node7&#45;&gt;Node6</title>
<path fill="none" stroke="midnightblue" d="M133.742,-224.444C158.663,-215.226 198.436,-200.516 225.947,-190.34"/>
<polygon fill="midnightblue" stroke="midnightblue" points="227.313,-193.567 235.478,-186.815 224.885,-187.001 227.313,-193.567"/>
</g>
<!-- Node8 -->
<g id="node9" class="node"><title>Node8</title>
<g id="a_node9"><a xlink:href="ia_delegate_8h.html" target="_top" xlink:title=" ">
<polygon fill="white" stroke="black" points="22.1078,-168.5 22.1078,-187.5 93.1078,-187.5 93.1078,-168.5 22.1078,-168.5"/>
<text text-anchor="middle" x="57.6078" y="-175.5" font-family="Helvetica,sans-Serif" font-size="10.00">iaDelegate.h</text>
</a>
</g>
</g>
<!-- Node7&#45;&gt;Node8 -->
<g id="edge11" class="edge"><title>Node7&#45;&gt;Node8</title>
<path fill="none" stroke="midnightblue" d="M101.856,-224.083C94.1381,-216.22 82.7031,-204.569 73.3913,-195.081"/>
<polygon fill="midnightblue" stroke="midnightblue" points="75.6994,-192.436 66.1968,-187.751 70.7036,-197.34 75.6994,-192.436"/>
</g>
<!-- Node9 -->
<g id="node10" class="node"><title>Node9</title>
<g id="a_node10"><a xlink:href="ia_console_8h.html" target="_top" xlink:title=" ">
<polygon fill="white" stroke="black" points="149.608,-168.5 149.608,-187.5 217.608,-187.5 217.608,-168.5 149.608,-168.5"/>
<text text-anchor="middle" x="183.608" y="-175.5" font-family="Helvetica,sans-Serif" font-size="10.00">iaConsole.h</text>
</a>
</g>
</g>
<!-- Node7&#45;&gt;Node9 -->
<g id="edge12" class="edge"><title>Node7&#45;&gt;Node9</title>
<path fill="none" stroke="midnightblue" d="M122.337,-224.324C133.445,-216.107 150.35,-203.602 163.591,-193.807"/>
<polygon fill="midnightblue" stroke="midnightblue" points="165.708,-196.595 171.666,-187.834 161.545,-190.967 165.708,-196.595"/>
</g>
<!-- Node10 -->
<g id="node11" class="node"><title>Node10</title>
<g id="a_node11"><a xlink:href="ia_singleton_8h.html" target="_top" xlink:title=" ">
<polygon fill="white" stroke="black" points="188.108,-112.5 188.108,-131.5 261.108,-131.5 261.108,-112.5 188.108,-112.5"/>
<text text-anchor="middle" x="224.608" y="-119.5" font-family="Helvetica,sans-Serif" font-size="10.00">iaSingleton.h</text>
</a>
</g>
</g>
<!-- Node9&#45;&gt;Node10 -->
<g id="edge13" class="edge"><title>Node9&#45;&gt;Node10</title>
<path fill="none" stroke="midnightblue" d="M190.378,-168.083C196.169,-160.455 204.666,-149.264 211.745,-139.941"/>
<polygon fill="midnightblue" stroke="midnightblue" points="214.704,-141.832 217.963,-131.751 209.129,-137.599 214.704,-141.832"/>
</g>
<!-- Node11 -->
<g id="node12" class="node"><title>Node11</title>
<g id="a_node12"><a xlink:href="ia_clock_8h.html" target="_top" xlink:title=" ">
<polygon fill="white" stroke="black" points="280.108,-56.5 280.108,-75.5 337.108,-75.5 337.108,-56.5 280.108,-56.5"/>
<text text-anchor="middle" x="308.608" y="-63.5" font-family="Helvetica,sans-Serif" font-size="10.00">iaClock.h</text>
</a>
</g>
</g>
<!-- Node9&#45;&gt;Node11 -->
<g id="edge15" class="edge"><title>Node9&#45;&gt;Node11</title>
<path fill="none" stroke="midnightblue" d="M208.067,-168.412C226.604,-160.976 251.834,-148.766 269.608,-132 283.782,-118.63 294.606,-98.982 301.214,-84.7909"/>
<polygon fill="midnightblue" stroke="midnightblue" points="304.439,-86.152 305.268,-75.5897 298.033,-83.3296 304.439,-86.152"/>
</g>
<!-- Node12 -->
<g id="node13" class="node"><title>Node12</title>
<g id="a_node13"><a xlink:title=" ">
<polygon fill="white" stroke="#bfbfbf" points="394.108,-112.5 394.108,-131.5 443.108,-131.5 443.108,-112.5 394.108,-112.5"/>
<text text-anchor="middle" x="418.608" y="-119.5" font-family="Helvetica,sans-Serif" font-size="10.00">fstream</text>
</a>
</g>
</g>
<!-- Node9&#45;&gt;Node12 -->
<g id="edge17" class="edge"><title>Node9&#45;&gt;Node12</title>
<path fill="none" stroke="midnightblue" d="M217.779,-169.148C262.302,-158.917 339.713,-141.129 384.302,-130.883"/>
<polygon fill="midnightblue" stroke="midnightblue" points="385.131,-134.284 394.094,-128.633 383.564,-127.462 385.131,-134.284"/>
</g>
<!-- Node13 -->
<g id="node14" class="node"><title>Node13</title>
<g id="a_node14"><a xlink:title=" ">
<polygon fill="white" stroke="#bfbfbf" points="115.608,-112.5 115.608,-131.5 169.608,-131.5 169.608,-112.5 115.608,-112.5"/>
<text text-anchor="middle" x="142.608" y="-119.5" font-family="Helvetica,sans-Serif" font-size="10.00">iostream</text>
</a>
</g>
</g>
<!-- Node9&#45;&gt;Node13 -->
<g id="edge18" class="edge"><title>Node9&#45;&gt;Node13</title>
<path fill="none" stroke="midnightblue" d="M176.837,-168.083C171.046,-160.455 162.549,-149.264 155.47,-139.941"/>
<polygon fill="midnightblue" stroke="midnightblue" points="158.087,-137.599 149.252,-131.751 152.512,-141.832 158.087,-137.599"/>
</g>
<!-- Node14 -->
<g id="node15" class="node"><title>Node14</title>
<g id="a_node15"><a xlink:title=" ">
<polygon fill="white" stroke="#bfbfbf" points="461.608,-112.5 461.608,-131.5 511.608,-131.5 511.608,-112.5 461.608,-112.5"/>
<text text-anchor="middle" x="486.608" y="-119.5" font-family="Helvetica,sans-Serif" font-size="10.00">iomanip</text>
</a>
</g>
</g>
<!-- Node9&#45;&gt;Node14 -->
<g id="edge19" class="edge"><title>Node9&#45;&gt;Node14</title>
<path fill="none" stroke="midnightblue" d="M217.846,-169.68C220.806,-169.094 223.758,-168.526 226.608,-168 326.198,-149.621 352.46,-152.633 451.608,-132 451.708,-131.979 451.808,-131.958 451.908,-131.937"/>
<polygon fill="midnightblue" stroke="midnightblue" points="452.463,-135.401 461.438,-129.771 450.911,-128.575 452.463,-135.401"/>
</g>
<!-- Node10&#45;&gt;Node5 -->
<g id="edge14" class="edge"><title>Node10&#45;&gt;Node5</title>
<path fill="none" stroke="midnightblue" d="M213.682,-112.324C203.433,-104.185 187.887,-91.8395 175.607,-82.0874"/>
<polygon fill="midnightblue" stroke="midnightblue" points="177.74,-79.3119 167.732,-75.8339 173.387,-84.7937 177.74,-79.3119"/>
</g>
<!-- Node11&#45;&gt;Node4 -->
<g id="edge16" class="edge"><title>Node11&#45;&gt;Node4</title>
<path fill="none" stroke="midnightblue" d="M317.766,-56.324C326.109,-48.4196 338.64,-36.5482 348.785,-26.9377"/>
<polygon fill="midnightblue" stroke="midnightblue" points="351.431,-29.2522 356.283,-19.8339 346.616,-24.1705 351.431,-29.2522"/>
</g>
<!-- Node15&#45;&gt;Node4 -->
<g id="edge22" class="edge"><title>Node15&#45;&gt;Node4</title>
<path fill="none" stroke="midnightblue" d="M933.331,-224.218C938.156,-211.772 945.616,-188.263 942.608,-168 933.775,-108.496 921.426,-80.7734 866.608,-56 785.246,-19.231 514.227,-12.4904 408.432,-11.2665"/>
<polygon fill="midnightblue" stroke="midnightblue" points="408.167,-7.76365 398.131,-11.1589 408.094,-14.7633 408.167,-7.76365"/>
</g>
<!-- Node15&#45;&gt;Node6 -->
<g id="edge24" class="edge"><title>Node15&#45;&gt;Node6</title>
<path fill="none" stroke="midnightblue" d="M900.59,-231.434C813.323,-226.597 545.667,-210.831 324.608,-188 312.546,-186.754 299.321,-185.076 287.766,-183.505"/>
<polygon fill="midnightblue" stroke="midnightblue" points="288.092,-180.017 277.706,-182.11 287.13,-186.951 288.092,-180.017"/>
</g>
<!-- Node15&#45;&gt;Node16 -->
<g id="edge23" class="edge"><title>Node15&#45;&gt;Node16</title>
<path fill="none" stroke="midnightblue" d="M930.138,-224.483C931.017,-203.383 930.64,-147.807 905.608,-112 895.643,-97.7463 879.577,-87.1866 864.957,-79.8925"/>
<polygon fill="midnightblue" stroke="midnightblue" points="866.18,-76.6019 855.636,-75.5648 863.232,-82.9509 866.18,-76.6019"/>
</g>
<!-- Node17&#45;&gt;Node12 -->
<g id="edge37" class="edge"><title>Node17&#45;&gt;Node12</title>
<path fill="none" stroke="midnightblue" d="M536.1,-224.359C516.735,-216.751 489.715,-204.339 469.608,-188 452.966,-174.477 438.368,-154.581 429.103,-140.367"/>
<polygon fill="midnightblue" stroke="midnightblue" points="431.866,-138.186 423.581,-131.583 425.94,-141.912 431.866,-138.186"/>
</g>
<!-- Node17&#45;&gt;Node14 -->
<g id="edge39" class="edge"><title>Node17&#45;&gt;Node14</title>
<path fill="none" stroke="midnightblue" d="M530.862,-225.134C512.297,-218.518 489.857,-207.005 478.608,-188 470.208,-173.81 473.894,-154.836 478.667,-141.053"/>
<polygon fill="midnightblue" stroke="midnightblue" points="481.946,-142.277 482.347,-131.69 475.431,-139.717 481.946,-142.277"/>
</g>
<!-- Node18 -->
<g id="node19" class="node"><title>Node18</title>
<g id="a_node19"><a xlink:href="ia_vector4_8h.html" target="_top" xlink:title=" ">
<polygon fill="white" stroke="black" points="607.608,-168.5 607.608,-187.5 673.608,-187.5 673.608,-168.5 607.608,-168.5"/>
<text text-anchor="middle" x="640.608" y="-175.5" font-family="Helvetica,sans-Serif" font-size="10.00">iaVector4.h</text>
</a>
</g>
</g>
<!-- Node17&#45;&gt;Node18 -->
<g id="edge26" class="edge"><title>Node17&#45;&gt;Node18</title>
<path fill="none" stroke="midnightblue" d="M573.461,-224.324C585.824,-215.979 604.738,-203.212 619.345,-193.352"/>
<polygon fill="midnightblue" stroke="midnightblue" points="621.456,-196.15 627.786,-187.655 617.54,-190.348 621.456,-196.15"/>
</g>
<!-- Node20 -->
<g id="node21" class="node"><title>Node20</title>
<g id="a_node21"><a xlink:title=" ">
<polygon fill="white" stroke="#bfbfbf" points="526.608,-56.5 526.608,-75.5 570.608,-75.5 570.608,-56.5 526.608,-56.5"/>
<text text-anchor="middle" x="548.608" y="-63.5" font-family="Helvetica,sans-Serif" font-size="10.00">cmath</text>
</a>
</g>
</g>
<!-- Node17&#45;&gt;Node20 -->
<g id="edge38" class="edge"><title>Node17&#45;&gt;Node20</title>
<path fill="none" stroke="midnightblue" d="M560.938,-224.159C561.331,-211.644 561.795,-188.052 560.608,-168 558.899,-139.132 554.465,-105.865 551.493,-85.6417"/>
<polygon fill="midnightblue" stroke="midnightblue" points="554.933,-84.982 549.981,-75.6159 548.011,-86.0262 554.933,-84.982"/>
</g>
<!-- Node23 -->
<g id="node24" class="node"><title>Node23</title>
<g id="a_node24"><a xlink:href="ia_quaternion_8h.html" target="_top" xlink:title=" ">
<polygon fill="white" stroke="black" points="702.608,-168.5 702.608,-187.5 782.608,-187.5 782.608,-168.5 702.608,-168.5"/>
<text text-anchor="middle" x="742.608" y="-175.5" font-family="Helvetica,sans-Serif" font-size="10.00">iaQuaternion.h</text>
</a>
</g>
</g>
<!-- Node17&#45;&gt;Node23 -->
<g id="edge33" class="edge"><title>Node17&#45;&gt;Node23</title>
<path fill="none" stroke="midnightblue" d="M589.446,-224.444C620.464,-215.241 669.937,-200.562 704.226,-190.388"/>
<polygon fill="midnightblue" stroke="midnightblue" points="705.313,-193.716 713.904,-187.516 703.322,-187.006 705.313,-193.716"/>
</g>
<!-- Node25 -->
<g id="node26" class="node"><title>Node25</title>
<g id="a_node26"><a xlink:href="ia_matrix_8inl.html" target="_top" xlink:title=" ">
<polygon fill="white" stroke="black" points="487.608,-168.5 487.608,-187.5 551.608,-187.5 551.608,-168.5 487.608,-168.5"/>
<text text-anchor="middle" x="519.608" y="-175.5" font-family="Helvetica,sans-Serif" font-size="10.00">iaMatrix.inl</text>
</a>
</g>
</g>
<!-- Node17&#45;&gt;Node25 -->
<g id="edge40" class="edge"><title>Node17&#45;&gt;Node25</title>
<path fill="none" stroke="midnightblue" d="M553.837,-224.083C548.046,-216.455 539.549,-205.264 532.47,-195.941"/>
<polygon fill="midnightblue" stroke="midnightblue" points="535.087,-193.599 526.252,-187.751 529.512,-197.832 535.087,-193.599"/>
</g>
<!-- Node19 -->
<g id="node20" class="node"><title>Node19</title>
<g id="a_node20"><a xlink:href="ia_vector3_8h.html" target="_top" xlink:title=" ">
<polygon fill="white" stroke="black" points="657.608,-112.5 657.608,-131.5 723.608,-131.5 723.608,-112.5 657.608,-112.5"/>
<text text-anchor="middle" x="690.608" y="-119.5" font-family="Helvetica,sans-Serif" font-size="10.00">iaVector3.h</text>
</a>
</g>
</g>
<!-- Node18&#45;&gt;Node19 -->
<g id="edge27" class="edge"><title>Node18&#45;&gt;Node19</title>
<path fill="none" stroke="midnightblue" d="M648.864,-168.083C656.072,-160.298 666.718,-148.801 675.454,-139.367"/>
<polygon fill="midnightblue" stroke="midnightblue" points="678.279,-141.467 682.505,-131.751 673.143,-136.711 678.279,-141.467"/>
</g>
<!-- Node22 -->
<g id="node23" class="node"><title>Node22</title>
<g id="a_node23"><a xlink:href="ia_vector4_8inl.html" target="_top" xlink:title=" ">
<polygon fill="white" stroke="black" points="568.108,-112.5 568.108,-131.5 639.108,-131.5 639.108,-112.5 568.108,-112.5"/>
<text text-anchor="middle" x="603.608" y="-119.5" font-family="Helvetica,sans-Serif" font-size="10.00">iaVector4.inl</text>
</a>
</g>
</g>
<!-- Node18&#45;&gt;Node22 -->
<g id="edge32" class="edge"><title>Node18&#45;&gt;Node22</title>
<path fill="none" stroke="midnightblue" d="M634.498,-168.083C629.326,-160.534 621.762,-149.495 615.413,-140.23"/>
<polygon fill="midnightblue" stroke="midnightblue" points="618.144,-138.022 609.604,-131.751 612.369,-141.979 618.144,-138.022"/>
</g>
<!-- Node19&#45;&gt;Node4 -->
<g id="edge28" class="edge"><title>Node19&#45;&gt;Node4</title>
<path fill="none" stroke="midnightblue" d="M678.94,-112.434C659.395,-98.4957 618.356,-70.9626 579.608,-56 522.557,-33.9699 452.571,-21.8468 408.518,-15.8856"/>
<polygon fill="midnightblue" stroke="midnightblue" points="408.812,-12.3944 398.443,-14.5688 407.905,-19.3353 408.812,-12.3944"/>
</g>
<!-- Node19&#45;&gt;Node16 -->
<g id="edge30" class="edge"><title>Node19&#45;&gt;Node16</title>
<path fill="none" stroke="midnightblue" d="M712.95,-112.444C736.361,-103.478 773.343,-89.314 799.797,-79.1827"/>
<polygon fill="midnightblue" stroke="midnightblue" points="801.284,-82.3615 809.37,-75.5164 798.78,-75.8245 801.284,-82.3615"/>
</g>
<!-- Node19&#45;&gt;Node20 -->
<g id="edge29" class="edge"><title>Node19&#45;&gt;Node20</title>
<path fill="none" stroke="midnightblue" d="M668.107,-112.444C644.53,-103.478 607.285,-89.314 580.644,-79.1827"/>
<polygon fill="midnightblue" stroke="midnightblue" points="581.594,-75.7995 571.003,-75.5164 579.106,-82.3424 581.594,-75.7995"/>
</g>
<!-- Node21 -->
<g id="node22" class="node"><title>Node21</title>
<g id="a_node22"><a xlink:href="ia_vector3_8inl.html" target="_top" xlink:title=" ">
<polygon fill="white" stroke="black" points="655.108,-56.5 655.108,-75.5 726.108,-75.5 726.108,-56.5 655.108,-56.5"/>
<text text-anchor="middle" x="690.608" y="-63.5" font-family="Helvetica,sans-Serif" font-size="10.00">iaVector3.inl</text>
</a>
</g>
</g>
<!-- Node19&#45;&gt;Node21 -->
<g id="edge31" class="edge"><title>Node19&#45;&gt;Node21</title>
<path fill="none" stroke="midnightblue" d="M690.608,-112.083C690.608,-105.006 690.608,-94.8611 690.608,-85.9865"/>
<polygon fill="midnightblue" stroke="midnightblue" points="694.108,-85.751 690.608,-75.7511 687.108,-85.7511 694.108,-85.751"/>
</g>
<!-- Node23&#45;&gt;Node16 -->
<g id="edge35" class="edge"><title>Node23&#45;&gt;Node16</title>
<path fill="none" stroke="midnightblue" d="M744.789,-168.237C748.417,-154.979 756.704,-129.515 770.608,-112 780.453,-99.5975 794.52,-88.9123 806.665,-81.0701"/>
<polygon fill="midnightblue" stroke="midnightblue" points="808.795,-83.869 815.476,-75.646 805.125,-77.9081 808.795,-83.869"/>
</g>
<!-- Node23&#45;&gt;Node19 -->
<g id="edge34" class="edge"><title>Node23&#45;&gt;Node19</title>
<path fill="none" stroke="midnightblue" d="M734.021,-168.083C726.449,-160.22 715.23,-148.569 706.093,-139.081"/>
<polygon fill="midnightblue" stroke="midnightblue" points="708.492,-136.527 699.035,-131.751 703.45,-141.382 708.492,-136.527"/>
</g>
<!-- Node24 -->
<g id="node25" class="node"><title>Node24</title>
<g id="a_node25"><a xlink:href="ia_quaternion_8inl.html" target="_top" xlink:title=" ">
<polygon fill="white" stroke="black" points="779.608,-112.5 779.608,-131.5 863.608,-131.5 863.608,-112.5 779.608,-112.5"/>
<text text-anchor="middle" x="821.608" y="-119.5" font-family="Helvetica,sans-Serif" font-size="10.00">iaQuaternion.inl</text>
</a>
</g>
</g>
<!-- Node23&#45;&gt;Node24 -->
<g id="edge36" class="edge"><title>Node23&#45;&gt;Node24</title>
<path fill="none" stroke="midnightblue" d="M755.301,-168.324C767.509,-159.979 786.186,-147.212 800.611,-137.352"/>
<polygon fill="midnightblue" stroke="midnightblue" points="802.666,-140.187 808.947,-131.655 798.716,-134.408 802.666,-140.187"/>
</g>
<!-- Node26&#45;&gt;Node5 -->
<g id="edge43" class="edge"><title>Node26&#45;&gt;Node5</title>
<path fill="none" stroke="midnightblue" d="M184.544,-224.237C172.007,-215.957 153.672,-202.648 140.608,-188 121.227,-166.27 114.454,-160.04 106.608,-132 104.213,-123.44 102.991,-120.12 106.608,-112 112.176,-99.4981 123.123,-89.0124 133.359,-81.3167"/>
<polygon fill="midnightblue" stroke="midnightblue" points="135.459,-84.1193 141.655,-75.5256 131.452,-78.3794 135.459,-84.1193"/>
</g>
<!-- Node26&#45;&gt;Node6 -->
<g id="edge44" class="edge"><title>Node26&#45;&gt;Node6</title>
<path fill="none" stroke="midnightblue" d="M207.927,-224.324C216.5,-216.341 229.42,-204.313 239.795,-194.653"/>
<polygon fill="midnightblue" stroke="midnightblue" points="242.186,-197.21 247.12,-187.834 237.416,-192.086 242.186,-197.21"/>
</g>
</g>
</svg>
