<?xml version="1.0" encoding="UTF-8" standalone="no"?>
<!DOCTYPE svg PUBLIC "-//W3C//DTD SVG 1.1//EN"
 "http://www.w3.org/Graphics/SVG/1.1/DTD/svg11.dtd">
<!-- Generated by graphviz version 2.38.0 (20140413.2041)
 -->
<!-- Title: C:/dev/Igor/Igor/src/Igor/src/iNodeTransform.cpp Pages: 1 -->
<svg width="994pt" height="431pt"
 viewBox="0.00 0.00 993.58 431.00" xmlns="http://www.w3.org/2000/svg" xmlns:xlink="http://www.w3.org/1999/xlink">
<g id="graph0" class="graph" transform="scale(1 1) rotate(0) translate(4 427)">
<title>C:/dev/Igor/Igor/src/Igor/src/iNodeTransform.cpp</title>
<polygon fill="white" stroke="none" points="-4,4 -4,-427 989.585,-427 989.585,4 -4,4"/>
<!-- Node0 -->
<g id="node1" class="node"><title>Node0</title>
<g id="a_node1"><a xlink:title=" ">
<polygon fill="#bfbfbf" stroke="black" points="267.573,-392.5 267.573,-422.5 408.573,-422.5 408.573,-392.5 267.573,-392.5"/>
<text text-anchor="start" x="275.573" y="-410.5" font-family="Helvetica,sans-Serif" font-size="10.00">C:/dev/Igor/Igor/src</text>
<text text-anchor="middle" x="338.073" y="-399.5" font-family="Helvetica,sans-Serif" font-size="10.00">/Igor/src/iNodeTransform.cpp</text>
</a>
</g>
</g>
<!-- Node1 -->
<g id="node2" class="node"><title>Node1</title>
<g id="a_node2"><a xlink:href="i_node_transform_8h.html" target="_top" xlink:title=" ">
<polygon fill="white" stroke="black" points="329.073,-336.5 329.073,-355.5 421.073,-355.5 421.073,-336.5 329.073,-336.5"/>
<text text-anchor="middle" x="375.073" y="-343.5" font-family="Helvetica,sans-Serif" font-size="10.00">iNodeTransform.h</text>
</a>
</g>
</g>
<!-- Node0&#45;&gt;Node1 -->
<g id="edge1" class="edge"><title>Node0&#45;&gt;Node1</title>
<path fill="none" stroke="midnightblue" d="M346.842,-392.399C352.052,-384.021 358.702,-373.327 364.239,-364.423"/>
<polygon fill="midnightblue" stroke="midnightblue" points="367.381,-365.998 369.69,-355.658 361.437,-362.302 367.381,-365.998"/>
</g>
<!-- Node10 -->
<g id="node11" class="node"><title>Node10</title>
<g id="a_node11"><a xlink:href="ia_console_8h.html" target="_top" xlink:title=" ">
<polygon fill="white" stroke="black" points="499.073,-168.5 499.073,-187.5 567.073,-187.5 567.073,-168.5 499.073,-168.5"/>
<text text-anchor="middle" x="533.073" y="-175.5" font-family="Helvetica,sans-Serif" font-size="10.00">iaConsole.h</text>
</a>
</g>
</g>
<!-- Node0&#45;&gt;Node10 -->
<g id="edge51" class="edge"><title>Node0&#45;&gt;Node10</title>
<path fill="none" stroke="midnightblue" d="M329.582,-392.468C321.992,-378.055 313.067,-355.093 320.073,-336 342.561,-274.723 361.792,-261.704 415.073,-224 437.311,-208.264 465.759,-197.202 489.151,-189.985"/>
<polygon fill="midnightblue" stroke="midnightblue" points="490.235,-193.314 498.834,-187.124 488.252,-186.601 490.235,-193.314"/>
</g>
<!-- Node2 -->
<g id="node3" class="node"><title>Node2</title>
<g id="a_node3"><a xlink:href="i_node_8h.html" target="_top" xlink:title=" ">
<polygon fill="white" stroke="black" points="587.073,-280.5 587.073,-299.5 637.073,-299.5 637.073,-280.5 587.073,-280.5"/>
<text text-anchor="middle" x="612.073" y="-287.5" font-family="Helvetica,sans-Serif" font-size="10.00">iNode.h</text>
</a>
</g>
</g>
<!-- Node1&#45;&gt;Node2 -->
<g id="edge2" class="edge"><title>Node1&#45;&gt;Node2</title>
<path fill="none" stroke="midnightblue" d="M412.627,-336.444C457.819,-326.147 533.099,-308.994 577.106,-298.967"/>
<polygon fill="midnightblue" stroke="midnightblue" points="578.083,-302.335 587.055,-296.7 576.528,-295.509 578.083,-302.335"/>
</g>
<!-- Node18 -->
<g id="node19" class="node"><title>Node18</title>
<g id="a_node19"><a xlink:href="ia_matrix_8h.html" target="_top" xlink:title=" ">
<polygon fill="white" stroke="black" points="212.573,-224.5 212.573,-243.5 271.573,-243.5 271.573,-224.5 212.573,-224.5"/>
<text text-anchor="middle" x="242.073" y="-231.5" font-family="Helvetica,sans-Serif" font-size="10.00">iaMatrix.h</text>
</a>
</g>
</g>
<!-- Node1&#45;&gt;Node18 -->
<g id="edge50" class="edge"><title>Node1&#45;&gt;Node18</title>
<path fill="none" stroke="midnightblue" d="M364.637,-336.368C342.106,-317.733 288.663,-273.532 260.372,-250.134"/>
<polygon fill="midnightblue" stroke="midnightblue" points="262.398,-247.268 252.461,-243.591 257.937,-252.662 262.398,-247.268"/>
</g>
<!-- Node3 -->
<g id="node4" class="node"><title>Node3</title>
<g id="a_node4"><a xlink:href="i_data_update_queue_8h.html" target="_top" xlink:title=" ">
<polygon fill="white" stroke="black" points="839.573,-224.5 839.573,-243.5 946.573,-243.5 946.573,-224.5 839.573,-224.5"/>
<text text-anchor="middle" x="893.073" y="-231.5" font-family="Helvetica,sans-Serif" font-size="10.00">iDataUpdateQueue.h</text>
</a>
</g>
</g>
<!-- Node2&#45;&gt;Node3 -->
<g id="edge3" class="edge"><title>Node2&#45;&gt;Node3</title>
<path fill="none" stroke="midnightblue" d="M637.506,-284.113C682.716,-275.425 778.003,-257.113 838.593,-245.469"/>
<polygon fill="midnightblue" stroke="midnightblue" points="839.585,-248.843 848.744,-243.519 838.264,-241.969 839.585,-248.843"/>
</g>
<!-- Node4 -->
<g id="node5" class="node"><title>Node4</title>
<g id="a_node5"><a xlink:href="i_defines_8h.html" target="_top" xlink:title=" ">
<polygon fill="white" stroke="black" points="895.573,-168.5 895.573,-187.5 954.573,-187.5 954.573,-168.5 895.573,-168.5"/>
<text text-anchor="middle" x="925.073" y="-175.5" font-family="Helvetica,sans-Serif" font-size="10.00">iDefines.h</text>
</a>
</g>
</g>
<!-- Node2&#45;&gt;Node4 -->
<g id="edge9" class="edge"><title>Node2&#45;&gt;Node4</title>
<path fill="none" stroke="midnightblue" d="M637.128,-287.589C712.631,-283.086 934.08,-267.927 955.073,-244 967.544,-229.786 954.597,-209.509 942.038,-195.396"/>
<polygon fill="midnightblue" stroke="midnightblue" points="944.317,-192.715 934.884,-187.891 939.251,-197.545 944.317,-192.715"/>
</g>
<!-- Node6 -->
<g id="node7" class="node"><title>Node6</title>
<g id="a_node7"><a xlink:href="ia_mutex_8h.html" target="_top" xlink:title=" ">
<polygon fill="white" stroke="black" points="780.573,-56.5 780.573,-75.5 839.573,-75.5 839.573,-56.5 780.573,-56.5"/>
<text text-anchor="middle" x="810.073" y="-63.5" font-family="Helvetica,sans-Serif" font-size="10.00">iaMutex.h</text>
</a>
</g>
</g>
<!-- Node2&#45;&gt;Node6 -->
<g id="edge42" class="edge"><title>Node2&#45;&gt;Node6</title>
<path fill="none" stroke="midnightblue" d="M637.253,-287.746C715.397,-283.599 949.876,-269.144 972.073,-244 1027.05,-181.729 898.097,-109.08 838.391,-79.999"/>
<polygon fill="midnightblue" stroke="midnightblue" points="839.638,-76.7157 829.106,-75.5566 836.616,-83.0301 839.638,-76.7157"/>
</g>
<!-- Node7 -->
<g id="node8" class="node"><title>Node7</title>
<g id="a_node8"><a xlink:title=" ">
<polygon fill="white" stroke="#bfbfbf" points="759.073,-168.5 759.073,-187.5 801.073,-187.5 801.073,-168.5 759.073,-168.5"/>
<text text-anchor="middle" x="780.073" y="-175.5" font-family="Helvetica,sans-Serif" font-size="10.00">vector</text>
</a>
</g>
</g>
<!-- Node2&#45;&gt;Node7 -->
<g id="edge47" class="edge"><title>Node2&#45;&gt;Node7</title>
<path fill="none" stroke="midnightblue" d="M607.486,-280.388C600.987,-266.873 591.24,-240.522 604.073,-224 643.749,-172.922 682.42,-204.054 745.073,-188 746.338,-187.676 747.629,-187.345 748.933,-187.011"/>
<polygon fill="midnightblue" stroke="midnightblue" points="750.161,-190.309 758.976,-184.431 748.419,-183.529 750.161,-190.309"/>
</g>
<!-- Node8 -->
<g id="node9" class="node"><title>Node8</title>
<g id="a_node9"><a xlink:href="ia_event_8h.html" target="_top" xlink:title=" ">
<polygon fill="white" stroke="black" points="501.073,-224.5 501.073,-243.5 557.073,-243.5 557.073,-224.5 501.073,-224.5"/>
<text text-anchor="middle" x="529.073" y="-231.5" font-family="Helvetica,sans-Serif" font-size="10.00">iaEvent.h</text>
</a>
</g>
</g>
<!-- Node2&#45;&gt;Node8 -->
<g id="edge10" class="edge"><title>Node2&#45;&gt;Node8</title>
<path fill="none" stroke="midnightblue" d="M598.738,-280.324C585.911,-271.979 566.288,-259.212 551.134,-249.352"/>
<polygon fill="midnightblue" stroke="midnightblue" points="552.667,-246.174 542.376,-243.655 548.849,-252.042 552.667,-246.174"/>
</g>
<!-- Node16 -->
<g id="node17" class="node"><title>Node16</title>
<g id="a_node17"><a xlink:href="ia_string_8h.html" target="_top" xlink:title=" ">
<polygon fill="white" stroke="black" points="424.073,-224.5 424.073,-243.5 482.073,-243.5 482.073,-224.5 424.073,-224.5"/>
<text text-anchor="middle" x="453.073" y="-231.5" font-family="Helvetica,sans-Serif" font-size="10.00">iaString.h</text>
</a>
</g>
</g>
<!-- Node2&#45;&gt;Node16 -->
<g id="edge22" class="edge"><title>Node2&#45;&gt;Node16</title>
<path fill="none" stroke="midnightblue" d="M586.879,-280.444C560.131,-271.359 517.671,-256.939 487.768,-246.783"/>
<polygon fill="midnightblue" stroke="midnightblue" points="488.744,-243.418 478.15,-243.516 486.493,-250.046 488.744,-243.418"/>
</g>
<!-- Node17 -->
<g id="node18" class="node"><title>Node17</title>
<g id="a_node18"><a xlink:title=" ">
<polygon fill="white" stroke="#bfbfbf" points="294.073,-56.5 294.073,-75.5 346.073,-75.5 346.073,-56.5 294.073,-56.5"/>
<text text-anchor="middle" x="320.073" y="-63.5" font-family="Helvetica,sans-Serif" font-size="10.00">ostream</text>
</a>
</g>
</g>
<!-- Node2&#45;&gt;Node17 -->
<g id="edge46" class="edge"><title>Node2&#45;&gt;Node17</title>
<path fill="none" stroke="midnightblue" d="M586.988,-289.539C546.723,-289.141 466.941,-283.014 415.073,-244 360.768,-203.153 334.095,-121.95 324.45,-85.4842"/>
<polygon fill="midnightblue" stroke="midnightblue" points="327.823,-84.5436 321.992,-75.6976 321.034,-86.249 327.823,-84.5436"/>
</g>
<!-- Node2&#45;&gt;Node18 -->
<g id="edge26" class="edge"><title>Node2&#45;&gt;Node18</title>
<path fill="none" stroke="midnightblue" d="M586.933,-285.331C523.863,-276.126 358.522,-251.995 281.995,-240.826"/>
<polygon fill="midnightblue" stroke="midnightblue" points="282.206,-237.32 271.806,-239.339 281.195,-244.247 282.206,-237.32"/>
</g>
<!-- Node27 -->
<g id="node28" class="node"><title>Node27</title>
<g id="a_node28"><a xlink:href="ia_i_d_generator_8h.html" target="_top" xlink:title=" ">
<polygon fill="white" stroke="black" points="737.073,-224.5 737.073,-243.5 821.073,-243.5 821.073,-224.5 737.073,-224.5"/>
<text text-anchor="middle" x="779.073" y="-231.5" font-family="Helvetica,sans-Serif" font-size="10.00">iaIDGenerator.h</text>
</a>
</g>
</g>
<!-- Node2&#45;&gt;Node27 -->
<g id="edge43" class="edge"><title>Node2&#45;&gt;Node27</title>
<path fill="none" stroke="midnightblue" d="M637.075,-280.916C665.073,-271.862 710.704,-257.107 742.663,-246.773"/>
<polygon fill="midnightblue" stroke="midnightblue" points="744.081,-249.994 752.519,-243.587 741.927,-243.333 744.081,-249.994"/>
</g>
<!-- Node28 -->
<g id="node29" class="node"><title>Node28</title>
<g id="a_node29"><a xlink:title=" ">
<polygon fill="white" stroke="#bfbfbf" points="613.073,-224.5 613.073,-243.5 665.073,-243.5 665.073,-224.5 613.073,-224.5"/>
<text text-anchor="middle" x="639.073" y="-231.5" font-family="Helvetica,sans-Serif" font-size="10.00">memory</text>
</a>
</g>
</g>
<!-- Node2&#45;&gt;Node28 -->
<g id="edge48" class="edge"><title>Node2&#45;&gt;Node28</title>
<path fill="none" stroke="midnightblue" d="M616.532,-280.083C620.228,-272.691 625.597,-261.953 630.168,-252.811"/>
<polygon fill="midnightblue" stroke="midnightblue" points="633.356,-254.261 634.698,-243.751 627.095,-251.13 633.356,-254.261"/>
</g>
<!-- Node29 -->
<g id="node30" class="node"><title>Node29</title>
<g id="a_node30"><a xlink:title=" ">
<polygon fill="white" stroke="#bfbfbf" points="683.573,-224.5 683.573,-243.5 718.573,-243.5 718.573,-224.5 683.573,-224.5"/>
<text text-anchor="middle" x="701.073" y="-231.5" font-family="Helvetica,sans-Serif" font-size="10.00">map</text>
</a>
</g>
</g>
<!-- Node2&#45;&gt;Node29 -->
<g id="edge49" class="edge"><title>Node2&#45;&gt;Node29</title>
<path fill="none" stroke="midnightblue" d="M626.373,-280.324C640.256,-271.9 661.566,-258.971 677.877,-249.074"/>
<polygon fill="midnightblue" stroke="midnightblue" points="680.076,-251.834 686.81,-243.655 676.445,-245.85 680.076,-251.834"/>
</g>
<!-- Node3&#45;&gt;Node4 -->
<g id="edge4" class="edge"><title>Node3&#45;&gt;Node4</title>
<path fill="none" stroke="midnightblue" d="M898.358,-224.083C902.784,-216.613 909.237,-205.724 914.691,-196.52"/>
<polygon fill="midnightblue" stroke="midnightblue" points="917.801,-198.138 919.888,-187.751 911.779,-194.57 917.801,-198.138"/>
</g>
<!-- Node3&#45;&gt;Node6 -->
<g id="edge6" class="edge"><title>Node3&#45;&gt;Node6</title>
<path fill="none" stroke="midnightblue" d="M888.611,-224.075C875.433,-197.719 836.512,-119.878 818.904,-84.6608"/>
<polygon fill="midnightblue" stroke="midnightblue" points="821.96,-82.9471 814.357,-75.5681 815.699,-86.0777 821.96,-82.9471"/>
</g>
<!-- Node3&#45;&gt;Node7 -->
<g id="edge8" class="edge"><title>Node3&#45;&gt;Node7</title>
<path fill="none" stroke="midnightblue" d="M875.168,-224.444C856.819,-215.675 828.068,-201.935 806.98,-191.858"/>
<polygon fill="midnightblue" stroke="midnightblue" points="808.427,-188.67 797.895,-187.516 805.408,-194.986 808.427,-188.67"/>
</g>
<!-- Node5 -->
<g id="node6" class="node"><title>Node5</title>
<g id="a_node6"><a xlink:href="ia_defines_8h.html" target="_top" xlink:title=" ">
<polygon fill="white" stroke="black" points="556.573,-0.5 556.573,-19.5 621.573,-19.5 621.573,-0.5 556.573,-0.5"/>
<text text-anchor="middle" x="589.073" y="-7.5" font-family="Helvetica,sans-Serif" font-size="10.00">iaDefines.h</text>
</a>
</g>
</g>
<!-- Node4&#45;&gt;Node5 -->
<g id="edge5" class="edge"><title>Node4&#45;&gt;Node5</title>
<path fill="none" stroke="midnightblue" d="M922.293,-168.212C914.604,-145.465 890.751,-84.4544 848.073,-56 813.362,-32.8569 696.136,-19.8186 631.955,-14.2557"/>
<polygon fill="midnightblue" stroke="midnightblue" points="632.011,-10.7481 621.752,-13.3957 631.423,-17.7234 632.011,-10.7481"/>
</g>
<!-- Node6&#45;&gt;Node5 -->
<g id="edge7" class="edge"><title>Node6&#45;&gt;Node5</title>
<path fill="none" stroke="midnightblue" d="M780.268,-57.7173C741.902,-48.3428 674.999,-31.9955 631.378,-21.3369"/>
<polygon fill="midnightblue" stroke="midnightblue" points="632.178,-17.9293 621.633,-18.9556 630.516,-24.7293 632.178,-17.9293"/>
</g>
<!-- Node8&#45;&gt;Node6 -->
<g id="edge11" class="edge"><title>Node8&#45;&gt;Node6</title>
<path fill="none" stroke="midnightblue" d="M557.288,-228.025C606.468,-218.021 708.599,-191.166 771.073,-132 785.221,-118.602 796.05,-98.9584 802.666,-84.776"/>
<polygon fill="midnightblue" stroke="midnightblue" points="805.888,-86.1431 806.726,-75.5814 799.485,-83.3153 805.888,-86.1431"/>
</g>
<!-- Node8&#45;&gt;Node7 -->
<g id="edge21" class="edge"><title>Node8&#45;&gt;Node7</title>
<path fill="none" stroke="midnightblue" d="M557.082,-226.969C561.753,-225.972 566.549,-224.953 571.073,-224 648.35,-207.727 668.143,-205.839 745.073,-188 746.345,-187.705 747.642,-187.399 748.951,-187.084"/>
<polygon fill="midnightblue" stroke="midnightblue" points="750.151,-190.393 759.014,-184.588 748.466,-183.599 750.151,-190.393"/>
</g>
<!-- Node9 -->
<g id="node10" class="node"><title>Node9</title>
<g id="a_node10"><a xlink:href="ia_delegate_8h.html" target="_top" xlink:title=" ">
<polygon fill="white" stroke="black" points="585.573,-168.5 585.573,-187.5 656.573,-187.5 656.573,-168.5 585.573,-168.5"/>
<text text-anchor="middle" x="621.073" y="-175.5" font-family="Helvetica,sans-Serif" font-size="10.00">iaDelegate.h</text>
</a>
</g>
</g>
<!-- Node8&#45;&gt;Node9 -->
<g id="edge12" class="edge"><title>Node8&#45;&gt;Node9</title>
<path fill="none" stroke="midnightblue" d="M543.855,-224.324C558.34,-215.822 580.647,-202.729 597.567,-192.797"/>
<polygon fill="midnightblue" stroke="midnightblue" points="599.476,-195.735 606.329,-187.655 595.933,-189.698 599.476,-195.735"/>
</g>
<!-- Node8&#45;&gt;Node10 -->
<g id="edge13" class="edge"><title>Node8&#45;&gt;Node10</title>
<path fill="none" stroke="midnightblue" d="M529.734,-224.083C530.258,-217.006 531.01,-206.861 531.667,-197.986"/>
<polygon fill="midnightblue" stroke="midnightblue" points="535.177,-197.982 532.425,-187.751 528.196,-197.465 535.177,-197.982"/>
</g>
<!-- Node11 -->
<g id="node12" class="node"><title>Node11</title>
<g id="a_node12"><a xlink:href="ia_singleton_8h.html" target="_top" xlink:title=" ">
<polygon fill="white" stroke="black" points="689.573,-112.5 689.573,-131.5 762.573,-131.5 762.573,-112.5 689.573,-112.5"/>
<text text-anchor="middle" x="726.073" y="-119.5" font-family="Helvetica,sans-Serif" font-size="10.00">iaSingleton.h</text>
</a>
</g>
</g>
<!-- Node10&#45;&gt;Node11 -->
<g id="edge14" class="edge"><title>Node10&#45;&gt;Node11</title>
<path fill="none" stroke="midnightblue" d="M563.655,-168.444C596.688,-159.201 649.461,-144.436 685.839,-134.257"/>
<polygon fill="midnightblue" stroke="midnightblue" points="686.948,-137.582 695.635,-131.516 685.062,-130.84 686.948,-137.582"/>
</g>
<!-- Node12 -->
<g id="node13" class="node"><title>Node12</title>
<g id="a_node13"><a xlink:href="ia_clock_8h.html" target="_top" xlink:title=" ">
<polygon fill="white" stroke="black" points="560.573,-56.5 560.573,-75.5 617.573,-75.5 617.573,-56.5 560.573,-56.5"/>
<text text-anchor="middle" x="589.073" y="-63.5" font-family="Helvetica,sans-Serif" font-size="10.00">iaClock.h</text>
</a>
</g>
</g>
<!-- Node10&#45;&gt;Node12 -->
<g id="edge16" class="edge"><title>Node10&#45;&gt;Node12</title>
<path fill="none" stroke="midnightblue" d="M541.611,-168.408C549.701,-159.839 561.681,-145.973 569.073,-132 576.838,-117.324 582.107,-99.1579 585.279,-85.7645"/>
<polygon fill="midnightblue" stroke="midnightblue" points="588.737,-86.3354 587.46,-75.8179 581.9,-84.8365 588.737,-86.3354"/>
</g>
<!-- Node13 -->
<g id="node14" class="node"><title>Node13</title>
<g id="a_node14"><a xlink:title=" ">
<polygon fill="white" stroke="#bfbfbf" points="511.573,-112.5 511.573,-131.5 560.573,-131.5 560.573,-112.5 511.573,-112.5"/>
<text text-anchor="middle" x="536.073" y="-119.5" font-family="Helvetica,sans-Serif" font-size="10.00">fstream</text>
</a>
</g>
</g>
<!-- Node10&#45;&gt;Node13 -->
<g id="edge18" class="edge"><title>Node10&#45;&gt;Node13</title>
<path fill="none" stroke="midnightblue" d="M533.569,-168.083C533.962,-161.006 534.526,-150.861 535.019,-141.986"/>
<polygon fill="midnightblue" stroke="midnightblue" points="538.527,-141.93 535.587,-131.751 531.538,-141.542 538.527,-141.93"/>
</g>
<!-- Node14 -->
<g id="node15" class="node"><title>Node14</title>
<g id="a_node15"><a xlink:title=" ">
<polygon fill="white" stroke="#bfbfbf" points="617.073,-112.5 617.073,-131.5 671.073,-131.5 671.073,-112.5 617.073,-112.5"/>
<text text-anchor="middle" x="644.073" y="-119.5" font-family="Helvetica,sans-Serif" font-size="10.00">iostream</text>
</a>
</g>
</g>
<!-- Node10&#45;&gt;Node14 -->
<g id="edge19" class="edge"><title>Node10&#45;&gt;Node14</title>
<path fill="none" stroke="midnightblue" d="M550.908,-168.324C568.789,-159.625 596.548,-146.12 617.119,-136.113"/>
<polygon fill="midnightblue" stroke="midnightblue" points="618.822,-139.177 626.284,-131.655 615.76,-132.882 618.822,-139.177"/>
</g>
<!-- Node15 -->
<g id="node16" class="node"><title>Node15</title>
<g id="a_node16"><a xlink:title=" ">
<polygon fill="white" stroke="#bfbfbf" points="443.073,-112.5 443.073,-131.5 493.073,-131.5 493.073,-112.5 443.073,-112.5"/>
<text text-anchor="middle" x="468.073" y="-119.5" font-family="Helvetica,sans-Serif" font-size="10.00">iomanip</text>
</a>
</g>
</g>
<!-- Node10&#45;&gt;Node15 -->
<g id="edge20" class="edge"><title>Node10&#45;&gt;Node15</title>
<path fill="none" stroke="midnightblue" d="M522.63,-168.324C512.927,-160.263 498.258,-148.077 486.574,-138.369"/>
<polygon fill="midnightblue" stroke="midnightblue" points="488.635,-135.532 478.707,-131.834 484.162,-140.916 488.635,-135.532"/>
</g>
<!-- Node11&#45;&gt;Node6 -->
<g id="edge15" class="edge"><title>Node11&#45;&gt;Node6</title>
<path fill="none" stroke="midnightblue" d="M739.569,-112.324C752.673,-103.9 772.785,-90.9709 788.18,-81.0741"/>
<polygon fill="midnightblue" stroke="midnightblue" points="790.092,-84.0063 796.611,-75.6545 786.306,-78.118 790.092,-84.0063"/>
</g>
<!-- Node12&#45;&gt;Node5 -->
<g id="edge17" class="edge"><title>Node12&#45;&gt;Node5</title>
<path fill="none" stroke="midnightblue" d="M589.073,-56.083C589.073,-49.0059 589.073,-38.8611 589.073,-29.9865"/>
<polygon fill="midnightblue" stroke="midnightblue" points="592.574,-29.751 589.073,-19.7511 585.574,-29.7511 592.574,-29.751"/>
</g>
<!-- Node16&#45;&gt;Node5 -->
<g id="edge23" class="edge"><title>Node16&#45;&gt;Node5</title>
<path fill="none" stroke="midnightblue" d="M448.323,-224.469C437.504,-203.799 413.506,-149.952 434.073,-112 459.009,-65.9889 514.995,-37.6322 552.403,-23.096"/>
<polygon fill="midnightblue" stroke="midnightblue" points="553.809,-26.307 561.951,-19.5275 551.359,-19.75 553.809,-26.307"/>
</g>
<!-- Node16&#45;&gt;Node7 -->
<g id="edge25" class="edge"><title>Node16&#45;&gt;Node7</title>
<path fill="none" stroke="midnightblue" d="M482.413,-225.992C485.665,-225.286 488.935,-224.606 492.073,-224 585.043,-206.034 695.963,-190.291 748.928,-183.119"/>
<polygon fill="midnightblue" stroke="midnightblue" points="749.581,-186.563 759.025,-181.761 748.647,-179.625 749.581,-186.563"/>
</g>
<!-- Node16&#45;&gt;Node17 -->
<g id="edge24" class="edge"><title>Node16&#45;&gt;Node17</title>
<path fill="none" stroke="midnightblue" d="M445.923,-224.075C424.625,-197.493 361.366,-118.538 333.504,-83.7633"/>
<polygon fill="midnightblue" stroke="midnightblue" points="335.922,-81.1838 326.938,-75.5681 330.46,-85.5607 335.922,-81.1838"/>
</g>
<!-- Node18&#45;&gt;Node13 -->
<g id="edge38" class="edge"><title>Node18&#45;&gt;Node13</title>
<path fill="none" stroke="midnightblue" d="M266.977,-224.429C292.642,-215.537 333.772,-201.121 369.073,-188 416.777,-170.27 471.702,-148.659 505.143,-135.366"/>
<polygon fill="midnightblue" stroke="midnightblue" points="506.804,-138.472 514.8,-131.521 504.215,-131.968 506.804,-138.472"/>
</g>
<!-- Node18&#45;&gt;Node15 -->
<g id="edge40" class="edge"><title>Node18&#45;&gt;Node15</title>
<path fill="none" stroke="midnightblue" d="M259.807,-224.368C299.249,-205.171 394.435,-158.842 441.212,-136.074"/>
<polygon fill="midnightblue" stroke="midnightblue" points="442.962,-139.115 450.422,-131.591 439.899,-132.821 442.962,-139.115"/>
</g>
<!-- Node19 -->
<g id="node20" class="node"><title>Node19</title>
<g id="a_node20"><a xlink:href="ia_vector4_8h.html" target="_top" xlink:title=" ">
<polygon fill="white" stroke="black" points="27.0734,-168.5 27.0734,-187.5 93.0734,-187.5 93.0734,-168.5 27.0734,-168.5"/>
<text text-anchor="middle" x="60.0734" y="-175.5" font-family="Helvetica,sans-Serif" font-size="10.00">iaVector4.h</text>
</a>
</g>
</g>
<!-- Node18&#45;&gt;Node19 -->
<g id="edge27" class="edge"><title>Node18&#45;&gt;Node19</title>
<path fill="none" stroke="midnightblue" d="M213.235,-224.444C182.218,-215.241 132.744,-200.562 98.455,-190.388"/>
<polygon fill="midnightblue" stroke="midnightblue" points="99.3595,-187.006 88.777,-187.516 97.3683,-193.716 99.3595,-187.006"/>
</g>
<!-- Node21 -->
<g id="node22" class="node"><title>Node21</title>
<g id="a_node22"><a xlink:title=" ">
<polygon fill="white" stroke="#bfbfbf" points="3.07344,-56.5 3.07344,-75.5 47.0734,-75.5 47.0734,-56.5 3.07344,-56.5"/>
<text text-anchor="middle" x="25.0734" y="-63.5" font-family="Helvetica,sans-Serif" font-size="10.00">cmath</text>
</a>
</g>
</g>
<!-- Node18&#45;&gt;Node21 -->
<g id="edge39" class="edge"><title>Node18&#45;&gt;Node21</title>
<path fill="none" stroke="midnightblue" d="M212.154,-230.985C157.623,-226.689 45.1718,-214.753 18.0734,-188 -6.26169,-163.975 -0.712188,-145.516 6.07344,-112 7.96655,-102.649 11.8651,-92.8267 15.6408,-84.7526"/>
<polygon fill="midnightblue" stroke="midnightblue" points="18.8611,-86.1381 20.1976,-75.6279 12.5985,-83.0106 18.8611,-86.1381"/>
</g>
<!-- Node24 -->
<g id="node25" class="node"><title>Node24</title>
<g id="a_node25"><a xlink:href="ia_quaternion_8h.html" target="_top" xlink:title=" ">
<polygon fill="white" stroke="black" points="111.073,-168.5 111.073,-187.5 191.073,-187.5 191.073,-168.5 111.073,-168.5"/>
<text text-anchor="middle" x="151.073" y="-175.5" font-family="Helvetica,sans-Serif" font-size="10.00">iaQuaternion.h</text>
</a>
</g>
</g>
<!-- Node18&#45;&gt;Node24 -->
<g id="edge34" class="edge"><title>Node18&#45;&gt;Node24</title>
<path fill="none" stroke="midnightblue" d="M227.453,-224.324C213.124,-215.822 191.061,-202.729 174.325,-192.797"/>
<polygon fill="midnightblue" stroke="midnightblue" points="176.044,-189.748 165.658,-187.655 172.472,-195.768 176.044,-189.748"/>
</g>
<!-- Node26 -->
<g id="node27" class="node"><title>Node26</title>
<g id="a_node27"><a xlink:href="ia_matrix_8inl.html" target="_top" xlink:title=" ">
<polygon fill="white" stroke="black" points="209.073,-168.5 209.073,-187.5 273.073,-187.5 273.073,-168.5 209.073,-168.5"/>
<text text-anchor="middle" x="241.073" y="-175.5" font-family="Helvetica,sans-Serif" font-size="10.00">iaMatrix.inl</text>
</a>
</g>
</g>
<!-- Node18&#45;&gt;Node26 -->
<g id="edge41" class="edge"><title>Node18&#45;&gt;Node26</title>
<path fill="none" stroke="midnightblue" d="M241.908,-224.083C241.777,-217.006 241.589,-206.861 241.425,-197.986"/>
<polygon fill="midnightblue" stroke="midnightblue" points="244.92,-197.685 241.235,-187.751 237.921,-197.814 244.92,-197.685"/>
</g>
<!-- Node20 -->
<g id="node21" class="node"><title>Node20</title>
<g id="a_node21"><a xlink:href="ia_vector3_8h.html" target="_top" xlink:title=" ">
<polygon fill="white" stroke="black" points="105.073,-112.5 105.073,-131.5 171.073,-131.5 171.073,-112.5 105.073,-112.5"/>
<text text-anchor="middle" x="138.073" y="-119.5" font-family="Helvetica,sans-Serif" font-size="10.00">iaVector3.h</text>
</a>
</g>
</g>
<!-- Node19&#45;&gt;Node20 -->
<g id="edge28" class="edge"><title>Node19&#45;&gt;Node20</title>
<path fill="none" stroke="midnightblue" d="M72.6055,-168.324C84.6594,-159.979 103.1,-147.212 117.342,-137.352"/>
<polygon fill="midnightblue" stroke="midnightblue" points="119.343,-140.224 125.572,-131.655 115.358,-134.469 119.343,-140.224"/>
</g>
<!-- Node23 -->
<g id="node24" class="node"><title>Node23</title>
<g id="a_node24"><a xlink:href="ia_vector4_8inl.html" target="_top" xlink:title=" ">
<polygon fill="white" stroke="black" points="15.5734,-112.5 15.5734,-131.5 86.5734,-131.5 86.5734,-112.5 15.5734,-112.5"/>
<text text-anchor="middle" x="51.0734" y="-119.5" font-family="Helvetica,sans-Serif" font-size="10.00">iaVector4.inl</text>
</a>
</g>
</g>
<!-- Node19&#45;&gt;Node23 -->
<g id="edge33" class="edge"><title>Node19&#45;&gt;Node23</title>
<path fill="none" stroke="midnightblue" d="M58.5873,-168.083C57.3946,-160.927 55.6793,-150.635 54.1886,-141.691"/>
<polygon fill="midnightblue" stroke="midnightblue" points="57.6284,-141.04 52.5319,-131.751 50.7236,-142.19 57.6284,-141.04"/>
</g>
<!-- Node20&#45;&gt;Node5 -->
<g id="edge29" class="edge"><title>Node20&#45;&gt;Node5</title>
<path fill="none" stroke="midnightblue" d="M153.852,-112.314C180.207,-98.202 235.216,-70.4255 285.073,-56 375.967,-29.7012 486.825,-18.2435 546.362,-13.6856"/>
<polygon fill="midnightblue" stroke="midnightblue" points="546.8,-17.1629 556.515,-12.9375 546.285,-10.1818 546.8,-17.1629"/>
</g>
<!-- Node20&#45;&gt;Node17 -->
<g id="edge31" class="edge"><title>Node20&#45;&gt;Node17</title>
<path fill="none" stroke="midnightblue" d="M166.912,-112.444C198.75,-102.997 250.035,-87.7807 284.382,-77.5897"/>
<polygon fill="midnightblue" stroke="midnightblue" points="285.432,-80.929 294.024,-74.729 283.441,-74.2182 285.432,-80.929"/>
</g>
<!-- Node20&#45;&gt;Node21 -->
<g id="edge30" class="edge"><title>Node20&#45;&gt;Node21</title>
<path fill="none" stroke="midnightblue" d="M120.168,-112.444C101.819,-103.675 73.068,-89.9355 51.9799,-79.8579"/>
<polygon fill="midnightblue" stroke="midnightblue" points="53.4267,-76.6703 42.8949,-75.5164 50.4084,-82.9862 53.4267,-76.6703"/>
</g>
<!-- Node22 -->
<g id="node23" class="node"><title>Node22</title>
<g id="a_node23"><a xlink:href="ia_vector3_8inl.html" target="_top" xlink:title=" ">
<polygon fill="white" stroke="black" points="102.573,-56.5 102.573,-75.5 173.573,-75.5 173.573,-56.5 102.573,-56.5"/>
<text text-anchor="middle" x="138.073" y="-63.5" font-family="Helvetica,sans-Serif" font-size="10.00">iaVector3.inl</text>
</a>
</g>
</g>
<!-- Node20&#45;&gt;Node22 -->
<g id="edge32" class="edge"><title>Node20&#45;&gt;Node22</title>
<path fill="none" stroke="midnightblue" d="M138.073,-112.083C138.073,-105.006 138.073,-94.8611 138.073,-85.9865"/>
<polygon fill="midnightblue" stroke="midnightblue" points="141.574,-85.751 138.073,-75.7511 134.574,-85.7511 141.574,-85.751"/>
</g>
<!-- Node24&#45;&gt;Node17 -->
<g id="edge36" class="edge"><title>Node24&#45;&gt;Node17</title>
<path fill="none" stroke="midnightblue" d="M184.067,-168.5C217.648,-159.358 266.866,-144.458 282.073,-132 297.045,-119.735 307.41,-99.9144 313.489,-85.3806"/>
<polygon fill="midnightblue" stroke="midnightblue" points="316.807,-86.5046 317.162,-75.9157 310.281,-83.972 316.807,-86.5046"/>
</g>
<!-- Node24&#45;&gt;Node20 -->
<g id="edge35" class="edge"><title>Node24&#45;&gt;Node20</title>
<path fill="none" stroke="midnightblue" d="M148.927,-168.083C147.204,-160.927 144.726,-150.635 142.573,-141.691"/>
<polygon fill="midnightblue" stroke="midnightblue" points="145.924,-140.654 140.18,-131.751 139.118,-142.293 145.924,-140.654"/>
</g>
<!-- Node25 -->
<g id="node26" class="node"><title>Node25</title>
<g id="a_node26"><a xlink:href="ia_quaternion_8inl.html" target="_top" xlink:title=" ">
<polygon fill="white" stroke="black" points="189.073,-112.5 189.073,-131.5 273.073,-131.5 273.073,-112.5 189.073,-112.5"/>
<text text-anchor="middle" x="231.073" y="-119.5" font-family="Helvetica,sans-Serif" font-size="10.00">iaQuaternion.inl</text>
</a>
</g>
</g>
<!-- Node24&#45;&gt;Node25 -->
<g id="edge37" class="edge"><title>Node24&#45;&gt;Node25</title>
<path fill="none" stroke="midnightblue" d="M163.927,-168.324C176.29,-159.979 195.204,-147.212 209.811,-137.352"/>
<polygon fill="midnightblue" stroke="midnightblue" points="211.922,-140.15 218.252,-131.655 208.005,-134.348 211.922,-140.15"/>
</g>
<!-- Node27&#45;&gt;Node6 -->
<g id="edge44" class="edge"><title>Node27&#45;&gt;Node6</title>
<path fill="none" stroke="midnightblue" d="M787.556,-224.234C795.127,-215.75 805.677,-202.131 810.073,-188 820.902,-153.194 817.051,-109.981 813.446,-85.7487"/>
<polygon fill="midnightblue" stroke="midnightblue" points="816.882,-85.0746 811.81,-75.7725 809.974,-86.207 816.882,-85.0746"/>
</g>
<!-- Node27&#45;&gt;Node7 -->
<g id="edge45" class="edge"><title>Node27&#45;&gt;Node7</title>
<path fill="none" stroke="midnightblue" d="M779.239,-224.083C779.37,-217.006 779.557,-206.861 779.722,-197.986"/>
<polygon fill="midnightblue" stroke="midnightblue" points="783.226,-197.814 779.911,-187.751 776.227,-197.685 783.226,-197.814"/>
</g>
</g>
</svg>
