<?xml version="1.0" encoding="UTF-8" standalone="no"?>
<!DOCTYPE svg PUBLIC "-//W3C//DTD SVG 1.1//EN"
 "http://www.w3.org/Graphics/SVG/1.1/DTD/svg11.dtd">
<!-- Generated by graphviz version 2.38.0 (20140413.2041)
 -->
<!-- Title: C:/dev/Igor/src/Igor/src/iNodeVisitorSearchName.h Pages: 1 -->
<svg width="1104pt" height="431pt"
 viewBox="0.00 0.00 1103.50 431.00" xmlns="http://www.w3.org/2000/svg" xmlns:xlink="http://www.w3.org/1999/xlink">
<g id="graph0" class="graph" transform="scale(1 1) rotate(0) translate(4 427)">
<title>C:/dev/Igor/src/Igor/src/iNodeVisitorSearchName.h</title>
<polygon fill="white" stroke="none" points="-4,4 -4,-427 1099.5,-427 1099.5,4 -4,4"/>
<!-- Node1 -->
<g id="node1" class="node"><title>Node1</title>
<polygon fill="#bfbfbf" stroke="black" points="895,-392.5 895,-422.5 1048,-422.5 1048,-392.5 895,-392.5"/>
<text text-anchor="start" x="903" y="-410.5" font-family="Helvetica,sans-Serif" font-size="10.00">C:/dev/Igor/src/Igor</text>
<text text-anchor="middle" x="971.5" y="-399.5" font-family="Helvetica,sans-Serif" font-size="10.00">/src/iNodeVisitorSearchName.h</text>
</g>
<!-- Node2 -->
<g id="node2" class="node"><title>Node2</title>
<g id="a_node2"><a xlink:href="ia_string_8h.html" target="_top" xlink:title="iaString.h">
<polygon fill="white" stroke="black" points="1037.5,-224.5 1037.5,-243.5 1095.5,-243.5 1095.5,-224.5 1037.5,-224.5"/>
<text text-anchor="middle" x="1066.5" y="-231.5" font-family="Helvetica,sans-Serif" font-size="10.00">iaString.h</text>
</a>
</g>
</g>
<!-- Node1&#45;&gt;Node2 -->
<g id="edge1" class="edge"><title>Node1&#45;&gt;Node2</title>
<path fill="none" stroke="midnightblue" d="M979.274,-392.465C996.537,-361.302 1038.02,-286.407 1056.88,-252.365"/>
<polygon fill="midnightblue" stroke="midnightblue" points="1059.97,-254.003 1061.76,-243.56 1053.85,-250.611 1059.97,-254.003"/>
</g>
<!-- Node5 -->
<g id="node5" class="node"><title>Node5</title>
<polygon fill="white" stroke="#bfbfbf" points="861.5,-168.5 861.5,-187.5 903.5,-187.5 903.5,-168.5 861.5,-168.5"/>
<text text-anchor="middle" x="882.5" y="-175.5" font-family="Helvetica,sans-Serif" font-size="10.00">vector</text>
</g>
<!-- Node1&#45;&gt;Node5 -->
<g id="edge53" class="edge"><title>Node1&#45;&gt;Node5</title>
<path fill="none" stroke="midnightblue" d="M973.892,-392.4C978.631,-359.938 986.054,-278.533 952.5,-224 943.37,-209.162 927.31,-198.318 912.874,-190.998"/>
<polygon fill="midnightblue" stroke="midnightblue" points="914.25,-187.777 903.711,-186.69 911.272,-194.112 914.25,-187.777"/>
</g>
<!-- Node6 -->
<g id="node6" class="node"><title>Node6</title>
<g id="a_node6"><a xlink:href="i_node_visitor_8h.html" target="_top" xlink:title="iNodeVisitor.h">
<polygon fill="white" stroke="black" points="527,-336.5 527,-355.5 604,-355.5 604,-336.5 527,-336.5"/>
<text text-anchor="middle" x="565.5" y="-343.5" font-family="Helvetica,sans-Serif" font-size="10.00">iNodeVisitor.h</text>
</a>
</g>
</g>
<!-- Node1&#45;&gt;Node6 -->
<g id="edge5" class="edge"><title>Node1&#45;&gt;Node6</title>
<path fill="none" stroke="midnightblue" d="M894.657,-395.239C812.221,-383.157 683.797,-364.337 614.24,-354.143"/>
<polygon fill="midnightblue" stroke="midnightblue" points="614.41,-350.63 604.008,-352.643 613.395,-357.557 614.41,-350.63"/>
</g>
<!-- Node3 -->
<g id="node3" class="node"><title>Node3</title>
<g id="a_node3"><a xlink:href="ia_defines_8h.html" target="_top" xlink:title="iaDefines.h">
<polygon fill="white" stroke="black" points="523,-0.5 523,-19.5 588,-19.5 588,-0.5 523,-0.5"/>
<text text-anchor="middle" x="555.5" y="-7.5" font-family="Helvetica,sans-Serif" font-size="10.00">iaDefines.h</text>
</a>
</g>
</g>
<!-- Node2&#45;&gt;Node3 -->
<g id="edge2" class="edge"><title>Node2&#45;&gt;Node3</title>
<path fill="none" stroke="midnightblue" d="M1058.7,-224.304C1031.33,-194.457 935.741,-95.834 833.5,-56 754.323,-25.1521 654.521,-15.4487 598.591,-12.3978"/>
<polygon fill="midnightblue" stroke="midnightblue" points="598.503,-8.88918 588.341,-11.887 598.155,-15.8805 598.503,-8.88918"/>
</g>
<!-- Node4 -->
<g id="node4" class="node"><title>Node4</title>
<polygon fill="white" stroke="#bfbfbf" points="405.5,-56.5 405.5,-75.5 457.5,-75.5 457.5,-56.5 405.5,-56.5"/>
<text text-anchor="middle" x="431.5" y="-63.5" font-family="Helvetica,sans-Serif" font-size="10.00">ostream</text>
</g>
<!-- Node2&#45;&gt;Node4 -->
<g id="edge3" class="edge"><title>Node2&#45;&gt;Node4</title>
<path fill="none" stroke="midnightblue" d="M1052.64,-224.491C1015.1,-201.885 907.629,-140.139 809.5,-112 793.173,-107.318 559.237,-81.1288 467.774,-71.0001"/>
<polygon fill="midnightblue" stroke="midnightblue" points="467.927,-67.4957 457.602,-69.8748 467.157,-74.4532 467.927,-67.4957"/>
</g>
<!-- Node2&#45;&gt;Node5 -->
<g id="edge4" class="edge"><title>Node2&#45;&gt;Node5</title>
<path fill="none" stroke="midnightblue" d="M1037.34,-224.444C1003.55,-214.525 948.083,-198.247 913.516,-188.103"/>
<polygon fill="midnightblue" stroke="midnightblue" points="914.087,-184.623 903.506,-185.165 912.116,-191.339 914.087,-184.623"/>
</g>
<!-- Node7 -->
<g id="node7" class="node"><title>Node7</title>
<g id="a_node7"><a xlink:href="i_defines_8h.html" target="_top" xlink:title="iDefines.h">
<polygon fill="white" stroke="black" points="0,-168.5 0,-187.5 59,-187.5 59,-168.5 0,-168.5"/>
<text text-anchor="middle" x="29.5" y="-175.5" font-family="Helvetica,sans-Serif" font-size="10.00">iDefines.h</text>
</a>
</g>
</g>
<!-- Node6&#45;&gt;Node7 -->
<g id="edge6" class="edge"><title>Node6&#45;&gt;Node7</title>
<path fill="none" stroke="midnightblue" d="M534.031,-336.441C501.886,-327.617 450.58,-313.307 406.5,-300 280.061,-261.83 131.051,-212.796 64.5738,-190.707"/>
<polygon fill="midnightblue" stroke="midnightblue" points="65.5963,-187.359 55.0028,-187.524 63.3869,-194.001 65.5963,-187.359"/>
</g>
<!-- Node8 -->
<g id="node8" class="node"><title>Node8</title>
<g id="a_node8"><a xlink:href="i_node_8h.html" target="_top" xlink:title="iNode.h">
<polygon fill="white" stroke="black" points="630.5,-280.5 630.5,-299.5 680.5,-299.5 680.5,-280.5 630.5,-280.5"/>
<text text-anchor="middle" x="655.5" y="-287.5" font-family="Helvetica,sans-Serif" font-size="10.00">iNode.h</text>
</a>
</g>
</g>
<!-- Node6&#45;&gt;Node8 -->
<g id="edge8" class="edge"><title>Node6&#45;&gt;Node8</title>
<path fill="none" stroke="midnightblue" d="M579.96,-336.324C594,-327.9 615.548,-314.971 632.043,-305.074"/>
<polygon fill="midnightblue" stroke="midnightblue" points="634.302,-307.801 641.076,-299.655 630.7,-301.798 634.302,-307.801"/>
</g>
<!-- Node29 -->
<g id="node29" class="node"><title>Node29</title>
<polygon fill="white" stroke="#bfbfbf" points="276.5,-224.5 276.5,-243.5 328.5,-243.5 328.5,-224.5 276.5,-224.5"/>
<text text-anchor="middle" x="302.5" y="-231.5" font-family="Helvetica,sans-Serif" font-size="10.00">memory</text>
</g>
<!-- Node6&#45;&gt;Node29 -->
<g id="edge52" class="edge"><title>Node6&#45;&gt;Node29</title>
<path fill="none" stroke="midnightblue" d="M544.863,-336.368C498.58,-317.01 386.336,-270.065 332.404,-247.507"/>
<polygon fill="midnightblue" stroke="midnightblue" points="333.617,-244.221 323.041,-243.591 330.916,-250.679 333.617,-244.221"/>
</g>
<!-- Node7&#45;&gt;Node3 -->
<g id="edge7" class="edge"><title>Node7&#45;&gt;Node3</title>
<path fill="none" stroke="midnightblue" d="M31.0748,-168.413C35.7544,-145.614 51.8674,-83.4313 92.5,-56 126.873,-32.7947 404.173,-17.8567 512.429,-12.8588"/>
<polygon fill="midnightblue" stroke="midnightblue" points="512.836,-16.344 522.666,-12.3927 512.518,-9.3513 512.836,-16.344"/>
</g>
<!-- Node8&#45;&gt;Node2 -->
<g id="edge27" class="edge"><title>Node8&#45;&gt;Node2</title>
<path fill="none" stroke="midnightblue" d="M680.592,-286.671C740.261,-280.973 895.228,-265.227 1023.5,-244 1024.77,-243.79 1026.06,-243.568 1027.36,-243.338"/>
<polygon fill="midnightblue" stroke="midnightblue" points="1028.24,-246.733 1037.42,-241.435 1026.94,-239.855 1028.24,-246.733"/>
</g>
<!-- Node8&#45;&gt;Node4 -->
<g id="edge48" class="edge"><title>Node8&#45;&gt;Node4</title>
<path fill="none" stroke="midnightblue" d="M648.078,-280.17C638.187,-267.262 623.075,-242.74 633.5,-224 648.249,-197.487 668.677,-207.99 691.5,-188 721.202,-161.986 763.308,-141.881 737.5,-112 728.725,-101.84 546.858,-80.0852 467.739,-71.0568"/>
<polygon fill="midnightblue" stroke="midnightblue" points="468.059,-67.5708 457.728,-69.9199 467.269,-74.5261 468.059,-67.5708"/>
</g>
<!-- Node8&#45;&gt;Node5 -->
<g id="edge49" class="edge"><title>Node8&#45;&gt;Node5</title>
<path fill="none" stroke="midnightblue" d="M680.649,-285.398C712.678,-280.017 768.967,-267.851 811.5,-244 834.164,-231.291 855.489,-210.042 868.74,-195.315"/>
<polygon fill="midnightblue" stroke="midnightblue" points="871.614,-197.345 875.559,-187.512 866.343,-192.739 871.614,-197.345"/>
</g>
<!-- Node8&#45;&gt;Node7 -->
<g id="edge14" class="edge"><title>Node8&#45;&gt;Node7</title>
<path fill="none" stroke="midnightblue" d="M630.129,-287.678C580.187,-284.48 466.109,-274.22 375.5,-244 357.395,-237.962 355.676,-229.822 337.5,-224 224.726,-187.875 190.239,-207.876 73.5,-188 72.0588,-187.755 70.5927,-187.497 69.113,-187.23"/>
<polygon fill="midnightblue" stroke="midnightblue" points="69.7482,-183.788 59.2718,-185.368 68.4467,-190.666 69.7482,-183.788"/>
</g>
<!-- Node9 -->
<g id="node9" class="node"><title>Node9</title>
<g id="a_node9"><a xlink:href="i_data_update_queue_8h.html" target="_top" xlink:title="iDataUpdateQueue.h">
<polygon fill="white" stroke="black" points="643,-224.5 643,-243.5 750,-243.5 750,-224.5 643,-224.5"/>
<text text-anchor="middle" x="696.5" y="-231.5" font-family="Helvetica,sans-Serif" font-size="10.00">iDataUpdateQueue.h</text>
</a>
</g>
</g>
<!-- Node8&#45;&gt;Node9 -->
<g id="edge9" class="edge"><title>Node8&#45;&gt;Node9</title>
<path fill="none" stroke="midnightblue" d="M662.27,-280.083C668.062,-272.455 676.558,-261.264 683.638,-251.941"/>
<polygon fill="midnightblue" stroke="midnightblue" points="686.596,-253.832 689.856,-243.751 681.021,-249.599 686.596,-253.832"/>
</g>
<!-- Node10 -->
<g id="node10" class="node"><title>Node10</title>
<g id="a_node10"><a xlink:href="ia_mutex_8h.html" target="_top" xlink:title="iaMutex.h">
<polygon fill="white" stroke="black" points="766,-56.5 766,-75.5 825,-75.5 825,-56.5 766,-56.5"/>
<text text-anchor="middle" x="795.5" y="-63.5" font-family="Helvetica,sans-Serif" font-size="10.00">iaMutex.h</text>
</a>
</g>
</g>
<!-- Node8&#45;&gt;Node10 -->
<g id="edge44" class="edge"><title>Node8&#45;&gt;Node10</title>
<path fill="none" stroke="midnightblue" d="M680.581,-289.183C745.675,-289.069 917.393,-284.827 952.5,-244 994.516,-195.138 941.079,-154.343 892.5,-112 875.578,-97.2502 853,-86.3943 833.885,-79.0447"/>
<polygon fill="midnightblue" stroke="midnightblue" points="834.846,-75.6697 824.253,-75.5189 832.44,-82.2432 834.846,-75.6697"/>
</g>
<!-- Node11 -->
<g id="node11" class="node"><title>Node11</title>
<g id="a_node11"><a xlink:href="ia_event_8h.html" target="_top" xlink:title="iaEvent.h">
<polygon fill="white" stroke="black" points="530.5,-224.5 530.5,-243.5 586.5,-243.5 586.5,-224.5 530.5,-224.5"/>
<text text-anchor="middle" x="558.5" y="-231.5" font-family="Helvetica,sans-Serif" font-size="10.00">iaEvent.h</text>
</a>
</g>
</g>
<!-- Node8&#45;&gt;Node11 -->
<g id="edge15" class="edge"><title>Node8&#45;&gt;Node11</title>
<path fill="none" stroke="midnightblue" d="M639.915,-280.324C624.501,-271.743 600.688,-258.486 582.79,-248.522"/>
<polygon fill="midnightblue" stroke="midnightblue" points="584.486,-245.461 574.046,-243.655 581.081,-251.577 584.486,-245.461"/>
</g>
<!-- Node19 -->
<g id="node19" class="node"><title>Node19</title>
<g id="a_node19"><a xlink:href="ia_matrix_8h.html" target="_top" xlink:title="iaMatrix.h">
<polygon fill="white" stroke="black" points="385,-224.5 385,-243.5 444,-243.5 444,-224.5 385,-224.5"/>
<text text-anchor="middle" x="414.5" y="-231.5" font-family="Helvetica,sans-Serif" font-size="10.00">iaMatrix.h</text>
</a>
</g>
</g>
<!-- Node8&#45;&gt;Node19 -->
<g id="edge28" class="edge"><title>Node8&#45;&gt;Node19</title>
<path fill="none" stroke="midnightblue" d="M630.164,-283.323C588.218,-273.924 504.033,-255.061 454.154,-243.885"/>
<polygon fill="midnightblue" stroke="midnightblue" points="454.882,-240.461 444.358,-241.69 453.351,-247.292 454.882,-240.461"/>
</g>
<!-- Node28 -->
<g id="node28" class="node"><title>Node28</title>
<g id="a_node28"><a xlink:href="ia_i_d_generator_8h.html" target="_top" xlink:title="iaIDGenerator.h">
<polygon fill="white" stroke="black" points="859.5,-224.5 859.5,-243.5 943.5,-243.5 943.5,-224.5 859.5,-224.5"/>
<text text-anchor="middle" x="901.5" y="-231.5" font-family="Helvetica,sans-Serif" font-size="10.00">iaIDGenerator.h</text>
</a>
</g>
</g>
<!-- Node8&#45;&gt;Node28 -->
<g id="edge45" class="edge"><title>Node8&#45;&gt;Node28</title>
<path fill="none" stroke="midnightblue" d="M680.9,-283.424C721.295,-274.557 800.888,-257.086 852.608,-245.732"/>
<polygon fill="midnightblue" stroke="midnightblue" points="853.544,-249.11 862.561,-243.548 852.043,-242.273 853.544,-249.11"/>
</g>
<!-- Node8&#45;&gt;Node29 -->
<g id="edge50" class="edge"><title>Node8&#45;&gt;Node29</title>
<path fill="none" stroke="midnightblue" d="M630.236,-286.051C576.879,-279.673 448.864,-263.581 342.5,-244 341.24,-243.768 339.959,-243.524 338.667,-243.271"/>
<polygon fill="midnightblue" stroke="midnightblue" points="339.192,-239.806 328.69,-241.202 337.77,-246.66 339.192,-239.806"/>
</g>
<!-- Node30 -->
<g id="node30" class="node"><title>Node30</title>
<polygon fill="white" stroke="#bfbfbf" points="768,-224.5 768,-243.5 803,-243.5 803,-224.5 768,-224.5"/>
<text text-anchor="middle" x="785.5" y="-231.5" font-family="Helvetica,sans-Serif" font-size="10.00">map</text>
</g>
<!-- Node8&#45;&gt;Node30 -->
<g id="edge51" class="edge"><title>Node8&#45;&gt;Node30</title>
<path fill="none" stroke="midnightblue" d="M676.099,-280.444C698.374,-271.191 733.976,-256.402 758.482,-246.223"/>
<polygon fill="midnightblue" stroke="midnightblue" points="760.024,-249.373 767.916,-242.304 757.338,-242.908 760.024,-249.373"/>
</g>
<!-- Node9&#45;&gt;Node5 -->
<g id="edge13" class="edge"><title>Node9&#45;&gt;Node5</title>
<path fill="none" stroke="midnightblue" d="M725.972,-224.444C760.282,-214.483 816.688,-198.107 851.598,-187.972"/>
<polygon fill="midnightblue" stroke="midnightblue" points="852.638,-191.314 861.265,-185.165 850.686,-184.592 852.638,-191.314"/>
</g>
<!-- Node9&#45;&gt;Node7 -->
<g id="edge10" class="edge"><title>Node9&#45;&gt;Node7</title>
<path fill="none" stroke="midnightblue" d="M642.781,-228.117C627.505,-226.755 610.849,-225.294 595.5,-224 398.063,-207.355 161.735,-189.106 69.3063,-182.034"/>
<polygon fill="midnightblue" stroke="midnightblue" points="69.5092,-178.539 59.2714,-181.266 68.9755,-185.519 69.5092,-178.539"/>
</g>
<!-- Node9&#45;&gt;Node10 -->
<g id="edge11" class="edge"><title>Node9&#45;&gt;Node10</title>
<path fill="none" stroke="midnightblue" d="M750.055,-225.132C772.312,-218.929 796.048,-207.836 809.5,-188 830.781,-156.619 815.385,-109.841 804.249,-84.6269"/>
<polygon fill="midnightblue" stroke="midnightblue" points="807.401,-83.106 799.995,-75.5297 801.06,-86.0708 807.401,-83.106"/>
</g>
<!-- Node10&#45;&gt;Node3 -->
<g id="edge12" class="edge"><title>Node10&#45;&gt;Node3</title>
<path fill="none" stroke="midnightblue" d="M765.589,-58.27C723.357,-48.7677 646.041,-31.3718 597.901,-20.5401"/>
<polygon fill="midnightblue" stroke="midnightblue" points="598.618,-17.1142 588.094,-18.3336 597.082,-23.9434 598.618,-17.1142"/>
</g>
<!-- Node11&#45;&gt;Node5 -->
<g id="edge26" class="edge"><title>Node11&#45;&gt;Node5</title>
<path fill="none" stroke="midnightblue" d="M586.686,-228.302C646.94,-218.26 787.915,-194.764 851.005,-184.249"/>
<polygon fill="midnightblue" stroke="midnightblue" points="851.853,-187.656 861.142,-182.56 850.702,-180.751 851.853,-187.656"/>
</g>
<!-- Node11&#45;&gt;Node10 -->
<g id="edge16" class="edge"><title>Node11&#45;&gt;Node10</title>
<path fill="none" stroke="midnightblue" d="M586.742,-225.349C620.371,-215.913 674.172,-199.691 691.5,-188 733.241,-159.838 768.14,-110.662 784.869,-84.5141"/>
<polygon fill="midnightblue" stroke="midnightblue" points="788.037,-86.0476 790.367,-75.712 782.1,-82.3392 788.037,-86.0476"/>
</g>
<!-- Node12 -->
<g id="node12" class="node"><title>Node12</title>
<g id="a_node12"><a xlink:href="ia_delegate_8h.html" target="_top" xlink:title="iaDelegate.h">
<polygon fill="white" stroke="black" points="525,-168.5 525,-187.5 596,-187.5 596,-168.5 525,-168.5"/>
<text text-anchor="middle" x="560.5" y="-175.5" font-family="Helvetica,sans-Serif" font-size="10.00">iaDelegate.h</text>
</a>
</g>
</g>
<!-- Node11&#45;&gt;Node12 -->
<g id="edge17" class="edge"><title>Node11&#45;&gt;Node12</title>
<path fill="none" stroke="midnightblue" d="M558.83,-224.083C559.092,-217.006 559.468,-206.861 559.797,-197.986"/>
<polygon fill="midnightblue" stroke="midnightblue" points="563.303,-197.874 560.176,-187.751 556.308,-197.615 563.303,-197.874"/>
</g>
<!-- Node13 -->
<g id="node13" class="node"><title>Node13</title>
<g id="a_node13"><a xlink:href="ia_console_8h.html" target="_top" xlink:title="iaConsole.h">
<polygon fill="white" stroke="black" points="614.5,-168.5 614.5,-187.5 682.5,-187.5 682.5,-168.5 614.5,-168.5"/>
<text text-anchor="middle" x="648.5" y="-175.5" font-family="Helvetica,sans-Serif" font-size="10.00">iaConsole.h</text>
</a>
</g>
</g>
<!-- Node11&#45;&gt;Node13 -->
<g id="edge18" class="edge"><title>Node11&#45;&gt;Node13</title>
<path fill="none" stroke="midnightblue" d="M572.96,-224.324C587,-215.9 608.548,-202.971 625.043,-193.074"/>
<polygon fill="midnightblue" stroke="midnightblue" points="627.302,-195.801 634.076,-187.655 623.7,-189.798 627.302,-195.801"/>
</g>
<!-- Node14 -->
<g id="node14" class="node"><title>Node14</title>
<g id="a_node14"><a xlink:href="ia_singleton_8h.html" target="_top" xlink:title="iaSingleton.h">
<polygon fill="white" stroke="black" points="656,-112.5 656,-131.5 729,-131.5 729,-112.5 656,-112.5"/>
<text text-anchor="middle" x="692.5" y="-119.5" font-family="Helvetica,sans-Serif" font-size="10.00">iaSingleton.h</text>
</a>
</g>
</g>
<!-- Node13&#45;&gt;Node14 -->
<g id="edge19" class="edge"><title>Node13&#45;&gt;Node14</title>
<path fill="none" stroke="midnightblue" d="M655.766,-168.083C662.045,-160.377 671.288,-149.033 678.931,-139.653"/>
<polygon fill="midnightblue" stroke="midnightblue" points="681.766,-141.714 685.369,-131.751 676.339,-137.293 681.766,-141.714"/>
</g>
<!-- Node15 -->
<g id="node15" class="node"><title>Node15</title>
<g id="a_node15"><a xlink:href="ia_clock_8h.html" target="_top" xlink:title="iaClock.h">
<polygon fill="white" stroke="black" points="527,-56.5 527,-75.5 584,-75.5 584,-56.5 527,-56.5"/>
<text text-anchor="middle" x="555.5" y="-63.5" font-family="Helvetica,sans-Serif" font-size="10.00">iaClock.h</text>
</a>
</g>
</g>
<!-- Node13&#45;&gt;Node15 -->
<g id="edge21" class="edge"><title>Node13&#45;&gt;Node15</title>
<path fill="none" stroke="midnightblue" d="M625.624,-168.409C609.144,-161.102 587.588,-149.06 574.5,-132 564.223,-118.604 559.497,-99.7827 557.328,-85.8385"/>
<polygon fill="midnightblue" stroke="midnightblue" points="560.799,-85.3841 556.08,-75.8981 553.853,-86.2562 560.799,-85.3841"/>
</g>
<!-- Node16 -->
<g id="node16" class="node"><title>Node16</title>
<polygon fill="white" stroke="#bfbfbf" points="478,-112.5 478,-131.5 527,-131.5 527,-112.5 478,-112.5"/>
<text text-anchor="middle" x="502.5" y="-119.5" font-family="Helvetica,sans-Serif" font-size="10.00">fstream</text>
</g>
<!-- Node13&#45;&gt;Node16 -->
<g id="edge23" class="edge"><title>Node13&#45;&gt;Node16</title>
<path fill="none" stroke="midnightblue" d="M625.366,-168.444C601.018,-159.438 562.493,-145.189 535.077,-135.049"/>
<polygon fill="midnightblue" stroke="midnightblue" points="536.119,-131.703 525.526,-131.516 533.691,-138.268 536.119,-131.703"/>
</g>
<!-- Node17 -->
<g id="node17" class="node"><title>Node17</title>
<polygon fill="white" stroke="#bfbfbf" points="583.5,-112.5 583.5,-131.5 637.5,-131.5 637.5,-112.5 583.5,-112.5"/>
<text text-anchor="middle" x="610.5" y="-119.5" font-family="Helvetica,sans-Serif" font-size="10.00">iostream</text>
</g>
<!-- Node13&#45;&gt;Node17 -->
<g id="edge24" class="edge"><title>Node13&#45;&gt;Node17</title>
<path fill="none" stroke="midnightblue" d="M642.225,-168.083C636.858,-160.455 628.982,-149.264 622.421,-139.941"/>
<polygon fill="midnightblue" stroke="midnightblue" points="625.275,-137.915 616.658,-131.751 619.551,-141.943 625.275,-137.915"/>
</g>
<!-- Node18 -->
<g id="node18" class="node"><title>Node18</title>
<polygon fill="white" stroke="#bfbfbf" points="409.5,-112.5 409.5,-131.5 459.5,-131.5 459.5,-112.5 409.5,-112.5"/>
<text text-anchor="middle" x="434.5" y="-119.5" font-family="Helvetica,sans-Serif" font-size="10.00">iomanip</text>
</g>
<!-- Node13&#45;&gt;Node18 -->
<g id="edge25" class="edge"><title>Node13&#45;&gt;Node18</title>
<path fill="none" stroke="midnightblue" d="M614.292,-168.597C580.038,-160.15 525.563,-146.627 469.486,-132.229"/>
<polygon fill="midnightblue" stroke="midnightblue" points="470.298,-128.824 459.741,-129.723 468.554,-135.604 470.298,-128.824"/>
</g>
<!-- Node14&#45;&gt;Node10 -->
<g id="edge20" class="edge"><title>Node14&#45;&gt;Node10</title>
<path fill="none" stroke="midnightblue" d="M709.049,-112.324C725.492,-103.703 750.935,-90.3643 769.968,-80.3855"/>
<polygon fill="midnightblue" stroke="midnightblue" points="771.761,-83.3977 778.992,-75.6545 768.511,-77.198 771.761,-83.3977"/>
</g>
<!-- Node15&#45;&gt;Node3 -->
<g id="edge22" class="edge"><title>Node15&#45;&gt;Node3</title>
<path fill="none" stroke="midnightblue" d="M555.5,-56.083C555.5,-49.0059 555.5,-38.8611 555.5,-29.9865"/>
<polygon fill="midnightblue" stroke="midnightblue" points="559,-29.751 555.5,-19.7511 552,-29.7511 559,-29.751"/>
</g>
<!-- Node19&#45;&gt;Node16 -->
<g id="edge40" class="edge"><title>Node19&#45;&gt;Node16</title>
<path fill="none" stroke="midnightblue" d="M415.148,-224.153C416.523,-210.785 420.745,-185.18 433.5,-168 443.544,-154.472 458.957,-143.865 472.67,-136.355"/>
<polygon fill="midnightblue" stroke="midnightblue" points="474.515,-139.342 481.805,-131.653 471.312,-133.118 474.515,-139.342"/>
</g>
<!-- Node19&#45;&gt;Node18 -->
<g id="edge42" class="edge"><title>Node19&#45;&gt;Node18</title>
<path fill="none" stroke="midnightblue" d="M409.784,-224.424C403.499,-211.832 393.894,-187.7 400.5,-168 404.104,-157.251 411.403,-147.02 418.317,-139.038"/>
<polygon fill="midnightblue" stroke="midnightblue" points="420.977,-141.317 425.212,-131.605 415.845,-136.556 420.977,-141.317"/>
</g>
<!-- Node20 -->
<g id="node20" class="node"><title>Node20</title>
<g id="a_node20"><a xlink:href="ia_vector4_8h.html" target="_top" xlink:title="iaVector4.h">
<polygon fill="white" stroke="black" points="184.5,-168.5 184.5,-187.5 250.5,-187.5 250.5,-168.5 184.5,-168.5"/>
<text text-anchor="middle" x="217.5" y="-175.5" font-family="Helvetica,sans-Serif" font-size="10.00">iaVector4.h</text>
</a>
</g>
</g>
<!-- Node19&#45;&gt;Node20 -->
<g id="edge29" class="edge"><title>Node19&#45;&gt;Node20</title>
<path fill="none" stroke="midnightblue" d="M384.58,-224.799C351.03,-215.602 296.407,-200.629 258.803,-190.322"/>
<polygon fill="midnightblue" stroke="midnightblue" points="259.249,-186.815 248.68,-187.547 257.399,-193.566 259.249,-186.815"/>
</g>
<!-- Node22 -->
<g id="node22" class="node"><title>Node22</title>
<polygon fill="white" stroke="#bfbfbf" points="101.5,-56.5 101.5,-75.5 145.5,-75.5 145.5,-56.5 101.5,-56.5"/>
<text text-anchor="middle" x="123.5" y="-63.5" font-family="Helvetica,sans-Serif" font-size="10.00">cmath</text>
</g>
<!-- Node19&#45;&gt;Node22 -->
<g id="edge41" class="edge"><title>Node19&#45;&gt;Node22</title>
<path fill="none" stroke="midnightblue" d="M384.693,-226.823C379.949,-225.862 375.092,-224.893 370.5,-224 283.991,-207.169 257.6,-220.041 175.5,-188 131.964,-171.009 109.094,-172.91 86.5,-132 77.1593,-115.087 91.1769,-95.8753 104.555,-82.7512"/>
<polygon fill="midnightblue" stroke="midnightblue" points="107.153,-85.1188 112.177,-75.7907 102.432,-79.9499 107.153,-85.1188"/>
</g>
<!-- Node25 -->
<g id="node25" class="node"><title>Node25</title>
<g id="a_node25"><a xlink:href="ia_quaternion_8h.html" target="_top" xlink:title="iaQuaternion.h">
<polygon fill="white" stroke="black" points="268.5,-168.5 268.5,-187.5 348.5,-187.5 348.5,-168.5 268.5,-168.5"/>
<text text-anchor="middle" x="308.5" y="-175.5" font-family="Helvetica,sans-Serif" font-size="10.00">iaQuaternion.h</text>
</a>
</g>
</g>
<!-- Node19&#45;&gt;Node25 -->
<g id="edge36" class="edge"><title>Node19&#45;&gt;Node25</title>
<path fill="none" stroke="midnightblue" d="M397.469,-224.324C380.47,-215.664 354.124,-202.242 334.507,-192.249"/>
<polygon fill="midnightblue" stroke="midnightblue" points="335.988,-189.075 325.488,-187.655 332.81,-195.312 335.988,-189.075"/>
</g>
<!-- Node27 -->
<g id="node27" class="node"><title>Node27</title>
<g id="a_node27"><a xlink:href="ia_matrix_8inl.html" target="_top" xlink:title="iaMatrix.inl">
<polygon fill="white" stroke="black" points="442.5,-168.5 442.5,-187.5 506.5,-187.5 506.5,-168.5 442.5,-168.5"/>
<text text-anchor="middle" x="474.5" y="-175.5" font-family="Helvetica,sans-Serif" font-size="10.00">iaMatrix.inl</text>
</a>
</g>
</g>
<!-- Node19&#45;&gt;Node27 -->
<g id="edge43" class="edge"><title>Node19&#45;&gt;Node27</title>
<path fill="none" stroke="midnightblue" d="M424.14,-224.324C433.01,-216.341 446.375,-204.313 457.108,-194.653"/>
<polygon fill="midnightblue" stroke="midnightblue" points="459.593,-197.125 464.685,-187.834 454.91,-191.922 459.593,-197.125"/>
</g>
<!-- Node21 -->
<g id="node21" class="node"><title>Node21</title>
<g id="a_node21"><a xlink:href="ia_vector3_8h.html" target="_top" xlink:title="iaVector3.h">
<polygon fill="white" stroke="black" points="185.5,-112.5 185.5,-131.5 251.5,-131.5 251.5,-112.5 185.5,-112.5"/>
<text text-anchor="middle" x="218.5" y="-119.5" font-family="Helvetica,sans-Serif" font-size="10.00">iaVector3.h</text>
</a>
</g>
</g>
<!-- Node20&#45;&gt;Node21 -->
<g id="edge30" class="edge"><title>Node20&#45;&gt;Node21</title>
<path fill="none" stroke="midnightblue" d="M217.665,-168.083C217.796,-161.006 217.984,-150.861 218.148,-141.986"/>
<polygon fill="midnightblue" stroke="midnightblue" points="221.652,-141.814 218.338,-131.751 214.653,-141.685 221.652,-141.814"/>
</g>
<!-- Node24 -->
<g id="node24" class="node"><title>Node24</title>
<g id="a_node24"><a xlink:href="ia_vector4_8inl.html" target="_top" xlink:title="iaVector4.inl">
<polygon fill="white" stroke="black" points="96,-112.5 96,-131.5 167,-131.5 167,-112.5 96,-112.5"/>
<text text-anchor="middle" x="131.5" y="-119.5" font-family="Helvetica,sans-Serif" font-size="10.00">iaVector4.inl</text>
</a>
</g>
</g>
<!-- Node20&#45;&gt;Node24 -->
<g id="edge35" class="edge"><title>Node20&#45;&gt;Node24</title>
<path fill="none" stroke="midnightblue" d="M203.683,-168.324C190.267,-159.9 169.676,-146.971 153.914,-137.074"/>
<polygon fill="midnightblue" stroke="midnightblue" points="155.613,-134.008 145.283,-131.655 151.891,-139.936 155.613,-134.008"/>
</g>
<!-- Node21&#45;&gt;Node3 -->
<g id="edge31" class="edge"><title>Node21&#45;&gt;Node3</title>
<path fill="none" stroke="midnightblue" d="M218.276,-112.288C218.428,-98.14 220.966,-70.3121 237.5,-56 277.814,-21.1031 435.38,-13.232 512.503,-11.4827"/>
<polygon fill="midnightblue" stroke="midnightblue" points="512.903,-14.9755 522.83,-11.2744 512.762,-7.9769 512.903,-14.9755"/>
</g>
<!-- Node21&#45;&gt;Node4 -->
<g id="edge33" class="edge"><title>Node21&#45;&gt;Node4</title>
<path fill="none" stroke="midnightblue" d="M251.781,-112.563C290.853,-102.657 355.407,-86.2912 395.584,-76.1056"/>
<polygon fill="midnightblue" stroke="midnightblue" points="396.655,-79.4447 405.489,-73.5944 394.935,-72.6593 396.655,-79.4447"/>
</g>
<!-- Node21&#45;&gt;Node22 -->
<g id="edge32" class="edge"><title>Node21&#45;&gt;Node22</title>
<path fill="none" stroke="midnightblue" d="M203.237,-112.324C188.279,-103.822 165.245,-90.7288 147.773,-80.7975"/>
<polygon fill="midnightblue" stroke="midnightblue" points="149.149,-77.5534 138.726,-75.6545 145.69,-83.639 149.149,-77.5534"/>
</g>
<!-- Node23 -->
<g id="node23" class="node"><title>Node23</title>
<g id="a_node23"><a xlink:href="ia_vector3_8inl.html" target="_top" xlink:title="iaVector3.inl">
<polygon fill="white" stroke="black" points="247,-56.5 247,-75.5 318,-75.5 318,-56.5 247,-56.5"/>
<text text-anchor="middle" x="282.5" y="-63.5" font-family="Helvetica,sans-Serif" font-size="10.00">iaVector3.inl</text>
</a>
</g>
</g>
<!-- Node21&#45;&gt;Node23 -->
<g id="edge34" class="edge"><title>Node21&#45;&gt;Node23</title>
<path fill="none" stroke="midnightblue" d="M228.783,-112.324C238.336,-104.263 252.78,-92.0765 264.284,-82.3695"/>
<polygon fill="midnightblue" stroke="midnightblue" points="266.644,-84.9577 272.03,-75.8339 262.13,-79.6076 266.644,-84.9577"/>
</g>
<!-- Node25&#45;&gt;Node4 -->
<g id="edge38" class="edge"><title>Node25&#45;&gt;Node4</title>
<path fill="none" stroke="midnightblue" d="M319.421,-168.225C330.446,-159.291 347.887,-144.95 362.5,-132 381.033,-115.576 401.617,-96.0033 415.439,-82.6574"/>
<polygon fill="midnightblue" stroke="midnightblue" points="417.985,-85.0636 422.729,-75.5899 413.113,-80.0377 417.985,-85.0636"/>
</g>
<!-- Node25&#45;&gt;Node21 -->
<g id="edge37" class="edge"><title>Node25&#45;&gt;Node21</title>
<path fill="none" stroke="midnightblue" d="M294.04,-168.324C280,-159.9 258.452,-146.971 241.957,-137.074"/>
<polygon fill="midnightblue" stroke="midnightblue" points="243.3,-133.798 232.924,-131.655 239.698,-139.801 243.3,-133.798"/>
</g>
<!-- Node26 -->
<g id="node26" class="node"><title>Node26</title>
<g id="a_node26"><a xlink:href="ia_quaternion_8inl.html" target="_top" xlink:title="iaQuaternion.inl">
<polygon fill="white" stroke="black" points="269.5,-112.5 269.5,-131.5 353.5,-131.5 353.5,-112.5 269.5,-112.5"/>
<text text-anchor="middle" x="311.5" y="-119.5" font-family="Helvetica,sans-Serif" font-size="10.00">iaQuaternion.inl</text>
</a>
</g>
</g>
<!-- Node25&#45;&gt;Node26 -->
<g id="edge39" class="edge"><title>Node25&#45;&gt;Node26</title>
<path fill="none" stroke="midnightblue" d="M308.995,-168.083C309.389,-161.006 309.952,-150.861 310.445,-141.986"/>
<polygon fill="midnightblue" stroke="midnightblue" points="313.954,-141.93 311.014,-131.751 306.964,-141.542 313.954,-141.93"/>
</g>
<!-- Node28&#45;&gt;Node5 -->
<g id="edge47" class="edge"><title>Node28&#45;&gt;Node5</title>
<path fill="none" stroke="midnightblue" d="M898.363,-224.083C895.817,-216.849 892.144,-206.409 888.973,-197.397"/>
<polygon fill="midnightblue" stroke="midnightblue" points="892.2,-196.023 885.579,-187.751 885.597,-198.346 892.2,-196.023"/>
</g>
<!-- Node28&#45;&gt;Node10 -->
<g id="edge46" class="edge"><title>Node28&#45;&gt;Node10</title>
<path fill="none" stroke="midnightblue" d="M906.1,-224.168C912.154,-211.257 921.076,-186.732 912.5,-168 893.934,-127.447 850.156,-96.9772 821.731,-80.5923"/>
<polygon fill="midnightblue" stroke="midnightblue" points="823.177,-77.3916 812.738,-75.5814 819.77,-83.5064 823.177,-77.3916"/>
</g>
</g>
</svg>
