<?xml version="1.0" encoding="UTF-8" standalone="no"?>
<!DOCTYPE svg PUBLIC "-//W3C//DTD SVG 1.1//EN"
 "http://www.w3.org/Graphics/SVG/1.1/DTD/svg11.dtd">
<!-- Generated by graphviz version 2.38.0 (20140413.2041)
 -->
<!-- Title: C:/dev/Igor/Igor/src/Igor/src/iNodeVisitor.cpp Pages: 1 -->
<svg width="963pt" height="375pt"
 viewBox="0.00 0.00 963.00 375.00" xmlns="http://www.w3.org/2000/svg" xmlns:xlink="http://www.w3.org/1999/xlink">
<g id="graph0" class="graph" transform="scale(1 1) rotate(0) translate(4 371)">
<title>C:/dev/Igor/Igor/src/Igor/src/iNodeVisitor.cpp</title>
<polygon fill="white" stroke="none" points="-4,4 -4,-371 959,-371 959,4 -4,4"/>
<!-- Node0 -->
<g id="node1" class="node"><title>Node0</title>
<g id="a_node1"><a xlink:title=" ">
<polygon fill="#bfbfbf" stroke="black" points="390.5,-336.5 390.5,-366.5 516.5,-366.5 516.5,-336.5 390.5,-336.5"/>
<text text-anchor="start" x="398.5" y="-354.5" font-family="Helvetica,sans-Serif" font-size="10.00">C:/dev/Igor/Igor/src</text>
<text text-anchor="middle" x="453.5" y="-343.5" font-family="Helvetica,sans-Serif" font-size="10.00">/Igor/src/iNodeVisitor.cpp</text>
</a>
</g>
</g>
<!-- Node1 -->
<g id="node2" class="node"><title>Node1</title>
<g id="a_node2"><a xlink:href="i_node_visitor_8h.html" target="_top" xlink:title=" ">
<polygon fill="white" stroke="black" points="348,-280.5 348,-299.5 425,-299.5 425,-280.5 348,-280.5"/>
<text text-anchor="middle" x="386.5" y="-287.5" font-family="Helvetica,sans-Serif" font-size="10.00">iNodeVisitor.h</text>
</a>
</g>
</g>
<!-- Node0&#45;&gt;Node1 -->
<g id="edge1" class="edge"><title>Node0&#45;&gt;Node1</title>
<path fill="none" stroke="midnightblue" d="M437.622,-336.399C427.485,-327.397 414.338,-315.721 403.915,-306.465"/>
<polygon fill="midnightblue" stroke="midnightblue" points="406.05,-303.681 396.249,-299.658 401.402,-308.915 406.05,-303.681"/>
</g>
<!-- Node4 -->
<g id="node5" class="node"><title>Node4</title>
<g id="a_node5"><a xlink:href="i_node_8h.html" target="_top" xlink:title=" ">
<polygon fill="white" stroke="black" points="361.5,-224.5 361.5,-243.5 411.5,-243.5 411.5,-224.5 361.5,-224.5"/>
<text text-anchor="middle" x="386.5" y="-231.5" font-family="Helvetica,sans-Serif" font-size="10.00">iNode.h</text>
</a>
</g>
</g>
<!-- Node0&#45;&gt;Node4 -->
<g id="edge37" class="edge"><title>Node0&#45;&gt;Node4</title>
<path fill="none" stroke="midnightblue" d="M451.733,-336.382C449.378,-321.491 444.194,-297.768 433.5,-280 426.562,-268.471 415.905,-257.929 406.493,-249.951"/>
<polygon fill="midnightblue" stroke="midnightblue" points="408.647,-247.193 398.666,-243.64 404.253,-252.642 408.647,-247.193"/>
</g>
<!-- Node22 -->
<g id="node23" class="node"><title>Node22</title>
<g id="a_node23"><a xlink:href="ia_console_8h.html" target="_top" xlink:title=" ">
<polygon fill="white" stroke="black" points="726.5,-224.5 726.5,-243.5 794.5,-243.5 794.5,-224.5 726.5,-224.5"/>
<text text-anchor="middle" x="760.5" y="-231.5" font-family="Helvetica,sans-Serif" font-size="10.00">iaConsole.h</text>
</a>
</g>
</g>
<!-- Node0&#45;&gt;Node22 -->
<g id="edge38" class="edge"><title>Node0&#45;&gt;Node22</title>
<path fill="none" stroke="midnightblue" d="M490.837,-336.453C551.588,-313.597 670.798,-268.748 728.158,-247.168"/>
<polygon fill="midnightblue" stroke="midnightblue" points="729.667,-250.339 737.795,-243.542 727.203,-243.788 729.667,-250.339"/>
</g>
<!-- Node2 -->
<g id="node3" class="node"><title>Node2</title>
<g id="a_node3"><a xlink:href="i_defines_8h.html" target="_top" xlink:title=" ">
<polygon fill="white" stroke="black" points="0,-112.5 0,-131.5 59,-131.5 59,-112.5 0,-112.5"/>
<text text-anchor="middle" x="29.5" y="-119.5" font-family="Helvetica,sans-Serif" font-size="10.00">iDefines.h</text>
</a>
</g>
</g>
<!-- Node1&#45;&gt;Node2 -->
<g id="edge2" class="edge"><title>Node1&#45;&gt;Node2</title>
<path fill="none" stroke="midnightblue" d="M347.775,-283.98C263.227,-272.144 66.5455,-239.546 27.5,-188 17.5045,-174.804 19.615,-155.401 23.243,-141.23"/>
<polygon fill="midnightblue" stroke="midnightblue" points="26.61,-142.187 26.1378,-131.603 19.9065,-140.172 26.61,-142.187"/>
</g>
<!-- Node1&#45;&gt;Node4 -->
<g id="edge4" class="edge"><title>Node1&#45;&gt;Node4</title>
<path fill="none" stroke="midnightblue" d="M386.5,-280.083C386.5,-273.006 386.5,-262.861 386.5,-253.986"/>
<polygon fill="midnightblue" stroke="midnightblue" points="390,-253.751 386.5,-243.751 383,-253.751 390,-253.751"/>
</g>
<!-- Node20 -->
<g id="node21" class="node"><title>Node20</title>
<g id="a_node21"><a xlink:title=" ">
<polygon fill="white" stroke="#bfbfbf" points="522.5,-168.5 522.5,-187.5 574.5,-187.5 574.5,-168.5 522.5,-168.5"/>
<text text-anchor="middle" x="548.5" y="-175.5" font-family="Helvetica,sans-Serif" font-size="10.00">memory</text>
</a>
</g>
</g>
<!-- Node1&#45;&gt;Node20 -->
<g id="edge36" class="edge"><title>Node1&#45;&gt;Node20</title>
<path fill="none" stroke="midnightblue" d="M399.212,-280.368C427.011,-261.492 493.442,-216.385 527.533,-193.237"/>
<polygon fill="midnightblue" stroke="midnightblue" points="529.54,-196.105 535.847,-187.591 525.608,-190.313 529.54,-196.105"/>
</g>
<!-- Node3 -->
<g id="node4" class="node"><title>Node3</title>
<g id="a_node4"><a xlink:href="ia_defines_8h.html" target="_top" xlink:title=" ">
<polygon fill="white" stroke="black" points="348,-0.5 348,-19.5 413,-19.5 413,-0.5 348,-0.5"/>
<text text-anchor="middle" x="380.5" y="-7.5" font-family="Helvetica,sans-Serif" font-size="10.00">iaDefines.h</text>
</a>
</g>
</g>
<!-- Node2&#45;&gt;Node3 -->
<g id="edge3" class="edge"><title>Node2&#45;&gt;Node3</title>
<path fill="none" stroke="midnightblue" d="M33.9441,-112.088C41.6561,-97.6505 58.9744,-69.4171 82.5,-56 125.278,-31.6026 266.273,-18.7537 337.912,-13.6612"/>
<polygon fill="midnightblue" stroke="midnightblue" points="338.225,-17.148 347.959,-12.9656 337.741,-10.1647 338.225,-17.148"/>
</g>
<!-- Node4&#45;&gt;Node2 -->
<g id="edge10" class="edge"><title>Node4&#45;&gt;Node2</title>
<path fill="none" stroke="midnightblue" d="M361.391,-233.348C290.104,-233.796 88.6439,-231.138 42.5,-188 30.0396,-176.351 27.65,-156.402 27.8466,-141.669"/>
<polygon fill="midnightblue" stroke="midnightblue" points="31.3437,-141.814 28.377,-131.643 24.3535,-141.444 31.3437,-141.814"/>
</g>
<!-- Node5 -->
<g id="node6" class="node"><title>Node5</title>
<g id="a_node6"><a xlink:href="i_data_update_queue_8h.html" target="_top" xlink:title=" ">
<polygon fill="white" stroke="black" points="219,-168.5 219,-187.5 326,-187.5 326,-168.5 219,-168.5"/>
<text text-anchor="middle" x="272.5" y="-175.5" font-family="Helvetica,sans-Serif" font-size="10.00">iDataUpdateQueue.h</text>
</a>
</g>
</g>
<!-- Node4&#45;&gt;Node5 -->
<g id="edge5" class="edge"><title>Node4&#45;&gt;Node5</title>
<path fill="none" stroke="midnightblue" d="M368.436,-224.444C349.925,-215.675 320.919,-201.935 299.645,-191.858"/>
<polygon fill="midnightblue" stroke="midnightblue" points="301.015,-188.634 290.479,-187.516 298.018,-194.96 301.015,-188.634"/>
</g>
<!-- Node6 -->
<g id="node7" class="node"><title>Node6</title>
<g id="a_node7"><a xlink:href="ia_mutex_8h.html" target="_top" xlink:title=" ">
<polygon fill="white" stroke="black" points="357,-112.5 357,-131.5 416,-131.5 416,-112.5 357,-112.5"/>
<text text-anchor="middle" x="386.5" y="-119.5" font-family="Helvetica,sans-Serif" font-size="10.00">iaMutex.h</text>
</a>
</g>
</g>
<!-- Node4&#45;&gt;Node6 -->
<g id="edge28" class="edge"><title>Node4&#45;&gt;Node6</title>
<path fill="none" stroke="midnightblue" d="M402.234,-224.236C414.389,-216.481 430.312,-203.929 437.5,-188 446.292,-168.517 427.566,-149.69 410.38,-137.358"/>
<polygon fill="midnightblue" stroke="midnightblue" points="411.943,-134.192 401.687,-131.532 408.046,-140.007 411.943,-134.192"/>
</g>
<!-- Node7 -->
<g id="node8" class="node"><title>Node7</title>
<g id="a_node8"><a xlink:title=" ">
<polygon fill="white" stroke="#bfbfbf" points="225.5,-112.5 225.5,-131.5 267.5,-131.5 267.5,-112.5 225.5,-112.5"/>
<text text-anchor="middle" x="246.5" y="-119.5" font-family="Helvetica,sans-Serif" font-size="10.00">vector</text>
</a>
</g>
</g>
<!-- Node4&#45;&gt;Node7 -->
<g id="edge33" class="edge"><title>Node4&#45;&gt;Node7</title>
<path fill="none" stroke="midnightblue" d="M361.197,-231.949C306.939,-229.11 182.232,-219.254 156.5,-188 135.739,-162.783 181.905,-142.468 215.487,-131.616"/>
<polygon fill="midnightblue" stroke="midnightblue" points="216.891,-134.846 225.417,-128.556 214.83,-128.156 216.891,-134.846"/>
</g>
<!-- Node8 -->
<g id="node9" class="node"><title>Node8</title>
<g id="a_node9"><a xlink:href="ia_string_8h.html" target="_top" xlink:title=" ">
<polygon fill="white" stroke="black" points="51.5,-168.5 51.5,-187.5 109.5,-187.5 109.5,-168.5 51.5,-168.5"/>
<text text-anchor="middle" x="80.5" y="-175.5" font-family="Helvetica,sans-Serif" font-size="10.00">iaString.h</text>
</a>
</g>
</g>
<!-- Node4&#45;&gt;Node8 -->
<g id="edge11" class="edge"><title>Node4&#45;&gt;Node8</title>
<path fill="none" stroke="midnightblue" d="M361.423,-229.025C314.582,-221.531 210.648,-204.57 123.5,-188 122.236,-187.76 120.951,-187.512 119.654,-187.259"/>
<polygon fill="midnightblue" stroke="midnightblue" points="120.108,-183.78 109.615,-185.245 118.732,-190.643 120.108,-183.78"/>
</g>
<!-- Node9 -->
<g id="node10" class="node"><title>Node9</title>
<g id="a_node10"><a xlink:title=" ">
<polygon fill="white" stroke="#bfbfbf" points="519.5,-0.5 519.5,-19.5 571.5,-19.5 571.5,-0.5 519.5,-0.5"/>
<text text-anchor="middle" x="545.5" y="-7.5" font-family="Helvetica,sans-Serif" font-size="10.00">ostream</text>
</a>
</g>
</g>
<!-- Node4&#45;&gt;Node9 -->
<g id="edge32" class="edge"><title>Node4&#45;&gt;Node9</title>
<path fill="none" stroke="midnightblue" d="M403.952,-224.461C418.624,-216.597 439.401,-203.776 453.5,-188 497.857,-138.37 527.467,-63.4931 539.471,-29.2537"/>
<polygon fill="midnightblue" stroke="midnightblue" points="542.831,-30.2429 542.746,-19.6484 536.206,-27.9838 542.831,-30.2429"/>
</g>
<!-- Node10 -->
<g id="node11" class="node"><title>Node10</title>
<g id="a_node11"><a xlink:href="ia_matrix_8h.html" target="_top" xlink:title=" ">
<polygon fill="white" stroke="black" points="723,-168.5 723,-187.5 782,-187.5 782,-168.5 723,-168.5"/>
<text text-anchor="middle" x="752.5" y="-175.5" font-family="Helvetica,sans-Serif" font-size="10.00">iaMatrix.h</text>
</a>
</g>
</g>
<!-- Node4&#45;&gt;Node10 -->
<g id="edge15" class="edge"><title>Node4&#45;&gt;Node10</title>
<path fill="none" stroke="midnightblue" d="M411.657,-229.288C474.204,-220.06 637.146,-196.019 712.815,-184.855"/>
<polygon fill="midnightblue" stroke="midnightblue" points="713.512,-188.29 722.894,-183.368 712.49,-181.365 713.512,-188.29"/>
</g>
<!-- Node19 -->
<g id="node20" class="node"><title>Node19</title>
<g id="a_node20"><a xlink:href="ia_i_d_generator_8h.html" target="_top" xlink:title=" ">
<polygon fill="white" stroke="black" points="344.5,-168.5 344.5,-187.5 428.5,-187.5 428.5,-168.5 344.5,-168.5"/>
<text text-anchor="middle" x="386.5" y="-175.5" font-family="Helvetica,sans-Serif" font-size="10.00">iaIDGenerator.h</text>
</a>
</g>
</g>
<!-- Node4&#45;&gt;Node19 -->
<g id="edge29" class="edge"><title>Node4&#45;&gt;Node19</title>
<path fill="none" stroke="midnightblue" d="M386.5,-224.083C386.5,-217.006 386.5,-206.861 386.5,-197.986"/>
<polygon fill="midnightblue" stroke="midnightblue" points="390,-197.751 386.5,-187.751 383,-197.751 390,-197.751"/>
</g>
<!-- Node4&#45;&gt;Node20 -->
<g id="edge34" class="edge"><title>Node4&#45;&gt;Node20</title>
<path fill="none" stroke="midnightblue" d="M411.813,-224.563C438.996,-215.501 482.398,-201.034 512.989,-190.837"/>
<polygon fill="midnightblue" stroke="midnightblue" points="514.451,-194.039 522.831,-187.556 512.237,-187.398 514.451,-194.039"/>
</g>
<!-- Node21 -->
<g id="node22" class="node"><title>Node21</title>
<g id="a_node22"><a xlink:title=" ">
<polygon fill="white" stroke="#bfbfbf" points="166,-168.5 166,-187.5 201,-187.5 201,-168.5 166,-168.5"/>
<text text-anchor="middle" x="183.5" y="-175.5" font-family="Helvetica,sans-Serif" font-size="10.00">map</text>
</a>
</g>
</g>
<!-- Node4&#45;&gt;Node21 -->
<g id="edge35" class="edge"><title>Node4&#45;&gt;Node21</title>
<path fill="none" stroke="midnightblue" d="M361.402,-227.323C328.75,-219.786 269.758,-205.655 210.884,-188.241"/>
<polygon fill="midnightblue" stroke="midnightblue" points="211.64,-184.814 201.057,-185.302 209.635,-191.52 211.64,-184.814"/>
</g>
<!-- Node5&#45;&gt;Node2 -->
<g id="edge6" class="edge"><title>Node5&#45;&gt;Node2</title>
<path fill="none" stroke="midnightblue" d="M233.996,-168.444C188.832,-158.407 114.362,-141.858 68.8402,-131.742"/>
<polygon fill="midnightblue" stroke="midnightblue" points="69.5549,-128.316 59.0337,-129.563 68.0363,-135.149 69.5549,-128.316"/>
</g>
<!-- Node5&#45;&gt;Node6 -->
<g id="edge7" class="edge"><title>Node5&#45;&gt;Node6</title>
<path fill="none" stroke="midnightblue" d="M290.564,-168.444C309.075,-159.675 338.081,-145.935 359.355,-135.858"/>
<polygon fill="midnightblue" stroke="midnightblue" points="360.982,-138.96 368.521,-131.516 357.985,-132.634 360.982,-138.96"/>
</g>
<!-- Node5&#45;&gt;Node7 -->
<g id="edge9" class="edge"><title>Node5&#45;&gt;Node7</title>
<path fill="none" stroke="midnightblue" d="M268.207,-168.083C264.648,-160.691 259.478,-149.953 255.076,-140.811"/>
<polygon fill="midnightblue" stroke="midnightblue" points="258.205,-139.243 250.713,-131.751 251.898,-142.279 258.205,-139.243"/>
</g>
<!-- Node6&#45;&gt;Node3 -->
<g id="edge8" class="edge"><title>Node6&#45;&gt;Node3</title>
<path fill="none" stroke="midnightblue" d="M386.029,-112.368C385.061,-94.617 382.827,-53.6664 381.514,-29.5974"/>
<polygon fill="midnightblue" stroke="midnightblue" points="385.008,-29.3859 380.969,-19.5914 378.019,-29.7672 385.008,-29.3859"/>
</g>
<!-- Node8&#45;&gt;Node3 -->
<g id="edge12" class="edge"><title>Node8&#45;&gt;Node3</title>
<path fill="none" stroke="midnightblue" d="M81.382,-168.316C84.1589,-145.818 94.8474,-85.3587 131.5,-56 162.615,-31.077 274.772,-18.8744 337.416,-13.8828"/>
<polygon fill="midnightblue" stroke="midnightblue" points="338.063,-17.3435 347.765,-13.0878 337.527,-10.3641 338.063,-17.3435"/>
</g>
<!-- Node8&#45;&gt;Node7 -->
<g id="edge14" class="edge"><title>Node8&#45;&gt;Node7</title>
<path fill="none" stroke="midnightblue" d="M106.803,-168.444C136.418,-158.81 184.48,-143.175 215.791,-132.99"/>
<polygon fill="midnightblue" stroke="midnightblue" points="216.897,-136.31 225.324,-129.889 214.732,-129.654 216.897,-136.31"/>
</g>
<!-- Node8&#45;&gt;Node9 -->
<g id="edge13" class="edge"><title>Node8&#45;&gt;Node9</title>
<path fill="none" stroke="midnightblue" d="M96.4853,-168.403C121.558,-155.139 171.883,-129.4 216.5,-112 320.69,-71.3664 448.397,-36.1593 509.536,-20.1651"/>
<polygon fill="midnightblue" stroke="midnightblue" points="510.664,-23.4884 519.462,-17.5848 508.903,-16.7136 510.664,-23.4884"/>
</g>
<!-- Node10&#45;&gt;Node9 -->
<g id="edge25" class="edge"><title>Node10&#45;&gt;Node9</title>
<path fill="none" stroke="midnightblue" d="M741.766,-168.4C725.928,-155.778 695.279,-131.61 668.5,-112 645.821,-95.393 638.473,-93.5308 616.5,-76 596.844,-60.3172 575.766,-40.6144 561.728,-27.0353"/>
<polygon fill="midnightblue" stroke="midnightblue" points="563.941,-24.3047 554.34,-19.8244 559.052,-29.314 563.941,-24.3047"/>
</g>
<!-- Node11 -->
<g id="node12" class="node"><title>Node11</title>
<g id="a_node12"><a xlink:href="ia_vector4_8h.html" target="_top" xlink:title=" ">
<polygon fill="white" stroke="black" points="715.5,-112.5 715.5,-131.5 781.5,-131.5 781.5,-112.5 715.5,-112.5"/>
<text text-anchor="middle" x="748.5" y="-119.5" font-family="Helvetica,sans-Serif" font-size="10.00">iaVector4.h</text>
</a>
</g>
</g>
<!-- Node10&#45;&gt;Node11 -->
<g id="edge16" class="edge"><title>Node10&#45;&gt;Node11</title>
<path fill="none" stroke="midnightblue" d="M751.839,-168.083C751.315,-161.006 750.564,-150.861 749.906,-141.986"/>
<polygon fill="midnightblue" stroke="midnightblue" points="753.377,-141.465 749.148,-131.751 746.397,-141.982 753.377,-141.465"/>
</g>
<!-- Node13 -->
<g id="node14" class="node"><title>Node13</title>
<g id="a_node14"><a xlink:title=" ">
<polygon fill="white" stroke="#bfbfbf" points="787.5,-0.5 787.5,-19.5 831.5,-19.5 831.5,-0.5 787.5,-0.5"/>
<text text-anchor="middle" x="809.5" y="-7.5" font-family="Helvetica,sans-Serif" font-size="10.00">cmath</text>
</a>
</g>
</g>
<!-- Node10&#45;&gt;Node13 -->
<g id="edge24" class="edge"><title>Node10&#45;&gt;Node13</title>
<path fill="none" stroke="midnightblue" d="M762.331,-168.407C771.211,-160.046 783.872,-146.509 790.5,-132 805.908,-98.2713 809.141,-54.3482 809.636,-29.7697"/>
<polygon fill="midnightblue" stroke="midnightblue" points="813.137,-29.6879 809.703,-19.665 806.137,-29.6416 813.137,-29.6879"/>
</g>
<!-- Node16 -->
<g id="node17" class="node"><title>Node16</title>
<g id="a_node17"><a xlink:title=" ">
<polygon fill="white" stroke="#bfbfbf" points="906,-112.5 906,-131.5 955,-131.5 955,-112.5 906,-112.5"/>
<text text-anchor="middle" x="930.5" y="-119.5" font-family="Helvetica,sans-Serif" font-size="10.00">fstream</text>
</a>
</g>
</g>
<!-- Node10&#45;&gt;Node16 -->
<g id="edge23" class="edge"><title>Node10&#45;&gt;Node16</title>
<path fill="none" stroke="midnightblue" d="M780.705,-168.444C811.976,-158.957 862.429,-143.651 896.022,-133.46"/>
<polygon fill="midnightblue" stroke="midnightblue" points="897.313,-136.725 905.867,-130.473 895.281,-130.027 897.313,-136.725"/>
</g>
<!-- Node17 -->
<g id="node18" class="node"><title>Node17</title>
<g id="a_node18"><a xlink:title=" ">
<polygon fill="white" stroke="#bfbfbf" points="837.5,-112.5 837.5,-131.5 887.5,-131.5 887.5,-112.5 837.5,-112.5"/>
<text text-anchor="middle" x="862.5" y="-119.5" font-family="Helvetica,sans-Serif" font-size="10.00">iomanip</text>
</a>
</g>
</g>
<!-- Node10&#45;&gt;Node17 -->
<g id="edge26" class="edge"><title>Node10&#45;&gt;Node17</title>
<path fill="none" stroke="midnightblue" d="M770.173,-168.324C787.894,-159.625 815.403,-146.12 835.788,-136.113"/>
<polygon fill="midnightblue" stroke="midnightblue" points="837.436,-139.203 844.87,-131.655 834.351,-132.919 837.436,-139.203"/>
</g>
<!-- Node18 -->
<g id="node19" class="node"><title>Node18</title>
<g id="a_node19"><a xlink:href="ia_matrix_8inl.html" target="_top" xlink:title=" ">
<polygon fill="white" stroke="black" points="595.5,-112.5 595.5,-131.5 659.5,-131.5 659.5,-112.5 595.5,-112.5"/>
<text text-anchor="middle" x="627.5" y="-119.5" font-family="Helvetica,sans-Serif" font-size="10.00">iaMatrix.inl</text>
</a>
</g>
</g>
<!-- Node10&#45;&gt;Node18 -->
<g id="edge27" class="edge"><title>Node10&#45;&gt;Node18</title>
<path fill="none" stroke="midnightblue" d="M732.693,-168.444C712.213,-159.596 680.017,-145.687 656.635,-135.586"/>
<polygon fill="midnightblue" stroke="midnightblue" points="657.782,-132.269 647.214,-131.516 655.006,-138.695 657.782,-132.269"/>
</g>
<!-- Node12 -->
<g id="node13" class="node"><title>Node12</title>
<g id="a_node13"><a xlink:href="ia_vector3_8h.html" target="_top" xlink:title=" ">
<polygon fill="white" stroke="black" points="715.5,-56.5 715.5,-75.5 781.5,-75.5 781.5,-56.5 715.5,-56.5"/>
<text text-anchor="middle" x="748.5" y="-63.5" font-family="Helvetica,sans-Serif" font-size="10.00">iaVector3.h</text>
</a>
</g>
</g>
<!-- Node11&#45;&gt;Node12 -->
<g id="edge17" class="edge"><title>Node11&#45;&gt;Node12</title>
<path fill="none" stroke="midnightblue" d="M748.5,-112.083C748.5,-105.006 748.5,-94.8611 748.5,-85.9865"/>
<polygon fill="midnightblue" stroke="midnightblue" points="752,-85.751 748.5,-75.7511 745,-85.7511 752,-85.751"/>
</g>
<!-- Node15 -->
<g id="node16" class="node"><title>Node15</title>
<g id="a_node16"><a xlink:href="ia_vector4_8inl.html" target="_top" xlink:title=" ">
<polygon fill="white" stroke="black" points="626,-56.5 626,-75.5 697,-75.5 697,-56.5 626,-56.5"/>
<text text-anchor="middle" x="661.5" y="-63.5" font-family="Helvetica,sans-Serif" font-size="10.00">iaVector4.inl</text>
</a>
</g>
</g>
<!-- Node11&#45;&gt;Node15 -->
<g id="edge22" class="edge"><title>Node11&#45;&gt;Node15</title>
<path fill="none" stroke="midnightblue" d="M734.522,-112.324C720.95,-103.9 700.12,-90.9709 684.175,-81.0741"/>
<polygon fill="midnightblue" stroke="midnightblue" points="685.786,-77.9544 675.443,-75.6545 682.094,-83.9019 685.786,-77.9544"/>
</g>
<!-- Node12&#45;&gt;Node3 -->
<g id="edge18" class="edge"><title>Node12&#45;&gt;Node3</title>
<path fill="none" stroke="midnightblue" d="M715.209,-57.7963C711.934,-57.1586 708.656,-56.5481 705.5,-56 604.965,-38.5401 485.992,-23.481 423.612,-16.0121"/>
<polygon fill="midnightblue" stroke="midnightblue" points="423.712,-12.4994 413.369,-14.793 422.885,-19.4503 423.712,-12.4994"/>
</g>
<!-- Node12&#45;&gt;Node9 -->
<g id="edge20" class="edge"><title>Node12&#45;&gt;Node9</title>
<path fill="none" stroke="midnightblue" d="M716.334,-56.4435C679.594,-46.6702 619.637,-30.721 581.403,-20.5506"/>
<polygon fill="midnightblue" stroke="midnightblue" points="582.269,-17.1594 571.706,-17.971 580.47,-23.9241 582.269,-17.1594"/>
</g>
<!-- Node12&#45;&gt;Node13 -->
<g id="edge19" class="edge"><title>Node12&#45;&gt;Node13</title>
<path fill="none" stroke="midnightblue" d="M758.301,-56.324C767.318,-48.3414 780.906,-36.3128 791.818,-26.6529"/>
<polygon fill="midnightblue" stroke="midnightblue" points="794.353,-29.083 799.521,-19.8339 789.713,-23.8416 794.353,-29.083"/>
</g>
<!-- Node14 -->
<g id="node15" class="node"><title>Node14</title>
<g id="a_node15"><a xlink:href="ia_vector3_8inl.html" target="_top" xlink:title=" ">
<polygon fill="white" stroke="black" points="698,-0.5 698,-19.5 769,-19.5 769,-0.5 698,-0.5"/>
<text text-anchor="middle" x="733.5" y="-7.5" font-family="Helvetica,sans-Serif" font-size="10.00">iaVector3.inl</text>
</a>
</g>
</g>
<!-- Node12&#45;&gt;Node14 -->
<g id="edge21" class="edge"><title>Node12&#45;&gt;Node14</title>
<path fill="none" stroke="midnightblue" d="M746.023,-56.083C744.014,-48.8486 741.114,-38.4087 738.61,-29.3968"/>
<polygon fill="midnightblue" stroke="midnightblue" points="741.98,-28.4495 735.931,-19.7511 735.235,-30.323 741.98,-28.4495"/>
</g>
<!-- Node19&#45;&gt;Node6 -->
<g id="edge30" class="edge"><title>Node19&#45;&gt;Node6</title>
<path fill="none" stroke="midnightblue" d="M386.5,-168.083C386.5,-161.006 386.5,-150.861 386.5,-141.986"/>
<polygon fill="midnightblue" stroke="midnightblue" points="390,-141.751 386.5,-131.751 383,-141.751 390,-141.751"/>
</g>
<!-- Node19&#45;&gt;Node7 -->
<g id="edge31" class="edge"><title>Node19&#45;&gt;Node7</title>
<path fill="none" stroke="midnightblue" d="M364.317,-168.444C340.798,-159.372 303.485,-144.98 277.162,-134.827"/>
<polygon fill="midnightblue" stroke="midnightblue" points="278.253,-131.496 267.663,-131.163 275.734,-138.027 278.253,-131.496"/>
</g>
<!-- Node22&#45;&gt;Node16 -->
<g id="edge43" class="edge"><title>Node22&#45;&gt;Node16</title>
<path fill="none" stroke="midnightblue" d="M794.588,-225.84C820.328,-219.195 855.532,-207.352 881.5,-188 898.441,-175.375 912.306,-155.328 920.91,-140.834"/>
<polygon fill="midnightblue" stroke="midnightblue" points="924.118,-142.272 926,-131.845 918.027,-138.823 924.118,-142.272"/>
</g>
<!-- Node22&#45;&gt;Node17 -->
<g id="edge45" class="edge"><title>Node22&#45;&gt;Node17</title>
<path fill="none" stroke="midnightblue" d="M794.558,-227.971C818.296,-222.496 848.327,-211.187 863.5,-188 872.375,-174.438 870.978,-155.637 868.041,-141.742"/>
<polygon fill="midnightblue" stroke="midnightblue" points="871.38,-140.673 865.522,-131.845 864.596,-142.4 871.38,-140.673"/>
</g>
<!-- Node23 -->
<g id="node24" class="node"><title>Node23</title>
<g id="a_node24"><a xlink:href="ia_singleton_8h.html" target="_top" xlink:title=" ">
<polygon fill="white" stroke="black" points="593,-168.5 593,-187.5 666,-187.5 666,-168.5 593,-168.5"/>
<text text-anchor="middle" x="629.5" y="-175.5" font-family="Helvetica,sans-Serif" font-size="10.00">iaSingleton.h</text>
</a>
</g>
</g>
<!-- Node22&#45;&gt;Node23 -->
<g id="edge39" class="edge"><title>Node22&#45;&gt;Node23</title>
<path fill="none" stroke="midnightblue" d="M739.743,-224.444C718.184,-215.557 684.237,-201.563 659.706,-191.451"/>
<polygon fill="midnightblue" stroke="midnightblue" points="660.739,-188.092 650.16,-187.516 658.072,-194.563 660.739,-188.092"/>
</g>
<!-- Node24 -->
<g id="node25" class="node"><title>Node24</title>
<g id="a_node25"><a xlink:href="ia_clock_8h.html" target="_top" xlink:title=" ">
<polygon fill="white" stroke="black" points="409,-56.5 409,-75.5 466,-75.5 466,-56.5 409,-56.5"/>
<text text-anchor="middle" x="437.5" y="-63.5" font-family="Helvetica,sans-Serif" font-size="10.00">iaClock.h</text>
</a>
</g>
</g>
<!-- Node22&#45;&gt;Node24 -->
<g id="edge41" class="edge"><title>Node22&#45;&gt;Node24</title>
<path fill="none" stroke="midnightblue" d="M750.769,-224.293C735.419,-210.883 704.26,-184.951 674.5,-168 637.781,-147.085 625.424,-148.449 586.5,-132 544.459,-114.234 496.074,-92.9746 466.136,-79.7257"/>
<polygon fill="midnightblue" stroke="midnightblue" points="467.287,-76.4075 456.727,-75.5563 464.451,-82.8074 467.287,-76.4075"/>
</g>
<!-- Node25 -->
<g id="node26" class="node"><title>Node25</title>
<g id="a_node26"><a xlink:title=" ">
<polygon fill="white" stroke="#bfbfbf" points="800.5,-168.5 800.5,-187.5 854.5,-187.5 854.5,-168.5 800.5,-168.5"/>
<text text-anchor="middle" x="827.5" y="-175.5" font-family="Helvetica,sans-Serif" font-size="10.00">iostream</text>
</a>
</g>
</g>
<!-- Node22&#45;&gt;Node25 -->
<g id="edge44" class="edge"><title>Node22&#45;&gt;Node25</title>
<path fill="none" stroke="midnightblue" d="M771.265,-224.324C781.266,-216.263 796.387,-204.077 808.43,-194.369"/>
<polygon fill="midnightblue" stroke="midnightblue" points="810.95,-196.834 816.539,-187.834 806.557,-191.384 810.95,-196.834"/>
</g>
<!-- Node23&#45;&gt;Node6 -->
<g id="edge40" class="edge"><title>Node23&#45;&gt;Node6</title>
<path fill="none" stroke="midnightblue" d="M592.857,-168.857C547.989,-158.887 472.284,-142.063 426.106,-131.801"/>
<polygon fill="midnightblue" stroke="midnightblue" points="426.683,-128.344 416.162,-129.591 425.164,-135.178 426.683,-128.344"/>
</g>
<!-- Node24&#45;&gt;Node3 -->
<g id="edge42" class="edge"><title>Node24&#45;&gt;Node3</title>
<path fill="none" stroke="midnightblue" d="M428.342,-56.324C419.999,-48.4196 407.468,-36.5482 397.323,-26.9377"/>
<polygon fill="midnightblue" stroke="midnightblue" points="399.491,-24.1705 389.825,-19.8339 394.677,-29.2522 399.491,-24.1705"/>
</g>
</g>
</svg>
