<?xml version="1.0" encoding="UTF-8" standalone="no"?>
<!DOCTYPE svg PUBLIC "-//W3C//DTD SVG 1.1//EN"
 "http://www.w3.org/Graphics/SVG/1.1/DTD/svg11.dtd">
<!-- Generated by graphviz version 2.38.0 (20140413.2041)
 -->
<!-- Title: C:/dev/Igor/src/Igor/src/iNode.h Pages: 1 -->
<svg width="1110pt" height="319pt"
 viewBox="0.00 0.00 1109.50 319.00" xmlns="http://www.w3.org/2000/svg" xmlns:xlink="http://www.w3.org/1999/xlink">
<g id="graph0" class="graph" transform="scale(1 1) rotate(0) translate(4 315)">
<title>C:/dev/Igor/src/Igor/src/iNode.h</title>
<polygon fill="white" stroke="none" points="-4,4 -4,-315 1105.5,-315 1105.5,4 -4,4"/>
<!-- Node1 -->
<g id="node1" class="node"><title>Node1</title>
<polygon fill="#bfbfbf" stroke="black" points="360.5,-280.5 360.5,-310.5 458.5,-310.5 458.5,-280.5 360.5,-280.5"/>
<text text-anchor="start" x="368.5" y="-298.5" font-family="Helvetica,sans-Serif" font-size="10.00">C:/dev/Igor/src/Igor</text>
<text text-anchor="middle" x="409.5" y="-287.5" font-family="Helvetica,sans-Serif" font-size="10.00">/src/iNode.h</text>
</g>
<!-- Node2 -->
<g id="node2" class="node"><title>Node2</title>
<g id="a_node2"><a xlink:href="i_data_update_queue_8h.html" target="_top" xlink:title="iDataUpdateQueue.h">
<polygon fill="white" stroke="black" points="116,-224.5 116,-243.5 223,-243.5 223,-224.5 116,-224.5"/>
<text text-anchor="middle" x="169.5" y="-231.5" font-family="Helvetica,sans-Serif" font-size="10.00">iDataUpdateQueue.h</text>
</a>
</g>
</g>
<!-- Node1&#45;&gt;Node2 -->
<g id="edge1" class="edge"><title>Node1&#45;&gt;Node2</title>
<path fill="none" stroke="midnightblue" d="M360.353,-282.316C317.278,-271.637 255.225,-256.253 213.691,-245.956"/>
<polygon fill="midnightblue" stroke="midnightblue" points="214.407,-242.527 203.858,-243.518 212.722,-249.322 214.407,-242.527"/>
</g>
<!-- Node3 -->
<g id="node3" class="node"><title>Node3</title>
<g id="a_node3"><a xlink:href="i_defines_8h.html" target="_top" xlink:title="iDefines.h">
<polygon fill="white" stroke="black" points="0,-168.5 0,-187.5 59,-187.5 59,-168.5 0,-168.5"/>
<text text-anchor="middle" x="29.5" y="-175.5" font-family="Helvetica,sans-Serif" font-size="10.00">iDefines.h</text>
</a>
</g>
</g>
<!-- Node1&#45;&gt;Node3 -->
<g id="edge7" class="edge"><title>Node1&#45;&gt;Node3</title>
<path fill="none" stroke="midnightblue" d="M360.252,-291.922C278.78,-286.872 120.282,-273.49 73.5,-244 56.0786,-233.018 43.8924,-212.35 36.8316,-197.259"/>
<polygon fill="midnightblue" stroke="midnightblue" points="39.956,-195.667 32.7608,-187.89 33.5358,-198.457 39.956,-195.667"/>
</g>
<!-- Node5 -->
<g id="node5" class="node"><title>Node5</title>
<g id="a_node5"><a xlink:href="ia_mutex_8h.html" target="_top" xlink:title="iaMutex.h">
<polygon fill="white" stroke="black" points="155,-56.5 155,-75.5 214,-75.5 214,-56.5 155,-56.5"/>
<text text-anchor="middle" x="184.5" y="-63.5" font-family="Helvetica,sans-Serif" font-size="10.00">iaMutex.h</text>
</a>
</g>
</g>
<!-- Node1&#45;&gt;Node5 -->
<g id="edge40" class="edge"><title>Node1&#45;&gt;Node5</title>
<path fill="none" stroke="midnightblue" d="M360.492,-293.707C283.202,-291.303 138.472,-281.742 106.5,-244 63.6983,-193.474 133.115,-115.767 167.266,-82.7313"/>
<polygon fill="midnightblue" stroke="midnightblue" points="169.86,-85.0964 174.724,-75.6844 165.052,-80.0085 169.86,-85.0964"/>
</g>
<!-- Node6 -->
<g id="node6" class="node"><title>Node6</title>
<polygon fill="white" stroke="#bfbfbf" points="191.5,-168.5 191.5,-187.5 233.5,-187.5 233.5,-168.5 191.5,-168.5"/>
<text text-anchor="middle" x="212.5" y="-175.5" font-family="Helvetica,sans-Serif" font-size="10.00">vector</text>
</g>
<!-- Node1&#45;&gt;Node6 -->
<g id="edge45" class="edge"><title>Node1&#45;&gt;Node6</title>
<path fill="none" stroke="midnightblue" d="M397.563,-280.272C383.774,-264.615 359.729,-239.605 334.5,-224 318.975,-214.398 274.379,-198.969 243.637,-188.908"/>
<polygon fill="midnightblue" stroke="midnightblue" points="244.396,-185.475 233.804,-185.717 242.236,-192.133 244.396,-185.475"/>
</g>
<!-- Node7 -->
<g id="node7" class="node"><title>Node7</title>
<g id="a_node7"><a xlink:href="ia_event_8h.html" target="_top" xlink:title="iaEvent.h">
<polygon fill="white" stroke="black" points="381.5,-224.5 381.5,-243.5 437.5,-243.5 437.5,-224.5 381.5,-224.5"/>
<text text-anchor="middle" x="409.5" y="-231.5" font-family="Helvetica,sans-Serif" font-size="10.00">iaEvent.h</text>
</a>
</g>
</g>
<!-- Node1&#45;&gt;Node7 -->
<g id="edge8" class="edge"><title>Node1&#45;&gt;Node7</title>
<path fill="none" stroke="midnightblue" d="M409.5,-280.399C409.5,-272.466 409.5,-262.458 409.5,-253.858"/>
<polygon fill="midnightblue" stroke="midnightblue" points="413,-253.658 409.5,-243.658 406,-253.658 413,-253.658"/>
</g>
<!-- Node15 -->
<g id="node15" class="node"><title>Node15</title>
<g id="a_node15"><a xlink:href="ia_string_8h.html" target="_top" xlink:title="iaString.h">
<polygon fill="white" stroke="black" points="470.5,-224.5 470.5,-243.5 528.5,-243.5 528.5,-224.5 470.5,-224.5"/>
<text text-anchor="middle" x="499.5" y="-231.5" font-family="Helvetica,sans-Serif" font-size="10.00">iaString.h</text>
</a>
</g>
</g>
<!-- Node1&#45;&gt;Node15 -->
<g id="edge20" class="edge"><title>Node1&#45;&gt;Node15</title>
<path fill="none" stroke="midnightblue" d="M430.829,-280.399C444.985,-271.04 463.511,-258.792 477.753,-249.377"/>
<polygon fill="midnightblue" stroke="midnightblue" points="479.993,-252.092 486.404,-243.658 476.132,-246.253 479.993,-252.092"/>
</g>
<!-- Node16 -->
<g id="node16" class="node"><title>Node16</title>
<polygon fill="white" stroke="#bfbfbf" points="601.5,-56.5 601.5,-75.5 653.5,-75.5 653.5,-56.5 601.5,-56.5"/>
<text text-anchor="middle" x="627.5" y="-63.5" font-family="Helvetica,sans-Serif" font-size="10.00">ostream</text>
</g>
<!-- Node1&#45;&gt;Node16 -->
<g id="edge44" class="edge"><title>Node1&#45;&gt;Node16</title>
<path fill="none" stroke="midnightblue" d="M458.708,-284.056C484.623,-276.504 515.498,-264.013 537.5,-244 550.458,-232.214 599.568,-127.579 619.259,-84.952"/>
<polygon fill="midnightblue" stroke="midnightblue" points="622.489,-86.3065 623.493,-75.7594 616.131,-83.378 622.489,-86.3065"/>
</g>
<!-- Node17 -->
<g id="node17" class="node"><title>Node17</title>
<g id="a_node17"><a xlink:href="ia_matrix_8h.html" target="_top" xlink:title="iaMatrix.h">
<polygon fill="white" stroke="black" points="618,-224.5 618,-243.5 677,-243.5 677,-224.5 618,-224.5"/>
<text text-anchor="middle" x="647.5" y="-231.5" font-family="Helvetica,sans-Serif" font-size="10.00">iaMatrix.h</text>
</a>
</g>
</g>
<!-- Node1&#45;&gt;Node17 -->
<g id="edge24" class="edge"><title>Node1&#45;&gt;Node17</title>
<path fill="none" stroke="midnightblue" d="M458.525,-282.244C502.682,-271.204 566.776,-255.181 607.797,-244.926"/>
<polygon fill="midnightblue" stroke="midnightblue" points="608.851,-248.27 617.703,-242.449 607.153,-241.479 608.851,-248.27"/>
</g>
<!-- Node26 -->
<g id="node26" class="node"><title>Node26</title>
<g id="a_node26"><a xlink:href="ia_i_d_generator_8h.html" target="_top" xlink:title="iaIDGenerator.h">
<polygon fill="white" stroke="black" points="241.5,-224.5 241.5,-243.5 325.5,-243.5 325.5,-224.5 241.5,-224.5"/>
<text text-anchor="middle" x="283.5" y="-231.5" font-family="Helvetica,sans-Serif" font-size="10.00">iaIDGenerator.h</text>
</a>
</g>
</g>
<!-- Node1&#45;&gt;Node26 -->
<g id="edge41" class="edge"><title>Node1&#45;&gt;Node26</title>
<path fill="none" stroke="midnightblue" d="M379.64,-280.399C358.877,-270.595 331.4,-257.619 311.139,-248.052"/>
<polygon fill="midnightblue" stroke="midnightblue" points="312.371,-244.763 301.834,-243.658 309.382,-251.093 312.371,-244.763"/>
</g>
<!-- Node27 -->
<g id="node27" class="node"><title>Node27</title>
<polygon fill="white" stroke="#bfbfbf" points="695.5,-224.5 695.5,-243.5 747.5,-243.5 747.5,-224.5 695.5,-224.5"/>
<text text-anchor="middle" x="721.5" y="-231.5" font-family="Helvetica,sans-Serif" font-size="10.00">memory</text>
</g>
<!-- Node1&#45;&gt;Node27 -->
<g id="edge46" class="edge"><title>Node1&#45;&gt;Node27</title>
<path fill="none" stroke="midnightblue" d="M458.547,-286.501C511.825,-277.595 599.644,-262.281 685.307,-243.918"/>
<polygon fill="midnightblue" stroke="midnightblue" points="686.164,-247.314 695.199,-241.782 684.686,-240.472 686.164,-247.314"/>
</g>
<!-- Node28 -->
<g id="node28" class="node"><title>Node28</title>
<polygon fill="white" stroke="#bfbfbf" points="766,-224.5 766,-243.5 801,-243.5 801,-224.5 766,-224.5"/>
<text text-anchor="middle" x="783.5" y="-231.5" font-family="Helvetica,sans-Serif" font-size="10.00">map</text>
</g>
<!-- Node1&#45;&gt;Node28 -->
<g id="edge47" class="edge"><title>Node1&#45;&gt;Node28</title>
<path fill="none" stroke="midnightblue" d="M458.575,-290.125C524.286,-283.659 644.503,-269.708 755.855,-243.745"/>
<polygon fill="midnightblue" stroke="midnightblue" points="756.988,-247.073 765.911,-241.361 755.373,-240.262 756.988,-247.073"/>
</g>
<!-- Node2&#45;&gt;Node3 -->
<g id="edge2" class="edge"><title>Node2&#45;&gt;Node3</title>
<path fill="none" stroke="midnightblue" d="M147.317,-224.444C124.072,-215.478 87.3512,-201.314 61.0848,-191.183"/>
<polygon fill="midnightblue" stroke="midnightblue" points="62.1692,-187.85 51.5796,-187.516 59.6501,-194.381 62.1692,-187.85"/>
</g>
<!-- Node2&#45;&gt;Node5 -->
<g id="edge4" class="edge"><title>Node2&#45;&gt;Node5</title>
<path fill="none" stroke="midnightblue" d="M164.37,-224.407C159.442,-215.614 152.34,-201.381 149.5,-188 142.488,-154.958 138.538,-143.949 149.5,-112 153.219,-101.161 160.733,-90.9216 167.849,-82.9566"/>
<polygon fill="midnightblue" stroke="midnightblue" points="170.554,-85.1922 174.944,-75.5497 165.499,-80.3498 170.554,-85.1922"/>
</g>
<!-- Node2&#45;&gt;Node6 -->
<g id="edge6" class="edge"><title>Node2&#45;&gt;Node6</title>
<path fill="none" stroke="midnightblue" d="M176.601,-224.083C182.737,-216.377 191.77,-205.033 199.239,-195.653"/>
<polygon fill="midnightblue" stroke="midnightblue" points="202.04,-197.754 205.532,-187.751 196.564,-193.394 202.04,-197.754"/>
</g>
<!-- Node4 -->
<g id="node4" class="node"><title>Node4</title>
<g id="a_node4"><a xlink:href="ia_defines_8h.html" target="_top" xlink:title="iaDefines.h">
<polygon fill="white" stroke="black" points="303,-0.5 303,-19.5 368,-19.5 368,-0.5 303,-0.5"/>
<text text-anchor="middle" x="335.5" y="-7.5" font-family="Helvetica,sans-Serif" font-size="10.00">iaDefines.h</text>
</a>
</g>
</g>
<!-- Node3&#45;&gt;Node4 -->
<g id="edge3" class="edge"><title>Node3&#45;&gt;Node4</title>
<path fill="none" stroke="midnightblue" d="M34.1554,-168.385C41.4622,-155.321 56.5508,-130.106 73.5,-112 101.205,-82.4044 108.94,-73.5164 145.5,-56 193.067,-33.2099 253.001,-21.4996 292.697,-15.8195"/>
<polygon fill="midnightblue" stroke="midnightblue" points="293.395,-19.2568 302.83,-14.4376 292.449,-12.321 293.395,-19.2568"/>
</g>
<!-- Node5&#45;&gt;Node4 -->
<g id="edge5" class="edge"><title>Node5&#45;&gt;Node4</title>
<path fill="none" stroke="midnightblue" d="M208.426,-56.4435C233.719,-47.3986 273.802,-33.064 302.18,-22.9158"/>
<polygon fill="midnightblue" stroke="midnightblue" points="303.448,-26.1794 311.686,-19.5164 301.091,-19.5882 303.448,-26.1794"/>
</g>
<!-- Node7&#45;&gt;Node5 -->
<g id="edge9" class="edge"><title>Node7&#45;&gt;Node5</title>
<path fill="none" stroke="midnightblue" d="M381.474,-227.087C354.205,-220.474 312.342,-207.987 280.5,-188 239.013,-161.96 207.854,-111.476 193.407,-84.6893"/>
<polygon fill="midnightblue" stroke="midnightblue" points="196.435,-82.9257 188.701,-75.6835 190.23,-86.1675 196.435,-82.9257"/>
</g>
<!-- Node7&#45;&gt;Node6 -->
<g id="edge19" class="edge"><title>Node7&#45;&gt;Node6</title>
<path fill="none" stroke="midnightblue" d="M381.275,-225.263C344.807,-215.267 281.523,-197.92 243.673,-187.545"/>
<polygon fill="midnightblue" stroke="midnightblue" points="244.285,-184.084 233.715,-184.815 242.434,-190.835 244.285,-184.084"/>
</g>
<!-- Node8 -->
<g id="node8" class="node"><title>Node8</title>
<g id="a_node8"><a xlink:href="ia_delegate_8h.html" target="_top" xlink:title="iaDelegate.h">
<polygon fill="white" stroke="black" points="290,-168.5 290,-187.5 361,-187.5 361,-168.5 290,-168.5"/>
<text text-anchor="middle" x="325.5" y="-175.5" font-family="Helvetica,sans-Serif" font-size="10.00">iaDelegate.h</text>
</a>
</g>
</g>
<!-- Node7&#45;&gt;Node8 -->
<g id="edge10" class="edge"><title>Node7&#45;&gt;Node8</title>
<path fill="none" stroke="midnightblue" d="M396.004,-224.324C382.9,-215.9 362.788,-202.971 347.393,-193.074"/>
<polygon fill="midnightblue" stroke="midnightblue" points="349.267,-190.118 338.963,-187.655 345.482,-196.006 349.267,-190.118"/>
</g>
<!-- Node9 -->
<g id="node9" class="node"><title>Node9</title>
<g id="a_node9"><a xlink:href="ia_console_8h.html" target="_top" xlink:title="iaConsole.h">
<polygon fill="white" stroke="black" points="379.5,-168.5 379.5,-187.5 447.5,-187.5 447.5,-168.5 379.5,-168.5"/>
<text text-anchor="middle" x="413.5" y="-175.5" font-family="Helvetica,sans-Serif" font-size="10.00">iaConsole.h</text>
</a>
</g>
</g>
<!-- Node7&#45;&gt;Node9 -->
<g id="edge11" class="edge"><title>Node7&#45;&gt;Node9</title>
<path fill="none" stroke="midnightblue" d="M410.161,-224.083C410.685,-217.006 411.436,-206.861 412.094,-197.986"/>
<polygon fill="midnightblue" stroke="midnightblue" points="415.603,-197.982 412.852,-187.751 408.623,-197.465 415.603,-197.982"/>
</g>
<!-- Node10 -->
<g id="node10" class="node"><title>Node10</title>
<g id="a_node10"><a xlink:href="ia_singleton_8h.html" target="_top" xlink:title="iaSingleton.h">
<polygon fill="white" stroke="black" points="234,-112.5 234,-131.5 307,-131.5 307,-112.5 234,-112.5"/>
<text text-anchor="middle" x="270.5" y="-119.5" font-family="Helvetica,sans-Serif" font-size="10.00">iaSingleton.h</text>
</a>
</g>
</g>
<!-- Node9&#45;&gt;Node10 -->
<g id="edge12" class="edge"><title>Node9&#45;&gt;Node10</title>
<path fill="none" stroke="midnightblue" d="M390.841,-168.444C367.098,-159.478 329.591,-145.314 302.762,-135.183"/>
<polygon fill="midnightblue" stroke="midnightblue" points="303.644,-131.775 293.053,-131.516 301.171,-138.324 303.644,-131.775"/>
</g>
<!-- Node11 -->
<g id="node11" class="node"><title>Node11</title>
<g id="a_node11"><a xlink:href="ia_clock_8h.html" target="_top" xlink:title="iaClock.h">
<polygon fill="white" stroke="black" points="307,-56.5 307,-75.5 364,-75.5 364,-56.5 307,-56.5"/>
<text text-anchor="middle" x="335.5" y="-63.5" font-family="Helvetica,sans-Serif" font-size="10.00">iaClock.h</text>
</a>
</g>
</g>
<!-- Node9&#45;&gt;Node11 -->
<g id="edge14" class="edge"><title>Node9&#45;&gt;Node11</title>
<path fill="none" stroke="midnightblue" d="M397.157,-168.437C383.815,-160.641 365.44,-147.929 354.5,-132 345.036,-118.22 340.224,-99.6954 337.815,-85.9477"/>
<polygon fill="midnightblue" stroke="midnightblue" points="341.23,-85.1144 336.308,-75.7323 334.305,-86.136 341.23,-85.1144"/>
</g>
<!-- Node12 -->
<g id="node12" class="node"><title>Node12</title>
<polygon fill="white" stroke="#bfbfbf" points="618,-112.5 618,-131.5 667,-131.5 667,-112.5 618,-112.5"/>
<text text-anchor="middle" x="642.5" y="-119.5" font-family="Helvetica,sans-Serif" font-size="10.00">fstream</text>
</g>
<!-- Node9&#45;&gt;Node12 -->
<g id="edge16" class="edge"><title>Node9&#45;&gt;Node12</title>
<path fill="none" stroke="midnightblue" d="M447.784,-168.916C490.985,-158.728 564.804,-141.321 608.073,-131.118"/>
<polygon fill="midnightblue" stroke="midnightblue" points="608.929,-134.512 617.859,-128.811 607.322,-127.699 608.929,-134.512"/>
</g>
<!-- Node13 -->
<g id="node13" class="node"><title>Node13</title>
<polygon fill="white" stroke="#bfbfbf" points="363.5,-112.5 363.5,-131.5 417.5,-131.5 417.5,-112.5 363.5,-112.5"/>
<text text-anchor="middle" x="390.5" y="-119.5" font-family="Helvetica,sans-Serif" font-size="10.00">iostream</text>
</g>
<!-- Node9&#45;&gt;Node13 -->
<g id="edge17" class="edge"><title>Node9&#45;&gt;Node13</title>
<path fill="none" stroke="midnightblue" d="M409.702,-168.083C406.587,-160.77 402.077,-150.181 398.211,-141.103"/>
<polygon fill="midnightblue" stroke="midnightblue" points="401.366,-139.58 394.227,-131.751 394.926,-142.323 401.366,-139.58"/>
</g>
<!-- Node14 -->
<g id="node14" class="node"><title>Node14</title>
<polygon fill="white" stroke="#bfbfbf" points="435.5,-112.5 435.5,-131.5 485.5,-131.5 485.5,-112.5 435.5,-112.5"/>
<text text-anchor="middle" x="460.5" y="-119.5" font-family="Helvetica,sans-Serif" font-size="10.00">iomanip</text>
</g>
<!-- Node9&#45;&gt;Node14 -->
<g id="edge18" class="edge"><title>Node9&#45;&gt;Node14</title>
<path fill="none" stroke="midnightblue" d="M421.261,-168.083C428.037,-160.298 438.043,-148.801 446.255,-139.367"/>
<polygon fill="midnightblue" stroke="midnightblue" points="448.958,-141.592 452.883,-131.751 443.678,-136.996 448.958,-141.592"/>
</g>
<!-- Node10&#45;&gt;Node5 -->
<g id="edge13" class="edge"><title>Node10&#45;&gt;Node5</title>
<path fill="none" stroke="midnightblue" d="M256.683,-112.324C243.267,-103.9 222.676,-90.9709 206.914,-81.0741"/>
<polygon fill="midnightblue" stroke="midnightblue" points="208.613,-78.0081 198.283,-75.6545 204.891,-83.9364 208.613,-78.0081"/>
</g>
<!-- Node11&#45;&gt;Node4 -->
<g id="edge15" class="edge"><title>Node11&#45;&gt;Node4</title>
<path fill="none" stroke="midnightblue" d="M335.5,-56.083C335.5,-49.0059 335.5,-38.8611 335.5,-29.9865"/>
<polygon fill="midnightblue" stroke="midnightblue" points="339,-29.751 335.5,-19.7511 332,-29.7511 339,-29.751"/>
</g>
<!-- Node15&#45;&gt;Node4 -->
<g id="edge21" class="edge"><title>Node15&#45;&gt;Node4</title>
<path fill="none" stroke="midnightblue" d="M501.687,-224.343C506.472,-203.394 515.821,-148.973 494.5,-112 467.956,-65.97 411.056,-37.6836 373.026,-23.1598"/>
<polygon fill="midnightblue" stroke="midnightblue" points="373.912,-19.7564 363.318,-19.593 371.498,-26.327 373.912,-19.7564"/>
</g>
<!-- Node15&#45;&gt;Node6 -->
<g id="edge23" class="edge"><title>Node15&#45;&gt;Node6</title>
<path fill="none" stroke="midnightblue" d="M470.402,-227.525C416.047,-217.298 299.551,-195.379 243.663,-184.863"/>
<polygon fill="midnightblue" stroke="midnightblue" points="244.12,-181.388 233.646,-182.979 242.826,-188.267 244.12,-181.388"/>
</g>
<!-- Node15&#45;&gt;Node16 -->
<g id="edge22" class="edge"><title>Node15&#45;&gt;Node16</title>
<path fill="none" stroke="midnightblue" d="M505.03,-224.117C522.165,-196.607 573.35,-114.506 575.5,-112 584.975,-100.957 597.214,-90.2297 607.438,-82.0201"/>
<polygon fill="midnightblue" stroke="midnightblue" points="609.72,-84.6784 615.447,-75.7646 605.411,-79.1617 609.72,-84.6784"/>
</g>
<!-- Node17&#45;&gt;Node12 -->
<g id="edge36" class="edge"><title>Node17&#45;&gt;Node12</title>
<path fill="none" stroke="midnightblue" d="M647.108,-224.368C646.301,-206.617 644.439,-165.666 643.345,-141.597"/>
<polygon fill="midnightblue" stroke="midnightblue" points="646.841,-141.422 642.891,-131.591 639.848,-141.74 646.841,-141.422"/>
</g>
<!-- Node17&#45;&gt;Node14 -->
<g id="edge38" class="edge"><title>Node17&#45;&gt;Node14</title>
<path fill="none" stroke="midnightblue" d="M632.826,-224.368C600.601,-205.412 523.401,-160.001 484.202,-136.942"/>
<polygon fill="midnightblue" stroke="midnightblue" points="485.499,-133.645 475.105,-131.591 481.95,-139.678 485.499,-133.645"/>
</g>
<!-- Node18 -->
<g id="node18" class="node"><title>Node18</title>
<g id="a_node18"><a xlink:href="ia_vector4_8h.html" target="_top" xlink:title="iaVector4.h">
<polygon fill="white" stroke="black" points="825.5,-168.5 825.5,-187.5 891.5,-187.5 891.5,-168.5 825.5,-168.5"/>
<text text-anchor="middle" x="858.5" y="-175.5" font-family="Helvetica,sans-Serif" font-size="10.00">iaVector4.h</text>
</a>
</g>
</g>
<!-- Node17&#45;&gt;Node18 -->
<g id="edge25" class="edge"><title>Node17&#45;&gt;Node18</title>
<path fill="none" stroke="midnightblue" d="M677.284,-225.378C713.385,-216.138 774.486,-200.501 815.645,-189.968"/>
<polygon fill="midnightblue" stroke="midnightblue" points="816.574,-193.343 825.394,-187.473 814.838,-186.561 816.574,-193.343"/>
</g>
<!-- Node20 -->
<g id="node20" class="node"><title>Node20</title>
<polygon fill="white" stroke="#bfbfbf" points="949.5,-56.5 949.5,-75.5 993.5,-75.5 993.5,-56.5 949.5,-56.5"/>
<text text-anchor="middle" x="971.5" y="-63.5" font-family="Helvetica,sans-Serif" font-size="10.00">cmath</text>
</g>
<!-- Node17&#45;&gt;Node20 -->
<g id="edge37" class="edge"><title>Node17&#45;&gt;Node20</title>
<path fill="none" stroke="midnightblue" d="M677.271,-225.936C680.382,-225.256 683.502,-224.598 686.5,-224 781.087,-205.148 810.291,-222.123 900.5,-188 944.564,-171.332 967.621,-173.183 990.5,-132 998.77,-117.114 991.599,-98.2646 983.813,-84.7023"/>
<polygon fill="midnightblue" stroke="midnightblue" points="986.548,-82.4774 978.247,-75.8935 980.63,-86.2168 986.548,-82.4774"/>
</g>
<!-- Node23 -->
<g id="node23" class="node"><title>Node23</title>
<g id="a_node23"><a xlink:href="ia_quaternion_8h.html" target="_top" xlink:title="iaQuaternion.h">
<polygon fill="white" stroke="black" points="699.5,-168.5 699.5,-187.5 779.5,-187.5 779.5,-168.5 699.5,-168.5"/>
<text text-anchor="middle" x="739.5" y="-175.5" font-family="Helvetica,sans-Serif" font-size="10.00">iaQuaternion.h</text>
</a>
</g>
</g>
<!-- Node17&#45;&gt;Node23 -->
<g id="edge32" class="edge"><title>Node17&#45;&gt;Node23</title>
<path fill="none" stroke="midnightblue" d="M662.281,-224.324C676.767,-215.822 699.073,-202.729 715.993,-192.797"/>
<polygon fill="midnightblue" stroke="midnightblue" points="717.903,-195.735 724.755,-187.655 714.359,-189.698 717.903,-195.735"/>
</g>
<!-- Node25 -->
<g id="node25" class="node"><title>Node25</title>
<g id="a_node25"><a xlink:href="ia_matrix_8inl.html" target="_top" xlink:title="iaMatrix.inl">
<polygon fill="white" stroke="black" points="1037.5,-168.5 1037.5,-187.5 1101.5,-187.5 1101.5,-168.5 1037.5,-168.5"/>
<text text-anchor="middle" x="1069.5" y="-175.5" font-family="Helvetica,sans-Serif" font-size="10.00">iaMatrix.inl</text>
</a>
</g>
</g>
<!-- Node17&#45;&gt;Node25 -->
<g id="edge39" class="edge"><title>Node17&#45;&gt;Node25</title>
<path fill="none" stroke="midnightblue" d="M677.236,-225.749C680.354,-225.106 683.485,-224.507 686.5,-224 835.044,-199.019 874.557,-210.483 1023.5,-188 1024.77,-187.809 1026.05,-187.607 1027.35,-187.397"/>
<polygon fill="midnightblue" stroke="midnightblue" points="1028.14,-190.812 1037.39,-185.651 1026.94,-183.915 1028.14,-190.812"/>
</g>
<!-- Node19 -->
<g id="node19" class="node"><title>Node19</title>
<g id="a_node19"><a xlink:href="ia_vector3_8h.html" target="_top" xlink:title="iaVector3.h">
<polygon fill="white" stroke="black" points="825.5,-112.5 825.5,-131.5 891.5,-131.5 891.5,-112.5 825.5,-112.5"/>
<text text-anchor="middle" x="858.5" y="-119.5" font-family="Helvetica,sans-Serif" font-size="10.00">iaVector3.h</text>
</a>
</g>
</g>
<!-- Node18&#45;&gt;Node19 -->
<g id="edge26" class="edge"><title>Node18&#45;&gt;Node19</title>
<path fill="none" stroke="midnightblue" d="M858.5,-168.083C858.5,-161.006 858.5,-150.861 858.5,-141.986"/>
<polygon fill="midnightblue" stroke="midnightblue" points="862,-141.751 858.5,-131.751 855,-141.751 862,-141.751"/>
</g>
<!-- Node22 -->
<g id="node22" class="node"><title>Node22</title>
<g id="a_node22"><a xlink:href="ia_vector4_8inl.html" target="_top" xlink:title="iaVector4.inl">
<polygon fill="white" stroke="black" points="910,-112.5 910,-131.5 981,-131.5 981,-112.5 910,-112.5"/>
<text text-anchor="middle" x="945.5" y="-119.5" font-family="Helvetica,sans-Serif" font-size="10.00">iaVector4.inl</text>
</a>
</g>
</g>
<!-- Node18&#45;&gt;Node22 -->
<g id="edge31" class="edge"><title>Node18&#45;&gt;Node22</title>
<path fill="none" stroke="midnightblue" d="M872.478,-168.324C886.05,-159.9 906.88,-146.971 922.825,-137.074"/>
<polygon fill="midnightblue" stroke="midnightblue" points="924.906,-139.902 931.557,-131.655 921.214,-133.954 924.906,-139.902"/>
</g>
<!-- Node19&#45;&gt;Node4 -->
<g id="edge27" class="edge"><title>Node19&#45;&gt;Node4</title>
<path fill="none" stroke="midnightblue" d="M837.119,-112.466C801.486,-98.5728 727.448,-71.1036 662.5,-56 562.248,-32.6866 441.707,-19.9357 378.694,-14.4018"/>
<polygon fill="midnightblue" stroke="midnightblue" points="378.613,-10.8821 368.351,-13.5132 378.014,-17.8564 378.613,-10.8821"/>
</g>
<!-- Node19&#45;&gt;Node16 -->
<g id="edge29" class="edge"><title>Node19&#45;&gt;Node16</title>
<path fill="none" stroke="midnightblue" d="M825.403,-113.263C782.465,-103.226 707.821,-85.7764 663.505,-75.4167"/>
<polygon fill="midnightblue" stroke="midnightblue" points="664.264,-71.9999 653.73,-73.1317 662.671,-78.8162 664.264,-71.9999"/>
</g>
<!-- Node19&#45;&gt;Node20 -->
<g id="edge28" class="edge"><title>Node19&#45;&gt;Node20</title>
<path fill="none" stroke="midnightblue" d="M876.405,-112.444C894.754,-103.675 923.505,-89.9355 944.594,-79.8579"/>
<polygon fill="midnightblue" stroke="midnightblue" points="946.165,-82.9862 953.679,-75.5164 943.147,-76.6703 946.165,-82.9862"/>
</g>
<!-- Node21 -->
<g id="node21" class="node"><title>Node21</title>
<g id="a_node21"><a xlink:href="ia_vector3_8inl.html" target="_top" xlink:title="iaVector3.inl">
<polygon fill="white" stroke="black" points="823,-56.5 823,-75.5 894,-75.5 894,-56.5 823,-56.5"/>
<text text-anchor="middle" x="858.5" y="-63.5" font-family="Helvetica,sans-Serif" font-size="10.00">iaVector3.inl</text>
</a>
</g>
</g>
<!-- Node19&#45;&gt;Node21 -->
<g id="edge30" class="edge"><title>Node19&#45;&gt;Node21</title>
<path fill="none" stroke="midnightblue" d="M858.5,-112.083C858.5,-105.006 858.5,-94.8611 858.5,-85.9865"/>
<polygon fill="midnightblue" stroke="midnightblue" points="862,-85.751 858.5,-75.7511 855,-85.7511 862,-85.751"/>
</g>
<!-- Node23&#45;&gt;Node16 -->
<g id="edge34" class="edge"><title>Node23&#45;&gt;Node16</title>
<path fill="none" stroke="midnightblue" d="M731.322,-168.479C719.254,-155.956 695.902,-131.908 675.5,-112 665.256,-102.004 653.542,-91.0134 644.25,-82.3959"/>
<polygon fill="midnightblue" stroke="midnightblue" points="646.526,-79.7337 636.805,-75.5186 641.776,-84.8753 646.526,-79.7337"/>
</g>
<!-- Node23&#45;&gt;Node19 -->
<g id="edge33" class="edge"><title>Node23&#45;&gt;Node19</title>
<path fill="none" stroke="midnightblue" d="M758.356,-168.444C777.766,-159.636 808.23,-145.812 830.465,-135.722"/>
<polygon fill="midnightblue" stroke="midnightblue" points="832.072,-138.836 839.732,-131.516 829.18,-132.462 832.072,-138.836"/>
</g>
<!-- Node24 -->
<g id="node24" class="node"><title>Node24</title>
<g id="a_node24"><a xlink:href="ia_quaternion_8inl.html" target="_top" xlink:title="iaQuaternion.inl">
<polygon fill="white" stroke="black" points="723.5,-112.5 723.5,-131.5 807.5,-131.5 807.5,-112.5 723.5,-112.5"/>
<text text-anchor="middle" x="765.5" y="-119.5" font-family="Helvetica,sans-Serif" font-size="10.00">iaQuaternion.inl</text>
</a>
</g>
</g>
<!-- Node23&#45;&gt;Node24 -->
<g id="edge35" class="edge"><title>Node23&#45;&gt;Node24</title>
<path fill="none" stroke="midnightblue" d="M743.793,-168.083C747.352,-160.691 752.522,-149.953 756.924,-140.811"/>
<polygon fill="midnightblue" stroke="midnightblue" points="760.102,-142.279 761.287,-131.751 753.795,-139.243 760.102,-142.279"/>
</g>
<!-- Node26&#45;&gt;Node5 -->
<g id="edge42" class="edge"><title>Node26&#45;&gt;Node5</title>
<path fill="none" stroke="midnightblue" d="M241.489,-225.52C219.953,-219.327 195.566,-208.126 182.5,-188 162.27,-156.839 170.942,-110.993 178.24,-85.6182"/>
<polygon fill="midnightblue" stroke="midnightblue" points="181.662,-86.4 181.292,-75.8116 174.979,-84.3199 181.662,-86.4"/>
</g>
<!-- Node26&#45;&gt;Node6 -->
<g id="edge43" class="edge"><title>Node26&#45;&gt;Node6</title>
<path fill="none" stroke="midnightblue" d="M272.093,-224.324C261.391,-216.185 245.159,-203.839 232.337,-194.087"/>
<polygon fill="midnightblue" stroke="midnightblue" points="234.193,-191.102 224.115,-187.834 229.956,-196.673 234.193,-191.102"/>
</g>
</g>
</svg>
