<?xml version="1.0" encoding="UTF-8" standalone="no"?>
<!DOCTYPE svg PUBLIC "-//W3C//DTD SVG 1.1//EN"
 "http://www.w3.org/Graphics/SVG/1.1/DTD/svg11.dtd">
<!-- Generated by graphviz version 2.38.0 (20140413.2041)
 -->
<!-- Title: C:/dev/Igor/src/Igor/src/iNodeSwitch.h Pages: 1 -->
<svg width="957pt" height="117pt"
 viewBox="0.00 0.00 957.00 117.00" xmlns="http://www.w3.org/2000/svg" xmlns:xlink="http://www.w3.org/1999/xlink">
<g id="graph0" class="graph" transform="scale(1 1) rotate(0) translate(4 113)">
<title>C:/dev/Igor/src/Igor/src/iNodeSwitch.h</title>
<polygon fill="white" stroke="none" points="-4,4 -4,-113 953,-113 953,4 -4,4"/>
<!-- Node1 -->
<g id="node1" class="node"><title>Node1</title>
<polygon fill="#bfbfbf" stroke="black" points="382.5,-78.5 382.5,-108.5 480.5,-108.5 480.5,-78.5 382.5,-78.5"/>
<text text-anchor="start" x="390.5" y="-96.5" font-family="Helvetica,sans-Serif" font-size="10.00">C:/dev/Igor/src/Igor</text>
<text text-anchor="middle" x="431.5" y="-85.5" font-family="Helvetica,sans-Serif" font-size="10.00">/src/iNodeSwitch.h</text>
</g>
<!-- Node2 -->
<g id="node2" class="node"><title>Node2</title>
<g id="a_node2"><a xlink:href="i_node_factory_8cpp.html" target="_top" xlink:title="C:/dev/Igor/src/Igor\l/src/iNodeFactory.cpp">
<polygon fill="white" stroke="black" points="0,-6 0,-36 113,-36 113,-6 0,-6"/>
<text text-anchor="start" x="8" y="-24" font-family="Helvetica,sans-Serif" font-size="10.00">C:/dev/Igor/src/Igor</text>
<text text-anchor="middle" x="56.5" y="-13" font-family="Helvetica,sans-Serif" font-size="10.00">/src/iNodeFactory.cpp</text>
</a>
</g>
</g>
<!-- Node1&#45;&gt;Node2 -->
<g id="edge1" class="edge"><title>Node1&#45;&gt;Node2</title>
<path fill="none" stroke="midnightblue" d="M372.124,-85.2886C309.375,-77.0954 207.753,-62.1948 121.5,-42 114.258,-40.3043 106.643,-38.2319 99.2786,-36.071"/>
<polygon fill="midnightblue" stroke="midnightblue" points="371.867,-88.7844 382.233,-86.5943 372.764,-81.842 371.867,-88.7844"/>
</g>
<!-- Node3 -->
<g id="node3" class="node"><title>Node3</title>
<g id="a_node3"><a xlink:href="i_node_switch_8cpp.html" target="_top" xlink:title="C:/dev/Igor/src/Igor\l/src/iNodeSwitch.cpp">
<polygon fill="white" stroke="black" points="131,-6 131,-36 240,-36 240,-6 131,-6"/>
<text text-anchor="start" x="139" y="-24" font-family="Helvetica,sans-Serif" font-size="10.00">C:/dev/Igor/src/Igor</text>
<text text-anchor="middle" x="185.5" y="-13" font-family="Helvetica,sans-Serif" font-size="10.00">/src/iNodeSwitch.cpp</text>
</a>
</g>
</g>
<!-- Node1&#45;&gt;Node3 -->
<g id="edge2" class="edge"><title>Node1&#45;&gt;Node3</title>
<path fill="none" stroke="midnightblue" d="M372.556,-76.6616C336.862,-66.9422 290.467,-54.0814 249.5,-42 243.136,-40.1231 236.433,-38.0905 229.857,-36.0646"/>
<polygon fill="midnightblue" stroke="midnightblue" points="371.759,-80.0717 382.327,-79.3164 373.594,-73.3167 371.759,-80.0717"/>
</g>
<!-- Node4 -->
<g id="node4" class="node"><title>Node4</title>
<g id="a_node4"><a xlink:href="_manipulator_8cpp.html" target="_top" xlink:title="C:/dev/Igor/src/Tools\l/ModelViewer/src/Manipulator.cpp">
<polygon fill="white" stroke="black" points="258.5,-6 258.5,-36 422.5,-36 422.5,-6 258.5,-6"/>
<text text-anchor="start" x="266.5" y="-24" font-family="Helvetica,sans-Serif" font-size="10.00">C:/dev/Igor/src/Tools</text>
<text text-anchor="middle" x="340.5" y="-13" font-family="Helvetica,sans-Serif" font-size="10.00">/ModelViewer/src/Manipulator.cpp</text>
</a>
</g>
</g>
<!-- Node1&#45;&gt;Node4 -->
<g id="edge3" class="edge"><title>Node1&#45;&gt;Node4</title>
<path fill="none" stroke="midnightblue" d="M404.765,-71.7877C389.893,-60.2662 371.779,-46.2326 358.577,-36.0049"/>
<polygon fill="midnightblue" stroke="midnightblue" points="403.036,-74.8757 413.085,-78.2333 407.323,-69.342 403.036,-74.8757"/>
</g>
<!-- Node5 -->
<g id="node5" class="node"><title>Node5</title>
<g id="a_node5"><a xlink:href="_menu_dialog_8cpp.html" target="_top" xlink:title="C:/dev/Igor/src/Tools\l/ModelViewer/src/MenuDialog.cpp">
<polygon fill="white" stroke="black" points="440.5,-6 440.5,-36 604.5,-36 604.5,-6 440.5,-6"/>
<text text-anchor="start" x="448.5" y="-24" font-family="Helvetica,sans-Serif" font-size="10.00">C:/dev/Igor/src/Tools</text>
<text text-anchor="middle" x="522.5" y="-13" font-family="Helvetica,sans-Serif" font-size="10.00">/ModelViewer/src/MenuDialog.cpp</text>
</a>
</g>
</g>
<!-- Node1&#45;&gt;Node5 -->
<g id="edge4" class="edge"><title>Node1&#45;&gt;Node5</title>
<path fill="none" stroke="midnightblue" d="M458.235,-71.7877C473.107,-60.2662 491.221,-46.2326 504.423,-36.0049"/>
<polygon fill="midnightblue" stroke="midnightblue" points="455.677,-69.342 449.915,-78.2333 459.964,-74.8757 455.677,-69.342"/>
</g>
<!-- Node6 -->
<g id="node6" class="node"><title>Node6</title>
<g id="a_node6"><a xlink:href="_model_viewer_8cpp.html" target="_top" xlink:title="C:/dev/Igor/src/Tools\l/ModelViewer/src/ModelViewer.cpp">
<polygon fill="white" stroke="black" points="623,-6 623,-36 792,-36 792,-6 623,-6"/>
<text text-anchor="start" x="631" y="-24" font-family="Helvetica,sans-Serif" font-size="10.00">C:/dev/Igor/src/Tools</text>
<text text-anchor="middle" x="707.5" y="-13" font-family="Helvetica,sans-Serif" font-size="10.00">/ModelViewer/src/ModelViewer.cpp</text>
</a>
</g>
</g>
<!-- Node1&#45;&gt;Node6 -->
<g id="edge5" class="edge"><title>Node1&#45;&gt;Node6</title>
<path fill="none" stroke="midnightblue" d="M490.442,-77.4441C538.346,-65.2078 605.429,-48.0725 652.297,-36.1008"/>
<polygon fill="midnightblue" stroke="midnightblue" points="489.348,-74.1112 480.525,-79.9772 491.08,-80.8934 489.348,-74.1112"/>
</g>
<!-- Node7 -->
<g id="node7" class="node"><title>Node7</title>
<g id="a_node7"><a xlink:href="_properties_dialog_8cpp.html" target="_top" xlink:title="C:/dev/Igor/src/Tools\l/ModelViewer/src/Properties\lDialog.cpp">
<polygon fill="white" stroke="black" points="810,-0.5 810,-41.5 949,-41.5 949,-0.5 810,-0.5"/>
<text text-anchor="start" x="818" y="-29.5" font-family="Helvetica,sans-Serif" font-size="10.00">C:/dev/Igor/src/Tools</text>
<text text-anchor="start" x="818" y="-18.5" font-family="Helvetica,sans-Serif" font-size="10.00">/ModelViewer/src/Properties</text>
<text text-anchor="middle" x="879.5" y="-7.5" font-family="Helvetica,sans-Serif" font-size="10.00">Dialog.cpp</text>
</a>
</g>
</g>
<!-- Node1&#45;&gt;Node7 -->
<g id="edge6" class="edge"><title>Node1&#45;&gt;Node7</title>
<path fill="none" stroke="midnightblue" d="M490.547,-86.5666C563.867,-78.7118 692.577,-63.3239 801.5,-42 804.244,-41.4628 807.035,-40.8875 809.849,-40.2833"/>
<polygon fill="midnightblue" stroke="midnightblue" points="490.151,-83.0889 480.577,-87.6248 490.89,-90.0498 490.151,-83.0889"/>
</g>
</g>
</svg>
