<?xml version="1.0" encoding="UTF-8" standalone="no"?>
<!DOCTYPE svg PUBLIC "-//W3C//DTD SVG 1.1//EN"
 "http://www.w3.org/Graphics/SVG/1.1/DTD/svg11.dtd">
<!-- Generated by graphviz version 2.38.0 (20140413.2041)
 -->
<!-- Title: C:/dev/Igor/Igor/src/Igor/src/iNodeLight.h Pages: 1 -->
<svg width="992pt" height="195pt"
 viewBox="0.00 0.00 992.00 195.00" xmlns="http://www.w3.org/2000/svg" xmlns:xlink="http://www.w3.org/1999/xlink">
<g id="graph0" class="graph" transform="scale(1 1) rotate(0) translate(4 191)">
<title>C:/dev/Igor/Igor/src/Igor/src/iNodeLight.h</title>
<polygon fill="white" stroke="none" points="-4,4 -4,-191 988,-191 988,4 -4,4"/>
<!-- Node22 -->
<g id="node1" class="node"><title>Node22</title>
<g id="a_node1"><a xlink:title=" ">
<polygon fill="#bfbfbf" stroke="black" points="544.5,-156.5 544.5,-186.5 653.5,-186.5 653.5,-156.5 544.5,-156.5"/>
<text text-anchor="start" x="552.5" y="-174.5" font-family="Helvetica,sans-Serif" font-size="10.00">C:/dev/Igor/Igor/src</text>
<text text-anchor="middle" x="599" y="-163.5" font-family="Helvetica,sans-Serif" font-size="10.00">/Igor/src/iNodeLight.h</text>
</a>
</g>
</g>
<!-- Node23 -->
<g id="node2" class="node"><title>Node23</title>
<g id="a_node2"><a xlink:href="i_material_8cpp.html" target="_top" xlink:title=" ">
<polygon fill="white" stroke="black" points="0,-84 0,-114 110,-114 110,-84 0,-84"/>
<text text-anchor="start" x="8" y="-102" font-family="Helvetica,sans-Serif" font-size="10.00">C:/dev/Igor/Igor/src</text>
<text text-anchor="middle" x="55" y="-91" font-family="Helvetica,sans-Serif" font-size="10.00">/Igor/src/iMaterial.cpp</text>
</a>
</g>
</g>
<!-- Node22&#45;&gt;Node23 -->
<g id="edge1" class="edge"><title>Node22&#45;&gt;Node23</title>
<path fill="none" stroke="midnightblue" d="M534.398,-167.767C441.637,-162.928 265.718,-150.33 119,-120 111.362,-118.421 103.338,-116.299 95.6538,-114.025"/>
<polygon fill="midnightblue" stroke="midnightblue" points="534.308,-171.267 544.473,-168.279 534.664,-164.276 534.308,-171.267"/>
</g>
<!-- Node24 -->
<g id="node3" class="node"><title>Node24</title>
<g id="a_node3"><a xlink:href="i_node_factory_8cpp.html" target="_top" xlink:title=" ">
<polygon fill="white" stroke="black" points="128.5,-84 128.5,-114 259.5,-114 259.5,-84 128.5,-84"/>
<text text-anchor="start" x="136.5" y="-102" font-family="Helvetica,sans-Serif" font-size="10.00">C:/dev/Igor/Igor/src</text>
<text text-anchor="middle" x="194" y="-91" font-family="Helvetica,sans-Serif" font-size="10.00">/Igor/src/iNodeFactory.cpp</text>
</a>
</g>
</g>
<!-- Node22&#45;&gt;Node24 -->
<g id="edge2" class="edge"><title>Node22&#45;&gt;Node24</title>
<path fill="none" stroke="midnightblue" d="M534.407,-162.728C467.608,-154.197 360.463,-139.134 269,-120 260.822,-118.289 252.206,-116.234 243.844,-114.101"/>
<polygon fill="midnightblue" stroke="midnightblue" points="534.007,-166.205 544.368,-163.99 534.887,-159.261 534.007,-166.205"/>
</g>
<!-- Node25 -->
<g id="node4" class="node"><title>Node25</title>
<g id="a_node4"><a xlink:href="i_node_light_8cpp.html" target="_top" xlink:title=" ">
<polygon fill="white" stroke="black" points="277.5,-84 277.5,-114 396.5,-114 396.5,-84 277.5,-84"/>
<text text-anchor="start" x="285.5" y="-102" font-family="Helvetica,sans-Serif" font-size="10.00">C:/dev/Igor/Igor/src</text>
<text text-anchor="middle" x="337" y="-91" font-family="Helvetica,sans-Serif" font-size="10.00">/Igor/src/iNodeLight.cpp</text>
</a>
</g>
</g>
<!-- Node22&#45;&gt;Node25 -->
<g id="edge3" class="edge"><title>Node22&#45;&gt;Node25</title>
<path fill="none" stroke="midnightblue" d="M534.603,-154.1C497.031,-144.419 448.757,-131.788 406,-120 399.147,-118.11 391.924,-116.071 384.837,-114.042"/>
<polygon fill="midnightblue" stroke="midnightblue" points="533.852,-157.521 544.408,-156.622 535.595,-150.741 533.852,-157.521"/>
</g>
<!-- Node26 -->
<g id="node5" class="node"><title>Node26</title>
<g id="a_node5"><a xlink:href="i_render_engine_8cpp.html" target="_top" xlink:title=" ">
<polygon fill="white" stroke="black" points="414.5,-84 414.5,-114 551.5,-114 551.5,-84 414.5,-84"/>
<text text-anchor="start" x="422.5" y="-102" font-family="Helvetica,sans-Serif" font-size="10.00">C:/dev/Igor/Igor/src</text>
<text text-anchor="middle" x="483" y="-91" font-family="Helvetica,sans-Serif" font-size="10.00">/Igor/src/iRenderEngine.cpp</text>
</a>
</g>
</g>
<!-- Node22&#45;&gt;Node26 -->
<g id="edge4" class="edge"><title>Node22&#45;&gt;Node26</title>
<path fill="none" stroke="midnightblue" d="M567.049,-151.082C547.757,-139.357 523.611,-124.682 506.155,-114.073"/>
<polygon fill="midnightblue" stroke="midnightblue" points="565.441,-154.2 575.804,-156.403 569.077,-148.218 565.441,-154.2"/>
</g>
<!-- Node27 -->
<g id="node6" class="node"><title>Node27</title>
<g id="a_node6"><a xlink:href="_menu_dialog_8cpp.html" target="_top" xlink:title=" ">
<polygon fill="white" stroke="black" points="442,-0.5 442,-41.5 560,-41.5 560,-0.5 442,-0.5"/>
<text text-anchor="start" x="450" y="-29.5" font-family="Helvetica,sans-Serif" font-size="10.00">C:/dev/Igor/Igor/src</text>
<text text-anchor="start" x="450" y="-18.5" font-family="Helvetica,sans-Serif" font-size="10.00">/Tools/ModelViewer/src</text>
<text text-anchor="middle" x="501" y="-7.5" font-family="Helvetica,sans-Serif" font-size="10.00">/MenuDialog.cpp</text>
</a>
</g>
</g>
<!-- Node22&#45;&gt;Node27 -->
<g id="edge5" class="edge"><title>Node22&#45;&gt;Node27</title>
<path fill="none" stroke="midnightblue" d="M592.366,-146.756C586.195,-127.194 575.728,-99.3061 561,-78 551.601,-64.4036 538.401,-51.6309 526.774,-41.727"/>
<polygon fill="midnightblue" stroke="midnightblue" points="589.039,-147.846 595.277,-156.41 595.741,-145.825 589.039,-147.846"/>
</g>
<!-- Node28 -->
<g id="node7" class="node"><title>Node28</title>
<g id="a_node7"><a xlink:href="_user_control_light_8h.html" target="_top" xlink:title=" ">
<polygon fill="white" stroke="black" points="646,-78.5 646,-119.5 764,-119.5 764,-78.5 646,-78.5"/>
<text text-anchor="start" x="654" y="-107.5" font-family="Helvetica,sans-Serif" font-size="10.00">C:/dev/Igor/Igor/src</text>
<text text-anchor="start" x="654" y="-96.5" font-family="Helvetica,sans-Serif" font-size="10.00">/Tools/ModelViewer/src</text>
<text text-anchor="middle" x="705" y="-85.5" font-family="Helvetica,sans-Serif" font-size="10.00">/UserControlLight.h</text>
</a>
</g>
</g>
<!-- Node22&#45;&gt;Node28 -->
<g id="edge6" class="edge"><title>Node22&#45;&gt;Node28</title>
<path fill="none" stroke="midnightblue" d="M628.838,-150.655C643.405,-140.967 660.877,-129.346 675.41,-119.68"/>
<polygon fill="midnightblue" stroke="midnightblue" points="626.584,-147.95 620.196,-156.403 630.461,-153.779 626.584,-147.95"/>
</g>
<!-- Node29 -->
<g id="node8" class="node"><title>Node29</title>
<g id="a_node8"><a xlink:href="_properties_dialog_8cpp.html" target="_top" xlink:title=" ">
<polygon fill="white" stroke="black" points="578,-0.5 578,-41.5 696,-41.5 696,-0.5 578,-0.5"/>
<text text-anchor="start" x="586" y="-29.5" font-family="Helvetica,sans-Serif" font-size="10.00">C:/dev/Igor/Igor/src</text>
<text text-anchor="start" x="586" y="-18.5" font-family="Helvetica,sans-Serif" font-size="10.00">/Tools/ModelViewer/src</text>
<text text-anchor="middle" x="637" y="-7.5" font-family="Helvetica,sans-Serif" font-size="10.00">/PropertiesDialog.cpp</text>
</a>
</g>
</g>
<!-- Node22&#45;&gt;Node29 -->
<g id="edge12" class="edge"><title>Node22&#45;&gt;Node29</title>
<path fill="none" stroke="midnightblue" d="M605.151,-146.461C612.624,-117.258 625.086,-68.5576 631.998,-41.5474"/>
<polygon fill="midnightblue" stroke="midnightblue" points="601.732,-145.706 602.644,-156.261 608.513,-147.441 601.732,-145.706"/>
</g>
<!-- Node30 -->
<g id="node9" class="node"><title>Node30</title>
<g id="a_node9"><a xlink:href="_user_control_light_8cpp.html" target="_top" xlink:title=" ">
<polygon fill="white" stroke="black" points="714,-0.5 714,-41.5 832,-41.5 832,-0.5 714,-0.5"/>
<text text-anchor="start" x="722" y="-29.5" font-family="Helvetica,sans-Serif" font-size="10.00">C:/dev/Igor/Igor/src</text>
<text text-anchor="start" x="722" y="-18.5" font-family="Helvetica,sans-Serif" font-size="10.00">/Tools/ModelViewer/src</text>
<text text-anchor="middle" x="773" y="-7.5" font-family="Helvetica,sans-Serif" font-size="10.00">/UserControlLight.cpp</text>
</a>
</g>
</g>
<!-- Node22&#45;&gt;Node30 -->
<g id="edge13" class="edge"><title>Node22&#45;&gt;Node30</title>
<path fill="none" stroke="midnightblue" d="M663.857,-159.989C707.561,-151.431 759.594,-137.85 773,-120 789.859,-97.5528 784.985,-63.3303 779.391,-41.8365"/>
<polygon fill="midnightblue" stroke="midnightblue" points="662.989,-156.592 653.818,-161.898 664.296,-163.469 662.989,-156.592"/>
</g>
<!-- Node31 -->
<g id="node10" class="node"><title>Node31</title>
<g id="a_node10"><a xlink:href="_user_control_properties_8cpp.html" target="_top" xlink:title=" ">
<polygon fill="white" stroke="black" points="850,-0.5 850,-41.5 984,-41.5 984,-0.5 850,-0.5"/>
<text text-anchor="start" x="858" y="-29.5" font-family="Helvetica,sans-Serif" font-size="10.00">C:/dev/Igor/Igor/src</text>
<text text-anchor="start" x="858" y="-18.5" font-family="Helvetica,sans-Serif" font-size="10.00">/Tools/ModelViewer/src</text>
<text text-anchor="middle" x="917" y="-7.5" font-family="Helvetica,sans-Serif" font-size="10.00">/UserControlProperties.cpp</text>
</a>
</g>
</g>
<!-- Node22&#45;&gt;Node31 -->
<g id="edge14" class="edge"><title>Node22&#45;&gt;Node31</title>
<path fill="none" stroke="midnightblue" d="M663.611,-160.443C702.258,-152.784 751.554,-140.06 792,-120 803.086,-114.502 860.081,-68.533 893.154,-41.5505"/>
<polygon fill="midnightblue" stroke="midnightblue" points="662.682,-157.057 653.519,-162.376 663.999,-163.932 662.682,-157.057"/>
</g>
<!-- Node32 -->
<g id="node11" class="node"><title>Node32</title>
<g id="a_node11"><a xlink:href="_model_viewer_8cpp.html" target="_top" xlink:title=" ">
<polygon fill="white" stroke="black" points="858,-78.5 858,-119.5 976,-119.5 976,-78.5 858,-78.5"/>
<text text-anchor="start" x="866" y="-107.5" font-family="Helvetica,sans-Serif" font-size="10.00">C:/dev/Igor/Igor/src</text>
<text text-anchor="start" x="866" y="-96.5" font-family="Helvetica,sans-Serif" font-size="10.00">/Tools/ModelViewer/src</text>
<text text-anchor="middle" x="917" y="-85.5" font-family="Helvetica,sans-Serif" font-size="10.00">/ModelViewer.cpp</text>
</a>
</g>
</g>
<!-- Node22&#45;&gt;Node32 -->
<g id="edge11" class="edge"><title>Node22&#45;&gt;Node32</title>
<path fill="none" stroke="midnightblue" d="M663.654,-158.348C713.196,-148.753 783.155,-134.59 844,-120 848.472,-118.928 853.086,-117.775 857.72,-116.583"/>
<polygon fill="midnightblue" stroke="midnightblue" points="662.871,-154.934 653.715,-160.265 664.197,-161.808 662.871,-154.934"/>
</g>
<!-- Node28&#45;&gt;Node27 -->
<g id="edge7" class="edge"><title>Node28&#45;&gt;Node27</title>
<path fill="none" stroke="midnightblue" d="M642.961,-74.8874C614.323,-64.2185 580.694,-51.6901 553.357,-41.5056"/>
<polygon fill="midnightblue" stroke="midnightblue" points="641.872,-78.2167 652.465,-78.4281 644.316,-71.6572 641.872,-78.2167"/>
</g>
<!-- Node28&#45;&gt;Node29 -->
<g id="edge8" class="edge"><title>Node28&#45;&gt;Node29</title>
<path fill="none" stroke="midnightblue" d="M680.767,-70.9158C672.076,-61.2029 662.455,-50.4502 654.452,-41.5056"/>
<polygon fill="midnightblue" stroke="midnightblue" points="678.212,-73.3095 687.488,-78.4281 683.429,-68.6419 678.212,-73.3095"/>
</g>
<!-- Node28&#45;&gt;Node30 -->
<g id="edge9" class="edge"><title>Node28&#45;&gt;Node30</title>
<path fill="none" stroke="midnightblue" d="M729.233,-70.9158C737.924,-61.2029 747.545,-50.4502 755.548,-41.5056"/>
<polygon fill="midnightblue" stroke="midnightblue" points="726.571,-68.6419 722.512,-78.4281 731.788,-73.3095 726.571,-68.6419"/>
</g>
<!-- Node28&#45;&gt;Node31 -->
<g id="edge10" class="edge"><title>Node28&#45;&gt;Node31</title>
<path fill="none" stroke="midnightblue" d="M769.084,-75.0264C798.928,-64.3275 834.057,-51.7343 862.59,-41.5056"/>
<polygon fill="midnightblue" stroke="midnightblue" points="767.828,-71.7587 759.595,-78.4281 770.19,-78.3481 767.828,-71.7587"/>
</g>
</g>
</svg>
