<?xml version="1.0" encoding="UTF-8" standalone="no"?>
<!DOCTYPE svg PUBLIC "-//W3C//DTD SVG 1.1//EN"
 "http://www.w3.org/Graphics/SVG/1.1/DTD/svg11.dtd">
<!-- Generated by graphviz version 2.38.0 (20140413.2041)
 -->
<!-- Title: C:/dev/Igor/Igor/src/Igor/src/iNodeVisitorRenderBoundings.h Pages: 1 -->
<svg width="302pt" height="128pt"
 viewBox="0.00 0.00 301.50 128.00" xmlns="http://www.w3.org/2000/svg" xmlns:xlink="http://www.w3.org/1999/xlink">
<g id="graph0" class="graph" transform="scale(1 1) rotate(0) translate(4 124)">
<title>C:/dev/Igor/Igor/src/Igor/src/iNodeVisitorRenderBoundings.h</title>
<polygon fill="white" stroke="none" points="-4,4 -4,-124 297.5,-124 297.5,4 -4,4"/>
<!-- Node38 -->
<g id="node1" class="node"><title>Node38</title>
<g id="a_node1"><a xlink:title=" ">
<polygon fill="#bfbfbf" stroke="black" points="78,-78.5 78,-119.5 216,-119.5 216,-78.5 78,-78.5"/>
<text text-anchor="start" x="86" y="-107.5" font-family="Helvetica,sans-Serif" font-size="10.00">C:/dev/Igor/Igor/src</text>
<text text-anchor="start" x="86" y="-96.5" font-family="Helvetica,sans-Serif" font-size="10.00">/Igor/src/iNodeVisitorRender</text>
<text text-anchor="middle" x="147" y="-85.5" font-family="Helvetica,sans-Serif" font-size="10.00">Boundings.h</text>
</a>
</g>
</g>
<!-- Node39 -->
<g id="node2" class="node"><title>Node39</title>
<g id="a_node2"><a xlink:href="i_node_visitor_render_boundings_8cpp.html" target="_top" xlink:title=" ">
<polygon fill="white" stroke="black" points="0,-0.5 0,-41.5 138,-41.5 138,-0.5 0,-0.5"/>
<text text-anchor="start" x="8" y="-29.5" font-family="Helvetica,sans-Serif" font-size="10.00">C:/dev/Igor/Igor/src</text>
<text text-anchor="start" x="8" y="-18.5" font-family="Helvetica,sans-Serif" font-size="10.00">/Igor/src/iNodeVisitorRender</text>
<text text-anchor="middle" x="69" y="-7.5" font-family="Helvetica,sans-Serif" font-size="10.00">Boundings.cpp</text>
</a>
</g>
</g>
<!-- Node38&#45;&gt;Node39 -->
<g id="edge1" class="edge"><title>Node38&#45;&gt;Node39</title>
<path fill="none" stroke="midnightblue" d="M119.499,-71.204C109.453,-61.416 98.2898,-50.5388 89.0189,-41.5056"/>
<polygon fill="midnightblue" stroke="midnightblue" points="117.308,-73.9562 126.913,-78.4281 122.193,-68.9426 117.308,-73.9562"/>
</g>
<!-- Node40 -->
<g id="node3" class="node"><title>Node40</title>
<g id="a_node3"><a xlink:href="i_render_engine_8cpp.html" target="_top" xlink:title=" ">
<polygon fill="white" stroke="black" points="156.5,-6 156.5,-36 293.5,-36 293.5,-6 156.5,-6"/>
<text text-anchor="start" x="164.5" y="-24" font-family="Helvetica,sans-Serif" font-size="10.00">C:/dev/Igor/Igor/src</text>
<text text-anchor="middle" x="225" y="-13" font-family="Helvetica,sans-Serif" font-size="10.00">/Igor/src/iRenderEngine.cpp</text>
</a>
</g>
</g>
<!-- Node38&#45;&gt;Node40 -->
<g id="edge2" class="edge"><title>Node38&#45;&gt;Node40</title>
<path fill="none" stroke="midnightblue" d="M174.378,-71.3245C186.505,-59.5076 200.284,-46.0827 210.4,-36.2254"/>
<polygon fill="midnightblue" stroke="midnightblue" points="171.807,-68.9426 167.087,-78.4281 176.692,-73.9562 171.807,-68.9426"/>
</g>
</g>
</svg>
