<?xml version="1.0" encoding="UTF-8" standalone="no"?>
<!DOCTYPE svg PUBLIC "-//W3C//DTD SVG 1.1//EN"
 "http://www.w3.org/Graphics/SVG/1.1/DTD/svg11.dtd">
<!-- Generated by graphviz version 2.38.0 (20140413.2041)
 -->
<!-- Title: C:/dev/Igor/Igor/src/Igor/src/iNodeVisitorUpdateTransform.h Pages: 1 -->
<svg width="898pt" height="386pt"
 viewBox="0.00 0.00 897.96 386.00" xmlns="http://www.w3.org/2000/svg" xmlns:xlink="http://www.w3.org/1999/xlink">
<g id="graph0" class="graph" transform="scale(1 1) rotate(0) translate(4 382)">
<title>C:/dev/Igor/Igor/src/Igor/src/iNodeVisitorUpdateTransform.h</title>
<polygon fill="white" stroke="none" points="-4,4 -4,-382 893.955,-382 893.955,4 -4,4"/>
<!-- Node0 -->
<g id="node1" class="node"><title>Node0</title>
<g id="a_node1"><a xlink:title=" ">
<polygon fill="#bfbfbf" stroke="black" points="505.955,-336.5 505.955,-377.5 643.955,-377.5 643.955,-336.5 505.955,-336.5"/>
<text text-anchor="start" x="513.955" y="-365.5" font-family="Helvetica,sans-Serif" font-size="10.00">C:/dev/Igor/Igor/src</text>
<text text-anchor="start" x="513.955" y="-354.5" font-family="Helvetica,sans-Serif" font-size="10.00">/Igor/src/iNodeVisitorUpdate</text>
<text text-anchor="middle" x="574.955" y="-343.5" font-family="Helvetica,sans-Serif" font-size="10.00">Transform.h</text>
</a>
</g>
</g>
<!-- Node1 -->
<g id="node2" class="node"><title>Node1</title>
<g id="a_node2"><a xlink:href="i_node_visitor_8h.html" target="_top" xlink:title=" ">
<polygon fill="white" stroke="black" points="417.455,-280.5 417.455,-299.5 494.455,-299.5 494.455,-280.5 417.455,-280.5"/>
<text text-anchor="middle" x="455.955" y="-287.5" font-family="Helvetica,sans-Serif" font-size="10.00">iNodeVisitor.h</text>
</a>
</g>
</g>
<!-- Node0&#45;&gt;Node1 -->
<g id="edge1" class="edge"><title>Node0&#45;&gt;Node1</title>
<path fill="none" stroke="midnightblue" d="M539.251,-336.498C520.48,-326.245 497.926,-313.925 481.023,-304.693"/>
<polygon fill="midnightblue" stroke="midnightblue" points="482.25,-301.375 471.796,-299.652 478.894,-307.518 482.25,-301.375"/>
</g>
<!-- Node7 -->
<g id="node8" class="node"><title>Node7</title>
<g id="a_node8"><a xlink:title=" ">
<polygon fill="white" stroke="#bfbfbf" points="266.955,-112.5 266.955,-131.5 308.955,-131.5 308.955,-112.5 266.955,-112.5"/>
<text text-anchor="middle" x="287.955" y="-119.5" font-family="Helvetica,sans-Serif" font-size="10.00">vector</text>
</a>
</g>
</g>
<!-- Node0&#45;&gt;Node7 -->
<g id="edge38" class="edge"><title>Node0&#45;&gt;Node7</title>
<path fill="none" stroke="midnightblue" d="M579.806,-336.434C587.937,-298.466 599.456,-214.454 555.955,-168 524.251,-134.144 383.149,-125.749 319.401,-123.675"/>
<polygon fill="midnightblue" stroke="midnightblue" points="319.249,-120.17 309.151,-123.375 319.044,-127.167 319.249,-120.17"/>
</g>
<!-- Node10 -->
<g id="node11" class="node"><title>Node10</title>
<g id="a_node11"><a xlink:href="ia_matrix_8h.html" target="_top" xlink:title=" ">
<polygon fill="white" stroke="black" points="620.455,-168.5 620.455,-187.5 679.455,-187.5 679.455,-168.5 620.455,-168.5"/>
<text text-anchor="middle" x="649.955" y="-175.5" font-family="Helvetica,sans-Serif" font-size="10.00">iaMatrix.h</text>
</a>
</g>
</g>
<!-- Node0&#45;&gt;Node10 -->
<g id="edge37" class="edge"><title>Node0&#45;&gt;Node10</title>
<path fill="none" stroke="midnightblue" d="M583.268,-336.382C597.929,-301.783 628.165,-230.425 642.326,-197.006"/>
<polygon fill="midnightblue" stroke="midnightblue" points="645.639,-198.157 646.318,-187.584 639.194,-195.426 645.639,-198.157"/>
</g>
<!-- Node2 -->
<g id="node3" class="node"><title>Node2</title>
<g id="a_node3"><a xlink:href="i_defines_8h.html" target="_top" xlink:title=" ">
<polygon fill="white" stroke="black" points="4.45535,-112.5 4.45535,-131.5 63.4554,-131.5 63.4554,-112.5 4.45535,-112.5"/>
<text text-anchor="middle" x="33.9554" y="-119.5" font-family="Helvetica,sans-Serif" font-size="10.00">iDefines.h</text>
</a>
</g>
</g>
<!-- Node1&#45;&gt;Node2 -->
<g id="edge2" class="edge"><title>Node1&#45;&gt;Node2</title>
<path fill="none" stroke="midnightblue" d="M417.338,-286.357C317.8,-278.662 56.6784,-252.587 4.95535,-188 -6.7962,-173.326 5.66268,-153.136 17.7061,-139.169"/>
<polygon fill="midnightblue" stroke="midnightblue" points="20.3436,-141.472 24.5628,-131.753 15.204,-136.72 20.3436,-141.472"/>
</g>
<!-- Node4 -->
<g id="node5" class="node"><title>Node4</title>
<g id="a_node5"><a xlink:href="i_node_8h.html" target="_top" xlink:title=" ">
<polygon fill="white" stroke="black" points="330.955,-224.5 330.955,-243.5 380.955,-243.5 380.955,-224.5 330.955,-224.5"/>
<text text-anchor="middle" x="355.955" y="-231.5" font-family="Helvetica,sans-Serif" font-size="10.00">iNode.h</text>
</a>
</g>
</g>
<!-- Node1&#45;&gt;Node4 -->
<g id="edge4" class="edge"><title>Node1&#45;&gt;Node4</title>
<path fill="none" stroke="midnightblue" d="M439.889,-280.324C423.998,-271.743 399.448,-258.486 380.997,-248.522"/>
<polygon fill="midnightblue" stroke="midnightblue" points="382.444,-245.326 371.982,-243.655 379.118,-251.486 382.444,-245.326"/>
</g>
<!-- Node20 -->
<g id="node21" class="node"><title>Node20</title>
<g id="a_node21"><a xlink:title=" ">
<polygon fill="white" stroke="#bfbfbf" points="494.955,-168.5 494.955,-187.5 546.955,-187.5 546.955,-168.5 494.955,-168.5"/>
<text text-anchor="middle" x="520.955" y="-175.5" font-family="Helvetica,sans-Serif" font-size="10.00">memory</text>
</a>
</g>
</g>
<!-- Node1&#45;&gt;Node20 -->
<g id="edge36" class="edge"><title>Node1&#45;&gt;Node20</title>
<path fill="none" stroke="midnightblue" d="M461.056,-280.368C471.735,-262.296 496.624,-220.176 510.728,-196.307"/>
<polygon fill="midnightblue" stroke="midnightblue" points="513.805,-197.981 515.879,-187.591 507.778,-194.42 513.805,-197.981"/>
</g>
<!-- Node3 -->
<g id="node4" class="node"><title>Node3</title>
<g id="a_node4"><a xlink:href="ia_defines_8h.html" target="_top" xlink:title=" ">
<polygon fill="white" stroke="black" points="257.455,-0.5 257.455,-19.5 322.455,-19.5 322.455,-0.5 257.455,-0.5"/>
<text text-anchor="middle" x="289.955" y="-7.5" font-family="Helvetica,sans-Serif" font-size="10.00">iaDefines.h</text>
</a>
</g>
</g>
<!-- Node2&#45;&gt;Node3 -->
<g id="edge3" class="edge"><title>Node2&#45;&gt;Node3</title>
<path fill="none" stroke="midnightblue" d="M54.0432,-112.368C99.0011,-93.0507 207.898,-46.2592 260.52,-23.6481"/>
<polygon fill="midnightblue" stroke="midnightblue" points="262.155,-26.755 269.961,-19.5914 259.391,-20.3236 262.155,-26.755"/>
</g>
<!-- Node4&#45;&gt;Node2 -->
<g id="edge10" class="edge"><title>Node4&#45;&gt;Node2</title>
<path fill="none" stroke="midnightblue" d="M330.707,-231.568C255.17,-227.028 34.8592,-211.834 13.9554,-188 2.20471,-174.602 11.263,-154.407 20.6771,-140.088"/>
<polygon fill="midnightblue" stroke="midnightblue" points="23.735,-141.828 26.6999,-131.657 18.0391,-137.759 23.735,-141.828"/>
</g>
<!-- Node5 -->
<g id="node6" class="node"><title>Node5</title>
<g id="a_node6"><a xlink:href="i_data_update_queue_8h.html" target="_top" xlink:title=" ">
<polygon fill="white" stroke="black" points="23.4554,-168.5 23.4554,-187.5 130.455,-187.5 130.455,-168.5 23.4554,-168.5"/>
<text text-anchor="middle" x="76.9554" y="-175.5" font-family="Helvetica,sans-Serif" font-size="10.00">iDataUpdateQueue.h</text>
</a>
</g>
</g>
<!-- Node4&#45;&gt;Node5 -->
<g id="edge5" class="edge"><title>Node4&#45;&gt;Node5</title>
<path fill="none" stroke="midnightblue" d="M330.704,-228.113C285.816,-219.425 191.207,-201.113 131.048,-189.469"/>
<polygon fill="midnightblue" stroke="midnightblue" points="131.452,-185.983 120.969,-187.519 130.122,-192.855 131.452,-185.983"/>
</g>
<!-- Node6 -->
<g id="node7" class="node"><title>Node6</title>
<g id="a_node7"><a xlink:href="ia_mutex_8h.html" target="_top" xlink:title=" ">
<polygon fill="white" stroke="black" points="159.455,-112.5 159.455,-131.5 218.455,-131.5 218.455,-112.5 159.455,-112.5"/>
<text text-anchor="middle" x="188.955" y="-119.5" font-family="Helvetica,sans-Serif" font-size="10.00">iaMutex.h</text>
</a>
</g>
</g>
<!-- Node4&#45;&gt;Node6 -->
<g id="edge28" class="edge"><title>Node4&#45;&gt;Node6</title>
<path fill="none" stroke="midnightblue" d="M330.624,-230.374C286.067,-225.177 196.608,-211.955 177.955,-188 167.544,-174.629 172.856,-154.982 179.185,-140.791"/>
<polygon fill="midnightblue" stroke="midnightblue" points="182.442,-142.102 183.764,-131.59 176.176,-138.983 182.442,-142.102"/>
</g>
<!-- Node4&#45;&gt;Node7 -->
<g id="edge33" class="edge"><title>Node4&#45;&gt;Node7</title>
<path fill="none" stroke="midnightblue" d="M347.327,-224.257C339.072,-215.576 326.631,-201.629 317.955,-188 308.477,-173.108 300.281,-154.733 294.863,-141.323"/>
<polygon fill="midnightblue" stroke="midnightblue" points="298.04,-139.836 291.141,-131.795 291.519,-142.383 298.04,-139.836"/>
</g>
<!-- Node8 -->
<g id="node9" class="node"><title>Node8</title>
<g id="a_node9"><a xlink:href="ia_string_8h.html" target="_top" xlink:title=" ">
<polygon fill="white" stroke="black" points="326.955,-168.5 326.955,-187.5 384.955,-187.5 384.955,-168.5 326.955,-168.5"/>
<text text-anchor="middle" x="355.955" y="-175.5" font-family="Helvetica,sans-Serif" font-size="10.00">iaString.h</text>
</a>
</g>
</g>
<!-- Node4&#45;&gt;Node8 -->
<g id="edge11" class="edge"><title>Node4&#45;&gt;Node8</title>
<path fill="none" stroke="midnightblue" d="M355.955,-224.083C355.955,-217.006 355.955,-206.861 355.955,-197.986"/>
<polygon fill="midnightblue" stroke="midnightblue" points="359.455,-197.751 355.955,-187.751 352.455,-197.751 359.455,-197.751"/>
</g>
<!-- Node9 -->
<g id="node10" class="node"><title>Node9</title>
<g id="a_node10"><a xlink:title=" ">
<polygon fill="white" stroke="#bfbfbf" points="395.955,-0.5 395.955,-19.5 447.955,-19.5 447.955,-0.5 395.955,-0.5"/>
<text text-anchor="middle" x="421.955" y="-7.5" font-family="Helvetica,sans-Serif" font-size="10.00">ostream</text>
</a>
</g>
</g>
<!-- Node4&#45;&gt;Node9 -->
<g id="edge32" class="edge"><title>Node4&#45;&gt;Node9</title>
<path fill="none" stroke="midnightblue" d="M365.783,-224.405C374.66,-216.043 387.319,-202.506 393.955,-188 418.501,-134.349 422.046,-63.0548 422.234,-29.6987"/>
<polygon fill="midnightblue" stroke="midnightblue" points="425.734,-29.5581 422.19,-19.5735 418.734,-29.5888 425.734,-29.5581"/>
</g>
<!-- Node4&#45;&gt;Node10 -->
<g id="edge15" class="edge"><title>Node4&#45;&gt;Node10</title>
<path fill="none" stroke="midnightblue" d="M381.022,-228.396C432.085,-219.017 548.524,-197.63 610.092,-186.322"/>
<polygon fill="midnightblue" stroke="midnightblue" points="610.999,-189.714 620.203,-184.465 609.735,-182.829 610.999,-189.714"/>
</g>
<!-- Node19 -->
<g id="node20" class="node"><title>Node19</title>
<g id="a_node20"><a xlink:href="ia_i_d_generator_8h.html" target="_top" xlink:title=" ">
<polygon fill="white" stroke="black" points="186.955,-168.5 186.955,-187.5 270.955,-187.5 270.955,-168.5 186.955,-168.5"/>
<text text-anchor="middle" x="228.955" y="-175.5" font-family="Helvetica,sans-Serif" font-size="10.00">iaIDGenerator.h</text>
</a>
</g>
</g>
<!-- Node4&#45;&gt;Node19 -->
<g id="edge29" class="edge"><title>Node4&#45;&gt;Node19</title>
<path fill="none" stroke="midnightblue" d="M335.832,-224.444C314.931,-215.557 282.021,-201.563 258.239,-191.451"/>
<polygon fill="midnightblue" stroke="midnightblue" points="259.557,-188.208 248.985,-187.516 256.818,-194.65 259.557,-188.208"/>
</g>
<!-- Node4&#45;&gt;Node20 -->
<g id="edge34" class="edge"><title>Node4&#45;&gt;Node20</title>
<path fill="none" stroke="midnightblue" d="M381.015,-224.799C408.755,-215.72 453.695,-201.012 485.143,-190.72"/>
<polygon fill="midnightblue" stroke="midnightblue" points="486.425,-193.984 494.841,-187.547 484.248,-187.331 486.425,-193.984"/>
</g>
<!-- Node21 -->
<g id="node22" class="node"><title>Node21</title>
<g id="a_node22"><a xlink:title=" ">
<polygon fill="white" stroke="#bfbfbf" points="441.455,-168.5 441.455,-187.5 476.455,-187.5 476.455,-168.5 441.455,-168.5"/>
<text text-anchor="middle" x="458.955" y="-175.5" font-family="Helvetica,sans-Serif" font-size="10.00">map</text>
</a>
</g>
</g>
<!-- Node4&#45;&gt;Node21 -->
<g id="edge35" class="edge"><title>Node4&#45;&gt;Node21</title>
<path fill="none" stroke="midnightblue" d="M372.504,-224.324C388.947,-215.703 414.39,-202.364 433.424,-192.386"/>
<polygon fill="midnightblue" stroke="midnightblue" points="435.216,-195.398 442.448,-187.655 431.966,-189.198 435.216,-195.398"/>
</g>
<!-- Node5&#45;&gt;Node2 -->
<g id="edge6" class="edge"><title>Node5&#45;&gt;Node2</title>
<path fill="none" stroke="midnightblue" d="M69.8548,-168.083C63.7184,-160.377 54.6856,-149.033 47.2161,-139.653"/>
<polygon fill="midnightblue" stroke="midnightblue" points="49.8911,-137.394 40.9238,-131.751 44.4151,-141.754 49.8911,-137.394"/>
</g>
<!-- Node5&#45;&gt;Node6 -->
<g id="edge7" class="edge"><title>Node5&#45;&gt;Node6</title>
<path fill="none" stroke="midnightblue" d="M94.9501,-168.324C112.993,-159.625 141.002,-146.12 161.758,-136.113"/>
<polygon fill="midnightblue" stroke="midnightblue" points="163.518,-139.15 171.005,-131.655 160.478,-132.845 163.518,-139.15"/>
</g>
<!-- Node5&#45;&gt;Node7 -->
<g id="edge9" class="edge"><title>Node5&#45;&gt;Node7</title>
<path fill="none" stroke="midnightblue" d="M110.389,-168.444C150.711,-158.124 217.936,-140.92 257.078,-130.902"/>
<polygon fill="midnightblue" stroke="midnightblue" points="258.04,-134.269 266.86,-128.399 256.304,-127.488 258.04,-134.269"/>
</g>
<!-- Node6&#45;&gt;Node3 -->
<g id="edge8" class="edge"><title>Node6&#45;&gt;Node3</title>
<path fill="none" stroke="midnightblue" d="M196.881,-112.368C213.77,-93.9744 253.53,-50.6712 275.217,-27.0519"/>
<polygon fill="midnightblue" stroke="midnightblue" points="277.882,-29.3246 282.067,-19.5914 272.725,-24.5903 277.882,-29.3246"/>
</g>
<!-- Node8&#45;&gt;Node3 -->
<g id="edge12" class="edge"><title>Node8&#45;&gt;Node3</title>
<path fill="none" stroke="midnightblue" d="M352.407,-168.075C341.973,-141.832 311.244,-64.5453 297.158,-29.1165"/>
<polygon fill="midnightblue" stroke="midnightblue" points="300.309,-27.5675 293.362,-19.5681 293.804,-30.1537 300.309,-27.5675"/>
</g>
<!-- Node8&#45;&gt;Node7 -->
<g id="edge14" class="edge"><title>Node8&#45;&gt;Node7</title>
<path fill="none" stroke="midnightblue" d="M345.03,-168.324C334.781,-160.185 319.235,-147.839 306.954,-138.087"/>
<polygon fill="midnightblue" stroke="midnightblue" points="309.087,-135.312 299.08,-131.834 304.734,-140.794 309.087,-135.312"/>
</g>
<!-- Node8&#45;&gt;Node9 -->
<g id="edge13" class="edge"><title>Node8&#45;&gt;Node9</title>
<path fill="none" stroke="midnightblue" d="M358.601,-168.343C364.825,-148.275 381.218,-97.1509 398.955,-56 402.906,-46.835 407.887,-36.9301 412.202,-28.7523"/>
<polygon fill="midnightblue" stroke="midnightblue" points="415.363,-30.2639 417.022,-19.7997 409.2,-26.9454 415.363,-30.2639"/>
</g>
<!-- Node10&#45;&gt;Node9 -->
<g id="edge25" class="edge"><title>Node10&#45;&gt;Node9</title>
<path fill="none" stroke="midnightblue" d="M627.257,-168.467C590.779,-153.899 518.31,-121.348 469.955,-76 454.824,-61.8097 441.158,-42.3249 432.313,-28.397"/>
<polygon fill="midnightblue" stroke="midnightblue" points="435.226,-26.4534 427.001,-19.7757 429.267,-30.1254 435.226,-26.4534"/>
</g>
<!-- Node11 -->
<g id="node12" class="node"><title>Node11</title>
<g id="a_node12"><a xlink:href="ia_vector4_8h.html" target="_top" xlink:title=" ">
<polygon fill="white" stroke="black" points="565.955,-112.5 565.955,-131.5 631.955,-131.5 631.955,-112.5 565.955,-112.5"/>
<text text-anchor="middle" x="598.955" y="-119.5" font-family="Helvetica,sans-Serif" font-size="10.00">iaVector4.h</text>
</a>
</g>
</g>
<!-- Node10&#45;&gt;Node11 -->
<g id="edge16" class="edge"><title>Node10&#45;&gt;Node11</title>
<path fill="none" stroke="midnightblue" d="M641.534,-168.083C634.107,-160.22 623.104,-148.569 614.143,-139.081"/>
<polygon fill="midnightblue" stroke="midnightblue" points="616.631,-136.618 607.22,-131.751 611.542,-141.424 616.631,-136.618"/>
</g>
<!-- Node13 -->
<g id="node14" class="node"><title>Node13</title>
<g id="a_node14"><a xlink:title=" ">
<polygon fill="white" stroke="#bfbfbf" points="602.955,-0.5 602.955,-19.5 646.955,-19.5 646.955,-0.5 602.955,-0.5"/>
<text text-anchor="middle" x="624.955" y="-7.5" font-family="Helvetica,sans-Serif" font-size="10.00">cmath</text>
</a>
</g>
</g>
<!-- Node10&#45;&gt;Node13 -->
<g id="edge24" class="edge"><title>Node10&#45;&gt;Node13</title>
<path fill="none" stroke="midnightblue" d="M650.398,-168.361C651.221,-148.332 652.15,-97.283 642.955,-56 640.897,-46.7603 637.172,-36.9511 633.642,-28.8572"/>
<polygon fill="midnightblue" stroke="midnightblue" points="636.783,-27.3091 629.416,-19.6945 630.426,-30.241 636.783,-27.3091"/>
</g>
<!-- Node16 -->
<g id="node17" class="node"><title>Node16</title>
<g id="a_node17"><a xlink:title=" ">
<polygon fill="white" stroke="#bfbfbf" points="690.455,-112.5 690.455,-131.5 739.455,-131.5 739.455,-112.5 690.455,-112.5"/>
<text text-anchor="middle" x="714.955" y="-119.5" font-family="Helvetica,sans-Serif" font-size="10.00">fstream</text>
</a>
</g>
</g>
<!-- Node10&#45;&gt;Node16 -->
<g id="edge23" class="edge"><title>Node10&#45;&gt;Node16</title>
<path fill="none" stroke="midnightblue" d="M660.399,-168.324C670.102,-160.263 684.771,-148.077 696.455,-138.369"/>
<polygon fill="midnightblue" stroke="midnightblue" points="698.867,-140.916 704.322,-131.834 694.393,-135.532 698.867,-140.916"/>
</g>
<!-- Node17 -->
<g id="node18" class="node"><title>Node17</title>
<g id="a_node18"><a xlink:title=" ">
<polygon fill="white" stroke="#bfbfbf" points="757.955,-112.5 757.955,-131.5 807.955,-131.5 807.955,-112.5 757.955,-112.5"/>
<text text-anchor="middle" x="782.955" y="-119.5" font-family="Helvetica,sans-Serif" font-size="10.00">iomanip</text>
</a>
</g>
</g>
<!-- Node10&#45;&gt;Node17 -->
<g id="edge26" class="edge"><title>Node10&#45;&gt;Node17</title>
<path fill="none" stroke="midnightblue" d="M671.03,-168.444C693.015,-159.517 727.69,-145.439 752.619,-135.317"/>
<polygon fill="midnightblue" stroke="midnightblue" points="754.031,-138.521 761.98,-131.516 751.398,-132.035 754.031,-138.521"/>
</g>
<!-- Node18 -->
<g id="node19" class="node"><title>Node18</title>
<g id="a_node19"><a xlink:href="ia_matrix_8inl.html" target="_top" xlink:title=" ">
<polygon fill="white" stroke="black" points="825.955,-112.5 825.955,-131.5 889.955,-131.5 889.955,-112.5 825.955,-112.5"/>
<text text-anchor="middle" x="857.955" y="-119.5" font-family="Helvetica,sans-Serif" font-size="10.00">iaMatrix.inl</text>
</a>
</g>
</g>
<!-- Node10&#45;&gt;Node18 -->
<g id="edge27" class="edge"><title>Node10&#45;&gt;Node18</title>
<path fill="none" stroke="midnightblue" d="M679.757,-169.263C715.483,-159.988 775.586,-144.384 815.995,-133.894"/>
<polygon fill="midnightblue" stroke="midnightblue" points="817.017,-137.244 825.817,-131.344 815.258,-130.469 817.017,-137.244"/>
</g>
<!-- Node12 -->
<g id="node13" class="node"><title>Node12</title>
<g id="a_node13"><a xlink:href="ia_vector3_8h.html" target="_top" xlink:title=" ">
<polygon fill="white" stroke="black" points="478.955,-56.5 478.955,-75.5 544.955,-75.5 544.955,-56.5 478.955,-56.5"/>
<text text-anchor="middle" x="511.955" y="-63.5" font-family="Helvetica,sans-Serif" font-size="10.00">iaVector3.h</text>
</a>
</g>
</g>
<!-- Node11&#45;&gt;Node12 -->
<g id="edge17" class="edge"><title>Node11&#45;&gt;Node12</title>
<path fill="none" stroke="midnightblue" d="M584.977,-112.324C571.406,-103.9 550.575,-90.9709 534.63,-81.0741"/>
<polygon fill="midnightblue" stroke="midnightblue" points="536.241,-77.9544 525.899,-75.6545 532.549,-83.9019 536.241,-77.9544"/>
</g>
<!-- Node15 -->
<g id="node16" class="node"><title>Node15</title>
<g id="a_node16"><a xlink:href="ia_vector4_8inl.html" target="_top" xlink:title=" ">
<polygon fill="white" stroke="black" points="563.455,-56.5 563.455,-75.5 634.455,-75.5 634.455,-56.5 563.455,-56.5"/>
<text text-anchor="middle" x="598.955" y="-63.5" font-family="Helvetica,sans-Serif" font-size="10.00">iaVector4.inl</text>
</a>
</g>
</g>
<!-- Node11&#45;&gt;Node15 -->
<g id="edge22" class="edge"><title>Node11&#45;&gt;Node15</title>
<path fill="none" stroke="midnightblue" d="M598.955,-112.083C598.955,-105.006 598.955,-94.8611 598.955,-85.9865"/>
<polygon fill="midnightblue" stroke="midnightblue" points="602.455,-85.751 598.955,-75.7511 595.455,-85.7511 602.455,-85.751"/>
</g>
<!-- Node12&#45;&gt;Node3 -->
<g id="edge18" class="edge"><title>Node12&#45;&gt;Node3</title>
<path fill="none" stroke="midnightblue" d="M478.72,-56.9157C439.75,-47.4366 375.083,-31.7067 332.488,-21.3457"/>
<polygon fill="midnightblue" stroke="midnightblue" points="333.238,-17.9261 322.694,-18.9633 331.583,-24.7278 333.238,-17.9261"/>
</g>
<!-- Node12&#45;&gt;Node9 -->
<g id="edge20" class="edge"><title>Node12&#45;&gt;Node9</title>
<path fill="none" stroke="midnightblue" d="M497.495,-56.324C483.456,-47.9002 461.907,-34.9709 445.412,-25.0741"/>
<polygon fill="midnightblue" stroke="midnightblue" points="446.755,-21.7983 436.38,-19.6545 443.154,-27.8007 446.755,-21.7983"/>
</g>
<!-- Node12&#45;&gt;Node13 -->
<g id="edge19" class="edge"><title>Node12&#45;&gt;Node13</title>
<path fill="none" stroke="midnightblue" d="M529.861,-56.4435C548.209,-47.6751 576.961,-33.9355 598.049,-23.8579"/>
<polygon fill="midnightblue" stroke="midnightblue" points="599.62,-26.9862 607.134,-19.5164 596.602,-20.6703 599.62,-26.9862"/>
</g>
<!-- Node14 -->
<g id="node15" class="node"><title>Node14</title>
<g id="a_node15"><a xlink:href="ia_vector3_8inl.html" target="_top" xlink:title=" ">
<polygon fill="white" stroke="black" points="476.455,-0.5 476.455,-19.5 547.455,-19.5 547.455,-0.5 476.455,-0.5"/>
<text text-anchor="middle" x="511.955" y="-7.5" font-family="Helvetica,sans-Serif" font-size="10.00">iaVector3.inl</text>
</a>
</g>
</g>
<!-- Node12&#45;&gt;Node14 -->
<g id="edge21" class="edge"><title>Node12&#45;&gt;Node14</title>
<path fill="none" stroke="midnightblue" d="M511.955,-56.083C511.955,-49.0059 511.955,-38.8611 511.955,-29.9865"/>
<polygon fill="midnightblue" stroke="midnightblue" points="515.455,-29.751 511.955,-19.7511 508.455,-29.7511 515.455,-29.751"/>
</g>
<!-- Node19&#45;&gt;Node6 -->
<g id="edge30" class="edge"><title>Node19&#45;&gt;Node6</title>
<path fill="none" stroke="midnightblue" d="M222.35,-168.083C216.7,-160.455 208.411,-149.264 201.504,-139.941"/>
<polygon fill="midnightblue" stroke="midnightblue" points="204.202,-137.703 195.438,-131.751 198.577,-141.87 204.202,-137.703"/>
</g>
<!-- Node19&#45;&gt;Node7 -->
<g id="edge31" class="edge"><title>Node19&#45;&gt;Node7</title>
<path fill="none" stroke="midnightblue" d="M238.435,-168.324C247.156,-160.341 260.299,-148.313 270.853,-138.653"/>
<polygon fill="midnightblue" stroke="midnightblue" points="273.29,-141.167 278.304,-131.834 268.564,-136.004 273.29,-141.167"/>
</g>
</g>
</svg>
