<?xml version="1.0" encoding="UTF-8" standalone="no"?>
<!DOCTYPE svg PUBLIC "-//W3C//DTD SVG 1.1//EN"
 "http://www.w3.org/Graphics/SVG/1.1/DTD/svg11.dtd">
<!-- Generated by graphviz version 2.38.0 (20140413.2041)
 -->
<!-- Title: C:/dev/Igor/src/Igor/src/iNodeModel.h Pages: 1 -->
<svg width="1683pt" height="262pt"
 viewBox="0.00 0.00 1683.00 262.00" xmlns="http://www.w3.org/2000/svg" xmlns:xlink="http://www.w3.org/1999/xlink">
<g id="graph0" class="graph" transform="scale(1 1) rotate(0) translate(4 258)">
<title>C:/dev/Igor/src/Igor/src/iNodeModel.h</title>
<polygon fill="white" stroke="none" points="-4,4 -4,-258 1679,-258 1679,4 -4,4"/>
<!-- Node1 -->
<g id="node1" class="node"><title>Node1</title>
<polygon fill="#bfbfbf" stroke="black" points="767.5,-223.5 767.5,-253.5 865.5,-253.5 865.5,-223.5 767.5,-223.5"/>
<text text-anchor="start" x="775.5" y="-241.5" font-family="Helvetica,sans-Serif" font-size="10.00">C:/dev/Igor/src/Igor</text>
<text text-anchor="middle" x="816.5" y="-230.5" font-family="Helvetica,sans-Serif" font-size="10.00">/src/iNodeModel.h</text>
</g>
<!-- Node2 -->
<g id="node2" class="node"><title>Node2</title>
<g id="a_node2"><a xlink:href="i_data_update_queue_8cpp.html" target="_top" xlink:title="C:/dev/Igor/src/Igor\l/src/iDataUpdateQueue.cpp">
<polygon fill="white" stroke="black" points="0,-151 0,-181 137,-181 137,-151 0,-151"/>
<text text-anchor="start" x="8" y="-169" font-family="Helvetica,sans-Serif" font-size="10.00">C:/dev/Igor/src/Igor</text>
<text text-anchor="middle" x="68.5" y="-158" font-family="Helvetica,sans-Serif" font-size="10.00">/src/iDataUpdateQueue.cpp</text>
</a>
</g>
</g>
<!-- Node1&#45;&gt;Node2 -->
<g id="edge1" class="edge"><title>Node1&#45;&gt;Node2</title>
<path fill="none" stroke="midnightblue" d="M757.187,-236.521C639.817,-233.816 369.958,-223.776 146.5,-187 137.12,-185.456 127.22,-183.321 117.737,-181.019"/>
<polygon fill="midnightblue" stroke="midnightblue" points="757.317,-240.025 767.391,-236.746 757.471,-233.026 757.317,-240.025"/>
</g>
<!-- Node3 -->
<g id="node3" class="node"><title>Node3</title>
<g id="a_node3"><a xlink:href="i_model_data_i_o_o_m_p_f_8cpp.html" target="_top" xlink:title="C:/dev/Igor/src/Igor\l/src/iModelDataIOOMPF.cpp">
<polygon fill="white" stroke="black" points="155.5,-151 155.5,-181 297.5,-181 297.5,-151 155.5,-151"/>
<text text-anchor="start" x="163.5" y="-169" font-family="Helvetica,sans-Serif" font-size="10.00">C:/dev/Igor/src/Igor</text>
<text text-anchor="middle" x="226.5" y="-158" font-family="Helvetica,sans-Serif" font-size="10.00">/src/iModelDataIOOMPF.cpp</text>
</a>
</g>
</g>
<!-- Node1&#45;&gt;Node3 -->
<g id="edge2" class="edge"><title>Node1&#45;&gt;Node3</title>
<path fill="none" stroke="midnightblue" d="M757.39,-234.39C662.129,-228.761 468.987,-214.8 307.5,-187 298.079,-185.378 288.131,-183.263 278.555,-181.017"/>
<polygon fill="midnightblue" stroke="midnightblue" points="757.22,-237.886 767.407,-234.972 757.627,-230.898 757.22,-237.886"/>
</g>
<!-- Node4 -->
<g id="node4" class="node"><title>Node4</title>
<g id="a_node4"><a xlink:href="i_node_factory_8cpp.html" target="_top" xlink:title="C:/dev/Igor/src/Igor\l/src/iNodeFactory.cpp">
<polygon fill="white" stroke="black" points="316,-151 316,-181 429,-181 429,-151 316,-151"/>
<text text-anchor="start" x="324" y="-169" font-family="Helvetica,sans-Serif" font-size="10.00">C:/dev/Igor/src/Igor</text>
<text text-anchor="middle" x="372.5" y="-158" font-family="Helvetica,sans-Serif" font-size="10.00">/src/iNodeFactory.cpp</text>
</a>
</g>
</g>
<!-- Node1&#45;&gt;Node4 -->
<g id="edge3" class="edge"><title>Node1&#45;&gt;Node4</title>
<path fill="none" stroke="midnightblue" d="M757.261,-232.569C682.406,-225.658 549.891,-211.153 438.5,-187 430.894,-185.351 422.896,-183.25 415.195,-181.033"/>
<polygon fill="midnightblue" stroke="midnightblue" points="757.157,-236.074 767.433,-233.494 757.791,-229.103 757.157,-236.074"/>
</g>
<!-- Node5 -->
<g id="node5" class="node"><title>Node5</title>
<g id="a_node5"><a xlink:href="i_node_model_8cpp.html" target="_top" xlink:title="C:/dev/Igor/src/Igor\l/src/iNodeModel.cpp">
<polygon fill="white" stroke="black" points="447.5,-151 447.5,-181 553.5,-181 553.5,-151 447.5,-151"/>
<text text-anchor="start" x="455.5" y="-169" font-family="Helvetica,sans-Serif" font-size="10.00">C:/dev/Igor/src/Igor</text>
<text text-anchor="middle" x="500.5" y="-158" font-family="Helvetica,sans-Serif" font-size="10.00">/src/iNodeModel.cpp</text>
</a>
</g>
</g>
<!-- Node1&#45;&gt;Node5 -->
<g id="edge4" class="edge"><title>Node1&#45;&gt;Node5</title>
<path fill="none" stroke="midnightblue" d="M757.422,-227.753C705.66,-218.74 628.59,-204.168 562.5,-187 555.713,-185.237 548.577,-183.155 541.659,-181.011"/>
<polygon fill="midnightblue" stroke="midnightblue" points="756.976,-231.228 767.426,-229.481 758.167,-224.33 756.976,-231.228"/>
</g>
<!-- Node6 -->
<g id="node6" class="node"><title>Node6</title>
<g id="a_node6"><a xlink:href="i_scene_8cpp.html" target="_top" xlink:title="C:/dev/Igor/src/Igor\l/src/iScene.cpp">
<polygon fill="white" stroke="black" points="571.5,-151 571.5,-181 669.5,-181 669.5,-151 571.5,-151"/>
<text text-anchor="start" x="579.5" y="-169" font-family="Helvetica,sans-Serif" font-size="10.00">C:/dev/Igor/src/Igor</text>
<text text-anchor="middle" x="620.5" y="-158" font-family="Helvetica,sans-Serif" font-size="10.00">/src/iScene.cpp</text>
</a>
</g>
</g>
<!-- Node1&#45;&gt;Node6 -->
<g id="edge5" class="edge"><title>Node1&#45;&gt;Node6</title>
<path fill="none" stroke="midnightblue" d="M767.749,-219.965C734.381,-207.962 690.72,-192.258 659.625,-181.073"/>
<polygon fill="midnightblue" stroke="midnightblue" points="766.713,-223.311 777.308,-223.403 769.082,-216.725 766.713,-223.311"/>
</g>
<!-- Node7 -->
<g id="node7" class="node"><title>Node7</title>
<g id="a_node7"><a xlink:href="i_voxel_terrain_8cpp.html" target="_top" xlink:title="C:/dev/Igor/src/Igor\l/src/iVoxelTerrain.cpp">
<polygon fill="white" stroke="black" points="688,-151 688,-181 799,-181 799,-151 688,-151"/>
<text text-anchor="start" x="696" y="-169" font-family="Helvetica,sans-Serif" font-size="10.00">C:/dev/Igor/src/Igor</text>
<text text-anchor="middle" x="743.5" y="-158" font-family="Helvetica,sans-Serif" font-size="10.00">/src/iVoxelTerrain.cpp</text>
</a>
</g>
</g>
<!-- Node1&#45;&gt;Node7 -->
<g id="edge6" class="edge"><title>Node1&#45;&gt;Node7</title>
<path fill="none" stroke="midnightblue" d="M794.432,-216.188C782.716,-204.873 768.635,-191.274 758.251,-181.246"/>
<polygon fill="midnightblue" stroke="midnightblue" points="792.103,-218.804 801.727,-223.233 796.966,-213.769 792.103,-218.804"/>
</g>
<!-- Node8 -->
<g id="node8" class="node"><title>Node8</title>
<g id="a_node8"><a xlink:href="_user_control_material_view_8h.html" target="_top" xlink:title="C:/dev/Igor/src/Tools\l/ModelViewer/src/UserControl\lMaterialView.h">
<polygon fill="white" stroke="black" points="817.5,-145.5 817.5,-186.5 963.5,-186.5 963.5,-145.5 817.5,-145.5"/>
<text text-anchor="start" x="825.5" y="-174.5" font-family="Helvetica,sans-Serif" font-size="10.00">C:/dev/Igor/src/Tools</text>
<text text-anchor="start" x="825.5" y="-163.5" font-family="Helvetica,sans-Serif" font-size="10.00">/ModelViewer/src/UserControl</text>
<text text-anchor="middle" x="890.5" y="-152.5" font-family="Helvetica,sans-Serif" font-size="10.00">MaterialView.h</text>
</a>
</g>
</g>
<!-- Node1&#45;&gt;Node8 -->
<g id="edge7" class="edge"><title>Node1&#45;&gt;Node8</title>
<path fill="none" stroke="midnightblue" d="M838.962,-216.101C848.818,-206.711 860.311,-195.762 869.939,-186.588"/>
<polygon fill="midnightblue" stroke="midnightblue" points="836.301,-213.801 831.475,-223.233 841.129,-218.87 836.301,-213.801"/>
</g>
<!-- Node11 -->
<g id="node11" class="node"><title>Node11</title>
<g id="a_node11"><a xlink:href="_model_viewer_8cpp.html" target="_top" xlink:title="C:/dev/Igor/src/Tools\l/ModelViewer/src/ModelViewer.cpp">
<polygon fill="white" stroke="black" points="907,-0.5 907,-30.5 1076,-30.5 1076,-0.5 907,-0.5"/>
<text text-anchor="start" x="915" y="-18.5" font-family="Helvetica,sans-Serif" font-size="10.00">C:/dev/Igor/src/Tools</text>
<text text-anchor="middle" x="991.5" y="-7.5" font-family="Helvetica,sans-Serif" font-size="10.00">/ModelViewer/src/ModelViewer.cpp</text>
</a>
</g>
</g>
<!-- Node1&#45;&gt;Node11 -->
<g id="edge12" class="edge"><title>Node1&#45;&gt;Node11</title>
<path fill="none" stroke="midnightblue" d="M875.985,-233.629C909.491,-228.17 949.178,-215.585 972.5,-187 1010.16,-140.845 1000.57,-62.7423 994.576,-30.7809"/>
<polygon fill="midnightblue" stroke="midnightblue" points="875.204,-230.206 865.81,-235.105 876.208,-237.134 875.204,-230.206"/>
</g>
<!-- Node13 -->
<g id="node13" class="node"><title>Node13</title>
<g id="a_node13"><a xlink:href="_user_control_emitter_8h.html" target="_top" xlink:title="C:/dev/Igor/src/Tools\l/ModelViewer/src/UserControl\lEmitter.h">
<polygon fill="white" stroke="black" points="1019.5,-145.5 1019.5,-186.5 1165.5,-186.5 1165.5,-145.5 1019.5,-145.5"/>
<text text-anchor="start" x="1027.5" y="-174.5" font-family="Helvetica,sans-Serif" font-size="10.00">C:/dev/Igor/src/Tools</text>
<text text-anchor="start" x="1027.5" y="-163.5" font-family="Helvetica,sans-Serif" font-size="10.00">/ModelViewer/src/UserControl</text>
<text text-anchor="middle" x="1092.5" y="-152.5" font-family="Helvetica,sans-Serif" font-size="10.00">Emitter.h</text>
</a>
</g>
</g>
<!-- Node1&#45;&gt;Node13 -->
<g id="edge13" class="edge"><title>Node1&#45;&gt;Node13</title>
<path fill="none" stroke="midnightblue" d="M875.341,-222.47C917.398,-211.727 974.276,-197.199 1019.27,-185.705"/>
<polygon fill="midnightblue" stroke="midnightblue" points="874.348,-219.111 865.525,-224.977 876.08,-225.893 874.348,-219.111"/>
</g>
<!-- Node16 -->
<g id="node16" class="node"><title>Node16</title>
<g id="a_node16"><a xlink:href="_user_control_model_8h.html" target="_top" xlink:title="C:/dev/Igor/src/Tools\l/ModelViewer/src/UserControl\lModel.h">
<polygon fill="white" stroke="black" points="1183.5,-145.5 1183.5,-186.5 1329.5,-186.5 1329.5,-145.5 1183.5,-145.5"/>
<text text-anchor="start" x="1191.5" y="-174.5" font-family="Helvetica,sans-Serif" font-size="10.00">C:/dev/Igor/src/Tools</text>
<text text-anchor="start" x="1191.5" y="-163.5" font-family="Helvetica,sans-Serif" font-size="10.00">/ModelViewer/src/UserControl</text>
<text text-anchor="middle" x="1256.5" y="-152.5" font-family="Helvetica,sans-Serif" font-size="10.00">Model.h</text>
</a>
</g>
</g>
<!-- Node1&#45;&gt;Node16 -->
<g id="edge16" class="edge"><title>Node1&#45;&gt;Node16</title>
<path fill="none" stroke="midnightblue" d="M875.814,-230.958C947.068,-222.68 1070.07,-207.05 1174.5,-187 1177.38,-186.447 1180.31,-185.859 1183.26,-185.244"/>
<polygon fill="midnightblue" stroke="midnightblue" points="875.219,-227.504 865.685,-232.126 876.02,-234.458 875.219,-227.504"/>
</g>
<!-- Node18 -->
<g id="node18" class="node"><title>Node18</title>
<g id="a_node18"><a xlink:href="_user_control_particle_system_8h.html" target="_top" xlink:title="C:/dev/Igor/src/Tools\l/ModelViewer/src/UserControl\lParticleSystem.h">
<polygon fill="white" stroke="black" points="1347.5,-145.5 1347.5,-186.5 1493.5,-186.5 1493.5,-145.5 1347.5,-145.5"/>
<text text-anchor="start" x="1355.5" y="-174.5" font-family="Helvetica,sans-Serif" font-size="10.00">C:/dev/Igor/src/Tools</text>
<text text-anchor="start" x="1355.5" y="-163.5" font-family="Helvetica,sans-Serif" font-size="10.00">/ModelViewer/src/UserControl</text>
<text text-anchor="middle" x="1420.5" y="-152.5" font-family="Helvetica,sans-Serif" font-size="10.00">ParticleSystem.h</text>
</a>
</g>
</g>
<!-- Node1&#45;&gt;Node18 -->
<g id="edge19" class="edge"><title>Node1&#45;&gt;Node18</title>
<path fill="none" stroke="midnightblue" d="M875.967,-234.517C973.24,-229.018 1172.2,-215.176 1338.5,-187 1341.39,-186.51 1344.33,-185.975 1347.29,-185.405"/>
<polygon fill="midnightblue" stroke="midnightblue" points="875.536,-231.035 865.746,-235.085 875.925,-238.024 875.536,-231.035"/>
</g>
<!-- Node20 -->
<g id="node20" class="node"><title>Node20</title>
<g id="a_node20"><a xlink:href="_o_b_j2_o_m_p_f_8cpp.html" target="_top" xlink:title="C:/dev/Igor/src/Tools\l/OBJ2OMPF/src/OBJ2OMPF.cpp">
<polygon fill="white" stroke="black" points="1512,-151 1512,-181 1675,-181 1675,-151 1512,-151"/>
<text text-anchor="start" x="1520" y="-169" font-family="Helvetica,sans-Serif" font-size="10.00">C:/dev/Igor/src/Tools</text>
<text text-anchor="middle" x="1593.5" y="-158" font-family="Helvetica,sans-Serif" font-size="10.00">/OBJ2OMPF/src/OBJ2OMPF.cpp</text>
</a>
</g>
</g>
<!-- Node1&#45;&gt;Node20 -->
<g id="edge22" class="edge"><title>Node1&#45;&gt;Node20</title>
<path fill="none" stroke="midnightblue" d="M875.865,-235.982C995.166,-232.305 1272.28,-220.597 1502.5,-187 1513.22,-185.435 1524.57,-183.319 1535.47,-181.048"/>
<polygon fill="midnightblue" stroke="midnightblue" points="875.731,-232.485 865.84,-236.284 875.941,-239.482 875.731,-232.485"/>
</g>
<!-- Node9 -->
<g id="node9" class="node"><title>Node9</title>
<g id="a_node9"><a xlink:href="_menu_dialog_8h.html" target="_top" xlink:title="C:/dev/Igor/src/Tools\l/ModelViewer/src/MenuDialog.h">
<polygon fill="white" stroke="black" points="809.5,-73 809.5,-103 963.5,-103 963.5,-73 809.5,-73"/>
<text text-anchor="start" x="817.5" y="-91" font-family="Helvetica,sans-Serif" font-size="10.00">C:/dev/Igor/src/Tools</text>
<text text-anchor="middle" x="886.5" y="-80" font-family="Helvetica,sans-Serif" font-size="10.00">/ModelViewer/src/MenuDialog.h</text>
</a>
</g>
</g>
<!-- Node8&#45;&gt;Node9 -->
<g id="edge8" class="edge"><title>Node8&#45;&gt;Node9</title>
<path fill="none" stroke="midnightblue" d="M888.936,-135.283C888.355,-124.254 887.723,-112.246 887.249,-103.225"/>
<polygon fill="midnightblue" stroke="midnightblue" points="885.449,-135.626 889.47,-145.428 892.439,-135.258 885.449,-135.626"/>
</g>
<!-- Node12 -->
<g id="node12" class="node"><title>Node12</title>
<g id="a_node12"><a xlink:href="_user_control_material_view_8cpp.html" target="_top" xlink:title="C:/dev/Igor/src/Tools\l/ModelViewer/src/UserControl\lMaterialView.cpp">
<polygon fill="white" stroke="black" points="645.5,-67.5 645.5,-108.5 791.5,-108.5 791.5,-67.5 645.5,-67.5"/>
<text text-anchor="start" x="653.5" y="-96.5" font-family="Helvetica,sans-Serif" font-size="10.00">C:/dev/Igor/src/Tools</text>
<text text-anchor="start" x="653.5" y="-85.5" font-family="Helvetica,sans-Serif" font-size="10.00">/ModelViewer/src/UserControl</text>
<text text-anchor="middle" x="718.5" y="-74.5" font-family="Helvetica,sans-Serif" font-size="10.00">MaterialView.cpp</text>
</a>
</g>
</g>
<!-- Node8&#45;&gt;Node12 -->
<g id="edge11" class="edge"><title>Node8&#45;&gt;Node12</title>
<path fill="none" stroke="midnightblue" d="M836.929,-141.329C813.063,-130.783 785.292,-118.513 762.644,-108.506"/>
<polygon fill="midnightblue" stroke="midnightblue" points="835.644,-144.588 846.206,-145.428 838.473,-138.185 835.644,-144.588"/>
</g>
<!-- Node10 -->
<g id="node10" class="node"><title>Node10</title>
<g id="a_node10"><a xlink:href="_menu_dialog_8cpp.html" target="_top" xlink:title="C:/dev/Igor/src/Tools\l/ModelViewer/src/MenuDialog.cpp">
<polygon fill="white" stroke="black" points="724.5,-0.5 724.5,-30.5 888.5,-30.5 888.5,-0.5 724.5,-0.5"/>
<text text-anchor="start" x="732.5" y="-18.5" font-family="Helvetica,sans-Serif" font-size="10.00">C:/dev/Igor/src/Tools</text>
<text text-anchor="middle" x="806.5" y="-7.5" font-family="Helvetica,sans-Serif" font-size="10.00">/ModelViewer/src/MenuDialog.cpp</text>
</a>
</g>
</g>
<!-- Node9&#45;&gt;Node10 -->
<g id="edge9" class="edge"><title>Node9&#45;&gt;Node10</title>
<path fill="none" stroke="midnightblue" d="M862.629,-65.964C849.625,-54.5043 833.89,-40.637 822.392,-30.5049"/>
<polygon fill="midnightblue" stroke="midnightblue" points="860.494,-68.7476 870.311,-72.7333 865.122,-63.4958 860.494,-68.7476"/>
</g>
<!-- Node9&#45;&gt;Node11 -->
<g id="edge10" class="edge"><title>Node9&#45;&gt;Node11</title>
<path fill="none" stroke="midnightblue" d="M916.134,-67.1026C933.476,-55.4589 954.955,-41.0375 970.54,-30.5729"/>
<polygon fill="midnightblue" stroke="midnightblue" points="913.847,-64.4226 907.496,-72.9027 917.749,-70.2341 913.847,-64.4226"/>
</g>
<!-- Node14 -->
<g id="node14" class="node"><title>Node14</title>
<g id="a_node14"><a xlink:href="_user_control_emitter_8cpp.html" target="_top" xlink:title="C:/dev/Igor/src/Tools\l/ModelViewer/src/UserControl\lEmitter.cpp">
<polygon fill="white" stroke="black" points="1019.5,-67.5 1019.5,-108.5 1165.5,-108.5 1165.5,-67.5 1019.5,-67.5"/>
<text text-anchor="start" x="1027.5" y="-96.5" font-family="Helvetica,sans-Serif" font-size="10.00">C:/dev/Igor/src/Tools</text>
<text text-anchor="start" x="1027.5" y="-85.5" font-family="Helvetica,sans-Serif" font-size="10.00">/ModelViewer/src/UserControl</text>
<text text-anchor="middle" x="1092.5" y="-74.5" font-family="Helvetica,sans-Serif" font-size="10.00">Emitter.cpp</text>
</a>
</g>
</g>
<!-- Node13&#45;&gt;Node14 -->
<g id="edge14" class="edge"><title>Node13&#45;&gt;Node14</title>
<path fill="none" stroke="midnightblue" d="M1092.5,-135.297C1092.5,-126.301 1092.5,-116.653 1092.5,-108.506"/>
<polygon fill="midnightblue" stroke="midnightblue" points="1089,-135.428 1092.5,-145.428 1096,-135.428 1089,-135.428"/>
</g>
<!-- Node15 -->
<g id="node15" class="node"><title>Node15</title>
<g id="a_node15"><a xlink:href="_user_control_properties_8cpp.html" target="_top" xlink:title="C:/dev/Igor/src/Tools\l/ModelViewer/src/UserControl\lProperties.cpp">
<polygon fill="white" stroke="black" points="1347.5,-67.5 1347.5,-108.5 1493.5,-108.5 1493.5,-67.5 1347.5,-67.5"/>
<text text-anchor="start" x="1355.5" y="-96.5" font-family="Helvetica,sans-Serif" font-size="10.00">C:/dev/Igor/src/Tools</text>
<text text-anchor="start" x="1355.5" y="-85.5" font-family="Helvetica,sans-Serif" font-size="10.00">/ModelViewer/src/UserControl</text>
<text text-anchor="middle" x="1420.5" y="-74.5" font-family="Helvetica,sans-Serif" font-size="10.00">Properties.cpp</text>
</a>
</g>
</g>
<!-- Node13&#45;&gt;Node15 -->
<g id="edge15" class="edge"><title>Node13&#45;&gt;Node15</title>
<path fill="none" stroke="midnightblue" d="M1175.95,-144.69C1248.9,-127.932 1268.92,-125.119 1338.5,-109 1341.36,-108.339 1344.26,-107.658 1347.2,-106.966"/>
<polygon fill="midnightblue" stroke="midnightblue" points="1174.75,-141.374 1165.8,-147.034 1176.33,-148.195 1174.75,-141.374"/>
</g>
<!-- Node16&#45;&gt;Node15 -->
<g id="edge18" class="edge"><title>Node16&#45;&gt;Node15</title>
<path fill="none" stroke="midnightblue" d="M1307.88,-141.189C1330.57,-130.675 1356.91,-118.469 1378.41,-108.506"/>
<polygon fill="midnightblue" stroke="midnightblue" points="1306.34,-138.048 1298.73,-145.428 1309.28,-144.399 1306.34,-138.048"/>
</g>
<!-- Node17 -->
<g id="node17" class="node"><title>Node17</title>
<g id="a_node17"><a xlink:href="_user_control_model_8cpp.html" target="_top" xlink:title="C:/dev/Igor/src/Tools\l/ModelViewer/src/UserControl\lModel.cpp">
<polygon fill="white" stroke="black" points="1183.5,-67.5 1183.5,-108.5 1329.5,-108.5 1329.5,-67.5 1183.5,-67.5"/>
<text text-anchor="start" x="1191.5" y="-96.5" font-family="Helvetica,sans-Serif" font-size="10.00">C:/dev/Igor/src/Tools</text>
<text text-anchor="start" x="1191.5" y="-85.5" font-family="Helvetica,sans-Serif" font-size="10.00">/ModelViewer/src/UserControl</text>
<text text-anchor="middle" x="1256.5" y="-74.5" font-family="Helvetica,sans-Serif" font-size="10.00">Model.cpp</text>
</a>
</g>
</g>
<!-- Node16&#45;&gt;Node17 -->
<g id="edge17" class="edge"><title>Node16&#45;&gt;Node17</title>
<path fill="none" stroke="midnightblue" d="M1256.5,-135.297C1256.5,-126.301 1256.5,-116.653 1256.5,-108.506"/>
<polygon fill="midnightblue" stroke="midnightblue" points="1253,-135.428 1256.5,-145.428 1260,-135.428 1253,-135.428"/>
</g>
<!-- Node18&#45;&gt;Node15 -->
<g id="edge21" class="edge"><title>Node18&#45;&gt;Node15</title>
<path fill="none" stroke="midnightblue" d="M1420.5,-135.297C1420.5,-126.301 1420.5,-116.653 1420.5,-108.506"/>
<polygon fill="midnightblue" stroke="midnightblue" points="1417,-135.428 1420.5,-145.428 1424,-135.428 1417,-135.428"/>
</g>
<!-- Node19 -->
<g id="node19" class="node"><title>Node19</title>
<g id="a_node19"><a xlink:href="_user_control_particle_system_8cpp.html" target="_top" xlink:title="C:/dev/Igor/src/Tools\l/ModelViewer/src/UserControl\lParticleSystem.cpp">
<polygon fill="white" stroke="black" points="1511.5,-67.5 1511.5,-108.5 1657.5,-108.5 1657.5,-67.5 1511.5,-67.5"/>
<text text-anchor="start" x="1519.5" y="-96.5" font-family="Helvetica,sans-Serif" font-size="10.00">C:/dev/Igor/src/Tools</text>
<text text-anchor="start" x="1519.5" y="-85.5" font-family="Helvetica,sans-Serif" font-size="10.00">/ModelViewer/src/UserControl</text>
<text text-anchor="middle" x="1584.5" y="-74.5" font-family="Helvetica,sans-Serif" font-size="10.00">ParticleSystem.cpp</text>
</a>
</g>
</g>
<!-- Node18&#45;&gt;Node19 -->
<g id="edge20" class="edge"><title>Node18&#45;&gt;Node19</title>
<path fill="none" stroke="midnightblue" d="M1471.88,-141.189C1494.57,-130.675 1520.91,-118.469 1542.41,-108.506"/>
<polygon fill="midnightblue" stroke="midnightblue" points="1470.34,-138.048 1462.73,-145.428 1473.28,-144.399 1470.34,-138.048"/>
</g>
</g>
</svg>
