<?xml version="1.0" encoding="UTF-8" standalone="no"?>
<!DOCTYPE svg PUBLIC "-//W3C//DTD SVG 1.1//EN"
 "http://www.w3.org/Graphics/SVG/1.1/DTD/svg11.dtd">
<!-- Generated by graphviz version 2.38.0 (20140413.2041)
 -->
<!-- Title: C:/dev/Igor/src/Igor/src/iOSEvent.h Pages: 1 -->
<svg width="338pt" height="106pt"
 viewBox="0.00 0.00 338.00 106.00" xmlns="http://www.w3.org/2000/svg" xmlns:xlink="http://www.w3.org/1999/xlink">
<g id="graph0" class="graph" transform="scale(1 1) rotate(0) translate(4 102)">
<title>C:/dev/Igor/src/Igor/src/iOSEvent.h</title>
<polygon fill="white" stroke="none" points="-4,4 -4,-102 334,-102 334,4 -4,4"/>
<!-- Node1 -->
<g id="node1" class="node"><title>Node1</title>
<polygon fill="#bfbfbf" stroke="black" points="116,-67.5 116,-97.5 214,-97.5 214,-67.5 116,-67.5"/>
<text text-anchor="start" x="124" y="-85.5" font-family="Helvetica,sans-Serif" font-size="10.00">C:/dev/Igor/src/Igor</text>
<text text-anchor="middle" x="165" y="-74.5" font-family="Helvetica,sans-Serif" font-size="10.00">/src/iOSEvent.h</text>
</g>
<!-- Node2 -->
<g id="node2" class="node"><title>Node2</title>
<g id="a_node2"><a xlink:href="i_keyboard_8cpp.html" target="_top" xlink:title="C:/dev/Igor/src/Igor\l/src/iKeyboard.cpp">
<polygon fill="white" stroke="black" points="0,-0.5 0,-30.5 98,-30.5 98,-0.5 0,-0.5"/>
<text text-anchor="start" x="8" y="-18.5" font-family="Helvetica,sans-Serif" font-size="10.00">C:/dev/Igor/src/Igor</text>
<text text-anchor="middle" x="49" y="-7.5" font-family="Helvetica,sans-Serif" font-size="10.00">/src/iKeyboard.cpp</text>
</a>
</g>
</g>
<!-- Node1&#45;&gt;Node2 -->
<g id="edge1" class="edge"><title>Node1&#45;&gt;Node2</title>
<path fill="none" stroke="midnightblue" d="M130.728,-62.2956C112.577,-52.1248 90.6795,-39.8549 74.1212,-30.5765"/>
<polygon fill="midnightblue" stroke="midnightblue" points="129.395,-65.5609 139.83,-67.396 132.817,-59.4543 129.395,-65.5609"/>
</g>
<!-- Node3 -->
<g id="node3" class="node"><title>Node3</title>
<g id="a_node3"><a xlink:href="i_mouse_8cpp.html" target="_top" xlink:title="C:/dev/Igor/src/Igor\l/src/iMouse.cpp">
<polygon fill="white" stroke="black" points="116,-0.5 116,-30.5 214,-30.5 214,-0.5 116,-0.5"/>
<text text-anchor="start" x="124" y="-18.5" font-family="Helvetica,sans-Serif" font-size="10.00">C:/dev/Igor/src/Igor</text>
<text text-anchor="middle" x="165" y="-7.5" font-family="Helvetica,sans-Serif" font-size="10.00">/src/iMouse.cpp</text>
</a>
</g>
</g>
<!-- Node1&#45;&gt;Node3 -->
<g id="edge2" class="edge"><title>Node1&#45;&gt;Node3</title>
<path fill="none" stroke="midnightblue" d="M165,-57.1081C165,-48.1539 165,-38.3227 165,-30.5765"/>
<polygon fill="midnightblue" stroke="midnightblue" points="161.5,-57.3959 165,-67.396 168.5,-57.396 161.5,-57.3959"/>
</g>
<!-- Node4 -->
<g id="node4" class="node"><title>Node4</title>
<g id="a_node4"><a xlink:href="i_window_8cpp.html" target="_top" xlink:title="C:/dev/Igor/src/Igor\l/src/iWindow.cpp">
<polygon fill="white" stroke="black" points="232,-0.5 232,-30.5 330,-30.5 330,-0.5 232,-0.5"/>
<text text-anchor="start" x="240" y="-18.5" font-family="Helvetica,sans-Serif" font-size="10.00">C:/dev/Igor/src/Igor</text>
<text text-anchor="middle" x="281" y="-7.5" font-family="Helvetica,sans-Serif" font-size="10.00">/src/iWindow.cpp</text>
</a>
</g>
</g>
<!-- Node1&#45;&gt;Node4 -->
<g id="edge3" class="edge"><title>Node1&#45;&gt;Node4</title>
<path fill="none" stroke="midnightblue" d="M199.272,-62.2956C217.423,-52.1248 239.32,-39.8549 255.879,-30.5765"/>
<polygon fill="midnightblue" stroke="midnightblue" points="197.183,-59.4543 190.17,-67.396 200.605,-65.5609 197.183,-59.4543"/>
</g>
</g>
</svg>
