<?xml version="1.0" encoding="UTF-8" standalone="no"?>
<!DOCTYPE svg PUBLIC "-//W3C//DTD SVG 1.1//EN"
 "http://www.w3.org/Graphics/SVG/1.1/DTD/svg11.dtd">
<!-- Generated by graphviz version 2.38.0 (20140413.2041)
 -->
<!-- Title: C:/dev/Igor/Igor/src/Igor/src/iOctree.h Pages: 1 -->
<svg width="1370pt" height="375pt"
 viewBox="0.00 0.00 1369.50 375.00" xmlns="http://www.w3.org/2000/svg" xmlns:xlink="http://www.w3.org/1999/xlink">
<g id="graph0" class="graph" transform="scale(1 1) rotate(0) translate(4 371)">
<title>C:/dev/Igor/Igor/src/Igor/src/iOctree.h</title>
<polygon fill="white" stroke="none" points="-4,4 -4,-371 1365.5,-371 1365.5,4 -4,4"/>
<!-- Node0 -->
<g id="node1" class="node"><title>Node0</title>
<g id="a_node1"><a xlink:title=" ">
<polygon fill="#bfbfbf" stroke="black" points="1047,-336.5 1047,-366.5 1145,-366.5 1145,-336.5 1047,-336.5"/>
<text text-anchor="start" x="1055" y="-354.5" font-family="Helvetica,sans-Serif" font-size="10.00">C:/dev/Igor/Igor/src</text>
<text text-anchor="middle" x="1096" y="-343.5" font-family="Helvetica,sans-Serif" font-size="10.00">/Igor/src/iOctree.h</text>
</a>
</g>
</g>
<!-- Node1 -->
<g id="node2" class="node"><title>Node1</title>
<g id="a_node2"><a xlink:href="i_a_a_cube_8h.html" target="_top" xlink:title=" ">
<polygon fill="white" stroke="black" points="68.5,-168.5 68.5,-187.5 131.5,-187.5 131.5,-168.5 68.5,-168.5"/>
<text text-anchor="middle" x="100" y="-175.5" font-family="Helvetica,sans-Serif" font-size="10.00">iAACube.h</text>
</a>
</g>
</g>
<!-- Node0&#45;&gt;Node1 -->
<g id="edge1" class="edge"><title>Node0&#45;&gt;Node1</title>
<path fill="none" stroke="midnightblue" d="M1046.86,-349.812C900.849,-347.36 471.465,-337.105 337,-300 251.477,-276.4 160.896,-220.116 120.974,-193.465"/>
<polygon fill="midnightblue" stroke="midnightblue" points="122.839,-190.502 112.593,-187.806 118.922,-196.303 122.839,-190.502"/>
</g>
<!-- Node9 -->
<g id="node10" class="node"><title>Node9</title>
<g id="a_node10"><a xlink:href="i_sphere_8h.html" target="_top" xlink:title=" ">
<polygon fill="white" stroke="black" points="384,-280.5 384,-299.5 442,-299.5 442,-280.5 384,-280.5"/>
<text text-anchor="middle" x="413" y="-287.5" font-family="Helvetica,sans-Serif" font-size="10.00">iSphere.h</text>
</a>
</g>
</g>
<!-- Node0&#45;&gt;Node9 -->
<g id="edge10" class="edge"><title>Node0&#45;&gt;Node9</title>
<path fill="none" stroke="midnightblue" d="M1046.88,-346.221C917.576,-334.956 569.664,-304.648 452.288,-294.423"/>
<polygon fill="midnightblue" stroke="midnightblue" points="452.569,-290.934 442.303,-293.553 451.962,-297.908 452.569,-290.934"/>
</g>
<!-- Node10 -->
<g id="node11" class="node"><title>Node10</title>
<g id="a_node11"><a xlink:href="i_frustum_8h.html" target="_top" xlink:title=" ">
<polygon fill="white" stroke="black" points="262.5,-224.5 262.5,-243.5 325.5,-243.5 325.5,-224.5 262.5,-224.5"/>
<text text-anchor="middle" x="294" y="-231.5" font-family="Helvetica,sans-Serif" font-size="10.00">iFrustum.h</text>
</a>
</g>
</g>
<!-- Node0&#45;&gt;Node10 -->
<g id="edge39" class="edge"><title>Node0&#45;&gt;Node10</title>
<path fill="none" stroke="midnightblue" d="M1046.92,-350.845C905.23,-351.248 497.837,-348.08 375,-300 348.12,-289.479 323.182,-266.696 308.269,-251.103"/>
<polygon fill="midnightblue" stroke="midnightblue" points="310.788,-248.671 301.428,-243.707 305.649,-253.424 310.788,-248.671"/>
</g>
<!-- Node28 -->
<g id="node29" class="node"><title>Node28</title>
<g id="a_node29"><a xlink:href="i_node_8h.html" target="_top" xlink:title=" ">
<polygon fill="white" stroke="black" points="1016,-280.5 1016,-299.5 1066,-299.5 1066,-280.5 1016,-280.5"/>
<text text-anchor="middle" x="1041" y="-287.5" font-family="Helvetica,sans-Serif" font-size="10.00">iNode.h</text>
</a>
</g>
</g>
<!-- Node0&#45;&gt;Node28 -->
<g id="edge40" class="edge"><title>Node0&#45;&gt;Node28</title>
<path fill="none" stroke="midnightblue" d="M1082.97,-336.399C1074.81,-327.575 1064.28,-316.183 1055.81,-307.018"/>
<polygon fill="midnightblue" stroke="midnightblue" points="1058.36,-304.625 1049,-299.658 1053.22,-309.377 1058.36,-304.625"/>
</g>
<!-- Node30 -->
<g id="node31" class="node"><title>Node30</title>
<g id="a_node31"><a xlink:title=" ">
<polygon fill="white" stroke="#bfbfbf" points="1080,-168.5 1080,-187.5 1122,-187.5 1122,-168.5 1080,-168.5"/>
<text text-anchor="middle" x="1101" y="-175.5" font-family="Helvetica,sans-Serif" font-size="10.00">vector</text>
</a>
</g>
</g>
<!-- Node0&#45;&gt;Node30 -->
<g id="edge67" class="edge"><title>Node0&#45;&gt;Node30</title>
<path fill="none" stroke="midnightblue" d="M1096.41,-336.465C1097.31,-305.704 1099.45,-232.329 1100.45,-197.7"/>
<polygon fill="midnightblue" stroke="midnightblue" points="1103.96,-197.657 1100.75,-187.56 1096.96,-197.453 1103.96,-197.657"/>
</g>
<!-- Node35 -->
<g id="node36" class="node"><title>Node35</title>
<g id="a_node36"><a xlink:title=" ">
<polygon fill="white" stroke="#bfbfbf" points="1256,-224.5 1256,-243.5 1308,-243.5 1308,-224.5 1256,-224.5"/>
<text text-anchor="middle" x="1282" y="-231.5" font-family="Helvetica,sans-Serif" font-size="10.00">memory</text>
</a>
</g>
</g>
<!-- Node0&#45;&gt;Node35 -->
<g id="edge64" class="edge"><title>Node0&#45;&gt;Node35</title>
<path fill="none" stroke="midnightblue" d="M1118.81,-336.337C1154.6,-314.108 1223.58,-271.28 1259.3,-249.093"/>
<polygon fill="midnightblue" stroke="midnightblue" points="1261.39,-251.918 1268.04,-243.669 1257.7,-245.971 1261.39,-251.918"/>
</g>
<!-- Node36 -->
<g id="node37" class="node"><title>Node36</title>
<g id="a_node37"><a xlink:title=" ">
<polygon fill="white" stroke="#bfbfbf" points="1326.5,-224.5 1326.5,-243.5 1361.5,-243.5 1361.5,-224.5 1326.5,-224.5"/>
<text text-anchor="middle" x="1344" y="-231.5" font-family="Helvetica,sans-Serif" font-size="10.00">map</text>
</a>
</g>
</g>
<!-- Node0&#45;&gt;Node36 -->
<g id="edge66" class="edge"><title>Node0&#45;&gt;Node36</title>
<path fill="none" stroke="midnightblue" d="M1126.55,-336.38C1148.41,-326.269 1178.53,-312.321 1205,-300 1244.1,-281.798 1289.35,-260.62 1317.32,-247.511"/>
<polygon fill="midnightblue" stroke="midnightblue" points="1318.89,-250.642 1326.46,-243.229 1315.92,-244.304 1318.89,-250.642"/>
</g>
<!-- Node37 -->
<g id="node38" class="node"><title>Node37</title>
<g id="a_node38"><a xlink:title=" ">
<polygon fill="white" stroke="#bfbfbf" points="1256.5,-280.5 1256.5,-299.5 1285.5,-299.5 1285.5,-280.5 1256.5,-280.5"/>
<text text-anchor="middle" x="1271" y="-287.5" font-family="Helvetica,sans-Serif" font-size="10.00">list</text>
</a>
</g>
</g>
<!-- Node0&#45;&gt;Node37 -->
<g id="edge65" class="edge"><title>Node0&#45;&gt;Node37</title>
<path fill="none" stroke="midnightblue" d="M1137.47,-336.399C1171.5,-324.83 1218.51,-308.847 1246.72,-299.256"/>
<polygon fill="midnightblue" stroke="midnightblue" points="1247.86,-302.565 1256.2,-296.032 1245.61,-295.937 1247.86,-302.565"/>
</g>
<!-- Node2 -->
<g id="node3" class="node"><title>Node2</title>
<g id="a_node3"><a xlink:href="i_defines_8h.html" target="_top" xlink:title=" ">
<polygon fill="white" stroke="black" points="236.5,-112.5 236.5,-131.5 295.5,-131.5 295.5,-112.5 236.5,-112.5"/>
<text text-anchor="middle" x="266" y="-119.5" font-family="Helvetica,sans-Serif" font-size="10.00">iDefines.h</text>
</a>
</g>
</g>
<!-- Node1&#45;&gt;Node2 -->
<g id="edge2" class="edge"><title>Node1&#45;&gt;Node2</title>
<path fill="none" stroke="midnightblue" d="M126.303,-168.444C154.351,-159.32 198.944,-144.813 230.184,-134.651"/>
<polygon fill="midnightblue" stroke="midnightblue" points="231.393,-137.938 239.82,-131.516 229.228,-131.282 231.393,-137.938"/>
</g>
<!-- Node4 -->
<g id="node5" class="node"><title>Node4</title>
<g id="a_node5"><a xlink:href="ia_vector3_8h.html" target="_top" xlink:title=" ">
<polygon fill="white" stroke="black" points="246,-56.5 246,-75.5 312,-75.5 312,-56.5 246,-56.5"/>
<text text-anchor="middle" x="279" y="-63.5" font-family="Helvetica,sans-Serif" font-size="10.00">iaVector3.h</text>
</a>
</g>
</g>
<!-- Node1&#45;&gt;Node4 -->
<g id="edge4" class="edge"><title>Node1&#45;&gt;Node4</title>
<path fill="none" stroke="midnightblue" d="M99.3905,-168.116C98.9507,-154.227 100.244,-127.374 115,-112 146.209,-79.4849 198.51,-69.7463 235.653,-67.1826"/>
<polygon fill="midnightblue" stroke="midnightblue" points="235.901,-70.6743 245.697,-66.6368 235.522,-63.6846 235.901,-70.6743"/>
</g>
<!-- Node8 -->
<g id="node9" class="node"><title>Node8</title>
<g id="a_node9"><a xlink:href="i_a_a_cube_8inl.html" target="_top" xlink:title=" ">
<polygon fill="white" stroke="black" points="0,-112.5 0,-131.5 68,-131.5 68,-112.5 0,-112.5"/>
<text text-anchor="middle" x="34" y="-119.5" font-family="Helvetica,sans-Serif" font-size="10.00">iAACube.inl</text>
</a>
</g>
</g>
<!-- Node1&#45;&gt;Node8 -->
<g id="edge9" class="edge"><title>Node1&#45;&gt;Node8</title>
<path fill="none" stroke="midnightblue" d="M89.396,-168.324C79.5438,-160.263 64.6491,-148.077 52.7849,-138.369"/>
<polygon fill="midnightblue" stroke="midnightblue" points="54.7529,-135.457 44.797,-131.834 50.3202,-140.875 54.7529,-135.457"/>
</g>
<!-- Node3 -->
<g id="node4" class="node"><title>Node3</title>
<g id="a_node4"><a xlink:href="ia_defines_8h.html" target="_top" xlink:title=" ">
<polygon fill="white" stroke="black" points="821.5,-0.5 821.5,-19.5 886.5,-19.5 886.5,-0.5 821.5,-0.5"/>
<text text-anchor="middle" x="854" y="-7.5" font-family="Helvetica,sans-Serif" font-size="10.00">iaDefines.h</text>
</a>
</g>
</g>
<!-- Node2&#45;&gt;Node3 -->
<g id="edge3" class="edge"><title>Node2&#45;&gt;Node3</title>
<path fill="none" stroke="midnightblue" d="M276.881,-112.313C297.353,-96.1554 341.146,-62.5241 359,-56 441.669,-25.7923 706.9,-15.153 811.25,-12.0769"/>
<polygon fill="midnightblue" stroke="midnightblue" points="811.523,-15.5706 821.418,-11.7862 811.322,-8.57347 811.523,-15.5706"/>
</g>
<!-- Node4&#45;&gt;Node3 -->
<g id="edge5" class="edge"><title>Node4&#45;&gt;Node3</title>
<path fill="none" stroke="midnightblue" d="M312.053,-58.2228C316.723,-57.3962 321.473,-56.6245 326,-56 505.493,-31.2342 721.32,-17.9402 811.334,-13.1251"/>
<polygon fill="midnightblue" stroke="midnightblue" points="811.623,-16.6148 821.425,-12.5928 811.254,-9.62455 811.623,-16.6148"/>
</g>
<!-- Node5 -->
<g id="node6" class="node"><title>Node5</title>
<g id="a_node6"><a xlink:title=" ">
<polygon fill="white" stroke="#bfbfbf" points="460,-0.5 460,-19.5 504,-19.5 504,-0.5 460,-0.5"/>
<text text-anchor="middle" x="482" y="-7.5" font-family="Helvetica,sans-Serif" font-size="10.00">cmath</text>
</a>
</g>
</g>
<!-- Node4&#45;&gt;Node5 -->
<g id="edge6" class="edge"><title>Node4&#45;&gt;Node5</title>
<path fill="none" stroke="midnightblue" d="M311.166,-56.4435C349.181,-46.3312 412.051,-29.6072 449.995,-19.5136"/>
<polygon fill="midnightblue" stroke="midnightblue" points="451.231,-22.8067 459.995,-16.8536 449.431,-16.042 451.231,-22.8067"/>
</g>
<!-- Node6 -->
<g id="node7" class="node"><title>Node6</title>
<g id="a_node7"><a xlink:title=" ">
<polygon fill="white" stroke="#bfbfbf" points="1014,-0.5 1014,-19.5 1066,-19.5 1066,-0.5 1014,-0.5"/>
<text text-anchor="middle" x="1040" y="-7.5" font-family="Helvetica,sans-Serif" font-size="10.00">ostream</text>
</a>
</g>
</g>
<!-- Node4&#45;&gt;Node6 -->
<g id="edge7" class="edge"><title>Node4&#45;&gt;Node6</title>
<path fill="none" stroke="midnightblue" d="M312.05,-60.936C326.455,-59.2542 343.547,-57.379 359,-56 423.283,-50.2633 871.414,-21.6966 1003.46,-13.3152"/>
<polygon fill="midnightblue" stroke="midnightblue" points="1004.08,-16.7834 1013.84,-12.6571 1003.63,-9.79742 1004.08,-16.7834"/>
</g>
<!-- Node7 -->
<g id="node8" class="node"><title>Node7</title>
<g id="a_node8"><a xlink:href="ia_vector3_8inl.html" target="_top" xlink:title=" ">
<polygon fill="white" stroke="black" points="243.5,-0.5 243.5,-19.5 314.5,-19.5 314.5,-0.5 243.5,-0.5"/>
<text text-anchor="middle" x="279" y="-7.5" font-family="Helvetica,sans-Serif" font-size="10.00">iaVector3.inl</text>
</a>
</g>
</g>
<!-- Node4&#45;&gt;Node7 -->
<g id="edge8" class="edge"><title>Node4&#45;&gt;Node7</title>
<path fill="none" stroke="midnightblue" d="M279,-56.083C279,-49.0059 279,-38.8611 279,-29.9865"/>
<polygon fill="midnightblue" stroke="midnightblue" points="282.5,-29.751 279,-19.7511 275.5,-29.7511 282.5,-29.751"/>
</g>
<!-- Node9&#45;&gt;Node10 -->
<g id="edge11" class="edge"><title>Node9&#45;&gt;Node10</title>
<path fill="none" stroke="midnightblue" d="M394.144,-280.444C374.734,-271.636 344.27,-257.812 322.035,-247.722"/>
<polygon fill="midnightblue" stroke="midnightblue" points="323.32,-244.462 312.768,-243.516 320.428,-250.836 323.32,-244.462"/>
</g>
<!-- Node22 -->
<g id="node23" class="node"><title>Node22</title>
<g id="a_node23"><a xlink:href="ia_console_8h.html" target="_top" xlink:title=" ">
<polygon fill="white" stroke="black" points="828,-168.5 828,-187.5 896,-187.5 896,-168.5 828,-168.5"/>
<text text-anchor="middle" x="862" y="-175.5" font-family="Helvetica,sans-Serif" font-size="10.00">iaConsole.h</text>
</a>
</g>
</g>
<!-- Node9&#45;&gt;Node22 -->
<g id="edge29" class="edge"><title>Node9&#45;&gt;Node22</title>
<path fill="none" stroke="midnightblue" d="M442.114,-281.867C518.816,-263.076 726.794,-212.124 818.062,-189.764"/>
<polygon fill="midnightblue" stroke="midnightblue" points="818.941,-193.153 827.821,-187.373 817.275,-186.354 818.941,-193.153"/>
</g>
<!-- Node27 -->
<g id="node28" class="node"><title>Node27</title>
<g id="a_node28"><a xlink:href="i_sphere_8inl.html" target="_top" xlink:title=" ">
<polygon fill="white" stroke="black" points="344,-224.5 344,-243.5 406,-243.5 406,-224.5 344,-224.5"/>
<text text-anchor="middle" x="375" y="-231.5" font-family="Helvetica,sans-Serif" font-size="10.00">iSphere.inl</text>
</a>
</g>
</g>
<!-- Node9&#45;&gt;Node27 -->
<g id="edge38" class="edge"><title>Node9&#45;&gt;Node27</title>
<path fill="none" stroke="midnightblue" d="M406.725,-280.083C401.358,-272.455 393.482,-261.264 386.921,-251.941"/>
<polygon fill="midnightblue" stroke="midnightblue" points="389.775,-249.915 381.158,-243.751 384.051,-253.943 389.775,-249.915"/>
</g>
<!-- Node11 -->
<g id="node12" class="node"><title>Node11</title>
<g id="a_node12"><a xlink:href="i_plane_8h.html" target="_top" xlink:title=" ">
<polygon fill="white" stroke="black" points="240,-168.5 240,-187.5 292,-187.5 292,-168.5 240,-168.5"/>
<text text-anchor="middle" x="266" y="-175.5" font-family="Helvetica,sans-Serif" font-size="10.00">iPlane.h</text>
</a>
</g>
</g>
<!-- Node10&#45;&gt;Node11 -->
<g id="edge12" class="edge"><title>Node10&#45;&gt;Node11</title>
<path fill="none" stroke="midnightblue" d="M289.376,-224.083C285.544,-216.691 279.976,-205.953 275.235,-196.811"/>
<polygon fill="midnightblue" stroke="midnightblue" points="278.248,-195.018 270.538,-187.751 272.034,-198.24 278.248,-195.018"/>
</g>
<!-- Node13 -->
<g id="node14" class="node"><title>Node13</title>
<g id="a_node14"><a xlink:href="ia_matrix_8h.html" target="_top" xlink:title=" ">
<polygon fill="white" stroke="black" points="538.5,-168.5 538.5,-187.5 597.5,-187.5 597.5,-168.5 538.5,-168.5"/>
<text text-anchor="middle" x="568" y="-175.5" font-family="Helvetica,sans-Serif" font-size="10.00">iaMatrix.h</text>
</a>
</g>
</g>
<!-- Node10&#45;&gt;Node13 -->
<g id="edge16" class="edge"><title>Node10&#45;&gt;Node13</title>
<path fill="none" stroke="midnightblue" d="M325.767,-225.944C328.885,-225.276 332.002,-224.618 335,-224 402.71,-210.032 481.768,-195.041 528.203,-186.369"/>
<polygon fill="midnightblue" stroke="midnightblue" points="528.97,-189.786 538.16,-184.513 527.688,-182.905 528.97,-189.786"/>
</g>
<!-- Node21 -->
<g id="node22" class="node"><title>Node21</title>
<g id="a_node22"><a xlink:href="i_frustum_8inl.html" target="_top" xlink:title=" ">
<polygon fill="white" stroke="black" points="154,-168.5 154,-187.5 222,-187.5 222,-168.5 154,-168.5"/>
<text text-anchor="middle" x="188" y="-175.5" font-family="Helvetica,sans-Serif" font-size="10.00">iFrustum.inl</text>
</a>
</g>
</g>
<!-- Node10&#45;&gt;Node21 -->
<g id="edge28" class="edge"><title>Node10&#45;&gt;Node21</title>
<path fill="none" stroke="midnightblue" d="M276.969,-224.324C259.97,-215.664 233.624,-202.242 214.007,-192.249"/>
<polygon fill="midnightblue" stroke="midnightblue" points="215.488,-189.075 204.988,-187.655 212.31,-195.312 215.488,-189.075"/>
</g>
<!-- Node11&#45;&gt;Node2 -->
<g id="edge13" class="edge"><title>Node11&#45;&gt;Node2</title>
<path fill="none" stroke="midnightblue" d="M266,-168.083C266,-161.006 266,-150.861 266,-141.986"/>
<polygon fill="midnightblue" stroke="midnightblue" points="269.5,-141.751 266,-131.751 262.5,-141.751 269.5,-141.751"/>
</g>
<!-- Node11&#45;&gt;Node4 -->
<g id="edge14" class="edge"><title>Node11&#45;&gt;Node4</title>
<path fill="none" stroke="midnightblue" d="M254.134,-168.096C239.416,-155.889 217.371,-133.066 227,-112 232.777,-99.3602 244.052,-88.911 254.631,-81.2737"/>
<polygon fill="midnightblue" stroke="midnightblue" points="256.849,-84.0009 263.217,-75.5333 252.958,-78.1817 256.849,-84.0009"/>
</g>
<!-- Node12 -->
<g id="node13" class="node"><title>Node12</title>
<g id="a_node13"><a xlink:href="i_plane_8inl.html" target="_top" xlink:title=" ">
<polygon fill="white" stroke="black" points="124,-112.5 124,-131.5 180,-131.5 180,-112.5 124,-112.5"/>
<text text-anchor="middle" x="152" y="-119.5" font-family="Helvetica,sans-Serif" font-size="10.00">iPlane.inl</text>
</a>
</g>
</g>
<!-- Node11&#45;&gt;Node12 -->
<g id="edge15" class="edge"><title>Node11&#45;&gt;Node12</title>
<path fill="none" stroke="midnightblue" d="M247.936,-168.444C229.425,-159.675 200.419,-145.935 179.145,-135.858"/>
<polygon fill="midnightblue" stroke="midnightblue" points="180.515,-132.634 169.979,-131.516 177.518,-138.96 180.515,-132.634"/>
</g>
<!-- Node13&#45;&gt;Node5 -->
<g id="edge25" class="edge"><title>Node13&#45;&gt;Node5</title>
<path fill="none" stroke="midnightblue" d="M569.431,-168.309C572.462,-146.811 577.256,-90.3995 551,-56 540.707,-42.5142 525.137,-31.8641 511.391,-24.3173"/>
<polygon fill="midnightblue" stroke="midnightblue" points="512.744,-21.0765 502.253,-19.5917 509.528,-27.2943 512.744,-21.0765"/>
</g>
<!-- Node14 -->
<g id="node15" class="node"><title>Node14</title>
<g id="a_node15"><a xlink:href="ia_vector4_8h.html" target="_top" xlink:title=" ">
<polygon fill="white" stroke="black" points="396,-112.5 396,-131.5 462,-131.5 462,-112.5 396,-112.5"/>
<text text-anchor="middle" x="429" y="-119.5" font-family="Helvetica,sans-Serif" font-size="10.00">iaVector4.h</text>
</a>
</g>
</g>
<!-- Node13&#45;&gt;Node14 -->
<g id="edge17" class="edge"><title>Node13&#45;&gt;Node14</title>
<path fill="none" stroke="midnightblue" d="M545.975,-168.444C522.896,-159.478 486.438,-145.314 460.359,-135.183"/>
<polygon fill="midnightblue" stroke="midnightblue" points="461.511,-131.875 450.922,-131.516 458.976,-138.4 461.511,-131.875"/>
</g>
<!-- Node16 -->
<g id="node17" class="node"><title>Node16</title>
<g id="a_node17"><a xlink:href="ia_quaternion_8h.html" target="_top" xlink:title=" ">
<polygon fill="white" stroke="black" points="480,-112.5 480,-131.5 560,-131.5 560,-112.5 480,-112.5"/>
<text text-anchor="middle" x="520" y="-119.5" font-family="Helvetica,sans-Serif" font-size="10.00">iaQuaternion.h</text>
</a>
</g>
</g>
<!-- Node13&#45;&gt;Node16 -->
<g id="edge20" class="edge"><title>Node13&#45;&gt;Node16</title>
<path fill="none" stroke="midnightblue" d="M560.074,-168.083C553.154,-160.298 542.935,-148.801 534.548,-139.367"/>
<polygon fill="midnightblue" stroke="midnightblue" points="537.038,-136.9 527.779,-131.751 531.806,-141.55 537.038,-136.9"/>
</g>
<!-- Node18 -->
<g id="node19" class="node"><title>Node18</title>
<g id="a_node19"><a xlink:title=" ">
<polygon fill="white" stroke="#bfbfbf" points="722.5,-112.5 722.5,-131.5 771.5,-131.5 771.5,-112.5 722.5,-112.5"/>
<text text-anchor="middle" x="747" y="-119.5" font-family="Helvetica,sans-Serif" font-size="10.00">fstream</text>
</a>
</g>
</g>
<!-- Node13&#45;&gt;Node18 -->
<g id="edge24" class="edge"><title>Node13&#45;&gt;Node18</title>
<path fill="none" stroke="midnightblue" d="M596.363,-168.444C627.81,-158.957 678.547,-143.651 712.329,-133.46"/>
<polygon fill="midnightblue" stroke="midnightblue" points="713.665,-136.712 722.228,-130.473 711.644,-130.01 713.665,-136.712"/>
</g>
<!-- Node19 -->
<g id="node20" class="node"><title>Node19</title>
<g id="a_node20"><a xlink:title=" ">
<polygon fill="white" stroke="#bfbfbf" points="654,-112.5 654,-131.5 704,-131.5 704,-112.5 654,-112.5"/>
<text text-anchor="middle" x="679" y="-119.5" font-family="Helvetica,sans-Serif" font-size="10.00">iomanip</text>
</a>
</g>
</g>
<!-- Node13&#45;&gt;Node19 -->
<g id="edge26" class="edge"><title>Node13&#45;&gt;Node19</title>
<path fill="none" stroke="midnightblue" d="M585.834,-168.324C603.716,-159.625 631.475,-146.12 652.046,-136.113"/>
<polygon fill="midnightblue" stroke="midnightblue" points="653.749,-139.177 661.21,-131.655 650.687,-132.882 653.749,-139.177"/>
</g>
<!-- Node20 -->
<g id="node21" class="node"><title>Node20</title>
<g id="a_node21"><a xlink:href="ia_matrix_8inl.html" target="_top" xlink:title=" ">
<polygon fill="white" stroke="black" points="314,-112.5 314,-131.5 378,-131.5 378,-112.5 314,-112.5"/>
<text text-anchor="middle" x="346" y="-119.5" font-family="Helvetica,sans-Serif" font-size="10.00">iaMatrix.inl</text>
</a>
</g>
</g>
<!-- Node13&#45;&gt;Node20 -->
<g id="edge27" class="edge"><title>Node13&#45;&gt;Node20</title>
<path fill="none" stroke="midnightblue" d="M538.06,-169.717C499.411,-160.316 431.932,-143.902 388.122,-133.246"/>
<polygon fill="midnightblue" stroke="midnightblue" points="388.884,-129.829 378.34,-130.867 387.23,-136.631 388.884,-129.829"/>
</g>
<!-- Node14&#45;&gt;Node4 -->
<g id="edge18" class="edge"><title>Node14&#45;&gt;Node4</title>
<path fill="none" stroke="midnightblue" d="M405.232,-112.444C380.107,-103.399 340.289,-89.064 312.1,-78.9158"/>
<polygon fill="midnightblue" stroke="midnightblue" points="313.251,-75.6106 302.657,-75.5164 310.88,-82.1968 313.251,-75.6106"/>
</g>
<!-- Node15 -->
<g id="node16" class="node"><title>Node15</title>
<g id="a_node16"><a xlink:href="ia_vector4_8inl.html" target="_top" xlink:title=" ">
<polygon fill="white" stroke="black" points="368.5,-56.5 368.5,-75.5 439.5,-75.5 439.5,-56.5 368.5,-56.5"/>
<text text-anchor="middle" x="404" y="-63.5" font-family="Helvetica,sans-Serif" font-size="10.00">iaVector4.inl</text>
</a>
</g>
</g>
<!-- Node14&#45;&gt;Node15 -->
<g id="edge19" class="edge"><title>Node14&#45;&gt;Node15</title>
<path fill="none" stroke="midnightblue" d="M424.872,-112.083C421.486,-104.77 416.584,-94.1814 412.381,-85.1034"/>
<polygon fill="midnightblue" stroke="midnightblue" points="415.429,-83.3553 408.051,-75.7511 409.077,-86.2962 415.429,-83.3553"/>
</g>
<!-- Node16&#45;&gt;Node4 -->
<g id="edge21" class="edge"><title>Node16&#45;&gt;Node4</title>
<path fill="none" stroke="midnightblue" d="M481.813,-112.444C438.378,-102.711 367.613,-86.8552 322.198,-76.6793"/>
<polygon fill="midnightblue" stroke="midnightblue" points="322.875,-73.2442 312.352,-74.473 321.345,-80.0749 322.875,-73.2442"/>
</g>
<!-- Node16&#45;&gt;Node6 -->
<g id="edge22" class="edge"><title>Node16&#45;&gt;Node6</title>
<path fill="none" stroke="midnightblue" d="M557.669,-112.454C613.703,-99.7967 722.362,-75.4677 815,-56 881.588,-42.0066 959.483,-26.6535 1003.95,-17.9847"/>
<polygon fill="midnightblue" stroke="midnightblue" points="1004.83,-21.379 1013.98,-16.0328 1003.5,-14.5079 1004.83,-21.379"/>
</g>
<!-- Node17 -->
<g id="node18" class="node"><title>Node17</title>
<g id="a_node18"><a xlink:href="ia_quaternion_8inl.html" target="_top" xlink:title=" ">
<polygon fill="white" stroke="black" points="458,-56.5 458,-75.5 542,-75.5 542,-56.5 458,-56.5"/>
<text text-anchor="middle" x="500" y="-63.5" font-family="Helvetica,sans-Serif" font-size="10.00">iaQuaternion.inl</text>
</a>
</g>
</g>
<!-- Node16&#45;&gt;Node17 -->
<g id="edge23" class="edge"><title>Node16&#45;&gt;Node17</title>
<path fill="none" stroke="midnightblue" d="M516.697,-112.083C514.018,-104.849 510.151,-94.4087 506.814,-85.3968"/>
<polygon fill="midnightblue" stroke="midnightblue" points="509.996,-83.9129 503.241,-75.7511 503.432,-86.3442 509.996,-83.9129"/>
</g>
<!-- Node22&#45;&gt;Node18 -->
<g id="edge35" class="edge"><title>Node22&#45;&gt;Node18</title>
<path fill="none" stroke="midnightblue" d="M843.778,-168.444C825.104,-159.675 795.844,-145.935 774.383,-135.858"/>
<polygon fill="midnightblue" stroke="midnightblue" points="775.676,-132.599 765.137,-131.516 772.701,-138.935 775.676,-132.599"/>
</g>
<!-- Node22&#45;&gt;Node19 -->
<g id="edge37" class="edge"><title>Node22&#45;&gt;Node19</title>
<path fill="none" stroke="midnightblue" d="M833.003,-168.444C800.623,-158.889 748.239,-143.431 713.707,-133.241"/>
<polygon fill="midnightblue" stroke="midnightblue" points="714.62,-129.862 704.038,-130.388 712.639,-136.576 714.62,-129.862"/>
</g>
<!-- Node23 -->
<g id="node24" class="node"><title>Node23</title>
<g id="a_node24"><a xlink:href="ia_singleton_8h.html" target="_top" xlink:title=" ">
<polygon fill="white" stroke="black" points="828.5,-112.5 828.5,-131.5 901.5,-131.5 901.5,-112.5 828.5,-112.5"/>
<text text-anchor="middle" x="865" y="-119.5" font-family="Helvetica,sans-Serif" font-size="10.00">iaSingleton.h</text>
</a>
</g>
</g>
<!-- Node22&#45;&gt;Node23 -->
<g id="edge30" class="edge"><title>Node22&#45;&gt;Node23</title>
<path fill="none" stroke="midnightblue" d="M862.495,-168.083C862.889,-161.006 863.452,-150.861 863.945,-141.986"/>
<polygon fill="midnightblue" stroke="midnightblue" points="867.454,-141.93 864.514,-131.751 860.464,-141.542 867.454,-141.93"/>
</g>
<!-- Node25 -->
<g id="node26" class="node"><title>Node25</title>
<g id="a_node26"><a xlink:href="ia_clock_8h.html" target="_top" xlink:title=" ">
<polygon fill="white" stroke="black" points="901.5,-56.5 901.5,-75.5 958.5,-75.5 958.5,-56.5 901.5,-56.5"/>
<text text-anchor="middle" x="930" y="-63.5" font-family="Helvetica,sans-Serif" font-size="10.00">iaClock.h</text>
</a>
</g>
</g>
<!-- Node22&#45;&gt;Node25 -->
<g id="edge33" class="edge"><title>Node22&#45;&gt;Node25</title>
<path fill="none" stroke="midnightblue" d="M874.666,-168.456C885.785,-160.322 901.61,-147.106 911,-132 919.825,-117.802 924.708,-99.3242 927.306,-85.7002"/>
<polygon fill="midnightblue" stroke="midnightblue" points="930.798,-86.0372 928.987,-75.5983 923.893,-84.8882 930.798,-86.0372"/>
</g>
<!-- Node26 -->
<g id="node27" class="node"><title>Node26</title>
<g id="a_node27"><a xlink:title=" ">
<polygon fill="white" stroke="#bfbfbf" points="958,-112.5 958,-131.5 1012,-131.5 1012,-112.5 958,-112.5"/>
<text text-anchor="middle" x="985" y="-119.5" font-family="Helvetica,sans-Serif" font-size="10.00">iostream</text>
</a>
</g>
</g>
<!-- Node22&#45;&gt;Node26 -->
<g id="edge36" class="edge"><title>Node22&#45;&gt;Node26</title>
<path fill="none" stroke="midnightblue" d="M881.49,-168.444C901.642,-159.596 933.323,-145.687 956.331,-135.586"/>
<polygon fill="midnightblue" stroke="midnightblue" points="957.852,-138.741 965.601,-131.516 955.038,-132.332 957.852,-138.741"/>
</g>
<!-- Node24 -->
<g id="node25" class="node"><title>Node24</title>
<g id="a_node25"><a xlink:href="ia_mutex_8h.html" target="_top" xlink:title=" ">
<polygon fill="white" stroke="black" points="824.5,-56.5 824.5,-75.5 883.5,-75.5 883.5,-56.5 824.5,-56.5"/>
<text text-anchor="middle" x="854" y="-63.5" font-family="Helvetica,sans-Serif" font-size="10.00">iaMutex.h</text>
</a>
</g>
</g>
<!-- Node23&#45;&gt;Node24 -->
<g id="edge31" class="edge"><title>Node23&#45;&gt;Node24</title>
<path fill="none" stroke="midnightblue" d="M863.184,-112.083C861.726,-104.927 859.629,-94.6353 857.807,-85.6911"/>
<polygon fill="midnightblue" stroke="midnightblue" points="861.208,-84.8512 855.783,-75.7511 854.349,-86.2485 861.208,-84.8512"/>
</g>
<!-- Node24&#45;&gt;Node3 -->
<g id="edge32" class="edge"><title>Node24&#45;&gt;Node3</title>
<path fill="none" stroke="midnightblue" d="M854,-56.083C854,-49.0059 854,-38.8611 854,-29.9865"/>
<polygon fill="midnightblue" stroke="midnightblue" points="857.5,-29.751 854,-19.7511 850.5,-29.7511 857.5,-29.751"/>
</g>
<!-- Node25&#45;&gt;Node3 -->
<g id="edge34" class="edge"><title>Node25&#45;&gt;Node3</title>
<path fill="none" stroke="midnightblue" d="M917.789,-56.324C906.224,-48.1066 888.625,-35.6017 874.839,-25.8069"/>
<polygon fill="midnightblue" stroke="midnightblue" points="876.612,-22.7729 866.433,-19.8339 872.557,-28.4791 876.612,-22.7729"/>
</g>
<!-- Node28&#45;&gt;Node2 -->
<g id="edge45" class="edge"><title>Node28&#45;&gt;Node2</title>
<path fill="none" stroke="midnightblue" d="M1015.83,-288.783C946.606,-287.699 747.896,-281.309 588,-244 474.668,-217.556 347.294,-161.258 292.926,-135.879"/>
<polygon fill="midnightblue" stroke="midnightblue" points="294.182,-132.603 283.643,-131.515 291.203,-138.937 294.182,-132.603"/>
</g>
<!-- Node28&#45;&gt;Node6 -->
<g id="edge60" class="edge"><title>Node28&#45;&gt;Node6</title>
<path fill="none" stroke="midnightblue" d="M1055.71,-280.342C1084.49,-262.157 1144.32,-217.555 1131,-168 1115.93,-111.965 1075.44,-55.294 1053.91,-27.9065"/>
<polygon fill="midnightblue" stroke="midnightblue" points="1056.39,-25.3973 1047.4,-19.7844 1050.92,-29.7759 1056.39,-25.3973"/>
</g>
<!-- Node28&#45;&gt;Node13 -->
<g id="edge55" class="edge"><title>Node28&#45;&gt;Node13</title>
<path fill="none" stroke="midnightblue" d="M1015.98,-289.091C934.924,-288.975 680.803,-285.254 612,-244 594.148,-233.296 581.934,-212.224 574.987,-196.968"/>
<polygon fill="midnightblue" stroke="midnightblue" points="578.121,-195.391 571.013,-187.534 571.669,-198.108 578.121,-195.391"/>
</g>
<!-- Node28&#45;&gt;Node24 -->
<g id="edge56" class="edge"><title>Node28&#45;&gt;Node24</title>
<path fill="none" stroke="midnightblue" d="M1015.83,-287.42C952.836,-283.118 790.042,-269.755 743,-244 684.983,-212.236 668.264,-193.917 645,-132 641.874,-123.679 639.415,-118.915 645,-112 665.867,-86.1614 759.701,-74.4571 814.284,-69.7529"/>
<polygon fill="midnightblue" stroke="midnightblue" points="814.638,-73.2357 824.318,-68.9286 814.065,-66.2591 814.638,-73.2357"/>
</g>
<!-- Node29 -->
<g id="node30" class="node"><title>Node29</title>
<g id="a_node30"><a xlink:href="i_data_update_queue_8h.html" target="_top" xlink:title=" ">
<polygon fill="white" stroke="black" points="752.5,-224.5 752.5,-243.5 859.5,-243.5 859.5,-224.5 752.5,-224.5"/>
<text text-anchor="middle" x="806" y="-231.5" font-family="Helvetica,sans-Serif" font-size="10.00">iDataUpdateQueue.h</text>
</a>
</g>
</g>
<!-- Node28&#45;&gt;Node29 -->
<g id="edge41" class="edge"><title>Node28&#45;&gt;Node29</title>
<path fill="none" stroke="midnightblue" d="M1015.85,-283.221C977.161,-274.331 902.383,-257.148 853.338,-245.878"/>
<polygon fill="midnightblue" stroke="midnightblue" points="853.815,-242.396 843.285,-243.568 852.247,-249.218 853.815,-242.396"/>
</g>
<!-- Node28&#45;&gt;Node30 -->
<g id="edge61" class="edge"><title>Node28&#45;&gt;Node30</title>
<path fill="none" stroke="midnightblue" d="M1045.71,-280.368C1055.52,-262.376 1078.34,-220.55 1091.39,-196.627"/>
<polygon fill="midnightblue" stroke="midnightblue" points="1094.6,-198.046 1096.31,-187.591 1088.45,-194.694 1094.6,-198.046"/>
</g>
<!-- Node31 -->
<g id="node32" class="node"><title>Node31</title>
<g id="a_node32"><a xlink:href="ia_event_8h.html" target="_top" xlink:title=" ">
<polygon fill="white" stroke="black" points="890,-224.5 890,-243.5 946,-243.5 946,-224.5 890,-224.5"/>
<text text-anchor="middle" x="918" y="-231.5" font-family="Helvetica,sans-Serif" font-size="10.00">iaEvent.h</text>
</a>
</g>
</g>
<!-- Node28&#45;&gt;Node31 -->
<g id="edge46" class="edge"><title>Node28&#45;&gt;Node31</title>
<path fill="none" stroke="midnightblue" d="M1021.51,-280.444C1001.36,-271.596 969.677,-257.687 946.669,-247.586"/>
<polygon fill="midnightblue" stroke="midnightblue" points="947.962,-244.332 937.399,-243.516 945.148,-250.741 947.962,-244.332"/>
</g>
<!-- Node33 -->
<g id="node34" class="node"><title>Node33</title>
<g id="a_node34"><a xlink:href="ia_string_8h.html" target="_top" xlink:title=" ">
<polygon fill="white" stroke="black" points="1180,-224.5 1180,-243.5 1238,-243.5 1238,-224.5 1180,-224.5"/>
<text text-anchor="middle" x="1209" y="-231.5" font-family="Helvetica,sans-Serif" font-size="10.00">iaString.h</text>
</a>
</g>
</g>
<!-- Node28&#45;&gt;Node33 -->
<g id="edge51" class="edge"><title>Node28&#45;&gt;Node33</title>
<path fill="none" stroke="midnightblue" d="M1066.15,-280.916C1094.32,-271.862 1140.22,-257.107 1172.37,-246.773"/>
<polygon fill="midnightblue" stroke="midnightblue" points="1173.84,-249.979 1182.29,-243.587 1171.7,-243.315 1173.84,-249.979"/>
</g>
<!-- Node34 -->
<g id="node35" class="node"><title>Node34</title>
<g id="a_node35"><a xlink:href="ia_i_d_generator_8h.html" target="_top" xlink:title=" ">
<polygon fill="white" stroke="black" points="964,-224.5 964,-243.5 1048,-243.5 1048,-224.5 964,-224.5"/>
<text text-anchor="middle" x="1006" y="-231.5" font-family="Helvetica,sans-Serif" font-size="10.00">iaIDGenerator.h</text>
</a>
</g>
</g>
<!-- Node28&#45;&gt;Node34 -->
<g id="edge57" class="edge"><title>Node28&#45;&gt;Node34</title>
<path fill="none" stroke="midnightblue" d="M1035.22,-280.083C1030.33,-272.534 1023.17,-261.495 1017.17,-252.23"/>
<polygon fill="midnightblue" stroke="midnightblue" points="1020.05,-250.239 1011.67,-243.751 1014.17,-254.046 1020.05,-250.239"/>
</g>
<!-- Node28&#45;&gt;Node35 -->
<g id="edge62" class="edge"><title>Node28&#45;&gt;Node35</title>
<path fill="none" stroke="midnightblue" d="M1066.12,-283.823C1103.24,-276.105 1175.16,-260.898 1245.71,-244.244"/>
<polygon fill="midnightblue" stroke="midnightblue" points="1246.73,-247.599 1255.65,-241.885 1245.11,-240.788 1246.73,-247.599"/>
</g>
<!-- Node28&#45;&gt;Node36 -->
<g id="edge63" class="edge"><title>Node28&#45;&gt;Node36</title>
<path fill="none" stroke="midnightblue" d="M1066.01,-286.284C1113.21,-280.869 1218.7,-267.391 1316.64,-243.716"/>
<polygon fill="midnightblue" stroke="midnightblue" points="1317.52,-247.103 1326.4,-241.317 1315.85,-240.306 1317.52,-247.103"/>
</g>
<!-- Node29&#45;&gt;Node2 -->
<g id="edge42" class="edge"><title>Node29&#45;&gt;Node2</title>
<path fill="none" stroke="midnightblue" d="M752.424,-228.685C695.891,-223.123 604.677,-211.261 529,-188 508.853,-181.808 506.035,-174.547 486,-168 411.082,-143.518 387.06,-148.749 305.969,-132.113"/>
<polygon fill="midnightblue" stroke="midnightblue" points="306.296,-128.606 295.79,-129.973 304.855,-135.456 306.296,-128.606"/>
</g>
<!-- Node29&#45;&gt;Node24 -->
<g id="edge43" class="edge"><title>Node29&#45;&gt;Node24</title>
<path fill="none" stroke="midnightblue" d="M805.357,-224.402C804.16,-204.03 803.01,-151.57 819,-112 823.293,-101.375 830.862,-91.1565 837.866,-83.1496"/>
<polygon fill="midnightblue" stroke="midnightblue" points="840.56,-85.392 844.799,-75.682 835.43,-80.6294 840.56,-85.392"/>
</g>
<!-- Node29&#45;&gt;Node30 -->
<g id="edge44" class="edge"><title>Node29&#45;&gt;Node30</title>
<path fill="none" stroke="midnightblue" d="M852.744,-224.444C913.541,-213.315 1018.09,-194.177 1069.95,-184.684"/>
<polygon fill="midnightblue" stroke="midnightblue" points="1070.68,-188.108 1079.89,-182.865 1069.42,-181.222 1070.68,-188.108"/>
</g>
<!-- Node31&#45;&gt;Node22 -->
<g id="edge49" class="edge"><title>Node31&#45;&gt;Node22</title>
<path fill="none" stroke="midnightblue" d="M909.003,-224.324C900.806,-216.42 888.494,-204.548 878.528,-194.938"/>
<polygon fill="midnightblue" stroke="midnightblue" points="880.789,-192.256 871.161,-187.834 875.93,-197.295 880.789,-192.256"/>
</g>
<!-- Node31&#45;&gt;Node24 -->
<g id="edge47" class="edge"><title>Node31&#45;&gt;Node24</title>
<path fill="none" stroke="midnightblue" d="M919.369,-224.325C921.93,-210.723 928.642,-184.256 944,-168 973.059,-137.24 1046.74,-145.589 1021,-112 1017.04,-106.826 941.611,-87.9665 893.495,-76.3679"/>
<polygon fill="midnightblue" stroke="midnightblue" points="894.219,-72.9422 883.678,-74.0107 892.584,-79.7488 894.219,-72.9422"/>
</g>
<!-- Node31&#45;&gt;Node30 -->
<g id="edge50" class="edge"><title>Node31&#45;&gt;Node30</title>
<path fill="none" stroke="midnightblue" d="M946.193,-224.681C979.773,-214.772 1035.67,-198.278 1070.31,-188.056"/>
<polygon fill="midnightblue" stroke="midnightblue" points="1071.31,-191.411 1079.91,-185.224 1069.33,-184.697 1071.31,-191.411"/>
</g>
<!-- Node32 -->
<g id="node33" class="node"><title>Node32</title>
<g id="a_node33"><a xlink:href="ia_delegate_8h.html" target="_top" xlink:title=" ">
<polygon fill="white" stroke="black" points="952.5,-168.5 952.5,-187.5 1023.5,-187.5 1023.5,-168.5 952.5,-168.5"/>
<text text-anchor="middle" x="988" y="-175.5" font-family="Helvetica,sans-Serif" font-size="10.00">iaDelegate.h</text>
</a>
</g>
</g>
<!-- Node31&#45;&gt;Node32 -->
<g id="edge48" class="edge"><title>Node31&#45;&gt;Node32</title>
<path fill="none" stroke="midnightblue" d="M929.247,-224.324C939.797,-216.185 955.801,-203.839 968.442,-194.087"/>
<polygon fill="midnightblue" stroke="midnightblue" points="970.769,-196.713 976.549,-187.834 966.493,-191.171 970.769,-196.713"/>
</g>
<!-- Node33&#45;&gt;Node3 -->
<g id="edge52" class="edge"><title>Node33&#45;&gt;Node3</title>
<path fill="none" stroke="midnightblue" d="M1199.06,-224.391C1184.39,-211.758 1155.97,-187.576 1131,-168 1061.83,-113.77 1046.21,-96.1161 968,-56 942.602,-42.9727 912.519,-31.2417 889.634,-23.0257"/>
<polygon fill="midnightblue" stroke="midnightblue" points="890.581,-19.6482 879.986,-19.6164 888.248,-26.2483 890.581,-19.6482"/>
</g>
<!-- Node33&#45;&gt;Node6 -->
<g id="edge53" class="edge"><title>Node33&#45;&gt;Node6</title>
<path fill="none" stroke="midnightblue" d="M1210.02,-224.493C1212.12,-204.319 1215.65,-152.253 1202,-112 1192.34,-83.5157 1187.74,-74.4737 1164,-56 1138.15,-35.8835 1102.49,-24.1991 1076.04,-17.8038"/>
<polygon fill="midnightblue" stroke="midnightblue" points="1076.56,-14.3342 1066.04,-15.5292 1075.01,-21.1599 1076.56,-14.3342"/>
</g>
<!-- Node33&#45;&gt;Node30 -->
<g id="edge54" class="edge"><title>Node33&#45;&gt;Node30</title>
<path fill="none" stroke="midnightblue" d="M1191.65,-224.324C1174.33,-215.664 1147.48,-202.242 1127.5,-192.249"/>
<polygon fill="midnightblue" stroke="midnightblue" points="1128.82,-188.996 1118.31,-187.655 1125.69,-195.257 1128.82,-188.996"/>
</g>
<!-- Node34&#45;&gt;Node24 -->
<g id="edge58" class="edge"><title>Node34&#45;&gt;Node24</title>
<path fill="none" stroke="midnightblue" d="M1012.7,-224.36C1028.4,-202.98 1064.29,-146.816 1037,-112 1035.87,-110.56 946.885,-89.1409 893.432,-76.3807"/>
<polygon fill="midnightblue" stroke="midnightblue" points="894.113,-72.9448 883.573,-74.0291 892.488,-79.7538 894.113,-72.9448"/>
</g>
<!-- Node34&#45;&gt;Node30 -->
<g id="edge59" class="edge"><title>Node34&#45;&gt;Node30</title>
<path fill="none" stroke="midnightblue" d="M1021.26,-224.324C1036.22,-215.822 1059.25,-202.729 1076.73,-192.797"/>
<polygon fill="midnightblue" stroke="midnightblue" points="1078.81,-195.639 1085.77,-187.655 1075.35,-189.553 1078.81,-195.639"/>
</g>
</g>
</svg>
