<?xml version="1.0" encoding="UTF-8" standalone="no"?>
<!DOCTYPE svg PUBLIC "-//W3C//DTD SVG 1.1//EN"
 "http://www.w3.org/Graphics/SVG/1.1/DTD/svg11.dtd">
<!-- Generated by graphviz version 2.38.0 (20140413.2041)
 -->
<!-- Title: C:/dev/Igor/src/Igor/src/iParticleSystem2D.h Pages: 1 -->
<svg width="931pt" height="375pt"
 viewBox="0.00 0.00 930.71 375.00" xmlns="http://www.w3.org/2000/svg" xmlns:xlink="http://www.w3.org/1999/xlink">
<g id="graph0" class="graph" transform="scale(1 1) rotate(0) translate(4 371)">
<title>C:/dev/Igor/src/Igor/src/iParticleSystem2D.h</title>
<polygon fill="white" stroke="none" points="-4,4 -4,-371 926.713,-371 926.713,4 -4,4"/>
<!-- Node1 -->
<g id="node1" class="node"><title>Node1</title>
<polygon fill="#bfbfbf" stroke="black" points="413.213,-336.5 413.213,-366.5 538.213,-366.5 538.213,-336.5 413.213,-336.5"/>
<text text-anchor="start" x="421.213" y="-354.5" font-family="Helvetica,sans-Serif" font-size="10.00">C:/dev/Igor/src/Igor</text>
<text text-anchor="middle" x="475.713" y="-343.5" font-family="Helvetica,sans-Serif" font-size="10.00">/src/iParticleSystem2D.h</text>
</g>
<!-- Node2 -->
<g id="node2" class="node"><title>Node2</title>
<g id="a_node2"><a xlink:href="i_timer_handle_8h.html" target="_top" xlink:title="iTimerHandle.h">
<polygon fill="white" stroke="black" points="107.213,-280.5 107.213,-299.5 188.213,-299.5 188.213,-280.5 107.213,-280.5"/>
<text text-anchor="middle" x="147.713" y="-287.5" font-family="Helvetica,sans-Serif" font-size="10.00">iTimerHandle.h</text>
</a>
</g>
</g>
<!-- Node1&#45;&gt;Node2 -->
<g id="edge1" class="edge"><title>Node1&#45;&gt;Node2</title>
<path fill="none" stroke="midnightblue" d="M412.859,-339.098C350.564,-327.798 256.324,-310.702 198.581,-300.228"/>
<polygon fill="midnightblue" stroke="midnightblue" points="199.053,-296.756 188.589,-298.415 197.804,-303.644 199.053,-296.756"/>
</g>
<!-- Node13 -->
<g id="node13" class="node"><title>Node13</title>
<polygon fill="white" stroke="#bfbfbf" points="264.713,-168.5 264.713,-187.5 306.713,-187.5 306.713,-168.5 264.713,-168.5"/>
<text text-anchor="middle" x="285.713" y="-175.5" font-family="Helvetica,sans-Serif" font-size="10.00">vector</text>
</g>
<!-- Node1&#45;&gt;Node13 -->
<g id="edge37" class="edge"><title>Node1&#45;&gt;Node13</title>
<path fill="none" stroke="midnightblue" d="M460.164,-336.465C425.047,-304.767 339.802,-227.823 303.049,-194.649"/>
<polygon fill="midnightblue" stroke="midnightblue" points="304.964,-191.662 295.196,-187.56 300.274,-196.858 304.964,-191.662"/>
</g>
<!-- Node15 -->
<g id="node15" class="node"><title>Node15</title>
<g id="a_node15"><a xlink:href="ia_vector2_8h.html" target="_top" xlink:title="iaVector2.h">
<polygon fill="white" stroke="black" points="703.713,-168.5 703.713,-187.5 769.713,-187.5 769.713,-168.5 703.713,-168.5"/>
<text text-anchor="middle" x="736.713" y="-175.5" font-family="Helvetica,sans-Serif" font-size="10.00">iaVector2.h</text>
</a>
</g>
</g>
<!-- Node1&#45;&gt;Node15 -->
<g id="edge17" class="edge"><title>Node1&#45;&gt;Node15</title>
<path fill="none" stroke="midnightblue" d="M497.071,-336.465C546.024,-304.299 665.884,-225.541 715.09,-193.208"/>
<polygon fill="midnightblue" stroke="midnightblue" points="717.251,-195.976 723.686,-187.56 713.407,-190.126 717.251,-195.976"/>
</g>
<!-- Node19 -->
<g id="node19" class="node"><title>Node19</title>
<g id="a_node19"><a xlink:href="ia_gradient_8h.html" target="_top" xlink:title="iaGradient.h">
<polygon fill="white" stroke="black" points="441.213,-224.5 441.213,-243.5 510.213,-243.5 510.213,-224.5 441.213,-224.5"/>
<text text-anchor="middle" x="475.713" y="-231.5" font-family="Helvetica,sans-Serif" font-size="10.00">iaGradient.h</text>
</a>
</g>
</g>
<!-- Node1&#45;&gt;Node19 -->
<g id="edge22" class="edge"><title>Node1&#45;&gt;Node19</title>
<path fill="none" stroke="midnightblue" d="M475.713,-336.337C475.713,-315.622 475.713,-277.016 475.713,-253.899"/>
<polygon fill="midnightblue" stroke="midnightblue" points="479.213,-253.669 475.713,-243.669 472.213,-253.669 479.213,-253.669"/>
</g>
<!-- Node25 -->
<g id="node25" class="node"><title>Node25</title>
<g id="a_node25"><a xlink:href="ia_random_number_generator_8h.html" target="_top" xlink:title="iaRandomNumberGenerator.h">
<polygon fill="white" stroke="black" points="694.213,-280.5 694.213,-299.5 839.213,-299.5 839.213,-280.5 694.213,-280.5"/>
<text text-anchor="middle" x="766.713" y="-287.5" font-family="Helvetica,sans-Serif" font-size="10.00">iaRandomNumberGenerator.h</text>
</a>
</g>
</g>
<!-- Node1&#45;&gt;Node25 -->
<g id="edge38" class="edge"><title>Node1&#45;&gt;Node25</title>
<path fill="none" stroke="midnightblue" d="M538.497,-337.663C591.331,-326.86 665.954,-311.602 715.299,-301.512"/>
<polygon fill="midnightblue" stroke="midnightblue" points="716.026,-304.936 725.122,-299.504 714.624,-298.078 716.026,-304.936"/>
</g>
<!-- Node3 -->
<g id="node3" class="node"><title>Node3</title>
<g id="a_node3"><a xlink:href="ia_event_8h.html" target="_top" xlink:title="iaEvent.h">
<polygon fill="white" stroke="black" points="119.713,-224.5 119.713,-243.5 175.713,-243.5 175.713,-224.5 119.713,-224.5"/>
<text text-anchor="middle" x="147.713" y="-231.5" font-family="Helvetica,sans-Serif" font-size="10.00">iaEvent.h</text>
</a>
</g>
</g>
<!-- Node2&#45;&gt;Node3 -->
<g id="edge2" class="edge"><title>Node2&#45;&gt;Node3</title>
<path fill="none" stroke="midnightblue" d="M147.713,-280.083C147.713,-273.006 147.713,-262.861 147.713,-253.986"/>
<polygon fill="midnightblue" stroke="midnightblue" points="151.213,-253.751 147.713,-243.751 144.213,-253.751 151.213,-253.751"/>
</g>
<!-- Node14 -->
<g id="node14" class="node"><title>Node14</title>
<g id="a_node14"><a xlink:href="i_defines_8h.html" target="_top" xlink:title="iDefines.h">
<polygon fill="white" stroke="black" points="0.212729,-56.5 0.212729,-75.5 59.2127,-75.5 59.2127,-56.5 0.212729,-56.5"/>
<text text-anchor="middle" x="29.7127" y="-63.5" font-family="Helvetica,sans-Serif" font-size="10.00">iDefines.h</text>
</a>
</g>
</g>
<!-- Node2&#45;&gt;Node14 -->
<g id="edge15" class="edge"><title>Node2&#45;&gt;Node14</title>
<path fill="none" stroke="midnightblue" d="M124.794,-280.394C91.8455,-266.617 32.3529,-236.159 7.71273,-188 -9.55332,-154.254 7.71015,-109.118 19.9141,-84.6213"/>
<polygon fill="midnightblue" stroke="midnightblue" points="23.0193,-86.2362 24.5668,-75.755 16.8209,-82.9835 23.0193,-86.2362"/>
</g>
<!-- Node4 -->
<g id="node4" class="node"><title>Node4</title>
<g id="a_node4"><a xlink:href="ia_mutex_8h.html" target="_top" xlink:title="iaMutex.h">
<polygon fill="white" stroke="black" points="118.213,-56.5 118.213,-75.5 177.213,-75.5 177.213,-56.5 118.213,-56.5"/>
<text text-anchor="middle" x="147.713" y="-63.5" font-family="Helvetica,sans-Serif" font-size="10.00">iaMutex.h</text>
</a>
</g>
</g>
<!-- Node3&#45;&gt;Node4 -->
<g id="edge3" class="edge"><title>Node3&#45;&gt;Node4</title>
<path fill="none" stroke="midnightblue" d="M139.83,-224.41C122.544,-204.484 84.197,-153.638 101.713,-112 106.738,-100.053 116.656,-89.6922 126,-81.9339"/>
<polygon fill="midnightblue" stroke="midnightblue" points="128.152,-84.6944 133.926,-75.8113 123.873,-79.1547 128.152,-84.6944"/>
</g>
<!-- Node6 -->
<g id="node6" class="node"><title>Node6</title>
<g id="a_node6"><a xlink:href="ia_delegate_8h.html" target="_top" xlink:title="iaDelegate.h">
<polygon fill="white" stroke="black" points="17.2127,-168.5 17.2127,-187.5 88.2127,-187.5 88.2127,-168.5 17.2127,-168.5"/>
<text text-anchor="middle" x="52.7127" y="-175.5" font-family="Helvetica,sans-Serif" font-size="10.00">iaDelegate.h</text>
</a>
</g>
</g>
<!-- Node3&#45;&gt;Node6 -->
<g id="edge5" class="edge"><title>Node3&#45;&gt;Node6</title>
<path fill="none" stroke="midnightblue" d="M132.449,-224.324C117.491,-215.822 94.4579,-202.729 76.9861,-192.797"/>
<polygon fill="midnightblue" stroke="midnightblue" points="78.3615,-189.553 67.9382,-187.655 74.9023,-195.639 78.3615,-189.553"/>
</g>
<!-- Node7 -->
<g id="node7" class="node"><title>Node7</title>
<g id="a_node7"><a xlink:href="ia_console_8h.html" target="_top" xlink:title="iaConsole.h">
<polygon fill="white" stroke="black" points="178.713,-168.5 178.713,-187.5 246.713,-187.5 246.713,-168.5 178.713,-168.5"/>
<text text-anchor="middle" x="212.713" y="-175.5" font-family="Helvetica,sans-Serif" font-size="10.00">iaConsole.h</text>
</a>
</g>
</g>
<!-- Node3&#45;&gt;Node7 -->
<g id="edge6" class="edge"><title>Node3&#45;&gt;Node7</title>
<path fill="none" stroke="midnightblue" d="M158.156,-224.324C167.859,-216.263 182.528,-204.077 194.212,-194.369"/>
<polygon fill="midnightblue" stroke="midnightblue" points="196.624,-196.916 202.079,-187.834 192.151,-191.532 196.624,-196.916"/>
</g>
<!-- Node3&#45;&gt;Node13 -->
<g id="edge14" class="edge"><title>Node3&#45;&gt;Node13</title>
<path fill="none" stroke="midnightblue" d="M169.579,-224.444C192.627,-215.425 229.114,-201.147 255.035,-191.004"/>
<polygon fill="midnightblue" stroke="midnightblue" points="256.365,-194.242 264.402,-187.339 253.814,-187.724 256.365,-194.242"/>
</g>
<!-- Node5 -->
<g id="node5" class="node"><title>Node5</title>
<g id="a_node5"><a xlink:href="ia_defines_8h.html" target="_top" xlink:title="iaDefines.h">
<polygon fill="white" stroke="black" points="445.213,-0.5 445.213,-19.5 510.213,-19.5 510.213,-0.5 445.213,-0.5"/>
<text text-anchor="middle" x="477.713" y="-7.5" font-family="Helvetica,sans-Serif" font-size="10.00">iaDefines.h</text>
</a>
</g>
</g>
<!-- Node4&#45;&gt;Node5 -->
<g id="edge4" class="edge"><title>Node4&#45;&gt;Node5</title>
<path fill="none" stroke="midnightblue" d="M177.288,-60.1603C235.974,-50.5572 367.325,-29.0634 435.239,-17.9502"/>
<polygon fill="midnightblue" stroke="midnightblue" points="435.875,-21.3928 445.179,-16.3238 434.745,-14.4847 435.875,-21.3928"/>
</g>
<!-- Node8 -->
<g id="node8" class="node"><title>Node8</title>
<g id="a_node8"><a xlink:href="ia_singleton_8h.html" target="_top" xlink:title="iaSingleton.h">
<polygon fill="white" stroke="black" points="111.213,-112.5 111.213,-131.5 184.213,-131.5 184.213,-112.5 111.213,-112.5"/>
<text text-anchor="middle" x="147.713" y="-119.5" font-family="Helvetica,sans-Serif" font-size="10.00">iaSingleton.h</text>
</a>
</g>
</g>
<!-- Node7&#45;&gt;Node8 -->
<g id="edge7" class="edge"><title>Node7&#45;&gt;Node8</title>
<path fill="none" stroke="midnightblue" d="M202.269,-168.324C192.566,-160.263 177.897,-148.077 166.213,-138.369"/>
<polygon fill="midnightblue" stroke="midnightblue" points="168.275,-135.532 158.346,-131.834 163.801,-140.916 168.275,-135.532"/>
</g>
<!-- Node9 -->
<g id="node9" class="node"><title>Node9</title>
<g id="a_node9"><a xlink:href="ia_clock_8h.html" target="_top" xlink:title="iaClock.h">
<polygon fill="white" stroke="black" points="284.213,-56.5 284.213,-75.5 341.213,-75.5 341.213,-56.5 284.213,-56.5"/>
<text text-anchor="middle" x="312.713" y="-63.5" font-family="Helvetica,sans-Serif" font-size="10.00">iaClock.h</text>
</a>
</g>
</g>
<!-- Node7&#45;&gt;Node9 -->
<g id="edge9" class="edge"><title>Node7&#45;&gt;Node9</title>
<path fill="none" stroke="midnightblue" d="M213.172,-168.478C214.302,-155.086 218.211,-128.902 231.713,-112 243.354,-97.428 261.064,-86.8253 276.958,-79.5852"/>
<polygon fill="midnightblue" stroke="midnightblue" points="278.717,-82.6407 286.55,-75.5065 275.978,-76.199 278.717,-82.6407"/>
</g>
<!-- Node10 -->
<g id="node10" class="node"><title>Node10</title>
<polygon fill="white" stroke="#bfbfbf" points="381.213,-112.5 381.213,-131.5 430.213,-131.5 430.213,-112.5 381.213,-112.5"/>
<text text-anchor="middle" x="405.713" y="-119.5" font-family="Helvetica,sans-Serif" font-size="10.00">fstream</text>
</g>
<!-- Node7&#45;&gt;Node10 -->
<g id="edge11" class="edge"><title>Node7&#45;&gt;Node10</title>
<path fill="none" stroke="midnightblue" d="M243.294,-168.444C278.173,-158.685 335.06,-142.768 371.417,-132.596"/>
<polygon fill="midnightblue" stroke="midnightblue" points="372.405,-135.954 381.092,-129.889 370.519,-129.213 372.405,-135.954"/>
</g>
<!-- Node11 -->
<g id="node11" class="node"><title>Node11</title>
<polygon fill="white" stroke="#bfbfbf" points="240.713,-112.5 240.713,-131.5 294.713,-131.5 294.713,-112.5 240.713,-112.5"/>
<text text-anchor="middle" x="267.713" y="-119.5" font-family="Helvetica,sans-Serif" font-size="10.00">iostream</text>
</g>
<!-- Node7&#45;&gt;Node11 -->
<g id="edge12" class="edge"><title>Node7&#45;&gt;Node11</title>
<path fill="none" stroke="midnightblue" d="M221.795,-168.083C229.884,-160.141 241.908,-148.335 251.623,-138.797"/>
<polygon fill="midnightblue" stroke="midnightblue" points="254.116,-141.254 258.8,-131.751 249.212,-136.26 254.116,-141.254"/>
</g>
<!-- Node12 -->
<g id="node12" class="node"><title>Node12</title>
<polygon fill="white" stroke="#bfbfbf" points="312.713,-112.5 312.713,-131.5 362.713,-131.5 362.713,-112.5 312.713,-112.5"/>
<text text-anchor="middle" x="337.713" y="-119.5" font-family="Helvetica,sans-Serif" font-size="10.00">iomanip</text>
</g>
<!-- Node7&#45;&gt;Node12 -->
<g id="edge13" class="edge"><title>Node7&#45;&gt;Node12</title>
<path fill="none" stroke="midnightblue" d="M232.519,-168.444C253,-159.596 285.195,-145.687 308.577,-135.586"/>
<polygon fill="midnightblue" stroke="midnightblue" points="310.207,-138.695 317.999,-131.516 307.431,-132.269 310.207,-138.695"/>
</g>
<!-- Node8&#45;&gt;Node4 -->
<g id="edge8" class="edge"><title>Node8&#45;&gt;Node4</title>
<path fill="none" stroke="midnightblue" d="M147.713,-112.083C147.713,-105.006 147.713,-94.8611 147.713,-85.9865"/>
<polygon fill="midnightblue" stroke="midnightblue" points="151.213,-85.751 147.713,-75.7511 144.213,-85.7511 151.213,-85.751"/>
</g>
<!-- Node9&#45;&gt;Node5 -->
<g id="edge10" class="edge"><title>Node9&#45;&gt;Node5</title>
<path fill="none" stroke="midnightblue" d="M338.857,-56.4435C366.736,-47.3196 411.061,-32.8133 442.113,-22.6509"/>
<polygon fill="midnightblue" stroke="midnightblue" points="443.275,-25.9533 451.69,-19.5164 441.098,-19.3005 443.275,-25.9533"/>
</g>
<!-- Node14&#45;&gt;Node5 -->
<g id="edge16" class="edge"><title>Node14&#45;&gt;Node5</title>
<path fill="none" stroke="midnightblue" d="M59.4542,-61.4151C136.81,-52.091 344.545,-27.0515 434.832,-16.1686"/>
<polygon fill="midnightblue" stroke="midnightblue" points="435.48,-19.616 444.989,-14.9444 434.642,-12.6663 435.48,-19.616"/>
</g>
<!-- Node15&#45;&gt;Node5 -->
<g id="edge18" class="edge"><title>Node15&#45;&gt;Node5</title>
<path fill="none" stroke="midnightblue" d="M769.951,-172.785C816.468,-165.508 892.367,-147.798 864.713,-112 822.458,-57.3025 611.889,-26.5975 520.337,-15.6471"/>
<polygon fill="midnightblue" stroke="midnightblue" points="520.639,-12.1585 510.299,-14.4688 519.823,-19.1108 520.639,-12.1585"/>
</g>
<!-- Node16 -->
<g id="node16" class="node"><title>Node16</title>
<polygon fill="white" stroke="#bfbfbf" points="652.713,-112.5 652.713,-131.5 696.713,-131.5 696.713,-112.5 652.713,-112.5"/>
<text text-anchor="middle" x="674.713" y="-119.5" font-family="Helvetica,sans-Serif" font-size="10.00">cmath</text>
</g>
<!-- Node15&#45;&gt;Node16 -->
<g id="edge19" class="edge"><title>Node15&#45;&gt;Node16</title>
<path fill="none" stroke="midnightblue" d="M726.751,-168.324C717.586,-160.341 703.776,-148.313 692.685,-138.653"/>
<polygon fill="midnightblue" stroke="midnightblue" points="694.695,-135.762 684.855,-131.834 690.097,-141.041 694.695,-135.762"/>
</g>
<!-- Node17 -->
<g id="node17" class="node"><title>Node17</title>
<polygon fill="white" stroke="#bfbfbf" points="714.713,-112.5 714.713,-131.5 766.713,-131.5 766.713,-112.5 714.713,-112.5"/>
<text text-anchor="middle" x="740.713" y="-119.5" font-family="Helvetica,sans-Serif" font-size="10.00">ostream</text>
</g>
<!-- Node15&#45;&gt;Node17 -->
<g id="edge20" class="edge"><title>Node15&#45;&gt;Node17</title>
<path fill="none" stroke="midnightblue" d="M737.373,-168.083C737.897,-161.006 738.649,-150.861 739.306,-141.986"/>
<polygon fill="midnightblue" stroke="midnightblue" points="742.816,-141.982 740.065,-131.751 735.835,-141.465 742.816,-141.982"/>
</g>
<!-- Node18 -->
<g id="node18" class="node"><title>Node18</title>
<g id="a_node18"><a xlink:href="ia_vector2_8inl.html" target="_top" xlink:title="iaVector2.inl">
<polygon fill="white" stroke="black" points="785.213,-112.5 785.213,-131.5 856.213,-131.5 856.213,-112.5 785.213,-112.5"/>
<text text-anchor="middle" x="820.713" y="-119.5" font-family="Helvetica,sans-Serif" font-size="10.00">iaVector2.inl</text>
</a>
</g>
</g>
<!-- Node15&#45;&gt;Node18 -->
<g id="edge21" class="edge"><title>Node15&#45;&gt;Node18</title>
<path fill="none" stroke="midnightblue" d="M750.209,-168.324C763.312,-159.9 783.425,-146.971 798.82,-137.074"/>
<polygon fill="midnightblue" stroke="midnightblue" points="800.731,-140.006 807.25,-131.655 796.946,-134.118 800.731,-140.006"/>
</g>
<!-- Node19&#45;&gt;Node5 -->
<g id="edge23" class="edge"><title>Node19&#45;&gt;Node5</title>
<path fill="none" stroke="midnightblue" d="M478.195,-224.467C480.669,-215.485 484.298,-200.888 485.713,-188 492.02,-130.539 484.757,-62.061 480.447,-29.7036"/>
<polygon fill="midnightblue" stroke="midnightblue" points="483.873,-28.9243 479.024,-19.5041 476.94,-29.8919 483.873,-28.9243"/>
</g>
<!-- Node19&#45;&gt;Node7 -->
<g id="edge33" class="edge"><title>Node19&#45;&gt;Node7</title>
<path fill="none" stroke="midnightblue" d="M441.028,-225.956C399.618,-217.536 327.99,-202.935 256.989,-188.257"/>
<polygon fill="midnightblue" stroke="midnightblue" points="257.479,-184.785 246.977,-186.186 256.061,-191.64 257.479,-184.785"/>
</g>
<!-- Node19&#45;&gt;Node13 -->
<g id="edge34" class="edge"><title>Node19&#45;&gt;Node13</title>
<path fill="none" stroke="midnightblue" d="M444.696,-224.448C414.382,-216.051 366.684,-202.741 316.694,-188.252"/>
<polygon fill="midnightblue" stroke="midnightblue" points="317.584,-184.866 307.005,-185.437 315.631,-191.588 317.584,-184.866"/>
</g>
<!-- Node19&#45;&gt;Node15 -->
<g id="edge32" class="edge"><title>Node19&#45;&gt;Node15</title>
<path fill="none" stroke="midnightblue" d="M510.372,-225.829C557.593,-216.059 642.127,-198.569 693.45,-187.951"/>
<polygon fill="midnightblue" stroke="midnightblue" points="694.478,-191.312 703.562,-185.859 693.06,-184.458 694.478,-191.312"/>
</g>
<!-- Node20 -->
<g id="node20" class="node"><title>Node20</title>
<g id="a_node20"><a xlink:href="ia_color4_8h.html" target="_top" xlink:title="iaColor4.h">
<polygon fill="white" stroke="black" points="416.713,-168.5 416.713,-187.5 476.713,-187.5 476.713,-168.5 416.713,-168.5"/>
<text text-anchor="middle" x="446.713" y="-175.5" font-family="Helvetica,sans-Serif" font-size="10.00">iaColor4.h</text>
</a>
</g>
</g>
<!-- Node19&#45;&gt;Node20 -->
<g id="edge24" class="edge"><title>Node19&#45;&gt;Node20</title>
<path fill="none" stroke="midnightblue" d="M470.924,-224.083C466.954,-216.691 461.188,-205.953 456.278,-196.811"/>
<polygon fill="midnightblue" stroke="midnightblue" points="459.227,-194.905 451.412,-187.751 453.06,-198.217 459.227,-194.905"/>
</g>
<!-- Node21 -->
<g id="node21" class="node"><title>Node21</title>
<g id="a_node21"><a xlink:href="ia_vector3_8h.html" target="_top" xlink:title="iaVector3.h">
<polygon fill="white" stroke="black" points="537.713,-168.5 537.713,-187.5 603.713,-187.5 603.713,-168.5 537.713,-168.5"/>
<text text-anchor="middle" x="570.713" y="-175.5" font-family="Helvetica,sans-Serif" font-size="10.00">iaVector3.h</text>
</a>
</g>
</g>
<!-- Node19&#45;&gt;Node21 -->
<g id="edge27" class="edge"><title>Node19&#45;&gt;Node21</title>
<path fill="none" stroke="midnightblue" d="M490.976,-224.324C505.934,-215.822 528.968,-202.729 546.439,-192.797"/>
<polygon fill="midnightblue" stroke="midnightblue" points="548.523,-195.639 555.487,-187.655 545.064,-189.553 548.523,-195.639"/>
</g>
<!-- Node23 -->
<g id="node23" class="node"><title>Node23</title>
<polygon fill="white" stroke="#bfbfbf" points="621.713,-168.5 621.713,-187.5 677.713,-187.5 677.713,-168.5 621.713,-168.5"/>
<text text-anchor="middle" x="649.713" y="-175.5" font-family="Helvetica,sans-Serif" font-size="10.00">algorithm</text>
</g>
<!-- Node19&#45;&gt;Node23 -->
<g id="edge35" class="edge"><title>Node19&#45;&gt;Node23</title>
<path fill="none" stroke="midnightblue" d="M503.284,-224.444C532.81,-215.28 579.831,-200.688 612.595,-190.519"/>
<polygon fill="midnightblue" stroke="midnightblue" points="613.758,-193.823 622.271,-187.516 611.683,-187.138 613.758,-193.823"/>
</g>
<!-- Node24 -->
<g id="node24" class="node"><title>Node24</title>
<g id="a_node24"><a xlink:href="ia_gradient_8inl.html" target="_top" xlink:title="iaGradient.inl">
<polygon fill="white" stroke="black" points="324.713,-168.5 324.713,-187.5 398.713,-187.5 398.713,-168.5 324.713,-168.5"/>
<text text-anchor="middle" x="361.713" y="-175.5" font-family="Helvetica,sans-Serif" font-size="10.00">iaGradient.inl</text>
</a>
</g>
</g>
<!-- Node19&#45;&gt;Node24 -->
<g id="edge36" class="edge"><title>Node19&#45;&gt;Node24</title>
<path fill="none" stroke="midnightblue" d="M457.649,-224.444C439.138,-215.675 410.132,-201.935 388.857,-191.858"/>
<polygon fill="midnightblue" stroke="midnightblue" points="390.228,-188.634 379.692,-187.516 387.231,-194.96 390.228,-188.634"/>
</g>
<!-- Node20&#45;&gt;Node5 -->
<g id="edge25" class="edge"><title>Node20&#45;&gt;Node5</title>
<path fill="none" stroke="midnightblue" d="M448.379,-168.075C453.259,-141.945 467.589,-65.2106 474.244,-29.577"/>
<polygon fill="midnightblue" stroke="midnightblue" points="477.717,-30.0407 476.113,-19.5681 470.836,-28.7556 477.717,-30.0407"/>
</g>
<!-- Node20&#45;&gt;Node10 -->
<g id="edge26" class="edge"><title>Node20&#45;&gt;Node10</title>
<path fill="none" stroke="midnightblue" d="M439.942,-168.083C434.151,-160.455 425.654,-149.264 418.575,-139.941"/>
<polygon fill="midnightblue" stroke="midnightblue" points="421.192,-137.599 412.357,-131.751 415.617,-141.832 421.192,-137.599"/>
</g>
<!-- Node21&#45;&gt;Node5 -->
<g id="edge28" class="edge"><title>Node21&#45;&gt;Node5</title>
<path fill="none" stroke="midnightblue" d="M566.986,-168.22C558.226,-147.894 535.208,-96.2645 510.713,-56 504.796,-46.2748 497.359,-35.997 491.043,-27.7227"/>
<polygon fill="midnightblue" stroke="midnightblue" points="493.662,-25.3891 484.755,-19.6515 488.14,-29.6911 493.662,-25.3891"/>
</g>
<!-- Node21&#45;&gt;Node16 -->
<g id="edge29" class="edge"><title>Node21&#45;&gt;Node16</title>
<path fill="none" stroke="midnightblue" d="M587.422,-168.324C604.025,-159.703 629.715,-146.364 648.933,-136.386"/>
<polygon fill="midnightblue" stroke="midnightblue" points="650.783,-139.369 658.045,-131.655 647.557,-133.156 650.783,-139.369"/>
</g>
<!-- Node21&#45;&gt;Node17 -->
<g id="edge30" class="edge"><title>Node21&#45;&gt;Node17</title>
<path fill="none" stroke="midnightblue" d="M597.65,-168.444C626.542,-159.266 672.579,-144.642 704.597,-134.472"/>
<polygon fill="midnightblue" stroke="midnightblue" points="705.989,-137.702 714.46,-131.339 703.87,-131.031 705.989,-137.702"/>
</g>
<!-- Node22 -->
<g id="node22" class="node"><title>Node22</title>
<g id="a_node22"><a xlink:href="ia_vector3_8inl.html" target="_top" xlink:title="iaVector3.inl">
<polygon fill="white" stroke="black" points="563.213,-112.5 563.213,-131.5 634.213,-131.5 634.213,-112.5 563.213,-112.5"/>
<text text-anchor="middle" x="598.713" y="-119.5" font-family="Helvetica,sans-Serif" font-size="10.00">iaVector3.inl</text>
</a>
</g>
</g>
<!-- Node21&#45;&gt;Node22 -->
<g id="edge31" class="edge"><title>Node21&#45;&gt;Node22</title>
<path fill="none" stroke="midnightblue" d="M575.336,-168.083C579.169,-160.691 584.737,-149.953 589.477,-140.811"/>
<polygon fill="midnightblue" stroke="midnightblue" points="592.679,-142.24 594.175,-131.751 586.465,-139.018 592.679,-142.24"/>
</g>
<!-- Node25&#45;&gt;Node5 -->
<g id="edge39" class="edge"><title>Node25&#45;&gt;Node5</title>
<path fill="none" stroke="midnightblue" d="M803.288,-280.462C849.397,-267.274 922.713,-237.159 922.713,-179 922.713,-179 922.713,-179 922.713,-121 922.713,-38.7007 632.244,-17.5831 520.659,-12.5069"/>
<polygon fill="midnightblue" stroke="midnightblue" points="520.577,-9.00018 510.435,-12.0643 520.274,-15.9936 520.577,-9.00018"/>
</g>
</g>
</svg>
