<?xml version="1.0" encoding="UTF-8" standalone="no"?>
<!DOCTYPE svg PUBLIC "-//W3C//DTD SVG 1.1//EN"
 "http://www.w3.org/Graphics/SVG/1.1/DTD/svg11.dtd">
<!-- Generated by graphviz version 2.38.0 (20140413.2041)
 -->
<!-- Title: C:/dev/Igor/src/Igor/src/iParticleEmitter.h Pages: 1 -->
<svg width="1301pt" height="251pt"
 viewBox="0.00 0.00 1301.00 251.00" xmlns="http://www.w3.org/2000/svg" xmlns:xlink="http://www.w3.org/1999/xlink">
<g id="graph0" class="graph" transform="scale(1 1) rotate(0) translate(4 247)">
<title>C:/dev/Igor/src/Igor/src/iParticleEmitter.h</title>
<polygon fill="white" stroke="none" points="-4,4 -4,-247 1297,-247 1297,4 -4,4"/>
<!-- Node1 -->
<g id="node1" class="node"><title>Node1</title>
<polygon fill="#bfbfbf" stroke="black" points="669.5,-212.5 669.5,-242.5 780.5,-242.5 780.5,-212.5 669.5,-212.5"/>
<text text-anchor="start" x="677.5" y="-230.5" font-family="Helvetica,sans-Serif" font-size="10.00">C:/dev/Igor/src/Igor</text>
<text text-anchor="middle" x="725" y="-219.5" font-family="Helvetica,sans-Serif" font-size="10.00">/src/iParticleEmitter.h</text>
</g>
<!-- Node2 -->
<g id="node2" class="node"><title>Node2</title>
<g id="a_node2"><a xlink:href="i_node_emitter_8h.html" target="_top" xlink:title="C:/dev/Igor/src/Igor\l/src/iNodeEmitter.h">
<polygon fill="white" stroke="black" points="544.5,-145.5 544.5,-175.5 645.5,-175.5 645.5,-145.5 544.5,-145.5"/>
<text text-anchor="start" x="552.5" y="-163.5" font-family="Helvetica,sans-Serif" font-size="10.00">C:/dev/Igor/src/Igor</text>
<text text-anchor="middle" x="595" y="-152.5" font-family="Helvetica,sans-Serif" font-size="10.00">/src/iNodeEmitter.h</text>
</a>
</g>
</g>
<!-- Node1&#45;&gt;Node2 -->
<g id="edge1" class="edge"><title>Node1&#45;&gt;Node2</title>
<path fill="none" stroke="midnightblue" d="M687.707,-207.853C667.152,-197.576 642.05,-185.025 623.153,-175.577"/>
<polygon fill="midnightblue" stroke="midnightblue" points="686.282,-211.054 696.792,-212.396 689.413,-204.793 686.282,-211.054"/>
</g>
<!-- Node13 -->
<g id="node13" class="node"><title>Node13</title>
<g id="a_node13"><a xlink:href="i_particle_emitter_8cpp.html" target="_top" xlink:title="C:/dev/Igor/src/Igor\l/src/iParticleEmitter.cpp">
<polygon fill="white" stroke="black" points="664,-145.5 664,-175.5 786,-175.5 786,-145.5 664,-145.5"/>
<text text-anchor="start" x="672" y="-163.5" font-family="Helvetica,sans-Serif" font-size="10.00">C:/dev/Igor/src/Igor</text>
<text text-anchor="middle" x="725" y="-152.5" font-family="Helvetica,sans-Serif" font-size="10.00">/src/iParticleEmitter.cpp</text>
</a>
</g>
</g>
<!-- Node1&#45;&gt;Node13 -->
<g id="edge13" class="edge"><title>Node1&#45;&gt;Node13</title>
<path fill="none" stroke="midnightblue" d="M725,-202.108C725,-193.154 725,-183.323 725,-175.577"/>
<polygon fill="midnightblue" stroke="midnightblue" points="721.5,-202.396 725,-212.396 728.5,-202.396 721.5,-202.396"/>
</g>
<!-- Node14 -->
<g id="node14" class="node"><title>Node14</title>
<g id="a_node14"><a xlink:href="i_particle_system3_d_8cpp.html" target="_top" xlink:title="C:/dev/Igor/src/Igor\l/src/iParticleSystem3D.cpp">
<polygon fill="white" stroke="black" points="804,-145.5 804,-175.5 940,-175.5 940,-145.5 804,-145.5"/>
<text text-anchor="start" x="812" y="-163.5" font-family="Helvetica,sans-Serif" font-size="10.00">C:/dev/Igor/src/Igor</text>
<text text-anchor="middle" x="872" y="-152.5" font-family="Helvetica,sans-Serif" font-size="10.00">/src/iParticleSystem3D.cpp</text>
</a>
</g>
</g>
<!-- Node1&#45;&gt;Node14 -->
<g id="edge14" class="edge"><title>Node1&#45;&gt;Node14</title>
<path fill="none" stroke="midnightblue" d="M766.231,-208.269C789.644,-197.916 818.508,-185.153 840.165,-175.577"/>
<polygon fill="midnightblue" stroke="midnightblue" points="764.627,-205.151 756.897,-212.396 767.458,-211.553 764.627,-205.151"/>
</g>
<!-- Node3 -->
<g id="node3" class="node"><title>Node3</title>
<g id="a_node3"><a xlink:href="i_model_data_i_o_o_m_p_f_8cpp.html" target="_top" xlink:title="C:/dev/Igor/src/Igor\l/src/iModelDataIOOMPF.cpp">
<polygon fill="white" stroke="black" points="0,-73 0,-103 142,-103 142,-73 0,-73"/>
<text text-anchor="start" x="8" y="-91" font-family="Helvetica,sans-Serif" font-size="10.00">C:/dev/Igor/src/Igor</text>
<text text-anchor="middle" x="71" y="-80" font-family="Helvetica,sans-Serif" font-size="10.00">/src/iModelDataIOOMPF.cpp</text>
</a>
</g>
</g>
<!-- Node2&#45;&gt;Node3 -->
<g id="edge2" class="edge"><title>Node2&#45;&gt;Node3</title>
<path fill="none" stroke="midnightblue" d="M534.126,-155.053C448.402,-148.226 287.441,-133.337 152,-109 142.733,-107.335 132.95,-105.226 123.511,-103.006"/>
<polygon fill="midnightblue" stroke="midnightblue" points="533.956,-158.55 544.2,-155.846 534.505,-151.572 533.956,-158.55"/>
</g>
<!-- Node4 -->
<g id="node4" class="node"><title>Node4</title>
<g id="a_node4"><a xlink:href="i_node_emitter_8cpp.html" target="_top" xlink:title="C:/dev/Igor/src/Igor\l/src/iNodeEmitter.cpp">
<polygon fill="white" stroke="black" points="160.5,-73 160.5,-103 271.5,-103 271.5,-73 160.5,-73"/>
<text text-anchor="start" x="168.5" y="-91" font-family="Helvetica,sans-Serif" font-size="10.00">C:/dev/Igor/src/Igor</text>
<text text-anchor="middle" x="216" y="-80" font-family="Helvetica,sans-Serif" font-size="10.00">/src/iNodeEmitter.cpp</text>
</a>
</g>
</g>
<!-- Node2&#45;&gt;Node4 -->
<g id="edge3" class="edge"><title>Node2&#45;&gt;Node4</title>
<path fill="none" stroke="midnightblue" d="M534.019,-152.248C470.393,-144.086 367.976,-129.271 281,-109 273.756,-107.312 266.141,-105.243 258.776,-103.084"/>
<polygon fill="midnightblue" stroke="midnightblue" points="533.914,-155.762 544.275,-153.549 534.795,-148.818 533.914,-155.762"/>
</g>
<!-- Node5 -->
<g id="node5" class="node"><title>Node5</title>
<g id="a_node5"><a xlink:href="i_node_factory_8cpp.html" target="_top" xlink:title="C:/dev/Igor/src/Igor\l/src/iNodeFactory.cpp">
<polygon fill="white" stroke="black" points="289.5,-73 289.5,-103 402.5,-103 402.5,-73 289.5,-73"/>
<text text-anchor="start" x="297.5" y="-91" font-family="Helvetica,sans-Serif" font-size="10.00">C:/dev/Igor/src/Igor</text>
<text text-anchor="middle" x="346" y="-80" font-family="Helvetica,sans-Serif" font-size="10.00">/src/iNodeFactory.cpp</text>
</a>
</g>
</g>
<!-- Node2&#45;&gt;Node5 -->
<g id="edge4" class="edge"><title>Node2&#45;&gt;Node5</title>
<path fill="none" stroke="midnightblue" d="M534.628,-143.247C498.905,-133.528 452.803,-120.81 412,-109 405.445,-107.103 398.536,-105.059 391.757,-103.027"/>
<polygon fill="midnightblue" stroke="midnightblue" points="533.848,-146.662 544.416,-145.905 535.683,-139.907 533.848,-146.662"/>
</g>
<!-- Node6 -->
<g id="node6" class="node"><title>Node6</title>
<g id="a_node6"><a xlink:href="i_node_particle_system_8cpp.html" target="_top" xlink:title="C:/dev/Igor/src/Igor\l/src/iNodeParticleSystem.cpp">
<polygon fill="white" stroke="black" points="421,-73 421,-103 567,-103 567,-73 421,-73"/>
<text text-anchor="start" x="429" y="-91" font-family="Helvetica,sans-Serif" font-size="10.00">C:/dev/Igor/src/Igor</text>
<text text-anchor="middle" x="494" y="-80" font-family="Helvetica,sans-Serif" font-size="10.00">/src/iNodeParticleSystem.cpp</text>
</a>
</g>
</g>
<!-- Node2&#45;&gt;Node6 -->
<g id="edge5" class="edge"><title>Node2&#45;&gt;Node6</title>
<path fill="none" stroke="midnightblue" d="M566.249,-139.431C549.575,-127.792 528.99,-113.424 514.064,-103.005"/>
<polygon fill="midnightblue" stroke="midnightblue" points="564.358,-142.379 574.561,-145.233 568.365,-136.64 564.358,-142.379"/>
</g>
<!-- Node7 -->
<g id="node7" class="node"><title>Node7</title>
<g id="a_node7"><a xlink:href="_widget3_d_emitter_8h.html" target="_top" xlink:title="C:/dev/Igor/src/Tools\l/ModelViewer/src/Widget3DEmitter.h">
<polygon fill="white" stroke="black" points="623.5,-73 623.5,-103 800.5,-103 800.5,-73 623.5,-73"/>
<text text-anchor="start" x="631.5" y="-91" font-family="Helvetica,sans-Serif" font-size="10.00">C:/dev/Igor/src/Tools</text>
<text text-anchor="middle" x="712" y="-80" font-family="Helvetica,sans-Serif" font-size="10.00">/ModelViewer/src/Widget3DEmitter.h</text>
</a>
</g>
</g>
<!-- Node2&#45;&gt;Node7 -->
<g id="edge6" class="edge"><title>Node2&#45;&gt;Node7</title>
<path fill="none" stroke="midnightblue" d="M626.962,-140.241C646.464,-128.489 670.96,-113.73 688.645,-103.073"/>
<polygon fill="midnightblue" stroke="midnightblue" points="625.154,-137.244 618.395,-145.403 628.767,-143.239 625.154,-137.244"/>
</g>
<!-- Node8 -->
<g id="node8" class="node"><title>Node8</title>
<g id="a_node8"><a xlink:href="_model_viewer_8cpp.html" target="_top" xlink:title="C:/dev/Igor/src/Tools\l/ModelViewer/src/ModelViewer.cpp">
<polygon fill="white" stroke="black" points="510.5,-0.5 510.5,-30.5 679.5,-30.5 679.5,-0.5 510.5,-0.5"/>
<text text-anchor="start" x="518.5" y="-18.5" font-family="Helvetica,sans-Serif" font-size="10.00">C:/dev/Igor/src/Tools</text>
<text text-anchor="middle" x="595" y="-7.5" font-family="Helvetica,sans-Serif" font-size="10.00">/ModelViewer/src/ModelViewer.cpp</text>
</a>
</g>
</g>
<!-- Node2&#45;&gt;Node8 -->
<g id="edge9" class="edge"><title>Node2&#45;&gt;Node8</title>
<path fill="none" stroke="midnightblue" d="M595,-135.194C595,-105.159 595,-55.0484 595,-30.6766"/>
<polygon fill="midnightblue" stroke="midnightblue" points="591.5,-135.266 595,-145.266 598.5,-135.266 591.5,-135.266"/>
</g>
<!-- Node10 -->
<g id="node10" class="node"><title>Node10</title>
<g id="a_node10"><a xlink:href="_user_control_emitter_8cpp.html" target="_top" xlink:title="C:/dev/Igor/src/Tools\l/ModelViewer/src/UserControl\lEmitter.cpp">
<polygon fill="white" stroke="black" points="819,-67.5 819,-108.5 965,-108.5 965,-67.5 819,-67.5"/>
<text text-anchor="start" x="827" y="-96.5" font-family="Helvetica,sans-Serif" font-size="10.00">C:/dev/Igor/src/Tools</text>
<text text-anchor="start" x="827" y="-85.5" font-family="Helvetica,sans-Serif" font-size="10.00">/ModelViewer/src/UserControl</text>
<text text-anchor="middle" x="892" y="-74.5" font-family="Helvetica,sans-Serif" font-size="10.00">Emitter.cpp</text>
</a>
</g>
</g>
<!-- Node2&#45;&gt;Node10 -->
<g id="edge10" class="edge"><title>Node2&#45;&gt;Node10</title>
<path fill="none" stroke="midnightblue" d="M655.47,-144.902C725.406,-128.384 744.157,-124.676 810,-109 812.851,-108.321 815.757,-107.626 818.692,-106.922"/>
<polygon fill="midnightblue" stroke="midnightblue" points="654.657,-141.498 645.731,-147.206 656.269,-148.309 654.657,-141.498"/>
</g>
<!-- Node11 -->
<g id="node11" class="node"><title>Node11</title>
<g id="a_node11"><a xlink:href="_user_control_material_view_8cpp.html" target="_top" xlink:title="C:/dev/Igor/src/Tools\l/ModelViewer/src/UserControl\lMaterialView.cpp">
<polygon fill="white" stroke="black" points="983,-67.5 983,-108.5 1129,-108.5 1129,-67.5 983,-67.5"/>
<text text-anchor="start" x="991" y="-96.5" font-family="Helvetica,sans-Serif" font-size="10.00">C:/dev/Igor/src/Tools</text>
<text text-anchor="start" x="991" y="-85.5" font-family="Helvetica,sans-Serif" font-size="10.00">/ModelViewer/src/UserControl</text>
<text text-anchor="middle" x="1056" y="-74.5" font-family="Helvetica,sans-Serif" font-size="10.00">MaterialView.cpp</text>
</a>
</g>
</g>
<!-- Node2&#45;&gt;Node11 -->
<g id="edge11" class="edge"><title>Node2&#45;&gt;Node11</title>
<path fill="none" stroke="midnightblue" d="M655.577,-145.059C797.264,-120.793 836.677,-133.394 974,-109 976.886,-108.487 979.821,-107.933 982.78,-107.346"/>
<polygon fill="midnightblue" stroke="midnightblue" points="654.895,-141.624 645.646,-146.791 656.098,-148.52 654.895,-141.624"/>
</g>
<!-- Node12 -->
<g id="node12" class="node"><title>Node12</title>
<g id="a_node12"><a xlink:href="_user_control_particle_system_8cpp.html" target="_top" xlink:title="C:/dev/Igor/src/Tools\l/ModelViewer/src/UserControl\lParticleSystem.cpp">
<polygon fill="white" stroke="black" points="1147,-67.5 1147,-108.5 1293,-108.5 1293,-67.5 1147,-67.5"/>
<text text-anchor="start" x="1155" y="-96.5" font-family="Helvetica,sans-Serif" font-size="10.00">C:/dev/Igor/src/Tools</text>
<text text-anchor="start" x="1155" y="-85.5" font-family="Helvetica,sans-Serif" font-size="10.00">/ModelViewer/src/UserControl</text>
<text text-anchor="middle" x="1220" y="-74.5" font-family="Helvetica,sans-Serif" font-size="10.00">ParticleSystem.cpp</text>
</a>
</g>
</g>
<!-- Node2&#45;&gt;Node12 -->
<g id="edge12" class="edge"><title>Node2&#45;&gt;Node12</title>
<path fill="none" stroke="midnightblue" d="M655.593,-145.107C869.439,-112.531 928.598,-142.109 1138,-109 1140.89,-108.542 1143.84,-108.034 1146.8,-107.486"/>
<polygon fill="midnightblue" stroke="midnightblue" points="654.968,-141.662 645.623,-146.653 656.041,-148.579 654.968,-141.662"/>
</g>
<!-- Node7&#45;&gt;Node8 -->
<g id="edge7" class="edge"><title>Node7&#45;&gt;Node8</title>
<path fill="none" stroke="midnightblue" d="M680.038,-67.7407C660.536,-55.9894 636.04,-41.2295 618.355,-30.5729"/>
<polygon fill="midnightblue" stroke="midnightblue" points="678.233,-70.7394 688.605,-72.9027 681.846,-64.7437 678.233,-70.7394"/>
</g>
<!-- Node9 -->
<g id="node9" class="node"><title>Node9</title>
<g id="a_node9"><a xlink:href="_widget3_d_emitter_8cpp.html" target="_top" xlink:title="C:/dev/Igor/src/Tools\l/ModelViewer/src/Widget3DEmitter.cpp">
<polygon fill="white" stroke="black" points="698,-0.5 698,-30.5 886,-30.5 886,-0.5 698,-0.5"/>
<text text-anchor="start" x="706" y="-18.5" font-family="Helvetica,sans-Serif" font-size="10.00">C:/dev/Igor/src/Tools</text>
<text text-anchor="middle" x="792" y="-7.5" font-family="Helvetica,sans-Serif" font-size="10.00">/ModelViewer/src/Widget3DEmitter.cpp</text>
</a>
</g>
</g>
<!-- Node7&#45;&gt;Node9 -->
<g id="edge8" class="edge"><title>Node7&#45;&gt;Node9</title>
<path fill="none" stroke="midnightblue" d="M735.871,-65.964C748.875,-54.5043 764.61,-40.637 776.108,-30.5049"/>
<polygon fill="midnightblue" stroke="midnightblue" points="733.378,-63.4958 728.189,-72.7333 738.006,-68.7476 733.378,-63.4958"/>
</g>
</g>
</svg>
