<?xml version="1.0" encoding="UTF-8" standalone="no"?>
<!DOCTYPE svg PUBLIC "-//W3C//DTD SVG 1.1//EN"
 "http://www.w3.org/Graphics/SVG/1.1/DTD/svg11.dtd">
<!-- Generated by graphviz version 2.38.0 (20140413.2041)
 -->
<!-- Title: C:/dev/Igor/Igor/src/Igor/src/iParticleSystem3D.h Pages: 1 -->
<svg width="1121pt" height="375pt"
 viewBox="0.00 0.00 1121.00 375.00" xmlns="http://www.w3.org/2000/svg" xmlns:xlink="http://www.w3.org/1999/xlink">
<g id="graph0" class="graph" transform="scale(1 1) rotate(0) translate(4 371)">
<title>C:/dev/Igor/Igor/src/Igor/src/iParticleSystem3D.h</title>
<polygon fill="white" stroke="none" points="-4,4 -4,-371 1117,-371 1117,4 -4,4"/>
<!-- Node0 -->
<g id="node1" class="node"><title>Node0</title>
<g id="a_node1"><a xlink:title=" ">
<polygon fill="#bfbfbf" stroke="black" points="554.5,-336.5 554.5,-366.5 698.5,-366.5 698.5,-336.5 554.5,-336.5"/>
<text text-anchor="start" x="562.5" y="-354.5" font-family="Helvetica,sans-Serif" font-size="10.00">C:/dev/Igor/Igor/src</text>
<text text-anchor="middle" x="626.5" y="-343.5" font-family="Helvetica,sans-Serif" font-size="10.00">/Igor/src/iParticleSystem3D.h</text>
</a>
</g>
</g>
<!-- Node1 -->
<g id="node2" class="node"><title>Node1</title>
<g id="a_node2"><a xlink:href="ia_gradient_8h.html" target="_top" xlink:title=" ">
<polygon fill="white" stroke="black" points="326,-224.5 326,-243.5 395,-243.5 395,-224.5 326,-224.5"/>
<text text-anchor="middle" x="360.5" y="-231.5" font-family="Helvetica,sans-Serif" font-size="10.00">iaGradient.h</text>
</a>
</g>
</g>
<!-- Node0&#45;&gt;Node1 -->
<g id="edge1" class="edge"><title>Node0&#45;&gt;Node1</title>
<path fill="none" stroke="midnightblue" d="M590.788,-336.423C565.921,-326.507 532.051,-312.774 502.5,-300 462.428,-282.678 416.589,-261.432 388.09,-248.051"/>
<polygon fill="midnightblue" stroke="midnightblue" points="389.309,-244.756 378.77,-243.665 386.328,-251.09 389.309,-244.756"/>
</g>
<!-- Node3 -->
<g id="node4" class="node"><title>Node3</title>
<g id="a_node4"><a xlink:href="ia_color4_8h.html" target="_top" xlink:title=" ">
<polygon fill="white" stroke="black" points="73.5,-168.5 73.5,-187.5 133.5,-187.5 133.5,-168.5 73.5,-168.5"/>
<text text-anchor="middle" x="103.5" y="-175.5" font-family="Helvetica,sans-Serif" font-size="10.00">iaColor4.h</text>
</a>
</g>
</g>
<!-- Node0&#45;&gt;Node3 -->
<g id="edge53" class="edge"><title>Node0&#45;&gt;Node3</title>
<path fill="none" stroke="midnightblue" d="M576.937,-336.486C542.705,-326.655 496.193,-312.996 455.5,-300 337.711,-262.382 199.348,-213.399 136.974,-191.056"/>
<polygon fill="midnightblue" stroke="midnightblue" points="137.875,-187.661 127.281,-187.579 135.512,-194.25 137.875,-187.661"/>
</g>
<!-- Node5 -->
<g id="node6" class="node"><title>Node5</title>
<g id="a_node6"><a xlink:href="ia_vector3_8h.html" target="_top" xlink:title=" ">
<polygon fill="white" stroke="black" points="888.5,-56.5 888.5,-75.5 954.5,-75.5 954.5,-56.5 888.5,-56.5"/>
<text text-anchor="middle" x="921.5" y="-63.5" font-family="Helvetica,sans-Serif" font-size="10.00">iaVector3.h</text>
</a>
</g>
</g>
<!-- Node0&#45;&gt;Node5 -->
<g id="edge51" class="edge"><title>Node0&#45;&gt;Node5</title>
<path fill="none" stroke="midnightblue" d="M698.866,-338.169C789.629,-320.607 933.5,-284.899 933.5,-235 933.5,-235 933.5,-235 933.5,-177 933.5,-144.758 928.342,-107.512 924.789,-85.6812"/>
<polygon fill="midnightblue" stroke="midnightblue" points="928.19,-84.7982 923.069,-75.5232 921.288,-85.9673 928.19,-84.7982"/>
</g>
<!-- Node9 -->
<g id="node10" class="node"><title>Node9</title>
<g id="a_node10"><a xlink:href="ia_vector2_8h.html" target="_top" xlink:title=" ">
<polygon fill="white" stroke="black" points="515.5,-56.5 515.5,-75.5 581.5,-75.5 581.5,-56.5 515.5,-56.5"/>
<text text-anchor="middle" x="548.5" y="-63.5" font-family="Helvetica,sans-Serif" font-size="10.00">iaVector2.h</text>
</a>
</g>
</g>
<!-- Node0&#45;&gt;Node9 -->
<g id="edge52" class="edge"><title>Node0&#45;&gt;Node9</title>
<path fill="none" stroke="midnightblue" d="M623.29,-336.401C614.753,-299.343 590.374,-196.248 564.5,-112 561.758,-103.072 558.331,-93.2884 555.353,-85.1308"/>
<polygon fill="midnightblue" stroke="midnightblue" points="558.558,-83.7058 551.792,-75.5523 551.996,-86.1451 558.558,-83.7058"/>
</g>
<!-- Node20 -->
<g id="node21" class="node"><title>Node20</title>
<g id="a_node21"><a xlink:href="i_sphere_8h.html" target="_top" xlink:title=" ">
<polygon fill="white" stroke="black" points="511.5,-280.5 511.5,-299.5 569.5,-299.5 569.5,-280.5 511.5,-280.5"/>
<text text-anchor="middle" x="540.5" y="-287.5" font-family="Helvetica,sans-Serif" font-size="10.00">iSphere.h</text>
</a>
</g>
</g>
<!-- Node0&#45;&gt;Node20 -->
<g id="edge28" class="edge"><title>Node0&#45;&gt;Node20</title>
<path fill="none" stroke="midnightblue" d="M606.119,-336.399C592.592,-327.04 574.889,-314.792 561.28,-305.377"/>
<polygon fill="midnightblue" stroke="midnightblue" points="563.229,-302.469 553.014,-299.658 559.246,-308.226 563.229,-302.469"/>
</g>
<!-- Node25 -->
<g id="node26" class="node"><title>Node25</title>
<g id="a_node26"><a xlink:href="ia_matrix_8h.html" target="_top" xlink:title=" ">
<polygon fill="white" stroke="black" points="639,-168.5 639,-187.5 698,-187.5 698,-168.5 639,-168.5"/>
<text text-anchor="middle" x="668.5" y="-175.5" font-family="Helvetica,sans-Serif" font-size="10.00">iaMatrix.h</text>
</a>
</g>
</g>
<!-- Node0&#45;&gt;Node25 -->
<g id="edge54" class="edge"><title>Node0&#45;&gt;Node25</title>
<path fill="none" stroke="midnightblue" d="M629.937,-336.465C637.471,-305.704 655.44,-232.329 663.92,-197.7"/>
<polygon fill="midnightblue" stroke="midnightblue" points="667.425,-198.105 666.404,-187.56 660.625,-196.44 667.425,-198.105"/>
</g>
<!-- Node31 -->
<g id="node32" class="node"><title>Node31</title>
<g id="a_node32"><a xlink:href="i_a_a_box_8h.html" target="_top" xlink:title=" ">
<polygon fill="white" stroke="black" points="961.5,-112.5 961.5,-131.5 1019.5,-131.5 1019.5,-112.5 961.5,-112.5"/>
<text text-anchor="middle" x="990.5" y="-119.5" font-family="Helvetica,sans-Serif" font-size="10.00">iAABox.h</text>
</a>
</g>
</g>
<!-- Node0&#45;&gt;Node31 -->
<g id="edge47" class="edge"><title>Node0&#45;&gt;Node31</title>
<path fill="none" stroke="midnightblue" d="M698.529,-348.248C781.864,-344.129 912.175,-332.532 947.5,-300 992.628,-258.44 994.053,-178.219 992.096,-141.802"/>
<polygon fill="midnightblue" stroke="midnightblue" points="995.574,-141.357 991.393,-131.622 988.59,-141.839 995.574,-141.357"/>
</g>
<!-- Node33 -->
<g id="node34" class="node"><title>Node33</title>
<g id="a_node34"><a xlink:href="ia_random_number_generator_8h.html" target="_top" xlink:title=" ">
<polygon fill="white" stroke="black" points="0,-224.5 0,-243.5 145,-243.5 145,-224.5 0,-224.5"/>
<text text-anchor="middle" x="72.5" y="-231.5" font-family="Helvetica,sans-Serif" font-size="10.00">iaRandomNumberGenerator.h</text>
</a>
</g>
</g>
<!-- Node0&#45;&gt;Node33 -->
<g id="edge55" class="edge"><title>Node0&#45;&gt;Node33</title>
<path fill="none" stroke="midnightblue" d="M554.233,-347.001C474.006,-341.805 341.222,-329.284 230.5,-300 182.114,-287.203 128.87,-263.036 98.1929,-248.048"/>
<polygon fill="midnightblue" stroke="midnightblue" points="99.5758,-244.827 89.0607,-243.53 96.4719,-251.101 99.5758,-244.827"/>
</g>
<!-- Node34 -->
<g id="node35" class="node"><title>Node34</title>
<g id="a_node35"><a xlink:title=" ">
<polygon fill="white" stroke="#bfbfbf" points="999.5,-280.5 999.5,-299.5 1051.5,-299.5 1051.5,-280.5 999.5,-280.5"/>
<text text-anchor="middle" x="1025.5" y="-287.5" font-family="Helvetica,sans-Serif" font-size="10.00">memory</text>
</a>
</g>
</g>
<!-- Node0&#45;&gt;Node34 -->
<g id="edge57" class="edge"><title>Node0&#45;&gt;Node34</title>
<path fill="none" stroke="midnightblue" d="M698.637,-342.108C771.326,-333.24 886.587,-318.054 985.5,-300 986.76,-299.77 988.041,-299.528 989.334,-299.276"/>
<polygon fill="midnightblue" stroke="midnightblue" points="990.228,-302.665 999.313,-297.213 988.811,-295.81 990.228,-302.665"/>
</g>
<!-- Node35 -->
<g id="node36" class="node"><title>Node35</title>
<g id="a_node36"><a xlink:title=" ">
<polygon fill="white" stroke="#bfbfbf" points="1070,-280.5 1070,-299.5 1113,-299.5 1113,-280.5 1070,-280.5"/>
<text text-anchor="middle" x="1091.5" y="-287.5" font-family="Helvetica,sans-Serif" font-size="10.00">queue</text>
</a>
</g>
</g>
<!-- Node0&#45;&gt;Node35 -->
<g id="edge58" class="edge"><title>Node0&#45;&gt;Node35</title>
<path fill="none" stroke="midnightblue" d="M698.881,-345.785C783.394,-339.45 927.408,-326.079 1060,-299.76"/>
<polygon fill="midnightblue" stroke="midnightblue" points="1060.82,-303.165 1069.93,-297.759 1059.44,-296.303 1060.82,-303.165"/>
</g>
<!-- Node2 -->
<g id="node3" class="node"><title>Node2</title>
<g id="a_node3"><a xlink:href="ia_defines_8h.html" target="_top" xlink:title=" ">
<polygon fill="white" stroke="black" points="276,-0.5 276,-19.5 341,-19.5 341,-0.5 276,-0.5"/>
<text text-anchor="middle" x="308.5" y="-7.5" font-family="Helvetica,sans-Serif" font-size="10.00">iaDefines.h</text>
</a>
</g>
</g>
<!-- Node1&#45;&gt;Node2 -->
<g id="edge2" class="edge"><title>Node1&#45;&gt;Node2</title>
<path fill="none" stroke="midnightblue" d="M325.863,-229.355C278.725,-223.598 198.192,-210.66 180.5,-188 153.699,-153.673 121.327,-170.486 222.5,-56 235.466,-41.328 254.379,-30.7043 271.169,-23.4765"/>
<polygon fill="midnightblue" stroke="midnightblue" points="272.787,-26.598 280.749,-19.6084 270.166,-20.1072 272.787,-26.598"/>
</g>
<!-- Node1&#45;&gt;Node3 -->
<g id="edge3" class="edge"><title>Node1&#45;&gt;Node3</title>
<path fill="none" stroke="midnightblue" d="M325.84,-225.717C278.413,-215.752 193.487,-197.908 143.445,-187.393"/>
<polygon fill="midnightblue" stroke="midnightblue" points="144.128,-183.96 133.622,-185.329 142.689,-190.811 144.128,-183.96"/>
</g>
<!-- Node1&#45;&gt;Node5 -->
<g id="edge6" class="edge"><title>Node1&#45;&gt;Node5</title>
<path fill="none" stroke="midnightblue" d="M395.131,-229.815C470.725,-222.648 648.396,-204.581 706.5,-188 727.156,-182.105 730.34,-175.415 750.5,-168 805.161,-147.895 829.159,-165.924 876.5,-132 893.36,-119.918 905.996,-99.4489 913.52,-84.7054"/>
<polygon fill="midnightblue" stroke="midnightblue" points="916.725,-86.116 917.901,-75.5866 910.416,-83.0847 916.725,-86.116"/>
</g>
<!-- Node1&#45;&gt;Node9 -->
<g id="edge11" class="edge"><title>Node1&#45;&gt;Node9</title>
<path fill="none" stroke="midnightblue" d="M374.292,-224.411C392.822,-211.804 421.765,-187.652 406.5,-168 365.137,-114.749 221.725,-163.286 265.5,-112 280.866,-93.9979 429.767,-77.8937 505.184,-70.8134"/>
<polygon fill="midnightblue" stroke="midnightblue" points="505.682,-74.2823 515.316,-69.8749 505.036,-67.3122 505.682,-74.2823"/>
</g>
<!-- Node11 -->
<g id="node12" class="node"><title>Node11</title>
<g id="a_node12"><a xlink:href="ia_console_8h.html" target="_top" xlink:title=" ">
<polygon fill="white" stroke="black" points="453.5,-168.5 453.5,-187.5 521.5,-187.5 521.5,-168.5 453.5,-168.5"/>
<text text-anchor="middle" x="487.5" y="-175.5" font-family="Helvetica,sans-Serif" font-size="10.00">iaConsole.h</text>
</a>
</g>
</g>
<!-- Node1&#45;&gt;Node11 -->
<g id="edge16" class="edge"><title>Node1&#45;&gt;Node11</title>
<path fill="none" stroke="midnightblue" d="M380.624,-224.444C401.524,-215.557 434.435,-201.563 458.216,-191.451"/>
<polygon fill="midnightblue" stroke="midnightblue" points="459.638,-194.65 467.471,-187.516 456.898,-188.208 459.638,-194.65"/>
</g>
<!-- Node17 -->
<g id="node18" class="node"><title>Node17</title>
<g id="a_node18"><a xlink:title=" ">
<polygon fill="white" stroke="#bfbfbf" points="189.5,-168.5 189.5,-187.5 231.5,-187.5 231.5,-168.5 189.5,-168.5"/>
<text text-anchor="middle" x="210.5" y="-175.5" font-family="Helvetica,sans-Serif" font-size="10.00">vector</text>
</a>
</g>
</g>
<!-- Node1&#45;&gt;Node17 -->
<g id="edge25" class="edge"><title>Node1&#45;&gt;Node17</title>
<path fill="none" stroke="midnightblue" d="M336.732,-224.444C310.868,-215.133 269.434,-200.216 241.143,-190.032"/>
<polygon fill="midnightblue" stroke="midnightblue" points="242.326,-186.737 231.731,-186.643 239.955,-193.324 242.326,-186.737"/>
</g>
<!-- Node18 -->
<g id="node19" class="node"><title>Node18</title>
<g id="a_node19"><a xlink:title=" ">
<polygon fill="white" stroke="#bfbfbf" points="249.5,-168.5 249.5,-187.5 305.5,-187.5 305.5,-168.5 249.5,-168.5"/>
<text text-anchor="middle" x="277.5" y="-175.5" font-family="Helvetica,sans-Serif" font-size="10.00">algorithm</text>
</a>
</g>
</g>
<!-- Node1&#45;&gt;Node18 -->
<g id="edge26" class="edge"><title>Node1&#45;&gt;Node18</title>
<path fill="none" stroke="midnightblue" d="M347.165,-224.324C334.338,-215.979 314.715,-203.212 299.56,-193.352"/>
<polygon fill="midnightblue" stroke="midnightblue" points="301.093,-190.174 290.802,-187.655 297.276,-196.042 301.093,-190.174"/>
</g>
<!-- Node19 -->
<g id="node20" class="node"><title>Node19</title>
<g id="a_node20"><a xlink:href="ia_gradient_8inl.html" target="_top" xlink:title=" ">
<polygon fill="white" stroke="black" points="323.5,-168.5 323.5,-187.5 397.5,-187.5 397.5,-168.5 323.5,-168.5"/>
<text text-anchor="middle" x="360.5" y="-175.5" font-family="Helvetica,sans-Serif" font-size="10.00">iaGradient.inl</text>
</a>
</g>
</g>
<!-- Node1&#45;&gt;Node19 -->
<g id="edge27" class="edge"><title>Node1&#45;&gt;Node19</title>
<path fill="none" stroke="midnightblue" d="M360.5,-224.083C360.5,-217.006 360.5,-206.861 360.5,-197.986"/>
<polygon fill="midnightblue" stroke="midnightblue" points="364,-197.751 360.5,-187.751 357,-197.751 364,-197.751"/>
</g>
<!-- Node3&#45;&gt;Node2 -->
<g id="edge4" class="edge"><title>Node3&#45;&gt;Node2</title>
<path fill="none" stroke="midnightblue" d="M104.041,-168.215C105.892,-146 113.887,-87.1437 147.5,-56 179.665,-26.1979 229.942,-15.8989 265.749,-12.4628"/>
<polygon fill="midnightblue" stroke="midnightblue" points="266.216,-15.9364 275.898,-11.6337 265.646,-8.95962 266.216,-15.9364"/>
</g>
<!-- Node4 -->
<g id="node5" class="node"><title>Node4</title>
<g id="a_node5"><a xlink:title=" ">
<polygon fill="white" stroke="#bfbfbf" points="275,-112.5 275,-131.5 324,-131.5 324,-112.5 275,-112.5"/>
<text text-anchor="middle" x="299.5" y="-119.5" font-family="Helvetica,sans-Serif" font-size="10.00">fstream</text>
</a>
</g>
</g>
<!-- Node3&#45;&gt;Node4 -->
<g id="edge5" class="edge"><title>Node3&#45;&gt;Node4</title>
<path fill="none" stroke="midnightblue" d="M133.695,-168.681C169.129,-158.919 227.759,-142.765 264.967,-132.514"/>
<polygon fill="midnightblue" stroke="midnightblue" points="266.146,-135.82 274.857,-129.789 264.287,-129.071 266.146,-135.82"/>
</g>
<!-- Node5&#45;&gt;Node2 -->
<g id="edge7" class="edge"><title>Node5&#45;&gt;Node2</title>
<path fill="none" stroke="midnightblue" d="M888.24,-57.6013C884.959,-57.0031 881.671,-56.4551 878.5,-56 776.545,-41.3667 465.326,-20.8873 351.112,-13.6557"/>
<polygon fill="midnightblue" stroke="midnightblue" points="351.204,-10.1547 341.003,-13.0178 350.763,-17.1408 351.204,-10.1547"/>
</g>
<!-- Node6 -->
<g id="node7" class="node"><title>Node6</title>
<g id="a_node7"><a xlink:title=" ">
<polygon fill="white" stroke="#bfbfbf" points="861.5,-0.5 861.5,-19.5 905.5,-19.5 905.5,-0.5 861.5,-0.5"/>
<text text-anchor="middle" x="883.5" y="-7.5" font-family="Helvetica,sans-Serif" font-size="10.00">cmath</text>
</a>
</g>
</g>
<!-- Node5&#45;&gt;Node6 -->
<g id="edge8" class="edge"><title>Node5&#45;&gt;Node6</title>
<path fill="none" stroke="midnightblue" d="M915.225,-56.083C909.858,-48.4554 901.982,-37.2645 895.421,-27.9408"/>
<polygon fill="midnightblue" stroke="midnightblue" points="898.275,-25.9149 889.658,-19.7511 892.551,-29.9434 898.275,-25.9149"/>
</g>
<!-- Node7 -->
<g id="node8" class="node"><title>Node7</title>
<g id="a_node8"><a xlink:title=" ">
<polygon fill="white" stroke="#bfbfbf" points="597.5,-0.5 597.5,-19.5 649.5,-19.5 649.5,-0.5 597.5,-0.5"/>
<text text-anchor="middle" x="623.5" y="-7.5" font-family="Helvetica,sans-Serif" font-size="10.00">ostream</text>
</a>
</g>
</g>
<!-- Node5&#45;&gt;Node7 -->
<g id="edge9" class="edge"><title>Node5&#45;&gt;Node7</title>
<path fill="none" stroke="midnightblue" d="M888.186,-57.9188C884.916,-57.2563 881.645,-56.6065 878.5,-56 800.612,-40.9804 708.95,-25.2872 659.504,-16.9844"/>
<polygon fill="midnightblue" stroke="midnightblue" points="660.055,-13.5279 649.614,-15.3277 658.898,-20.4317 660.055,-13.5279"/>
</g>
<!-- Node8 -->
<g id="node9" class="node"><title>Node8</title>
<g id="a_node9"><a xlink:href="ia_vector3_8inl.html" target="_top" xlink:title=" ">
<polygon fill="white" stroke="black" points="924,-0.5 924,-19.5 995,-19.5 995,-0.5 924,-0.5"/>
<text text-anchor="middle" x="959.5" y="-7.5" font-family="Helvetica,sans-Serif" font-size="10.00">iaVector3.inl</text>
</a>
</g>
</g>
<!-- Node5&#45;&gt;Node8 -->
<g id="edge10" class="edge"><title>Node5&#45;&gt;Node8</title>
<path fill="none" stroke="midnightblue" d="M927.775,-56.083C933.142,-48.4554 941.018,-37.2645 947.579,-27.9408"/>
<polygon fill="midnightblue" stroke="midnightblue" points="950.449,-29.9434 953.342,-19.7511 944.725,-25.9149 950.449,-29.9434"/>
</g>
<!-- Node9&#45;&gt;Node2 -->
<g id="edge12" class="edge"><title>Node9&#45;&gt;Node2</title>
<path fill="none" stroke="midnightblue" d="M515.381,-57.5482C472.612,-47.9253 398.109,-31.162 351.148,-20.5958"/>
<polygon fill="midnightblue" stroke="midnightblue" points="351.804,-17.1559 341.279,-18.3753 350.267,-23.9851 351.804,-17.1559"/>
</g>
<!-- Node9&#45;&gt;Node6 -->
<g id="edge13" class="edge"><title>Node9&#45;&gt;Node6</title>
<path fill="none" stroke="midnightblue" d="M581.538,-59.6745C645.96,-49.29 787.619,-26.4554 851.336,-16.1847"/>
<polygon fill="midnightblue" stroke="midnightblue" points="851.91,-19.6374 861.226,-14.5905 850.796,-12.7266 851.91,-19.6374"/>
</g>
<!-- Node9&#45;&gt;Node7 -->
<g id="edge14" class="edge"><title>Node9&#45;&gt;Node7</title>
<path fill="none" stroke="midnightblue" d="M560.55,-56.324C571.963,-48.1066 589.331,-35.6017 602.935,-25.8069"/>
<polygon fill="midnightblue" stroke="midnightblue" points="605.16,-28.5174 611.231,-19.8339 601.07,-22.8366 605.16,-28.5174"/>
</g>
<!-- Node10 -->
<g id="node11" class="node"><title>Node10</title>
<g id="a_node11"><a xlink:href="ia_vector2_8inl.html" target="_top" xlink:title=" ">
<polygon fill="white" stroke="black" points="508,-0.5 508,-19.5 579,-19.5 579,-0.5 508,-0.5"/>
<text text-anchor="middle" x="543.5" y="-7.5" font-family="Helvetica,sans-Serif" font-size="10.00">iaVector2.inl</text>
</a>
</g>
</g>
<!-- Node9&#45;&gt;Node10 -->
<g id="edge15" class="edge"><title>Node9&#45;&gt;Node10</title>
<path fill="none" stroke="midnightblue" d="M547.674,-56.083C547.019,-49.0059 546.08,-38.8611 545.258,-29.9865"/>
<polygon fill="midnightblue" stroke="midnightblue" points="548.717,-29.3858 544.31,-19.7511 541.747,-30.0312 548.717,-29.3858"/>
</g>
<!-- Node11&#45;&gt;Node4 -->
<g id="edge22" class="edge"><title>Node11&#45;&gt;Node4</title>
<path fill="none" stroke="midnightblue" d="M457.711,-168.444C424.069,-158.78 369.408,-143.08 333.956,-132.897"/>
<polygon fill="midnightblue" stroke="midnightblue" points="334.635,-129.451 324.057,-130.054 332.702,-136.178 334.635,-129.451"/>
</g>
<!-- Node12 -->
<g id="node13" class="node"><title>Node12</title>
<g id="a_node13"><a xlink:href="ia_singleton_8h.html" target="_top" xlink:title=" ">
<polygon fill="white" stroke="black" points="342,-112.5 342,-131.5 415,-131.5 415,-112.5 342,-112.5"/>
<text text-anchor="middle" x="378.5" y="-119.5" font-family="Helvetica,sans-Serif" font-size="10.00">iaSingleton.h</text>
</a>
</g>
</g>
<!-- Node11&#45;&gt;Node12 -->
<g id="edge17" class="edge"><title>Node11&#45;&gt;Node12</title>
<path fill="none" stroke="midnightblue" d="M469.987,-168.324C452.428,-159.625 425.169,-146.12 404.969,-136.113"/>
<polygon fill="midnightblue" stroke="midnightblue" points="406.484,-132.958 395.969,-131.655 403.376,-139.23 406.484,-132.958"/>
</g>
<!-- Node14 -->
<g id="node15" class="node"><title>Node14</title>
<g id="a_node15"><a xlink:href="ia_clock_8h.html" target="_top" xlink:title=" ">
<polygon fill="white" stroke="black" points="232,-56.5 232,-75.5 289,-75.5 289,-56.5 232,-56.5"/>
<text text-anchor="middle" x="260.5" y="-63.5" font-family="Helvetica,sans-Serif" font-size="10.00">iaClock.h</text>
</a>
</g>
</g>
<!-- Node11&#45;&gt;Node14 -->
<g id="edge20" class="edge"><title>Node11&#45;&gt;Node14</title>
<path fill="none" stroke="midnightblue" d="M453.308,-172.36C394.165,-164.005 277.87,-145.997 265.5,-132 254.618,-119.687 254.471,-100.433 256.383,-86.0722"/>
<polygon fill="midnightblue" stroke="midnightblue" points="259.899,-86.286 258.191,-75.8297 253.006,-85.0686 259.899,-86.286"/>
</g>
<!-- Node15 -->
<g id="node16" class="node"><title>Node15</title>
<g id="a_node16"><a xlink:title=" ">
<polygon fill="white" stroke="#bfbfbf" points="433.5,-112.5 433.5,-131.5 487.5,-131.5 487.5,-112.5 433.5,-112.5"/>
<text text-anchor="middle" x="460.5" y="-119.5" font-family="Helvetica,sans-Serif" font-size="10.00">iostream</text>
</a>
</g>
</g>
<!-- Node11&#45;&gt;Node15 -->
<g id="edge23" class="edge"><title>Node11&#45;&gt;Node15</title>
<path fill="none" stroke="midnightblue" d="M483.041,-168.083C479.346,-160.691 473.977,-149.953 469.406,-140.811"/>
<polygon fill="midnightblue" stroke="midnightblue" points="472.478,-139.13 464.876,-131.751 466.217,-142.261 472.478,-139.13"/>
</g>
<!-- Node16 -->
<g id="node17" class="node"><title>Node16</title>
<g id="a_node17"><a xlink:title=" ">
<polygon fill="white" stroke="#bfbfbf" points="505.5,-112.5 505.5,-131.5 555.5,-131.5 555.5,-112.5 505.5,-112.5"/>
<text text-anchor="middle" x="530.5" y="-119.5" font-family="Helvetica,sans-Serif" font-size="10.00">iomanip</text>
</a>
</g>
</g>
<!-- Node11&#45;&gt;Node16 -->
<g id="edge24" class="edge"><title>Node11&#45;&gt;Node16</title>
<path fill="none" stroke="midnightblue" d="M494.601,-168.083C500.737,-160.377 509.77,-149.033 517.239,-139.653"/>
<polygon fill="midnightblue" stroke="midnightblue" points="520.04,-141.754 523.532,-131.751 514.564,-137.394 520.04,-141.754"/>
</g>
<!-- Node13 -->
<g id="node14" class="node"><title>Node13</title>
<g id="a_node14"><a xlink:href="ia_mutex_8h.html" target="_top" xlink:title=" ">
<polygon fill="white" stroke="black" points="328,-56.5 328,-75.5 387,-75.5 387,-56.5 328,-56.5"/>
<text text-anchor="middle" x="357.5" y="-63.5" font-family="Helvetica,sans-Serif" font-size="10.00">iaMutex.h</text>
</a>
</g>
</g>
<!-- Node12&#45;&gt;Node13 -->
<g id="edge18" class="edge"><title>Node12&#45;&gt;Node13</title>
<path fill="none" stroke="midnightblue" d="M375.032,-112.083C372.188,-104.77 368.071,-94.1814 364.54,-85.1034"/>
<polygon fill="midnightblue" stroke="midnightblue" points="367.79,-83.8025 360.903,-75.7511 361.266,-86.3397 367.79,-83.8025"/>
</g>
<!-- Node13&#45;&gt;Node2 -->
<g id="edge19" class="edge"><title>Node13&#45;&gt;Node2</title>
<path fill="none" stroke="midnightblue" d="M349.409,-56.083C342.345,-48.2982 331.912,-36.8015 323.351,-27.3665"/>
<polygon fill="midnightblue" stroke="midnightblue" points="325.753,-24.8047 316.441,-19.7511 320.569,-29.5087 325.753,-24.8047"/>
</g>
<!-- Node14&#45;&gt;Node2 -->
<g id="edge21" class="edge"><title>Node14&#45;&gt;Node2</title>
<path fill="none" stroke="midnightblue" d="M268.426,-56.083C275.346,-48.2982 285.565,-36.8015 293.952,-27.3665"/>
<polygon fill="midnightblue" stroke="midnightblue" points="296.694,-29.5505 300.721,-19.7511 291.462,-24.8999 296.694,-29.5505"/>
</g>
<!-- Node20&#45;&gt;Node11 -->
<g id="edge45" class="edge"><title>Node20&#45;&gt;Node11</title>
<path fill="none" stroke="midnightblue" d="M529.607,-280.204C520.104,-271.902 506.737,-258.579 499.5,-244 492.325,-229.545 489.412,-211.357 488.243,-197.899"/>
<polygon fill="midnightblue" stroke="midnightblue" points="491.735,-197.655 487.617,-187.893 484.749,-198.092 491.735,-197.655"/>
</g>
<!-- Node21 -->
<g id="node22" class="node"><title>Node21</title>
<g id="a_node22"><a xlink:href="i_frustum_8h.html" target="_top" xlink:title=" ">
<polygon fill="white" stroke="black" points="723,-224.5 723,-243.5 786,-243.5 786,-224.5 723,-224.5"/>
<text text-anchor="middle" x="754.5" y="-231.5" font-family="Helvetica,sans-Serif" font-size="10.00">iFrustum.h</text>
</a>
</g>
</g>
<!-- Node20&#45;&gt;Node21 -->
<g id="edge29" class="edge"><title>Node20&#45;&gt;Node21</title>
<path fill="none" stroke="midnightblue" d="M569.807,-281.605C606.82,-272.265 670.744,-256.135 712.827,-245.516"/>
<polygon fill="midnightblue" stroke="midnightblue" points="713.924,-248.849 722.763,-243.008 712.211,-242.061 713.924,-248.849"/>
</g>
<!-- Node30 -->
<g id="node31" class="node"><title>Node30</title>
<g id="a_node31"><a xlink:href="i_sphere_8inl.html" target="_top" xlink:title=" ">
<polygon fill="white" stroke="black" points="508.5,-224.5 508.5,-243.5 570.5,-243.5 570.5,-224.5 508.5,-224.5"/>
<text text-anchor="middle" x="539.5" y="-231.5" font-family="Helvetica,sans-Serif" font-size="10.00">iSphere.inl</text>
</a>
</g>
</g>
<!-- Node20&#45;&gt;Node30 -->
<g id="edge46" class="edge"><title>Node20&#45;&gt;Node30</title>
<path fill="none" stroke="midnightblue" d="M540.335,-280.083C540.204,-273.006 540.016,-262.861 539.852,-253.986"/>
<polygon fill="midnightblue" stroke="midnightblue" points="543.347,-253.685 539.662,-243.751 536.348,-253.814 543.347,-253.685"/>
</g>
<!-- Node22 -->
<g id="node23" class="node"><title>Node22</title>
<g id="a_node23"><a xlink:href="i_plane_8h.html" target="_top" xlink:title=" ">
<polygon fill="white" stroke="black" points="815.5,-112.5 815.5,-131.5 867.5,-131.5 867.5,-112.5 815.5,-112.5"/>
<text text-anchor="middle" x="841.5" y="-119.5" font-family="Helvetica,sans-Serif" font-size="10.00">iPlane.h</text>
</a>
</g>
</g>
<!-- Node21&#45;&gt;Node22 -->
<g id="edge30" class="edge"><title>Node21&#45;&gt;Node22</title>
<path fill="none" stroke="midnightblue" d="M784.992,-224.388C803.118,-217.587 824.794,-206.15 836.5,-188 845.223,-174.476 845.798,-155.923 844.586,-142.1"/>
<polygon fill="midnightblue" stroke="midnightblue" points="848.013,-141.297 843.287,-131.814 841.068,-142.174 848.013,-141.297"/>
</g>
<!-- Node21&#45;&gt;Node25 -->
<g id="edge35" class="edge"><title>Node21&#45;&gt;Node25</title>
<path fill="none" stroke="midnightblue" d="M740.683,-224.324C727.267,-215.9 706.676,-202.971 690.914,-193.074"/>
<polygon fill="midnightblue" stroke="midnightblue" points="692.613,-190.008 682.283,-187.655 688.891,-195.936 692.613,-190.008"/>
</g>
<!-- Node29 -->
<g id="node30" class="node"><title>Node29</title>
<g id="a_node30"><a xlink:href="i_frustum_8inl.html" target="_top" xlink:title=" ">
<polygon fill="white" stroke="black" points="759.5,-168.5 759.5,-187.5 827.5,-187.5 827.5,-168.5 759.5,-168.5"/>
<text text-anchor="middle" x="793.5" y="-175.5" font-family="Helvetica,sans-Serif" font-size="10.00">iFrustum.inl</text>
</a>
</g>
</g>
<!-- Node21&#45;&gt;Node29 -->
<g id="edge44" class="edge"><title>Node21&#45;&gt;Node29</title>
<path fill="none" stroke="midnightblue" d="M760.94,-224.083C766.449,-216.455 774.531,-205.264 781.265,-195.941"/>
<polygon fill="midnightblue" stroke="midnightblue" points="784.162,-197.907 787.18,-187.751 778.487,-193.809 784.162,-197.907"/>
</g>
<!-- Node22&#45;&gt;Node5 -->
<g id="edge33" class="edge"><title>Node22&#45;&gt;Node5</title>
<path fill="none" stroke="midnightblue" d="M854.353,-112.324C866.716,-103.979 885.63,-91.2122 900.237,-81.3524"/>
<polygon fill="midnightblue" stroke="midnightblue" points="902.348,-84.1503 908.679,-75.6545 898.432,-78.3483 902.348,-84.1503"/>
</g>
<!-- Node23 -->
<g id="node24" class="node"><title>Node23</title>
<g id="a_node24"><a xlink:href="i_defines_8h.html" target="_top" xlink:title=" ">
<polygon fill="white" stroke="black" points="811,-56.5 811,-75.5 870,-75.5 870,-56.5 811,-56.5"/>
<text text-anchor="middle" x="840.5" y="-63.5" font-family="Helvetica,sans-Serif" font-size="10.00">iDefines.h</text>
</a>
</g>
</g>
<!-- Node22&#45;&gt;Node23 -->
<g id="edge31" class="edge"><title>Node22&#45;&gt;Node23</title>
<path fill="none" stroke="midnightblue" d="M841.335,-112.083C841.204,-105.006 841.016,-94.8611 840.852,-85.9865"/>
<polygon fill="midnightblue" stroke="midnightblue" points="844.347,-85.6845 840.662,-75.7511 837.348,-85.8142 844.347,-85.6845"/>
</g>
<!-- Node24 -->
<g id="node25" class="node"><title>Node24</title>
<g id="a_node25"><a xlink:href="i_plane_8inl.html" target="_top" xlink:title=" ">
<polygon fill="white" stroke="black" points="736.5,-56.5 736.5,-75.5 792.5,-75.5 792.5,-56.5 736.5,-56.5"/>
<text text-anchor="middle" x="764.5" y="-63.5" font-family="Helvetica,sans-Serif" font-size="10.00">iPlane.inl</text>
</a>
</g>
</g>
<!-- Node22&#45;&gt;Node24 -->
<g id="edge34" class="edge"><title>Node22&#45;&gt;Node24</title>
<path fill="none" stroke="midnightblue" d="M829.129,-112.324C817.342,-104.058 799.368,-91.4527 785.364,-81.6322"/>
<polygon fill="midnightblue" stroke="midnightblue" points="787.038,-78.5307 776.841,-75.6545 783.018,-84.2619 787.038,-78.5307"/>
</g>
<!-- Node23&#45;&gt;Node2 -->
<g id="edge32" class="edge"><title>Node23&#45;&gt;Node2</title>
<path fill="none" stroke="midnightblue" d="M810.771,-57.7016C807.652,-57.0672 804.519,-56.4838 801.5,-56 636.329,-29.5291 437.343,-17.2976 351.433,-12.9545"/>
<polygon fill="midnightblue" stroke="midnightblue" points="351.446,-9.45094 341.285,-12.4518 351.099,-16.4424 351.446,-9.45094"/>
</g>
<!-- Node25&#45;&gt;Node4 -->
<g id="edge39" class="edge"><title>Node25&#45;&gt;Node4</title>
<path fill="none" stroke="midnightblue" d="M638.614,-174.346C581.275,-168.965 451.748,-155.417 334.168,-132.126"/>
<polygon fill="midnightblue" stroke="midnightblue" points="334.775,-128.678 324.282,-130.139 333.396,-135.541 334.775,-128.678"/>
</g>
<!-- Node25&#45;&gt;Node6 -->
<g id="edge40" class="edge"><title>Node25&#45;&gt;Node6</title>
<path fill="none" stroke="midnightblue" d="M698.285,-173.723C783.444,-164.297 1022.26,-137.437 1028.5,-132 1054.46,-109.383 1064.29,-83.4438 1043.5,-56 1043.5,-56 962.095,-33.105 915.416,-19.9764"/>
<polygon fill="midnightblue" stroke="midnightblue" points="916.321,-16.5953 905.747,-17.2571 914.426,-23.3339 916.321,-16.5953"/>
</g>
<!-- Node25&#45;&gt;Node7 -->
<g id="edge41" class="edge"><title>Node25&#45;&gt;Node7</title>
<path fill="none" stroke="midnightblue" d="M661.512,-168.274C654.963,-159.605 645.459,-145.666 640.5,-132 627.939,-97.3837 624.596,-54.0758 623.746,-29.7811"/>
<polygon fill="midnightblue" stroke="midnightblue" points="627.238,-29.4165 623.499,-19.5034 620.24,-29.5846 627.238,-29.4165"/>
</g>
<!-- Node25&#45;&gt;Node16 -->
<g id="edge42" class="edge"><title>Node25&#45;&gt;Node16</title>
<path fill="none" stroke="midnightblue" d="M646.633,-168.444C623.721,-159.478 587.525,-145.314 561.634,-135.183"/>
<polygon fill="midnightblue" stroke="midnightblue" points="562.852,-131.901 552.264,-131.516 560.301,-138.42 562.852,-131.901"/>
</g>
<!-- Node26 -->
<g id="node27" class="node"><title>Node26</title>
<g id="a_node27"><a xlink:href="ia_vector4_8h.html" target="_top" xlink:title=" ">
<polygon fill="white" stroke="black" points="649.5,-112.5 649.5,-131.5 715.5,-131.5 715.5,-112.5 649.5,-112.5"/>
<text text-anchor="middle" x="682.5" y="-119.5" font-family="Helvetica,sans-Serif" font-size="10.00">iaVector4.h</text>
</a>
</g>
</g>
<!-- Node25&#45;&gt;Node26 -->
<g id="edge36" class="edge"><title>Node25&#45;&gt;Node26</title>
<path fill="none" stroke="midnightblue" d="M670.812,-168.083C672.667,-160.927 675.335,-150.635 677.654,-141.691"/>
<polygon fill="midnightblue" stroke="midnightblue" points="681.109,-142.309 680.231,-131.751 674.334,-140.553 681.109,-142.309"/>
</g>
<!-- Node28 -->
<g id="node29" class="node"><title>Node28</title>
<g id="a_node29"><a xlink:href="ia_matrix_8inl.html" target="_top" xlink:title=" ">
<polygon fill="white" stroke="black" points="733.5,-112.5 733.5,-131.5 797.5,-131.5 797.5,-112.5 733.5,-112.5"/>
<text text-anchor="middle" x="765.5" y="-119.5" font-family="Helvetica,sans-Serif" font-size="10.00">iaMatrix.inl</text>
</a>
</g>
</g>
<!-- Node25&#45;&gt;Node28 -->
<g id="edge43" class="edge"><title>Node25&#45;&gt;Node28</title>
<path fill="none" stroke="midnightblue" d="M684.085,-168.324C699.499,-159.743 723.312,-146.486 741.21,-136.522"/>
<polygon fill="midnightblue" stroke="midnightblue" points="742.919,-139.577 749.954,-131.655 739.514,-133.461 742.919,-139.577"/>
</g>
<!-- Node26&#45;&gt;Node5 -->
<g id="edge37" class="edge"><title>Node26&#45;&gt;Node5</title>
<path fill="none" stroke="midnightblue" d="M715.732,-113.492C758.153,-103.907 831.629,-87.3055 878.339,-76.7518"/>
<polygon fill="midnightblue" stroke="midnightblue" points="879.183,-80.1494 888.166,-74.5315 877.64,-73.3215 879.183,-80.1494"/>
</g>
<!-- Node27 -->
<g id="node28" class="node"><title>Node27</title>
<g id="a_node28"><a xlink:href="ia_vector4_8inl.html" target="_top" xlink:title=" ">
<polygon fill="white" stroke="black" points="647,-56.5 647,-75.5 718,-75.5 718,-56.5 647,-56.5"/>
<text text-anchor="middle" x="682.5" y="-63.5" font-family="Helvetica,sans-Serif" font-size="10.00">iaVector4.inl</text>
</a>
</g>
</g>
<!-- Node26&#45;&gt;Node27 -->
<g id="edge38" class="edge"><title>Node26&#45;&gt;Node27</title>
<path fill="none" stroke="midnightblue" d="M682.5,-112.083C682.5,-105.006 682.5,-94.8611 682.5,-85.9865"/>
<polygon fill="midnightblue" stroke="midnightblue" points="686,-85.751 682.5,-75.7511 679,-85.7511 686,-85.751"/>
</g>
<!-- Node31&#45;&gt;Node5 -->
<g id="edge49" class="edge"><title>Node31&#45;&gt;Node5</title>
<path fill="none" stroke="midnightblue" d="M979.414,-112.324C969.014,-104.185 953.239,-91.8395 940.778,-82.0874"/>
<polygon fill="midnightblue" stroke="midnightblue" points="942.82,-79.2407 932.788,-75.8339 938.506,-84.7533 942.82,-79.2407"/>
</g>
<!-- Node31&#45;&gt;Node23 -->
<g id="edge48" class="edge"><title>Node31&#45;&gt;Node23</title>
<path fill="none" stroke="midnightblue" d="M966.732,-112.444C941.607,-103.399 901.789,-89.064 873.6,-78.9158"/>
<polygon fill="midnightblue" stroke="midnightblue" points="874.751,-75.6106 864.157,-75.5164 872.38,-82.1968 874.751,-75.6106"/>
</g>
<!-- Node32 -->
<g id="node33" class="node"><title>Node32</title>
<g id="a_node33"><a xlink:href="i_a_a_box_8inl.html" target="_top" xlink:title=" ">
<polygon fill="white" stroke="black" points="972.5,-56.5 972.5,-75.5 1034.5,-75.5 1034.5,-56.5 972.5,-56.5"/>
<text text-anchor="middle" x="1003.5" y="-63.5" font-family="Helvetica,sans-Serif" font-size="10.00">iAABox.inl</text>
</a>
</g>
</g>
<!-- Node31&#45;&gt;Node32 -->
<g id="edge50" class="edge"><title>Node31&#45;&gt;Node32</title>
<path fill="none" stroke="midnightblue" d="M992.647,-112.083C994.369,-104.927 996.847,-94.6353 999,-85.6911"/>
<polygon fill="midnightblue" stroke="midnightblue" points="1002.46,-86.2925 1001.39,-75.7511 995.65,-84.6541 1002.46,-86.2925"/>
</g>
<!-- Node33&#45;&gt;Node2 -->
<g id="edge56" class="edge"><title>Node33&#45;&gt;Node2</title>
<path fill="none" stroke="midnightblue" d="M69.4145,-224.445C65.3362,-211.879 59.2471,-187.78 64.5,-168 79.2152,-112.589 82.8008,-90.6193 128.5,-56 168.569,-25.646 226.674,-15.577 265.937,-12.3415"/>
<polygon fill="midnightblue" stroke="midnightblue" points="266.258,-15.8276 275.985,-11.6282 265.762,-8.84514 266.258,-15.8276"/>
</g>
</g>
</svg>
