<?xml version="1.0" encoding="UTF-8" standalone="no"?>
<!DOCTYPE svg PUBLIC "-//W3C//DTD SVG 1.1//EN"
 "http://www.w3.org/Graphics/SVG/1.1/DTD/svg11.dtd">
<!-- Generated by graphviz version 2.38.0 (20140413.2041)
 -->
<!-- Title: C:/dev/Igor/Igor/src/Igor/src/iPhysicsMaterialCombo.cpp Pages: 1 -->
<svg width="1251pt" height="487pt"
 viewBox="0.00 0.00 1251.17 487.00" xmlns="http://www.w3.org/2000/svg" xmlns:xlink="http://www.w3.org/1999/xlink">
<g id="graph0" class="graph" transform="scale(1 1) rotate(0) translate(4 483)">
<title>C:/dev/Igor/Igor/src/Igor/src/iPhysicsMaterialCombo.cpp</title>
<polygon fill="white" stroke="none" points="-4,4 -4,-483 1247.17,-483 1247.17,4 -4,4"/>
<!-- Node0 -->
<g id="node1" class="node"><title>Node0</title>
<g id="a_node1"><a xlink:title=" ">
<polygon fill="#bfbfbf" stroke="black" points="1004.17,-448.5 1004.17,-478.5 1180.17,-478.5 1180.17,-448.5 1004.17,-448.5"/>
<text text-anchor="start" x="1012.17" y="-466.5" font-family="Helvetica,sans-Serif" font-size="10.00">C:/dev/Igor/Igor/src</text>
<text text-anchor="middle" x="1092.17" y="-455.5" font-family="Helvetica,sans-Serif" font-size="10.00">/Igor/src/iPhysicsMaterialCombo.cpp</text>
</a>
</g>
</g>
<!-- Node1 -->
<g id="node2" class="node"><title>Node1</title>
<g id="a_node2"><a xlink:href="i_physics_material_combo_8h.html" target="_top" xlink:title=" ">
<polygon fill="white" stroke="black" points="960.171,-280.5 960.171,-299.5 1088.17,-299.5 1088.17,-280.5 960.171,-280.5"/>
<text text-anchor="middle" x="1024.17" y="-287.5" font-family="Helvetica,sans-Serif" font-size="10.00">iPhysicsMaterialCombo.h</text>
</a>
</g>
</g>
<!-- Node0&#45;&gt;Node1 -->
<g id="edge1" class="edge"><title>Node0&#45;&gt;Node1</title>
<path fill="none" stroke="midnightblue" d="M1098.92,-448.426C1109.68,-423.761 1127.44,-371.938 1106.17,-336 1097.2,-320.84 1081.1,-310.448 1065.54,-303.504"/>
<polygon fill="midnightblue" stroke="midnightblue" points="1066.56,-300.143 1055.98,-299.615 1063.92,-306.627 1066.56,-300.143"/>
</g>
<!-- Node16 -->
<g id="node17" class="node"><title>Node16</title>
<g id="a_node17"><a xlink:href="i_physics_material_8h.html" target="_top" xlink:title=" ">
<polygon fill="white" stroke="black" points="831.671,-280.5 831.671,-299.5 928.671,-299.5 928.671,-280.5 831.671,-280.5"/>
<text text-anchor="middle" x="880.171" y="-287.5" font-family="Helvetica,sans-Serif" font-size="10.00">iPhysicsMaterial.h</text>
</a>
</g>
</g>
<!-- Node0&#45;&gt;Node16 -->
<g id="edge21" class="edge"><title>Node0&#45;&gt;Node16</title>
<path fill="none" stroke="midnightblue" d="M1074.82,-448.465C1035.39,-416.567 939.318,-338.847 898.743,-306.024"/>
<polygon fill="midnightblue" stroke="midnightblue" points="900.728,-303.128 890.753,-299.56 896.326,-308.57 900.728,-303.128"/>
</g>
<!-- Node17 -->
<g id="node18" class="node"><title>Node17</title>
<g id="a_node18"><a xlink:href="i_physics_8h.html" target="_top" xlink:title=" ">
<polygon fill="white" stroke="black" points="515.171,-392.5 515.171,-411.5 577.171,-411.5 577.171,-392.5 515.171,-392.5"/>
<text text-anchor="middle" x="546.171" y="-399.5" font-family="Helvetica,sans-Serif" font-size="10.00">iPhysics.h</text>
</a>
</g>
</g>
<!-- Node0&#45;&gt;Node17 -->
<g id="edge24" class="edge"><title>Node0&#45;&gt;Node17</title>
<path fill="none" stroke="midnightblue" d="M1004.14,-452.907C884.581,-439.878 675.65,-417.11 587.391,-407.492"/>
<polygon fill="midnightblue" stroke="midnightblue" points="587.56,-403.99 577.24,-406.386 586.802,-410.948 587.56,-403.99"/>
</g>
<!-- Node2 -->
<g id="node3" class="node"><title>Node2</title>
<g id="a_node3"><a xlink:href="i_defines_8h.html" target="_top" xlink:title=" ">
<polygon fill="white" stroke="black" points="1021.67,-168.5 1021.67,-187.5 1080.67,-187.5 1080.67,-168.5 1021.67,-168.5"/>
<text text-anchor="middle" x="1051.17" y="-175.5" font-family="Helvetica,sans-Serif" font-size="10.00">iDefines.h</text>
</a>
</g>
</g>
<!-- Node1&#45;&gt;Node2 -->
<g id="edge2" class="edge"><title>Node1&#45;&gt;Node2</title>
<path fill="none" stroke="midnightblue" d="M1035.71,-280.49C1045.65,-272.379 1059.29,-259.178 1065.17,-244 1071.09,-228.711 1066.13,-210.379 1060.55,-197.087"/>
<polygon fill="midnightblue" stroke="midnightblue" points="1063.54,-195.229 1056.12,-187.662 1057.2,-198.202 1063.54,-195.229"/>
</g>
<!-- Node4 -->
<g id="node5" class="node"><title>Node4</title>
<g id="a_node5"><a xlink:href="ia_event_8h.html" target="_top" xlink:title=" ">
<polygon fill="white" stroke="black" points="803.171,-224.5 803.171,-243.5 859.171,-243.5 859.171,-224.5 803.171,-224.5"/>
<text text-anchor="middle" x="831.171" y="-231.5" font-family="Helvetica,sans-Serif" font-size="10.00">iaEvent.h</text>
</a>
</g>
</g>
<!-- Node1&#45;&gt;Node4 -->
<g id="edge4" class="edge"><title>Node1&#45;&gt;Node4</title>
<path fill="none" stroke="midnightblue" d="M993.59,-280.444C959.877,-271.011 905.602,-255.825 869.18,-245.634"/>
<polygon fill="midnightblue" stroke="midnightblue" points="869.985,-242.225 859.412,-242.902 868.099,-248.967 869.985,-242.225"/>
</g>
<!-- Node14 -->
<g id="node15" class="node"><title>Node14</title>
<g id="a_node15"><a xlink:href="ia_string_8h.html" target="_top" xlink:title=" ">
<polygon fill="white" stroke="black" points="727.171,-224.5 727.171,-243.5 785.171,-243.5 785.171,-224.5 727.171,-224.5"/>
<text text-anchor="middle" x="756.171" y="-231.5" font-family="Helvetica,sans-Serif" font-size="10.00">iaString.h</text>
</a>
</g>
</g>
<!-- Node1&#45;&gt;Node14 -->
<g id="edge17" class="edge"><title>Node1&#45;&gt;Node14</title>
<path fill="none" stroke="midnightblue" d="M977.805,-280.483C933.457,-272.212 864.45,-259.021 795.379,-244.196"/>
<polygon fill="midnightblue" stroke="midnightblue" points="795.704,-240.685 785.191,-241.997 794.228,-247.528 795.704,-240.685"/>
</g>
<!-- Node3 -->
<g id="node4" class="node"><title>Node3</title>
<g id="a_node4"><a xlink:href="ia_defines_8h.html" target="_top" xlink:title=" ">
<polygon fill="white" stroke="black" points="829.671,-0.5 829.671,-19.5 894.671,-19.5 894.671,-0.5 829.671,-0.5"/>
<text text-anchor="middle" x="862.171" y="-7.5" font-family="Helvetica,sans-Serif" font-size="10.00">iaDefines.h</text>
</a>
</g>
</g>
<!-- Node2&#45;&gt;Node3 -->
<g id="edge3" class="edge"><title>Node2&#45;&gt;Node3</title>
<path fill="none" stroke="midnightblue" d="M1050.41,-168.27C1048.02,-146.187 1038.69,-87.612 1005.17,-56 978.04,-30.4089 936.475,-19.3677 905.138,-14.6059"/>
<polygon fill="midnightblue" stroke="midnightblue" points="905.318,-11.0983 894.938,-13.2198 904.375,-18.0346 905.318,-11.0983"/>
</g>
<!-- Node5 -->
<g id="node6" class="node"><title>Node5</title>
<g id="a_node6"><a xlink:href="ia_mutex_8h.html" target="_top" xlink:title=" ">
<polygon fill="white" stroke="black" points="725.671,-56.5 725.671,-75.5 784.671,-75.5 784.671,-56.5 725.671,-56.5"/>
<text text-anchor="middle" x="755.171" y="-63.5" font-family="Helvetica,sans-Serif" font-size="10.00">iaMutex.h</text>
</a>
</g>
</g>
<!-- Node4&#45;&gt;Node5 -->
<g id="edge5" class="edge"><title>Node4&#45;&gt;Node5</title>
<path fill="none" stroke="midnightblue" d="M852.654,-224.36C867.563,-217.09 886.282,-205.117 895.171,-188 899.268,-180.111 898.421,-176.274 895.171,-168 877.348,-122.611 825.629,-94.1196 790.3,-79.3808"/>
<polygon fill="midnightblue" stroke="midnightblue" points="791.396,-76.0498 780.811,-75.5858 788.796,-82.5492 791.396,-76.0498"/>
</g>
<!-- Node6 -->
<g id="node7" class="node"><title>Node6</title>
<g id="a_node7"><a xlink:href="ia_delegate_8h.html" target="_top" xlink:title=" ">
<polygon fill="white" stroke="black" points="815.671,-168.5 815.671,-187.5 886.671,-187.5 886.671,-168.5 815.671,-168.5"/>
<text text-anchor="middle" x="851.171" y="-175.5" font-family="Helvetica,sans-Serif" font-size="10.00">iaDelegate.h</text>
</a>
</g>
</g>
<!-- Node4&#45;&gt;Node6 -->
<g id="edge7" class="edge"><title>Node4&#45;&gt;Node6</title>
<path fill="none" stroke="midnightblue" d="M834.474,-224.083C837.153,-216.849 841.02,-206.409 844.358,-197.397"/>
<polygon fill="midnightblue" stroke="midnightblue" points="847.739,-198.344 847.93,-187.751 841.175,-195.913 847.739,-198.344"/>
</g>
<!-- Node7 -->
<g id="node8" class="node"><title>Node7</title>
<g id="a_node8"><a xlink:href="ia_console_8h.html" target="_top" xlink:title=" ">
<polygon fill="white" stroke="black" points="691.171,-168.5 691.171,-187.5 759.171,-187.5 759.171,-168.5 691.171,-168.5"/>
<text text-anchor="middle" x="725.171" y="-175.5" font-family="Helvetica,sans-Serif" font-size="10.00">iaConsole.h</text>
</a>
</g>
</g>
<!-- Node4&#45;&gt;Node7 -->
<g id="edge8" class="edge"><title>Node4&#45;&gt;Node7</title>
<path fill="none" stroke="midnightblue" d="M814.141,-224.324C797.142,-215.664 770.795,-202.242 751.179,-192.249"/>
<polygon fill="midnightblue" stroke="midnightblue" points="752.659,-189.075 742.16,-187.655 749.482,-195.312 752.659,-189.075"/>
</g>
<!-- Node13 -->
<g id="node14" class="node"><title>Node13</title>
<g id="a_node14"><a xlink:title=" ">
<polygon fill="white" stroke="#bfbfbf" points="593.171,-168.5 593.171,-187.5 635.171,-187.5 635.171,-168.5 593.171,-168.5"/>
<text text-anchor="middle" x="614.171" y="-175.5" font-family="Helvetica,sans-Serif" font-size="10.00">vector</text>
</a>
</g>
</g>
<!-- Node4&#45;&gt;Node13 -->
<g id="edge16" class="edge"><title>Node4&#45;&gt;Node13</title>
<path fill="none" stroke="midnightblue" d="M802.803,-225.94C762.048,-215.799 687.212,-197.176 645.088,-186.694"/>
<polygon fill="midnightblue" stroke="midnightblue" points="645.923,-183.295 635.373,-184.276 644.232,-190.087 645.923,-183.295"/>
</g>
<!-- Node5&#45;&gt;Node3 -->
<g id="edge6" class="edge"><title>Node5&#45;&gt;Node3</title>
<path fill="none" stroke="midnightblue" d="M772.363,-56.324C789.522,-47.6641 816.117,-34.2424 835.919,-24.249"/>
<polygon fill="midnightblue" stroke="midnightblue" points="837.672,-27.2847 845.023,-19.6545 834.518,-21.0354 837.672,-27.2847"/>
</g>
<!-- Node8 -->
<g id="node9" class="node"><title>Node8</title>
<g id="a_node9"><a xlink:href="ia_singleton_8h.html" target="_top" xlink:title=" ">
<polygon fill="white" stroke="black" points="688.671,-112.5 688.671,-131.5 761.671,-131.5 761.671,-112.5 688.671,-112.5"/>
<text text-anchor="middle" x="725.171" y="-119.5" font-family="Helvetica,sans-Serif" font-size="10.00">iaSingleton.h</text>
</a>
</g>
</g>
<!-- Node7&#45;&gt;Node8 -->
<g id="edge9" class="edge"><title>Node7&#45;&gt;Node8</title>
<path fill="none" stroke="midnightblue" d="M725.171,-168.083C725.171,-161.006 725.171,-150.861 725.171,-141.986"/>
<polygon fill="midnightblue" stroke="midnightblue" points="728.672,-141.751 725.171,-131.751 721.672,-141.751 728.672,-141.751"/>
</g>
<!-- Node9 -->
<g id="node10" class="node"><title>Node9</title>
<g id="a_node10"><a xlink:href="ia_clock_8h.html" target="_top" xlink:title=" ">
<polygon fill="white" stroke="black" points="833.671,-56.5 833.671,-75.5 890.671,-75.5 890.671,-56.5 833.671,-56.5"/>
<text text-anchor="middle" x="862.171" y="-63.5" font-family="Helvetica,sans-Serif" font-size="10.00">iaClock.h</text>
</a>
</g>
</g>
<!-- Node7&#45;&gt;Node9 -->
<g id="edge11" class="edge"><title>Node7&#45;&gt;Node9</title>
<path fill="none" stroke="midnightblue" d="M756.629,-168.449C787.344,-159.514 831.163,-145.009 843.171,-132 854.75,-119.457 859.306,-100.234 861.082,-85.943"/>
<polygon fill="midnightblue" stroke="midnightblue" points="864.587,-86.032 861.99,-75.7605 857.615,-85.4098 864.587,-86.032"/>
</g>
<!-- Node10 -->
<g id="node11" class="node"><title>Node10</title>
<g id="a_node11"><a xlink:title=" ">
<polygon fill="white" stroke="#bfbfbf" points="438.671,-112.5 438.671,-131.5 487.671,-131.5 487.671,-112.5 438.671,-112.5"/>
<text text-anchor="middle" x="463.171" y="-119.5" font-family="Helvetica,sans-Serif" font-size="10.00">fstream</text>
</a>
</g>
</g>
<!-- Node7&#45;&gt;Node10 -->
<g id="edge13" class="edge"><title>Node7&#45;&gt;Node10</title>
<path fill="none" stroke="midnightblue" d="M690.92,-169.94C640.934,-159.638 548.487,-140.584 498.114,-130.202"/>
<polygon fill="midnightblue" stroke="midnightblue" points="498.535,-126.715 488.034,-128.124 497.121,-133.571 498.535,-126.715"/>
</g>
<!-- Node11 -->
<g id="node12" class="node"><title>Node11</title>
<g id="a_node12"><a xlink:title=" ">
<polygon fill="white" stroke="#bfbfbf" points="780.171,-112.5 780.171,-131.5 834.171,-131.5 834.171,-112.5 780.171,-112.5"/>
<text text-anchor="middle" x="807.171" y="-119.5" font-family="Helvetica,sans-Serif" font-size="10.00">iostream</text>
</a>
</g>
</g>
<!-- Node7&#45;&gt;Node11 -->
<g id="edge14" class="edge"><title>Node7&#45;&gt;Node11</title>
<path fill="none" stroke="midnightblue" d="M738.346,-168.324C751.018,-159.979 770.405,-147.212 785.377,-137.352"/>
<polygon fill="midnightblue" stroke="midnightblue" points="787.603,-140.078 794.029,-131.655 783.753,-134.231 787.603,-140.078"/>
</g>
<!-- Node12 -->
<g id="node13" class="node"><title>Node12</title>
<g id="a_node13"><a xlink:title=" ">
<polygon fill="white" stroke="#bfbfbf" points="544.171,-112.5 544.171,-131.5 594.171,-131.5 594.171,-112.5 544.171,-112.5"/>
<text text-anchor="middle" x="569.171" y="-119.5" font-family="Helvetica,sans-Serif" font-size="10.00">iomanip</text>
</a>
</g>
</g>
<!-- Node7&#45;&gt;Node12 -->
<g id="edge15" class="edge"><title>Node7&#45;&gt;Node12</title>
<path fill="none" stroke="midnightblue" d="M700.453,-168.444C674.323,-159.399 632.912,-145.064 603.595,-134.916"/>
<polygon fill="midnightblue" stroke="midnightblue" points="604.369,-131.48 593.774,-131.516 602.079,-138.095 604.369,-131.48"/>
</g>
<!-- Node8&#45;&gt;Node5 -->
<g id="edge10" class="edge"><title>Node8&#45;&gt;Node5</title>
<path fill="none" stroke="midnightblue" d="M730.125,-112.083C734.276,-104.613 740.325,-93.7244 745.438,-84.5199"/>
<polygon fill="midnightblue" stroke="midnightblue" points="748.513,-86.1924 750.31,-75.7511 742.394,-82.7929 748.513,-86.1924"/>
</g>
<!-- Node9&#45;&gt;Node3 -->
<g id="edge12" class="edge"><title>Node9&#45;&gt;Node3</title>
<path fill="none" stroke="midnightblue" d="M862.171,-56.083C862.171,-49.0059 862.171,-38.8611 862.171,-29.9865"/>
<polygon fill="midnightblue" stroke="midnightblue" points="865.672,-29.751 862.171,-19.7511 858.672,-29.7511 865.672,-29.751"/>
</g>
<!-- Node14&#45;&gt;Node3 -->
<g id="edge18" class="edge"><title>Node14&#45;&gt;Node3</title>
<path fill="none" stroke="midnightblue" d="M761.49,-224.222C769.829,-210.945 787.023,-185.457 806.171,-168 828.314,-147.814 841.9,-153.102 863.171,-132 884.177,-111.162 890.834,-104.389 899.171,-76 901.676,-67.4713 902.17,-64.3679 899.171,-56 895.231,-45.0027 887.314,-34.7688 879.812,-26.8479"/>
<polygon fill="midnightblue" stroke="midnightblue" points="882.191,-24.2784 872.61,-19.7555 877.279,-29.2659 882.191,-24.2784"/>
</g>
<!-- Node14&#45;&gt;Node13 -->
<g id="edge20" class="edge"><title>Node14&#45;&gt;Node13</title>
<path fill="none" stroke="midnightblue" d="M733.671,-224.444C709.678,-215.319 671.53,-200.813 644.807,-190.65"/>
<polygon fill="midnightblue" stroke="midnightblue" points="645.769,-187.271 635.178,-186.988 643.281,-193.814 645.769,-187.271"/>
</g>
<!-- Node15 -->
<g id="node16" class="node"><title>Node15</title>
<g id="a_node16"><a xlink:title=" ">
<polygon fill="white" stroke="#bfbfbf" points="291.171,-56.5 291.171,-75.5 343.171,-75.5 343.171,-56.5 291.171,-56.5"/>
<text text-anchor="middle" x="317.171" y="-63.5" font-family="Helvetica,sans-Serif" font-size="10.00">ostream</text>
</a>
</g>
</g>
<!-- Node14&#45;&gt;Node15 -->
<g id="edge19" class="edge"><title>Node14&#45;&gt;Node15</title>
<path fill="none" stroke="midnightblue" d="M739.922,-224.478C724.47,-216.065 700.875,-202.403 682.171,-188 643.569,-158.275 646.805,-133.676 603.171,-112 559.908,-90.5083 420.374,-75.9209 353.53,-69.986"/>
<polygon fill="midnightblue" stroke="midnightblue" points="353.718,-66.4892 343.452,-69.108 353.11,-73.4628 353.718,-66.4892"/>
</g>
<!-- Node16&#45;&gt;Node2 -->
<g id="edge22" class="edge"><title>Node16&#45;&gt;Node2</title>
<path fill="none" stroke="midnightblue" d="M922.288,-280.472C960.104,-272.055 1011.94,-258.39 1027.17,-244 1039.99,-231.886 1046,-212.326 1048.79,-197.823"/>
<polygon fill="midnightblue" stroke="midnightblue" points="1052.25,-198.35 1050.36,-187.925 1045.34,-197.254 1052.25,-198.35"/>
</g>
<!-- Node16&#45;&gt;Node14 -->
<g id="edge23" class="edge"><title>Node16&#45;&gt;Node14</title>
<path fill="none" stroke="midnightblue" d="M860.523,-280.444C840.207,-271.596 808.269,-257.687 785.074,-247.586"/>
<polygon fill="midnightblue" stroke="midnightblue" points="786.294,-244.3 775.728,-243.516 783.499,-250.718 786.294,-244.3"/>
</g>
<!-- Node17&#45;&gt;Node8 -->
<g id="edge67" class="edge"><title>Node17&#45;&gt;Node8</title>
<path fill="none" stroke="midnightblue" d="M515.035,-394.003C488.782,-387.133 450.992,-374.904 422.171,-356 368.589,-320.855 325.442,-275.052 364.171,-224 402.291,-173.752 589.63,-141.695 678.379,-129.087"/>
<polygon fill="midnightblue" stroke="midnightblue" points="679.022,-132.531 688.442,-127.681 678.054,-125.599 679.022,-132.531"/>
</g>
<!-- Node17&#45;&gt;Node13 -->
<g id="edge70" class="edge"><title>Node17&#45;&gt;Node13</title>
<path fill="none" stroke="midnightblue" d="M525.918,-392.34C469.99,-367.268 321.21,-292.07 378.171,-224 407.293,-189.2 534.834,-197.657 579.171,-188 580.447,-187.722 581.747,-187.43 583.058,-187.128"/>
<polygon fill="midnightblue" stroke="midnightblue" points="584.242,-190.442 593.133,-184.681 582.589,-183.64 584.242,-190.442"/>
</g>
<!-- Node18 -->
<g id="node19" class="node"><title>Node18</title>
<g id="a_node19"><a xlink:href="i_physics_body_8h.html" target="_top" xlink:title=" ">
<polygon fill="white" stroke="black" points="562.671,-336.5 562.671,-355.5 647.671,-355.5 647.671,-336.5 562.671,-336.5"/>
<text text-anchor="middle" x="605.171" y="-343.5" font-family="Helvetica,sans-Serif" font-size="10.00">iPhysicsBody.h</text>
</a>
</g>
</g>
<!-- Node17&#45;&gt;Node18 -->
<g id="edge25" class="edge"><title>Node17&#45;&gt;Node18</title>
<path fill="none" stroke="midnightblue" d="M555.651,-392.324C564.373,-384.341 577.515,-372.313 588.069,-362.653"/>
<polygon fill="midnightblue" stroke="midnightblue" points="590.506,-365.167 595.52,-355.834 585.78,-360.004 590.506,-365.167"/>
</g>
<!-- Node21 -->
<g id="node22" class="node"><title>Node21</title>
<g id="a_node22"><a xlink:href="ia_matrix_8h.html" target="_top" xlink:title=" ">
<polygon fill="white" stroke="black" points="195.671,-224.5 195.671,-243.5 254.671,-243.5 254.671,-224.5 195.671,-224.5"/>
<text text-anchor="middle" x="225.171" y="-231.5" font-family="Helvetica,sans-Serif" font-size="10.00">iaMatrix.h</text>
</a>
</g>
</g>
<!-- Node17&#45;&gt;Node21 -->
<g id="edge68" class="edge"><title>Node17&#45;&gt;Node21</title>
<path fill="none" stroke="midnightblue" d="M514.738,-398.093C457.943,-392.356 340.973,-378.177 307.171,-356 268.586,-330.684 243.44,-280.273 232.112,-253.198"/>
<polygon fill="midnightblue" stroke="midnightblue" points="235.3,-251.744 228.332,-243.763 228.802,-254.347 235.3,-251.744"/>
</g>
<!-- Node31 -->
<g id="node32" class="node"><title>Node31</title>
<g id="a_node32"><a xlink:title=" ">
<polygon fill="white" stroke="#bfbfbf" points="657.171,-224.5 657.171,-243.5 709.171,-243.5 709.171,-224.5 657.171,-224.5"/>
<text text-anchor="middle" x="683.171" y="-231.5" font-family="Helvetica,sans-Serif" font-size="10.00">memory</text>
</a>
</g>
</g>
<!-- Node17&#45;&gt;Node31 -->
<g id="edge69" class="edge"><title>Node17&#45;&gt;Node31</title>
<path fill="none" stroke="midnightblue" d="M577.365,-396.301C602.332,-390.884 636.342,-379.494 656.171,-356 680.841,-326.771 684.272,-279.817 684.062,-253.83"/>
<polygon fill="midnightblue" stroke="midnightblue" points="687.56,-253.696 683.787,-243.796 680.563,-253.888 687.56,-253.696"/>
</g>
<!-- Node32 -->
<g id="node33" class="node"><title>Node32</title>
<g id="a_node33"><a xlink:title=" ">
<polygon fill="white" stroke="#bfbfbf" points="387.671,-224.5 387.671,-243.5 422.671,-243.5 422.671,-224.5 387.671,-224.5"/>
<text text-anchor="middle" x="405.171" y="-231.5" font-family="Helvetica,sans-Serif" font-size="10.00">map</text>
</a>
</g>
</g>
<!-- Node17&#45;&gt;Node32 -->
<g id="edge71" class="edge"><title>Node17&#45;&gt;Node32</title>
<path fill="none" stroke="midnightblue" d="M538.591,-392.075C515.916,-365.38 448.376,-285.865 419.035,-251.322"/>
<polygon fill="midnightblue" stroke="midnightblue" points="421.591,-248.924 412.449,-243.568 416.255,-253.456 421.591,-248.924"/>
</g>
<!-- Node33 -->
<g id="node34" class="node"><title>Node33</title>
<g id="a_node34"><a xlink:href="i_physics_world_8h.html" target="_top" xlink:title=" ">
<polygon fill="white" stroke="black" points="1155.17,-224.5 1155.17,-243.5 1243.17,-243.5 1243.17,-224.5 1155.17,-224.5"/>
<text text-anchor="middle" x="1199.17" y="-231.5" font-family="Helvetica,sans-Serif" font-size="10.00">iPhysicsWorld.h</text>
</a>
</g>
</g>
<!-- Node17&#45;&gt;Node33 -->
<g id="edge64" class="edge"><title>Node17&#45;&gt;Node33</title>
<path fill="none" stroke="midnightblue" d="M577.36,-400.695C665.829,-398.758 924.371,-385.623 1116.17,-300 1142.64,-288.183 1168.13,-266.106 1183.72,-250.989"/>
<polygon fill="midnightblue" stroke="midnightblue" points="1186.31,-253.348 1190.92,-243.809 1181.37,-248.391 1186.31,-253.348"/>
</g>
<!-- Node18&#45;&gt;Node2 -->
<g id="edge26" class="edge"><title>Node18&#45;&gt;Node2</title>
<path fill="none" stroke="midnightblue" d="M647.815,-344.313C761.834,-342.039 1067.14,-332.904 1097.17,-300 1124.94,-269.577 1089.37,-220.695 1066.92,-195.379"/>
<polygon fill="midnightblue" stroke="midnightblue" points="1069.26,-192.755 1059.92,-187.758 1064.11,-197.49 1069.26,-192.755"/>
</g>
<!-- Node18&#45;&gt;Node4 -->
<g id="edge60" class="edge"><title>Node18&#45;&gt;Node4</title>
<path fill="none" stroke="midnightblue" d="M622.905,-336.368C662.347,-317.171 757.533,-270.842 804.31,-248.074"/>
<polygon fill="midnightblue" stroke="midnightblue" points="806.06,-251.115 813.52,-243.591 802.997,-244.821 806.06,-251.115"/>
</g>
<!-- Node18&#45;&gt;Node5 -->
<g id="edge62" class="edge"><title>Node18&#45;&gt;Node5</title>
<path fill="none" stroke="midnightblue" d="M562.426,-341.358C491.834,-332.987 360.322,-306.268 378.171,-224 389.768,-170.548 385.311,-144.679 429.171,-112 473.695,-78.8275 638.52,-70.0868 715.315,-67.8008"/>
<polygon fill="midnightblue" stroke="midnightblue" points="715.645,-71.2931 725.545,-67.5192 715.452,-64.2958 715.645,-71.2931"/>
</g>
<!-- Node18&#45;&gt;Node16 -->
<g id="edge59" class="edge"><title>Node18&#45;&gt;Node16</title>
<path fill="none" stroke="midnightblue" d="M647.838,-336.622C695.926,-327.179 774.187,-311.812 826.413,-301.556"/>
<polygon fill="midnightblue" stroke="midnightblue" points="827.357,-304.938 836.495,-299.577 826.008,-298.069 827.357,-304.938"/>
</g>
<!-- Node19 -->
<g id="node20" class="node"><title>Node19</title>
<g id="a_node20"><a xlink:href="i_node_8h.html" target="_top" xlink:title=" ">
<polygon fill="white" stroke="black" points="570.171,-280.5 570.171,-299.5 620.171,-299.5 620.171,-280.5 570.171,-280.5"/>
<text text-anchor="middle" x="595.171" y="-287.5" font-family="Helvetica,sans-Serif" font-size="10.00">iNode.h</text>
</a>
</g>
</g>
<!-- Node18&#45;&gt;Node19 -->
<g id="edge27" class="edge"><title>Node18&#45;&gt;Node19</title>
<path fill="none" stroke="midnightblue" d="M603.52,-336.083C602.195,-328.927 600.289,-318.635 598.633,-309.691"/>
<polygon fill="midnightblue" stroke="midnightblue" points="602.055,-308.947 596.792,-299.751 595.172,-310.221 602.055,-308.947"/>
</g>
<!-- Node18&#45;&gt;Node21 -->
<g id="edge61" class="edge"><title>Node18&#45;&gt;Node21</title>
<path fill="none" stroke="midnightblue" d="M562.43,-338.815C517.283,-331.71 444.312,-318.588 383.171,-300 335.798,-285.598 283.024,-262.339 252.036,-247.899"/>
<polygon fill="midnightblue" stroke="midnightblue" points="253.314,-244.632 242.775,-243.543 250.334,-250.966 253.314,-244.632"/>
</g>
<!-- Node18&#45;&gt;Node31 -->
<g id="edge63" class="edge"><title>Node18&#45;&gt;Node31</title>
<path fill="none" stroke="midnightblue" d="M611.292,-336.368C624.164,-318.215 654.239,-275.802 671.124,-251.99"/>
<polygon fill="midnightblue" stroke="midnightblue" points="674.15,-253.773 677.079,-243.591 668.44,-249.724 674.15,-253.773"/>
</g>
<!-- Node19&#45;&gt;Node2 -->
<g id="edge32" class="edge"><title>Node19&#45;&gt;Node2</title>
<path fill="none" stroke="midnightblue" d="M620.328,-288.477C697.179,-286.523 927.626,-277.909 993.171,-244 1014.08,-233.181 1031.01,-211.481 1041.07,-196.136"/>
<polygon fill="midnightblue" stroke="midnightblue" points="1044.1,-197.895 1046.41,-187.557 1038.15,-194.192 1044.1,-197.895"/>
</g>
<!-- Node19&#45;&gt;Node4 -->
<g id="edge33" class="edge"><title>Node19&#45;&gt;Node4</title>
<path fill="none" stroke="midnightblue" d="M620.333,-283.448C656.349,-275.47 724.931,-260.17 792.884,-244.275"/>
<polygon fill="midnightblue" stroke="midnightblue" points="793.964,-247.617 802.901,-241.927 792.366,-240.802 793.964,-247.617"/>
</g>
<!-- Node19&#45;&gt;Node5 -->
<g id="edge51" class="edge"><title>Node19&#45;&gt;Node5</title>
<path fill="none" stroke="midnightblue" d="M570.007,-283.569C549.391,-277.649 521.521,-265.935 508.171,-244 486.388,-208.207 447.771,-196.411 535.171,-112 560.449,-87.5875 659.227,-75.2419 715.45,-70.0745"/>
<polygon fill="midnightblue" stroke="midnightblue" points="715.773,-73.5597 725.425,-69.1919 715.156,-66.5869 715.773,-73.5597"/>
</g>
<!-- Node19&#45;&gt;Node13 -->
<g id="edge56" class="edge"><title>Node19&#45;&gt;Node13</title>
<path fill="none" stroke="midnightblue" d="M598.859,-280.219C602.43,-271.279 607.662,-256.935 610.171,-244 613.169,-228.548 614.089,-210.679 614.305,-197.592"/>
<polygon fill="midnightblue" stroke="midnightblue" points="617.805,-197.517 614.348,-187.502 610.805,-197.487 617.805,-197.517"/>
</g>
<!-- Node19&#45;&gt;Node14 -->
<g id="edge34" class="edge"><title>Node19&#45;&gt;Node14</title>
<path fill="none" stroke="midnightblue" d="M620.328,-280.563C647.343,-271.501 690.477,-257.034 720.88,-246.837"/>
<polygon fill="midnightblue" stroke="midnightblue" points="722.293,-250.055 730.661,-243.556 720.067,-243.418 722.293,-250.055"/>
</g>
<!-- Node19&#45;&gt;Node15 -->
<g id="edge55" class="edge"><title>Node19&#45;&gt;Node15</title>
<path fill="none" stroke="midnightblue" d="M569.835,-281.128C547.872,-273.606 515.832,-260.913 491.171,-244 421.362,-196.122 356.232,-117.498 329.706,-83.5071"/>
<polygon fill="midnightblue" stroke="midnightblue" points="332.423,-81.2987 323.544,-75.5178 326.88,-85.5738 332.423,-81.2987"/>
</g>
<!-- Node20 -->
<g id="node21" class="node"><title>Node20</title>
<g id="a_node21"><a xlink:href="i_data_update_queue_8h.html" target="_top" xlink:title=" ">
<polygon fill="white" stroke="black" points="877.671,-224.5 877.671,-243.5 984.671,-243.5 984.671,-224.5 877.671,-224.5"/>
<text text-anchor="middle" x="931.171" y="-231.5" font-family="Helvetica,sans-Serif" font-size="10.00">iDataUpdateQueue.h</text>
</a>
</g>
</g>
<!-- Node19&#45;&gt;Node20 -->
<g id="edge28" class="edge"><title>Node19&#45;&gt;Node20</title>
<path fill="none" stroke="midnightblue" d="M620.426,-284.941C672.536,-276.566 793.34,-257.151 868.043,-245.146"/>
<polygon fill="midnightblue" stroke="midnightblue" points="868.948,-248.545 878.266,-243.503 867.837,-241.634 868.948,-248.545"/>
</g>
<!-- Node19&#45;&gt;Node21 -->
<g id="edge35" class="edge"><title>Node19&#45;&gt;Node21</title>
<path fill="none" stroke="midnightblue" d="M570.031,-285.331C506.961,-276.126 341.62,-251.995 265.093,-240.826"/>
<polygon fill="midnightblue" stroke="midnightblue" points="265.304,-237.32 254.904,-239.339 264.293,-244.247 265.304,-237.32"/>
</g>
<!-- Node30 -->
<g id="node31" class="node"><title>Node30</title>
<g id="a_node31"><a xlink:href="ia_i_d_generator_8h.html" target="_top" xlink:title=" ">
<polygon fill="white" stroke="black" points="517.171,-224.5 517.171,-243.5 601.171,-243.5 601.171,-224.5 517.171,-224.5"/>
<text text-anchor="middle" x="559.171" y="-231.5" font-family="Helvetica,sans-Serif" font-size="10.00">iaIDGenerator.h</text>
</a>
</g>
</g>
<!-- Node19&#45;&gt;Node30 -->
<g id="edge52" class="edge"><title>Node19&#45;&gt;Node30</title>
<path fill="none" stroke="midnightblue" d="M589.227,-280.083C584.194,-272.534 576.835,-261.495 570.658,-252.23"/>
<polygon fill="midnightblue" stroke="midnightblue" points="573.465,-250.13 565.006,-243.751 567.64,-254.013 573.465,-250.13"/>
</g>
<!-- Node19&#45;&gt;Node31 -->
<g id="edge57" class="edge"><title>Node19&#45;&gt;Node31</title>
<path fill="none" stroke="midnightblue" d="M609.31,-280.324C623.038,-271.9 644.108,-258.971 660.236,-249.074"/>
<polygon fill="midnightblue" stroke="midnightblue" points="662.375,-251.868 669.068,-243.655 658.714,-245.902 662.375,-251.868"/>
</g>
<!-- Node19&#45;&gt;Node32 -->
<g id="edge58" class="edge"><title>Node19&#45;&gt;Node32</title>
<path fill="none" stroke="midnightblue" d="M569.941,-281.829C534.385,-271.724 469.769,-253.359 432.905,-242.882"/>
<polygon fill="midnightblue" stroke="midnightblue" points="433.43,-239.393 422.854,-240.025 431.516,-246.126 433.43,-239.393"/>
</g>
<!-- Node20&#45;&gt;Node2 -->
<g id="edge29" class="edge"><title>Node20&#45;&gt;Node2</title>
<path fill="none" stroke="midnightblue" d="M950.186,-224.444C969.759,-215.636 1000.48,-201.812 1022.9,-191.722"/>
<polygon fill="midnightblue" stroke="midnightblue" points="1024.56,-194.812 1032.25,-187.516 1021.69,-188.428 1024.56,-194.812"/>
</g>
<!-- Node20&#45;&gt;Node5 -->
<g id="edge30" class="edge"><title>Node20&#45;&gt;Node5</title>
<path fill="none" stroke="midnightblue" d="M929.774,-224.373C925.677,-202.016 911.54,-141.863 874.171,-112 851.045,-93.518 819.514,-82.0536 794.719,-75.3248"/>
<polygon fill="midnightblue" stroke="midnightblue" points="795.45,-71.899 784.894,-72.8073 793.712,-78.6799 795.45,-71.899"/>
</g>
<!-- Node20&#45;&gt;Node13 -->
<g id="edge31" class="edge"><title>Node20&#45;&gt;Node13</title>
<path fill="none" stroke="midnightblue" d="M880.942,-224.444C814.819,-213.18 700.541,-193.713 645.537,-184.343"/>
<polygon fill="midnightblue" stroke="midnightblue" points="645.804,-180.838 635.359,-182.609 644.629,-187.739 645.804,-180.838"/>
</g>
<!-- Node21&#45;&gt;Node10 -->
<g id="edge47" class="edge"><title>Node21&#45;&gt;Node10</title>
<path fill="none" stroke="midnightblue" d="M243.847,-224.368C285.557,-205.091 386.463,-158.454 435.5,-135.789"/>
<polygon fill="midnightblue" stroke="midnightblue" points="436.974,-138.964 444.583,-131.591 434.037,-132.61 436.974,-138.964"/>
</g>
<!-- Node21&#45;&gt;Node12 -->
<g id="edge49" class="edge"><title>Node21&#45;&gt;Node12</title>
<path fill="none" stroke="midnightblue" d="M251.878,-224.46C313.441,-204.774 465.301,-156.214 534.187,-134.187"/>
<polygon fill="midnightblue" stroke="midnightblue" points="535.658,-137.391 544.117,-131.012 533.526,-130.724 535.658,-137.391"/>
</g>
<!-- Node22 -->
<g id="node23" class="node"><title>Node22</title>
<g id="a_node23"><a xlink:href="ia_vector4_8h.html" target="_top" xlink:title=" ">
<polygon fill="white" stroke="black" points="159.171,-168.5 159.171,-187.5 225.171,-187.5 225.171,-168.5 159.171,-168.5"/>
<text text-anchor="middle" x="192.171" y="-175.5" font-family="Helvetica,sans-Serif" font-size="10.00">iaVector4.h</text>
</a>
</g>
</g>
<!-- Node21&#45;&gt;Node22 -->
<g id="edge36" class="edge"><title>Node21&#45;&gt;Node22</title>
<path fill="none" stroke="midnightblue" d="M219.722,-224.083C215.157,-216.613 208.503,-205.724 202.878,-196.52"/>
<polygon fill="midnightblue" stroke="midnightblue" points="205.72,-194.459 197.519,-187.751 199.747,-198.109 205.72,-194.459"/>
</g>
<!-- Node24 -->
<g id="node25" class="node"><title>Node24</title>
<g id="a_node25"><a xlink:title=" ">
<polygon fill="white" stroke="#bfbfbf" points="4.17147,-56.5 4.17147,-75.5 48.1715,-75.5 48.1715,-56.5 4.17147,-56.5"/>
<text text-anchor="middle" x="26.1715" y="-63.5" font-family="Helvetica,sans-Serif" font-size="10.00">cmath</text>
</a>
</g>
</g>
<!-- Node21&#45;&gt;Node24 -->
<g id="edge48" class="edge"><title>Node21&#45;&gt;Node24</title>
<path fill="none" stroke="midnightblue" d="M195.599,-230.559C159.438,-226.444 97.4632,-215.657 52.1715,-188 23.695,-170.611 14.0636,-163.175 2.17147,-132 -3.96962,-115.901 4.2745,-97.4691 12.729,-84.3543"/>
<polygon fill="midnightblue" stroke="midnightblue" points="15.8199,-86.0441 18.7197,-75.8538 10.098,-82.0117 15.8199,-86.0441"/>
</g>
<!-- Node27 -->
<g id="node28" class="node"><title>Node27</title>
<g id="a_node28"><a xlink:href="ia_quaternion_8h.html" target="_top" xlink:title=" ">
<polygon fill="white" stroke="black" points="61.1715,-168.5 61.1715,-187.5 141.171,-187.5 141.171,-168.5 61.1715,-168.5"/>
<text text-anchor="middle" x="101.171" y="-175.5" font-family="Helvetica,sans-Serif" font-size="10.00">iaQuaternion.h</text>
</a>
</g>
</g>
<!-- Node21&#45;&gt;Node27 -->
<g id="edge43" class="edge"><title>Node21&#45;&gt;Node27</title>
<path fill="none" stroke="midnightblue" d="M205.523,-224.444C185.207,-215.596 153.269,-201.687 130.074,-191.586"/>
<polygon fill="midnightblue" stroke="midnightblue" points="131.294,-188.3 120.728,-187.516 128.499,-194.718 131.294,-188.3"/>
</g>
<!-- Node29 -->
<g id="node30" class="node"><title>Node29</title>
<g id="a_node30"><a xlink:href="ia_matrix_8inl.html" target="_top" xlink:title=" ">
<polygon fill="white" stroke="black" points="243.171,-168.5 243.171,-187.5 307.171,-187.5 307.171,-168.5 243.171,-168.5"/>
<text text-anchor="middle" x="275.171" y="-175.5" font-family="Helvetica,sans-Serif" font-size="10.00">iaMatrix.inl</text>
</a>
</g>
</g>
<!-- Node21&#45;&gt;Node29 -->
<g id="edge50" class="edge"><title>Node21&#45;&gt;Node29</title>
<path fill="none" stroke="midnightblue" d="M233.428,-224.083C240.636,-216.298 251.281,-204.801 260.017,-195.367"/>
<polygon fill="midnightblue" stroke="midnightblue" points="262.843,-197.467 267.069,-187.751 257.706,-192.711 262.843,-197.467"/>
</g>
<!-- Node23 -->
<g id="node24" class="node"><title>Node23</title>
<g id="a_node24"><a xlink:href="ia_vector3_8h.html" target="_top" xlink:title=" ">
<polygon fill="white" stroke="black" points="113.171,-112.5 113.171,-131.5 179.171,-131.5 179.171,-112.5 113.171,-112.5"/>
<text text-anchor="middle" x="146.171" y="-119.5" font-family="Helvetica,sans-Serif" font-size="10.00">iaVector3.h</text>
</a>
</g>
</g>
<!-- Node22&#45;&gt;Node23 -->
<g id="edge37" class="edge"><title>Node22&#45;&gt;Node23</title>
<path fill="none" stroke="midnightblue" d="M184.576,-168.083C177.944,-160.298 168.15,-148.801 160.113,-139.367"/>
<polygon fill="midnightblue" stroke="midnightblue" points="162.775,-137.094 153.626,-131.751 157.446,-141.633 162.775,-137.094"/>
</g>
<!-- Node26 -->
<g id="node27" class="node"><title>Node26</title>
<g id="a_node27"><a xlink:href="ia_vector4_8inl.html" target="_top" xlink:title=" ">
<polygon fill="white" stroke="black" points="235.671,-112.5 235.671,-131.5 306.671,-131.5 306.671,-112.5 235.671,-112.5"/>
<text text-anchor="middle" x="271.171" y="-119.5" font-family="Helvetica,sans-Serif" font-size="10.00">iaVector4.inl</text>
</a>
</g>
</g>
<!-- Node22&#45;&gt;Node26 -->
<g id="edge42" class="edge"><title>Node22&#45;&gt;Node26</title>
<path fill="none" stroke="midnightblue" d="M204.864,-168.324C217.073,-159.979 235.75,-147.212 250.174,-137.352"/>
<polygon fill="midnightblue" stroke="midnightblue" points="252.23,-140.187 258.51,-131.655 248.28,-134.408 252.23,-140.187"/>
</g>
<!-- Node23&#45;&gt;Node3 -->
<g id="edge38" class="edge"><title>Node23&#45;&gt;Node3</title>
<path fill="none" stroke="midnightblue" d="M159.801,-112.372C183.579,-97.8155 234.648,-68.7258 282.171,-56 383.637,-28.83 703.13,-16.1037 819.358,-12.287"/>
<polygon fill="midnightblue" stroke="midnightblue" points="819.754,-15.7761 829.636,-11.9554 819.528,-8.77975 819.754,-15.7761"/>
</g>
<!-- Node23&#45;&gt;Node15 -->
<g id="edge40" class="edge"><title>Node23&#45;&gt;Node15</title>
<path fill="none" stroke="midnightblue" d="M173.267,-112.444C202.414,-103.239 248.908,-88.5568 281.125,-78.3829"/>
<polygon fill="midnightblue" stroke="midnightblue" points="282.562,-81.5997 291.044,-75.2508 280.454,-74.9246 282.562,-81.5997"/>
</g>
<!-- Node23&#45;&gt;Node24 -->
<g id="edge39" class="edge"><title>Node23&#45;&gt;Node24</title>
<path fill="none" stroke="midnightblue" d="M127.157,-112.444C107.584,-103.636 76.8639,-89.8116 54.4425,-79.722"/>
<polygon fill="midnightblue" stroke="midnightblue" points="55.6524,-76.4284 45.0969,-75.5164 52.7798,-82.8119 55.6524,-76.4284"/>
</g>
<!-- Node25 -->
<g id="node26" class="node"><title>Node25</title>
<g id="a_node26"><a xlink:href="ia_vector3_8inl.html" target="_top" xlink:title=" ">
<polygon fill="white" stroke="black" points="110.671,-56.5 110.671,-75.5 181.671,-75.5 181.671,-56.5 110.671,-56.5"/>
<text text-anchor="middle" x="146.171" y="-63.5" font-family="Helvetica,sans-Serif" font-size="10.00">iaVector3.inl</text>
</a>
</g>
</g>
<!-- Node23&#45;&gt;Node25 -->
<g id="edge41" class="edge"><title>Node23&#45;&gt;Node25</title>
<path fill="none" stroke="midnightblue" d="M146.171,-112.083C146.171,-105.006 146.171,-94.8611 146.171,-85.9865"/>
<polygon fill="midnightblue" stroke="midnightblue" points="149.672,-85.751 146.171,-75.7511 142.672,-85.7511 149.672,-85.751"/>
</g>
<!-- Node27&#45;&gt;Node15 -->
<g id="edge45" class="edge"><title>Node27&#45;&gt;Node15</title>
<path fill="none" stroke="midnightblue" d="M117.868,-168.408C135.396,-159.379 163.748,-144.743 188.171,-132 205.092,-123.171 209.172,-120.675 226.171,-112 247.497,-101.117 271.814,-89.1131 289.943,-80.242"/>
<polygon fill="midnightblue" stroke="midnightblue" points="291.869,-83.1963 299.319,-75.663 288.798,-76.9062 291.869,-83.1963"/>
</g>
<!-- Node27&#45;&gt;Node23 -->
<g id="edge44" class="edge"><title>Node27&#45;&gt;Node23</title>
<path fill="none" stroke="midnightblue" d="M108.602,-168.083C115.024,-160.377 124.477,-149.033 132.294,-139.653"/>
<polygon fill="midnightblue" stroke="midnightblue" points="135.166,-141.674 138.879,-131.751 129.788,-137.193 135.166,-141.674"/>
</g>
<!-- Node28 -->
<g id="node29" class="node"><title>Node28</title>
<g id="a_node29"><a xlink:href="ia_quaternion_8inl.html" target="_top" xlink:title=" ">
<polygon fill="white" stroke="black" points="11.1715,-112.5 11.1715,-131.5 95.1715,-131.5 95.1715,-112.5 11.1715,-112.5"/>
<text text-anchor="middle" x="53.1715" y="-119.5" font-family="Helvetica,sans-Serif" font-size="10.00">iaQuaternion.inl</text>
</a>
</g>
</g>
<!-- Node27&#45;&gt;Node28 -->
<g id="edge46" class="edge"><title>Node27&#45;&gt;Node28</title>
<path fill="none" stroke="midnightblue" d="M93.2452,-168.083C86.3254,-160.298 76.1061,-148.801 67.7195,-139.367"/>
<polygon fill="midnightblue" stroke="midnightblue" points="70.2098,-136.9 60.9502,-131.751 64.9779,-141.55 70.2098,-136.9"/>
</g>
<!-- Node30&#45;&gt;Node5 -->
<g id="edge53" class="edge"><title>Node30&#45;&gt;Node5</title>
<path fill="none" stroke="midnightblue" d="M560.582,-224.498C563.174,-211.132 569.802,-184.983 584.171,-168 621.277,-124.145 682.515,-94.5932 720.757,-79.3023"/>
<polygon fill="midnightblue" stroke="midnightblue" points="722.372,-82.4299 730.424,-75.5447 719.836,-75.9054 722.372,-82.4299"/>
</g>
<!-- Node30&#45;&gt;Node13 -->
<g id="edge54" class="edge"><title>Node30&#45;&gt;Node13</title>
<path fill="none" stroke="midnightblue" d="M568.254,-224.083C576.343,-216.141 588.367,-204.335 598.082,-194.797"/>
<polygon fill="midnightblue" stroke="midnightblue" points="600.575,-197.254 605.258,-187.751 595.671,-192.26 600.575,-197.254"/>
</g>
<!-- Node33&#45;&gt;Node2 -->
<g id="edge65" class="edge"><title>Node33&#45;&gt;Node2</title>
<path fill="none" stroke="midnightblue" d="M1175.72,-224.444C1151.04,-215.438 1111.99,-201.189 1084.19,-191.049"/>
<polygon fill="midnightblue" stroke="midnightblue" points="1085.11,-187.656 1074.51,-187.516 1082.71,-194.232 1085.11,-187.656"/>
</g>
<!-- Node33&#45;&gt;Node5 -->
<g id="edge66" class="edge"><title>Node33&#45;&gt;Node5</title>
<path fill="none" stroke="midnightblue" d="M1186.83,-224.361C1167.02,-210.808 1126.54,-184.407 1089.17,-168 986.973,-123.133 858.878,-90.533 795.097,-75.7823"/>
<polygon fill="midnightblue" stroke="midnightblue" points="795.587,-72.3041 785.058,-73.4857 794.026,-79.1278 795.587,-72.3041"/>
</g>
</g>
</svg>
