<?xml version="1.0" encoding="UTF-8" standalone="no"?>
<!DOCTYPE svg PUBLIC "-//W3C//DTD SVG 1.1//EN"
 "http://www.w3.org/Graphics/SVG/1.1/DTD/svg11.dtd">
<!-- Generated by graphviz version 2.38.0 (20140413.2041)
 -->
<!-- Title: C:/dev/Igor/Igor/src/Igor/src/iPhysicsMaterialCombo.cpp Pages: 1 -->
<svg width="1497pt" height="431pt"
 viewBox="0.00 0.00 1497.00 431.00" xmlns="http://www.w3.org/2000/svg" xmlns:xlink="http://www.w3.org/1999/xlink">
<g id="graph0" class="graph" transform="scale(1 1) rotate(0) translate(4 427)">
<title>C:/dev/Igor/Igor/src/Igor/src/iPhysicsMaterialCombo.cpp</title>
<polygon fill="white" stroke="none" points="-4,4 -4,-427 1493,-427 1493,4 -4,4"/>
<!-- Node0 -->
<g id="node1" class="node"><title>Node0</title>
<g id="a_node1"><a xlink:title=" ">
<polygon fill="#bfbfbf" stroke="black" points="526,-392.5 526,-422.5 702,-422.5 702,-392.5 526,-392.5"/>
<text text-anchor="start" x="534" y="-410.5" font-family="Helvetica,sans-Serif" font-size="10.00">C:/dev/Igor/Igor/src</text>
<text text-anchor="middle" x="614" y="-399.5" font-family="Helvetica,sans-Serif" font-size="10.00">/Igor/src/iPhysicsMaterialCombo.cpp</text>
</a>
</g>
</g>
<!-- Node1 -->
<g id="node2" class="node"><title>Node1</title>
<g id="a_node2"><a xlink:href="i_physics_material_combo_8h.html" target="_top" xlink:title=" ">
<polygon fill="white" stroke="black" points="812,-280.5 812,-299.5 940,-299.5 940,-280.5 812,-280.5"/>
<text text-anchor="middle" x="876" y="-287.5" font-family="Helvetica,sans-Serif" font-size="10.00">iPhysicsMaterialCombo.h</text>
</a>
</g>
</g>
<!-- Node0&#45;&gt;Node1 -->
<g id="edge1" class="edge"><title>Node0&#45;&gt;Node1</title>
<path fill="none" stroke="midnightblue" d="M645.864,-392.453C697.281,-369.786 797.765,-325.489 847.171,-303.709"/>
<polygon fill="midnightblue" stroke="midnightblue" points="848.884,-306.779 856.623,-299.542 846.061,-300.374 848.884,-306.779"/>
</g>
<!-- Node16 -->
<g id="node17" class="node"><title>Node16</title>
<g id="a_node17"><a xlink:href="i_physics_material_8h.html" target="_top" xlink:title=" ">
<polygon fill="white" stroke="black" points="176.5,-224.5 176.5,-243.5 273.5,-243.5 273.5,-224.5 176.5,-224.5"/>
<text text-anchor="middle" x="225" y="-231.5" font-family="Helvetica,sans-Serif" font-size="10.00">iPhysicsMaterial.h</text>
</a>
</g>
</g>
<!-- Node0&#45;&gt;Node16 -->
<g id="edge21" class="edge"><title>Node0&#45;&gt;Node16</title>
<path fill="none" stroke="midnightblue" d="M537.354,-392.462C468.273,-377.346 365.892,-348.66 288,-300 267.691,-287.313 249.239,-266.701 237.628,-252.092"/>
<polygon fill="midnightblue" stroke="midnightblue" points="240.197,-249.692 231.327,-243.897 234.648,-253.958 240.197,-249.692"/>
</g>
<!-- Node17 -->
<g id="node18" class="node"><title>Node17</title>
<g id="a_node18"><a xlink:href="i_physics_8h.html" target="_top" xlink:title=" ">
<polygon fill="white" stroke="black" points="583,-336.5 583,-355.5 645,-355.5 645,-336.5 583,-336.5"/>
<text text-anchor="middle" x="614" y="-343.5" font-family="Helvetica,sans-Serif" font-size="10.00">iPhysics.h</text>
</a>
</g>
</g>
<!-- Node0&#45;&gt;Node17 -->
<g id="edge24" class="edge"><title>Node0&#45;&gt;Node17</title>
<path fill="none" stroke="midnightblue" d="M614,-392.399C614,-384.466 614,-374.458 614,-365.858"/>
<polygon fill="midnightblue" stroke="midnightblue" points="617.5,-365.658 614,-355.658 610.5,-365.658 617.5,-365.658"/>
</g>
<!-- Node2 -->
<g id="node3" class="node"><title>Node2</title>
<g id="a_node3"><a xlink:href="i_defines_8h.html" target="_top" xlink:title=" ">
<polygon fill="white" stroke="black" points="246.5,-112.5 246.5,-131.5 305.5,-131.5 305.5,-112.5 246.5,-112.5"/>
<text text-anchor="middle" x="276" y="-119.5" font-family="Helvetica,sans-Serif" font-size="10.00">iDefines.h</text>
</a>
</g>
</g>
<!-- Node1&#45;&gt;Node2 -->
<g id="edge2" class="edge"><title>Node1&#45;&gt;Node2</title>
<path fill="none" stroke="midnightblue" d="M811.802,-289.034C707.62,-286.511 497.994,-270.54 345,-188 322.48,-175.85 301.862,-154.481 289.143,-139.574"/>
<polygon fill="midnightblue" stroke="midnightblue" points="291.678,-137.146 282.613,-131.662 286.279,-141.602 291.678,-137.146"/>
</g>
<!-- Node4 -->
<g id="node5" class="node"><title>Node4</title>
<g id="a_node5"><a xlink:href="ia_event_8h.html" target="_top" xlink:title=" ">
<polygon fill="white" stroke="black" points="897,-224.5 897,-243.5 953,-243.5 953,-224.5 897,-224.5"/>
<text text-anchor="middle" x="925" y="-231.5" font-family="Helvetica,sans-Serif" font-size="10.00">iaEvent.h</text>
</a>
</g>
</g>
<!-- Node1&#45;&gt;Node4 -->
<g id="edge4" class="edge"><title>Node1&#45;&gt;Node4</title>
<path fill="none" stroke="midnightblue" d="M884.091,-280.083C891.155,-272.298 901.588,-260.801 910.149,-251.367"/>
<polygon fill="midnightblue" stroke="midnightblue" points="912.931,-253.509 917.059,-243.751 907.747,-248.805 912.931,-253.509"/>
</g>
<!-- Node14 -->
<g id="node15" class="node"><title>Node14</title>
<g id="a_node15"><a xlink:href="ia_string_8h.html" target="_top" xlink:title=" ">
<polygon fill="white" stroke="black" points="812,-168.5 812,-187.5 870,-187.5 870,-168.5 812,-168.5"/>
<text text-anchor="middle" x="841" y="-175.5" font-family="Helvetica,sans-Serif" font-size="10.00">iaString.h</text>
</a>
</g>
</g>
<!-- Node1&#45;&gt;Node14 -->
<g id="edge17" class="edge"><title>Node1&#45;&gt;Node14</title>
<path fill="none" stroke="midnightblue" d="M873.254,-280.368C867.58,-262.537 854.458,-221.295 846.814,-197.272"/>
<polygon fill="midnightblue" stroke="midnightblue" points="850.101,-196.059 843.734,-187.591 843.43,-198.182 850.101,-196.059"/>
</g>
<!-- Node3 -->
<g id="node4" class="node"><title>Node3</title>
<g id="a_node4"><a xlink:href="ia_defines_8h.html" target="_top" xlink:title=" ">
<polygon fill="white" stroke="black" points="827.5,-0.5 827.5,-19.5 892.5,-19.5 892.5,-0.5 827.5,-0.5"/>
<text text-anchor="middle" x="860" y="-7.5" font-family="Helvetica,sans-Serif" font-size="10.00">iaDefines.h</text>
</a>
</g>
</g>
<!-- Node2&#45;&gt;Node3 -->
<g id="edge3" class="edge"><title>Node2&#45;&gt;Node3</title>
<path fill="none" stroke="midnightblue" d="M305.085,-112.391C352.029,-98.7609 447.579,-72.1103 530,-56 632.404,-35.9839 754.41,-21.8267 817.501,-15.2143"/>
<polygon fill="midnightblue" stroke="midnightblue" points="817.89,-18.6927 827.476,-14.1803 817.169,-11.73 817.89,-18.6927"/>
</g>
<!-- Node5 -->
<g id="node6" class="node"><title>Node5</title>
<g id="a_node6"><a xlink:href="ia_mutex_8h.html" target="_top" xlink:title=" ">
<polygon fill="white" stroke="black" points="539.5,-56.5 539.5,-75.5 598.5,-75.5 598.5,-56.5 539.5,-56.5"/>
<text text-anchor="middle" x="569" y="-63.5" font-family="Helvetica,sans-Serif" font-size="10.00">iaMutex.h</text>
</a>
</g>
</g>
<!-- Node4&#45;&gt;Node5 -->
<g id="edge5" class="edge"><title>Node4&#45;&gt;Node5</title>
<path fill="none" stroke="midnightblue" d="M952.414,-224.448C985.83,-213.75 1038.55,-195.882 1044,-188 1049.05,-180.687 1049.59,-174.908 1044,-168 1016.31,-133.803 717.895,-88.2131 608.717,-72.5538"/>
<polygon fill="midnightblue" stroke="midnightblue" points="609.152,-69.0805 598.757,-71.1332 608.163,-76.0103 609.152,-69.0805"/>
</g>
<!-- Node6 -->
<g id="node7" class="node"><title>Node6</title>
<g id="a_node7"><a xlink:href="ia_delegate_8h.html" target="_top" xlink:title=" ">
<polygon fill="white" stroke="black" points="964.5,-168.5 964.5,-187.5 1035.5,-187.5 1035.5,-168.5 964.5,-168.5"/>
<text text-anchor="middle" x="1000" y="-175.5" font-family="Helvetica,sans-Serif" font-size="10.00">iaDelegate.h</text>
</a>
</g>
</g>
<!-- Node4&#45;&gt;Node6 -->
<g id="edge7" class="edge"><title>Node4&#45;&gt;Node6</title>
<path fill="none" stroke="midnightblue" d="M937.05,-224.324C948.463,-216.107 965.831,-203.602 979.435,-193.807"/>
<polygon fill="midnightblue" stroke="midnightblue" points="981.66,-196.517 987.731,-187.834 977.57,-190.837 981.66,-196.517"/>
</g>
<!-- Node7 -->
<g id="node8" class="node"><title>Node7</title>
<g id="a_node8"><a xlink:href="ia_console_8h.html" target="_top" xlink:title=" ">
<polygon fill="white" stroke="black" points="1092,-168.5 1092,-187.5 1160,-187.5 1160,-168.5 1092,-168.5"/>
<text text-anchor="middle" x="1126" y="-175.5" font-family="Helvetica,sans-Serif" font-size="10.00">iaConsole.h</text>
</a>
</g>
</g>
<!-- Node4&#45;&gt;Node7 -->
<g id="edge8" class="edge"><title>Node4&#45;&gt;Node7</title>
<path fill="none" stroke="midnightblue" d="M953.372,-225.378C987.517,-216.204 1045.14,-200.724 1084.34,-190.194"/>
<polygon fill="midnightblue" stroke="midnightblue" points="1085.37,-193.538 1094.12,-187.564 1083.56,-186.778 1085.37,-193.538"/>
</g>
<!-- Node13 -->
<g id="node14" class="node"><title>Node13</title>
<g id="a_node14"><a xlink:title=" ">
<polygon fill="white" stroke="#bfbfbf" points="723,-112.5 723,-131.5 765,-131.5 765,-112.5 723,-112.5"/>
<text text-anchor="middle" x="744" y="-119.5" font-family="Helvetica,sans-Serif" font-size="10.00">vector</text>
</a>
</g>
</g>
<!-- Node4&#45;&gt;Node13 -->
<g id="edge16" class="edge"><title>Node4&#45;&gt;Node13</title>
<path fill="none" stroke="midnightblue" d="M920.979,-224.064C914.255,-210.105 899.429,-183.157 879,-168 847.9,-144.925 804.272,-133.237 775.117,-127.642"/>
<polygon fill="midnightblue" stroke="midnightblue" points="775.541,-124.162 765.081,-125.847 774.308,-131.053 775.541,-124.162"/>
</g>
<!-- Node5&#45;&gt;Node3 -->
<g id="edge6" class="edge"><title>Node5&#45;&gt;Node3</title>
<path fill="none" stroke="midnightblue" d="M598.504,-59.525C650.272,-49.9186 757.633,-29.9959 817.436,-18.8985"/>
<polygon fill="midnightblue" stroke="midnightblue" points="818.124,-22.3307 827.317,-17.0648 816.847,-15.4482 818.124,-22.3307"/>
</g>
<!-- Node8 -->
<g id="node9" class="node"><title>Node8</title>
<g id="a_node9"><a xlink:href="ia_singleton_8h.html" target="_top" xlink:title=" ">
<polygon fill="white" stroke="black" points="564.5,-112.5 564.5,-131.5 637.5,-131.5 637.5,-112.5 564.5,-112.5"/>
<text text-anchor="middle" x="601" y="-119.5" font-family="Helvetica,sans-Serif" font-size="10.00">iaSingleton.h</text>
</a>
</g>
</g>
<!-- Node7&#45;&gt;Node8 -->
<g id="edge9" class="edge"><title>Node7&#45;&gt;Node8</title>
<path fill="none" stroke="midnightblue" d="M1091.7,-173.172C1077.01,-171.55 1059.67,-169.655 1044,-168 899.795,-152.762 729.074,-135.695 648.117,-127.66"/>
<polygon fill="midnightblue" stroke="midnightblue" points="648.063,-124.137 637.766,-126.633 647.372,-131.103 648.063,-124.137"/>
</g>
<!-- Node9 -->
<g id="node10" class="node"><title>Node9</title>
<g id="a_node10"><a xlink:href="ia_clock_8h.html" target="_top" xlink:title=" ">
<polygon fill="white" stroke="black" points="964.5,-56.5 964.5,-75.5 1021.5,-75.5 1021.5,-56.5 964.5,-56.5"/>
<text text-anchor="middle" x="993" y="-63.5" font-family="Helvetica,sans-Serif" font-size="10.00">iaClock.h</text>
</a>
</g>
</g>
<!-- Node7&#45;&gt;Node9 -->
<g id="edge11" class="edge"><title>Node7&#45;&gt;Node9</title>
<path fill="none" stroke="midnightblue" d="M1091.97,-170.179C1056.58,-162.311 1004.72,-148.341 993,-132 983.45,-118.687 984.732,-99.5677 987.632,-85.51"/>
<polygon fill="midnightblue" stroke="midnightblue" points="991.097,-86.0793 990.128,-75.5289 984.306,-84.381 991.097,-86.0793"/>
</g>
<!-- Node10 -->
<g id="node11" class="node"><title>Node10</title>
<g id="a_node11"><a xlink:title=" ">
<polygon fill="white" stroke="#bfbfbf" points="1074.5,-112.5 1074.5,-131.5 1123.5,-131.5 1123.5,-112.5 1074.5,-112.5"/>
<text text-anchor="middle" x="1099" y="-119.5" font-family="Helvetica,sans-Serif" font-size="10.00">fstream</text>
</a>
</g>
</g>
<!-- Node7&#45;&gt;Node10 -->
<g id="edge13" class="edge"><title>Node7&#45;&gt;Node10</title>
<path fill="none" stroke="midnightblue" d="M1121.54,-168.083C1117.85,-160.691 1112.48,-149.953 1107.91,-140.811"/>
<polygon fill="midnightblue" stroke="midnightblue" points="1110.98,-139.13 1103.38,-131.751 1104.72,-142.261 1110.98,-139.13"/>
</g>
<!-- Node11 -->
<g id="node12" class="node"><title>Node11</title>
<g id="a_node12"><a xlink:title=" ">
<polygon fill="white" stroke="#bfbfbf" points="1002,-112.5 1002,-131.5 1056,-131.5 1056,-112.5 1002,-112.5"/>
<text text-anchor="middle" x="1029" y="-119.5" font-family="Helvetica,sans-Serif" font-size="10.00">iostream</text>
</a>
</g>
</g>
<!-- Node7&#45;&gt;Node11 -->
<g id="edge14" class="edge"><title>Node7&#45;&gt;Node11</title>
<path fill="none" stroke="midnightblue" d="M1110.42,-168.324C1095,-159.743 1071.19,-146.486 1053.29,-136.522"/>
<polygon fill="midnightblue" stroke="midnightblue" points="1054.99,-133.461 1044.55,-131.655 1051.58,-139.577 1054.99,-133.461"/>
</g>
<!-- Node12 -->
<g id="node13" class="node"><title>Node12</title>
<g id="a_node13"><a xlink:title=" ">
<polygon fill="white" stroke="#bfbfbf" points="1142,-112.5 1142,-131.5 1192,-131.5 1192,-112.5 1142,-112.5"/>
<text text-anchor="middle" x="1167" y="-119.5" font-family="Helvetica,sans-Serif" font-size="10.00">iomanip</text>
</a>
</g>
</g>
<!-- Node7&#45;&gt;Node12 -->
<g id="edge15" class="edge"><title>Node7&#45;&gt;Node12</title>
<path fill="none" stroke="midnightblue" d="M1132.77,-168.083C1138.56,-160.455 1147.06,-149.264 1154.14,-139.941"/>
<polygon fill="midnightblue" stroke="midnightblue" points="1157.1,-141.832 1160.36,-131.751 1151.52,-137.599 1157.1,-141.832"/>
</g>
<!-- Node8&#45;&gt;Node5 -->
<g id="edge10" class="edge"><title>Node8&#45;&gt;Node5</title>
<path fill="none" stroke="midnightblue" d="M595.716,-112.083C591.289,-104.613 584.837,-93.7244 579.382,-84.5199"/>
<polygon fill="midnightblue" stroke="midnightblue" points="582.295,-82.5697 574.186,-75.7511 576.273,-86.1383 582.295,-82.5697"/>
</g>
<!-- Node9&#45;&gt;Node3 -->
<g id="edge12" class="edge"><title>Node9&#45;&gt;Node3</title>
<path fill="none" stroke="midnightblue" d="M971.926,-56.4435C949.94,-47.5171 915.266,-33.4387 890.336,-23.3168"/>
<polygon fill="midnightblue" stroke="midnightblue" points="891.558,-20.0355 880.976,-19.5164 888.924,-26.5213 891.558,-20.0355"/>
</g>
<!-- Node14&#45;&gt;Node3 -->
<g id="edge18" class="edge"><title>Node14&#45;&gt;Node3</title>
<path fill="none" stroke="midnightblue" d="M842.022,-168.075C845.012,-141.945 853.795,-65.2106 857.874,-29.577"/>
<polygon fill="midnightblue" stroke="midnightblue" points="861.359,-29.9013 859.019,-19.5681 854.405,-29.1052 861.359,-29.9013"/>
</g>
<!-- Node14&#45;&gt;Node13 -->
<g id="edge20" class="edge"><title>Node14&#45;&gt;Node13</title>
<path fill="none" stroke="midnightblue" d="M825.415,-168.324C810.001,-159.743 786.188,-146.486 768.29,-136.522"/>
<polygon fill="midnightblue" stroke="midnightblue" points="769.986,-133.461 759.546,-131.655 766.581,-139.577 769.986,-133.461"/>
</g>
<!-- Node15 -->
<g id="node16" class="node"><title>Node15</title>
<g id="a_node16"><a xlink:title=" ">
<polygon fill="white" stroke="#bfbfbf" points="1092,-0.5 1092,-19.5 1144,-19.5 1144,-0.5 1092,-0.5"/>
<text text-anchor="middle" x="1118" y="-7.5" font-family="Helvetica,sans-Serif" font-size="10.00">ostream</text>
</a>
</g>
</g>
<!-- Node14&#45;&gt;Node15 -->
<g id="edge19" class="edge"><title>Node14&#45;&gt;Node15</title>
<path fill="none" stroke="midnightblue" d="M845.789,-168.142C859.639,-142.834 900.142,-71.0594 922,-56 970.37,-22.6746 1039.82,-13.7161 1081.75,-11.4902"/>
<polygon fill="midnightblue" stroke="midnightblue" points="1081.94,-14.9851 1091.78,-11.0587 1081.64,-7.99154 1081.94,-14.9851"/>
</g>
<!-- Node16&#45;&gt;Node2 -->
<g id="edge22" class="edge"><title>Node16&#45;&gt;Node2</title>
<path fill="none" stroke="midnightblue" d="M214.418,-224.433C200.21,-211.853 178.053,-187.735 190,-168 200.235,-151.093 219.142,-140.233 236.627,-133.427"/>
<polygon fill="midnightblue" stroke="midnightblue" points="237.879,-136.697 246.13,-130.051 235.536,-130.101 237.879,-136.697"/>
</g>
<!-- Node16&#45;&gt;Node14 -->
<g id="edge23" class="edge"><title>Node16&#45;&gt;Node14</title>
<path fill="none" stroke="midnightblue" d="M273.825,-229.502C368.607,-222.586 584.118,-206.241 765,-188 776.963,-186.794 789.964,-185.316 801.776,-183.909"/>
<polygon fill="midnightblue" stroke="midnightblue" points="802.285,-187.373 811.793,-182.699 801.446,-180.423 802.285,-187.373"/>
</g>
<!-- Node17&#45;&gt;Node8 -->
<g id="edge63" class="edge"><title>Node17&#45;&gt;Node8</title>
<path fill="none" stroke="midnightblue" d="M587.945,-336.425C504.024,-308.554 244.944,-220.459 223,-188 218.021,-180.636 217.098,-174.647 223,-168 244.673,-143.594 457.995,-130.058 554.275,-125.149"/>
<polygon fill="midnightblue" stroke="midnightblue" points="554.505,-128.642 564.318,-124.647 554.155,-121.651 554.505,-128.642"/>
</g>
<!-- Node17&#45;&gt;Node13 -->
<g id="edge66" class="edge"><title>Node17&#45;&gt;Node13</title>
<path fill="none" stroke="midnightblue" d="M632.214,-336.452C647.905,-328.497 670.557,-315.548 687,-300 731.075,-258.323 746.833,-245.875 765,-188 770.038,-171.951 763.046,-153.732 755.809,-140.674"/>
<polygon fill="midnightblue" stroke="midnightblue" points="758.608,-138.542 750.421,-131.817 752.627,-142.179 758.608,-138.542"/>
</g>
<!-- Node18 -->
<g id="node19" class="node"><title>Node18</title>
<g id="a_node19"><a xlink:href="i_physics_body_8h.html" target="_top" xlink:title=" ">
<polygon fill="white" stroke="black" points="571.5,-280.5 571.5,-299.5 656.5,-299.5 656.5,-280.5 571.5,-280.5"/>
<text text-anchor="middle" x="614" y="-287.5" font-family="Helvetica,sans-Serif" font-size="10.00">iPhysicsBody.h</text>
</a>
</g>
</g>
<!-- Node17&#45;&gt;Node18 -->
<g id="edge25" class="edge"><title>Node17&#45;&gt;Node18</title>
<path fill="none" stroke="midnightblue" d="M614,-336.083C614,-329.006 614,-318.861 614,-309.986"/>
<polygon fill="midnightblue" stroke="midnightblue" points="617.5,-309.751 614,-299.751 610.5,-309.751 617.5,-309.751"/>
</g>
<!-- Node21 -->
<g id="node22" class="node"><title>Node21</title>
<g id="a_node22"><a xlink:href="ia_matrix_8h.html" target="_top" xlink:title=" ">
<polygon fill="white" stroke="black" points="1178.5,-168.5 1178.5,-187.5 1237.5,-187.5 1237.5,-168.5 1178.5,-168.5"/>
<text text-anchor="middle" x="1208" y="-175.5" font-family="Helvetica,sans-Serif" font-size="10.00">iaMatrix.h</text>
</a>
</g>
</g>
<!-- Node17&#45;&gt;Node21 -->
<g id="edge64" class="edge"><title>Node17&#45;&gt;Node21</title>
<path fill="none" stroke="midnightblue" d="M645.134,-343.957C705.104,-341.265 840.321,-331.874 949,-300 1040.62,-273.128 1140.81,-218.31 1184.94,-192.724"/>
<polygon fill="midnightblue" stroke="midnightblue" points="1186.86,-195.657 1193.73,-187.587 1183.33,-189.614 1186.86,-195.657"/>
</g>
<!-- Node29 -->
<g id="node30" class="node"><title>Node29</title>
<g id="a_node30"><a xlink:title=" ">
<polygon fill="white" stroke="#bfbfbf" points="704,-168.5 704,-187.5 756,-187.5 756,-168.5 704,-168.5"/>
<text text-anchor="middle" x="730" y="-175.5" font-family="Helvetica,sans-Serif" font-size="10.00">memory</text>
</a>
</g>
</g>
<!-- Node17&#45;&gt;Node29 -->
<g id="edge65" class="edge"><title>Node17&#45;&gt;Node29</title>
<path fill="none" stroke="midnightblue" d="M626.027,-336.372C637.121,-327.987 653.555,-314.434 665,-300 691.198,-266.958 712.217,-221.83 722.712,-197.079"/>
<polygon fill="midnightblue" stroke="midnightblue" points="726.072,-198.112 726.663,-187.534 719.604,-195.435 726.072,-198.112"/>
</g>
<!-- Node30 -->
<g id="node31" class="node"><title>Node30</title>
<g id="a_node31"><a xlink:title=" ">
<polygon fill="white" stroke="#bfbfbf" points="232.5,-168.5 232.5,-187.5 267.5,-187.5 267.5,-168.5 232.5,-168.5"/>
<text text-anchor="middle" x="250" y="-175.5" font-family="Helvetica,sans-Serif" font-size="10.00">map</text>
</a>
</g>
</g>
<!-- Node17&#45;&gt;Node30 -->
<g id="edge67" class="edge"><title>Node17&#45;&gt;Node30</title>
<path fill="none" stroke="midnightblue" d="M582.937,-342.863C490.366,-335.787 219.529,-309.722 167,-244 147.306,-219.359 191.748,-198.436 222.896,-187.392"/>
<polygon fill="midnightblue" stroke="midnightblue" points="224.093,-190.682 232.443,-184.162 221.849,-184.052 224.093,-190.682"/>
</g>
<!-- Node31 -->
<g id="node32" class="node"><title>Node31</title>
<g id="a_node32"><a xlink:href="i_physics_world_8h.html" target="_top" xlink:title=" ">
<polygon fill="white" stroke="black" points="0,-168.5 0,-187.5 88,-187.5 88,-168.5 0,-168.5"/>
<text text-anchor="middle" x="44" y="-175.5" font-family="Helvetica,sans-Serif" font-size="10.00">iPhysicsWorld.h</text>
</a>
</g>
</g>
<!-- Node17&#45;&gt;Node31 -->
<g id="edge60" class="edge"><title>Node17&#45;&gt;Node31</title>
<path fill="none" stroke="midnightblue" d="M582.761,-343.222C502.944,-338.382 293.226,-323.727 228,-300 160.018,-275.271 92.0126,-220.997 61.1556,-194.361"/>
<polygon fill="midnightblue" stroke="midnightblue" points="63.2972,-191.584 53.4683,-187.628 58.6853,-196.85 63.2972,-191.584"/>
</g>
<!-- Node18&#45;&gt;Node2 -->
<g id="edge26" class="edge"><title>Node18&#45;&gt;Node2</title>
<path fill="none" stroke="midnightblue" d="M571.429,-287.895C464.982,-284.696 193.845,-273.683 167,-244 152.322,-227.77 164.032,-190.556 183,-168 196.861,-151.517 218.179,-140.597 236.908,-133.647"/>
<polygon fill="midnightblue" stroke="midnightblue" points="238.103,-136.937 246.414,-130.366 235.819,-130.32 238.103,-136.937"/>
</g>
<!-- Node18&#45;&gt;Node4 -->
<g id="edge56" class="edge"><title>Node18&#45;&gt;Node4</title>
<path fill="none" stroke="midnightblue" d="M656.591,-281.605C717.482,-271.032 828.487,-251.758 886.835,-241.627"/>
<polygon fill="midnightblue" stroke="midnightblue" points="887.499,-245.064 896.753,-239.905 886.302,-238.167 887.499,-245.064"/>
</g>
<!-- Node18&#45;&gt;Node5 -->
<g id="edge58" class="edge"><title>Node18&#45;&gt;Node5</title>
<path fill="none" stroke="midnightblue" d="M571.443,-283.52C518.679,-274.193 430.848,-249.793 391,-188 353.113,-129.249 465.666,-91.7462 529.01,-75.8122"/>
<polygon fill="midnightblue" stroke="midnightblue" points="530.212,-79.1219 539.097,-73.3517 528.553,-72.3213 530.212,-79.1219"/>
</g>
<!-- Node18&#45;&gt;Node16 -->
<g id="edge55" class="edge"><title>Node18&#45;&gt;Node16</title>
<path fill="none" stroke="midnightblue" d="M571.257,-283.067C501.464,-273.378 362.906,-254.144 283.863,-243.171"/>
<polygon fill="midnightblue" stroke="midnightblue" points="283.975,-239.653 273.588,-241.745 283.012,-246.587 283.975,-239.653"/>
</g>
<!-- Node19 -->
<g id="node20" class="node"><title>Node19</title>
<g id="a_node20"><a xlink:href="i_node_8h.html" target="_top" xlink:title=" ">
<polygon fill="white" stroke="black" points="589,-224.5 589,-243.5 639,-243.5 639,-224.5 589,-224.5"/>
<text text-anchor="middle" x="614" y="-231.5" font-family="Helvetica,sans-Serif" font-size="10.00">iNode.h</text>
</a>
</g>
</g>
<!-- Node18&#45;&gt;Node19 -->
<g id="edge27" class="edge"><title>Node18&#45;&gt;Node19</title>
<path fill="none" stroke="midnightblue" d="M614,-280.083C614,-273.006 614,-262.861 614,-253.986"/>
<polygon fill="midnightblue" stroke="midnightblue" points="617.5,-253.751 614,-243.751 610.5,-253.751 617.5,-253.751"/>
</g>
<!-- Node18&#45;&gt;Node21 -->
<g id="edge57" class="edge"><title>Node18&#45;&gt;Node21</title>
<path fill="none" stroke="midnightblue" d="M656.606,-285.288C722.492,-279.143 852.896,-265.375 962,-244 1036.87,-229.332 1122.69,-204.869 1170.6,-190.505"/>
<polygon fill="midnightblue" stroke="midnightblue" points="1171.67,-193.839 1180.24,-187.6 1169.65,-187.137 1171.67,-193.839"/>
</g>
<!-- Node18&#45;&gt;Node29 -->
<g id="edge59" class="edge"><title>Node18&#45;&gt;Node29</title>
<path fill="none" stroke="midnightblue" d="M623.102,-280.368C642.584,-261.894 688.564,-218.293 713.398,-194.744"/>
<polygon fill="midnightblue" stroke="midnightblue" points="716.092,-197.012 720.94,-187.591 711.275,-191.933 716.092,-197.012"/>
</g>
<!-- Node19&#45;&gt;Node2 -->
<g id="edge32" class="edge"><title>Node19&#45;&gt;Node2</title>
<path fill="none" stroke="midnightblue" d="M588.878,-230.539C546.83,-225.852 460.021,-213.727 391,-188 355.87,-174.906 318.711,-152.029 296.44,-137.203"/>
<polygon fill="midnightblue" stroke="midnightblue" points="298.371,-134.284 288.127,-131.58 294.45,-140.082 298.371,-134.284"/>
</g>
<!-- Node19&#45;&gt;Node5 -->
<g id="edge47" class="edge"><title>Node19&#45;&gt;Node5</title>
<path fill="none" stroke="midnightblue" d="M595.016,-224.398C581.114,-216.954 563.286,-204.741 555,-188 538.494,-154.651 551.293,-109.981 560.91,-85.308"/>
<polygon fill="midnightblue" stroke="midnightblue" points="564.267,-86.3479 564.865,-75.7699 557.801,-83.6666 564.267,-86.3479"/>
</g>
<!-- Node19&#45;&gt;Node13 -->
<g id="edge52" class="edge"><title>Node19&#45;&gt;Node13</title>
<path fill="none" stroke="midnightblue" d="M624.201,-224.368C646.224,-205.733 698.462,-161.532 726.115,-138.134"/>
<polygon fill="midnightblue" stroke="midnightblue" points="728.473,-140.723 733.847,-131.591 723.952,-135.379 728.473,-140.723"/>
</g>
<!-- Node19&#45;&gt;Node14 -->
<g id="edge33" class="edge"><title>Node19&#45;&gt;Node14</title>
<path fill="none" stroke="midnightblue" d="M639.16,-227.015C678.629,-217.626 755.394,-199.364 802.042,-188.268"/>
<polygon fill="midnightblue" stroke="midnightblue" points="802.879,-191.666 811.797,-185.947 801.259,-184.856 802.879,-191.666"/>
</g>
<!-- Node19&#45;&gt;Node15 -->
<g id="edge51" class="edge"><title>Node19&#45;&gt;Node15</title>
<path fill="none" stroke="midnightblue" d="M639.236,-231.433C697.689,-227.381 840.322,-214.935 879,-188 934.553,-149.314 901.474,-97.4454 955,-56 991.918,-27.4139 1045.88,-16.9782 1081.46,-13.1739"/>
<polygon fill="midnightblue" stroke="midnightblue" points="1082.24,-16.6157 1091.87,-12.1934 1081.58,-9.6465 1082.24,-16.6157"/>
</g>
<!-- Node20 -->
<g id="node21" class="node"><title>Node20</title>
<g id="a_node21"><a xlink:href="i_data_update_queue_8h.html" target="_top" xlink:title=" ">
<polygon fill="white" stroke="black" points="400.5,-168.5 400.5,-187.5 507.5,-187.5 507.5,-168.5 400.5,-168.5"/>
<text text-anchor="middle" x="454" y="-175.5" font-family="Helvetica,sans-Serif" font-size="10.00">iDataUpdateQueue.h</text>
</a>
</g>
</g>
<!-- Node19&#45;&gt;Node20 -->
<g id="edge28" class="edge"><title>Node19&#45;&gt;Node20</title>
<path fill="none" stroke="midnightblue" d="M588.648,-224.444C561.731,-215.359 519.004,-200.939 488.913,-190.783"/>
<polygon fill="midnightblue" stroke="midnightblue" points="489.828,-187.398 479.234,-187.516 487.59,-194.031 489.828,-187.398"/>
</g>
<!-- Node19&#45;&gt;Node21 -->
<g id="edge34" class="edge"><title>Node19&#45;&gt;Node21</title>
<path fill="none" stroke="midnightblue" d="M639.045,-232.27C716.373,-229.745 958.281,-219.798 1168.3,-187.867"/>
<polygon fill="midnightblue" stroke="midnightblue" points="1168.93,-191.312 1178.28,-186.33 1167.86,-184.394 1168.93,-191.312"/>
</g>
<!-- Node28 -->
<g id="node29" class="node"><title>Node28</title>
<g id="a_node29"><a xlink:href="ia_i_d_generator_8h.html" target="_top" xlink:title=" ">
<polygon fill="white" stroke="black" points="564,-168.5 564,-187.5 648,-187.5 648,-168.5 564,-168.5"/>
<text text-anchor="middle" x="606" y="-175.5" font-family="Helvetica,sans-Serif" font-size="10.00">iaIDGenerator.h</text>
</a>
</g>
</g>
<!-- Node19&#45;&gt;Node28 -->
<g id="edge48" class="edge"><title>Node19&#45;&gt;Node28</title>
<path fill="none" stroke="midnightblue" d="M612.679,-224.083C611.619,-216.927 610.094,-206.635 608.769,-197.691"/>
<polygon fill="midnightblue" stroke="midnightblue" points="612.224,-197.13 607.296,-187.751 605.3,-198.156 612.224,-197.13"/>
</g>
<!-- Node19&#45;&gt;Node29 -->
<g id="edge53" class="edge"><title>Node19&#45;&gt;Node29</title>
<path fill="none" stroke="midnightblue" d="M632.381,-224.444C651.216,-215.675 680.731,-201.935 702.379,-191.858"/>
<polygon fill="midnightblue" stroke="midnightblue" points="704.117,-194.91 711.705,-187.516 701.162,-188.564 704.117,-194.91"/>
</g>
<!-- Node19&#45;&gt;Node30 -->
<g id="edge54" class="edge"><title>Node19&#45;&gt;Node30</title>
<path fill="none" stroke="midnightblue" d="M588.981,-229.288C523.269,-219.54 346.139,-193.262 277.603,-183.095"/>
<polygon fill="midnightblue" stroke="midnightblue" points="277.975,-179.612 267.57,-181.607 276.948,-186.536 277.975,-179.612"/>
</g>
<!-- Node20&#45;&gt;Node2 -->
<g id="edge29" class="edge"><title>Node20&#45;&gt;Node2</title>
<path fill="none" stroke="midnightblue" d="M425.795,-168.444C395.59,-159.28 347.489,-144.688 313.971,-134.519"/>
<polygon fill="midnightblue" stroke="midnightblue" points="314.658,-131.07 304.073,-131.516 312.626,-137.769 314.658,-131.07"/>
</g>
<!-- Node20&#45;&gt;Node5 -->
<g id="edge30" class="edge"><title>Node20&#45;&gt;Node5</title>
<path fill="none" stroke="midnightblue" d="M463.024,-168.368C482.338,-149.894 527.921,-106.293 552.541,-82.7436"/>
<polygon fill="midnightblue" stroke="midnightblue" points="555.211,-85.0329 560.018,-75.5914 550.372,-79.9744 555.211,-85.0329"/>
</g>
<!-- Node20&#45;&gt;Node13 -->
<g id="edge31" class="edge"><title>Node20&#45;&gt;Node13</title>
<path fill="none" stroke="midnightblue" d="M499.951,-168.444C559.444,-157.366 661.55,-138.353 712.772,-128.815"/>
<polygon fill="midnightblue" stroke="midnightblue" points="713.706,-132.201 722.897,-126.93 712.425,-125.319 713.706,-132.201"/>
</g>
<!-- Node21&#45;&gt;Node10 -->
<g id="edge42" class="edge"><title>Node21&#45;&gt;Node10</title>
<path fill="none" stroke="midnightblue" d="M1190.49,-168.324C1172.93,-159.625 1145.67,-146.12 1125.47,-136.113"/>
<polygon fill="midnightblue" stroke="midnightblue" points="1126.98,-132.958 1116.47,-131.655 1123.88,-139.23 1126.98,-132.958"/>
</g>
<!-- Node21&#45;&gt;Node12 -->
<g id="edge45" class="edge"><title>Node21&#45;&gt;Node12</title>
<path fill="none" stroke="midnightblue" d="M1201.23,-168.083C1195.44,-160.455 1186.94,-149.264 1179.86,-139.941"/>
<polygon fill="midnightblue" stroke="midnightblue" points="1182.48,-137.599 1173.64,-131.751 1176.9,-141.832 1182.48,-137.599"/>
</g>
<!-- Node21&#45;&gt;Node15 -->
<g id="edge44" class="edge"><title>Node21&#45;&gt;Node15</title>
<path fill="none" stroke="midnightblue" d="M1233.03,-168.383C1259.99,-157.594 1297.23,-137.403 1283,-112 1255.53,-62.9752 1193.48,-34.8893 1153.79,-21.3139"/>
<polygon fill="midnightblue" stroke="midnightblue" points="1154.81,-17.9645 1144.22,-18.1712 1152.63,-24.6154 1154.81,-17.9645"/>
</g>
<!-- Node22 -->
<g id="node23" class="node"><title>Node22</title>
<g id="a_node23"><a xlink:href="ia_vector4_8h.html" target="_top" xlink:title=" ">
<polygon fill="white" stroke="black" points="1330,-112.5 1330,-131.5 1396,-131.5 1396,-112.5 1330,-112.5"/>
<text text-anchor="middle" x="1363" y="-119.5" font-family="Helvetica,sans-Serif" font-size="10.00">iaVector4.h</text>
</a>
</g>
</g>
<!-- Node21&#45;&gt;Node22 -->
<g id="edge35" class="edge"><title>Node21&#45;&gt;Node22</title>
<path fill="none" stroke="midnightblue" d="M1232.56,-168.444C1258.52,-159.399 1299.67,-145.064 1328.8,-134.916"/>
<polygon fill="midnightblue" stroke="midnightblue" points="1330.26,-138.112 1338.55,-131.516 1327.96,-131.501 1330.26,-138.112"/>
</g>
<!-- Node24 -->
<g id="node25" class="node"><title>Node24</title>
<g id="a_node25"><a xlink:title=" ">
<polygon fill="white" stroke="#bfbfbf" points="1445,-0.5 1445,-19.5 1489,-19.5 1489,-0.5 1445,-0.5"/>
<text text-anchor="middle" x="1467" y="-7.5" font-family="Helvetica,sans-Serif" font-size="10.00">cmath</text>
</a>
</g>
</g>
<!-- Node21&#45;&gt;Node24 -->
<g id="edge43" class="edge"><title>Node21&#45;&gt;Node24</title>
<path fill="none" stroke="midnightblue" d="M1237.77,-176.366C1278.57,-174.202 1352.73,-165.523 1405,-132 1441.15,-108.816 1457.23,-57.4723 1463.51,-29.703"/>
<polygon fill="midnightblue" stroke="midnightblue" points="1466.98,-30.204 1465.58,-19.7028 1460.13,-28.7887 1466.98,-30.204"/>
</g>
<!-- Node27 -->
<g id="node28" class="node"><title>Node27</title>
<g id="a_node28"><a xlink:href="ia_matrix_8inl.html" target="_top" xlink:title=" ">
<polygon fill="white" stroke="black" points="1210,-112.5 1210,-131.5 1274,-131.5 1274,-112.5 1210,-112.5"/>
<text text-anchor="middle" x="1242" y="-119.5" font-family="Helvetica,sans-Serif" font-size="10.00">iaMatrix.inl</text>
</a>
</g>
</g>
<!-- Node21&#45;&gt;Node27 -->
<g id="edge46" class="edge"><title>Node21&#45;&gt;Node27</title>
<path fill="none" stroke="midnightblue" d="M1213.61,-168.083C1218.37,-160.534 1225.32,-149.495 1231.15,-140.23"/>
<polygon fill="midnightblue" stroke="midnightblue" points="1234.12,-142.078 1236.49,-131.751 1228.2,-138.349 1234.12,-142.078"/>
</g>
<!-- Node23 -->
<g id="node24" class="node"><title>Node23</title>
<g id="a_node24"><a xlink:href="ia_vector3_8h.html" target="_top" xlink:title=" ">
<polygon fill="white" stroke="black" points="1373,-56.5 1373,-75.5 1439,-75.5 1439,-56.5 1373,-56.5"/>
<text text-anchor="middle" x="1406" y="-63.5" font-family="Helvetica,sans-Serif" font-size="10.00">iaVector3.h</text>
</a>
</g>
</g>
<!-- Node22&#45;&gt;Node23 -->
<g id="edge36" class="edge"><title>Node22&#45;&gt;Node23</title>
<path fill="none" stroke="midnightblue" d="M1370.1,-112.083C1376.24,-104.377 1385.27,-93.0333 1392.74,-83.6531"/>
<polygon fill="midnightblue" stroke="midnightblue" points="1395.54,-85.7542 1399.03,-75.7511 1390.06,-81.3936 1395.54,-85.7542"/>
</g>
<!-- Node26 -->
<g id="node27" class="node"><title>Node26</title>
<g id="a_node27"><a xlink:href="ia_vector4_8inl.html" target="_top" xlink:title=" ">
<polygon fill="white" stroke="black" points="1283.5,-56.5 1283.5,-75.5 1354.5,-75.5 1354.5,-56.5 1283.5,-56.5"/>
<text text-anchor="middle" x="1319" y="-63.5" font-family="Helvetica,sans-Serif" font-size="10.00">iaVector4.inl</text>
</a>
</g>
</g>
<!-- Node22&#45;&gt;Node26 -->
<g id="edge41" class="edge"><title>Node22&#45;&gt;Node26</title>
<path fill="none" stroke="midnightblue" d="M1355.73,-112.083C1349.46,-104.377 1340.21,-93.0333 1332.57,-83.6531"/>
<polygon fill="midnightblue" stroke="midnightblue" points="1335.16,-81.2926 1326.13,-75.7511 1329.73,-85.7143 1335.16,-81.2926"/>
</g>
<!-- Node23&#45;&gt;Node3 -->
<g id="edge37" class="edge"><title>Node23&#45;&gt;Node3</title>
<path fill="none" stroke="midnightblue" d="M1372.73,-57.636C1369.45,-57.0308 1366.17,-56.4717 1363,-56 1193.42,-30.7562 989.414,-17.821 902.527,-13.1197"/>
<polygon fill="midnightblue" stroke="midnightblue" points="902.693,-9.62373 892.521,-12.5869 902.321,-16.6138 902.693,-9.62373"/>
</g>
<!-- Node23&#45;&gt;Node15 -->
<g id="edge39" class="edge"><title>Node23&#45;&gt;Node15</title>
<path fill="none" stroke="midnightblue" d="M1372.68,-57.9418C1369.41,-57.2747 1366.14,-56.6175 1363,-56 1288.87,-41.4373 1201.83,-25.7961 1154.02,-17.3288"/>
<polygon fill="midnightblue" stroke="midnightblue" points="1154.6,-13.878 1144.15,-15.584 1153.39,-20.7712 1154.6,-13.878"/>
</g>
<!-- Node23&#45;&gt;Node24 -->
<g id="edge38" class="edge"><title>Node23&#45;&gt;Node24</title>
<path fill="none" stroke="midnightblue" d="M1415.8,-56.324C1424.82,-48.3414 1438.41,-36.3128 1449.32,-26.6529"/>
<polygon fill="midnightblue" stroke="midnightblue" points="1451.85,-29.083 1457.02,-19.8339 1447.21,-23.8416 1451.85,-29.083"/>
</g>
<!-- Node25 -->
<g id="node26" class="node"><title>Node25</title>
<g id="a_node26"><a xlink:href="ia_vector3_8inl.html" target="_top" xlink:title=" ">
<polygon fill="white" stroke="black" points="1355.5,-0.5 1355.5,-19.5 1426.5,-19.5 1426.5,-0.5 1355.5,-0.5"/>
<text text-anchor="middle" x="1391" y="-7.5" font-family="Helvetica,sans-Serif" font-size="10.00">iaVector3.inl</text>
</a>
</g>
</g>
<!-- Node23&#45;&gt;Node25 -->
<g id="edge40" class="edge"><title>Node23&#45;&gt;Node25</title>
<path fill="none" stroke="midnightblue" d="M1403.52,-56.083C1401.51,-48.8486 1398.61,-38.4087 1396.11,-29.3968"/>
<polygon fill="midnightblue" stroke="midnightblue" points="1399.48,-28.4495 1393.43,-19.7511 1392.74,-30.323 1399.48,-28.4495"/>
</g>
<!-- Node28&#45;&gt;Node5 -->
<g id="edge49" class="edge"><title>Node28&#45;&gt;Node5</title>
<path fill="none" stroke="midnightblue" d="M617.883,-168.479C633.545,-156.154 657.805,-132.572 646,-112 637.385,-96.9862 621.609,-86.5036 606.57,-79.4579"/>
<polygon fill="midnightblue" stroke="midnightblue" points="607.942,-76.2378 597.372,-75.5053 605.178,-82.6691 607.942,-76.2378"/>
</g>
<!-- Node28&#45;&gt;Node13 -->
<g id="edge50" class="edge"><title>Node28&#45;&gt;Node13</title>
<path fill="none" stroke="midnightblue" d="M627.867,-168.444C650.914,-159.425 687.402,-145.147 713.322,-135.004"/>
<polygon fill="midnightblue" stroke="midnightblue" points="714.652,-138.242 722.689,-131.339 712.101,-131.724 714.652,-138.242"/>
</g>
<!-- Node31&#45;&gt;Node2 -->
<g id="edge61" class="edge"><title>Node31&#45;&gt;Node2</title>
<path fill="none" stroke="midnightblue" d="M80.7611,-168.444C123.226,-158.56 192.828,-142.359 236.443,-132.207"/>
<polygon fill="midnightblue" stroke="midnightblue" points="237.458,-135.565 246.404,-129.889 235.871,-128.747 237.458,-135.565"/>
</g>
<!-- Node31&#45;&gt;Node5 -->
<g id="edge62" class="edge"><title>Node31&#45;&gt;Node5</title>
<path fill="none" stroke="midnightblue" d="M65.0361,-168.438C100.098,-154.505 172.966,-126.979 237,-112 340.867,-87.7034 466.297,-75.1241 529.093,-69.943"/>
<polygon fill="midnightblue" stroke="midnightblue" points="529.66,-73.4088 539.346,-69.1172 529.098,-66.4314 529.66,-73.4088"/>
</g>
</g>
</svg>
