<?xml version="1.0" encoding="UTF-8" standalone="no"?>
<!DOCTYPE svg PUBLIC "-//W3C//DTD SVG 1.1//EN"
 "http://www.w3.org/Graphics/SVG/1.1/DTD/svg11.dtd">
<!-- Generated by graphviz version 2.38.0 (20140413.2041)
 -->
<!-- Title: C:/dev/Igor/src/Igor/src/iPhysicsUserMeshCollisionHandler.h Pages: 1 -->
<svg width="280pt" height="128pt"
 viewBox="0.00 0.00 279.50 128.00" xmlns="http://www.w3.org/2000/svg" xmlns:xlink="http://www.w3.org/1999/xlink">
<g id="graph0" class="graph" transform="scale(1 1) rotate(0) translate(4 124)">
<title>C:/dev/Igor/src/Igor/src/iPhysicsUserMeshCollisionHandler.h</title>
<polygon fill="white" stroke="none" points="-4,4 -4,-124 275.5,-124 275.5,4 -4,4"/>
<!-- Node1 -->
<g id="node1" class="node"><title>Node1</title>
<polygon fill="#bfbfbf" stroke="black" points="43.5,-78.5 43.5,-119.5 198.5,-119.5 198.5,-78.5 43.5,-78.5"/>
<text text-anchor="start" x="51.5" y="-107.5" font-family="Helvetica,sans-Serif" font-size="10.00">C:/dev/Igor/src/Igor</text>
<text text-anchor="start" x="51.5" y="-96.5" font-family="Helvetica,sans-Serif" font-size="10.00">/src/iPhysicsUserMeshCollision</text>
<text text-anchor="middle" x="121" y="-85.5" font-family="Helvetica,sans-Serif" font-size="10.00">Handler.h</text>
</g>
<!-- Node2 -->
<g id="node2" class="node"><title>Node2</title>
<g id="a_node2"><a xlink:href="i_physics_8cpp.html" target="_top" xlink:title="C:/dev/Igor/src/Igor\l/src/iPhysics.cpp">
<polygon fill="white" stroke="black" points="0,-6 0,-36 98,-36 98,-6 0,-6"/>
<text text-anchor="start" x="8" y="-24" font-family="Helvetica,sans-Serif" font-size="10.00">C:/dev/Igor/src/Igor</text>
<text text-anchor="middle" x="49" y="-13" font-family="Helvetica,sans-Serif" font-size="10.00">/src/iPhysics.cpp</text>
</a>
</g>
</g>
<!-- Node1&#45;&gt;Node2 -->
<g id="edge1" class="edge"><title>Node1&#45;&gt;Node2</title>
<path fill="none" stroke="midnightblue" d="M95.4112,-70.9896C84.2938,-59.2546 71.7271,-45.9897 62.4766,-36.2254"/>
<polygon fill="midnightblue" stroke="midnightblue" points="93.0399,-73.5757 102.458,-78.4281 98.1216,-68.7614 93.0399,-73.5757"/>
</g>
<!-- Node3 -->
<g id="node3" class="node"><title>Node3</title>
<g id="a_node3"><a xlink:href="i_physics_user_mesh_collision_handler_8cpp.html" target="_top" xlink:title="C:/dev/Igor/src/Igor\l/src/iPhysicsUserMeshCollision\lHandler.cpp">
<polygon fill="white" stroke="black" points="116.5,-0.5 116.5,-41.5 271.5,-41.5 271.5,-0.5 116.5,-0.5"/>
<text text-anchor="start" x="124.5" y="-29.5" font-family="Helvetica,sans-Serif" font-size="10.00">C:/dev/Igor/src/Igor</text>
<text text-anchor="start" x="124.5" y="-18.5" font-family="Helvetica,sans-Serif" font-size="10.00">/src/iPhysicsUserMeshCollision</text>
<text text-anchor="middle" x="194" y="-7.5" font-family="Helvetica,sans-Serif" font-size="10.00">Handler.cpp</text>
</a>
</g>
</g>
<!-- Node1&#45;&gt;Node3 -->
<g id="edge2" class="edge"><title>Node1&#45;&gt;Node3</title>
<path fill="none" stroke="midnightblue" d="M146.738,-71.204C156.14,-61.416 166.588,-50.5388 175.264,-41.5056"/>
<polygon fill="midnightblue" stroke="midnightblue" points="144.202,-68.7915 139.799,-78.4281 149.251,-73.6407 144.202,-68.7915"/>
</g>
</g>
</svg>
