<?xml version="1.0" encoding="UTF-8" standalone="no"?>
<!DOCTYPE svg PUBLIC "-//W3C//DTD SVG 1.1//EN"
 "http://www.w3.org/Graphics/SVG/1.1/DTD/svg11.dtd">
<!-- Generated by graphviz version 2.38.0 (20140413.2041)
 -->
<!-- Title: C:/dev/Igor/Igor/src/Igor/src/iPhysicsBody.h Pages: 1 -->
<svg width="2956pt" height="184pt"
 viewBox="0.00 0.00 2955.50 184.00" xmlns="http://www.w3.org/2000/svg" xmlns:xlink="http://www.w3.org/1999/xlink">
<g id="graph0" class="graph" transform="scale(1 1) rotate(0) translate(4 180)">
<title>C:/dev/Igor/Igor/src/Igor/src/iPhysicsBody.h</title>
<polygon fill="white" stroke="none" points="-4,4 -4,-180 2951.5,-180 2951.5,4 -4,4"/>
<!-- Node28 -->
<g id="node1" class="node"><title>Node28</title>
<g id="a_node1"><a xlink:title=" ">
<polygon fill="#bfbfbf" stroke="black" points="2132,-145.5 2132,-175.5 2255,-175.5 2255,-145.5 2132,-145.5"/>
<text text-anchor="start" x="2140" y="-163.5" font-family="Helvetica,sans-Serif" font-size="10.00">C:/dev/Igor/Igor/src</text>
<text text-anchor="middle" x="2193.5" y="-152.5" font-family="Helvetica,sans-Serif" font-size="10.00">/Igor/src/iPhysicsBody.h</text>
</a>
</g>
</g>
<!-- Node29 -->
<g id="node2" class="node"><title>Node29</title>
<g id="a_node2"><a xlink:href="i_node_physics_8h.html" target="_top" xlink:title=" ">
<polygon fill="white" stroke="black" points="233,-78.5 233,-108.5 356,-108.5 356,-78.5 233,-78.5"/>
<text text-anchor="start" x="241" y="-96.5" font-family="Helvetica,sans-Serif" font-size="10.00">C:/dev/Igor/Igor/src</text>
<text text-anchor="middle" x="294.5" y="-85.5" font-family="Helvetica,sans-Serif" font-size="10.00">/Igor/src/iNodePhysics.h</text>
</a>
</g>
</g>
<!-- Node28&#45;&gt;Node29 -->
<g id="edge1" class="edge"><title>Node28&#45;&gt;Node29</title>
<path fill="none" stroke="midnightblue" d="M2121.93,-157.05C1818.38,-146.66 639.91,-106.323 356.195,-96.6117"/>
<polygon fill="midnightblue" stroke="midnightblue" points="2121.82,-160.548 2131.93,-157.393 2122.06,-153.553 2121.82,-160.548"/>
</g>
<!-- Node33 -->
<g id="node6" class="node"><title>Node33</title>
<g id="a_node6"><a xlink:href="i_physics_8cpp.html" target="_top" xlink:title=" ">
<polygon fill="white" stroke="black" points="2688,-6 2688,-36 2799,-36 2799,-6 2688,-6"/>
<text text-anchor="start" x="2696" y="-24" font-family="Helvetica,sans-Serif" font-size="10.00">C:/dev/Igor/Igor/src</text>
<text text-anchor="middle" x="2743.5" y="-13" font-family="Helvetica,sans-Serif" font-size="10.00">/Igor/src/iPhysics.cpp</text>
</a>
</g>
</g>
<!-- Node28&#45;&gt;Node33 -->
<g id="edge5" class="edge"><title>Node28&#45;&gt;Node33</title>
<path fill="none" stroke="midnightblue" d="M2265.49,-158.618C2381.79,-156.093 2604.94,-146.37 2673.5,-109 2704.14,-92.2997 2726.3,-56.0727 2736.76,-36.0348"/>
<polygon fill="midnightblue" stroke="midnightblue" points="2265.18,-155.124 2255.26,-158.828 2265.33,-162.122 2265.18,-155.124"/>
</g>
<!-- Node34 -->
<g id="node7" class="node"><title>Node34</title>
<g id="a_node7"><a xlink:href="i_physics_8h.html" target="_top" xlink:title=" ">
<polygon fill="white" stroke="black" points="1666,-78.5 1666,-108.5 1767,-108.5 1767,-78.5 1666,-78.5"/>
<text text-anchor="start" x="1674" y="-96.5" font-family="Helvetica,sans-Serif" font-size="10.00">C:/dev/Igor/Igor/src</text>
<text text-anchor="middle" x="1716.5" y="-85.5" font-family="Helvetica,sans-Serif" font-size="10.00">/Igor/src/iPhysics.h</text>
</a>
</g>
</g>
<!-- Node28&#45;&gt;Node34 -->
<g id="edge6" class="edge"><title>Node28&#45;&gt;Node34</title>
<path fill="none" stroke="midnightblue" d="M2121.57,-149.698C2024.09,-136.415 1852.47,-113.028 1767.34,-101.428"/>
<polygon fill="midnightblue" stroke="midnightblue" points="2121.25,-153.187 2131.63,-151.069 2122.19,-146.251 2121.25,-153.187"/>
</g>
<!-- Node37 -->
<g id="node10" class="node"><title>Node37</title>
<g id="a_node10"><a xlink:href="i_physics_body_8cpp.html" target="_top" xlink:title=" ">
<polygon fill="white" stroke="black" points="454.5,-6 454.5,-36 588.5,-36 588.5,-6 454.5,-6"/>
<text text-anchor="start" x="462.5" y="-24" font-family="Helvetica,sans-Serif" font-size="10.00">C:/dev/Igor/Igor/src</text>
<text text-anchor="middle" x="521.5" y="-13" font-family="Helvetica,sans-Serif" font-size="10.00">/Igor/src/iPhysicsBody.cpp</text>
</a>
</g>
</g>
<!-- Node28&#45;&gt;Node37 -->
<g id="edge24" class="edge"><title>Node28&#45;&gt;Node37</title>
<path fill="none" stroke="midnightblue" d="M2121.7,-158.9C1895.82,-156.014 1180.13,-139.26 597.5,-42 588.349,-40.4724 578.697,-38.3452 569.456,-36.0447"/>
<polygon fill="midnightblue" stroke="midnightblue" points="2121.72,-162.4 2131.77,-159.023 2121.81,-155.401 2121.72,-162.4"/>
</g>
<!-- Node49 -->
<g id="node22" class="node"><title>Node49</title>
<g id="a_node22"><a xlink:href="i_voxel_terrain_8cpp.html" target="_top" xlink:title=" ">
<polygon fill="white" stroke="black" points="2817.5,-6 2817.5,-36 2947.5,-36 2947.5,-6 2817.5,-6"/>
<text text-anchor="start" x="2825.5" y="-24" font-family="Helvetica,sans-Serif" font-size="10.00">C:/dev/Igor/Igor/src</text>
<text text-anchor="middle" x="2882.5" y="-13" font-family="Helvetica,sans-Serif" font-size="10.00">/Igor/src/iVoxelTerrain.cpp</text>
</a>
</g>
</g>
<!-- Node28&#45;&gt;Node49 -->
<g id="edge28" class="edge"><title>Node28&#45;&gt;Node49</title>
<path fill="none" stroke="midnightblue" d="M2265.14,-160.423C2365.53,-159.935 2552.9,-152.482 2705.5,-109 2764.61,-92.1577 2827.85,-56.1612 2860.36,-36.1517"/>
<polygon fill="midnightblue" stroke="midnightblue" points="2265.1,-156.923 2255.11,-160.45 2265.12,-163.923 2265.1,-156.923"/>
</g>
<!-- Node50 -->
<g id="node23" class="node"><title>Node50</title>
<g id="a_node23"><a xlink:href="i_physics_player_8h.html" target="_top" xlink:title=" ">
<polygon fill="white" stroke="black" points="2536.5,-78.5 2536.5,-108.5 2664.5,-108.5 2664.5,-78.5 2536.5,-78.5"/>
<text text-anchor="start" x="2544.5" y="-96.5" font-family="Helvetica,sans-Serif" font-size="10.00">C:/dev/Igor/Igor/src</text>
<text text-anchor="middle" x="2600.5" y="-85.5" font-family="Helvetica,sans-Serif" font-size="10.00">/Igor/src/iPhysicsPlayer.h</text>
</a>
</g>
</g>
<!-- Node28&#45;&gt;Node50 -->
<g id="edge25" class="edge"><title>Node28&#45;&gt;Node50</title>
<path fill="none" stroke="midnightblue" d="M2265.39,-148.02C2342.18,-135.755 2462.77,-116.497 2536.42,-104.734"/>
<polygon fill="midnightblue" stroke="midnightblue" points="2264.64,-144.595 2255.31,-149.628 2265.74,-151.507 2264.64,-144.595"/>
</g>
<!-- Node30 -->
<g id="node3" class="node"><title>Node30</title>
<g id="a_node3"><a xlink:href="i_node_factory_8cpp.html" target="_top" xlink:title=" ">
<polygon fill="white" stroke="black" points="153,-6 153,-36 284,-36 284,-6 153,-6"/>
<text text-anchor="start" x="161" y="-24" font-family="Helvetica,sans-Serif" font-size="10.00">C:/dev/Igor/Igor/src</text>
<text text-anchor="middle" x="218.5" y="-13" font-family="Helvetica,sans-Serif" font-size="10.00">/Igor/src/iNodeFactory.cpp</text>
</a>
</g>
</g>
<!-- Node29&#45;&gt;Node30 -->
<g id="edge2" class="edge"><title>Node29&#45;&gt;Node30</title>
<path fill="none" stroke="midnightblue" d="M271.473,-71.139C259.187,-59.7429 244.417,-46.0414 233.597,-36.0049"/>
<polygon fill="midnightblue" stroke="midnightblue" points="269.409,-73.9984 279.12,-78.2333 274.169,-68.8664 269.409,-73.9984"/>
</g>
<!-- Node31 -->
<g id="node4" class="node"><title>Node31</title>
<g id="a_node4"><a xlink:href="i_node_physics_8cpp.html" target="_top" xlink:title=" ">
<polygon fill="white" stroke="black" points="302.5,-6 302.5,-36 436.5,-36 436.5,-6 302.5,-6"/>
<text text-anchor="start" x="310.5" y="-24" font-family="Helvetica,sans-Serif" font-size="10.00">C:/dev/Igor/Igor/src</text>
<text text-anchor="middle" x="369.5" y="-13" font-family="Helvetica,sans-Serif" font-size="10.00">/Igor/src/iNodePhysics.cpp</text>
</a>
</g>
</g>
<!-- Node29&#45;&gt;Node31 -->
<g id="edge3" class="edge"><title>Node29&#45;&gt;Node31</title>
<path fill="none" stroke="midnightblue" d="M317.224,-71.139C329.348,-59.7429 343.924,-46.0414 354.601,-36.0049"/>
<polygon fill="midnightblue" stroke="midnightblue" points="314.566,-68.8339 309.677,-78.2333 319.361,-73.9343 314.566,-68.8339"/>
</g>
<!-- Node32 -->
<g id="node5" class="node"><title>Node32</title>
<g id="a_node5"><a xlink:href="i_voxel_terrain_mesh_generator_8cpp.html" target="_top" xlink:title=" ">
<polygon fill="white" stroke="black" points="0,-0.5 0,-41.5 135,-41.5 135,-0.5 0,-0.5"/>
<text text-anchor="start" x="8" y="-29.5" font-family="Helvetica,sans-Serif" font-size="10.00">C:/dev/Igor/Igor/src</text>
<text text-anchor="start" x="8" y="-18.5" font-family="Helvetica,sans-Serif" font-size="10.00">/Igor/src/iVoxelTerrainMesh</text>
<text text-anchor="middle" x="67.5" y="-7.5" font-family="Helvetica,sans-Serif" font-size="10.00">Generator.cpp</text>
</a>
</g>
</g>
<!-- Node29&#45;&gt;Node32 -->
<g id="edge4" class="edge"><title>Node29&#45;&gt;Node32</title>
<path fill="none" stroke="midnightblue" d="M239.491,-75.4157C206.634,-65.2111 164.777,-52.2117 130.583,-41.5919"/>
<polygon fill="midnightblue" stroke="midnightblue" points="238.793,-78.8636 249.381,-78.4872 240.869,-72.1786 238.793,-78.8636"/>
</g>
<!-- Node34&#45;&gt;Node31 -->
<g id="edge9" class="edge"><title>Node34&#45;&gt;Node31</title>
<path fill="none" stroke="midnightblue" d="M1655.91,-91.8391C1436.42,-89.1727 683.333,-77.5844 445.5,-42 436.055,-40.5868 426.092,-38.4511 416.602,-36.0936"/>
<polygon fill="midnightblue" stroke="midnightblue" points="1655.91,-95.3392 1665.96,-91.9593 1656,-88.3397 1655.91,-95.3392"/>
</g>
<!-- Node34&#45;&gt;Node33 -->
<g id="edge10" class="edge"><title>Node34&#45;&gt;Node33</title>
<path fill="none" stroke="midnightblue" d="M1777.44,-91.2596C1960.61,-87.2224 2504.24,-72.8958 2678.5,-42 2686.64,-40.5572 2695.19,-38.4081 2703.31,-36.0467"/>
<polygon fill="midnightblue" stroke="midnightblue" points="1777.11,-87.766 1767.19,-91.4832 1777.26,-94.7643 1777.11,-87.766"/>
</g>
<!-- Node35 -->
<g id="node8" class="node"><title>Node35</title>
<g id="a_node8"><a xlink:href="i_application_8cpp.html" target="_top" xlink:title=" ">
<polygon fill="white" stroke="black" points="1455.5,-6 1455.5,-36 1579.5,-36 1579.5,-6 1455.5,-6"/>
<text text-anchor="start" x="1463.5" y="-24" font-family="Helvetica,sans-Serif" font-size="10.00">C:/dev/Igor/Igor/src</text>
<text text-anchor="middle" x="1517.5" y="-13" font-family="Helvetica,sans-Serif" font-size="10.00">/Igor/src/iApplication.cpp</text>
</a>
</g>
</g>
<!-- Node34&#45;&gt;Node35 -->
<g id="edge7" class="edge"><title>Node34&#45;&gt;Node35</title>
<path fill="none" stroke="midnightblue" d="M1667,-74.9645C1633.12,-62.9622 1588.79,-47.2576 1557.22,-36.0729"/>
<polygon fill="midnightblue" stroke="midnightblue" points="1666.11,-78.3624 1676.71,-78.4027 1668.45,-71.7642 1666.11,-78.3624"/>
</g>
<!-- Node36 -->
<g id="node9" class="node"><title>Node36</title>
<g id="a_node9"><a xlink:href="_igor_8cpp.html" target="_top" xlink:title=" ">
<polygon fill="white" stroke="black" points="1597.5,-6 1597.5,-36 1695.5,-36 1695.5,-6 1597.5,-6"/>
<text text-anchor="start" x="1605.5" y="-24" font-family="Helvetica,sans-Serif" font-size="10.00">C:/dev/Igor/Igor/src</text>
<text text-anchor="middle" x="1646.5" y="-13" font-family="Helvetica,sans-Serif" font-size="10.00">/Igor/src/Igor.cpp</text>
</a>
</g>
</g>
<!-- Node34&#45;&gt;Node36 -->
<g id="edge8" class="edge"><title>Node34&#45;&gt;Node36</title>
<path fill="none" stroke="midnightblue" d="M1695.02,-70.8641C1683.85,-59.6142 1670.51,-46.1786 1660.64,-36.2455"/>
<polygon fill="midnightblue" stroke="midnightblue" points="1692.8,-73.6031 1702.33,-78.2333 1697.77,-68.671 1692.8,-73.6031"/>
</g>
<!-- Node34&#45;&gt;Node37 -->
<g id="edge11" class="edge"><title>Node34&#45;&gt;Node37</title>
<path fill="none" stroke="midnightblue" d="M1655.87,-91.4592C1453.78,-87.7243 804.298,-73.5107 597.5,-42 588.058,-40.5613 578.098,-38.4141 568.608,-36.0533"/>
<polygon fill="midnightblue" stroke="midnightblue" points="1655.94,-94.9609 1666,-91.6445 1656.07,-87.9621 1655.94,-94.9609"/>
</g>
<!-- Node38 -->
<g id="node11" class="node"><title>Node38</title>
<g id="a_node11"><a xlink:href="i_physics_collision_8cpp.html" target="_top" xlink:title=" ">
<polygon fill="white" stroke="black" points="1713.5,-6 1713.5,-36 1861.5,-36 1861.5,-6 1713.5,-6"/>
<text text-anchor="start" x="1721.5" y="-24" font-family="Helvetica,sans-Serif" font-size="10.00">C:/dev/Igor/Igor/src</text>
<text text-anchor="middle" x="1787.5" y="-13" font-family="Helvetica,sans-Serif" font-size="10.00">/Igor/src/iPhysicsCollision.cpp</text>
</a>
</g>
</g>
<!-- Node34&#45;&gt;Node38 -->
<g id="edge12" class="edge"><title>Node34&#45;&gt;Node38</title>
<path fill="none" stroke="midnightblue" d="M1738.29,-70.8641C1749.62,-59.6142 1763.15,-46.1786 1773.15,-36.2455"/>
<polygon fill="midnightblue" stroke="midnightblue" points="1735.5,-68.7036 1730.87,-78.2333 1740.43,-73.6708 1735.5,-68.7036"/>
</g>
<!-- Node39 -->
<g id="node12" class="node"><title>Node39</title>
<g id="a_node12"><a xlink:href="i_physics_collision_config_8cpp.html" target="_top" xlink:title=" ">
<polygon fill="white" stroke="black" points="1880,-0.5 1880,-41.5 2009,-41.5 2009,-0.5 1880,-0.5"/>
<text text-anchor="start" x="1888" y="-29.5" font-family="Helvetica,sans-Serif" font-size="10.00">C:/dev/Igor/Igor/src</text>
<text text-anchor="start" x="1888" y="-18.5" font-family="Helvetica,sans-Serif" font-size="10.00">/Igor/src/iPhysicsCollision</text>
<text text-anchor="middle" x="1944.5" y="-7.5" font-family="Helvetica,sans-Serif" font-size="10.00">Config.cpp</text>
</a>
</g>
</g>
<!-- Node34&#45;&gt;Node39 -->
<g id="edge13" class="edge"><title>Node34&#45;&gt;Node39</title>
<path fill="none" stroke="midnightblue" d="M1771.75,-75.4157C1804.75,-65.2111 1846.79,-52.2117 1881.14,-41.5919"/>
<polygon fill="midnightblue" stroke="midnightblue" points="1770.34,-72.1892 1761.82,-78.4872 1772.41,-78.8768 1770.34,-72.1892"/>
</g>
<!-- Node40 -->
<g id="node13" class="node"><title>Node40</title>
<g id="a_node13"><a xlink:href="i_physics_joint_8cpp.html" target="_top" xlink:title=" ">
<polygon fill="white" stroke="black" points="2027,-6 2027,-36 2158,-36 2158,-6 2027,-6"/>
<text text-anchor="start" x="2035" y="-24" font-family="Helvetica,sans-Serif" font-size="10.00">C:/dev/Igor/Igor/src</text>
<text text-anchor="middle" x="2092.5" y="-13" font-family="Helvetica,sans-Serif" font-size="10.00">/Igor/src/iPhysicsJoint.cpp</text>
</a>
</g>
</g>
<!-- Node34&#45;&gt;Node40 -->
<g id="edge14" class="edge"><title>Node34&#45;&gt;Node40</title>
<path fill="none" stroke="midnightblue" d="M1777.33,-84.0167C1838.36,-75.1025 1934.89,-59.9025 2017.5,-42 2025.67,-40.2304 2034.27,-38.1449 2042.63,-36.0002"/>
<polygon fill="midnightblue" stroke="midnightblue" points="1776.5,-80.6006 1767.11,-85.5 1777.5,-87.5281 1776.5,-80.6006"/>
</g>
<!-- Node41 -->
<g id="node14" class="node"><title>Node41</title>
<g id="a_node14"><a xlink:href="i_physics_joint_up_vector_8cpp.html" target="_top" xlink:title=" ">
<polygon fill="white" stroke="black" points="2176.5,-6 2176.5,-36 2348.5,-36 2348.5,-6 2176.5,-6"/>
<text text-anchor="start" x="2184.5" y="-24" font-family="Helvetica,sans-Serif" font-size="10.00">C:/dev/Igor/Igor/src</text>
<text text-anchor="middle" x="2262.5" y="-13" font-family="Helvetica,sans-Serif" font-size="10.00">/Igor/src/iPhysicsJointUpVector.cpp</text>
</a>
</g>
</g>
<!-- Node34&#45;&gt;Node41 -->
<g id="edge15" class="edge"><title>Node34&#45;&gt;Node41</title>
<path fill="none" stroke="midnightblue" d="M1777.51,-87.4789C1864.27,-79.9253 2028.12,-64.1289 2166.5,-42 2177.17,-40.2929 2188.46,-38.2021 2199.4,-36.0231"/>
<polygon fill="midnightblue" stroke="midnightblue" points="1776.99,-84.0115 1767.32,-88.3591 1777.59,-90.9856 1776.99,-84.0115"/>
</g>
<!-- Node42 -->
<g id="node15" class="node"><title>Node42</title>
<g id="a_node15"><a xlink:href="i_physics_material_8cpp.html" target="_top" xlink:title=" ">
<polygon fill="white" stroke="black" points="2366.5,-6 2366.5,-36 2512.5,-36 2512.5,-6 2366.5,-6"/>
<text text-anchor="start" x="2374.5" y="-24" font-family="Helvetica,sans-Serif" font-size="10.00">C:/dev/Igor/Igor/src</text>
<text text-anchor="middle" x="2439.5" y="-13" font-family="Helvetica,sans-Serif" font-size="10.00">/Igor/src/iPhysicsMaterial.cpp</text>
</a>
</g>
</g>
<!-- Node34&#45;&gt;Node42 -->
<g id="edge16" class="edge"><title>Node34&#45;&gt;Node42</title>
<path fill="none" stroke="midnightblue" d="M1777.4,-90.9559C1891.75,-87.3376 2146.13,-75.8774 2357.5,-42 2367.19,-40.4463 2377.43,-38.3359 2387.26,-36.0666"/>
<polygon fill="midnightblue" stroke="midnightblue" points="1776.99,-87.4666 1767.1,-91.2723 1777.21,-94.4633 1776.99,-87.4666"/>
</g>
<!-- Node43 -->
<g id="node16" class="node"><title>Node43</title>
<g id="a_node16"><a xlink:href="i_physics_material_combo_8cpp.html" target="_top" xlink:title=" ">
<polygon fill="white" stroke="black" points="606.5,-6 606.5,-36 782.5,-36 782.5,-6 606.5,-6"/>
<text text-anchor="start" x="614.5" y="-24" font-family="Helvetica,sans-Serif" font-size="10.00">C:/dev/Igor/Igor/src</text>
<text text-anchor="middle" x="694.5" y="-13" font-family="Helvetica,sans-Serif" font-size="10.00">/Igor/src/iPhysicsMaterialCombo.cpp</text>
</a>
</g>
</g>
<!-- Node34&#45;&gt;Node43 -->
<g id="edge17" class="edge"><title>Node34&#45;&gt;Node43</title>
<path fill="none" stroke="midnightblue" d="M1655.61,-92.3007C1507.21,-91.1368 1115.28,-83.9803 791.5,-42 779.82,-40.4855 767.445,-38.3496 755.584,-36.0332"/>
<polygon fill="midnightblue" stroke="midnightblue" points="1655.85,-95.8024 1665.87,-92.3746 1655.9,-88.8026 1655.85,-95.8024"/>
</g>
<!-- Node44 -->
<g id="node17" class="node"><title>Node44</title>
<g id="a_node17"><a xlink:href="i_physics_player_8cpp.html" target="_top" xlink:title=" ">
<polygon fill="white" stroke="black" points="2531,-6 2531,-36 2670,-36 2670,-6 2531,-6"/>
<text text-anchor="start" x="2539" y="-24" font-family="Helvetica,sans-Serif" font-size="10.00">C:/dev/Igor/Igor/src</text>
<text text-anchor="middle" x="2600.5" y="-13" font-family="Helvetica,sans-Serif" font-size="10.00">/Igor/src/iPhysicsPlayer.cpp</text>
</a>
</g>
</g>
<!-- Node34&#45;&gt;Node44 -->
<g id="edge18" class="edge"><title>Node34&#45;&gt;Node44</title>
<path fill="none" stroke="midnightblue" d="M1777.38,-92.5156C1912.25,-91.714 2246.1,-85.1173 2521.5,-42 2531.14,-40.49 2541.33,-38.341 2551.06,-36.0073"/>
<polygon fill="midnightblue" stroke="midnightblue" points="1777.23,-89.0162 1767.25,-92.567 1777.26,-96.0161 1777.23,-89.0162"/>
</g>
<!-- Node45 -->
<g id="node18" class="node"><title>Node45</title>
<g id="a_node18"><a xlink:href="i_physics_user_mesh_collision_handler_8cpp.html" target="_top" xlink:title=" ">
<polygon fill="white" stroke="black" points="801,-0.5 801,-41.5 974,-41.5 974,-0.5 801,-0.5"/>
<text text-anchor="start" x="809" y="-29.5" font-family="Helvetica,sans-Serif" font-size="10.00">C:/dev/Igor/Igor/src</text>
<text text-anchor="start" x="809" y="-18.5" font-family="Helvetica,sans-Serif" font-size="10.00">/Igor/src/iPhysicsUserMeshCollision</text>
<text text-anchor="middle" x="887.5" y="-7.5" font-family="Helvetica,sans-Serif" font-size="10.00">Handler.cpp</text>
</a>
</g>
</g>
<!-- Node34&#45;&gt;Node45 -->
<g id="edge19" class="edge"><title>Node34&#45;&gt;Node45</title>
<path fill="none" stroke="midnightblue" d="M1655.76,-91.1696C1529.7,-87.7835 1230.77,-76.5038 982.5,-42 979.745,-41.6172 976.951,-41.2006 974.134,-40.7563"/>
<polygon fill="midnightblue" stroke="midnightblue" points="1655.88,-94.674 1665.97,-91.4368 1656.07,-87.6764 1655.88,-94.674"/>
</g>
<!-- Node46 -->
<g id="node19" class="node"><title>Node46</title>
<g id="a_node19"><a xlink:href="i_physics_world_8cpp.html" target="_top" xlink:title=" ">
<polygon fill="white" stroke="black" points="992,-6 992,-36 1129,-36 1129,-6 992,-6"/>
<text text-anchor="start" x="1000" y="-24" font-family="Helvetica,sans-Serif" font-size="10.00">C:/dev/Igor/Igor/src</text>
<text text-anchor="middle" x="1060.5" y="-13" font-family="Helvetica,sans-Serif" font-size="10.00">/Igor/src/iPhysicsWorld.cpp</text>
</a>
</g>
</g>
<!-- Node34&#45;&gt;Node46 -->
<g id="edge20" class="edge"><title>Node34&#45;&gt;Node46</title>
<path fill="none" stroke="midnightblue" d="M1655.61,-90.5344C1549.63,-86.3703 1324.67,-74.2381 1137.5,-42 1128.38,-40.4293 1118.76,-38.3108 1109.53,-36.0389"/>
<polygon fill="midnightblue" stroke="midnightblue" points="1655.67,-94.0392 1665.79,-90.9244 1655.94,-87.0443 1655.67,-94.0392"/>
</g>
<!-- Node47 -->
<g id="node20" class="node"><title>Node47</title>
<g id="a_node20"><a xlink:href="i_task_prepare_collision_8cpp.html" target="_top" xlink:title=" ">
<polygon fill="white" stroke="black" points="1147,-6 1147,-36 1314,-36 1314,-6 1147,-6"/>
<text text-anchor="start" x="1155" y="-24" font-family="Helvetica,sans-Serif" font-size="10.00">C:/dev/Igor/Igor/src</text>
<text text-anchor="middle" x="1230.5" y="-13" font-family="Helvetica,sans-Serif" font-size="10.00">/Igor/src/iTaskPrepareCollision.cpp</text>
</a>
</g>
</g>
<!-- Node34&#45;&gt;Node47 -->
<g id="edge21" class="edge"><title>Node34&#45;&gt;Node47</title>
<path fill="none" stroke="midnightblue" d="M1655.84,-86.3741C1578.26,-78.1621 1439.9,-62.2447 1322.5,-42 1312.51,-40.2778 1301.97,-38.2167 1291.72,-36.0819"/>
<polygon fill="midnightblue" stroke="midnightblue" points="1655.6,-89.8684 1665.91,-87.4333 1656.33,-82.9068 1655.6,-89.8684"/>
</g>
<!-- Node48 -->
<g id="node21" class="node"><title>Node48</title>
<g id="a_node21"><a xlink:href="i_thread_8cpp.html" target="_top" xlink:title=" ">
<polygon fill="white" stroke="black" points="1332,-6 1332,-36 1437,-36 1437,-6 1332,-6"/>
<text text-anchor="start" x="1340" y="-24" font-family="Helvetica,sans-Serif" font-size="10.00">C:/dev/Igor/Igor/src</text>
<text text-anchor="middle" x="1384.5" y="-13" font-family="Helvetica,sans-Serif" font-size="10.00">/Igor/src/iThread.cpp</text>
</a>
</g>
</g>
<!-- Node34&#45;&gt;Node48 -->
<g id="edge22" class="edge"><title>Node34&#45;&gt;Node48</title>
<path fill="none" stroke="midnightblue" d="M1655.88,-83.4253C1600.85,-74.6515 1517.65,-60.051 1446.5,-42 1439.7,-40.2755 1432.56,-38.2133 1425.64,-36.0779"/>
<polygon fill="midnightblue" stroke="midnightblue" points="1655.4,-86.8922 1665.82,-84.9952 1656.49,-79.9779 1655.4,-86.8922"/>
</g>
<!-- Node34&#45;&gt;Node49 -->
<g id="edge23" class="edge"><title>Node34&#45;&gt;Node49</title>
<path fill="none" stroke="midnightblue" d="M1777.27,-91.4011C1976.18,-87.5353 2606.5,-73.0842 2807.5,-42 2816.82,-40.5584 2826.65,-38.4098 2836.02,-36.0486"/>
<polygon fill="midnightblue" stroke="midnightblue" points="1776.94,-87.9067 1767.01,-91.5985 1777.08,-94.9054 1776.94,-87.9067"/>
</g>
<!-- Node50&#45;&gt;Node33 -->
<g id="edge26" class="edge"><title>Node50&#45;&gt;Node33</title>
<path fill="none" stroke="midnightblue" d="M2638.28,-73.873C2662.32,-62.0226 2692.95,-46.9215 2714.96,-36.0729"/>
<polygon fill="midnightblue" stroke="midnightblue" points="2636.52,-70.8415 2629.09,-78.4027 2639.61,-77.12 2636.52,-70.8415"/>
</g>
<!-- Node50&#45;&gt;Node44 -->
<g id="edge27" class="edge"><title>Node50&#45;&gt;Node44</title>
<path fill="none" stroke="midnightblue" d="M2600.5,-68.2317C2600.5,-57.5679 2600.5,-45.4145 2600.5,-36.2455"/>
<polygon fill="midnightblue" stroke="midnightblue" points="2597,-68.2332 2600.5,-78.2333 2604,-68.2333 2597,-68.2332"/>
</g>
</g>
</svg>
