<?xml version="1.0" encoding="UTF-8" standalone="no"?>
<!DOCTYPE svg PUBLIC "-//W3C//DTD SVG 1.1//EN"
 "http://www.w3.org/Graphics/SVG/1.1/DTD/svg11.dtd">
<!-- Generated by graphviz version 2.38.0 (20140413.2041)
 -->
<!-- Title: C:/dev/Igor/src/Igor/src/iPixmap.h Pages: 1 -->
<svg width="360pt" height="151pt"
 viewBox="0.00 0.00 360.00 151.00" xmlns="http://www.w3.org/2000/svg" xmlns:xlink="http://www.w3.org/1999/xlink">
<g id="graph0" class="graph" transform="scale(1 1) rotate(0) translate(4 147)">
<title>C:/dev/Igor/src/Igor/src/iPixmap.h</title>
<polygon fill="white" stroke="none" points="-4,4 -4,-147 356,-147 356,4 -4,4"/>
<!-- Node1 -->
<g id="node1" class="node"><title>Node1</title>
<polygon fill="#bfbfbf" stroke="black" points="98,-112.5 98,-142.5 196,-142.5 196,-112.5 98,-112.5"/>
<text text-anchor="start" x="106" y="-130.5" font-family="Helvetica,sans-Serif" font-size="10.00">C:/dev/Igor/src/Igor</text>
<text text-anchor="middle" x="147" y="-119.5" font-family="Helvetica,sans-Serif" font-size="10.00">/src/iPixmap.h</text>
</g>
<!-- Node2 -->
<g id="node2" class="node"><title>Node2</title>
<g id="a_node2"><a xlink:href="ia_string_8h.html" target="_top" xlink:title="iaString.h">
<polygon fill="white" stroke="black" points="234,-56.5 234,-75.5 292,-75.5 292,-56.5 234,-56.5"/>
<text text-anchor="middle" x="263" y="-63.5" font-family="Helvetica,sans-Serif" font-size="10.00">iaString.h</text>
</a>
</g>
</g>
<!-- Node1&#45;&gt;Node2 -->
<g id="edge1" class="edge"><title>Node1&#45;&gt;Node2</title>
<path fill="none" stroke="midnightblue" d="M174.49,-112.399C193.432,-102.684 218.442,-89.8551 237.044,-80.3137"/>
<polygon fill="midnightblue" stroke="midnightblue" points="238.821,-83.336 246.121,-75.6578 235.626,-77.1076 238.821,-83.336"/>
</g>
<!-- Node6 -->
<g id="node6" class="node"><title>Node6</title>
<g id="a_node6"><a xlink:href="ia_color4_8h.html" target="_top" xlink:title="iaColor4.h">
<polygon fill="white" stroke="black" points="78,-56.5 78,-75.5 138,-75.5 138,-56.5 78,-56.5"/>
<text text-anchor="middle" x="108" y="-63.5" font-family="Helvetica,sans-Serif" font-size="10.00">iaColor4.h</text>
</a>
</g>
</g>
<!-- Node1&#45;&gt;Node6 -->
<g id="edge5" class="edge"><title>Node1&#45;&gt;Node6</title>
<path fill="none" stroke="midnightblue" d="M137.758,-112.399C132.207,-103.932 125.107,-93.0991 119.234,-84.1393"/>
<polygon fill="midnightblue" stroke="midnightblue" points="122.084,-82.1026 113.675,-75.6578 116.23,-85.94 122.084,-82.1026"/>
</g>
<!-- Node8 -->
<g id="node8" class="node"><title>Node8</title>
<g id="a_node8"><a xlink:href="ia_color3_8h.html" target="_top" xlink:title="iaColor3.h">
<polygon fill="white" stroke="black" points="0,-56.5 0,-75.5 60,-75.5 60,-56.5 0,-56.5"/>
<text text-anchor="middle" x="30" y="-63.5" font-family="Helvetica,sans-Serif" font-size="10.00">iaColor3.h</text>
</a>
</g>
</g>
<!-- Node1&#45;&gt;Node8 -->
<g id="edge8" class="edge"><title>Node1&#45;&gt;Node8</title>
<path fill="none" stroke="midnightblue" d="M119.273,-112.399C100.168,-102.684 74.9419,-89.8551 56.1799,-80.3137"/>
<polygon fill="midnightblue" stroke="midnightblue" points="57.5247,-77.071 47.0245,-75.6578 54.3516,-83.3106 57.5247,-77.071"/>
</g>
<!-- Node10 -->
<g id="node10" class="node"><title>Node10</title>
<g id="a_node10"><a xlink:href="i_defines_8h.html" target="_top" xlink:title="iDefines.h">
<polygon fill="white" stroke="black" points="156.5,-56.5 156.5,-75.5 215.5,-75.5 215.5,-56.5 156.5,-56.5"/>
<text text-anchor="middle" x="186" y="-63.5" font-family="Helvetica,sans-Serif" font-size="10.00">iDefines.h</text>
</a>
</g>
</g>
<!-- Node1&#45;&gt;Node10 -->
<g id="edge12" class="edge"><title>Node1&#45;&gt;Node10</title>
<path fill="none" stroke="midnightblue" d="M156.242,-112.399C161.793,-103.932 168.893,-93.0991 174.766,-84.1393"/>
<polygon fill="midnightblue" stroke="midnightblue" points="177.77,-85.94 180.325,-75.6578 171.916,-82.1026 177.77,-85.94"/>
</g>
<!-- Node3 -->
<g id="node3" class="node"><title>Node3</title>
<g id="a_node3"><a xlink:href="ia_defines_8h.html" target="_top" xlink:title="iaDefines.h">
<polygon fill="white" stroke="black" points="148.5,-0.5 148.5,-19.5 213.5,-19.5 213.5,-0.5 148.5,-0.5"/>
<text text-anchor="middle" x="181" y="-7.5" font-family="Helvetica,sans-Serif" font-size="10.00">iaDefines.h</text>
</a>
</g>
</g>
<!-- Node2&#45;&gt;Node3 -->
<g id="edge2" class="edge"><title>Node2&#45;&gt;Node3</title>
<path fill="none" stroke="midnightblue" d="M249.825,-56.324C237.153,-47.979 217.767,-35.2122 202.794,-25.3524"/>
<polygon fill="midnightblue" stroke="midnightblue" points="204.419,-22.2313 194.142,-19.6545 200.569,-28.0776 204.419,-22.2313"/>
</g>
<!-- Node4 -->
<g id="node4" class="node"><title>Node4</title>
<polygon fill="white" stroke="#bfbfbf" points="300,-0.5 300,-19.5 352,-19.5 352,-0.5 300,-0.5"/>
<text text-anchor="middle" x="326" y="-7.5" font-family="Helvetica,sans-Serif" font-size="10.00">ostream</text>
</g>
<!-- Node2&#45;&gt;Node4 -->
<g id="edge3" class="edge"><title>Node2&#45;&gt;Node4</title>
<path fill="none" stroke="midnightblue" d="M273.122,-56.324C282.526,-48.2631 296.744,-36.0765 308.069,-26.3695"/>
<polygon fill="midnightblue" stroke="midnightblue" points="310.379,-28.9993 315.694,-19.8339 305.823,-23.6844 310.379,-28.9993"/>
</g>
<!-- Node5 -->
<g id="node5" class="node"><title>Node5</title>
<polygon fill="white" stroke="#bfbfbf" points="240,-0.5 240,-19.5 282,-19.5 282,-0.5 240,-0.5"/>
<text text-anchor="middle" x="261" y="-7.5" font-family="Helvetica,sans-Serif" font-size="10.00">vector</text>
</g>
<!-- Node2&#45;&gt;Node5 -->
<g id="edge4" class="edge"><title>Node2&#45;&gt;Node5</title>
<path fill="none" stroke="midnightblue" d="M262.67,-56.083C262.408,-49.0059 262.032,-38.8611 261.703,-29.9865"/>
<polygon fill="midnightblue" stroke="midnightblue" points="265.192,-29.6147 261.324,-19.7511 258.197,-29.8738 265.192,-29.6147"/>
</g>
<!-- Node6&#45;&gt;Node3 -->
<g id="edge6" class="edge"><title>Node6&#45;&gt;Node3</title>
<path fill="none" stroke="midnightblue" d="M119.729,-56.324C130.837,-48.1066 147.742,-35.6017 160.983,-25.8069"/>
<polygon fill="midnightblue" stroke="midnightblue" points="163.1,-28.5948 169.058,-19.8339 158.937,-22.9671 163.1,-28.5948"/>
</g>
<!-- Node7 -->
<g id="node7" class="node"><title>Node7</title>
<polygon fill="white" stroke="#bfbfbf" points="77.5,-0.5 77.5,-19.5 126.5,-19.5 126.5,-0.5 77.5,-0.5"/>
<text text-anchor="middle" x="102" y="-7.5" font-family="Helvetica,sans-Serif" font-size="10.00">fstream</text>
</g>
<!-- Node6&#45;&gt;Node7 -->
<g id="edge7" class="edge"><title>Node6&#45;&gt;Node7</title>
<path fill="none" stroke="midnightblue" d="M107.009,-56.083C106.214,-48.9272 105.071,-38.6353 104.077,-29.6911"/>
<polygon fill="midnightblue" stroke="midnightblue" points="107.555,-29.3034 102.972,-19.7511 100.598,-30.0765 107.555,-29.3034"/>
</g>
<!-- Node8&#45;&gt;Node3 -->
<g id="edge9" class="edge"><title>Node8&#45;&gt;Node3</title>
<path fill="none" stroke="midnightblue" d="M53.9264,-56.4435C79.2187,-47.3986 119.302,-33.064 147.68,-22.9158"/>
<polygon fill="midnightblue" stroke="midnightblue" points="148.948,-26.1794 157.186,-19.5164 146.591,-19.5882 148.948,-26.1794"/>
</g>
<!-- Node8&#45;&gt;Node7 -->
<g id="edge10" class="edge"><title>Node8&#45;&gt;Node7</title>
<path fill="none" stroke="midnightblue" d="M41.568,-56.324C52.4202,-48.1849 68.8807,-35.8395 81.8834,-26.0874"/>
<polygon fill="midnightblue" stroke="midnightblue" points="84.3215,-28.6339 90.2215,-19.8339 80.1214,-23.0339 84.3215,-28.6339"/>
</g>
<!-- Node9 -->
<g id="node9" class="node"><title>Node9</title>
<polygon fill="white" stroke="#bfbfbf" points="3,-0.5 3,-19.5 57,-19.5 57,-0.5 3,-0.5"/>
<text text-anchor="middle" x="30" y="-7.5" font-family="Helvetica,sans-Serif" font-size="10.00">iostream</text>
</g>
<!-- Node8&#45;&gt;Node9 -->
<g id="edge11" class="edge"><title>Node8&#45;&gt;Node9</title>
<path fill="none" stroke="midnightblue" d="M30,-56.083C30,-49.0059 30,-38.8611 30,-29.9865"/>
<polygon fill="midnightblue" stroke="midnightblue" points="33.5001,-29.751 30,-19.7511 26.5001,-29.7511 33.5001,-29.751"/>
</g>
<!-- Node10&#45;&gt;Node3 -->
<g id="edge13" class="edge"><title>Node10&#45;&gt;Node3</title>
<path fill="none" stroke="midnightblue" d="M185.174,-56.083C184.519,-49.0059 183.58,-38.8611 182.758,-29.9865"/>
<polygon fill="midnightblue" stroke="midnightblue" points="186.217,-29.3858 181.81,-19.7511 179.247,-30.0312 186.217,-29.3858"/>
</g>
</g>
</svg>
