<?xml version="1.0" encoding="UTF-8" standalone="no"?>
<!DOCTYPE svg PUBLIC "-//W3C//DTD SVG 1.1//EN"
 "http://www.w3.org/Graphics/SVG/1.1/DTD/svg11.dtd">
<!-- Generated by graphviz version 2.38.0 (20140413.2041)
 -->
<!-- Title: C:/dev/Igor/src/Igor/src/iRay.h Pages: 1 -->
<svg width="706pt" height="184pt"
 viewBox="0.00 0.00 706.00 184.00" xmlns="http://www.w3.org/2000/svg" xmlns:xlink="http://www.w3.org/1999/xlink">
<g id="graph0" class="graph" transform="scale(1 1) rotate(0) translate(4 180)">
<title>C:/dev/Igor/src/Igor/src/iRay.h</title>
<polygon fill="white" stroke="none" points="-4,4 -4,-180 702,-180 702,4 -4,4"/>
<!-- Node1 -->
<g id="node1" class="node"><title>Node1</title>
<polygon fill="#bfbfbf" stroke="black" points="296,-145.5 296,-175.5 394,-175.5 394,-145.5 296,-145.5"/>
<text text-anchor="start" x="304" y="-163.5" font-family="Helvetica,sans-Serif" font-size="10.00">C:/dev/Igor/src/Igor</text>
<text text-anchor="middle" x="345" y="-152.5" font-family="Helvetica,sans-Serif" font-size="10.00">/src/iRay.h</text>
</g>
<!-- Node2 -->
<g id="node2" class="node"><title>Node2</title>
<g id="a_node2"><a xlink:href="i_intersection_8h.html" target="_top" xlink:title="C:/dev/Igor/src/Igor\l/src/iIntersection.h">
<polygon fill="white" stroke="black" points="296,-78.5 296,-108.5 394,-108.5 394,-78.5 296,-78.5"/>
<text text-anchor="start" x="304" y="-96.5" font-family="Helvetica,sans-Serif" font-size="10.00">C:/dev/Igor/src/Igor</text>
<text text-anchor="middle" x="345" y="-85.5" font-family="Helvetica,sans-Serif" font-size="10.00">/src/iIntersection.h</text>
</a>
</g>
</g>
<!-- Node1&#45;&gt;Node2 -->
<g id="edge1" class="edge"><title>Node1&#45;&gt;Node2</title>
<path fill="none" stroke="midnightblue" d="M345,-135.108C345,-126.154 345,-116.323 345,-108.577"/>
<polygon fill="midnightblue" stroke="midnightblue" points="341.5,-135.396 345,-145.396 348.5,-135.396 341.5,-135.396"/>
</g>
<!-- Node3 -->
<g id="node3" class="node"><title>Node3</title>
<g id="a_node3"><a xlink:href="i_octree_8cpp.html" target="_top" xlink:title="C:/dev/Igor/src/Igor\l/src/iOctree.cpp">
<polygon fill="white" stroke="black" points="0,-6 0,-36 98,-36 98,-6 0,-6"/>
<text text-anchor="start" x="8" y="-24" font-family="Helvetica,sans-Serif" font-size="10.00">C:/dev/Igor/src/Igor</text>
<text text-anchor="middle" x="49" y="-13" font-family="Helvetica,sans-Serif" font-size="10.00">/src/iOctree.cpp</text>
</a>
</g>
</g>
<!-- Node2&#45;&gt;Node3 -->
<g id="edge2" class="edge"><title>Node2&#45;&gt;Node3</title>
<path fill="none" stroke="midnightblue" d="M285.803,-82.0366C237.35,-72.9718 167.23,-58.7061 107,-42 100.636,-40.2349 93.9533,-38.1517 87.4785,-36.008"/>
<polygon fill="midnightblue" stroke="midnightblue" points="285.331,-85.5088 295.802,-83.891 286.608,-78.6262 285.331,-85.5088"/>
</g>
<!-- Node4 -->
<g id="node4" class="node"><title>Node4</title>
<g id="a_node4"><a xlink:href="i_physics_user_mesh_collision_handler_8cpp.html" target="_top" xlink:title="C:/dev/Igor/src/Igor\l/src/iPhysicsUserMeshCollision\lHandler.cpp">
<polygon fill="white" stroke="black" points="116.5,-0.5 116.5,-41.5 271.5,-41.5 271.5,-0.5 116.5,-0.5"/>
<text text-anchor="start" x="124.5" y="-29.5" font-family="Helvetica,sans-Serif" font-size="10.00">C:/dev/Igor/src/Igor</text>
<text text-anchor="start" x="124.5" y="-18.5" font-family="Helvetica,sans-Serif" font-size="10.00">/src/iPhysicsUserMeshCollision</text>
<text text-anchor="middle" x="194" y="-7.5" font-family="Helvetica,sans-Serif" font-size="10.00">Handler.cpp</text>
</a>
</g>
</g>
<!-- Node2&#45;&gt;Node4 -->
<g id="edge3" class="edge"><title>Node2&#45;&gt;Node4</title>
<path fill="none" stroke="midnightblue" d="M305.654,-74.13C284.215,-64.1204 257.685,-51.7337 235.865,-41.5464"/>
<polygon fill="midnightblue" stroke="midnightblue" points="304.264,-77.3435 314.806,-78.4027 307.225,-71.0008 304.264,-77.3435"/>
</g>
<!-- Node5 -->
<g id="node5" class="node"><title>Node5</title>
<g id="a_node5"><a xlink:href="i_voxel_terrain_8cpp.html" target="_top" xlink:title="C:/dev/Igor/src/Igor\l/src/iVoxelTerrain.cpp">
<polygon fill="white" stroke="black" points="289.5,-6 289.5,-36 400.5,-36 400.5,-6 289.5,-6"/>
<text text-anchor="start" x="297.5" y="-24" font-family="Helvetica,sans-Serif" font-size="10.00">C:/dev/Igor/src/Igor</text>
<text text-anchor="middle" x="345" y="-13" font-family="Helvetica,sans-Serif" font-size="10.00">/src/iVoxelTerrain.cpp</text>
</a>
</g>
</g>
<!-- Node2&#45;&gt;Node5 -->
<g id="edge4" class="edge"><title>Node2&#45;&gt;Node5</title>
<path fill="none" stroke="midnightblue" d="M345,-68.2317C345,-57.5679 345,-45.4145 345,-36.2455"/>
<polygon fill="midnightblue" stroke="midnightblue" points="341.5,-68.2332 345,-78.2333 348.5,-68.2333 341.5,-68.2332"/>
</g>
<!-- Node6 -->
<g id="node6" class="node"><title>Node6</title>
<g id="a_node6"><a xlink:href="i_widget_color_gradient_8cpp.html" target="_top" xlink:title="C:/dev/Igor/src/Igor\l/src/iWidgetColorGradient.cpp">
<polygon fill="white" stroke="black" points="418.5,-6 418.5,-36 565.5,-36 565.5,-6 418.5,-6"/>
<text text-anchor="start" x="426.5" y="-24" font-family="Helvetica,sans-Serif" font-size="10.00">C:/dev/Igor/src/Igor</text>
<text text-anchor="middle" x="492" y="-13" font-family="Helvetica,sans-Serif" font-size="10.00">/src/iWidgetColorGradient.cpp</text>
</a>
</g>
</g>
<!-- Node2&#45;&gt;Node6 -->
<g id="edge5" class="edge"><title>Node2&#45;&gt;Node6</title>
<path fill="none" stroke="midnightblue" d="M383.512,-74.0301C408.27,-62.1564 439.936,-46.9695 462.657,-36.0729"/>
<polygon fill="midnightblue" stroke="midnightblue" points="381.897,-70.9225 374.394,-78.4027 384.925,-77.2342 381.897,-70.9225"/>
</g>
<!-- Node7 -->
<g id="node7" class="node"><title>Node7</title>
<g id="a_node7"><a xlink:href="i_widget_graph_8cpp.html" target="_top" xlink:title="C:/dev/Igor/src/Igor\l/src/iWidgetGraph.cpp">
<polygon fill="white" stroke="black" points="584,-6 584,-36 698,-36 698,-6 584,-6"/>
<text text-anchor="start" x="592" y="-24" font-family="Helvetica,sans-Serif" font-size="10.00">C:/dev/Igor/src/Igor</text>
<text text-anchor="middle" x="641" y="-13" font-family="Helvetica,sans-Serif" font-size="10.00">/src/iWidgetGraph.cpp</text>
</a>
</g>
</g>
<!-- Node2&#45;&gt;Node7 -->
<g id="edge6" class="edge"><title>Node2&#45;&gt;Node7</title>
<path fill="none" stroke="midnightblue" d="M404.102,-80.8476C450.739,-71.3344 517.324,-57.0461 575,-42 581.951,-40.1867 589.269,-38.1247 596.401,-36.0302"/>
<polygon fill="midnightblue" stroke="midnightblue" points="403.274,-77.4442 394.17,-82.8629 404.666,-84.3044 403.274,-77.4442"/>
</g>
</g>
</svg>
