<?xml version="1.0" encoding="UTF-8" standalone="no"?>
<!DOCTYPE svg PUBLIC "-//W3C//DTD SVG 1.1//EN"
 "http://www.w3.org/Graphics/SVG/1.1/DTD/svg11.dtd">
<!-- Generated by graphviz version 2.38.0 (20140413.2041)
 -->
<!-- Title: C:/dev/Igor/src/Igor/src/iRenderer.h Pages: 1 -->
<svg width="5399pt" height="117pt"
 viewBox="0.00 0.00 5399.00 117.00" xmlns="http://www.w3.org/2000/svg" xmlns:xlink="http://www.w3.org/1999/xlink">
<g id="graph0" class="graph" transform="scale(1 1) rotate(0) translate(4 113)">
<title>C:/dev/Igor/src/Igor/src/iRenderer.h</title>
<polygon fill="white" stroke="none" points="-4,4 -4,-113 5395,-113 5395,4 -4,4"/>
<!-- Node1 -->
<g id="node1" class="node"><title>Node1</title>
<polygon fill="#bfbfbf" stroke="black" points="2438.5,-78.5 2438.5,-108.5 2536.5,-108.5 2536.5,-78.5 2438.5,-78.5"/>
<text text-anchor="start" x="2446.5" y="-96.5" font-family="Helvetica,sans-Serif" font-size="10.00">C:/dev/Igor/src/Igor</text>
<text text-anchor="middle" x="2487.5" y="-85.5" font-family="Helvetica,sans-Serif" font-size="10.00">/src/iRenderer.h</text>
</g>
<!-- Node2 -->
<g id="node2" class="node"><title>Node2</title>
<g id="a_node2"><a xlink:href="i_celestial_node_8cpp.html" target="_top" xlink:title="C:/dev/Igor/src/Igor\l/src/iCelestialNode.cpp">
<polygon fill="white" stroke="black" points="0,-6 0,-36 117,-36 117,-6 0,-6"/>
<text text-anchor="start" x="8" y="-24" font-family="Helvetica,sans-Serif" font-size="10.00">C:/dev/Igor/src/Igor</text>
<text text-anchor="middle" x="58.5" y="-13" font-family="Helvetica,sans-Serif" font-size="10.00">/src/iCelestialNode.cpp</text>
</a>
</g>
</g>
<!-- Node1&#45;&gt;Node2 -->
<g id="edge1" class="edge"><title>Node1&#45;&gt;Node2</title>
<path fill="none" stroke="midnightblue" d="M2428.23,-92.1698C2085.04,-90.1329 359.832,-78.1528 126.5,-42 117.744,-40.6434 108.535,-38.4679 99.8195,-36.0413"/>
<polygon fill="midnightblue" stroke="midnightblue" points="2428.43,-95.6709 2438.45,-92.2299 2428.47,-88.671 2428.43,-95.6709"/>
</g>
<!-- Node3 -->
<g id="node3" class="node"><title>Node3</title>
<g id="a_node3"><a xlink:href="_igor_8cpp.html" target="_top" xlink:title="C:/dev/Igor/src/Igor\l/src/Igor.cpp">
<polygon fill="white" stroke="black" points="135.5,-6 135.5,-36 233.5,-36 233.5,-6 135.5,-6"/>
<text text-anchor="start" x="143.5" y="-24" font-family="Helvetica,sans-Serif" font-size="10.00">C:/dev/Igor/src/Igor</text>
<text text-anchor="middle" x="184.5" y="-13" font-family="Helvetica,sans-Serif" font-size="10.00">/src/Igor.cpp</text>
</a>
</g>
</g>
<!-- Node1&#45;&gt;Node3 -->
<g id="edge2" class="edge"><title>Node1&#45;&gt;Node3</title>
<path fill="none" stroke="midnightblue" d="M2427.96,-92.2592C2094.22,-90.7631 462.8,-81.468 242.5,-42 234.951,-40.6476 227.061,-38.4739 219.618,-36.0478"/>
<polygon fill="midnightblue" stroke="midnightblue" points="2428.36,-95.7609 2438.37,-92.3053 2428.39,-88.761 2428.36,-95.7609"/>
</g>
<!-- Node4 -->
<g id="node4" class="node"><title>Node4</title>
<g id="a_node4"><a xlink:href="i_instancer_8cpp.html" target="_top" xlink:title="C:/dev/Igor/src/Igor\l/src/iInstancer.cpp">
<polygon fill="white" stroke="black" points="251.5,-6 251.5,-36 349.5,-36 349.5,-6 251.5,-6"/>
<text text-anchor="start" x="259.5" y="-24" font-family="Helvetica,sans-Serif" font-size="10.00">C:/dev/Igor/src/Igor</text>
<text text-anchor="middle" x="300.5" y="-13" font-family="Helvetica,sans-Serif" font-size="10.00">/src/iInstancer.cpp</text>
</a>
</g>
</g>
<!-- Node1&#45;&gt;Node4 -->
<g id="edge3" class="edge"><title>Node1&#45;&gt;Node4</title>
<path fill="none" stroke="midnightblue" d="M2427.93,-92.1804C2104.56,-90.2995 566.725,-79.4364 358.5,-42 350.952,-40.643 343.062,-38.4672 335.619,-36.0407"/>
<polygon fill="midnightblue" stroke="midnightblue" points="2428.01,-95.6809 2438.03,-92.2386 2428.06,-88.681 2428.01,-95.6809"/>
</g>
<!-- Node5 -->
<g id="node5" class="node"><title>Node5</title>
<g id="a_node5"><a xlink:href="i_material_8cpp.html" target="_top" xlink:title="C:/dev/Igor/src/Igor\l/src/iMaterial.cpp">
<polygon fill="white" stroke="black" points="367.5,-6 367.5,-36 465.5,-36 465.5,-6 367.5,-6"/>
<text text-anchor="start" x="375.5" y="-24" font-family="Helvetica,sans-Serif" font-size="10.00">C:/dev/Igor/src/Igor</text>
<text text-anchor="middle" x="416.5" y="-13" font-family="Helvetica,sans-Serif" font-size="10.00">/src/iMaterial.cpp</text>
</a>
</g>
</g>
<!-- Node1&#45;&gt;Node5 -->
<g id="edge4" class="edge"><title>Node1&#45;&gt;Node5</title>
<path fill="none" stroke="midnightblue" d="M2428.21,-92.0948C2116.14,-89.817 670.734,-77.4188 474.5,-42 466.953,-40.6378 459.063,-38.4598 451.621,-36.0327"/>
<polygon fill="midnightblue" stroke="midnightblue" points="2428.38,-95.596 2438.41,-92.1685 2428.43,-88.5962 2428.38,-95.596"/>
</g>
<!-- Node6 -->
<g id="node6" class="node"><title>Node6</title>
<g id="a_node6"><a xlink:href="i_material_resource_factory_8cpp.html" target="_top" xlink:title="C:/dev/Igor/src/Igor\l/src/iMaterialResourceFactory.cpp">
<polygon fill="white" stroke="black" points="483.5,-6 483.5,-36 649.5,-36 649.5,-6 483.5,-6"/>
<text text-anchor="start" x="491.5" y="-24" font-family="Helvetica,sans-Serif" font-size="10.00">C:/dev/Igor/src/Igor</text>
<text text-anchor="middle" x="566.5" y="-13" font-family="Helvetica,sans-Serif" font-size="10.00">/src/iMaterialResourceFactory.cpp</text>
</a>
</g>
</g>
<!-- Node1&#45;&gt;Node6 -->
<g id="edge5" class="edge"><title>Node1&#45;&gt;Node6</title>
<path fill="none" stroke="midnightblue" d="M2428.18,-92.3495C2154.59,-91.4275 1012.84,-85.0252 658.5,-42 646.979,-40.6011 634.773,-38.4398 623.146,-36.0466"/>
<polygon fill="midnightblue" stroke="midnightblue" points="2428.29,-95.8498 2438.3,-92.3824 2428.31,-88.8498 2428.29,-95.8498"/>
</g>
<!-- Node7 -->
<g id="node7" class="node"><title>Node7</title>
<g id="a_node7"><a xlink:href="i_mesh_8cpp.html" target="_top" xlink:title="C:/dev/Igor/src/Igor\l/src/iMesh.cpp">
<polygon fill="white" stroke="black" points="667.5,-6 667.5,-36 765.5,-36 765.5,-6 667.5,-6"/>
<text text-anchor="start" x="675.5" y="-24" font-family="Helvetica,sans-Serif" font-size="10.00">C:/dev/Igor/src/Igor</text>
<text text-anchor="middle" x="716.5" y="-13" font-family="Helvetica,sans-Serif" font-size="10.00">/src/iMesh.cpp</text>
</a>
</g>
</g>
<!-- Node1&#45;&gt;Node7 -->
<g id="edge6" class="edge"><title>Node1&#45;&gt;Node7</title>
<path fill="none" stroke="midnightblue" d="M2428.17,-91.814C2145.2,-88.3993 939.651,-72.1831 774.5,-42 766.956,-40.6213 759.068,-38.436 751.625,-36.007"/>
<polygon fill="midnightblue" stroke="midnightblue" points="2428.19,-95.3145 2438.23,-91.9348 2428.28,-88.315 2428.19,-95.3145"/>
</g>
<!-- Node8 -->
<g id="node8" class="node"><title>Node8</title>
<g id="a_node8"><a xlink:href="i_mesh_buffers_8cpp.html" target="_top" xlink:title="C:/dev/Igor/src/Igor\l/src/iMeshBuffers.cpp">
<polygon fill="white" stroke="black" points="784,-6 784,-36 895,-36 895,-6 784,-6"/>
<text text-anchor="start" x="792" y="-24" font-family="Helvetica,sans-Serif" font-size="10.00">C:/dev/Igor/src/Igor</text>
<text text-anchor="middle" x="839.5" y="-13" font-family="Helvetica,sans-Serif" font-size="10.00">/src/iMeshBuffers.cpp</text>
</a>
</g>
</g>
<!-- Node1&#45;&gt;Node8 -->
<g id="edge7" class="edge"><title>Node1&#45;&gt;Node8</title>
<path fill="none" stroke="midnightblue" d="M2428.08,-92.7536C2177.36,-93.4932 1205.05,-92.95 903.5,-42 895.35,-40.6231 886.798,-38.4715 878.694,-36.0809"/>
<polygon fill="midnightblue" stroke="midnightblue" points="2428.44,-96.2526 2438.43,-92.7211 2428.42,-89.2527 2428.44,-96.2526"/>
</g>
<!-- Node9 -->
<g id="node9" class="node"><title>Node9</title>
<g id="a_node9"><a xlink:href="i_mesh_builder_8cpp.html" target="_top" xlink:title="C:/dev/Igor/src/Igor\l/src/iMeshBuilder.cpp">
<polygon fill="white" stroke="black" points="913,-6 913,-36 1024,-36 1024,-6 913,-6"/>
<text text-anchor="start" x="921" y="-24" font-family="Helvetica,sans-Serif" font-size="10.00">C:/dev/Igor/src/Igor</text>
<text text-anchor="middle" x="968.5" y="-13" font-family="Helvetica,sans-Serif" font-size="10.00">/src/iMeshBuilder.cpp</text>
</a>
</g>
</g>
<!-- Node1&#45;&gt;Node9 -->
<g id="edge8" class="edge"><title>Node1&#45;&gt;Node9</title>
<path fill="none" stroke="midnightblue" d="M2428.32,-92.5213C2191.1,-92.286 1308.54,-88.2531 1033.5,-42 1025.23,-40.6098 1016.55,-38.4523 1008.32,-36.0601"/>
<polygon fill="midnightblue" stroke="midnightblue" points="2428.47,-96.0213 2438.47,-92.5294 2428.47,-89.0213 2428.47,-96.0213"/>
</g>
<!-- Node10 -->
<g id="node10" class="node"><title>Node10</title>
<g id="a_node10"><a xlink:href="i_node_mesh_8cpp.html" target="_top" xlink:title="C:/dev/Igor/src/Igor\l/src/iNodeMesh.cpp">
<polygon fill="white" stroke="black" points="1042.5,-6 1042.5,-36 1146.5,-36 1146.5,-6 1042.5,-6"/>
<text text-anchor="start" x="1050.5" y="-24" font-family="Helvetica,sans-Serif" font-size="10.00">C:/dev/Igor/src/Igor</text>
<text text-anchor="middle" x="1094.5" y="-13" font-family="Helvetica,sans-Serif" font-size="10.00">/src/iNodeMesh.cpp</text>
</a>
</g>
</g>
<!-- Node1&#45;&gt;Node10 -->
<g id="edge9" class="edge"><title>Node1&#45;&gt;Node10</title>
<path fill="none" stroke="midnightblue" d="M2428.15,-92.4431C2203.46,-91.8875 1405.09,-86.7377 1155.5,-42 1147.71,-40.6039 1139.55,-38.4438 1131.82,-36.0509"/>
<polygon fill="midnightblue" stroke="midnightblue" points="2428.41,-95.9436 2438.41,-92.4662 2428.42,-88.9436 2428.41,-95.9436"/>
</g>
<!-- Node11 -->
<g id="node11" class="node"><title>Node11</title>
<g id="a_node11"><a xlink:href="i_node_model_8cpp.html" target="_top" xlink:title="C:/dev/Igor/src/Igor\l/src/iNodeModel.cpp">
<polygon fill="white" stroke="black" points="1164.5,-6 1164.5,-36 1270.5,-36 1270.5,-6 1164.5,-6"/>
<text text-anchor="start" x="1172.5" y="-24" font-family="Helvetica,sans-Serif" font-size="10.00">C:/dev/Igor/src/Igor</text>
<text text-anchor="middle" x="1217.5" y="-13" font-family="Helvetica,sans-Serif" font-size="10.00">/src/iNodeModel.cpp</text>
</a>
</g>
</g>
<!-- Node1&#45;&gt;Node11 -->
<g id="edge10" class="edge"><title>Node1&#45;&gt;Node11</title>
<path fill="none" stroke="midnightblue" d="M2428.15,-92.1364C2217.15,-90.5137 1503.91,-82.1197 1279.5,-42 1271.6,-40.5868 1263.31,-38.4191 1255.45,-36.0241"/>
<polygon fill="midnightblue" stroke="midnightblue" points="2428.38,-95.6381 2438.4,-92.2129 2428.43,-88.6383 2428.38,-95.6381"/>
</g>
<!-- Node12 -->
<g id="node12" class="node"><title>Node12</title>
<g id="a_node12"><a xlink:href="i_node_particle_system_8cpp.html" target="_top" xlink:title="C:/dev/Igor/src/Igor\l/src/iNodeParticleSystem.cpp">
<polygon fill="white" stroke="black" points="1288.5,-6 1288.5,-36 1434.5,-36 1434.5,-6 1288.5,-6"/>
<text text-anchor="start" x="1296.5" y="-24" font-family="Helvetica,sans-Serif" font-size="10.00">C:/dev/Igor/src/Igor</text>
<text text-anchor="middle" x="1361.5" y="-13" font-family="Helvetica,sans-Serif" font-size="10.00">/src/iNodeParticleSystem.cpp</text>
</a>
</g>
</g>
<!-- Node1&#45;&gt;Node12 -->
<g id="edge11" class="edge"><title>Node1&#45;&gt;Node12</title>
<path fill="none" stroke="midnightblue" d="M2428.1,-91.1188C2236.44,-86.4274 1635.72,-69.8294 1443.5,-42 1433.35,-40.5302 1422.62,-38.3689 1412.38,-36.0041"/>
<polygon fill="midnightblue" stroke="midnightblue" points="2428.18,-94.6216 2438.26,-91.3656 2428.35,-87.6236 2428.18,-94.6216"/>
</g>
<!-- Node13 -->
<g id="node13" class="node"><title>Node13</title>
<g id="a_node13"><a xlink:href="i_node_sky_box_8cpp.html" target="_top" xlink:title="C:/dev/Igor/src/Igor\l/src/iNodeSkyBox.cpp">
<polygon fill="white" stroke="black" points="1452.5,-6 1452.5,-36 1566.5,-36 1566.5,-6 1452.5,-6"/>
<text text-anchor="start" x="1460.5" y="-24" font-family="Helvetica,sans-Serif" font-size="10.00">C:/dev/Igor/src/Igor</text>
<text text-anchor="middle" x="1509.5" y="-13" font-family="Helvetica,sans-Serif" font-size="10.00">/src/iNodeSkyBox.cpp</text>
</a>
</g>
</g>
<!-- Node1&#45;&gt;Node13 -->
<g id="edge12" class="edge"><title>Node1&#45;&gt;Node13</title>
<path fill="none" stroke="midnightblue" d="M2428.25,-91.067C2253.2,-86.5405 1740.28,-71.0972 1575.5,-42 1567.25,-40.5427 1558.57,-38.3869 1550.32,-36.0237"/>
<polygon fill="midnightblue" stroke="midnightblue" points="2428.22,-94.5672 2438.31,-91.3245 2428.4,-87.5695 2428.22,-94.5672"/>
</g>
<!-- Node14 -->
<g id="node14" class="node"><title>Node14</title>
<g id="a_node14"><a xlink:href="i_node_visitor_render_boundings_8cpp.html" target="_top" xlink:title="C:/dev/Igor/src/Igor\l/src/iNodeVisitorRenderBoundings.cpp">
<polygon fill="white" stroke="black" points="1584.5,-6 1584.5,-36 1768.5,-36 1768.5,-6 1584.5,-6"/>
<text text-anchor="start" x="1592.5" y="-24" font-family="Helvetica,sans-Serif" font-size="10.00">C:/dev/Igor/src/Igor</text>
<text text-anchor="middle" x="1676.5" y="-13" font-family="Helvetica,sans-Serif" font-size="10.00">/src/iNodeVisitorRenderBoundings.cpp</text>
</a>
</g>
</g>
<!-- Node1&#45;&gt;Node14 -->
<g id="edge13" class="edge"><title>Node1&#45;&gt;Node14</title>
<path fill="none" stroke="midnightblue" d="M2427.95,-90.7681C2305.61,-86.6595 2017.31,-74.1446 1777.5,-42 1765.63,-40.4089 1753.05,-38.2807 1740.96,-36.0055"/>
<polygon fill="midnightblue" stroke="midnightblue" points="2428.11,-94.2751 2438.22,-91.1062 2428.34,-87.2789 2428.11,-94.2751"/>
</g>
<!-- Node15 -->
<g id="node15" class="node"><title>Node15</title>
<g id="a_node15"><a xlink:href="i_node_visitor_render_color_i_d_8cpp.html" target="_top" xlink:title="C:/dev/Igor/src/Igor\l/src/iNodeVisitorRenderColor\lID.cpp">
<polygon fill="white" stroke="black" points="1786.5,-0.5 1786.5,-41.5 1928.5,-41.5 1928.5,-0.5 1786.5,-0.5"/>
<text text-anchor="start" x="1794.5" y="-29.5" font-family="Helvetica,sans-Serif" font-size="10.00">C:/dev/Igor/src/Igor</text>
<text text-anchor="start" x="1794.5" y="-18.5" font-family="Helvetica,sans-Serif" font-size="10.00">/src/iNodeVisitorRenderColor</text>
<text text-anchor="middle" x="1857.5" y="-7.5" font-family="Helvetica,sans-Serif" font-size="10.00">ID.cpp</text>
</a>
</g>
</g>
<!-- Node1&#45;&gt;Node15 -->
<g id="edge14" class="edge"><title>Node1&#45;&gt;Node15</title>
<path fill="none" stroke="midnightblue" d="M2428.21,-90.0412C2326.98,-85.1786 2114.58,-72.0812 1937.5,-42 1934.68,-41.5205 1931.81,-40.9938 1928.91,-40.4303"/>
<polygon fill="midnightblue" stroke="midnightblue" points="2428.09,-93.5392 2438.24,-90.5134 2428.42,-86.5469 2428.09,-93.5392"/>
</g>
<!-- Node16 -->
<g id="node16" class="node"><title>Node16</title>
<g id="a_node16"><a xlink:href="i_node_water_8cpp.html" target="_top" xlink:title="C:/dev/Igor/src/Igor\l/src/iNodeWater.cpp">
<polygon fill="white" stroke="black" points="1946.5,-6 1946.5,-36 2052.5,-36 2052.5,-6 1946.5,-6"/>
<text text-anchor="start" x="1954.5" y="-24" font-family="Helvetica,sans-Serif" font-size="10.00">C:/dev/Igor/src/Igor</text>
<text text-anchor="middle" x="1999.5" y="-13" font-family="Helvetica,sans-Serif" font-size="10.00">/src/iNodeWater.cpp</text>
</a>
</g>
</g>
<!-- Node1&#45;&gt;Node16 -->
<g id="edge15" class="edge"><title>Node1&#45;&gt;Node16</title>
<path fill="none" stroke="midnightblue" d="M2428.21,-89.115C2345.35,-83.5626 2190.59,-70.1919 2061.5,-42 2054.21,-40.4073 2046.55,-38.3065 2039.21,-36.0654"/>
<polygon fill="midnightblue" stroke="midnightblue" points="2428.23,-92.6238 2438.43,-89.7851 2428.68,-85.6388 2428.23,-92.6238"/>
</g>
<!-- Node17 -->
<g id="node17" class="node"><title>Node17</title>
<g id="a_node17"><a xlink:href="i_octree_8cpp.html" target="_top" xlink:title="C:/dev/Igor/src/Igor\l/src/iOctree.cpp">
<polygon fill="white" stroke="black" points="2070.5,-6 2070.5,-36 2168.5,-36 2168.5,-6 2070.5,-6"/>
<text text-anchor="start" x="2078.5" y="-24" font-family="Helvetica,sans-Serif" font-size="10.00">C:/dev/Igor/src/Igor</text>
<text text-anchor="middle" x="2119.5" y="-13" font-family="Helvetica,sans-Serif" font-size="10.00">/src/iOctree.cpp</text>
</a>
</g>
</g>
<!-- Node1&#45;&gt;Node17 -->
<g id="edge16" class="edge"><title>Node1&#45;&gt;Node17</title>
<path fill="none" stroke="midnightblue" d="M2428.26,-85.9008C2365.41,-78.1933 2263.53,-63.6708 2177.5,-42 2170.89,-40.3348 2163.96,-38.2522 2157.28,-36.065"/>
<polygon fill="midnightblue" stroke="midnightblue" points="2428.03,-89.3991 2438.38,-87.1248 2428.87,-82.4497 2428.03,-89.3991"/>
</g>
<!-- Node18 -->
<g id="node18" class="node"><title>Node18</title>
<g id="a_node18"><a xlink:href="i_physics_8cpp.html" target="_top" xlink:title="C:/dev/Igor/src/Igor\l/src/iPhysics.cpp">
<polygon fill="white" stroke="black" points="2186.5,-6 2186.5,-36 2284.5,-36 2284.5,-6 2186.5,-6"/>
<text text-anchor="start" x="2194.5" y="-24" font-family="Helvetica,sans-Serif" font-size="10.00">C:/dev/Igor/src/Igor</text>
<text text-anchor="middle" x="2235.5" y="-13" font-family="Helvetica,sans-Serif" font-size="10.00">/src/iPhysics.cpp</text>
</a>
</g>
</g>
<!-- Node1&#45;&gt;Node18 -->
<g id="edge17" class="edge"><title>Node1&#45;&gt;Node18</title>
<path fill="none" stroke="midnightblue" d="M2428.15,-78.3151C2389.57,-68.7849 2338.3,-55.5342 2293.5,-42 2287.48,-40.1828 2281.16,-38.1409 2274.99,-36.0744"/>
<polygon fill="midnightblue" stroke="midnightblue" points="2427.63,-81.7908 2438.17,-80.7784 2429.3,-74.993 2427.63,-81.7908"/>
</g>
<!-- Node19 -->
<g id="node19" class="node"><title>Node19</title>
<g id="a_node19"><a xlink:href="i_render_engine_8cpp.html" target="_top" xlink:title="C:/dev/Igor/src/Igor\l/src/iRenderEngine.cpp">
<polygon fill="white" stroke="black" points="2302.5,-6 2302.5,-36 2420.5,-36 2420.5,-6 2302.5,-6"/>
<text text-anchor="start" x="2310.5" y="-24" font-family="Helvetica,sans-Serif" font-size="10.00">C:/dev/Igor/src/Igor</text>
<text text-anchor="middle" x="2361.5" y="-13" font-family="Helvetica,sans-Serif" font-size="10.00">/src/iRenderEngine.cpp</text>
</a>
</g>
</g>
<!-- Node1&#45;&gt;Node19 -->
<g id="edge18" class="edge"><title>Node1&#45;&gt;Node19</title>
<path fill="none" stroke="midnightblue" d="M2453.36,-73.3993C2432.31,-61.6225 2405.78,-46.7775 2386.65,-36.0729"/>
<polygon fill="midnightblue" stroke="midnightblue" points="2451.87,-76.5742 2462.3,-78.4027 2455.29,-70.4654 2451.87,-76.5742"/>
</g>
<!-- Node20 -->
<g id="node20" class="node"><title>Node20</title>
<g id="a_node20"><a xlink:href="i_renderer_8cpp.html" target="_top" xlink:title="C:/dev/Igor/src/Igor\l/src/iRenderer.cpp">
<polygon fill="white" stroke="black" points="2438.5,-6 2438.5,-36 2536.5,-36 2536.5,-6 2438.5,-6"/>
<text text-anchor="start" x="2446.5" y="-24" font-family="Helvetica,sans-Serif" font-size="10.00">C:/dev/Igor/src/Igor</text>
<text text-anchor="middle" x="2487.5" y="-13" font-family="Helvetica,sans-Serif" font-size="10.00">/src/iRenderer.cpp</text>
</a>
</g>
</g>
<!-- Node1&#45;&gt;Node20 -->
<g id="edge19" class="edge"><title>Node1&#45;&gt;Node20</title>
<path fill="none" stroke="midnightblue" d="M2487.5,-68.2317C2487.5,-57.5679 2487.5,-45.4145 2487.5,-36.2455"/>
<polygon fill="midnightblue" stroke="midnightblue" points="2484,-68.2332 2487.5,-78.2333 2491,-68.2333 2484,-68.2332"/>
</g>
<!-- Node21 -->
<g id="node21" class="node"><title>Node21</title>
<g id="a_node21"><a xlink:href="i_shader_8cpp.html" target="_top" xlink:title="C:/dev/Igor/src/Igor\l/src/iShader.cpp">
<polygon fill="white" stroke="black" points="2554.5,-6 2554.5,-36 2652.5,-36 2652.5,-6 2554.5,-6"/>
<text text-anchor="start" x="2562.5" y="-24" font-family="Helvetica,sans-Serif" font-size="10.00">C:/dev/Igor/src/Igor</text>
<text text-anchor="middle" x="2603.5" y="-13" font-family="Helvetica,sans-Serif" font-size="10.00">/src/iShader.cpp</text>
</a>
</g>
</g>
<!-- Node1&#45;&gt;Node21 -->
<g id="edge20" class="edge"><title>Node1&#45;&gt;Node21</title>
<path fill="none" stroke="midnightblue" d="M2519.45,-73.0817C2538.74,-61.3565 2562.89,-46.6815 2580.34,-36.0729"/>
<polygon fill="midnightblue" stroke="midnightblue" points="2517.42,-70.2181 2510.7,-78.4027 2521.06,-76.2 2517.42,-70.2181"/>
</g>
<!-- Node22 -->
<g id="node22" class="node"><title>Node22</title>
<g id="a_node22"><a xlink:href="i_sky_light_node_8cpp.html" target="_top" xlink:title="C:/dev/Igor/src/Igor\l/src/iSkyLightNode.cpp">
<polygon fill="white" stroke="black" points="2670.5,-6 2670.5,-36 2788.5,-36 2788.5,-6 2670.5,-6"/>
<text text-anchor="start" x="2678.5" y="-24" font-family="Helvetica,sans-Serif" font-size="10.00">C:/dev/Igor/src/Igor</text>
<text text-anchor="middle" x="2729.5" y="-13" font-family="Helvetica,sans-Serif" font-size="10.00">/src/iSkyLightNode.cpp</text>
</a>
</g>
</g>
<!-- Node1&#45;&gt;Node22 -->
<g id="edge21" class="edge"><title>Node1&#45;&gt;Node22</title>
<path fill="none" stroke="midnightblue" d="M2545.97,-75.5856C2579.75,-65.8024 2623.03,-53.2405 2661.5,-42 2668.11,-40.0674 2675.09,-38.0233 2681.95,-36.0089"/>
<polygon fill="midnightblue" stroke="midnightblue" points="2544.9,-72.2538 2536.26,-78.3976 2546.84,-78.9775 2544.9,-72.2538"/>
</g>
<!-- Node23 -->
<g id="node23" class="node"><title>Node23</title>
<g id="a_node23"><a xlink:href="i_sound_resource_factory_8cpp.html" target="_top" xlink:title="C:/dev/Igor/src/Igor\l/src/iSoundResourceFactory.cpp">
<polygon fill="white" stroke="black" points="2807,-6 2807,-36 2966,-36 2966,-6 2807,-6"/>
<text text-anchor="start" x="2815" y="-24" font-family="Helvetica,sans-Serif" font-size="10.00">C:/dev/Igor/src/Igor</text>
<text text-anchor="middle" x="2886.5" y="-13" font-family="Helvetica,sans-Serif" font-size="10.00">/src/iSoundResourceFactory.cpp</text>
</a>
</g>
</g>
<!-- Node1&#45;&gt;Node23 -->
<g id="edge22" class="edge"><title>Node1&#45;&gt;Node23</title>
<path fill="none" stroke="midnightblue" d="M2546.59,-83.9448C2609.1,-74.6439 2710.53,-58.8403 2797.5,-42 2806.83,-40.1936 2816.67,-38.1354 2826.28,-36.0425"/>
<polygon fill="midnightblue" stroke="midnightblue" points="2545.9,-80.5088 2536.52,-85.4368 2546.92,-87.4332 2545.9,-80.5088"/>
</g>
<!-- Node24 -->
<g id="node24" class="node"><title>Node24</title>
<g id="a_node24"><a xlink:href="i_statistics_visualizer_8cpp.html" target="_top" xlink:title="C:/dev/Igor/src/Igor\l/src/iStatisticsVisualizer.cpp">
<polygon fill="white" stroke="black" points="2984,-6 2984,-36 3125,-36 3125,-6 2984,-6"/>
<text text-anchor="start" x="2992" y="-24" font-family="Helvetica,sans-Serif" font-size="10.00">C:/dev/Igor/src/Igor</text>
<text text-anchor="middle" x="3054.5" y="-13" font-family="Helvetica,sans-Serif" font-size="10.00">/src/iStatisticsVisualizer.cpp</text>
</a>
</g>
</g>
<!-- Node1&#45;&gt;Node24 -->
<g id="edge23" class="edge"><title>Node1&#45;&gt;Node24</title>
<path fill="none" stroke="midnightblue" d="M2546.92,-89.1351C2639.19,-83.2847 2822.27,-69.177 2975.5,-42 2984.69,-40.3693 2994.4,-38.2501 3003.74,-36.0026"/>
<polygon fill="midnightblue" stroke="midnightblue" points="2546.42,-85.659 2536.66,-89.775 2546.86,-92.6454 2546.42,-85.659"/>
</g>
<!-- Node25 -->
<g id="node25" class="node"><title>Node25</title>
<g id="a_node25"><a xlink:href="i_texture_resource_factory_8cpp.html" target="_top" xlink:title="C:/dev/Igor/src/Igor\l/src/iTextureResourceFactory.cpp">
<polygon fill="white" stroke="black" points="3143.5,-6 3143.5,-36 3307.5,-36 3307.5,-6 3143.5,-6"/>
<text text-anchor="start" x="3151.5" y="-24" font-family="Helvetica,sans-Serif" font-size="10.00">C:/dev/Igor/src/Igor</text>
<text text-anchor="middle" x="3225.5" y="-13" font-family="Helvetica,sans-Serif" font-size="10.00">/src/iTextureResourceFactory.cpp</text>
</a>
</g>
</g>
<!-- Node1&#45;&gt;Node25 -->
<g id="edge24" class="edge"><title>Node1&#45;&gt;Node25</title>
<path fill="none" stroke="midnightblue" d="M2547.16,-90.6039C2661.61,-86.3569 2919.7,-73.8313 3134.5,-42 3145.22,-40.4113 3156.56,-38.2843 3167.47,-36.0095"/>
<polygon fill="midnightblue" stroke="midnightblue" points="2546.73,-87.117 2536.87,-90.9777 2546.99,-94.1123 2546.73,-87.117"/>
</g>
<!-- Node26 -->
<g id="node26" class="node"><title>Node26</title>
<g id="a_node26"><a xlink:href="i_view_8cpp.html" target="_top" xlink:title="C:/dev/Igor/src/Igor\l/src/iView.cpp">
<polygon fill="white" stroke="black" points="3325.5,-6 3325.5,-36 3423.5,-36 3423.5,-6 3325.5,-6"/>
<text text-anchor="start" x="3333.5" y="-24" font-family="Helvetica,sans-Serif" font-size="10.00">C:/dev/Igor/src/Igor</text>
<text text-anchor="middle" x="3374.5" y="-13" font-family="Helvetica,sans-Serif" font-size="10.00">/src/iView.cpp</text>
</a>
</g>
</g>
<!-- Node1&#45;&gt;Node26 -->
<g id="edge25" class="edge"><title>Node1&#45;&gt;Node26</title>
<path fill="none" stroke="midnightblue" d="M2546.91,-90.9708C2711.15,-86.4108 3168.95,-71.3643 3316.5,-42 3323.81,-40.5447 3331.46,-38.3899 3338.72,-36.0269"/>
<polygon fill="midnightblue" stroke="midnightblue" points="2546.42,-87.4828 2536.52,-91.2561 2546.61,-94.4802 2546.42,-87.4828"/>
</g>
<!-- Node27 -->
<g id="node27" class="node"><title>Node27</title>
<g id="a_node27"><a xlink:href="i_voxel_terrain_8cpp.html" target="_top" xlink:title="C:/dev/Igor/src/Igor\l/src/iVoxelTerrain.cpp">
<polygon fill="white" stroke="black" points="3442,-6 3442,-36 3553,-36 3553,-6 3442,-6"/>
<text text-anchor="start" x="3450" y="-24" font-family="Helvetica,sans-Serif" font-size="10.00">C:/dev/Igor/src/Igor</text>
<text text-anchor="middle" x="3497.5" y="-13" font-family="Helvetica,sans-Serif" font-size="10.00">/src/iVoxelTerrain.cpp</text>
</a>
</g>
</g>
<!-- Node1&#45;&gt;Node27 -->
<g id="edge26" class="edge"><title>Node1&#45;&gt;Node27</title>
<path fill="none" stroke="midnightblue" d="M2546.74,-91.2323C2726.06,-87.0955 3261.13,-72.4672 3432.5,-42 3440.64,-40.5534 3449.18,-38.4025 3457.31,-36.0407"/>
<polygon fill="midnightblue" stroke="midnightblue" points="2546.63,-87.7339 2536.71,-91.4614 2546.79,-94.7321 2546.63,-87.7339"/>
</g>
<!-- Node28 -->
<g id="node28" class="node"><title>Node28</title>
<g id="a_node28"><a xlink:href="i_widget_color_gradient_8cpp.html" target="_top" xlink:title="C:/dev/Igor/src/Igor\l/src/iWidgetColorGradient.cpp">
<polygon fill="white" stroke="black" points="3571,-6 3571,-36 3718,-36 3718,-6 3571,-6"/>
<text text-anchor="start" x="3579" y="-24" font-family="Helvetica,sans-Serif" font-size="10.00">C:/dev/Igor/src/Igor</text>
<text text-anchor="middle" x="3644.5" y="-13" font-family="Helvetica,sans-Serif" font-size="10.00">/src/iWidgetColorGradient.cpp</text>
</a>
</g>
</g>
<!-- Node1&#45;&gt;Node28 -->
<g id="edge27" class="edge"><title>Node1&#45;&gt;Node28</title>
<path fill="none" stroke="midnightblue" d="M2546.68,-91.2193C2741.85,-86.7609 3363.9,-70.6121 3562.5,-42 3572.65,-40.5373 3583.38,-38.3792 3593.62,-36.0152"/>
<polygon fill="midnightblue" stroke="midnightblue" points="2546.54,-87.7216 2536.62,-91.4474 2546.7,-94.7198 2546.54,-87.7216"/>
</g>
<!-- Node29 -->
<g id="node29" class="node"><title>Node29</title>
<g id="a_node29"><a xlink:href="i_widget_default_theme_8cpp.html" target="_top" xlink:title="C:/dev/Igor/src/Igor\l/src/iWidgetDefaultTheme.cpp">
<polygon fill="white" stroke="black" points="3736,-6 3736,-36 3883,-36 3883,-6 3736,-6"/>
<text text-anchor="start" x="3744" y="-24" font-family="Helvetica,sans-Serif" font-size="10.00">C:/dev/Igor/src/Igor</text>
<text text-anchor="middle" x="3809.5" y="-13" font-family="Helvetica,sans-Serif" font-size="10.00">/src/iWidgetDefaultTheme.cpp</text>
</a>
</g>
</g>
<!-- Node1&#45;&gt;Node29 -->
<g id="edge28" class="edge"><title>Node1&#45;&gt;Node29</title>
<path fill="none" stroke="midnightblue" d="M2546.91,-91.6435C2761.39,-88.308 3495.29,-74.7164 3727.5,-42 3737.66,-40.569 3748.39,-38.4252 3758.63,-36.0654"/>
<polygon fill="midnightblue" stroke="midnightblue" points="2546.74,-88.1456 2536.8,-91.7992 2546.85,-95.1448 2546.74,-88.1456"/>
</g>
<!-- Node30 -->
<g id="node30" class="node"><title>Node30</title>
<g id="a_node30"><a xlink:href="i_widget_graph_8cpp.html" target="_top" xlink:title="C:/dev/Igor/src/Igor\l/src/iWidgetGraph.cpp">
<polygon fill="white" stroke="black" points="3901.5,-6 3901.5,-36 4015.5,-36 4015.5,-6 3901.5,-6"/>
<text text-anchor="start" x="3909.5" y="-24" font-family="Helvetica,sans-Serif" font-size="10.00">C:/dev/Igor/src/Igor</text>
<text text-anchor="middle" x="3958.5" y="-13" font-family="Helvetica,sans-Serif" font-size="10.00">/src/iWidgetGraph.cpp</text>
</a>
</g>
</g>
<!-- Node1&#45;&gt;Node30 -->
<g id="edge29" class="edge"><title>Node1&#45;&gt;Node30</title>
<path fill="none" stroke="midnightblue" d="M2546.96,-92.4036C2779.48,-91.7106 3627.52,-86.1449 3892.5,-42 3900.89,-40.6031 3909.7,-38.4426 3918.05,-36.0496"/>
<polygon fill="midnightblue" stroke="midnightblue" points="2546.67,-88.9043 2536.67,-92.4322 2546.68,-95.9042 2546.67,-88.9043"/>
</g>
<!-- Node31 -->
<g id="node31" class="node"><title>Node31</title>
<g id="a_node31"><a xlink:href="i_widget_scroll_8cpp.html" target="_top" xlink:title="C:/dev/Igor/src/Igor\l/src/iWidgetScroll.cpp">
<polygon fill="white" stroke="black" points="4034,-6 4034,-36 4147,-36 4147,-6 4034,-6"/>
<text text-anchor="start" x="4042" y="-24" font-family="Helvetica,sans-Serif" font-size="10.00">C:/dev/Igor/src/Igor</text>
<text text-anchor="middle" x="4090.5" y="-13" font-family="Helvetica,sans-Serif" font-size="10.00">/src/iWidgetScroll.cpp</text>
</a>
</g>
</g>
<!-- Node1&#45;&gt;Node31 -->
<g id="edge30" class="edge"><title>Node1&#45;&gt;Node31</title>
<path fill="none" stroke="midnightblue" d="M2546.78,-92.618C2792.56,-92.7887 3732.35,-90.2092 4024.5,-42 4032.89,-40.616 4041.7,-38.4613 4050.05,-36.0698"/>
<polygon fill="midnightblue" stroke="midnightblue" points="2546.62,-89.1179 2536.62,-92.609 2546.62,-96.1179 2546.62,-89.1179"/>
</g>
<!-- Node32 -->
<g id="node32" class="node"><title>Node32</title>
<g id="a_node32"><a xlink:href="i_window_8cpp.html" target="_top" xlink:title="C:/dev/Igor/src/Igor\l/src/iWindow.cpp">
<polygon fill="white" stroke="black" points="4165.5,-6 4165.5,-36 4263.5,-36 4263.5,-6 4165.5,-6"/>
<text text-anchor="start" x="4173.5" y="-24" font-family="Helvetica,sans-Serif" font-size="10.00">C:/dev/Igor/src/Igor</text>
<text text-anchor="middle" x="4214.5" y="-13" font-family="Helvetica,sans-Serif" font-size="10.00">/src/iWindow.cpp</text>
</a>
</g>
</g>
<!-- Node1&#45;&gt;Node32 -->
<g id="edge31" class="edge"><title>Node1&#45;&gt;Node32</title>
<path fill="none" stroke="midnightblue" d="M2547.08,-91.7612C2826.01,-88.1591 3995.94,-71.4081 4156.5,-42 4164.04,-40.6183 4171.93,-38.4318 4179.37,-36.0025"/>
<polygon fill="midnightblue" stroke="midnightblue" points="2546.73,-88.2654 2536.77,-91.8936 2546.82,-95.2649 2546.73,-88.2654"/>
</g>
<!-- Node33 -->
<g id="node33" class="node"><title>Node33</title>
<g id="a_node33"><a xlink:href="_manipulator_8cpp.html" target="_top" xlink:title="C:/dev/Igor/src/Tools\l/ModelViewer/src/Manipulator.cpp">
<polygon fill="white" stroke="black" points="4281.5,-6 4281.5,-36 4445.5,-36 4445.5,-6 4281.5,-6"/>
<text text-anchor="start" x="4289.5" y="-24" font-family="Helvetica,sans-Serif" font-size="10.00">C:/dev/Igor/src/Tools</text>
<text text-anchor="middle" x="4363.5" y="-13" font-family="Helvetica,sans-Serif" font-size="10.00">/ModelViewer/src/Manipulator.cpp</text>
</a>
</g>
</g>
<!-- Node1&#45;&gt;Node33 -->
<g id="edge32" class="edge"><title>Node1&#45;&gt;Node33</title>
<path fill="none" stroke="midnightblue" d="M2547.12,-92.3195C2817.19,-91.2706 3927.48,-84.4117 4272.5,-42 4283.9,-40.5988 4295.97,-38.4364 4307.48,-36.0429"/>
<polygon fill="midnightblue" stroke="midnightblue" points="2546.74,-88.8208 2536.75,-92.3585 2546.77,-95.8207 2546.74,-88.8208"/>
</g>
<!-- Node34 -->
<g id="node34" class="node"><title>Node34</title>
<g id="a_node34"><a xlink:href="_model_viewer_8cpp.html" target="_top" xlink:title="C:/dev/Igor/src/Tools\l/ModelViewer/src/ModelViewer.cpp">
<polygon fill="white" stroke="black" points="4464,-6 4464,-36 4633,-36 4633,-6 4464,-6"/>
<text text-anchor="start" x="4472" y="-24" font-family="Helvetica,sans-Serif" font-size="10.00">C:/dev/Igor/src/Tools</text>
<text text-anchor="middle" x="4548.5" y="-13" font-family="Helvetica,sans-Serif" font-size="10.00">/ModelViewer/src/ModelViewer.cpp</text>
</a>
</g>
</g>
<!-- Node1&#45;&gt;Node34 -->
<g id="edge33" class="edge"><title>Node1&#45;&gt;Node34</title>
<path fill="none" stroke="midnightblue" d="M2547.04,-92.4477C2833.47,-91.9706 4071.44,-87.2781 4454.5,-42 4466.35,-40.5997 4478.91,-38.4214 4490.86,-36.009"/>
<polygon fill="midnightblue" stroke="midnightblue" points="2546.86,-88.9479 2536.86,-92.4636 2546.87,-95.9479 2546.86,-88.9479"/>
</g>
<!-- Node35 -->
<g id="node35" class="node"><title>Node35</title>
<g id="a_node35"><a xlink:href="_user_control_material_8cpp.html" target="_top" xlink:title="C:/dev/Igor/src/Tools\l/ModelViewer/src/UserControl\lMaterial.cpp">
<polygon fill="white" stroke="black" points="4651.5,-0.5 4651.5,-41.5 4797.5,-41.5 4797.5,-0.5 4651.5,-0.5"/>
<text text-anchor="start" x="4659.5" y="-29.5" font-family="Helvetica,sans-Serif" font-size="10.00">C:/dev/Igor/src/Tools</text>
<text text-anchor="start" x="4659.5" y="-18.5" font-family="Helvetica,sans-Serif" font-size="10.00">/ModelViewer/src/UserControl</text>
<text text-anchor="middle" x="4724.5" y="-7.5" font-family="Helvetica,sans-Serif" font-size="10.00">Material.cpp</text>
</a>
</g>
</g>
<!-- Node1&#45;&gt;Node35 -->
<g id="edge34" class="edge"><title>Node1&#45;&gt;Node35</title>
<path fill="none" stroke="midnightblue" d="M2547.26,-92.8406C2850.5,-94.3035 4221.07,-97.6677 4642.5,-42 4645.41,-41.6162 4648.36,-41.1703 4651.33,-40.6744"/>
<polygon fill="midnightblue" stroke="midnightblue" points="2546.94,-89.339 2536.93,-92.7894 2546.91,-96.339 2546.94,-89.339"/>
</g>
<!-- Node36 -->
<g id="node36" class="node"><title>Node36</title>
<g id="a_node36"><a xlink:href="_widget3_d_emitter_8cpp.html" target="_top" xlink:title="C:/dev/Igor/src/Tools\l/ModelViewer/src/Widget3DEmitter.cpp">
<polygon fill="white" stroke="black" points="4815.5,-6 4815.5,-36 5003.5,-36 5003.5,-6 4815.5,-6"/>
<text text-anchor="start" x="4823.5" y="-24" font-family="Helvetica,sans-Serif" font-size="10.00">C:/dev/Igor/src/Tools</text>
<text text-anchor="middle" x="4909.5" y="-13" font-family="Helvetica,sans-Serif" font-size="10.00">/ModelViewer/src/Widget3DEmitter.cpp</text>
</a>
</g>
</g>
<!-- Node1&#45;&gt;Node36 -->
<g id="edge35" class="edge"><title>Node1&#45;&gt;Node36</title>
<path fill="none" stroke="midnightblue" d="M2547.1,-92.575C2863.52,-92.7646 4349.47,-90.9881 4806.5,-42 4819.45,-40.6119 4833.2,-38.439 4846.3,-36.0281"/>
<polygon fill="midnightblue" stroke="midnightblue" points="2546.77,-89.0749 2536.77,-92.5679 2546.77,-96.0749 2546.77,-89.0749"/>
</g>
<!-- Node37 -->
<g id="node37" class="node"><title>Node37</title>
<g id="a_node37"><a xlink:href="_widget3_d_locator_8cpp.html" target="_top" xlink:title="C:/dev/Igor/src/Tools\l/ModelViewer/src/Widget3DLocator.cpp">
<polygon fill="white" stroke="black" points="5021.5,-6 5021.5,-36 5209.5,-36 5209.5,-6 5021.5,-6"/>
<text text-anchor="start" x="5029.5" y="-24" font-family="Helvetica,sans-Serif" font-size="10.00">C:/dev/Igor/src/Tools</text>
<text text-anchor="middle" x="5115.5" y="-13" font-family="Helvetica,sans-Serif" font-size="10.00">/ModelViewer/src/Widget3DLocator.cpp</text>
</a>
</g>
</g>
<!-- Node1&#45;&gt;Node37 -->
<g id="edge36" class="edge"><title>Node1&#45;&gt;Node37</title>
<path fill="none" stroke="midnightblue" d="M2546.95,-92.698C2879.51,-93.5955 4512.17,-95.1799 5012.5,-42 5025.45,-40.6234 5039.2,-38.4556 5052.3,-36.046"/>
<polygon fill="midnightblue" stroke="midnightblue" points="2546.59,-89.1971 2536.58,-92.6691 2546.57,-96.1971 2546.59,-89.1971"/>
</g>
<!-- Node38 -->
<g id="node38" class="node"><title>Node38</title>
<g id="a_node38"><a xlink:href="_o_b_j2_o_m_p_f_8cpp.html" target="_top" xlink:title="C:/dev/Igor/src/Tools\l/OBJ2OMPF/src/OBJ2OMPF.cpp">
<polygon fill="white" stroke="black" points="5228,-6 5228,-36 5391,-36 5391,-6 5228,-6"/>
<text text-anchor="start" x="5236" y="-24" font-family="Helvetica,sans-Serif" font-size="10.00">C:/dev/Igor/src/Tools</text>
<text text-anchor="middle" x="5309.5" y="-13" font-family="Helvetica,sans-Serif" font-size="10.00">/OBJ2OMPF/src/OBJ2OMPF.cpp</text>
</a>
</g>
</g>
<!-- Node1&#45;&gt;Node38 -->
<g id="edge37" class="edge"><title>Node1&#45;&gt;Node38</title>
<path fill="none" stroke="midnightblue" d="M2546.83,-92.1079C2920.85,-89.5428 4945.11,-74.2479 5218.5,-42 5230.07,-40.6357 5242.32,-38.4567 5253.97,-36.0294"/>
<polygon fill="midnightblue" stroke="midnightblue" points="2546.74,-88.6084 2536.76,-92.1766 2546.79,-95.6082 2546.74,-88.6084"/>
</g>
</g>
</svg>
