<?xml version="1.0" encoding="UTF-8" standalone="no"?>
<!DOCTYPE svg PUBLIC "-//W3C//DTD SVG 1.1//EN"
 "http://www.w3.org/Graphics/SVG/1.1/DTD/svg11.dtd">
<!-- Generated by graphviz version 2.38.0 (20140413.2041)
 -->
<!-- Title: stbi__wfopen Pages: 1 -->
<svg width="356pt" height="88pt"
 viewBox="0.00 0.00 356.00 88.00" xmlns="http://www.w3.org/2000/svg" xmlns:xlink="http://www.w3.org/1999/xlink">
<g id="graph0" class="graph" transform="scale(1 1) rotate(0) translate(4 84)">
<title>stbi__wfopen</title>
<polygon fill="white" stroke="none" points="-4,4 -4,-84 352,-84 352,4 -4,4"/>
<!-- Node1 -->
<g id="node1" class="node"><title>Node1</title>
<polygon fill="#bfbfbf" stroke="black" points="0,-30 0,-49 73,-49 73,-30 0,-30"/>
<text text-anchor="middle" x="36.5" y="-37" font-family="Helvetica,sans-Serif" font-size="10.00">stbi__wfopen</text>
</g>
<!-- Node2 -->
<g id="node2" class="node"><title>Node2</title>
<g id="a_node2"><a xlink:href="i_s_t_b_image_ext_8h.html#a684be545ac01f2f550499b52e2a2d515" target="_top" xlink:title="stbi_load">
<polygon fill="white" stroke="black" points="109,-30 109,-49 165,-49 165,-30 109,-30"/>
<text text-anchor="middle" x="137" y="-37" font-family="Helvetica,sans-Serif" font-size="10.00">stbi_load</text>
</a>
</g>
</g>
<!-- Node1&#45;&gt;Node2 -->
<g id="edge1" class="edge"><title>Node1&#45;&gt;Node2</title>
<path fill="none" stroke="midnightblue" d="M83.2137,-39.5C91.9784,-39.5 100.893,-39.5 108.84,-39.5"/>
<polygon fill="midnightblue" stroke="midnightblue" points="83.0608,-36.0001 73.0608,-39.5 83.0607,-43.0001 83.0608,-36.0001"/>
</g>
<!-- Node3 -->
<g id="node3" class="node"><title>Node3</title>
<g id="a_node3"><a xlink:href="class_igor_1_1i_texture_resource_factory.html#a8f1a94693c13cfe7cf5c5d14f5604732" target="_top" xlink:title="Igor::iTextureResourceFactory\l::loadTexture">
<polygon fill="white" stroke="black" points="201,-49.5 201,-79.5 348,-79.5 348,-49.5 201,-49.5"/>
<text text-anchor="start" x="209" y="-67.5" font-family="Helvetica,sans-Serif" font-size="10.00">Igor::iTextureResourceFactory</text>
<text text-anchor="middle" x="274.5" y="-56.5" font-family="Helvetica,sans-Serif" font-size="10.00">::loadTexture</text>
</a>
</g>
</g>
<!-- Node2&#45;&gt;Node3 -->
<g id="edge2" class="edge"><title>Node2&#45;&gt;Node3</title>
<path fill="none" stroke="midnightblue" d="M174.948,-46.317C183.083,-47.8179 191.971,-49.4577 200.971,-51.1183"/>
<polygon fill="midnightblue" stroke="midnightblue" points="175.564,-42.8716 165.095,-44.499 174.294,-49.7554 175.564,-42.8716"/>
</g>
<!-- Node4 -->
<g id="node4" class="node"><title>Node4</title>
<g id="a_node4"><a xlink:href="class_igor_1_1i_texture_resource_factory.html#aa0b9d1ae543ecbc10f8a36459298a120" target="_top" xlink:title="Igor::iTextureResourceFactory\l::loadFileAsPixmap">
<polygon fill="white" stroke="black" points="201,-0.5 201,-30.5 348,-30.5 348,-0.5 201,-0.5"/>
<text text-anchor="start" x="209" y="-18.5" font-family="Helvetica,sans-Serif" font-size="10.00">Igor::iTextureResourceFactory</text>
<text text-anchor="middle" x="274.5" y="-7.5" font-family="Helvetica,sans-Serif" font-size="10.00">::loadFileAsPixmap</text>
</a>
</g>
</g>
<!-- Node2&#45;&gt;Node4 -->
<g id="edge3" class="edge"><title>Node2&#45;&gt;Node4</title>
<path fill="none" stroke="midnightblue" d="M174.948,-32.9557C183.083,-31.5148 191.971,-29.9406 200.971,-28.3464"/>
<polygon fill="midnightblue" stroke="midnightblue" points="174.331,-29.5104 165.095,-34.7009 175.552,-36.4031 174.331,-29.5104"/>
</g>
</g>
</svg>
