<?xml version="1.0" encoding="UTF-8" standalone="no"?>
<!DOCTYPE svg PUBLIC "-//W3C//DTD SVG 1.1//EN"
 "http://www.w3.org/Graphics/SVG/1.1/DTD/svg11.dtd">
<!-- Generated by graphviz version 2.38.0 (20140413.2041)
 -->
<!-- Title: C:/dev/Igor/src/Igor/src/iSkyLightNode.h Pages: 1 -->
<svg width="396pt" height="106pt"
 viewBox="0.00 0.00 395.50 106.00" xmlns="http://www.w3.org/2000/svg" xmlns:xlink="http://www.w3.org/1999/xlink">
<g id="graph0" class="graph" transform="scale(1 1) rotate(0) translate(4 102)">
<title>C:/dev/Igor/src/Igor/src/iSkyLightNode.h</title>
<polygon fill="white" stroke="none" points="-4,4 -4,-102 391.5,-102 391.5,4 -4,4"/>
<!-- Node1 -->
<g id="node1" class="node"><title>Node1</title>
<polygon fill="#bfbfbf" stroke="black" points="137,-67.5 137,-97.5 244,-97.5 244,-67.5 137,-67.5"/>
<text text-anchor="start" x="145" y="-85.5" font-family="Helvetica,sans-Serif" font-size="10.00">C:/dev/Igor/src/Igor</text>
<text text-anchor="middle" x="190.5" y="-74.5" font-family="Helvetica,sans-Serif" font-size="10.00">/src/iSkyLightNode.h</text>
</g>
<!-- Node2 -->
<g id="node2" class="node"><title>Node2</title>
<g id="a_node2"><a xlink:href="i_node_factory_8cpp.html" target="_top" xlink:title="C:/dev/Igor/src/Igor\l/src/iNodeFactory.cpp">
<polygon fill="white" stroke="black" points="0,-0.5 0,-30.5 113,-30.5 113,-0.5 0,-0.5"/>
<text text-anchor="start" x="8" y="-18.5" font-family="Helvetica,sans-Serif" font-size="10.00">C:/dev/Igor/src/Igor</text>
<text text-anchor="middle" x="56.5" y="-7.5" font-family="Helvetica,sans-Serif" font-size="10.00">/src/iNodeFactory.cpp</text>
</a>
</g>
</g>
<!-- Node1&#45;&gt;Node2 -->
<g id="edge1" class="edge"><title>Node1&#45;&gt;Node2</title>
<path fill="none" stroke="midnightblue" d="M152.345,-62.9921C131.105,-52.6892 105.086,-40.0677 85.5193,-30.5765"/>
<polygon fill="midnightblue" stroke="midnightblue" points="150.899,-66.1806 161.424,-67.396 153.954,-59.8825 150.899,-66.1806"/>
</g>
<!-- Node3 -->
<g id="node3" class="node"><title>Node3</title>
<g id="a_node3"><a xlink:href="i_sky_light_node_8cpp.html" target="_top" xlink:title="C:/dev/Igor/src/Igor\l/src/iSkyLightNode.cpp">
<polygon fill="white" stroke="black" points="131.5,-0.5 131.5,-30.5 249.5,-30.5 249.5,-0.5 131.5,-0.5"/>
<text text-anchor="start" x="139.5" y="-18.5" font-family="Helvetica,sans-Serif" font-size="10.00">C:/dev/Igor/src/Igor</text>
<text text-anchor="middle" x="190.5" y="-7.5" font-family="Helvetica,sans-Serif" font-size="10.00">/src/iSkyLightNode.cpp</text>
</a>
</g>
</g>
<!-- Node1&#45;&gt;Node3 -->
<g id="edge2" class="edge"><title>Node1&#45;&gt;Node3</title>
<path fill="none" stroke="midnightblue" d="M190.5,-57.1081C190.5,-48.1539 190.5,-38.3227 190.5,-30.5765"/>
<polygon fill="midnightblue" stroke="midnightblue" points="187,-57.3959 190.5,-67.396 194,-57.396 187,-57.3959"/>
</g>
<!-- Node4 -->
<g id="node4" class="node"><title>Node4</title>
<g id="a_node4"><a xlink:href="i_sky_simulation_8cpp.html" target="_top" xlink:title="C:/dev/Igor/src/Igor\l/src/iSkySimulation.cpp">
<polygon fill="white" stroke="black" points="267.5,-0.5 267.5,-30.5 387.5,-30.5 387.5,-0.5 267.5,-0.5"/>
<text text-anchor="start" x="275.5" y="-18.5" font-family="Helvetica,sans-Serif" font-size="10.00">C:/dev/Igor/src/Igor</text>
<text text-anchor="middle" x="327.5" y="-7.5" font-family="Helvetica,sans-Serif" font-size="10.00">/src/iSkySimulation.cpp</text>
</a>
</g>
</g>
<!-- Node1&#45;&gt;Node4 -->
<g id="edge3" class="edge"><title>Node1&#45;&gt;Node4</title>
<path fill="none" stroke="midnightblue" d="M229.509,-62.9921C251.224,-52.6892 277.827,-40.0677 297.831,-30.5765"/>
<polygon fill="midnightblue" stroke="midnightblue" points="227.761,-59.9472 220.227,-67.396 230.762,-66.2715 227.761,-59.9472"/>
</g>
</g>
</svg>
