<?xml version="1.0" encoding="UTF-8" standalone="no"?>
<!DOCTYPE svg PUBLIC "-//W3C//DTD SVG 1.1//EN"
 "http://www.w3.org/Graphics/SVG/1.1/DTD/svg11.dtd">
<!-- Generated by graphviz version 2.38.0 (20140413.2041)
 -->
<!-- Title: C:/dev/Igor/Igor/src/Igor/src/iSprite.cpp Pages: 1 -->
<svg width="593pt" height="263pt"
 viewBox="0.00 0.00 592.50 263.00" xmlns="http://www.w3.org/2000/svg" xmlns:xlink="http://www.w3.org/1999/xlink">
<g id="graph0" class="graph" transform="scale(1 1) rotate(0) translate(4 259)">
<title>C:/dev/Igor/Igor/src/Igor/src/iSprite.cpp</title>
<polygon fill="white" stroke="none" points="-4,4 -4,-259 588.5,-259 588.5,4 -4,4"/>
<!-- Node0 -->
<g id="node1" class="node"><title>Node0</title>
<g id="a_node1"><a xlink:title=" ">
<polygon fill="#bfbfbf" stroke="black" points="226.5,-224.5 226.5,-254.5 327.5,-254.5 327.5,-224.5 226.5,-224.5"/>
<text text-anchor="start" x="234.5" y="-242.5" font-family="Helvetica,sans-Serif" font-size="10.00">C:/dev/Igor/Igor/src</text>
<text text-anchor="middle" x="277" y="-231.5" font-family="Helvetica,sans-Serif" font-size="10.00">/Igor/src/iSprite.cpp</text>
</a>
</g>
</g>
<!-- Node1 -->
<g id="node2" class="node"><title>Node1</title>
<g id="a_node2"><a xlink:href="i_sprite_8h.html" target="_top" xlink:title=" ">
<polygon fill="white" stroke="black" points="145.5,-168.5 145.5,-187.5 198.5,-187.5 198.5,-168.5 145.5,-168.5"/>
<text text-anchor="middle" x="172" y="-175.5" font-family="Helvetica,sans-Serif" font-size="10.00">iSprite.h</text>
</a>
</g>
</g>
<!-- Node0&#45;&gt;Node1 -->
<g id="edge1" class="edge"><title>Node0&#45;&gt;Node1</title>
<path fill="none" stroke="midnightblue" d="M252.116,-224.399C235.286,-214.862 213.161,-202.325 196.427,-192.842"/>
<polygon fill="midnightblue" stroke="midnightblue" points="197.704,-189.543 187.278,-187.658 194.253,-195.633 197.704,-189.543"/>
</g>
<!-- Node13 -->
<g id="node14" class="node"><title>Node13</title>
<g id="a_node14"><a xlink:href="i_texture_resource_factory_8h.html" target="_top" xlink:title=" ">
<polygon fill="white" stroke="black" points="297,-168.5 297,-187.5 431,-187.5 431,-168.5 297,-168.5"/>
<text text-anchor="middle" x="364" y="-175.5" font-family="Helvetica,sans-Serif" font-size="10.00">iTextureResourceFactory.h</text>
</a>
</g>
</g>
<!-- Node0&#45;&gt;Node13 -->
<g id="edge18" class="edge"><title>Node0&#45;&gt;Node13</title>
<path fill="none" stroke="midnightblue" d="M297.618,-224.399C311.303,-215.04 329.211,-202.792 342.978,-193.377"/>
<polygon fill="midnightblue" stroke="midnightblue" points="345.062,-196.192 351.341,-187.658 341.111,-190.414 345.062,-196.192"/>
</g>
<!-- Node2 -->
<g id="node3" class="node"><title>Node2</title>
<g id="a_node3"><a xlink:href="ia_vector2_8h.html" target="_top" xlink:title=" ">
<polygon fill="white" stroke="black" points="59,-56.5 59,-75.5 125,-75.5 125,-56.5 59,-56.5"/>
<text text-anchor="middle" x="92" y="-63.5" font-family="Helvetica,sans-Serif" font-size="10.00">iaVector2.h</text>
</a>
</g>
</g>
<!-- Node1&#45;&gt;Node2 -->
<g id="edge2" class="edge"><title>Node1&#45;&gt;Node2</title>
<path fill="none" stroke="midnightblue" d="M145.27,-174.817C118.141,-171.014 77.4496,-160.587 58,-132 47.2208,-116.157 60.859,-96.482 73.935,-82.9534"/>
<polygon fill="midnightblue" stroke="midnightblue" points="76.6115,-85.2346 81.3801,-75.7736 71.7523,-80.1959 76.6115,-85.2346"/>
</g>
<!-- Node7 -->
<g id="node8" class="node"><title>Node7</title>
<g id="a_node8"><a xlink:href="i_texture_8h.html" target="_top" xlink:title=" ">
<polygon fill="white" stroke="black" points="257.5,-112.5 257.5,-131.5 316.5,-131.5 316.5,-112.5 257.5,-112.5"/>
<text text-anchor="middle" x="287" y="-119.5" font-family="Helvetica,sans-Serif" font-size="10.00">iTexture.h</text>
</a>
</g>
</g>
<!-- Node1&#45;&gt;Node7 -->
<g id="edge7" class="edge"><title>Node1&#45;&gt;Node7</title>
<path fill="none" stroke="midnightblue" d="M190.222,-168.444C208.896,-159.675 238.156,-145.935 259.617,-135.858"/>
<polygon fill="midnightblue" stroke="midnightblue" points="261.299,-138.935 268.863,-131.516 258.324,-132.599 261.299,-138.935"/>
</g>
<!-- Node9 -->
<g id="node10" class="node"><title>Node9</title>
<g id="a_node10"><a xlink:title=" ">
<polygon fill="white" stroke="#bfbfbf" points="254,-0.5 254,-19.5 296,-19.5 296,-0.5 254,-0.5"/>
<text text-anchor="middle" x="275" y="-7.5" font-family="Helvetica,sans-Serif" font-size="10.00">vector</text>
</a>
</g>
</g>
<!-- Node1&#45;&gt;Node9 -->
<g id="edge16" class="edge"><title>Node1&#45;&gt;Node9</title>
<path fill="none" stroke="midnightblue" d="M169.095,-168.489C162.467,-147.404 148.535,-91.8589 172,-56 180.374,-43.2024 217.11,-29.2056 244.336,-20.2762"/>
<polygon fill="midnightblue" stroke="midnightblue" points="245.408,-23.608 253.866,-17.2273 243.275,-16.9409 245.408,-23.608"/>
</g>
<!-- Node11 -->
<g id="node12" class="node"><title>Node11</title>
<g id="a_node12"><a xlink:title=" ">
<polygon fill="white" stroke="#bfbfbf" points="181,-56.5 181,-75.5 233,-75.5 233,-56.5 181,-56.5"/>
<text text-anchor="middle" x="207" y="-63.5" font-family="Helvetica,sans-Serif" font-size="10.00">memory</text>
</a>
</g>
</g>
<!-- Node1&#45;&gt;Node11 -->
<g id="edge15" class="edge"><title>Node1&#45;&gt;Node11</title>
<path fill="none" stroke="midnightblue" d="M174.746,-168.368C180.42,-150.537 193.542,-109.295 201.186,-85.2717"/>
<polygon fill="midnightblue" stroke="midnightblue" points="204.57,-86.1819 204.266,-75.5914 197.899,-84.0594 204.57,-86.1819"/>
</g>
<!-- Node12 -->
<g id="node13" class="node"><title>Node12</title>
<g id="a_node13"><a xlink:href="i_sprite_8inl.html" target="_top" xlink:title=" ">
<polygon fill="white" stroke="black" points="67.5,-112.5 67.5,-131.5 124.5,-131.5 124.5,-112.5 67.5,-112.5"/>
<text text-anchor="middle" x="96" y="-119.5" font-family="Helvetica,sans-Serif" font-size="10.00">iSprite.inl</text>
</a>
</g>
</g>
<!-- Node1&#45;&gt;Node12 -->
<g id="edge17" class="edge"><title>Node1&#45;&gt;Node12</title>
<path fill="none" stroke="midnightblue" d="M159.789,-168.324C148.224,-160.107 130.625,-147.602 116.839,-137.807"/>
<polygon fill="midnightblue" stroke="midnightblue" points="118.612,-134.773 108.433,-131.834 114.557,-140.479 118.612,-134.773"/>
</g>
<!-- Node3 -->
<g id="node4" class="node"><title>Node3</title>
<g id="a_node4"><a xlink:href="ia_defines_8h.html" target="_top" xlink:title=" ">
<polygon fill="white" stroke="black" points="319.5,-0.5 319.5,-19.5 384.5,-19.5 384.5,-0.5 319.5,-0.5"/>
<text text-anchor="middle" x="352" y="-7.5" font-family="Helvetica,sans-Serif" font-size="10.00">iaDefines.h</text>
</a>
</g>
</g>
<!-- Node2&#45;&gt;Node3 -->
<g id="edge3" class="edge"><title>Node2&#45;&gt;Node3</title>
<path fill="none" stroke="midnightblue" d="M125.193,-58.106C172.167,-48.3499 258.044,-30.5139 309.585,-19.8094"/>
<polygon fill="midnightblue" stroke="midnightblue" points="310.334,-23.2285 319.413,-17.768 308.91,-16.3748 310.334,-23.2285"/>
</g>
<!-- Node4 -->
<g id="node5" class="node"><title>Node4</title>
<g id="a_node5"><a xlink:title=" ">
<polygon fill="white" stroke="#bfbfbf" points="0,-0.5 0,-19.5 44,-19.5 44,-0.5 0,-0.5"/>
<text text-anchor="middle" x="22" y="-7.5" font-family="Helvetica,sans-Serif" font-size="10.00">cmath</text>
</a>
</g>
</g>
<!-- Node2&#45;&gt;Node4 -->
<g id="edge4" class="edge"><title>Node2&#45;&gt;Node4</title>
<path fill="none" stroke="midnightblue" d="M80.7533,-56.324C70.2026,-48.1849 54.1993,-35.8395 41.5578,-26.0874"/>
<polygon fill="midnightblue" stroke="midnightblue" points="43.507,-23.1707 33.4513,-19.8339 39.2314,-28.7132 43.507,-23.1707"/>
</g>
<!-- Node5 -->
<g id="node6" class="node"><title>Node5</title>
<g id="a_node6"><a xlink:title=" ">
<polygon fill="white" stroke="#bfbfbf" points="173,-0.5 173,-19.5 225,-19.5 225,-0.5 173,-0.5"/>
<text text-anchor="middle" x="199" y="-7.5" font-family="Helvetica,sans-Serif" font-size="10.00">ostream</text>
</a>
</g>
</g>
<!-- Node2&#45;&gt;Node5 -->
<g id="edge5" class="edge"><title>Node2&#45;&gt;Node5</title>
<path fill="none" stroke="midnightblue" d="M109.191,-56.324C126.351,-47.6641 152.946,-34.2424 172.747,-24.249"/>
<polygon fill="midnightblue" stroke="midnightblue" points="174.501,-27.2847 181.851,-19.6545 171.347,-21.0354 174.501,-27.2847"/>
</g>
<!-- Node6 -->
<g id="node7" class="node"><title>Node6</title>
<g id="a_node7"><a xlink:href="ia_vector2_8inl.html" target="_top" xlink:title=" ">
<polygon fill="white" stroke="black" points="62.5,-0.5 62.5,-19.5 133.5,-19.5 133.5,-0.5 62.5,-0.5"/>
<text text-anchor="middle" x="98" y="-7.5" font-family="Helvetica,sans-Serif" font-size="10.00">iaVector2.inl</text>
</a>
</g>
</g>
<!-- Node2&#45;&gt;Node6 -->
<g id="edge6" class="edge"><title>Node2&#45;&gt;Node6</title>
<path fill="none" stroke="midnightblue" d="M92.9908,-56.083C93.7859,-48.9272 94.9294,-38.6353 95.9232,-29.6911"/>
<polygon fill="midnightblue" stroke="midnightblue" points="99.4018,-30.0765 97.0277,-19.7511 92.4447,-29.3034 99.4018,-30.0765"/>
</g>
<!-- Node8 -->
<g id="node9" class="node"><title>Node8</title>
<g id="a_node9"><a xlink:href="ia_string_8h.html" target="_top" xlink:title=" ">
<polygon fill="white" stroke="black" points="251,-56.5 251,-75.5 309,-75.5 309,-56.5 251,-56.5"/>
<text text-anchor="middle" x="280" y="-63.5" font-family="Helvetica,sans-Serif" font-size="10.00">iaString.h</text>
</a>
</g>
</g>
<!-- Node7&#45;&gt;Node8 -->
<g id="edge8" class="edge"><title>Node7&#45;&gt;Node8</title>
<path fill="none" stroke="midnightblue" d="M285.844,-112.083C284.916,-104.927 283.582,-94.6353 282.423,-85.6911"/>
<polygon fill="midnightblue" stroke="midnightblue" points="285.891,-85.2181 281.134,-75.7511 278.949,-86.1181 285.891,-85.2181"/>
</g>
<!-- Node10 -->
<g id="node11" class="node"><title>Node10</title>
<g id="a_node11"><a xlink:href="i_defines_8h.html" target="_top" xlink:title=" ">
<polygon fill="white" stroke="black" points="327.5,-56.5 327.5,-75.5 386.5,-75.5 386.5,-56.5 327.5,-56.5"/>
<text text-anchor="middle" x="357" y="-63.5" font-family="Helvetica,sans-Serif" font-size="10.00">iDefines.h</text>
</a>
</g>
</g>
<!-- Node7&#45;&gt;Node10 -->
<g id="edge12" class="edge"><title>Node7&#45;&gt;Node10</title>
<path fill="none" stroke="midnightblue" d="M298.247,-112.324C308.797,-104.185 324.801,-91.8395 337.442,-82.0874"/>
<polygon fill="midnightblue" stroke="midnightblue" points="339.769,-84.7132 345.549,-75.8339 335.493,-79.1707 339.769,-84.7132"/>
</g>
<!-- Node7&#45;&gt;Node11 -->
<g id="edge14" class="edge"><title>Node7&#45;&gt;Node11</title>
<path fill="none" stroke="midnightblue" d="M274.147,-112.324C261.784,-103.979 242.87,-91.2122 228.263,-81.3524"/>
<polygon fill="midnightblue" stroke="midnightblue" points="230.068,-78.3483 219.821,-75.6545 226.152,-84.1503 230.068,-78.3483"/>
</g>
<!-- Node8&#45;&gt;Node3 -->
<g id="edge9" class="edge"><title>Node8&#45;&gt;Node3</title>
<path fill="none" stroke="midnightblue" d="M291.568,-56.324C302.42,-48.1849 318.881,-35.8395 331.883,-26.0874"/>
<polygon fill="midnightblue" stroke="midnightblue" points="334.321,-28.6339 340.221,-19.8339 330.121,-23.0339 334.321,-28.6339"/>
</g>
<!-- Node8&#45;&gt;Node5 -->
<g id="edge10" class="edge"><title>Node8&#45;&gt;Node5</title>
<path fill="none" stroke="midnightblue" d="M266.986,-56.324C254.468,-47.979 235.318,-35.2122 220.529,-25.3524"/>
<polygon fill="midnightblue" stroke="midnightblue" points="222.244,-22.2894 211.982,-19.6545 218.361,-28.1137 222.244,-22.2894"/>
</g>
<!-- Node8&#45;&gt;Node9 -->
<g id="edge11" class="edge"><title>Node8&#45;&gt;Node9</title>
<path fill="none" stroke="midnightblue" d="M279.174,-56.083C278.519,-49.0059 277.58,-38.8611 276.758,-29.9865"/>
<polygon fill="midnightblue" stroke="midnightblue" points="280.217,-29.3858 275.81,-19.7511 273.247,-30.0312 280.217,-29.3858"/>
</g>
<!-- Node10&#45;&gt;Node3 -->
<g id="edge13" class="edge"><title>Node10&#45;&gt;Node3</title>
<path fill="none" stroke="midnightblue" d="M356.174,-56.083C355.519,-49.0059 354.58,-38.8611 353.758,-29.9865"/>
<polygon fill="midnightblue" stroke="midnightblue" points="357.217,-29.3858 352.81,-19.7511 350.247,-30.0312 357.217,-29.3858"/>
</g>
<!-- Node13&#45;&gt;Node7 -->
<g id="edge19" class="edge"><title>Node13&#45;&gt;Node7</title>
<path fill="none" stroke="midnightblue" d="M351.629,-168.324C339.842,-160.058 321.868,-147.453 307.864,-137.632"/>
<polygon fill="midnightblue" stroke="midnightblue" points="309.538,-134.531 299.341,-131.655 305.518,-140.262 309.538,-134.531"/>
</g>
<!-- Node13&#45;&gt;Node8 -->
<g id="edge23" class="edge"><title>Node13&#45;&gt;Node8</title>
<path fill="none" stroke="midnightblue" d="M359.584,-168.152C352.937,-155.221 339.578,-130.671 325,-112 316.775,-101.465 306.275,-90.8387 297.487,-82.5593"/>
<polygon fill="midnightblue" stroke="midnightblue" points="299.742,-79.8779 290.012,-75.6855 295.004,-85.0306 299.742,-79.8779"/>
</g>
<!-- Node13&#45;&gt;Node11 -->
<g id="edge27" class="edge"><title>Node13&#45;&gt;Node11</title>
<path fill="none" stroke="midnightblue" d="M324.754,-168.468C300.618,-161.699 270.175,-150.267 248,-132 232.752,-119.44 221.427,-99.6652 214.588,-85.223"/>
<polygon fill="midnightblue" stroke="midnightblue" points="217.671,-83.5426 210.409,-75.8286 211.276,-86.3879 217.671,-83.5426"/>
</g>
<!-- Node14 -->
<g id="node15" class="node"><title>Node14</title>
<g id="a_node15"><a xlink:href="ia_singleton_8h.html" target="_top" xlink:title=" ">
<polygon fill="white" stroke="black" points="511.5,-112.5 511.5,-131.5 584.5,-131.5 584.5,-112.5 511.5,-112.5"/>
<text text-anchor="middle" x="548" y="-119.5" font-family="Helvetica,sans-Serif" font-size="10.00">iaSingleton.h</text>
</a>
</g>
</g>
<!-- Node13&#45;&gt;Node14 -->
<g id="edge20" class="edge"><title>Node13&#45;&gt;Node14</title>
<path fill="none" stroke="midnightblue" d="M393.155,-168.444C424.513,-159.241 474.531,-144.562 509.197,-134.388"/>
<polygon fill="midnightblue" stroke="midnightblue" points="510.371,-137.691 518.981,-131.516 508.4,-130.974 510.371,-137.691"/>
</g>
<!-- Node15 -->
<g id="node16" class="node"><title>Node15</title>
<g id="a_node16"><a xlink:href="ia_mutex_8h.html" target="_top" xlink:title=" ">
<polygon fill="white" stroke="black" points="404.5,-56.5 404.5,-75.5 463.5,-75.5 463.5,-56.5 404.5,-56.5"/>
<text text-anchor="middle" x="434" y="-63.5" font-family="Helvetica,sans-Serif" font-size="10.00">iaMutex.h</text>
</a>
</g>
</g>
<!-- Node13&#45;&gt;Node15 -->
<g id="edge24" class="edge"><title>Node13&#45;&gt;Node15</title>
<path fill="none" stroke="midnightblue" d="M368.881,-168.482C376.108,-155.962 390.181,-131.92 403,-112 409.108,-102.509 416.234,-92.121 422.112,-83.7193"/>
<polygon fill="midnightblue" stroke="midnightblue" points="424.993,-85.7082 427.895,-75.5186 419.272,-81.6744 424.993,-85.7082"/>
</g>
<!-- Node16 -->
<g id="node17" class="node"><title>Node16</title>
<g id="a_node17"><a xlink:title=" ">
<polygon fill="white" stroke="#bfbfbf" points="411.5,-112.5 411.5,-131.5 440.5,-131.5 440.5,-112.5 411.5,-112.5"/>
<text text-anchor="middle" x="426" y="-119.5" font-family="Helvetica,sans-Serif" font-size="10.00">list</text>
</a>
</g>
</g>
<!-- Node13&#45;&gt;Node16 -->
<g id="edge25" class="edge"><title>Node13&#45;&gt;Node16</title>
<path fill="none" stroke="midnightblue" d="M373.961,-168.324C383.127,-160.341 396.937,-148.313 408.028,-138.653"/>
<polygon fill="midnightblue" stroke="midnightblue" points="410.615,-141.041 415.857,-131.834 406.018,-135.762 410.615,-141.041"/>
</g>
<!-- Node17 -->
<g id="node18" class="node"><title>Node17</title>
<g id="a_node18"><a xlink:title=" ">
<polygon fill="white" stroke="#bfbfbf" points="458.5,-112.5 458.5,-131.5 493.5,-131.5 493.5,-112.5 458.5,-112.5"/>
<text text-anchor="middle" x="476" y="-119.5" font-family="Helvetica,sans-Serif" font-size="10.00">map</text>
</a>
</g>
</g>
<!-- Node13&#45;&gt;Node17 -->
<g id="edge26" class="edge"><title>Node13&#45;&gt;Node17</title>
<path fill="none" stroke="midnightblue" d="M381.995,-168.324C400.144,-159.573 428.379,-145.96 449.17,-135.936"/>
<polygon fill="midnightblue" stroke="midnightblue" points="450.932,-138.972 458.419,-131.476 447.891,-132.667 450.932,-138.972"/>
</g>
<!-- Node14&#45;&gt;Node15 -->
<g id="edge21" class="edge"><title>Node14&#45;&gt;Node15</title>
<path fill="none" stroke="midnightblue" d="M529.936,-112.444C511.425,-103.675 482.419,-89.9355 461.145,-79.8579"/>
<polygon fill="midnightblue" stroke="midnightblue" points="462.515,-76.6343 451.979,-75.5164 459.518,-82.9604 462.515,-76.6343"/>
</g>
<!-- Node15&#45;&gt;Node3 -->
<g id="edge22" class="edge"><title>Node15&#45;&gt;Node3</title>
<path fill="none" stroke="midnightblue" d="M420.825,-56.324C408.153,-47.979 388.767,-35.2122 373.794,-25.3524"/>
<polygon fill="midnightblue" stroke="midnightblue" points="375.419,-22.2313 365.142,-19.6545 371.569,-28.0776 375.419,-22.2313"/>
</g>
</g>
</svg>
