<?xml version="1.0" encoding="UTF-8" standalone="no"?>
<!DOCTYPE svg PUBLIC "-//W3C//DTD SVG 1.1//EN"
 "http://www.w3.org/Graphics/SVG/1.1/DTD/svg11.dtd">
<!-- Generated by graphviz version 2.38.0 (20140413.2041)
 -->
<!-- Title: C:/dev/Igor/src/Igor/src/iStatisticsVisualizer.h Pages: 1 -->
<svg width="416pt" height="173pt"
 viewBox="0.00 0.00 416.00 173.00" xmlns="http://www.w3.org/2000/svg" xmlns:xlink="http://www.w3.org/1999/xlink">
<g id="graph0" class="graph" transform="scale(1 1) rotate(0) translate(4 169)">
<title>C:/dev/Igor/src/Igor/src/iStatisticsVisualizer.h</title>
<polygon fill="white" stroke="none" points="-4,4 -4,-169 412,-169 412,4 -4,4"/>
<!-- Node1 -->
<g id="node1" class="node"><title>Node1</title>
<polygon fill="#bfbfbf" stroke="black" points="89,-134.5 89,-164.5 220,-164.5 220,-134.5 89,-134.5"/>
<text text-anchor="start" x="97" y="-152.5" font-family="Helvetica,sans-Serif" font-size="10.00">C:/dev/Igor/src/Igor</text>
<text text-anchor="middle" x="154.5" y="-141.5" font-family="Helvetica,sans-Serif" font-size="10.00">/src/iStatisticsVisualizer.h</text>
</g>
<!-- Node2 -->
<g id="node2" class="node"><title>Node2</title>
<g id="a_node2"><a xlink:href="i_statistics_visualizer_8cpp.html" target="_top" xlink:title="C:/dev/Igor/src/Igor\l/src/iStatisticsVisualizer.cpp">
<polygon fill="white" stroke="black" points="0,-67.5 0,-97.5 141,-97.5 141,-67.5 0,-67.5"/>
<text text-anchor="start" x="8" y="-85.5" font-family="Helvetica,sans-Serif" font-size="10.00">C:/dev/Igor/src/Igor</text>
<text text-anchor="middle" x="70.5" y="-74.5" font-family="Helvetica,sans-Serif" font-size="10.00">/src/iStatisticsVisualizer.cpp</text>
</a>
</g>
</g>
<!-- Node1&#45;&gt;Node2 -->
<g id="edge1" class="edge"><title>Node1&#45;&gt;Node2</title>
<path fill="none" stroke="midnightblue" d="M128.224,-128.168C115.38,-118.228 100.242,-106.514 88.6912,-97.5765"/>
<polygon fill="midnightblue" stroke="midnightblue" points="126.223,-131.044 136.273,-134.396 130.506,-125.508 126.223,-131.044"/>
</g>
<!-- Node3 -->
<g id="node3" class="node"><title>Node3</title>
<g id="a_node3"><a xlink:href="_model_viewer_8h.html" target="_top" xlink:title="C:/dev/Igor/src/Tools\l/ModelViewer/src/ModelViewer.h">
<polygon fill="white" stroke="black" points="159.5,-67.5 159.5,-97.5 317.5,-97.5 317.5,-67.5 159.5,-67.5"/>
<text text-anchor="start" x="167.5" y="-85.5" font-family="Helvetica,sans-Serif" font-size="10.00">C:/dev/Igor/src/Tools</text>
<text text-anchor="middle" x="238.5" y="-74.5" font-family="Helvetica,sans-Serif" font-size="10.00">/ModelViewer/src/ModelViewer.h</text>
</a>
</g>
</g>
<!-- Node1&#45;&gt;Node3 -->
<g id="edge2" class="edge"><title>Node1&#45;&gt;Node3</title>
<path fill="none" stroke="midnightblue" d="M180.776,-128.168C193.62,-118.228 208.758,-106.514 220.309,-97.5765"/>
<polygon fill="midnightblue" stroke="midnightblue" points="178.494,-125.508 172.727,-134.396 182.777,-131.044 178.494,-125.508"/>
</g>
<!-- Node4 -->
<g id="node4" class="node"><title>Node4</title>
<g id="a_node4"><a xlink:href="_model_viewer_2src_2main_8cpp.html" target="_top" xlink:title="C:/dev/Igor/src/Tools\l/ModelViewer/src/main.cpp">
<polygon fill="white" stroke="black" points="86.5,-0.5 86.5,-30.5 220.5,-30.5 220.5,-0.5 86.5,-0.5"/>
<text text-anchor="start" x="94.5" y="-18.5" font-family="Helvetica,sans-Serif" font-size="10.00">C:/dev/Igor/src/Tools</text>
<text text-anchor="middle" x="153.5" y="-7.5" font-family="Helvetica,sans-Serif" font-size="10.00">/ModelViewer/src/main.cpp</text>
</a>
</g>
</g>
<!-- Node3&#45;&gt;Node4 -->
<g id="edge3" class="edge"><title>Node3&#45;&gt;Node4</title>
<path fill="none" stroke="midnightblue" d="M211.912,-61.1677C198.914,-51.2283 183.596,-39.5144 171.908,-30.5765"/>
<polygon fill="midnightblue" stroke="midnightblue" points="209.987,-64.1017 220.056,-67.396 214.239,-58.5412 209.987,-64.1017"/>
</g>
<!-- Node5 -->
<g id="node5" class="node"><title>Node5</title>
<g id="a_node5"><a xlink:href="_model_viewer_8cpp.html" target="_top" xlink:title="C:/dev/Igor/src/Tools\l/ModelViewer/src/ModelViewer.cpp">
<polygon fill="white" stroke="black" points="239,-0.5 239,-30.5 408,-30.5 408,-0.5 239,-0.5"/>
<text text-anchor="start" x="247" y="-18.5" font-family="Helvetica,sans-Serif" font-size="10.00">C:/dev/Igor/src/Tools</text>
<text text-anchor="middle" x="323.5" y="-7.5" font-family="Helvetica,sans-Serif" font-size="10.00">/ModelViewer/src/ModelViewer.cpp</text>
</a>
</g>
</g>
<!-- Node3&#45;&gt;Node5 -->
<g id="edge4" class="edge"><title>Node3&#45;&gt;Node5</title>
<path fill="none" stroke="midnightblue" d="M265.088,-61.1677C278.086,-51.2283 293.404,-39.5144 305.092,-30.5765"/>
<polygon fill="midnightblue" stroke="midnightblue" points="262.761,-58.5412 256.944,-67.396 267.013,-64.1017 262.761,-58.5412"/>
</g>
</g>
</svg>
