<?xml version="1.0" encoding="UTF-8" standalone="no"?>
<!DOCTYPE svg PUBLIC "-//W3C//DTD SVG 1.1//EN"
 "http://www.w3.org/Graphics/SVG/1.1/DTD/svg11.dtd">
<!-- Generated by graphviz version 2.38.0 (20140413.2041)
 -->
<!-- Title: C:/dev/Igor/Igor/src/Igor/src/iStatisticsSection.h Pages: 1 -->
<svg width="1368pt" height="184pt"
 viewBox="0.00 0.00 1368.00 184.00" xmlns="http://www.w3.org/2000/svg" xmlns:xlink="http://www.w3.org/1999/xlink">
<g id="graph0" class="graph" transform="scale(1 1) rotate(0) translate(4 180)">
<title>C:/dev/Igor/Igor/src/Igor/src/iStatisticsSection.h</title>
<polygon fill="white" stroke="none" points="-4,4 -4,-180 1364,-180 1364,4 -4,4"/>
<!-- Node8 -->
<g id="node1" class="node"><title>Node8</title>
<g id="a_node1"><a xlink:title=" ">
<polygon fill="#bfbfbf" stroke="black" points="971,-145.5 971,-175.5 1111,-175.5 1111,-145.5 971,-145.5"/>
<text text-anchor="start" x="979" y="-163.5" font-family="Helvetica,sans-Serif" font-size="10.00">C:/dev/Igor/Igor/src</text>
<text text-anchor="middle" x="1041" y="-152.5" font-family="Helvetica,sans-Serif" font-size="10.00">/Igor/src/iStatisticsSection.h</text>
</a>
</g>
</g>
<!-- Node9 -->
<g id="node2" class="node"><title>Node9</title>
<g id="a_node2"><a xlink:href="i_statistics_8h.html" target="_top" xlink:title=" ">
<polygon fill="white" stroke="black" points="667.5,-78.5 667.5,-108.5 774.5,-108.5 774.5,-78.5 667.5,-78.5"/>
<text text-anchor="start" x="675.5" y="-96.5" font-family="Helvetica,sans-Serif" font-size="10.00">C:/dev/Igor/Igor/src</text>
<text text-anchor="middle" x="721" y="-85.5" font-family="Helvetica,sans-Serif" font-size="10.00">/Igor/src/iStatistics.h</text>
</a>
</g>
</g>
<!-- Node8&#45;&gt;Node9 -->
<g id="edge1" class="edge"><title>Node8&#45;&gt;Node9</title>
<path fill="none" stroke="midnightblue" d="M962.038,-143.461C903.698,-131.61 825.825,-115.793 774.588,-105.385"/>
<polygon fill="midnightblue" stroke="midnightblue" points="961.462,-146.915 971.959,-145.476 962.856,-140.055 961.462,-146.915"/>
</g>
<!-- Node15 -->
<g id="node8" class="node"><title>Node15</title>
<g id="a_node8"><a xlink:href="i_statistics_visualizer_8cpp.html" target="_top" xlink:title=" ">
<polygon fill="white" stroke="black" points="1200,-6 1200,-36 1360,-36 1360,-6 1200,-6"/>
<text text-anchor="start" x="1208" y="-24" font-family="Helvetica,sans-Serif" font-size="10.00">C:/dev/Igor/Igor/src</text>
<text text-anchor="middle" x="1280" y="-13" font-family="Helvetica,sans-Serif" font-size="10.00">/Igor/src/iStatisticsVisualizer.cpp</text>
</a>
</g>
</g>
<!-- Node8&#45;&gt;Node15 -->
<g id="edge13" class="edge"><title>Node8&#45;&gt;Node15</title>
<path fill="none" stroke="midnightblue" d="M1040.31,-135.222C1041.13,-117.119 1045.28,-93.0227 1060,-78 1065.68,-72.2031 1155.17,-50.6743 1218.24,-36.0632"/>
<polygon fill="midnightblue" stroke="midnightblue" points="1036.8,-135.277 1040.15,-145.329 1043.8,-135.383 1036.8,-135.277"/>
</g>
<!-- Node20 -->
<g id="node13" class="node"><title>Node20</title>
<g id="a_node13"><a xlink:href="i_statistics_section_8cpp.html" target="_top" xlink:title=" ">
<polygon fill="white" stroke="black" points="1069,-78.5 1069,-108.5 1219,-108.5 1219,-78.5 1069,-78.5"/>
<text text-anchor="start" x="1077" y="-96.5" font-family="Helvetica,sans-Serif" font-size="10.00">C:/dev/Igor/Igor/src</text>
<text text-anchor="middle" x="1144" y="-85.5" font-family="Helvetica,sans-Serif" font-size="10.00">/Igor/src/iStatisticsSection.cpp</text>
</a>
</g>
</g>
<!-- Node8&#45;&gt;Node20 -->
<g id="edge12" class="edge"><title>Node8&#45;&gt;Node20</title>
<path fill="none" stroke="midnightblue" d="M1071.88,-140.015C1087.9,-129.9 1107.13,-117.77 1121.69,-108.577"/>
<polygon fill="midnightblue" stroke="midnightblue" points="1069.94,-137.099 1063.35,-145.396 1073.67,-143.019 1069.94,-137.099"/>
</g>
<!-- Node10 -->
<g id="node3" class="node"><title>Node10</title>
<g id="a_node3"><a xlink:href="i_application_8cpp.html" target="_top" xlink:title=" ">
<polygon fill="white" stroke="black" points="0,-6 0,-36 124,-36 124,-6 0,-6"/>
<text text-anchor="start" x="8" y="-24" font-family="Helvetica,sans-Serif" font-size="10.00">C:/dev/Igor/Igor/src</text>
<text text-anchor="middle" x="62" y="-13" font-family="Helvetica,sans-Serif" font-size="10.00">/Igor/src/iApplication.cpp</text>
</a>
</g>
</g>
<!-- Node9&#45;&gt;Node10 -->
<g id="edge2" class="edge"><title>Node9&#45;&gt;Node10</title>
<path fill="none" stroke="midnightblue" d="M657.326,-90.9643C548.872,-87.4746 321.711,-76.364 133,-42 124.559,-40.4629 115.673,-38.3604 107.153,-36.0938"/>
<polygon fill="midnightblue" stroke="midnightblue" points="657.342,-94.4664 667.446,-91.2788 657.559,-87.4698 657.342,-94.4664"/>
</g>
<!-- Node11 -->
<g id="node4" class="node"><title>Node11</title>
<g id="a_node4"><a xlink:href="_igor_8cpp.html" target="_top" xlink:title=" ">
<polygon fill="white" stroke="black" points="142,-6 142,-36 240,-36 240,-6 142,-6"/>
<text text-anchor="start" x="150" y="-24" font-family="Helvetica,sans-Serif" font-size="10.00">C:/dev/Igor/Igor/src</text>
<text text-anchor="middle" x="191" y="-13" font-family="Helvetica,sans-Serif" font-size="10.00">/Igor/src/Igor.cpp</text>
</a>
</g>
</g>
<!-- Node9&#45;&gt;Node11 -->
<g id="edge3" class="edge"><title>Node9&#45;&gt;Node11</title>
<path fill="none" stroke="midnightblue" d="M657.073,-90.2257C565.636,-85.946 392.675,-74.0264 249,-42 242.035,-40.4474 234.742,-38.3375 227.771,-36.0684"/>
<polygon fill="midnightblue" stroke="midnightblue" points="657.127,-93.7316 667.275,-90.6872 657.444,-86.7388 657.127,-93.7316"/>
</g>
<!-- Node12 -->
<g id="node5" class="node"><title>Node12</title>
<g id="a_node5"><a xlink:href="i_render_engine_8cpp.html" target="_top" xlink:title=" ">
<polygon fill="white" stroke="black" points="258.5,-6 258.5,-36 395.5,-36 395.5,-6 258.5,-6"/>
<text text-anchor="start" x="266.5" y="-24" font-family="Helvetica,sans-Serif" font-size="10.00">C:/dev/Igor/Igor/src</text>
<text text-anchor="middle" x="327" y="-13" font-family="Helvetica,sans-Serif" font-size="10.00">/Igor/src/iRenderEngine.cpp</text>
</a>
</g>
</g>
<!-- Node9&#45;&gt;Node12 -->
<g id="edge4" class="edge"><title>Node9&#45;&gt;Node12</title>
<path fill="none" stroke="midnightblue" d="M657.38,-84.0969C593.34,-75.225 491.875,-60.0393 405,-42 396.514,-40.2378 387.563,-38.1561 378.87,-36.013"/>
<polygon fill="midnightblue" stroke="midnightblue" points="656.945,-87.5699 667.329,-85.466 657.9,-80.6353 656.945,-87.5699"/>
</g>
<!-- Node13 -->
<g id="node6" class="node"><title>Node13</title>
<g id="a_node6"><a xlink:href="i_scene_8cpp.html" target="_top" xlink:title=" ">
<polygon fill="white" stroke="black" points="414,-6 414,-36 518,-36 518,-6 414,-6"/>
<text text-anchor="start" x="422" y="-24" font-family="Helvetica,sans-Serif" font-size="10.00">C:/dev/Igor/Igor/src</text>
<text text-anchor="middle" x="466" y="-13" font-family="Helvetica,sans-Serif" font-size="10.00">/Igor/src/iScene.cpp</text>
</a>
</g>
</g>
<!-- Node9&#45;&gt;Node13 -->
<g id="edge5" class="edge"><title>Node9&#45;&gt;Node13</title>
<path fill="none" stroke="midnightblue" d="M657.323,-76.985C619.329,-67.4644 570.22,-54.6973 527,-42 520.691,-40.1466 514.05,-38.0851 507.565,-36.01"/>
<polygon fill="midnightblue" stroke="midnightblue" points="656.68,-80.4319 667.23,-79.4572 658.375,-73.6401 656.68,-80.4319"/>
</g>
<!-- Node14 -->
<g id="node7" class="node"><title>Node14</title>
<g id="a_node7"><a xlink:href="i_statistics_8cpp.html" target="_top" xlink:title=" ">
<polygon fill="white" stroke="black" points="536.5,-6 536.5,-36 653.5,-36 653.5,-6 536.5,-6"/>
<text text-anchor="start" x="544.5" y="-24" font-family="Helvetica,sans-Serif" font-size="10.00">C:/dev/Igor/Igor/src</text>
<text text-anchor="middle" x="595" y="-13" font-family="Helvetica,sans-Serif" font-size="10.00">/Igor/src/iStatistics.cpp</text>
</a>
</g>
</g>
<!-- Node9&#45;&gt;Node14 -->
<g id="edge6" class="edge"><title>Node9&#45;&gt;Node14</title>
<path fill="none" stroke="midnightblue" d="M686.863,-73.3993C665.815,-61.6225 639.283,-46.7775 620.151,-36.0729"/>
<polygon fill="midnightblue" stroke="midnightblue" points="685.369,-76.5742 695.805,-78.4027 688.787,-70.4654 685.369,-76.5742"/>
</g>
<!-- Node9&#45;&gt;Node15 -->
<g id="edge7" class="edge"><title>Node9&#45;&gt;Node15</title>
<path fill="none" stroke="midnightblue" d="M784.965,-87.9522C875.693,-80.9746 1046.77,-65.8738 1191,-42 1201,-40.3448 1211.56,-38.2672 1221.78,-36.0819"/>
<polygon fill="midnightblue" stroke="midnightblue" points="784.545,-84.4739 774.839,-88.7227 785.076,-91.4537 784.545,-84.4739"/>
</g>
<!-- Node16 -->
<g id="node9" class="node"><title>Node16</title>
<g id="a_node9"><a xlink:href="i_view_8cpp.html" target="_top" xlink:title=" ">
<polygon fill="white" stroke="black" points="672,-6 672,-36 770,-36 770,-6 672,-6"/>
<text text-anchor="start" x="680" y="-24" font-family="Helvetica,sans-Serif" font-size="10.00">C:/dev/Igor/Igor/src</text>
<text text-anchor="middle" x="721" y="-13" font-family="Helvetica,sans-Serif" font-size="10.00">/Igor/src/iView.cpp</text>
</a>
</g>
</g>
<!-- Node9&#45;&gt;Node16 -->
<g id="edge8" class="edge"><title>Node9&#45;&gt;Node16</title>
<path fill="none" stroke="midnightblue" d="M721,-68.2317C721,-57.5679 721,-45.4145 721,-36.2455"/>
<polygon fill="midnightblue" stroke="midnightblue" points="717.5,-68.2332 721,-78.2333 724.5,-68.2333 717.5,-68.2332"/>
</g>
<!-- Node17 -->
<g id="node10" class="node"><title>Node17</title>
<g id="a_node10"><a xlink:href="i_voxel_terrain_8cpp.html" target="_top" xlink:title=" ">
<polygon fill="white" stroke="black" points="788,-6 788,-36 918,-36 918,-6 788,-6"/>
<text text-anchor="start" x="796" y="-24" font-family="Helvetica,sans-Serif" font-size="10.00">C:/dev/Igor/Igor/src</text>
<text text-anchor="middle" x="853" y="-13" font-family="Helvetica,sans-Serif" font-size="10.00">/Igor/src/iVoxelTerrain.cpp</text>
</a>
</g>
</g>
<!-- Node9&#45;&gt;Node17 -->
<g id="edge9" class="edge"><title>Node9&#45;&gt;Node17</title>
<path fill="none" stroke="midnightblue" d="M756.467,-73.5576C778.564,-61.7557 806.518,-46.8255 826.651,-36.0729"/>
<polygon fill="midnightblue" stroke="midnightblue" points="754.567,-70.6043 747.395,-78.4027 757.865,-76.7788 754.567,-70.6043"/>
</g>
<!-- Node18 -->
<g id="node11" class="node"><title>Node18</title>
<g id="a_node11"><a xlink:href="i_window_8cpp.html" target="_top" xlink:title=" ">
<polygon fill="white" stroke="black" points="936,-6 936,-36 1046,-36 1046,-6 936,-6"/>
<text text-anchor="start" x="944" y="-24" font-family="Helvetica,sans-Serif" font-size="10.00">C:/dev/Igor/Igor/src</text>
<text text-anchor="middle" x="991" y="-13" font-family="Helvetica,sans-Serif" font-size="10.00">/Igor/src/iWindow.cpp</text>
</a>
</g>
</g>
<!-- Node9&#45;&gt;Node18 -->
<g id="edge10" class="edge"><title>Node9&#45;&gt;Node18</title>
<path fill="none" stroke="midnightblue" d="M784.418,-78.0349C825.29,-68.4463 879.483,-55.235 927,-42 933.616,-40.1572 940.582,-38.1014 947.385,-36.0288"/>
<polygon fill="midnightblue" stroke="midnightblue" points="783.533,-74.6475 774.591,-80.3309 785.125,-81.4639 783.533,-74.6475"/>
</g>
<!-- Node19 -->
<g id="node12" class="node"><title>Node19</title>
<g id="a_node12"><a xlink:href="_model_viewer_8cpp.html" target="_top" xlink:title=" ">
<polygon fill="white" stroke="black" points="1064,-0.5 1064,-41.5 1182,-41.5 1182,-0.5 1064,-0.5"/>
<text text-anchor="start" x="1072" y="-29.5" font-family="Helvetica,sans-Serif" font-size="10.00">C:/dev/Igor/Igor/src</text>
<text text-anchor="start" x="1072" y="-18.5" font-family="Helvetica,sans-Serif" font-size="10.00">/Tools/ModelViewer/src</text>
<text text-anchor="middle" x="1123" y="-7.5" font-family="Helvetica,sans-Serif" font-size="10.00">/ModelViewer.cpp</text>
</a>
</g>
</g>
<!-- Node9&#45;&gt;Node19 -->
<g id="edge11" class="edge"><title>Node9&#45;&gt;Node19</title>
<path fill="none" stroke="midnightblue" d="M784.696,-85.484C852.255,-77.4346 961.872,-62.6352 1055,-42 1057.88,-41.3611 1060.82,-40.6662 1063.79,-39.9314"/>
<polygon fill="midnightblue" stroke="midnightblue" points="784.153,-82.0236 774.632,-86.6701 784.973,-88.9755 784.153,-82.0236"/>
</g>
</g>
</svg>
