<?xml version="1.0" encoding="UTF-8" standalone="no"?>
<!DOCTYPE svg PUBLIC "-//W3C//DTD SVG 1.1//EN"
 "http://www.w3.org/Graphics/SVG/1.1/DTD/svg11.dtd">
<!-- Generated by graphviz version 2.38.0 (20140413.2041)
 -->
<!-- Title: C:/dev/Igor/Igor/src/Igor/src/iStatistics.h Pages: 1 -->
<svg width="601pt" height="263pt"
 viewBox="0.00 0.00 600.50 263.00" xmlns="http://www.w3.org/2000/svg" xmlns:xlink="http://www.w3.org/1999/xlink">
<g id="graph0" class="graph" transform="scale(1 1) rotate(0) translate(4 259)">
<title>C:/dev/Igor/Igor/src/Igor/src/iStatistics.h</title>
<polygon fill="white" stroke="none" points="-4,4 -4,-259 596.5,-259 596.5,4 -4,4"/>
<!-- Node0 -->
<g id="node1" class="node"><title>Node0</title>
<g id="a_node1"><a xlink:title=" ">
<polygon fill="#bfbfbf" stroke="black" points="232.5,-224.5 232.5,-254.5 339.5,-254.5 339.5,-224.5 232.5,-224.5"/>
<text text-anchor="start" x="240.5" y="-242.5" font-family="Helvetica,sans-Serif" font-size="10.00">C:/dev/Igor/Igor/src</text>
<text text-anchor="middle" x="286" y="-231.5" font-family="Helvetica,sans-Serif" font-size="10.00">/Igor/src/iStatistics.h</text>
</a>
</g>
</g>
<!-- Node1 -->
<g id="node2" class="node"><title>Node1</title>
<g id="a_node2"><a xlink:href="i_defines_8h.html" target="_top" xlink:title=" ">
<polygon fill="white" stroke="black" points="157.5,-112.5 157.5,-131.5 216.5,-131.5 216.5,-112.5 157.5,-112.5"/>
<text text-anchor="middle" x="187" y="-119.5" font-family="Helvetica,sans-Serif" font-size="10.00">iDefines.h</text>
</a>
</g>
</g>
<!-- Node0&#45;&gt;Node1 -->
<g id="edge1" class="edge"><title>Node0&#45;&gt;Node1</title>
<path fill="none" stroke="midnightblue" d="M274.652,-224.281C263.107,-209.917 244.6,-187.17 228,-168 219.506,-158.191 209.73,-147.442 201.855,-138.909"/>
<polygon fill="midnightblue" stroke="midnightblue" points="204.358,-136.461 194.991,-131.511 199.226,-141.222 204.358,-136.461"/>
</g>
<!-- Node3 -->
<g id="node4" class="node"><title>Node3</title>
<g id="a_node4"><a xlink:href="i_statistics_section_8h.html" target="_top" xlink:title=" ">
<polygon fill="white" stroke="black" points="118.5,-168.5 118.5,-187.5 219.5,-187.5 219.5,-168.5 118.5,-168.5"/>
<text text-anchor="middle" x="169" y="-175.5" font-family="Helvetica,sans-Serif" font-size="10.00">iStatisticsSection.h</text>
</a>
</g>
</g>
<!-- Node0&#45;&gt;Node3 -->
<g id="edge3" class="edge"><title>Node0&#45;&gt;Node3</title>
<path fill="none" stroke="midnightblue" d="M258.273,-224.399C239.168,-214.684 213.942,-201.855 195.18,-192.314"/>
<polygon fill="midnightblue" stroke="midnightblue" points="196.525,-189.071 186.025,-187.658 193.352,-195.311 196.525,-189.071"/>
</g>
<!-- Node4 -->
<g id="node5" class="node"><title>Node4</title>
<g id="a_node5"><a xlink:href="ia_string_8h.html" target="_top" xlink:title=" ">
<polygon fill="white" stroke="black" points="43,-112.5 43,-131.5 101,-131.5 101,-112.5 43,-112.5"/>
<text text-anchor="middle" x="72" y="-119.5" font-family="Helvetica,sans-Serif" font-size="10.00">iaString.h</text>
</a>
</g>
</g>
<!-- Node0&#45;&gt;Node4 -->
<g id="edge17" class="edge"><title>Node0&#45;&gt;Node4</title>
<path fill="none" stroke="midnightblue" d="M232.391,-233.928C194.534,-228.319 144.439,-215.825 109,-188 93.7139,-175.998 83.6546,-155.812 77.9354,-141.114"/>
<polygon fill="midnightblue" stroke="midnightblue" points="81.1879,-139.814 74.5254,-131.577 74.5966,-142.171 81.1879,-139.814"/>
</g>
<!-- Node7 -->
<g id="node8" class="node"><title>Node7</title>
<g id="a_node8"><a xlink:href="ia_color4_8h.html" target="_top" xlink:title=" ">
<polygon fill="white" stroke="black" points="235,-112.5 235,-131.5 295,-131.5 295,-112.5 235,-112.5"/>
<text text-anchor="middle" x="265" y="-119.5" font-family="Helvetica,sans-Serif" font-size="10.00">iaColor4.h</text>
</a>
</g>
</g>
<!-- Node0&#45;&gt;Node7 -->
<g id="edge16" class="edge"><title>Node0&#45;&gt;Node7</title>
<path fill="none" stroke="midnightblue" d="M283.425,-224.337C279.641,-203.527 272.575,-164.663 268.379,-141.583"/>
<polygon fill="midnightblue" stroke="midnightblue" points="271.809,-140.882 266.576,-131.669 264.922,-142.134 271.809,-140.882"/>
</g>
<!-- Node9 -->
<g id="node10" class="node"><title>Node9</title>
<g id="a_node10"><a xlink:href="ia_singleton_8h.html" target="_top" xlink:title=" ">
<polygon fill="white" stroke="black" points="313.5,-112.5 313.5,-131.5 386.5,-131.5 386.5,-112.5 313.5,-112.5"/>
<text text-anchor="middle" x="350" y="-119.5" font-family="Helvetica,sans-Serif" font-size="10.00">iaSingleton.h</text>
</a>
</g>
</g>
<!-- Node0&#45;&gt;Node9 -->
<g id="edge13" class="edge"><title>Node0&#45;&gt;Node9</title>
<path fill="none" stroke="midnightblue" d="M293.848,-224.337C305.536,-203.243 327.503,-163.6 340.221,-140.648"/>
<polygon fill="midnightblue" stroke="midnightblue" points="343.411,-142.113 345.196,-131.669 337.288,-138.72 343.411,-142.113"/>
</g>
<!-- Node11 -->
<g id="node12" class="node"><title>Node11</title>
<g id="a_node12"><a xlink:href="ia_console_8h.html" target="_top" xlink:title=" ">
<polygon fill="white" stroke="black" points="398,-168.5 398,-187.5 466,-187.5 466,-168.5 398,-168.5"/>
<text text-anchor="middle" x="432" y="-175.5" font-family="Helvetica,sans-Serif" font-size="10.00">iaConsole.h</text>
</a>
</g>
</g>
<!-- Node0&#45;&gt;Node11 -->
<g id="edge18" class="edge"><title>Node0&#45;&gt;Node11</title>
<path fill="none" stroke="midnightblue" d="M320.6,-224.399C345.096,-214.416 377.657,-201.147 401.245,-191.534"/>
<polygon fill="midnightblue" stroke="midnightblue" points="402.816,-194.673 410.756,-187.658 400.174,-188.191 402.816,-194.673"/>
</g>
<!-- Node15 -->
<g id="node16" class="node"><title>Node15</title>
<g id="a_node16"><a xlink:title=" ">
<polygon fill="white" stroke="#bfbfbf" points="484.5,-168.5 484.5,-187.5 519.5,-187.5 519.5,-168.5 484.5,-168.5"/>
<text text-anchor="middle" x="502" y="-175.5" font-family="Helvetica,sans-Serif" font-size="10.00">map</text>
</a>
</g>
</g>
<!-- Node0&#45;&gt;Node15 -->
<g id="edge25" class="edge"><title>Node0&#45;&gt;Node15</title>
<path fill="none" stroke="midnightblue" d="M339.604,-225.101C375.349,-215.955 423.568,-203.213 474.743,-187.941"/>
<polygon fill="midnightblue" stroke="midnightblue" points="475.76,-191.29 484.33,-185.061 473.746,-184.586 475.76,-191.29"/>
</g>
<!-- Node2 -->
<g id="node3" class="node"><title>Node2</title>
<g id="a_node3"><a xlink:href="ia_defines_8h.html" target="_top" xlink:title=" ">
<polygon fill="white" stroke="black" points="232.5,-0.5 232.5,-19.5 297.5,-19.5 297.5,-0.5 232.5,-0.5"/>
<text text-anchor="middle" x="265" y="-7.5" font-family="Helvetica,sans-Serif" font-size="10.00">iaDefines.h</text>
</a>
</g>
</g>
<!-- Node1&#45;&gt;Node2 -->
<g id="edge2" class="edge"><title>Node1&#45;&gt;Node2</title>
<path fill="none" stroke="midnightblue" d="M193.121,-112.368C205.993,-94.2153 236.068,-51.8015 252.952,-27.9902"/>
<polygon fill="midnightblue" stroke="midnightblue" points="255.979,-29.7733 258.908,-19.5914 250.269,-25.7243 255.979,-29.7733"/>
</g>
<!-- Node3&#45;&gt;Node1 -->
<g id="edge4" class="edge"><title>Node3&#45;&gt;Node1</title>
<path fill="none" stroke="midnightblue" d="M171.972,-168.083C174.384,-160.849 177.864,-150.409 180.868,-141.397"/>
<polygon fill="midnightblue" stroke="midnightblue" points="184.241,-142.345 184.083,-131.751 177.6,-140.131 184.241,-142.345"/>
</g>
<!-- Node3&#45;&gt;Node4 -->
<g id="edge5" class="edge"><title>Node3&#45;&gt;Node4</title>
<path fill="none" stroke="midnightblue" d="M153.415,-168.324C138.001,-159.743 114.188,-146.486 96.2903,-136.522"/>
<polygon fill="midnightblue" stroke="midnightblue" points="97.9858,-133.461 87.5461,-131.655 94.5809,-139.577 97.9858,-133.461"/>
</g>
<!-- Node6 -->
<g id="node7" class="node"><title>Node6</title>
<g id="a_node7"><a xlink:title=" ">
<polygon fill="white" stroke="#bfbfbf" points="108,-56.5 108,-75.5 150,-75.5 150,-56.5 108,-56.5"/>
<text text-anchor="middle" x="129" y="-63.5" font-family="Helvetica,sans-Serif" font-size="10.00">vector</text>
</a>
</g>
</g>
<!-- Node3&#45;&gt;Node6 -->
<g id="edge12" class="edge"><title>Node3&#45;&gt;Node6</title>
<path fill="none" stroke="midnightblue" d="M164.408,-168.207C159.853,-159.259 152.866,-144.907 148,-132 142.168,-116.53 137.01,-98.4418 133.545,-85.2804"/>
<polygon fill="midnightblue" stroke="midnightblue" points="136.925,-84.3695 131.056,-75.5491 130.143,-86.1046 136.925,-84.3695"/>
</g>
<!-- Node3&#45;&gt;Node7 -->
<g id="edge9" class="edge"><title>Node3&#45;&gt;Node7</title>
<path fill="none" stroke="midnightblue" d="M184.424,-168.324C199.54,-159.822 222.815,-146.729 240.471,-136.797"/>
<polygon fill="midnightblue" stroke="midnightblue" points="242.614,-139.608 249.614,-131.655 239.183,-133.507 242.614,-139.608"/>
</g>
<!-- Node4&#45;&gt;Node2 -->
<g id="edge6" class="edge"><title>Node4&#45;&gt;Node2</title>
<path fill="none" stroke="midnightblue" d="M73.1225,-112.443C75.4097,-98.5174 81.9263,-71.0023 99,-56 133.094,-26.0425 185.221,-15.7952 221.948,-12.4134"/>
<polygon fill="midnightblue" stroke="midnightblue" points="222.646,-15.8697 232.342,-11.6003 222.1,-8.89098 222.646,-15.8697"/>
</g>
<!-- Node5 -->
<g id="node6" class="node"><title>Node5</title>
<g id="a_node6"><a xlink:title=" ">
<polygon fill="white" stroke="#bfbfbf" points="0,-56.5 0,-75.5 52,-75.5 52,-56.5 0,-56.5"/>
<text text-anchor="middle" x="26" y="-63.5" font-family="Helvetica,sans-Serif" font-size="10.00">ostream</text>
</a>
</g>
</g>
<!-- Node4&#45;&gt;Node5 -->
<g id="edge7" class="edge"><title>Node4&#45;&gt;Node5</title>
<path fill="none" stroke="midnightblue" d="M64.404,-112.083C57.7725,-104.298 47.979,-92.8015 39.9419,-83.3665"/>
<polygon fill="midnightblue" stroke="midnightblue" points="42.6037,-81.0939 33.4546,-75.7511 37.275,-85.6332 42.6037,-81.0939"/>
</g>
<!-- Node4&#45;&gt;Node6 -->
<g id="edge8" class="edge"><title>Node4&#45;&gt;Node6</title>
<path fill="none" stroke="midnightblue" d="M81.158,-112.324C89.5015,-104.42 102.032,-92.5482 112.177,-82.9377"/>
<polygon fill="midnightblue" stroke="midnightblue" points="114.823,-85.2522 119.675,-75.8339 110.009,-80.1705 114.823,-85.2522"/>
</g>
<!-- Node7&#45;&gt;Node2 -->
<g id="edge10" class="edge"><title>Node7&#45;&gt;Node2</title>
<path fill="none" stroke="midnightblue" d="M265,-112.368C265,-94.617 265,-53.6664 265,-29.5974"/>
<polygon fill="midnightblue" stroke="midnightblue" points="268.5,-29.5914 265,-19.5914 261.5,-29.5915 268.5,-29.5914"/>
</g>
<!-- Node8 -->
<g id="node9" class="node"><title>Node8</title>
<g id="a_node9"><a xlink:title=" ">
<polygon fill="white" stroke="#bfbfbf" points="440.5,-56.5 440.5,-75.5 489.5,-75.5 489.5,-56.5 440.5,-56.5"/>
<text text-anchor="middle" x="465" y="-63.5" font-family="Helvetica,sans-Serif" font-size="10.00">fstream</text>
</a>
</g>
</g>
<!-- Node7&#45;&gt;Node8 -->
<g id="edge11" class="edge"><title>Node7&#45;&gt;Node8</title>
<path fill="none" stroke="midnightblue" d="M295.376,-112.799C331.634,-103.009 392.136,-86.6734 430.231,-76.3876"/>
<polygon fill="midnightblue" stroke="midnightblue" points="431.601,-79.6431 440.343,-73.6574 429.776,-72.8851 431.601,-79.6431"/>
</g>
<!-- Node10 -->
<g id="node11" class="node"><title>Node10</title>
<g id="a_node11"><a xlink:href="ia_mutex_8h.html" target="_top" xlink:title=" ">
<polygon fill="white" stroke="black" points="306.5,-56.5 306.5,-75.5 365.5,-75.5 365.5,-56.5 306.5,-56.5"/>
<text text-anchor="middle" x="336" y="-63.5" font-family="Helvetica,sans-Serif" font-size="10.00">iaMutex.h</text>
</a>
</g>
</g>
<!-- Node9&#45;&gt;Node10 -->
<g id="edge14" class="edge"><title>Node9&#45;&gt;Node10</title>
<path fill="none" stroke="midnightblue" d="M347.688,-112.083C345.833,-104.927 343.165,-94.6353 340.846,-85.6911"/>
<polygon fill="midnightblue" stroke="midnightblue" points="344.166,-84.5527 338.269,-75.7511 337.391,-86.3094 344.166,-84.5527"/>
</g>
<!-- Node10&#45;&gt;Node2 -->
<g id="edge15" class="edge"><title>Node10&#45;&gt;Node2</title>
<path fill="none" stroke="midnightblue" d="M324.593,-56.324C313.891,-48.1849 297.659,-35.8395 284.837,-26.0874"/>
<polygon fill="midnightblue" stroke="midnightblue" points="286.693,-23.1018 276.615,-19.8339 282.456,-28.6734 286.693,-23.1018"/>
</g>
<!-- Node11&#45;&gt;Node8 -->
<g id="edge22" class="edge"><title>Node11&#45;&gt;Node8</title>
<path fill="none" stroke="midnightblue" d="M460.744,-168.477C488.412,-159.623 527.305,-145.237 536,-132 549.994,-110.697 522.113,-91.7064 497.286,-79.8341"/>
<polygon fill="midnightblue" stroke="midnightblue" points="498.568,-76.5725 488.014,-75.6424 495.684,-82.951 498.568,-76.5725"/>
</g>
<!-- Node11&#45;&gt;Node9 -->
<g id="edge19" class="edge"><title>Node11&#45;&gt;Node9</title>
<path fill="none" stroke="midnightblue" d="M418.825,-168.324C406.153,-159.979 386.767,-147.212 371.794,-137.352"/>
<polygon fill="midnightblue" stroke="midnightblue" points="373.419,-134.231 363.142,-131.655 369.569,-140.078 373.419,-134.231"/>
</g>
<!-- Node12 -->
<g id="node13" class="node"><title>Node12</title>
<g id="a_node13"><a xlink:href="ia_clock_8h.html" target="_top" xlink:title=" ">
<polygon fill="white" stroke="black" points="535.5,-56.5 535.5,-75.5 592.5,-75.5 592.5,-56.5 535.5,-56.5"/>
<text text-anchor="middle" x="564" y="-63.5" font-family="Helvetica,sans-Serif" font-size="10.00">iaClock.h</text>
</a>
</g>
</g>
<!-- Node11&#45;&gt;Node12 -->
<g id="edge20" class="edge"><title>Node11&#45;&gt;Node12</title>
<path fill="none" stroke="midnightblue" d="M464.831,-168.447C495.944,-159.686 539.572,-145.477 551,-132 561.806,-119.257 564.537,-100.061 564.876,-85.8302"/>
<polygon fill="midnightblue" stroke="midnightblue" points="568.374,-85.6536 564.743,-75.7002 561.374,-85.745 568.374,-85.6536"/>
</g>
<!-- Node13 -->
<g id="node14" class="node"><title>Node13</title>
<g id="a_node14"><a xlink:title=" ">
<polygon fill="white" stroke="#bfbfbf" points="405,-112.5 405,-131.5 459,-131.5 459,-112.5 405,-112.5"/>
<text text-anchor="middle" x="432" y="-119.5" font-family="Helvetica,sans-Serif" font-size="10.00">iostream</text>
</a>
</g>
</g>
<!-- Node11&#45;&gt;Node13 -->
<g id="edge23" class="edge"><title>Node11&#45;&gt;Node13</title>
<path fill="none" stroke="midnightblue" d="M432,-168.083C432,-161.006 432,-150.861 432,-141.986"/>
<polygon fill="midnightblue" stroke="midnightblue" points="435.5,-141.751 432,-131.751 428.5,-141.751 435.5,-141.751"/>
</g>
<!-- Node14 -->
<g id="node15" class="node"><title>Node14</title>
<g id="a_node15"><a xlink:title=" ">
<polygon fill="white" stroke="#bfbfbf" points="477,-112.5 477,-131.5 527,-131.5 527,-112.5 477,-112.5"/>
<text text-anchor="middle" x="502" y="-119.5" font-family="Helvetica,sans-Serif" font-size="10.00">iomanip</text>
</a>
</g>
</g>
<!-- Node11&#45;&gt;Node14 -->
<g id="edge24" class="edge"><title>Node11&#45;&gt;Node14</title>
<path fill="none" stroke="midnightblue" d="M443.247,-168.324C453.797,-160.185 469.801,-147.839 482.442,-138.087"/>
<polygon fill="midnightblue" stroke="midnightblue" points="484.769,-140.713 490.549,-131.834 480.493,-135.171 484.769,-140.713"/>
</g>
<!-- Node12&#45;&gt;Node2 -->
<g id="edge21" class="edge"><title>Node12&#45;&gt;Node2</title>
<path fill="none" stroke="midnightblue" d="M535.331,-59.8223C482.548,-50.2897 369.748,-29.9176 307.845,-18.7379"/>
<polygon fill="midnightblue" stroke="midnightblue" points="308.097,-15.2269 297.634,-16.8938 306.853,-22.1155 308.097,-15.2269"/>
</g>
</g>
</svg>
