<?xml version="1.0" encoding="UTF-8" standalone="no"?>
<!DOCTYPE svg PUBLIC "-//W3C//DTD SVG 1.1//EN"
 "http://www.w3.org/Graphics/SVG/1.1/DTD/svg11.dtd">
<!-- Generated by graphviz version 2.38.0 (20140413.2041)
 -->
<!-- Title: C:/dev/Igor/Igor/src/Igor/src/iTaskGenerateVoxels.h Pages: 1 -->
<svg width="773pt" height="173pt"
 viewBox="0.00 0.00 773.00 173.00" xmlns="http://www.w3.org/2000/svg" xmlns:xlink="http://www.w3.org/1999/xlink">
<g id="graph0" class="graph" transform="scale(1 1) rotate(0) translate(4 169)">
<title>C:/dev/Igor/Igor/src/Igor/src/iTaskGenerateVoxels.h</title>
<polygon fill="white" stroke="none" points="-4,4 -4,-169 769,-169 769,4 -4,4"/>
<!-- Node30 -->
<g id="node1" class="node"><title>Node30</title>
<g id="a_node1"><a xlink:title=" ">
<polygon fill="#bfbfbf" stroke="black" points="117.5,-134.5 117.5,-164.5 273.5,-164.5 273.5,-134.5 117.5,-134.5"/>
<text text-anchor="start" x="125.5" y="-152.5" font-family="Helvetica,sans-Serif" font-size="10.00">C:/dev/Igor/Igor/src</text>
<text text-anchor="middle" x="195.5" y="-141.5" font-family="Helvetica,sans-Serif" font-size="10.00">/Igor/src/iTaskGenerateVoxels.h</text>
</a>
</g>
</g>
<!-- Node31 -->
<g id="node2" class="node"><title>Node31</title>
<g id="a_node2"><a xlink:href="i_task_generate_voxels_8cpp.html" target="_top" xlink:title=" ">
<polygon fill="white" stroke="black" points="0,-67.5 0,-97.5 167,-97.5 167,-67.5 0,-67.5"/>
<text text-anchor="start" x="8" y="-85.5" font-family="Helvetica,sans-Serif" font-size="10.00">C:/dev/Igor/Igor/src</text>
<text text-anchor="middle" x="83.5" y="-74.5" font-family="Helvetica,sans-Serif" font-size="10.00">/Igor/src/iTaskGenerateVoxels.cpp</text>
</a>
</g>
</g>
<!-- Node30&#45;&gt;Node31 -->
<g id="edge1" class="edge"><title>Node30&#45;&gt;Node31</title>
<path fill="none" stroke="midnightblue" d="M162.409,-129.296C144.884,-119.125 123.742,-106.855 107.755,-97.5765"/>
<polygon fill="midnightblue" stroke="midnightblue" points="160.792,-132.404 171.198,-134.396 164.306,-126.349 160.792,-132.404"/>
</g>
<!-- Node32 -->
<g id="node3" class="node"><title>Node32</title>
<g id="a_node3"><a xlink:href="i_voxel_terrain_8cpp.html" target="_top" xlink:title=" ">
<polygon fill="white" stroke="black" points="95.5,-0.5 95.5,-30.5 225.5,-30.5 225.5,-0.5 95.5,-0.5"/>
<text text-anchor="start" x="103.5" y="-18.5" font-family="Helvetica,sans-Serif" font-size="10.00">C:/dev/Igor/Igor/src</text>
<text text-anchor="middle" x="160.5" y="-7.5" font-family="Helvetica,sans-Serif" font-size="10.00">/Igor/src/iVoxelTerrain.cpp</text>
</a>
</g>
</g>
<!-- Node30&#45;&gt;Node32 -->
<g id="edge2" class="edge"><title>Node30&#45;&gt;Node32</title>
<path fill="none" stroke="midnightblue" d="M189.937,-124.526C186.082,-108.249 180.721,-86.2635 175.5,-67 172.15,-54.6416 167.978,-40.697 164.885,-30.5973"/>
<polygon fill="midnightblue" stroke="midnightblue" points="186.542,-125.378 192.237,-134.313 193.356,-123.777 186.542,-125.378"/>
</g>
<!-- Node33 -->
<g id="node4" class="node"><title>Node33</title>
<g id="a_node4"><a xlink:href="i_voxel_terrain_8h.html" target="_top" xlink:title=" ">
<polygon fill="white" stroke="black" points="260,-67.5 260,-97.5 379,-97.5 379,-67.5 260,-67.5"/>
<text text-anchor="start" x="268" y="-85.5" font-family="Helvetica,sans-Serif" font-size="10.00">C:/dev/Igor/Igor/src</text>
<text text-anchor="middle" x="319.5" y="-74.5" font-family="Helvetica,sans-Serif" font-size="10.00">/Igor/src/iVoxelTerrain.h</text>
</a>
</g>
</g>
<!-- Node30&#45;&gt;Node33 -->
<g id="edge3" class="edge"><title>Node30&#45;&gt;Node33</title>
<path fill="none" stroke="midnightblue" d="M231.337,-129.714C250.894,-119.463 274.702,-106.983 292.646,-97.5765"/>
<polygon fill="midnightblue" stroke="midnightblue" points="229.638,-126.653 222.406,-134.396 232.888,-132.853 229.638,-126.653"/>
</g>
<!-- Node33&#45;&gt;Node32 -->
<g id="edge7" class="edge"><title>Node33&#45;&gt;Node32</title>
<path fill="none" stroke="midnightblue" d="M275.577,-63.5442C250.134,-53.143 218.567,-40.238 194.933,-30.5765"/>
<polygon fill="midnightblue" stroke="midnightblue" points="274.419,-66.8516 284.999,-67.396 277.067,-60.3721 274.419,-66.8516"/>
</g>
<!-- Node34 -->
<g id="node5" class="node"><title>Node34</title>
<g id="a_node5"><a xlink:href="i_task_voxel_terrain_8cpp.html" target="_top" xlink:title=" ">
<polygon fill="white" stroke="black" points="244,-0.5 244,-30.5 395,-30.5 395,-0.5 244,-0.5"/>
<text text-anchor="start" x="252" y="-18.5" font-family="Helvetica,sans-Serif" font-size="10.00">C:/dev/Igor/Igor/src</text>
<text text-anchor="middle" x="319.5" y="-7.5" font-family="Helvetica,sans-Serif" font-size="10.00">/Igor/src/iTaskVoxelTerrain.cpp</text>
</a>
</g>
</g>
<!-- Node33&#45;&gt;Node34 -->
<g id="edge4" class="edge"><title>Node33&#45;&gt;Node34</title>
<path fill="none" stroke="midnightblue" d="M319.5,-57.1081C319.5,-48.1539 319.5,-38.3227 319.5,-30.5765"/>
<polygon fill="midnightblue" stroke="midnightblue" points="316,-57.3959 319.5,-67.396 323,-57.396 316,-57.3959"/>
</g>
<!-- Node35 -->
<g id="node6" class="node"><title>Node35</title>
<g id="a_node6"><a xlink:href="i_voxel_operation_box_8cpp.html" target="_top" xlink:title=" ">
<polygon fill="white" stroke="black" points="413.5,-0.5 413.5,-30.5 573.5,-30.5 573.5,-0.5 413.5,-0.5"/>
<text text-anchor="start" x="421.5" y="-18.5" font-family="Helvetica,sans-Serif" font-size="10.00">C:/dev/Igor/Igor/src</text>
<text text-anchor="middle" x="493.5" y="-7.5" font-family="Helvetica,sans-Serif" font-size="10.00">/Igor/src/iVoxelOperationBox.cpp</text>
</a>
</g>
</g>
<!-- Node33&#45;&gt;Node35 -->
<g id="edge5" class="edge"><title>Node33&#45;&gt;Node35</title>
<path fill="none" stroke="midnightblue" d="M366.832,-63.8185C394.8,-53.3707 429.727,-40.3231 455.818,-30.5765"/>
<polygon fill="midnightblue" stroke="midnightblue" points="365.398,-60.6178 357.255,-67.396 367.848,-67.1752 365.398,-60.6178"/>
</g>
<!-- Node36 -->
<g id="node7" class="node"><title>Node36</title>
<g id="a_node7"><a xlink:href="i_voxel_operation_sphere_8cpp.html" target="_top" xlink:title=" ">
<polygon fill="white" stroke="black" points="592,-0.5 592,-30.5 765,-30.5 765,-0.5 592,-0.5"/>
<text text-anchor="start" x="600" y="-18.5" font-family="Helvetica,sans-Serif" font-size="10.00">C:/dev/Igor/Igor/src</text>
<text text-anchor="middle" x="678.5" y="-7.5" font-family="Helvetica,sans-Serif" font-size="10.00">/Igor/src/iVoxelOperationSphere.cpp</text>
</a>
</g>
</g>
<!-- Node33&#45;&gt;Node36 -->
<g id="edge6" class="edge"><title>Node33&#45;&gt;Node36</title>
<path fill="none" stroke="midnightblue" d="M389.078,-68.9024C449.893,-57.8913 538.08,-41.9241 601.106,-30.5129"/>
<polygon fill="midnightblue" stroke="midnightblue" points="388.401,-65.4679 379.185,-70.6936 389.648,-72.3559 388.401,-65.4679"/>
</g>
</g>
</svg>
