<?xml version="1.0" encoding="UTF-8" standalone="no"?>
<!DOCTYPE svg PUBLIC "-//W3C//DTD SVG 1.1//EN"
 "http://www.w3.org/Graphics/SVG/1.1/DTD/svg11.dtd">
<!-- Generated by graphviz version 2.38.0 (20140413.2041)
 -->
<!-- Title: C:/dev/Igor/src/Igor/src/iTaskFlushTextures.cpp Pages: 1 -->
<svg width="921pt" height="375pt"
 viewBox="0.00 0.00 920.89 375.00" xmlns="http://www.w3.org/2000/svg" xmlns:xlink="http://www.w3.org/1999/xlink">
<g id="graph0" class="graph" transform="scale(1 1) rotate(0) translate(4 371)">
<title>C:/dev/Igor/src/Igor/src/iTaskFlushTextures.cpp</title>
<polygon fill="white" stroke="none" points="-4,4 -4,-371 916.894,-371 916.894,4 -4,4"/>
<!-- Node1 -->
<g id="node1" class="node"><title>Node1</title>
<polygon fill="#bfbfbf" stroke="black" points="510.394,-336.5 510.394,-366.5 650.394,-366.5 650.394,-336.5 510.394,-336.5"/>
<text text-anchor="start" x="518.394" y="-354.5" font-family="Helvetica,sans-Serif" font-size="10.00">C:/dev/Igor/src/Igor</text>
<text text-anchor="middle" x="580.394" y="-343.5" font-family="Helvetica,sans-Serif" font-size="10.00">/src/iTaskFlushTextures.cpp</text>
</g>
<!-- Node2 -->
<g id="node2" class="node"><title>Node2</title>
<g id="a_node2"><a xlink:href="i_task_flush_textures_8h.html" target="_top" xlink:title="iTaskFlushTextures.h">
<polygon fill="white" stroke="black" points="199.394,-280.5 199.394,-299.5 309.394,-299.5 309.394,-280.5 199.394,-280.5"/>
<text text-anchor="middle" x="254.394" y="-287.5" font-family="Helvetica,sans-Serif" font-size="10.00">iTaskFlushTextures.h</text>
</a>
</g>
</g>
<!-- Node1&#45;&gt;Node2 -->
<g id="edge1" class="edge"><title>Node1&#45;&gt;Node2</title>
<path fill="none" stroke="midnightblue" d="M510.058,-337.663C450.499,-326.792 366.223,-311.411 310.956,-301.323"/>
<polygon fill="midnightblue" stroke="midnightblue" points="311.453,-297.856 300.987,-299.504 310.196,-304.743 311.453,-297.856"/>
</g>
<!-- Node9 -->
<g id="node9" class="node"><title>Node9</title>
<g id="a_node9"><a xlink:href="i_texture_resource_factory_8h.html" target="_top" xlink:title="iTextureResourceFactory.h">
<polygon fill="white" stroke="black" points="619.394,-280.5 619.394,-299.5 753.394,-299.5 753.394,-280.5 619.394,-280.5"/>
<text text-anchor="middle" x="686.394" y="-287.5" font-family="Helvetica,sans-Serif" font-size="10.00">iTextureResourceFactory.h</text>
</a>
</g>
</g>
<!-- Node1&#45;&gt;Node9 -->
<g id="edge11" class="edge"><title>Node1&#45;&gt;Node9</title>
<path fill="none" stroke="midnightblue" d="M605.514,-336.399C622.664,-326.773 645.258,-314.09 662.206,-304.577"/>
<polygon fill="midnightblue" stroke="midnightblue" points="663.963,-307.605 670.97,-299.658 660.537,-301.501 663.963,-307.605"/>
</g>
<!-- Node18 -->
<g id="node18" class="node"><title>Node18</title>
<g id="a_node18"><a xlink:href="i_window_8h.html" target="_top" xlink:title="iWindow.h">
<polygon fill="white" stroke="black" points="444.394,-280.5 444.394,-299.5 506.394,-299.5 506.394,-280.5 444.394,-280.5"/>
<text text-anchor="middle" x="475.394" y="-287.5" font-family="Helvetica,sans-Serif" font-size="10.00">iWindow.h</text>
</a>
</g>
</g>
<!-- Node1&#45;&gt;Node18 -->
<g id="edge26" class="edge"><title>Node1&#45;&gt;Node18</title>
<path fill="none" stroke="midnightblue" d="M555.51,-336.399C538.68,-326.862 516.555,-314.325 499.821,-304.842"/>
<polygon fill="midnightblue" stroke="midnightblue" points="501.098,-301.543 490.672,-299.658 497.647,-307.633 501.098,-301.543"/>
</g>
<!-- Node26 -->
<g id="node26" class="node"><title>Node26</title>
<polygon fill="white" stroke="#bfbfbf" points="771.394,-280.5 771.394,-299.5 815.394,-299.5 815.394,-280.5 771.394,-280.5"/>
<text text-anchor="middle" x="793.394" y="-287.5" font-family="Helvetica,sans-Serif" font-size="10.00">thread</text>
</g>
<!-- Node1&#45;&gt;Node26 -->
<g id="edge43" class="edge"><title>Node1&#45;&gt;Node26</title>
<path fill="none" stroke="midnightblue" d="M631.824,-336.405C666.02,-326.993 712.181,-314.211 761.487,-300.235"/>
<polygon fill="midnightblue" stroke="midnightblue" points="762.724,-303.522 771.388,-297.424 760.812,-296.788 762.724,-303.522"/>
</g>
<!-- Node3 -->
<g id="node3" class="node"><title>Node3</title>
<g id="a_node3"><a xlink:href="i_task_8h.html" target="_top" xlink:title="iTask.h">
<polygon fill="white" stroke="black" points="112.394,-224.5 112.394,-243.5 160.394,-243.5 160.394,-224.5 112.394,-224.5"/>
<text text-anchor="middle" x="136.394" y="-231.5" font-family="Helvetica,sans-Serif" font-size="10.00">iTask.h</text>
</a>
</g>
</g>
<!-- Node2&#45;&gt;Node3 -->
<g id="edge2" class="edge"><title>Node2&#45;&gt;Node3</title>
<path fill="none" stroke="midnightblue" d="M235.696,-280.444C216.449,-271.636 186.241,-257.812 164.194,-247.722"/>
<polygon fill="midnightblue" stroke="midnightblue" points="165.553,-244.495 155.004,-243.516 162.641,-250.86 165.553,-244.495"/>
</g>
<!-- Node4 -->
<g id="node4" class="node"><title>Node4</title>
<g id="a_node4"><a xlink:href="i_defines_8h.html" target="_top" xlink:title="iDefines.h">
<polygon fill="white" stroke="black" points="10.8939,-112.5 10.8939,-131.5 69.8939,-131.5 69.8939,-112.5 10.8939,-112.5"/>
<text text-anchor="middle" x="40.3939" y="-119.5" font-family="Helvetica,sans-Serif" font-size="10.00">iDefines.h</text>
</a>
</g>
</g>
<!-- Node3&#45;&gt;Node4 -->
<g id="edge3" class="edge"><title>Node3&#45;&gt;Node4</title>
<path fill="none" stroke="midnightblue" d="M112.219,-232.128C82.7911,-229.614 34.2056,-220.457 11.3939,-188 0.684776,-172.763 12.6376,-152.937 24.2801,-139.207"/>
<polygon fill="midnightblue" stroke="midnightblue" points="27.1224,-141.285 31.2837,-131.541 21.9546,-136.563 27.1224,-141.285"/>
</g>
<!-- Node6 -->
<g id="node6" class="node"><title>Node6</title>
<g id="a_node6"><a xlink:href="i_physics_world_8h.html" target="_top" xlink:title="iPhysicsWorld.h">
<polygon fill="white" stroke="black" points="20.3939,-168.5 20.3939,-187.5 108.394,-187.5 108.394,-168.5 20.3939,-168.5"/>
<text text-anchor="middle" x="64.3939" y="-175.5" font-family="Helvetica,sans-Serif" font-size="10.00">iPhysicsWorld.h</text>
</a>
</g>
</g>
<!-- Node3&#45;&gt;Node6 -->
<g id="edge5" class="edge"><title>Node3&#45;&gt;Node6</title>
<path fill="none" stroke="midnightblue" d="M124.826,-224.324C113.974,-216.185 97.5133,-203.839 84.5105,-194.087"/>
<polygon fill="midnightblue" stroke="midnightblue" points="86.2725,-191.034 76.1725,-187.834 82.0725,-196.634 86.2725,-191.034"/>
</g>
<!-- Node7 -->
<g id="node7" class="node"><title>Node7</title>
<g id="a_node7"><a xlink:href="ia_mutex_8h.html" target="_top" xlink:title="iaMutex.h">
<polygon fill="white" stroke="black" points="182.894,-56.5 182.894,-75.5 241.894,-75.5 241.894,-56.5 182.894,-56.5"/>
<text text-anchor="middle" x="212.394" y="-63.5" font-family="Helvetica,sans-Serif" font-size="10.00">iaMutex.h</text>
</a>
</g>
</g>
<!-- Node3&#45;&gt;Node7 -->
<g id="edge10" class="edge"><title>Node3&#45;&gt;Node7</title>
<path fill="none" stroke="midnightblue" d="M136.244,-224.421C136.255,-203.647 138.543,-149.584 160.394,-112 167.426,-99.9048 178.916,-89.4534 189.31,-81.6755"/>
<polygon fill="midnightblue" stroke="midnightblue" points="191.501,-84.4135 197.661,-75.7933 187.47,-78.6907 191.501,-84.4135"/>
</g>
<!-- Node8 -->
<g id="node8" class="node"><title>Node8</title>
<g id="a_node8"><a xlink:href="ia_delegate_8h.html" target="_top" xlink:title="iaDelegate.h">
<polygon fill="white" stroke="black" points="164.894,-168.5 164.894,-187.5 235.894,-187.5 235.894,-168.5 164.894,-168.5"/>
<text text-anchor="middle" x="200.394" y="-175.5" font-family="Helvetica,sans-Serif" font-size="10.00">iaDelegate.h</text>
</a>
</g>
</g>
<!-- Node3&#45;&gt;Node8 -->
<g id="edge9" class="edge"><title>Node3&#45;&gt;Node8</title>
<path fill="none" stroke="midnightblue" d="M146.677,-224.324C156.23,-216.263 170.674,-204.077 182.178,-194.369"/>
<polygon fill="midnightblue" stroke="midnightblue" points="184.538,-196.958 189.924,-187.834 180.024,-191.608 184.538,-196.958"/>
</g>
<!-- Node5 -->
<g id="node5" class="node"><title>Node5</title>
<g id="a_node5"><a xlink:href="ia_defines_8h.html" target="_top" xlink:title="iaDefines.h">
<polygon fill="white" stroke="black" points="259.894,-0.5 259.894,-19.5 324.894,-19.5 324.894,-0.5 259.894,-0.5"/>
<text text-anchor="middle" x="292.394" y="-7.5" font-family="Helvetica,sans-Serif" font-size="10.00">iaDefines.h</text>
</a>
</g>
</g>
<!-- Node4&#45;&gt;Node5 -->
<g id="edge4" class="edge"><title>Node4&#45;&gt;Node5</title>
<path fill="none" stroke="midnightblue" d="M56.5461,-112.499C81.3502,-99.5839 130.46,-74.5614 173.394,-56 201.423,-43.8825 233.884,-31.7289 257.815,-23.1122"/>
<polygon fill="midnightblue" stroke="midnightblue" points="259.273,-26.3081 267.512,-19.6463 256.917,-19.7165 259.273,-26.3081"/>
</g>
<!-- Node6&#45;&gt;Node4 -->
<g id="edge6" class="edge"><title>Node6&#45;&gt;Node4</title>
<path fill="none" stroke="midnightblue" d="M60.4308,-168.083C57.1806,-160.77 52.4745,-150.181 48.4399,-141.103"/>
<polygon fill="midnightblue" stroke="midnightblue" points="51.5431,-139.468 44.2833,-131.751 45.1464,-142.311 51.5431,-139.468"/>
</g>
<!-- Node6&#45;&gt;Node7 -->
<g id="edge7" class="edge"><title>Node6&#45;&gt;Node7</title>
<path fill="none" stroke="midnightblue" d="M70.3315,-168.479C79.9976,-155.089 100.29,-128.907 122.394,-112 139.955,-98.5678 162.15,-87.4182 180.105,-79.5773"/>
<polygon fill="midnightblue" stroke="midnightblue" points="181.739,-82.6862 189.587,-75.5682 179.013,-76.2389 181.739,-82.6862"/>
</g>
<!-- Node7&#45;&gt;Node5 -->
<g id="edge8" class="edge"><title>Node7&#45;&gt;Node5</title>
<path fill="none" stroke="midnightblue" d="M225.247,-56.324C237.61,-47.979 256.524,-35.2122 271.131,-25.3524"/>
<polygon fill="midnightblue" stroke="midnightblue" points="273.242,-28.1503 279.572,-19.6545 269.326,-22.3483 273.242,-28.1503"/>
</g>
<!-- Node9&#45;&gt;Node7 -->
<g id="edge22" class="edge"><title>Node9&#45;&gt;Node7</title>
<path fill="none" stroke="midnightblue" d="M682.803,-280.47C675.627,-263.222 659.274,-222.875 648.394,-188 638.024,-154.763 655.646,-134.87 629.394,-112 615.259,-99.6859 353.953,-78.0586 252.342,-70.0743"/>
<polygon fill="midnightblue" stroke="midnightblue" points="252.414,-66.5694 242.172,-69.2789 251.868,-73.5481 252.414,-66.5694"/>
</g>
<!-- Node10 -->
<g id="node10" class="node"><title>Node10</title>
<g id="a_node10"><a xlink:href="i_texture_8h.html" target="_top" xlink:title="iTexture.h">
<polygon fill="white" stroke="black" points="714.894,-224.5 714.894,-243.5 773.894,-243.5 773.894,-224.5 714.894,-224.5"/>
<text text-anchor="middle" x="744.394" y="-231.5" font-family="Helvetica,sans-Serif" font-size="10.00">iTexture.h</text>
</a>
</g>
</g>
<!-- Node9&#45;&gt;Node10 -->
<g id="edge12" class="edge"><title>Node9&#45;&gt;Node10</title>
<path fill="none" stroke="midnightblue" d="M695.713,-280.324C704.287,-272.341 717.206,-260.313 727.582,-250.653"/>
<polygon fill="midnightblue" stroke="midnightblue" points="729.972,-253.21 734.906,-243.834 725.202,-248.086 729.972,-253.21"/>
</g>
<!-- Node11 -->
<g id="node11" class="node"><title>Node11</title>
<g id="a_node11"><a xlink:href="ia_string_8h.html" target="_top" xlink:title="iaString.h">
<polygon fill="white" stroke="black" points="657.394,-168.5 657.394,-187.5 715.394,-187.5 715.394,-168.5 657.394,-168.5"/>
<text text-anchor="middle" x="686.394" y="-175.5" font-family="Helvetica,sans-Serif" font-size="10.00">iaString.h</text>
</a>
</g>
</g>
<!-- Node9&#45;&gt;Node11 -->
<g id="edge21" class="edge"><title>Node9&#45;&gt;Node11</title>
<path fill="none" stroke="midnightblue" d="M686.394,-280.368C686.394,-262.617 686.394,-221.666 686.394,-197.597"/>
<polygon fill="midnightblue" stroke="midnightblue" points="689.894,-197.591 686.394,-187.591 682.894,-197.591 689.894,-197.591"/>
</g>
<!-- Node14 -->
<g id="node14" class="node"><title>Node14</title>
<polygon fill="white" stroke="#bfbfbf" points="754.394,-168.5 754.394,-187.5 806.394,-187.5 806.394,-168.5 754.394,-168.5"/>
<text text-anchor="middle" x="780.394" y="-175.5" font-family="Helvetica,sans-Serif" font-size="10.00">memory</text>
</g>
<!-- Node9&#45;&gt;Node14 -->
<g id="edge25" class="edge"><title>Node9&#45;&gt;Node14</title>
<path fill="none" stroke="midnightblue" d="M727.864,-280.497C747.98,-274.06 770.347,-262.952 782.394,-244 791.092,-230.317 789.402,-211.531 786.241,-197.672"/>
<polygon fill="midnightblue" stroke="midnightblue" points="789.561,-196.54 783.562,-187.807 782.805,-198.375 789.561,-196.54"/>
</g>
<!-- Node15 -->
<g id="node15" class="node"><title>Node15</title>
<g id="a_node15"><a xlink:href="ia_singleton_8h.html" target="_top" xlink:title="iaSingleton.h">
<polygon fill="white" stroke="black" points="486.894,-112.5 486.894,-131.5 559.894,-131.5 559.894,-112.5 486.894,-112.5"/>
<text text-anchor="middle" x="523.394" y="-119.5" font-family="Helvetica,sans-Serif" font-size="10.00">iaSingleton.h</text>
</a>
</g>
</g>
<!-- Node9&#45;&gt;Node15 -->
<g id="edge19" class="edge"><title>Node9&#45;&gt;Node15</title>
<path fill="none" stroke="midnightblue" d="M660.398,-280.498C641.039,-273.174 614.872,-261.07 596.394,-244 564.082,-214.151 541.223,-166.759 530.425,-141.039"/>
<polygon fill="midnightblue" stroke="midnightblue" points="533.657,-139.697 526.656,-131.745 527.171,-142.328 533.657,-139.697"/>
</g>
<!-- Node16 -->
<g id="node16" class="node"><title>Node16</title>
<polygon fill="white" stroke="#bfbfbf" points="830.894,-224.5 830.894,-243.5 859.894,-243.5 859.894,-224.5 830.894,-224.5"/>
<text text-anchor="middle" x="845.394" y="-231.5" font-family="Helvetica,sans-Serif" font-size="10.00">list</text>
</g>
<!-- Node9&#45;&gt;Node16 -->
<g id="edge23" class="edge"><title>Node9&#45;&gt;Node16</title>
<path fill="none" stroke="midnightblue" d="M711.588,-280.444C741.667,-270.228 791.613,-253.265 821.229,-243.207"/>
<polygon fill="midnightblue" stroke="midnightblue" points="822.448,-246.489 830.791,-239.959 820.197,-239.861 822.448,-246.489"/>
</g>
<!-- Node17 -->
<g id="node17" class="node"><title>Node17</title>
<polygon fill="white" stroke="#bfbfbf" points="877.894,-224.5 877.894,-243.5 912.894,-243.5 912.894,-224.5 877.894,-224.5"/>
<text text-anchor="middle" x="895.394" y="-231.5" font-family="Helvetica,sans-Serif" font-size="10.00">map</text>
</g>
<!-- Node9&#45;&gt;Node17 -->
<g id="edge24" class="edge"><title>Node9&#45;&gt;Node17</title>
<path fill="none" stroke="midnightblue" d="M724.624,-280.478C759.519,-272.493 812.703,-259.809 867.797,-243.991"/>
<polygon fill="midnightblue" stroke="midnightblue" points="869.109,-247.255 877.738,-241.108 867.159,-240.532 869.109,-247.255"/>
</g>
<!-- Node10&#45;&gt;Node4 -->
<g id="edge17" class="edge"><title>Node10&#45;&gt;Node4</title>
<path fill="none" stroke="midnightblue" d="M714.481,-230.336C649.822,-224.393 492.297,-208.907 361.394,-188 259.219,-171.681 140.107,-145.719 79.764,-132.069"/>
<polygon fill="midnightblue" stroke="midnightblue" points="80.4228,-128.629 69.896,-129.827 78.8724,-135.455 80.4228,-128.629"/>
</g>
<!-- Node10&#45;&gt;Node11 -->
<g id="edge13" class="edge"><title>Node10&#45;&gt;Node11</title>
<path fill="none" stroke="midnightblue" d="M735.075,-224.324C726.501,-216.341 713.582,-204.313 703.206,-194.653"/>
<polygon fill="midnightblue" stroke="midnightblue" points="705.586,-192.086 695.882,-187.834 700.816,-197.21 705.586,-192.086"/>
</g>
<!-- Node10&#45;&gt;Node14 -->
<g id="edge18" class="edge"><title>Node10&#45;&gt;Node14</title>
<path fill="none" stroke="midnightblue" d="M750.339,-224.083C755.371,-216.534 762.731,-205.495 768.907,-196.23"/>
<polygon fill="midnightblue" stroke="midnightblue" points="771.925,-198.013 774.56,-187.751 766.101,-194.13 771.925,-198.013"/>
</g>
<!-- Node11&#45;&gt;Node5 -->
<g id="edge14" class="edge"><title>Node11&#45;&gt;Node5</title>
<path fill="none" stroke="midnightblue" d="M685.692,-168.469C684.085,-154.58 678.89,-127.116 662.394,-112 569.207,-26.6064 410.785,-12.3193 335.106,-10.6392"/>
<polygon fill="midnightblue" stroke="midnightblue" points="335.046,-7.13788 324.992,-10.4797 334.935,-14.137 335.046,-7.13788"/>
</g>
<!-- Node12 -->
<g id="node12" class="node"><title>Node12</title>
<polygon fill="white" stroke="#bfbfbf" points="714.394,-112.5 714.394,-131.5 766.394,-131.5 766.394,-112.5 714.394,-112.5"/>
<text text-anchor="middle" x="740.394" y="-119.5" font-family="Helvetica,sans-Serif" font-size="10.00">ostream</text>
</g>
<!-- Node11&#45;&gt;Node12 -->
<g id="edge15" class="edge"><title>Node11&#45;&gt;Node12</title>
<path fill="none" stroke="midnightblue" d="M695.311,-168.083C703.174,-160.22 714.825,-148.569 724.313,-139.081"/>
<polygon fill="midnightblue" stroke="midnightblue" points="727.047,-141.297 731.643,-131.751 722.097,-136.347 727.047,-141.297"/>
</g>
<!-- Node13 -->
<g id="node13" class="node"><title>Node13</title>
<polygon fill="white" stroke="#bfbfbf" points="578.394,-112.5 578.394,-131.5 620.394,-131.5 620.394,-112.5 578.394,-112.5"/>
<text text-anchor="middle" x="599.394" y="-119.5" font-family="Helvetica,sans-Serif" font-size="10.00">vector</text>
</g>
<!-- Node11&#45;&gt;Node13 -->
<g id="edge16" class="edge"><title>Node11&#45;&gt;Node13</title>
<path fill="none" stroke="midnightblue" d="M672.416,-168.324C658.844,-159.9 638.014,-146.971 622.069,-137.074"/>
<polygon fill="midnightblue" stroke="midnightblue" points="623.68,-133.954 613.337,-131.655 619.988,-139.902 623.68,-133.954"/>
</g>
<!-- Node15&#45;&gt;Node7 -->
<g id="edge20" class="edge"><title>Node15&#45;&gt;Node7</title>
<path fill="none" stroke="midnightblue" d="M486.804,-114.647C427.911,-104.421 312.573,-84.3944 251.884,-73.8568"/>
<polygon fill="midnightblue" stroke="midnightblue" points="252.373,-70.3894 241.921,-72.127 251.175,-77.2862 252.373,-70.3894"/>
</g>
<!-- Node18&#45;&gt;Node4 -->
<g id="edge28" class="edge"><title>Node18&#45;&gt;Node4</title>
<path fill="none" stroke="midnightblue" d="M444.249,-286.796C366.708,-281.058 166.707,-264.661 103.394,-244 54.9683,-228.197 29.152,-231.946 3.39393,-188 -6.37611,-171.331 7.71127,-152.08 21.2231,-138.88"/>
<polygon fill="midnightblue" stroke="midnightblue" points="23.8848,-141.19 28.9274,-131.872 19.1747,-136.012 23.8848,-141.19"/>
</g>
<!-- Node18&#45;&gt;Node7 -->
<g id="edge41" class="edge"><title>Node18&#45;&gt;Node7</title>
<path fill="none" stroke="midnightblue" d="M447.217,-280.355C423.512,-272.51 389.142,-259.771 361.394,-244 325.996,-223.882 235.458,-167.976 216.394,-132 208.867,-117.795 208.467,-99.3178 209.6,-85.6959"/>
<polygon fill="midnightblue" stroke="midnightblue" points="213.095,-85.9366 210.788,-75.596 206.143,-85.1183 213.095,-85.9366"/>
</g>
<!-- Node18&#45;&gt;Node11 -->
<g id="edge40" class="edge"><title>Node18&#45;&gt;Node11</title>
<path fill="none" stroke="midnightblue" d="M491.951,-280.368C528.698,-261.211 617.271,-215.036 661.041,-192.217"/>
<polygon fill="midnightblue" stroke="midnightblue" points="662.665,-195.318 669.914,-187.591 659.429,-189.111 662.665,-195.318"/>
</g>
<!-- Node18&#45;&gt;Node13 -->
<g id="edge42" class="edge"><title>Node18&#45;&gt;Node13</title>
<path fill="none" stroke="midnightblue" d="M483.687,-280.306C492.012,-271.435 505.051,-257.143 515.394,-244 543.332,-208.498 572.713,-164.373 588.241,-140.433"/>
<polygon fill="midnightblue" stroke="midnightblue" points="591.354,-142.063 593.83,-131.762 585.47,-138.271 591.354,-142.063"/>
</g>
<!-- Node19 -->
<g id="node19" class="node"><title>Node19</title>
<polygon fill="white" stroke="#bfbfbf" points="444.394,-224.5 444.394,-243.5 506.394,-243.5 506.394,-224.5 444.394,-224.5"/>
<text text-anchor="middle" x="475.394" y="-231.5" font-family="Helvetica,sans-Serif" font-size="10.00">windows.h</text>
</g>
<!-- Node18&#45;&gt;Node19 -->
<g id="edge27" class="edge"><title>Node18&#45;&gt;Node19</title>
<path fill="none" stroke="midnightblue" d="M475.394,-280.083C475.394,-273.006 475.394,-262.861 475.394,-253.986"/>
<polygon fill="midnightblue" stroke="midnightblue" points="478.894,-253.751 475.394,-243.751 471.894,-253.751 478.894,-253.751"/>
</g>
<!-- Node20 -->
<g id="node20" class="node"><title>Node20</title>
<g id="a_node20"><a xlink:href="ia_event_8h.html" target="_top" xlink:title="iaEvent.h">
<polygon fill="white" stroke="black" points="370.394,-224.5 370.394,-243.5 426.394,-243.5 426.394,-224.5 370.394,-224.5"/>
<text text-anchor="middle" x="398.394" y="-231.5" font-family="Helvetica,sans-Serif" font-size="10.00">iaEvent.h</text>
</a>
</g>
</g>
<!-- Node18&#45;&gt;Node20 -->
<g id="edge29" class="edge"><title>Node18&#45;&gt;Node20</title>
<path fill="none" stroke="midnightblue" d="M463.023,-280.324C451.235,-272.058 433.262,-259.453 419.258,-249.632"/>
<polygon fill="midnightblue" stroke="midnightblue" points="420.932,-246.531 410.735,-243.655 416.912,-252.262 420.932,-246.531"/>
</g>
<!-- Node20&#45;&gt;Node7 -->
<g id="edge30" class="edge"><title>Node20&#45;&gt;Node7</title>
<path fill="none" stroke="midnightblue" d="M388.928,-224.075C374.278,-210.606 344.829,-184.869 316.394,-168 281.11,-147.067 258.67,-162.646 231.394,-132 220.045,-119.249 215.458,-100.054 213.613,-85.826"/>
<polygon fill="midnightblue" stroke="midnightblue" points="217.08,-85.3193 212.644,-75.698 210.112,-85.9858 217.08,-85.3193"/>
</g>
<!-- Node20&#45;&gt;Node8 -->
<g id="edge31" class="edge"><title>Node20&#45;&gt;Node8</title>
<path fill="none" stroke="midnightblue" d="M370.025,-225.263C336.357,-216.081 279.946,-200.696 241.498,-190.21"/>
<polygon fill="midnightblue" stroke="midnightblue" points="242.218,-186.779 231.65,-187.524 240.377,-193.532 242.218,-186.779"/>
</g>
<!-- Node20&#45;&gt;Node13 -->
<g id="edge39" class="edge"><title>Node20&#45;&gt;Node13</title>
<path fill="none" stroke="midnightblue" d="M414.166,-224.368C449.025,-205.292 532.841,-159.422 574.716,-136.505"/>
<polygon fill="midnightblue" stroke="midnightblue" points="576.603,-139.463 583.695,-131.591 573.242,-133.322 576.603,-139.463"/>
</g>
<!-- Node21 -->
<g id="node21" class="node"><title>Node21</title>
<g id="a_node21"><a xlink:href="ia_console_8h.html" target="_top" xlink:title="iaConsole.h">
<polygon fill="white" stroke="black" points="370.394,-168.5 370.394,-187.5 438.394,-187.5 438.394,-168.5 370.394,-168.5"/>
<text text-anchor="middle" x="404.394" y="-175.5" font-family="Helvetica,sans-Serif" font-size="10.00">iaConsole.h</text>
</a>
</g>
</g>
<!-- Node20&#45;&gt;Node21 -->
<g id="edge32" class="edge"><title>Node20&#45;&gt;Node21</title>
<path fill="none" stroke="midnightblue" d="M399.385,-224.083C400.18,-216.927 401.323,-206.635 402.317,-197.691"/>
<polygon fill="midnightblue" stroke="midnightblue" points="405.796,-198.076 403.422,-187.751 398.839,-197.303 405.796,-198.076"/>
</g>
<!-- Node21&#45;&gt;Node15 -->
<g id="edge33" class="edge"><title>Node21&#45;&gt;Node15</title>
<path fill="none" stroke="midnightblue" d="M423.25,-168.444C442.66,-159.636 473.124,-145.812 495.358,-135.722"/>
<polygon fill="midnightblue" stroke="midnightblue" points="496.966,-138.836 504.626,-131.516 494.074,-132.462 496.966,-138.836"/>
</g>
<!-- Node22 -->
<g id="node22" class="node"><title>Node22</title>
<g id="a_node22"><a xlink:href="ia_clock_8h.html" target="_top" xlink:title="iaClock.h">
<polygon fill="white" stroke="black" points="344.894,-56.5 344.894,-75.5 401.894,-75.5 401.894,-56.5 344.894,-56.5"/>
<text text-anchor="middle" x="373.394" y="-63.5" font-family="Helvetica,sans-Serif" font-size="10.00">iaClock.h</text>
</a>
</g>
</g>
<!-- Node21&#45;&gt;Node22 -->
<g id="edge34" class="edge"><title>Node21&#45;&gt;Node22</title>
<path fill="none" stroke="midnightblue" d="M414.87,-168.167C428.367,-155.661 448.915,-132.08 438.394,-112 431.115,-98.1082 417.384,-87.6523 404.411,-80.3328"/>
<polygon fill="midnightblue" stroke="midnightblue" points="405.69,-77.0532 395.202,-75.553 402.465,-83.2662 405.69,-77.0532"/>
</g>
<!-- Node23 -->
<g id="node23" class="node"><title>Node23</title>
<polygon fill="white" stroke="#bfbfbf" points="380.894,-112.5 380.894,-131.5 429.894,-131.5 429.894,-112.5 380.894,-112.5"/>
<text text-anchor="middle" x="405.394" y="-119.5" font-family="Helvetica,sans-Serif" font-size="10.00">fstream</text>
</g>
<!-- Node21&#45;&gt;Node23 -->
<g id="edge36" class="edge"><title>Node21&#45;&gt;Node23</title>
<path fill="none" stroke="midnightblue" d="M404.559,-168.083C404.69,-161.006 404.878,-150.861 405.042,-141.986"/>
<polygon fill="midnightblue" stroke="midnightblue" points="408.546,-141.814 405.232,-131.751 401.547,-141.685 408.546,-141.814"/>
</g>
<!-- Node24 -->
<g id="node24" class="node"><title>Node24</title>
<polygon fill="white" stroke="#bfbfbf" points="240.394,-112.5 240.394,-131.5 294.394,-131.5 294.394,-112.5 240.394,-112.5"/>
<text text-anchor="middle" x="267.394" y="-119.5" font-family="Helvetica,sans-Serif" font-size="10.00">iostream</text>
</g>
<!-- Node21&#45;&gt;Node24 -->
<g id="edge37" class="edge"><title>Node21&#45;&gt;Node24</title>
<path fill="none" stroke="midnightblue" d="M382.686,-168.444C360.039,-159.517 324.322,-145.439 298.642,-135.317"/>
<polygon fill="midnightblue" stroke="midnightblue" points="299.587,-131.927 289,-131.516 297.02,-138.44 299.587,-131.927"/>
</g>
<!-- Node25 -->
<g id="node25" class="node"><title>Node25</title>
<polygon fill="white" stroke="#bfbfbf" points="312.394,-112.5 312.394,-131.5 362.394,-131.5 362.394,-112.5 312.394,-112.5"/>
<text text-anchor="middle" x="337.394" y="-119.5" font-family="Helvetica,sans-Serif" font-size="10.00">iomanip</text>
</g>
<!-- Node21&#45;&gt;Node25 -->
<g id="edge38" class="edge"><title>Node21&#45;&gt;Node25</title>
<path fill="none" stroke="midnightblue" d="M393.629,-168.324C383.628,-160.263 368.507,-148.077 356.463,-138.369"/>
<polygon fill="midnightblue" stroke="midnightblue" points="358.337,-135.384 348.355,-131.834 353.944,-140.834 358.337,-135.384"/>
</g>
<!-- Node22&#45;&gt;Node5 -->
<g id="edge35" class="edge"><title>Node22&#45;&gt;Node5</title>
<path fill="none" stroke="midnightblue" d="M360.38,-56.324C347.862,-47.979 328.712,-35.2122 313.923,-25.3524"/>
<polygon fill="midnightblue" stroke="midnightblue" points="315.638,-22.2894 305.376,-19.6545 311.755,-28.1137 315.638,-22.2894"/>
</g>
</g>
</svg>
