<?xml version="1.0" encoding="UTF-8" standalone="no"?>
<!DOCTYPE svg PUBLIC "-//W3C//DTD SVG 1.1//EN"
 "http://www.w3.org/Graphics/SVG/1.1/DTD/svg11.dtd">
<!-- Generated by graphviz version 2.38.0 (20140413.2041)
 -->
<!-- Title: C:/dev/Igor/src/Igor/src/iTaskPrepareCollision.h Pages: 1 -->
<svg width="290pt" height="106pt"
 viewBox="0.00 0.00 290.00 106.00" xmlns="http://www.w3.org/2000/svg" xmlns:xlink="http://www.w3.org/1999/xlink">
<g id="graph0" class="graph" transform="scale(1 1) rotate(0) translate(4 102)">
<title>C:/dev/Igor/src/Igor/src/iTaskPrepareCollision.h</title>
<polygon fill="white" stroke="none" points="-4,4 -4,-102 286,-102 286,4 -4,4"/>
<!-- Node1 -->
<g id="node1" class="node"><title>Node1</title>
<polygon fill="#bfbfbf" stroke="black" points="63.5,-67.5 63.5,-97.5 201.5,-97.5 201.5,-67.5 63.5,-67.5"/>
<text text-anchor="start" x="71.5" y="-85.5" font-family="Helvetica,sans-Serif" font-size="10.00">C:/dev/Igor/src/Igor</text>
<text text-anchor="middle" x="132.5" y="-74.5" font-family="Helvetica,sans-Serif" font-size="10.00">/src/iTaskPrepareCollision.h</text>
</g>
<!-- Node2 -->
<g id="node2" class="node"><title>Node2</title>
<g id="a_node2"><a xlink:href="i_node_physics_8cpp.html" target="_top" xlink:title="C:/dev/Igor/src/Igor\l/src/iNodePhysics.cpp">
<polygon fill="white" stroke="black" points="0,-0.5 0,-30.5 115,-30.5 115,-0.5 0,-0.5"/>
<text text-anchor="start" x="8" y="-18.5" font-family="Helvetica,sans-Serif" font-size="10.00">C:/dev/Igor/src/Igor</text>
<text text-anchor="middle" x="57.5" y="-7.5" font-family="Helvetica,sans-Serif" font-size="10.00">/src/iNodePhysics.cpp</text>
</a>
</g>
</g>
<!-- Node1&#45;&gt;Node2 -->
<g id="edge1" class="edge"><title>Node1&#45;&gt;Node2</title>
<path fill="none" stroke="midnightblue" d="M108.382,-60.5978C97.0574,-50.7831 83.8587,-39.3442 73.7421,-30.5765"/>
<polygon fill="midnightblue" stroke="midnightblue" points="106.377,-63.4915 116.226,-67.396 110.961,-58.2017 106.377,-63.4915"/>
</g>
<!-- Node3 -->
<g id="node3" class="node"><title>Node3</title>
<g id="a_node3"><a xlink:href="i_task_prepare_collision_8cpp.html" target="_top" xlink:title="C:/dev/Igor/src/Igor\l/src/iTaskPrepareCollision.cpp">
<polygon fill="white" stroke="black" points="133,-0.5 133,-30.5 282,-30.5 282,-0.5 133,-0.5"/>
<text text-anchor="start" x="141" y="-18.5" font-family="Helvetica,sans-Serif" font-size="10.00">C:/dev/Igor/src/Igor</text>
<text text-anchor="middle" x="207.5" y="-7.5" font-family="Helvetica,sans-Serif" font-size="10.00">/src/iTaskPrepareCollision.cpp</text>
</a>
</g>
</g>
<!-- Node1&#45;&gt;Node3 -->
<g id="edge2" class="edge"><title>Node1&#45;&gt;Node3</title>
<path fill="none" stroke="midnightblue" d="M156.618,-60.5978C167.943,-50.7831 181.141,-39.3442 191.258,-30.5765"/>
<polygon fill="midnightblue" stroke="midnightblue" points="154.039,-58.2017 148.774,-67.396 158.623,-63.4915 154.039,-58.2017"/>
</g>
</g>
</svg>
