<?xml version="1.0" encoding="UTF-8" standalone="no"?>
<!DOCTYPE svg PUBLIC "-//W3C//DTD SVG 1.1//EN"
 "http://www.w3.org/Graphics/SVG/1.1/DTD/svg11.dtd">
<!-- Generated by graphviz version 2.38.0 (20140413.2041)
 -->
<!-- Title: C:/dev/Igor/src/Igor/src/iTargetMaterial.h Pages: 1 -->
<svg width="383pt" height="151pt"
 viewBox="0.00 0.00 383.00 151.00" xmlns="http://www.w3.org/2000/svg" xmlns:xlink="http://www.w3.org/1999/xlink">
<g id="graph0" class="graph" transform="scale(1 1) rotate(0) translate(4 147)">
<title>C:/dev/Igor/src/Igor/src/iTargetMaterial.h</title>
<polygon fill="white" stroke="none" points="-4,4 -4,-147 379,-147 379,4 -4,4"/>
<!-- Node1 -->
<g id="node1" class="node"><title>Node1</title>
<polygon fill="#bfbfbf" stroke="black" points="121.5,-112.5 121.5,-142.5 229.5,-142.5 229.5,-112.5 121.5,-112.5"/>
<text text-anchor="start" x="129.5" y="-130.5" font-family="Helvetica,sans-Serif" font-size="10.00">C:/dev/Igor/src/Igor</text>
<text text-anchor="middle" x="175.5" y="-119.5" font-family="Helvetica,sans-Serif" font-size="10.00">/src/iTargetMaterial.h</text>
</g>
<!-- Node2 -->
<g id="node2" class="node"><title>Node2</title>
<g id="a_node2"><a xlink:href="i_defines_8h.html" target="_top" xlink:title="iDefines.h">
<polygon fill="white" stroke="black" points="2,-56.5 2,-75.5 61,-75.5 61,-56.5 2,-56.5"/>
<text text-anchor="middle" x="31.5" y="-63.5" font-family="Helvetica,sans-Serif" font-size="10.00">iDefines.h</text>
</a>
</g>
</g>
<!-- Node1&#45;&gt;Node2 -->
<g id="edge1" class="edge"><title>Node1&#45;&gt;Node2</title>
<path fill="none" stroke="midnightblue" d="M141.374,-112.399C117.213,-102.416 85.0983,-89.1465 61.8332,-79.5335"/>
<polygon fill="midnightblue" stroke="midnightblue" points="63.032,-76.2419 52.4533,-75.6578 60.3588,-82.7114 63.032,-76.2419"/>
</g>
<!-- Node4 -->
<g id="node4" class="node"><title>Node4</title>
<g id="a_node4"><a xlink:href="ia_color3_8h.html" target="_top" xlink:title="iaColor3.h">
<polygon fill="white" stroke="black" points="79.5,-56.5 79.5,-75.5 139.5,-75.5 139.5,-56.5 79.5,-56.5"/>
<text text-anchor="middle" x="109.5" y="-63.5" font-family="Helvetica,sans-Serif" font-size="10.00">iaColor3.h</text>
</a>
</g>
</g>
<!-- Node1&#45;&gt;Node4 -->
<g id="edge3" class="edge"><title>Node1&#45;&gt;Node4</title>
<path fill="none" stroke="midnightblue" d="M159.859,-112.399C149.873,-103.397 136.922,-91.7214 126.655,-82.4652"/>
<polygon fill="midnightblue" stroke="midnightblue" points="128.875,-79.7541 119.104,-75.6578 124.187,-84.9533 128.875,-79.7541"/>
</g>
<!-- Node7 -->
<g id="node7" class="node"><title>Node7</title>
<polygon fill="white" stroke="#bfbfbf" points="158,-56.5 158,-75.5 193,-75.5 193,-56.5 158,-56.5"/>
<text text-anchor="middle" x="175.5" y="-63.5" font-family="Helvetica,sans-Serif" font-size="10.00">map</text>
</g>
<!-- Node1&#45;&gt;Node7 -->
<g id="edge7" class="edge"><title>Node1&#45;&gt;Node7</title>
<path fill="none" stroke="midnightblue" d="M175.5,-112.399C175.5,-104.466 175.5,-94.458 175.5,-85.8583"/>
<polygon fill="midnightblue" stroke="midnightblue" points="179,-85.6577 175.5,-75.6578 172,-85.6578 179,-85.6577"/>
</g>
<!-- Node8 -->
<g id="node8" class="node"><title>Node8</title>
<polygon fill="white" stroke="#bfbfbf" points="211.5,-56.5 211.5,-75.5 263.5,-75.5 263.5,-56.5 211.5,-56.5"/>
<text text-anchor="middle" x="237.5" y="-63.5" font-family="Helvetica,sans-Serif" font-size="10.00">memory</text>
</g>
<!-- Node1&#45;&gt;Node8 -->
<g id="edge8" class="edge"><title>Node1&#45;&gt;Node8</title>
<path fill="none" stroke="midnightblue" d="M190.193,-112.399C199.481,-103.486 211.499,-91.9523 221.098,-82.7408"/>
<polygon fill="midnightblue" stroke="midnightblue" points="223.687,-85.1072 228.478,-75.6578 218.84,-80.0566 223.687,-85.1072"/>
</g>
<!-- Node9 -->
<g id="node9" class="node"><title>Node9</title>
<g id="a_node9"><a xlink:href="i_target_material_8inl.html" target="_top" xlink:title="iTargetMaterial.inl">
<polygon fill="white" stroke="black" points="282,-56.5 282,-75.5 375,-75.5 375,-56.5 282,-56.5"/>
<text text-anchor="middle" x="328.5" y="-63.5" font-family="Helvetica,sans-Serif" font-size="10.00">iTargetMaterial.inl</text>
</a>
</g>
</g>
<!-- Node1&#45;&gt;Node9 -->
<g id="edge9" class="edge"><title>Node1&#45;&gt;Node9</title>
<path fill="none" stroke="midnightblue" d="M211.759,-112.399C237.544,-102.372 271.857,-89.028 296.601,-79.405"/>
<polygon fill="midnightblue" stroke="midnightblue" points="298.186,-82.5443 306.237,-75.6578 295.649,-76.0203 298.186,-82.5443"/>
</g>
<!-- Node3 -->
<g id="node3" class="node"><title>Node3</title>
<g id="a_node3"><a xlink:href="ia_defines_8h.html" target="_top" xlink:title="iaDefines.h">
<polygon fill="white" stroke="black" points="0,-0.5 0,-19.5 65,-19.5 65,-0.5 0,-0.5"/>
<text text-anchor="middle" x="32.5" y="-7.5" font-family="Helvetica,sans-Serif" font-size="10.00">iaDefines.h</text>
</a>
</g>
</g>
<!-- Node2&#45;&gt;Node3 -->
<g id="edge2" class="edge"><title>Node2&#45;&gt;Node3</title>
<path fill="none" stroke="midnightblue" d="M31.6651,-56.083C31.7962,-49.0059 31.9841,-38.8611 32.1484,-29.9865"/>
<polygon fill="midnightblue" stroke="midnightblue" points="35.6521,-29.8142 32.3379,-19.7511 28.6533,-29.6845 35.6521,-29.8142"/>
</g>
<!-- Node4&#45;&gt;Node3 -->
<g id="edge4" class="edge"><title>Node4&#45;&gt;Node3</title>
<path fill="none" stroke="midnightblue" d="M97.1286,-56.324C85.3415,-48.0577 67.3677,-35.4527 53.3645,-25.6322"/>
<polygon fill="midnightblue" stroke="midnightblue" points="55.0376,-22.5307 44.8407,-19.6545 51.0184,-28.2619 55.0376,-22.5307"/>
</g>
<!-- Node5 -->
<g id="node5" class="node"><title>Node5</title>
<polygon fill="white" stroke="#bfbfbf" points="84,-0.5 84,-19.5 133,-19.5 133,-0.5 84,-0.5"/>
<text text-anchor="middle" x="108.5" y="-7.5" font-family="Helvetica,sans-Serif" font-size="10.00">fstream</text>
</g>
<!-- Node4&#45;&gt;Node5 -->
<g id="edge5" class="edge"><title>Node4&#45;&gt;Node5</title>
<path fill="none" stroke="midnightblue" d="M109.335,-56.083C109.204,-49.0059 109.016,-38.8611 108.852,-29.9865"/>
<polygon fill="midnightblue" stroke="midnightblue" points="112.347,-29.6845 108.662,-19.7511 105.348,-29.8142 112.347,-29.6845"/>
</g>
<!-- Node6 -->
<g id="node6" class="node"><title>Node6</title>
<polygon fill="white" stroke="#bfbfbf" points="151.5,-0.5 151.5,-19.5 205.5,-19.5 205.5,-0.5 151.5,-0.5"/>
<text text-anchor="middle" x="178.5" y="-7.5" font-family="Helvetica,sans-Serif" font-size="10.00">iostream</text>
</g>
<!-- Node4&#45;&gt;Node6 -->
<g id="edge6" class="edge"><title>Node4&#45;&gt;Node6</title>
<path fill="none" stroke="midnightblue" d="M120.586,-56.324C130.986,-48.1849 146.761,-35.8395 159.222,-26.0874"/>
<polygon fill="midnightblue" stroke="midnightblue" points="161.494,-28.7533 167.212,-19.8339 157.18,-23.2407 161.494,-28.7533"/>
</g>
</g>
</svg>
