<?xml version="1.0" encoding="UTF-8" standalone="no"?>
<!DOCTYPE svg PUBLIC "-//W3C//DTD SVG 1.1//EN"
 "http://www.w3.org/Graphics/SVG/1.1/DTD/svg11.dtd">
<!-- Generated by graphviz version 2.38.0 (20140413.2041)
 -->
<!-- Title: C:/dev/Igor/src/Igor/src/iTextureResourceFactory.h Pages: 1 -->
<svg width="472pt" height="207pt"
 viewBox="0.00 0.00 471.50 207.00" xmlns="http://www.w3.org/2000/svg" xmlns:xlink="http://www.w3.org/1999/xlink">
<g id="graph0" class="graph" transform="scale(1 1) rotate(0) translate(4 203)">
<title>C:/dev/Igor/src/Igor/src/iTextureResourceFactory.h</title>
<polygon fill="white" stroke="none" points="-4,4 -4,-203 467.5,-203 467.5,4 -4,4"/>
<!-- Node1 -->
<g id="node1" class="node"><title>Node1</title>
<polygon fill="#bfbfbf" stroke="black" points="211.5,-168.5 211.5,-198.5 364.5,-198.5 364.5,-168.5 211.5,-168.5"/>
<text text-anchor="start" x="219.5" y="-186.5" font-family="Helvetica,sans-Serif" font-size="10.00">C:/dev/Igor/src/Igor</text>
<text text-anchor="middle" x="288" y="-175.5" font-family="Helvetica,sans-Serif" font-size="10.00">/src/iTextureResourceFactory.h</text>
</g>
<!-- Node2 -->
<g id="node2" class="node"><title>Node2</title>
<g id="a_node2"><a xlink:href="i_texture_8h.html" target="_top" xlink:title="iTexture.h">
<polygon fill="white" stroke="black" points="135.5,-112.5 135.5,-131.5 194.5,-131.5 194.5,-112.5 135.5,-112.5"/>
<text text-anchor="middle" x="165" y="-119.5" font-family="Helvetica,sans-Serif" font-size="10.00">iTexture.h</text>
</a>
</g>
</g>
<!-- Node1&#45;&gt;Node2 -->
<g id="edge1" class="edge"><title>Node1&#45;&gt;Node2</title>
<path fill="none" stroke="midnightblue" d="M258.851,-168.399C238.582,-158.595 211.759,-145.619 191.981,-136.052"/>
<polygon fill="midnightblue" stroke="midnightblue" points="193.424,-132.862 182.898,-131.658 190.376,-139.163 193.424,-132.862"/>
</g>
<!-- Node3 -->
<g id="node3" class="node"><title>Node3</title>
<g id="a_node3"><a xlink:href="ia_string_8h.html" target="_top" xlink:title="iaString.h">
<polygon fill="white" stroke="black" points="59,-56.5 59,-75.5 117,-75.5 117,-56.5 59,-56.5"/>
<text text-anchor="middle" x="88" y="-63.5" font-family="Helvetica,sans-Serif" font-size="10.00">iaString.h</text>
</a>
</g>
</g>
<!-- Node1&#45;&gt;Node3 -->
<g id="edge12" class="edge"><title>Node1&#45;&gt;Node3</title>
<path fill="none" stroke="midnightblue" d="M211.494,-170.827C182.413,-163.439 150.438,-151.44 126,-132 110.689,-119.82 100.292,-99.6641 94.2967,-85.0216"/>
<polygon fill="midnightblue" stroke="midnightblue" points="97.5161,-83.6398 90.7019,-75.527 90.9696,-86.1184 97.5161,-83.6398"/>
</g>
<!-- Node8 -->
<g id="node8" class="node"><title>Node8</title>
<polygon fill="white" stroke="#bfbfbf" points="213,-56.5 213,-75.5 265,-75.5 265,-56.5 213,-56.5"/>
<text text-anchor="middle" x="239" y="-63.5" font-family="Helvetica,sans-Serif" font-size="10.00">memory</text>
</g>
<!-- Node1&#45;&gt;Node8 -->
<g id="edge16" class="edge"><title>Node1&#45;&gt;Node8</title>
<path fill="none" stroke="midnightblue" d="M269.824,-168.194C259.667,-159.045 247.896,-146.245 242,-132 235.985,-117.469 235.625,-99.5188 236.548,-86.1663"/>
<polygon fill="midnightblue" stroke="midnightblue" points="240.071,-86.1151 237.58,-75.8172 233.105,-85.4206 240.071,-86.1151"/>
</g>
<!-- Node9 -->
<g id="node9" class="node"><title>Node9</title>
<g id="a_node9"><a xlink:href="ia_singleton_8h.html" target="_top" xlink:title="iaSingleton.h">
<polygon fill="white" stroke="black" points="251.5,-112.5 251.5,-131.5 324.5,-131.5 324.5,-112.5 251.5,-112.5"/>
<text text-anchor="middle" x="288" y="-119.5" font-family="Helvetica,sans-Serif" font-size="10.00">iaSingleton.h</text>
</a>
</g>
</g>
<!-- Node1&#45;&gt;Node9 -->
<g id="edge9" class="edge"><title>Node1&#45;&gt;Node9</title>
<path fill="none" stroke="midnightblue" d="M288,-168.399C288,-160.466 288,-150.458 288,-141.858"/>
<polygon fill="midnightblue" stroke="midnightblue" points="291.5,-141.658 288,-131.658 284.5,-141.658 291.5,-141.658"/>
</g>
<!-- Node10 -->
<g id="node10" class="node"><title>Node10</title>
<g id="a_node10"><a xlink:href="ia_mutex_8h.html" target="_top" xlink:title="iaMutex.h">
<polygon fill="white" stroke="black" points="283.5,-56.5 283.5,-75.5 342.5,-75.5 342.5,-56.5 283.5,-56.5"/>
<text text-anchor="middle" x="313" y="-63.5" font-family="Helvetica,sans-Serif" font-size="10.00">iaMutex.h</text>
</a>
</g>
</g>
<!-- Node1&#45;&gt;Node10 -->
<g id="edge13" class="edge"><title>Node1&#45;&gt;Node10</title>
<path fill="none" stroke="midnightblue" d="M306.416,-168.29C316.658,-159.175 328.434,-146.377 334,-132 340.202,-115.982 332.663,-97.2814 324.947,-84.0619"/>
<polygon fill="midnightblue" stroke="midnightblue" points="327.824,-82.0645 319.491,-75.5215 321.925,-85.833 327.824,-82.0645"/>
</g>
<!-- Node11 -->
<g id="node11" class="node"><title>Node11</title>
<polygon fill="white" stroke="#bfbfbf" points="381.5,-112.5 381.5,-131.5 410.5,-131.5 410.5,-112.5 381.5,-112.5"/>
<text text-anchor="middle" x="396" y="-119.5" font-family="Helvetica,sans-Serif" font-size="10.00">list</text>
</g>
<!-- Node1&#45;&gt;Node11 -->
<g id="edge14" class="edge"><title>Node1&#45;&gt;Node11</title>
<path fill="none" stroke="midnightblue" d="M313.594,-168.399C331.384,-158.599 354.922,-145.631 372.286,-136.065"/>
<polygon fill="midnightblue" stroke="midnightblue" points="374.152,-139.033 381.222,-131.142 370.774,-132.902 374.152,-139.033"/>
</g>
<!-- Node12 -->
<g id="node12" class="node"><title>Node12</title>
<polygon fill="white" stroke="#bfbfbf" points="428.5,-112.5 428.5,-131.5 463.5,-131.5 463.5,-112.5 428.5,-112.5"/>
<text text-anchor="middle" x="446" y="-119.5" font-family="Helvetica,sans-Serif" font-size="10.00">map</text>
</g>
<!-- Node1&#45;&gt;Node12 -->
<g id="edge15" class="edge"><title>Node1&#45;&gt;Node12</title>
<path fill="none" stroke="midnightblue" d="M325.444,-168.399C354.124,-157.599 393.018,-142.952 418.782,-133.25"/>
<polygon fill="midnightblue" stroke="midnightblue" points="420.167,-136.468 428.292,-129.668 417.7,-129.917 420.167,-136.468"/>
</g>
<!-- Node2&#45;&gt;Node3 -->
<g id="edge2" class="edge"><title>Node2&#45;&gt;Node3</title>
<path fill="none" stroke="midnightblue" d="M152.629,-112.324C140.842,-104.058 122.868,-91.4527 108.864,-81.6322"/>
<polygon fill="midnightblue" stroke="midnightblue" points="110.538,-78.5307 100.341,-75.6545 106.518,-84.2619 110.538,-78.5307"/>
</g>
<!-- Node7 -->
<g id="node7" class="node"><title>Node7</title>
<g id="a_node7"><a xlink:href="i_defines_8h.html" target="_top" xlink:title="iDefines.h">
<polygon fill="white" stroke="black" points="135.5,-56.5 135.5,-75.5 194.5,-75.5 194.5,-56.5 135.5,-56.5"/>
<text text-anchor="middle" x="165" y="-63.5" font-family="Helvetica,sans-Serif" font-size="10.00">iDefines.h</text>
</a>
</g>
</g>
<!-- Node2&#45;&gt;Node7 -->
<g id="edge6" class="edge"><title>Node2&#45;&gt;Node7</title>
<path fill="none" stroke="midnightblue" d="M165,-112.083C165,-105.006 165,-94.8611 165,-85.9865"/>
<polygon fill="midnightblue" stroke="midnightblue" points="168.5,-85.751 165,-75.7511 161.5,-85.7511 168.5,-85.751"/>
</g>
<!-- Node2&#45;&gt;Node8 -->
<g id="edge8" class="edge"><title>Node2&#45;&gt;Node8</title>
<path fill="none" stroke="midnightblue" d="M176.889,-112.324C188.15,-104.107 205.287,-91.6017 218.709,-81.8069"/>
<polygon fill="midnightblue" stroke="midnightblue" points="220.88,-84.5559 226.894,-75.8339 216.753,-78.9014 220.88,-84.5559"/>
</g>
<!-- Node4 -->
<g id="node4" class="node"><title>Node4</title>
<g id="a_node4"><a xlink:href="ia_defines_8h.html" target="_top" xlink:title="iaDefines.h">
<polygon fill="white" stroke="black" points="132.5,-0.5 132.5,-19.5 197.5,-19.5 197.5,-0.5 132.5,-0.5"/>
<text text-anchor="middle" x="165" y="-7.5" font-family="Helvetica,sans-Serif" font-size="10.00">iaDefines.h</text>
</a>
</g>
</g>
<!-- Node3&#45;&gt;Node4 -->
<g id="edge3" class="edge"><title>Node3&#45;&gt;Node4</title>
<path fill="none" stroke="midnightblue" d="M100.371,-56.324C112.158,-48.0577 130.132,-35.4527 144.136,-25.6322"/>
<polygon fill="midnightblue" stroke="midnightblue" points="146.482,-28.2619 152.659,-19.6545 142.462,-22.5307 146.482,-28.2619"/>
</g>
<!-- Node5 -->
<g id="node5" class="node"><title>Node5</title>
<polygon fill="white" stroke="#bfbfbf" points="0,-0.5 0,-19.5 52,-19.5 52,-0.5 0,-0.5"/>
<text text-anchor="middle" x="26" y="-7.5" font-family="Helvetica,sans-Serif" font-size="10.00">ostream</text>
</g>
<!-- Node3&#45;&gt;Node5 -->
<g id="edge4" class="edge"><title>Node3&#45;&gt;Node5</title>
<path fill="none" stroke="midnightblue" d="M78.0386,-56.324C68.8734,-48.3414 55.0628,-36.3128 43.9718,-26.6529"/>
<polygon fill="midnightblue" stroke="midnightblue" points="45.9822,-23.7624 36.1426,-19.8339 41.3847,-29.041 45.9822,-23.7624"/>
</g>
<!-- Node6 -->
<g id="node6" class="node"><title>Node6</title>
<polygon fill="white" stroke="#bfbfbf" points="70,-0.5 70,-19.5 112,-19.5 112,-0.5 70,-0.5"/>
<text text-anchor="middle" x="91" y="-7.5" font-family="Helvetica,sans-Serif" font-size="10.00">vector</text>
</g>
<!-- Node3&#45;&gt;Node6 -->
<g id="edge5" class="edge"><title>Node3&#45;&gt;Node6</title>
<path fill="none" stroke="midnightblue" d="M88.4954,-56.083C88.8886,-49.0059 89.4522,-38.8611 89.9452,-29.9865"/>
<polygon fill="midnightblue" stroke="midnightblue" points="93.4536,-29.9299 90.5138,-19.7511 86.4644,-29.5415 93.4536,-29.9299"/>
</g>
<!-- Node7&#45;&gt;Node4 -->
<g id="edge7" class="edge"><title>Node7&#45;&gt;Node4</title>
<path fill="none" stroke="midnightblue" d="M165,-56.083C165,-49.0059 165,-38.8611 165,-29.9865"/>
<polygon fill="midnightblue" stroke="midnightblue" points="168.5,-29.751 165,-19.7511 161.5,-29.7511 168.5,-29.751"/>
</g>
<!-- Node9&#45;&gt;Node10 -->
<g id="edge10" class="edge"><title>Node9&#45;&gt;Node10</title>
<path fill="none" stroke="midnightblue" d="M292.128,-112.083C295.514,-104.77 300.416,-94.1814 304.619,-85.1034"/>
<polygon fill="midnightblue" stroke="midnightblue" points="307.923,-86.2962 308.949,-75.7511 301.571,-83.3553 307.923,-86.2962"/>
</g>
<!-- Node10&#45;&gt;Node4 -->
<g id="edge11" class="edge"><title>Node10&#45;&gt;Node4</title>
<path fill="none" stroke="midnightblue" d="M289.549,-56.4435C264.867,-47.4381 225.815,-33.1891 198.023,-23.049"/>
<polygon fill="midnightblue" stroke="midnightblue" points="198.935,-19.6561 188.341,-19.5164 196.536,-26.2321 198.935,-19.6561"/>
</g>
</g>
</svg>
