<?xml version="1.0" encoding="UTF-8" standalone="no"?>
<!DOCTYPE svg PUBLIC "-//W3C//DTD SVG 1.1//EN"
 "http://www.w3.org/Graphics/SVG/1.1/DTD/svg11.dtd">
<!-- Generated by graphviz version 2.38.0 (20140413.2041)
 -->
<!-- Title: C:/dev/Igor/Igor/src/Igor/src/iThread.h Pages: 1 -->
<svg width="397pt" height="173pt"
 viewBox="0.00 0.00 396.50 173.00" xmlns="http://www.w3.org/2000/svg" xmlns:xlink="http://www.w3.org/1999/xlink">
<g id="graph0" class="graph" transform="scale(1 1) rotate(0) translate(4 169)">
<title>C:/dev/Igor/Igor/src/Igor/src/iThread.h</title>
<polygon fill="white" stroke="none" points="-4,4 -4,-169 392.5,-169 392.5,4 -4,4"/>
<!-- Node7 -->
<g id="node1" class="node"><title>Node7</title>
<g id="a_node1"><a xlink:title=" ">
<polygon fill="#bfbfbf" stroke="black" points="206,-134.5 206,-164.5 304,-164.5 304,-134.5 206,-134.5"/>
<text text-anchor="start" x="214" y="-152.5" font-family="Helvetica,sans-Serif" font-size="10.00">C:/dev/Igor/Igor/src</text>
<text text-anchor="middle" x="255" y="-141.5" font-family="Helvetica,sans-Serif" font-size="10.00">/Igor/src/iThread.h</text>
</a>
</g>
</g>
<!-- Node8 -->
<g id="node2" class="node"><title>Node8</title>
<g id="a_node2"><a xlink:href="i_render_context_thread_8h.html" target="_top" xlink:title=" ">
<polygon fill="white" stroke="black" points="67.5,-67.5 67.5,-97.5 226.5,-97.5 226.5,-67.5 67.5,-67.5"/>
<text text-anchor="start" x="75.5" y="-85.5" font-family="Helvetica,sans-Serif" font-size="10.00">C:/dev/Igor/Igor/src</text>
<text text-anchor="middle" x="147" y="-74.5" font-family="Helvetica,sans-Serif" font-size="10.00">/Igor/src/iRenderContextThread.h</text>
</a>
</g>
</g>
<!-- Node7&#45;&gt;Node8 -->
<g id="edge1" class="edge"><title>Node7&#45;&gt;Node8</title>
<path fill="none" stroke="midnightblue" d="M222.625,-129.015C205.818,-118.9 185.664,-106.77 170.389,-97.5765"/>
<polygon fill="midnightblue" stroke="midnightblue" points="221.193,-132.238 231.566,-134.396 224.803,-126.241 221.193,-132.238"/>
</g>
<!-- Node10 -->
<g id="node4" class="node"><title>Node10</title>
<g id="a_node4"><a xlink:href="i_task_manager_8cpp.html" target="_top" xlink:title=" ">
<polygon fill="white" stroke="black" points="188,-0.5 188,-30.5 322,-30.5 322,-0.5 188,-0.5"/>
<text text-anchor="start" x="196" y="-18.5" font-family="Helvetica,sans-Serif" font-size="10.00">C:/dev/Igor/Igor/src</text>
<text text-anchor="middle" x="255" y="-7.5" font-family="Helvetica,sans-Serif" font-size="10.00">/Igor/src/iTaskManager.cpp</text>
</a>
</g>
</g>
<!-- Node7&#45;&gt;Node10 -->
<g id="edge4" class="edge"><title>Node7&#45;&gt;Node10</title>
<path fill="none" stroke="midnightblue" d="M255,-124.024C255,-96.5121 255,-52.7894 255,-30.5247"/>
<polygon fill="midnightblue" stroke="midnightblue" points="251.5,-124.374 255,-134.374 258.5,-124.374 251.5,-124.374"/>
</g>
<!-- Node11 -->
<g id="node5" class="node"><title>Node11</title>
<g id="a_node5"><a xlink:href="i_thread_8cpp.html" target="_top" xlink:title=" ">
<polygon fill="white" stroke="black" points="283.5,-67.5 283.5,-97.5 388.5,-97.5 388.5,-67.5 283.5,-67.5"/>
<text text-anchor="start" x="291.5" y="-85.5" font-family="Helvetica,sans-Serif" font-size="10.00">C:/dev/Igor/Igor/src</text>
<text text-anchor="middle" x="336" y="-74.5" font-family="Helvetica,sans-Serif" font-size="10.00">/Igor/src/iThread.cpp</text>
</a>
</g>
</g>
<!-- Node7&#45;&gt;Node11 -->
<g id="edge5" class="edge"><title>Node7&#45;&gt;Node11</title>
<path fill="none" stroke="midnightblue" d="M280.692,-127.883C293.001,-118.005 307.427,-106.429 318.459,-97.5765"/>
<polygon fill="midnightblue" stroke="midnightblue" points="278.185,-125.407 272.576,-134.396 282.566,-130.867 278.185,-125.407"/>
</g>
<!-- Node9 -->
<g id="node3" class="node"><title>Node9</title>
<g id="a_node3"><a xlink:href="i_render_context_thread_8cpp.html" target="_top" xlink:title=" ">
<polygon fill="white" stroke="black" points="0,-0.5 0,-30.5 170,-30.5 170,-0.5 0,-0.5"/>
<text text-anchor="start" x="8" y="-18.5" font-family="Helvetica,sans-Serif" font-size="10.00">C:/dev/Igor/Igor/src</text>
<text text-anchor="middle" x="85" y="-7.5" font-family="Helvetica,sans-Serif" font-size="10.00">/Igor/src/iRenderContextThread.cpp</text>
</a>
</g>
</g>
<!-- Node8&#45;&gt;Node9 -->
<g id="edge2" class="edge"><title>Node8&#45;&gt;Node9</title>
<path fill="none" stroke="midnightblue" d="M126.515,-60.0243C117.278,-50.3398 106.627,-39.1739 98.4268,-30.5765"/>
<polygon fill="midnightblue" stroke="midnightblue" points="124.112,-62.5756 133.547,-67.396 129.177,-57.7441 124.112,-62.5756"/>
</g>
<!-- Node8&#45;&gt;Node10 -->
<g id="edge3" class="edge"><title>Node8&#45;&gt;Node10</title>
<path fill="none" stroke="midnightblue" d="M179.375,-62.0151C196.182,-51.8999 216.336,-39.7698 231.611,-30.5765"/>
<polygon fill="midnightblue" stroke="midnightblue" points="177.197,-59.2405 170.434,-67.396 180.807,-65.2381 177.197,-59.2405"/>
</g>
</g>
</svg>
