<?xml version="1.0" encoding="UTF-8" standalone="no"?>
<!DOCTYPE svg PUBLIC "-//W3C//DTD SVG 1.1//EN"
 "http://www.w3.org/Graphics/SVG/1.1/DTD/svg11.dtd">
<!-- Generated by graphviz version 2.38.0 (20140413.2041)
 -->
<!-- Title: C:/dev/Igor/Igor/src/Igor/src/iView.h Pages: 1 -->
<svg width="902pt" height="375pt"
 viewBox="0.00 0.00 902.14 375.00" xmlns="http://www.w3.org/2000/svg" xmlns:xlink="http://www.w3.org/1999/xlink">
<g id="graph0" class="graph" transform="scale(1 1) rotate(0) translate(4 371)">
<title>C:/dev/Igor/Igor/src/Igor/src/iView.h</title>
<polygon fill="white" stroke="none" points="-4,4 -4,-371 898.145,-371 898.145,4 -4,4"/>
<!-- Node0 -->
<g id="node1" class="node"><title>Node0</title>
<g id="a_node1"><a xlink:title=" ">
<polygon fill="#bfbfbf" stroke="black" points="420.633,-336.5 420.633,-366.5 518.633,-366.5 518.633,-336.5 420.633,-336.5"/>
<text text-anchor="start" x="428.633" y="-354.5" font-family="Helvetica,sans-Serif" font-size="10.00">C:/dev/Igor/Igor/src</text>
<text text-anchor="middle" x="469.633" y="-343.5" font-family="Helvetica,sans-Serif" font-size="10.00">/Igor/src/iView.h</text>
</a>
</g>
</g>
<!-- Node1 -->
<g id="node2" class="node"><title>Node1</title>
<g id="a_node2"><a xlink:href="i_defines_8h.html" target="_top" xlink:title=" ">
<polygon fill="white" stroke="black" points="40.1334,-112.5 40.1334,-131.5 99.1334,-131.5 99.1334,-112.5 40.1334,-112.5"/>
<text text-anchor="middle" x="69.6334" y="-119.5" font-family="Helvetica,sans-Serif" font-size="10.00">iDefines.h</text>
</a>
</g>
</g>
<!-- Node0&#45;&gt;Node1 -->
<g id="edge1" class="edge"><title>Node0&#45;&gt;Node1</title>
<path fill="none" stroke="midnightblue" d="M420.632,-347.703C328.37,-341.883 132.578,-326.733 70.6334,-300 29.0186,-282.041 -10.4513,-267.395 2.63344,-224 12.7477,-190.457 38.047,-157.822 54.5006,-139.103"/>
<polygon fill="midnightblue" stroke="midnightblue" points="57.2394,-141.293 61.3515,-131.529 52.0478,-136.597 57.2394,-141.293"/>
</g>
<!-- Node3 -->
<g id="node4" class="node"><title>Node3</title>
<g id="a_node4"><a xlink:href="i_rectangle_8h.html" target="_top" xlink:title=" ">
<polygon fill="white" stroke="black" points="80.1334,-280.5 80.1334,-299.5 151.133,-299.5 151.133,-280.5 80.1334,-280.5"/>
<text text-anchor="middle" x="115.633" y="-287.5" font-family="Helvetica,sans-Serif" font-size="10.00">iRectangle.h</text>
</a>
</g>
</g>
<!-- Node0&#45;&gt;Node3 -->
<g id="edge3" class="edge"><title>Node0&#45;&gt;Node3</title>
<path fill="none" stroke="midnightblue" d="M420.411,-342.227C351.885,-330.709 228.645,-309.995 161.794,-298.759"/>
<polygon fill="midnightblue" stroke="midnightblue" points="162.008,-295.246 151.566,-297.04 160.848,-302.149 162.008,-295.246"/>
</g>
<!-- Node5 -->
<g id="node6" class="node"><title>Node5</title>
<g id="a_node6"><a xlink:href="i_render_engine_8h.html" target="_top" xlink:title=" ">
<polygon fill="white" stroke="black" points="315.633,-280.5 315.633,-299.5 403.633,-299.5 403.633,-280.5 315.633,-280.5"/>
<text text-anchor="middle" x="359.633" y="-287.5" font-family="Helvetica,sans-Serif" font-size="10.00">iRenderEngine.h</text>
</a>
</g>
</g>
<!-- Node0&#45;&gt;Node5 -->
<g id="edge6" class="edge"><title>Node0&#45;&gt;Node5</title>
<path fill="none" stroke="midnightblue" d="M443.565,-336.399C425.768,-326.773 402.321,-314.09 384.734,-304.577"/>
<polygon fill="midnightblue" stroke="midnightblue" points="386.1,-301.337 375.639,-299.658 382.77,-307.494 386.1,-301.337"/>
</g>
<!-- Node7 -->
<g id="node8" class="node"><title>Node7</title>
<g id="a_node8"><a xlink:href="ia_matrix_8h.html" target="_top" xlink:title=" ">
<polygon fill="white" stroke="black" points="391.133,-168.5 391.133,-187.5 450.133,-187.5 450.133,-168.5 391.133,-168.5"/>
<text text-anchor="middle" x="420.633" y="-175.5" font-family="Helvetica,sans-Serif" font-size="10.00">iaMatrix.h</text>
</a>
</g>
</g>
<!-- Node0&#45;&gt;Node7 -->
<g id="edge50" class="edge"><title>Node0&#45;&gt;Node7</title>
<path fill="none" stroke="midnightblue" d="M465.624,-336.465C456.796,-305.57 435.688,-231.69 425.848,-197.251"/>
<polygon fill="midnightblue" stroke="midnightblue" points="429.192,-196.213 423.079,-187.56 422.461,-198.137 429.192,-196.213"/>
</g>
<!-- Node20 -->
<g id="node21" class="node"><title>Node20</title>
<g id="a_node21"><a xlink:title=" ">
<polygon fill="white" stroke="#bfbfbf" points="468.633,-168.5 468.633,-187.5 510.633,-187.5 510.633,-168.5 468.633,-168.5"/>
<text text-anchor="middle" x="489.633" y="-175.5" font-family="Helvetica,sans-Serif" font-size="10.00">vector</text>
</a>
</g>
</g>
<!-- Node0&#45;&gt;Node20 -->
<g id="edge51" class="edge"><title>Node0&#45;&gt;Node20</title>
<path fill="none" stroke="midnightblue" d="M471.27,-336.465C474.858,-305.704 483.414,-232.329 487.453,-197.7"/>
<polygon fill="midnightblue" stroke="midnightblue" points="490.953,-197.898 488.635,-187.56 484,-197.087 490.953,-197.898"/>
</g>
<!-- Node22 -->
<g id="node23" class="node"><title>Node22</title>
<g id="a_node23"><a xlink:href="ia_color4_8h.html" target="_top" xlink:title=" ">
<polygon fill="white" stroke="black" points="528.633,-168.5 528.633,-187.5 588.633,-187.5 588.633,-168.5 528.633,-168.5"/>
<text text-anchor="middle" x="558.633" y="-175.5" font-family="Helvetica,sans-Serif" font-size="10.00">iaColor4.h</text>
</a>
</g>
</g>
<!-- Node0&#45;&gt;Node22 -->
<g id="edge30" class="edge"><title>Node0&#45;&gt;Node22</title>
<path fill="none" stroke="midnightblue" d="M476.917,-336.465C493.019,-305.436 531.622,-231.049 549.393,-196.806"/>
<polygon fill="midnightblue" stroke="midnightblue" points="552.692,-198.048 554.191,-187.56 546.479,-194.824 552.692,-198.048"/>
</g>
<!-- Node23 -->
<g id="node24" class="node"><title>Node23</title>
<g id="a_node24"><a xlink:href="ia_event_8h.html" target="_top" xlink:title=" ">
<polygon fill="white" stroke="black" points="621.633,-224.5 621.633,-243.5 677.633,-243.5 677.633,-224.5 621.633,-224.5"/>
<text text-anchor="middle" x="649.633" y="-231.5" font-family="Helvetica,sans-Serif" font-size="10.00">iaEvent.h</text>
</a>
</g>
</g>
<!-- Node0&#45;&gt;Node23 -->
<g id="edge33" class="edge"><title>Node0&#45;&gt;Node23</title>
<path fill="none" stroke="midnightblue" d="M495.096,-336.466C512.623,-326.626 536.317,-312.964 556.633,-300 582.463,-283.518 611.239,-263.068 629.844,-249.557"/>
<polygon fill="midnightblue" stroke="midnightblue" points="632.089,-252.252 638.103,-243.53 627.962,-246.597 632.089,-252.252"/>
</g>
<!-- Node30 -->
<g id="node31" class="node"><title>Node30</title>
<g id="a_node31"><a xlink:href="ia_string_8h.html" target="_top" xlink:title=" ">
<polygon fill="white" stroke="black" points="769.633,-224.5 769.633,-243.5 827.633,-243.5 827.633,-224.5 769.633,-224.5"/>
<text text-anchor="middle" x="798.633" y="-231.5" font-family="Helvetica,sans-Serif" font-size="10.00">iaString.h</text>
</a>
</g>
</g>
<!-- Node0&#45;&gt;Node30 -->
<g id="edge46" class="edge"><title>Node0&#45;&gt;Node30</title>
<path fill="none" stroke="midnightblue" d="M509.646,-336.453C575.02,-313.503 703.562,-268.376 764.734,-246.901"/>
<polygon fill="midnightblue" stroke="midnightblue" points="766.025,-250.157 774.301,-243.542 763.706,-243.552 766.025,-250.157"/>
</g>
<!-- Node2 -->
<g id="node3" class="node"><title>Node2</title>
<g id="a_node3"><a xlink:href="ia_defines_8h.html" target="_top" xlink:title=" ">
<polygon fill="white" stroke="black" points="591.133,-0.5 591.133,-19.5 656.133,-19.5 656.133,-0.5 591.133,-0.5"/>
<text text-anchor="middle" x="623.633" y="-7.5" font-family="Helvetica,sans-Serif" font-size="10.00">iaDefines.h</text>
</a>
</g>
</g>
<!-- Node1&#45;&gt;Node2 -->
<g id="edge2" class="edge"><title>Node1&#45;&gt;Node2</title>
<path fill="none" stroke="midnightblue" d="M99.2438,-113.806C139.911,-103.782 210.832,-85.7511 235.633,-76 253.395,-69.0167 255.436,-61.7525 273.633,-56 380.649,-22.1709 513.739,-13.7143 580.781,-11.6404"/>
<polygon fill="midnightblue" stroke="midnightblue" points="581.06,-15.1341 590.959,-11.3594 580.867,-8.13678 581.06,-15.1341"/>
</g>
<!-- Node3&#45;&gt;Node1 -->
<g id="edge4" class="edge"><title>Node3&#45;&gt;Node1</title>
<path fill="none" stroke="midnightblue" d="M113.16,-280.075C105.919,-253.945 84.6556,-177.211 74.7813,-141.577"/>
<polygon fill="midnightblue" stroke="midnightblue" points="78.0512,-140.27 72.0077,-131.568 71.3054,-142.14 78.0512,-140.27"/>
</g>
<!-- Node4 -->
<g id="node5" class="node"><title>Node4</title>
<g id="a_node5"><a xlink:href="i_rectangle_8inl.html" target="_top" xlink:title=" ">
<polygon fill="white" stroke="black" points="12.1334,-224.5 12.1334,-243.5 87.1334,-243.5 87.1334,-224.5 12.1334,-224.5"/>
<text text-anchor="middle" x="49.6334" y="-231.5" font-family="Helvetica,sans-Serif" font-size="10.00">iRectangle.inl</text>
</a>
</g>
</g>
<!-- Node3&#45;&gt;Node4 -->
<g id="edge5" class="edge"><title>Node3&#45;&gt;Node4</title>
<path fill="none" stroke="midnightblue" d="M105.029,-280.324C95.1773,-272.263 80.2825,-260.077 68.4183,-250.369"/>
<polygon fill="midnightblue" stroke="midnightblue" points="70.3864,-247.457 60.4304,-243.834 65.9537,-252.875 70.3864,-247.457"/>
</g>
<!-- Node6 -->
<g id="node7" class="node"><title>Node6</title>
<g id="a_node7"><a xlink:href="i_material_group_8h.html" target="_top" xlink:title=" ">
<polygon fill="white" stroke="black" points="295.633,-224.5 295.633,-243.5 383.633,-243.5 383.633,-224.5 295.633,-224.5"/>
<text text-anchor="middle" x="339.633" y="-231.5" font-family="Helvetica,sans-Serif" font-size="10.00">iMaterialGroup.h</text>
</a>
</g>
</g>
<!-- Node5&#45;&gt;Node6 -->
<g id="edge7" class="edge"><title>Node5&#45;&gt;Node6</title>
<path fill="none" stroke="midnightblue" d="M356.331,-280.083C353.651,-272.849 349.785,-262.409 346.447,-253.397"/>
<polygon fill="midnightblue" stroke="midnightblue" points="349.63,-251.913 342.875,-243.751 343.066,-254.344 349.63,-251.913"/>
</g>
<!-- Node19 -->
<g id="node20" class="node"><title>Node19</title>
<g id="a_node20"><a xlink:title=" ">
<polygon fill="white" stroke="#bfbfbf" points="144.133,-168.5 144.133,-187.5 179.133,-187.5 179.133,-168.5 144.133,-168.5"/>
<text text-anchor="middle" x="161.633" y="-175.5" font-family="Helvetica,sans-Serif" font-size="10.00">map</text>
</a>
</g>
</g>
<!-- Node5&#45;&gt;Node19 -->
<g id="edge29" class="edge"><title>Node5&#45;&gt;Node19</title>
<path fill="none" stroke="midnightblue" d="M344.097,-280.368C309.758,-261.292 227.194,-215.422 185.943,-192.505"/>
<polygon fill="midnightblue" stroke="midnightblue" points="187.539,-189.388 177.098,-187.591 184.14,-195.507 187.539,-189.388"/>
</g>
<!-- Node5&#45;&gt;Node20 -->
<g id="edge28" class="edge"><title>Node5&#45;&gt;Node20</title>
<path fill="none" stroke="midnightblue" d="M369.834,-280.368C391.858,-261.733 444.095,-217.532 471.748,-194.134"/>
<polygon fill="midnightblue" stroke="midnightblue" points="474.107,-196.723 479.48,-187.591 469.585,-191.379 474.107,-196.723"/>
</g>
<!-- Node6&#45;&gt;Node1 -->
<g id="edge8" class="edge"><title>Node6&#45;&gt;Node1</title>
<path fill="none" stroke="midnightblue" d="M331.534,-224.384C317.867,-210.373 288.758,-182.738 258.633,-168 257.78,-167.582 164.4,-145.437 109.233,-132.372"/>
<polygon fill="midnightblue" stroke="midnightblue" points="109.946,-128.944 99.4084,-130.046 108.333,-135.756 109.946,-128.944"/>
</g>
<!-- Node6&#45;&gt;Node7 -->
<g id="edge9" class="edge"><title>Node6&#45;&gt;Node7</title>
<path fill="none" stroke="midnightblue" d="M352.647,-224.324C365.165,-215.979 384.315,-203.212 399.105,-193.352"/>
<polygon fill="midnightblue" stroke="midnightblue" points="401.273,-196.114 407.652,-187.655 397.39,-190.289 401.273,-196.114"/>
</g>
<!-- Node17 -->
<g id="node18" class="node"><title>Node17</title>
<g id="a_node18"><a xlink:href="i_instancer_8h.html" target="_top" xlink:title=" ">
<polygon fill="white" stroke="black" points="306.133,-168.5 306.133,-187.5 373.133,-187.5 373.133,-168.5 306.133,-168.5"/>
<text text-anchor="middle" x="339.633" y="-175.5" font-family="Helvetica,sans-Serif" font-size="10.00">iInstancer.h</text>
</a>
</g>
</g>
<!-- Node6&#45;&gt;Node17 -->
<g id="edge22" class="edge"><title>Node6&#45;&gt;Node17</title>
<path fill="none" stroke="midnightblue" d="M339.633,-224.083C339.633,-217.006 339.633,-206.861 339.633,-197.986"/>
<polygon fill="midnightblue" stroke="midnightblue" points="343.134,-197.751 339.633,-187.751 336.134,-197.751 343.134,-197.751"/>
</g>
<!-- Node6&#45;&gt;Node19 -->
<g id="edge25" class="edge"><title>Node6&#45;&gt;Node19</title>
<path fill="none" stroke="midnightblue" d="M310.035,-224.484C281.435,-216.189 236.673,-203.03 188.914,-188.015"/>
<polygon fill="midnightblue" stroke="midnightblue" points="189.916,-184.661 179.326,-184.988 187.808,-191.336 189.916,-184.661"/>
</g>
<!-- Node6&#45;&gt;Node20 -->
<g id="edge26" class="edge"><title>Node6&#45;&gt;Node20</title>
<path fill="none" stroke="midnightblue" d="M363.401,-224.444C389.265,-215.133 430.699,-200.216 458.99,-190.032"/>
<polygon fill="midnightblue" stroke="midnightblue" points="460.179,-193.324 468.402,-186.643 457.808,-186.737 460.179,-193.324"/>
</g>
<!-- Node21 -->
<g id="node22" class="node"><title>Node21</title>
<g id="a_node22"><a xlink:title=" ">
<polygon fill="white" stroke="#bfbfbf" points="197.633,-168.5 197.633,-187.5 249.633,-187.5 249.633,-168.5 197.633,-168.5"/>
<text text-anchor="middle" x="223.633" y="-175.5" font-family="Helvetica,sans-Serif" font-size="10.00">memory</text>
</a>
</g>
</g>
<!-- Node6&#45;&gt;Node21 -->
<g id="edge27" class="edge"><title>Node6&#45;&gt;Node21</title>
<path fill="none" stroke="midnightblue" d="M321.253,-224.444C302.417,-215.675 272.902,-201.935 251.254,-191.858"/>
<polygon fill="midnightblue" stroke="midnightblue" points="252.471,-188.564 241.928,-187.516 249.517,-194.91 252.471,-188.564"/>
</g>
<!-- Node8 -->
<g id="node9" class="node"><title>Node8</title>
<g id="a_node9"><a xlink:href="ia_vector4_8h.html" target="_top" xlink:title=" ">
<polygon fill="white" stroke="black" points="288.633,-112.5 288.633,-131.5 354.633,-131.5 354.633,-112.5 288.633,-112.5"/>
<text text-anchor="middle" x="321.633" y="-119.5" font-family="Helvetica,sans-Serif" font-size="10.00">iaVector4.h</text>
</a>
</g>
</g>
<!-- Node7&#45;&gt;Node8 -->
<g id="edge10" class="edge"><title>Node7&#45;&gt;Node8</title>
<path fill="none" stroke="midnightblue" d="M404.727,-168.324C388.995,-159.743 364.691,-146.486 346.425,-136.522"/>
<polygon fill="midnightblue" stroke="midnightblue" points="347.955,-133.37 337.5,-131.655 344.603,-139.516 347.955,-133.37"/>
</g>
<!-- Node10 -->
<g id="node11" class="node"><title>Node10</title>
<g id="a_node11"><a xlink:title=" ">
<polygon fill="white" stroke="#bfbfbf" points="290.633,-0.5 290.633,-19.5 334.633,-19.5 334.633,-0.5 290.633,-0.5"/>
<text text-anchor="middle" x="312.633" y="-7.5" font-family="Helvetica,sans-Serif" font-size="10.00">cmath</text>
</a>
</g>
</g>
<!-- Node7&#45;&gt;Node10 -->
<g id="edge18" class="edge"><title>Node7&#45;&gt;Node10</title>
<path fill="none" stroke="midnightblue" d="M417.848,-168.457C410.836,-147.762 390.969,-93.861 362.633,-56 354.19,-44.7187 342.599,-34.0753 332.703,-25.9745"/>
<polygon fill="midnightblue" stroke="midnightblue" points="334.584,-23.0007 324.564,-19.5581 330.25,-28.4978 334.584,-23.0007"/>
</g>
<!-- Node11 -->
<g id="node12" class="node"><title>Node11</title>
<g id="a_node12"><a xlink:title=" ">
<polygon fill="white" stroke="#bfbfbf" points="394.633,-0.5 394.633,-19.5 446.633,-19.5 446.633,-0.5 394.633,-0.5"/>
<text text-anchor="middle" x="420.633" y="-7.5" font-family="Helvetica,sans-Serif" font-size="10.00">ostream</text>
</a>
</g>
</g>
<!-- Node7&#45;&gt;Node11 -->
<g id="edge19" class="edge"><title>Node7&#45;&gt;Node11</title>
<path fill="none" stroke="midnightblue" d="M420.633,-168.075C420.633,-141.945 420.633,-65.2106 420.633,-29.577"/>
<polygon fill="midnightblue" stroke="midnightblue" points="424.134,-29.5681 420.633,-19.5681 417.134,-29.5681 424.134,-29.5681"/>
</g>
<!-- Node14 -->
<g id="node15" class="node"><title>Node14</title>
<g id="a_node15"><a xlink:title=" ">
<polygon fill="white" stroke="#bfbfbf" points="555.133,-112.5 555.133,-131.5 604.133,-131.5 604.133,-112.5 555.133,-112.5"/>
<text text-anchor="middle" x="579.633" y="-119.5" font-family="Helvetica,sans-Serif" font-size="10.00">fstream</text>
</a>
</g>
</g>
<!-- Node7&#45;&gt;Node14 -->
<g id="edge17" class="edge"><title>Node7&#45;&gt;Node14</title>
<path fill="none" stroke="midnightblue" d="M445.827,-168.444C472.733,-159.306 515.536,-144.769 545.465,-134.604"/>
<polygon fill="midnightblue" stroke="midnightblue" points="546.736,-137.869 555.08,-131.339 544.485,-131.241 546.736,-137.869"/>
</g>
<!-- Node15 -->
<g id="node16" class="node"><title>Node15</title>
<g id="a_node16"><a xlink:title=" ">
<polygon fill="white" stroke="#bfbfbf" points="448.633,-112.5 448.633,-131.5 498.633,-131.5 498.633,-112.5 448.633,-112.5"/>
<text text-anchor="middle" x="473.633" y="-119.5" font-family="Helvetica,sans-Serif" font-size="10.00">iomanip</text>
</a>
</g>
</g>
<!-- Node7&#45;&gt;Node15 -->
<g id="edge20" class="edge"><title>Node7&#45;&gt;Node15</title>
<path fill="none" stroke="midnightblue" d="M429.385,-168.083C437.103,-160.22 448.538,-148.569 457.85,-139.081"/>
<polygon fill="midnightblue" stroke="midnightblue" points="460.538,-141.34 465.044,-131.751 455.542,-136.436 460.538,-141.34"/>
</g>
<!-- Node16 -->
<g id="node17" class="node"><title>Node16</title>
<g id="a_node17"><a xlink:href="ia_matrix_8inl.html" target="_top" xlink:title=" ">
<polygon fill="white" stroke="black" points="206.633,-112.5 206.633,-131.5 270.633,-131.5 270.633,-112.5 206.633,-112.5"/>
<text text-anchor="middle" x="238.633" y="-119.5" font-family="Helvetica,sans-Serif" font-size="10.00">iaMatrix.inl</text>
</a>
</g>
</g>
<!-- Node7&#45;&gt;Node16 -->
<g id="edge21" class="edge"><title>Node7&#45;&gt;Node16</title>
<path fill="none" stroke="midnightblue" d="M391.795,-168.444C360.778,-159.241 311.304,-144.562 277.015,-134.388"/>
<polygon fill="midnightblue" stroke="midnightblue" points="277.919,-131.006 267.337,-131.516 275.928,-137.716 277.919,-131.006"/>
</g>
<!-- Node9 -->
<g id="node10" class="node"><title>Node9</title>
<g id="a_node10"><a xlink:href="ia_vector3_8h.html" target="_top" xlink:title=" ">
<polygon fill="white" stroke="black" points="160.633,-56.5 160.633,-75.5 226.633,-75.5 226.633,-56.5 160.633,-56.5"/>
<text text-anchor="middle" x="193.633" y="-63.5" font-family="Helvetica,sans-Serif" font-size="10.00">iaVector3.h</text>
</a>
</g>
</g>
<!-- Node8&#45;&gt;Node9 -->
<g id="edge11" class="edge"><title>Node8&#45;&gt;Node9</title>
<path fill="none" stroke="midnightblue" d="M301.351,-112.444C280.286,-103.557 247.117,-89.5632 223.148,-79.4514"/>
<polygon fill="midnightblue" stroke="midnightblue" points="224.395,-76.1787 213.821,-75.5164 221.674,-82.6283 224.395,-76.1787"/>
</g>
<!-- Node13 -->
<g id="node14" class="node"><title>Node13</title>
<g id="a_node14"><a xlink:href="ia_vector4_8inl.html" target="_top" xlink:title=" ">
<polygon fill="white" stroke="black" points="283.133,-56.5 283.133,-75.5 354.133,-75.5 354.133,-56.5 283.133,-56.5"/>
<text text-anchor="middle" x="318.633" y="-63.5" font-family="Helvetica,sans-Serif" font-size="10.00">iaVector4.inl</text>
</a>
</g>
</g>
<!-- Node8&#45;&gt;Node13 -->
<g id="edge16" class="edge"><title>Node8&#45;&gt;Node13</title>
<path fill="none" stroke="midnightblue" d="M321.138,-112.083C320.745,-105.006 320.181,-94.8611 319.688,-85.9865"/>
<polygon fill="midnightblue" stroke="midnightblue" points="323.169,-85.5415 319.12,-75.7511 316.18,-85.9299 323.169,-85.5415"/>
</g>
<!-- Node9&#45;&gt;Node2 -->
<g id="edge12" class="edge"><title>Node9&#45;&gt;Node2</title>
<path fill="none" stroke="midnightblue" d="M226.706,-58.3563C231.373,-57.5095 236.117,-56.6967 240.633,-56 363.517,-37.0408 509.675,-21.9069 580.666,-15.0261"/>
<polygon fill="midnightblue" stroke="midnightblue" points="581.373,-18.4743 590.991,-14.0322 580.702,-11.5065 581.373,-18.4743"/>
</g>
<!-- Node9&#45;&gt;Node10 -->
<g id="edge13" class="edge"><title>Node9&#45;&gt;Node10</title>
<path fill="none" stroke="midnightblue" d="M212.489,-56.4435C231.899,-47.6356 262.363,-33.8116 284.598,-23.722"/>
<polygon fill="midnightblue" stroke="midnightblue" points="286.206,-26.836 293.866,-19.5164 283.313,-20.4615 286.206,-26.836"/>
</g>
<!-- Node9&#45;&gt;Node11 -->
<g id="edge14" class="edge"><title>Node9&#45;&gt;Node11</title>
<path fill="none" stroke="midnightblue" d="M226.641,-57.1479C268.648,-47.1552 340.96,-29.9532 384.437,-19.6107"/>
<polygon fill="midnightblue" stroke="midnightblue" points="385.388,-22.9821 394.307,-17.2627 383.768,-16.1721 385.388,-22.9821"/>
</g>
<!-- Node12 -->
<g id="node13" class="node"><title>Node12</title>
<g id="a_node13"><a xlink:href="ia_vector3_8inl.html" target="_top" xlink:title=" ">
<polygon fill="white" stroke="black" points="158.133,-0.5 158.133,-19.5 229.133,-19.5 229.133,-0.5 158.133,-0.5"/>
<text text-anchor="middle" x="193.633" y="-7.5" font-family="Helvetica,sans-Serif" font-size="10.00">iaVector3.inl</text>
</a>
</g>
</g>
<!-- Node9&#45;&gt;Node12 -->
<g id="edge15" class="edge"><title>Node9&#45;&gt;Node12</title>
<path fill="none" stroke="midnightblue" d="M193.633,-56.083C193.633,-49.0059 193.633,-38.8611 193.633,-29.9865"/>
<polygon fill="midnightblue" stroke="midnightblue" points="197.134,-29.751 193.633,-19.7511 190.134,-29.7511 197.134,-29.751"/>
</g>
<!-- Node17&#45;&gt;Node1 -->
<g id="edge23" class="edge"><title>Node17&#45;&gt;Node1</title>
<path fill="none" stroke="midnightblue" d="M305.89,-170.631C254.712,-160.945 158.892,-142.693 109.321,-132.286"/>
<polygon fill="midnightblue" stroke="midnightblue" points="109.988,-128.85 99.478,-130.19 108.53,-135.696 109.988,-128.85"/>
</g>
<!-- Node18 -->
<g id="node19" class="node"><title>Node18</title>
<g id="a_node19"><a xlink:href="i_instancer_8inl.html" target="_top" xlink:title=" ">
<polygon fill="white" stroke="black" points="117.133,-112.5 117.133,-131.5 188.133,-131.5 188.133,-112.5 117.133,-112.5"/>
<text text-anchor="middle" x="152.633" y="-119.5" font-family="Helvetica,sans-Serif" font-size="10.00">iInstancer.inl</text>
</a>
</g>
</g>
<!-- Node17&#45;&gt;Node18 -->
<g id="edge24" class="edge"><title>Node17&#45;&gt;Node18</title>
<path fill="none" stroke="midnightblue" d="M310.003,-168.444C278.133,-159.241 227.301,-144.562 192.069,-134.388"/>
<polygon fill="midnightblue" stroke="midnightblue" points="192.704,-130.928 182.126,-131.516 190.762,-137.653 192.704,-130.928"/>
</g>
<!-- Node22&#45;&gt;Node2 -->
<g id="edge31" class="edge"><title>Node22&#45;&gt;Node2</title>
<path fill="none" stroke="midnightblue" d="M554.108,-168.399C548.089,-155.776 538.944,-131.605 545.633,-112 557.527,-77.1405 586.869,-44.9619 605.98,-26.6838"/>
<polygon fill="midnightblue" stroke="midnightblue" points="608.518,-29.1036 613.464,-19.734 603.754,-23.9742 608.518,-29.1036"/>
</g>
<!-- Node22&#45;&gt;Node14 -->
<g id="edge32" class="edge"><title>Node22&#45;&gt;Node14</title>
<path fill="none" stroke="midnightblue" d="M562.101,-168.083C564.945,-160.77 569.063,-150.181 572.593,-141.103"/>
<polygon fill="midnightblue" stroke="midnightblue" points="575.868,-142.34 576.23,-131.751 569.344,-139.803 575.868,-142.34"/>
</g>
<!-- Node23&#45;&gt;Node20 -->
<g id="edge45" class="edge"><title>Node23&#45;&gt;Node20</title>
<path fill="none" stroke="midnightblue" d="M624.281,-224.444C596.097,-214.932 550.581,-199.57 520.385,-189.379"/>
<polygon fill="midnightblue" stroke="midnightblue" points="521.374,-186.018 510.78,-186.137 519.135,-192.651 521.374,-186.018"/>
</g>
<!-- Node24 -->
<g id="node25" class="node"><title>Node24</title>
<g id="a_node25"><a xlink:href="ia_mutex_8h.html" target="_top" xlink:title=" ">
<polygon fill="white" stroke="black" points="691.133,-56.5 691.133,-75.5 750.133,-75.5 750.133,-56.5 691.133,-56.5"/>
<text text-anchor="middle" x="720.633" y="-63.5" font-family="Helvetica,sans-Serif" font-size="10.00">iaMutex.h</text>
</a>
</g>
</g>
<!-- Node23&#45;&gt;Node24 -->
<g id="edge34" class="edge"><title>Node23&#45;&gt;Node24</title>
<path fill="none" stroke="midnightblue" d="M669.41,-224.417C699.338,-210.196 755.037,-178.614 777.633,-132 787.512,-111.621 765.943,-92.6836 746.566,-80.5684"/>
<polygon fill="midnightblue" stroke="midnightblue" points="748.333,-77.5474 737.938,-75.5013 744.788,-83.5835 748.333,-77.5474"/>
</g>
<!-- Node25 -->
<g id="node26" class="node"><title>Node25</title>
<g id="a_node26"><a xlink:href="ia_delegate_8h.html" target="_top" xlink:title=" ">
<polygon fill="white" stroke="black" points="773.133,-168.5 773.133,-187.5 844.133,-187.5 844.133,-168.5 773.133,-168.5"/>
<text text-anchor="middle" x="808.633" y="-175.5" font-family="Helvetica,sans-Serif" font-size="10.00">iaDelegate.h</text>
</a>
</g>
</g>
<!-- Node23&#45;&gt;Node25 -->
<g id="edge36" class="edge"><title>Node23&#45;&gt;Node25</title>
<path fill="none" stroke="midnightblue" d="M674.827,-224.444C701.576,-215.359 744.036,-200.939 773.939,-190.783"/>
<polygon fill="midnightblue" stroke="midnightblue" points="775.214,-194.046 783.557,-187.516 772.963,-187.418 775.214,-194.046"/>
</g>
<!-- Node26 -->
<g id="node27" class="node"><title>Node26</title>
<g id="a_node27"><a xlink:href="ia_console_8h.html" target="_top" xlink:title=" ">
<polygon fill="white" stroke="black" points="615.633,-168.5 615.633,-187.5 683.633,-187.5 683.633,-168.5 615.633,-168.5"/>
<text text-anchor="middle" x="649.633" y="-175.5" font-family="Helvetica,sans-Serif" font-size="10.00">iaConsole.h</text>
</a>
</g>
</g>
<!-- Node23&#45;&gt;Node26 -->
<g id="edge37" class="edge"><title>Node23&#45;&gt;Node26</title>
<path fill="none" stroke="midnightblue" d="M649.633,-224.083C649.633,-217.006 649.633,-206.861 649.633,-197.986"/>
<polygon fill="midnightblue" stroke="midnightblue" points="653.134,-197.751 649.633,-187.751 646.134,-197.751 653.134,-197.751"/>
</g>
<!-- Node24&#45;&gt;Node2 -->
<g id="edge35" class="edge"><title>Node24&#45;&gt;Node2</title>
<path fill="none" stroke="midnightblue" d="M705.049,-56.324C689.634,-47.7428 665.821,-34.486 647.924,-24.5224"/>
<polygon fill="midnightblue" stroke="midnightblue" points="649.619,-21.4606 639.179,-19.6545 646.214,-27.5767 649.619,-21.4606"/>
</g>
<!-- Node26&#45;&gt;Node14 -->
<g id="edge42" class="edge"><title>Node26&#45;&gt;Node14</title>
<path fill="none" stroke="midnightblue" d="M638.387,-168.324C627.836,-160.185 611.833,-147.839 599.191,-138.087"/>
<polygon fill="midnightblue" stroke="midnightblue" points="601.14,-135.171 591.085,-131.834 596.865,-140.713 601.14,-135.171"/>
</g>
<!-- Node26&#45;&gt;Node15 -->
<g id="edge44" class="edge"><title>Node26&#45;&gt;Node15</title>
<path fill="none" stroke="midnightblue" d="M621.746,-168.444C591.089,-159.038 541.788,-143.911 508.577,-133.721"/>
<polygon fill="midnightblue" stroke="midnightblue" points="509.411,-130.316 498.824,-130.729 507.358,-137.008 509.411,-130.316"/>
</g>
<!-- Node27 -->
<g id="node28" class="node"><title>Node27</title>
<g id="a_node28"><a xlink:href="ia_singleton_8h.html" target="_top" xlink:title=" ">
<polygon fill="white" stroke="black" points="695.133,-112.5 695.133,-131.5 768.133,-131.5 768.133,-112.5 695.133,-112.5"/>
<text text-anchor="middle" x="731.633" y="-119.5" font-family="Helvetica,sans-Serif" font-size="10.00">iaSingleton.h</text>
</a>
</g>
</g>
<!-- Node26&#45;&gt;Node27 -->
<g id="edge38" class="edge"><title>Node26&#45;&gt;Node27</title>
<path fill="none" stroke="midnightblue" d="M662.808,-168.324C675.48,-159.979 694.867,-147.212 709.839,-137.352"/>
<polygon fill="midnightblue" stroke="midnightblue" points="712.065,-140.078 718.491,-131.655 708.215,-134.231 712.065,-140.078"/>
</g>
<!-- Node28 -->
<g id="node29" class="node"><title>Node28</title>
<g id="a_node29"><a xlink:href="ia_clock_8h.html" target="_top" xlink:title=" ">
<polygon fill="white" stroke="black" points="768.133,-56.5 768.133,-75.5 825.133,-75.5 825.133,-56.5 768.133,-56.5"/>
<text text-anchor="middle" x="796.633" y="-63.5" font-family="Helvetica,sans-Serif" font-size="10.00">iaClock.h</text>
</a>
</g>
</g>
<!-- Node26&#45;&gt;Node28 -->
<g id="edge40" class="edge"><title>Node26&#45;&gt;Node28</title>
<path fill="none" stroke="midnightblue" d="M683.65,-173.621C712.497,-168.979 753.004,-157.988 777.633,-132 789.375,-119.61 793.91,-100.367 795.636,-86.029"/>
<polygon fill="midnightblue" stroke="midnightblue" points="799.145,-86.0663 796.501,-75.8066 792.17,-85.4755 799.145,-86.0663"/>
</g>
<!-- Node29 -->
<g id="node30" class="node"><title>Node29</title>
<g id="a_node30"><a xlink:title=" ">
<polygon fill="white" stroke="#bfbfbf" points="622.633,-112.5 622.633,-131.5 676.633,-131.5 676.633,-112.5 622.633,-112.5"/>
<text text-anchor="middle" x="649.633" y="-119.5" font-family="Helvetica,sans-Serif" font-size="10.00">iostream</text>
</a>
</g>
</g>
<!-- Node26&#45;&gt;Node29 -->
<g id="edge43" class="edge"><title>Node26&#45;&gt;Node29</title>
<path fill="none" stroke="midnightblue" d="M649.633,-168.083C649.633,-161.006 649.633,-150.861 649.633,-141.986"/>
<polygon fill="midnightblue" stroke="midnightblue" points="653.134,-141.751 649.633,-131.751 646.134,-141.751 653.134,-141.751"/>
</g>
<!-- Node27&#45;&gt;Node24 -->
<g id="edge39" class="edge"><title>Node27&#45;&gt;Node24</title>
<path fill="none" stroke="midnightblue" d="M729.817,-112.083C728.359,-104.927 726.263,-94.6353 724.441,-85.6911"/>
<polygon fill="midnightblue" stroke="midnightblue" points="727.842,-84.8512 722.416,-75.7511 720.983,-86.2485 727.842,-84.8512"/>
</g>
<!-- Node28&#45;&gt;Node2 -->
<g id="edge41" class="edge"><title>Node28&#45;&gt;Node2</title>
<path fill="none" stroke="midnightblue" d="M769.221,-56.4435C739.864,-47.2801 693.114,-32.6876 660.538,-22.5192"/>
<polygon fill="midnightblue" stroke="midnightblue" points="661.506,-19.1551 650.918,-19.5164 659.42,-25.8371 661.506,-19.1551"/>
</g>
<!-- Node30&#45;&gt;Node2 -->
<g id="edge47" class="edge"><title>Node30&#45;&gt;Node2</title>
<path fill="none" stroke="midnightblue" d="M815.831,-224.386C828.885,-216.794 845.867,-204.389 853.633,-188 870.837,-151.697 905.529,-129.944 834.633,-56 811.925,-32.3149 721.465,-19.9717 666.63,-14.5399"/>
<polygon fill="midnightblue" stroke="midnightblue" points="666.786,-11.039 656.499,-13.5746 666.122,-18.0074 666.786,-11.039"/>
</g>
<!-- Node30&#45;&gt;Node11 -->
<g id="edge48" class="edge"><title>Node30&#45;&gt;Node11</title>
<path fill="none" stroke="midnightblue" d="M825.563,-224.356C842.353,-217.411 862.611,-205.825 872.633,-188 895.813,-146.776 918.182,-123.009 834.633,-56 805.414,-32.5649 552.212,-17.5832 456.801,-12.7256"/>
<polygon fill="midnightblue" stroke="midnightblue" points="456.919,-9.22724 446.757,-12.2221 456.569,-16.2185 456.919,-9.22724"/>
</g>
<!-- Node30&#45;&gt;Node20 -->
<g id="edge49" class="edge"><title>Node30&#45;&gt;Node20</title>
<path fill="none" stroke="midnightblue" d="M769.472,-229.581C720.13,-223.52 616.925,-209.657 520.73,-187.999"/>
<polygon fill="midnightblue" stroke="midnightblue" points="521.375,-184.556 510.846,-185.74 519.815,-191.38 521.375,-184.556"/>
</g>
</g>
</svg>
