<?xml version="1.0" encoding="UTF-8" standalone="no"?>
<!DOCTYPE svg PUBLIC "-//W3C//DTD SVG 1.1//EN"
 "http://www.w3.org/Graphics/SVG/1.1/DTD/svg11.dtd">
<!-- Generated by graphviz version 2.38.0 (20140413.2041)
 -->
<!-- Title: C:/dev/Igor/Igor/src/Igor/src/iVoxelOperation.h Pages: 1 -->
<svg width="677pt" height="173pt"
 viewBox="0.00 0.00 676.50 173.00" xmlns="http://www.w3.org/2000/svg" xmlns:xlink="http://www.w3.org/1999/xlink">
<g id="graph0" class="graph" transform="scale(1 1) rotate(0) translate(4 169)">
<title>C:/dev/Igor/Igor/src/Igor/src/iVoxelOperation.h</title>
<polygon fill="white" stroke="none" points="-4,4 -4,-169 672.5,-169 672.5,4 -4,4"/>
<!-- Node9 -->
<g id="node1" class="node"><title>Node9</title>
<g id="a_node1"><a xlink:title=" ">
<polygon fill="#bfbfbf" stroke="black" points="253,-134.5 253,-164.5 385,-164.5 385,-134.5 253,-134.5"/>
<text text-anchor="start" x="261" y="-152.5" font-family="Helvetica,sans-Serif" font-size="10.00">C:/dev/Igor/Igor/src</text>
<text text-anchor="middle" x="319" y="-141.5" font-family="Helvetica,sans-Serif" font-size="10.00">/Igor/src/iVoxelOperation.h</text>
</a>
</g>
</g>
<!-- Node10 -->
<g id="node2" class="node"><title>Node10</title>
<g id="a_node2"><a xlink:href="i_voxel_operation_box_8h.html" target="_top" xlink:title=" ">
<polygon fill="white" stroke="black" points="92.5,-67.5 92.5,-97.5 241.5,-97.5 241.5,-67.5 92.5,-67.5"/>
<text text-anchor="start" x="100.5" y="-85.5" font-family="Helvetica,sans-Serif" font-size="10.00">C:/dev/Igor/Igor/src</text>
<text text-anchor="middle" x="167" y="-74.5" font-family="Helvetica,sans-Serif" font-size="10.00">/Igor/src/iVoxelOperationBox.h</text>
</a>
</g>
</g>
<!-- Node9&#45;&gt;Node10 -->
<g id="edge1" class="edge"><title>Node9&#45;&gt;Node10</title>
<path fill="none" stroke="midnightblue" d="M276.689,-130.407C252.423,-120.029 222.411,-107.195 199.917,-97.5765"/>
<polygon fill="midnightblue" stroke="midnightblue" points="275.447,-133.682 286.018,-134.396 278.2,-127.246 275.447,-133.682"/>
</g>
<!-- Node13 -->
<g id="node5" class="node"><title>Node13</title>
<g id="a_node5"><a xlink:href="i_voxel_operation_sphere_8h.html" target="_top" xlink:title=" ">
<polygon fill="white" stroke="black" points="396.5,-67.5 396.5,-97.5 559.5,-97.5 559.5,-67.5 396.5,-67.5"/>
<text text-anchor="start" x="404.5" y="-85.5" font-family="Helvetica,sans-Serif" font-size="10.00">C:/dev/Igor/Igor/src</text>
<text text-anchor="middle" x="478" y="-74.5" font-family="Helvetica,sans-Serif" font-size="10.00">/Igor/src/iVoxelOperationSphere.h</text>
</a>
</g>
</g>
<!-- Node9&#45;&gt;Node13 -->
<g id="edge4" class="edge"><title>Node9&#45;&gt;Node13</title>
<path fill="none" stroke="midnightblue" d="M362.923,-130.544C388.366,-120.143 419.933,-107.238 443.567,-97.5765"/>
<polygon fill="midnightblue" stroke="midnightblue" points="361.433,-127.372 353.501,-134.396 364.081,-133.852 361.433,-127.372"/>
</g>
<!-- Node15 -->
<g id="node7" class="node"><title>Node15</title>
<g id="a_node7"><a xlink:href="i_voxel_terrain_8h.html" target="_top" xlink:title=" ">
<polygon fill="white" stroke="black" points="259.5,-67.5 259.5,-97.5 378.5,-97.5 378.5,-67.5 259.5,-67.5"/>
<text text-anchor="start" x="267.5" y="-85.5" font-family="Helvetica,sans-Serif" font-size="10.00">C:/dev/Igor/Igor/src</text>
<text text-anchor="middle" x="319" y="-74.5" font-family="Helvetica,sans-Serif" font-size="10.00">/Igor/src/iVoxelTerrain.h</text>
</a>
</g>
</g>
<!-- Node9&#45;&gt;Node15 -->
<g id="edge7" class="edge"><title>Node9&#45;&gt;Node15</title>
<path fill="none" stroke="midnightblue" d="M319,-124.108C319,-115.154 319,-105.323 319,-97.5765"/>
<polygon fill="midnightblue" stroke="midnightblue" points="315.5,-124.396 319,-134.396 322.5,-124.396 315.5,-124.396"/>
</g>
<!-- Node11 -->
<g id="node3" class="node"><title>Node11</title>
<g id="a_node3"><a xlink:href="i_voxel_operation_box_8cpp.html" target="_top" xlink:title=" ">
<polygon fill="white" stroke="black" points="0,-0.5 0,-30.5 160,-30.5 160,-0.5 0,-0.5"/>
<text text-anchor="start" x="8" y="-18.5" font-family="Helvetica,sans-Serif" font-size="10.00">C:/dev/Igor/Igor/src</text>
<text text-anchor="middle" x="80" y="-7.5" font-family="Helvetica,sans-Serif" font-size="10.00">/Igor/src/iVoxelOperationBox.cpp</text>
</a>
</g>
</g>
<!-- Node10&#45;&gt;Node11 -->
<g id="edge2" class="edge"><title>Node10&#45;&gt;Node11</title>
<path fill="none" stroke="midnightblue" d="M139.786,-61.1677C126.482,-51.2283 110.804,-39.5144 98.8409,-30.5765"/>
<polygon fill="midnightblue" stroke="midnightblue" points="138.016,-64.2145 148.122,-67.396 142.206,-58.6068 138.016,-64.2145"/>
</g>
<!-- Node12 -->
<g id="node4" class="node"><title>Node12</title>
<g id="a_node4"><a xlink:href="i_voxel_terrain_8cpp.html" target="_top" xlink:title=" ">
<polygon fill="white" stroke="black" points="178,-0.5 178,-30.5 308,-30.5 308,-0.5 178,-0.5"/>
<text text-anchor="start" x="186" y="-18.5" font-family="Helvetica,sans-Serif" font-size="10.00">C:/dev/Igor/Igor/src</text>
<text text-anchor="middle" x="243" y="-7.5" font-family="Helvetica,sans-Serif" font-size="10.00">/Igor/src/iVoxelTerrain.cpp</text>
</a>
</g>
</g>
<!-- Node10&#45;&gt;Node12 -->
<g id="edge3" class="edge"><title>Node10&#45;&gt;Node12</title>
<path fill="none" stroke="midnightblue" d="M191.106,-60.8832C202.655,-51.0054 216.19,-39.4293 226.541,-30.5765"/>
<polygon fill="midnightblue" stroke="midnightblue" points="188.816,-58.2364 183.491,-67.396 193.365,-63.5561 188.816,-58.2364"/>
</g>
<!-- Node13&#45;&gt;Node12 -->
<g id="edge6" class="edge"><title>Node13&#45;&gt;Node12</title>
<path fill="none" stroke="midnightblue" d="M417.316,-64.7149C379.073,-54.1373 330.257,-40.6348 294.016,-30.6109"/>
<polygon fill="midnightblue" stroke="midnightblue" points="416.727,-68.1834 427.298,-67.476 418.593,-61.4367 416.727,-68.1834"/>
</g>
<!-- Node14 -->
<g id="node6" class="node"><title>Node14</title>
<g id="a_node6"><a xlink:href="i_voxel_operation_sphere_8cpp.html" target="_top" xlink:title=" ">
<polygon fill="white" stroke="black" points="495.5,-0.5 495.5,-30.5 668.5,-30.5 668.5,-0.5 495.5,-0.5"/>
<text text-anchor="start" x="503.5" y="-18.5" font-family="Helvetica,sans-Serif" font-size="10.00">C:/dev/Igor/Igor/src</text>
<text text-anchor="middle" x="582" y="-7.5" font-family="Helvetica,sans-Serif" font-size="10.00">/Igor/src/iVoxelOperationSphere.cpp</text>
</a>
</g>
</g>
<!-- Node13&#45;&gt;Node14 -->
<g id="edge5" class="edge"><title>Node13&#45;&gt;Node14</title>
<path fill="none" stroke="midnightblue" d="M509.176,-62.0151C525.36,-51.8999 544.768,-39.7698 559.478,-30.5765"/>
<polygon fill="midnightblue" stroke="midnightblue" points="507.191,-59.1279 500.566,-67.396 510.901,-65.0639 507.191,-59.1279"/>
</g>
<!-- Node15&#45;&gt;Node11 -->
<g id="edge9" class="edge"><title>Node15&#45;&gt;Node11</title>
<path fill="none" stroke="midnightblue" d="M257.779,-64.8498C218.812,-54.2523 168.899,-40.6775 131.885,-30.6109"/>
<polygon fill="midnightblue" stroke="midnightblue" points="256.867,-68.2289 267.435,-67.476 258.704,-61.4743 256.867,-68.2289"/>
</g>
<!-- Node15&#45;&gt;Node12 -->
<g id="edge11" class="edge"><title>Node15&#45;&gt;Node12</title>
<path fill="none" stroke="midnightblue" d="M294.894,-60.8832C283.345,-51.0054 269.81,-39.4293 259.459,-30.5765"/>
<polygon fill="midnightblue" stroke="midnightblue" points="292.635,-63.5561 302.509,-67.396 297.184,-58.2364 292.635,-63.5561"/>
</g>
<!-- Node15&#45;&gt;Node14 -->
<g id="edge10" class="edge"><title>Node15&#45;&gt;Node14</title>
<path fill="none" stroke="midnightblue" d="M385.553,-65.0515C428.55,-54.425 483.915,-40.7414 524.905,-30.6109"/>
<polygon fill="midnightblue" stroke="midnightblue" points="384.611,-61.6789 375.743,-67.476 386.291,-68.4744 384.611,-61.6789"/>
</g>
<!-- Node16 -->
<g id="node8" class="node"><title>Node16</title>
<g id="a_node8"><a xlink:href="i_task_voxel_terrain_8cpp.html" target="_top" xlink:title=" ">
<polygon fill="white" stroke="black" points="326.5,-0.5 326.5,-30.5 477.5,-30.5 477.5,-0.5 326.5,-0.5"/>
<text text-anchor="start" x="334.5" y="-18.5" font-family="Helvetica,sans-Serif" font-size="10.00">C:/dev/Igor/Igor/src</text>
<text text-anchor="middle" x="402" y="-7.5" font-family="Helvetica,sans-Serif" font-size="10.00">/Igor/src/iTaskVoxelTerrain.cpp</text>
</a>
</g>
</g>
<!-- Node15&#45;&gt;Node16 -->
<g id="edge8" class="edge"><title>Node15&#45;&gt;Node16</title>
<path fill="none" stroke="midnightblue" d="M344.963,-61.1677C357.655,-51.2283 372.612,-39.5144 384.025,-30.5765"/>
<polygon fill="midnightblue" stroke="midnightblue" points="342.725,-58.4747 337.01,-67.396 347.041,-63.9859 342.725,-58.4747"/>
</g>
</g>
</svg>
