<?xml version="1.0" encoding="UTF-8" standalone="no"?>
<!DOCTYPE svg PUBLIC "-//W3C//DTD SVG 1.1//EN"
 "http://www.w3.org/Graphics/SVG/1.1/DTD/svg11.dtd">
<!-- Generated by graphviz version 2.38.0 (20140413.2041)
 -->
<!-- Title: C:/dev/Igor/Igor/src/Igor/src/iVoxelTerrainMeshGenerator.h Pages: 1 -->
<svg width="678pt" height="195pt"
 viewBox="0.00 0.00 677.50 195.00" xmlns="http://www.w3.org/2000/svg" xmlns:xlink="http://www.w3.org/1999/xlink">
<g id="graph0" class="graph" transform="scale(1 1) rotate(0) translate(4 191)">
<title>C:/dev/Igor/Igor/src/Igor/src/iVoxelTerrainMeshGenerator.h</title>
<polygon fill="white" stroke="none" points="-4,4 -4,-191 673.5,-191 673.5,4 -4,4"/>
<!-- Node35 -->
<g id="node1" class="node"><title>Node35</title>
<g id="a_node1"><a xlink:title=" ">
<polygon fill="#bfbfbf" stroke="black" points="346,-145.5 346,-186.5 481,-186.5 481,-145.5 346,-145.5"/>
<text text-anchor="start" x="354" y="-174.5" font-family="Helvetica,sans-Serif" font-size="10.00">C:/dev/Igor/Igor/src</text>
<text text-anchor="start" x="354" y="-163.5" font-family="Helvetica,sans-Serif" font-size="10.00">/Igor/src/iVoxelTerrainMesh</text>
<text text-anchor="middle" x="413.5" y="-152.5" font-family="Helvetica,sans-Serif" font-size="10.00">Generator.h</text>
</a>
</g>
</g>
<!-- Node36 -->
<g id="node2" class="node"><title>Node36</title>
<g id="a_node2"><a xlink:href="i_voxel_terrain_8h.html" target="_top" xlink:title=" ">
<polygon fill="white" stroke="black" points="282,-73 282,-103 401,-103 401,-73 282,-73"/>
<text text-anchor="start" x="290" y="-91" font-family="Helvetica,sans-Serif" font-size="10.00">C:/dev/Igor/Igor/src</text>
<text text-anchor="middle" x="341.5" y="-80" font-family="Helvetica,sans-Serif" font-size="10.00">/Igor/src/iVoxelTerrain.h</text>
</a>
</g>
</g>
<!-- Node35&#45;&gt;Node36 -->
<g id="edge1" class="edge"><title>Node35&#45;&gt;Node36</title>
<path fill="none" stroke="midnightblue" d="M387.911,-137.99C376.794,-126.255 364.227,-112.99 354.977,-103.225"/>
<polygon fill="midnightblue" stroke="midnightblue" points="385.54,-140.576 394.958,-145.428 390.622,-135.761 385.54,-140.576"/>
</g>
<!-- Node41 -->
<g id="node7" class="node"><title>Node41</title>
<g id="a_node7"><a xlink:href="i_voxel_terrain_mesh_generator_8cpp.html" target="_top" xlink:title=" ">
<polygon fill="white" stroke="black" points="419,-67.5 419,-108.5 554,-108.5 554,-67.5 419,-67.5"/>
<text text-anchor="start" x="427" y="-96.5" font-family="Helvetica,sans-Serif" font-size="10.00">C:/dev/Igor/Igor/src</text>
<text text-anchor="start" x="427" y="-85.5" font-family="Helvetica,sans-Serif" font-size="10.00">/Igor/src/iVoxelTerrainMesh</text>
<text text-anchor="middle" x="486.5" y="-74.5" font-family="Helvetica,sans-Serif" font-size="10.00">Generator.cpp</text>
</a>
</g>
</g>
<!-- Node35&#45;&gt;Node41 -->
<g id="edge6" class="edge"><title>Node35&#45;&gt;Node41</title>
<path fill="none" stroke="midnightblue" d="M439.238,-138.204C448.64,-128.416 459.088,-117.539 467.764,-108.506"/>
<polygon fill="midnightblue" stroke="midnightblue" points="436.702,-135.792 432.299,-145.428 441.751,-140.641 436.702,-135.792"/>
</g>
<!-- Node37 -->
<g id="node3" class="node"><title>Node37</title>
<g id="a_node3"><a xlink:href="i_task_voxel_terrain_8cpp.html" target="_top" xlink:title=" ">
<polygon fill="white" stroke="black" points="0,-0.5 0,-30.5 151,-30.5 151,-0.5 0,-0.5"/>
<text text-anchor="start" x="8" y="-18.5" font-family="Helvetica,sans-Serif" font-size="10.00">C:/dev/Igor/Igor/src</text>
<text text-anchor="middle" x="75.5" y="-7.5" font-family="Helvetica,sans-Serif" font-size="10.00">/Igor/src/iTaskVoxelTerrain.cpp</text>
</a>
</g>
</g>
<!-- Node36&#45;&gt;Node37 -->
<g id="edge2" class="edge"><title>Node36&#45;&gt;Node37</title>
<path fill="none" stroke="midnightblue" d="M278.844,-70.3938C233.193,-58.2945 172.017,-42.0806 128.726,-30.6069"/>
<polygon fill="midnightblue" stroke="midnightblue" points="278.066,-73.8084 288.629,-72.9872 279.859,-67.042 278.066,-73.8084"/>
</g>
<!-- Node38 -->
<g id="node4" class="node"><title>Node38</title>
<g id="a_node4"><a xlink:href="i_voxel_operation_box_8cpp.html" target="_top" xlink:title=" ">
<polygon fill="white" stroke="black" points="169.5,-0.5 169.5,-30.5 329.5,-30.5 329.5,-0.5 169.5,-0.5"/>
<text text-anchor="start" x="177.5" y="-18.5" font-family="Helvetica,sans-Serif" font-size="10.00">C:/dev/Igor/Igor/src</text>
<text text-anchor="middle" x="249.5" y="-7.5" font-family="Helvetica,sans-Serif" font-size="10.00">/Igor/src/iVoxelOperationBox.cpp</text>
</a>
</g>
</g>
<!-- Node36&#45;&gt;Node38 -->
<g id="edge3" class="edge"><title>Node36&#45;&gt;Node38</title>
<path fill="none" stroke="midnightblue" d="M314.892,-66.6101C299.779,-55.0289 281.247,-40.8282 267.776,-30.5049"/>
<polygon fill="midnightblue" stroke="midnightblue" points="312.816,-69.4288 322.882,-72.7333 317.074,-63.8726 312.816,-69.4288"/>
</g>
<!-- Node39 -->
<g id="node5" class="node"><title>Node39</title>
<g id="a_node5"><a xlink:href="i_voxel_operation_sphere_8cpp.html" target="_top" xlink:title=" ">
<polygon fill="white" stroke="black" points="348,-0.5 348,-30.5 521,-30.5 521,-0.5 348,-0.5"/>
<text text-anchor="start" x="356" y="-18.5" font-family="Helvetica,sans-Serif" font-size="10.00">C:/dev/Igor/Igor/src</text>
<text text-anchor="middle" x="434.5" y="-7.5" font-family="Helvetica,sans-Serif" font-size="10.00">/Igor/src/iVoxelOperationSphere.cpp</text>
</a>
</g>
</g>
<!-- Node36&#45;&gt;Node39 -->
<g id="edge4" class="edge"><title>Node36&#45;&gt;Node39</title>
<path fill="none" stroke="midnightblue" d="M368.397,-66.6101C383.675,-55.0289 402.407,-40.8282 416.025,-30.5049"/>
<polygon fill="midnightblue" stroke="midnightblue" points="366.175,-63.903 360.32,-72.7333 370.403,-69.4814 366.175,-63.903"/>
</g>
<!-- Node40 -->
<g id="node6" class="node"><title>Node40</title>
<g id="a_node6"><a xlink:href="i_voxel_terrain_8cpp.html" target="_top" xlink:title=" ">
<polygon fill="white" stroke="black" points="539.5,-0.5 539.5,-30.5 669.5,-30.5 669.5,-0.5 539.5,-0.5"/>
<text text-anchor="start" x="547.5" y="-18.5" font-family="Helvetica,sans-Serif" font-size="10.00">C:/dev/Igor/Igor/src</text>
<text text-anchor="middle" x="604.5" y="-7.5" font-family="Helvetica,sans-Serif" font-size="10.00">/Igor/src/iVoxelTerrain.cpp</text>
</a>
</g>
</g>
<!-- Node36&#45;&gt;Node40 -->
<g id="edge5" class="edge"><title>Node36&#45;&gt;Node40</title>
<path fill="none" stroke="midnightblue" d="M399.006,-70.203C402.893,-69.1074 406.751,-68.031 410.5,-67 456.976,-54.2178 509.947,-40.4851 548.782,-30.5717"/>
<polygon fill="midnightblue" stroke="midnightblue" points="397.998,-66.8508 389.335,-72.9505 399.911,-73.5843 397.998,-66.8508"/>
</g>
</g>
</svg>
