<?xml version="1.0" encoding="UTF-8" standalone="no"?>
<!DOCTYPE svg PUBLIC "-//W3C//DTD SVG 1.1//EN"
 "http://www.w3.org/Graphics/SVG/1.1/DTD/svg11.dtd">
<!-- Generated by graphviz version 2.38.0 (20140413.2041)
 -->
<!-- Title: C:/dev/Igor/Igor/src/Igor/src/iVoxelData.h Pages: 1 -->
<svg width="946pt" height="251pt"
 viewBox="0.00 0.00 946.00 251.00" xmlns="http://www.w3.org/2000/svg" xmlns:xlink="http://www.w3.org/1999/xlink">
<g id="graph0" class="graph" transform="scale(1 1) rotate(0) translate(4 247)">
<title>C:/dev/Igor/Igor/src/Igor/src/iVoxelData.h</title>
<polygon fill="white" stroke="none" points="-4,4 -4,-247 942,-247 942,4 -4,4"/>
<!-- Node19 -->
<g id="node1" class="node"><title>Node19</title>
<g id="a_node1"><a xlink:title=" ">
<polygon fill="#bfbfbf" stroke="black" points="360,-212.5 360,-242.5 470,-242.5 470,-212.5 360,-212.5"/>
<text text-anchor="start" x="368" y="-230.5" font-family="Helvetica,sans-Serif" font-size="10.00">C:/dev/Igor/Igor/src</text>
<text text-anchor="middle" x="415" y="-219.5" font-family="Helvetica,sans-Serif" font-size="10.00">/Igor/src/iVoxelData.h</text>
</a>
</g>
</g>
<!-- Node20 -->
<g id="node2" class="node"><title>Node20</title>
<g id="a_node2"><a xlink:href="i_contouring_cubes_8h.html" target="_top" xlink:title=" ">
<polygon fill="white" stroke="black" points="122,-145.5 122,-175.5 262,-175.5 262,-145.5 122,-145.5"/>
<text text-anchor="start" x="130" y="-163.5" font-family="Helvetica,sans-Serif" font-size="10.00">C:/dev/Igor/Igor/src</text>
<text text-anchor="middle" x="192" y="-152.5" font-family="Helvetica,sans-Serif" font-size="10.00">/Igor/src/iContouringCubes.h</text>
</a>
</g>
</g>
<!-- Node19&#45;&gt;Node20 -->
<g id="edge1" class="edge"><title>Node19&#45;&gt;Node20</title>
<path fill="none" stroke="midnightblue" d="M356.951,-209.58C320.731,-199.022 274.655,-185.592 240.411,-175.611"/>
<polygon fill="midnightblue" stroke="midnightblue" points="356.307,-213.038 366.887,-212.476 358.266,-206.317 356.307,-213.038"/>
</g>
<!-- Node22 -->
<g id="node4" class="node"><title>Node22</title>
<g id="a_node4"><a xlink:href="i_voxel_terrain_8cpp.html" target="_top" xlink:title=" ">
<polygon fill="white" stroke="black" points="269,-0.5 269,-30.5 399,-30.5 399,-0.5 269,-0.5"/>
<text text-anchor="start" x="277" y="-18.5" font-family="Helvetica,sans-Serif" font-size="10.00">C:/dev/Igor/Igor/src</text>
<text text-anchor="middle" x="334" y="-7.5" font-family="Helvetica,sans-Serif" font-size="10.00">/Igor/src/iVoxelTerrain.cpp</text>
</a>
</g>
</g>
<!-- Node19&#45;&gt;Node22 -->
<g id="edge16" class="edge"><title>Node19&#45;&gt;Node22</title>
<path fill="none" stroke="midnightblue" d="M402.154,-203.266C397.715,-194.809 392.885,-185.092 389,-176 377.32,-148.66 349.58,-64.3861 338.594,-30.6632"/>
<polygon fill="midnightblue" stroke="midnightblue" points="399.121,-205.017 406.928,-212.179 405.291,-201.712 399.121,-205.017"/>
</g>
<!-- Node23 -->
<g id="node5" class="node"><title>Node23</title>
<g id="a_node5"><a xlink:href="i_voxel_terrain_mesh_generator_8cpp.html" target="_top" xlink:title=" ">
<polygon fill="white" stroke="black" points="206.5,-67.5 206.5,-108.5 341.5,-108.5 341.5,-67.5 206.5,-67.5"/>
<text text-anchor="start" x="214.5" y="-96.5" font-family="Helvetica,sans-Serif" font-size="10.00">C:/dev/Igor/Igor/src</text>
<text text-anchor="start" x="214.5" y="-85.5" font-family="Helvetica,sans-Serif" font-size="10.00">/Igor/src/iVoxelTerrainMesh</text>
<text text-anchor="middle" x="274" y="-74.5" font-family="Helvetica,sans-Serif" font-size="10.00">Generator.cpp</text>
</a>
</g>
</g>
<!-- Node19&#45;&gt;Node23 -->
<g id="edge17" class="edge"><title>Node19&#45;&gt;Node23</title>
<path fill="none" stroke="midnightblue" d="M389.784,-205.936C379.131,-196.99 366.732,-186.23 356,-176 332.713,-153.803 307.565,-126.591 291.346,-108.575"/>
<polygon fill="midnightblue" stroke="midnightblue" points="387.609,-208.679 397.534,-212.386 392.087,-203.299 387.609,-208.679"/>
</g>
<!-- Node24 -->
<g id="node6" class="node"><title>Node24</title>
<g id="a_node6"><a xlink:href="i_simple_cubes_8h.html" target="_top" xlink:title=" ">
<polygon fill="white" stroke="black" points="398.5,-145.5 398.5,-175.5 521.5,-175.5 521.5,-145.5 398.5,-145.5"/>
<text text-anchor="start" x="406.5" y="-163.5" font-family="Helvetica,sans-Serif" font-size="10.00">C:/dev/Igor/Igor/src</text>
<text text-anchor="middle" x="460" y="-152.5" font-family="Helvetica,sans-Serif" font-size="10.00">/Igor/src/iSimpleCubes.h</text>
</a>
</g>
</g>
<!-- Node19&#45;&gt;Node24 -->
<g id="edge5" class="edge"><title>Node19&#45;&gt;Node24</title>
<path fill="none" stroke="midnightblue" d="M430.468,-204.157C437.03,-194.679 444.479,-183.919 450.255,-175.577"/>
<polygon fill="midnightblue" stroke="midnightblue" points="427.579,-202.182 424.764,-212.396 433.334,-206.166 427.579,-202.182"/>
</g>
<!-- Node26 -->
<g id="node8" class="node"><title>Node26</title>
<g id="a_node8"><a xlink:href="i_voxel_block_8h.html" target="_top" xlink:title=" ">
<polygon fill="white" stroke="black" points="539.5,-145.5 539.5,-175.5 654.5,-175.5 654.5,-145.5 539.5,-145.5"/>
<text text-anchor="start" x="547.5" y="-163.5" font-family="Helvetica,sans-Serif" font-size="10.00">C:/dev/Igor/Igor/src</text>
<text text-anchor="middle" x="597" y="-152.5" font-family="Helvetica,sans-Serif" font-size="10.00">/Igor/src/iVoxelBlock.h</text>
</a>
</g>
</g>
<!-- Node19&#45;&gt;Node26 -->
<g id="edge7" class="edge"><title>Node19&#45;&gt;Node26</title>
<path fill="none" stroke="midnightblue" d="M464.125,-208.955C493.443,-198.485 530.176,-185.366 557.586,-175.577"/>
<polygon fill="midnightblue" stroke="midnightblue" points="462.732,-205.736 454.491,-212.396 465.086,-212.329 462.732,-205.736"/>
</g>
<!-- Node31 -->
<g id="node13" class="node"><title>Node31</title>
<g id="a_node13"><a xlink:href="i_voxel_data_8cpp.html" target="_top" xlink:title=" ">
<polygon fill="white" stroke="black" points="672.5,-145.5 672.5,-175.5 793.5,-175.5 793.5,-145.5 672.5,-145.5"/>
<text text-anchor="start" x="680.5" y="-163.5" font-family="Helvetica,sans-Serif" font-size="10.00">C:/dev/Igor/Igor/src</text>
<text text-anchor="middle" x="733" y="-152.5" font-family="Helvetica,sans-Serif" font-size="10.00">/Igor/src/iVoxelData.cpp</text>
</a>
</g>
</g>
<!-- Node19&#45;&gt;Node31 -->
<g id="edge15" class="edge"><title>Node19&#45;&gt;Node31</title>
<path fill="none" stroke="midnightblue" d="M480.204,-213.285C530.227,-203.132 600.989,-188.736 663,-176 666.039,-175.376 669.152,-174.735 672.296,-174.087"/>
<polygon fill="midnightblue" stroke="midnightblue" points="479.275,-209.902 470.171,-215.321 480.667,-216.762 479.275,-209.902"/>
</g>
<!-- Node21 -->
<g id="node3" class="node"><title>Node21</title>
<g id="a_node3"><a xlink:href="i_contouring_cubes_8cpp.html" target="_top" xlink:title=" ">
<polygon fill="white" stroke="black" points="0,-73 0,-103 150,-103 150,-73 0,-73"/>
<text text-anchor="start" x="8" y="-91" font-family="Helvetica,sans-Serif" font-size="10.00">C:/dev/Igor/Igor/src</text>
<text text-anchor="middle" x="75" y="-80" font-family="Helvetica,sans-Serif" font-size="10.00">/Igor/src/iContouringCubes.cpp</text>
</a>
</g>
</g>
<!-- Node20&#45;&gt;Node21 -->
<g id="edge2" class="edge"><title>Node20&#45;&gt;Node21</title>
<path fill="none" stroke="midnightblue" d="M160.038,-140.241C140.536,-128.489 116.04,-113.73 98.3549,-103.073"/>
<polygon fill="midnightblue" stroke="midnightblue" points="158.233,-143.239 168.605,-145.403 161.846,-137.244 158.233,-143.239"/>
</g>
<!-- Node20&#45;&gt;Node22 -->
<g id="edge3" class="edge"><title>Node20&#45;&gt;Node22</title>
<path fill="none" stroke="midnightblue" d="M186.548,-135.396C183.429,-115.166 182.59,-86.5238 197,-67 213.86,-44.157 242.19,-31.6356 268.727,-24.7767"/>
<polygon fill="midnightblue" stroke="midnightblue" points="183.133,-136.179 188.375,-145.386 190.019,-134.919 183.133,-136.179"/>
</g>
<!-- Node20&#45;&gt;Node23 -->
<g id="edge4" class="edge"><title>Node20&#45;&gt;Node23</title>
<path fill="none" stroke="midnightblue" d="M216.243,-138.657C227.306,-129.145 240.336,-117.943 251.216,-108.588"/>
<polygon fill="midnightblue" stroke="midnightblue" points="213.895,-136.06 208.594,-145.233 218.458,-141.368 213.895,-136.06"/>
</g>
<!-- Node25 -->
<g id="node7" class="node"><title>Node25</title>
<g id="a_node7"><a xlink:href="i_simple_cubes_8cpp.html" target="_top" xlink:title=" ">
<polygon fill="white" stroke="black" points="398,-73 398,-103 532,-103 532,-73 398,-73"/>
<text text-anchor="start" x="406" y="-91" font-family="Helvetica,sans-Serif" font-size="10.00">C:/dev/Igor/Igor/src</text>
<text text-anchor="middle" x="465" y="-80" font-family="Helvetica,sans-Serif" font-size="10.00">/Igor/src/iSimpleCubes.cpp</text>
</a>
</g>
</g>
<!-- Node24&#45;&gt;Node25 -->
<g id="edge6" class="edge"><title>Node24&#45;&gt;Node25</title>
<path fill="none" stroke="midnightblue" d="M461.721,-135.232C462.477,-124.568 463.339,-112.414 463.99,-103.246"/>
<polygon fill="midnightblue" stroke="midnightblue" points="458.228,-135.011 461.012,-145.233 465.211,-135.506 458.228,-135.011"/>
</g>
<!-- Node27 -->
<g id="node9" class="node"><title>Node27</title>
<g id="a_node9"><a xlink:href="i_voxel_operation_box_8cpp.html" target="_top" xlink:title=" ">
<polygon fill="white" stroke="black" points="778,-0.5 778,-30.5 938,-30.5 938,-0.5 778,-0.5"/>
<text text-anchor="start" x="786" y="-18.5" font-family="Helvetica,sans-Serif" font-size="10.00">C:/dev/Igor/Igor/src</text>
<text text-anchor="middle" x="858" y="-7.5" font-family="Helvetica,sans-Serif" font-size="10.00">/Igor/src/iVoxelOperationBox.cpp</text>
</a>
</g>
</g>
<!-- Node26&#45;&gt;Node27 -->
<g id="edge8" class="edge"><title>Node26&#45;&gt;Node27</title>
<path fill="none" stroke="midnightblue" d="M644.309,-141.656C666.5,-132.725 693.05,-121.222 716,-109 761.705,-84.6594 811.683,-50.0664 838.456,-30.8228"/>
<polygon fill="midnightblue" stroke="midnightblue" points="642.771,-138.501 634.769,-145.446 645.355,-145.006 642.771,-138.501"/>
</g>
<!-- Node28 -->
<g id="node10" class="node"><title>Node28</title>
<g id="a_node10"><a xlink:href="i_voxel_operation_sphere_8cpp.html" target="_top" xlink:title=" ">
<polygon fill="white" stroke="black" points="417.5,-0.5 417.5,-30.5 590.5,-30.5 590.5,-0.5 417.5,-0.5"/>
<text text-anchor="start" x="425.5" y="-18.5" font-family="Helvetica,sans-Serif" font-size="10.00">C:/dev/Igor/Igor/src</text>
<text text-anchor="middle" x="504" y="-7.5" font-family="Helvetica,sans-Serif" font-size="10.00">/Igor/src/iVoxelOperationSphere.cpp</text>
</a>
</g>
</g>
<!-- Node26&#45;&gt;Node28 -->
<g id="edge9" class="edge"><title>Node26&#45;&gt;Node28</title>
<path fill="none" stroke="midnightblue" d="M583.932,-136.668C572.915,-117.731 556.508,-90.2449 541,-67 532.676,-54.5231 522.574,-40.8232 515.031,-30.8444"/>
<polygon fill="midnightblue" stroke="midnightblue" points="580.987,-138.568 589.024,-145.472 587.047,-135.063 580.987,-138.568"/>
</g>
<!-- Node29 -->
<g id="node11" class="node"><title>Node29</title>
<g id="a_node11"><a xlink:href="i_voxel_terrain_8h.html" target="_top" xlink:title=" ">
<polygon fill="white" stroke="black" points="588.5,-73 588.5,-103 707.5,-103 707.5,-73 588.5,-73"/>
<text text-anchor="start" x="596.5" y="-91" font-family="Helvetica,sans-Serif" font-size="10.00">C:/dev/Igor/Igor/src</text>
<text text-anchor="middle" x="648" y="-80" font-family="Helvetica,sans-Serif" font-size="10.00">/Igor/src/iVoxelTerrain.h</text>
</a>
</g>
</g>
<!-- Node26&#45;&gt;Node29 -->
<g id="edge10" class="edge"><title>Node26&#45;&gt;Node29</title>
<path fill="none" stroke="midnightblue" d="M613.36,-136.885C621.348,-125.842 630.716,-112.892 637.695,-103.246"/>
<polygon fill="midnightblue" stroke="midnightblue" points="610.346,-135.08 607.321,-145.233 616.018,-139.182 610.346,-135.08"/>
</g>
<!-- Node29&#45;&gt;Node22 -->
<g id="edge14" class="edge"><title>Node29&#45;&gt;Node22</title>
<path fill="none" stroke="midnightblue" d="M578.292,-71.3489C523.897,-59.1361 449.009,-42.3222 396.534,-30.5404"/>
<polygon fill="midnightblue" stroke="midnightblue" points="577.676,-74.7978 588.2,-73.5735 579.21,-67.9678 577.676,-74.7978"/>
</g>
<!-- Node29&#45;&gt;Node27 -->
<g id="edge12" class="edge"><title>Node29&#45;&gt;Node27</title>
<path fill="none" stroke="midnightblue" d="M699.518,-69.7046C735.323,-57.6843 782.447,-41.8642 815.98,-30.6069"/>
<polygon fill="midnightblue" stroke="midnightblue" points="698.106,-66.4865 689.74,-72.9872 700.334,-73.1225 698.106,-66.4865"/>
</g>
<!-- Node29&#45;&gt;Node28 -->
<g id="edge13" class="edge"><title>Node29&#45;&gt;Node28</title>
<path fill="none" stroke="midnightblue" d="M609.953,-68.373C585.748,-56.5226 554.904,-41.4215 532.745,-30.5729"/>
<polygon fill="midnightblue" stroke="midnightblue" points="608.685,-71.649 619.206,-72.9027 611.763,-65.362 608.685,-71.649"/>
</g>
<!-- Node30 -->
<g id="node12" class="node"><title>Node30</title>
<g id="a_node12"><a xlink:href="i_task_voxel_terrain_8cpp.html" target="_top" xlink:title=" ">
<polygon fill="white" stroke="black" points="608.5,-0.5 608.5,-30.5 759.5,-30.5 759.5,-0.5 608.5,-0.5"/>
<text text-anchor="start" x="616.5" y="-18.5" font-family="Helvetica,sans-Serif" font-size="10.00">C:/dev/Igor/Igor/src</text>
<text text-anchor="middle" x="684" y="-7.5" font-family="Helvetica,sans-Serif" font-size="10.00">/Igor/src/iTaskVoxelTerrain.cpp</text>
</a>
</g>
</g>
<!-- Node29&#45;&gt;Node30 -->
<g id="edge11" class="edge"><title>Node29&#45;&gt;Node30</title>
<path fill="none" stroke="midnightblue" d="M659.884,-63.727C665.448,-52.8304 671.897,-40.201 676.726,-30.7455"/>
<polygon fill="midnightblue" stroke="midnightblue" points="656.716,-62.2355 655.285,-72.7333 662.95,-65.4189 656.716,-62.2355"/>
</g>
</g>
</svg>
