<?xml version="1.0" encoding="UTF-8" standalone="no"?>
<!DOCTYPE svg PUBLIC "-//W3C//DTD SVG 1.1//EN"
 "http://www.w3.org/Graphics/SVG/1.1/DTD/svg11.dtd">
<!-- Generated by graphviz version 2.38.0 (20140413.2041)
 -->
<!-- Title: C:/dev/Igor/Igor/src/Igor/src/iWidgetDefaultTheme.h Pages: 1 -->
<svg width="1170pt" height="487pt"
 viewBox="0.00 0.00 1170.00 487.00" xmlns="http://www.w3.org/2000/svg" xmlns:xlink="http://www.w3.org/1999/xlink">
<g id="graph0" class="graph" transform="scale(1 1) rotate(0) translate(4 483)">
<title>C:/dev/Igor/Igor/src/Igor/src/iWidgetDefaultTheme.h</title>
<polygon fill="white" stroke="none" points="-4,4 -4,-483 1166,-483 1166,4 -4,4"/>
<!-- Node0 -->
<g id="node1" class="node"><title>Node0</title>
<g id="a_node1"><a xlink:title=" ">
<polygon fill="#bfbfbf" stroke="black" points="789.5,-448.5 789.5,-478.5 944.5,-478.5 944.5,-448.5 789.5,-448.5"/>
<text text-anchor="start" x="797.5" y="-466.5" font-family="Helvetica,sans-Serif" font-size="10.00">C:/dev/Igor/Igor/src</text>
<text text-anchor="middle" x="867" y="-455.5" font-family="Helvetica,sans-Serif" font-size="10.00">/Igor/src/iWidgetDefaultTheme.h</text>
</a>
</g>
</g>
<!-- Node1 -->
<g id="node2" class="node"><title>Node1</title>
<g id="a_node2"><a xlink:href="i_widget_base_theme_8h.html" target="_top" xlink:title=" ">
<polygon fill="white" stroke="black" points="812,-392.5 812,-411.5 922,-411.5 922,-392.5 812,-392.5"/>
<text text-anchor="middle" x="867" y="-399.5" font-family="Helvetica,sans-Serif" font-size="10.00">iWidgetBaseTheme.h</text>
</a>
</g>
</g>
<!-- Node0&#45;&gt;Node1 -->
<g id="edge1" class="edge"><title>Node0&#45;&gt;Node1</title>
<path fill="none" stroke="midnightblue" d="M867,-448.399C867,-440.466 867,-430.458 867,-421.858"/>
<polygon fill="midnightblue" stroke="midnightblue" points="870.5,-421.658 867,-411.658 863.5,-421.658 870.5,-421.658"/>
</g>
<!-- Node33 -->
<g id="node34" class="node"><title>Node33</title>
<g id="a_node34"><a xlink:href="ia_color4_8h.html" target="_top" xlink:title=" ">
<polygon fill="white" stroke="black" points="0,-168.5 0,-187.5 60,-187.5 60,-168.5 0,-168.5"/>
<text text-anchor="middle" x="30" y="-175.5" font-family="Helvetica,sans-Serif" font-size="10.00">iaColor4.h</text>
</a>
</g>
</g>
<!-- Node0&#45;&gt;Node33 -->
<g id="edge60" class="edge"><title>Node0&#45;&gt;Node33</title>
<path fill="none" stroke="midnightblue" d="M789.305,-458.196C602.017,-446.786 141,-412.09 141,-347 141,-347 141,-347 141,-289 141,-242.824 91.9365,-209.426 59.0484,-192.226"/>
<polygon fill="midnightblue" stroke="midnightblue" points="60.3524,-188.964 49.8446,-187.609 57.2137,-195.221 60.3524,-188.964"/>
</g>
<!-- Node36 -->
<g id="node37" class="node"><title>Node36</title>
<g id="a_node37"><a xlink:title=" ">
<polygon fill="white" stroke="#bfbfbf" points="1110,-336.5 1110,-355.5 1162,-355.5 1162,-336.5 1110,-336.5"/>
<text text-anchor="middle" x="1136" y="-343.5" font-family="Helvetica,sans-Serif" font-size="10.00">memory</text>
</a>
</g>
</g>
<!-- Node0&#45;&gt;Node36 -->
<g id="edge61" class="edge"><title>Node0&#45;&gt;Node36</title>
<path fill="none" stroke="midnightblue" d="M899.716,-448.453C952.616,-425.739 1056.11,-381.304 1106.72,-359.573"/>
<polygon fill="midnightblue" stroke="midnightblue" points="1108.3,-362.704 1116.1,-355.542 1105.54,-356.272 1108.3,-362.704"/>
</g>
<!-- Node2 -->
<g id="node3" class="node"><title>Node2</title>
<g id="a_node3"><a xlink:href="i_widget_8h.html" target="_top" xlink:title=" ">
<polygon fill="white" stroke="black" points="817,-336.5 817,-355.5 875,-355.5 875,-336.5 817,-336.5"/>
<text text-anchor="middle" x="846" y="-343.5" font-family="Helvetica,sans-Serif" font-size="10.00">iWidget.h</text>
</a>
</g>
</g>
<!-- Node1&#45;&gt;Node2 -->
<g id="edge2" class="edge"><title>Node1&#45;&gt;Node2</title>
<path fill="none" stroke="midnightblue" d="M863.532,-392.083C860.688,-384.77 856.571,-374.181 853.04,-365.103"/>
<polygon fill="midnightblue" stroke="midnightblue" points="856.29,-363.803 849.403,-355.751 849.766,-366.34 856.29,-363.803"/>
</g>
<!-- Node16 -->
<g id="node17" class="node"><title>Node16</title>
<g id="a_node17"><a xlink:href="ia_string_8h.html" target="_top" xlink:title=" ">
<polygon fill="white" stroke="black" points="1053,-168.5 1053,-187.5 1111,-187.5 1111,-168.5 1053,-168.5"/>
<text text-anchor="middle" x="1082" y="-175.5" font-family="Helvetica,sans-Serif" font-size="10.00">iaString.h</text>
</a>
</g>
</g>
<!-- Node1&#45;&gt;Node16 -->
<g id="edge47" class="edge"><title>Node1&#45;&gt;Node16</title>
<path fill="none" stroke="midnightblue" d="M875.428,-392.297C907.733,-358.94 1023.97,-238.923 1066.37,-195.135"/>
<polygon fill="midnightblue" stroke="midnightblue" points="1068.95,-197.502 1073.4,-187.884 1063.93,-192.632 1068.95,-197.502"/>
</g>
<!-- Node32 -->
<g id="node33" class="node"><title>Node32</title>
<g id="a_node33"><a xlink:href="ia_gradient_8h.html" target="_top" xlink:title=" ">
<polygon fill="white" stroke="black" points="280.5,-224.5 280.5,-243.5 349.5,-243.5 349.5,-224.5 280.5,-224.5"/>
<text text-anchor="middle" x="315" y="-231.5" font-family="Helvetica,sans-Serif" font-size="10.00">iaGradient.h</text>
</a>
</g>
</g>
<!-- Node1&#45;&gt;Node32 -->
<g id="edge48" class="edge"><title>Node1&#45;&gt;Node32</title>
<path fill="none" stroke="midnightblue" d="M838.484,-392.425C746.506,-364.764 457.594,-277.882 353.151,-246.473"/>
<polygon fill="midnightblue" stroke="midnightblue" points="353.929,-243.052 343.345,-243.524 351.914,-249.756 353.929,-243.052"/>
</g>
<!-- Node1&#45;&gt;Node36 -->
<g id="edge59" class="edge"><title>Node1&#45;&gt;Node36</title>
<path fill="none" stroke="midnightblue" d="M912.262,-392.483C958.511,-383.692 1032.37,-369.408 1096,-356 1097.25,-355.736 1098.53,-355.464 1099.82,-355.188"/>
<polygon fill="midnightblue" stroke="midnightblue" points="1100.75,-358.566 1109.77,-353.009 1099.26,-351.728 1100.75,-358.566"/>
</g>
<!-- Node3 -->
<g id="node4" class="node"><title>Node3</title>
<g id="a_node4"><a xlink:href="i_mouse_8h.html" target="_top" xlink:title=" ">
<polygon fill="white" stroke="black" points="775,-280.5 775,-299.5 831,-299.5 831,-280.5 775,-280.5"/>
<text text-anchor="middle" x="803" y="-287.5" font-family="Helvetica,sans-Serif" font-size="10.00">iMouse.h</text>
</a>
</g>
</g>
<!-- Node2&#45;&gt;Node3 -->
<g id="edge3" class="edge"><title>Node2&#45;&gt;Node3</title>
<path fill="none" stroke="midnightblue" d="M838.899,-336.083C832.763,-328.377 823.73,-317.033 816.261,-307.653"/>
<polygon fill="midnightblue" stroke="midnightblue" points="818.936,-305.394 809.968,-299.751 813.46,-309.754 818.936,-305.394"/>
</g>
<!-- Node14 -->
<g id="node15" class="node"><title>Node14</title>
<g id="a_node15"><a xlink:title=" ">
<polygon fill="white" stroke="#bfbfbf" points="938,-112.5 938,-131.5 980,-131.5 980,-112.5 938,-112.5"/>
<text text-anchor="middle" x="959" y="-119.5" font-family="Helvetica,sans-Serif" font-size="10.00">vector</text>
</a>
</g>
</g>
<!-- Node2&#45;&gt;Node14 -->
<g id="edge45" class="edge"><title>Node2&#45;&gt;Node14</title>
<path fill="none" stroke="midnightblue" d="M875.026,-338.75C934.191,-324.247 1067.56,-282.109 1120,-188 1147.99,-137.764 1044.85,-126.304 990.474,-123.725"/>
<polygon fill="midnightblue" stroke="midnightblue" points="990.435,-120.221 980.303,-123.319 990.156,-127.215 990.435,-120.221"/>
</g>
<!-- Node26 -->
<g id="node27" class="node"><title>Node26</title>
<g id="a_node27"><a xlink:href="i_timer_handle_8h.html" target="_top" xlink:title=" ">
<polygon fill="white" stroke="black" points="849.5,-280.5 849.5,-299.5 930.5,-299.5 930.5,-280.5 849.5,-280.5"/>
<text text-anchor="middle" x="890" y="-287.5" font-family="Helvetica,sans-Serif" font-size="10.00">iTimerHandle.h</text>
</a>
</g>
</g>
<!-- Node2&#45;&gt;Node26 -->
<g id="edge35" class="edge"><title>Node2&#45;&gt;Node26</title>
<path fill="none" stroke="midnightblue" d="M853.266,-336.083C859.545,-328.377 868.788,-317.033 876.431,-307.653"/>
<polygon fill="midnightblue" stroke="midnightblue" points="879.266,-309.714 882.869,-299.751 873.839,-305.293 879.266,-309.714"/>
</g>
<!-- Node27 -->
<g id="node28" class="node"><title>Node27</title>
<g id="a_node28"><a xlink:href="ia_vector4_8h.html" target="_top" xlink:title=" ">
<polygon fill="white" stroke="black" points="466,-224.5 466,-243.5 532,-243.5 532,-224.5 466,-224.5"/>
<text text-anchor="middle" x="499" y="-231.5" font-family="Helvetica,sans-Serif" font-size="10.00">iaVector4.h</text>
</a>
</g>
</g>
<!-- Node2&#45;&gt;Node27 -->
<g id="edge38" class="edge"><title>Node2&#45;&gt;Node27</title>
<path fill="none" stroke="midnightblue" d="M816.94,-337.393C784.761,-328.837 731.423,-314.268 686,-300 631.599,-282.912 569.172,-260.674 531.969,-247.137"/>
<polygon fill="midnightblue" stroke="midnightblue" points="532.766,-243.702 522.172,-243.561 530.366,-250.278 532.766,-243.702"/>
</g>
<!-- Node31 -->
<g id="node32" class="node"><title>Node31</title>
<g id="a_node32"><a xlink:href="i_widget_8inl.html" target="_top" xlink:title=" ">
<polygon fill="white" stroke="black" points="695,-280.5 695,-299.5 757,-299.5 757,-280.5 695,-280.5"/>
<text text-anchor="middle" x="726" y="-287.5" font-family="Helvetica,sans-Serif" font-size="10.00">iWidget.inl</text>
</a>
</g>
</g>
<!-- Node2&#45;&gt;Node31 -->
<g id="edge46" class="edge"><title>Node2&#45;&gt;Node31</title>
<path fill="none" stroke="midnightblue" d="M826.986,-336.444C807.412,-327.636 776.692,-313.812 754.271,-303.722"/>
<polygon fill="midnightblue" stroke="midnightblue" points="755.481,-300.428 744.925,-299.516 752.608,-306.812 755.481,-300.428"/>
</g>
<!-- Node4 -->
<g id="node5" class="node"><title>Node4</title>
<g id="a_node5"><a xlink:href="ia_event_8h.html" target="_top" xlink:title=" ">
<polygon fill="white" stroke="black" points="938,-224.5 938,-243.5 994,-243.5 994,-224.5 938,-224.5"/>
<text text-anchor="middle" x="966" y="-231.5" font-family="Helvetica,sans-Serif" font-size="10.00">iaEvent.h</text>
</a>
</g>
</g>
<!-- Node3&#45;&gt;Node4 -->
<g id="edge4" class="edge"><title>Node3&#45;&gt;Node4</title>
<path fill="none" stroke="midnightblue" d="M828.828,-280.444C856.249,-271.359 899.777,-256.939 930.432,-246.783"/>
<polygon fill="midnightblue" stroke="midnightblue" points="931.901,-249.984 940.293,-243.516 929.7,-243.339 931.901,-249.984"/>
</g>
<!-- Node15 -->
<g id="node16" class="node"><title>Node15</title>
<g id="a_node16"><a xlink:href="i_key_code_map_8h.html" target="_top" xlink:title=" ">
<polygon fill="white" stroke="black" points="834,-224.5 834,-243.5 920,-243.5 920,-224.5 834,-224.5"/>
<text text-anchor="middle" x="877" y="-231.5" font-family="Helvetica,sans-Serif" font-size="10.00">iKeyCodeMap.h</text>
</a>
</g>
</g>
<!-- Node3&#45;&gt;Node15 -->
<g id="edge17" class="edge"><title>Node3&#45;&gt;Node15</title>
<path fill="none" stroke="midnightblue" d="M814.889,-280.324C826.15,-272.107 843.287,-259.602 856.709,-249.807"/>
<polygon fill="midnightblue" stroke="midnightblue" points="858.88,-252.556 864.894,-243.834 854.753,-246.901 858.88,-252.556"/>
</g>
<!-- Node20 -->
<g id="node21" class="node"><title>Node20</title>
<g id="a_node21"><a xlink:href="i_rectangle_8h.html" target="_top" xlink:title=" ">
<polygon fill="white" stroke="black" points="706.5,-224.5 706.5,-243.5 777.5,-243.5 777.5,-224.5 706.5,-224.5"/>
<text text-anchor="middle" x="742" y="-231.5" font-family="Helvetica,sans-Serif" font-size="10.00">iRectangle.h</text>
</a>
</g>
</g>
<!-- Node3&#45;&gt;Node20 -->
<g id="edge26" class="edge"><title>Node3&#45;&gt;Node20</title>
<path fill="none" stroke="midnightblue" d="M793.199,-280.324C784.182,-272.341 770.594,-260.313 759.682,-250.653"/>
<polygon fill="midnightblue" stroke="midnightblue" points="761.787,-247.842 751.979,-243.834 757.147,-253.083 761.787,-247.842"/>
</g>
<!-- Node22 -->
<g id="node23" class="node"><title>Node22</title>
<g id="a_node23"><a xlink:href="ia_vector2_8h.html" target="_top" xlink:title=" ">
<polygon fill="white" stroke="black" points="366,-168.5 366,-187.5 432,-187.5 432,-168.5 366,-168.5"/>
<text text-anchor="middle" x="399" y="-175.5" font-family="Helvetica,sans-Serif" font-size="10.00">iaVector2.h</text>
</a>
</g>
</g>
<!-- Node3&#45;&gt;Node22 -->
<g id="edge29" class="edge"><title>Node3&#45;&gt;Node22</title>
<path fill="none" stroke="midnightblue" d="M774.751,-281.979C771.8,-281.291 768.842,-280.619 766,-280 683.301,-261.993 658.867,-272.012 579,-244 560.99,-237.683 558.611,-231.356 541,-224 508.234,-210.313 469.765,-198.362 441.137,-190.223"/>
<polygon fill="midnightblue" stroke="midnightblue" points="442.021,-186.836 431.447,-187.507 440.131,-193.576 442.021,-186.836"/>
</g>
<!-- Node25 -->
<g id="node26" class="node"><title>Node25</title>
<g id="a_node26"><a xlink:href="i_o_s_event_listener_8h.html" target="_top" xlink:title=" ">
<polygon fill="white" stroke="black" points="588,-224.5 588,-243.5 688,-243.5 688,-224.5 588,-224.5"/>
<text text-anchor="middle" x="638" y="-231.5" font-family="Helvetica,sans-Serif" font-size="10.00">iOSEventListener.h</text>
</a>
</g>
</g>
<!-- Node3&#45;&gt;Node25 -->
<g id="edge34" class="edge"><title>Node3&#45;&gt;Node25</title>
<path fill="none" stroke="midnightblue" d="M776.855,-280.444C748.977,-271.32 704.652,-256.813 673.6,-246.651"/>
<polygon fill="midnightblue" stroke="midnightblue" points="674.615,-243.3 664.022,-243.516 672.438,-249.953 674.615,-243.3"/>
</g>
<!-- Node5 -->
<g id="node6" class="node"><title>Node5</title>
<g id="a_node6"><a xlink:href="ia_mutex_8h.html" target="_top" xlink:title=" ">
<polygon fill="white" stroke="black" points="843.5,-56.5 843.5,-75.5 902.5,-75.5 902.5,-56.5 843.5,-56.5"/>
<text text-anchor="middle" x="873" y="-63.5" font-family="Helvetica,sans-Serif" font-size="10.00">iaMutex.h</text>
</a>
</g>
</g>
<!-- Node4&#45;&gt;Node5 -->
<g id="edge5" class="edge"><title>Node4&#45;&gt;Node5</title>
<path fill="none" stroke="midnightblue" d="M994.181,-231.677C1046.58,-228.087 1151.01,-214.986 1120,-168 1073.99,-98.2947 970.29,-76.6767 912.969,-69.9865"/>
<polygon fill="midnightblue" stroke="midnightblue" points="913.146,-66.4855 902.83,-68.9028 912.402,-73.4458 913.146,-66.4855"/>
</g>
<!-- Node7 -->
<g id="node8" class="node"><title>Node7</title>
<g id="a_node8"><a xlink:href="ia_delegate_8h.html" target="_top" xlink:title=" ">
<polygon fill="white" stroke="black" points="963.5,-168.5 963.5,-187.5 1034.5,-187.5 1034.5,-168.5 963.5,-168.5"/>
<text text-anchor="middle" x="999" y="-175.5" font-family="Helvetica,sans-Serif" font-size="10.00">iaDelegate.h</text>
</a>
</g>
</g>
<!-- Node4&#45;&gt;Node7 -->
<g id="edge7" class="edge"><title>Node4&#45;&gt;Node7</title>
<path fill="none" stroke="midnightblue" d="M971.449,-224.083C976.014,-216.613 982.668,-205.724 988.293,-196.52"/>
<polygon fill="midnightblue" stroke="midnightblue" points="991.424,-198.109 993.652,-187.751 985.451,-194.459 991.424,-198.109"/>
</g>
<!-- Node8 -->
<g id="node9" class="node"><title>Node8</title>
<g id="a_node9"><a xlink:href="ia_console_8h.html" target="_top" xlink:title=" ">
<polygon fill="white" stroke="black" points="450,-168.5 450,-187.5 518,-187.5 518,-168.5 450,-168.5"/>
<text text-anchor="middle" x="484" y="-175.5" font-family="Helvetica,sans-Serif" font-size="10.00">iaConsole.h</text>
</a>
</g>
</g>
<!-- Node4&#45;&gt;Node8 -->
<g id="edge8" class="edge"><title>Node4&#45;&gt;Node8</title>
<path fill="none" stroke="midnightblue" d="M937.803,-225.71C934.842,-225.074 931.868,-224.488 929,-224 768.738,-196.722 726.678,-204.977 565,-188 553.137,-186.754 540.303,-185.353 528.424,-184.034"/>
<polygon fill="midnightblue" stroke="midnightblue" points="528.606,-180.532 518.279,-182.901 527.829,-187.489 528.606,-180.532"/>
</g>
<!-- Node4&#45;&gt;Node14 -->
<g id="edge16" class="edge"><title>Node4&#45;&gt;Node14</title>
<path fill="none" stroke="midnightblue" d="M962.912,-224.173C959.948,-215.198 955.681,-200.827 954,-188 951.975,-172.55 953.574,-154.919 955.485,-141.921"/>
<polygon fill="midnightblue" stroke="midnightblue" points="958.97,-142.302 957.161,-131.862 952.065,-141.151 958.97,-142.302"/>
</g>
<!-- Node6 -->
<g id="node7" class="node"><title>Node6</title>
<g id="a_node7"><a xlink:href="ia_defines_8h.html" target="_top" xlink:title=" ">
<polygon fill="white" stroke="black" points="538.5,-0.5 538.5,-19.5 603.5,-19.5 603.5,-0.5 538.5,-0.5"/>
<text text-anchor="middle" x="571" y="-7.5" font-family="Helvetica,sans-Serif" font-size="10.00">iaDefines.h</text>
</a>
</g>
</g>
<!-- Node5&#45;&gt;Node6 -->
<g id="edge6" class="edge"><title>Node5&#45;&gt;Node6</title>
<path fill="none" stroke="midnightblue" d="M843.493,-59.7239C789.787,-50.1208 675.885,-29.7543 613.701,-18.6352"/>
<polygon fill="midnightblue" stroke="midnightblue" points="614.275,-15.1825 603.815,-16.8676 613.043,-22.0732 614.275,-15.1825"/>
</g>
<!-- Node9 -->
<g id="node10" class="node"><title>Node9</title>
<g id="a_node10"><a xlink:href="ia_singleton_8h.html" target="_top" xlink:title=" ">
<polygon fill="white" stroke="black" points="836.5,-112.5 836.5,-131.5 909.5,-131.5 909.5,-112.5 836.5,-112.5"/>
<text text-anchor="middle" x="873" y="-119.5" font-family="Helvetica,sans-Serif" font-size="10.00">iaSingleton.h</text>
</a>
</g>
</g>
<!-- Node8&#45;&gt;Node9 -->
<g id="edge9" class="edge"><title>Node8&#45;&gt;Node9</title>
<path fill="none" stroke="midnightblue" d="M518.049,-170.38C522.729,-169.539 527.479,-168.722 532,-168 636.811,-151.271 760.462,-136.079 826.267,-128.355"/>
<polygon fill="midnightblue" stroke="midnightblue" points="826.793,-131.817 836.32,-127.18 825.981,-124.864 826.793,-131.817"/>
</g>
<!-- Node10 -->
<g id="node11" class="node"><title>Node10</title>
<g id="a_node11"><a xlink:href="ia_clock_8h.html" target="_top" xlink:title=" ">
<polygon fill="white" stroke="black" points="571.5,-56.5 571.5,-75.5 628.5,-75.5 628.5,-56.5 571.5,-56.5"/>
<text text-anchor="middle" x="600" y="-63.5" font-family="Helvetica,sans-Serif" font-size="10.00">iaClock.h</text>
</a>
</g>
</g>
<!-- Node8&#45;&gt;Node10 -->
<g id="edge11" class="edge"><title>Node8&#45;&gt;Node10</title>
<path fill="none" stroke="midnightblue" d="M502.618,-168.392C518.355,-160.486 540.851,-147.64 557,-132 571.235,-118.214 583.255,-98.9285 590.937,-84.9476"/>
<polygon fill="midnightblue" stroke="midnightblue" points="594.161,-86.3369 595.733,-75.8593 587.97,-83.0699 594.161,-86.3369"/>
</g>
<!-- Node11 -->
<g id="node12" class="node"><title>Node11</title>
<g id="a_node12"><a xlink:title=" ">
<polygon fill="white" stroke="#bfbfbf" points="306.5,-112.5 306.5,-131.5 355.5,-131.5 355.5,-112.5 306.5,-112.5"/>
<text text-anchor="middle" x="331" y="-119.5" font-family="Helvetica,sans-Serif" font-size="10.00">fstream</text>
</a>
</g>
</g>
<!-- Node8&#45;&gt;Node11 -->
<g id="edge13" class="edge"><title>Node8&#45;&gt;Node11</title>
<path fill="none" stroke="midnightblue" d="M459.757,-168.444C434.129,-159.399 393.515,-145.064 364.762,-134.916"/>
<polygon fill="midnightblue" stroke="midnightblue" points="365.725,-131.544 355.13,-131.516 363.395,-138.145 365.725,-131.544"/>
</g>
<!-- Node12 -->
<g id="node13" class="node"><title>Node12</title>
<g id="a_node13"><a xlink:title=" ">
<polygon fill="white" stroke="#bfbfbf" points="609,-112.5 609,-131.5 663,-131.5 663,-112.5 609,-112.5"/>
<text text-anchor="middle" x="636" y="-119.5" font-family="Helvetica,sans-Serif" font-size="10.00">iostream</text>
</a>
</g>
</g>
<!-- Node8&#45;&gt;Node12 -->
<g id="edge14" class="edge"><title>Node8&#45;&gt;Node12</title>
<path fill="none" stroke="midnightblue" d="M508.085,-168.444C533.545,-159.399 573.894,-145.064 602.459,-134.916"/>
<polygon fill="midnightblue" stroke="midnightblue" points="603.777,-138.162 612.028,-131.516 601.433,-131.566 603.777,-138.162"/>
</g>
<!-- Node13 -->
<g id="node14" class="node"><title>Node13</title>
<g id="a_node14"><a xlink:title=" ">
<polygon fill="white" stroke="#bfbfbf" points="681,-112.5 681,-131.5 731,-131.5 731,-112.5 681,-112.5"/>
<text text-anchor="middle" x="706" y="-119.5" font-family="Helvetica,sans-Serif" font-size="10.00">iomanip</text>
</a>
</g>
</g>
<!-- Node8&#45;&gt;Node13 -->
<g id="edge15" class="edge"><title>Node8&#45;&gt;Node13</title>
<path fill="none" stroke="midnightblue" d="M518.022,-169.114C553.738,-160.778 611.772,-147.074 670.887,-132.238"/>
<polygon fill="midnightblue" stroke="midnightblue" points="671.924,-135.587 680.766,-129.751 670.214,-128.799 671.924,-135.587"/>
</g>
<!-- Node9&#45;&gt;Node5 -->
<g id="edge10" class="edge"><title>Node9&#45;&gt;Node5</title>
<path fill="none" stroke="midnightblue" d="M873,-112.083C873,-105.006 873,-94.8611 873,-85.9865"/>
<polygon fill="midnightblue" stroke="midnightblue" points="876.5,-85.751 873,-75.7511 869.5,-85.7511 876.5,-85.751"/>
</g>
<!-- Node10&#45;&gt;Node6 -->
<g id="edge12" class="edge"><title>Node10&#45;&gt;Node6</title>
<path fill="none" stroke="midnightblue" d="M595.211,-56.083C591.242,-48.6913 585.475,-37.9533 580.565,-28.8111"/>
<polygon fill="midnightblue" stroke="midnightblue" points="583.514,-26.9051 575.7,-19.7511 577.347,-30.217 583.514,-26.9051"/>
</g>
<!-- Node15&#45;&gt;Node9 -->
<g id="edge18" class="edge"><title>Node15&#45;&gt;Node9</title>
<path fill="none" stroke="midnightblue" d="M877.248,-224.163C877.542,-211.653 877.89,-188.067 877,-168 876.617,-159.372 875.824,-149.841 875.044,-141.78"/>
<polygon fill="midnightblue" stroke="midnightblue" points="878.502,-141.199 873.994,-131.612 871.539,-141.918 878.502,-141.199"/>
</g>
<!-- Node15&#45;&gt;Node16 -->
<g id="edge19" class="edge"><title>Node15&#45;&gt;Node16</title>
<path fill="none" stroke="midnightblue" d="M909.483,-224.444C945.756,-214.889 1004.44,-199.431 1043.12,-189.241"/>
<polygon fill="midnightblue" stroke="midnightblue" points="1044.21,-192.575 1052.98,-186.643 1042.42,-185.806 1044.21,-192.575"/>
</g>
<!-- Node18 -->
<g id="node19" class="node"><title>Node18</title>
<g id="a_node19"><a xlink:href="i_defines_8h.html" target="_top" xlink:title=" ">
<polygon fill="white" stroke="black" points="756.5,-168.5 756.5,-187.5 815.5,-187.5 815.5,-168.5 756.5,-168.5"/>
<text text-anchor="middle" x="786" y="-175.5" font-family="Helvetica,sans-Serif" font-size="10.00">iDefines.h</text>
</a>
</g>
</g>
<!-- Node15&#45;&gt;Node18 -->
<g id="edge23" class="edge"><title>Node15&#45;&gt;Node18</title>
<path fill="none" stroke="midnightblue" d="M862.379,-224.324C848.051,-215.822 825.987,-202.729 809.251,-192.797"/>
<polygon fill="midnightblue" stroke="midnightblue" points="810.97,-189.748 800.584,-187.655 807.398,-195.768 810.97,-189.748"/>
</g>
<!-- Node19 -->
<g id="node20" class="node"><title>Node19</title>
<g id="a_node20"><a xlink:title=" ">
<polygon fill="white" stroke="#bfbfbf" points="833.5,-168.5 833.5,-187.5 868.5,-187.5 868.5,-168.5 833.5,-168.5"/>
<text text-anchor="middle" x="851" y="-175.5" font-family="Helvetica,sans-Serif" font-size="10.00">map</text>
</a>
</g>
</g>
<!-- Node15&#45;&gt;Node19 -->
<g id="edge25" class="edge"><title>Node15&#45;&gt;Node19</title>
<path fill="none" stroke="midnightblue" d="M872.707,-224.083C869.148,-216.691 863.978,-205.953 859.576,-196.811"/>
<polygon fill="midnightblue" stroke="midnightblue" points="862.705,-195.243 855.213,-187.751 856.398,-198.279 862.705,-195.243"/>
</g>
<!-- Node16&#45;&gt;Node6 -->
<g id="edge20" class="edge"><title>Node16&#45;&gt;Node6</title>
<path fill="none" stroke="midnightblue" d="M1073.31,-168.419C1049.63,-145.633 981.086,-83.4826 911,-56 809.71,-16.2817 679.797,-10.3368 613.725,-10.1876"/>
<polygon fill="midnightblue" stroke="midnightblue" points="613.676,-6.68761 603.683,-10.2091 613.691,-13.6876 613.676,-6.68761"/>
</g>
<!-- Node16&#45;&gt;Node14 -->
<g id="edge22" class="edge"><title>Node16&#45;&gt;Node14</title>
<path fill="none" stroke="midnightblue" d="M1062.51,-168.444C1042.36,-159.596 1010.68,-145.687 987.669,-135.586"/>
<polygon fill="midnightblue" stroke="midnightblue" points="988.962,-132.332 978.399,-131.516 986.148,-138.741 988.962,-132.332"/>
</g>
<!-- Node17 -->
<g id="node18" class="node"><title>Node17</title>
<g id="a_node18"><a xlink:title=" ">
<polygon fill="white" stroke="#bfbfbf" points="463,-112.5 463,-131.5 515,-131.5 515,-112.5 463,-112.5"/>
<text text-anchor="middle" x="489" y="-119.5" font-family="Helvetica,sans-Serif" font-size="10.00">ostream</text>
</a>
</g>
</g>
<!-- Node16&#45;&gt;Node17 -->
<g id="edge21" class="edge"><title>Node16&#45;&gt;Node17</title>
<path fill="none" stroke="midnightblue" d="M1052.7,-169.757C1049.44,-169.095 1046.16,-168.49 1043,-168 1042.2,-167.875 648.509,-135.938 525.366,-125.95"/>
<polygon fill="midnightblue" stroke="midnightblue" points="525.555,-122.453 515.305,-125.133 524.989,-129.431 525.555,-122.453"/>
</g>
<!-- Node18&#45;&gt;Node6 -->
<g id="edge24" class="edge"><title>Node18&#45;&gt;Node6</title>
<path fill="none" stroke="midnightblue" d="M781.32,-168.131C773.925,-154.734 758.465,-129.092 740,-112 697.124,-72.3122 636.161,-40.5957 600.379,-23.8991"/>
<polygon fill="midnightblue" stroke="midnightblue" points="601.54,-20.5807 590.991,-19.594 598.622,-26.9437 601.54,-20.5807"/>
</g>
<!-- Node20&#45;&gt;Node18 -->
<g id="edge27" class="edge"><title>Node20&#45;&gt;Node18</title>
<path fill="none" stroke="midnightblue" d="M749.266,-224.083C755.545,-216.377 764.788,-205.033 772.431,-195.653"/>
<polygon fill="midnightblue" stroke="midnightblue" points="775.266,-197.714 778.869,-187.751 769.839,-193.293 775.266,-197.714"/>
</g>
<!-- Node21 -->
<g id="node22" class="node"><title>Node21</title>
<g id="a_node22"><a xlink:href="i_rectangle_8inl.html" target="_top" xlink:title=" ">
<polygon fill="white" stroke="black" points="663.5,-168.5 663.5,-187.5 738.5,-187.5 738.5,-168.5 663.5,-168.5"/>
<text text-anchor="middle" x="701" y="-175.5" font-family="Helvetica,sans-Serif" font-size="10.00">iRectangle.inl</text>
</a>
</g>
</g>
<!-- Node20&#45;&gt;Node21 -->
<g id="edge28" class="edge"><title>Node20&#45;&gt;Node21</title>
<path fill="none" stroke="midnightblue" d="M735.23,-224.083C729.438,-216.455 720.942,-205.264 713.862,-195.941"/>
<polygon fill="midnightblue" stroke="midnightblue" points="716.479,-193.599 707.644,-187.751 710.904,-197.832 716.479,-193.599"/>
</g>
<!-- Node22&#45;&gt;Node6 -->
<g id="edge30" class="edge"><title>Node22&#45;&gt;Node6</title>
<path fill="none" stroke="midnightblue" d="M432.074,-168.448C464.409,-159.51 510.667,-145.005 524,-132 539.087,-117.285 557.216,-59.4859 565.889,-29.4108"/>
<polygon fill="midnightblue" stroke="midnightblue" points="569.277,-30.2913 568.634,-19.716 562.542,-28.3845 569.277,-30.2913"/>
</g>
<!-- Node22&#45;&gt;Node17 -->
<g id="edge32" class="edge"><title>Node22&#45;&gt;Node17</title>
<path fill="none" stroke="midnightblue" d="M413.46,-168.324C427.5,-159.9 449.048,-146.971 465.543,-137.074"/>
<polygon fill="midnightblue" stroke="midnightblue" points="467.802,-139.801 474.576,-131.655 464.2,-133.798 467.802,-139.801"/>
</g>
<!-- Node23 -->
<g id="node24" class="node"><title>Node23</title>
<g id="a_node24"><a xlink:title=" ">
<polygon fill="white" stroke="#bfbfbf" points="244,-112.5 244,-131.5 288,-131.5 288,-112.5 244,-112.5"/>
<text text-anchor="middle" x="266" y="-119.5" font-family="Helvetica,sans-Serif" font-size="10.00">cmath</text>
</a>
</g>
</g>
<!-- Node22&#45;&gt;Node23 -->
<g id="edge31" class="edge"><title>Node22&#45;&gt;Node23</title>
<path fill="none" stroke="midnightblue" d="M377.926,-168.444C355.94,-159.517 321.266,-145.439 296.336,-135.317"/>
<polygon fill="midnightblue" stroke="midnightblue" points="297.558,-132.035 286.976,-131.516 294.924,-138.521 297.558,-132.035"/>
</g>
<!-- Node24 -->
<g id="node25" class="node"><title>Node24</title>
<g id="a_node25"><a xlink:href="ia_vector2_8inl.html" target="_top" xlink:title=" ">
<polygon fill="white" stroke="black" points="373.5,-112.5 373.5,-131.5 444.5,-131.5 444.5,-112.5 373.5,-112.5"/>
<text text-anchor="middle" x="409" y="-119.5" font-family="Helvetica,sans-Serif" font-size="10.00">iaVector2.inl</text>
</a>
</g>
</g>
<!-- Node22&#45;&gt;Node24 -->
<g id="edge33" class="edge"><title>Node22&#45;&gt;Node24</title>
<path fill="none" stroke="midnightblue" d="M400.651,-168.083C401.976,-160.927 403.882,-150.635 405.539,-141.691"/>
<polygon fill="midnightblue" stroke="midnightblue" points="409,-142.221 407.379,-131.751 402.117,-140.947 409,-142.221"/>
</g>
<!-- Node26&#45;&gt;Node4 -->
<g id="edge36" class="edge"><title>Node26&#45;&gt;Node4</title>
<path fill="none" stroke="midnightblue" d="M902.211,-280.324C913.776,-272.107 931.375,-259.602 945.161,-249.807"/>
<polygon fill="midnightblue" stroke="midnightblue" points="947.443,-252.479 953.567,-243.834 943.388,-246.773 947.443,-252.479"/>
</g>
<!-- Node26&#45;&gt;Node18 -->
<g id="edge37" class="edge"><title>Node26&#45;&gt;Node18</title>
<path fill="none" stroke="midnightblue" d="M873.873,-280.45C859.771,-272.405 839.358,-259.324 825,-244 811.95,-230.072 801.17,-211.063 794.275,-197.2"/>
<polygon fill="midnightblue" stroke="midnightblue" points="797.246,-195.297 789.787,-187.772 790.925,-198.306 797.246,-195.297"/>
</g>
<!-- Node28 -->
<g id="node29" class="node"><title>Node28</title>
<g id="a_node29"><a xlink:href="ia_vector3_8h.html" target="_top" xlink:title=" ">
<polygon fill="white" stroke="black" points="282,-168.5 282,-187.5 348,-187.5 348,-168.5 282,-168.5"/>
<text text-anchor="middle" x="315" y="-175.5" font-family="Helvetica,sans-Serif" font-size="10.00">iaVector3.h</text>
</a>
</g>
</g>
<!-- Node27&#45;&gt;Node28 -->
<g id="edge39" class="edge"><title>Node27&#45;&gt;Node28</title>
<path fill="none" stroke="midnightblue" d="M469.845,-224.444C438.487,-215.241 388.469,-200.562 353.803,-190.388"/>
<polygon fill="midnightblue" stroke="midnightblue" points="354.6,-186.974 344.019,-187.516 352.629,-193.691 354.6,-186.974"/>
</g>
<!-- Node30 -->
<g id="node31" class="node"><title>Node30</title>
<g id="a_node31"><a xlink:href="ia_vector4_8inl.html" target="_top" xlink:title=" ">
<polygon fill="white" stroke="black" points="574.5,-168.5 574.5,-187.5 645.5,-187.5 645.5,-168.5 574.5,-168.5"/>
<text text-anchor="middle" x="610" y="-175.5" font-family="Helvetica,sans-Serif" font-size="10.00">iaVector4.inl</text>
</a>
</g>
</g>
<!-- Node27&#45;&gt;Node30 -->
<g id="edge44" class="edge"><title>Node27&#45;&gt;Node30</title>
<path fill="none" stroke="midnightblue" d="M516.834,-224.324C534.716,-215.625 562.475,-202.12 583.046,-192.113"/>
<polygon fill="midnightblue" stroke="midnightblue" points="584.749,-195.177 592.21,-187.655 581.687,-188.882 584.749,-195.177"/>
</g>
<!-- Node28&#45;&gt;Node6 -->
<g id="edge40" class="edge"><title>Node28&#45;&gt;Node6</title>
<path fill="none" stroke="midnightblue" d="M281.66,-169.273C233.373,-157.926 149.237,-137.504 145,-132 139.578,-124.956 139.487,-118.973 145,-112 192.53,-51.8832 429.505,-23.8066 527.98,-14.595"/>
<polygon fill="midnightblue" stroke="midnightblue" points="528.537,-18.0587 538.177,-13.6626 527.9,-11.0878 528.537,-18.0587"/>
</g>
<!-- Node28&#45;&gt;Node17 -->
<g id="edge42" class="edge"><title>Node28&#45;&gt;Node17</title>
<path fill="none" stroke="midnightblue" d="M342.571,-168.444C372.532,-159.145 420.505,-144.257 453.319,-134.073"/>
<polygon fill="midnightblue" stroke="midnightblue" points="454.466,-137.382 462.979,-131.075 452.391,-130.697 454.466,-137.382"/>
</g>
<!-- Node28&#45;&gt;Node23 -->
<g id="edge41" class="edge"><title>Node28&#45;&gt;Node23</title>
<path fill="none" stroke="midnightblue" d="M306.909,-168.083C299.845,-160.298 289.412,-148.801 280.851,-139.367"/>
<polygon fill="midnightblue" stroke="midnightblue" points="283.253,-136.805 273.941,-131.751 278.069,-141.509 283.253,-136.805"/>
</g>
<!-- Node29 -->
<g id="node30" class="node"><title>Node29</title>
<g id="a_node30"><a xlink:href="ia_vector3_8inl.html" target="_top" xlink:title=" ">
<polygon fill="white" stroke="black" points="154.5,-112.5 154.5,-131.5 225.5,-131.5 225.5,-112.5 154.5,-112.5"/>
<text text-anchor="middle" x="190" y="-119.5" font-family="Helvetica,sans-Serif" font-size="10.00">iaVector3.inl</text>
</a>
</g>
</g>
<!-- Node28&#45;&gt;Node29 -->
<g id="edge43" class="edge"><title>Node28&#45;&gt;Node29</title>
<path fill="none" stroke="midnightblue" d="M295.193,-168.444C274.713,-159.596 242.517,-145.687 219.135,-135.586"/>
<polygon fill="midnightblue" stroke="midnightblue" points="220.282,-132.269 209.714,-131.516 217.506,-138.695 220.282,-132.269"/>
</g>
<!-- Node32&#45;&gt;Node6 -->
<g id="edge49" class="edge"><title>Node32&#45;&gt;Node6</title>
<path fill="none" stroke="midnightblue" d="M280.396,-230.638C226.992,-226.191 128.401,-214.526 107,-188 88.3883,-164.931 122.078,-130.615 137,-112 160.85,-82.2476 167.124,-71.418 202,-56 259.655,-30.5117 444.191,-17.7193 528.39,-13.0886"/>
<polygon fill="midnightblue" stroke="midnightblue" points="528.588,-16.5831 538.386,-12.5514 528.212,-9.5932 528.588,-16.5831"/>
</g>
<!-- Node32&#45;&gt;Node8 -->
<g id="edge55" class="edge"><title>Node32&#45;&gt;Node8</title>
<path fill="none" stroke="midnightblue" d="M341.779,-224.444C370.333,-215.32 415.733,-200.813 447.537,-190.651"/>
<polygon fill="midnightblue" stroke="midnightblue" points="448.886,-193.894 457.347,-187.516 446.756,-187.226 448.886,-193.894"/>
</g>
<!-- Node32&#45;&gt;Node14 -->
<g id="edge56" class="edge"><title>Node32&#45;&gt;Node14</title>
<path fill="none" stroke="midnightblue" d="M349.583,-228.644C392.228,-222.601 466.491,-209.87 527,-188 544.949,-181.513 546.728,-173.513 565,-168 715.979,-122.443 762.283,-156.947 918,-132 921.238,-131.481 924.605,-130.867 927.954,-130.206"/>
<polygon fill="midnightblue" stroke="midnightblue" points="928.742,-133.617 937.808,-128.136 927.302,-126.767 928.742,-133.617"/>
</g>
<!-- Node32&#45;&gt;Node22 -->
<g id="edge54" class="edge"><title>Node32&#45;&gt;Node22</title>
<path fill="none" stroke="midnightblue" d="M328.496,-224.324C341.6,-215.9 361.712,-202.971 377.107,-193.074"/>
<polygon fill="midnightblue" stroke="midnightblue" points="379.018,-196.006 385.537,-187.655 375.233,-190.118 379.018,-196.006"/>
</g>
<!-- Node32&#45;&gt;Node28 -->
<g id="edge53" class="edge"><title>Node32&#45;&gt;Node28</title>
<path fill="none" stroke="midnightblue" d="M315,-224.083C315,-217.006 315,-206.861 315,-197.986"/>
<polygon fill="midnightblue" stroke="midnightblue" points="318.5,-197.751 315,-187.751 311.5,-197.751 318.5,-197.751"/>
</g>
<!-- Node32&#45;&gt;Node33 -->
<g id="edge50" class="edge"><title>Node32&#45;&gt;Node33</title>
<path fill="none" stroke="midnightblue" d="M280.243,-226.704C233.369,-218.168 147.309,-202.341 74,-188 72.7518,-187.756 71.484,-187.506 70.2041,-187.253"/>
<polygon fill="midnightblue" stroke="midnightblue" points="70.7757,-183.798 60.283,-185.265 69.4006,-190.662 70.7757,-183.798"/>
</g>
<!-- Node34 -->
<g id="node35" class="node"><title>Node34</title>
<g id="a_node35"><a xlink:title=" ">
<polygon fill="white" stroke="#bfbfbf" points="116,-168.5 116,-187.5 172,-187.5 172,-168.5 116,-168.5"/>
<text text-anchor="middle" x="144" y="-175.5" font-family="Helvetica,sans-Serif" font-size="10.00">algorithm</text>
</a>
</g>
</g>
<!-- Node32&#45;&gt;Node34 -->
<g id="edge57" class="edge"><title>Node32&#45;&gt;Node34</title>
<path fill="none" stroke="midnightblue" d="M287.905,-224.444C259.012,-215.32 213.075,-200.813 180.895,-190.651"/>
<polygon fill="midnightblue" stroke="midnightblue" points="181.559,-187.19 170.969,-187.516 179.451,-193.865 181.559,-187.19"/>
</g>
<!-- Node35 -->
<g id="node36" class="node"><title>Node35</title>
<g id="a_node36"><a xlink:href="ia_gradient_8inl.html" target="_top" xlink:title=" ">
<polygon fill="white" stroke="black" points="190,-168.5 190,-187.5 264,-187.5 264,-168.5 190,-168.5"/>
<text text-anchor="middle" x="227" y="-175.5" font-family="Helvetica,sans-Serif" font-size="10.00">iaGradient.inl</text>
</a>
</g>
</g>
<!-- Node32&#45;&gt;Node35 -->
<g id="edge58" class="edge"><title>Node32&#45;&gt;Node35</title>
<path fill="none" stroke="midnightblue" d="M300.861,-224.324C287.134,-215.9 266.064,-202.971 249.936,-193.074"/>
<polygon fill="midnightblue" stroke="midnightblue" points="251.457,-189.902 241.104,-187.655 247.796,-195.868 251.457,-189.902"/>
</g>
<!-- Node33&#45;&gt;Node6 -->
<g id="edge51" class="edge"><title>Node33&#45;&gt;Node6</title>
<path fill="none" stroke="midnightblue" d="M30.2044,-168.171C31.2572,-145.324 37.5154,-84.0921 74,-56 109.614,-28.5782 414.078,-16.0438 528.113,-12.2799"/>
<polygon fill="midnightblue" stroke="midnightblue" points="528.341,-15.7745 538.223,-11.9529 528.115,-8.77814 528.341,-15.7745"/>
</g>
<!-- Node33&#45;&gt;Node11 -->
<g id="edge52" class="edge"><title>Node33&#45;&gt;Node11</title>
<path fill="none" stroke="midnightblue" d="M60.2031,-172.833C108.119,-166.022 204.668,-151.492 296.198,-132.001"/>
<polygon fill="midnightblue" stroke="midnightblue" points="297.142,-135.378 306.181,-129.851 295.668,-128.535 297.142,-135.378"/>
</g>
</g>
</svg>
