<?xml version="1.0" encoding="UTF-8" standalone="no"?>
<!DOCTYPE svg PUBLIC "-//W3C//DTD SVG 1.1//EN"
 "http://www.w3.org/Graphics/SVG/1.1/DTD/svg11.dtd">
<!-- Generated by graphviz version 2.38.0 (20140413.2041)
 -->
<!-- Title: C:/dev/Igor/src/Igor/src/iWidgetBaseTheme.h Pages: 1 -->
<svg width="2641pt" height="173pt"
 viewBox="0.00 0.00 2641.00 173.00" xmlns="http://www.w3.org/2000/svg" xmlns:xlink="http://www.w3.org/1999/xlink">
<g id="graph0" class="graph" transform="scale(1 1) rotate(0) translate(4 169)">
<title>C:/dev/Igor/src/Igor/src/iWidgetBaseTheme.h</title>
<polygon fill="white" stroke="none" points="-4,4 -4,-169 2637,-169 2637,4 -4,4"/>
<!-- Node1 -->
<g id="node1" class="node"><title>Node1</title>
<polygon fill="#bfbfbf" stroke="black" points="1224.5,-134.5 1224.5,-164.5 1353.5,-164.5 1353.5,-134.5 1224.5,-134.5"/>
<text text-anchor="start" x="1232.5" y="-152.5" font-family="Helvetica,sans-Serif" font-size="10.00">C:/dev/Igor/src/Igor</text>
<text text-anchor="middle" x="1289" y="-141.5" font-family="Helvetica,sans-Serif" font-size="10.00">/src/iWidgetBaseTheme.h</text>
</g>
<!-- Node2 -->
<g id="node2" class="node"><title>Node2</title>
<g id="a_node2"><a xlink:href="i_dialog_8cpp.html" target="_top" xlink:title="C:/dev/Igor/src/Igor\l/src/iDialog.cpp">
<polygon fill="white" stroke="black" points="0,-67.5 0,-97.5 98,-97.5 98,-67.5 0,-67.5"/>
<text text-anchor="start" x="8" y="-85.5" font-family="Helvetica,sans-Serif" font-size="10.00">C:/dev/Igor/src/Igor</text>
<text text-anchor="middle" x="49" y="-74.5" font-family="Helvetica,sans-Serif" font-size="10.00">/src/iDialog.cpp</text>
</a>
</g>
</g>
<!-- Node1&#45;&gt;Node2 -->
<g id="edge1" class="edge"><title>Node1&#45;&gt;Node2</title>
<path fill="none" stroke="midnightblue" d="M1214.15,-147.282C989.291,-143.31 322.087,-129.153 107,-98 104.124,-97.5834 101.183,-97.0845 98.2259,-96.5262"/>
<polygon fill="midnightblue" stroke="midnightblue" points="1214.14,-150.782 1224.2,-147.458 1214.26,-143.783 1214.14,-150.782"/>
</g>
<!-- Node3 -->
<g id="node3" class="node"><title>Node3</title>
<g id="a_node3"><a xlink:href="i_widget_8cpp.html" target="_top" xlink:title="C:/dev/Igor/src/Igor\l/src/iWidget.cpp">
<polygon fill="white" stroke="black" points="116,-67.5 116,-97.5 214,-97.5 214,-67.5 116,-67.5"/>
<text text-anchor="start" x="124" y="-85.5" font-family="Helvetica,sans-Serif" font-size="10.00">C:/dev/Igor/src/Igor</text>
<text text-anchor="middle" x="165" y="-74.5" font-family="Helvetica,sans-Serif" font-size="10.00">/src/iWidget.cpp</text>
</a>
</g>
</g>
<!-- Node1&#45;&gt;Node3 -->
<g id="edge2" class="edge"><title>Node1&#45;&gt;Node3</title>
<path fill="none" stroke="midnightblue" d="M1214.06,-146.876C1004.38,-142.027 414.637,-126.211 223,-98 220.125,-97.5767 217.185,-97.0726 214.228,-96.5104"/>
<polygon fill="midnightblue" stroke="midnightblue" points="1214.27,-150.382 1224.35,-147.113 1214.43,-143.384 1214.27,-150.382"/>
</g>
<!-- Node4 -->
<g id="node4" class="node"><title>Node4</title>
<g id="a_node4"><a xlink:href="i_widget_button_8cpp.html" target="_top" xlink:title="C:/dev/Igor/src/Igor\l/src/iWidgetButton.cpp">
<polygon fill="white" stroke="black" points="232,-67.5 232,-97.5 348,-97.5 348,-67.5 232,-67.5"/>
<text text-anchor="start" x="240" y="-85.5" font-family="Helvetica,sans-Serif" font-size="10.00">C:/dev/Igor/src/Igor</text>
<text text-anchor="middle" x="290" y="-74.5" font-family="Helvetica,sans-Serif" font-size="10.00">/src/iWidgetButton.cpp</text>
</a>
</g>
</g>
<!-- Node1&#45;&gt;Node4 -->
<g id="edge3" class="edge"><title>Node1&#45;&gt;Node4</title>
<path fill="none" stroke="midnightblue" d="M1214.22,-148.387C1055.68,-147.284 674.377,-140.051 358,-98 354.769,-97.5706 351.464,-97.0705 348.135,-96.5193"/>
<polygon fill="midnightblue" stroke="midnightblue" points="1214.32,-151.888 1224.34,-148.451 1214.36,-144.888 1214.32,-151.888"/>
</g>
<!-- Node5 -->
<g id="node5" class="node"><title>Node5</title>
<g id="a_node5"><a xlink:href="i_widget_check_box_8cpp.html" target="_top" xlink:title="C:/dev/Igor/src/Igor\l/src/iWidgetCheckBox.cpp">
<polygon fill="white" stroke="black" points="366.5,-67.5 366.5,-97.5 499.5,-97.5 499.5,-67.5 366.5,-67.5"/>
<text text-anchor="start" x="374.5" y="-85.5" font-family="Helvetica,sans-Serif" font-size="10.00">C:/dev/Igor/src/Igor</text>
<text text-anchor="middle" x="433" y="-74.5" font-family="Helvetica,sans-Serif" font-size="10.00">/src/iWidgetCheckBox.cpp</text>
</a>
</g>
</g>
<!-- Node1&#45;&gt;Node5 -->
<g id="edge4" class="edge"><title>Node1&#45;&gt;Node5</title>
<path fill="none" stroke="midnightblue" d="M1214.14,-146.736C1074.84,-142.77 766.567,-130.78 509,-98 505.935,-97.61 502.808,-97.173 499.653,-96.7006"/>
<polygon fill="midnightblue" stroke="midnightblue" points="1214.19,-150.239 1224.28,-147.019 1214.38,-143.241 1214.19,-150.239"/>
</g>
<!-- Node6 -->
<g id="node6" class="node"><title>Node6</title>
<g id="a_node6"><a xlink:href="i_widget_color_8cpp.html" target="_top" xlink:title="C:/dev/Igor/src/Igor\l/src/iWidgetColor.cpp">
<polygon fill="white" stroke="black" points="518,-67.5 518,-97.5 628,-97.5 628,-67.5 518,-67.5"/>
<text text-anchor="start" x="526" y="-85.5" font-family="Helvetica,sans-Serif" font-size="10.00">C:/dev/Igor/src/Igor</text>
<text text-anchor="middle" x="573" y="-74.5" font-family="Helvetica,sans-Serif" font-size="10.00">/src/iWidgetColor.cpp</text>
</a>
</g>
</g>
<!-- Node1&#45;&gt;Node6 -->
<g id="edge5" class="edge"><title>Node1&#45;&gt;Node6</title>
<path fill="none" stroke="midnightblue" d="M1214.14,-146.149C1092.65,-141.559 845.255,-128.995 638,-98 634.798,-97.5212 631.519,-96.9736 628.218,-96.3781"/>
<polygon fill="midnightblue" stroke="midnightblue" points="1214.32,-149.658 1224.44,-146.53 1214.58,-142.662 1214.32,-149.658"/>
</g>
<!-- Node7 -->
<g id="node7" class="node"><title>Node7</title>
<g id="a_node7"><a xlink:href="i_widget_color_gradient_8cpp.html" target="_top" xlink:title="C:/dev/Igor/src/Igor\l/src/iWidgetColorGradient.cpp">
<polygon fill="white" stroke="black" points="646.5,-67.5 646.5,-97.5 793.5,-97.5 793.5,-67.5 646.5,-67.5"/>
<text text-anchor="start" x="654.5" y="-85.5" font-family="Helvetica,sans-Serif" font-size="10.00">C:/dev/Igor/src/Igor</text>
<text text-anchor="middle" x="720" y="-74.5" font-family="Helvetica,sans-Serif" font-size="10.00">/src/iWidgetColorGradient.cpp</text>
</a>
</g>
</g>
<!-- Node1&#45;&gt;Node7 -->
<g id="edge6" class="edge"><title>Node1&#45;&gt;Node7</title>
<path fill="none" stroke="midnightblue" d="M1214.22,-142.353C1118.62,-134.122 948.108,-118.189 803,-98 799.957,-97.5767 796.856,-97.1252 793.724,-96.6531"/>
<polygon fill="midnightblue" stroke="midnightblue" points="1214.1,-145.855 1224.36,-143.221 1214.7,-138.881 1214.1,-145.855"/>
</g>
<!-- Node8 -->
<g id="node8" class="node"><title>Node8</title>
<g id="a_node8"><a xlink:href="i_widget_default_theme_8h.html" target="_top" xlink:title="C:/dev/Igor/src/Igor\l/src/iWidgetDefaultTheme.h">
<polygon fill="white" stroke="black" points="811.5,-67.5 811.5,-97.5 948.5,-97.5 948.5,-67.5 811.5,-67.5"/>
<text text-anchor="start" x="819.5" y="-85.5" font-family="Helvetica,sans-Serif" font-size="10.00">C:/dev/Igor/src/Igor</text>
<text text-anchor="middle" x="880" y="-74.5" font-family="Helvetica,sans-Serif" font-size="10.00">/src/iWidgetDefaultTheme.h</text>
</a>
</g>
</g>
<!-- Node1&#45;&gt;Node8 -->
<g id="edge7" class="edge"><title>Node1&#45;&gt;Node8</title>
<path fill="none" stroke="midnightblue" d="M1214.14,-137.785C1146.98,-128.004 1045.77,-112.85 958,-98 955.012,-97.4945 951.962,-96.9688 948.882,-96.4301"/>
<polygon fill="midnightblue" stroke="midnightblue" points="1213.81,-141.274 1224.21,-139.248 1214.81,-134.346 1213.81,-141.274"/>
</g>
<!-- Node11 -->
<g id="node11" class="node"><title>Node11</title>
<g id="a_node11"><a xlink:href="i_widget_graph_8cpp.html" target="_top" xlink:title="C:/dev/Igor/src/Igor\l/src/iWidgetGraph.cpp">
<polygon fill="white" stroke="black" points="967,-67.5 967,-97.5 1081,-97.5 1081,-67.5 967,-67.5"/>
<text text-anchor="start" x="975" y="-85.5" font-family="Helvetica,sans-Serif" font-size="10.00">C:/dev/Igor/src/Igor</text>
<text text-anchor="middle" x="1024" y="-74.5" font-family="Helvetica,sans-Serif" font-size="10.00">/src/iWidgetGraph.cpp</text>
</a>
</g>
</g>
<!-- Node1&#45;&gt;Node11 -->
<g id="edge10" class="edge"><title>Node1&#45;&gt;Node11</title>
<path fill="none" stroke="midnightblue" d="M1221.91,-132.043C1178.43,-121.378 1122.41,-107.638 1081.07,-97.4989"/>
<polygon fill="midnightblue" stroke="midnightblue" points="1221.28,-135.493 1231.83,-134.476 1222.95,-128.694 1221.28,-135.493"/>
</g>
<!-- Node12 -->
<g id="node12" class="node"><title>Node12</title>
<g id="a_node12"><a xlink:href="i_widget_grid_8cpp.html" target="_top" xlink:title="C:/dev/Igor/src/Igor\l/src/iWidgetGrid.cpp">
<polygon fill="white" stroke="black" points="1099,-67.5 1099,-97.5 1205,-97.5 1205,-67.5 1099,-67.5"/>
<text text-anchor="start" x="1107" y="-85.5" font-family="Helvetica,sans-Serif" font-size="10.00">C:/dev/Igor/src/Igor</text>
<text text-anchor="middle" x="1152" y="-74.5" font-family="Helvetica,sans-Serif" font-size="10.00">/src/iWidgetGrid.cpp</text>
</a>
</g>
</g>
<!-- Node1&#45;&gt;Node12 -->
<g id="edge11" class="edge"><title>Node1&#45;&gt;Node12</title>
<path fill="none" stroke="midnightblue" d="M1249.99,-129.992C1228.28,-119.689 1201.67,-107.068 1181.67,-97.5765"/>
<polygon fill="midnightblue" stroke="midnightblue" points="1248.74,-133.272 1259.27,-134.396 1251.74,-126.947 1248.74,-133.272"/>
</g>
<!-- Node13 -->
<g id="node13" class="node"><title>Node13</title>
<g id="a_node13"><a xlink:href="i_widget_group_box_8cpp.html" target="_top" xlink:title="C:/dev/Igor/src/Igor\l/src/iWidgetGroupBox.cpp">
<polygon fill="white" stroke="black" points="1223.5,-67.5 1223.5,-97.5 1354.5,-97.5 1354.5,-67.5 1223.5,-67.5"/>
<text text-anchor="start" x="1231.5" y="-85.5" font-family="Helvetica,sans-Serif" font-size="10.00">C:/dev/Igor/src/Igor</text>
<text text-anchor="middle" x="1289" y="-74.5" font-family="Helvetica,sans-Serif" font-size="10.00">/src/iWidgetGroupBox.cpp</text>
</a>
</g>
</g>
<!-- Node1&#45;&gt;Node13 -->
<g id="edge12" class="edge"><title>Node1&#45;&gt;Node13</title>
<path fill="none" stroke="midnightblue" d="M1289,-124.108C1289,-115.154 1289,-105.323 1289,-97.5765"/>
<polygon fill="midnightblue" stroke="midnightblue" points="1285.5,-124.396 1289,-134.396 1292.5,-124.396 1285.5,-124.396"/>
</g>
<!-- Node14 -->
<g id="node14" class="node"><title>Node14</title>
<g id="a_node14"><a xlink:href="i_widget_label_8cpp.html" target="_top" xlink:title="C:/dev/Igor/src/Igor\l/src/iWidgetLabel.cpp">
<polygon fill="white" stroke="black" points="1372.5,-67.5 1372.5,-97.5 1483.5,-97.5 1483.5,-67.5 1372.5,-67.5"/>
<text text-anchor="start" x="1380.5" y="-85.5" font-family="Helvetica,sans-Serif" font-size="10.00">C:/dev/Igor/src/Igor</text>
<text text-anchor="middle" x="1428" y="-74.5" font-family="Helvetica,sans-Serif" font-size="10.00">/src/iWidgetLabel.cpp</text>
</a>
</g>
</g>
<!-- Node1&#45;&gt;Node14 -->
<g id="edge13" class="edge"><title>Node1&#45;&gt;Node14</title>
<path fill="none" stroke="midnightblue" d="M1328.28,-130.131C1350.37,-119.802 1377.51,-107.11 1397.9,-97.5765"/>
<polygon fill="midnightblue" stroke="midnightblue" points="1326.74,-126.989 1319.16,-134.396 1329.7,-133.33 1326.74,-126.989"/>
</g>
<!-- Node15 -->
<g id="node15" class="node"><title>Node15</title>
<g id="a_node15"><a xlink:href="i_widget_manager_8cpp.html" target="_top" xlink:title="C:/dev/Igor/src/Igor\l/src/iWidgetManager.cpp">
<polygon fill="white" stroke="black" points="1501.5,-67.5 1501.5,-97.5 1626.5,-97.5 1626.5,-67.5 1501.5,-67.5"/>
<text text-anchor="start" x="1509.5" y="-85.5" font-family="Helvetica,sans-Serif" font-size="10.00">C:/dev/Igor/src/Igor</text>
<text text-anchor="middle" x="1564" y="-74.5" font-family="Helvetica,sans-Serif" font-size="10.00">/src/iWidgetManager.cpp</text>
</a>
</g>
</g>
<!-- Node1&#45;&gt;Node15 -->
<g id="edge14" class="edge"><title>Node1&#45;&gt;Node15</title>
<path fill="none" stroke="midnightblue" d="M1358.31,-132.119C1403.3,-121.483 1461.35,-107.763 1504.3,-97.6109"/>
<polygon fill="midnightblue" stroke="midnightblue" points="1357.26,-128.77 1348.33,-134.476 1358.87,-135.582 1357.26,-128.77"/>
</g>
<!-- Node16 -->
<g id="node16" class="node"><title>Node16</title>
<g id="a_node16"><a xlink:href="i_widget_number_chooser_8cpp.html" target="_top" xlink:title="C:/dev/Igor/src/Igor\l/src/iWidgetNumberChooser.cpp">
<polygon fill="white" stroke="black" points="1645,-67.5 1645,-97.5 1803,-97.5 1803,-67.5 1645,-67.5"/>
<text text-anchor="start" x="1653" y="-85.5" font-family="Helvetica,sans-Serif" font-size="10.00">C:/dev/Igor/src/Igor</text>
<text text-anchor="middle" x="1724" y="-74.5" font-family="Helvetica,sans-Serif" font-size="10.00">/src/iWidgetNumberChooser.cpp</text>
</a>
</g>
</g>
<!-- Node1&#45;&gt;Node16 -->
<g id="edge15" class="edge"><title>Node1&#45;&gt;Node16</title>
<path fill="none" stroke="midnightblue" d="M1363.74,-138.036C1434.06,-128.094 1542.25,-112.544 1636,-98 1638.91,-97.549 1641.87,-97.0851 1644.86,-96.6126"/>
<polygon fill="midnightblue" stroke="midnightblue" points="1363.06,-134.598 1353.65,-139.462 1364.04,-141.529 1363.06,-134.598"/>
</g>
<!-- Node17 -->
<g id="node17" class="node"><title>Node17</title>
<g id="a_node17"><a xlink:href="i_widget_picture_8cpp.html" target="_top" xlink:title="C:/dev/Igor/src/Igor\l/src/iWidgetPicture.cpp">
<polygon fill="white" stroke="black" points="1821.5,-67.5 1821.5,-97.5 1940.5,-97.5 1940.5,-67.5 1821.5,-67.5"/>
<text text-anchor="start" x="1829.5" y="-85.5" font-family="Helvetica,sans-Serif" font-size="10.00">C:/dev/Igor/src/Igor</text>
<text text-anchor="middle" x="1881" y="-74.5" font-family="Helvetica,sans-Serif" font-size="10.00">/src/iWidgetPicture.cpp</text>
</a>
</g>
</g>
<!-- Node1&#45;&gt;Node17 -->
<g id="edge16" class="edge"><title>Node1&#45;&gt;Node17</title>
<path fill="none" stroke="midnightblue" d="M1363.88,-143.89C1465.7,-137.025 1653.33,-122.255 1812,-98 1815.03,-97.5376 1818.12,-97.0272 1821.23,-96.4826"/>
<polygon fill="midnightblue" stroke="midnightblue" points="1363.44,-140.411 1353.7,-144.569 1363.91,-147.396 1363.44,-140.411"/>
</g>
<!-- Node18 -->
<g id="node18" class="node"><title>Node18</title>
<g id="a_node18"><a xlink:href="i_widget_scroll_8cpp.html" target="_top" xlink:title="C:/dev/Igor/src/Igor\l/src/iWidgetScroll.cpp">
<polygon fill="white" stroke="black" points="1958.5,-67.5 1958.5,-97.5 2071.5,-97.5 2071.5,-67.5 1958.5,-67.5"/>
<text text-anchor="start" x="1966.5" y="-85.5" font-family="Helvetica,sans-Serif" font-size="10.00">C:/dev/Igor/src/Igor</text>
<text text-anchor="middle" x="2015" y="-74.5" font-family="Helvetica,sans-Serif" font-size="10.00">/src/iWidgetScroll.cpp</text>
</a>
</g>
</g>
<!-- Node1&#45;&gt;Node18 -->
<g id="edge17" class="edge"><title>Node1&#45;&gt;Node18</title>
<path fill="none" stroke="midnightblue" d="M1363.67,-146.279C1486.54,-141.844 1738.8,-129.46 1950,-98 1952.74,-97.5912 1955.55,-97.1316 1958.37,-96.6343"/>
<polygon fill="midnightblue" stroke="midnightblue" points="1363.49,-142.783 1353.62,-146.634 1363.73,-149.778 1363.49,-142.783"/>
</g>
<!-- Node19 -->
<g id="node19" class="node"><title>Node19</title>
<g id="a_node19"><a xlink:href="i_widget_select_box_8cpp.html" target="_top" xlink:title="C:/dev/Igor/src/Igor\l/src/iWidgetSelectBox.cpp">
<polygon fill="white" stroke="black" points="2089.5,-67.5 2089.5,-97.5 2222.5,-97.5 2222.5,-67.5 2089.5,-67.5"/>
<text text-anchor="start" x="2097.5" y="-85.5" font-family="Helvetica,sans-Serif" font-size="10.00">C:/dev/Igor/src/Igor</text>
<text text-anchor="middle" x="2156" y="-74.5" font-family="Helvetica,sans-Serif" font-size="10.00">/src/iWidgetSelectBox.cpp</text>
</a>
</g>
</g>
<!-- Node1&#45;&gt;Node19 -->
<g id="edge18" class="edge"><title>Node1&#45;&gt;Node19</title>
<path fill="none" stroke="midnightblue" d="M1363.94,-146.898C1504.88,-143.181 1818.85,-131.561 2081,-98 2083.76,-97.6464 2086.58,-97.2532 2089.41,-96.8293"/>
<polygon fill="midnightblue" stroke="midnightblue" points="1363.59,-143.405 1353.68,-147.162 1363.77,-150.403 1363.59,-143.405"/>
</g>
<!-- Node20 -->
<g id="node20" class="node"><title>Node20</title>
<g id="a_node20"><a xlink:href="i_widget_slider_8cpp.html" target="_top" xlink:title="C:/dev/Igor/src/Igor\l/src/iWidgetSlider.cpp">
<polygon fill="white" stroke="black" points="2240.5,-67.5 2240.5,-97.5 2353.5,-97.5 2353.5,-67.5 2240.5,-67.5"/>
<text text-anchor="start" x="2248.5" y="-85.5" font-family="Helvetica,sans-Serif" font-size="10.00">C:/dev/Igor/src/Igor</text>
<text text-anchor="middle" x="2297" y="-74.5" font-family="Helvetica,sans-Serif" font-size="10.00">/src/iWidgetSlider.cpp</text>
</a>
</g>
</g>
<!-- Node1&#45;&gt;Node20 -->
<g id="edge19" class="edge"><title>Node1&#45;&gt;Node20</title>
<path fill="none" stroke="midnightblue" d="M1363.88,-148.697C1523.98,-148.196 1911.15,-142.068 2232,-98 2234.75,-97.6224 2237.55,-97.1882 2240.38,-96.7113"/>
<polygon fill="midnightblue" stroke="midnightblue" points="1363.65,-145.197 1353.66,-148.722 1363.67,-152.197 1363.65,-145.197"/>
</g>
<!-- Node21 -->
<g id="node21" class="node"><title>Node21</title>
<g id="a_node21"><a xlink:href="i_widget_spacer_8cpp.html" target="_top" xlink:title="C:/dev/Igor/src/Igor\l/src/iWidgetSpacer.cpp">
<polygon fill="white" stroke="black" points="2371.5,-67.5 2371.5,-97.5 2490.5,-97.5 2490.5,-67.5 2371.5,-67.5"/>
<text text-anchor="start" x="2379.5" y="-85.5" font-family="Helvetica,sans-Serif" font-size="10.00">C:/dev/Igor/src/Igor</text>
<text text-anchor="middle" x="2431" y="-74.5" font-family="Helvetica,sans-Serif" font-size="10.00">/src/iWidgetSpacer.cpp</text>
</a>
</g>
</g>
<!-- Node1&#45;&gt;Node21 -->
<g id="edge20" class="edge"><title>Node1&#45;&gt;Node21</title>
<path fill="none" stroke="midnightblue" d="M1363.94,-149.165C1539.4,-149.81 1990.23,-146.181 2363,-98 2365.75,-97.6441 2368.56,-97.2351 2371.39,-96.7855"/>
<polygon fill="midnightblue" stroke="midnightblue" points="1363.8,-145.664 1353.79,-149.122 1363.77,-152.664 1363.8,-145.664"/>
</g>
<!-- Node22 -->
<g id="node22" class="node"><title>Node22</title>
<g id="a_node22"><a xlink:href="i_widget_text_edit_8cpp.html" target="_top" xlink:title="C:/dev/Igor/src/Igor\l/src/iWidgetTextEdit.cpp">
<polygon fill="white" stroke="black" points="2509,-67.5 2509,-97.5 2633,-97.5 2633,-67.5 2509,-67.5"/>
<text text-anchor="start" x="2517" y="-85.5" font-family="Helvetica,sans-Serif" font-size="10.00">C:/dev/Igor/src/Igor</text>
<text text-anchor="middle" x="2571" y="-74.5" font-family="Helvetica,sans-Serif" font-size="10.00">/src/iWidgetTextEdit.cpp</text>
</a>
</g>
</g>
<!-- Node1&#45;&gt;Node22 -->
<g id="edge21" class="edge"><title>Node1&#45;&gt;Node22</title>
<path fill="none" stroke="midnightblue" d="M1364.03,-146.943C1592.66,-141.949 2278.47,-125.063 2500,-98 2502.87,-97.6491 2505.8,-97.2442 2508.75,-96.7979"/>
<polygon fill="midnightblue" stroke="midnightblue" points="1363.74,-143.448 1353.82,-147.164 1363.89,-150.446 1363.74,-143.448"/>
</g>
<!-- Node9 -->
<g id="node9" class="node"><title>Node9</title>
<g id="a_node9"><a xlink:href="i_widget_default_theme_8cpp.html" target="_top" xlink:title="C:/dev/Igor/src/Igor\l/src/iWidgetDefaultTheme.cpp">
<polygon fill="white" stroke="black" points="718.5,-0.5 718.5,-30.5 865.5,-30.5 865.5,-0.5 718.5,-0.5"/>
<text text-anchor="start" x="726.5" y="-18.5" font-family="Helvetica,sans-Serif" font-size="10.00">C:/dev/Igor/src/Igor</text>
<text text-anchor="middle" x="792" y="-7.5" font-family="Helvetica,sans-Serif" font-size="10.00">/src/iWidgetDefaultTheme.cpp</text>
</a>
</g>
</g>
<!-- Node8&#45;&gt;Node9 -->
<g id="edge8" class="edge"><title>Node8&#45;&gt;Node9</title>
<path fill="none" stroke="midnightblue" d="M852.857,-61.4511C839.319,-51.4517 823.273,-39.5995 811.057,-30.5765"/>
<polygon fill="midnightblue" stroke="midnightblue" points="850.782,-64.2699 860.905,-67.396 854.941,-58.6393 850.782,-64.2699"/>
</g>
<!-- Node10 -->
<g id="node10" class="node"><title>Node10</title>
<g id="a_node10"><a xlink:href="_model_viewer_8cpp.html" target="_top" xlink:title="C:/dev/Igor/src/Tools\l/ModelViewer/src/ModelViewer.cpp">
<polygon fill="white" stroke="black" points="883.5,-0.5 883.5,-30.5 1052.5,-30.5 1052.5,-0.5 883.5,-0.5"/>
<text text-anchor="start" x="891.5" y="-18.5" font-family="Helvetica,sans-Serif" font-size="10.00">C:/dev/Igor/src/Tools</text>
<text text-anchor="middle" x="968" y="-7.5" font-family="Helvetica,sans-Serif" font-size="10.00">/ModelViewer/src/ModelViewer.cpp</text>
</a>
</g>
</g>
<!-- Node8&#45;&gt;Node10 -->
<g id="edge9" class="edge"><title>Node8&#45;&gt;Node10</title>
<path fill="none" stroke="midnightblue" d="M907.143,-61.4511C920.681,-51.4517 936.727,-39.5995 948.943,-30.5765"/>
<polygon fill="midnightblue" stroke="midnightblue" points="905.059,-58.6393 899.095,-67.396 909.218,-64.2699 905.059,-58.6393"/>
</g>
</g>
</svg>
