<?xml version="1.0" encoding="UTF-8" standalone="no"?>
<!DOCTYPE svg PUBLIC "-//W3C//DTD SVG 1.1//EN"
 "http://www.w3.org/Graphics/SVG/1.1/DTD/svg11.dtd">
<!-- Generated by graphviz version 2.38.0 (20140413.2041)
 -->
<!-- Title: C:/dev/Igor/Igor/src/Igor/src/iWidgetScroll.h Pages: 1 -->
<svg width="1095pt" height="431pt"
 viewBox="0.00 0.00 1095.00 431.00" xmlns="http://www.w3.org/2000/svg" xmlns:xlink="http://www.w3.org/1999/xlink">
<g id="graph0" class="graph" transform="scale(1 1) rotate(0) translate(4 427)">
<title>C:/dev/Igor/Igor/src/Igor/src/iWidgetScroll.h</title>
<polygon fill="white" stroke="none" points="-4,4 -4,-427 1091,-427 1091,4 -4,4"/>
<!-- Node0 -->
<g id="node1" class="node"><title>Node0</title>
<g id="a_node1"><a xlink:title=" ">
<polygon fill="#bfbfbf" stroke="black" points="516.5,-392.5 516.5,-422.5 637.5,-422.5 637.5,-392.5 516.5,-392.5"/>
<text text-anchor="start" x="524.5" y="-410.5" font-family="Helvetica,sans-Serif" font-size="10.00">C:/dev/Igor/Igor/src</text>
<text text-anchor="middle" x="577" y="-399.5" font-family="Helvetica,sans-Serif" font-size="10.00">/Igor/src/iWidgetScroll.h</text>
</a>
</g>
</g>
<!-- Node1 -->
<g id="node2" class="node"><title>Node1</title>
<g id="a_node2"><a xlink:href="i_widget_8h.html" target="_top" xlink:title=" ">
<polygon fill="white" stroke="black" points="431,-336.5 431,-355.5 489,-355.5 489,-336.5 431,-336.5"/>
<text text-anchor="middle" x="460" y="-343.5" font-family="Helvetica,sans-Serif" font-size="10.00">iWidget.h</text>
</a>
</g>
</g>
<!-- Node0&#45;&gt;Node1 -->
<g id="edge1" class="edge"><title>Node0&#45;&gt;Node1</title>
<path fill="none" stroke="midnightblue" d="M549.273,-392.399C530.168,-382.684 504.942,-369.855 486.18,-360.314"/>
<polygon fill="midnightblue" stroke="midnightblue" points="487.525,-357.071 477.025,-355.658 484.352,-363.311 487.525,-357.071"/>
</g>
<!-- Node31 -->
<g id="node32" class="node"><title>Node31</title>
<g id="a_node32"><a xlink:href="ia_matrix_8h.html" target="_top" xlink:title=" ">
<polygon fill="white" stroke="black" points="805.5,-280.5 805.5,-299.5 864.5,-299.5 864.5,-280.5 805.5,-280.5"/>
<text text-anchor="middle" x="835" y="-287.5" font-family="Helvetica,sans-Serif" font-size="10.00">iaMatrix.h</text>
</a>
</g>
</g>
<!-- Node0&#45;&gt;Node31 -->
<g id="edge46" class="edge"><title>Node0&#45;&gt;Node31</title>
<path fill="none" stroke="midnightblue" d="M608.378,-392.453C659.009,-369.786 757.959,-325.489 806.612,-303.709"/>
<polygon fill="midnightblue" stroke="midnightblue" points="808.222,-306.823 815.919,-299.542 805.361,-300.434 808.222,-306.823"/>
</g>
<!-- Node2 -->
<g id="node3" class="node"><title>Node2</title>
<g id="a_node3"><a xlink:href="i_mouse_8h.html" target="_top" xlink:title=" ">
<polygon fill="white" stroke="black" points="471,-280.5 471,-299.5 527,-299.5 527,-280.5 471,-280.5"/>
<text text-anchor="middle" x="499" y="-287.5" font-family="Helvetica,sans-Serif" font-size="10.00">iMouse.h</text>
</a>
</g>
</g>
<!-- Node1&#45;&gt;Node2 -->
<g id="edge2" class="edge"><title>Node1&#45;&gt;Node2</title>
<path fill="none" stroke="midnightblue" d="M466.44,-336.083C471.949,-328.455 480.031,-317.264 486.765,-307.941"/>
<polygon fill="midnightblue" stroke="midnightblue" points="489.662,-309.907 492.68,-299.751 483.987,-305.809 489.662,-309.907"/>
</g>
<!-- Node13 -->
<g id="node14" class="node"><title>Node13</title>
<g id="a_node14"><a xlink:title=" ">
<polygon fill="white" stroke="#bfbfbf" points="0,-112.5 0,-131.5 42,-131.5 42,-112.5 0,-112.5"/>
<text text-anchor="middle" x="21" y="-119.5" font-family="Helvetica,sans-Serif" font-size="10.00">vector</text>
</a>
</g>
</g>
<!-- Node1&#45;&gt;Node13 -->
<g id="edge44" class="edge"><title>Node1&#45;&gt;Node13</title>
<path fill="none" stroke="midnightblue" d="M430.702,-338.781C395.161,-330.966 333.597,-316.553 282,-300 217.007,-279.15 200.822,-272.929 139,-244 92.1585,-222.081 68.5047,-229.012 37,-188 26.823,-174.752 23.0303,-155.887 21.6609,-141.89"/>
<polygon fill="midnightblue" stroke="midnightblue" points="25.128,-141.263 20.9937,-131.508 18.1424,-141.712 25.128,-141.263"/>
</g>
<!-- Node25 -->
<g id="node26" class="node"><title>Node25</title>
<g id="a_node26"><a xlink:href="i_timer_handle_8h.html" target="_top" xlink:title=" ">
<polygon fill="white" stroke="black" points="291.5,-280.5 291.5,-299.5 372.5,-299.5 372.5,-280.5 291.5,-280.5"/>
<text text-anchor="middle" x="332" y="-287.5" font-family="Helvetica,sans-Serif" font-size="10.00">iTimerHandle.h</text>
</a>
</g>
</g>
<!-- Node1&#45;&gt;Node25 -->
<g id="edge34" class="edge"><title>Node1&#45;&gt;Node25</title>
<path fill="none" stroke="midnightblue" d="M439.718,-336.444C418.653,-327.557 385.483,-313.563 361.514,-303.451"/>
<polygon fill="midnightblue" stroke="midnightblue" points="362.761,-300.179 352.187,-299.516 360.04,-306.628 362.761,-300.179"/>
</g>
<!-- Node26 -->
<g id="node27" class="node"><title>Node26</title>
<g id="a_node27"><a xlink:href="ia_vector4_8h.html" target="_top" xlink:title=" ">
<polygon fill="white" stroke="black" points="739,-224.5 739,-243.5 805,-243.5 805,-224.5 739,-224.5"/>
<text text-anchor="middle" x="772" y="-231.5" font-family="Helvetica,sans-Serif" font-size="10.00">iaVector4.h</text>
</a>
</g>
</g>
<!-- Node1&#45;&gt;Node26 -->
<g id="edge37" class="edge"><title>Node1&#45;&gt;Node26</title>
<path fill="none" stroke="midnightblue" d="M484.222,-336.46C539.4,-317.006 674.556,-269.355 738.029,-246.977"/>
<polygon fill="midnightblue" stroke="midnightblue" points="739.311,-250.236 747.578,-243.61 736.983,-243.635 739.311,-250.236"/>
</g>
<!-- Node30 -->
<g id="node31" class="node"><title>Node30</title>
<g id="a_node31"><a xlink:href="i_widget_8inl.html" target="_top" xlink:title=" ">
<polygon fill="white" stroke="black" points="391,-280.5 391,-299.5 453,-299.5 453,-280.5 391,-280.5"/>
<text text-anchor="middle" x="422" y="-287.5" font-family="Helvetica,sans-Serif" font-size="10.00">iWidget.inl</text>
</a>
</g>
</g>
<!-- Node1&#45;&gt;Node30 -->
<g id="edge45" class="edge"><title>Node1&#45;&gt;Node30</title>
<path fill="none" stroke="midnightblue" d="M453.725,-336.083C448.358,-328.455 440.482,-317.264 433.921,-307.941"/>
<polygon fill="midnightblue" stroke="midnightblue" points="436.775,-305.915 428.158,-299.751 431.051,-309.943 436.775,-305.915"/>
</g>
<!-- Node3 -->
<g id="node4" class="node"><title>Node3</title>
<g id="a_node4"><a xlink:href="ia_event_8h.html" target="_top" xlink:title=" ">
<polygon fill="white" stroke="black" points="148,-224.5 148,-243.5 204,-243.5 204,-224.5 148,-224.5"/>
<text text-anchor="middle" x="176" y="-231.5" font-family="Helvetica,sans-Serif" font-size="10.00">iaEvent.h</text>
</a>
</g>
</g>
<!-- Node2&#45;&gt;Node3 -->
<g id="edge3" class="edge"><title>Node2&#45;&gt;Node3</title>
<path fill="none" stroke="midnightblue" d="M470.772,-281.88C467.817,-281.21 464.852,-280.57 462,-280 373.791,-262.364 269.139,-247.394 214.144,-239.981"/>
<polygon fill="midnightblue" stroke="midnightblue" points="214.523,-236.501 204.147,-238.643 213.595,-243.439 214.523,-236.501"/>
</g>
<!-- Node14 -->
<g id="node15" class="node"><title>Node14</title>
<g id="a_node15"><a xlink:href="i_key_code_map_8h.html" target="_top" xlink:title=" ">
<polygon fill="white" stroke="black" points="263,-224.5 263,-243.5 349,-243.5 349,-224.5 263,-224.5"/>
<text text-anchor="middle" x="306" y="-231.5" font-family="Helvetica,sans-Serif" font-size="10.00">iKeyCodeMap.h</text>
</a>
</g>
</g>
<!-- Node2&#45;&gt;Node14 -->
<g id="edge16" class="edge"><title>Node2&#45;&gt;Node14</title>
<path fill="none" stroke="midnightblue" d="M470.936,-281.148C438.254,-272.004 383.994,-256.822 346.69,-246.385"/>
<polygon fill="midnightblue" stroke="midnightblue" points="347.223,-242.9 336.65,-243.576 345.337,-249.641 347.223,-242.9"/>
</g>
<!-- Node19 -->
<g id="node20" class="node"><title>Node19</title>
<g id="a_node20"><a xlink:href="i_rectangle_8h.html" target="_top" xlink:title=" ">
<polygon fill="white" stroke="black" points="523.5,-224.5 523.5,-243.5 594.5,-243.5 594.5,-224.5 523.5,-224.5"/>
<text text-anchor="middle" x="559" y="-231.5" font-family="Helvetica,sans-Serif" font-size="10.00">iRectangle.h</text>
</a>
</g>
</g>
<!-- Node2&#45;&gt;Node19 -->
<g id="edge25" class="edge"><title>Node2&#45;&gt;Node19</title>
<path fill="none" stroke="midnightblue" d="M508.64,-280.324C517.51,-272.341 530.875,-260.313 541.608,-250.653"/>
<polygon fill="midnightblue" stroke="midnightblue" points="544.093,-253.125 549.185,-243.834 539.41,-247.922 544.093,-253.125"/>
</g>
<!-- Node21 -->
<g id="node22" class="node"><title>Node21</title>
<g id="a_node22"><a xlink:href="ia_vector2_8h.html" target="_top" xlink:title=" ">
<polygon fill="white" stroke="black" points="651,-168.5 651,-187.5 717,-187.5 717,-168.5 651,-168.5"/>
<text text-anchor="middle" x="684" y="-175.5" font-family="Helvetica,sans-Serif" font-size="10.00">iaVector2.h</text>
</a>
</g>
</g>
<!-- Node2&#45;&gt;Node21 -->
<g id="edge28" class="edge"><title>Node2&#45;&gt;Node21</title>
<path fill="none" stroke="midnightblue" d="M523.865,-280.395C545.525,-272.404 577.387,-259.434 603,-244 626.715,-229.71 651.125,-209.175 666.863,-195.029"/>
<polygon fill="midnightblue" stroke="midnightblue" points="669.634,-197.238 674.654,-187.908 664.911,-192.071 669.634,-197.238"/>
</g>
<!-- Node24 -->
<g id="node25" class="node"><title>Node24</title>
<g id="a_node25"><a xlink:href="i_o_s_event_listener_8h.html" target="_top" xlink:title=" ">
<polygon fill="white" stroke="black" points="405,-224.5 405,-243.5 505,-243.5 505,-224.5 405,-224.5"/>
<text text-anchor="middle" x="455" y="-231.5" font-family="Helvetica,sans-Serif" font-size="10.00">iOSEventListener.h</text>
</a>
</g>
</g>
<!-- Node2&#45;&gt;Node24 -->
<g id="edge33" class="edge"><title>Node2&#45;&gt;Node24</title>
<path fill="none" stroke="midnightblue" d="M491.734,-280.083C485.455,-272.377 476.212,-261.033 468.569,-251.653"/>
<polygon fill="midnightblue" stroke="midnightblue" points="471.161,-249.293 462.131,-243.751 465.734,-253.714 471.161,-249.293"/>
</g>
<!-- Node4 -->
<g id="node5" class="node"><title>Node4</title>
<g id="a_node5"><a xlink:href="ia_mutex_8h.html" target="_top" xlink:title=" ">
<polygon fill="white" stroke="black" points="161.5,-56.5 161.5,-75.5 220.5,-75.5 220.5,-56.5 161.5,-56.5"/>
<text text-anchor="middle" x="191" y="-63.5" font-family="Helvetica,sans-Serif" font-size="10.00">iaMutex.h</text>
</a>
</g>
</g>
<!-- Node3&#45;&gt;Node4 -->
<g id="edge4" class="edge"><title>Node3&#45;&gt;Node4</title>
<path fill="none" stroke="midnightblue" d="M147.93,-225.612C118.134,-216.112 76.8785,-197.264 89,-168 104.883,-129.654 143.271,-98.4542 168.159,-81.3318"/>
<polygon fill="midnightblue" stroke="midnightblue" points="170.27,-84.1312 176.651,-75.6734 166.389,-78.3059 170.27,-84.1312"/>
</g>
<!-- Node6 -->
<g id="node7" class="node"><title>Node6</title>
<g id="a_node7"><a xlink:href="ia_delegate_8h.html" target="_top" xlink:title=" ">
<polygon fill="white" stroke="black" points="98.5,-168.5 98.5,-187.5 169.5,-187.5 169.5,-168.5 98.5,-168.5"/>
<text text-anchor="middle" x="134" y="-175.5" font-family="Helvetica,sans-Serif" font-size="10.00">iaDelegate.h</text>
</a>
</g>
</g>
<!-- Node3&#45;&gt;Node6 -->
<g id="edge6" class="edge"><title>Node3&#45;&gt;Node6</title>
<path fill="none" stroke="midnightblue" d="M169.065,-224.083C163.071,-216.377 154.248,-205.033 146.952,-195.653"/>
<polygon fill="midnightblue" stroke="midnightblue" points="149.709,-193.496 140.806,-187.751 144.183,-197.793 149.709,-193.496"/>
</g>
<!-- Node7 -->
<g id="node8" class="node"><title>Node7</title>
<g id="a_node8"><a xlink:href="ia_console_8h.html" target="_top" xlink:title=" ">
<polygon fill="white" stroke="black" points="226,-168.5 226,-187.5 294,-187.5 294,-168.5 226,-168.5"/>
<text text-anchor="middle" x="260" y="-175.5" font-family="Helvetica,sans-Serif" font-size="10.00">iaConsole.h</text>
</a>
</g>
</g>
<!-- Node3&#45;&gt;Node7 -->
<g id="edge7" class="edge"><title>Node3&#45;&gt;Node7</title>
<path fill="none" stroke="midnightblue" d="M189.496,-224.324C202.6,-215.9 222.712,-202.971 238.107,-193.074"/>
<polygon fill="midnightblue" stroke="midnightblue" points="240.018,-196.006 246.537,-187.655 236.233,-190.118 240.018,-196.006"/>
</g>
<!-- Node3&#45;&gt;Node13 -->
<g id="edge15" class="edge"><title>Node3&#45;&gt;Node13</title>
<path fill="none" stroke="midnightblue" d="M147.847,-228.324C121.485,-222.696 82.3128,-210.976 56,-188 41.8446,-175.639 32.4227,-156.115 26.9557,-141.688"/>
<polygon fill="midnightblue" stroke="midnightblue" points="30.1251,-140.146 23.533,-131.852 23.5139,-142.447 30.1251,-140.146"/>
</g>
<!-- Node5 -->
<g id="node6" class="node"><title>Node5</title>
<g id="a_node6"><a xlink:href="ia_defines_8h.html" target="_top" xlink:title=" ">
<polygon fill="white" stroke="black" points="420.5,-0.5 420.5,-19.5 485.5,-19.5 485.5,-0.5 420.5,-0.5"/>
<text text-anchor="middle" x="453" y="-7.5" font-family="Helvetica,sans-Serif" font-size="10.00">iaDefines.h</text>
</a>
</g>
</g>
<!-- Node4&#45;&gt;Node5 -->
<g id="edge5" class="edge"><title>Node4&#45;&gt;Node5</title>
<path fill="none" stroke="midnightblue" d="M220.545,-58.9105C266.938,-49.3487 357.07,-30.7717 410.446,-19.7707"/>
<polygon fill="midnightblue" stroke="midnightblue" points="411.199,-23.1892 420.286,-17.7425 409.786,-16.3333 411.199,-23.1892"/>
</g>
<!-- Node8 -->
<g id="node9" class="node"><title>Node8</title>
<g id="a_node9"><a xlink:href="ia_singleton_8h.html" target="_top" xlink:title=" ">
<polygon fill="white" stroke="black" points="154.5,-112.5 154.5,-131.5 227.5,-131.5 227.5,-112.5 154.5,-112.5"/>
<text text-anchor="middle" x="191" y="-119.5" font-family="Helvetica,sans-Serif" font-size="10.00">iaSingleton.h</text>
</a>
</g>
</g>
<!-- Node7&#45;&gt;Node8 -->
<g id="edge8" class="edge"><title>Node7&#45;&gt;Node8</title>
<path fill="none" stroke="midnightblue" d="M248.914,-168.324C238.514,-160.185 222.739,-147.839 210.278,-138.087"/>
<polygon fill="midnightblue" stroke="midnightblue" points="212.32,-135.241 202.288,-131.834 208.006,-140.753 212.32,-135.241"/>
</g>
<!-- Node9 -->
<g id="node10" class="node"><title>Node9</title>
<g id="a_node10"><a xlink:href="ia_clock_8h.html" target="_top" xlink:title=" ">
<polygon fill="white" stroke="black" points="324.5,-56.5 324.5,-75.5 381.5,-75.5 381.5,-56.5 324.5,-56.5"/>
<text text-anchor="middle" x="353" y="-63.5" font-family="Helvetica,sans-Serif" font-size="10.00">iaClock.h</text>
</a>
</g>
</g>
<!-- Node7&#45;&gt;Node9 -->
<g id="edge10" class="edge"><title>Node7&#45;&gt;Node9</title>
<path fill="none" stroke="midnightblue" d="M270.806,-168.342C281.212,-159.724 297.084,-145.822 309,-132 321.888,-117.051 334.278,-98.2098 342.607,-84.6666"/>
<polygon fill="midnightblue" stroke="midnightblue" points="345.742,-86.2449 347.904,-75.8728 339.746,-82.6332 345.742,-86.2449"/>
</g>
<!-- Node10 -->
<g id="node11" class="node"><title>Node10</title>
<g id="a_node11"><a xlink:title=" ">
<polygon fill="white" stroke="#bfbfbf" points="356.5,-112.5 356.5,-131.5 405.5,-131.5 405.5,-112.5 356.5,-112.5"/>
<text text-anchor="middle" x="381" y="-119.5" font-family="Helvetica,sans-Serif" font-size="10.00">fstream</text>
</a>
</g>
</g>
<!-- Node7&#45;&gt;Node10 -->
<g id="edge12" class="edge"><title>Node7&#45;&gt;Node10</title>
<path fill="none" stroke="midnightblue" d="M279.173,-168.444C298.909,-159.636 329.885,-145.812 352.493,-135.722"/>
<polygon fill="midnightblue" stroke="midnightblue" points="354.211,-138.788 361.917,-131.516 351.359,-132.396 354.211,-138.788"/>
</g>
<!-- Node11 -->
<g id="node12" class="node"><title>Node11</title>
<g id="a_node12"><a xlink:title=" ">
<polygon fill="white" stroke="#bfbfbf" points="246,-112.5 246,-131.5 300,-131.5 300,-112.5 246,-112.5"/>
<text text-anchor="middle" x="273" y="-119.5" font-family="Helvetica,sans-Serif" font-size="10.00">iostream</text>
</a>
</g>
</g>
<!-- Node7&#45;&gt;Node11 -->
<g id="edge13" class="edge"><title>Node7&#45;&gt;Node11</title>
<path fill="none" stroke="midnightblue" d="M262.147,-168.083C263.869,-160.927 266.347,-150.635 268.5,-141.691"/>
<polygon fill="midnightblue" stroke="midnightblue" points="271.955,-142.293 270.893,-131.751 265.15,-140.654 271.955,-142.293"/>
</g>
<!-- Node12 -->
<g id="node13" class="node"><title>Node12</title>
<g id="a_node13"><a xlink:title=" ">
<polygon fill="white" stroke="#bfbfbf" points="508,-112.5 508,-131.5 558,-131.5 558,-112.5 508,-112.5"/>
<text text-anchor="middle" x="533" y="-119.5" font-family="Helvetica,sans-Serif" font-size="10.00">iomanip</text>
</a>
</g>
</g>
<!-- Node7&#45;&gt;Node12 -->
<g id="edge14" class="edge"><title>Node7&#45;&gt;Node12</title>
<path fill="none" stroke="midnightblue" d="M294.259,-169.787C297.215,-169.178 300.159,-168.575 303,-168 371.999,-154.03 452.793,-138.388 497.92,-129.715"/>
<polygon fill="midnightblue" stroke="midnightblue" points="498.633,-133.142 507.794,-127.82 497.313,-126.268 498.633,-133.142"/>
</g>
<!-- Node8&#45;&gt;Node4 -->
<g id="edge9" class="edge"><title>Node8&#45;&gt;Node4</title>
<path fill="none" stroke="midnightblue" d="M191,-112.083C191,-105.006 191,-94.8611 191,-85.9865"/>
<polygon fill="midnightblue" stroke="midnightblue" points="194.5,-85.751 191,-75.7511 187.5,-85.7511 194.5,-85.751"/>
</g>
<!-- Node9&#45;&gt;Node5 -->
<g id="edge11" class="edge"><title>Node9&#45;&gt;Node5</title>
<path fill="none" stroke="midnightblue" d="M369.067,-56.324C384.958,-47.7428 409.507,-34.486 427.958,-24.5224"/>
<polygon fill="midnightblue" stroke="midnightblue" points="429.837,-27.4857 436.973,-19.6545 426.511,-21.3264 429.837,-27.4857"/>
</g>
<!-- Node14&#45;&gt;Node8 -->
<g id="edge17" class="edge"><title>Node14&#45;&gt;Node8</title>
<path fill="none" stroke="midnightblue" d="M276.991,-224.362C257.741,-217.319 233.139,-205.619 217,-188 205.081,-174.988 198.318,-155.828 194.697,-141.679"/>
<polygon fill="midnightblue" stroke="midnightblue" points="198.043,-140.604 192.428,-131.619 191.215,-142.144 198.043,-140.604"/>
</g>
<!-- Node15 -->
<g id="node16" class="node"><title>Node15</title>
<g id="a_node16"><a xlink:href="ia_string_8h.html" target="_top" xlink:title=" ">
<polygon fill="white" stroke="black" points="366,-168.5 366,-187.5 424,-187.5 424,-168.5 366,-168.5"/>
<text text-anchor="middle" x="395" y="-175.5" font-family="Helvetica,sans-Serif" font-size="10.00">iaString.h</text>
</a>
</g>
</g>
<!-- Node14&#45;&gt;Node15 -->
<g id="edge18" class="edge"><title>Node14&#45;&gt;Node15</title>
<path fill="none" stroke="midnightblue" d="M320.299,-224.324C334.183,-215.9 355.492,-202.971 371.804,-193.074"/>
<polygon fill="midnightblue" stroke="midnightblue" points="374.002,-195.834 380.736,-187.655 370.371,-189.85 374.002,-195.834"/>
</g>
<!-- Node17 -->
<g id="node18" class="node"><title>Node17</title>
<g id="a_node18"><a xlink:href="i_defines_8h.html" target="_top" xlink:title=" ">
<polygon fill="white" stroke="black" points="442.5,-168.5 442.5,-187.5 501.5,-187.5 501.5,-168.5 442.5,-168.5"/>
<text text-anchor="middle" x="472" y="-175.5" font-family="Helvetica,sans-Serif" font-size="10.00">iDefines.h</text>
</a>
</g>
</g>
<!-- Node14&#45;&gt;Node17 -->
<g id="edge22" class="edge"><title>Node14&#45;&gt;Node17</title>
<path fill="none" stroke="midnightblue" d="M332.303,-224.444C360.351,-215.32 404.944,-200.813 436.184,-190.651"/>
<polygon fill="midnightblue" stroke="midnightblue" points="437.393,-193.938 445.82,-187.516 435.228,-187.282 437.393,-193.938"/>
</g>
<!-- Node18 -->
<g id="node19" class="node"><title>Node18</title>
<g id="a_node19"><a xlink:title=" ">
<polygon fill="white" stroke="#bfbfbf" points="312.5,-168.5 312.5,-187.5 347.5,-187.5 347.5,-168.5 312.5,-168.5"/>
<text text-anchor="middle" x="330" y="-175.5" font-family="Helvetica,sans-Serif" font-size="10.00">map</text>
</a>
</g>
</g>
<!-- Node14&#45;&gt;Node18 -->
<g id="edge24" class="edge"><title>Node14&#45;&gt;Node18</title>
<path fill="none" stroke="midnightblue" d="M309.963,-224.083C313.213,-216.77 317.919,-206.181 321.954,-197.103"/>
<polygon fill="midnightblue" stroke="midnightblue" points="325.248,-198.311 326.111,-187.751 318.851,-195.468 325.248,-198.311"/>
</g>
<!-- Node15&#45;&gt;Node5 -->
<g id="edge19" class="edge"><title>Node15&#45;&gt;Node5</title>
<path fill="none" stroke="midnightblue" d="M398.869,-168.463C402.878,-159.478 409.216,-144.878 414,-132 427.336,-96.099 440.511,-53.2755 447.616,-29.4076"/>
<polygon fill="midnightblue" stroke="midnightblue" points="451.038,-30.1786 450.512,-19.5968 444.324,-28.1969 451.038,-30.1786"/>
</g>
<!-- Node15&#45;&gt;Node13 -->
<g id="edge21" class="edge"><title>Node15&#45;&gt;Node13</title>
<path fill="none" stroke="midnightblue" d="M365.673,-169.924C362.418,-169.23 359.145,-168.573 356,-168 245.127,-147.806 112.075,-132.585 52.5165,-126.241"/>
<polygon fill="midnightblue" stroke="midnightblue" points="52.5849,-122.729 42.2729,-125.161 51.8505,-129.69 52.5849,-122.729"/>
</g>
<!-- Node16 -->
<g id="node17" class="node"><title>Node16</title>
<g id="a_node17"><a xlink:title=" ">
<polygon fill="white" stroke="#bfbfbf" points="754,-112.5 754,-131.5 806,-131.5 806,-112.5 754,-112.5"/>
<text text-anchor="middle" x="780" y="-119.5" font-family="Helvetica,sans-Serif" font-size="10.00">ostream</text>
</a>
</g>
</g>
<!-- Node15&#45;&gt;Node16 -->
<g id="edge20" class="edge"><title>Node15&#45;&gt;Node16</title>
<path fill="none" stroke="midnightblue" d="M424.395,-169.72C427.294,-169.098 430.199,-168.512 433,-168 545.415,-147.456 679.99,-132.806 743.456,-126.481"/>
<polygon fill="midnightblue" stroke="midnightblue" points="744.13,-129.931 753.739,-125.467 743.443,-122.965 744.13,-129.931"/>
</g>
<!-- Node17&#45;&gt;Node5 -->
<g id="edge23" class="edge"><title>Node17&#45;&gt;Node5</title>
<path fill="none" stroke="midnightblue" d="M470.978,-168.075C467.988,-141.945 459.205,-65.2106 455.126,-29.577"/>
<polygon fill="midnightblue" stroke="midnightblue" points="458.595,-29.1052 453.981,-19.5681 451.641,-29.9013 458.595,-29.1052"/>
</g>
<!-- Node19&#45;&gt;Node17 -->
<g id="edge26" class="edge"><title>Node19&#45;&gt;Node17</title>
<path fill="none" stroke="midnightblue" d="M545.022,-224.324C531.45,-215.9 510.62,-202.971 494.675,-193.074"/>
<polygon fill="midnightblue" stroke="midnightblue" points="496.286,-189.954 485.943,-187.655 492.594,-195.902 496.286,-189.954"/>
</g>
<!-- Node20 -->
<g id="node21" class="node"><title>Node20</title>
<g id="a_node21"><a xlink:href="i_rectangle_8inl.html" target="_top" xlink:title=" ">
<polygon fill="white" stroke="black" points="519.5,-168.5 519.5,-187.5 594.5,-187.5 594.5,-168.5 519.5,-168.5"/>
<text text-anchor="middle" x="557" y="-175.5" font-family="Helvetica,sans-Serif" font-size="10.00">iRectangle.inl</text>
</a>
</g>
</g>
<!-- Node19&#45;&gt;Node20 -->
<g id="edge27" class="edge"><title>Node19&#45;&gt;Node20</title>
<path fill="none" stroke="midnightblue" d="M558.67,-224.083C558.408,-217.006 558.032,-206.861 557.703,-197.986"/>
<polygon fill="midnightblue" stroke="midnightblue" points="561.192,-197.615 557.324,-187.751 554.197,-197.874 561.192,-197.615"/>
</g>
<!-- Node21&#45;&gt;Node5 -->
<g id="edge29" class="edge"><title>Node21&#45;&gt;Node5</title>
<path fill="none" stroke="midnightblue" d="M683.51,-168.372C682.311,-154.835 678.184,-128.455 664,-112 619.564,-60.4506 542.888,-33.1108 495.223,-20.3745"/>
<polygon fill="midnightblue" stroke="midnightblue" points="496.071,-16.9788 485.514,-17.8749 494.325,-23.7577 496.071,-16.9788"/>
</g>
<!-- Node21&#45;&gt;Node16 -->
<g id="edge31" class="edge"><title>Node21&#45;&gt;Node16</title>
<path fill="none" stroke="midnightblue" d="M699.424,-168.324C714.54,-159.822 737.815,-146.729 755.471,-136.797"/>
<polygon fill="midnightblue" stroke="midnightblue" points="757.614,-139.608 764.614,-131.655 754.183,-133.507 757.614,-139.608"/>
</g>
<!-- Node22 -->
<g id="node23" class="node"><title>Node22</title>
<g id="a_node23"><a xlink:title=" ">
<polygon fill="white" stroke="#bfbfbf" points="874,-112.5 874,-131.5 918,-131.5 918,-112.5 874,-112.5"/>
<text text-anchor="middle" x="896" y="-119.5" font-family="Helvetica,sans-Serif" font-size="10.00">cmath</text>
</a>
</g>
</g>
<!-- Node21&#45;&gt;Node22 -->
<g id="edge30" class="edge"><title>Node21&#45;&gt;Node22</title>
<path fill="none" stroke="midnightblue" d="M717.125,-168.563C757.213,-158.351 824.255,-141.275 863.884,-131.18"/>
<polygon fill="midnightblue" stroke="midnightblue" points="864.986,-134.512 873.813,-128.651 863.258,-127.728 864.986,-134.512"/>
</g>
<!-- Node23 -->
<g id="node24" class="node"><title>Node23</title>
<g id="a_node24"><a xlink:href="ia_vector2_8inl.html" target="_top" xlink:title=" ">
<polygon fill="white" stroke="black" points="584.5,-112.5 584.5,-131.5 655.5,-131.5 655.5,-112.5 584.5,-112.5"/>
<text text-anchor="middle" x="620" y="-119.5" font-family="Helvetica,sans-Serif" font-size="10.00">iaVector2.inl</text>
</a>
</g>
</g>
<!-- Node21&#45;&gt;Node23 -->
<g id="edge32" class="edge"><title>Node21&#45;&gt;Node23</title>
<path fill="none" stroke="midnightblue" d="M673.717,-168.324C664.164,-160.263 649.72,-148.077 638.216,-138.369"/>
<polygon fill="midnightblue" stroke="midnightblue" points="640.37,-135.608 630.47,-131.834 635.856,-140.958 640.37,-135.608"/>
</g>
<!-- Node25&#45;&gt;Node3 -->
<g id="edge35" class="edge"><title>Node25&#45;&gt;Node3</title>
<path fill="none" stroke="midnightblue" d="M307.281,-280.444C281.152,-271.399 239.741,-257.064 210.424,-246.916"/>
<polygon fill="midnightblue" stroke="midnightblue" points="211.198,-243.48 200.603,-243.516 208.908,-250.095 211.198,-243.48"/>
</g>
<!-- Node25&#45;&gt;Node17 -->
<g id="edge36" class="edge"><title>Node25&#45;&gt;Node17</title>
<path fill="none" stroke="midnightblue" d="M339.261,-280.298C350.528,-267.12 373.299,-241.76 396,-224 411.502,-211.872 430.565,-200.593 445.721,-192.36"/>
<polygon fill="midnightblue" stroke="midnightblue" points="447.399,-195.432 454.587,-187.648 444.114,-189.251 447.399,-195.432"/>
</g>
<!-- Node27 -->
<g id="node28" class="node"><title>Node27</title>
<g id="a_node28"><a xlink:href="ia_vector3_8h.html" target="_top" xlink:title=" ">
<polygon fill="white" stroke="black" points="901,-168.5 901,-187.5 967,-187.5 967,-168.5 901,-168.5"/>
<text text-anchor="middle" x="934" y="-175.5" font-family="Helvetica,sans-Serif" font-size="10.00">iaVector3.h</text>
</a>
</g>
</g>
<!-- Node26&#45;&gt;Node27 -->
<g id="edge38" class="edge"><title>Node26&#45;&gt;Node27</title>
<path fill="none" stroke="midnightblue" d="M797.669,-224.444C824.923,-215.359 868.184,-200.939 898.651,-190.783"/>
<polygon fill="midnightblue" stroke="midnightblue" points="900.071,-193.999 908.451,-187.516 897.857,-187.358 900.071,-193.999"/>
</g>
<!-- Node29 -->
<g id="node30" class="node"><title>Node29</title>
<g id="a_node30"><a xlink:href="ia_vector4_8inl.html" target="_top" xlink:title=" ">
<polygon fill="white" stroke="black" points="735.5,-168.5 735.5,-187.5 806.5,-187.5 806.5,-168.5 735.5,-168.5"/>
<text text-anchor="middle" x="771" y="-175.5" font-family="Helvetica,sans-Serif" font-size="10.00">iaVector4.inl</text>
</a>
</g>
</g>
<!-- Node26&#45;&gt;Node29 -->
<g id="edge43" class="edge"><title>Node26&#45;&gt;Node29</title>
<path fill="none" stroke="midnightblue" d="M771.835,-224.083C771.704,-217.006 771.516,-206.861 771.352,-197.986"/>
<polygon fill="midnightblue" stroke="midnightblue" points="774.847,-197.685 771.162,-187.751 767.848,-197.814 774.847,-197.685"/>
</g>
<!-- Node27&#45;&gt;Node5 -->
<g id="edge39" class="edge"><title>Node27&#45;&gt;Node5</title>
<path fill="none" stroke="midnightblue" d="M920.561,-168.38C899.006,-154.853 855.055,-128.487 815,-112 703.663,-66.1723 564.749,-33.9344 495.86,-19.5056"/>
<polygon fill="midnightblue" stroke="midnightblue" points="496.319,-16.0266 485.817,-17.4249 494.899,-22.881 496.319,-16.0266"/>
</g>
<!-- Node27&#45;&gt;Node16 -->
<g id="edge41" class="edge"><title>Node27&#45;&gt;Node16</title>
<path fill="none" stroke="midnightblue" d="M909.598,-168.444C883.803,-159.399 842.923,-145.064 813.982,-134.916"/>
<polygon fill="midnightblue" stroke="midnightblue" points="814.882,-131.523 804.288,-131.516 812.566,-138.128 814.882,-131.523"/>
</g>
<!-- Node27&#45;&gt;Node22 -->
<g id="edge40" class="edge"><title>Node27&#45;&gt;Node22</title>
<path fill="none" stroke="midnightblue" d="M927.725,-168.083C922.358,-160.455 914.482,-149.264 907.921,-139.941"/>
<polygon fill="midnightblue" stroke="midnightblue" points="910.775,-137.915 902.158,-131.751 905.051,-141.943 910.775,-137.915"/>
</g>
<!-- Node28 -->
<g id="node29" class="node"><title>Node28</title>
<g id="a_node29"><a xlink:href="ia_vector3_8inl.html" target="_top" xlink:title=" ">
<polygon fill="white" stroke="black" points="936.5,-112.5 936.5,-131.5 1007.5,-131.5 1007.5,-112.5 936.5,-112.5"/>
<text text-anchor="middle" x="972" y="-119.5" font-family="Helvetica,sans-Serif" font-size="10.00">iaVector3.inl</text>
</a>
</g>
</g>
<!-- Node27&#45;&gt;Node28 -->
<g id="edge42" class="edge"><title>Node27&#45;&gt;Node28</title>
<path fill="none" stroke="midnightblue" d="M940.275,-168.083C945.642,-160.455 953.518,-149.264 960.079,-139.941"/>
<polygon fill="midnightblue" stroke="midnightblue" points="962.949,-141.943 965.842,-131.751 957.225,-137.915 962.949,-141.943"/>
</g>
<!-- Node31&#45;&gt;Node10 -->
<g id="edge48" class="edge"><title>Node31&#45;&gt;Node10</title>
<path fill="none" stroke="midnightblue" d="M812.479,-280.368C790.941,-271.876 757.732,-258.159 730,-244 700.708,-229.044 633.668,-179.882 603,-168 539.517,-143.405 460.37,-131.495 415.777,-126.362"/>
<polygon fill="midnightblue" stroke="midnightblue" points="416.068,-122.873 405.744,-125.255 415.3,-129.831 416.068,-122.873"/>
</g>
<!-- Node31&#45;&gt;Node12 -->
<g id="edge51" class="edge"><title>Node31&#45;&gt;Node12</title>
<path fill="none" stroke="midnightblue" d="M836.585,-280.478C840.156,-258.375 846.245,-198.783 815,-168 776.582,-130.151 628.059,-141.655 575,-132 572.794,-131.599 570.528,-131.167 568.244,-130.719"/>
<polygon fill="midnightblue" stroke="midnightblue" points="568.767,-127.253 558.268,-128.681 567.365,-134.112 568.767,-127.253"/>
</g>
<!-- Node31&#45;&gt;Node16 -->
<g id="edge50" class="edge"><title>Node31&#45;&gt;Node16</title>
<path fill="none" stroke="midnightblue" d="M839.181,-280.442C848.663,-259.714 869.447,-205.746 849,-168 841.251,-153.696 826.766,-143.219 813.06,-135.992"/>
<polygon fill="midnightblue" stroke="midnightblue" points="814.314,-132.71 803.788,-131.501 811.262,-139.01 814.314,-132.71"/>
</g>
<!-- Node31&#45;&gt;Node22 -->
<g id="edge49" class="edge"><title>Node31&#45;&gt;Node22</title>
<path fill="none" stroke="midnightblue" d="M858.077,-280.442C891.254,-266.726 951.162,-236.344 976,-188 988.948,-162.797 955.278,-143.906 927.702,-133.159"/>
<polygon fill="midnightblue" stroke="midnightblue" points="928.882,-129.864 918.289,-129.7 926.468,-136.434 928.882,-129.864"/>
</g>
<!-- Node31&#45;&gt;Node26 -->
<g id="edge47" class="edge"><title>Node31&#45;&gt;Node26</title>
<path fill="none" stroke="midnightblue" d="M824.878,-280.324C815.474,-272.263 801.256,-260.077 789.931,-250.369"/>
<polygon fill="midnightblue" stroke="midnightblue" points="792.177,-247.684 782.306,-243.834 787.621,-252.999 792.177,-247.684"/>
</g>
<!-- Node32 -->
<g id="node33" class="node"><title>Node32</title>
<g id="a_node33"><a xlink:href="ia_matrix_8inl.html" target="_top" xlink:title=" ">
<polygon fill="white" stroke="black" points="1023,-224.5 1023,-243.5 1087,-243.5 1087,-224.5 1023,-224.5"/>
<text text-anchor="middle" x="1055" y="-231.5" font-family="Helvetica,sans-Serif" font-size="10.00">iaMatrix.inl</text>
</a>
</g>
</g>
<!-- Node31&#45;&gt;Node32 -->
<g id="edge52" class="edge"><title>Node31&#45;&gt;Node32</title>
<path fill="none" stroke="midnightblue" d="M864.67,-281.717C902.891,-272.336 969.561,-255.971 1012.98,-245.313"/>
<polygon fill="midnightblue" stroke="midnightblue" points="1014.07,-248.649 1022.95,-242.867 1012.41,-241.851 1014.07,-248.649"/>
</g>
</g>
</svg>
