<?xml version="1.0" encoding="UTF-8" standalone="no"?>
<!DOCTYPE svg PUBLIC "-//W3C//DTD SVG 1.1//EN"
 "http://www.w3.org/Graphics/SVG/1.1/DTD/svg11.dtd">
<!-- Generated by graphviz version 2.38.0 (20140413.2041)
 -->
<!-- Title: C:/dev/Igor/src/Igor/src/iWidgetTextEdit.h Pages: 1 -->
<svg width="2262pt" height="117pt"
 viewBox="0.00 0.00 2262.00 117.00" xmlns="http://www.w3.org/2000/svg" xmlns:xlink="http://www.w3.org/1999/xlink">
<g id="graph0" class="graph" transform="scale(1 1) rotate(0) translate(4 113)">
<title>C:/dev/Igor/src/Igor/src/iWidgetTextEdit.h</title>
<polygon fill="white" stroke="none" points="-4,4 -4,-113 2258,-113 2258,4 -4,4"/>
<!-- Node1 -->
<g id="node1" class="node"><title>Node1</title>
<polygon fill="#bfbfbf" stroke="black" points="1058.5,-78.5 1058.5,-108.5 1171.5,-108.5 1171.5,-78.5 1058.5,-78.5"/>
<text text-anchor="start" x="1066.5" y="-96.5" font-family="Helvetica,sans-Serif" font-size="10.00">C:/dev/Igor/src/Igor</text>
<text text-anchor="middle" x="1115" y="-85.5" font-family="Helvetica,sans-Serif" font-size="10.00">/src/iWidgetTextEdit.h</text>
</g>
<!-- Node2 -->
<g id="node2" class="node"><title>Node2</title>
<g id="a_node2"><a xlink:href="i_dialog_file_select_8cpp.html" target="_top" xlink:title="C:/dev/Igor/src/Igor\l/src/iDialogFileSelect.cpp">
<polygon fill="white" stroke="black" points="0,-6 0,-36 128,-36 128,-6 0,-6"/>
<text text-anchor="start" x="8" y="-24" font-family="Helvetica,sans-Serif" font-size="10.00">C:/dev/Igor/src/Igor</text>
<text text-anchor="middle" x="64" y="-13" font-family="Helvetica,sans-Serif" font-size="10.00">/src/iDialogFileSelect.cpp</text>
</a>
</g>
</g>
<!-- Node1&#45;&gt;Node2 -->
<g id="edge1" class="edge"><title>Node1&#45;&gt;Node2</title>
<path fill="none" stroke="midnightblue" d="M1048.05,-90.9248C857.233,-86.1362 313.056,-70.3216 137,-42 127.918,-40.5391 118.345,-38.3817 109.228,-36.018"/>
<polygon fill="midnightblue" stroke="midnightblue" points="1048.14,-94.4279 1058.22,-91.1779 1048.31,-87.43 1048.14,-94.4279"/>
</g>
<!-- Node3 -->
<g id="node3" class="node"><title>Node3</title>
<g id="a_node3"><a xlink:href="i_user_control_color_chooser_8cpp.html" target="_top" xlink:title="C:/dev/Igor/src/Igor\l/src/iUserControlColorChooser.cpp">
<polygon fill="white" stroke="black" points="146.5,-6 146.5,-36 313.5,-36 313.5,-6 146.5,-6"/>
<text text-anchor="start" x="154.5" y="-24" font-family="Helvetica,sans-Serif" font-size="10.00">C:/dev/Igor/src/Igor</text>
<text text-anchor="middle" x="230" y="-13" font-family="Helvetica,sans-Serif" font-size="10.00">/src/iUserControlColorChooser.cpp</text>
</a>
</g>
</g>
<!-- Node1&#45;&gt;Node3 -->
<g id="edge2" class="edge"><title>Node1&#45;&gt;Node3</title>
<path fill="none" stroke="midnightblue" d="M1047.72,-91.5654C910.7,-88.9244 589.683,-78.9702 323,-42 311.876,-40.4579 300.1,-38.3239 288.803,-36.0213"/>
<polygon fill="midnightblue" stroke="midnightblue" points="1047.99,-95.0708 1058.05,-91.7572 1048.12,-88.072 1047.99,-95.0708"/>
</g>
<!-- Node4 -->
<g id="node4" class="node"><title>Node4</title>
<g id="a_node4"><a xlink:href="i_user_control_file_chooser_8cpp.html" target="_top" xlink:title="C:/dev/Igor/src/Igor\l/src/iUserControlFileChooser.cpp">
<polygon fill="white" stroke="black" points="332,-6 332,-36 492,-36 492,-6 332,-6"/>
<text text-anchor="start" x="340" y="-24" font-family="Helvetica,sans-Serif" font-size="10.00">C:/dev/Igor/src/Igor</text>
<text text-anchor="middle" x="412" y="-13" font-family="Helvetica,sans-Serif" font-size="10.00">/src/iUserControlFileChooser.cpp</text>
</a>
</g>
</g>
<!-- Node1&#45;&gt;Node4 -->
<g id="edge3" class="edge"><title>Node1&#45;&gt;Node4</title>
<path fill="none" stroke="midnightblue" d="M1048.17,-90.0461C934.987,-85.212 698.627,-72.1828 501,-42 490.668,-40.422 479.747,-38.3283 469.229,-36.0897"/>
<polygon fill="midnightblue" stroke="midnightblue" points="1048.26,-93.5531 1058.4,-90.4751 1048.56,-86.5593 1048.26,-93.5531"/>
</g>
<!-- Node5 -->
<g id="node5" class="node"><title>Node5</title>
<g id="a_node5"><a xlink:href="i_widget_manager_8cpp.html" target="_top" xlink:title="C:/dev/Igor/src/Igor\l/src/iWidgetManager.cpp">
<polygon fill="white" stroke="black" points="510.5,-6 510.5,-36 635.5,-36 635.5,-6 510.5,-6"/>
<text text-anchor="start" x="518.5" y="-24" font-family="Helvetica,sans-Serif" font-size="10.00">C:/dev/Igor/src/Igor</text>
<text text-anchor="middle" x="573" y="-13" font-family="Helvetica,sans-Serif" font-size="10.00">/src/iWidgetManager.cpp</text>
</a>
</g>
</g>
<!-- Node1&#45;&gt;Node5 -->
<g id="edge4" class="edge"><title>Node1&#45;&gt;Node5</title>
<path fill="none" stroke="midnightblue" d="M1048.26,-88.7823C956.678,-82.8986 787.228,-69.2046 645,-42 636.59,-40.3914 627.731,-38.2829 619.213,-36.0392"/>
<polygon fill="midnightblue" stroke="midnightblue" points="1048.29,-92.2913 1058.49,-89.4281 1048.73,-85.3052 1048.29,-92.2913"/>
</g>
<!-- Node6 -->
<g id="node6" class="node"><title>Node6</title>
<g id="a_node6"><a xlink:href="i_widget_text_edit_8cpp.html" target="_top" xlink:title="C:/dev/Igor/src/Igor\l/src/iWidgetTextEdit.cpp">
<polygon fill="white" stroke="black" points="654,-6 654,-36 778,-36 778,-6 654,-6"/>
<text text-anchor="start" x="662" y="-24" font-family="Helvetica,sans-Serif" font-size="10.00">C:/dev/Igor/src/Igor</text>
<text text-anchor="middle" x="716" y="-13" font-family="Helvetica,sans-Serif" font-size="10.00">/src/iWidgetTextEdit.cpp</text>
</a>
</g>
</g>
<!-- Node1&#45;&gt;Node6 -->
<g id="edge5" class="edge"><title>Node1&#45;&gt;Node6</title>
<path fill="none" stroke="midnightblue" d="M1048.38,-84.6611C981.796,-76.2612 876.706,-61.4646 787,-42 779.116,-40.2892 770.812,-38.2092 762.773,-36.0454"/>
<polygon fill="midnightblue" stroke="midnightblue" points="1047.96,-88.1364 1058.32,-85.9039 1048.83,-81.1904 1047.96,-88.1364"/>
</g>
<!-- Node7 -->
<g id="node7" class="node"><title>Node7</title>
<g id="a_node7"><a xlink:href="_user_control_emitter_8cpp.html" target="_top" xlink:title="C:/dev/Igor/src/Tools\l/ModelViewer/src/UserControl\lEmitter.cpp">
<polygon fill="white" stroke="black" points="796,-0.5 796,-41.5 942,-41.5 942,-0.5 796,-0.5"/>
<text text-anchor="start" x="804" y="-29.5" font-family="Helvetica,sans-Serif" font-size="10.00">C:/dev/Igor/src/Tools</text>
<text text-anchor="start" x="804" y="-18.5" font-family="Helvetica,sans-Serif" font-size="10.00">/ModelViewer/src/UserControl</text>
<text text-anchor="middle" x="869" y="-7.5" font-family="Helvetica,sans-Serif" font-size="10.00">Emitter.cpp</text>
</a>
</g>
</g>
<!-- Node1&#45;&gt;Node7 -->
<g id="edge6" class="edge"><title>Node1&#45;&gt;Node7</title>
<path fill="none" stroke="midnightblue" d="M1056.31,-75.679C1020.56,-65.4354 974.739,-52.3032 937.363,-41.5919"/>
<polygon fill="midnightblue" stroke="midnightblue" points="1055.53,-79.0967 1066.1,-78.4872 1057.46,-72.3676 1055.53,-79.0967"/>
</g>
<!-- Node8 -->
<g id="node8" class="node"><title>Node8</title>
<g id="a_node8"><a xlink:href="_user_control_light_8cpp.html" target="_top" xlink:title="C:/dev/Igor/src/Tools\l/ModelViewer/src/UserControl\lLight.cpp">
<polygon fill="white" stroke="black" points="960,-0.5 960,-41.5 1106,-41.5 1106,-0.5 960,-0.5"/>
<text text-anchor="start" x="968" y="-29.5" font-family="Helvetica,sans-Serif" font-size="10.00">C:/dev/Igor/src/Tools</text>
<text text-anchor="start" x="968" y="-18.5" font-family="Helvetica,sans-Serif" font-size="10.00">/ModelViewer/src/UserControl</text>
<text text-anchor="middle" x="1033" y="-7.5" font-family="Helvetica,sans-Serif" font-size="10.00">Light.cpp</text>
</a>
</g>
</g>
<!-- Node1&#45;&gt;Node8 -->
<g id="edge7" class="edge"><title>Node1&#45;&gt;Node8</title>
<path fill="none" stroke="midnightblue" d="M1090.76,-71.6567C1079.69,-62.1451 1066.66,-50.9432 1055.78,-41.5884"/>
<polygon fill="midnightblue" stroke="midnightblue" points="1088.54,-74.3679 1098.41,-78.2333 1093.11,-69.0599 1088.54,-74.3679"/>
</g>
<!-- Node9 -->
<g id="node9" class="node"><title>Node9</title>
<g id="a_node9"><a xlink:href="_user_control_material_8cpp.html" target="_top" xlink:title="C:/dev/Igor/src/Tools\l/ModelViewer/src/UserControl\lMaterial.cpp">
<polygon fill="white" stroke="black" points="1124,-0.5 1124,-41.5 1270,-41.5 1270,-0.5 1124,-0.5"/>
<text text-anchor="start" x="1132" y="-29.5" font-family="Helvetica,sans-Serif" font-size="10.00">C:/dev/Igor/src/Tools</text>
<text text-anchor="start" x="1132" y="-18.5" font-family="Helvetica,sans-Serif" font-size="10.00">/ModelViewer/src/UserControl</text>
<text text-anchor="middle" x="1197" y="-7.5" font-family="Helvetica,sans-Serif" font-size="10.00">Material.cpp</text>
</a>
</g>
</g>
<!-- Node1&#45;&gt;Node9 -->
<g id="edge8" class="edge"><title>Node1&#45;&gt;Node9</title>
<path fill="none" stroke="midnightblue" d="M1139.24,-71.6567C1150.31,-62.1451 1163.34,-50.9432 1174.22,-41.5884"/>
<polygon fill="midnightblue" stroke="midnightblue" points="1136.89,-69.0599 1131.59,-78.2333 1141.46,-74.3679 1136.89,-69.0599"/>
</g>
<!-- Node10 -->
<g id="node10" class="node"><title>Node10</title>
<g id="a_node10"><a xlink:href="_user_control_material_view_8cpp.html" target="_top" xlink:title="C:/dev/Igor/src/Tools\l/ModelViewer/src/UserControl\lMaterialView.cpp">
<polygon fill="white" stroke="black" points="1288,-0.5 1288,-41.5 1434,-41.5 1434,-0.5 1288,-0.5"/>
<text text-anchor="start" x="1296" y="-29.5" font-family="Helvetica,sans-Serif" font-size="10.00">C:/dev/Igor/src/Tools</text>
<text text-anchor="start" x="1296" y="-18.5" font-family="Helvetica,sans-Serif" font-size="10.00">/ModelViewer/src/UserControl</text>
<text text-anchor="middle" x="1361" y="-7.5" font-family="Helvetica,sans-Serif" font-size="10.00">MaterialView.cpp</text>
</a>
</g>
</g>
<!-- Node1&#45;&gt;Node10 -->
<g id="edge9" class="edge"><title>Node1&#45;&gt;Node10</title>
<path fill="none" stroke="midnightblue" d="M1173.69,-75.679C1209.44,-65.4354 1255.26,-52.3032 1292.64,-41.5919"/>
<polygon fill="midnightblue" stroke="midnightblue" points="1172.54,-72.3676 1163.9,-78.4872 1174.47,-79.0967 1172.54,-72.3676"/>
</g>
<!-- Node11 -->
<g id="node11" class="node"><title>Node11</title>
<g id="a_node11"><a xlink:href="_user_control_mesh_8cpp.html" target="_top" xlink:title="C:/dev/Igor/src/Tools\l/ModelViewer/src/UserControl\lMesh.cpp">
<polygon fill="white" stroke="black" points="1452,-0.5 1452,-41.5 1598,-41.5 1598,-0.5 1452,-0.5"/>
<text text-anchor="start" x="1460" y="-29.5" font-family="Helvetica,sans-Serif" font-size="10.00">C:/dev/Igor/src/Tools</text>
<text text-anchor="start" x="1460" y="-18.5" font-family="Helvetica,sans-Serif" font-size="10.00">/ModelViewer/src/UserControl</text>
<text text-anchor="middle" x="1525" y="-7.5" font-family="Helvetica,sans-Serif" font-size="10.00">Mesh.cpp</text>
</a>
</g>
</g>
<!-- Node1&#45;&gt;Node11 -->
<g id="edge10" class="edge"><title>Node1&#45;&gt;Node11</title>
<path fill="none" stroke="midnightblue" d="M1181.48,-83.9816C1247.96,-75.0616 1352.96,-59.8764 1443,-42 1445.87,-41.4293 1448.8,-40.8256 1451.75,-40.1977"/>
<polygon fill="midnightblue" stroke="midnightblue" points="1181.01,-80.5139 1171.56,-85.3052 1181.93,-87.4525 1181.01,-80.5139"/>
</g>
<!-- Node12 -->
<g id="node12" class="node"><title>Node12</title>
<g id="a_node12"><a xlink:href="_user_control_model_8cpp.html" target="_top" xlink:title="C:/dev/Igor/src/Tools\l/ModelViewer/src/UserControl\lModel.cpp">
<polygon fill="white" stroke="black" points="1616,-0.5 1616,-41.5 1762,-41.5 1762,-0.5 1616,-0.5"/>
<text text-anchor="start" x="1624" y="-29.5" font-family="Helvetica,sans-Serif" font-size="10.00">C:/dev/Igor/src/Tools</text>
<text text-anchor="start" x="1624" y="-18.5" font-family="Helvetica,sans-Serif" font-size="10.00">/ModelViewer/src/UserControl</text>
<text text-anchor="middle" x="1689" y="-7.5" font-family="Helvetica,sans-Serif" font-size="10.00">Model.cpp</text>
</a>
</g>
</g>
<!-- Node1&#45;&gt;Node12 -->
<g id="edge11" class="edge"><title>Node1&#45;&gt;Node12</title>
<path fill="none" stroke="midnightblue" d="M1181.84,-88.5527C1276.84,-82.2823 1456.17,-68.0093 1607,-42 1609.89,-41.502 1612.83,-40.9597 1615.79,-40.3832"/>
<polygon fill="midnightblue" stroke="midnightblue" points="1181.54,-85.0642 1171.79,-89.2064 1182,-92.0494 1181.54,-85.0642"/>
</g>
<!-- Node13 -->
<g id="node13" class="node"><title>Node13</title>
<g id="a_node13"><a xlink:href="_user_control_node_8cpp.html" target="_top" xlink:title="C:/dev/Igor/src/Tools\l/ModelViewer/src/UserControl\lNode.cpp">
<polygon fill="white" stroke="black" points="1780,-0.5 1780,-41.5 1926,-41.5 1926,-0.5 1780,-0.5"/>
<text text-anchor="start" x="1788" y="-29.5" font-family="Helvetica,sans-Serif" font-size="10.00">C:/dev/Igor/src/Tools</text>
<text text-anchor="start" x="1788" y="-18.5" font-family="Helvetica,sans-Serif" font-size="10.00">/ModelViewer/src/UserControl</text>
<text text-anchor="middle" x="1853" y="-7.5" font-family="Helvetica,sans-Serif" font-size="10.00">Node.cpp</text>
</a>
</g>
</g>
<!-- Node1&#45;&gt;Node13 -->
<g id="edge12" class="edge"><title>Node1&#45;&gt;Node13</title>
<path fill="none" stroke="midnightblue" d="M1181.57,-90.9421C1300.55,-87.3664 1557.26,-76.0608 1771,-42 1773.89,-41.5388 1776.84,-41.0276 1779.8,-40.477"/>
<polygon fill="midnightblue" stroke="midnightblue" points="1181.41,-87.445 1171.52,-91.2354 1181.62,-94.442 1181.41,-87.445"/>
</g>
<!-- Node14 -->
<g id="node14" class="node"><title>Node14</title>
<g id="a_node14"><a xlink:href="_user_control_particle_system_8cpp.html" target="_top" xlink:title="C:/dev/Igor/src/Tools\l/ModelViewer/src/UserControl\lParticleSystem.cpp">
<polygon fill="white" stroke="black" points="1944,-0.5 1944,-41.5 2090,-41.5 2090,-0.5 1944,-0.5"/>
<text text-anchor="start" x="1952" y="-29.5" font-family="Helvetica,sans-Serif" font-size="10.00">C:/dev/Igor/src/Tools</text>
<text text-anchor="start" x="1952" y="-18.5" font-family="Helvetica,sans-Serif" font-size="10.00">/ModelViewer/src/UserControl</text>
<text text-anchor="middle" x="2017" y="-7.5" font-family="Helvetica,sans-Serif" font-size="10.00">ParticleSystem.cpp</text>
</a>
</g>
</g>
<!-- Node1&#45;&gt;Node14 -->
<g id="edge13" class="edge"><title>Node1&#45;&gt;Node14</title>
<path fill="none" stroke="midnightblue" d="M1181.69,-92.3937C1321.96,-91.294 1657.44,-84.0547 1935,-42 1937.9,-41.561 1940.84,-41.0685 1943.81,-40.5335"/>
<polygon fill="midnightblue" stroke="midnightblue" points="1181.51,-88.8948 1171.54,-92.4652 1181.56,-95.8947 1181.51,-88.8948"/>
</g>
<!-- Node15 -->
<g id="node15" class="node"><title>Node15</title>
<g id="a_node15"><a xlink:href="_user_control_transformation_8cpp.html" target="_top" xlink:title="C:/dev/Igor/src/Tools\l/ModelViewer/src/UserControl\lTransformation.cpp">
<polygon fill="white" stroke="black" points="2108,-0.5 2108,-41.5 2254,-41.5 2254,-0.5 2108,-0.5"/>
<text text-anchor="start" x="2116" y="-29.5" font-family="Helvetica,sans-Serif" font-size="10.00">C:/dev/Igor/src/Tools</text>
<text text-anchor="start" x="2116" y="-18.5" font-family="Helvetica,sans-Serif" font-size="10.00">/ModelViewer/src/UserControl</text>
<text text-anchor="middle" x="2181" y="-7.5" font-family="Helvetica,sans-Serif" font-size="10.00">Transformation.cpp</text>
</a>
</g>
</g>
<!-- Node1&#45;&gt;Node15 -->
<g id="edge14" class="edge"><title>Node1&#45;&gt;Node15</title>
<path fill="none" stroke="midnightblue" d="M1181.99,-90.704C1373.57,-85.3065 1921.37,-67.9837 2099,-42 2101.9,-41.5758 2104.85,-41.0958 2107.82,-40.5713"/>
<polygon fill="midnightblue" stroke="midnightblue" points="1181.68,-87.2112 1171.78,-90.9898 1181.87,-94.2085 1181.68,-87.2112"/>
</g>
</g>
</svg>
