<?xml version="1.0" encoding="UTF-8" standalone="no"?>
<!DOCTYPE svg PUBLIC "-//W3C//DTD SVG 1.1//EN"
 "http://www.w3.org/Graphics/SVG/1.1/DTD/svg11.dtd">
<!-- Generated by graphviz version 2.38.0 (20140413.2041)
 -->
<!-- Title: C:/dev/Igor/src/Igor/src/iWidgetColor.h Pages: 1 -->
<svg width="786pt" height="106pt"
 viewBox="0.00 0.00 786.00 106.00" xmlns="http://www.w3.org/2000/svg" xmlns:xlink="http://www.w3.org/1999/xlink">
<g id="graph0" class="graph" transform="scale(1 1) rotate(0) translate(4 102)">
<title>C:/dev/Igor/src/Igor/src/iWidgetColor.h</title>
<polygon fill="white" stroke="none" points="-4,4 -4,-102 782,-102 782,4 -4,4"/>
<!-- Node1 -->
<g id="node1" class="node"><title>Node1</title>
<polygon fill="#bfbfbf" stroke="black" points="376.5,-67.5 376.5,-97.5 476.5,-97.5 476.5,-67.5 376.5,-67.5"/>
<text text-anchor="start" x="384.5" y="-85.5" font-family="Helvetica,sans-Serif" font-size="10.00">C:/dev/Igor/src/Igor</text>
<text text-anchor="middle" x="426.5" y="-74.5" font-family="Helvetica,sans-Serif" font-size="10.00">/src/iWidgetColor.h</text>
</g>
<!-- Node2 -->
<g id="node2" class="node"><title>Node2</title>
<g id="a_node2"><a xlink:href="i_dialog_color_gradient_8cpp.html" target="_top" xlink:title="C:/dev/Igor/src/Igor\l/src/iDialogColorGradient.cpp">
<polygon fill="white" stroke="black" points="0,-0.5 0,-30.5 143,-30.5 143,-0.5 0,-0.5"/>
<text text-anchor="start" x="8" y="-18.5" font-family="Helvetica,sans-Serif" font-size="10.00">C:/dev/Igor/src/Igor</text>
<text text-anchor="middle" x="71.5" y="-7.5" font-family="Helvetica,sans-Serif" font-size="10.00">/src/iDialogColorGradient.cpp</text>
</a>
</g>
</g>
<!-- Node1&#45;&gt;Node2 -->
<g id="edge1" class="edge"><title>Node1&#45;&gt;Node2</title>
<path fill="none" stroke="midnightblue" d="M366.418,-70.4992C304.735,-59.205 208.743,-41.629 143.143,-29.6178"/>
<polygon fill="midnightblue" stroke="midnightblue" points="365.923,-73.9666 376.39,-72.3249 367.184,-67.0811 365.923,-73.9666"/>
</g>
<!-- Node3 -->
<g id="node3" class="node"><title>Node3</title>
<g id="a_node3"><a xlink:href="i_user_control_color_chooser_8cpp.html" target="_top" xlink:title="C:/dev/Igor/src/Igor\l/src/iUserControlColorChooser.cpp">
<polygon fill="white" stroke="black" points="161,-0.5 161,-30.5 328,-30.5 328,-0.5 161,-0.5"/>
<text text-anchor="start" x="169" y="-18.5" font-family="Helvetica,sans-Serif" font-size="10.00">C:/dev/Igor/src/Igor</text>
<text text-anchor="middle" x="244.5" y="-7.5" font-family="Helvetica,sans-Serif" font-size="10.00">/src/iUserControlColorChooser.cpp</text>
</a>
</g>
</g>
<!-- Node1&#45;&gt;Node3 -->
<g id="edge2" class="edge"><title>Node1&#45;&gt;Node3</title>
<path fill="none" stroke="midnightblue" d="M377.375,-63.9553C348.057,-53.4847 311.324,-40.3656 283.914,-30.5765"/>
<polygon fill="midnightblue" stroke="midnightblue" points="376.414,-67.3286 387.009,-67.396 378.768,-60.7364 376.414,-67.3286"/>
</g>
<!-- Node4 -->
<g id="node4" class="node"><title>Node4</title>
<g id="a_node4"><a xlink:href="i_user_control_file_chooser_8cpp.html" target="_top" xlink:title="C:/dev/Igor/src/Igor\l/src/iUserControlFileChooser.cpp">
<polygon fill="white" stroke="black" points="346.5,-0.5 346.5,-30.5 506.5,-30.5 506.5,-0.5 346.5,-0.5"/>
<text text-anchor="start" x="354.5" y="-18.5" font-family="Helvetica,sans-Serif" font-size="10.00">C:/dev/Igor/src/Igor</text>
<text text-anchor="middle" x="426.5" y="-7.5" font-family="Helvetica,sans-Serif" font-size="10.00">/src/iUserControlFileChooser.cpp</text>
</a>
</g>
</g>
<!-- Node1&#45;&gt;Node4 -->
<g id="edge3" class="edge"><title>Node1&#45;&gt;Node4</title>
<path fill="none" stroke="midnightblue" d="M426.5,-57.1081C426.5,-48.1539 426.5,-38.3227 426.5,-30.5765"/>
<polygon fill="midnightblue" stroke="midnightblue" points="423,-57.3959 426.5,-67.396 430,-57.396 423,-57.3959"/>
</g>
<!-- Node5 -->
<g id="node5" class="node"><title>Node5</title>
<g id="a_node5"><a xlink:href="i_widget_color_8cpp.html" target="_top" xlink:title="C:/dev/Igor/src/Igor\l/src/iWidgetColor.cpp">
<polygon fill="white" stroke="black" points="524.5,-0.5 524.5,-30.5 634.5,-30.5 634.5,-0.5 524.5,-0.5"/>
<text text-anchor="start" x="532.5" y="-18.5" font-family="Helvetica,sans-Serif" font-size="10.00">C:/dev/Igor/src/Igor</text>
<text text-anchor="middle" x="579.5" y="-7.5" font-family="Helvetica,sans-Serif" font-size="10.00">/src/iWidgetColor.cpp</text>
</a>
</g>
</g>
<!-- Node1&#45;&gt;Node5 -->
<g id="edge4" class="edge"><title>Node1&#45;&gt;Node5</title>
<path fill="none" stroke="midnightblue" d="M469.089,-63.4066C493.515,-53.0294 523.725,-40.1954 546.366,-30.5765"/>
<polygon fill="midnightblue" stroke="midnightblue" points="467.534,-60.2644 459.699,-67.396 470.271,-66.7071 467.534,-60.2644"/>
</g>
<!-- Node6 -->
<g id="node6" class="node"><title>Node6</title>
<g id="a_node6"><a xlink:href="i_widget_manager_8cpp.html" target="_top" xlink:title="C:/dev/Igor/src/Igor\l/src/iWidgetManager.cpp">
<polygon fill="white" stroke="black" points="653,-0.5 653,-30.5 778,-30.5 778,-0.5 653,-0.5"/>
<text text-anchor="start" x="661" y="-18.5" font-family="Helvetica,sans-Serif" font-size="10.00">C:/dev/Igor/src/Igor</text>
<text text-anchor="middle" x="715.5" y="-7.5" font-family="Helvetica,sans-Serif" font-size="10.00">/src/iWidgetManager.cpp</text>
</a>
</g>
</g>
<!-- Node1&#45;&gt;Node6 -->
<g id="edge5" class="edge"><title>Node1&#45;&gt;Node6</title>
<path fill="none" stroke="midnightblue" d="M486.283,-68.0539C535.001,-57.0967 603.579,-41.6725 653.013,-30.5542"/>
<polygon fill="midnightblue" stroke="midnightblue" points="485.498,-64.643 476.51,-70.2521 487.034,-71.4724 485.498,-64.643"/>
</g>
</g>
</svg>
