<?xml version="1.0" encoding="UTF-8" standalone="no"?>
<!DOCTYPE svg PUBLIC "-//W3C//DTD SVG 1.1//EN"
 "http://www.w3.org/Graphics/SVG/1.1/DTD/svg11.dtd">
<!-- Generated by graphviz version 2.38.0 (20140413.2041)
 -->
<!-- Title: C:/dev/Igor/Igor/src/Igor/src/iWidgetGraph.h Pages: 1 -->
<svg width="1049pt" height="431pt"
 viewBox="0.00 0.00 1049.17 431.00" xmlns="http://www.w3.org/2000/svg" xmlns:xlink="http://www.w3.org/1999/xlink">
<g id="graph0" class="graph" transform="scale(1 1) rotate(0) translate(4 427)">
<title>C:/dev/Igor/Igor/src/Igor/src/iWidgetGraph.h</title>
<polygon fill="white" stroke="none" points="-4,4 -4,-427 1045.17,-427 1045.17,4 -4,4"/>
<!-- Node0 -->
<g id="node1" class="node"><title>Node0</title>
<g id="a_node1"><a xlink:title=" ">
<polygon fill="#bfbfbf" stroke="black" points="353.59,-392.5 353.59,-422.5 475.59,-422.5 475.59,-392.5 353.59,-392.5"/>
<text text-anchor="start" x="361.59" y="-410.5" font-family="Helvetica,sans-Serif" font-size="10.00">C:/dev/Igor/Igor/src</text>
<text text-anchor="middle" x="414.59" y="-399.5" font-family="Helvetica,sans-Serif" font-size="10.00">/Igor/src/iWidgetGraph.h</text>
</a>
</g>
</g>
<!-- Node1 -->
<g id="node2" class="node"><title>Node1</title>
<g id="a_node2"><a xlink:href="i_widget_8h.html" target="_top" xlink:title=" ">
<polygon fill="white" stroke="black" points="356.59,-336.5 356.59,-355.5 414.59,-355.5 414.59,-336.5 356.59,-336.5"/>
<text text-anchor="middle" x="385.59" y="-343.5" font-family="Helvetica,sans-Serif" font-size="10.00">iWidget.h</text>
</a>
</g>
</g>
<!-- Node0&#45;&gt;Node1 -->
<g id="edge1" class="edge"><title>Node0&#45;&gt;Node1</title>
<path fill="none" stroke="midnightblue" d="M407.717,-392.399C403.677,-384.11 398.532,-373.554 394.221,-364.708"/>
<polygon fill="midnightblue" stroke="midnightblue" points="397.337,-363.113 389.81,-355.658 391.045,-366.18 397.337,-363.113"/>
</g>
<!-- Node13 -->
<g id="node14" class="node"><title>Node13</title>
<g id="a_node14"><a xlink:title=" ">
<polygon fill="white" stroke="#bfbfbf" points="363.59,-112.5 363.59,-131.5 405.59,-131.5 405.59,-112.5 363.59,-112.5"/>
<text text-anchor="middle" x="384.59" y="-119.5" font-family="Helvetica,sans-Serif" font-size="10.00">vector</text>
</a>
</g>
</g>
<!-- Node0&#45;&gt;Node13 -->
<g id="edge51" class="edge"><title>Node0&#45;&gt;Node13</title>
<path fill="none" stroke="midnightblue" d="M353.555,-399.791C289.991,-389.02 199.59,-361.337 199.59,-291 199.59,-291 199.59,-291 199.59,-233 199.59,-202.902 197.056,-189.028 218.59,-168 263.018,-124.616 293.769,-148.658 353.59,-132 353.688,-131.973 353.786,-131.945 353.884,-131.918"/>
<polygon fill="midnightblue" stroke="midnightblue" points="354.596,-135.354 363.262,-129.259 352.686,-128.62 354.596,-135.354"/>
</g>
<!-- Node15 -->
<g id="node16" class="node"><title>Node15</title>
<g id="a_node16"><a xlink:href="ia_string_8h.html" target="_top" xlink:title=" ">
<polygon fill="white" stroke="black" points="355.59,-168.5 355.59,-187.5 413.59,-187.5 413.59,-168.5 355.59,-168.5"/>
<text text-anchor="middle" x="384.59" y="-175.5" font-family="Helvetica,sans-Serif" font-size="10.00">iaString.h</text>
</a>
</g>
</g>
<!-- Node0&#45;&gt;Node15 -->
<g id="edge46" class="edge"><title>Node0&#45;&gt;Node15</title>
<path fill="none" stroke="midnightblue" d="M417.714,-392.434C419.803,-382.349 422.381,-368.409 423.59,-356 426.865,-322.378 438.705,-310.69 424.59,-280 414.317,-257.664 392.863,-266.336 382.59,-244 375.956,-229.576 377.214,-211.385 379.695,-197.918"/>
<polygon fill="midnightblue" stroke="midnightblue" points="383.168,-198.424 381.92,-187.903 376.334,-196.906 383.168,-198.424"/>
</g>
<!-- Node18 -->
<g id="node19" class="node"><title>Node18</title>
<g id="a_node19"><a xlink:title=" ">
<polygon fill="white" stroke="#bfbfbf" points="679.09,-168.5 679.09,-187.5 714.09,-187.5 714.09,-168.5 679.09,-168.5"/>
<text text-anchor="middle" x="696.59" y="-175.5" font-family="Helvetica,sans-Serif" font-size="10.00">map</text>
</a>
</g>
</g>
<!-- Node0&#45;&gt;Node18 -->
<g id="edge52" class="edge"><title>Node0&#45;&gt;Node18</title>
<path fill="none" stroke="midnightblue" d="M475.776,-397.099C553.789,-381.298 684.346,-341.009 732.59,-244 741.137,-226.813 727.586,-207.646 714.738,-194.607"/>
<polygon fill="midnightblue" stroke="midnightblue" points="717.1,-192.023 707.427,-187.7 712.292,-197.111 717.1,-192.023"/>
</g>
<!-- Node21 -->
<g id="node22" class="node"><title>Node21</title>
<g id="a_node22"><a xlink:href="ia_vector2_8h.html" target="_top" xlink:title=" ">
<polygon fill="white" stroke="black" points="21.5899,-168.5 21.5899,-187.5 87.5899,-187.5 87.5899,-168.5 21.5899,-168.5"/>
<text text-anchor="middle" x="54.5899" y="-175.5" font-family="Helvetica,sans-Serif" font-size="10.00">iaVector2.h</text>
</a>
</g>
</g>
<!-- Node0&#45;&gt;Node21 -->
<g id="edge50" class="edge"><title>Node0&#45;&gt;Node21</title>
<path fill="none" stroke="midnightblue" d="M353.203,-404.584C304.319,-400.462 235.972,-388.675 185.59,-356 122.824,-315.294 79.4714,-233.399 62.5267,-197.068"/>
<polygon fill="midnightblue" stroke="midnightblue" points="65.6065,-195.385 58.2875,-187.724 59.2319,-198.277 65.6065,-195.385"/>
</g>
<!-- Node31 -->
<g id="node32" class="node"><title>Node31</title>
<g id="a_node32"><a xlink:href="ia_color4_8h.html" target="_top" xlink:title=" ">
<polygon fill="white" stroke="black" points="973.59,-168.5 973.59,-187.5 1033.59,-187.5 1033.59,-168.5 973.59,-168.5"/>
<text text-anchor="middle" x="1003.59" y="-175.5" font-family="Helvetica,sans-Serif" font-size="10.00">iaColor4.h</text>
</a>
</g>
</g>
<!-- Node0&#45;&gt;Node31 -->
<g id="edge47" class="edge"><title>Node0&#45;&gt;Node31</title>
<path fill="none" stroke="midnightblue" d="M475.821,-396.723C521.681,-388.454 585.555,-374.913 639.59,-356 774.075,-308.928 923.881,-225.379 980.365,-192.67"/>
<polygon fill="midnightblue" stroke="midnightblue" points="982.329,-195.577 989.21,-187.52 978.807,-189.527 982.329,-195.577"/>
</g>
<!-- Node2 -->
<g id="node3" class="node"><title>Node2</title>
<g id="a_node3"><a xlink:href="i_mouse_8h.html" target="_top" xlink:title=" ">
<polygon fill="white" stroke="black" points="483.59,-280.5 483.59,-299.5 539.59,-299.5 539.59,-280.5 483.59,-280.5"/>
<text text-anchor="middle" x="511.59" y="-287.5" font-family="Helvetica,sans-Serif" font-size="10.00">iMouse.h</text>
</a>
</g>
</g>
<!-- Node1&#45;&gt;Node2 -->
<g id="edge2" class="edge"><title>Node1&#45;&gt;Node2</title>
<path fill="none" stroke="midnightblue" d="M405.555,-336.444C426.199,-327.596 458.652,-313.687 482.221,-303.586"/>
<polygon fill="midnightblue" stroke="midnightblue" points="483.905,-306.673 491.718,-299.516 481.148,-300.239 483.905,-306.673"/>
</g>
<!-- Node1&#45;&gt;Node13 -->
<g id="edge44" class="edge"><title>Node1&#45;&gt;Node13</title>
<path fill="none" stroke="midnightblue" d="M374.049,-336.49C364.11,-328.379 350.467,-315.178 344.59,-300 335.139,-275.596 296.485,-301.295 346.59,-168 350.745,-156.945 358.886,-146.705 366.571,-138.796"/>
<polygon fill="midnightblue" stroke="midnightblue" points="369.151,-141.17 373.938,-131.719 364.302,-136.122 369.151,-141.17"/>
</g>
<!-- Node25 -->
<g id="node26" class="node"><title>Node25</title>
<g id="a_node26"><a xlink:href="i_timer_handle_8h.html" target="_top" xlink:title=" ">
<polygon fill="white" stroke="black" points="569.09,-280.5 569.09,-299.5 650.09,-299.5 650.09,-280.5 569.09,-280.5"/>
<text text-anchor="middle" x="609.59" y="-287.5" font-family="Helvetica,sans-Serif" font-size="10.00">iTimerHandle.h</text>
</a>
</g>
</g>
<!-- Node1&#45;&gt;Node25 -->
<g id="edge34" class="edge"><title>Node1&#45;&gt;Node25</title>
<path fill="none" stroke="midnightblue" d="M414.874,-337.94C452.831,-328.79 519.425,-312.736 564.019,-301.986"/>
<polygon fill="midnightblue" stroke="midnightblue" points="565.114,-305.322 574.015,-299.576 563.473,-298.517 565.114,-305.322"/>
</g>
<!-- Node26 -->
<g id="node27" class="node"><title>Node26</title>
<g id="a_node27"><a xlink:href="ia_vector4_8h.html" target="_top" xlink:title=" ">
<polygon fill="white" stroke="black" points="230.59,-224.5 230.59,-243.5 296.59,-243.5 296.59,-224.5 230.59,-224.5"/>
<text text-anchor="middle" x="263.59" y="-231.5" font-family="Helvetica,sans-Serif" font-size="10.00">iaVector4.h</text>
</a>
</g>
</g>
<!-- Node1&#45;&gt;Node26 -->
<g id="edge37" class="edge"><title>Node1&#45;&gt;Node26</title>
<path fill="none" stroke="midnightblue" d="M367.226,-336.389C351.384,-328.393 328.459,-315.42 311.59,-300 296.279,-286.004 282.64,-266.489 273.851,-252.501"/>
<polygon fill="midnightblue" stroke="midnightblue" points="276.767,-250.56 268.58,-243.836 270.786,-254.198 276.767,-250.56"/>
</g>
<!-- Node30 -->
<g id="node31" class="node"><title>Node30</title>
<g id="a_node31"><a xlink:href="i_widget_8inl.html" target="_top" xlink:title=" ">
<polygon fill="white" stroke="black" points="353.59,-280.5 353.59,-299.5 415.59,-299.5 415.59,-280.5 353.59,-280.5"/>
<text text-anchor="middle" x="384.59" y="-287.5" font-family="Helvetica,sans-Serif" font-size="10.00">iWidget.inl</text>
</a>
</g>
</g>
<!-- Node1&#45;&gt;Node30 -->
<g id="edge45" class="edge"><title>Node1&#45;&gt;Node30</title>
<path fill="none" stroke="midnightblue" d="M385.425,-336.083C385.294,-329.006 385.106,-318.861 384.941,-309.986"/>
<polygon fill="midnightblue" stroke="midnightblue" points="388.437,-309.685 384.752,-299.751 381.438,-309.814 388.437,-309.685"/>
</g>
<!-- Node3 -->
<g id="node4" class="node"><title>Node3</title>
<g id="a_node4"><a xlink:href="ia_event_8h.html" target="_top" xlink:title=" ">
<polygon fill="white" stroke="black" points="779.59,-224.5 779.59,-243.5 835.59,-243.5 835.59,-224.5 779.59,-224.5"/>
<text text-anchor="middle" x="807.59" y="-231.5" font-family="Helvetica,sans-Serif" font-size="10.00">iaEvent.h</text>
</a>
</g>
</g>
<!-- Node2&#45;&gt;Node3 -->
<g id="edge3" class="edge"><title>Node2&#45;&gt;Node3</title>
<path fill="none" stroke="midnightblue" d="M539.758,-283.69C546.269,-282.47 553.17,-281.184 559.59,-280 633.758,-266.318 720.47,-250.662 769.216,-241.891"/>
<polygon fill="midnightblue" stroke="midnightblue" points="770.091,-245.29 779.314,-240.075 768.852,-238.401 770.091,-245.29"/>
</g>
<!-- Node14 -->
<g id="node15" class="node"><title>Node14</title>
<g id="a_node15"><a xlink:href="i_key_code_map_8h.html" target="_top" xlink:title=" ">
<polygon fill="white" stroke="black" points="637.59,-224.5 637.59,-243.5 723.59,-243.5 723.59,-224.5 637.59,-224.5"/>
<text text-anchor="middle" x="680.59" y="-231.5" font-family="Helvetica,sans-Serif" font-size="10.00">iKeyCodeMap.h</text>
</a>
</g>
</g>
<!-- Node2&#45;&gt;Node14 -->
<g id="edge16" class="edge"><title>Node2&#45;&gt;Node14</title>
<path fill="none" stroke="midnightblue" d="M538.368,-280.444C566.923,-271.32 612.322,-256.813 644.127,-246.651"/>
<polygon fill="midnightblue" stroke="midnightblue" points="645.476,-249.894 653.937,-243.516 643.346,-243.226 645.476,-249.894"/>
</g>
<!-- Node19 -->
<g id="node20" class="node"><title>Node19</title>
<g id="a_node20"><a xlink:href="i_rectangle_8h.html" target="_top" xlink:title=" ">
<polygon fill="white" stroke="black" points="392.09,-224.5 392.09,-243.5 463.09,-243.5 463.09,-224.5 392.09,-224.5"/>
<text text-anchor="middle" x="427.59" y="-231.5" font-family="Helvetica,sans-Serif" font-size="10.00">iRectangle.h</text>
</a>
</g>
</g>
<!-- Node2&#45;&gt;Node19 -->
<g id="edge25" class="edge"><title>Node2&#45;&gt;Node19</title>
<path fill="none" stroke="midnightblue" d="M498.094,-280.324C484.99,-271.9 464.878,-258.971 449.483,-249.074"/>
<polygon fill="midnightblue" stroke="midnightblue" points="451.357,-246.118 441.052,-243.655 447.572,-252.006 451.357,-246.118"/>
</g>
<!-- Node2&#45;&gt;Node21 -->
<g id="edge28" class="edge"><title>Node2&#45;&gt;Node21</title>
<path fill="none" stroke="midnightblue" d="M483.564,-285.441C420.866,-277.352 270.916,-257.257 221.59,-244 170.944,-230.388 114.59,-206.521 82.0028,-191.805"/>
<polygon fill="midnightblue" stroke="midnightblue" points="83.2357,-188.52 72.6851,-187.553 80.3297,-194.889 83.2357,-188.52"/>
</g>
<!-- Node24 -->
<g id="node25" class="node"><title>Node24</title>
<g id="a_node25"><a xlink:href="i_o_s_event_listener_8h.html" target="_top" xlink:title=" ">
<polygon fill="white" stroke="black" points="481.59,-224.5 481.59,-243.5 581.59,-243.5 581.59,-224.5 481.59,-224.5"/>
<text text-anchor="middle" x="531.59" y="-231.5" font-family="Helvetica,sans-Serif" font-size="10.00">iOSEventListener.h</text>
</a>
</g>
</g>
<!-- Node2&#45;&gt;Node24 -->
<g id="edge33" class="edge"><title>Node2&#45;&gt;Node24</title>
<path fill="none" stroke="midnightblue" d="M514.892,-280.083C517.572,-272.849 521.439,-262.409 524.776,-253.397"/>
<polygon fill="midnightblue" stroke="midnightblue" points="528.158,-254.344 528.349,-243.751 521.593,-251.913 528.158,-254.344"/>
</g>
<!-- Node4 -->
<g id="node5" class="node"><title>Node4</title>
<g id="a_node5"><a xlink:href="ia_mutex_8h.html" target="_top" xlink:title=" ">
<polygon fill="white" stroke="black" points="649.09,-56.5 649.09,-75.5 708.09,-75.5 708.09,-56.5 649.09,-56.5"/>
<text text-anchor="middle" x="678.59" y="-63.5" font-family="Helvetica,sans-Serif" font-size="10.00">iaMutex.h</text>
</a>
</g>
</g>
<!-- Node3&#45;&gt;Node4 -->
<g id="edge4" class="edge"><title>Node3&#45;&gt;Node4</title>
<path fill="none" stroke="midnightblue" d="M810.692,-224.467C814.856,-211.509 820.737,-186.432 811.59,-168 790.332,-125.164 741.257,-95.5993 709.034,-79.9868"/>
<polygon fill="midnightblue" stroke="midnightblue" points="710.166,-76.6524 699.624,-75.5902 707.203,-82.9943 710.166,-76.6524"/>
</g>
<!-- Node6 -->
<g id="node7" class="node"><title>Node6</title>
<g id="a_node7"><a xlink:href="ia_delegate_8h.html" target="_top" xlink:title=" ">
<polygon fill="white" stroke="black" points="732.09,-168.5 732.09,-187.5 803.09,-187.5 803.09,-168.5 732.09,-168.5"/>
<text text-anchor="middle" x="767.59" y="-175.5" font-family="Helvetica,sans-Serif" font-size="10.00">iaDelegate.h</text>
</a>
</g>
</g>
<!-- Node3&#45;&gt;Node6 -->
<g id="edge6" class="edge"><title>Node3&#45;&gt;Node6</title>
<path fill="none" stroke="midnightblue" d="M800.985,-224.083C795.335,-216.455 787.045,-205.264 780.139,-195.941"/>
<polygon fill="midnightblue" stroke="midnightblue" points="782.837,-193.703 774.072,-187.751 777.212,-197.87 782.837,-193.703"/>
</g>
<!-- Node7 -->
<g id="node8" class="node"><title>Node7</title>
<g id="a_node8"><a xlink:href="ia_console_8h.html" target="_top" xlink:title=" ">
<polygon fill="white" stroke="black" points="859.59,-168.5 859.59,-187.5 927.59,-187.5 927.59,-168.5 859.59,-168.5"/>
<text text-anchor="middle" x="893.59" y="-175.5" font-family="Helvetica,sans-Serif" font-size="10.00">iaConsole.h</text>
</a>
</g>
</g>
<!-- Node3&#45;&gt;Node7 -->
<g id="edge7" class="edge"><title>Node3&#45;&gt;Node7</title>
<path fill="none" stroke="midnightblue" d="M821.407,-224.324C834.823,-215.9 855.414,-202.971 871.175,-193.074"/>
<polygon fill="midnightblue" stroke="midnightblue" points="873.199,-195.936 879.807,-187.655 869.477,-190.008 873.199,-195.936"/>
</g>
<!-- Node3&#45;&gt;Node13 -->
<g id="edge15" class="edge"><title>Node3&#45;&gt;Node13</title>
<path fill="none" stroke="midnightblue" d="M781.635,-224.413C741.416,-211.276 661.484,-185.836 592.59,-168 530.238,-151.858 456.354,-136.833 415.556,-128.889"/>
<polygon fill="midnightblue" stroke="midnightblue" points="416.166,-125.443 405.684,-126.98 414.837,-132.315 416.166,-125.443"/>
</g>
<!-- Node5 -->
<g id="node6" class="node"><title>Node5</title>
<g id="a_node6"><a xlink:href="ia_defines_8h.html" target="_top" xlink:title=" ">
<polygon fill="white" stroke="black" points="522.09,-0.5 522.09,-19.5 587.09,-19.5 587.09,-0.5 522.09,-0.5"/>
<text text-anchor="middle" x="554.59" y="-7.5" font-family="Helvetica,sans-Serif" font-size="10.00">iaDefines.h</text>
</a>
</g>
</g>
<!-- Node4&#45;&gt;Node5 -->
<g id="edge5" class="edge"><title>Node4&#45;&gt;Node5</title>
<path fill="none" stroke="midnightblue" d="M658.942,-56.4435C638.625,-47.5961 606.687,-33.6875 583.492,-23.5865"/>
<polygon fill="midnightblue" stroke="midnightblue" points="584.712,-20.3002 574.146,-19.5164 581.917,-26.7181 584.712,-20.3002"/>
</g>
<!-- Node8 -->
<g id="node9" class="node"><title>Node8</title>
<g id="a_node9"><a xlink:href="ia_singleton_8h.html" target="_top" xlink:title=" ">
<polygon fill="white" stroke="black" points="642.09,-112.5 642.09,-131.5 715.09,-131.5 715.09,-112.5 642.09,-112.5"/>
<text text-anchor="middle" x="678.59" y="-119.5" font-family="Helvetica,sans-Serif" font-size="10.00">iaSingleton.h</text>
</a>
</g>
</g>
<!-- Node7&#45;&gt;Node8 -->
<g id="edge8" class="edge"><title>Node7&#45;&gt;Node8</title>
<path fill="none" stroke="midnightblue" d="M859.522,-168.444C822.409,-159.122 762.929,-144.183 722.375,-133.997"/>
<polygon fill="midnightblue" stroke="midnightblue" points="723.049,-130.558 712.498,-131.516 721.344,-137.347 723.049,-130.558"/>
</g>
<!-- Node9 -->
<g id="node10" class="node"><title>Node9</title>
<g id="a_node10"><a xlink:href="ia_clock_8h.html" target="_top" xlink:title=" ">
<polygon fill="white" stroke="black" points="754.09,-56.5 754.09,-75.5 811.09,-75.5 811.09,-56.5 754.09,-56.5"/>
<text text-anchor="middle" x="782.59" y="-63.5" font-family="Helvetica,sans-Serif" font-size="10.00">iaClock.h</text>
</a>
</g>
</g>
<!-- Node7&#45;&gt;Node9 -->
<g id="edge10" class="edge"><title>Node7&#45;&gt;Node9</title>
<path fill="none" stroke="midnightblue" d="M878.562,-168.419C864.876,-160.165 844.575,-146.788 829.59,-132 814.933,-117.535 801.526,-98.0932 792.816,-84.2502"/>
<polygon fill="midnightblue" stroke="midnightblue" points="795.784,-82.3941 787.579,-75.6911 789.813,-86.0478 795.784,-82.3941"/>
</g>
<!-- Node10 -->
<g id="node11" class="node"><title>Node10</title>
<g id="a_node11"><a xlink:title=" ">
<polygon fill="white" stroke="#bfbfbf" points="979.09,-112.5 979.09,-131.5 1028.09,-131.5 1028.09,-112.5 979.09,-112.5"/>
<text text-anchor="middle" x="1003.59" y="-119.5" font-family="Helvetica,sans-Serif" font-size="10.00">fstream</text>
</a>
</g>
</g>
<!-- Node7&#45;&gt;Node10 -->
<g id="edge12" class="edge"><title>Node7&#45;&gt;Node10</title>
<path fill="none" stroke="midnightblue" d="M911.263,-168.324C928.984,-159.625 956.493,-146.12 976.878,-136.113"/>
<polygon fill="midnightblue" stroke="midnightblue" points="978.526,-139.203 985.96,-131.655 975.441,-132.919 978.526,-139.203"/>
</g>
<!-- Node11 -->
<g id="node12" class="node"><title>Node11</title>
<g id="a_node12"><a xlink:title=" ">
<polygon fill="white" stroke="#bfbfbf" points="838.59,-112.5 838.59,-131.5 892.59,-131.5 892.59,-112.5 838.59,-112.5"/>
<text text-anchor="middle" x="865.59" y="-119.5" font-family="Helvetica,sans-Serif" font-size="10.00">iostream</text>
</a>
</g>
</g>
<!-- Node7&#45;&gt;Node11 -->
<g id="edge13" class="edge"><title>Node7&#45;&gt;Node11</title>
<path fill="none" stroke="midnightblue" d="M888.966,-168.083C885.134,-160.691 879.566,-149.953 874.825,-140.811"/>
<polygon fill="midnightblue" stroke="midnightblue" points="877.838,-139.018 870.127,-131.751 871.624,-142.24 877.838,-139.018"/>
</g>
<!-- Node12 -->
<g id="node13" class="node"><title>Node12</title>
<g id="a_node13"><a xlink:title=" ">
<polygon fill="white" stroke="#bfbfbf" points="910.59,-112.5 910.59,-131.5 960.59,-131.5 960.59,-112.5 910.59,-112.5"/>
<text text-anchor="middle" x="935.59" y="-119.5" font-family="Helvetica,sans-Serif" font-size="10.00">iomanip</text>
</a>
</g>
</g>
<!-- Node7&#45;&gt;Node12 -->
<g id="edge14" class="edge"><title>Node7&#45;&gt;Node12</title>
<path fill="none" stroke="midnightblue" d="M900.525,-168.083C906.519,-160.377 915.342,-149.033 922.638,-139.653"/>
<polygon fill="midnightblue" stroke="midnightblue" points="925.407,-141.793 928.783,-131.751 919.881,-137.496 925.407,-141.793"/>
</g>
<!-- Node8&#45;&gt;Node4 -->
<g id="edge9" class="edge"><title>Node8&#45;&gt;Node4</title>
<path fill="none" stroke="midnightblue" d="M678.59,-112.083C678.59,-105.006 678.59,-94.8611 678.59,-85.9865"/>
<polygon fill="midnightblue" stroke="midnightblue" points="682.09,-85.751 678.59,-75.7511 675.09,-85.7511 682.09,-85.751"/>
</g>
<!-- Node9&#45;&gt;Node5 -->
<g id="edge11" class="edge"><title>Node9&#45;&gt;Node5</title>
<path fill="none" stroke="midnightblue" d="M753.714,-58.1609C714.166,-48.7943 642.864,-31.907 597.179,-21.0868"/>
<polygon fill="midnightblue" stroke="midnightblue" points="597.815,-17.6408 587.278,-18.7418 596.202,-24.4523 597.815,-17.6408"/>
</g>
<!-- Node14&#45;&gt;Node8 -->
<g id="edge17" class="edge"><title>Node14&#45;&gt;Node8</title>
<path fill="none" stroke="midnightblue" d="M677.86,-224.486C675.139,-215.52 671.148,-200.935 669.59,-188 667.714,-172.428 670.459,-154.807 673.397,-141.843"/>
<polygon fill="midnightblue" stroke="midnightblue" points="676.873,-142.37 675.917,-131.819 670.084,-140.663 676.873,-142.37"/>
</g>
<!-- Node14&#45;&gt;Node15 -->
<g id="edge18" class="edge"><title>Node14&#45;&gt;Node15</title>
<path fill="none" stroke="midnightblue" d="M637.53,-226.298C588.193,-218.441 504.703,-204.598 423.487,-188.086"/>
<polygon fill="midnightblue" stroke="midnightblue" points="424.095,-184.638 413.596,-186.059 422.69,-191.495 424.095,-184.638"/>
</g>
<!-- Node17 -->
<g id="node18" class="node"><title>Node17</title>
<g id="a_node18"><a xlink:href="i_defines_8h.html" target="_top" xlink:title=" ">
<polygon fill="white" stroke="black" points="525.09,-168.5 525.09,-187.5 584.09,-187.5 584.09,-168.5 525.09,-168.5"/>
<text text-anchor="middle" x="554.59" y="-175.5" font-family="Helvetica,sans-Serif" font-size="10.00">iDefines.h</text>
</a>
</g>
</g>
<!-- Node14&#45;&gt;Node17 -->
<g id="edge22" class="edge"><title>Node14&#45;&gt;Node17</title>
<path fill="none" stroke="midnightblue" d="M660.625,-224.444C639.981,-215.596 607.527,-201.687 583.958,-191.586"/>
<polygon fill="midnightblue" stroke="midnightblue" points="585.032,-188.239 574.462,-187.516 582.274,-194.673 585.032,-188.239"/>
</g>
<!-- Node14&#45;&gt;Node18 -->
<g id="edge24" class="edge"><title>Node14&#45;&gt;Node18</title>
<path fill="none" stroke="midnightblue" d="M683.232,-224.083C685.375,-216.849 688.469,-206.409 691.139,-197.397"/>
<polygon fill="midnightblue" stroke="midnightblue" points="694.512,-198.333 693.997,-187.751 687.8,-196.345 694.512,-198.333"/>
</g>
<!-- Node15&#45;&gt;Node5 -->
<g id="edge19" class="edge"><title>Node15&#45;&gt;Node5</title>
<path fill="none" stroke="midnightblue" d="M393.73,-168.075C421.184,-141.267 503.19,-61.1902 538.322,-26.8851"/>
<polygon fill="midnightblue" stroke="midnightblue" points="541.106,-29.0587 545.815,-19.5681 536.215,-24.0504 541.106,-29.0587"/>
</g>
<!-- Node15&#45;&gt;Node13 -->
<g id="edge21" class="edge"><title>Node15&#45;&gt;Node13</title>
<path fill="none" stroke="midnightblue" d="M384.59,-168.083C384.59,-161.006 384.59,-150.861 384.59,-141.986"/>
<polygon fill="midnightblue" stroke="midnightblue" points="388.09,-141.751 384.59,-131.751 381.09,-141.751 388.09,-141.751"/>
</g>
<!-- Node16 -->
<g id="node17" class="node"><title>Node16</title>
<g id="a_node17"><a xlink:title=" ">
<polygon fill="white" stroke="#bfbfbf" points="203.59,-112.5 203.59,-131.5 255.59,-131.5 255.59,-112.5 203.59,-112.5"/>
<text text-anchor="middle" x="229.59" y="-119.5" font-family="Helvetica,sans-Serif" font-size="10.00">ostream</text>
</a>
</g>
</g>
<!-- Node15&#45;&gt;Node16 -->
<g id="edge20" class="edge"><title>Node15&#45;&gt;Node16</title>
<path fill="none" stroke="midnightblue" d="M360.03,-168.444C334.067,-159.399 292.922,-145.064 263.793,-134.916"/>
<polygon fill="midnightblue" stroke="midnightblue" points="264.63,-131.501 254.035,-131.516 262.327,-138.112 264.63,-131.501"/>
</g>
<!-- Node17&#45;&gt;Node5 -->
<g id="edge23" class="edge"><title>Node17&#45;&gt;Node5</title>
<path fill="none" stroke="midnightblue" d="M554.59,-168.075C554.59,-141.945 554.59,-65.2106 554.59,-29.577"/>
<polygon fill="midnightblue" stroke="midnightblue" points="558.09,-29.5681 554.59,-19.5681 551.09,-29.5681 558.09,-29.5681"/>
</g>
<!-- Node19&#45;&gt;Node17 -->
<g id="edge26" class="edge"><title>Node19&#45;&gt;Node17</title>
<path fill="none" stroke="midnightblue" d="M447.713,-224.444C468.614,-215.557 501.525,-201.563 525.306,-191.451"/>
<polygon fill="midnightblue" stroke="midnightblue" points="526.727,-194.65 534.561,-187.516 523.988,-188.208 526.727,-194.65"/>
</g>
<!-- Node20 -->
<g id="node21" class="node"><title>Node20</title>
<g id="a_node21"><a xlink:href="i_rectangle_8inl.html" target="_top" xlink:title=" ">
<polygon fill="white" stroke="black" points="432.09,-168.5 432.09,-187.5 507.09,-187.5 507.09,-168.5 432.09,-168.5"/>
<text text-anchor="middle" x="469.59" y="-175.5" font-family="Helvetica,sans-Serif" font-size="10.00">iRectangle.inl</text>
</a>
</g>
</g>
<!-- Node19&#45;&gt;Node20 -->
<g id="edge27" class="edge"><title>Node19&#45;&gt;Node20</title>
<path fill="none" stroke="midnightblue" d="M434.525,-224.083C440.519,-216.377 449.342,-205.033 456.638,-195.653"/>
<polygon fill="midnightblue" stroke="midnightblue" points="459.407,-197.793 462.783,-187.751 453.881,-193.496 459.407,-197.793"/>
</g>
<!-- Node21&#45;&gt;Node5 -->
<g id="edge29" class="edge"><title>Node21&#45;&gt;Node5</title>
<path fill="none" stroke="midnightblue" d="M39.7354,-168.492C19.7636,-155.984 -11.4868,-131.957 4.58988,-112 68.1429,-33.1076 393.612,-15.7214 511.711,-11.99"/>
<polygon fill="midnightblue" stroke="midnightblue" points="511.933,-15.485 521.824,-11.6881 511.724,-8.48814 511.933,-15.485"/>
</g>
<!-- Node21&#45;&gt;Node16 -->
<g id="edge31" class="edge"><title>Node21&#45;&gt;Node16</title>
<path fill="none" stroke="midnightblue" d="M82.3191,-168.444C112.452,-159.145 160.701,-144.257 193.704,-134.073"/>
<polygon fill="midnightblue" stroke="midnightblue" points="194.896,-137.368 203.419,-131.075 192.832,-130.68 194.896,-137.368"/>
</g>
<!-- Node22 -->
<g id="node23" class="node"><title>Node22</title>
<g id="a_node23"><a xlink:title=" ">
<polygon fill="white" stroke="#bfbfbf" points="103.59,-112.5 103.59,-131.5 147.59,-131.5 147.59,-112.5 103.59,-112.5"/>
<text text-anchor="middle" x="125.59" y="-119.5" font-family="Helvetica,sans-Serif" font-size="10.00">cmath</text>
</a>
</g>
</g>
<!-- Node21&#45;&gt;Node22 -->
<g id="edge30" class="edge"><title>Node21&#45;&gt;Node22</title>
<path fill="none" stroke="midnightblue" d="M65.9973,-168.324C76.6987,-160.185 92.9305,-147.839 105.753,-138.087"/>
<polygon fill="midnightblue" stroke="midnightblue" points="108.134,-140.673 113.975,-131.834 103.897,-135.102 108.134,-140.673"/>
</g>
<!-- Node23 -->
<g id="node24" class="node"><title>Node23</title>
<g id="a_node24"><a xlink:href="ia_vector2_8inl.html" target="_top" xlink:title=" ">
<polygon fill="white" stroke="black" points="14.0899,-112.5 14.0899,-131.5 85.0899,-131.5 85.0899,-112.5 14.0899,-112.5"/>
<text text-anchor="middle" x="49.5899" y="-119.5" font-family="Helvetica,sans-Serif" font-size="10.00">iaVector2.inl</text>
</a>
</g>
</g>
<!-- Node21&#45;&gt;Node23 -->
<g id="edge32" class="edge"><title>Node21&#45;&gt;Node23</title>
<path fill="none" stroke="midnightblue" d="M53.7642,-168.083C53.1089,-161.006 52.1696,-150.861 51.3479,-141.986"/>
<polygon fill="midnightblue" stroke="midnightblue" points="54.8073,-141.386 50.4002,-131.751 47.8371,-142.031 54.8073,-141.386"/>
</g>
<!-- Node25&#45;&gt;Node3 -->
<g id="edge35" class="edge"><title>Node25&#45;&gt;Node3</title>
<path fill="none" stroke="midnightblue" d="M640.964,-280.444C675.849,-270.929 732.195,-255.562 769.562,-245.371"/>
<polygon fill="midnightblue" stroke="midnightblue" points="770.838,-248.651 779.564,-242.643 768.996,-241.898 770.838,-248.651"/>
</g>
<!-- Node25&#45;&gt;Node17 -->
<g id="edge36" class="edge"><title>Node25&#45;&gt;Node17</title>
<path fill="none" stroke="midnightblue" d="M608.142,-280.179C605.781,-267.283 600.354,-242.775 590.59,-224 585.177,-213.591 577.169,-203.276 570.079,-195.153"/>
<polygon fill="midnightblue" stroke="midnightblue" points="572.493,-192.605 563.171,-187.569 567.318,-197.319 572.493,-192.605"/>
</g>
<!-- Node27 -->
<g id="node28" class="node"><title>Node27</title>
<g id="a_node28"><a xlink:href="ia_vector3_8h.html" target="_top" xlink:title=" ">
<polygon fill="white" stroke="black" points="105.59,-168.5 105.59,-187.5 171.59,-187.5 171.59,-168.5 105.59,-168.5"/>
<text text-anchor="middle" x="138.59" y="-175.5" font-family="Helvetica,sans-Serif" font-size="10.00">iaVector3.h</text>
</a>
</g>
</g>
<!-- Node26&#45;&gt;Node27 -->
<g id="edge38" class="edge"><title>Node26&#45;&gt;Node27</title>
<path fill="none" stroke="midnightblue" d="M243.783,-224.444C223.303,-215.596 191.107,-201.687 167.725,-191.586"/>
<polygon fill="midnightblue" stroke="midnightblue" points="168.872,-188.269 158.304,-187.516 166.096,-194.695 168.872,-188.269"/>
</g>
<!-- Node29 -->
<g id="node30" class="node"><title>Node29</title>
<g id="a_node30"><a xlink:href="ia_vector4_8inl.html" target="_top" xlink:title=" ">
<polygon fill="white" stroke="black" points="228.09,-168.5 228.09,-187.5 299.09,-187.5 299.09,-168.5 228.09,-168.5"/>
<text text-anchor="middle" x="263.59" y="-175.5" font-family="Helvetica,sans-Serif" font-size="10.00">iaVector4.inl</text>
</a>
</g>
</g>
<!-- Node26&#45;&gt;Node29 -->
<g id="edge43" class="edge"><title>Node26&#45;&gt;Node29</title>
<path fill="none" stroke="midnightblue" d="M263.59,-224.083C263.59,-217.006 263.59,-206.861 263.59,-197.986"/>
<polygon fill="midnightblue" stroke="midnightblue" points="267.09,-197.751 263.59,-187.751 260.09,-197.751 267.09,-197.751"/>
</g>
<!-- Node27&#45;&gt;Node5 -->
<g id="edge39" class="edge"><title>Node27&#45;&gt;Node5</title>
<path fill="none" stroke="midnightblue" d="M143.618,-168.414C152.244,-154.445 171.214,-126.871 194.59,-112 296.567,-47.1265 440.639,-23.1923 511.63,-14.9631"/>
<polygon fill="midnightblue" stroke="midnightblue" points="512.417,-18.3974 521.97,-13.8165 511.645,-11.4401 512.417,-18.3974"/>
</g>
<!-- Node27&#45;&gt;Node16 -->
<g id="edge41" class="edge"><title>Node27&#45;&gt;Node16</title>
<path fill="none" stroke="midnightblue" d="M153.211,-168.324C167.539,-159.822 189.602,-146.729 206.339,-136.797"/>
<polygon fill="midnightblue" stroke="midnightblue" points="208.192,-139.768 215.005,-131.655 204.619,-133.748 208.192,-139.768"/>
</g>
<!-- Node27&#45;&gt;Node22 -->
<g id="edge40" class="edge"><title>Node27&#45;&gt;Node22</title>
<path fill="none" stroke="midnightblue" d="M136.443,-168.083C134.721,-160.927 132.243,-150.635 130.09,-141.691"/>
<polygon fill="midnightblue" stroke="midnightblue" points="133.44,-140.654 127.697,-131.751 126.634,-142.293 133.44,-140.654"/>
</g>
<!-- Node28 -->
<g id="node29" class="node"><title>Node28</title>
<g id="a_node29"><a xlink:href="ia_vector3_8inl.html" target="_top" xlink:title=" ">
<polygon fill="white" stroke="black" points="274.09,-112.5 274.09,-131.5 345.09,-131.5 345.09,-112.5 274.09,-112.5"/>
<text text-anchor="middle" x="309.59" y="-119.5" font-family="Helvetica,sans-Serif" font-size="10.00">iaVector3.inl</text>
</a>
</g>
</g>
<!-- Node27&#45;&gt;Node28 -->
<g id="edge42" class="edge"><title>Node27&#45;&gt;Node28</title>
<path fill="none" stroke="midnightblue" d="M165.685,-168.444C194.578,-159.32 240.515,-144.813 272.695,-134.651"/>
<polygon fill="midnightblue" stroke="midnightblue" points="274.139,-137.865 282.621,-131.516 272.031,-131.19 274.139,-137.865"/>
</g>
<!-- Node31&#45;&gt;Node5 -->
<g id="edge48" class="edge"><title>Node31&#45;&gt;Node5</title>
<path fill="none" stroke="midnightblue" d="M1013.8,-168.411C1028.07,-155.38 1050.7,-130.209 1036.59,-112 982.813,-42.583 705.015,-19.5384 597.32,-13.1413"/>
<polygon fill="midnightblue" stroke="midnightblue" points="597.326,-9.63593 587.142,-12.5565 596.924,-16.6244 597.326,-9.63593"/>
</g>
<!-- Node31&#45;&gt;Node10 -->
<g id="edge49" class="edge"><title>Node31&#45;&gt;Node10</title>
<path fill="none" stroke="midnightblue" d="M1003.59,-168.083C1003.59,-161.006 1003.59,-150.861 1003.59,-141.986"/>
<polygon fill="midnightblue" stroke="midnightblue" points="1007.09,-141.751 1003.59,-131.751 1000.09,-141.751 1007.09,-141.751"/>
</g>
</g>
</svg>
