<?xml version="1.0" encoding="UTF-8" standalone="no"?>
<!DOCTYPE svg PUBLIC "-//W3C//DTD SVG 1.1//EN"
 "http://www.w3.org/Graphics/SVG/1.1/DTD/svg11.dtd">
<!-- Generated by graphviz version 2.38.0 (20140413.2041)
 -->
<!-- Title: C:/dev/Igor/Igor/src/IgorAux/src/iaColor4.h Pages: 1 -->
<svg width="140pt" height="95pt"
 viewBox="0.00 0.00 140.00 95.00" xmlns="http://www.w3.org/2000/svg" xmlns:xlink="http://www.w3.org/1999/xlink">
<g id="graph0" class="graph" transform="scale(1 1) rotate(0) translate(4 91)">
<title>C:/dev/Igor/Igor/src/IgorAux/src/iaColor4.h</title>
<polygon fill="white" stroke="none" points="-4,4 -4,-91 136,-91 136,4 -4,4"/>
<!-- Node0 -->
<g id="node1" class="node"><title>Node0</title>
<g id="a_node1"><a xlink:title=" ">
<polygon fill="#bfbfbf" stroke="black" points="11.5,-56.5 11.5,-86.5 127.5,-86.5 127.5,-56.5 11.5,-56.5"/>
<text text-anchor="start" x="19.5" y="-74.5" font-family="Helvetica,sans-Serif" font-size="10.00">C:/dev/Igor/Igor/src</text>
<text text-anchor="middle" x="69.5" y="-63.5" font-family="Helvetica,sans-Serif" font-size="10.00">/IgorAux/src/iaColor4.h</text>
</a>
</g>
</g>
<!-- Node1 -->
<g id="node2" class="node"><title>Node1</title>
<g id="a_node2"><a xlink:href="ia_defines_8h.html" target="_top" xlink:title=" ">
<polygon fill="white" stroke="black" points="0,-0.5 0,-19.5 65,-19.5 65,-0.5 0,-0.5"/>
<text text-anchor="middle" x="32.5" y="-7.5" font-family="Helvetica,sans-Serif" font-size="10.00">iaDefines.h</text>
</a>
</g>
</g>
<!-- Node0&#45;&gt;Node1 -->
<g id="edge1" class="edge"><title>Node0&#45;&gt;Node1</title>
<path fill="none" stroke="midnightblue" d="M60.7315,-56.3993C55.5213,-48.0207 48.8714,-37.3269 43.3344,-28.4229"/>
<polygon fill="midnightblue" stroke="midnightblue" points="46.1368,-26.3015 37.8838,-19.6578 40.1924,-29.9981 46.1368,-26.3015"/>
</g>
<!-- Node2 -->
<g id="node3" class="node"><title>Node2</title>
<g id="a_node3"><a xlink:title=" ">
<polygon fill="white" stroke="#bfbfbf" points="83,-0.5 83,-19.5 132,-19.5 132,-0.5 83,-0.5"/>
<text text-anchor="middle" x="107.5" y="-7.5" font-family="Helvetica,sans-Serif" font-size="10.00">fstream</text>
</a>
</g>
</g>
<!-- Node0&#45;&gt;Node2 -->
<g id="edge2" class="edge"><title>Node0&#45;&gt;Node2</title>
<path fill="none" stroke="midnightblue" d="M78.5055,-56.3993C83.9135,-47.9315 90.8317,-37.0991 96.5539,-28.1393"/>
<polygon fill="midnightblue" stroke="midnightblue" points="99.5379,-29.9695 101.971,-19.6578 93.6384,-26.2018 99.5379,-29.9695"/>
</g>
</g>
</svg>
