<?xml version="1.0" encoding="UTF-8" standalone="no"?>
<!DOCTYPE svg PUBLIC "-//W3C//DTD SVG 1.1//EN"
 "http://www.w3.org/Graphics/SVG/1.1/DTD/svg11.dtd">
<!-- Generated by graphviz version 2.38.0 (20140413.2041)
 -->
<!-- Title: C:/dev/Igor/src/IgorAux/src/iaConvert.cpp Pages: 1 -->
<svg width="651pt" height="319pt"
 viewBox="0.00 0.00 651.34 319.00" xmlns="http://www.w3.org/2000/svg" xmlns:xlink="http://www.w3.org/1999/xlink">
<g id="graph0" class="graph" transform="scale(1 1) rotate(0) translate(4 315)">
<title>C:/dev/Igor/src/IgorAux/src/iaConvert.cpp</title>
<polygon fill="white" stroke="none" points="-4,4 -4,-315 647.34,-315 647.34,4 -4,4"/>
<!-- Node1 -->
<g id="node1" class="node"><title>Node1</title>
<polygon fill="#bfbfbf" stroke="black" points="141.84,-280.5 141.84,-310.5 256.84,-310.5 256.84,-280.5 141.84,-280.5"/>
<text text-anchor="start" x="149.84" y="-298.5" font-family="Helvetica,sans-Serif" font-size="10.00">C:/dev/Igor/src/IgorAux</text>
<text text-anchor="middle" x="199.34" y="-287.5" font-family="Helvetica,sans-Serif" font-size="10.00">/src/iaConvert.cpp</text>
</g>
<!-- Node2 -->
<g id="node2" class="node"><title>Node2</title>
<g id="a_node2"><a xlink:href="ia_convert_8h.html" target="_top" xlink:title="iaConvert.h">
<polygon fill="white" stroke="black" points="166.84,-224.5 166.84,-243.5 231.84,-243.5 231.84,-224.5 166.84,-224.5"/>
<text text-anchor="middle" x="199.34" y="-231.5" font-family="Helvetica,sans-Serif" font-size="10.00">iaConvert.h</text>
</a>
</g>
</g>
<!-- Node1&#45;&gt;Node2 -->
<g id="edge1" class="edge"><title>Node1&#45;&gt;Node2</title>
<path fill="none" stroke="midnightblue" d="M199.34,-280.399C199.34,-272.466 199.34,-262.458 199.34,-253.858"/>
<polygon fill="midnightblue" stroke="midnightblue" points="202.84,-253.658 199.34,-243.658 195.84,-253.658 202.84,-253.658"/>
</g>
<!-- Node3 -->
<g id="node3" class="node"><title>Node3</title>
<g id="a_node3"><a xlink:href="ia_color3_8h.html" target="_top" xlink:title="iaColor3.h">
<polygon fill="white" stroke="black" points="21.3401,-168.5 21.3401,-187.5 81.3401,-187.5 81.3401,-168.5 21.3401,-168.5"/>
<text text-anchor="middle" x="51.3401" y="-175.5" font-family="Helvetica,sans-Serif" font-size="10.00">iaColor3.h</text>
</a>
</g>
</g>
<!-- Node2&#45;&gt;Node3 -->
<g id="edge2" class="edge"><title>Node2&#45;&gt;Node3</title>
<path fill="none" stroke="midnightblue" d="M175.889,-224.444C151.208,-215.438 112.155,-201.189 84.3634,-191.049"/>
<polygon fill="midnightblue" stroke="midnightblue" points="85.2754,-187.656 74.6815,-187.516 82.876,-194.232 85.2754,-187.656"/>
</g>
<!-- Node7 -->
<g id="node7" class="node"><title>Node7</title>
<g id="a_node7"><a xlink:href="ia_color4_8h.html" target="_top" xlink:title="iaColor4.h">
<polygon fill="white" stroke="black" points="111.34,-168.5 111.34,-187.5 171.34,-187.5 171.34,-168.5 111.34,-168.5"/>
<text text-anchor="middle" x="141.34" y="-175.5" font-family="Helvetica,sans-Serif" font-size="10.00">iaColor4.h</text>
</a>
</g>
</g>
<!-- Node2&#45;&gt;Node7 -->
<g id="edge6" class="edge"><title>Node2&#45;&gt;Node7</title>
<path fill="none" stroke="midnightblue" d="M190.021,-224.324C181.448,-216.341 168.528,-204.313 158.152,-194.653"/>
<polygon fill="midnightblue" stroke="midnightblue" points="160.532,-192.086 150.828,-187.834 155.762,-197.21 160.532,-192.086"/>
</g>
<!-- Node8 -->
<g id="node8" class="node"><title>Node8</title>
<g id="a_node8"><a xlink:href="ia_vector2_8h.html" target="_top" xlink:title="iaVector2.h">
<polygon fill="white" stroke="black" points="188.34,-56.5 188.34,-75.5 254.34,-75.5 254.34,-56.5 188.34,-56.5"/>
<text text-anchor="middle" x="221.34" y="-63.5" font-family="Helvetica,sans-Serif" font-size="10.00">iaVector2.h</text>
</a>
</g>
</g>
<!-- Node2&#45;&gt;Node8 -->
<g id="edge9" class="edge"><title>Node2&#45;&gt;Node8</title>
<path fill="none" stroke="midnightblue" d="M200.523,-224.075C203.986,-197.945 214.156,-121.211 218.878,-85.577"/>
<polygon fill="midnightblue" stroke="midnightblue" points="222.36,-85.9413 220.205,-75.5681 215.421,-85.0216 222.36,-85.9413"/>
</g>
<!-- Node12 -->
<g id="node12" class="node"><title>Node12</title>
<g id="a_node12"><a xlink:href="ia_vector3_8h.html" target="_top" xlink:title="iaVector3.h">
<polygon fill="white" stroke="black" points="437.34,-56.5 437.34,-75.5 503.34,-75.5 503.34,-56.5 437.34,-56.5"/>
<text text-anchor="middle" x="470.34" y="-63.5" font-family="Helvetica,sans-Serif" font-size="10.00">iaVector3.h</text>
</a>
</g>
</g>
<!-- Node2&#45;&gt;Node12 -->
<g id="edge14" class="edge"><title>Node2&#45;&gt;Node12</title>
<path fill="none" stroke="midnightblue" d="M232.18,-233.306C295.428,-231.866 432.953,-218.429 490.34,-132 499.998,-117.455 491.825,-98.0252 483.198,-84.2071"/>
<polygon fill="midnightblue" stroke="midnightblue" points="485.896,-81.9515 477.367,-75.6663 480.115,-85.8985 485.896,-81.9515"/>
</g>
<!-- Node14 -->
<g id="node14" class="node"><title>Node14</title>
<g id="a_node14"><a xlink:href="ia_matrix_8h.html" target="_top" xlink:title="iaMatrix.h">
<polygon fill="white" stroke="black" points="289.84,-168.5 289.84,-187.5 348.84,-187.5 348.84,-168.5 289.84,-168.5"/>
<text text-anchor="middle" x="319.34" y="-175.5" font-family="Helvetica,sans-Serif" font-size="10.00">iaMatrix.h</text>
</a>
</g>
</g>
<!-- Node2&#45;&gt;Node14 -->
<g id="edge19" class="edge"><title>Node2&#45;&gt;Node14</title>
<path fill="none" stroke="midnightblue" d="M218.354,-224.444C237.928,-215.636 268.648,-201.812 291.069,-191.722"/>
<polygon fill="midnightblue" stroke="midnightblue" points="292.732,-194.812 300.415,-187.516 289.859,-188.428 292.732,-194.812"/>
</g>
<!-- Node4 -->
<g id="node4" class="node"><title>Node4</title>
<g id="a_node4"><a xlink:href="ia_defines_8h.html" target="_top" xlink:title="iaDefines.h">
<polygon fill="white" stroke="black" points="81.8401,-0.5 81.8401,-19.5 146.84,-19.5 146.84,-0.5 81.8401,-0.5"/>
<text text-anchor="middle" x="114.34" y="-7.5" font-family="Helvetica,sans-Serif" font-size="10.00">iaDefines.h</text>
</a>
</g>
</g>
<!-- Node3&#45;&gt;Node4 -->
<g id="edge3" class="edge"><title>Node3&#45;&gt;Node4</title>
<path fill="none" stroke="midnightblue" d="M36.7093,-168.383C18.8778,-156.674 -7.71025,-134.597 2.34013,-112 20.0441,-72.1954 62.0455,-41.4678 89.2826,-24.8322"/>
<polygon fill="midnightblue" stroke="midnightblue" points="91.4062,-27.6429 98.2369,-19.5439 87.8465,-21.6155 91.4062,-27.6429"/>
</g>
<!-- Node5 -->
<g id="node5" class="node"><title>Node5</title>
<polygon fill="white" stroke="#bfbfbf" points="121.84,-112.5 121.84,-131.5 170.84,-131.5 170.84,-112.5 121.84,-112.5"/>
<text text-anchor="middle" x="146.34" y="-119.5" font-family="Helvetica,sans-Serif" font-size="10.00">fstream</text>
</g>
<!-- Node3&#45;&gt;Node5 -->
<g id="edge4" class="edge"><title>Node3&#45;&gt;Node5</title>
<path fill="none" stroke="midnightblue" d="M66.6035,-168.324C81.5616,-159.822 104.595,-146.729 122.067,-136.797"/>
<polygon fill="midnightblue" stroke="midnightblue" points="124.151,-139.639 131.115,-131.655 120.691,-133.553 124.151,-139.639"/>
</g>
<!-- Node6 -->
<g id="node6" class="node"><title>Node6</title>
<polygon fill="white" stroke="#bfbfbf" points="11.3401,-112.5 11.3401,-131.5 65.3401,-131.5 65.3401,-112.5 11.3401,-112.5"/>
<text text-anchor="middle" x="38.3401" y="-119.5" font-family="Helvetica,sans-Serif" font-size="10.00">iostream</text>
</g>
<!-- Node3&#45;&gt;Node6 -->
<g id="edge5" class="edge"><title>Node3&#45;&gt;Node6</title>
<path fill="none" stroke="midnightblue" d="M49.1934,-168.083C47.4708,-160.927 44.9931,-150.635 42.8398,-141.691"/>
<polygon fill="midnightblue" stroke="midnightblue" points="46.1903,-140.654 40.4469,-131.751 39.3847,-142.293 46.1903,-140.654"/>
</g>
<!-- Node7&#45;&gt;Node4 -->
<g id="edge7" class="edge"><title>Node7&#45;&gt;Node4</title>
<path fill="none" stroke="midnightblue" d="M133.667,-168.459C126.561,-159.927 116.486,-146.088 112.34,-132 102.047,-97.0271 106.626,-53.8735 110.646,-29.6966"/>
<polygon fill="midnightblue" stroke="midnightblue" points="114.11,-30.21 112.452,-19.7457 107.222,-28.9598 114.11,-30.21"/>
</g>
<!-- Node7&#45;&gt;Node5 -->
<g id="edge8" class="edge"><title>Node7&#45;&gt;Node5</title>
<path fill="none" stroke="midnightblue" d="M142.166,-168.083C142.821,-161.006 143.76,-150.861 144.582,-141.986"/>
<polygon fill="midnightblue" stroke="midnightblue" points="148.093,-142.031 145.53,-131.751 141.123,-141.386 148.093,-142.031"/>
</g>
<!-- Node8&#45;&gt;Node4 -->
<g id="edge10" class="edge"><title>Node8&#45;&gt;Node4</title>
<path fill="none" stroke="midnightblue" d="M204.149,-56.324C186.989,-47.6641 160.394,-34.2424 140.593,-24.249"/>
<polygon fill="midnightblue" stroke="midnightblue" points="141.993,-21.0354 131.489,-19.6545 138.839,-27.2847 141.993,-21.0354"/>
</g>
<!-- Node9 -->
<g id="node9" class="node"><title>Node9</title>
<polygon fill="white" stroke="#bfbfbf" points="297.34,-0.5 297.34,-19.5 341.34,-19.5 341.34,-0.5 297.34,-0.5"/>
<text text-anchor="middle" x="319.34" y="-7.5" font-family="Helvetica,sans-Serif" font-size="10.00">cmath</text>
</g>
<!-- Node8&#45;&gt;Node9 -->
<g id="edge11" class="edge"><title>Node8&#45;&gt;Node9</title>
<path fill="none" stroke="midnightblue" d="M237.086,-56.324C252.659,-47.7428 276.717,-34.486 294.799,-24.5224"/>
<polygon fill="midnightblue" stroke="midnightblue" points="296.565,-27.546 303.634,-19.6545 293.186,-21.4152 296.565,-27.546"/>
</g>
<!-- Node10 -->
<g id="node10" class="node"><title>Node10</title>
<polygon fill="white" stroke="#bfbfbf" points="477.34,-0.5 477.34,-19.5 529.34,-19.5 529.34,-0.5 477.34,-0.5"/>
<text text-anchor="middle" x="503.34" y="-7.5" font-family="Helvetica,sans-Serif" font-size="10.00">ostream</text>
</g>
<!-- Node8&#45;&gt;Node10 -->
<g id="edge12" class="edge"><title>Node8&#45;&gt;Node10</title>
<path fill="none" stroke="midnightblue" d="M254.499,-59.6279C300.072,-52.0935 384.819,-37.5425 467.26,-19.8925"/>
<polygon fill="midnightblue" stroke="midnightblue" points="468.003,-23.3129 477.04,-17.7817 466.526,-16.4705 468.003,-23.3129"/>
</g>
<!-- Node11 -->
<g id="node11" class="node"><title>Node11</title>
<g id="a_node11"><a xlink:href="ia_vector2_8inl.html" target="_top" xlink:title="iaVector2.inl">
<polygon fill="white" stroke="black" points="185.84,-0.5 185.84,-19.5 256.84,-19.5 256.84,-0.5 185.84,-0.5"/>
<text text-anchor="middle" x="221.34" y="-7.5" font-family="Helvetica,sans-Serif" font-size="10.00">iaVector2.inl</text>
</a>
</g>
</g>
<!-- Node8&#45;&gt;Node11 -->
<g id="edge13" class="edge"><title>Node8&#45;&gt;Node11</title>
<path fill="none" stroke="midnightblue" d="M221.34,-56.083C221.34,-49.0059 221.34,-38.8611 221.34,-29.9865"/>
<polygon fill="midnightblue" stroke="midnightblue" points="224.84,-29.751 221.34,-19.7511 217.84,-29.7511 224.84,-29.751"/>
</g>
<!-- Node12&#45;&gt;Node4 -->
<g id="edge15" class="edge"><title>Node12&#45;&gt;Node4</title>
<path fill="none" stroke="midnightblue" d="M437.046,-57.8124C433.772,-57.1715 430.495,-56.5558 427.34,-56 316.352,-36.4463 287.882,-36.0948 176.34,-20 170.123,-19.1029 163.556,-18.1526 157.113,-17.2187"/>
<polygon fill="midnightblue" stroke="midnightblue" points="157.558,-13.7466 147.159,-15.7746 156.553,-20.6741 157.558,-13.7466"/>
</g>
<!-- Node12&#45;&gt;Node9 -->
<g id="edge16" class="edge"><title>Node12&#45;&gt;Node9</title>
<path fill="none" stroke="midnightblue" d="M446.414,-56.4435C420.675,-47.239 379.618,-32.5565 351.169,-22.3826"/>
<polygon fill="midnightblue" stroke="midnightblue" points="352.272,-19.0601 341.678,-18.9883 349.915,-25.6513 352.272,-19.0601"/>
</g>
<!-- Node12&#45;&gt;Node10 -->
<g id="edge17" class="edge"><title>Node12&#45;&gt;Node10</title>
<path fill="none" stroke="midnightblue" d="M475.789,-56.083C480.355,-48.6127 487.009,-37.7244 492.634,-28.5199"/>
<polygon fill="midnightblue" stroke="midnightblue" points="495.764,-30.109 497.992,-19.7511 489.791,-26.4588 495.764,-30.109"/>
</g>
<!-- Node13 -->
<g id="node13" class="node"><title>Node13</title>
<g id="a_node13"><a xlink:href="ia_vector3_8inl.html" target="_top" xlink:title="iaVector3.inl">
<polygon fill="white" stroke="black" points="387.84,-0.5 387.84,-19.5 458.84,-19.5 458.84,-0.5 387.84,-0.5"/>
<text text-anchor="middle" x="423.34" y="-7.5" font-family="Helvetica,sans-Serif" font-size="10.00">iaVector3.inl</text>
</a>
</g>
</g>
<!-- Node12&#45;&gt;Node13 -->
<g id="edge18" class="edge"><title>Node12&#45;&gt;Node13</title>
<path fill="none" stroke="midnightblue" d="M462.579,-56.083C455.803,-48.2982 445.797,-36.8015 437.585,-27.3665"/>
<polygon fill="midnightblue" stroke="midnightblue" points="440.162,-24.9963 430.957,-19.7511 434.882,-29.592 440.162,-24.9963"/>
</g>
<!-- Node14&#45;&gt;Node5 -->
<g id="edge27" class="edge"><title>Node14&#45;&gt;Node5</title>
<path fill="none" stroke="midnightblue" d="M291.928,-168.444C261.794,-159.038 213.333,-143.911 180.688,-133.721"/>
<polygon fill="midnightblue" stroke="midnightblue" points="181.69,-130.368 171.102,-130.729 179.605,-137.05 181.69,-130.368"/>
</g>
<!-- Node14&#45;&gt;Node9 -->
<g id="edge28" class="edge"><title>Node14&#45;&gt;Node9</title>
<path fill="none" stroke="midnightblue" d="M319.34,-168.075C319.34,-141.945 319.34,-65.2106 319.34,-29.577"/>
<polygon fill="midnightblue" stroke="midnightblue" points="322.84,-29.5681 319.34,-19.5681 315.84,-29.5681 322.84,-29.5681"/>
</g>
<!-- Node15 -->
<g id="node15" class="node"><title>Node15</title>
<g id="a_node15"><a xlink:href="ia_vector4_8h.html" target="_top" xlink:title="iaVector4.h">
<polygon fill="white" stroke="black" points="347.34,-112.5 347.34,-131.5 413.34,-131.5 413.34,-112.5 347.34,-112.5"/>
<text text-anchor="middle" x="380.34" y="-119.5" font-family="Helvetica,sans-Serif" font-size="10.00">iaVector4.h</text>
</a>
</g>
</g>
<!-- Node14&#45;&gt;Node15 -->
<g id="edge20" class="edge"><title>Node14&#45;&gt;Node15</title>
<path fill="none" stroke="midnightblue" d="M329.141,-168.324C338.158,-160.341 351.746,-148.313 362.658,-138.653"/>
<polygon fill="midnightblue" stroke="midnightblue" points="365.193,-141.083 370.361,-131.834 360.554,-135.842 365.193,-141.083"/>
</g>
<!-- Node17 -->
<g id="node17" class="node"><title>Node17</title>
<g id="a_node17"><a xlink:href="ia_quaternion_8h.html" target="_top" xlink:title="iaQuaternion.h">
<polygon fill="white" stroke="black" points="537.34,-112.5 537.34,-131.5 617.34,-131.5 617.34,-112.5 537.34,-112.5"/>
<text text-anchor="middle" x="577.34" y="-119.5" font-family="Helvetica,sans-Serif" font-size="10.00">iaQuaternion.h</text>
</a>
</g>
</g>
<!-- Node14&#45;&gt;Node17 -->
<g id="edge23" class="edge"><title>Node14&#45;&gt;Node17</title>
<path fill="none" stroke="midnightblue" d="M348.936,-170.806C392.457,-161.696 474.279,-144.571 527.259,-133.482"/>
<polygon fill="midnightblue" stroke="midnightblue" points="528.054,-136.892 537.125,-131.417 526.62,-130.04 528.054,-136.892"/>
</g>
<!-- Node19 -->
<g id="node19" class="node"><title>Node19</title>
<polygon fill="white" stroke="#bfbfbf" points="431.34,-112.5 431.34,-131.5 481.34,-131.5 481.34,-112.5 431.34,-112.5"/>
<text text-anchor="middle" x="456.34" y="-119.5" font-family="Helvetica,sans-Serif" font-size="10.00">iomanip</text>
</g>
<!-- Node14&#45;&gt;Node19 -->
<g id="edge29" class="edge"><title>Node14&#45;&gt;Node19</title>
<path fill="none" stroke="midnightblue" d="M341.048,-168.444C363.695,-159.517 399.412,-145.439 425.092,-135.317"/>
<polygon fill="midnightblue" stroke="midnightblue" points="426.714,-138.44 434.734,-131.516 424.147,-131.927 426.714,-138.44"/>
</g>
<!-- Node20 -->
<g id="node20" class="node"><title>Node20</title>
<g id="a_node20"><a xlink:href="ia_matrix_8inl.html" target="_top" xlink:title="iaMatrix.inl">
<polygon fill="white" stroke="black" points="227.34,-112.5 227.34,-131.5 291.34,-131.5 291.34,-112.5 227.34,-112.5"/>
<text text-anchor="middle" x="259.34" y="-119.5" font-family="Helvetica,sans-Serif" font-size="10.00">iaMatrix.inl</text>
</a>
</g>
</g>
<!-- Node14&#45;&gt;Node20 -->
<g id="edge30" class="edge"><title>Node14&#45;&gt;Node20</title>
<path fill="none" stroke="midnightblue" d="M309.7,-168.324C300.831,-160.341 287.465,-148.313 276.732,-138.653"/>
<polygon fill="midnightblue" stroke="midnightblue" points="278.93,-135.922 269.156,-131.834 274.247,-141.125 278.93,-135.922"/>
</g>
<!-- Node15&#45;&gt;Node12 -->
<g id="edge21" class="edge"><title>Node15&#45;&gt;Node12</title>
<path fill="none" stroke="midnightblue" d="M394.8,-112.324C408.84,-103.9 430.389,-90.9709 446.883,-81.0741"/>
<polygon fill="midnightblue" stroke="midnightblue" points="449.142,-83.8007 455.916,-75.6545 445.54,-77.7983 449.142,-83.8007"/>
</g>
<!-- Node16 -->
<g id="node16" class="node"><title>Node16</title>
<g id="a_node16"><a xlink:href="ia_vector4_8inl.html" target="_top" xlink:title="iaVector4.inl">
<polygon fill="white" stroke="black" points="347.84,-56.5 347.84,-75.5 418.84,-75.5 418.84,-56.5 347.84,-56.5"/>
<text text-anchor="middle" x="383.34" y="-63.5" font-family="Helvetica,sans-Serif" font-size="10.00">iaVector4.inl</text>
</a>
</g>
</g>
<!-- Node15&#45;&gt;Node16 -->
<g id="edge22" class="edge"><title>Node15&#45;&gt;Node16</title>
<path fill="none" stroke="midnightblue" d="M380.836,-112.083C381.229,-105.006 381.792,-94.8611 382.285,-85.9865"/>
<polygon fill="midnightblue" stroke="midnightblue" points="385.794,-85.9299 382.854,-75.7511 378.805,-85.5415 385.794,-85.9299"/>
</g>
<!-- Node17&#45;&gt;Node10 -->
<g id="edge25" class="edge"><title>Node17&#45;&gt;Node10</title>
<path fill="none" stroke="midnightblue" d="M571.533,-112.368C559.321,-94.2153 530.788,-51.8015 514.77,-27.9902"/>
<polygon fill="midnightblue" stroke="midnightblue" points="517.606,-25.935 509.12,-19.5914 511.798,-29.8423 517.606,-25.935"/>
</g>
<!-- Node17&#45;&gt;Node12 -->
<g id="edge24" class="edge"><title>Node17&#45;&gt;Node12</title>
<path fill="none" stroke="midnightblue" d="M560.149,-112.324C542.989,-103.664 516.394,-90.2424 496.593,-80.249"/>
<polygon fill="midnightblue" stroke="midnightblue" points="497.993,-77.0354 487.489,-75.6545 494.839,-83.2847 497.993,-77.0354"/>
</g>
<!-- Node18 -->
<g id="node18" class="node"><title>Node18</title>
<g id="a_node18"><a xlink:href="ia_quaternion_8inl.html" target="_top" xlink:title="iaQuaternion.inl">
<polygon fill="white" stroke="black" points="559.34,-56.5 559.34,-75.5 643.34,-75.5 643.34,-56.5 559.34,-56.5"/>
<text text-anchor="middle" x="601.34" y="-63.5" font-family="Helvetica,sans-Serif" font-size="10.00">iaQuaternion.inl</text>
</a>
</g>
</g>
<!-- Node17&#45;&gt;Node18 -->
<g id="edge26" class="edge"><title>Node17&#45;&gt;Node18</title>
<path fill="none" stroke="midnightblue" d="M581.303,-112.083C584.553,-104.77 589.26,-94.1814 593.294,-85.1034"/>
<polygon fill="midnightblue" stroke="midnightblue" points="596.588,-86.3107 597.451,-75.7511 590.191,-83.4677 596.588,-86.3107"/>
</g>
</g>
</svg>
