<?xml version="1.0" encoding="UTF-8" standalone="no"?>
<!DOCTYPE svg PUBLIC "-//W3C//DTD SVG 1.1//EN"
 "http://www.w3.org/Graphics/SVG/1.1/DTD/svg11.dtd">
<!-- Generated by graphviz version 2.38.0 (20140413.2041)
 -->
<!-- Title: C:/dev/Igor/Igor/src/IgorAux/src/iaConvert.h Pages: 1 -->
<svg width="1321pt" height="117pt"
 viewBox="0.00 0.00 1320.50 117.00" xmlns="http://www.w3.org/2000/svg" xmlns:xlink="http://www.w3.org/1999/xlink">
<g id="graph0" class="graph" transform="scale(1 1) rotate(0) translate(4 113)">
<title>C:/dev/Igor/Igor/src/IgorAux/src/iaConvert.h</title>
<polygon fill="white" stroke="none" points="-4,4 -4,-113 1316.5,-113 1316.5,4 -4,4"/>
<!-- Node19 -->
<g id="node1" class="node"><title>Node19</title>
<g id="a_node1"><a xlink:title=" ">
<polygon fill="#bfbfbf" stroke="black" points="616.5,-78.5 616.5,-108.5 736.5,-108.5 736.5,-78.5 616.5,-78.5"/>
<text text-anchor="start" x="624.5" y="-96.5" font-family="Helvetica,sans-Serif" font-size="10.00">C:/dev/Igor/Igor/src</text>
<text text-anchor="middle" x="676.5" y="-85.5" font-family="Helvetica,sans-Serif" font-size="10.00">/IgorAux/src/iaConvert.h</text>
</a>
</g>
</g>
<!-- Node20 -->
<g id="node2" class="node"><title>Node20</title>
<g id="a_node2"><a xlink:href="i_model_data_i_o_o_m_p_f_8cpp.html" target="_top" xlink:title=" ">
<polygon fill="white" stroke="black" points="0,-6 0,-36 161,-36 161,-6 0,-6"/>
<text text-anchor="start" x="8" y="-24" font-family="Helvetica,sans-Serif" font-size="10.00">C:/dev/Igor/Igor/src</text>
<text text-anchor="middle" x="80.5" y="-13" font-family="Helvetica,sans-Serif" font-size="10.00">/Igor/src/iModelDataIOOMPF.cpp</text>
</a>
</g>
</g>
<!-- Node19&#45;&gt;Node20 -->
<g id="edge1" class="edge"><title>Node19&#45;&gt;Node20</title>
<path fill="none" stroke="midnightblue" d="M606.392,-88.2268C508.235,-81.6291 324.474,-67.0355 169.5,-42 159.338,-40.3583 148.599,-38.261 138.23,-36.0451"/>
<polygon fill="midnightblue" stroke="midnightblue" points="606.277,-91.7267 616.487,-88.8973 606.741,-84.7421 606.277,-91.7267"/>
</g>
<!-- Node21 -->
<g id="node3" class="node"><title>Node21</title>
<g id="a_node3"><a xlink:href="i_particle_system3_d_8cpp.html" target="_top" xlink:title=" ">
<polygon fill="white" stroke="black" points="179,-6 179,-36 334,-36 334,-6 179,-6"/>
<text text-anchor="start" x="187" y="-24" font-family="Helvetica,sans-Serif" font-size="10.00">C:/dev/Igor/Igor/src</text>
<text text-anchor="middle" x="256.5" y="-13" font-family="Helvetica,sans-Serif" font-size="10.00">/Igor/src/iParticleSystem3D.cpp</text>
</a>
</g>
</g>
<!-- Node19&#45;&gt;Node21 -->
<g id="edge2" class="edge"><title>Node19&#45;&gt;Node21</title>
<path fill="none" stroke="midnightblue" d="M606.088,-83.4879C538.305,-74.4272 433.033,-59.3436 342.5,-42 333.316,-40.2407 323.626,-38.1842 314.193,-36.0721"/>
<polygon fill="midnightblue" stroke="midnightblue" points="605.85,-86.9869 616.224,-84.8351 606.772,-80.0479 605.85,-86.9869"/>
</g>
<!-- Node22 -->
<g id="node4" class="node"><title>Node22</title>
<g id="a_node4"><a xlink:href="i_physics_8cpp.html" target="_top" xlink:title=" ">
<polygon fill="white" stroke="black" points="352,-6 352,-36 463,-36 463,-6 352,-6"/>
<text text-anchor="start" x="360" y="-24" font-family="Helvetica,sans-Serif" font-size="10.00">C:/dev/Igor/Igor/src</text>
<text text-anchor="middle" x="407.5" y="-13" font-family="Helvetica,sans-Serif" font-size="10.00">/Igor/src/iPhysics.cpp</text>
</a>
</g>
</g>
<!-- Node19&#45;&gt;Node22 -->
<g id="edge3" class="edge"><title>Node19&#45;&gt;Node22</title>
<path fill="none" stroke="midnightblue" d="M606.292,-76.3309C566.577,-66.9032 516.089,-54.4464 471.5,-42 464.885,-40.1534 457.919,-38.0957 451.116,-36.0222"/>
<polygon fill="midnightblue" stroke="midnightblue" points="605.609,-79.766 616.146,-78.6607 607.22,-72.9538 605.609,-79.766"/>
</g>
<!-- Node23 -->
<g id="node5" class="node"><title>Node23</title>
<g id="a_node5"><a xlink:href="i_pixmap_8cpp.html" target="_top" xlink:title=" ">
<polygon fill="white" stroke="black" points="481,-6 481,-36 590,-36 590,-6 481,-6"/>
<text text-anchor="start" x="489" y="-24" font-family="Helvetica,sans-Serif" font-size="10.00">C:/dev/Igor/Igor/src</text>
<text text-anchor="middle" x="535.5" y="-13" font-family="Helvetica,sans-Serif" font-size="10.00">/Igor/src/iPixmap.cpp</text>
</a>
</g>
</g>
<!-- Node19&#45;&gt;Node23 -->
<g id="edge4" class="edge"><title>Node19&#45;&gt;Node23</title>
<path fill="none" stroke="midnightblue" d="M639.246,-73.873C615.545,-62.0226 585.343,-46.9215 563.646,-36.0729"/>
<polygon fill="midnightblue" stroke="midnightblue" points="637.796,-77.061 648.305,-78.4027 640.926,-70.8 637.796,-77.061"/>
</g>
<!-- Node24 -->
<g id="node6" class="node"><title>Node24</title>
<g id="a_node6"><a xlink:href="i_render_engine_8cpp.html" target="_top" xlink:title=" ">
<polygon fill="white" stroke="black" points="608,-6 608,-36 745,-36 745,-6 608,-6"/>
<text text-anchor="start" x="616" y="-24" font-family="Helvetica,sans-Serif" font-size="10.00">C:/dev/Igor/Igor/src</text>
<text text-anchor="middle" x="676.5" y="-13" font-family="Helvetica,sans-Serif" font-size="10.00">/Igor/src/iRenderEngine.cpp</text>
</a>
</g>
</g>
<!-- Node19&#45;&gt;Node24 -->
<g id="edge5" class="edge"><title>Node19&#45;&gt;Node24</title>
<path fill="none" stroke="midnightblue" d="M676.5,-68.2317C676.5,-57.5679 676.5,-45.4145 676.5,-36.2455"/>
<polygon fill="midnightblue" stroke="midnightblue" points="673,-68.2332 676.5,-78.2333 680,-68.2333 673,-68.2332"/>
</g>
<!-- Node25 -->
<g id="node7" class="node"><title>Node25</title>
<g id="a_node7"><a xlink:href="i_renderer_8cpp.html" target="_top" xlink:title=" ">
<polygon fill="white" stroke="black" points="763,-6 763,-36 878,-36 878,-6 763,-6"/>
<text text-anchor="start" x="771" y="-24" font-family="Helvetica,sans-Serif" font-size="10.00">C:/dev/Igor/Igor/src</text>
<text text-anchor="middle" x="820.5" y="-13" font-family="Helvetica,sans-Serif" font-size="10.00">/Igor/src/iRenderer.cpp</text>
</a>
</g>
</g>
<!-- Node19&#45;&gt;Node25 -->
<g id="edge6" class="edge"><title>Node19&#45;&gt;Node25</title>
<path fill="none" stroke="midnightblue" d="M714.547,-73.873C738.752,-62.0226 769.596,-46.9215 791.755,-36.0729"/>
<polygon fill="midnightblue" stroke="midnightblue" points="712.737,-70.862 705.294,-78.4027 715.815,-77.149 712.737,-70.862"/>
</g>
<!-- Node26 -->
<g id="node8" class="node"><title>Node26</title>
<g id="a_node8"><a xlink:href="i_voxel_terrain_8cpp.html" target="_top" xlink:title=" ">
<polygon fill="white" stroke="black" points="896.5,-6 896.5,-36 1026.5,-36 1026.5,-6 896.5,-6"/>
<text text-anchor="start" x="904.5" y="-24" font-family="Helvetica,sans-Serif" font-size="10.00">C:/dev/Igor/Igor/src</text>
<text text-anchor="middle" x="961.5" y="-13" font-family="Helvetica,sans-Serif" font-size="10.00">/Igor/src/iVoxelTerrain.cpp</text>
</a>
</g>
</g>
<!-- Node19&#45;&gt;Node26 -->
<g id="edge7" class="edge"><title>Node19&#45;&gt;Node26</title>
<path fill="none" stroke="midnightblue" d="M746.563,-76.2696C787.689,-66.6083 840.629,-53.9403 887.5,-42 894.851,-40.1274 902.597,-38.0972 910.198,-36.0723"/>
<polygon fill="midnightblue" stroke="midnightblue" points="745.578,-72.9055 736.641,-78.596 747.176,-79.7207 745.578,-72.9055"/>
</g>
<!-- Node27 -->
<g id="node9" class="node"><title>Node27</title>
<g id="a_node9"><a xlink:href="ia_convert_8cpp.html" target="_top" xlink:title=" ">
<polygon fill="white" stroke="black" points="1045,-6 1045,-36 1176,-36 1176,-6 1045,-6"/>
<text text-anchor="start" x="1053" y="-24" font-family="Helvetica,sans-Serif" font-size="10.00">C:/dev/Igor/Igor/src</text>
<text text-anchor="middle" x="1110.5" y="-13" font-family="Helvetica,sans-Serif" font-size="10.00">/IgorAux/src/iaConvert.cpp</text>
</a>
</g>
</g>
<!-- Node19&#45;&gt;Node27 -->
<g id="edge8" class="edge"><title>Node19&#45;&gt;Node27</title>
<path fill="none" stroke="midnightblue" d="M746.542,-85.1849C819.21,-77.0035 935.938,-62.2005 1035.5,-42 1043.82,-40.3119 1052.59,-38.2434 1061.08,-36.084"/>
<polygon fill="midnightblue" stroke="midnightblue" points="746.137,-81.7082 736.587,-86.2952 746.913,-88.6651 746.137,-81.7082"/>
</g>
<!-- Node28 -->
<g id="node10" class="node"><title>Node28</title>
<g id="a_node10"><a xlink:href="_manipulator_8cpp.html" target="_top" xlink:title=" ">
<polygon fill="white" stroke="black" points="1194.5,-0.5 1194.5,-41.5 1312.5,-41.5 1312.5,-0.5 1194.5,-0.5"/>
<text text-anchor="start" x="1202.5" y="-29.5" font-family="Helvetica,sans-Serif" font-size="10.00">C:/dev/Igor/Igor/src</text>
<text text-anchor="start" x="1202.5" y="-18.5" font-family="Helvetica,sans-Serif" font-size="10.00">/Tools/ModelViewer/src</text>
<text text-anchor="middle" x="1253.5" y="-7.5" font-family="Helvetica,sans-Serif" font-size="10.00">/Manipulator.cpp</text>
</a>
</g>
</g>
<!-- Node19&#45;&gt;Node28 -->
<g id="edge9" class="edge"><title>Node19&#45;&gt;Node28</title>
<path fill="none" stroke="midnightblue" d="M746.735,-89.6894C845.478,-84.7987 1030.6,-72.1868 1185.5,-42 1188.4,-41.4351 1191.35,-40.8003 1194.32,-40.1137"/>
<polygon fill="midnightblue" stroke="midnightblue" points="746.401,-86.2014 736.582,-90.1801 746.739,-93.1932 746.401,-86.2014"/>
</g>
</g>
</svg>
