<?xml version="1.0" encoding="UTF-8" standalone="no"?>
<!DOCTYPE svg PUBLIC "-//W3C//DTD SVG 1.1//EN"
 "http://www.w3.org/Graphics/SVG/1.1/DTD/svg11.dtd">
<!-- Generated by graphviz version 2.38.0 (20140413.2041)
 -->
<!-- Title: C:/dev/Igor/Igor/src/IgorAux/src/iaConsole.h Pages: 1 -->
<svg width="333pt" height="207pt"
 viewBox="0.00 0.00 332.50 207.00" xmlns="http://www.w3.org/2000/svg" xmlns:xlink="http://www.w3.org/1999/xlink">
<g id="graph0" class="graph" transform="scale(1 1) rotate(0) translate(4 203)">
<title>C:/dev/Igor/Igor/src/IgorAux/src/iaConsole.h</title>
<polygon fill="white" stroke="none" points="-4,4 -4,-203 328.5,-203 328.5,4 -4,4"/>
<!-- Node0 -->
<g id="node1" class="node"><title>Node0</title>
<g id="a_node1"><a xlink:title=" ">
<polygon fill="#bfbfbf" stroke="black" points="98,-168.5 98,-198.5 221,-198.5 221,-168.5 98,-168.5"/>
<text text-anchor="start" x="106" y="-186.5" font-family="Helvetica,sans-Serif" font-size="10.00">C:/dev/Igor/Igor/src</text>
<text text-anchor="middle" x="159.5" y="-175.5" font-family="Helvetica,sans-Serif" font-size="10.00">/IgorAux/src/iaConsole.h</text>
</a>
</g>
</g>
<!-- Node1 -->
<g id="node2" class="node"><title>Node1</title>
<g id="a_node2"><a xlink:href="ia_singleton_8h.html" target="_top" xlink:title=" ">
<polygon fill="white" stroke="black" points="0,-112.5 0,-131.5 73,-131.5 73,-112.5 0,-112.5"/>
<text text-anchor="middle" x="36.5" y="-119.5" font-family="Helvetica,sans-Serif" font-size="10.00">iaSingleton.h</text>
</a>
</g>
</g>
<!-- Node0&#45;&gt;Node1 -->
<g id="edge1" class="edge"><title>Node0&#45;&gt;Node1</title>
<path fill="none" stroke="midnightblue" d="M130.351,-168.399C110.082,-158.595 83.2594,-145.619 63.4814,-136.052"/>
<polygon fill="midnightblue" stroke="midnightblue" points="64.9238,-132.862 54.3976,-131.658 61.8755,-139.163 64.9238,-132.862"/>
</g>
<!-- Node4 -->
<g id="node5" class="node"><title>Node4</title>
<g id="a_node5"><a xlink:href="ia_clock_8h.html" target="_top" xlink:title=" ">
<polygon fill="white" stroke="black" points="81,-56.5 81,-75.5 138,-75.5 138,-56.5 81,-56.5"/>
<text text-anchor="middle" x="109.5" y="-63.5" font-family="Helvetica,sans-Serif" font-size="10.00">iaClock.h</text>
</a>
</g>
</g>
<!-- Node0&#45;&gt;Node4 -->
<g id="edge4" class="edge"><title>Node0&#45;&gt;Node4</title>
<path fill="none" stroke="midnightblue" d="M148.35,-168.198C141.226,-158.46 132.273,-145.021 126.5,-132 119.852,-117.005 115.378,-98.8701 112.696,-85.5699"/>
<polygon fill="midnightblue" stroke="midnightblue" points="116.131,-84.898 110.855,-75.7099 109.249,-86.1823 116.131,-84.898"/>
</g>
<!-- Node5 -->
<g id="node6" class="node"><title>Node5</title>
<g id="a_node6"><a xlink:title=" ">
<polygon fill="white" stroke="#bfbfbf" points="135,-112.5 135,-131.5 184,-131.5 184,-112.5 135,-112.5"/>
<text text-anchor="middle" x="159.5" y="-119.5" font-family="Helvetica,sans-Serif" font-size="10.00">fstream</text>
</a>
</g>
</g>
<!-- Node0&#45;&gt;Node5 -->
<g id="edge6" class="edge"><title>Node0&#45;&gt;Node5</title>
<path fill="none" stroke="midnightblue" d="M159.5,-168.399C159.5,-160.466 159.5,-150.458 159.5,-141.858"/>
<polygon fill="midnightblue" stroke="midnightblue" points="163,-141.658 159.5,-131.658 156,-141.658 163,-141.658"/>
</g>
<!-- Node6 -->
<g id="node7" class="node"><title>Node6</title>
<g id="a_node7"><a xlink:title=" ">
<polygon fill="white" stroke="#bfbfbf" points="202.5,-112.5 202.5,-131.5 256.5,-131.5 256.5,-112.5 202.5,-112.5"/>
<text text-anchor="middle" x="229.5" y="-119.5" font-family="Helvetica,sans-Serif" font-size="10.00">iostream</text>
</a>
</g>
</g>
<!-- Node0&#45;&gt;Node6 -->
<g id="edge7" class="edge"><title>Node0&#45;&gt;Node6</title>
<path fill="none" stroke="midnightblue" d="M176.089,-168.399C186.785,-159.308 200.688,-147.49 211.628,-138.191"/>
<polygon fill="midnightblue" stroke="midnightblue" points="213.962,-140.801 219.314,-131.658 209.428,-135.468 213.962,-140.801"/>
</g>
<!-- Node7 -->
<g id="node8" class="node"><title>Node7</title>
<g id="a_node8"><a xlink:title=" ">
<polygon fill="white" stroke="#bfbfbf" points="274.5,-112.5 274.5,-131.5 324.5,-131.5 324.5,-112.5 274.5,-112.5"/>
<text text-anchor="middle" x="299.5" y="-119.5" font-family="Helvetica,sans-Serif" font-size="10.00">iomanip</text>
</a>
</g>
</g>
<!-- Node0&#45;&gt;Node7 -->
<g id="edge8" class="edge"><title>Node0&#45;&gt;Node7</title>
<path fill="none" stroke="midnightblue" d="M192.678,-168.399C216.063,-158.461 247.112,-145.265 269.706,-135.662"/>
<polygon fill="midnightblue" stroke="midnightblue" points="271.294,-138.79 279.129,-131.658 268.556,-132.348 271.294,-138.79"/>
</g>
<!-- Node2 -->
<g id="node3" class="node"><title>Node2</title>
<g id="a_node3"><a xlink:href="ia_mutex_8h.html" target="_top" xlink:title=" ">
<polygon fill="white" stroke="black" points="4,-56.5 4,-75.5 63,-75.5 63,-56.5 4,-56.5"/>
<text text-anchor="middle" x="33.5" y="-63.5" font-family="Helvetica,sans-Serif" font-size="10.00">iaMutex.h</text>
</a>
</g>
</g>
<!-- Node1&#45;&gt;Node2 -->
<g id="edge2" class="edge"><title>Node1&#45;&gt;Node2</title>
<path fill="none" stroke="midnightblue" d="M36.0046,-112.083C35.6114,-105.006 35.0478,-94.8611 34.5548,-85.9865"/>
<polygon fill="midnightblue" stroke="midnightblue" points="38.0356,-85.5415 33.9862,-75.7511 31.0464,-85.9299 38.0356,-85.5415"/>
</g>
<!-- Node3 -->
<g id="node4" class="node"><title>Node3</title>
<g id="a_node4"><a xlink:href="ia_defines_8h.html" target="_top" xlink:title=" ">
<polygon fill="white" stroke="black" points="39,-0.5 39,-19.5 104,-19.5 104,-0.5 39,-0.5"/>
<text text-anchor="middle" x="71.5" y="-7.5" font-family="Helvetica,sans-Serif" font-size="10.00">iaDefines.h</text>
</a>
</g>
</g>
<!-- Node2&#45;&gt;Node3 -->
<g id="edge3" class="edge"><title>Node2&#45;&gt;Node3</title>
<path fill="none" stroke="midnightblue" d="M39.7749,-56.083C45.1425,-48.4554 53.0176,-37.2645 59.5787,-27.9408"/>
<polygon fill="midnightblue" stroke="midnightblue" points="62.4492,-29.9434 65.3418,-19.7511 56.7245,-25.9149 62.4492,-29.9434"/>
</g>
<!-- Node4&#45;&gt;Node3 -->
<g id="edge5" class="edge"><title>Node4&#45;&gt;Node3</title>
<path fill="none" stroke="midnightblue" d="M103.225,-56.083C97.8575,-48.4554 89.9824,-37.2645 83.4213,-27.9408"/>
<polygon fill="midnightblue" stroke="midnightblue" points="86.2755,-25.9149 77.6582,-19.7511 80.5508,-29.9434 86.2755,-25.9149"/>
</g>
</g>
</svg>
