<?xml version="1.0" encoding="UTF-8" standalone="no"?>
<!DOCTYPE svg PUBLIC "-//W3C//DTD SVG 1.1//EN"
 "http://www.w3.org/Graphics/SVG/1.1/DTD/svg11.dtd">
<!-- Generated by graphviz version 2.38.0 (20140413.2041)
 -->
<!-- Title: C:/dev/Igor/src/IgorAux/src/iaMemBlockControl.h Pages: 1 -->
<svg width="574pt" height="173pt"
 viewBox="0.00 0.00 574.00 173.00" xmlns="http://www.w3.org/2000/svg" xmlns:xlink="http://www.w3.org/1999/xlink">
<g id="graph0" class="graph" transform="scale(1 1) rotate(0) translate(4 169)">
<title>C:/dev/Igor/src/IgorAux/src/iaMemBlockControl.h</title>
<polygon fill="white" stroke="none" points="-4,4 -4,-169 570,-169 570,4 -4,4"/>
<!-- Node1 -->
<g id="node1" class="node"><title>Node1</title>
<polygon fill="#bfbfbf" stroke="black" points="146.5,-134.5 146.5,-164.5 275.5,-164.5 275.5,-134.5 146.5,-134.5"/>
<text text-anchor="start" x="154.5" y="-152.5" font-family="Helvetica,sans-Serif" font-size="10.00">C:/dev/Igor/src/IgorAux</text>
<text text-anchor="middle" x="211" y="-141.5" font-family="Helvetica,sans-Serif" font-size="10.00">/src/iaMemBlockControl.h</text>
</g>
<!-- Node2 -->
<g id="node2" class="node"><title>Node2</title>
<g id="a_node2"><a xlink:href="ia_mem_block_control_8cpp.html" target="_top" xlink:title="C:/dev/Igor/src/IgorAux\l/src/iaMemBlockControl.cpp">
<polygon fill="white" stroke="black" points="70,-67.5 70,-97.5 210,-97.5 210,-67.5 70,-67.5"/>
<text text-anchor="start" x="78" y="-85.5" font-family="Helvetica,sans-Serif" font-size="10.00">C:/dev/Igor/src/IgorAux</text>
<text text-anchor="middle" x="140" y="-74.5" font-family="Helvetica,sans-Serif" font-size="10.00">/src/iaMemBlockControl.cpp</text>
</a>
</g>
</g>
<!-- Node1&#45;&gt;Node2 -->
<g id="edge1" class="edge"><title>Node1&#45;&gt;Node2</title>
<path fill="none" stroke="midnightblue" d="M188.168,-127.598C177.448,-117.783 164.953,-106.344 155.376,-97.5765"/>
<polygon fill="midnightblue" stroke="midnightblue" points="185.855,-130.225 195.594,-134.396 190.582,-125.062 185.855,-130.225"/>
</g>
<!-- Node3 -->
<g id="node3" class="node"><title>Node3</title>
<g id="a_node3"><a xlink:href="_o_m_p_f_8h.html" target="_top" xlink:title="C:/dev/Igor/src/OMPF\l/src/OMPF.h">
<polygon fill="white" stroke="black" points="228,-67.5 228,-97.5 338,-97.5 338,-67.5 228,-67.5"/>
<text text-anchor="start" x="236" y="-85.5" font-family="Helvetica,sans-Serif" font-size="10.00">C:/dev/Igor/src/OMPF</text>
<text text-anchor="middle" x="283" y="-74.5" font-family="Helvetica,sans-Serif" font-size="10.00">/src/OMPF.h</text>
</a>
</g>
</g>
<!-- Node1&#45;&gt;Node3 -->
<g id="edge2" class="edge"><title>Node1&#45;&gt;Node3</title>
<path fill="none" stroke="midnightblue" d="M234.153,-127.598C245.025,-117.783 257.696,-106.344 267.408,-97.5765"/>
<polygon fill="midnightblue" stroke="midnightblue" points="231.7,-125.097 226.623,-134.396 236.391,-130.293 231.7,-125.097"/>
</g>
<!-- Node4 -->
<g id="node4" class="node"><title>Node4</title>
<g id="a_node4"><a xlink:href="i_model_data_i_o_o_m_p_f_8cpp.html" target="_top" xlink:title="C:/dev/Igor/src/Igor\l/src/iModelDataIOOMPF.cpp">
<polygon fill="white" stroke="black" points="0,-0.5 0,-30.5 142,-30.5 142,-0.5 0,-0.5"/>
<text text-anchor="start" x="8" y="-18.5" font-family="Helvetica,sans-Serif" font-size="10.00">C:/dev/Igor/src/Igor</text>
<text text-anchor="middle" x="71" y="-7.5" font-family="Helvetica,sans-Serif" font-size="10.00">/src/iModelDataIOOMPF.cpp</text>
</a>
</g>
</g>
<!-- Node3&#45;&gt;Node4 -->
<g id="edge3" class="edge"><title>Node3&#45;&gt;Node4</title>
<path fill="none" stroke="midnightblue" d="M227.372,-64.4442C193.007,-53.9078 149.438,-40.5495 117.023,-30.6109"/>
<polygon fill="midnightblue" stroke="midnightblue" points="226.673,-67.8908 237.26,-67.476 228.725,-61.1983 226.673,-67.8908"/>
</g>
<!-- Node5 -->
<g id="node5" class="node"><title>Node5</title>
<g id="a_node5"><a xlink:href="_o_m_p_f_8cpp.html" target="_top" xlink:title="C:/dev/Igor/src/OMPF\l/src/OMPF.cpp">
<polygon fill="white" stroke="black" points="160,-0.5 160,-30.5 270,-30.5 270,-0.5 160,-0.5"/>
<text text-anchor="start" x="168" y="-18.5" font-family="Helvetica,sans-Serif" font-size="10.00">C:/dev/Igor/src/OMPF</text>
<text text-anchor="middle" x="215" y="-7.5" font-family="Helvetica,sans-Serif" font-size="10.00">/src/OMPF.cpp</text>
</a>
</g>
</g>
<!-- Node3&#45;&gt;Node5 -->
<g id="edge4" class="edge"><title>Node3&#45;&gt;Node5</title>
<path fill="none" stroke="midnightblue" d="M260.834,-60.3115C250.633,-50.5612 238.809,-39.259 229.726,-30.5765"/>
<polygon fill="midnightblue" stroke="midnightblue" points="258.598,-63.0162 268.245,-67.396 263.435,-57.9561 258.598,-63.0162"/>
</g>
<!-- Node6 -->
<g id="node6" class="node"><title>Node6</title>
<g id="a_node6"><a xlink:href="ompf_base_chunk_8cpp.html" target="_top" xlink:title="C:/dev/Igor/src/OMPF\l/src/ompfBaseChunk.cpp">
<polygon fill="white" stroke="black" points="288,-0.5 288,-30.5 414,-30.5 414,-0.5 288,-0.5"/>
<text text-anchor="start" x="296" y="-18.5" font-family="Helvetica,sans-Serif" font-size="10.00">C:/dev/Igor/src/OMPF</text>
<text text-anchor="middle" x="351" y="-7.5" font-family="Helvetica,sans-Serif" font-size="10.00">/src/ompfBaseChunk.cpp</text>
</a>
</g>
</g>
<!-- Node3&#45;&gt;Node6 -->
<g id="edge5" class="edge"><title>Node3&#45;&gt;Node6</title>
<path fill="none" stroke="midnightblue" d="M305.166,-60.3115C315.367,-50.5612 327.191,-39.259 336.274,-30.5765"/>
<polygon fill="midnightblue" stroke="midnightblue" points="302.565,-57.9561 297.755,-67.396 307.402,-63.0162 302.565,-57.9561"/>
</g>
<!-- Node7 -->
<g id="node7" class="node"><title>Node7</title>
<g id="a_node7"><a xlink:href="ompf_header_chunk_8cpp.html" target="_top" xlink:title="C:/dev/Igor/src/OMPF\l/src/ompfHeaderChunk.cpp">
<polygon fill="white" stroke="black" points="432,-0.5 432,-30.5 566,-30.5 566,-0.5 432,-0.5"/>
<text text-anchor="start" x="440" y="-18.5" font-family="Helvetica,sans-Serif" font-size="10.00">C:/dev/Igor/src/OMPF</text>
<text text-anchor="middle" x="499" y="-7.5" font-family="Helvetica,sans-Serif" font-size="10.00">/src/ompfHeaderChunk.cpp</text>
</a>
</g>
</g>
<!-- Node3&#45;&gt;Node7 -->
<g id="edge6" class="edge"><title>Node3&#45;&gt;Node7</title>
<path fill="none" stroke="midnightblue" d="M339.227,-64.5797C374.31,-54.0225 418.94,-40.5921 452.108,-30.6109"/>
<polygon fill="midnightblue" stroke="midnightblue" points="338.17,-61.2428 329.603,-67.476 340.187,-67.9458 338.17,-61.2428"/>
</g>
</g>
</svg>
