<?xml version="1.0" encoding="UTF-8" standalone="no"?>
<!DOCTYPE svg PUBLIC "-//W3C//DTD SVG 1.1//EN"
 "http://www.w3.org/Graphics/SVG/1.1/DTD/svg11.dtd">
<!-- Generated by graphviz version 2.38.0 (20140413.2041)
 -->
<!-- Title: C:/dev/Igor/Igor/src/IgorAux/src/iaQuaternion.h Pages: 1 -->
<svg width="176pt" height="95pt"
 viewBox="0.00 0.00 175.50 95.00" xmlns="http://www.w3.org/2000/svg" xmlns:xlink="http://www.w3.org/1999/xlink">
<g id="graph0" class="graph" transform="scale(1 1) rotate(0) translate(4 91)">
<title>C:/dev/Igor/Igor/src/IgorAux/src/iaQuaternion.h</title>
<polygon fill="white" stroke="none" points="-4,4 -4,-91 171.5,-91 171.5,4 -4,4"/>
<!-- Node0 -->
<g id="node1" class="node"><title>Node0</title>
<g id="a_node1"><a xlink:title=" ">
<polygon fill="#bfbfbf" stroke="black" points="11,-56.5 11,-86.5 146,-86.5 146,-56.5 11,-56.5"/>
<text text-anchor="start" x="19" y="-74.5" font-family="Helvetica,sans-Serif" font-size="10.00">C:/dev/Igor/Igor/src</text>
<text text-anchor="middle" x="78.5" y="-63.5" font-family="Helvetica,sans-Serif" font-size="10.00">/IgorAux/src/iaQuaternion.h</text>
</a>
</g>
</g>
<!-- Node1 -->
<g id="node2" class="node"><title>Node1</title>
<g id="a_node2"><a xlink:href="ia_defines_8h.html" target="_top" xlink:title=" ">
<polygon fill="white" stroke="black" points="0,-0.5 0,-19.5 65,-19.5 65,-0.5 0,-0.5"/>
<text text-anchor="middle" x="32.5" y="-7.5" font-family="Helvetica,sans-Serif" font-size="10.00">iaDefines.h</text>
</a>
</g>
</g>
<!-- Node0&#45;&gt;Node1 -->
<g id="edge1" class="edge"><title>Node0&#45;&gt;Node1</title>
<path fill="none" stroke="midnightblue" d="M67.5986,-56.3993C60.9143,-47.7533 52.324,-36.642 45.315,-27.576"/>
<polygon fill="midnightblue" stroke="midnightblue" points="48.0788,-25.4284 39.1934,-19.6578 42.5408,-29.7099 48.0788,-25.4284"/>
</g>
<!-- Node2 -->
<g id="node3" class="node"><title>Node2</title>
<g id="a_node3"><a xlink:href="ia_quaternion_8inl.html" target="_top" xlink:title=" ">
<polygon fill="white" stroke="black" points="83.5,-0.5 83.5,-19.5 167.5,-19.5 167.5,-0.5 83.5,-0.5"/>
<text text-anchor="middle" x="125.5" y="-7.5" font-family="Helvetica,sans-Serif" font-size="10.00">iaQuaternion.inl</text>
</a>
</g>
</g>
<!-- Node0&#45;&gt;Node2 -->
<g id="edge2" class="edge"><title>Node0&#45;&gt;Node2</title>
<path fill="none" stroke="midnightblue" d="M89.6383,-56.3993C96.468,-47.7533 105.245,-36.642 112.406,-27.576"/>
<polygon fill="midnightblue" stroke="midnightblue" points="115.209,-29.6745 118.661,-19.6578 109.716,-25.3354 115.209,-29.6745"/>
</g>
</g>
</svg>
