<?xml version="1.0" encoding="UTF-8" standalone="no"?>
<!DOCTYPE svg PUBLIC "-//W3C//DTD SVG 1.1//EN"
 "http://www.w3.org/Graphics/SVG/1.1/DTD/svg11.dtd">
<!-- Generated by graphviz version 2.38.0 (20140413.2041)
 -->
<!-- Title: C:/dev/Igor/src/IgorAux/src/iaString.h Pages: 1 -->
<svg width="204pt" height="95pt"
 viewBox="0.00 0.00 203.50 95.00" xmlns="http://www.w3.org/2000/svg" xmlns:xlink="http://www.w3.org/1999/xlink">
<g id="graph0" class="graph" transform="scale(1 1) rotate(0) translate(4 91)">
<title>C:/dev/Igor/src/IgorAux/src/iaString.h</title>
<polygon fill="white" stroke="none" points="-4,4 -4,-91 199.5,-91 199.5,4 -4,4"/>
<!-- Node1 -->
<g id="node1" class="node"><title>Node1</title>
<polygon fill="#bfbfbf" stroke="black" points="52,-56.5 52,-86.5 167,-86.5 167,-56.5 52,-56.5"/>
<text text-anchor="start" x="60" y="-74.5" font-family="Helvetica,sans-Serif" font-size="10.00">C:/dev/Igor/src/IgorAux</text>
<text text-anchor="middle" x="109.5" y="-63.5" font-family="Helvetica,sans-Serif" font-size="10.00">/src/iaString.h</text>
</g>
<!-- Node2 -->
<g id="node2" class="node"><title>Node2</title>
<g id="a_node2"><a xlink:href="ia_defines_8h.html" target="_top" xlink:title="iaDefines.h">
<polygon fill="white" stroke="black" points="0,-0.5 0,-19.5 65,-19.5 65,-0.5 0,-0.5"/>
<text text-anchor="middle" x="32.5" y="-7.5" font-family="Helvetica,sans-Serif" font-size="10.00">iaDefines.h</text>
</a>
</g>
</g>
<!-- Node1&#45;&gt;Node2 -->
<g id="edge1" class="edge"><title>Node1&#45;&gt;Node2</title>
<path fill="none" stroke="midnightblue" d="M91.2521,-56.3993C79.371,-47.2185 63.8926,-35.2579 51.8059,-25.9182"/>
<polygon fill="midnightblue" stroke="midnightblue" points="53.7571,-23.0028 43.7042,-19.6578 49.477,-28.5418 53.7571,-23.0028"/>
</g>
<!-- Node3 -->
<g id="node3" class="node"><title>Node3</title>
<polygon fill="white" stroke="#bfbfbf" points="83.5,-0.5 83.5,-19.5 135.5,-19.5 135.5,-0.5 83.5,-0.5"/>
<text text-anchor="middle" x="109.5" y="-7.5" font-family="Helvetica,sans-Serif" font-size="10.00">ostream</text>
</g>
<!-- Node1&#45;&gt;Node3 -->
<g id="edge2" class="edge"><title>Node1&#45;&gt;Node3</title>
<path fill="none" stroke="midnightblue" d="M109.5,-56.3993C109.5,-48.4664 109.5,-38.458 109.5,-29.8583"/>
<polygon fill="midnightblue" stroke="midnightblue" points="113,-29.6577 109.5,-19.6578 106,-29.6578 113,-29.6577"/>
</g>
<!-- Node4 -->
<g id="node4" class="node"><title>Node4</title>
<polygon fill="white" stroke="#bfbfbf" points="153.5,-0.5 153.5,-19.5 195.5,-19.5 195.5,-0.5 153.5,-0.5"/>
<text text-anchor="middle" x="174.5" y="-7.5" font-family="Helvetica,sans-Serif" font-size="10.00">vector</text>
</g>
<!-- Node1&#45;&gt;Node4 -->
<g id="edge3" class="edge"><title>Node1&#45;&gt;Node4</title>
<path fill="none" stroke="midnightblue" d="M124.904,-56.3993C134.739,-47.3967 147.493,-35.7214 157.605,-26.4652"/>
<polygon fill="midnightblue" stroke="midnightblue" points="160.029,-28.9916 165.042,-19.6578 155.302,-23.8282 160.029,-28.9916"/>
</g>
</g>
</svg>
