<?xml version="1.0" encoding="UTF-8" standalone="no"?>
<!DOCTYPE svg PUBLIC "-//W3C//DTD SVG 1.1//EN"
 "http://www.w3.org/Graphics/SVG/1.1/DTD/svg11.dtd">
<!-- Generated by graphviz version 2.38.0 (20140413.2041)
 -->
<!-- Title: C:/dev/Igor/Igor/src/IgorAux/src/iaString.cpp Pages: 1 -->
<svg width="571pt" height="263pt"
 viewBox="0.00 0.00 571.25 263.00" xmlns="http://www.w3.org/2000/svg" xmlns:xlink="http://www.w3.org/1999/xlink">
<g id="graph0" class="graph" transform="scale(1 1) rotate(0) translate(4 259)">
<title>C:/dev/Igor/Igor/src/IgorAux/src/iaString.cpp</title>
<polygon fill="white" stroke="none" points="-4,4 -4,-259 567.251,-259 567.251,4 -4,4"/>
<!-- Node0 -->
<g id="node1" class="node"><title>Node0</title>
<g id="a_node1"><a xlink:title=" ">
<polygon fill="#bfbfbf" stroke="black" points="315.251,-224.5 315.251,-254.5 439.251,-254.5 439.251,-224.5 315.251,-224.5"/>
<text text-anchor="start" x="323.251" y="-242.5" font-family="Helvetica,sans-Serif" font-size="10.00">C:/dev/Igor/Igor/src</text>
<text text-anchor="middle" x="377.251" y="-231.5" font-family="Helvetica,sans-Serif" font-size="10.00">/IgorAux/src/iaString.cpp</text>
</a>
</g>
</g>
<!-- Node1 -->
<g id="node2" class="node"><title>Node1</title>
<g id="a_node2"><a xlink:href="ia_string_8h.html" target="_top" xlink:title=" ">
<polygon fill="white" stroke="black" points="41.2506,-168.5 41.2506,-187.5 99.2506,-187.5 99.2506,-168.5 41.2506,-168.5"/>
<text text-anchor="middle" x="70.2506" y="-175.5" font-family="Helvetica,sans-Serif" font-size="10.00">iaString.h</text>
</a>
</g>
</g>
<!-- Node0&#45;&gt;Node1 -->
<g id="edge1" class="edge"><title>Node0&#45;&gt;Node1</title>
<path fill="none" stroke="midnightblue" d="M315.125,-226.459C253.528,-214.521 161.068,-196.601 109.17,-186.543"/>
<polygon fill="midnightblue" stroke="midnightblue" points="109.836,-183.107 99.3529,-184.64 108.504,-189.979 109.836,-183.107"/>
</g>
<!-- Node5 -->
<g id="node6" class="node"><title>Node5</title>
<g id="a_node6"><a xlink:href="ia_console_8h.html" target="_top" xlink:title=" ">
<polygon fill="white" stroke="black" points="236.251,-168.5 236.251,-187.5 304.251,-187.5 304.251,-168.5 236.251,-168.5"/>
<text text-anchor="middle" x="270.251" y="-175.5" font-family="Helvetica,sans-Serif" font-size="10.00">iaConsole.h</text>
</a>
</g>
</g>
<!-- Node0&#45;&gt;Node5 -->
<g id="edge5" class="edge"><title>Node0&#45;&gt;Node5</title>
<path fill="none" stroke="midnightblue" d="M351.893,-224.399C334.582,-214.773 311.774,-202.09 294.667,-192.577"/>
<polygon fill="midnightblue" stroke="midnightblue" points="296.261,-189.459 285.82,-187.658 292.859,-195.577 296.261,-189.459"/>
</g>
<!-- Node12 -->
<g id="node13" class="node"><title>Node12</title>
<g id="a_node13"><a xlink:title=" ">
<polygon fill="white" stroke="#bfbfbf" points="322.251,-168.5 322.251,-187.5 368.251,-187.5 368.251,-168.5 322.251,-168.5"/>
<text text-anchor="middle" x="345.251" y="-175.5" font-family="Helvetica,sans-Serif" font-size="10.00">stdio.h</text>
</a>
</g>
</g>
<!-- Node0&#45;&gt;Node12 -->
<g id="edge14" class="edge"><title>Node0&#45;&gt;Node12</title>
<path fill="none" stroke="midnightblue" d="M369.667,-224.399C365.209,-216.11 359.532,-205.554 354.774,-196.708"/>
<polygon fill="midnightblue" stroke="midnightblue" points="357.726,-194.807 349.907,-187.658 351.561,-198.123 357.726,-194.807"/>
</g>
<!-- Node13 -->
<g id="node14" class="node"><title>Node13</title>
<g id="a_node14"><a xlink:title=" ">
<polygon fill="white" stroke="#bfbfbf" points="386.751,-168.5 386.751,-187.5 433.751,-187.5 433.751,-168.5 386.751,-168.5"/>
<text text-anchor="middle" x="410.251" y="-175.5" font-family="Helvetica,sans-Serif" font-size="10.00">math.h</text>
</a>
</g>
</g>
<!-- Node0&#45;&gt;Node13 -->
<g id="edge15" class="edge"><title>Node0&#45;&gt;Node13</title>
<path fill="none" stroke="midnightblue" d="M385.071,-224.399C389.718,-216.021 395.649,-205.327 400.588,-196.423"/>
<polygon fill="midnightblue" stroke="midnightblue" points="403.659,-198.1 405.449,-187.658 397.538,-194.705 403.659,-198.1"/>
</g>
<!-- Node14 -->
<g id="node15" class="node"><title>Node14</title>
<g id="a_node15"><a xlink:title=" ">
<polygon fill="white" stroke="#bfbfbf" points="451.751,-168.5 451.751,-187.5 492.751,-187.5 492.751,-168.5 451.751,-168.5"/>
<text text-anchor="middle" x="472.251" y="-175.5" font-family="Helvetica,sans-Serif" font-size="10.00">string</text>
</a>
</g>
</g>
<!-- Node0&#45;&gt;Node14 -->
<g id="edge16" class="edge"><title>Node0&#45;&gt;Node14</title>
<path fill="none" stroke="midnightblue" d="M399.764,-224.399C414.85,-214.951 434.636,-202.559 449.724,-193.109"/>
<polygon fill="midnightblue" stroke="midnightblue" points="451.81,-195.932 458.427,-187.658 448.094,-190 451.81,-195.932"/>
</g>
<!-- Node15 -->
<g id="node16" class="node"><title>Node15</title>
<g id="a_node16"><a xlink:title=" ">
<polygon fill="white" stroke="#bfbfbf" points="511.251,-168.5 511.251,-187.5 563.251,-187.5 563.251,-168.5 511.251,-168.5"/>
<text text-anchor="middle" x="537.251" y="-175.5" font-family="Helvetica,sans-Serif" font-size="10.00">memory</text>
</a>
</g>
</g>
<!-- Node0&#45;&gt;Node15 -->
<g id="edge17" class="edge"><title>Node0&#45;&gt;Node15</title>
<path fill="none" stroke="midnightblue" d="M415.168,-224.399C442.373,-214.283 478.654,-200.791 504.58,-191.149"/>
<polygon fill="midnightblue" stroke="midnightblue" points="505.816,-194.424 513.969,-187.658 503.376,-187.863 505.816,-194.424"/>
</g>
<!-- Node2 -->
<g id="node3" class="node"><title>Node2</title>
<g id="a_node3"><a xlink:href="ia_defines_8h.html" target="_top" xlink:title=" ">
<polygon fill="white" stroke="black" points="135.751,-0.5 135.751,-19.5 200.751,-19.5 200.751,-0.5 135.751,-0.5"/>
<text text-anchor="middle" x="168.251" y="-7.5" font-family="Helvetica,sans-Serif" font-size="10.00">iaDefines.h</text>
</a>
</g>
</g>
<!-- Node1&#45;&gt;Node2 -->
<g id="edge2" class="edge"><title>Node1&#45;&gt;Node2</title>
<path fill="none" stroke="midnightblue" d="M48.9424,-168.452C24.5532,-157.3 -10.3757,-136.317 3.25062,-112 29.738,-64.7309 88.3689,-36.9278 128.111,-22.8285"/>
<polygon fill="midnightblue" stroke="midnightblue" points="129.44,-26.0735 137.777,-19.5357 127.183,-19.4474 129.44,-26.0735"/>
</g>
<!-- Node3 -->
<g id="node4" class="node"><title>Node3</title>
<g id="a_node4"><a xlink:title=" ">
<polygon fill="white" stroke="#bfbfbf" points="12.2506,-112.5 12.2506,-131.5 64.2506,-131.5 64.2506,-112.5 12.2506,-112.5"/>
<text text-anchor="middle" x="38.2506" y="-119.5" font-family="Helvetica,sans-Serif" font-size="10.00">ostream</text>
</a>
</g>
</g>
<!-- Node1&#45;&gt;Node3 -->
<g id="edge3" class="edge"><title>Node1&#45;&gt;Node3</title>
<path fill="none" stroke="midnightblue" d="M64.9665,-168.083C60.5396,-160.613 54.0873,-149.724 48.6328,-140.52"/>
<polygon fill="midnightblue" stroke="midnightblue" points="51.5455,-138.57 43.4364,-131.751 45.5235,-142.138 51.5455,-138.57"/>
</g>
<!-- Node4 -->
<g id="node5" class="node"><title>Node4</title>
<g id="a_node5"><a xlink:title=" ">
<polygon fill="white" stroke="#bfbfbf" points="82.2506,-112.5 82.2506,-131.5 124.251,-131.5 124.251,-112.5 82.2506,-112.5"/>
<text text-anchor="middle" x="103.251" y="-119.5" font-family="Helvetica,sans-Serif" font-size="10.00">vector</text>
</a>
</g>
</g>
<!-- Node1&#45;&gt;Node4 -->
<g id="edge4" class="edge"><title>Node1&#45;&gt;Node4</title>
<path fill="none" stroke="midnightblue" d="M75.6999,-168.083C80.2651,-160.613 86.919,-149.724 92.544,-140.52"/>
<polygon fill="midnightblue" stroke="midnightblue" points="95.6747,-142.109 97.9027,-131.751 89.7017,-138.459 95.6747,-142.109"/>
</g>
<!-- Node6 -->
<g id="node7" class="node"><title>Node6</title>
<g id="a_node7"><a xlink:href="ia_singleton_8h.html" target="_top" xlink:title=" ">
<polygon fill="white" stroke="black" points="142.751,-112.5 142.751,-131.5 215.751,-131.5 215.751,-112.5 142.751,-112.5"/>
<text text-anchor="middle" x="179.251" y="-119.5" font-family="Helvetica,sans-Serif" font-size="10.00">iaSingleton.h</text>
</a>
</g>
</g>
<!-- Node5&#45;&gt;Node6 -->
<g id="edge6" class="edge"><title>Node5&#45;&gt;Node6</title>
<path fill="none" stroke="midnightblue" d="M255.63,-168.324C241.302,-159.822 219.238,-146.729 202.502,-136.797"/>
<polygon fill="midnightblue" stroke="midnightblue" points="204.221,-133.748 193.835,-131.655 200.649,-139.768 204.221,-133.748"/>
</g>
<!-- Node8 -->
<g id="node9" class="node"><title>Node8</title>
<g id="a_node9"><a xlink:href="ia_clock_8h.html" target="_top" xlink:title=" ">
<polygon fill="white" stroke="black" points="215.751,-56.5 215.751,-75.5 272.751,-75.5 272.751,-56.5 215.751,-56.5"/>
<text text-anchor="middle" x="244.251" y="-63.5" font-family="Helvetica,sans-Serif" font-size="10.00">iaClock.h</text>
</a>
</g>
</g>
<!-- Node5&#45;&gt;Node8 -->
<g id="edge9" class="edge"><title>Node5&#45;&gt;Node8</title>
<path fill="none" stroke="midnightblue" d="M268.21,-168.368C264.015,-150.617 254.335,-109.666 248.646,-85.5974"/>
<polygon fill="midnightblue" stroke="midnightblue" points="251.988,-84.5182 246.281,-75.5914 245.176,-86.1284 251.988,-84.5182"/>
</g>
<!-- Node9 -->
<g id="node10" class="node"><title>Node9</title>
<g id="a_node10"><a xlink:title=" ">
<polygon fill="white" stroke="#bfbfbf" points="272.751,-112.5 272.751,-131.5 321.751,-131.5 321.751,-112.5 272.751,-112.5"/>
<text text-anchor="middle" x="297.251" y="-119.5" font-family="Helvetica,sans-Serif" font-size="10.00">fstream</text>
</a>
</g>
</g>
<!-- Node5&#45;&gt;Node9 -->
<g id="edge11" class="edge"><title>Node5&#45;&gt;Node9</title>
<path fill="none" stroke="midnightblue" d="M274.709,-168.083C278.405,-160.691 283.774,-149.953 288.345,-140.811"/>
<polygon fill="midnightblue" stroke="midnightblue" points="291.533,-142.261 292.875,-131.751 285.272,-139.13 291.533,-142.261"/>
</g>
<!-- Node10 -->
<g id="node11" class="node"><title>Node10</title>
<g id="a_node11"><a xlink:title=" ">
<polygon fill="white" stroke="#bfbfbf" points="340.251,-112.5 340.251,-131.5 394.251,-131.5 394.251,-112.5 340.251,-112.5"/>
<text text-anchor="middle" x="367.251" y="-119.5" font-family="Helvetica,sans-Serif" font-size="10.00">iostream</text>
</a>
</g>
</g>
<!-- Node5&#45;&gt;Node10 -->
<g id="edge12" class="edge"><title>Node5&#45;&gt;Node10</title>
<path fill="none" stroke="midnightblue" d="M285.835,-168.324C301.25,-159.743 325.063,-146.486 342.96,-136.522"/>
<polygon fill="midnightblue" stroke="midnightblue" points="344.67,-139.577 351.705,-131.655 341.265,-133.461 344.67,-139.577"/>
</g>
<!-- Node11 -->
<g id="node12" class="node"><title>Node11</title>
<g id="a_node12"><a xlink:title=" ">
<polygon fill="white" stroke="#bfbfbf" points="412.251,-112.5 412.251,-131.5 462.251,-131.5 462.251,-112.5 412.251,-112.5"/>
<text text-anchor="middle" x="437.251" y="-119.5" font-family="Helvetica,sans-Serif" font-size="10.00">iomanip</text>
</a>
</g>
</g>
<!-- Node5&#45;&gt;Node11 -->
<g id="edge13" class="edge"><title>Node5&#45;&gt;Node11</title>
<path fill="none" stroke="midnightblue" d="M296.712,-168.444C325.261,-159.212 370.849,-144.471 402.323,-134.294"/>
<polygon fill="midnightblue" stroke="midnightblue" points="403.568,-137.57 412.006,-131.163 401.414,-130.909 403.568,-137.57"/>
</g>
<!-- Node7 -->
<g id="node8" class="node"><title>Node7</title>
<g id="a_node8"><a xlink:href="ia_mutex_8h.html" target="_top" xlink:title=" ">
<polygon fill="white" stroke="black" points="138.751,-56.5 138.751,-75.5 197.751,-75.5 197.751,-56.5 138.751,-56.5"/>
<text text-anchor="middle" x="168.251" y="-63.5" font-family="Helvetica,sans-Serif" font-size="10.00">iaMutex.h</text>
</a>
</g>
</g>
<!-- Node6&#45;&gt;Node7 -->
<g id="edge7" class="edge"><title>Node6&#45;&gt;Node7</title>
<path fill="none" stroke="midnightblue" d="M177.434,-112.083C175.977,-104.927 173.88,-94.6353 172.058,-85.6911"/>
<polygon fill="midnightblue" stroke="midnightblue" points="175.459,-84.8512 170.033,-75.7511 168.6,-86.2485 175.459,-84.8512"/>
</g>
<!-- Node7&#45;&gt;Node2 -->
<g id="edge8" class="edge"><title>Node7&#45;&gt;Node2</title>
<path fill="none" stroke="midnightblue" d="M168.251,-56.083C168.251,-49.0059 168.251,-38.8611 168.251,-29.9865"/>
<polygon fill="midnightblue" stroke="midnightblue" points="171.751,-29.751 168.251,-19.7511 164.751,-29.7511 171.751,-29.751"/>
</g>
<!-- Node8&#45;&gt;Node2 -->
<g id="edge10" class="edge"><title>Node8&#45;&gt;Node2</title>
<path fill="none" stroke="midnightblue" d="M232.04,-56.324C220.475,-48.1066 202.875,-35.6017 189.09,-25.8069"/>
<polygon fill="midnightblue" stroke="midnightblue" points="190.863,-22.7729 180.684,-19.8339 186.808,-28.4791 190.863,-22.7729"/>
</g>
</g>
</svg>
