<?xml version="1.0" encoding="UTF-8" standalone="no"?>
<!DOCTYPE svg PUBLIC "-//W3C//DTD SVG 1.1//EN"
 "http://www.w3.org/Graphics/SVG/1.1/DTD/svg11.dtd">
<!-- Generated by graphviz version 2.38.0 (20140413.2041)
 -->
<!-- Title: C:/dev/Igor/src/IgorAux/src/iaSystem.h Pages: 1 -->
<svg width="207pt" height="151pt"
 viewBox="0.00 0.00 207.00 151.00" xmlns="http://www.w3.org/2000/svg" xmlns:xlink="http://www.w3.org/1999/xlink">
<g id="graph0" class="graph" transform="scale(1 1) rotate(0) translate(4 147)">
<title>C:/dev/Igor/src/IgorAux/src/iaSystem.h</title>
<polygon fill="white" stroke="none" points="-4,4 -4,-147 203,-147 203,4 -4,4"/>
<!-- Node1 -->
<g id="node1" class="node"><title>Node1</title>
<polygon fill="#bfbfbf" stroke="black" points="84,-112.5 84,-142.5 199,-142.5 199,-112.5 84,-112.5"/>
<text text-anchor="start" x="92" y="-130.5" font-family="Helvetica,sans-Serif" font-size="10.00">C:/dev/Igor/src/IgorAux</text>
<text text-anchor="middle" x="141.5" y="-119.5" font-family="Helvetica,sans-Serif" font-size="10.00">/src/iaSystem.h</text>
</g>
<!-- Node2 -->
<g id="node2" class="node"><title>Node2</title>
<g id="a_node2"><a xlink:href="ia_string_8h.html" target="_top" xlink:title="iaString.h">
<polygon fill="white" stroke="black" points="82.5,-56.5 82.5,-75.5 140.5,-75.5 140.5,-56.5 82.5,-56.5"/>
<text text-anchor="middle" x="111.5" y="-63.5" font-family="Helvetica,sans-Serif" font-size="10.00">iaString.h</text>
</a>
</g>
</g>
<!-- Node1&#45;&gt;Node2 -->
<g id="edge1" class="edge"><title>Node1&#45;&gt;Node2</title>
<path fill="none" stroke="midnightblue" d="M134.39,-112.399C130.211,-104.11 124.889,-93.5542 120.428,-84.7077"/>
<polygon fill="midnightblue" stroke="midnightblue" points="123.493,-83.0112 115.865,-75.6578 117.242,-86.1628 123.493,-83.0112"/>
</g>
<!-- Node5 -->
<g id="node5" class="node"><title>Node5</title>
<polygon fill="white" stroke="#bfbfbf" points="153.5,-0.5 153.5,-19.5 195.5,-19.5 195.5,-0.5 153.5,-0.5"/>
<text text-anchor="middle" x="174.5" y="-7.5" font-family="Helvetica,sans-Serif" font-size="10.00">vector</text>
</g>
<!-- Node1&#45;&gt;Node5 -->
<g id="edge5" class="edge"><title>Node1&#45;&gt;Node5</title>
<path fill="none" stroke="midnightblue" d="M145.546,-112.337C151.492,-91.5271 162.596,-52.6632 169.19,-29.5834"/>
<polygon fill="midnightblue" stroke="midnightblue" points="172.641,-30.2462 172.023,-19.6695 165.91,-28.3231 172.641,-30.2462"/>
</g>
<!-- Node3 -->
<g id="node3" class="node"><title>Node3</title>
<g id="a_node3"><a xlink:href="ia_defines_8h.html" target="_top" xlink:title="iaDefines.h">
<polygon fill="white" stroke="black" points="0,-0.5 0,-19.5 65,-19.5 65,-0.5 0,-0.5"/>
<text text-anchor="middle" x="32.5" y="-7.5" font-family="Helvetica,sans-Serif" font-size="10.00">iaDefines.h</text>
</a>
</g>
</g>
<!-- Node2&#45;&gt;Node3 -->
<g id="edge2" class="edge"><title>Node2&#45;&gt;Node3</title>
<path fill="none" stroke="midnightblue" d="M98.8073,-56.324C86.5989,-47.979 67.9215,-35.2122 53.4971,-25.3524"/>
<polygon fill="midnightblue" stroke="midnightblue" points="55.392,-22.4082 45.1612,-19.6545 51.4418,-28.1871 55.392,-22.4082"/>
</g>
<!-- Node4 -->
<g id="node4" class="node"><title>Node4</title>
<polygon fill="white" stroke="#bfbfbf" points="83.5,-0.5 83.5,-19.5 135.5,-19.5 135.5,-0.5 83.5,-0.5"/>
<text text-anchor="middle" x="109.5" y="-7.5" font-family="Helvetica,sans-Serif" font-size="10.00">ostream</text>
</g>
<!-- Node2&#45;&gt;Node4 -->
<g id="edge3" class="edge"><title>Node2&#45;&gt;Node4</title>
<path fill="none" stroke="midnightblue" d="M111.17,-56.083C110.908,-49.0059 110.532,-38.8611 110.203,-29.9865"/>
<polygon fill="midnightblue" stroke="midnightblue" points="113.692,-29.6147 109.824,-19.7511 106.697,-29.8738 113.692,-29.6147"/>
</g>
<!-- Node2&#45;&gt;Node5 -->
<g id="edge4" class="edge"><title>Node2&#45;&gt;Node5</title>
<path fill="none" stroke="midnightblue" d="M121.622,-56.324C131.026,-48.2631 145.244,-36.0765 156.569,-26.3695"/>
<polygon fill="midnightblue" stroke="midnightblue" points="158.879,-28.9993 164.194,-19.8339 154.323,-23.6844 158.879,-28.9993"/>
</g>
</g>
</svg>
