<?xml version="1.0" encoding="UTF-8" standalone="no"?>
<!DOCTYPE svg PUBLIC "-//W3C//DTD SVG 1.1//EN"
 "http://www.w3.org/Graphics/SVG/1.1/DTD/svg11.dtd">
<!-- Generated by graphviz version 2.38.0 (20140413.2041)
 -->
<!-- Title: C:/dev/Igor/src/IgorAux/src/iaStateMachine.cpp Pages: 1 -->
<svg width="467pt" height="431pt"
 viewBox="0.00 0.00 467.00 431.00" xmlns="http://www.w3.org/2000/svg" xmlns:xlink="http://www.w3.org/1999/xlink">
<g id="graph0" class="graph" transform="scale(1 1) rotate(0) translate(4 427)">
<title>C:/dev/Igor/src/IgorAux/src/iaStateMachine.cpp</title>
<polygon fill="white" stroke="none" points="-4,4 -4,-427 463,-427 463,4 -4,4"/>
<!-- Node1 -->
<g id="node1" class="node"><title>Node1</title>
<polygon fill="#bfbfbf" stroke="black" points="133,-392.5 133,-422.5 255,-422.5 255,-392.5 133,-392.5"/>
<text text-anchor="start" x="141" y="-410.5" font-family="Helvetica,sans-Serif" font-size="10.00">C:/dev/Igor/src/IgorAux</text>
<text text-anchor="middle" x="194" y="-399.5" font-family="Helvetica,sans-Serif" font-size="10.00">/src/iaStateMachine.cpp</text>
</g>
<!-- Node2 -->
<g id="node2" class="node"><title>Node2</title>
<g id="a_node2"><a xlink:href="ia_state_machine_8h.html" target="_top" xlink:title="iaStateMachine.h">
<polygon fill="white" stroke="black" points="43,-336.5 43,-355.5 135,-355.5 135,-336.5 43,-336.5"/>
<text text-anchor="middle" x="89" y="-343.5" font-family="Helvetica,sans-Serif" font-size="10.00">iaStateMachine.h</text>
</a>
</g>
</g>
<!-- Node1&#45;&gt;Node2 -->
<g id="edge1" class="edge"><title>Node1&#45;&gt;Node2</title>
<path fill="none" stroke="midnightblue" d="M169.116,-392.399C152.286,-382.862 130.161,-370.325 113.427,-360.842"/>
<polygon fill="midnightblue" stroke="midnightblue" points="114.704,-357.543 104.278,-355.658 111.253,-363.633 114.704,-357.543"/>
</g>
<!-- Node8 -->
<g id="node8" class="node"><title>Node8</title>
<g id="a_node8"><a xlink:href="ia_console_8h.html" target="_top" xlink:title="iaConsole.h">
<polygon fill="white" stroke="black" points="254,-168.5 254,-187.5 322,-187.5 322,-168.5 254,-168.5"/>
<text text-anchor="middle" x="288" y="-175.5" font-family="Helvetica,sans-Serif" font-size="10.00">iaConsole.h</text>
</a>
</g>
</g>
<!-- Node1&#45;&gt;Node8 -->
<g id="edge25" class="edge"><title>Node1&#45;&gt;Node8</title>
<path fill="none" stroke="midnightblue" d="M210.622,-392.093C220.475,-382.722 232.47,-369.724 240,-356 269.043,-303.064 281.398,-231.426 285.851,-197.843"/>
<polygon fill="midnightblue" stroke="midnightblue" points="289.358,-197.998 287.111,-187.644 282.411,-197.14 289.358,-197.998"/>
</g>
<!-- Node16 -->
<g id="node16" class="node"><title>Node16</title>
<g id="a_node16"><a xlink:href="ia_transition_8h.html" target="_top" xlink:title="iaTransition.h">
<polygon fill="white" stroke="black" points="157,-336.5 157,-355.5 231,-355.5 231,-336.5 157,-336.5"/>
<text text-anchor="middle" x="194" y="-343.5" font-family="Helvetica,sans-Serif" font-size="10.00">iaTransition.h</text>
</a>
</g>
</g>
<!-- Node1&#45;&gt;Node16 -->
<g id="edge20" class="edge"><title>Node1&#45;&gt;Node16</title>
<path fill="none" stroke="midnightblue" d="M194,-392.399C194,-384.466 194,-374.458 194,-365.858"/>
<polygon fill="midnightblue" stroke="midnightblue" points="197.5,-365.658 194,-355.658 190.5,-365.658 197.5,-365.658"/>
</g>
<!-- Node3 -->
<g id="node3" class="node"><title>Node3</title>
<g id="a_node3"><a xlink:href="ia_defines_8h.html" target="_top" xlink:title="iaDefines.h">
<polygon fill="white" stroke="black" points="85.5,-0.5 85.5,-19.5 150.5,-19.5 150.5,-0.5 85.5,-0.5"/>
<text text-anchor="middle" x="118" y="-7.5" font-family="Helvetica,sans-Serif" font-size="10.00">iaDefines.h</text>
</a>
</g>
</g>
<!-- Node2&#45;&gt;Node3 -->
<g id="edge2" class="edge"><title>Node2&#45;&gt;Node3</title>
<path fill="none" stroke="midnightblue" d="M74.7006,-336.401C49.5424,-320.058 0,-281.92 0,-235 0,-235 0,-235 0,-121 0,-73.5119 51.7657,-40.6741 86.7242,-23.9123"/>
<polygon fill="midnightblue" stroke="midnightblue" points="88.4567,-26.9681 96.0816,-19.6121 85.5337,-20.6075 88.4567,-26.9681"/>
</g>
<!-- Node4 -->
<g id="node4" class="node"><title>Node4</title>
<g id="a_node4"><a xlink:href="ia_state_8h.html" target="_top" xlink:title="iaState.h">
<polygon fill="white" stroke="black" points="59,-280.5 59,-299.5 115,-299.5 115,-280.5 59,-280.5"/>
<text text-anchor="middle" x="87" y="-287.5" font-family="Helvetica,sans-Serif" font-size="10.00">iaState.h</text>
</a>
</g>
</g>
<!-- Node2&#45;&gt;Node4 -->
<g id="edge3" class="edge"><title>Node2&#45;&gt;Node4</title>
<path fill="none" stroke="midnightblue" d="M88.6697,-336.083C88.4076,-329.006 88.0319,-318.861 87.7032,-309.986"/>
<polygon fill="midnightblue" stroke="midnightblue" points="91.1919,-309.615 87.3241,-299.751 84.1967,-309.874 91.1919,-309.615"/>
</g>
<!-- Node15 -->
<g id="node15" class="node"><title>Node15</title>
<polygon fill="white" stroke="#bfbfbf" points="133.5,-280.5 133.5,-299.5 168.5,-299.5 168.5,-280.5 133.5,-280.5"/>
<text text-anchor="middle" x="151" y="-287.5" font-family="Helvetica,sans-Serif" font-size="10.00">map</text>
</g>
<!-- Node2&#45;&gt;Node15 -->
<g id="edge19" class="edge"><title>Node2&#45;&gt;Node15</title>
<path fill="none" stroke="midnightblue" d="M98.9614,-336.324C108.127,-328.341 121.937,-316.313 133.028,-306.653"/>
<polygon fill="midnightblue" stroke="midnightblue" points="135.615,-309.041 140.857,-299.834 131.018,-303.762 135.615,-309.041"/>
</g>
<!-- Node4&#45;&gt;Node3 -->
<g id="edge4" class="edge"><title>Node4&#45;&gt;Node3</title>
<path fill="none" stroke="midnightblue" d="M80.1868,-280.458C66.7229,-262.688 38,-219.976 38,-179 38,-179 38,-179 38,-121 38,-80.6206 73.6946,-45.1055 97.398,-25.9729"/>
<polygon fill="midnightblue" stroke="midnightblue" points="99.7448,-28.582 105.5,-19.6866 95.4537,-23.0515 99.7448,-28.582"/>
</g>
<!-- Node5 -->
<g id="node5" class="node"><title>Node5</title>
<g id="a_node5"><a xlink:href="ia_event_8h.html" target="_top" xlink:title="iaEvent.h">
<polygon fill="white" stroke="black" points="151,-224.5 151,-243.5 207,-243.5 207,-224.5 151,-224.5"/>
<text text-anchor="middle" x="179" y="-231.5" font-family="Helvetica,sans-Serif" font-size="10.00">iaEvent.h</text>
</a>
</g>
</g>
<!-- Node4&#45;&gt;Node5 -->
<g id="edge5" class="edge"><title>Node4&#45;&gt;Node5</title>
<path fill="none" stroke="midnightblue" d="M101.781,-280.324C116.267,-271.822 138.573,-258.729 155.493,-248.797"/>
<polygon fill="midnightblue" stroke="midnightblue" points="157.403,-251.735 164.255,-243.655 153.859,-245.698 157.403,-251.735"/>
</g>
<!-- Node14 -->
<g id="node14" class="node"><title>Node14</title>
<polygon fill="white" stroke="#bfbfbf" points="66,-168.5 66,-187.5 108,-187.5 108,-168.5 66,-168.5"/>
<text text-anchor="middle" x="87" y="-175.5" font-family="Helvetica,sans-Serif" font-size="10.00">vector</text>
</g>
<!-- Node4&#45;&gt;Node14 -->
<g id="edge18" class="edge"><title>Node4&#45;&gt;Node14</title>
<path fill="none" stroke="midnightblue" d="M87,-280.368C87,-262.617 87,-221.666 87,-197.597"/>
<polygon fill="midnightblue" stroke="midnightblue" points="90.5001,-197.591 87,-187.591 83.5001,-197.591 90.5001,-197.591"/>
</g>
<!-- Node6 -->
<g id="node6" class="node"><title>Node6</title>
<g id="a_node6"><a xlink:href="ia_mutex_8h.html" target="_top" xlink:title="iaMutex.h">
<polygon fill="white" stroke="black" points="88.5,-56.5 88.5,-75.5 147.5,-75.5 147.5,-56.5 88.5,-56.5"/>
<text text-anchor="middle" x="118" y="-63.5" font-family="Helvetica,sans-Serif" font-size="10.00">iaMutex.h</text>
</a>
</g>
</g>
<!-- Node5&#45;&gt;Node6 -->
<g id="edge6" class="edge"><title>Node5&#45;&gt;Node6</title>
<path fill="none" stroke="midnightblue" d="M187.697,-224.387C199.811,-211.326 218.9,-186.116 206,-168 177.629,-128.156 130.371,-171.844 102,-132 92.0318,-118.001 98.9182,-98.4865 106.514,-84.4994"/>
<polygon fill="midnightblue" stroke="midnightblue" points="109.566,-86.2151 111.687,-75.8348 103.555,-82.6266 109.566,-86.2151"/>
</g>
<!-- Node7 -->
<g id="node7" class="node"><title>Node7</title>
<g id="a_node7"><a xlink:href="ia_delegate_8h.html" target="_top" xlink:title="iaDelegate.h">
<polygon fill="white" stroke="black" points="126.5,-168.5 126.5,-187.5 197.5,-187.5 197.5,-168.5 126.5,-168.5"/>
<text text-anchor="middle" x="162" y="-175.5" font-family="Helvetica,sans-Serif" font-size="10.00">iaDelegate.h</text>
</a>
</g>
</g>
<!-- Node5&#45;&gt;Node7 -->
<g id="edge8" class="edge"><title>Node5&#45;&gt;Node7</title>
<path fill="none" stroke="midnightblue" d="M176.193,-224.083C173.915,-216.849 170.629,-206.409 167.792,-197.397"/>
<polygon fill="midnightblue" stroke="midnightblue" points="171.096,-196.239 164.755,-187.751 164.419,-198.341 171.096,-196.239"/>
</g>
<!-- Node5&#45;&gt;Node8 -->
<g id="edge9" class="edge"><title>Node5&#45;&gt;Node8</title>
<path fill="none" stroke="midnightblue" d="M196.513,-224.324C214.072,-215.625 241.331,-202.12 261.531,-192.113"/>
<polygon fill="midnightblue" stroke="midnightblue" points="263.124,-195.23 270.531,-187.655 260.016,-188.958 263.124,-195.23"/>
</g>
<!-- Node5&#45;&gt;Node14 -->
<g id="edge17" class="edge"><title>Node5&#45;&gt;Node14</title>
<path fill="none" stroke="midnightblue" d="M164.219,-224.324C149.733,-215.822 127.427,-202.729 110.507,-192.797"/>
<polygon fill="midnightblue" stroke="midnightblue" points="112.141,-189.698 101.745,-187.655 108.597,-195.735 112.141,-189.698"/>
</g>
<!-- Node6&#45;&gt;Node3 -->
<g id="edge7" class="edge"><title>Node6&#45;&gt;Node3</title>
<path fill="none" stroke="midnightblue" d="M118,-56.083C118,-49.0059 118,-38.8611 118,-29.9865"/>
<polygon fill="midnightblue" stroke="midnightblue" points="121.5,-29.751 118,-19.7511 114.5,-29.7511 121.5,-29.751"/>
</g>
<!-- Node9 -->
<g id="node9" class="node"><title>Node9</title>
<g id="a_node9"><a xlink:href="ia_singleton_8h.html" target="_top" xlink:title="iaSingleton.h">
<polygon fill="white" stroke="black" points="111.5,-112.5 111.5,-131.5 184.5,-131.5 184.5,-112.5 111.5,-112.5"/>
<text text-anchor="middle" x="148" y="-119.5" font-family="Helvetica,sans-Serif" font-size="10.00">iaSingleton.h</text>
</a>
</g>
</g>
<!-- Node8&#45;&gt;Node9 -->
<g id="edge10" class="edge"><title>Node8&#45;&gt;Node9</title>
<path fill="none" stroke="midnightblue" d="M265.817,-168.444C242.572,-159.478 205.851,-145.314 179.585,-135.183"/>
<polygon fill="midnightblue" stroke="midnightblue" points="180.669,-131.85 170.08,-131.516 178.15,-138.381 180.669,-131.85"/>
</g>
<!-- Node10 -->
<g id="node10" class="node"><title>Node10</title>
<g id="a_node10"><a xlink:href="ia_clock_8h.html" target="_top" xlink:title="iaClock.h">
<polygon fill="white" stroke="black" points="212.5,-56.5 212.5,-75.5 269.5,-75.5 269.5,-56.5 212.5,-56.5"/>
<text text-anchor="middle" x="241" y="-63.5" font-family="Helvetica,sans-Serif" font-size="10.00">iaClock.h</text>
</a>
</g>
</g>
<!-- Node8&#45;&gt;Node10 -->
<g id="edge12" class="edge"><title>Node8&#45;&gt;Node10</title>
<path fill="none" stroke="midnightblue" d="M284.624,-168.104C279.808,-155.523 270.595,-131.853 262,-112 258.055,-102.888 253.409,-92.8667 249.492,-84.5986"/>
<polygon fill="midnightblue" stroke="midnightblue" points="252.642,-83.0734 245.17,-75.5618 246.327,-86.0933 252.642,-83.0734"/>
</g>
<!-- Node11 -->
<g id="node11" class="node"><title>Node11</title>
<polygon fill="white" stroke="#bfbfbf" points="309.5,-112.5 309.5,-131.5 358.5,-131.5 358.5,-112.5 309.5,-112.5"/>
<text text-anchor="middle" x="334" y="-119.5" font-family="Helvetica,sans-Serif" font-size="10.00">fstream</text>
</g>
<!-- Node8&#45;&gt;Node11 -->
<g id="edge14" class="edge"><title>Node8&#45;&gt;Node11</title>
<path fill="none" stroke="midnightblue" d="M295.596,-168.083C302.227,-160.298 312.021,-148.801 320.058,-139.367"/>
<polygon fill="midnightblue" stroke="midnightblue" points="322.725,-141.633 326.545,-131.751 317.396,-137.094 322.725,-141.633"/>
</g>
<!-- Node12 -->
<g id="node12" class="node"><title>Node12</title>
<polygon fill="white" stroke="#bfbfbf" points="377,-112.5 377,-131.5 431,-131.5 431,-112.5 377,-112.5"/>
<text text-anchor="middle" x="404" y="-119.5" font-family="Helvetica,sans-Serif" font-size="10.00">iostream</text>
</g>
<!-- Node8&#45;&gt;Node12 -->
<g id="edge15" class="edge"><title>Node8&#45;&gt;Node12</title>
<path fill="none" stroke="midnightblue" d="M306.381,-168.444C325.216,-159.675 354.731,-145.935 376.379,-135.858"/>
<polygon fill="midnightblue" stroke="midnightblue" points="378.117,-138.91 385.705,-131.516 375.162,-132.564 378.117,-138.91"/>
</g>
<!-- Node13 -->
<g id="node13" class="node"><title>Node13</title>
<polygon fill="white" stroke="#bfbfbf" points="203,-112.5 203,-131.5 253,-131.5 253,-112.5 203,-112.5"/>
<text text-anchor="middle" x="228" y="-119.5" font-family="Helvetica,sans-Serif" font-size="10.00">iomanip</text>
</g>
<!-- Node8&#45;&gt;Node13 -->
<g id="edge16" class="edge"><title>Node8&#45;&gt;Node13</title>
<path fill="none" stroke="midnightblue" d="M278.36,-168.324C269.49,-160.341 256.125,-148.313 245.392,-138.653"/>
<polygon fill="midnightblue" stroke="midnightblue" points="247.59,-135.922 237.815,-131.834 242.907,-141.125 247.59,-135.922"/>
</g>
<!-- Node9&#45;&gt;Node6 -->
<g id="edge11" class="edge"><title>Node9&#45;&gt;Node6</title>
<path fill="none" stroke="midnightblue" d="M143.046,-112.083C138.896,-104.613 132.847,-93.7244 127.733,-84.5199"/>
<polygon fill="midnightblue" stroke="midnightblue" points="130.778,-82.7929 122.862,-75.7511 124.659,-86.1924 130.778,-82.7929"/>
</g>
<!-- Node10&#45;&gt;Node3 -->
<g id="edge13" class="edge"><title>Node10&#45;&gt;Node3</title>
<path fill="none" stroke="midnightblue" d="M221.51,-56.4435C201.358,-47.5961 169.677,-33.6875 146.669,-23.5865"/>
<polygon fill="midnightblue" stroke="midnightblue" points="147.962,-20.3316 137.399,-19.5164 145.148,-26.7411 147.962,-20.3316"/>
</g>
<!-- Node16&#45;&gt;Node3 -->
<g id="edge21" class="edge"><title>Node16&#45;&gt;Node3</title>
<path fill="none" stroke="midnightblue" d="M222.36,-336.373C290.722,-315.172 459,-260.405 459,-235 459,-235 459,-235 459,-121 459,-59.0066 252.286,-26.866 160.748,-15.6724"/>
<polygon fill="midnightblue" stroke="midnightblue" points="161.041,-12.1826 150.697,-14.471 160.21,-19.1331 161.041,-12.1826"/>
</g>
<!-- Node16&#45;&gt;Node4 -->
<g id="edge23" class="edge"><title>Node16&#45;&gt;Node4</title>
<path fill="none" stroke="midnightblue" d="M176.809,-336.324C159.649,-327.664 133.054,-314.242 113.253,-304.249"/>
<polygon fill="midnightblue" stroke="midnightblue" points="114.653,-301.035 104.149,-299.655 111.499,-307.285 114.653,-301.035"/>
</g>
<!-- Node16&#45;&gt;Node5 -->
<g id="edge22" class="edge"><title>Node16&#45;&gt;Node5</title>
<path fill="none" stroke="midnightblue" d="M192.823,-336.368C190.402,-318.617 184.818,-277.666 181.536,-253.597"/>
<polygon fill="midnightblue" stroke="midnightblue" points="184.991,-253.027 180.172,-243.591 178.055,-253.973 184.991,-253.027"/>
</g>
<!-- Node16&#45;&gt;Node15 -->
<g id="edge24" class="edge"><title>Node16&#45;&gt;Node15</title>
<path fill="none" stroke="midnightblue" d="M186.899,-336.083C180.763,-328.377 171.73,-317.033 164.261,-307.653"/>
<polygon fill="midnightblue" stroke="midnightblue" points="166.936,-305.394 157.968,-299.751 161.46,-309.754 166.936,-305.394"/>
</g>
</g>
</svg>
