<?xml version="1.0" encoding="UTF-8" standalone="no"?>
<!DOCTYPE svg PUBLIC "-//W3C//DTD SVG 1.1//EN"
 "http://www.w3.org/Graphics/SVG/1.1/DTD/svg11.dtd">
<!-- Generated by graphviz version 2.38.0 (20140413.2041)
 -->
<!-- Title: C:/dev/Igor/Igor/src/IgorAux/src/iaState.h Pages: 1 -->
<svg width="445pt" height="173pt"
 viewBox="0.00 0.00 445.00 173.00" xmlns="http://www.w3.org/2000/svg" xmlns:xlink="http://www.w3.org/1999/xlink">
<g id="graph0" class="graph" transform="scale(1 1) rotate(0) translate(4 169)">
<title>C:/dev/Igor/Igor/src/IgorAux/src/iaState.h</title>
<polygon fill="white" stroke="none" points="-4,4 -4,-169 441,-169 441,4 -4,4"/>
<!-- Node12 -->
<g id="node1" class="node"><title>Node12</title>
<g id="a_node1"><a xlink:title=" ">
<polygon fill="#bfbfbf" stroke="black" points="149.5,-134.5 149.5,-164.5 260.5,-164.5 260.5,-134.5 149.5,-134.5"/>
<text text-anchor="start" x="157.5" y="-152.5" font-family="Helvetica,sans-Serif" font-size="10.00">C:/dev/Igor/Igor/src</text>
<text text-anchor="middle" x="205" y="-141.5" font-family="Helvetica,sans-Serif" font-size="10.00">/IgorAux/src/iaState.h</text>
</a>
</g>
</g>
<!-- Node13 -->
<g id="node2" class="node"><title>Node13</title>
<g id="a_node2"><a xlink:href="ia_state_8cpp.html" target="_top" xlink:title=" ">
<polygon fill="white" stroke="black" points="0,-67.5 0,-97.5 122,-97.5 122,-67.5 0,-67.5"/>
<text text-anchor="start" x="8" y="-85.5" font-family="Helvetica,sans-Serif" font-size="10.00">C:/dev/Igor/Igor/src</text>
<text text-anchor="middle" x="61" y="-74.5" font-family="Helvetica,sans-Serif" font-size="10.00">/IgorAux/src/iaState.cpp</text>
</a>
</g>
</g>
<!-- Node12&#45;&gt;Node13 -->
<g id="edge1" class="edge"><title>Node12&#45;&gt;Node13</title>
<path fill="none" stroke="midnightblue" d="M164.611,-130.269C141.675,-119.916 113.4,-107.153 92.1849,-97.5765"/>
<polygon fill="midnightblue" stroke="midnightblue" points="163.2,-133.472 173.754,-134.396 166.08,-127.092 163.2,-133.472"/>
</g>
<!-- Node14 -->
<g id="node3" class="node"><title>Node14</title>
<g id="a_node3"><a xlink:href="ia_state_machine_8h.html" target="_top" xlink:title=" ">
<polygon fill="white" stroke="black" points="288,-67.5 288,-97.5 436,-97.5 436,-67.5 288,-67.5"/>
<text text-anchor="start" x="296" y="-85.5" font-family="Helvetica,sans-Serif" font-size="10.00">C:/dev/Igor/Igor/src</text>
<text text-anchor="middle" x="362" y="-74.5" font-family="Helvetica,sans-Serif" font-size="10.00">/IgorAux/src/iaStateMachine.h</text>
</a>
</g>
</g>
<!-- Node12&#45;&gt;Node14 -->
<g id="edge2" class="edge"><title>Node12&#45;&gt;Node14</title>
<path fill="none" stroke="midnightblue" d="M248.37,-130.544C273.493,-120.143 304.664,-107.238 328,-97.5765"/>
<polygon fill="midnightblue" stroke="midnightblue" points="246.967,-127.337 239.067,-134.396 249.645,-133.804 246.967,-127.337"/>
</g>
<!-- Node17 -->
<g id="node6" class="node"><title>Node17</title>
<g id="a_node6"><a xlink:href="ia_transition_8h.html" target="_top" xlink:title=" ">
<polygon fill="white" stroke="black" points="140,-67.5 140,-97.5 270,-97.5 270,-67.5 140,-67.5"/>
<text text-anchor="start" x="148" y="-85.5" font-family="Helvetica,sans-Serif" font-size="10.00">C:/dev/Igor/Igor/src</text>
<text text-anchor="middle" x="205" y="-74.5" font-family="Helvetica,sans-Serif" font-size="10.00">/IgorAux/src/iaTransition.h</text>
</a>
</g>
</g>
<!-- Node12&#45;&gt;Node17 -->
<g id="edge5" class="edge"><title>Node12&#45;&gt;Node17</title>
<path fill="none" stroke="midnightblue" d="M205,-124.108C205,-115.154 205,-105.323 205,-97.5765"/>
<polygon fill="midnightblue" stroke="midnightblue" points="201.5,-124.396 205,-134.396 208.5,-124.396 201.5,-124.396"/>
</g>
<!-- Node15 -->
<g id="node4" class="node"><title>Node15</title>
<g id="a_node4"><a xlink:href="ia_state_machine_8cpp.html" target="_top" xlink:title=" ">
<polygon fill="white" stroke="black" points="121,-0.5 121,-30.5 279,-30.5 279,-0.5 121,-0.5"/>
<text text-anchor="start" x="129" y="-18.5" font-family="Helvetica,sans-Serif" font-size="10.00">C:/dev/Igor/Igor/src</text>
<text text-anchor="middle" x="200" y="-7.5" font-family="Helvetica,sans-Serif" font-size="10.00">/IgorAux/src/iaStateMachine.cpp</text>
</a>
</g>
</g>
<!-- Node14&#45;&gt;Node15 -->
<g id="edge3" class="edge"><title>Node14&#45;&gt;Node15</title>
<path fill="none" stroke="midnightblue" d="M317.249,-63.5442C291.326,-53.143 259.162,-40.238 235.083,-30.5765"/>
<polygon fill="midnightblue" stroke="midnightblue" points="316.264,-66.9204 326.848,-67.396 318.871,-60.4238 316.264,-66.9204"/>
</g>
<!-- Node16 -->
<g id="node5" class="node"><title>Node16</title>
<g id="a_node5"><a xlink:href="ia_transition_8cpp.html" target="_top" xlink:title=" ">
<polygon fill="white" stroke="black" points="297,-0.5 297,-30.5 437,-30.5 437,-0.5 297,-0.5"/>
<text text-anchor="start" x="305" y="-18.5" font-family="Helvetica,sans-Serif" font-size="10.00">C:/dev/Igor/Igor/src</text>
<text text-anchor="middle" x="367" y="-7.5" font-family="Helvetica,sans-Serif" font-size="10.00">/IgorAux/src/iaTransition.cpp</text>
</a>
</g>
</g>
<!-- Node14&#45;&gt;Node16 -->
<g id="edge4" class="edge"><title>Node14&#45;&gt;Node16</title>
<path fill="none" stroke="midnightblue" d="M363.854,-57.4029C364.548,-48.3703 365.315,-38.4078 365.917,-30.5765"/>
<polygon fill="midnightblue" stroke="midnightblue" points="360.362,-57.157 363.085,-67.396 367.342,-57.6939 360.362,-57.157"/>
</g>
<!-- Node17&#45;&gt;Node15 -->
<g id="edge6" class="edge"><title>Node17&#45;&gt;Node15</title>
<path fill="none" stroke="midnightblue" d="M203.146,-57.4029C202.452,-48.3703 201.685,-38.4078 201.083,-30.5765"/>
<polygon fill="midnightblue" stroke="midnightblue" points="199.658,-57.6939 203.915,-67.396 206.638,-57.157 199.658,-57.6939"/>
</g>
<!-- Node17&#45;&gt;Node16 -->
<g id="edge7" class="edge"><title>Node17&#45;&gt;Node16</title>
<path fill="none" stroke="midnightblue" d="M249.751,-63.5442C275.674,-53.143 307.838,-40.238 331.917,-30.5765"/>
<polygon fill="midnightblue" stroke="midnightblue" points="248.129,-60.4238 240.152,-67.396 250.736,-66.9204 248.129,-60.4238"/>
</g>
</g>
</svg>
