<?xml version="1.0" encoding="UTF-8" standalone="no"?>
<!DOCTYPE svg PUBLIC "-//W3C//DTD SVG 1.1//EN"
 "http://www.w3.org/Graphics/SVG/1.1/DTD/svg11.dtd">
<!-- Generated by graphviz version 2.38.0 (20140413.2041)
 -->
<!-- Title: C:/dev/Igor/Igor/src/IgorAux/src/iaTransform.h Pages: 1 -->
<svg width="560pt" height="263pt"
 viewBox="0.00 0.00 560.00 263.00" xmlns="http://www.w3.org/2000/svg" xmlns:xlink="http://www.w3.org/1999/xlink">
<g id="graph0" class="graph" transform="scale(1 1) rotate(0) translate(4 259)">
<title>C:/dev/Igor/Igor/src/IgorAux/src/iaTransform.h</title>
<polygon fill="white" stroke="none" points="-4,4 -4,-259 556,-259 556,4 -4,4"/>
<!-- Node0 -->
<g id="node1" class="node"><title>Node0</title>
<g id="a_node1"><a xlink:title=" ">
<polygon fill="#bfbfbf" stroke="black" points="328.5,-224.5 328.5,-254.5 459.5,-254.5 459.5,-224.5 328.5,-224.5"/>
<text text-anchor="start" x="336.5" y="-242.5" font-family="Helvetica,sans-Serif" font-size="10.00">C:/dev/Igor/Igor/src</text>
<text text-anchor="middle" x="394" y="-231.5" font-family="Helvetica,sans-Serif" font-size="10.00">/IgorAux/src/iaTransform.h</text>
</a>
</g>
</g>
<!-- Node1 -->
<g id="node2" class="node"><title>Node1</title>
<g id="a_node2"><a xlink:href="ia_matrix_8h.html" target="_top" xlink:title=" ">
<polygon fill="white" stroke="black" points="320.5,-168.5 320.5,-187.5 379.5,-187.5 379.5,-168.5 320.5,-168.5"/>
<text text-anchor="middle" x="350" y="-175.5" font-family="Helvetica,sans-Serif" font-size="10.00">iaMatrix.h</text>
</a>
</g>
</g>
<!-- Node0&#45;&gt;Node1 -->
<g id="edge1" class="edge"><title>Node0&#45;&gt;Node1</title>
<path fill="none" stroke="midnightblue" d="M383.573,-224.399C377.245,-215.842 369.131,-204.871 362.466,-195.857"/>
<polygon fill="midnightblue" stroke="midnightblue" points="365.162,-193.617 356.402,-187.658 359.534,-197.779 365.162,-193.617"/>
</g>
<!-- Node14 -->
<g id="node15" class="node"><title>Node14</title>
<g id="a_node15"><a xlink:href="ia_transform_8inl.html" target="_top" xlink:title=" ">
<polygon fill="white" stroke="black" points="398,-168.5 398,-187.5 478,-187.5 478,-168.5 398,-168.5"/>
<text text-anchor="middle" x="438" y="-175.5" font-family="Helvetica,sans-Serif" font-size="10.00">iaTransform.inl</text>
</a>
</g>
</g>
<!-- Node0&#45;&gt;Node14 -->
<g id="edge17" class="edge"><title>Node0&#45;&gt;Node14</title>
<path fill="none" stroke="midnightblue" d="M404.427,-224.399C410.755,-215.842 418.869,-204.871 425.534,-195.857"/>
<polygon fill="midnightblue" stroke="midnightblue" points="428.466,-197.779 431.598,-187.658 422.838,-193.617 428.466,-197.779"/>
</g>
<!-- Node2 -->
<g id="node3" class="node"><title>Node2</title>
<g id="a_node3"><a xlink:href="ia_vector4_8h.html" target="_top" xlink:title=" ">
<polygon fill="white" stroke="black" points="227,-112.5 227,-131.5 293,-131.5 293,-112.5 227,-112.5"/>
<text text-anchor="middle" x="260" y="-119.5" font-family="Helvetica,sans-Serif" font-size="10.00">iaVector4.h</text>
</a>
</g>
</g>
<!-- Node1&#45;&gt;Node2 -->
<g id="edge2" class="edge"><title>Node1&#45;&gt;Node2</title>
<path fill="none" stroke="midnightblue" d="M335.54,-168.324C321.5,-159.9 299.952,-146.971 283.457,-137.074"/>
<polygon fill="midnightblue" stroke="midnightblue" points="284.8,-133.798 274.424,-131.655 281.198,-139.801 284.8,-133.798"/>
</g>
<!-- Node5 -->
<g id="node6" class="node"><title>Node5</title>
<g id="a_node6"><a xlink:title=" ">
<polygon fill="white" stroke="#bfbfbf" points="308,-0.5 308,-19.5 352,-19.5 352,-0.5 308,-0.5"/>
<text text-anchor="middle" x="330" y="-7.5" font-family="Helvetica,sans-Serif" font-size="10.00">cmath</text>
</a>
</g>
</g>
<!-- Node1&#45;&gt;Node5 -->
<g id="edge14" class="edge"><title>Node1&#45;&gt;Node5</title>
<path fill="none" stroke="midnightblue" d="M348.805,-168.379C347.561,-159.325 345.578,-144.67 344,-132 339.487,-95.7516 334.69,-53.3312 332.047,-29.571"/>
<polygon fill="midnightblue" stroke="midnightblue" points="335.513,-29.0686 330.934,-19.5146 328.556,-29.8392 335.513,-29.0686"/>
</g>
<!-- Node9 -->
<g id="node10" class="node"><title>Node9</title>
<g id="a_node10"><a xlink:href="ia_quaternion_8h.html" target="_top" xlink:title=" ">
<polygon fill="white" stroke="black" points="100,-112.5 100,-131.5 180,-131.5 180,-112.5 100,-112.5"/>
<text text-anchor="middle" x="140" y="-119.5" font-family="Helvetica,sans-Serif" font-size="10.00">iaQuaternion.h</text>
</a>
</g>
</g>
<!-- Node1&#45;&gt;Node9 -->
<g id="edge9" class="edge"><title>Node1&#45;&gt;Node9</title>
<path fill="none" stroke="midnightblue" d="M320.358,-169.378C284.532,-160.165 223.969,-144.592 183.01,-134.06"/>
<polygon fill="midnightblue" stroke="midnightblue" points="183.86,-130.664 173.303,-131.564 182.116,-137.444 183.86,-130.664"/>
</g>
<!-- Node11 -->
<g id="node12" class="node"><title>Node11</title>
<g id="a_node12"><a xlink:title=" ">
<polygon fill="white" stroke="#bfbfbf" points="352.5,-112.5 352.5,-131.5 401.5,-131.5 401.5,-112.5 352.5,-112.5"/>
<text text-anchor="middle" x="377" y="-119.5" font-family="Helvetica,sans-Serif" font-size="10.00">fstream</text>
</a>
</g>
</g>
<!-- Node1&#45;&gt;Node11 -->
<g id="edge13" class="edge"><title>Node1&#45;&gt;Node11</title>
<path fill="none" stroke="midnightblue" d="M354.459,-168.083C358.154,-160.691 363.523,-149.953 368.094,-140.811"/>
<polygon fill="midnightblue" stroke="midnightblue" points="371.283,-142.261 372.624,-131.751 365.022,-139.13 371.283,-142.261"/>
</g>
<!-- Node12 -->
<g id="node13" class="node"><title>Node12</title>
<g id="a_node13"><a xlink:title=" ">
<polygon fill="white" stroke="#bfbfbf" points="420,-112.5 420,-131.5 470,-131.5 470,-112.5 420,-112.5"/>
<text text-anchor="middle" x="445" y="-119.5" font-family="Helvetica,sans-Serif" font-size="10.00">iomanip</text>
</a>
</g>
</g>
<!-- Node1&#45;&gt;Node12 -->
<g id="edge15" class="edge"><title>Node1&#45;&gt;Node12</title>
<path fill="none" stroke="midnightblue" d="M365.263,-168.324C380.221,-159.822 403.255,-146.729 420.727,-136.797"/>
<polygon fill="midnightblue" stroke="midnightblue" points="422.81,-139.639 429.774,-131.655 419.351,-133.553 422.81,-139.639"/>
</g>
<!-- Node13 -->
<g id="node14" class="node"><title>Node13</title>
<g id="a_node14"><a xlink:href="ia_matrix_8inl.html" target="_top" xlink:title=" ">
<polygon fill="white" stroke="black" points="488,-112.5 488,-131.5 552,-131.5 552,-112.5 488,-112.5"/>
<text text-anchor="middle" x="520" y="-119.5" font-family="Helvetica,sans-Serif" font-size="10.00">iaMatrix.inl</text>
</a>
</g>
</g>
<!-- Node1&#45;&gt;Node13 -->
<g id="edge16" class="edge"><title>Node1&#45;&gt;Node13</title>
<path fill="none" stroke="midnightblue" d="M376.937,-168.444C405.66,-159.32 451.329,-144.813 483.321,-134.651"/>
<polygon fill="midnightblue" stroke="midnightblue" points="484.718,-137.88 493.189,-131.516 482.599,-131.208 484.718,-137.88"/>
</g>
<!-- Node3 -->
<g id="node4" class="node"><title>Node3</title>
<g id="a_node4"><a xlink:href="ia_vector3_8h.html" target="_top" xlink:title=" ">
<polygon fill="white" stroke="black" points="140,-56.5 140,-75.5 206,-75.5 206,-56.5 140,-56.5"/>
<text text-anchor="middle" x="173" y="-63.5" font-family="Helvetica,sans-Serif" font-size="10.00">iaVector3.h</text>
</a>
</g>
</g>
<!-- Node2&#45;&gt;Node3 -->
<g id="edge3" class="edge"><title>Node2&#45;&gt;Node3</title>
<path fill="none" stroke="midnightblue" d="M246.022,-112.324C232.45,-103.9 211.62,-90.9709 195.675,-81.0741"/>
<polygon fill="midnightblue" stroke="midnightblue" points="197.286,-77.9544 186.943,-75.6545 193.594,-83.9019 197.286,-77.9544"/>
</g>
<!-- Node8 -->
<g id="node9" class="node"><title>Node8</title>
<g id="a_node9"><a xlink:href="ia_vector4_8inl.html" target="_top" xlink:title=" ">
<polygon fill="white" stroke="black" points="224.5,-56.5 224.5,-75.5 295.5,-75.5 295.5,-56.5 224.5,-56.5"/>
<text text-anchor="middle" x="260" y="-63.5" font-family="Helvetica,sans-Serif" font-size="10.00">iaVector4.inl</text>
</a>
</g>
</g>
<!-- Node2&#45;&gt;Node8 -->
<g id="edge8" class="edge"><title>Node2&#45;&gt;Node8</title>
<path fill="none" stroke="midnightblue" d="M260,-112.083C260,-105.006 260,-94.8611 260,-85.9865"/>
<polygon fill="midnightblue" stroke="midnightblue" points="263.5,-85.751 260,-75.7511 256.5,-85.7511 263.5,-85.751"/>
</g>
<!-- Node4 -->
<g id="node5" class="node"><title>Node4</title>
<g id="a_node5"><a xlink:href="ia_defines_8h.html" target="_top" xlink:title=" ">
<polygon fill="white" stroke="black" points="135.5,-0.5 135.5,-19.5 200.5,-19.5 200.5,-0.5 135.5,-0.5"/>
<text text-anchor="middle" x="168" y="-7.5" font-family="Helvetica,sans-Serif" font-size="10.00">iaDefines.h</text>
</a>
</g>
</g>
<!-- Node3&#45;&gt;Node4 -->
<g id="edge4" class="edge"><title>Node3&#45;&gt;Node4</title>
<path fill="none" stroke="midnightblue" d="M172.174,-56.083C171.519,-49.0059 170.58,-38.8611 169.758,-29.9865"/>
<polygon fill="midnightblue" stroke="midnightblue" points="173.217,-29.3858 168.81,-19.7511 166.247,-30.0312 173.217,-29.3858"/>
</g>
<!-- Node3&#45;&gt;Node5 -->
<g id="edge5" class="edge"><title>Node3&#45;&gt;Node5</title>
<path fill="none" stroke="midnightblue" d="M197.877,-56.4435C225.066,-47.0919 268.695,-32.0859 298.314,-21.8984"/>
<polygon fill="midnightblue" stroke="midnightblue" points="299.46,-25.2056 307.778,-18.6433 297.183,-18.5862 299.46,-25.2056"/>
</g>
<!-- Node6 -->
<g id="node7" class="node"><title>Node6</title>
<g id="a_node7"><a xlink:title=" ">
<polygon fill="white" stroke="#bfbfbf" points="65,-0.5 65,-19.5 117,-19.5 117,-0.5 65,-0.5"/>
<text text-anchor="middle" x="91" y="-7.5" font-family="Helvetica,sans-Serif" font-size="10.00">ostream</text>
</a>
</g>
</g>
<!-- Node3&#45;&gt;Node6 -->
<g id="edge6" class="edge"><title>Node3&#45;&gt;Node6</title>
<path fill="none" stroke="midnightblue" d="M159.825,-56.324C147.153,-47.979 127.767,-35.2122 112.794,-25.3524"/>
<polygon fill="midnightblue" stroke="midnightblue" points="114.419,-22.2313 104.142,-19.6545 110.569,-28.0776 114.419,-22.2313"/>
</g>
<!-- Node7 -->
<g id="node8" class="node"><title>Node7</title>
<g id="a_node8"><a xlink:href="ia_vector3_8inl.html" target="_top" xlink:title=" ">
<polygon fill="white" stroke="black" points="218.5,-0.5 218.5,-19.5 289.5,-19.5 289.5,-0.5 218.5,-0.5"/>
<text text-anchor="middle" x="254" y="-7.5" font-family="Helvetica,sans-Serif" font-size="10.00">iaVector3.inl</text>
</a>
</g>
</g>
<!-- Node3&#45;&gt;Node7 -->
<g id="edge7" class="edge"><title>Node3&#45;&gt;Node7</title>
<path fill="none" stroke="midnightblue" d="M186.014,-56.324C198.532,-47.979 217.682,-35.2122 232.471,-25.3524"/>
<polygon fill="midnightblue" stroke="midnightblue" points="234.639,-28.1137 241.018,-19.6545 230.756,-22.2894 234.639,-28.1137"/>
</g>
<!-- Node9&#45;&gt;Node3 -->
<g id="edge10" class="edge"><title>Node9&#45;&gt;Node3</title>
<path fill="none" stroke="midnightblue" d="M145.449,-112.083C150.014,-104.613 156.668,-93.7244 162.293,-84.5199"/>
<polygon fill="midnightblue" stroke="midnightblue" points="165.424,-86.109 167.652,-75.7511 159.451,-82.4588 165.424,-86.109"/>
</g>
<!-- Node9&#45;&gt;Node6 -->
<g id="edge11" class="edge"><title>Node9&#45;&gt;Node6</title>
<path fill="none" stroke="midnightblue" d="M136.155,-112.368C128.176,-94.4563 109.675,-52.9233 98.9951,-28.9482"/>
<polygon fill="midnightblue" stroke="midnightblue" points="102.093,-27.3019 94.8271,-19.5914 95.6991,-30.1503 102.093,-27.3019"/>
</g>
<!-- Node10 -->
<g id="node11" class="node"><title>Node10</title>
<g id="a_node11"><a xlink:href="ia_quaternion_8inl.html" target="_top" xlink:title=" ">
<polygon fill="white" stroke="black" points="0,-56.5 0,-75.5 84,-75.5 84,-56.5 0,-56.5"/>
<text text-anchor="middle" x="42" y="-63.5" font-family="Helvetica,sans-Serif" font-size="10.00">iaQuaternion.inl</text>
</a>
</g>
</g>
<!-- Node9&#45;&gt;Node10 -->
<g id="edge12" class="edge"><title>Node9&#45;&gt;Node10</title>
<path fill="none" stroke="midnightblue" d="M124.255,-112.324C108.681,-103.743 84.6227,-90.486 66.5407,-80.5224"/>
<polygon fill="midnightblue" stroke="midnightblue" points="68.1539,-77.4152 57.7063,-75.6545 64.7756,-83.546 68.1539,-77.4152"/>
</g>
</g>
</svg>
