<?xml version="1.0" encoding="UTF-8" standalone="no"?>
<!DOCTYPE svg PUBLIC "-//W3C//DTD SVG 1.1//EN"
 "http://www.w3.org/Graphics/SVG/1.1/DTD/svg11.dtd">
<!-- Generated by graphviz version 2.38.0 (20140413.2041)
 -->
<!-- Title: Graphical Class Hierarchy Pages: 1 -->
<svg width="522pt" height="332pt"
 viewBox="0.00 0.00 522.00 332.00" xmlns="http://www.w3.org/2000/svg" xmlns:xlink="http://www.w3.org/1999/xlink">
<g id="graph0" class="graph" transform="scale(1 1) rotate(0) translate(4 328)">
<title>Graphical Class Hierarchy</title>
<polygon fill="white" stroke="none" points="-4,4 -4,-328 518,-328 518,4 -4,4"/>
<!-- Node0 -->
<g id="node1" class="node"><title>Node0</title>
<g id="a_node1"><a xlink:href="class_igor_1_1i_node.html" target="_top" xlink:title=" ">
<polygon fill="white" stroke="black" points="0,-152.5 0,-171.5 63,-171.5 63,-152.5 0,-152.5"/>
<text text-anchor="middle" x="31.5" y="-159.5" font-family="Helvetica,sans-Serif" font-size="10.00">Igor::iNode</text>
</a>
</g>
</g>
<!-- Node1 -->
<g id="node2" class="node"><title>Node1</title>
<g id="a_node2"><a xlink:href="class_igor_1_1i_node_camera.html" target="_top" xlink:title=" ">
<polygon fill="white" stroke="black" points="106.5,-304.5 106.5,-323.5 203.5,-323.5 203.5,-304.5 106.5,-304.5"/>
<text text-anchor="middle" x="155" y="-311.5" font-family="Helvetica,sans-Serif" font-size="10.00">Igor::iNodeCamera</text>
</a>
</g>
</g>
<!-- Node0&#45;&gt;Node1 -->
<g id="edge1" class="edge"><title>Node0&#45;&gt;Node1</title>
<path fill="none" stroke="midnightblue" d="M37.2355,-181.636C45.1763,-210.477 63.8718,-264.197 99,-295 103.406,-298.863 108.638,-301.951 114.097,-304.417"/>
<polygon fill="midnightblue" stroke="midnightblue" points="40.5256,-180.38 34.6285,-171.578 33.7495,-182.136 40.5256,-180.38"/>
</g>
<!-- Node2 -->
<g id="node3" class="node"><title>Node2</title>
<g id="a_node3"><a xlink:href="class_igor_1_1i_node_emitter.html" target="_top" xlink:title=" ">
<polygon fill="white" stroke="black" points="107.5,-266.5 107.5,-285.5 202.5,-285.5 202.5,-266.5 107.5,-266.5"/>
<text text-anchor="middle" x="155" y="-273.5" font-family="Helvetica,sans-Serif" font-size="10.00">Igor::iNodeEmitter</text>
</a>
</g>
</g>
<!-- Node0&#45;&gt;Node2 -->
<g id="edge2" class="edge"><title>Node0&#45;&gt;Node2</title>
<path fill="none" stroke="midnightblue" d="M41.0353,-180.609C51.7166,-201.943 71.9453,-236.589 99,-257 104.081,-260.833 109.992,-263.93 116.017,-266.422"/>
<polygon fill="midnightblue" stroke="midnightblue" points="44.1816,-179.075 36.6897,-171.584 37.8747,-182.112 44.1816,-179.075"/>
</g>
<!-- Node3 -->
<g id="node4" class="node"><title>Node3</title>
<g id="a_node4"><a xlink:href="class_igor_1_1i_node_light.html" target="_top" xlink:title=" ">
<polygon fill="white" stroke="black" points="113,-228.5 113,-247.5 197,-247.5 197,-228.5 113,-228.5"/>
<text text-anchor="middle" x="155" y="-235.5" font-family="Helvetica,sans-Serif" font-size="10.00">Igor::iNodeLight</text>
</a>
</g>
</g>
<!-- Node0&#45;&gt;Node3 -->
<g id="edge3" class="edge"><title>Node0&#45;&gt;Node3</title>
<path fill="none" stroke="midnightblue" d="M48.6158,-178.905C61.3137,-191.413 79.9923,-208.101 99,-219 105.485,-222.719 112.817,-225.875 119.964,-228.483"/>
<polygon fill="midnightblue" stroke="midnightblue" points="51.0545,-176.394 41.5329,-171.747 46.0786,-181.317 51.0545,-176.394"/>
</g>
<!-- Node4 -->
<g id="node5" class="node"><title>Node4</title>
<g id="a_node5"><a xlink:href="class_igor_1_1i_node_l_o_d_switch.html" target="_top" xlink:title=" ">
<polygon fill="white" stroke="black" points="99,-190.5 99,-209.5 211,-209.5 211,-190.5 99,-190.5"/>
<text text-anchor="middle" x="155" y="-197.5" font-family="Helvetica,sans-Serif" font-size="10.00">Igor::iNodeLODSwitch</text>
</a>
</g>
</g>
<!-- Node0&#45;&gt;Node4 -->
<g id="edge4" class="edge"><title>Node0&#45;&gt;Node4</title>
<path fill="none" stroke="midnightblue" d="M73.044,-174.68C89.4606,-179.815 108.099,-185.644 123.35,-190.414"/>
<polygon fill="midnightblue" stroke="midnightblue" points="73.7485,-171.234 63.1596,-171.589 71.6589,-177.914 73.7485,-171.234"/>
</g>
<!-- Node5 -->
<g id="node6" class="node"><title>Node5</title>
<g id="a_node6"><a xlink:href="class_igor_1_1i_node_l_o_d_trigger.html" target="_top" xlink:title=" ">
<polygon fill="white" stroke="black" points="99,-152.5 99,-171.5 211,-171.5 211,-152.5 99,-152.5"/>
<text text-anchor="middle" x="155" y="-159.5" font-family="Helvetica,sans-Serif" font-size="10.00">Igor::iNodeLODTrigger</text>
</a>
</g>
</g>
<!-- Node0&#45;&gt;Node5 -->
<g id="edge5" class="edge"><title>Node0&#45;&gt;Node5</title>
<path fill="none" stroke="midnightblue" d="M73.2001,-162C81.4001,-162 90.1489,-162 98.7495,-162"/>
<polygon fill="midnightblue" stroke="midnightblue" points="73.1596,-158.5 63.1596,-162 73.1595,-165.5 73.1596,-158.5"/>
</g>
<!-- Node6 -->
<g id="node7" class="node"><title>Node6</title>
<g id="a_node7"><a xlink:href="class_igor_1_1i_node_model.html" target="_top" xlink:title=" ">
<polygon fill="white" stroke="black" points="110.5,-114.5 110.5,-133.5 199.5,-133.5 199.5,-114.5 110.5,-114.5"/>
<text text-anchor="middle" x="155" y="-121.5" font-family="Helvetica,sans-Serif" font-size="10.00">Igor::iNodeModel</text>
</a>
</g>
</g>
<!-- Node0&#45;&gt;Node6 -->
<g id="edge6" class="edge"><title>Node0&#45;&gt;Node6</title>
<path fill="none" stroke="midnightblue" d="M73.044,-149.32C89.4606,-144.185 108.099,-138.356 123.35,-133.586"/>
<polygon fill="midnightblue" stroke="midnightblue" points="71.6589,-146.086 63.1596,-152.411 73.7485,-152.766 71.6589,-146.086"/>
</g>
<!-- Node7 -->
<g id="node8" class="node"><title>Node7</title>
<g id="a_node8"><a xlink:href="class_igor_1_1i_node_render.html" target="_top" xlink:title=" ">
<polygon fill="white" stroke="black" points="108,-76.5 108,-95.5 202,-95.5 202,-76.5 108,-76.5"/>
<text text-anchor="middle" x="155" y="-83.5" font-family="Helvetica,sans-Serif" font-size="10.00">Igor::iNodeRender</text>
</a>
</g>
</g>
<!-- Node0&#45;&gt;Node7 -->
<g id="edge7" class="edge"><title>Node0&#45;&gt;Node7</title>
<path fill="none" stroke="midnightblue" d="M48.6158,-145.095C61.3137,-132.587 79.9923,-115.899 99,-105 105.485,-101.281 112.817,-98.1251 119.964,-95.5166"/>
<polygon fill="midnightblue" stroke="midnightblue" points="46.0786,-142.683 41.5329,-152.253 51.0545,-147.606 46.0786,-142.683"/>
</g>
<!-- Node14 -->
<g id="node15" class="node"><title>Node14</title>
<g id="a_node15"><a xlink:href="class_igor_1_1i_node_switch.html" target="_top" xlink:title=" ">
<polygon fill="white" stroke="black" points="109,-38.5 109,-57.5 201,-57.5 201,-38.5 109,-38.5"/>
<text text-anchor="middle" x="155" y="-45.5" font-family="Helvetica,sans-Serif" font-size="10.00">Igor::iNodeSwitch</text>
</a>
</g>
</g>
<!-- Node0&#45;&gt;Node14 -->
<g id="edge14" class="edge"><title>Node0&#45;&gt;Node14</title>
<path fill="none" stroke="midnightblue" d="M41.0353,-143.391C51.7166,-122.057 71.9453,-87.4115 99,-67 104.081,-63.1669 109.992,-60.0697 116.017,-57.5783"/>
<polygon fill="midnightblue" stroke="midnightblue" points="37.8747,-141.888 36.6897,-152.416 44.1816,-144.925 37.8747,-141.888"/>
</g>
<!-- Node15 -->
<g id="node16" class="node"><title>Node15</title>
<g id="a_node16"><a xlink:href="class_igor_1_1i_node_transform.html" target="_top" xlink:title=" ">
<polygon fill="white" stroke="black" points="102,-0.5 102,-19.5 208,-19.5 208,-0.5 102,-0.5"/>
<text text-anchor="middle" x="155" y="-7.5" font-family="Helvetica,sans-Serif" font-size="10.00">Igor::iNodeTransform</text>
</a>
</g>
</g>
<!-- Node0&#45;&gt;Node15 -->
<g id="edge15" class="edge"><title>Node0&#45;&gt;Node15</title>
<path fill="none" stroke="midnightblue" d="M37.2355,-142.364C45.1763,-113.523 63.8718,-59.8026 99,-29 103.406,-25.1369 108.638,-22.0491 114.097,-19.5834"/>
<polygon fill="midnightblue" stroke="midnightblue" points="33.7495,-141.864 34.6285,-152.422 40.5256,-143.62 33.7495,-141.864"/>
</g>
<!-- Node8 -->
<g id="node9" class="node"><title>Node8</title>
<g id="a_node9"><a xlink:href="class_igor_1_1i_celestial_node.html" target="_top" xlink:title=" ">
<polygon fill="white" stroke="black" points="247,-152.5 247,-171.5 348,-171.5 348,-152.5 247,-152.5"/>
<text text-anchor="middle" x="297.5" y="-159.5" font-family="Helvetica,sans-Serif" font-size="10.00">Igor::iCelestialNode</text>
</a>
</g>
</g>
<!-- Node7&#45;&gt;Node8 -->
<g id="edge8" class="edge"><title>Node7&#45;&gt;Node8</title>
<path fill="none" stroke="midnightblue" d="M201.085,-99.5245C204.538,-101.173 207.887,-102.994 211,-105 230.555,-117.604 227.662,-130.067 247,-143 252.586,-146.736 259.011,-149.886 265.343,-152.48"/>
<polygon fill="midnightblue" stroke="midnightblue" points="202.36,-96.2632 191.788,-95.5582 199.613,-102.702 202.36,-96.2632"/>
</g>
<!-- Node9 -->
<g id="node10" class="node"><title>Node9</title>
<g id="a_node10"><a xlink:href="class_igor_1_1i_node_sky_box.html" target="_top" xlink:title=" ">
<polygon fill="white" stroke="black" points="248.5,-114.5 248.5,-133.5 346.5,-133.5 346.5,-114.5 248.5,-114.5"/>
<text text-anchor="middle" x="297.5" y="-121.5" font-family="Helvetica,sans-Serif" font-size="10.00">Igor::iNodeSkyBox</text>
</a>
</g>
</g>
<!-- Node7&#45;&gt;Node9 -->
<g id="edge9" class="edge"><title>Node7&#45;&gt;Node9</title>
<path fill="none" stroke="midnightblue" d="M201.279,-98.2462C220.645,-103.484 242.922,-109.509 261.057,-114.414"/>
<polygon fill="midnightblue" stroke="midnightblue" points="202.021,-94.8213 191.454,-95.589 200.193,-101.579 202.021,-94.8213"/>
</g>
<!-- Node10 -->
<g id="node11" class="node"><title>Node10</title>
<g id="a_node11"><a xlink:href="class_igor_1_1i_node_volume.html" target="_top" xlink:title=" ">
<polygon fill="white" stroke="black" points="249.5,-76.5 249.5,-95.5 345.5,-95.5 345.5,-76.5 249.5,-76.5"/>
<text text-anchor="middle" x="297.5" y="-83.5" font-family="Helvetica,sans-Serif" font-size="10.00">Igor::iNodeVolume</text>
</a>
</g>
</g>
<!-- Node7&#45;&gt;Node10 -->
<g id="edge10" class="edge"><title>Node7&#45;&gt;Node10</title>
<path fill="none" stroke="midnightblue" d="M212.196,-86C224.54,-86 237.488,-86 249.429,-86"/>
<polygon fill="midnightblue" stroke="midnightblue" points="212.005,-82.5001 202.005,-86 212.005,-89.5001 212.005,-82.5001"/>
</g>
<!-- Node12 -->
<g id="node13" class="node"><title>Node12</title>
<g id="a_node13"><a xlink:href="class_igor_1_1i_node_water.html" target="_top" xlink:title=" ">
<polygon fill="white" stroke="black" points="253,-38.5 253,-57.5 342,-57.5 342,-38.5 253,-38.5"/>
<text text-anchor="middle" x="297.5" y="-45.5" font-family="Helvetica,sans-Serif" font-size="10.00">Igor::iNodeWater</text>
</a>
</g>
</g>
<!-- Node7&#45;&gt;Node12 -->
<g id="edge12" class="edge"><title>Node7&#45;&gt;Node12</title>
<path fill="none" stroke="midnightblue" d="M201.279,-73.7538C220.645,-68.516 242.922,-62.4909 261.057,-57.5859"/>
<polygon fill="midnightblue" stroke="midnightblue" points="200.193,-70.4215 191.454,-76.411 202.021,-77.1787 200.193,-70.4215"/>
</g>
<!-- Node13 -->
<g id="node14" class="node"><title>Node13</title>
<g id="a_node14"><a xlink:href="class_igor_1_1i_sky_light_node.html" target="_top" xlink:title=" ">
<polygon fill="white" stroke="black" points="247,-0.5 247,-19.5 348,-19.5 348,-0.5 247,-0.5"/>
<text text-anchor="middle" x="297.5" y="-7.5" font-family="Helvetica,sans-Serif" font-size="10.00">Igor::iSkyLightNode</text>
</a>
</g>
</g>
<!-- Node7&#45;&gt;Node13 -->
<g id="edge13" class="edge"><title>Node7&#45;&gt;Node13</title>
<path fill="none" stroke="midnightblue" d="M201.085,-72.4755C204.538,-70.8274 207.887,-69.0062 211,-67 230.555,-54.3965 227.662,-41.9329 247,-29 252.586,-25.2644 259.011,-22.1144 265.343,-19.5196"/>
<polygon fill="midnightblue" stroke="midnightblue" points="199.613,-69.2983 191.788,-76.4418 202.36,-75.7368 199.613,-69.2983"/>
</g>
<!-- Node11 -->
<g id="node12" class="node"><title>Node11</title>
<g id="a_node12"><a xlink:href="class_igor_1_1i_node_particle_system.html" target="_top" xlink:title=" ">
<polygon fill="white" stroke="black" points="384,-76.5 384,-95.5 514,-95.5 514,-76.5 384,-76.5"/>
<text text-anchor="middle" x="449" y="-83.5" font-family="Helvetica,sans-Serif" font-size="10.00">Igor::iNodeParticleSystem</text>
</a>
</g>
</g>
<!-- Node10&#45;&gt;Node11 -->
<g id="edge11" class="edge"><title>Node10&#45;&gt;Node11</title>
<path fill="none" stroke="midnightblue" d="M355.914,-86C365.035,-86 374.52,-86 383.785,-86"/>
<polygon fill="midnightblue" stroke="midnightblue" points="355.803,-82.5001 345.803,-86 355.803,-89.5001 355.803,-82.5001"/>
</g>
</g>
</svg>
