<?xml version="1.0" encoding="UTF-8" standalone="no"?>
<!DOCTYPE svg PUBLIC "-//W3C//DTD SVG 1.1//EN"
 "http://www.w3.org/Graphics/SVG/1.1/DTD/svg11.dtd">
<!-- Generated by graphviz version 2.38.0 (20140413.2041)
 -->
<!-- Title: Graphical Class Hierarchy Pages: 1 -->
<svg width="334pt" height="110pt"
 viewBox="0.00 0.00 334.00 110.00" xmlns="http://www.w3.org/2000/svg" xmlns:xlink="http://www.w3.org/1999/xlink">
<g id="graph0" class="graph" transform="scale(1 1) rotate(0) translate(4 106)">
<title>Graphical Class Hierarchy</title>
<polygon fill="white" stroke="none" points="-4,4 -4,-106 330,-106 330,4 -4,4"/>
<!-- Node0 -->
<g id="node1" class="node"><title>Node0</title>
<g id="a_node1"><a xlink:href="classtesting_1_1internal_1_1_param_iterator_interface.html" target="_top" xlink:title=" ">
<polygon fill="white" stroke="black" points="0,-36 0,-66 135,-66 135,-36 0,-36"/>
<text text-anchor="start" x="8" y="-54" font-family="Helvetica,sans-Serif" font-size="10.00">testing::internal::</text>
<text text-anchor="middle" x="67.5" y="-43" font-family="Helvetica,sans-Serif" font-size="10.00">ParamIteratorInterface&lt; T &gt;</text>
</a>
</g>
</g>
<!-- Node1 -->
<g id="node2" class="node"><title>Node1</title>
<g id="a_node2"><a xlink:href="classtesting_1_1internal_1_1_range_generator_1_1_iterator.html" target="_top" xlink:title=" ">
<polygon fill="white" stroke="black" points="173.5,-60.5 173.5,-101.5 323.5,-101.5 323.5,-60.5 173.5,-60.5"/>
<text text-anchor="start" x="181.5" y="-89.5" font-family="Helvetica,sans-Serif" font-size="10.00">testing::internal::</text>
<text text-anchor="start" x="181.5" y="-78.5" font-family="Helvetica,sans-Serif" font-size="10.00">RangeGenerator&lt; T, Increment</text>
<text text-anchor="middle" x="248.5" y="-67.5" font-family="Helvetica,sans-Serif" font-size="10.00">T &gt;::Iterator</text>
</a>
</g>
</g>
<!-- Node0&#45;&gt;Node1 -->
<g id="edge1" class="edge"><title>Node0&#45;&gt;Node1</title>
<path fill="none" stroke="midnightblue" d="M145.168,-63.8493C154.484,-65.4106 163.989,-67.0037 173.268,-68.5589"/>
<polygon fill="midnightblue" stroke="midnightblue" points="145.594,-60.372 135.153,-62.1709 144.437,-67.2758 145.594,-60.372"/>
</g>
<!-- Node2 -->
<g id="node3" class="node"><title>Node2</title>
<g id="a_node3"><a xlink:href="classtesting_1_1internal_1_1_values_in_iterator_range_generator_1_1_iterator.html" target="_top" xlink:title=" ">
<polygon fill="white" stroke="black" points="171,-0.5 171,-41.5 326,-41.5 326,-0.5 171,-0.5"/>
<text text-anchor="start" x="179" y="-29.5" font-family="Helvetica,sans-Serif" font-size="10.00">testing::internal::</text>
<text text-anchor="start" x="179" y="-18.5" font-family="Helvetica,sans-Serif" font-size="10.00">ValuesInIteratorRangeGenerator</text>
<text text-anchor="middle" x="248.5" y="-7.5" font-family="Helvetica,sans-Serif" font-size="10.00">&lt; T &gt;::Iterator</text>
</a>
</g>
</g>
<!-- Node0&#45;&gt;Node2 -->
<g id="edge2" class="edge"><title>Node0&#45;&gt;Node2</title>
<path fill="none" stroke="midnightblue" d="M145.077,-38.1658C153.61,-36.7357 162.303,-35.2788 170.837,-33.8485"/>
<polygon fill="midnightblue" stroke="midnightblue" points="144.437,-34.7242 135.153,-39.8291 145.594,-41.628 144.437,-34.7242"/>
</g>
</g>
</svg>
