<?xml version="1.0" encoding="UTF-8" standalone="no"?>
<!DOCTYPE svg PUBLIC "-//W3C//DTD SVG 1.1//EN"
 "http://www.w3.org/Graphics/SVG/1.1/DTD/svg11.dtd">
<!-- Generated by graphviz version 2.38.0 (20140413.2041)
 -->
<!-- Title: Igor::iMeshBuilderUtils::addSphere Pages: 1 -->
<svg width="650pt" height="88pt"
 viewBox="0.00 0.00 650.00 88.00" xmlns="http://www.w3.org/2000/svg" xmlns:xlink="http://www.w3.org/1999/xlink">
<g id="graph0" class="graph" transform="scale(1 1) rotate(0) translate(4 84)">
<title>Igor::iMeshBuilderUtils::addSphere</title>
<polygon fill="white" stroke="none" points="-4,4 -4,-84 646,-84 646,4 -4,4"/>
<!-- Node1 -->
<g id="node1" class="node"><title>Node1</title>
<polygon fill="#bfbfbf" stroke="black" points="0,-24.5 0,-54.5 114,-54.5 114,-24.5 0,-24.5"/>
<text text-anchor="start" x="8" y="-42.5" font-family="Helvetica,sans-Serif" font-size="10.00">Igor::iMeshBuilderUtils</text>
<text text-anchor="middle" x="57" y="-31.5" font-family="Helvetica,sans-Serif" font-size="10.00">::addSphere</text>
</g>
<!-- Node2 -->
<g id="node2" class="node"><title>Node2</title>
<g id="a_node2"><a xlink:href="class_widget3_d_emitter.html#af8b8367827875877fe19b75e0edffe23" target="_top" xlink:title="Widget3DEmitter::createSphere">
<polygon fill="white" stroke="black" points="150,-30 150,-49 305,-49 305,-30 150,-30"/>
<text text-anchor="middle" x="227.5" y="-37" font-family="Helvetica,sans-Serif" font-size="10.00">Widget3DEmitter::createSphere</text>
</a>
</g>
</g>
<!-- Node1&#45;&gt;Node2 -->
<g id="edge1" class="edge"><title>Node1&#45;&gt;Node2</title>
<path fill="none" stroke="midnightblue" d="M124.244,-39.5C132.676,-39.5 141.361,-39.5 149.938,-39.5"/>
<polygon fill="midnightblue" stroke="midnightblue" points="124.108,-36.0001 114.108,-39.5 124.108,-43.0001 124.108,-36.0001"/>
</g>
<!-- Node3 -->
<g id="node3" class="node"><title>Node3</title>
<g id="a_node3"><a xlink:href="class_widget3_d_emitter.html#ada67ed081bc12f2a99fb26918efe24e8" target="_top" xlink:title="Widget3DEmitter::update">
<polygon fill="white" stroke="black" points="341,-30 341,-49 467,-49 467,-30 341,-30"/>
<text text-anchor="middle" x="404" y="-37" font-family="Helvetica,sans-Serif" font-size="10.00">Widget3DEmitter::update</text>
</a>
</g>
</g>
<!-- Node2&#45;&gt;Node3 -->
<g id="edge2" class="edge"><title>Node2&#45;&gt;Node3</title>
<path fill="none" stroke="midnightblue" d="M315.205,-39.5C323.885,-39.5 332.573,-39.5 340.924,-39.5"/>
<polygon fill="midnightblue" stroke="midnightblue" points="315.038,-36.0001 305.038,-39.5 315.038,-43.0001 315.038,-36.0001"/>
</g>
<!-- Node4 -->
<g id="node4" class="node"><title>Node4</title>
<g id="a_node4"><a xlink:href="class_widget3_d_emitter.html#a363f3a0acfbb9f55c5bfd54c326f2935" target="_top" xlink:title="Widget3DEmitter::Widget3\lDEmitter">
<polygon fill="white" stroke="black" points="506,-49.5 506,-79.5 639,-79.5 639,-49.5 506,-49.5"/>
<text text-anchor="start" x="514" y="-67.5" font-family="Helvetica,sans-Serif" font-size="10.00">Widget3DEmitter::Widget3</text>
<text text-anchor="middle" x="572.5" y="-56.5" font-family="Helvetica,sans-Serif" font-size="10.00">DEmitter</text>
</a>
</g>
</g>
<!-- Node3&#45;&gt;Node4 -->
<g id="edge3" class="edge"><title>Node3&#45;&gt;Node4</title>
<path fill="none" stroke="midnightblue" d="M477.592,-50.3996C487.006,-51.8132 496.605,-53.2545 505.896,-54.6496"/>
<polygon fill="midnightblue" stroke="midnightblue" points="477.881,-46.9039 467.472,-48.8802 476.842,-53.8263 477.881,-46.9039"/>
</g>
<!-- Node5 -->
<g id="node5" class="node"><title>Node5</title>
<g id="a_node5"><a xlink:href="class_widget3_d_emitter.html#a87ddec2cb5f9e7c5c7f40a84deb63e26" target="_top" xlink:title="Widget3DEmitter::~Widget3\lDEmitter">
<polygon fill="white" stroke="black" points="503,-0.5 503,-30.5 642,-30.5 642,-0.5 503,-0.5"/>
<text text-anchor="start" x="511" y="-18.5" font-family="Helvetica,sans-Serif" font-size="10.00">Widget3DEmitter::~Widget3</text>
<text text-anchor="middle" x="572.5" y="-7.5" font-family="Helvetica,sans-Serif" font-size="10.00">DEmitter</text>
</a>
</g>
</g>
<!-- Node3&#45;&gt;Node5 -->
<g id="edge4" class="edge"><title>Node3&#45;&gt;Node5</title>
<path fill="none" stroke="midnightblue" d="M477.594,-29.036C485.97,-27.8286 494.493,-26.6001 502.816,-25.4004"/>
<polygon fill="midnightblue" stroke="midnightblue" points="476.87,-25.604 467.472,-30.495 477.869,-32.5324 476.87,-25.604"/>
</g>
</g>
</svg>
