<?xml version="1.0" encoding="UTF-8" standalone="no"?>
<!DOCTYPE svg PUBLIC "-//W3C//DTD SVG 1.1//EN"
 "http://www.w3.org/Graphics/SVG/1.1/DTD/svg11.dtd">
<!-- Generated by graphviz version 2.38.0 (20140413.2041)
 -->
<!-- Title: testing::internal::CmpHelperEQFailure Pages: 1 -->
<svg width="241pt" height="39pt"
 viewBox="0.00 0.00 241.00 39.00" xmlns="http://www.w3.org/2000/svg" xmlns:xlink="http://www.w3.org/1999/xlink">
<g id="graph0" class="graph" transform="scale(1 1) rotate(0) translate(4 35)">
<title>testing::internal::CmpHelperEQFailure</title>
<polygon fill="white" stroke="none" points="-4,4 -4,-35 237,-35 237,4 -4,4"/>
<!-- Node59 -->
<g id="node1" class="node"><title>Node59</title>
<g id="a_node1"><a xlink:title=" ">
<polygon fill="#bfbfbf" stroke="black" points="125,-0.5 125,-30.5 233,-30.5 233,-0.5 125,-0.5"/>
<text text-anchor="start" x="133" y="-18.5" font-family="Helvetica,sans-Serif" font-size="10.00">testing::internal::</text>
<text text-anchor="middle" x="179" y="-7.5" font-family="Helvetica,sans-Serif" font-size="10.00">CmpHelperEQFailure</text>
</a>
</g>
</g>
<!-- Node60 -->
<g id="node2" class="node"><title>Node60</title>
<g id="a_node2"><a xlink:href="namespacetesting_1_1internal.html#a4638c74d9b32e971f9b321af6fafc2f1" target="_top" xlink:title=" ">
<polygon fill="white" stroke="black" points="0,-0.5 0,-30.5 89,-30.5 89,-0.5 0,-0.5"/>
<text text-anchor="start" x="8" y="-18.5" font-family="Helvetica,sans-Serif" font-size="10.00">testing::internal::</text>
<text text-anchor="middle" x="44.5" y="-7.5" font-family="Helvetica,sans-Serif" font-size="10.00">CmpHelperEQ</text>
</a>
</g>
</g>
<!-- Node59&#45;&gt;Node60 -->
<g id="edge1" class="edge"><title>Node59&#45;&gt;Node60</title>
<path fill="none" stroke="midnightblue" d="M114.806,-15.5C106.175,-15.5 97.4747,-15.5 89.2929,-15.5"/>
<polygon fill="midnightblue" stroke="midnightblue" points="114.871,-19.0001 124.871,-15.5 114.871,-12.0001 114.871,-19.0001"/>
</g>
</g>
</svg>
