<?xml version="1.0" encoding="UTF-8" standalone="no"?>
<!DOCTYPE svg PUBLIC "-//W3C//DTD SVG 1.1//EN"
 "http://www.w3.org/Graphics/SVG/1.1/DTD/svg11.dtd">
<!-- Generated by graphviz version 2.38.0 (20140413.2041)
 -->
<!-- Title: Igor::iMeshBuilderUtils::addSphere Pages: 1 -->
<svg width="255pt" height="235pt"
 viewBox="0.00 0.00 255.00 235.00" xmlns="http://www.w3.org/2000/svg" xmlns:xlink="http://www.w3.org/1999/xlink">
<g id="graph0" class="graph" transform="scale(1 1) rotate(0) translate(4 231)">
<title>Igor::iMeshBuilderUtils::addSphere</title>
<polygon fill="white" stroke="none" points="-4,4 -4,-231 251,-231 251,4 -4,4"/>
<!-- Node51 -->
<g id="node1" class="node"><title>Node51</title>
<g id="a_node1"><a xlink:title=" ">
<polygon fill="#bfbfbf" stroke="black" points="0,-98.5 0,-128.5 114,-128.5 114,-98.5 0,-98.5"/>
<text text-anchor="start" x="8" y="-116.5" font-family="Helvetica,sans-Serif" font-size="10.00">Igor::iMeshBuilderUtils</text>
<text text-anchor="middle" x="57" y="-105.5" font-family="Helvetica,sans-Serif" font-size="10.00">::addSphere</text>
</a>
</g>
</g>
<!-- Node52 -->
<g id="node2" class="node"><title>Node52</title>
<g id="a_node2"><a xlink:href="class_igor_1_1i_mesh_builder.html#abe2dfa2aa215a55508cfaba1d8f83029" target="_top" xlink:title=" ">
<polygon fill="white" stroke="black" points="151,-196.5 151,-226.5 246,-226.5 246,-196.5 151,-196.5"/>
<text text-anchor="start" x="159" y="-214.5" font-family="Helvetica,sans-Serif" font-size="10.00">Igor::iMeshBuilder</text>
<text text-anchor="middle" x="198.5" y="-203.5" font-family="Helvetica,sans-Serif" font-size="10.00">::getVertexCount</text>
</a>
</g>
</g>
<!-- Node51&#45;&gt;Node52 -->
<g id="edge1" class="edge"><title>Node51&#45;&gt;Node52</title>
<path fill="none" stroke="midnightblue" d="M74.4848,-128.535C92.2989,-144.346 121.918,-169.396 150,-187.5 152.106,-188.858 154.3,-190.198 156.538,-191.507"/>
<polygon fill="midnightblue" stroke="midnightblue" points="154.864,-194.581 165.304,-196.389 158.27,-188.466 154.864,-194.581"/>
</g>
<!-- Node53 -->
<g id="node3" class="node"><title>Node53</title>
<g id="a_node3"><a xlink:href="class_igor_1_1i_mesh_builder.html#ae132784ebd5a29f57ff13f2e242ca50b" target="_top" xlink:title=" ">
<polygon fill="white" stroke="black" points="151,-147.5 151,-177.5 246,-177.5 246,-147.5 151,-147.5"/>
<text text-anchor="start" x="159" y="-165.5" font-family="Helvetica,sans-Serif" font-size="10.00">Igor::iMeshBuilder</text>
<text text-anchor="middle" x="198.5" y="-154.5" font-family="Helvetica,sans-Serif" font-size="10.00">::addVertex</text>
</a>
</g>
</g>
<!-- Node51&#45;&gt;Node53 -->
<g id="edge2" class="edge"><title>Node51&#45;&gt;Node53</title>
<path fill="none" stroke="midnightblue" d="M100.993,-128.601C114.782,-133.445 130.217,-138.866 144.628,-143.928"/>
<polygon fill="midnightblue" stroke="midnightblue" points="143.814,-147.352 154.409,-147.364 146.134,-140.748 143.814,-147.352"/>
</g>
<!-- Node54 -->
<g id="node4" class="node"><title>Node54</title>
<g id="a_node4"><a xlink:href="class_igor_aux_1_1ia_vector3.html#a19d7f1f4d0fba7b22f60fff7d38ea74b" target="_top" xlink:title=" ">
<polygon fill="white" stroke="black" points="150,-98.5 150,-128.5 247,-128.5 247,-98.5 150,-98.5"/>
<text text-anchor="start" x="158" y="-116.5" font-family="Helvetica,sans-Serif" font-size="10.00">IgorAux::iaVector3</text>
<text text-anchor="middle" x="198.5" y="-105.5" font-family="Helvetica,sans-Serif" font-size="10.00">::normalize</text>
</a>
</g>
</g>
<!-- Node51&#45;&gt;Node54 -->
<g id="edge3" class="edge"><title>Node51&#45;&gt;Node54</title>
<path fill="none" stroke="midnightblue" d="M114.338,-113.5C122.724,-113.5 131.38,-113.5 139.794,-113.5"/>
<polygon fill="midnightblue" stroke="midnightblue" points="139.904,-117 149.903,-113.5 139.903,-110 139.904,-117"/>
</g>
<!-- Node55 -->
<g id="node5" class="node"><title>Node55</title>
<g id="a_node5"><a xlink:href="class_igor_1_1i_mesh_builder.html#a5db412c786880b035e52b9c1aa80934d" target="_top" xlink:title=" ">
<polygon fill="white" stroke="black" points="151,-49.5 151,-79.5 246,-79.5 246,-49.5 151,-49.5"/>
<text text-anchor="start" x="159" y="-67.5" font-family="Helvetica,sans-Serif" font-size="10.00">Igor::iMeshBuilder</text>
<text text-anchor="middle" x="198.5" y="-56.5" font-family="Helvetica,sans-Serif" font-size="10.00">::setNormal</text>
</a>
</g>
</g>
<!-- Node51&#45;&gt;Node55 -->
<g id="edge4" class="edge"><title>Node51&#45;&gt;Node55</title>
<path fill="none" stroke="midnightblue" d="M100.993,-98.3986C114.782,-93.5549 130.217,-88.1336 144.628,-83.0715"/>
<polygon fill="midnightblue" stroke="midnightblue" points="146.134,-86.2522 154.409,-79.6359 143.814,-79.6478 146.134,-86.2522"/>
</g>
<!-- Node56 -->
<g id="node6" class="node"><title>Node56</title>
<g id="a_node6"><a xlink:href="class_igor_1_1i_mesh_builder.html#ac3ae47c63dd2b5b18840482d485de85d" target="_top" xlink:title=" ">
<polygon fill="white" stroke="black" points="151,-0.5 151,-30.5 246,-30.5 246,-0.5 151,-0.5"/>
<text text-anchor="start" x="159" y="-18.5" font-family="Helvetica,sans-Serif" font-size="10.00">Igor::iMeshBuilder</text>
<text text-anchor="middle" x="198.5" y="-7.5" font-family="Helvetica,sans-Serif" font-size="10.00">::addTriangle</text>
</a>
</g>
</g>
<!-- Node51&#45;&gt;Node56 -->
<g id="edge5" class="edge"><title>Node51&#45;&gt;Node56</title>
<path fill="none" stroke="midnightblue" d="M74.91,-98.4961C92.8366,-82.978 122.328,-58.5358 150,-40.5 152.571,-38.824 155.268,-37.1654 158.014,-35.5476"/>
<polygon fill="midnightblue" stroke="midnightblue" points="159.879,-38.5138 166.863,-30.5471 156.435,-32.4194 159.879,-38.5138"/>
</g>
</g>
</svg>
