<?xml version="1.0" encoding="UTF-8" standalone="no"?>
<!DOCTYPE svg PUBLIC "-//W3C//DTD SVG 1.1//EN"
 "http://www.w3.org/Graphics/SVG/1.1/DTD/svg11.dtd">
<!-- Generated by graphviz version 2.38.0 (20140413.2041)
 -->
<!-- Title: testing::AddGlobalTestEnvironment Pages: 1 -->
<svg width="307pt" height="88pt"
 viewBox="0.00 0.00 307.00 88.00" xmlns="http://www.w3.org/2000/svg" xmlns:xlink="http://www.w3.org/1999/xlink">
<g id="graph0" class="graph" transform="scale(1 1) rotate(0) translate(4 84)">
<title>testing::AddGlobalTestEnvironment</title>
<polygon fill="white" stroke="none" points="-4,4 -4,-84 303,-84 303,4 -4,4"/>
<!-- Node1 -->
<g id="node1" class="node"><title>Node1</title>
<polygon fill="#bfbfbf" stroke="black" points="0,-30 0,-49 169,-49 169,-30 0,-30"/>
<text text-anchor="middle" x="84.5" y="-37" font-family="Helvetica,sans-Serif" font-size="10.00">testing::AddGlobalTestEnvironment</text>
</g>
<!-- Node2 -->
<g id="node2" class="node"><title>Node2</title>
<g id="a_node2"><a xlink:href="classtesting_1_1_unit_test.html#af254e2e695471eb9f128bc556bae3668" target="_top" xlink:title="testing::UnitTest::\lGetInstance">
<polygon fill="white" stroke="black" points="205,-49.5 205,-79.5 299,-79.5 299,-49.5 205,-49.5"/>
<text text-anchor="start" x="213" y="-67.5" font-family="Helvetica,sans-Serif" font-size="10.00">testing::UnitTest::</text>
<text text-anchor="middle" x="252" y="-56.5" font-family="Helvetica,sans-Serif" font-size="10.00">GetInstance</text>
</a>
</g>
</g>
<!-- Node1&#45;&gt;Node2 -->
<g id="edge1" class="edge"><title>Node1&#45;&gt;Node2</title>
<path fill="none" stroke="midnightblue" d="M148.541,-49.0227C163.756,-51.3211 179.915,-53.7621 194.793,-56.0096"/>
<polygon fill="midnightblue" stroke="midnightblue" points="194.451,-59.4976 204.862,-57.5305 195.497,-52.5761 194.451,-59.4976"/>
</g>
<!-- Node3 -->
<g id="node3" class="node"><title>Node3</title>
<g id="a_node3"><a xlink:href="classtesting_1_1_unit_test.html#a3b64e1255cbd346e0ce40cd3e7a514f7" target="_top" xlink:title="testing::UnitTest::\lAddEnvironment">
<polygon fill="white" stroke="black" points="205,-0.5 205,-30.5 299,-30.5 299,-0.5 205,-0.5"/>
<text text-anchor="start" x="213" y="-18.5" font-family="Helvetica,sans-Serif" font-size="10.00">testing::UnitTest::</text>
<text text-anchor="middle" x="252" y="-7.5" font-family="Helvetica,sans-Serif" font-size="10.00">AddEnvironment</text>
</a>
</g>
</g>
<!-- Node1&#45;&gt;Node3 -->
<g id="edge2" class="edge"><title>Node1&#45;&gt;Node3</title>
<path fill="none" stroke="midnightblue" d="M151.386,-29.9456C165.82,-27.8524 180.97,-25.6554 194.975,-23.6244"/>
<polygon fill="midnightblue" stroke="midnightblue" points="195.55,-27.0777 204.945,-22.1787 194.546,-20.1502 195.55,-27.0777"/>
</g>
</g>
</svg>
