<?xml version="1.0" encoding="UTF-8" standalone="no"?>
<!DOCTYPE svg PUBLIC "-//W3C//DTD SVG 1.1//EN"
 "http://www.w3.org/Graphics/SVG/1.1/DTD/svg11.dtd">
<!-- Generated by graphviz version 2.38.0 (20140413.2041)
 -->
<!-- Title: Testigor::TEST_CLASS Pages: 1 -->
<svg width="412pt" height="411pt"
 viewBox="0.00 0.00 412.00 411.00" xmlns="http://www.w3.org/2000/svg" xmlns:xlink="http://www.w3.org/1999/xlink">
<g id="graph0" class="graph" transform="scale(1 1) rotate(0) translate(4 407)">
<title>Testigor::TEST_CLASS</title>
<polygon fill="white" stroke="none" points="-4,4 -4,-407 408,-407 408,4 -4,4"/>
<!-- Node1 -->
<g id="node1" class="node"><title>Node1</title>
<polygon fill="#bfbfbf" stroke="black" points="0,-192 0,-211 119,-211 119,-192 0,-192"/>
<text text-anchor="middle" x="59.5" y="-199" font-family="Helvetica,sans-Serif" font-size="10.00">Testigor::TEST_CLASS</text>
</g>
<!-- Node2 -->
<g id="node2" class="node"><title>Node2</title>
<g id="a_node2"><a xlink:href="namespacetesting_1_1internal.html#ab2709373c78eb8b1c22a6ba30cceba52" target="_top" xlink:title="testing::internal::\lIsTrue">
<polygon fill="white" stroke="black" points="168.5,-372.5 168.5,-402.5 257.5,-402.5 257.5,-372.5 168.5,-372.5"/>
<text text-anchor="start" x="176.5" y="-390.5" font-family="Helvetica,sans-Serif" font-size="10.00">testing::internal::</text>
<text text-anchor="middle" x="213" y="-379.5" font-family="Helvetica,sans-Serif" font-size="10.00">IsTrue</text>
</a>
</g>
</g>
<!-- Node1&#45;&gt;Node2 -->
<g id="edge1" class="edge"><title>Node1&#45;&gt;Node2</title>
<path fill="none" stroke="midnightblue" d="M64.1635,-211.135C74.6332,-237.584 107.048,-312.35 155,-357.5 158.721,-361.004 162.93,-364.212 167.334,-367.12"/>
<polygon fill="midnightblue" stroke="midnightblue" points="165.599,-370.161 175.968,-372.338 169.22,-364.17 165.599,-370.161"/>
</g>
<!-- Node3 -->
<g id="node3" class="node"><title>Node3</title>
<g id="a_node3"><a xlink:href="class_igor_aux_1_1ia_vector3.html#ac9f6246137f34cd0851a7e0f577ef4a2" target="_top" xlink:title="IgorAux::iaVector3\l::length">
<polygon fill="white" stroke="black" points="307,-232.5 307,-262.5 404,-262.5 404,-232.5 307,-232.5"/>
<text text-anchor="start" x="315" y="-250.5" font-family="Helvetica,sans-Serif" font-size="10.00">IgorAux::iaVector3</text>
<text text-anchor="middle" x="355.5" y="-239.5" font-family="Helvetica,sans-Serif" font-size="10.00">::length</text>
</a>
</g>
</g>
<!-- Node1&#45;&gt;Node3 -->
<g id="edge2" class="edge"><title>Node1&#45;&gt;Node3</title>
<path fill="none" stroke="midnightblue" d="M64.3613,-211.295C74.6718,-235.904 105.481,-300.099 155,-324.5 201.246,-347.288 222.979,-343.262 271,-324.5 298.555,-313.734 322.491,-289.142 337.585,-270.627"/>
<polygon fill="midnightblue" stroke="midnightblue" points="340.452,-272.644 343.88,-262.619 334.949,-268.318 340.452,-272.644"/>
</g>
<!-- Node4 -->
<g id="node4" class="node"><title>Node4</title>
<g id="a_node4"><a xlink:href="class_igor_aux_1_1ia_vector3.html#a242b585744f3f2110d5158a0727cebfb" target="_top" xlink:title="IgorAux::iaVector3\l::length2">
<polygon fill="white" stroke="black" points="164.5,-284.5 164.5,-314.5 261.5,-314.5 261.5,-284.5 164.5,-284.5"/>
<text text-anchor="start" x="172.5" y="-302.5" font-family="Helvetica,sans-Serif" font-size="10.00">IgorAux::iaVector3</text>
<text text-anchor="middle" x="213" y="-291.5" font-family="Helvetica,sans-Serif" font-size="10.00">::length2</text>
</a>
</g>
</g>
<!-- Node1&#45;&gt;Node4 -->
<g id="edge3" class="edge"><title>Node1&#45;&gt;Node4</title>
<path fill="none" stroke="midnightblue" d="M70.8767,-211.157C87.5884,-226.342 121.946,-256.07 155,-275.5 157.645,-277.055 160.41,-278.562 163.235,-280.012"/>
<polygon fill="midnightblue" stroke="midnightblue" points="161.863,-283.236 172.389,-284.44 164.911,-276.935 161.863,-283.236"/>
</g>
<!-- Node5 -->
<g id="node5" class="node"><title>Node5</title>
<g id="a_node5"><a xlink:href="class_igor_aux_1_1ia_vector3.html#ad41c03981f22ea4de2ce68fe0d2342dd" target="_top" xlink:title="IgorAux::iaVector3\l::distance">
<polygon fill="white" stroke="black" points="164.5,-235.5 164.5,-265.5 261.5,-265.5 261.5,-235.5 164.5,-235.5"/>
<text text-anchor="start" x="172.5" y="-253.5" font-family="Helvetica,sans-Serif" font-size="10.00">IgorAux::iaVector3</text>
<text text-anchor="middle" x="213" y="-242.5" font-family="Helvetica,sans-Serif" font-size="10.00">::distance</text>
</a>
</g>
</g>
<!-- Node1&#45;&gt;Node5 -->
<g id="edge4" class="edge"><title>Node1&#45;&gt;Node5</title>
<path fill="none" stroke="midnightblue" d="M90.0704,-211.064C108.748,-217.105 133.483,-225.105 155.791,-232.32"/>
<polygon fill="midnightblue" stroke="midnightblue" points="154.916,-235.716 165.508,-235.463 157.071,-229.055 154.916,-235.716"/>
</g>
<!-- Node6 -->
<g id="node6" class="node"><title>Node6</title>
<g id="a_node6"><a xlink:href="class_igor_aux_1_1ia_vector3.html#adf5b5134d2dd0aade6f275f526ee9c58" target="_top" xlink:title="IgorAux::iaVector3\l::distance2">
<polygon fill="white" stroke="black" points="164.5,-186.5 164.5,-216.5 261.5,-216.5 261.5,-186.5 164.5,-186.5"/>
<text text-anchor="start" x="172.5" y="-204.5" font-family="Helvetica,sans-Serif" font-size="10.00">IgorAux::iaVector3</text>
<text text-anchor="middle" x="213" y="-193.5" font-family="Helvetica,sans-Serif" font-size="10.00">::distance2</text>
</a>
</g>
</g>
<!-- Node1&#45;&gt;Node6 -->
<g id="edge5" class="edge"><title>Node1&#45;&gt;Node6</title>
<path fill="none" stroke="midnightblue" d="M119.074,-201.5C130.549,-201.5 142.579,-201.5 154.034,-201.5"/>
<polygon fill="midnightblue" stroke="midnightblue" points="154.36,-205 164.36,-201.5 154.36,-198 154.36,-205"/>
</g>
<!-- Node7 -->
<g id="node7" class="node"><title>Node7</title>
<g id="a_node7"><a xlink:href="class_igor_aux_1_1ia_vector3.html#a74e3811418f8d9b2c64ce08ca4bf8c4d" target="_top" xlink:title="IgorAux::iaVector3\l::angle">
<polygon fill="white" stroke="black" points="164.5,-137.5 164.5,-167.5 261.5,-167.5 261.5,-137.5 164.5,-137.5"/>
<text text-anchor="start" x="172.5" y="-155.5" font-family="Helvetica,sans-Serif" font-size="10.00">IgorAux::iaVector3</text>
<text text-anchor="middle" x="213" y="-144.5" font-family="Helvetica,sans-Serif" font-size="10.00">::angle</text>
</a>
</g>
</g>
<!-- Node1&#45;&gt;Node7 -->
<g id="edge6" class="edge"><title>Node1&#45;&gt;Node7</title>
<path fill="none" stroke="midnightblue" d="M90.0704,-191.936C108.748,-185.895 133.483,-177.895 155.791,-170.68"/>
<polygon fill="midnightblue" stroke="midnightblue" points="157.071,-173.945 165.508,-167.537 154.916,-167.284 157.071,-173.945"/>
</g>
<!-- Node8 -->
<g id="node8" class="node"><title>Node8</title>
<g id="a_node8"><a xlink:href="class_igor_aux_1_1ia_vector3.html#a9318308d20ed3bd29e16fd1b41b02eef" target="_top" xlink:title="IgorAux::iaVector3::set">
<polygon fill="white" stroke="black" points="155,-99 155,-118 271,-118 271,-99 155,-99"/>
<text text-anchor="middle" x="213" y="-106" font-family="Helvetica,sans-Serif" font-size="10.00">IgorAux::iaVector3::set</text>
</a>
</g>
</g>
<!-- Node1&#45;&gt;Node8 -->
<g id="edge8" class="edge"><title>Node1&#45;&gt;Node8</title>
<path fill="none" stroke="midnightblue" d="M70.4977,-191.994C86.9551,-176.777 121.298,-146.806 155,-128.5 159.549,-126.029 164.462,-123.768 169.431,-121.727"/>
<polygon fill="midnightblue" stroke="midnightblue" points="170.884,-124.918 178.973,-118.076 168.382,-118.38 170.884,-124.918"/>
</g>
<!-- Node9 -->
<g id="node9" class="node"><title>Node9</title>
<g id="a_node9"><a xlink:href="class_igor_aux_1_1ia_vector3.html#a472d397bcfae85248afadb2345716e07" target="_top" xlink:title="IgorAux::iaVector3\l::getData">
<polygon fill="white" stroke="black" points="164.5,-49.5 164.5,-79.5 261.5,-79.5 261.5,-49.5 164.5,-49.5"/>
<text text-anchor="start" x="172.5" y="-67.5" font-family="Helvetica,sans-Serif" font-size="10.00">IgorAux::iaVector3</text>
<text text-anchor="middle" x="213" y="-56.5" font-family="Helvetica,sans-Serif" font-size="10.00">::getData</text>
</a>
</g>
</g>
<!-- Node1&#45;&gt;Node9 -->
<g id="edge9" class="edge"><title>Node1&#45;&gt;Node9</title>
<path fill="none" stroke="midnightblue" d="M66.4363,-191.822C79.8357,-170.671 114.441,-119.801 155,-89.5 157.313,-87.772 159.764,-86.1324 162.299,-84.5815"/>
<polygon fill="midnightblue" stroke="midnightblue" points="164.126,-87.5705 171.164,-79.6511 160.724,-81.453 164.126,-87.5705"/>
</g>
<!-- Node10 -->
<g id="node10" class="node"><title>Node10</title>
<g id="a_node10"><a xlink:href="class_igor_aux_1_1ia_vector3.html#a19d7f1f4d0fba7b22f60fff7d38ea74b" target="_top" xlink:title="IgorAux::iaVector3\l::normalize">
<polygon fill="white" stroke="black" points="164.5,-0.5 164.5,-30.5 261.5,-30.5 261.5,-0.5 164.5,-0.5"/>
<text text-anchor="start" x="172.5" y="-18.5" font-family="Helvetica,sans-Serif" font-size="10.00">IgorAux::iaVector3</text>
<text text-anchor="middle" x="213" y="-7.5" font-family="Helvetica,sans-Serif" font-size="10.00">::normalize</text>
</a>
</g>
</g>
<!-- Node1&#45;&gt;Node10 -->
<g id="edge10" class="edge"><title>Node1&#45;&gt;Node10</title>
<path fill="none" stroke="midnightblue" d="M63.7669,-191.763C73.4245,-164.335 104.373,-85.5045 155,-40.5 156.739,-38.9542 158.588,-37.4916 160.518,-36.1091"/>
<polygon fill="midnightblue" stroke="midnightblue" points="162.775,-38.8254 169.392,-30.5513 159.059,-32.8928 162.775,-38.8254"/>
</g>
<!-- Node7&#45;&gt;Node3 -->
<g id="edge7" class="edge"><title>Node7&#45;&gt;Node3</title>
<path fill="none" stroke="midnightblue" d="M252.48,-167.581C258.827,-170.573 265.216,-173.91 271,-177.5 293.237,-191.303 315.828,-210.633 331.895,-225.484"/>
<polygon fill="midnightblue" stroke="midnightblue" points="329.543,-228.076 339.228,-232.371 334.335,-222.974 329.543,-228.076"/>
</g>
</g>
</svg>
