<?xml version="1.0" encoding="UTF-8" standalone="no"?>
<!DOCTYPE svg PUBLIC "-//W3C//DTD SVG 1.1//EN"
 "http://www.w3.org/Graphics/SVG/1.1/DTD/svg11.dtd">
<!-- Generated by graphviz version 2.38.0 (20140413.2041)
 -->
<!-- Title: Igor::isInitialized Pages: 1 -->
<svg width="291pt" height="78pt"
 viewBox="0.00 0.00 291.00 77.50" xmlns="http://www.w3.org/2000/svg" xmlns:xlink="http://www.w3.org/1999/xlink">
<g id="graph0" class="graph" transform="scale(1 1) rotate(0) translate(4 73.5)">
<title>Igor::isInitialized</title>
<polygon fill="white" stroke="none" points="-4,4 -4,-73.5 287,-73.5 287,4 -4,4"/>
<!-- Node1 -->
<g id="node1" class="node"><title>Node1</title>
<polygon fill="#bfbfbf" stroke="black" points="0,-28 0,-47 86,-47 86,-28 0,-28"/>
<text text-anchor="middle" x="43" y="-35" font-family="Helvetica,sans-Serif" font-size="10.00">Igor::isInitialized</text>
</g>
<!-- Node2 -->
<g id="node2" class="node"><title>Node2</title>
<g id="a_node2"><a xlink:href="namespace_igor.html#abf3f25689fdb62b0c08a9b538f377a52" target="_top" xlink:title="Igor::setForceAndTorqueDelegate">
<polygon fill="white" stroke="black" points="122,-50 122,-69 283,-69 283,-50 122,-50"/>
<text text-anchor="middle" x="202.5" y="-57" font-family="Helvetica,sans-Serif" font-size="10.00">Igor::setForceAndTorqueDelegate</text>
</a>
</g>
</g>
<!-- Node1&#45;&gt;Node2 -->
<g id="edge1" class="edge"><title>Node1&#45;&gt;Node2</title>
<path fill="none" stroke="midnightblue" d="M96.3494,-44.8123C108.19,-46.4663 120.932,-48.246 133.318,-49.9762"/>
<polygon fill="midnightblue" stroke="midnightblue" points="96.5952,-41.3127 86.2071,-43.3956 95.6267,-48.2454 96.5952,-41.3127"/>
</g>
<!-- Node3 -->
<g id="node3" class="node"><title>Node3</title>
<g id="a_node3"><a xlink:href="namespace_igor.html#a1671b83ced00b24699cd137734ccaf8d" target="_top" xlink:title="Igor::resetForceAndTorque\lDelegate">
<polygon fill="white" stroke="black" points="137,-0.5 137,-30.5 268,-30.5 268,-0.5 137,-0.5"/>
<text text-anchor="start" x="145" y="-18.5" font-family="Helvetica,sans-Serif" font-size="10.00">Igor::resetForceAndTorque</text>
<text text-anchor="middle" x="202.5" y="-7.5" font-family="Helvetica,sans-Serif" font-size="10.00">Delegate</text>
</a>
</g>
</g>
<!-- Node1&#45;&gt;Node3 -->
<g id="edge2" class="edge"><title>Node1&#45;&gt;Node3</title>
<path fill="none" stroke="midnightblue" d="M96.363,-30.1858C109.356,-28.371 123.432,-26.4048 136.933,-24.5189"/>
<polygon fill="midnightblue" stroke="midnightblue" points="95.6267,-26.7546 86.2071,-31.6044 96.5952,-33.6873 95.6267,-26.7546"/>
</g>
</g>
</svg>
