<?xml version="1.0" encoding="UTF-8" standalone="no"?>
<!DOCTYPE svg PUBLIC "-//W3C//DTD SVG 1.1//EN"
 "http://www.w3.org/Graphics/SVG/1.1/DTD/svg11.dtd">
<!-- Generated by graphviz version 2.38.0 (20140413.2041)
 -->
<!-- Title: testing::internal::EqFailure Pages: 1 -->
<svg width="394pt" height="88pt"
 viewBox="0.00 0.00 394.00 88.00" xmlns="http://www.w3.org/2000/svg" xmlns:xlink="http://www.w3.org/1999/xlink">
<g id="graph0" class="graph" transform="scale(1 1) rotate(0) translate(4 84)">
<title>testing::internal::EqFailure</title>
<polygon fill="white" stroke="none" points="-4,4 -4,-84 390,-84 390,4 -4,4"/>
<!-- Node1 -->
<g id="node1" class="node"><title>Node1</title>
<polygon fill="#bfbfbf" stroke="black" points="0,-24.5 0,-54.5 89,-54.5 89,-24.5 0,-24.5"/>
<text text-anchor="start" x="8" y="-42.5" font-family="Helvetica,sans-Serif" font-size="10.00">testing::internal::</text>
<text text-anchor="middle" x="44.5" y="-31.5" font-family="Helvetica,sans-Serif" font-size="10.00">EqFailure</text>
</g>
<!-- Node2 -->
<g id="node2" class="node"><title>Node2</title>
<g id="a_node2"><a xlink:href="namespacetesting_1_1internal.html#a1def8ec9393360a1b34a20528703e7f7" target="_top" xlink:title="testing::internal::\lCmpHelperEQFailure">
<polygon fill="white" stroke="black" points="139,-49.5 139,-79.5 247,-79.5 247,-49.5 139,-49.5"/>
<text text-anchor="start" x="147" y="-67.5" font-family="Helvetica,sans-Serif" font-size="10.00">testing::internal::</text>
<text text-anchor="middle" x="193" y="-56.5" font-family="Helvetica,sans-Serif" font-size="10.00">CmpHelperEQFailure</text>
</a>
</g>
</g>
<!-- Node1&#45;&gt;Node2 -->
<g id="edge1" class="edge"><title>Node1&#45;&gt;Node2</title>
<path fill="none" stroke="midnightblue" d="M99.1874,-48.6617C112.094,-50.8641 125.874,-53.2157 138.76,-55.4146"/>
<polygon fill="midnightblue" stroke="midnightblue" points="99.5045,-45.1653 89.0582,-46.9331 98.3269,-52.0655 99.5045,-45.1653"/>
</g>
<!-- Node4 -->
<g id="node4" class="node"><title>Node4</title>
<g id="a_node4"><a xlink:href="namespacetesting_1_1internal.html#a98ce463e5dbe0c6120fa817e1f8f2944" target="_top" xlink:title="testing::internal::\lCmpHelperFloatingPointEQ">
<polygon fill="white" stroke="black" points="125,-0.5 125,-30.5 261,-30.5 261,-0.5 125,-0.5"/>
<text text-anchor="start" x="133" y="-18.5" font-family="Helvetica,sans-Serif" font-size="10.00">testing::internal::</text>
<text text-anchor="middle" x="193" y="-7.5" font-family="Helvetica,sans-Serif" font-size="10.00">CmpHelperFloatingPointEQ</text>
</a>
</g>
</g>
<!-- Node1&#45;&gt;Node4 -->
<g id="edge3" class="edge"><title>Node1&#45;&gt;Node4</title>
<path fill="none" stroke="midnightblue" d="M99.0341,-30.7299C107.389,-29.3611 116.114,-27.9318 124.729,-26.5206"/>
<polygon fill="midnightblue" stroke="midnightblue" points="98.3608,-27.2935 89.0582,-32.3642 99.4925,-34.2014 98.3608,-27.2935"/>
</g>
<!-- Node3 -->
<g id="node3" class="node"><title>Node3</title>
<g id="a_node3"><a xlink:href="namespacetesting_1_1internal.html#a4638c74d9b32e971f9b321af6fafc2f1" target="_top" xlink:title="testing::internal::\lCmpHelperEQ">
<polygon fill="white" stroke="black" points="297,-49.5 297,-79.5 386,-79.5 386,-49.5 297,-49.5"/>
<text text-anchor="start" x="305" y="-67.5" font-family="Helvetica,sans-Serif" font-size="10.00">testing::internal::</text>
<text text-anchor="middle" x="341.5" y="-56.5" font-family="Helvetica,sans-Serif" font-size="10.00">CmpHelperEQ</text>
</a>
</g>
</g>
<!-- Node2&#45;&gt;Node3 -->
<g id="edge2" class="edge"><title>Node2&#45;&gt;Node3</title>
<path fill="none" stroke="midnightblue" d="M257.32,-64.5C270.569,-64.5 284.26,-64.5 296.615,-64.5"/>
<polygon fill="midnightblue" stroke="midnightblue" points="257.304,-61.0001 247.304,-64.5 257.304,-68.0001 257.304,-61.0001"/>
</g>
</g>
</svg>
