<?xml version="1.0" encoding="UTF-8" standalone="no"?>
<!DOCTYPE svg PUBLIC "-//W3C//DTD SVG 1.1//EN"
 "http://www.w3.org/Graphics/SVG/1.1/DTD/svg11.dtd">
<!-- Generated by graphviz version 2.38.0 (20140413.2041)
 -->
<!-- Title: Igor::WndProc Pages: 1 -->
<svg width="420pt" height="85pt"
 viewBox="0.00 0.00 420.00 85.00" xmlns="http://www.w3.org/2000/svg" xmlns:xlink="http://www.w3.org/1999/xlink">
<g id="graph0" class="graph" transform="scale(1 1) rotate(0) translate(4 81)">
<title>Igor::WndProc</title>
<polygon fill="white" stroke="none" points="-4,4 -4,-81 416,-81 416,4 -4,4"/>
<!-- Node1 -->
<g id="node1" class="node"><title>Node1</title>
<polygon fill="#bfbfbf" stroke="black" points="0,-19.5 0,-38.5 79,-38.5 79,-19.5 0,-19.5"/>
<text text-anchor="middle" x="39.5" y="-26.5" font-family="Helvetica,sans-Serif" font-size="10.00">Igor::WndProc</text>
</g>
<!-- Node2 -->
<g id="node2" class="node"><title>Node2</title>
<g id="a_node2"><a xlink:href="class_igor_1_1i_window.html#a6dbf54a39d41c7752db8f8ff658adae3" target="_top" xlink:title="Igor::iWindow::updateSize">
<polygon fill="white" stroke="black" points="115,-38.5 115,-57.5 245,-57.5 245,-38.5 115,-38.5"/>
<text text-anchor="middle" x="180" y="-45.5" font-family="Helvetica,sans-Serif" font-size="10.00">Igor::iWindow::updateSize</text>
</a>
</g>
</g>
<!-- Node1&#45;&gt;Node2 -->
<g id="edge1" class="edge"><title>Node1&#45;&gt;Node2</title>
<path fill="none" stroke="midnightblue" d="M79.08,-34.2926C87.1635,-35.4015 95.9457,-36.6063 104.836,-37.8259"/>
<polygon fill="midnightblue" stroke="midnightblue" points="104.506,-41.3133 114.889,-39.205 105.458,-34.3783 104.506,-41.3133"/>
</g>
<!-- Node5 -->
<g id="node5" class="node"><title>Node5</title>
<g id="a_node5"><a xlink:href="class_igor_1_1i_window.html#a313d0bc55b576c8f315d34f360130fbd" target="_top" xlink:title="Igor::iWindow::updatePos">
<polygon fill="white" stroke="black" points="116,-0.5 116,-19.5 244,-19.5 244,-0.5 116,-0.5"/>
<text text-anchor="middle" x="180" y="-7.5" font-family="Helvetica,sans-Serif" font-size="10.00">Igor::iWindow::updatePos</text>
</a>
</g>
</g>
<!-- Node1&#45;&gt;Node5 -->
<g id="edge4" class="edge"><title>Node1&#45;&gt;Node5</title>
<path fill="none" stroke="midnightblue" d="M79.08,-23.7074C87.4855,-22.5543 96.6466,-21.2976 105.9,-20.0282"/>
<polygon fill="midnightblue" stroke="midnightblue" points="106.513,-23.4769 115.945,-18.6502 105.562,-16.5419 106.513,-23.4769"/>
</g>
<!-- Node3 -->
<g id="node3" class="node"><title>Node3</title>
<g id="a_node3"><a xlink:href="class_igor_1_1i_rectangle.html#a29546c0e2d54ee9608adbbc8b041ea56" target="_top" xlink:title="Igor::iRectangle::setWidth">
<polygon fill="white" stroke="black" points="282,-57.5 282,-76.5 411,-76.5 411,-57.5 282,-57.5"/>
<text text-anchor="middle" x="346.5" y="-64.5" font-family="Helvetica,sans-Serif" font-size="10.00">Igor::iRectangle::setWidth</text>
</a>
</g>
</g>
<!-- Node2&#45;&gt;Node3 -->
<g id="edge2" class="edge"><title>Node2&#45;&gt;Node3</title>
<path fill="none" stroke="midnightblue" d="M245.071,-55.4003C253.854,-56.4148 262.928,-57.4628 271.865,-58.4951"/>
<polygon fill="midnightblue" stroke="midnightblue" points="271.539,-61.9805 281.874,-59.6511 272.342,-55.0268 271.539,-61.9805"/>
</g>
<!-- Node4 -->
<g id="node4" class="node"><title>Node4</title>
<g id="a_node4"><a xlink:href="class_igor_1_1i_rectangle.html#a30533fbc10c5e609aafa8b0f251f82ee" target="_top" xlink:title="Igor::iRectangle::setHeight">
<polygon fill="white" stroke="black" points="281,-19.5 281,-38.5 412,-38.5 412,-19.5 281,-19.5"/>
<text text-anchor="middle" x="346.5" y="-26.5" font-family="Helvetica,sans-Serif" font-size="10.00">Igor::iRectangle::setHeight</text>
</a>
</g>
</g>
<!-- Node2&#45;&gt;Node4 -->
<g id="edge3" class="edge"><title>Node2&#45;&gt;Node4</title>
<path fill="none" stroke="midnightblue" d="M245.071,-40.5997C253.5,-39.6261 262.198,-38.6215 270.785,-37.6297"/>
<polygon fill="midnightblue" stroke="midnightblue" points="271.259,-41.0983 280.791,-36.4739 270.456,-34.1445 271.259,-41.0983"/>
</g>
</g>
</svg>
