<?xml version="1.0" encoding="UTF-8" standalone="no"?>
<!DOCTYPE svg PUBLIC "-//W3C//DTD SVG 1.1//EN"
 "http://www.w3.org/Graphics/SVG/1.1/DTD/svg11.dtd">
<!-- Generated by graphviz version 2.38.0 (20140413.2041)
 -->
<!-- Title: testing::internal::FormatForComparisonFailureMessage Pages: 1 -->
<svg width="1109pt" height="67pt"
 viewBox="0.00 0.00 1109.00 66.50" xmlns="http://www.w3.org/2000/svg" xmlns:xlink="http://www.w3.org/1999/xlink">
<g id="graph0" class="graph" transform="scale(1 1) rotate(0) translate(4 62.5)">
<title>testing::internal::FormatForComparisonFailureMessage</title>
<polygon fill="white" stroke="none" points="-4,4 -4,-62.5 1105,-62.5 1105,4 -4,4"/>
<!-- Node155 -->
<g id="node1" class="node"><title>Node155</title>
<g id="a_node1"><a xlink:title=" ">
<polygon fill="#bfbfbf" stroke="black" points="0,-0.5 0,-41.5 143,-41.5 143,-0.5 0,-0.5"/>
<text text-anchor="start" x="8" y="-29.5" font-family="Helvetica,sans-Serif" font-size="10.00">testing::internal::</text>
<text text-anchor="start" x="8" y="-18.5" font-family="Helvetica,sans-Serif" font-size="10.00">FormatForComparisonFailure</text>
<text text-anchor="middle" x="71.5" y="-7.5" font-family="Helvetica,sans-Serif" font-size="10.00">Message</text>
</a>
</g>
</g>
<!-- Node156 -->
<g id="node2" class="node"><title>Node156</title>
<g id="a_node2"><a xlink:href="classtesting_1_1internal_1_1_format_for_comparison.html#a2aeb688fc55b57abd3021d82eccad896" target="_top" xlink:title=" ">
<polygon fill="white" stroke="black" points="179,-0.5 179,-41.5 292,-41.5 292,-0.5 179,-0.5"/>
<text text-anchor="start" x="187" y="-29.5" font-family="Helvetica,sans-Serif" font-size="10.00">testing::internal::</text>
<text text-anchor="start" x="187" y="-18.5" font-family="Helvetica,sans-Serif" font-size="10.00">FormatForComparison</text>
<text text-anchor="middle" x="235.5" y="-7.5" font-family="Helvetica,sans-Serif" font-size="10.00">::Format</text>
</a>
</g>
</g>
<!-- Node155&#45;&gt;Node156 -->
<g id="edge1" class="edge"><title>Node155&#45;&gt;Node156</title>
<path fill="none" stroke="midnightblue" d="M143.084,-21C151.571,-21 160.212,-21 168.628,-21"/>
<polygon fill="midnightblue" stroke="midnightblue" points="168.756,-24.5001 178.756,-21 168.756,-17.5001 168.756,-24.5001"/>
</g>
<!-- Node157 -->
<g id="node3" class="node"><title>Node157</title>
<g id="a_node3"><a xlink:href="namespacetesting.html#aa5717bb1144edd1d262d310ba70c82ed" target="_top" xlink:title=" ">
<polygon fill="white" stroke="black" points="328,-11.5 328,-30.5 436,-30.5 436,-11.5 328,-11.5"/>
<text text-anchor="middle" x="382" y="-18.5" font-family="Helvetica,sans-Serif" font-size="10.00">testing::PrintToString</text>
</a>
</g>
</g>
<!-- Node156&#45;&gt;Node157 -->
<g id="edge2" class="edge"><title>Node156&#45;&gt;Node157</title>
<path fill="none" stroke="midnightblue" d="M292.367,-21C300.611,-21 309.155,-21 317.538,-21"/>
<polygon fill="midnightblue" stroke="midnightblue" points="317.654,-24.5001 327.654,-21 317.654,-17.5001 317.654,-24.5001"/>
</g>
<!-- Node158 -->
<g id="node4" class="node"><title>Node158</title>
<g id="a_node4"><a xlink:href="classtesting_1_1internal_1_1_universal_terse_printer.html#a042249cdb42fdb77588c9ad54ea7ed54" target="_top" xlink:title=" ">
<polygon fill="white" stroke="black" points="472,-0.5 472,-41.5 580,-41.5 580,-0.5 472,-0.5"/>
<text text-anchor="start" x="480" y="-29.5" font-family="Helvetica,sans-Serif" font-size="10.00">testing::internal::</text>
<text text-anchor="start" x="480" y="-18.5" font-family="Helvetica,sans-Serif" font-size="10.00">UniversalTersePrinter</text>
<text text-anchor="middle" x="526" y="-7.5" font-family="Helvetica,sans-Serif" font-size="10.00">::Print</text>
</a>
</g>
</g>
<!-- Node157&#45;&gt;Node158 -->
<g id="edge3" class="edge"><title>Node157&#45;&gt;Node158</title>
<path fill="none" stroke="midnightblue" d="M436.28,-21C444.56,-21 453.184,-21 461.661,-21"/>
<polygon fill="midnightblue" stroke="midnightblue" points="461.894,-24.5001 471.894,-21 461.894,-17.5001 461.894,-24.5001"/>
</g>
<!-- Node159 -->
<g id="node5" class="node"><title>Node159</title>
<g id="a_node5"><a xlink:href="namespacetesting_1_1internal.html#a30708fa2bacf11895b03bdb21eb72309" target="_top" xlink:title=" ">
<polygon fill="white" stroke="black" points="616,-6 616,-36 705,-36 705,-6 616,-6"/>
<text text-anchor="start" x="624" y="-24" font-family="Helvetica,sans-Serif" font-size="10.00">testing::internal::</text>
<text text-anchor="middle" x="660.5" y="-13" font-family="Helvetica,sans-Serif" font-size="10.00">UniversalPrint</text>
</a>
</g>
</g>
<!-- Node158&#45;&gt;Node159 -->
<g id="edge4" class="edge"><title>Node158&#45;&gt;Node159</title>
<path fill="none" stroke="midnightblue" d="M580.129,-21C588.524,-21 597.211,-21 605.622,-21"/>
<polygon fill="midnightblue" stroke="midnightblue" points="605.707,-24.5001 615.707,-21 605.707,-17.5001 605.707,-24.5001"/>
</g>
<!-- Node160 -->
<g id="node6" class="node"><title>Node160</title>
<g id="a_node6"><a xlink:href="classtesting_1_1internal_1_1_universal_printer.html#aecec021e1abbaa260b701e24e3fe33eb" target="_top" xlink:title=" ">
<polygon fill="white" stroke="black" points="741,-28 741,-58 851,-58 851,-28 741,-28"/>
<text text-anchor="start" x="749" y="-46" font-family="Helvetica,sans-Serif" font-size="10.00">testing::internal::</text>
<text text-anchor="middle" x="796" y="-35" font-family="Helvetica,sans-Serif" font-size="10.00">UniversalPrinter::Print</text>
</a>
</g>
</g>
<!-- Node159&#45;&gt;Node160 -->
<g id="edge5" class="edge"><title>Node159&#45;&gt;Node160</title>
<path fill="none" stroke="midnightblue" d="M705.213,-28.2036C713.411,-29.5547 722.138,-30.9928 730.808,-32.4215"/>
<polygon fill="midnightblue" stroke="midnightblue" points="730.487,-35.9158 740.923,-34.0884 731.625,-29.0089 730.487,-35.9158"/>
</g>
<!-- Node161 -->
<g id="node7" class="node"><title>Node161</title>
<g id="a_node7"><a xlink:href="namespacetesting_1_1internal.html#adb3c27150dbe661db0e0c4be27533460" target="_top" xlink:title=" ">
<polygon fill="white" stroke="black" points="887,-28 887,-58 976,-58 976,-28 887,-28"/>
<text text-anchor="start" x="895" y="-46" font-family="Helvetica,sans-Serif" font-size="10.00">testing::internal::</text>
<text text-anchor="middle" x="931.5" y="-35" font-family="Helvetica,sans-Serif" font-size="10.00">PrintTo</text>
</a>
</g>
</g>
<!-- Node160&#45;&gt;Node161 -->
<g id="edge6" class="edge"><title>Node160&#45;&gt;Node161</title>
<path fill="none" stroke="midnightblue" d="M851.3,-43C859.716,-43 868.407,-43 876.81,-43"/>
<polygon fill="midnightblue" stroke="midnightblue" points="876.88,-46.5001 886.879,-43 876.879,-39.5001 876.88,-46.5001"/>
</g>
<!-- Node162 -->
<g id="node8" class="node"><title>Node162</title>
<g id="a_node8"><a xlink:href="namespacetesting_1_1internal.html#a2e96c98d5bd8ee4a1b92f8e3cde7dd40" target="_top" xlink:title=" ">
<polygon fill="white" stroke="black" points="1012,-6 1012,-36 1101,-36 1101,-6 1012,-6"/>
<text text-anchor="start" x="1020" y="-24" font-family="Helvetica,sans-Serif" font-size="10.00">testing::internal::</text>
<text text-anchor="middle" x="1056.5" y="-13" font-family="Helvetica,sans-Serif" font-size="10.00">DefaultPrintTo</text>
</a>
</g>
</g>
<!-- Node161&#45;&gt;Node162 -->
<g id="edge7" class="edge"><title>Node161&#45;&gt;Node162</title>
<path fill="none" stroke="midnightblue" d="M976.212,-35.1817C984.549,-33.6904 993.364,-32.1137 1001.97,-30.5748"/>
<polygon fill="midnightblue" stroke="midnightblue" points="1002.7,-33.9992 1011.93,-28.7931 1001.47,-27.1086 1002.7,-33.9992"/>
</g>
<!-- Node162&#45;&gt;Node159 -->
<g id="edge8" class="edge"><title>Node162&#45;&gt;Node159</title>
<path fill="none" stroke="midnightblue" d="M1011.77,-19.0533C1000.15,-18.617 987.6,-18.2188 976,-18 871.574,-16.0304 845.426,-16.0304 741,-18 732.753,-18.1555 724.028,-18.4018 715.496,-18.6879"/>
<polygon fill="midnightblue" stroke="midnightblue" points="715.099,-15.1997 705.23,-19.0533 715.348,-22.1953 715.099,-15.1997"/>
</g>
</g>
</svg>
