<?xml version="1.0" encoding="UTF-8" standalone="no"?>
<!DOCTYPE svg PUBLIC "-//W3C//DTD SVG 1.1//EN"
 "http://www.w3.org/Graphics/SVG/1.1/DTD/svg11.dtd">
<!-- Generated by graphviz version 2.38.0 (20140413.2041)
 -->
<!-- Title: Igor::setForceAndTorqueDelegate Pages: 1 -->
<svg width="369pt" height="78pt"
 viewBox="0.00 0.00 369.00 77.50" xmlns="http://www.w3.org/2000/svg" xmlns:xlink="http://www.w3.org/1999/xlink">
<g id="graph0" class="graph" transform="scale(1 1) rotate(0) translate(4 73.5)">
<title>Igor::setForceAndTorqueDelegate</title>
<polygon fill="white" stroke="none" points="-4,4 -4,-73.5 365,-73.5 365,4 -4,4"/>
<!-- Node1 -->
<g id="node1" class="node"><title>Node1</title>
<polygon fill="#bfbfbf" stroke="black" points="0,-28 0,-47 161,-47 161,-28 0,-28"/>
<text text-anchor="middle" x="80.5" y="-35" font-family="Helvetica,sans-Serif" font-size="10.00">Igor::setForceAndTorqueDelegate</text>
</g>
<!-- Node2 -->
<g id="node2" class="node"><title>Node2</title>
<g id="a_node2"><a xlink:href="namespace_igor.html#a0c19adde07682d4c78667020bdcf394b" target="_top" xlink:title="Igor::isInitialized">
<polygon fill="white" stroke="black" points="236,-50 236,-69 322,-69 322,-50 236,-50"/>
<text text-anchor="middle" x="279" y="-57" font-family="Helvetica,sans-Serif" font-size="10.00">Igor::isInitialized</text>
</a>
</g>
</g>
<!-- Node1&#45;&gt;Node2 -->
<g id="edge1" class="edge"><title>Node1&#45;&gt;Node2</title>
<path fill="none" stroke="midnightblue" d="M161.141,-46.4165C182.974,-48.8609 206.08,-51.4478 225.93,-53.6703"/>
<polygon fill="midnightblue" stroke="midnightblue" points="225.662,-57.1621 235.989,-54.7965 226.441,-50.2055 225.662,-57.1621"/>
</g>
<!-- Node3 -->
<g id="node3" class="node"><title>Node3</title>
<g id="a_node3"><a xlink:href="class_igor_1_1i_physics_body.html#a3a5ba78edb4ee9f8fc31ac145a2d878b" target="_top" xlink:title="Igor::iPhysicsBody\l::registerForceAndTorqueDelegate">
<polygon fill="white" stroke="black" points="197,-0.5 197,-30.5 361,-30.5 361,-0.5 197,-0.5"/>
<text text-anchor="start" x="205" y="-18.5" font-family="Helvetica,sans-Serif" font-size="10.00">Igor::iPhysicsBody</text>
<text text-anchor="middle" x="279" y="-7.5" font-family="Helvetica,sans-Serif" font-size="10.00">::registerForceAndTorqueDelegate</text>
</a>
</g>
</g>
<!-- Node1&#45;&gt;Node3 -->
<g id="edge2" class="edge"><title>Node1&#45;&gt;Node3</title>
<path fill="none" stroke="midnightblue" d="M161.141,-28.5835C169.628,-27.6332 178.308,-26.6614 186.914,-25.6979"/>
<polygon fill="midnightblue" stroke="midnightblue" points="187.419,-29.1633 196.968,-24.5723 186.64,-22.2068 187.419,-29.1633"/>
</g>
</g>
</svg>
