<?xml version="1.0" encoding="UTF-8" standalone="no"?>
<!DOCTYPE svg PUBLIC "-//W3C//DTD SVG 1.1//EN"
 "http://www.w3.org/Graphics/SVG/1.1/DTD/svg11.dtd">
<!-- Generated by graphviz version 2.38.0 (20140413.2041)
 -->
<!-- Title: testing::internal::MakeAndRegisterTestInfo Pages: 1 -->
<svg width="308pt" height="50pt"
 viewBox="0.00 0.00 308.00 50.00" xmlns="http://www.w3.org/2000/svg" xmlns:xlink="http://www.w3.org/1999/xlink">
<g id="graph0" class="graph" transform="scale(1 1) rotate(0) translate(4 46)">
<title>testing::internal::MakeAndRegisterTestInfo</title>
<polygon fill="white" stroke="none" points="-4,4 -4,-46 304,-46 304,4 -4,4"/>
<!-- Node1 -->
<g id="node1" class="node"><title>Node1</title>
<polygon fill="#bfbfbf" stroke="black" points="0,-6 0,-36 128,-36 128,-6 0,-6"/>
<text text-anchor="start" x="8" y="-24" font-family="Helvetica,sans-Serif" font-size="10.00">testing::internal::</text>
<text text-anchor="middle" x="64" y="-13" font-family="Helvetica,sans-Serif" font-size="10.00">MakeAndRegisterTestInfo</text>
</g>
<!-- Node2 -->
<g id="node2" class="node"><title>Node2</title>
<g id="a_node2"><a xlink:href="classtesting_1_1internal_1_1_parameterized_test_case_info.html#a7e118820b3074ce70c0440e2e49a50a1" target="_top" xlink:title="testing::internal::\lParameterizedTestCaseInfo\l::RegisterTests">
<polygon fill="white" stroke="black" points="164,-0.5 164,-41.5 300,-41.5 300,-0.5 164,-0.5"/>
<text text-anchor="start" x="172" y="-29.5" font-family="Helvetica,sans-Serif" font-size="10.00">testing::internal::</text>
<text text-anchor="start" x="172" y="-18.5" font-family="Helvetica,sans-Serif" font-size="10.00">ParameterizedTestCaseInfo</text>
<text text-anchor="middle" x="232" y="-7.5" font-family="Helvetica,sans-Serif" font-size="10.00">::RegisterTests</text>
</a>
</g>
</g>
<!-- Node1&#45;&gt;Node2 -->
<g id="edge1" class="edge"><title>Node1&#45;&gt;Node2</title>
<path fill="none" stroke="midnightblue" d="M138.436,-21C146.876,-21 155.45,-21 163.802,-21"/>
<polygon fill="midnightblue" stroke="midnightblue" points="138.231,-17.5001 128.231,-21 138.231,-24.5001 138.231,-17.5001"/>
</g>
</g>
</svg>
