<?xml version="1.0" encoding="UTF-8" standalone="no"?>
<!DOCTYPE svg PUBLIC "-//W3C//DTD SVG 1.1//EN"
 "http://www.w3.org/Graphics/SVG/1.1/DTD/svg11.dtd">
<!-- Generated by graphviz version 2.38.0 (20140413.2041)
 -->
<!-- Title: Igor::AABBOverlapTest Pages: 1 -->
<svg width="444pt" height="39pt"
 viewBox="0.00 0.00 444.00 39.00" xmlns="http://www.w3.org/2000/svg" xmlns:xlink="http://www.w3.org/1999/xlink">
<g id="graph0" class="graph" transform="scale(1 1) rotate(0) translate(4 35)">
<title>Igor::AABBOverlapTest</title>
<polygon fill="white" stroke="none" points="-4,4 -4,-35 440,-35 440,4 -4,4"/>
<!-- Node8 -->
<g id="node1" class="node"><title>Node8</title>
<g id="a_node1"><a xlink:title=" ">
<polygon fill="#bfbfbf" stroke="black" points="0,-6 0,-25 116,-25 116,-6 0,-6"/>
<text text-anchor="middle" x="58" y="-13" font-family="Helvetica,sans-Serif" font-size="10.00">Igor::AABBOverlapTest</text>
</a>
</g>
</g>
<!-- Node9 -->
<g id="node2" class="node"><title>Node9</title>
<g id="a_node2"><a xlink:href="class_igor_1_1i_physics_user_mesh_collision_handler.html#adafe185350abd149f9e0304a06b099c0" target="_top" xlink:title=" ">
<polygon fill="white" stroke="black" points="152,-0.5 152,-30.5 309,-30.5 309,-0.5 152,-0.5"/>
<text text-anchor="start" x="160" y="-18.5" font-family="Helvetica,sans-Serif" font-size="10.00">Igor::iPhysicsUserMeshCollision</text>
<text text-anchor="middle" x="230.5" y="-7.5" font-family="Helvetica,sans-Serif" font-size="10.00">Handler::testOverlapAABB</text>
</a>
</g>
</g>
<!-- Node8&#45;&gt;Node9 -->
<g id="edge1" class="edge"><title>Node8&#45;&gt;Node9</title>
<path fill="none" stroke="midnightblue" d="M116.248,-15.5C124.453,-15.5 133.048,-15.5 141.677,-15.5"/>
<polygon fill="midnightblue" stroke="midnightblue" points="141.802,-19.0001 151.802,-15.5 141.802,-12.0001 141.802,-19.0001"/>
</g>
<!-- Node10 -->
<g id="node3" class="node"><title>Node10</title>
<g id="a_node3"><a xlink:href="class_igor_1_1i_a_a_box.html#a19b29dd9c13b0d0e47fcc45711d819ab" target="_top" xlink:title=" ">
<polygon fill="white" stroke="black" points="345,-6 345,-25 436,-25 436,-6 345,-6"/>
<text text-anchor="middle" x="390.5" y="-13" font-family="Helvetica,sans-Serif" font-size="10.00">Igor::iAABox::set</text>
</a>
</g>
</g>
<!-- Node9&#45;&gt;Node10 -->
<g id="edge2" class="edge"><title>Node9&#45;&gt;Node10</title>
<path fill="none" stroke="midnightblue" d="M309.111,-15.5C317.672,-15.5 326.254,-15.5 334.455,-15.5"/>
<polygon fill="midnightblue" stroke="midnightblue" points="334.61,-19.0001 344.61,-15.5 334.61,-12.0001 334.61,-19.0001"/>
</g>
</g>
</svg>
