<?xml version="1.0" encoding="UTF-8" standalone="no"?>
<!DOCTYPE svg PUBLIC "-//W3C//DTD SVG 1.1//EN"
 "http://www.w3.org/Graphics/SVG/1.1/DTD/svg11.dtd">
<!-- Generated by graphviz version 2.38.0 (20140413.2041)
 -->
<!-- Title: Igor::iMeshBuilderUtils::addCircle Pages: 1 -->
<svg width="638pt" height="88pt"
 viewBox="0.00 0.00 638.00 88.00" xmlns="http://www.w3.org/2000/svg" xmlns:xlink="http://www.w3.org/1999/xlink">
<g id="graph0" class="graph" transform="scale(1 1) rotate(0) translate(4 84)">
<title>Igor::iMeshBuilderUtils::addCircle</title>
<polygon fill="white" stroke="none" points="-4,4 -4,-84 634,-84 634,4 -4,4"/>
<!-- Node1 -->
<g id="node1" class="node"><title>Node1</title>
<polygon fill="#bfbfbf" stroke="black" points="0,-24.5 0,-54.5 114,-54.5 114,-24.5 0,-24.5"/>
<text text-anchor="start" x="8" y="-42.5" font-family="Helvetica,sans-Serif" font-size="10.00">Igor::iMeshBuilderUtils</text>
<text text-anchor="middle" x="57" y="-31.5" font-family="Helvetica,sans-Serif" font-size="10.00">::addCircle</text>
</g>
<!-- Node2 -->
<g id="node2" class="node"><title>Node2</title>
<g id="a_node2"><a xlink:href="class_widget3_d_emitter.html#ad40f79fa12b87993a47aa5de9d8d29f5" target="_top" xlink:title="Widget3DEmitter::createDisc">
<polygon fill="white" stroke="black" points="150,-30 150,-49 293,-49 293,-30 150,-30"/>
<text text-anchor="middle" x="221.5" y="-37" font-family="Helvetica,sans-Serif" font-size="10.00">Widget3DEmitter::createDisc</text>
</a>
</g>
</g>
<!-- Node1&#45;&gt;Node2 -->
<g id="edge1" class="edge"><title>Node1&#45;&gt;Node2</title>
<path fill="none" stroke="midnightblue" d="M124.473,-39.5C132.858,-39.5 141.46,-39.5 149.905,-39.5"/>
<polygon fill="midnightblue" stroke="midnightblue" points="124.379,-36.0001 114.379,-39.5 124.379,-43.0001 124.379,-36.0001"/>
</g>
<!-- Node3 -->
<g id="node3" class="node"><title>Node3</title>
<g id="a_node3"><a xlink:href="class_widget3_d_emitter.html#ada67ed081bc12f2a99fb26918efe24e8" target="_top" xlink:title="Widget3DEmitter::update">
<polygon fill="white" stroke="black" points="329,-30 329,-49 455,-49 455,-30 329,-30"/>
<text text-anchor="middle" x="392" y="-37" font-family="Helvetica,sans-Serif" font-size="10.00">Widget3DEmitter::update</text>
</a>
</g>
</g>
<!-- Node2&#45;&gt;Node3 -->
<g id="edge2" class="edge"><title>Node2&#45;&gt;Node3</title>
<path fill="none" stroke="midnightblue" d="M303.475,-39.5C312.033,-39.5 320.636,-39.5 328.931,-39.5"/>
<polygon fill="midnightblue" stroke="midnightblue" points="303.471,-36.0001 293.471,-39.5 303.471,-43.0001 303.471,-36.0001"/>
</g>
<!-- Node4 -->
<g id="node4" class="node"><title>Node4</title>
<g id="a_node4"><a xlink:href="class_widget3_d_emitter.html#a363f3a0acfbb9f55c5bfd54c326f2935" target="_top" xlink:title="Widget3DEmitter::Widget3\lDEmitter">
<polygon fill="white" stroke="black" points="494,-49.5 494,-79.5 627,-79.5 627,-49.5 494,-49.5"/>
<text text-anchor="start" x="502" y="-67.5" font-family="Helvetica,sans-Serif" font-size="10.00">Widget3DEmitter::Widget3</text>
<text text-anchor="middle" x="560.5" y="-56.5" font-family="Helvetica,sans-Serif" font-size="10.00">DEmitter</text>
</a>
</g>
</g>
<!-- Node3&#45;&gt;Node4 -->
<g id="edge3" class="edge"><title>Node3&#45;&gt;Node4</title>
<path fill="none" stroke="midnightblue" d="M465.592,-50.3996C475.006,-51.8132 484.605,-53.2545 493.896,-54.6496"/>
<polygon fill="midnightblue" stroke="midnightblue" points="465.881,-46.9039 455.472,-48.8802 464.842,-53.8263 465.881,-46.9039"/>
</g>
<!-- Node5 -->
<g id="node5" class="node"><title>Node5</title>
<g id="a_node5"><a xlink:href="class_widget3_d_emitter.html#a87ddec2cb5f9e7c5c7f40a84deb63e26" target="_top" xlink:title="Widget3DEmitter::~Widget3\lDEmitter">
<polygon fill="white" stroke="black" points="491,-0.5 491,-30.5 630,-30.5 630,-0.5 491,-0.5"/>
<text text-anchor="start" x="499" y="-18.5" font-family="Helvetica,sans-Serif" font-size="10.00">Widget3DEmitter::~Widget3</text>
<text text-anchor="middle" x="560.5" y="-7.5" font-family="Helvetica,sans-Serif" font-size="10.00">DEmitter</text>
</a>
</g>
</g>
<!-- Node3&#45;&gt;Node5 -->
<g id="edge4" class="edge"><title>Node3&#45;&gt;Node5</title>
<path fill="none" stroke="midnightblue" d="M465.594,-29.036C473.97,-27.8286 482.493,-26.6001 490.816,-25.4004"/>
<polygon fill="midnightblue" stroke="midnightblue" points="464.87,-25.604 455.472,-30.495 465.869,-32.5324 464.87,-25.604"/>
</g>
</g>
</svg>
