<?xml version="1.0" encoding="UTF-8" standalone="no"?>
<!DOCTYPE svg PUBLIC "-//W3C//DTD SVG 1.1//EN"
 "http://www.w3.org/Graphics/SVG/1.1/DTD/svg11.dtd">
<!-- Generated by graphviz version 2.38.0 (20140413.2041)
 -->
<!-- Title: IgorAux::startup Pages: 1 -->
<svg width="264pt" height="127pt"
 viewBox="0.00 0.00 264.00 126.50" xmlns="http://www.w3.org/2000/svg" xmlns:xlink="http://www.w3.org/1999/xlink">
<g id="graph0" class="graph" transform="scale(1 1) rotate(0) translate(4 122.5)">
<title>IgorAux::startup</title>
<polygon fill="white" stroke="none" points="-4,4 -4,-122.5 260,-122.5 260,4 -4,4"/>
<!-- Node95 -->
<g id="node1" class="node"><title>Node95</title>
<g id="a_node1"><a xlink:title=" ">
<polygon fill="#bfbfbf" stroke="black" points="0,-55 0,-74 86,-74 86,-55 0,-55"/>
<text text-anchor="middle" x="43" y="-62" font-family="Helvetica,sans-Serif" font-size="10.00">IgorAux::startup</text>
</a>
</g>
</g>
<!-- Node96 -->
<g id="node2" class="node"><title>Node96</title>
<g id="a_node2"><a xlink:href="class_igor_aux_1_1ia_clock.html#a9f5c16561acde973d199f6e3ecf84835" target="_top" xlink:title=" ">
<polygon fill="white" stroke="black" points="123.5,-99 123.5,-118 254.5,-118 254.5,-99 123.5,-99"/>
<text text-anchor="middle" x="189" y="-106" font-family="Helvetica,sans-Serif" font-size="10.00">IgorAux::iaClock::initClock</text>
</a>
</g>
</g>
<!-- Node95&#45;&gt;Node96 -->
<g id="edge1" class="edge"><title>Node95&#45;&gt;Node96</title>
<path fill="none" stroke="midnightblue" d="M73.1965,-74.0859C87.8175,-78.8281 105.81,-84.5763 122,-89.5 129.218,-91.6952 136.9,-93.9659 144.375,-96.1408"/>
<polygon fill="midnightblue" stroke="midnightblue" points="143.449,-99.5162 154.027,-98.9302 145.392,-92.7913 143.449,-99.5162"/>
</g>
<!-- Node97 -->
<g id="node3" class="node"><title>Node97</title>
<g id="a_node3"><a xlink:href="class_igor_aux_1_1ia_singleton.html#a821f1d891129e6d09b992be81094540e" target="_top" xlink:title=" ">
<polygon fill="white" stroke="black" points="122,-49.5 122,-79.5 256,-79.5 256,-49.5 122,-49.5"/>
<text text-anchor="start" x="130" y="-67.5" font-family="Helvetica,sans-Serif" font-size="10.00">IgorAux::iaSingleton</text>
<text text-anchor="middle" x="189" y="-56.5" font-family="Helvetica,sans-Serif" font-size="10.00">&lt; iaConsole &gt;::getInstance</text>
</a>
</g>
</g>
<!-- Node95&#45;&gt;Node97 -->
<g id="edge2" class="edge"><title>Node95&#45;&gt;Node97</title>
<path fill="none" stroke="midnightblue" d="M86.0379,-64.5C94.0929,-64.5 102.757,-64.5 111.51,-64.5"/>
<polygon fill="midnightblue" stroke="midnightblue" points="111.794,-68.0001 121.794,-64.5 111.794,-61.0001 111.794,-68.0001"/>
</g>
<!-- Node98 -->
<g id="node4" class="node"><title>Node98</title>
<g id="a_node4"><a xlink:href="class_igor_aux_1_1ia_console.html#ab2b1bdc5e85c24837552dd8ee54512ef" target="_top" xlink:title=" ">
<polygon fill="white" stroke="black" points="140,-0.5 140,-30.5 238,-30.5 238,-0.5 140,-0.5"/>
<text text-anchor="start" x="148" y="-18.5" font-family="Helvetica,sans-Serif" font-size="10.00">IgorAux::iaConsole</text>
<text text-anchor="middle" x="189" y="-7.5" font-family="Helvetica,sans-Serif" font-size="10.00">::openLogfile</text>
</a>
</g>
</g>
<!-- Node95&#45;&gt;Node98 -->
<g id="edge3" class="edge"><title>Node95&#45;&gt;Node98</title>
<path fill="none" stroke="midnightblue" d="M72.1065,-54.936C89.7801,-48.9221 113.16,-40.9665 134.289,-33.7768"/>
<polygon fill="midnightblue" stroke="midnightblue" points="135.47,-37.0718 143.81,-30.537 133.215,-30.445 135.47,-37.0718"/>
</g>
</g>
</svg>
