<?xml version="1.0" encoding="UTF-8" standalone="no"?>
<!DOCTYPE svg PUBLIC "-//W3C//DTD SVG 1.1//EN"
 "http://www.w3.org/Graphics/SVG/1.1/DTD/svg11.dtd">
<!-- Generated by graphviz version 2.38.0 (20140413.2041)
 -->
<!-- Title: Igor::startup Pages: 1 -->
<svg width="690pt" height="457pt"
 viewBox="0.00 0.00 690.00 457.00" xmlns="http://www.w3.org/2000/svg" xmlns:xlink="http://www.w3.org/1999/xlink">
<g id="graph0" class="graph" transform="scale(1 1) rotate(0) translate(4 453)">
<title>Igor::startup</title>
<polygon fill="white" stroke="none" points="-4,4 -4,-453 686,-453 686,4 -4,4"/>
<!-- Node249 -->
<g id="node1" class="node"><title>Node249</title>
<g id="a_node1"><a xlink:title=" ">
<polygon fill="#bfbfbf" stroke="black" points="0,-166.5 0,-185.5 68,-185.5 68,-166.5 0,-166.5"/>
<text text-anchor="middle" x="34" y="-173.5" font-family="Helvetica,sans-Serif" font-size="10.00">Igor::startup</text>
</a>
</g>
</g>
<!-- Node250 -->
<g id="node2" class="node"><title>Node250</title>
<g id="a_node2"><a xlink:href="namespace_igor_aux.html#aba920763eec5d3b65199d4d73bfdbef7" target="_top" xlink:title=" ">
<polygon fill="white" stroke="black" points="131,-360.5 131,-379.5 217,-379.5 217,-360.5 131,-360.5"/>
<text text-anchor="middle" x="174" y="-367.5" font-family="Helvetica,sans-Serif" font-size="10.00">IgorAux::startup</text>
</a>
</g>
</g>
<!-- Node249&#45;&gt;Node250 -->
<g id="edge1" class="edge"><title>Node249&#45;&gt;Node250</title>
<path fill="none" stroke="midnightblue" d="M39.1452,-185.736C48.7336,-207.682 73.938,-262.196 104,-302 118.71,-321.477 138.917,-340.725 153.66,-353.743"/>
<polygon fill="midnightblue" stroke="midnightblue" points="151.371,-356.391 161.22,-360.297 155.957,-351.102 151.371,-356.391"/>
</g>
<!-- Node254 -->
<g id="node6" class="node"><title>Node254</title>
<g id="a_node6"><a xlink:href="namespace_igor.html#a1fbeba8576121a573f03c2e05d84477f" target="_top" xlink:title=" ">
<polygon fill="white" stroke="black" points="138,-273.5 138,-292.5 210,-292.5 210,-273.5 138,-273.5"/>
<text text-anchor="middle" x="174" y="-280.5" font-family="Helvetica,sans-Serif" font-size="10.00">Igor::printInfo</text>
</a>
</g>
</g>
<!-- Node249&#45;&gt;Node254 -->
<g id="edge5" class="edge"><title>Node249&#45;&gt;Node254</title>
<path fill="none" stroke="midnightblue" d="M39.8125,-185.593C49.43,-203.765 72.8083,-243.239 104,-264 111.211,-268.8 119.612,-272.394 128.02,-275.084"/>
<polygon fill="midnightblue" stroke="midnightblue" points="127.248,-278.503 137.823,-277.845 129.146,-271.765 127.248,-278.503"/>
</g>
<!-- Node262 -->
<g id="node14" class="node"><title>Node262</title>
<g id="a_node14"><a xlink:href="class_igor_aux_1_1ia_file.html#a17e13f21e78652ef9435338acedf2832" target="_top" xlink:title=" ">
<polygon fill="white" stroke="black" points="121,-235.5 121,-254.5 227,-254.5 227,-235.5 121,-235.5"/>
<text text-anchor="middle" x="174" y="-242.5" font-family="Helvetica,sans-Serif" font-size="10.00">IgorAux::iaFile::exist</text>
</a>
</g>
</g>
<!-- Node249&#45;&gt;Node262 -->
<g id="edge16" class="edge"><title>Node249&#45;&gt;Node262</title>
<path fill="none" stroke="midnightblue" d="M45.9749,-185.585C59.0024,-196.519 81.7719,-214.268 104,-225 109.675,-227.74 115.799,-230.178 121.972,-232.326"/>
<polygon fill="midnightblue" stroke="midnightblue" points="121.065,-235.711 131.657,-235.464 123.223,-229.052 121.065,-235.711"/>
</g>
<!-- Node263 -->
<g id="node15" class="node"><title>Node263</title>
<g id="a_node15"><a xlink:href="class_igor_1_1i_config_reader.html#a9b1620ce0279dfdf14e67310aa217d0b" target="_top" xlink:title=" ">
<polygon fill="white" stroke="black" points="125,-186 125,-216 223,-216 223,-186 125,-186"/>
<text text-anchor="start" x="133" y="-204" font-family="Helvetica,sans-Serif" font-size="10.00">Igor::iConfigReader</text>
<text text-anchor="middle" x="174" y="-193" font-family="Helvetica,sans-Serif" font-size="10.00">::readConfiguration</text>
</a>
</g>
</g>
<!-- Node249&#45;&gt;Node263 -->
<g id="edge17" class="edge"><title>Node249&#45;&gt;Node263</title>
<path fill="none" stroke="midnightblue" d="M68.0544,-181.988C81.9869,-184.512 98.632,-187.528 114.516,-190.405"/>
<polygon fill="midnightblue" stroke="midnightblue" points="114.344,-193.931 124.808,-192.27 115.592,-187.043 114.344,-193.931"/>
</g>
<!-- Node265 -->
<g id="node17" class="node"><title>Node265</title>
<g id="a_node17"><a xlink:href="class_igor_aux_1_1ia_file.html#a0e3107c94c9e4d1c31981166f421ee0f" target="_top" xlink:title=" ">
<polygon fill="white" stroke="black" points="117,-137 117,-167 231,-167 231,-137 117,-137"/>
<text text-anchor="start" x="125" y="-155" font-family="Helvetica,sans-Serif" font-size="10.00">IgorAux::iaFile::getFull</text>
<text text-anchor="middle" x="174" y="-144" font-family="Helvetica,sans-Serif" font-size="10.00">FileName</text>
</a>
</g>
</g>
<!-- Node249&#45;&gt;Node265 -->
<g id="edge19" class="edge"><title>Node249&#45;&gt;Node265</title>
<path fill="none" stroke="midnightblue" d="M68.0544,-170.251C79.6825,-168.229 93.2003,-165.878 106.588,-163.55"/>
<polygon fill="midnightblue" stroke="midnightblue" points="107.514,-166.941 116.767,-161.78 106.315,-160.045 107.514,-166.941"/>
</g>
<!-- Node266 -->
<g id="node18" class="node"><title>Node266</title>
<g id="a_node18"><a xlink:href="class_igor_aux_1_1ia_directory.html#af36b64f70daf80bb6b60ee36fe9fdc02" target="_top" xlink:title=" ">
<polygon fill="white" stroke="black" points="120.5,-88 120.5,-118 227.5,-118 227.5,-88 120.5,-88"/>
<text text-anchor="start" x="128.5" y="-106" font-family="Helvetica,sans-Serif" font-size="10.00">IgorAux::iaDirectory</text>
<text text-anchor="middle" x="174" y="-95" font-family="Helvetica,sans-Serif" font-size="10.00">::setCurrentDirectory</text>
</a>
</g>
</g>
<!-- Node249&#45;&gt;Node266 -->
<g id="edge20" class="edge"><title>Node249&#45;&gt;Node266</title>
<path fill="none" stroke="midnightblue" d="M46.5505,-166.235C59.7459,-155.463 82.3231,-138.179 104,-127 107.452,-125.22 111.066,-123.522 114.753,-121.912"/>
<polygon fill="midnightblue" stroke="midnightblue" points="116.106,-125.141 124.019,-118.096 113.44,-118.668 116.106,-125.141"/>
</g>
<!-- Node267 -->
<g id="node19" class="node"><title>Node267</title>
<g id="a_node19"><a xlink:href="class_igor_aux_1_1ia_directory.html#a6cf94c9a16a01913992b16b24782757b" target="_top" xlink:title=" ">
<polygon fill="white" stroke="black" points="112.5,-39 112.5,-69 235.5,-69 235.5,-39 112.5,-39"/>
<text text-anchor="start" x="120.5" y="-57" font-family="Helvetica,sans-Serif" font-size="10.00">IgorAux::iaDirectory</text>
<text text-anchor="middle" x="174" y="-46" font-family="Helvetica,sans-Serif" font-size="10.00">::getApplicationDirectory</text>
</a>
</g>
</g>
<!-- Node249&#45;&gt;Node267 -->
<g id="edge22" class="edge"><title>Node249&#45;&gt;Node267</title>
<path fill="none" stroke="midnightblue" d="M39.2276,-166.42C48.2887,-146.955 71.4352,-102.553 104,-78 105.851,-76.6041 107.79,-75.2852 109.795,-74.0394"/>
<polygon fill="midnightblue" stroke="midnightblue" points="111.845,-76.907 118.934,-69.0334 108.482,-70.7676 111.845,-76.907"/>
</g>
<!-- Node269 -->
<g id="node21" class="node"><title>Node269</title>
<g id="a_node21"><a xlink:href="class_igor_aux_1_1ia_file.html#a0a9b59fbb16f5c2bca184af5ba946b67" target="_top" xlink:title=" ">
<polygon fill="white" stroke="black" points="104,-0.5 104,-19.5 244,-19.5 244,-0.5 104,-0.5"/>
<text text-anchor="middle" x="174" y="-7.5" font-family="Helvetica,sans-Serif" font-size="10.00">IgorAux::iaFile::getFileName</text>
</a>
</g>
</g>
<!-- Node249&#45;&gt;Node269 -->
<g id="edge24" class="edge"><title>Node249&#45;&gt;Node269</title>
<path fill="none" stroke="midnightblue" d="M36.6386,-166.42C41.6348,-140.215 59.1615,-66.7914 104,-29 105.995,-27.3184 108.127,-25.7849 110.36,-24.3864"/>
<polygon fill="midnightblue" stroke="midnightblue" points="112.177,-27.3859 119.399,-19.6345 108.919,-21.19 112.177,-27.3859"/>
</g>
<!-- Node251 -->
<g id="node3" class="node"><title>Node251</title>
<g id="a_node3"><a xlink:href="class_igor_aux_1_1ia_clock.html#a9f5c16561acde973d199f6e3ecf84835" target="_top" xlink:title=" ">
<polygon fill="white" stroke="black" points="281.5,-429.5 281.5,-448.5 412.5,-448.5 412.5,-429.5 281.5,-429.5"/>
<text text-anchor="middle" x="347" y="-436.5" font-family="Helvetica,sans-Serif" font-size="10.00">IgorAux::iaClock::initClock</text>
</a>
</g>
</g>
<!-- Node250&#45;&gt;Node251 -->
<g id="edge2" class="edge"><title>Node250&#45;&gt;Node251</title>
<path fill="none" stroke="midnightblue" d="M192.816,-379.594C213.395,-390.412 248.471,-408.048 280,-420 286,-422.275 292.393,-424.432 298.75,-426.422"/>
<polygon fill="midnightblue" stroke="midnightblue" points="298.063,-429.87 308.648,-429.403 300.082,-423.168 298.063,-429.87"/>
</g>
<!-- Node252 -->
<g id="node4" class="node"><title>Node252</title>
<g id="a_node4"><a xlink:href="class_igor_aux_1_1ia_singleton.html#a821f1d891129e6d09b992be81094540e" target="_top" xlink:title=" ">
<polygon fill="white" stroke="black" points="280,-331 280,-361 414,-361 414,-331 280,-331"/>
<text text-anchor="start" x="288" y="-349" font-family="Helvetica,sans-Serif" font-size="10.00">IgorAux::iaSingleton</text>
<text text-anchor="middle" x="347" y="-338" font-family="Helvetica,sans-Serif" font-size="10.00">&lt; iaConsole &gt;::getInstance</text>
</a>
</g>
</g>
<!-- Node250&#45;&gt;Node252 -->
<g id="edge3" class="edge"><title>Node250&#45;&gt;Node252</title>
<path fill="none" stroke="midnightblue" d="M217.27,-364.067C233.208,-361.83 251.867,-359.212 269.954,-356.673"/>
<polygon fill="midnightblue" stroke="midnightblue" points="270.507,-360.13 279.923,-355.274 269.534,-353.198 270.507,-360.13"/>
</g>
<!-- Node253 -->
<g id="node5" class="node"><title>Node253</title>
<g id="a_node5"><a xlink:href="class_igor_aux_1_1ia_console.html#ab2b1bdc5e85c24837552dd8ee54512ef" target="_top" xlink:title=" ">
<polygon fill="white" stroke="black" points="298,-380 298,-410 396,-410 396,-380 298,-380"/>
<text text-anchor="start" x="306" y="-398" font-family="Helvetica,sans-Serif" font-size="10.00">IgorAux::iaConsole</text>
<text text-anchor="middle" x="347" y="-387" font-family="Helvetica,sans-Serif" font-size="10.00">::openLogfile</text>
</a>
</g>
</g>
<!-- Node250&#45;&gt;Node253 -->
<g id="edge4" class="edge"><title>Node250&#45;&gt;Node253</title>
<path fill="none" stroke="midnightblue" d="M217.27,-376.18C238.55,-379.291 264.678,-383.111 287.821,-386.494"/>
<polygon fill="midnightblue" stroke="midnightblue" points="287.473,-389.981 297.875,-387.964 288.486,-383.054 287.473,-389.981"/>
</g>
<!-- Node254&#45;&gt;Node252 -->
<g id="edge6" class="edge"><title>Node254&#45;&gt;Node252</title>
<path fill="none" stroke="midnightblue" d="M200.971,-292.568C225.926,-301.762 264.312,-315.905 295.325,-327.33"/>
<polygon fill="midnightblue" stroke="midnightblue" points="294.516,-330.762 305.109,-330.935 296.936,-324.194 294.516,-330.762"/>
</g>
<!-- Node255 -->
<g id="node7" class="node"><title>Node255</title>
<g id="a_node7"><a xlink:href="namespace_igor_aux.html#a7dce861889a3c2884129ceb9d03ddb24" target="_top" xlink:title=" ">
<polygon fill="white" stroke="black" points="306,-292.5 306,-311.5 388,-311.5 388,-292.5 306,-292.5"/>
<text text-anchor="middle" x="347" y="-299.5" font-family="Helvetica,sans-Serif" font-size="10.00">IgorAux::LOCK</text>
</a>
</g>
</g>
<!-- Node254&#45;&gt;Node255 -->
<g id="edge7" class="edge"><title>Node254&#45;&gt;Node255</title>
<path fill="none" stroke="midnightblue" d="M210.017,-286.891C234.71,-289.634 268.156,-293.351 295.698,-296.411"/>
<polygon fill="midnightblue" stroke="midnightblue" points="295.609,-299.922 305.934,-297.548 296.382,-292.965 295.609,-299.922"/>
</g>
<!-- Node257 -->
<g id="node9" class="node"><title>Node257</title>
<g id="a_node9"><a xlink:href="namespace_igor_aux.html#a95ee90eb942654df4ba5c9f4eb0517f0" target="_top" xlink:title=" ">
<polygon fill="white" stroke="black" points="462,-229.5 462,-248.5 536,-248.5 536,-229.5 462,-229.5"/>
<text text-anchor="middle" x="499" y="-236.5" font-family="Helvetica,sans-Serif" font-size="10.00">IgorAux::endl</text>
</a>
</g>
</g>
<!-- Node254&#45;&gt;Node257 -->
<g id="edge10" class="edge"><title>Node254&#45;&gt;Node257</title>
<path fill="none" stroke="midnightblue" d="M210.182,-278.207C268.848,-270.216 386.638,-254.17 451.874,-245.283"/>
<polygon fill="midnightblue" stroke="midnightblue" points="452.44,-248.739 461.876,-243.921 451.495,-241.803 452.44,-248.739"/>
</g>
<!-- Node259 -->
<g id="node11" class="node"><title>Node259</title>
<g id="a_node11"><a xlink:href="namespace_igor_aux.html#ab41772b65bbf298c005b49c1353ed50c" target="_top" xlink:title=" ">
<polygon fill="white" stroke="black" points="299.5,-166.5 299.5,-185.5 394.5,-185.5 394.5,-166.5 299.5,-166.5"/>
<text text-anchor="middle" x="347" y="-173.5" font-family="Helvetica,sans-Serif" font-size="10.00">IgorAux::UNLOCK</text>
</a>
</g>
</g>
<!-- Node254&#45;&gt;Node259 -->
<g id="edge12" class="edge"><title>Node254&#45;&gt;Node259</title>
<path fill="none" stroke="midnightblue" d="M210.226,-279.047C221.943,-276.32 234.43,-271.728 244,-264 270.911,-242.269 253.215,-216.887 280,-195 283.08,-192.483 286.478,-190.3 290.059,-188.405"/>
<polygon fill="midnightblue" stroke="midnightblue" points="291.576,-191.561 299.26,-184.267 288.704,-185.177 291.576,-191.561"/>
</g>
<!-- Node261 -->
<g id="node13" class="node"><title>Node261</title>
<g id="a_node13"><a xlink:href="class_igor_aux_1_1ia_console.html#a4d37492837cbe157cb3145eecafedbd8" target="_top" xlink:title=" ">
<polygon fill="white" stroke="black" points="298,-205 298,-235 396,-235 396,-205 298,-205"/>
<text text-anchor="start" x="306" y="-223" font-family="Helvetica,sans-Serif" font-size="10.00">IgorAux::iaConsole</text>
<text text-anchor="middle" x="347" y="-212" font-family="Helvetica,sans-Serif" font-size="10.00">::printCake</text>
</a>
</g>
</g>
<!-- Node254&#45;&gt;Node261 -->
<g id="edge14" class="edge"><title>Node254&#45;&gt;Node261</title>
<path fill="none" stroke="midnightblue" d="M210.039,-274.361C221.011,-271.387 233.098,-267.832 244,-264 255.542,-259.943 280.697,-249.1 303.137,-239.194"/>
<polygon fill="midnightblue" stroke="midnightblue" points="304.815,-242.279 312.54,-235.028 301.98,-235.879 304.815,-242.279"/>
</g>
<!-- Node256 -->
<g id="node8" class="node"><title>Node256</title>
<g id="a_node8"><a xlink:href="class_igor_aux_1_1ia_console.html#a025216d7b2e29420a663e8119b937ed4" target="_top" xlink:title=" ">
<polygon fill="white" stroke="black" points="450,-287 450,-317 548,-317 548,-287 450,-287"/>
<text text-anchor="start" x="458" y="-305" font-family="Helvetica,sans-Serif" font-size="10.00">IgorAux::iaConsole</text>
<text text-anchor="middle" x="499" y="-294" font-family="Helvetica,sans-Serif" font-size="10.00">::lock</text>
</a>
</g>
</g>
<!-- Node255&#45;&gt;Node256 -->
<g id="edge8" class="edge"><title>Node255&#45;&gt;Node256</title>
<path fill="none" stroke="midnightblue" d="M388.197,-302C404.084,-302 422.648,-302 439.944,-302"/>
<polygon fill="midnightblue" stroke="midnightblue" points="439.951,-305.5 449.951,-302 439.951,-298.5 439.951,-305.5"/>
</g>
<!-- Node256&#45;&gt;Node256 -->
<g id="edge9" class="edge"><title>Node256&#45;&gt;Node256</title>
<path fill="none" stroke="midnightblue" d="M475.648,-317.159C470.017,-326.557 477.801,-335.5 499,-335.5 511.918,-335.5 519.855,-332.179 522.81,-327.458"/>
<polygon fill="midnightblue" stroke="midnightblue" points="526.293,-326.994 522.352,-317.159 519.3,-327.305 526.293,-326.994"/>
</g>
<!-- Node258 -->
<g id="node10" class="node"><title>Node258</title>
<g id="a_node10"><a xlink:href="class_igor_aux_1_1ia_console.html#ae699009a9e7a3a7ec01bd2df43bc7a84" target="_top" xlink:title=" ">
<polygon fill="white" stroke="black" points="584,-224 584,-254 682,-254 682,-224 584,-224"/>
<text text-anchor="start" x="592" y="-242" font-family="Helvetica,sans-Serif" font-size="10.00">IgorAux::iaConsole</text>
<text text-anchor="middle" x="633" y="-231" font-family="Helvetica,sans-Serif" font-size="10.00">::setTextColor</text>
</a>
</g>
</g>
<!-- Node257&#45;&gt;Node258 -->
<g id="edge11" class="edge"><title>Node257&#45;&gt;Node258</title>
<path fill="none" stroke="midnightblue" d="M536.07,-239C547.634,-239 560.754,-239 573.496,-239"/>
<polygon fill="midnightblue" stroke="midnightblue" points="573.598,-242.5 583.598,-239 573.598,-235.5 573.598,-242.5"/>
</g>
<!-- Node260 -->
<g id="node12" class="node"><title>Node260</title>
<g id="a_node12"><a xlink:href="class_igor_aux_1_1ia_console.html#ac2ec4404fbf045cefd3c95f31ace3af2" target="_top" xlink:title=" ">
<polygon fill="white" stroke="black" points="450,-161 450,-191 548,-191 548,-161 450,-161"/>
<text text-anchor="start" x="458" y="-179" font-family="Helvetica,sans-Serif" font-size="10.00">IgorAux::iaConsole</text>
<text text-anchor="middle" x="499" y="-168" font-family="Helvetica,sans-Serif" font-size="10.00">::unlock</text>
</a>
</g>
</g>
<!-- Node259&#45;&gt;Node260 -->
<g id="edge13" class="edge"><title>Node259&#45;&gt;Node260</title>
<path fill="none" stroke="midnightblue" d="M394.639,-176C408.893,-176 424.751,-176 439.68,-176"/>
<polygon fill="midnightblue" stroke="midnightblue" points="439.836,-179.5 449.836,-176 439.836,-172.5 439.836,-179.5"/>
</g>
<!-- Node261&#45;&gt;Node257 -->
<g id="edge15" class="edge"><title>Node261&#45;&gt;Node257</title>
<path fill="none" stroke="midnightblue" d="M396.287,-226.116C414.042,-228.365 434.094,-230.905 451.673,-233.132"/>
<polygon fill="midnightblue" stroke="midnightblue" points="451.341,-236.618 461.701,-234.402 452.22,-229.673 451.341,-236.618"/>
</g>
<!-- Node264 -->
<g id="node16" class="node"><title>Node264</title>
<g id="a_node16"><a xlink:href="class_igor_aux_1_1ia_string.html#a8617a0d26ed0c5b4e1b99223f5ac57ff" target="_top" xlink:title=" ">
<polygon fill="white" stroke="black" points="299.5,-102 299.5,-132 394.5,-132 394.5,-102 299.5,-102"/>
<text text-anchor="start" x="307.5" y="-120" font-family="Helvetica,sans-Serif" font-size="10.00">IgorAux::iaString::</text>
<text text-anchor="middle" x="347" y="-109" font-family="Helvetica,sans-Serif" font-size="10.00">getData</text>
</a>
</g>
</g>
<!-- Node263&#45;&gt;Node264 -->
<g id="edge18" class="edge"><title>Node263&#45;&gt;Node264</title>
<path fill="none" stroke="midnightblue" d="M220.01,-185.997C228.099,-182.933 236.378,-179.551 244,-176 257.377,-169.767 288.075,-151.819 312.321,-137.341"/>
<polygon fill="midnightblue" stroke="midnightblue" points="314.137,-140.333 320.918,-132.192 310.54,-134.328 314.137,-140.333"/>
</g>
<!-- Node266&#45;&gt;Node264 -->
<g id="edge21" class="edge"><title>Node266&#45;&gt;Node264</title>
<path fill="none" stroke="midnightblue" d="M227.701,-107.315C247.172,-108.909 269.318,-110.722 289.141,-112.345"/>
<polygon fill="midnightblue" stroke="midnightblue" points="289.017,-115.846 299.269,-113.174 289.588,-108.87 289.017,-115.846"/>
</g>
<!-- Node268 -->
<g id="node20" class="node"><title>Node268</title>
<g id="a_node20"><a xlink:href="class_igor_aux_1_1ia_file.html#ad72dd9d9a50afcf574fc90e64d043d9b" target="_top" xlink:title=" ">
<polygon fill="white" stroke="black" points="287.5,-44.5 287.5,-63.5 406.5,-63.5 406.5,-44.5 287.5,-44.5"/>
<text text-anchor="middle" x="347" y="-51.5" font-family="Helvetica,sans-Serif" font-size="10.00">IgorAux::iaFile::getPath</text>
</a>
</g>
</g>
<!-- Node267&#45;&gt;Node268 -->
<g id="edge23" class="edge"><title>Node267&#45;&gt;Node268</title>
<path fill="none" stroke="midnightblue" d="M235.77,-54C249.157,-54 263.429,-54 277.111,-54"/>
<polygon fill="midnightblue" stroke="midnightblue" points="277.434,-57.5001 287.434,-54 277.434,-50.5001 277.434,-57.5001"/>
</g>
</g>
</svg>
