<?xml version="1.0" encoding="UTF-8" standalone="no"?>
<!DOCTYPE svg PUBLIC "-//W3C//DTD SVG 1.1//EN"
 "http://www.w3.org/Graphics/SVG/1.1/DTD/svg11.dtd">
<!-- Generated by graphviz version 2.38.0 (20140413.2041)
 -->
<!-- Title: IgorAux::startup Pages: 1 -->
<svg width="272pt" height="28pt"
 viewBox="0.00 0.00 272.00 28.00" xmlns="http://www.w3.org/2000/svg" xmlns:xlink="http://www.w3.org/1999/xlink">
<g id="graph0" class="graph" transform="scale(1 1) rotate(0) translate(4 24)">
<title>IgorAux::startup</title>
<polygon fill="white" stroke="none" points="-4,4 -4,-24 268,-24 268,4 -4,4"/>
<!-- Node1 -->
<g id="node1" class="node"><title>Node1</title>
<polygon fill="#bfbfbf" stroke="black" points="0,-0.5 0,-19.5 86,-19.5 86,-0.5 0,-0.5"/>
<text text-anchor="middle" x="43" y="-7.5" font-family="Helvetica,sans-Serif" font-size="10.00">IgorAux::startup</text>
</g>
<!-- Node2 -->
<g id="node2" class="node"><title>Node2</title>
<g id="a_node2"><a xlink:href="namespace_igor.html#a016335a59650872e308a07ef7d4143d0" target="_top" xlink:title="Igor::startup">
<polygon fill="white" stroke="black" points="122,-0.5 122,-19.5 190,-19.5 190,-0.5 122,-0.5"/>
<text text-anchor="middle" x="156" y="-7.5" font-family="Helvetica,sans-Serif" font-size="10.00">Igor::startup</text>
</a>
</g>
</g>
<!-- Node1&#45;&gt;Node2 -->
<g id="edge1" class="edge"><title>Node1&#45;&gt;Node2</title>
<path fill="none" stroke="midnightblue" d="M96.355,-10C105.02,-10 113.788,-10 121.809,-10"/>
<polygon fill="midnightblue" stroke="midnightblue" points="96.281,-6.5001 86.281,-10 96.281,-13.5001 96.281,-6.5001"/>
</g>
<!-- Node3 -->
<g id="node3" class="node"><title>Node3</title>
<g id="a_node3"><a xlink:href="_model_viewer_2src_2main_8cpp.html#a0ddf1224851353fc92bfbff6f499fa97" target="_top" xlink:title="main">
<polygon fill="white" stroke="black" points="226,-0.5 226,-19.5 264,-19.5 264,-0.5 226,-0.5"/>
<text text-anchor="middle" x="245" y="-7.5" font-family="Helvetica,sans-Serif" font-size="10.00">main</text>
</a>
</g>
</g>
<!-- Node2&#45;&gt;Node3 -->
<g id="edge2" class="edge"><title>Node2&#45;&gt;Node3</title>
<path fill="none" stroke="midnightblue" d="M200.458,-10C209.452,-10 218.447,-10 225.908,-10"/>
<polygon fill="midnightblue" stroke="midnightblue" points="200.388,-6.5001 190.388,-10 200.388,-13.5001 200.388,-6.5001"/>
</g>
</g>
</svg>
