<?xml version="1.0" encoding="UTF-8" standalone="no"?>
<!DOCTYPE svg PUBLIC "-//W3C//DTD SVG 1.1//EN"
 "http://www.w3.org/Graphics/SVG/1.1/DTD/svg11.dtd">
<!-- Generated by graphviz version 2.38.0 (20140413.2041)
 -->
<!-- Title: testing::internal::CopyArray Pages: 1 -->
<svg width="398pt" height="88pt"
 viewBox="0.00 0.00 398.00 88.00" xmlns="http://www.w3.org/2000/svg" xmlns:xlink="http://www.w3.org/1999/xlink">
<g id="graph0" class="graph" transform="scale(1 1) rotate(0) translate(4 84)">
<title>testing::internal::CopyArray</title>
<polygon fill="white" stroke="none" points="-4,4 -4,-84 394,-84 394,4 -4,4"/>
<!-- Node88 -->
<g id="node1" class="node"><title>Node88</title>
<g id="a_node1"><a xlink:title=" ">
<polygon fill="#bfbfbf" stroke="black" points="301,-24.5 301,-54.5 390,-54.5 390,-24.5 301,-24.5"/>
<text text-anchor="start" x="309" y="-42.5" font-family="Helvetica,sans-Serif" font-size="10.00">testing::internal::</text>
<text text-anchor="middle" x="345.5" y="-31.5" font-family="Helvetica,sans-Serif" font-size="10.00">CopyArray</text>
</a>
</g>
</g>
<!-- Node89 -->
<g id="node2" class="node"><title>Node89</title>
<g id="a_node2"><a xlink:href="namespacetesting_1_1internal.html#a1e7ae855686720615dcd5754c8181c62" target="_top" xlink:title=" ">
<polygon fill="white" stroke="black" points="167,-49.5 167,-79.5 256,-79.5 256,-49.5 167,-49.5"/>
<text text-anchor="start" x="175" y="-67.5" font-family="Helvetica,sans-Serif" font-size="10.00">testing::internal::</text>
<text text-anchor="middle" x="211.5" y="-56.5" font-family="Helvetica,sans-Serif" font-size="10.00">CopyArray</text>
</a>
</g>
</g>
<!-- Node88&#45;&gt;Node89 -->
<g id="edge1" class="edge"><title>Node88&#45;&gt;Node89</title>
<path fill="none" stroke="midnightblue" d="M290.901,-49.6513C279.31,-51.8465 267.191,-54.1419 256.042,-56.2534"/>
<polygon fill="midnightblue" stroke="midnightblue" points="291.738,-53.055 300.912,-47.7552 290.436,-46.1773 291.738,-53.055"/>
</g>
<!-- Node90 -->
<g id="node3" class="node"><title>Node90</title>
<g id="a_node3"><a xlink:href="classtesting_1_1internal_1_1_native_array.html#a8c0069cc09f559785fe4923fc118056f" target="_top" xlink:title=" ">
<polygon fill="white" stroke="black" points="158,-0.5 158,-30.5 265,-30.5 265,-0.5 158,-0.5"/>
<text text-anchor="start" x="166" y="-18.5" font-family="Helvetica,sans-Serif" font-size="10.00">testing::internal::</text>
<text text-anchor="middle" x="211.5" y="-7.5" font-family="Helvetica,sans-Serif" font-size="10.00">NativeArray::InitCopy</text>
</a>
</g>
</g>
<!-- Node88&#45;&gt;Node90 -->
<g id="edge2" class="edge"><title>Node88&#45;&gt;Node90</title>
<path fill="none" stroke="midnightblue" d="M290.798,-29.7361C282.362,-28.2022 273.647,-26.6177 265.233,-25.0878"/>
<polygon fill="midnightblue" stroke="midnightblue" points="290.448,-33.2296 300.912,-31.575 291.7,-26.3425 290.448,-33.2296"/>
</g>
<!-- Node91 -->
<g id="node4" class="node"><title>Node91</title>
<g id="a_node4"><a xlink:href="classtesting_1_1internal_1_1_native_array.html#ac184ee5741af5be3402213819c834405" target="_top" xlink:title=" ">
<polygon fill="white" stroke="black" points="0,-0.5 0,-30.5 122,-30.5 122,-0.5 0,-0.5"/>
<text text-anchor="start" x="8" y="-18.5" font-family="Helvetica,sans-Serif" font-size="10.00">testing::internal::</text>
<text text-anchor="middle" x="61" y="-7.5" font-family="Helvetica,sans-Serif" font-size="10.00">NativeArray::NativeArray</text>
</a>
</g>
</g>
<!-- Node90&#45;&gt;Node91 -->
<g id="edge3" class="edge"><title>Node90&#45;&gt;Node91</title>
<path fill="none" stroke="midnightblue" d="M147.591,-15.5C139.177,-15.5 130.563,-15.5 122.197,-15.5"/>
<polygon fill="midnightblue" stroke="midnightblue" points="147.726,-19.0001 157.726,-15.5 147.726,-12.0001 147.726,-19.0001"/>
</g>
</g>
</svg>
