<?xml version="1.0" encoding="UTF-8" standalone="no"?>
<!DOCTYPE svg PUBLIC "-//W3C//DTD SVG 1.1//EN"
 "http://www.w3.org/Graphics/SVG/1.1/DTD/svg11.dtd">
<!-- Generated by graphviz version 2.38.0 (20140413.2041)
 -->
<!-- Title: C:/dev/Igor/Igor/src/OMPF/src/ompfMeshChunk.cpp Pages: 1 -->
<svg width="1250pt" height="487pt"
 viewBox="0.00 0.00 1250.00 487.00" xmlns="http://www.w3.org/2000/svg" xmlns:xlink="http://www.w3.org/1999/xlink">
<g id="graph0" class="graph" transform="scale(1 1) rotate(0) translate(4 483)">
<title>C:/dev/Igor/Igor/src/OMPF/src/ompfMeshChunk.cpp</title>
<polygon fill="white" stroke="none" points="-4,4 -4,-483 1246,-483 1246,4 -4,4"/>
<!-- Node0 -->
<g id="node1" class="node"><title>Node0</title>
<g id="a_node1"><a xlink:title=" ">
<polygon fill="#bfbfbf" stroke="black" points="1083,-448.5 1083,-478.5 1242,-478.5 1242,-448.5 1083,-448.5"/>
<text text-anchor="start" x="1091" y="-466.5" font-family="Helvetica,sans-Serif" font-size="10.00">C:/dev/Igor/Igor/src</text>
<text text-anchor="middle" x="1162.5" y="-455.5" font-family="Helvetica,sans-Serif" font-size="10.00">/OMPF/src/ompfMeshChunk.cpp</text>
</a>
</g>
</g>
<!-- Node1 -->
<g id="node2" class="node"><title>Node1</title>
<g id="a_node2"><a xlink:href="ompf_mesh_chunk_8h.html" target="_top" xlink:title=" ">
<polygon fill="white" stroke="black" points="372.5,-392.5 372.5,-411.5 470.5,-411.5 470.5,-392.5 372.5,-392.5"/>
<text text-anchor="middle" x="421.5" y="-399.5" font-family="Helvetica,sans-Serif" font-size="10.00">ompfMeshChunk.h</text>
</a>
</g>
</g>
<!-- Node0&#45;&gt;Node1 -->
<g id="edge1" class="edge"><title>Node0&#45;&gt;Node1</title>
<path fill="none" stroke="midnightblue" d="M1082.85,-456.104C933.27,-444.094 613.519,-418.419 480.968,-407.775"/>
<polygon fill="midnightblue" stroke="midnightblue" points="480.866,-404.256 470.618,-406.944 480.306,-411.233 480.866,-404.256"/>
</g>
<!-- Node6 -->
<g id="node7" class="node"><title>Node6</title>
<g id="a_node7"><a xlink:href="ia_console_8h.html" target="_top" xlink:title=" ">
<polygon fill="white" stroke="black" points="876.5,-168.5 876.5,-187.5 944.5,-187.5 944.5,-168.5 876.5,-168.5"/>
<text text-anchor="middle" x="910.5" y="-175.5" font-family="Helvetica,sans-Serif" font-size="10.00">iaConsole.h</text>
</a>
</g>
</g>
<!-- Node0&#45;&gt;Node6 -->
<g id="edge57" class="edge"><title>Node0&#45;&gt;Node6</title>
<path fill="none" stroke="midnightblue" d="M1150,-448.441C1107.76,-400.913 970.382,-246.367 925.115,-195.442"/>
<polygon fill="midnightblue" stroke="midnightblue" points="927.479,-192.833 918.219,-187.684 922.247,-197.484 927.479,-192.833"/>
</g>
<!-- Node12 -->
<g id="node13" class="node"><title>Node12</title>
<g id="a_node13"><a xlink:title=" ">
<polygon fill="white" stroke="#bfbfbf" points="1145.5,-112.5 1145.5,-131.5 1195.5,-131.5 1195.5,-112.5 1145.5,-112.5"/>
<text text-anchor="middle" x="1170.5" y="-119.5" font-family="Helvetica,sans-Serif" font-size="10.00">iomanip</text>
</a>
</g>
</g>
<!-- Node0&#45;&gt;Node12 -->
<g id="edge58" class="edge"><title>Node0&#45;&gt;Node12</title>
<path fill="none" stroke="midnightblue" d="M1170.37,-448.407C1181.5,-427.125 1200.5,-385.208 1200.5,-347 1200.5,-347 1200.5,-347 1200.5,-233 1200.5,-199.64 1187.5,-162.532 1178.61,-141.067"/>
<polygon fill="midnightblue" stroke="midnightblue" points="1181.72,-139.421 1174.55,-131.621 1175.29,-142.19 1181.72,-139.421"/>
</g>
<!-- Node2 -->
<g id="node3" class="node"><title>Node2</title>
<g id="a_node3"><a xlink:href="ompf_base_chunk_8h.html" target="_top" xlink:title=" ">
<polygon fill="white" stroke="black" points="222.5,-336.5 222.5,-355.5 318.5,-355.5 318.5,-336.5 222.5,-336.5"/>
<text text-anchor="middle" x="270.5" y="-343.5" font-family="Helvetica,sans-Serif" font-size="10.00">ompfBaseChunk.h</text>
</a>
</g>
</g>
<!-- Node1&#45;&gt;Node2 -->
<g id="edge2" class="edge"><title>Node1&#45;&gt;Node2</title>
<path fill="none" stroke="midnightblue" d="M397.574,-392.444C372.281,-383.399 332.198,-369.064 303.82,-358.916"/>
<polygon fill="midnightblue" stroke="midnightblue" points="304.909,-355.588 294.314,-355.516 302.552,-362.179 304.909,-355.588"/>
</g>
<!-- Node13 -->
<g id="node14" class="node"><title>Node13</title>
<g id="a_node14"><a xlink:href="ia_color3_8h.html" target="_top" xlink:title=" ">
<polygon fill="white" stroke="black" points="1038.5,-168.5 1038.5,-187.5 1098.5,-187.5 1098.5,-168.5 1038.5,-168.5"/>
<text text-anchor="middle" x="1068.5" y="-175.5" font-family="Helvetica,sans-Serif" font-size="10.00">iaColor3.h</text>
</a>
</g>
</g>
<!-- Node1&#45;&gt;Node13 -->
<g id="edge54" class="edge"><title>Node1&#45;&gt;Node13</title>
<path fill="none" stroke="midnightblue" d="M470.501,-399.017C598.742,-392.881 940.152,-370.183 1024.5,-300 1055.47,-274.23 1064.64,-224.762 1067.36,-197.744"/>
<polygon fill="midnightblue" stroke="midnightblue" points="1070.85,-197.923 1068.17,-187.674 1063.88,-197.36 1070.85,-197.923"/>
</g>
<!-- Node15 -->
<g id="node16" class="node"><title>Node15</title>
<g id="a_node16"><a xlink:href="ia_vector3_8h.html" target="_top" xlink:title=" ">
<polygon fill="white" stroke="black" points="388.5,-168.5 388.5,-187.5 454.5,-187.5 454.5,-168.5 388.5,-168.5"/>
<text text-anchor="middle" x="421.5" y="-175.5" font-family="Helvetica,sans-Serif" font-size="10.00">iaVector3.h</text>
</a>
</g>
</g>
<!-- Node1&#45;&gt;Node15 -->
<g id="edge55" class="edge"><title>Node1&#45;&gt;Node15</title>
<path fill="none" stroke="midnightblue" d="M421.5,-392.297C421.5,-359.633 421.5,-243.866 421.5,-197.957"/>
<polygon fill="midnightblue" stroke="midnightblue" points="425,-197.884 421.5,-187.884 418,-197.884 425,-197.884"/>
</g>
<!-- Node30 -->
<g id="node31" class="node"><title>Node30</title>
<g id="a_node31"><a xlink:title=" ">
<polygon fill="white" stroke="#bfbfbf" points="358,-336.5 358,-355.5 393,-355.5 393,-336.5 358,-336.5"/>
<text text-anchor="middle" x="375.5" y="-343.5" font-family="Helvetica,sans-Serif" font-size="10.00">map</text>
</a>
</g>
</g>
<!-- Node1&#45;&gt;Node30 -->
<g id="edge56" class="edge"><title>Node1&#45;&gt;Node30</title>
<path fill="none" stroke="midnightblue" d="M413.904,-392.083C407.273,-384.298 397.479,-372.801 389.442,-363.367"/>
<polygon fill="midnightblue" stroke="midnightblue" points="392.104,-361.094 382.955,-355.751 386.775,-365.633 392.104,-361.094"/>
</g>
<!-- Node3 -->
<g id="node4" class="node"><title>Node3</title>
<g id="a_node4"><a xlink:href="ompf_defines_8h.html" target="_top" xlink:title=" ">
<polygon fill="white" stroke="black" points="244.5,-56.5 244.5,-75.5 322.5,-75.5 322.5,-56.5 244.5,-56.5"/>
<text text-anchor="middle" x="283.5" y="-63.5" font-family="Helvetica,sans-Serif" font-size="10.00">ompfDefines.h</text>
</a>
</g>
</g>
<!-- Node2&#45;&gt;Node3 -->
<g id="edge3" class="edge"><title>Node2&#45;&gt;Node3</title>
<path fill="none" stroke="midnightblue" d="M265.634,-336.49C248.351,-305.068 192.923,-193.201 230.5,-112 236.42,-99.2072 247.968,-88.7216 258.778,-81.1003"/>
<polygon fill="midnightblue" stroke="midnightblue" points="260.714,-84.0161 267.166,-75.613 256.882,-78.1581 260.714,-84.0161"/>
</g>
<!-- Node5 -->
<g id="node6" class="node"><title>Node5</title>
<g id="a_node6"><a xlink:href="ia_serializable_8h.html" target="_top" xlink:title=" ">
<polygon fill="white" stroke="black" points="736,-280.5 736,-299.5 819,-299.5 819,-280.5 736,-280.5"/>
<text text-anchor="middle" x="777.5" y="-287.5" font-family="Helvetica,sans-Serif" font-size="10.00">iaSerializable.h</text>
</a>
</g>
</g>
<!-- Node2&#45;&gt;Node5 -->
<g id="edge5" class="edge"><title>Node2&#45;&gt;Node5</title>
<path fill="none" stroke="midnightblue" d="M318.757,-339.353C328.596,-338.224 338.88,-337.06 348.5,-336 484.389,-321.034 644.625,-304.529 725.383,-296.291"/>
<polygon fill="midnightblue" stroke="midnightblue" points="726.177,-299.728 735.77,-295.232 725.467,-292.764 726.177,-299.728"/>
</g>
<!-- Node10 -->
<g id="node11" class="node"><title>Node10</title>
<g id="a_node11"><a xlink:title=" ">
<polygon fill="white" stroke="#bfbfbf" points="939,-112.5 939,-131.5 988,-131.5 988,-112.5 939,-112.5"/>
<text text-anchor="middle" x="963.5" y="-119.5" font-family="Helvetica,sans-Serif" font-size="10.00">fstream</text>
</a>
</g>
</g>
<!-- Node2&#45;&gt;Node10 -->
<g id="edge52" class="edge"><title>Node2&#45;&gt;Node10</title>
<path fill="none" stroke="midnightblue" d="M318.734,-339.13C328.575,-338.018 338.865,-336.918 348.5,-336 454.764,-325.88 729.216,-341.65 827.5,-300 896.487,-270.765 917.684,-253.811 953.5,-188 961.26,-173.741 963.485,-155.269 963.929,-141.664"/>
<polygon fill="midnightblue" stroke="midnightblue" points="967.43,-141.591 963.966,-131.578 960.43,-141.566 967.43,-141.591"/>
</g>
<!-- Node11 -->
<g id="node12" class="node"><title>Node11</title>
<g id="a_node12"><a xlink:title=" ">
<polygon fill="white" stroke="#bfbfbf" points="1006.5,-112.5 1006.5,-131.5 1060.5,-131.5 1060.5,-112.5 1006.5,-112.5"/>
<text text-anchor="middle" x="1033.5" y="-119.5" font-family="Helvetica,sans-Serif" font-size="10.00">iostream</text>
</a>
</g>
</g>
<!-- Node2&#45;&gt;Node11 -->
<g id="edge50" class="edge"><title>Node2&#45;&gt;Node11</title>
<path fill="none" stroke="midnightblue" d="M318.73,-339.092C328.572,-337.983 338.863,-336.893 348.5,-336 576.527,-314.87 638.546,-347.827 862.5,-300 979.587,-274.995 1048.84,-292.374 1107.5,-188 1120.05,-165.661 1092.55,-147.203 1067.59,-135.736"/>
<polygon fill="midnightblue" stroke="midnightblue" points="1068.8,-132.447 1058.24,-131.69 1066.03,-138.872 1068.8,-132.447"/>
</g>
<!-- Node17 -->
<g id="node18" class="node"><title>Node17</title>
<g id="a_node18"><a xlink:title=" ">
<polygon fill="white" stroke="#bfbfbf" points="239.5,-112.5 239.5,-131.5 291.5,-131.5 291.5,-112.5 239.5,-112.5"/>
<text text-anchor="middle" x="265.5" y="-119.5" font-family="Helvetica,sans-Serif" font-size="10.00">ostream</text>
</a>
</g>
</g>
<!-- Node2&#45;&gt;Node17 -->
<g id="edge53" class="edge"><title>Node2&#45;&gt;Node17</title>
<path fill="none" stroke="midnightblue" d="M270.304,-336.297C269.568,-303.633 266.961,-187.866 265.927,-141.957"/>
<polygon fill="midnightblue" stroke="midnightblue" points="269.424,-141.802 265.7,-131.884 262.426,-141.96 269.424,-141.802"/>
</g>
<!-- Node24 -->
<g id="node25" class="node"><title>Node24</title>
<g id="a_node25"><a xlink:title=" ">
<polygon fill="white" stroke="#bfbfbf" points="86.5,-168.5 86.5,-187.5 128.5,-187.5 128.5,-168.5 86.5,-168.5"/>
<text text-anchor="middle" x="107.5" y="-175.5" font-family="Helvetica,sans-Serif" font-size="10.00">vector</text>
</a>
</g>
</g>
<!-- Node2&#45;&gt;Node24 -->
<g id="edge51" class="edge"><title>Node2&#45;&gt;Node24</title>
<path fill="none" stroke="midnightblue" d="M248.715,-336.392C216.247,-322.335 155.844,-291.198 126.5,-244 117.673,-229.803 112.79,-211.325 110.193,-197.701"/>
<polygon fill="midnightblue" stroke="midnightblue" points="113.606,-196.889 108.513,-187.599 106.701,-198.037 113.606,-196.889"/>
</g>
<!-- Node28 -->
<g id="node29" class="node"><title>Node28</title>
<g id="a_node29"><a xlink:href="ia_mem_block_8h.html" target="_top" xlink:title=" ">
<polygon fill="white" stroke="black" points="0,-280.5 0,-299.5 79,-299.5 79,-280.5 0,-280.5"/>
<text text-anchor="middle" x="39.5" y="-287.5" font-family="Helvetica,sans-Serif" font-size="10.00">iaMemBlock.h</text>
</a>
</g>
</g>
<!-- Node2&#45;&gt;Node28 -->
<g id="edge44" class="edge"><title>Node2&#45;&gt;Node28</title>
<path fill="none" stroke="midnightblue" d="M233.897,-336.444C193.769,-327.063 129.302,-311.993 85.7154,-301.804"/>
<polygon fill="midnightblue" stroke="midnightblue" points="86.4656,-298.385 75.9314,-299.516 84.8721,-305.201 86.4656,-298.385"/>
</g>
<!-- Node29 -->
<g id="node30" class="node"><title>Node29</title>
<g id="a_node30"><a xlink:href="ia_string_8h.html" target="_top" xlink:title=" ">
<polygon fill="white" stroke="black" points="135.5,-224.5 135.5,-243.5 193.5,-243.5 193.5,-224.5 135.5,-224.5"/>
<text text-anchor="middle" x="164.5" y="-231.5" font-family="Helvetica,sans-Serif" font-size="10.00">iaString.h</text>
</a>
</g>
</g>
<!-- Node2&#45;&gt;Node29 -->
<g id="edge46" class="edge"><title>Node2&#45;&gt;Node29</title>
<path fill="none" stroke="midnightblue" d="M255.311,-336.356C241.751,-328.155 221.872,-314.896 207.5,-300 193.741,-285.739 181.652,-266.522 173.825,-252.687"/>
<polygon fill="midnightblue" stroke="midnightblue" points="176.785,-250.805 168.916,-243.711 170.643,-254.164 176.785,-250.805"/>
</g>
<!-- Node4 -->
<g id="node5" class="node"><title>Node4</title>
<g id="a_node5"><a xlink:href="ia_defines_8h.html" target="_top" xlink:title=" ">
<polygon fill="white" stroke="black" points="605,-0.5 605,-19.5 670,-19.5 670,-0.5 605,-0.5"/>
<text text-anchor="middle" x="637.5" y="-7.5" font-family="Helvetica,sans-Serif" font-size="10.00">iaDefines.h</text>
</a>
</g>
</g>
<!-- Node3&#45;&gt;Node4 -->
<g id="edge4" class="edge"><title>Node3&#45;&gt;Node4</title>
<path fill="none" stroke="midnightblue" d="M322.737,-59.0147C389.686,-48.8021 525.453,-28.0919 594.737,-17.5232"/>
<polygon fill="midnightblue" stroke="midnightblue" points="595.505,-20.9465 604.863,-15.9785 594.45,-14.0266 595.505,-20.9465"/>
</g>
<!-- Node5&#45;&gt;Node4 -->
<g id="edge6" class="edge"><title>Node5&#45;&gt;Node4</title>
<path fill="none" stroke="midnightblue" d="M786.299,-280.44C805.604,-260.576 848.491,-209.851 829.5,-168 813.882,-133.582 731.223,-79.3469 701.5,-56 687.747,-45.1976 671.64,-33.8787 659.025,-25.2951"/>
<polygon fill="midnightblue" stroke="midnightblue" points="660.788,-22.2628 650.54,-19.5749 656.875,-28.067 660.788,-22.2628"/>
</g>
<!-- Node5&#45;&gt;Node6 -->
<g id="edge7" class="edge"><title>Node5&#45;&gt;Node6</title>
<path fill="none" stroke="midnightblue" d="M799.753,-280.495C817.944,-272.813 843.646,-260.232 862.5,-244 878.393,-230.317 892.094,-210.448 900.742,-196.284"/>
<polygon fill="midnightblue" stroke="midnightblue" points="903.834,-197.93 905.887,-187.536 897.8,-194.381 903.834,-197.93"/>
</g>
<!-- Node5&#45;&gt;Node11 -->
<g id="edge42" class="edge"><title>Node5&#45;&gt;Node11</title>
<path fill="none" stroke="midnightblue" d="M804.541,-280.366C827.267,-272.527 860.162,-259.792 886.5,-244 938.685,-212.711 991.827,-163.857 1017.57,-138.876"/>
<polygon fill="midnightblue" stroke="midnightblue" points="1020.24,-141.159 1024.93,-131.657 1015.34,-136.162 1020.24,-141.159"/>
</g>
<!-- Node5&#45;&gt;Node13 -->
<g id="edge16" class="edge"><title>Node5&#45;&gt;Node13</title>
<path fill="none" stroke="midnightblue" d="M819.35,-285.639C862.877,-280.875 932.129,-269.675 986.5,-244 1012.52,-231.714 1037.73,-209.748 1053.18,-194.784"/>
<polygon fill="midnightblue" stroke="midnightblue" points="1055.69,-197.219 1060.31,-187.686 1050.75,-192.255 1055.69,-197.219"/>
</g>
<!-- Node14 -->
<g id="node15" class="node"><title>Node14</title>
<g id="a_node15"><a xlink:href="ia_vector4_8h.html" target="_top" xlink:title=" ">
<polygon fill="white" stroke="black" points="449.5,-224.5 449.5,-243.5 515.5,-243.5 515.5,-224.5 449.5,-224.5"/>
<text text-anchor="middle" x="482.5" y="-231.5" font-family="Helvetica,sans-Serif" font-size="10.00">iaVector4.h</text>
</a>
</g>
</g>
<!-- Node5&#45;&gt;Node14 -->
<g id="edge20" class="edge"><title>Node5&#45;&gt;Node14</title>
<path fill="none" stroke="midnightblue" d="M735.859,-281.378C680.239,-271.196 582.174,-253.245 525.749,-242.917"/>
<polygon fill="midnightblue" stroke="midnightblue" points="526.185,-239.438 515.718,-241.081 524.924,-246.324 526.185,-239.438"/>
</g>
<!-- Node20 -->
<g id="node21" class="node"><title>Node20</title>
<g id="a_node21"><a xlink:href="ia_gradient_8h.html" target="_top" xlink:title=" ">
<polygon fill="white" stroke="black" points="655,-224.5 655,-243.5 724,-243.5 724,-224.5 655,-224.5"/>
<text text-anchor="middle" x="689.5" y="-231.5" font-family="Helvetica,sans-Serif" font-size="10.00">iaGradient.h</text>
</a>
</g>
</g>
<!-- Node5&#45;&gt;Node20 -->
<g id="edge27" class="edge"><title>Node5&#45;&gt;Node20</title>
<path fill="none" stroke="midnightblue" d="M763.361,-280.324C749.634,-271.9 728.564,-258.971 712.436,-249.074"/>
<polygon fill="midnightblue" stroke="midnightblue" points="713.957,-245.902 703.604,-243.655 710.296,-251.868 713.957,-245.902"/>
</g>
<!-- Node27 -->
<g id="node28" class="node"><title>Node27</title>
<g id="a_node28"><a xlink:href="ia_serializable_8inl.html" target="_top" xlink:title=" ">
<polygon fill="white" stroke="black" points="550,-224.5 550,-243.5 637,-243.5 637,-224.5 550,-224.5"/>
<text text-anchor="middle" x="593.5" y="-231.5" font-family="Helvetica,sans-Serif" font-size="10.00">iaSerializable.inl</text>
</a>
</g>
</g>
<!-- Node5&#45;&gt;Node27 -->
<g id="edge43" class="edge"><title>Node5&#45;&gt;Node27</title>
<path fill="none" stroke="midnightblue" d="M748.345,-280.444C716.987,-271.241 666.969,-256.562 632.303,-246.388"/>
<polygon fill="midnightblue" stroke="midnightblue" points="633.1,-242.974 622.519,-243.516 631.129,-249.691 633.1,-242.974"/>
</g>
<!-- Node7 -->
<g id="node8" class="node"><title>Node7</title>
<g id="a_node8"><a xlink:href="ia_singleton_8h.html" target="_top" xlink:title=" ">
<polygon fill="white" stroke="black" points="809,-112.5 809,-131.5 882,-131.5 882,-112.5 809,-112.5"/>
<text text-anchor="middle" x="845.5" y="-119.5" font-family="Helvetica,sans-Serif" font-size="10.00">iaSingleton.h</text>
</a>
</g>
</g>
<!-- Node6&#45;&gt;Node7 -->
<g id="edge8" class="edge"><title>Node6&#45;&gt;Node7</title>
<path fill="none" stroke="midnightblue" d="M900.057,-168.324C890.354,-160.263 875.685,-148.077 864,-138.369"/>
<polygon fill="midnightblue" stroke="midnightblue" points="866.062,-135.532 856.133,-131.834 861.589,-140.916 866.062,-135.532"/>
</g>
<!-- Node9 -->
<g id="node10" class="node"><title>Node9</title>
<g id="a_node10"><a xlink:href="ia_clock_8h.html" target="_top" xlink:title=" ">
<polygon fill="white" stroke="black" points="886,-56.5 886,-75.5 943,-75.5 943,-56.5 886,-56.5"/>
<text text-anchor="middle" x="914.5" y="-63.5" font-family="Helvetica,sans-Serif" font-size="10.00">iaClock.h</text>
</a>
</g>
</g>
<!-- Node6&#45;&gt;Node9 -->
<g id="edge11" class="edge"><title>Node6&#45;&gt;Node9</title>
<path fill="none" stroke="midnightblue" d="M910.814,-168.368C911.459,-150.617 912.948,-109.666 913.824,-85.5974"/>
<polygon fill="midnightblue" stroke="midnightblue" points="917.322,-85.712 914.188,-75.5914 910.326,-85.4576 917.322,-85.712"/>
</g>
<!-- Node6&#45;&gt;Node10 -->
<g id="edge13" class="edge"><title>Node6&#45;&gt;Node10</title>
<path fill="none" stroke="midnightblue" d="M919.252,-168.083C926.97,-160.22 938.405,-148.569 947.717,-139.081"/>
<polygon fill="midnightblue" stroke="midnightblue" points="950.404,-141.34 954.911,-131.751 945.408,-136.436 950.404,-141.34"/>
</g>
<!-- Node6&#45;&gt;Node11 -->
<g id="edge14" class="edge"><title>Node6&#45;&gt;Node11</title>
<path fill="none" stroke="midnightblue" d="M929.99,-168.444C950.142,-159.596 981.823,-145.687 1004.83,-135.586"/>
<polygon fill="midnightblue" stroke="midnightblue" points="1006.35,-138.741 1014.1,-131.516 1003.54,-132.332 1006.35,-138.741"/>
</g>
<!-- Node6&#45;&gt;Node12 -->
<g id="edge15" class="edge"><title>Node6&#45;&gt;Node12</title>
<path fill="none" stroke="midnightblue" d="M944.758,-169.885C994.192,-159.618 1085.07,-140.742 1135.13,-130.347"/>
<polygon fill="midnightblue" stroke="midnightblue" points="1136.08,-133.724 1145.16,-128.264 1134.65,-126.87 1136.08,-133.724"/>
</g>
<!-- Node8 -->
<g id="node9" class="node"><title>Node8</title>
<g id="a_node9"><a xlink:href="ia_mutex_8h.html" target="_top" xlink:title=" ">
<polygon fill="white" stroke="black" points="809,-56.5 809,-75.5 868,-75.5 868,-56.5 809,-56.5"/>
<text text-anchor="middle" x="838.5" y="-63.5" font-family="Helvetica,sans-Serif" font-size="10.00">iaMutex.h</text>
</a>
</g>
</g>
<!-- Node7&#45;&gt;Node8 -->
<g id="edge9" class="edge"><title>Node7&#45;&gt;Node8</title>
<path fill="none" stroke="midnightblue" d="M844.344,-112.083C843.416,-104.927 842.082,-94.6353 840.923,-85.6911"/>
<polygon fill="midnightblue" stroke="midnightblue" points="844.391,-85.2181 839.634,-75.7511 837.449,-86.1181 844.391,-85.2181"/>
</g>
<!-- Node8&#45;&gt;Node4 -->
<g id="edge10" class="edge"><title>Node8&#45;&gt;Node4</title>
<path fill="none" stroke="midnightblue" d="M808.842,-57.0321C774.558,-47.8216 717.897,-32.5991 679.19,-22.2004"/>
<polygon fill="midnightblue" stroke="midnightblue" points="679.838,-18.7505 669.273,-19.536 678.022,-25.5108 679.838,-18.7505"/>
</g>
<!-- Node9&#45;&gt;Node4 -->
<g id="edge12" class="edge"><title>Node9&#45;&gt;Node4</title>
<path fill="none" stroke="midnightblue" d="M885.898,-58.0756C882.732,-57.3538 879.551,-56.6481 876.5,-56 808.011,-41.4499 727.964,-26.8674 680.073,-18.4001"/>
<polygon fill="midnightblue" stroke="midnightblue" points="680.523,-14.9255 670.068,-16.6374 679.309,-21.8194 680.523,-14.9255"/>
</g>
<!-- Node13&#45;&gt;Node4 -->
<g id="edge17" class="edge"><title>Node13&#45;&gt;Node4</title>
<path fill="none" stroke="midnightblue" d="M1071.45,-168.198C1075.34,-154.89 1080.48,-129.361 1069.5,-112 1038.48,-62.9353 1007.08,-72.7511 951.5,-56 857.294,-27.608 741.641,-16.9276 680.362,-13.0657"/>
<polygon fill="midnightblue" stroke="midnightblue" points="680.479,-9.56657 670.287,-12.4618 680.06,-16.554 680.479,-9.56657"/>
</g>
<!-- Node13&#45;&gt;Node10 -->
<g id="edge18" class="edge"><title>Node13&#45;&gt;Node10</title>
<path fill="none" stroke="midnightblue" d="M1051.63,-168.324C1034.79,-159.664 1008.69,-146.242 989.262,-136.249"/>
<polygon fill="midnightblue" stroke="midnightblue" points="990.822,-133.116 980.328,-131.655 987.62,-139.341 990.822,-133.116"/>
</g>
<!-- Node13&#45;&gt;Node11 -->
<g id="edge19" class="edge"><title>Node13&#45;&gt;Node11</title>
<path fill="none" stroke="midnightblue" d="M1062.72,-168.083C1057.83,-160.534 1050.67,-149.495 1044.67,-140.23"/>
<polygon fill="midnightblue" stroke="midnightblue" points="1047.55,-138.239 1039.17,-131.751 1041.67,-142.046 1047.55,-138.239"/>
</g>
<!-- Node14&#45;&gt;Node15 -->
<g id="edge21" class="edge"><title>Node14&#45;&gt;Node15</title>
<path fill="none" stroke="midnightblue" d="M472.699,-224.324C463.682,-216.341 450.094,-204.313 439.182,-194.653"/>
<polygon fill="midnightblue" stroke="midnightblue" points="441.287,-191.842 431.479,-187.834 436.647,-197.083 441.287,-191.842"/>
</g>
<!-- Node19 -->
<g id="node20" class="node"><title>Node19</title>
<g id="a_node20"><a xlink:href="ia_vector4_8inl.html" target="_top" xlink:title=" ">
<polygon fill="white" stroke="black" points="299,-168.5 299,-187.5 370,-187.5 370,-168.5 299,-168.5"/>
<text text-anchor="middle" x="334.5" y="-175.5" font-family="Helvetica,sans-Serif" font-size="10.00">iaVector4.inl</text>
</a>
</g>
</g>
<!-- Node14&#45;&gt;Node19 -->
<g id="edge26" class="edge"><title>Node14&#45;&gt;Node19</title>
<path fill="none" stroke="midnightblue" d="M459.049,-224.444C434.367,-215.438 395.315,-201.189 367.523,-191.049"/>
<polygon fill="midnightblue" stroke="midnightblue" points="368.435,-187.656 357.841,-187.516 366.036,-194.232 368.435,-187.656"/>
</g>
<!-- Node15&#45;&gt;Node4 -->
<g id="edge22" class="edge"><title>Node15&#45;&gt;Node4</title>
<path fill="none" stroke="midnightblue" d="M419.933,-168.079C418.082,-154.614 416.599,-128.884 428.5,-112 467.623,-56.492 545.8,-30.2975 594.664,-18.8767"/>
<polygon fill="midnightblue" stroke="midnightblue" points="595.622,-22.2492 604.622,-16.6586 594.1,-15.4167 595.622,-22.2492"/>
</g>
<!-- Node16 -->
<g id="node17" class="node"><title>Node16</title>
<g id="a_node17"><a xlink:title=" ">
<polygon fill="white" stroke="#bfbfbf" points="437.5,-112.5 437.5,-131.5 481.5,-131.5 481.5,-112.5 437.5,-112.5"/>
<text text-anchor="middle" x="459.5" y="-119.5" font-family="Helvetica,sans-Serif" font-size="10.00">cmath</text>
</a>
</g>
</g>
<!-- Node15&#45;&gt;Node16 -->
<g id="edge23" class="edge"><title>Node15&#45;&gt;Node16</title>
<path fill="none" stroke="midnightblue" d="M427.775,-168.083C433.142,-160.455 441.018,-149.264 447.579,-139.941"/>
<polygon fill="midnightblue" stroke="midnightblue" points="450.449,-141.943 453.342,-131.751 444.725,-137.915 450.449,-141.943"/>
</g>
<!-- Node15&#45;&gt;Node17 -->
<g id="edge24" class="edge"><title>Node15&#45;&gt;Node17</title>
<path fill="none" stroke="midnightblue" d="M396.781,-168.444C370.652,-159.399 329.241,-145.064 299.924,-134.916"/>
<polygon fill="midnightblue" stroke="midnightblue" points="300.698,-131.48 290.103,-131.516 298.408,-138.095 300.698,-131.48"/>
</g>
<!-- Node18 -->
<g id="node19" class="node"><title>Node18</title>
<g id="a_node19"><a xlink:href="ia_vector3_8inl.html" target="_top" xlink:title=" ">
<polygon fill="white" stroke="black" points="310,-112.5 310,-131.5 381,-131.5 381,-112.5 310,-112.5"/>
<text text-anchor="middle" x="345.5" y="-119.5" font-family="Helvetica,sans-Serif" font-size="10.00">iaVector3.inl</text>
</a>
</g>
</g>
<!-- Node15&#45;&gt;Node18 -->
<g id="edge25" class="edge"><title>Node15&#45;&gt;Node18</title>
<path fill="none" stroke="midnightblue" d="M409.289,-168.324C397.724,-160.107 380.125,-147.602 366.339,-137.807"/>
<polygon fill="midnightblue" stroke="midnightblue" points="368.112,-134.773 357.933,-131.834 364.057,-140.479 368.112,-134.773"/>
</g>
<!-- Node20&#45;&gt;Node4 -->
<g id="edge28" class="edge"><title>Node20&#45;&gt;Node4</title>
<path fill="none" stroke="midnightblue" d="M660.756,-224.477C633.088,-215.623 594.195,-201.237 585.5,-188 569.761,-164.041 605.155,-157.871 617.5,-132 633.49,-98.4901 636.976,-54.4877 637.574,-29.8364"/>
<polygon fill="midnightblue" stroke="midnightblue" points="641.075,-29.7344 637.678,-19.6988 634.075,-29.6621 641.075,-29.7344"/>
</g>
<!-- Node20&#45;&gt;Node6 -->
<g id="edge38" class="edge"><title>Node20&#45;&gt;Node6</title>
<path fill="none" stroke="midnightblue" d="M724.031,-224.563C762.387,-215.19 824.412,-200.035 866.288,-189.803"/>
<polygon fill="midnightblue" stroke="midnightblue" points="867.328,-193.152 876.211,-187.378 865.666,-186.352 867.328,-193.152"/>
</g>
<!-- Node20&#45;&gt;Node15 -->
<g id="edge32" class="edge"><title>Node20&#45;&gt;Node15</title>
<path fill="none" stroke="midnightblue" d="M654.917,-225.904C651.734,-225.258 648.558,-224.615 645.5,-224 567.821,-208.373 545.946,-204.901 464.713,-188.225"/>
<polygon fill="midnightblue" stroke="midnightblue" points="465.005,-184.712 454.505,-186.124 463.594,-191.568 465.005,-184.712"/>
</g>
<!-- Node21 -->
<g id="node22" class="node"><title>Node21</title>
<g id="a_node22"><a xlink:href="ia_color4_8h.html" target="_top" xlink:title=" ">
<polygon fill="white" stroke="black" points="760.5,-168.5 760.5,-187.5 820.5,-187.5 820.5,-168.5 760.5,-168.5"/>
<text text-anchor="middle" x="790.5" y="-175.5" font-family="Helvetica,sans-Serif" font-size="10.00">iaColor4.h</text>
</a>
</g>
</g>
<!-- Node20&#45;&gt;Node21 -->
<g id="edge29" class="edge"><title>Node20&#45;&gt;Node21</title>
<path fill="none" stroke="midnightblue" d="M705.727,-224.324C721.851,-215.703 746.8,-202.364 765.464,-192.386"/>
<polygon fill="midnightblue" stroke="midnightblue" points="767.144,-195.456 774.313,-187.655 763.844,-189.283 767.144,-195.456"/>
</g>
<!-- Node22 -->
<g id="node23" class="node"><title>Node22</title>
<g id="a_node23"><a xlink:href="ia_vector2_8h.html" target="_top" xlink:title=" ">
<polygon fill="white" stroke="black" points="472.5,-168.5 472.5,-187.5 538.5,-187.5 538.5,-168.5 472.5,-168.5"/>
<text text-anchor="middle" x="505.5" y="-175.5" font-family="Helvetica,sans-Serif" font-size="10.00">iaVector2.h</text>
</a>
</g>
</g>
<!-- Node20&#45;&gt;Node22 -->
<g id="edge33" class="edge"><title>Node20&#45;&gt;Node22</title>
<path fill="none" stroke="midnightblue" d="M660.345,-224.444C628.987,-215.241 578.969,-200.562 544.303,-190.388"/>
<polygon fill="midnightblue" stroke="midnightblue" points="545.1,-186.974 534.519,-187.516 543.129,-193.691 545.1,-186.974"/>
</g>
<!-- Node20&#45;&gt;Node24 -->
<g id="edge39" class="edge"><title>Node20&#45;&gt;Node24</title>
<path fill="none" stroke="midnightblue" d="M654.98,-225.537C651.784,-224.968 648.587,-224.443 645.5,-224 453.96,-196.499 221.461,-184.088 138.636,-180.314"/>
<polygon fill="midnightblue" stroke="midnightblue" points="138.769,-176.817 128.623,-179.867 138.457,-183.81 138.769,-176.817"/>
</g>
<!-- Node25 -->
<g id="node26" class="node"><title>Node25</title>
<g id="a_node26"><a xlink:title=" ">
<polygon fill="white" stroke="#bfbfbf" points="594.5,-168.5 594.5,-187.5 650.5,-187.5 650.5,-168.5 594.5,-168.5"/>
<text text-anchor="middle" x="622.5" y="-175.5" font-family="Helvetica,sans-Serif" font-size="10.00">algorithm</text>
</a>
</g>
</g>
<!-- Node20&#45;&gt;Node25 -->
<g id="edge40" class="edge"><title>Node20&#45;&gt;Node25</title>
<path fill="none" stroke="midnightblue" d="M678.735,-224.324C668.734,-216.263 653.613,-204.077 641.57,-194.369"/>
<polygon fill="midnightblue" stroke="midnightblue" points="643.443,-191.384 633.461,-187.834 639.05,-196.834 643.443,-191.384"/>
</g>
<!-- Node26 -->
<g id="node27" class="node"><title>Node26</title>
<g id="a_node27"><a xlink:href="ia_gradient_8inl.html" target="_top" xlink:title=" ">
<polygon fill="white" stroke="black" points="668.5,-168.5 668.5,-187.5 742.5,-187.5 742.5,-168.5 668.5,-168.5"/>
<text text-anchor="middle" x="705.5" y="-175.5" font-family="Helvetica,sans-Serif" font-size="10.00">iaGradient.inl</text>
</a>
</g>
</g>
<!-- Node20&#45;&gt;Node26 -->
<g id="edge41" class="edge"><title>Node20&#45;&gt;Node26</title>
<path fill="none" stroke="midnightblue" d="M692.142,-224.083C694.286,-216.849 697.379,-206.409 700.049,-197.397"/>
<polygon fill="midnightblue" stroke="midnightblue" points="703.422,-198.333 702.907,-187.751 696.71,-196.345 703.422,-198.333"/>
</g>
<!-- Node21&#45;&gt;Node4 -->
<g id="edge30" class="edge"><title>Node21&#45;&gt;Node4</title>
<path fill="none" stroke="midnightblue" d="M782.274,-168.075C757.669,-141.38 684.382,-61.865 652.544,-27.3218"/>
<polygon fill="midnightblue" stroke="midnightblue" points="654.748,-24.5492 645.397,-19.5681 649.601,-29.2933 654.748,-24.5492"/>
</g>
<!-- Node21&#45;&gt;Node10 -->
<g id="edge31" class="edge"><title>Node21&#45;&gt;Node10</title>
<path fill="none" stroke="midnightblue" d="M817.912,-168.444C848.046,-159.038 896.507,-143.911 929.153,-133.721"/>
<polygon fill="midnightblue" stroke="midnightblue" points="930.236,-137.05 938.738,-130.729 928.15,-130.368 930.236,-137.05"/>
</g>
<!-- Node22&#45;&gt;Node4 -->
<g id="edge34" class="edge"><title>Node22&#45;&gt;Node4</title>
<path fill="none" stroke="midnightblue" d="M507.153,-168.409C509.954,-155.376 516.528,-130.202 528.5,-112 552.49,-75.5261 592.39,-43.141 616.686,-25.376"/>
<polygon fill="midnightblue" stroke="midnightblue" points="618.781,-28.1806 624.872,-19.512 614.704,-22.49 618.781,-28.1806"/>
</g>
<!-- Node22&#45;&gt;Node16 -->
<g id="edge35" class="edge"><title>Node22&#45;&gt;Node16</title>
<path fill="none" stroke="midnightblue" d="M497.904,-168.083C491.273,-160.298 481.479,-148.801 473.442,-139.367"/>
<polygon fill="midnightblue" stroke="midnightblue" points="476.104,-137.094 466.955,-131.751 470.775,-141.633 476.104,-137.094"/>
</g>
<!-- Node22&#45;&gt;Node17 -->
<g id="edge36" class="edge"><title>Node22&#45;&gt;Node17</title>
<path fill="none" stroke="midnightblue" d="M472.101,-169.82C426.423,-159.976 345.892,-142.531 301.731,-132.218"/>
<polygon fill="midnightblue" stroke="midnightblue" points="302.385,-128.776 291.848,-129.882 300.775,-135.588 302.385,-128.776"/>
</g>
<!-- Node23 -->
<g id="node24" class="node"><title>Node23</title>
<g id="a_node24"><a xlink:href="ia_vector2_8inl.html" target="_top" xlink:title=" ">
<polygon fill="white" stroke="black" points="538,-112.5 538,-131.5 609,-131.5 609,-112.5 538,-112.5"/>
<text text-anchor="middle" x="573.5" y="-119.5" font-family="Helvetica,sans-Serif" font-size="10.00">iaVector2.inl</text>
</a>
</g>
</g>
<!-- Node22&#45;&gt;Node23 -->
<g id="edge37" class="edge"><title>Node22&#45;&gt;Node23</title>
<path fill="none" stroke="midnightblue" d="M516.425,-168.324C526.675,-160.185 542.221,-147.839 554.501,-138.087"/>
<polygon fill="midnightblue" stroke="midnightblue" points="556.721,-140.794 562.376,-131.834 552.368,-135.312 556.721,-140.794"/>
</g>
<!-- Node28&#45;&gt;Node4 -->
<g id="edge45" class="edge"><title>Node28&#45;&gt;Node4</title>
<path fill="none" stroke="midnightblue" d="M40.8073,-280.466C43.5179,-262.007 49.5,-216.968 49.5,-179 49.5,-179 49.5,-179 49.5,-121 49.5,-47.9352 129.79,-74.3985 200.5,-56 341.603,-19.2855 515.654,-12.3105 594.762,-11.1324"/>
<polygon fill="midnightblue" stroke="midnightblue" points="594.876,-14.6313 604.832,-11.0066 594.789,-7.63186 594.876,-14.6313"/>
</g>
<!-- Node29&#45;&gt;Node4 -->
<g id="edge47" class="edge"><title>Node29&#45;&gt;Node4</title>
<path fill="none" stroke="midnightblue" d="M163.83,-224.255C162.62,-203.566 161.731,-150.469 180.5,-112 195.797,-80.6474 204.132,-71.2663 235.5,-56 298.063,-25.5512 504.627,-15.2784 594.783,-12.1905"/>
<polygon fill="midnightblue" stroke="midnightblue" points="595.049,-15.6838 604.928,-11.8567 594.819,-8.68755 595.049,-15.6838"/>
</g>
<!-- Node29&#45;&gt;Node17 -->
<g id="edge48" class="edge"><title>Node29&#45;&gt;Node17</title>
<path fill="none" stroke="midnightblue" d="M172.425,-224.368C189.314,-205.974 229.075,-162.671 250.761,-139.052"/>
<polygon fill="midnightblue" stroke="midnightblue" points="253.426,-141.325 257.612,-131.591 248.27,-136.59 253.426,-141.325"/>
</g>
<!-- Node29&#45;&gt;Node24 -->
<g id="edge49" class="edge"><title>Node29&#45;&gt;Node24</title>
<path fill="none" stroke="midnightblue" d="M155.342,-224.324C146.999,-216.42 134.468,-204.548 124.323,-194.938"/>
<polygon fill="midnightblue" stroke="midnightblue" points="126.491,-192.171 116.825,-187.834 121.677,-197.252 126.491,-192.171"/>
</g>
</g>
</svg>
