<?xml version="1.0" encoding="UTF-8" standalone="no"?>
<!DOCTYPE svg PUBLIC "-//W3C//DTD SVG 1.1//EN"
 "http://www.w3.org/Graphics/SVG/1.1/DTD/svg11.dtd">
<!-- Generated by graphviz version 2.38.0 (20140413.2041)
 -->
<!-- Title: C:/dev/Igor/Igor/src/OMPF/src/ompfSettings.h Pages: 1 -->
<svg width="141pt" height="207pt"
 viewBox="0.00 0.00 141.00 207.00" xmlns="http://www.w3.org/2000/svg" xmlns:xlink="http://www.w3.org/1999/xlink">
<g id="graph0" class="graph" transform="scale(1 1) rotate(0) translate(4 203)">
<title>C:/dev/Igor/Igor/src/OMPF/src/ompfSettings.h</title>
<polygon fill="white" stroke="none" points="-4,4 -4,-203 137,-203 137,4 -4,4"/>
<!-- Node0 -->
<g id="node1" class="node"><title>Node0</title>
<g id="a_node1"><a xlink:title=" ">
<polygon fill="#bfbfbf" stroke="black" points="0,-168.5 0,-198.5 133,-198.5 133,-168.5 0,-168.5"/>
<text text-anchor="start" x="8" y="-186.5" font-family="Helvetica,sans-Serif" font-size="10.00">C:/dev/Igor/Igor/src</text>
<text text-anchor="middle" x="66.5" y="-175.5" font-family="Helvetica,sans-Serif" font-size="10.00">/OMPF/src/ompfSettings.h</text>
</a>
</g>
</g>
<!-- Node1 -->
<g id="node2" class="node"><title>Node1</title>
<g id="a_node2"><a xlink:href="ompf_version_8h.html" target="_top" xlink:title=" ">
<polygon fill="white" stroke="black" points="27,-112.5 27,-131.5 106,-131.5 106,-112.5 27,-112.5"/>
<text text-anchor="middle" x="66.5" y="-119.5" font-family="Helvetica,sans-Serif" font-size="10.00">ompfVersion.h</text>
</a>
</g>
</g>
<!-- Node0&#45;&gt;Node1 -->
<g id="edge1" class="edge"><title>Node0&#45;&gt;Node1</title>
<path fill="none" stroke="midnightblue" d="M66.5,-168.399C66.5,-160.466 66.5,-150.458 66.5,-141.858"/>
<polygon fill="midnightblue" stroke="midnightblue" points="70.0001,-141.658 66.5,-131.658 63.0001,-141.658 70.0001,-141.658"/>
</g>
<!-- Node2 -->
<g id="node3" class="node"><title>Node2</title>
<g id="a_node3"><a xlink:href="ompf_defines_8h.html" target="_top" xlink:title=" ">
<polygon fill="white" stroke="black" points="27.5,-56.5 27.5,-75.5 105.5,-75.5 105.5,-56.5 27.5,-56.5"/>
<text text-anchor="middle" x="66.5" y="-63.5" font-family="Helvetica,sans-Serif" font-size="10.00">ompfDefines.h</text>
</a>
</g>
</g>
<!-- Node1&#45;&gt;Node2 -->
<g id="edge2" class="edge"><title>Node1&#45;&gt;Node2</title>
<path fill="none" stroke="midnightblue" d="M66.5,-112.083C66.5,-105.006 66.5,-94.8611 66.5,-85.9865"/>
<polygon fill="midnightblue" stroke="midnightblue" points="70.0001,-85.751 66.5,-75.7511 63.0001,-85.7511 70.0001,-85.751"/>
</g>
<!-- Node3 -->
<g id="node4" class="node"><title>Node3</title>
<g id="a_node4"><a xlink:href="ia_defines_8h.html" target="_top" xlink:title=" ">
<polygon fill="white" stroke="black" points="34,-0.5 34,-19.5 99,-19.5 99,-0.5 34,-0.5"/>
<text text-anchor="middle" x="66.5" y="-7.5" font-family="Helvetica,sans-Serif" font-size="10.00">iaDefines.h</text>
</a>
</g>
</g>
<!-- Node2&#45;&gt;Node3 -->
<g id="edge3" class="edge"><title>Node2&#45;&gt;Node3</title>
<path fill="none" stroke="midnightblue" d="M66.5,-56.083C66.5,-49.0059 66.5,-38.8611 66.5,-29.9865"/>
<polygon fill="midnightblue" stroke="midnightblue" points="70.0001,-29.751 66.5,-19.7511 63.0001,-29.7511 70.0001,-29.751"/>
</g>
</g>
</svg>
