<?xml version="1.0" encoding="UTF-8" standalone="no"?>
<!DOCTYPE svg PUBLIC "-//W3C//DTD SVG 1.1//EN"
 "http://www.w3.org/Graphics/SVG/1.1/DTD/svg11.dtd">
<!-- Generated by graphviz version 2.38.0 (20140413.2041)
 -->
<!-- Title: C:/dev/Igor/Igor/src/Testigor/src/stdafx.h Pages: 1 -->
<svg width="768pt" height="117pt"
 viewBox="0.00 0.00 767.50 117.00" xmlns="http://www.w3.org/2000/svg" xmlns:xlink="http://www.w3.org/1999/xlink">
<g id="graph0" class="graph" transform="scale(1 1) rotate(0) translate(4 113)">
<title>C:/dev/Igor/Igor/src/Testigor/src/stdafx.h</title>
<polygon fill="white" stroke="none" points="-4,4 -4,-113 763.5,-113 763.5,4 -4,4"/>
<!-- Node4 -->
<g id="node1" class="node"><title>Node4</title>
<g id="a_node1"><a xlink:title=" ">
<polygon fill="#bfbfbf" stroke="black" points="330.5,-78.5 330.5,-108.5 438.5,-108.5 438.5,-78.5 330.5,-78.5"/>
<text text-anchor="start" x="338.5" y="-96.5" font-family="Helvetica,sans-Serif" font-size="10.00">C:/dev/Igor/Igor/src</text>
<text text-anchor="middle" x="384.5" y="-85.5" font-family="Helvetica,sans-Serif" font-size="10.00">/Testigor/src/stdafx.h</text>
</a>
</g>
</g>
<!-- Node5 -->
<g id="node2" class="node"><title>Node5</title>
<g id="a_node2"><a xlink:href="stdafx_8cpp.html" target="_top" xlink:title=" ">
<polygon fill="white" stroke="black" points="0,-6 0,-36 119,-36 119,-6 0,-6"/>
<text text-anchor="start" x="8" y="-24" font-family="Helvetica,sans-Serif" font-size="10.00">C:/dev/Igor/Igor/src</text>
<text text-anchor="middle" x="59.5" y="-13" font-family="Helvetica,sans-Serif" font-size="10.00">/Testigor/src/stdafx.cpp</text>
</a>
</g>
</g>
<!-- Node4&#45;&gt;Node5 -->
<g id="edge1" class="edge"><title>Node4&#45;&gt;Node5</title>
<path fill="none" stroke="midnightblue" d="M320.182,-81.4208C268.204,-72.0816 193.291,-57.7486 128.5,-42 121.107,-40.203 113.32,-38.1269 105.746,-36.0066"/>
<polygon fill="midnightblue" stroke="midnightblue" points="319.803,-84.9083 330.262,-83.221 321.033,-78.0173 319.803,-84.9083"/>
</g>
<!-- Node6 -->
<g id="node3" class="node"><title>Node6</title>
<g id="a_node3"><a xlink:href="_unit_test__ia_string_8cpp.html" target="_top" xlink:title=" ">
<polygon fill="white" stroke="black" points="137.5,-0.5 137.5,-41.5 247.5,-41.5 247.5,-0.5 137.5,-0.5"/>
<text text-anchor="start" x="145.5" y="-29.5" font-family="Helvetica,sans-Serif" font-size="10.00">C:/dev/Igor/Igor/src</text>
<text text-anchor="start" x="145.5" y="-18.5" font-family="Helvetica,sans-Serif" font-size="10.00">/Testigor/src/UnitTest</text>
<text text-anchor="middle" x="192.5" y="-7.5" font-family="Helvetica,sans-Serif" font-size="10.00">_iaString.cpp</text>
</a>
</g>
</g>
<!-- Node4&#45;&gt;Node6 -->
<g id="edge2" class="edge"><title>Node4&#45;&gt;Node6</title>
<path fill="none" stroke="midnightblue" d="M336.657,-74.9327C309.03,-64.7885 274.223,-52.0078 245.733,-41.5464"/>
<polygon fill="midnightblue" stroke="midnightblue" points="335.514,-78.2413 346.107,-78.4027 337.927,-71.6703 335.514,-78.2413"/>
</g>
<!-- Node7 -->
<g id="node4" class="node"><title>Node7</title>
<g id="a_node4"><a xlink:href="_unit_test__i_vector2d_8cpp.html" target="_top" xlink:title=" ">
<polygon fill="white" stroke="black" points="265.5,-0.5 265.5,-41.5 375.5,-41.5 375.5,-0.5 265.5,-0.5"/>
<text text-anchor="start" x="273.5" y="-29.5" font-family="Helvetica,sans-Serif" font-size="10.00">C:/dev/Igor/Igor/src</text>
<text text-anchor="start" x="273.5" y="-18.5" font-family="Helvetica,sans-Serif" font-size="10.00">/Testigor/src/UnitTest</text>
<text text-anchor="middle" x="320.5" y="-7.5" font-family="Helvetica,sans-Serif" font-size="10.00">_iVector2d.cpp</text>
</a>
</g>
</g>
<!-- Node4&#45;&gt;Node7 -->
<g id="edge3" class="edge"><title>Node4&#45;&gt;Node7</title>
<path fill="none" stroke="midnightblue" d="M364.82,-70.8213C356.353,-61.4941 346.527,-50.6707 338.282,-41.5884"/>
<polygon fill="midnightblue" stroke="midnightblue" points="362.236,-73.1816 371.549,-78.2333 367.419,-68.4766 362.236,-73.1816"/>
</g>
<!-- Node8 -->
<g id="node5" class="node"><title>Node8</title>
<g id="a_node5"><a xlink:href="_unit_test__i_vector2f_8cpp.html" target="_top" xlink:title=" ">
<polygon fill="white" stroke="black" points="393.5,-0.5 393.5,-41.5 503.5,-41.5 503.5,-0.5 393.5,-0.5"/>
<text text-anchor="start" x="401.5" y="-29.5" font-family="Helvetica,sans-Serif" font-size="10.00">C:/dev/Igor/Igor/src</text>
<text text-anchor="start" x="401.5" y="-18.5" font-family="Helvetica,sans-Serif" font-size="10.00">/Testigor/src/UnitTest</text>
<text text-anchor="middle" x="448.5" y="-7.5" font-family="Helvetica,sans-Serif" font-size="10.00">_iVector2f.cpp</text>
</a>
</g>
</g>
<!-- Node4&#45;&gt;Node8 -->
<g id="edge4" class="edge"><title>Node4&#45;&gt;Node8</title>
<path fill="none" stroke="midnightblue" d="M404.18,-70.8213C412.647,-61.4941 422.473,-50.6707 430.718,-41.5884"/>
<polygon fill="midnightblue" stroke="midnightblue" points="401.581,-68.4766 397.451,-78.2333 406.764,-73.1816 401.581,-68.4766"/>
</g>
<!-- Node9 -->
<g id="node6" class="node"><title>Node9</title>
<g id="a_node6"><a xlink:href="_unit_test__i_vector2i_8cpp.html" target="_top" xlink:title=" ">
<polygon fill="white" stroke="black" points="521.5,-0.5 521.5,-41.5 631.5,-41.5 631.5,-0.5 521.5,-0.5"/>
<text text-anchor="start" x="529.5" y="-29.5" font-family="Helvetica,sans-Serif" font-size="10.00">C:/dev/Igor/Igor/src</text>
<text text-anchor="start" x="529.5" y="-18.5" font-family="Helvetica,sans-Serif" font-size="10.00">/Testigor/src/UnitTest</text>
<text text-anchor="middle" x="576.5" y="-7.5" font-family="Helvetica,sans-Serif" font-size="10.00">_iVector2i.cpp</text>
</a>
</g>
</g>
<!-- Node4&#45;&gt;Node9 -->
<g id="edge5" class="edge"><title>Node4&#45;&gt;Node9</title>
<path fill="none" stroke="midnightblue" d="M432.343,-74.9327C459.97,-64.7885 494.777,-52.0078 523.267,-41.5464"/>
<polygon fill="midnightblue" stroke="midnightblue" points="431.073,-71.6703 422.893,-78.4027 433.486,-78.2413 431.073,-71.6703"/>
</g>
<!-- Node10 -->
<g id="node7" class="node"><title>Node10</title>
<g id="a_node7"><a xlink:href="_unit_test__i_vector3d_8cpp.html" target="_top" xlink:title=" ">
<polygon fill="white" stroke="black" points="649.5,-0.5 649.5,-41.5 759.5,-41.5 759.5,-0.5 649.5,-0.5"/>
<text text-anchor="start" x="657.5" y="-29.5" font-family="Helvetica,sans-Serif" font-size="10.00">C:/dev/Igor/Igor/src</text>
<text text-anchor="start" x="657.5" y="-18.5" font-family="Helvetica,sans-Serif" font-size="10.00">/Testigor/src/UnitTest</text>
<text text-anchor="middle" x="704.5" y="-7.5" font-family="Helvetica,sans-Serif" font-size="10.00">_iVector3d.cpp</text>
</a>
</g>
</g>
<!-- Node4&#45;&gt;Node10 -->
<g id="edge6" class="edge"><title>Node4&#45;&gt;Node10</title>
<path fill="none" stroke="midnightblue" d="M448.908,-81.7848C500.938,-72.6526 575.876,-58.4203 640.5,-42 643.433,-41.2546 646.431,-40.4544 649.45,-39.6181"/>
<polygon fill="midnightblue" stroke="midnightblue" points="448.069,-78.3783 438.818,-83.5424 449.27,-85.2744 448.069,-78.3783"/>
</g>
</g>
</svg>
