<?xml version="1.0" encoding="UTF-8" standalone="no"?>
<!DOCTYPE svg PUBLIC "-//W3C//DTD SVG 1.1//EN"
 "http://www.w3.org/Graphics/SVG/1.1/DTD/svg11.dtd">
<!-- Generated by graphviz version 2.38.0 (20140413.2041)
 -->
<!-- Title: Igor::iWidgetGraph::GraphData Pages: 1 -->
<svg width="122pt" height="117pt"
 viewBox="0.00 0.00 122.00 117.00" xmlns="http://www.w3.org/2000/svg" xmlns:xlink="http://www.w3.org/1999/xlink">
<g id="graph0" class="graph" transform="scale(1 1) rotate(0) translate(4 113)">
<title>Igor::iWidgetGraph::GraphData</title>
<polygon fill="white" stroke="none" points="-4,4 -4,-113 118,-113 118,4 -4,4"/>
<!-- Node1 -->
<g id="node1" class="node"><title>Node1</title>
<g id="a_node1"><a xlink:title=" ">
<polygon fill="#bfbfbf" stroke="black" points="8,-0.5 8,-30.5 106,-30.5 106,-0.5 8,-0.5"/>
<text text-anchor="start" x="16" y="-18.5" font-family="Helvetica,sans-Serif" font-size="10.00">Igor::iWidgetGraph</text>
<text text-anchor="middle" x="57" y="-7.5" font-family="Helvetica,sans-Serif" font-size="10.00">::GraphData</text>
</a>
</g>
</g>
<!-- Node2 -->
<g id="node2" class="node"><title>Node2</title>
<g id="a_node2"><a xlink:href="class_igor_aux_1_1ia_color4.html" target="_top" xlink:title=" ">
<polygon fill="white" stroke="black" points="0,-89.5 0,-108.5 114,-108.5 114,-89.5 0,-89.5"/>
<text text-anchor="middle" x="57" y="-96.5" font-family="Helvetica,sans-Serif" font-size="10.00">IgorAux::iaColor4&lt; T &gt;</text>
</a>
</g>
</g>
<!-- Node2&#45;&gt;Node1 -->
<g id="edge1" class="edge"><title>Node2&#45;&gt;Node1</title>
<path fill="none" stroke="#9a32cd" stroke-dasharray="5,2" d="M57,-79.229C57,-64.4075 57,-44.0505 57,-30.5974"/>
<polygon fill="#9a32cd" stroke="#9a32cd" points="53.5001,-79.278 57,-89.2781 60.5001,-79.2781 53.5001,-79.278"/>
<text text-anchor="middle" x="83" y="-63" font-family="Helvetica,sans-Serif" font-size="10.00"> _pointColor</text>
<text text-anchor="middle" x="83" y="-52" font-family="Helvetica,sans-Serif" font-size="10.00">_lineColor</text>
</g>
</g>
</svg>
