<?xml version="1.0" encoding="UTF-8" standalone="no"?>
<!DOCTYPE svg PUBLIC "-//W3C//DTD SVG 1.1//EN"
 "http://www.w3.org/Graphics/SVG/1.1/DTD/svg11.dtd">
<!-- Generated by graphviz version 2.38.0 (20140413.2041)
 -->
<!-- Title: testing::internal::bool_constant&lt; bool_value &gt; Pages: 1 -->
<svg width="668pt" height="510pt"
 viewBox="0.00 0.00 668.00 510.00" xmlns="http://www.w3.org/2000/svg" xmlns:xlink="http://www.w3.org/1999/xlink">
<g id="graph0" class="graph" transform="scale(1 1) rotate(0) translate(4 506)">
<title>testing::internal::bool_constant&lt; bool_value &gt;</title>
<polygon fill="white" stroke="none" points="-4,4 -4,-506 664,-506 664,4 -4,4"/>
<!-- Node1 -->
<g id="node1" class="node"><title>Node1</title>
<polygon fill="#bfbfbf" stroke="black" points="0,-258 0,-299 104,-299 104,-258 0,-258"/>
<text text-anchor="start" x="8" y="-287" font-family="Helvetica,sans-Serif" font-size="10.00">testing::internal::</text>
<text text-anchor="start" x="8" y="-276" font-family="Helvetica,sans-Serif" font-size="10.00">bool_constant&lt; bool</text>
<text text-anchor="middle" x="52" y="-265" font-family="Helvetica,sans-Serif" font-size="10.00">_value &gt;</text>
</g>
<!-- Node2 -->
<g id="node2" class="node"><title>Node2</title>
<g id="a_node2"><a xlink:href="structtesting_1_1internal_1_1_has_value_type.html" target="_top" xlink:title="testing::internal::\lHasValueType\&lt; false \&gt;">
<polygon fill="white" stroke="black" points="344.5,-471.5 344.5,-501.5 462.5,-501.5 462.5,-471.5 344.5,-471.5"/>
<text text-anchor="start" x="352.5" y="-489.5" font-family="Helvetica,sans-Serif" font-size="10.00">testing::internal::</text>
<text text-anchor="middle" x="403.5" y="-478.5" font-family="Helvetica,sans-Serif" font-size="10.00">HasValueType&lt; false &gt;</text>
</a>
</g>
</g>
<!-- Node1&#45;&gt;Node2 -->
<g id="edge1" class="edge"><title>Node1&#45;&gt;Node2</title>
<path fill="none" stroke="midnightblue" d="M63.4919,-308.907C74.2356,-335.784 93.4315,-374.23 122,-397.5 186.766,-450.255 283.22,-471.927 344.467,-480.701"/>
<polygon fill="midnightblue" stroke="midnightblue" points="66.6305,-307.316 59.7862,-299.229 60.0933,-309.819 66.6305,-307.316"/>
</g>
<!-- Node3 -->
<g id="node3" class="node"><title>Node3</title>
<g id="a_node3"><a xlink:href="structtesting_1_1internal_1_1_has_value_type_3_01_t_00_01_void_t_3_01typename_01_t_1_1value__type_01_4_01_4.html" target="_top" xlink:title="testing::internal::\lHasValueType\&lt; T, VoidT\l\&lt; typename T::value_type \&gt; \&gt;">
<polygon fill="white" stroke="black" points="330.5,-411 330.5,-452 476.5,-452 476.5,-411 330.5,-411"/>
<text text-anchor="start" x="338.5" y="-440" font-family="Helvetica,sans-Serif" font-size="10.00">testing::internal::</text>
<text text-anchor="start" x="338.5" y="-429" font-family="Helvetica,sans-Serif" font-size="10.00">HasValueType&lt; T, VoidT</text>
<text text-anchor="middle" x="403.5" y="-418" font-family="Helvetica,sans-Serif" font-size="10.00">&lt; typename T::value_type &gt; &gt;</text>
</a>
</g>
</g>
<!-- Node1&#45;&gt;Node3 -->
<g id="edge2" class="edge"><title>Node1&#45;&gt;Node3</title>
<path fill="none" stroke="midnightblue" d="M73.4322,-307.668C85.8203,-323.35 102.9,-341.812 122,-353.5 186.348,-392.875 271.007,-412.85 330.422,-422.663"/>
<polygon fill="midnightblue" stroke="midnightblue" points="75.898,-305.13 67.0495,-299.302 70.3329,-309.376 75.898,-305.13"/>
</g>
<!-- Node4 -->
<g id="node4" class="node"><title>Node4</title>
<g id="a_node4"><a xlink:href="structtesting_1_1internal_1_1is__pointer.html" target="_top" xlink:title="testing::internal::\lis_pointer\&lt; false \&gt;">
<polygon fill="white" stroke="black" points="355,-361.5 355,-391.5 452,-391.5 452,-361.5 355,-361.5"/>
<text text-anchor="start" x="363" y="-379.5" font-family="Helvetica,sans-Serif" font-size="10.00">testing::internal::</text>
<text text-anchor="middle" x="403.5" y="-368.5" font-family="Helvetica,sans-Serif" font-size="10.00">is_pointer&lt; false &gt;</text>
</a>
</g>
</g>
<!-- Node1&#45;&gt;Node4 -->
<g id="edge3" class="edge"><title>Node1&#45;&gt;Node4</title>
<path fill="none" stroke="midnightblue" d="M93.4994,-304.106C102.623,-309.097 112.441,-313.892 122,-317.5 200.799,-347.24 298.011,-363.444 354.845,-371.012"/>
<polygon fill="midnightblue" stroke="midnightblue" points="95.0688,-300.972 84.6431,-299.086 91.6171,-307.062 95.0688,-300.972"/>
</g>
<!-- Node5 -->
<g id="node5" class="node"><title>Node5</title>
<g id="a_node5"><a xlink:href="structtesting_1_1internal_1_1is__pointer_3_01_t_01_5_01_4.html" target="_top" xlink:title="testing::internal::\lis_pointer\&lt; T * \&gt;">
<polygon fill="white" stroke="black" points="359,-312.5 359,-342.5 448,-342.5 448,-312.5 359,-312.5"/>
<text text-anchor="start" x="367" y="-330.5" font-family="Helvetica,sans-Serif" font-size="10.00">testing::internal::</text>
<text text-anchor="middle" x="403.5" y="-319.5" font-family="Helvetica,sans-Serif" font-size="10.00">is_pointer&lt; T * &gt;</text>
</a>
</g>
</g>
<!-- Node1&#45;&gt;Node5 -->
<g id="edge4" class="edge"><title>Node1&#45;&gt;Node5</title>
<path fill="none" stroke="midnightblue" d="M114.279,-291.185C116.885,-291.645 119.467,-292.086 122,-292.5 205.303,-306.128 303.29,-317.243 358.625,-323.07"/>
<polygon fill="midnightblue" stroke="midnightblue" points="114.632,-287.692 104.165,-289.332 113.37,-294.577 114.632,-287.692"/>
</g>
<!-- Node6 -->
<g id="node6" class="node"><title>Node6</title>
<g id="a_node6"><a xlink:href="structtesting_1_1internal_1_1is__same.html" target="_top" xlink:title="testing::internal::\lis_same\&lt; false \&gt;">
<polygon fill="white" stroke="black" points="357.5,-263.5 357.5,-293.5 449.5,-293.5 449.5,-263.5 357.5,-263.5"/>
<text text-anchor="start" x="365.5" y="-281.5" font-family="Helvetica,sans-Serif" font-size="10.00">testing::internal::</text>
<text text-anchor="middle" x="403.5" y="-270.5" font-family="Helvetica,sans-Serif" font-size="10.00">is_same&lt; false &gt;</text>
</a>
</g>
</g>
<!-- Node1&#45;&gt;Node6 -->
<g id="edge5" class="edge"><title>Node1&#45;&gt;Node6</title>
<path fill="none" stroke="midnightblue" d="M114.549,-278.5C184.016,-278.5 295.378,-278.5 357.285,-278.5"/>
<polygon fill="midnightblue" stroke="midnightblue" points="114.195,-275 104.195,-278.5 114.195,-282 114.195,-275"/>
</g>
<!-- Node7 -->
<g id="node7" class="node"><title>Node7</title>
<g id="a_node7"><a xlink:href="structtesting_1_1internal_1_1is__same_3_01_t_00_01_t_01_4.html" target="_top" xlink:title="testing::internal::\lis_same\&lt; T, T \&gt;">
<polygon fill="white" stroke="black" points="359,-214.5 359,-244.5 448,-244.5 448,-214.5 359,-214.5"/>
<text text-anchor="start" x="367" y="-232.5" font-family="Helvetica,sans-Serif" font-size="10.00">testing::internal::</text>
<text text-anchor="middle" x="403.5" y="-221.5" font-family="Helvetica,sans-Serif" font-size="10.00">is_same&lt; T, T &gt;</text>
</a>
</g>
</g>
<!-- Node1&#45;&gt;Node7 -->
<g id="edge6" class="edge"><title>Node1&#45;&gt;Node7</title>
<path fill="none" stroke="midnightblue" d="M114.207,-269.919C184.257,-260.098 297.232,-244.259 358.9,-235.613"/>
<polygon fill="midnightblue" stroke="midnightblue" points="113.612,-266.468 104.195,-271.323 114.584,-273.4 113.612,-266.468"/>
</g>
<!-- Node8 -->
<g id="node8" class="node"><title>Node8</title>
<g id="a_node8"><a xlink:href="structtesting_1_1internal_1_1_is_recursive_container_impl_3_01_c_00_01false_00_01_h_v_01_4.html" target="_top" xlink:title="testing::internal::\lIsRecursiveContainerImpl\l\&lt; C, false, HV \&gt;">
<polygon fill="white" stroke="black" points="341,-154 341,-195 466,-195 466,-154 341,-154"/>
<text text-anchor="start" x="349" y="-183" font-family="Helvetica,sans-Serif" font-size="10.00">testing::internal::</text>
<text text-anchor="start" x="349" y="-172" font-family="Helvetica,sans-Serif" font-size="10.00">IsRecursiveContainerImpl</text>
<text text-anchor="middle" x="403.5" y="-161" font-family="Helvetica,sans-Serif" font-size="10.00">&lt; C, false, HV &gt;</text>
</a>
</g>
</g>
<!-- Node1&#45;&gt;Node8 -->
<g id="edge7" class="edge"><title>Node1&#45;&gt;Node8</title>
<path fill="none" stroke="midnightblue" d="M96.1658,-253.176C104.557,-248.882 113.416,-244.764 122,-241.5 195.007,-213.741 283.197,-194.934 340.955,-184.476"/>
<polygon fill="midnightblue" stroke="midnightblue" points="94.4851,-250.106 87.2795,-257.873 97.7561,-256.295 94.4851,-250.106"/>
</g>
<!-- Node9 -->
<g id="node9" class="node"><title>Node9</title>
<g id="a_node9"><a xlink:href="structtesting_1_1internal_1_1_is_recursive_container_impl_3_01_c_00_01true_00_01false_01_4.html" target="_top" xlink:title="testing::internal::\lIsRecursiveContainerImpl\l\&lt; C, true, false \&gt;">
<polygon fill="white" stroke="black" points="341,-94 341,-135 466,-135 466,-94 341,-94"/>
<text text-anchor="start" x="349" y="-123" font-family="Helvetica,sans-Serif" font-size="10.00">testing::internal::</text>
<text text-anchor="start" x="349" y="-112" font-family="Helvetica,sans-Serif" font-size="10.00">IsRecursiveContainerImpl</text>
<text text-anchor="middle" x="403.5" y="-101" font-family="Helvetica,sans-Serif" font-size="10.00">&lt; C, true, false &gt;</text>
</a>
</g>
</g>
<!-- Node1&#45;&gt;Node9 -->
<g id="edge8" class="edge"><title>Node1&#45;&gt;Node9</title>
<path fill="none" stroke="midnightblue" d="M69.1973,-249.131C81.3277,-229.759 99.6464,-205.312 122,-190.5 188.767,-146.257 280.592,-127.66 340.723,-119.916"/>
<polygon fill="midnightblue" stroke="midnightblue" points="66.0787,-247.525 63.9081,-257.895 72.0718,-251.142 66.0787,-247.525"/>
</g>
<!-- Node10 -->
<g id="node10" class="node"><title>Node10</title>
<g id="a_node10"><a xlink:href="structtesting_1_1internal_1_1bool__constant.html" target="_top" xlink:title="testing::internal::\lbool_constant\&lt; ImplicitlyConvertible\l\&lt; const T *, const ::ProtocolMessage\l * \&gt;::value\|\|ImplicitlyConvertible\l\&lt; const T *, const ::proto2::Message\l * \&gt;::value \&gt;">
<polygon fill="white" stroke="black" points="314,-0.5 314,-74.5 493,-74.5 493,-0.5 314,-0.5"/>
<text text-anchor="start" x="322" y="-62.5" font-family="Helvetica,sans-Serif" font-size="10.00">testing::internal::</text>
<text text-anchor="start" x="322" y="-51.5" font-family="Helvetica,sans-Serif" font-size="10.00">bool_constant&lt; ImplicitlyConvertible</text>
<text text-anchor="start" x="322" y="-40.5" font-family="Helvetica,sans-Serif" font-size="10.00">&lt; const T *, const ::ProtocolMessage</text>
<text text-anchor="start" x="322" y="-29.5" font-family="Helvetica,sans-Serif" font-size="10.00"> * &gt;::value||ImplicitlyConvertible</text>
<text text-anchor="start" x="322" y="-18.5" font-family="Helvetica,sans-Serif" font-size="10.00">&lt; const T *, const ::proto2::Message</text>
<text text-anchor="middle" x="403.5" y="-7.5" font-family="Helvetica,sans-Serif" font-size="10.00"> * &gt;::value &gt;</text>
</a>
</g>
</g>
<!-- Node1&#45;&gt;Node10 -->
<g id="edge9" class="edge"><title>Node1&#45;&gt;Node10</title>
<path fill="none" stroke="orange" stroke-dasharray="5,2" d="M53.3385,-247.624C55.6712,-200.82 67.5384,-112.695 122,-68.5 174.977,-25.5104 253.314,-20.1167 313.747,-24.1381"/>
<polygon fill="orange" stroke="orange" points="49.8354,-247.643 52.9513,-257.769 56.8303,-247.91 49.8354,-247.643"/>
<text text-anchor="start" x="122" y="-115.5" font-family="Helvetica,sans-Serif" font-size="10.00"> &lt; ImplicitlyConvertible</text>
<text text-anchor="start" x="122" y="-104.5" font-family="Helvetica,sans-Serif" font-size="10.00">&lt; const T *, const ::Protocol</text>
<text text-anchor="start" x="122" y="-93.5" font-family="Helvetica,sans-Serif" font-size="10.00">Message * &gt;::value||ImplicitlyConvertible</text>
<text text-anchor="start" x="122" y="-82.5" font-family="Helvetica,sans-Serif" font-size="10.00">&lt; const T *, const ::proto2::Message</text>
<text text-anchor="middle" x="209" y="-71.5" font-family="Helvetica,sans-Serif" font-size="10.00"> * &gt;::value &gt;</text>
</g>
<!-- Node11 -->
<g id="node11" class="node"><title>Node11</title>
<g id="a_node11"><a xlink:href="structtesting_1_1internal_1_1_is_a_protocol_message.html" target="_top" xlink:title="testing::internal::\lIsAProtocolMessage\&lt; T \&gt;">
<polygon fill="white" stroke="black" points="530,-22.5 530,-52.5 660,-52.5 660,-22.5 530,-22.5"/>
<text text-anchor="start" x="538" y="-40.5" font-family="Helvetica,sans-Serif" font-size="10.00">testing::internal::</text>
<text text-anchor="middle" x="595" y="-29.5" font-family="Helvetica,sans-Serif" font-size="10.00">IsAProtocolMessage&lt; T &gt;</text>
</a>
</g>
</g>
<!-- Node10&#45;&gt;Node11 -->
<g id="edge10" class="edge"><title>Node10&#45;&gt;Node11</title>
<path fill="none" stroke="midnightblue" d="M503.354,-37.5C512.392,-37.5 521.379,-37.5 529.987,-37.5"/>
<polygon fill="midnightblue" stroke="midnightblue" points="503.147,-34.0001 493.147,-37.5 503.147,-41.0001 503.147,-34.0001"/>
</g>
</g>
</svg>
