<?xml version="1.0" encoding="UTF-8" standalone="no"?>
<!DOCTYPE svg PUBLIC "-//W3C//DTD SVG 1.1//EN"
 "http://www.w3.org/Graphics/SVG/1.1/DTD/svg11.dtd">
<!-- Generated by graphviz version 2.38.0 (20140413.2041)
 -->
<!-- Title: Igor::iModelDataIOOBJ::OBJMaterial Pages: 1 -->
<svg width="230pt" height="128pt"
 viewBox="0.00 0.00 229.50 128.00" xmlns="http://www.w3.org/2000/svg" xmlns:xlink="http://www.w3.org/1999/xlink">
<g id="graph0" class="graph" transform="scale(1 1) rotate(0) translate(4 124)">
<title>Igor::iModelDataIOOBJ::OBJMaterial</title>
<polygon fill="white" stroke="none" points="-4,4 -4,-124 225.5,-124 225.5,4 -4,4"/>
<!-- Node1 -->
<g id="node1" class="node"><title>Node1</title>
<g id="a_node1"><a xlink:title=" ">
<polygon fill="#bfbfbf" stroke="black" points="46.5,-0.5 46.5,-30.5 162.5,-30.5 162.5,-0.5 46.5,-0.5"/>
<text text-anchor="start" x="54.5" y="-18.5" font-family="Helvetica,sans-Serif" font-size="10.00">Igor::iModelDataIOOBJ</text>
<text text-anchor="middle" x="104.5" y="-7.5" font-family="Helvetica,sans-Serif" font-size="10.00">::OBJMaterial</text>
</a>
</g>
</g>
<!-- Node2 -->
<g id="node2" class="node"><title>Node2</title>
<g id="a_node2"><a xlink:href="class_igor_aux_1_1ia_string.html" target="_top" xlink:title=" ">
<polygon fill="white" stroke="black" points="0,-100.5 0,-119.5 89,-119.5 89,-100.5 0,-100.5"/>
<text text-anchor="middle" x="44.5" y="-107.5" font-family="Helvetica,sans-Serif" font-size="10.00">IgorAux::iaString</text>
</a>
</g>
</g>
<!-- Node2&#45;&gt;Node1 -->
<g id="edge1" class="edge"><title>Node2&#45;&gt;Node1</title>
<path fill="none" stroke="#9a32cd" stroke-dasharray="5,2" d="M55.6723,-91.776C67.0965,-74.1637 84.6344,-47.1262 95.2893,-30.6999"/>
<polygon fill="#9a32cd" stroke="#9a32cd" points="52.5427,-90.1693 50.0371,-100.464 58.4154,-93.9787 52.5427,-90.1693"/>
<text text-anchor="middle" x="103" y="-63" font-family="Helvetica,sans-Serif" font-size="10.00"> _texture</text>
</g>
<!-- Node3 -->
<g id="node3" class="node"><title>Node3</title>
<g id="a_node3"><a xlink:href="class_igor_aux_1_1ia_color3.html" target="_top" xlink:title=" ">
<polygon fill="white" stroke="black" points="107.5,-100.5 107.5,-119.5 221.5,-119.5 221.5,-100.5 107.5,-100.5"/>
<text text-anchor="middle" x="164.5" y="-107.5" font-family="Helvetica,sans-Serif" font-size="10.00">IgorAux::iaColor3&lt; T &gt;</text>
</a>
</g>
</g>
<!-- Node3&#45;&gt;Node1 -->
<g id="edge2" class="edge"><title>Node3&#45;&gt;Node1</title>
<path fill="none" stroke="#9a32cd" stroke-dasharray="5,2" d="M153.807,-91.8096C146.267,-79.7648 135.881,-63.3247 126.5,-49 122.543,-42.9581 118.091,-36.3475 114.232,-30.6752"/>
<polygon fill="#9a32cd" stroke="#9a32cd" points="150.906,-93.7722 159.17,-100.403 156.844,-90.0661 150.906,-93.7722"/>
<text text-anchor="middle" x="170.5" y="-74" font-family="Helvetica,sans-Serif" font-size="10.00"> _specular</text>
<text text-anchor="middle" x="170.5" y="-63" font-family="Helvetica,sans-Serif" font-size="10.00">_diffuse</text>
<text text-anchor="middle" x="170.5" y="-52" font-family="Helvetica,sans-Serif" font-size="10.00">_ambient</text>
</g>
</g>
</svg>
