<?xml version="1.0" encoding="UTF-8" standalone="no"?>
<!DOCTYPE svg PUBLIC "-//W3C//DTD SVG 1.1//EN"
 "http://www.w3.org/Graphics/SVG/1.1/DTD/svg11.dtd">
<!-- Generated by graphviz version 2.38.0 (20140413.2041)
 -->
<!-- Title: Igor::iVoxelBlock Pages: 1 -->
<svg width="307pt" height="496pt"
 viewBox="0.00 0.00 307.00 496.00" xmlns="http://www.w3.org/2000/svg" xmlns:xlink="http://www.w3.org/1999/xlink">
<g id="graph0" class="graph" transform="scale(1 1) rotate(0) translate(4 492)">
<title>Igor::iVoxelBlock</title>
<polygon fill="white" stroke="none" points="-4,4 -4,-492 303,-492 303,4 -4,4"/>
<!-- Node1 -->
<g id="node1" class="node"><title>Node1</title>
<polygon fill="#bfbfbf" stroke="black" points="115,-0.5 115,-19.5 205,-19.5 205,-0.5 115,-0.5"/>
<text text-anchor="middle" x="160" y="-7.5" font-family="Helvetica,sans-Serif" font-size="10.00">Igor::iVoxelBlock</text>
</g>
<!-- Node2 -->
<g id="node2" class="node"><title>Node2</title>
<g id="a_node2"><a xlink:href="class_igor_1_1i_voxel_data.html" target="_top" xlink:title="Igor::iVoxelData">
<polygon fill="white" stroke="black" points="148,-145.5 148,-164.5 234,-164.5 234,-145.5 148,-145.5"/>
<text text-anchor="middle" x="191" y="-152.5" font-family="Helvetica,sans-Serif" font-size="10.00">Igor::iVoxelData</text>
</a>
</g>
</g>
<!-- Node2&#45;&gt;Node1 -->
<g id="edge1" class="edge"><title>Node2&#45;&gt;Node1</title>
<path fill="none" stroke="#9a32cd" stroke-dasharray="5,2" d="M222.823,-140.089C227.705,-136.538 232.084,-132.211 235,-127 243.535,-111.749 258.515,-72.4903 234,-38 227.107,-28.3023 216.353,-22.0777 205.157,-18.0856"/>
<polygon fill="#9a32cd" stroke="#9a32cd" points="220.971,-137.119 214.301,-145.35 224.649,-143.075 220.971,-137.119"/>
<text text-anchor="middle" x="273.5" y="-74.5" font-family="Helvetica,sans-Serif" font-size="10.00"> _voxelData</text>
</g>
<!-- Node9 -->
<g id="node9" class="node"><title>Node9</title>
<g id="a_node9"><a xlink:href="struct_igor_1_1i_voxel_block_info.html" target="_top" xlink:title="Igor::iVoxelBlockInfo">
<polygon fill="white" stroke="black" points="107.5,-67.5 107.5,-86.5 212.5,-86.5 212.5,-67.5 107.5,-67.5"/>
<text text-anchor="middle" x="160" y="-74.5" font-family="Helvetica,sans-Serif" font-size="10.00">Igor::iVoxelBlockInfo</text>
</a>
</g>
</g>
<!-- Node2&#45;&gt;Node9 -->
<g id="edge9" class="edge"><title>Node2&#45;&gt;Node9</title>
<path fill="none" stroke="#9a32cd" stroke-dasharray="5,2" d="M183.525,-135.674C177.178,-120.113 168.35,-98.4722 163.515,-86.6165"/>
<polygon fill="#9a32cd" stroke="#9a32cd" points="180.426,-137.344 187.444,-145.282 186.908,-134.701 180.426,-137.344"/>
<text text-anchor="middle" x="205.5" y="-113.5" font-family="Helvetica,sans-Serif" font-size="10.00"> _voxelData</text>
</g>
<!-- Node3 -->
<g id="node3" class="node"><title>Node3</title>
<g id="a_node3"><a xlink:href="struct_igor_1_1i_voxel_pole.html" target="_top" xlink:title="Igor::iVoxelPole">
<polygon fill="white" stroke="black" points="148.5,-234.5 148.5,-253.5 233.5,-253.5 233.5,-234.5 148.5,-234.5"/>
<text text-anchor="middle" x="191" y="-241.5" font-family="Helvetica,sans-Serif" font-size="10.00">Igor::iVoxelPole</text>
</a>
</g>
</g>
<!-- Node3&#45;&gt;Node2 -->
<g id="edge2" class="edge"><title>Node3&#45;&gt;Node2</title>
<path fill="none" stroke="#9a32cd" stroke-dasharray="5,2" d="M191,-224.195C191,-205.738 191,-178.412 191,-164.625"/>
<polygon fill="#9a32cd" stroke="#9a32cd" points="187.5,-224.34 191,-234.34 194.5,-224.34 187.5,-224.34"/>
<text text-anchor="middle" x="205" y="-197" font-family="Helvetica,sans-Serif" font-size="10.00"> _data</text>
</g>
<!-- Node4 -->
<g id="node4" class="node"><title>Node4</title>
<g id="a_node4"><a xlink:href="class_igor_aux_1_1ia_r_l_e.html" target="_top" xlink:title="IgorAux::iaRLE\&lt; uint8,\l uint8 \&gt;">
<polygon fill="white" stroke="black" points="133.5,-312.5 133.5,-342.5 248.5,-342.5 248.5,-312.5 133.5,-312.5"/>
<text text-anchor="start" x="141.5" y="-330.5" font-family="Helvetica,sans-Serif" font-size="10.00">IgorAux::iaRLE&lt; uint8,</text>
<text text-anchor="middle" x="191" y="-319.5" font-family="Helvetica,sans-Serif" font-size="10.00"> uint8 &gt;</text>
</a>
</g>
</g>
<!-- Node4&#45;&gt;Node3 -->
<g id="edge3" class="edge"><title>Node4&#45;&gt;Node3</title>
<path fill="none" stroke="#9a32cd" stroke-dasharray="5,2" d="M191,-302.248C191,-285.781 191,-264.989 191,-253.539"/>
<polygon fill="#9a32cd" stroke="#9a32cd" points="187.5,-302.304 191,-312.304 194.5,-302.304 187.5,-302.304"/>
<text text-anchor="middle" x="211" y="-286" font-family="Helvetica,sans-Serif" font-size="10.00"> _density</text>
<text text-anchor="middle" x="211" y="-275" font-family="Helvetica,sans-Serif" font-size="10.00">_material</text>
</g>
<!-- Node5 -->
<g id="node5" class="node"><title>Node5</title>
<g id="a_node5"><a xlink:href="class_igor_aux_1_1ia_r_l_e.html" target="_top" xlink:title="IgorAux::iaRLE\&lt; TValue,\l TIndex \&gt;">
<polygon fill="white" stroke="black" points="129,-390.5 129,-420.5 253,-420.5 253,-390.5 129,-390.5"/>
<text text-anchor="start" x="137" y="-408.5" font-family="Helvetica,sans-Serif" font-size="10.00">IgorAux::iaRLE&lt; TValue,</text>
<text text-anchor="middle" x="191" y="-397.5" font-family="Helvetica,sans-Serif" font-size="10.00"> TIndex &gt;</text>
</a>
</g>
</g>
<!-- Node5&#45;&gt;Node4 -->
<g id="edge4" class="edge"><title>Node5&#45;&gt;Node4</title>
<path fill="none" stroke="orange" stroke-dasharray="5,2" d="M191,-380.09C191,-367.757 191,-353.224 191,-342.731"/>
<polygon fill="orange" stroke="orange" points="187.5,-380.205 191,-390.205 194.5,-380.205 187.5,-380.205"/>
<text text-anchor="middle" x="226" y="-364" font-family="Helvetica,sans-Serif" font-size="10.00"> &lt; uint8, uint8 &gt;</text>
</g>
<!-- Node6 -->
<g id="node6" class="node"><title>Node6</title>
<polygon fill="white" stroke="#bfbfbf" points="168.5,-468.5 168.5,-487.5 213.5,-487.5 213.5,-468.5 168.5,-468.5"/>
<text text-anchor="middle" x="191" y="-475.5" font-family="Helvetica,sans-Serif" font-size="10.00">TIndex</text>
</g>
<!-- Node6&#45;&gt;Node5 -->
<g id="edge5" class="edge"><title>Node6&#45;&gt;Node5</title>
<path fill="none" stroke="#9a32cd" stroke-dasharray="5,2" d="M191,-458.236C191,-446.408 191,-431.383 191,-420.576"/>
<polygon fill="#9a32cd" stroke="#9a32cd" points="187.5,-458.355 191,-468.355 194.5,-458.355 187.5,-458.355"/>
<text text-anchor="middle" x="204.5" y="-442" font-family="Helvetica,sans-Serif" font-size="10.00"> _size</text>
</g>
<!-- Node7 -->
<g id="node7" class="node"><title>Node7</title>
<g id="a_node7"><a xlink:href="class_igor_aux_1_1ia_vector3.html" target="_top" xlink:title="IgorAux::iaVector3\&lt; T \&gt;">
<polygon fill="white" stroke="black" points="0,-145.5 0,-164.5 120,-164.5 120,-145.5 0,-145.5"/>
<text text-anchor="middle" x="60" y="-152.5" font-family="Helvetica,sans-Serif" font-size="10.00">IgorAux::iaVector3&lt; T &gt;</text>
</a>
</g>
</g>
<!-- Node7&#45;&gt;Node1 -->
<g id="edge6" class="edge"><title>Node7&#45;&gt;Node1</title>
<path fill="none" stroke="#9a32cd" stroke-dasharray="5,2" d="M45.1876,-137.229C30.8722,-118.883 13.3416,-89.1418 28,-67 47.1698,-38.0438 84.6436,-24.0167 114.781,-17.2466"/>
<polygon fill="#9a32cd" stroke="#9a32cd" points="42.735,-139.756 51.8018,-145.237 48.1321,-135.298 42.735,-139.756"/>
<text text-anchor="middle" x="63" y="-74.5" font-family="Helvetica,sans-Serif" font-size="10.00"> _positionInLOD</text>
</g>
<!-- Node7&#45;&gt;Node9 -->
<g id="edge10" class="edge"><title>Node7&#45;&gt;Node9</title>
<path fill="none" stroke="#9a32cd" stroke-dasharray="5,2" d="M71.1707,-137.138C78.657,-126.829 89.2675,-113.949 101,-105 111.211,-97.2118 124.027,-91.0058 135.104,-86.5173"/>
<polygon fill="#9a32cd" stroke="#9a32cd" points="68.2807,-135.164 65.4464,-145.372 74.0283,-139.16 68.2807,-135.164"/>
<text text-anchor="middle" x="134.5" y="-119" font-family="Helvetica,sans-Serif" font-size="10.00"> _lodOffset</text>
<text text-anchor="middle" x="134.5" y="-108" font-family="Helvetica,sans-Serif" font-size="10.00">_positionInLOD</text>
</g>
<!-- Node8 -->
<g id="node8" class="node"><title>Node8</title>
<polygon fill="white" stroke="#bfbfbf" points="45.5,-234.5 45.5,-253.5 74.5,-253.5 74.5,-234.5 45.5,-234.5"/>
<text text-anchor="middle" x="60" y="-241.5" font-family="Helvetica,sans-Serif" font-size="10.00">T</text>
</g>
<!-- Node8&#45;&gt;Node7 -->
<g id="edge7" class="edge"><title>Node8&#45;&gt;Node7</title>
<path fill="none" stroke="#9a32cd" stroke-dasharray="5,2" d="M60,-224.195C60,-205.738 60,-178.412 60,-164.625"/>
<polygon fill="#9a32cd" stroke="#9a32cd" points="56.5001,-224.34 60,-234.34 63.5001,-224.34 56.5001,-224.34"/>
<text text-anchor="middle" x="67" y="-208" font-family="Helvetica,sans-Serif" font-size="10.00"> _x</text>
<text text-anchor="middle" x="67" y="-197" font-family="Helvetica,sans-Serif" font-size="10.00">_y</text>
<text text-anchor="middle" x="67" y="-186" font-family="Helvetica,sans-Serif" font-size="10.00">_z</text>
</g>
<!-- Node9&#45;&gt;Node1 -->
<g id="edge8" class="edge"><title>Node9&#45;&gt;Node1</title>
<path fill="none" stroke="#9a32cd" stroke-dasharray="5,2" d="M160,-57.037C160,-44.6703 160,-29.1198 160,-19.6273"/>
<polygon fill="#9a32cd" stroke="#9a32cd" points="156.5,-57.2338 160,-67.2338 163.5,-57.2338 156.5,-57.2338"/>
<text text-anchor="middle" x="195" y="-41" font-family="Helvetica,sans-Serif" font-size="10.00"> _voxelBlockInfo</text>
</g>
</g>
</svg>
