<?xml version="1.0" encoding="UTF-8" standalone="no"?>
<!DOCTYPE svg PUBLIC "-//W3C//DTD SVG 1.1//EN"
 "http://www.w3.org/Graphics/SVG/1.1/DTD/svg11.dtd">
<!-- Generated by graphviz version 2.38.0 (20140413.2041)
 -->
<!-- Title: Igor::iVoxelPole Pages: 1 -->
<svg width="140pt" height="262pt"
 viewBox="0.00 0.00 140.00 262.00" xmlns="http://www.w3.org/2000/svg" xmlns:xlink="http://www.w3.org/1999/xlink">
<g id="graph0" class="graph" transform="scale(1 1) rotate(0) translate(4 258)">
<title>Igor::iVoxelPole</title>
<polygon fill="white" stroke="none" points="-4,4 -4,-258 136,-258 136,4 -4,4"/>
<!-- Node1 -->
<g id="node1" class="node"><title>Node1</title>
<polygon fill="#bfbfbf" stroke="black" points="19.5,-0.5 19.5,-19.5 104.5,-19.5 104.5,-0.5 19.5,-0.5"/>
<text text-anchor="middle" x="62" y="-7.5" font-family="Helvetica,sans-Serif" font-size="10.00">Igor::iVoxelPole</text>
</g>
<!-- Node2 -->
<g id="node2" class="node"><title>Node2</title>
<g id="a_node2"><a xlink:href="class_igor_aux_1_1ia_r_l_e.html" target="_top" xlink:title="IgorAux::iaRLE\&lt; uint8,\l uint8 \&gt;">
<polygon fill="white" stroke="black" points="4.5,-78.5 4.5,-108.5 119.5,-108.5 119.5,-78.5 4.5,-78.5"/>
<text text-anchor="start" x="12.5" y="-96.5" font-family="Helvetica,sans-Serif" font-size="10.00">IgorAux::iaRLE&lt; uint8,</text>
<text text-anchor="middle" x="62" y="-85.5" font-family="Helvetica,sans-Serif" font-size="10.00"> uint8 &gt;</text>
</a>
</g>
</g>
<!-- Node2&#45;&gt;Node1 -->
<g id="edge1" class="edge"><title>Node2&#45;&gt;Node1</title>
<path fill="none" stroke="#9a32cd" stroke-dasharray="5,2" d="M62,-68.2485C62,-51.781 62,-30.9886 62,-19.5391"/>
<polygon fill="#9a32cd" stroke="#9a32cd" points="58.5001,-68.3037 62,-78.3038 65.5001,-68.3038 58.5001,-68.3037"/>
<text text-anchor="middle" x="82" y="-52" font-family="Helvetica,sans-Serif" font-size="10.00"> _density</text>
<text text-anchor="middle" x="82" y="-41" font-family="Helvetica,sans-Serif" font-size="10.00">_material</text>
</g>
<!-- Node3 -->
<g id="node3" class="node"><title>Node3</title>
<g id="a_node3"><a xlink:href="class_igor_aux_1_1ia_r_l_e.html" target="_top" xlink:title="IgorAux::iaRLE\&lt; TValue,\l TIndex \&gt;">
<polygon fill="white" stroke="black" points="0,-156.5 0,-186.5 124,-186.5 124,-156.5 0,-156.5"/>
<text text-anchor="start" x="8" y="-174.5" font-family="Helvetica,sans-Serif" font-size="10.00">IgorAux::iaRLE&lt; TValue,</text>
<text text-anchor="middle" x="62" y="-163.5" font-family="Helvetica,sans-Serif" font-size="10.00"> TIndex &gt;</text>
</a>
</g>
</g>
<!-- Node3&#45;&gt;Node2 -->
<g id="edge2" class="edge"><title>Node3&#45;&gt;Node2</title>
<path fill="none" stroke="orange" stroke-dasharray="5,2" d="M62,-146.09C62,-133.757 62,-119.224 62,-108.731"/>
<polygon fill="orange" stroke="orange" points="58.5001,-146.205 62,-156.205 65.5001,-146.205 58.5001,-146.205"/>
<text text-anchor="middle" x="97" y="-130" font-family="Helvetica,sans-Serif" font-size="10.00"> &lt; uint8, uint8 &gt;</text>
</g>
<!-- Node4 -->
<g id="node4" class="node"><title>Node4</title>
<polygon fill="white" stroke="#bfbfbf" points="39.5,-234.5 39.5,-253.5 84.5,-253.5 84.5,-234.5 39.5,-234.5"/>
<text text-anchor="middle" x="62" y="-241.5" font-family="Helvetica,sans-Serif" font-size="10.00">TIndex</text>
</g>
<!-- Node4&#45;&gt;Node3 -->
<g id="edge3" class="edge"><title>Node4&#45;&gt;Node3</title>
<path fill="none" stroke="#9a32cd" stroke-dasharray="5,2" d="M62,-224.236C62,-212.408 62,-197.383 62,-186.576"/>
<polygon fill="#9a32cd" stroke="#9a32cd" points="58.5001,-224.355 62,-234.355 65.5001,-224.355 58.5001,-224.355"/>
<text text-anchor="middle" x="75.5" y="-208" font-family="Helvetica,sans-Serif" font-size="10.00"> _size</text>
</g>
</g>
</svg>
