<?xml version="1.0" encoding="UTF-8" standalone="no"?>
<!DOCTYPE svg PUBLIC "-//W3C//DTD SVG 1.1//EN"
 "http://www.w3.org/Graphics/SVG/1.1/DTD/svg11.dtd">
<!-- Generated by graphviz version 2.38.0 (20140413.2041)
 -->
<!-- Title: testing::internal::FloatingPoint&lt; RawType &gt;::FloatingPointUnion Pages: 1 -->
<svg width="159pt" height="217pt"
 viewBox="0.00 0.00 159.00 217.00" xmlns="http://www.w3.org/2000/svg" xmlns:xlink="http://www.w3.org/1999/xlink">
<g id="graph0" class="graph" transform="scale(1 1) rotate(0) translate(4 213)">
<title>testing::internal::FloatingPoint&lt; RawType &gt;::FloatingPointUnion</title>
<polygon fill="white" stroke="none" points="-4,4 -4,-213 155,-213 155,4 -4,4"/>
<!-- Node1 -->
<g id="node1" class="node"><title>Node1</title>
<polygon fill="#bfbfbf" stroke="black" points="0,-0.5 0,-41.5 122,-41.5 122,-0.5 0,-0.5"/>
<text text-anchor="start" x="8" y="-29.5" font-family="Helvetica,sans-Serif" font-size="10.00">testing::internal::</text>
<text text-anchor="start" x="8" y="-18.5" font-family="Helvetica,sans-Serif" font-size="10.00">FloatingPoint&lt; RawType</text>
<text text-anchor="middle" x="61" y="-7.5" font-family="Helvetica,sans-Serif" font-size="10.00"> &gt;::FloatingPointUnion</text>
</g>
<!-- Node2 -->
<g id="node2" class="node"><title>Node2</title>
<g id="a_node2"><a xlink:href="classtesting_1_1internal_1_1_type_with_size.html" target="_top" xlink:title="testing::internal::\lTypeWithSize\&lt; sizeof\l(RawType)\&gt;">
<polygon fill="white" stroke="black" points="5,-89.5 5,-130.5 117,-130.5 117,-89.5 5,-89.5"/>
<text text-anchor="start" x="13" y="-118.5" font-family="Helvetica,sans-Serif" font-size="10.00">testing::internal::</text>
<text text-anchor="start" x="13" y="-107.5" font-family="Helvetica,sans-Serif" font-size="10.00">TypeWithSize&lt; sizeof</text>
<text text-anchor="middle" x="61" y="-96.5" font-family="Helvetica,sans-Serif" font-size="10.00">(RawType)&gt;</text>
</a>
</g>
</g>
<!-- Node2&#45;&gt;Node1 -->
<g id="edge1" class="edge"><title>Node2&#45;&gt;Node1</title>
<path fill="none" stroke="#9a32cd" stroke-dasharray="5,2" d="M61,-78.9407C61,-66.6014 61,-52.6619 61,-41.6635"/>
<polygon fill="#9a32cd" stroke="#9a32cd" points="57.5001,-79.2583 61,-89.2584 64.5001,-79.2584 57.5001,-79.2583"/>
<text text-anchor="middle" x="73.5" y="-63" font-family="Helvetica,sans-Serif" font-size="10.00"> bits_</text>
</g>
<!-- Node3 -->
<g id="node3" class="node"><title>Node3</title>
<g id="a_node3"><a xlink:href="classtesting_1_1internal_1_1_type_with_size.html" target="_top" xlink:title="testing::internal::\lTypeWithSize\&lt; size \&gt;">
<polygon fill="white" stroke="black" points="4.5,-178.5 4.5,-208.5 117.5,-208.5 117.5,-178.5 4.5,-178.5"/>
<text text-anchor="start" x="12.5" y="-196.5" font-family="Helvetica,sans-Serif" font-size="10.00">testing::internal::</text>
<text text-anchor="middle" x="61" y="-185.5" font-family="Helvetica,sans-Serif" font-size="10.00">TypeWithSize&lt; size &gt;</text>
</a>
</g>
</g>
<!-- Node3&#45;&gt;Node2 -->
<g id="edge2" class="edge"><title>Node3&#45;&gt;Node2</title>
<path fill="none" stroke="orange" stroke-dasharray="5,2" d="M61,-168.066C61,-156.061 61,-141.794 61,-130.528"/>
<polygon fill="orange" stroke="orange" points="57.5001,-168.304 61,-178.304 64.5001,-168.304 57.5001,-168.304"/>
<text text-anchor="middle" x="106" y="-152" font-family="Helvetica,sans-Serif" font-size="10.00"> &lt; sizeof(RawType)&gt;</text>
</g>
</g>
</svg>
